G04*
G04 #@! TF.GenerationSoftware,Altium Limited,Altium Designer,24.0.1 (36)*
G04*
G04 Layer_Color=65535*
%FSLAX44Y44*%
%MOMM*%
G71*
G04*
G04 #@! TF.SameCoordinates,6AB65015-FC58-47BD-B1F7-23B370D85B0D*
G04*
G04*
G04 #@! TF.FilePolarity,Positive*
G04*
G01*
G75*
%ADD10C,0.2540*%
G36*
X1241089Y606630D02*
X1238991D01*
X1235589Y619022D01*
Y619040D01*
X1235572Y619093D01*
X1235554Y619163D01*
X1235519Y619269D01*
X1235483Y619392D01*
X1235448Y619533D01*
X1235360Y619851D01*
X1235272Y620168D01*
X1235184Y620485D01*
X1235148Y620626D01*
X1235113Y620750D01*
X1235078Y620855D01*
X1235060Y620926D01*
Y620908D01*
X1235043Y620873D01*
Y620820D01*
X1235007Y620732D01*
X1234990Y620644D01*
X1234972Y620521D01*
X1234902Y620274D01*
X1234831Y619974D01*
X1234743Y619639D01*
X1234655Y619322D01*
X1234567Y619022D01*
X1231147Y606630D01*
X1228908D01*
X1224625Y622900D01*
X1226846D01*
X1229296Y612218D01*
Y612200D01*
X1229314Y612147D01*
X1229331Y612059D01*
X1229367Y611936D01*
X1229402Y611777D01*
X1229437Y611601D01*
X1229490Y611407D01*
X1229543Y611178D01*
X1229596Y610931D01*
X1229649Y610667D01*
X1229754Y610120D01*
X1229878Y609521D01*
X1229984Y608904D01*
Y608939D01*
X1230019Y609010D01*
X1230036Y609151D01*
X1230089Y609309D01*
X1230125Y609521D01*
X1230178Y609750D01*
X1230248Y609997D01*
X1230301Y610244D01*
X1230442Y610773D01*
X1230495Y611019D01*
X1230565Y611266D01*
X1230618Y611478D01*
X1230654Y611654D01*
X1230689Y611795D01*
X1230724Y611901D01*
X1233826Y622900D01*
X1236418D01*
X1238727Y614651D01*
X1238745Y614615D01*
X1238762Y614510D01*
X1238815Y614351D01*
X1238868Y614122D01*
X1238938Y613857D01*
X1239027Y613540D01*
X1239115Y613187D01*
X1239221Y612782D01*
X1239326Y612359D01*
X1239432Y611901D01*
X1239538Y611425D01*
X1239643Y610931D01*
X1239837Y609926D01*
X1240014Y608904D01*
Y608922D01*
X1240031Y608974D01*
X1240049Y609063D01*
X1240067Y609168D01*
X1240102Y609327D01*
X1240137Y609503D01*
X1240190Y609697D01*
X1240243Y609926D01*
X1240296Y610173D01*
X1240349Y610438D01*
X1240419Y610737D01*
X1240490Y611037D01*
X1240648Y611707D01*
X1240825Y612430D01*
X1243381Y622900D01*
X1245549D01*
X1241089Y606630D01*
D02*
G37*
G36*
X1174239D02*
X1172018D01*
X1165707Y622900D01*
X1168052D01*
X1172282Y611072D01*
Y611054D01*
X1172300Y611002D01*
X1172335Y610931D01*
X1172371Y610825D01*
X1172406Y610702D01*
X1172459Y610561D01*
X1172512Y610402D01*
X1172582Y610208D01*
X1172706Y609803D01*
X1172847Y609362D01*
X1172988Y608886D01*
X1173129Y608410D01*
Y608428D01*
X1173146Y608463D01*
X1173164Y608551D01*
X1173199Y608639D01*
X1173234Y608763D01*
X1173270Y608904D01*
X1173323Y609063D01*
X1173375Y609239D01*
X1173499Y609644D01*
X1173658Y610103D01*
X1173834Y610579D01*
X1174010Y611072D01*
X1178399Y622900D01*
X1180585D01*
X1174239Y606630D01*
D02*
G37*
G36*
X1119588Y613769D02*
Y613734D01*
Y613663D01*
Y613540D01*
Y613364D01*
X1119570Y613152D01*
X1119552Y612923D01*
X1119535Y612659D01*
X1119517Y612359D01*
X1119447Y611742D01*
X1119359Y611090D01*
X1119218Y610455D01*
X1119129Y610155D01*
X1119024Y609874D01*
Y609856D01*
X1119006Y609803D01*
X1118971Y609733D01*
X1118918Y609627D01*
X1118847Y609503D01*
X1118777Y609362D01*
X1118565Y609045D01*
X1118442Y608851D01*
X1118301Y608675D01*
X1118125Y608463D01*
X1117948Y608269D01*
X1117737Y608075D01*
X1117525Y607882D01*
X1117278Y607705D01*
X1117014Y607529D01*
X1116996Y607511D01*
X1116944Y607494D01*
X1116873Y607441D01*
X1116750Y607388D01*
X1116609Y607318D01*
X1116432Y607247D01*
X1116238Y607159D01*
X1115992Y607088D01*
X1115745Y607000D01*
X1115463Y606912D01*
X1115145Y606842D01*
X1114811Y606771D01*
X1114440Y606718D01*
X1114053Y606665D01*
X1113647Y606648D01*
X1113224Y606630D01*
X1112995D01*
X1112836Y606648D01*
X1112642D01*
X1112431Y606665D01*
X1112166Y606701D01*
X1111902Y606736D01*
X1111303Y606824D01*
X1110668Y606965D01*
X1110051Y607159D01*
X1109752Y607265D01*
X1109469Y607406D01*
X1109452Y607423D01*
X1109399Y607441D01*
X1109328Y607494D01*
X1109240Y607547D01*
X1109117Y607635D01*
X1108976Y607741D01*
X1108835Y607846D01*
X1108676Y607987D01*
X1108324Y608305D01*
X1107989Y608692D01*
X1107671Y609151D01*
X1107530Y609415D01*
X1107407Y609680D01*
Y609697D01*
X1107389Y609750D01*
X1107354Y609838D01*
X1107319Y609962D01*
X1107266Y610103D01*
X1107213Y610297D01*
X1107160Y610508D01*
X1107107Y610755D01*
X1107037Y611037D01*
X1106984Y611337D01*
X1106931Y611671D01*
X1106896Y612042D01*
X1106843Y612430D01*
X1106825Y612853D01*
X1106790Y613293D01*
Y613769D01*
Y623165D01*
X1108941D01*
Y613769D01*
Y613752D01*
Y613681D01*
Y613575D01*
Y613417D01*
X1108958Y613240D01*
Y613046D01*
X1108976Y612817D01*
X1108994Y612588D01*
X1109029Y612077D01*
X1109099Y611566D01*
X1109205Y611072D01*
X1109258Y610843D01*
X1109328Y610649D01*
Y610631D01*
X1109346Y610614D01*
X1109364Y610561D01*
X1109399Y610490D01*
X1109505Y610297D01*
X1109646Y610085D01*
X1109822Y609821D01*
X1110051Y609574D01*
X1110333Y609327D01*
X1110668Y609098D01*
X1110686D01*
X1110721Y609080D01*
X1110774Y609045D01*
X1110844Y609010D01*
X1110932Y608974D01*
X1111056Y608939D01*
X1111179Y608886D01*
X1111320Y608834D01*
X1111673Y608745D01*
X1112078Y608657D01*
X1112537Y608587D01*
X1113030Y608569D01*
X1113259D01*
X1113418Y608587D01*
X1113612Y608604D01*
X1113841Y608622D01*
X1114088Y608657D01*
X1114352Y608710D01*
X1114899Y608834D01*
X1115181Y608922D01*
X1115463Y609027D01*
X1115727Y609151D01*
X1115974Y609292D01*
X1116203Y609450D01*
X1116415Y609644D01*
X1116432Y609662D01*
X1116468Y609697D01*
X1116503Y609768D01*
X1116573Y609856D01*
X1116644Y609979D01*
X1116732Y610138D01*
X1116838Y610332D01*
X1116926Y610561D01*
X1117014Y610825D01*
X1117120Y611125D01*
X1117208Y611460D01*
X1117278Y611830D01*
X1117349Y612253D01*
X1117402Y612711D01*
X1117420Y613223D01*
X1117437Y613769D01*
Y623165D01*
X1119588D01*
Y613769D01*
D02*
G37*
G36*
X987089Y606630D02*
X984991D01*
X981589Y619022D01*
Y619040D01*
X981572Y619093D01*
X981554Y619163D01*
X981519Y619269D01*
X981483Y619392D01*
X981448Y619533D01*
X981360Y619851D01*
X981272Y620168D01*
X981184Y620485D01*
X981149Y620626D01*
X981113Y620750D01*
X981078Y620855D01*
X981060Y620926D01*
Y620908D01*
X981043Y620873D01*
Y620820D01*
X981008Y620732D01*
X980990Y620644D01*
X980972Y620521D01*
X980902Y620274D01*
X980831Y619974D01*
X980743Y619639D01*
X980655Y619322D01*
X980567Y619022D01*
X977147Y606630D01*
X974908D01*
X970625Y622900D01*
X972846D01*
X975296Y612218D01*
Y612200D01*
X975314Y612147D01*
X975331Y612059D01*
X975367Y611936D01*
X975402Y611777D01*
X975437Y611601D01*
X975490Y611407D01*
X975543Y611178D01*
X975596Y610931D01*
X975649Y610667D01*
X975754Y610120D01*
X975878Y609521D01*
X975984Y608904D01*
Y608939D01*
X976019Y609010D01*
X976037Y609151D01*
X976089Y609309D01*
X976125Y609521D01*
X976178Y609750D01*
X976248Y609997D01*
X976301Y610244D01*
X976442Y610773D01*
X976495Y611019D01*
X976565Y611266D01*
X976618Y611478D01*
X976654Y611654D01*
X976689Y611795D01*
X976724Y611901D01*
X979826Y622900D01*
X982418D01*
X984727Y614651D01*
X984744Y614615D01*
X984762Y614510D01*
X984815Y614351D01*
X984868Y614122D01*
X984938Y613857D01*
X985027Y613540D01*
X985115Y613187D01*
X985220Y612782D01*
X985326Y612359D01*
X985432Y611901D01*
X985538Y611425D01*
X985643Y610931D01*
X985837Y609926D01*
X986014Y608904D01*
Y608922D01*
X986031Y608974D01*
X986049Y609063D01*
X986067Y609168D01*
X986102Y609327D01*
X986137Y609503D01*
X986190Y609697D01*
X986243Y609926D01*
X986296Y610173D01*
X986349Y610438D01*
X986419Y610737D01*
X986490Y611037D01*
X986648Y611707D01*
X986825Y612430D01*
X989381Y622900D01*
X991549D01*
X987089Y606630D01*
D02*
G37*
G36*
X920239D02*
X918018D01*
X911707Y622900D01*
X914052D01*
X918282Y611072D01*
Y611054D01*
X918300Y611002D01*
X918335Y610931D01*
X918371Y610825D01*
X918406Y610702D01*
X918459Y610561D01*
X918512Y610402D01*
X918582Y610208D01*
X918706Y609803D01*
X918847Y609362D01*
X918988Y608886D01*
X919129Y608410D01*
Y608428D01*
X919146Y608463D01*
X919164Y608551D01*
X919199Y608639D01*
X919234Y608763D01*
X919270Y608904D01*
X919323Y609063D01*
X919375Y609239D01*
X919499Y609644D01*
X919658Y610103D01*
X919834Y610579D01*
X920010Y611072D01*
X924399Y622900D01*
X926585D01*
X920239Y606630D01*
D02*
G37*
G36*
X865588Y613769D02*
Y613734D01*
Y613663D01*
Y613540D01*
Y613364D01*
X865570Y613152D01*
X865552Y612923D01*
X865535Y612659D01*
X865517Y612359D01*
X865447Y611742D01*
X865359Y611090D01*
X865218Y610455D01*
X865129Y610155D01*
X865024Y609874D01*
Y609856D01*
X865006Y609803D01*
X864971Y609733D01*
X864918Y609627D01*
X864847Y609503D01*
X864777Y609362D01*
X864565Y609045D01*
X864442Y608851D01*
X864301Y608675D01*
X864125Y608463D01*
X863948Y608269D01*
X863737Y608075D01*
X863525Y607882D01*
X863278Y607705D01*
X863014Y607529D01*
X862996Y607511D01*
X862943Y607494D01*
X862873Y607441D01*
X862750Y607388D01*
X862609Y607318D01*
X862432Y607247D01*
X862238Y607159D01*
X861992Y607088D01*
X861745Y607000D01*
X861463Y606912D01*
X861145Y606842D01*
X860811Y606771D01*
X860440Y606718D01*
X860053Y606665D01*
X859647Y606648D01*
X859224Y606630D01*
X858995D01*
X858836Y606648D01*
X858642D01*
X858431Y606665D01*
X858166Y606701D01*
X857902Y606736D01*
X857303Y606824D01*
X856668Y606965D01*
X856051Y607159D01*
X855751Y607265D01*
X855469Y607406D01*
X855452Y607423D01*
X855399Y607441D01*
X855328Y607494D01*
X855240Y607547D01*
X855117Y607635D01*
X854976Y607741D01*
X854835Y607846D01*
X854676Y607987D01*
X854324Y608305D01*
X853989Y608692D01*
X853671Y609151D01*
X853530Y609415D01*
X853407Y609680D01*
Y609697D01*
X853389Y609750D01*
X853354Y609838D01*
X853319Y609962D01*
X853266Y610103D01*
X853213Y610297D01*
X853160Y610508D01*
X853107Y610755D01*
X853037Y611037D01*
X852984Y611337D01*
X852931Y611671D01*
X852896Y612042D01*
X852843Y612430D01*
X852825Y612853D01*
X852790Y613293D01*
Y613769D01*
Y623165D01*
X854941D01*
Y613769D01*
Y613752D01*
Y613681D01*
Y613575D01*
Y613417D01*
X854958Y613240D01*
Y613046D01*
X854976Y612817D01*
X854994Y612588D01*
X855029Y612077D01*
X855099Y611566D01*
X855205Y611072D01*
X855258Y610843D01*
X855328Y610649D01*
Y610631D01*
X855346Y610614D01*
X855364Y610561D01*
X855399Y610490D01*
X855505Y610297D01*
X855646Y610085D01*
X855822Y609821D01*
X856051Y609574D01*
X856333Y609327D01*
X856668Y609098D01*
X856686D01*
X856721Y609080D01*
X856774Y609045D01*
X856844Y609010D01*
X856933Y608974D01*
X857056Y608939D01*
X857179Y608886D01*
X857320Y608834D01*
X857673Y608745D01*
X858078Y608657D01*
X858537Y608587D01*
X859030Y608569D01*
X859259D01*
X859418Y608587D01*
X859612Y608604D01*
X859841Y608622D01*
X860088Y608657D01*
X860352Y608710D01*
X860899Y608834D01*
X861181Y608922D01*
X861463Y609027D01*
X861727Y609151D01*
X861974Y609292D01*
X862203Y609450D01*
X862415Y609644D01*
X862432Y609662D01*
X862468Y609697D01*
X862503Y609768D01*
X862573Y609856D01*
X862644Y609979D01*
X862732Y610138D01*
X862838Y610332D01*
X862926Y610561D01*
X863014Y610825D01*
X863120Y611125D01*
X863208Y611460D01*
X863278Y611830D01*
X863349Y612253D01*
X863402Y612711D01*
X863419Y613223D01*
X863437Y613769D01*
Y623165D01*
X865588D01*
Y613769D01*
D02*
G37*
G36*
X733089Y606630D02*
X730991D01*
X727589Y619022D01*
Y619040D01*
X727572Y619093D01*
X727554Y619163D01*
X727519Y619269D01*
X727483Y619392D01*
X727448Y619533D01*
X727360Y619851D01*
X727272Y620168D01*
X727184Y620485D01*
X727149Y620626D01*
X727113Y620750D01*
X727078Y620855D01*
X727060Y620926D01*
Y620908D01*
X727043Y620873D01*
Y620820D01*
X727008Y620732D01*
X726990Y620644D01*
X726972Y620521D01*
X726902Y620274D01*
X726831Y619974D01*
X726743Y619639D01*
X726655Y619322D01*
X726567Y619022D01*
X723147Y606630D01*
X720908D01*
X716625Y622900D01*
X718846D01*
X721296Y612218D01*
Y612200D01*
X721314Y612147D01*
X721331Y612059D01*
X721367Y611936D01*
X721402Y611777D01*
X721437Y611601D01*
X721490Y611407D01*
X721543Y611178D01*
X721596Y610931D01*
X721649Y610667D01*
X721755Y610120D01*
X721878Y609521D01*
X721984Y608904D01*
Y608939D01*
X722019Y609010D01*
X722037Y609151D01*
X722089Y609309D01*
X722125Y609521D01*
X722178Y609750D01*
X722248Y609997D01*
X722301Y610244D01*
X722442Y610773D01*
X722495Y611019D01*
X722565Y611266D01*
X722618Y611478D01*
X722654Y611654D01*
X722689Y611795D01*
X722724Y611901D01*
X725826Y622900D01*
X728418D01*
X730727Y614651D01*
X730744Y614615D01*
X730762Y614510D01*
X730815Y614351D01*
X730868Y614122D01*
X730938Y613857D01*
X731027Y613540D01*
X731115Y613187D01*
X731220Y612782D01*
X731326Y612359D01*
X731432Y611901D01*
X731538Y611425D01*
X731644Y610931D01*
X731837Y609926D01*
X732014Y608904D01*
Y608922D01*
X732031Y608974D01*
X732049Y609063D01*
X732067Y609168D01*
X732102Y609327D01*
X732137Y609503D01*
X732190Y609697D01*
X732243Y609926D01*
X732296Y610173D01*
X732349Y610438D01*
X732419Y610737D01*
X732490Y611037D01*
X732648Y611707D01*
X732825Y612430D01*
X735381Y622900D01*
X737549D01*
X733089Y606630D01*
D02*
G37*
G36*
X666239D02*
X664018D01*
X657707Y622900D01*
X660052D01*
X664283Y611072D01*
Y611054D01*
X664300Y611002D01*
X664335Y610931D01*
X664371Y610825D01*
X664406Y610702D01*
X664459Y610561D01*
X664512Y610402D01*
X664582Y610208D01*
X664706Y609803D01*
X664847Y609362D01*
X664988Y608886D01*
X665129Y608410D01*
Y608428D01*
X665146Y608463D01*
X665164Y608551D01*
X665199Y608639D01*
X665234Y608763D01*
X665270Y608904D01*
X665322Y609063D01*
X665375Y609239D01*
X665499Y609644D01*
X665658Y610103D01*
X665834Y610579D01*
X666010Y611072D01*
X670399Y622900D01*
X672585D01*
X666239Y606630D01*
D02*
G37*
G36*
X611588Y613769D02*
Y613734D01*
Y613663D01*
Y613540D01*
Y613364D01*
X611570Y613152D01*
X611552Y612923D01*
X611535Y612659D01*
X611517Y612359D01*
X611447Y611742D01*
X611358Y611090D01*
X611217Y610455D01*
X611129Y610155D01*
X611024Y609874D01*
Y609856D01*
X611006Y609803D01*
X610971Y609733D01*
X610918Y609627D01*
X610847Y609503D01*
X610777Y609362D01*
X610565Y609045D01*
X610442Y608851D01*
X610301Y608675D01*
X610125Y608463D01*
X609948Y608269D01*
X609737Y608075D01*
X609525Y607882D01*
X609278Y607705D01*
X609014Y607529D01*
X608996Y607511D01*
X608943Y607494D01*
X608873Y607441D01*
X608750Y607388D01*
X608609Y607318D01*
X608432Y607247D01*
X608238Y607159D01*
X607992Y607088D01*
X607745Y607000D01*
X607463Y606912D01*
X607146Y606842D01*
X606811Y606771D01*
X606440Y606718D01*
X606053Y606665D01*
X605647Y606648D01*
X605224Y606630D01*
X604995D01*
X604836Y606648D01*
X604642D01*
X604431Y606665D01*
X604166Y606701D01*
X603902Y606736D01*
X603303Y606824D01*
X602668Y606965D01*
X602051Y607159D01*
X601752Y607265D01*
X601469Y607406D01*
X601452Y607423D01*
X601399Y607441D01*
X601328Y607494D01*
X601240Y607547D01*
X601117Y607635D01*
X600976Y607741D01*
X600835Y607846D01*
X600676Y607987D01*
X600324Y608305D01*
X599989Y608692D01*
X599671Y609151D01*
X599530Y609415D01*
X599407Y609680D01*
Y609697D01*
X599389Y609750D01*
X599354Y609838D01*
X599319Y609962D01*
X599266Y610103D01*
X599213Y610297D01*
X599160Y610508D01*
X599107Y610755D01*
X599037Y611037D01*
X598984Y611337D01*
X598931Y611671D01*
X598896Y612042D01*
X598843Y612430D01*
X598825Y612853D01*
X598790Y613293D01*
Y613769D01*
Y623165D01*
X600941D01*
Y613769D01*
Y613752D01*
Y613681D01*
Y613575D01*
Y613417D01*
X600958Y613240D01*
Y613046D01*
X600976Y612817D01*
X600993Y612588D01*
X601029Y612077D01*
X601099Y611566D01*
X601205Y611072D01*
X601258Y610843D01*
X601328Y610649D01*
Y610631D01*
X601346Y610614D01*
X601364Y610561D01*
X601399Y610490D01*
X601505Y610297D01*
X601646Y610085D01*
X601822Y609821D01*
X602051Y609574D01*
X602333Y609327D01*
X602668Y609098D01*
X602686D01*
X602721Y609080D01*
X602774Y609045D01*
X602844Y609010D01*
X602933Y608974D01*
X603056Y608939D01*
X603179Y608886D01*
X603320Y608834D01*
X603673Y608745D01*
X604078Y608657D01*
X604537Y608587D01*
X605030Y608569D01*
X605259D01*
X605418Y608587D01*
X605612Y608604D01*
X605841Y608622D01*
X606088Y608657D01*
X606352Y608710D01*
X606899Y608834D01*
X607181Y608922D01*
X607463Y609027D01*
X607727Y609151D01*
X607974Y609292D01*
X608203Y609450D01*
X608415Y609644D01*
X608432Y609662D01*
X608468Y609697D01*
X608503Y609768D01*
X608573Y609856D01*
X608644Y609979D01*
X608732Y610138D01*
X608838Y610332D01*
X608926Y610561D01*
X609014Y610825D01*
X609120Y611125D01*
X609208Y611460D01*
X609278Y611830D01*
X609349Y612253D01*
X609402Y612711D01*
X609420Y613223D01*
X609437Y613769D01*
Y623165D01*
X611588D01*
Y613769D01*
D02*
G37*
G36*
X479089Y606630D02*
X476991D01*
X473589Y619022D01*
Y619040D01*
X473572Y619093D01*
X473554Y619163D01*
X473519Y619269D01*
X473483Y619392D01*
X473448Y619533D01*
X473360Y619851D01*
X473272Y620168D01*
X473184Y620485D01*
X473148Y620626D01*
X473113Y620750D01*
X473078Y620855D01*
X473060Y620926D01*
Y620908D01*
X473043Y620873D01*
Y620820D01*
X473008Y620732D01*
X472990Y620644D01*
X472972Y620521D01*
X472902Y620274D01*
X472831Y619974D01*
X472743Y619639D01*
X472655Y619322D01*
X472567Y619022D01*
X469147Y606630D01*
X466908D01*
X462625Y622900D01*
X464846D01*
X467296Y612218D01*
Y612200D01*
X467314Y612147D01*
X467331Y612059D01*
X467367Y611936D01*
X467402Y611777D01*
X467437Y611601D01*
X467490Y611407D01*
X467543Y611178D01*
X467596Y610931D01*
X467649Y610667D01*
X467755Y610120D01*
X467878Y609521D01*
X467984Y608904D01*
Y608939D01*
X468019Y609010D01*
X468036Y609151D01*
X468089Y609309D01*
X468125Y609521D01*
X468177Y609750D01*
X468248Y609997D01*
X468301Y610244D01*
X468442Y610773D01*
X468495Y611019D01*
X468565Y611266D01*
X468618Y611478D01*
X468653Y611654D01*
X468689Y611795D01*
X468724Y611901D01*
X471826Y622900D01*
X474418D01*
X476727Y614651D01*
X476744Y614615D01*
X476762Y614510D01*
X476815Y614351D01*
X476868Y614122D01*
X476938Y613857D01*
X477027Y613540D01*
X477115Y613187D01*
X477220Y612782D01*
X477326Y612359D01*
X477432Y611901D01*
X477538Y611425D01*
X477644Y610931D01*
X477837Y609926D01*
X478014Y608904D01*
Y608922D01*
X478031Y608974D01*
X478049Y609063D01*
X478067Y609168D01*
X478102Y609327D01*
X478137Y609503D01*
X478190Y609697D01*
X478243Y609926D01*
X478296Y610173D01*
X478349Y610438D01*
X478419Y610737D01*
X478490Y611037D01*
X478648Y611707D01*
X478825Y612430D01*
X481381Y622900D01*
X483549D01*
X479089Y606630D01*
D02*
G37*
G36*
X412239D02*
X410018D01*
X403707Y622900D01*
X406052D01*
X410283Y611072D01*
Y611054D01*
X410300Y611002D01*
X410335Y610931D01*
X410371Y610825D01*
X410406Y610702D01*
X410459Y610561D01*
X410512Y610402D01*
X410582Y610208D01*
X410706Y609803D01*
X410847Y609362D01*
X410988Y608886D01*
X411129Y608410D01*
Y608428D01*
X411146Y608463D01*
X411164Y608551D01*
X411199Y608639D01*
X411234Y608763D01*
X411270Y608904D01*
X411323Y609063D01*
X411375Y609239D01*
X411499Y609644D01*
X411657Y610103D01*
X411834Y610579D01*
X412010Y611072D01*
X416399Y622900D01*
X418585D01*
X412239Y606630D01*
D02*
G37*
G36*
X357588Y613769D02*
Y613734D01*
Y613663D01*
Y613540D01*
Y613364D01*
X357570Y613152D01*
X357552Y612923D01*
X357535Y612659D01*
X357517Y612359D01*
X357447Y611742D01*
X357359Y611090D01*
X357217Y610455D01*
X357129Y610155D01*
X357024Y609874D01*
Y609856D01*
X357006Y609803D01*
X356971Y609733D01*
X356918Y609627D01*
X356847Y609503D01*
X356777Y609362D01*
X356565Y609045D01*
X356442Y608851D01*
X356301Y608675D01*
X356125Y608463D01*
X355948Y608269D01*
X355737Y608075D01*
X355525Y607882D01*
X355278Y607705D01*
X355014Y607529D01*
X354996Y607511D01*
X354944Y607494D01*
X354873Y607441D01*
X354750Y607388D01*
X354609Y607318D01*
X354432Y607247D01*
X354238Y607159D01*
X353992Y607088D01*
X353745Y607000D01*
X353463Y606912D01*
X353145Y606842D01*
X352811Y606771D01*
X352440Y606718D01*
X352053Y606665D01*
X351647Y606648D01*
X351224Y606630D01*
X350995D01*
X350836Y606648D01*
X350642D01*
X350431Y606665D01*
X350166Y606701D01*
X349902Y606736D01*
X349303Y606824D01*
X348668Y606965D01*
X348051Y607159D01*
X347752Y607265D01*
X347469Y607406D01*
X347452Y607423D01*
X347399Y607441D01*
X347328Y607494D01*
X347240Y607547D01*
X347117Y607635D01*
X346976Y607741D01*
X346835Y607846D01*
X346676Y607987D01*
X346324Y608305D01*
X345989Y608692D01*
X345671Y609151D01*
X345530Y609415D01*
X345407Y609680D01*
Y609697D01*
X345389Y609750D01*
X345354Y609838D01*
X345319Y609962D01*
X345266Y610103D01*
X345213Y610297D01*
X345160Y610508D01*
X345107Y610755D01*
X345037Y611037D01*
X344984Y611337D01*
X344931Y611671D01*
X344896Y612042D01*
X344843Y612430D01*
X344825Y612853D01*
X344790Y613293D01*
Y613769D01*
Y623165D01*
X346941D01*
Y613769D01*
Y613752D01*
Y613681D01*
Y613575D01*
Y613417D01*
X346958Y613240D01*
Y613046D01*
X346976Y612817D01*
X346993Y612588D01*
X347029Y612077D01*
X347099Y611566D01*
X347205Y611072D01*
X347258Y610843D01*
X347328Y610649D01*
Y610631D01*
X347346Y610614D01*
X347364Y610561D01*
X347399Y610490D01*
X347505Y610297D01*
X347646Y610085D01*
X347822Y609821D01*
X348051Y609574D01*
X348333Y609327D01*
X348668Y609098D01*
X348686D01*
X348721Y609080D01*
X348774Y609045D01*
X348844Y609010D01*
X348932Y608974D01*
X349056Y608939D01*
X349179Y608886D01*
X349320Y608834D01*
X349673Y608745D01*
X350078Y608657D01*
X350537Y608587D01*
X351030Y608569D01*
X351259D01*
X351418Y608587D01*
X351612Y608604D01*
X351841Y608622D01*
X352088Y608657D01*
X352352Y608710D01*
X352899Y608834D01*
X353181Y608922D01*
X353463Y609027D01*
X353727Y609151D01*
X353974Y609292D01*
X354203Y609450D01*
X354415Y609644D01*
X354432Y609662D01*
X354468Y609697D01*
X354503Y609768D01*
X354573Y609856D01*
X354644Y609979D01*
X354732Y610138D01*
X354838Y610332D01*
X354926Y610561D01*
X355014Y610825D01*
X355120Y611125D01*
X355208Y611460D01*
X355278Y611830D01*
X355349Y612253D01*
X355402Y612711D01*
X355420Y613223D01*
X355437Y613769D01*
Y623165D01*
X357588D01*
Y613769D01*
D02*
G37*
G36*
X1241089Y733630D02*
X1238991D01*
X1235589Y746022D01*
Y746040D01*
X1235572Y746093D01*
X1235554Y746163D01*
X1235519Y746269D01*
X1235483Y746392D01*
X1235448Y746533D01*
X1235360Y746851D01*
X1235272Y747168D01*
X1235184Y747485D01*
X1235148Y747626D01*
X1235113Y747750D01*
X1235078Y747856D01*
X1235060Y747926D01*
Y747908D01*
X1235043Y747873D01*
Y747820D01*
X1235007Y747732D01*
X1234990Y747644D01*
X1234972Y747521D01*
X1234902Y747274D01*
X1234831Y746974D01*
X1234743Y746639D01*
X1234655Y746322D01*
X1234567Y746022D01*
X1231147Y733630D01*
X1228908D01*
X1224625Y749900D01*
X1226846D01*
X1229296Y739218D01*
Y739200D01*
X1229314Y739147D01*
X1229331Y739059D01*
X1229367Y738936D01*
X1229402Y738777D01*
X1229437Y738601D01*
X1229490Y738407D01*
X1229543Y738178D01*
X1229596Y737931D01*
X1229649Y737667D01*
X1229754Y737120D01*
X1229878Y736521D01*
X1229984Y735904D01*
Y735939D01*
X1230019Y736010D01*
X1230036Y736151D01*
X1230089Y736309D01*
X1230125Y736521D01*
X1230178Y736750D01*
X1230248Y736997D01*
X1230301Y737244D01*
X1230442Y737773D01*
X1230495Y738019D01*
X1230565Y738266D01*
X1230618Y738478D01*
X1230654Y738654D01*
X1230689Y738795D01*
X1230724Y738901D01*
X1233826Y749900D01*
X1236418D01*
X1238727Y741651D01*
X1238745Y741615D01*
X1238762Y741509D01*
X1238815Y741351D01*
X1238868Y741122D01*
X1238938Y740857D01*
X1239027Y740540D01*
X1239115Y740188D01*
X1239221Y739782D01*
X1239326Y739359D01*
X1239432Y738901D01*
X1239538Y738425D01*
X1239643Y737931D01*
X1239837Y736926D01*
X1240014Y735904D01*
Y735922D01*
X1240031Y735975D01*
X1240049Y736063D01*
X1240067Y736168D01*
X1240102Y736327D01*
X1240137Y736503D01*
X1240190Y736697D01*
X1240243Y736926D01*
X1240296Y737173D01*
X1240349Y737438D01*
X1240419Y737737D01*
X1240490Y738037D01*
X1240648Y738707D01*
X1240825Y739429D01*
X1243381Y749900D01*
X1245549D01*
X1241089Y733630D01*
D02*
G37*
G36*
X1174239D02*
X1172018D01*
X1165707Y749900D01*
X1168052D01*
X1172282Y738072D01*
Y738055D01*
X1172300Y738002D01*
X1172335Y737931D01*
X1172371Y737825D01*
X1172406Y737702D01*
X1172459Y737561D01*
X1172512Y737402D01*
X1172582Y737208D01*
X1172706Y736803D01*
X1172847Y736362D01*
X1172988Y735886D01*
X1173129Y735410D01*
Y735428D01*
X1173146Y735463D01*
X1173164Y735551D01*
X1173199Y735639D01*
X1173234Y735763D01*
X1173270Y735904D01*
X1173323Y736063D01*
X1173375Y736239D01*
X1173499Y736644D01*
X1173658Y737103D01*
X1173834Y737579D01*
X1174010Y738072D01*
X1178399Y749900D01*
X1180585D01*
X1174239Y733630D01*
D02*
G37*
G36*
X1119588Y740769D02*
Y740734D01*
Y740663D01*
Y740540D01*
Y740364D01*
X1119570Y740152D01*
X1119552Y739923D01*
X1119535Y739659D01*
X1119517Y739359D01*
X1119447Y738742D01*
X1119359Y738090D01*
X1119218Y737455D01*
X1119129Y737156D01*
X1119024Y736873D01*
Y736856D01*
X1119006Y736803D01*
X1118971Y736732D01*
X1118918Y736627D01*
X1118847Y736503D01*
X1118777Y736362D01*
X1118565Y736045D01*
X1118442Y735851D01*
X1118301Y735675D01*
X1118125Y735463D01*
X1117948Y735269D01*
X1117737Y735076D01*
X1117525Y734882D01*
X1117278Y734705D01*
X1117014Y734529D01*
X1116996Y734511D01*
X1116944Y734494D01*
X1116873Y734441D01*
X1116750Y734388D01*
X1116609Y734317D01*
X1116432Y734247D01*
X1116238Y734159D01*
X1115992Y734088D01*
X1115745Y734000D01*
X1115463Y733912D01*
X1115145Y733841D01*
X1114811Y733771D01*
X1114440Y733718D01*
X1114053Y733665D01*
X1113647Y733648D01*
X1113224Y733630D01*
X1112995D01*
X1112836Y733648D01*
X1112642D01*
X1112431Y733665D01*
X1112166Y733700D01*
X1111902Y733736D01*
X1111303Y733824D01*
X1110668Y733965D01*
X1110051Y734159D01*
X1109752Y734265D01*
X1109469Y734406D01*
X1109452Y734423D01*
X1109399Y734441D01*
X1109328Y734494D01*
X1109240Y734547D01*
X1109117Y734635D01*
X1108976Y734741D01*
X1108835Y734846D01*
X1108676Y734987D01*
X1108324Y735305D01*
X1107989Y735692D01*
X1107671Y736151D01*
X1107530Y736415D01*
X1107407Y736680D01*
Y736697D01*
X1107389Y736750D01*
X1107354Y736838D01*
X1107319Y736962D01*
X1107266Y737103D01*
X1107213Y737297D01*
X1107160Y737508D01*
X1107107Y737755D01*
X1107037Y738037D01*
X1106984Y738337D01*
X1106931Y738671D01*
X1106896Y739042D01*
X1106843Y739429D01*
X1106825Y739853D01*
X1106790Y740293D01*
Y740769D01*
Y750165D01*
X1108941D01*
Y740769D01*
Y740752D01*
Y740681D01*
Y740575D01*
Y740417D01*
X1108958Y740240D01*
Y740046D01*
X1108976Y739817D01*
X1108994Y739588D01*
X1109029Y739077D01*
X1109099Y738566D01*
X1109205Y738072D01*
X1109258Y737843D01*
X1109328Y737649D01*
Y737632D01*
X1109346Y737614D01*
X1109364Y737561D01*
X1109399Y737490D01*
X1109505Y737297D01*
X1109646Y737085D01*
X1109822Y736821D01*
X1110051Y736574D01*
X1110333Y736327D01*
X1110668Y736098D01*
X1110686D01*
X1110721Y736080D01*
X1110774Y736045D01*
X1110844Y736010D01*
X1110932Y735975D01*
X1111056Y735939D01*
X1111179Y735886D01*
X1111320Y735834D01*
X1111673Y735745D01*
X1112078Y735657D01*
X1112537Y735587D01*
X1113030Y735569D01*
X1113259D01*
X1113418Y735587D01*
X1113612Y735604D01*
X1113841Y735622D01*
X1114088Y735657D01*
X1114352Y735710D01*
X1114899Y735834D01*
X1115181Y735922D01*
X1115463Y736027D01*
X1115727Y736151D01*
X1115974Y736292D01*
X1116203Y736450D01*
X1116415Y736644D01*
X1116432Y736662D01*
X1116468Y736697D01*
X1116503Y736768D01*
X1116573Y736856D01*
X1116644Y736979D01*
X1116732Y737138D01*
X1116838Y737332D01*
X1116926Y737561D01*
X1117014Y737825D01*
X1117120Y738125D01*
X1117208Y738460D01*
X1117278Y738830D01*
X1117349Y739253D01*
X1117402Y739712D01*
X1117420Y740223D01*
X1117437Y740769D01*
Y750165D01*
X1119588D01*
Y740769D01*
D02*
G37*
G36*
X987089Y733630D02*
X984991D01*
X981589Y746022D01*
Y746040D01*
X981572Y746093D01*
X981554Y746163D01*
X981519Y746269D01*
X981483Y746392D01*
X981448Y746533D01*
X981360Y746851D01*
X981272Y747168D01*
X981184Y747485D01*
X981149Y747626D01*
X981113Y747750D01*
X981078Y747856D01*
X981060Y747926D01*
Y747908D01*
X981043Y747873D01*
Y747820D01*
X981008Y747732D01*
X980990Y747644D01*
X980972Y747521D01*
X980902Y747274D01*
X980831Y746974D01*
X980743Y746639D01*
X980655Y746322D01*
X980567Y746022D01*
X977147Y733630D01*
X974908D01*
X970625Y749900D01*
X972846D01*
X975296Y739218D01*
Y739200D01*
X975314Y739147D01*
X975331Y739059D01*
X975367Y738936D01*
X975402Y738777D01*
X975437Y738601D01*
X975490Y738407D01*
X975543Y738178D01*
X975596Y737931D01*
X975649Y737667D01*
X975754Y737120D01*
X975878Y736521D01*
X975984Y735904D01*
Y735939D01*
X976019Y736010D01*
X976037Y736151D01*
X976089Y736309D01*
X976125Y736521D01*
X976178Y736750D01*
X976248Y736997D01*
X976301Y737244D01*
X976442Y737773D01*
X976495Y738019D01*
X976565Y738266D01*
X976618Y738478D01*
X976654Y738654D01*
X976689Y738795D01*
X976724Y738901D01*
X979826Y749900D01*
X982418D01*
X984727Y741651D01*
X984744Y741615D01*
X984762Y741509D01*
X984815Y741351D01*
X984868Y741122D01*
X984938Y740857D01*
X985027Y740540D01*
X985115Y740188D01*
X985220Y739782D01*
X985326Y739359D01*
X985432Y738901D01*
X985538Y738425D01*
X985643Y737931D01*
X985837Y736926D01*
X986014Y735904D01*
Y735922D01*
X986031Y735975D01*
X986049Y736063D01*
X986067Y736168D01*
X986102Y736327D01*
X986137Y736503D01*
X986190Y736697D01*
X986243Y736926D01*
X986296Y737173D01*
X986349Y737438D01*
X986419Y737737D01*
X986490Y738037D01*
X986648Y738707D01*
X986825Y739429D01*
X989381Y749900D01*
X991549D01*
X987089Y733630D01*
D02*
G37*
G36*
X920239D02*
X918018D01*
X911707Y749900D01*
X914052D01*
X918282Y738072D01*
Y738055D01*
X918300Y738002D01*
X918335Y737931D01*
X918371Y737825D01*
X918406Y737702D01*
X918459Y737561D01*
X918512Y737402D01*
X918582Y737208D01*
X918706Y736803D01*
X918847Y736362D01*
X918988Y735886D01*
X919129Y735410D01*
Y735428D01*
X919146Y735463D01*
X919164Y735551D01*
X919199Y735639D01*
X919234Y735763D01*
X919270Y735904D01*
X919323Y736063D01*
X919375Y736239D01*
X919499Y736644D01*
X919658Y737103D01*
X919834Y737579D01*
X920010Y738072D01*
X924399Y749900D01*
X926585D01*
X920239Y733630D01*
D02*
G37*
G36*
X865588Y740769D02*
Y740734D01*
Y740663D01*
Y740540D01*
Y740364D01*
X865570Y740152D01*
X865552Y739923D01*
X865535Y739659D01*
X865517Y739359D01*
X865447Y738742D01*
X865359Y738090D01*
X865218Y737455D01*
X865129Y737156D01*
X865024Y736873D01*
Y736856D01*
X865006Y736803D01*
X864971Y736732D01*
X864918Y736627D01*
X864847Y736503D01*
X864777Y736362D01*
X864565Y736045D01*
X864442Y735851D01*
X864301Y735675D01*
X864125Y735463D01*
X863948Y735269D01*
X863737Y735076D01*
X863525Y734882D01*
X863278Y734705D01*
X863014Y734529D01*
X862996Y734511D01*
X862943Y734494D01*
X862873Y734441D01*
X862750Y734388D01*
X862609Y734317D01*
X862432Y734247D01*
X862238Y734159D01*
X861992Y734088D01*
X861745Y734000D01*
X861463Y733912D01*
X861145Y733841D01*
X860811Y733771D01*
X860440Y733718D01*
X860053Y733665D01*
X859647Y733648D01*
X859224Y733630D01*
X858995D01*
X858836Y733648D01*
X858642D01*
X858431Y733665D01*
X858166Y733700D01*
X857902Y733736D01*
X857303Y733824D01*
X856668Y733965D01*
X856051Y734159D01*
X855751Y734265D01*
X855469Y734406D01*
X855452Y734423D01*
X855399Y734441D01*
X855328Y734494D01*
X855240Y734547D01*
X855117Y734635D01*
X854976Y734741D01*
X854835Y734846D01*
X854676Y734987D01*
X854324Y735305D01*
X853989Y735692D01*
X853671Y736151D01*
X853530Y736415D01*
X853407Y736680D01*
Y736697D01*
X853389Y736750D01*
X853354Y736838D01*
X853319Y736962D01*
X853266Y737103D01*
X853213Y737297D01*
X853160Y737508D01*
X853107Y737755D01*
X853037Y738037D01*
X852984Y738337D01*
X852931Y738671D01*
X852896Y739042D01*
X852843Y739429D01*
X852825Y739853D01*
X852790Y740293D01*
Y740769D01*
Y750165D01*
X854941D01*
Y740769D01*
Y740752D01*
Y740681D01*
Y740575D01*
Y740417D01*
X854958Y740240D01*
Y740046D01*
X854976Y739817D01*
X854994Y739588D01*
X855029Y739077D01*
X855099Y738566D01*
X855205Y738072D01*
X855258Y737843D01*
X855328Y737649D01*
Y737632D01*
X855346Y737614D01*
X855364Y737561D01*
X855399Y737490D01*
X855505Y737297D01*
X855646Y737085D01*
X855822Y736821D01*
X856051Y736574D01*
X856333Y736327D01*
X856668Y736098D01*
X856686D01*
X856721Y736080D01*
X856774Y736045D01*
X856844Y736010D01*
X856933Y735975D01*
X857056Y735939D01*
X857179Y735886D01*
X857320Y735834D01*
X857673Y735745D01*
X858078Y735657D01*
X858537Y735587D01*
X859030Y735569D01*
X859259D01*
X859418Y735587D01*
X859612Y735604D01*
X859841Y735622D01*
X860088Y735657D01*
X860352Y735710D01*
X860899Y735834D01*
X861181Y735922D01*
X861463Y736027D01*
X861727Y736151D01*
X861974Y736292D01*
X862203Y736450D01*
X862415Y736644D01*
X862432Y736662D01*
X862468Y736697D01*
X862503Y736768D01*
X862573Y736856D01*
X862644Y736979D01*
X862732Y737138D01*
X862838Y737332D01*
X862926Y737561D01*
X863014Y737825D01*
X863120Y738125D01*
X863208Y738460D01*
X863278Y738830D01*
X863349Y739253D01*
X863402Y739712D01*
X863419Y740223D01*
X863437Y740769D01*
Y750165D01*
X865588D01*
Y740769D01*
D02*
G37*
G36*
X733089Y733630D02*
X730991D01*
X727589Y746022D01*
Y746040D01*
X727572Y746093D01*
X727554Y746163D01*
X727519Y746269D01*
X727483Y746392D01*
X727448Y746533D01*
X727360Y746851D01*
X727272Y747168D01*
X727184Y747485D01*
X727149Y747626D01*
X727113Y747750D01*
X727078Y747856D01*
X727060Y747926D01*
Y747908D01*
X727043Y747873D01*
Y747820D01*
X727008Y747732D01*
X726990Y747644D01*
X726972Y747521D01*
X726902Y747274D01*
X726831Y746974D01*
X726743Y746639D01*
X726655Y746322D01*
X726567Y746022D01*
X723147Y733630D01*
X720908D01*
X716625Y749900D01*
X718846D01*
X721296Y739218D01*
Y739200D01*
X721314Y739147D01*
X721331Y739059D01*
X721367Y738936D01*
X721402Y738777D01*
X721437Y738601D01*
X721490Y738407D01*
X721543Y738178D01*
X721596Y737931D01*
X721649Y737667D01*
X721755Y737120D01*
X721878Y736521D01*
X721984Y735904D01*
Y735939D01*
X722019Y736010D01*
X722037Y736151D01*
X722089Y736309D01*
X722125Y736521D01*
X722178Y736750D01*
X722248Y736997D01*
X722301Y737244D01*
X722442Y737773D01*
X722495Y738019D01*
X722565Y738266D01*
X722618Y738478D01*
X722654Y738654D01*
X722689Y738795D01*
X722724Y738901D01*
X725826Y749900D01*
X728418D01*
X730727Y741651D01*
X730744Y741615D01*
X730762Y741509D01*
X730815Y741351D01*
X730868Y741122D01*
X730938Y740857D01*
X731027Y740540D01*
X731115Y740188D01*
X731220Y739782D01*
X731326Y739359D01*
X731432Y738901D01*
X731538Y738425D01*
X731644Y737931D01*
X731837Y736926D01*
X732014Y735904D01*
Y735922D01*
X732031Y735975D01*
X732049Y736063D01*
X732067Y736168D01*
X732102Y736327D01*
X732137Y736503D01*
X732190Y736697D01*
X732243Y736926D01*
X732296Y737173D01*
X732349Y737438D01*
X732419Y737737D01*
X732490Y738037D01*
X732648Y738707D01*
X732825Y739429D01*
X735381Y749900D01*
X737549D01*
X733089Y733630D01*
D02*
G37*
G36*
X666239D02*
X664018D01*
X657707Y749900D01*
X660052D01*
X664283Y738072D01*
Y738055D01*
X664300Y738002D01*
X664335Y737931D01*
X664371Y737825D01*
X664406Y737702D01*
X664459Y737561D01*
X664512Y737402D01*
X664582Y737208D01*
X664706Y736803D01*
X664847Y736362D01*
X664988Y735886D01*
X665129Y735410D01*
Y735428D01*
X665146Y735463D01*
X665164Y735551D01*
X665199Y735639D01*
X665234Y735763D01*
X665270Y735904D01*
X665322Y736063D01*
X665375Y736239D01*
X665499Y736644D01*
X665658Y737103D01*
X665834Y737579D01*
X666010Y738072D01*
X670399Y749900D01*
X672585D01*
X666239Y733630D01*
D02*
G37*
G36*
X611588Y740769D02*
Y740734D01*
Y740663D01*
Y740540D01*
Y740364D01*
X611570Y740152D01*
X611552Y739923D01*
X611535Y739659D01*
X611517Y739359D01*
X611447Y738742D01*
X611358Y738090D01*
X611217Y737455D01*
X611129Y737156D01*
X611024Y736873D01*
Y736856D01*
X611006Y736803D01*
X610971Y736732D01*
X610918Y736627D01*
X610847Y736503D01*
X610777Y736362D01*
X610565Y736045D01*
X610442Y735851D01*
X610301Y735675D01*
X610125Y735463D01*
X609948Y735269D01*
X609737Y735076D01*
X609525Y734882D01*
X609278Y734705D01*
X609014Y734529D01*
X608996Y734511D01*
X608943Y734494D01*
X608873Y734441D01*
X608750Y734388D01*
X608609Y734317D01*
X608432Y734247D01*
X608238Y734159D01*
X607992Y734088D01*
X607745Y734000D01*
X607463Y733912D01*
X607146Y733841D01*
X606811Y733771D01*
X606440Y733718D01*
X606053Y733665D01*
X605647Y733648D01*
X605224Y733630D01*
X604995D01*
X604836Y733648D01*
X604642D01*
X604431Y733665D01*
X604166Y733700D01*
X603902Y733736D01*
X603303Y733824D01*
X602668Y733965D01*
X602051Y734159D01*
X601752Y734265D01*
X601469Y734406D01*
X601452Y734423D01*
X601399Y734441D01*
X601328Y734494D01*
X601240Y734547D01*
X601117Y734635D01*
X600976Y734741D01*
X600835Y734846D01*
X600676Y734987D01*
X600324Y735305D01*
X599989Y735692D01*
X599671Y736151D01*
X599530Y736415D01*
X599407Y736680D01*
Y736697D01*
X599389Y736750D01*
X599354Y736838D01*
X599319Y736962D01*
X599266Y737103D01*
X599213Y737297D01*
X599160Y737508D01*
X599107Y737755D01*
X599037Y738037D01*
X598984Y738337D01*
X598931Y738671D01*
X598896Y739042D01*
X598843Y739429D01*
X598825Y739853D01*
X598790Y740293D01*
Y740769D01*
Y750165D01*
X600941D01*
Y740769D01*
Y740752D01*
Y740681D01*
Y740575D01*
Y740417D01*
X600958Y740240D01*
Y740046D01*
X600976Y739817D01*
X600993Y739588D01*
X601029Y739077D01*
X601099Y738566D01*
X601205Y738072D01*
X601258Y737843D01*
X601328Y737649D01*
Y737632D01*
X601346Y737614D01*
X601364Y737561D01*
X601399Y737490D01*
X601505Y737297D01*
X601646Y737085D01*
X601822Y736821D01*
X602051Y736574D01*
X602333Y736327D01*
X602668Y736098D01*
X602686D01*
X602721Y736080D01*
X602774Y736045D01*
X602844Y736010D01*
X602933Y735975D01*
X603056Y735939D01*
X603179Y735886D01*
X603320Y735834D01*
X603673Y735745D01*
X604078Y735657D01*
X604537Y735587D01*
X605030Y735569D01*
X605259D01*
X605418Y735587D01*
X605612Y735604D01*
X605841Y735622D01*
X606088Y735657D01*
X606352Y735710D01*
X606899Y735834D01*
X607181Y735922D01*
X607463Y736027D01*
X607727Y736151D01*
X607974Y736292D01*
X608203Y736450D01*
X608415Y736644D01*
X608432Y736662D01*
X608468Y736697D01*
X608503Y736768D01*
X608573Y736856D01*
X608644Y736979D01*
X608732Y737138D01*
X608838Y737332D01*
X608926Y737561D01*
X609014Y737825D01*
X609120Y738125D01*
X609208Y738460D01*
X609278Y738830D01*
X609349Y739253D01*
X609402Y739712D01*
X609420Y740223D01*
X609437Y740769D01*
Y750165D01*
X611588D01*
Y740769D01*
D02*
G37*
G36*
X357588D02*
Y740734D01*
Y740663D01*
Y740540D01*
Y740364D01*
X357570Y740152D01*
X357552Y739923D01*
X357535Y739659D01*
X357517Y739359D01*
X357447Y738742D01*
X357359Y738090D01*
X357217Y737455D01*
X357129Y737156D01*
X357024Y736873D01*
Y736856D01*
X357006Y736803D01*
X356971Y736732D01*
X356918Y736627D01*
X356847Y736503D01*
X356777Y736362D01*
X356565Y736045D01*
X356442Y735851D01*
X356301Y735675D01*
X356125Y735463D01*
X355948Y735269D01*
X355737Y735076D01*
X355525Y734882D01*
X355278Y734705D01*
X355014Y734529D01*
X354996Y734511D01*
X354944Y734494D01*
X354873Y734441D01*
X354750Y734388D01*
X354609Y734317D01*
X354432Y734247D01*
X354238Y734159D01*
X353992Y734088D01*
X353745Y734000D01*
X353463Y733912D01*
X353145Y733841D01*
X352811Y733771D01*
X352440Y733718D01*
X352053Y733665D01*
X351647Y733648D01*
X351224Y733630D01*
X350995D01*
X350836Y733648D01*
X350642D01*
X350431Y733665D01*
X350166Y733700D01*
X349902Y733736D01*
X349303Y733824D01*
X348668Y733965D01*
X348051Y734159D01*
X347752Y734265D01*
X347469Y734406D01*
X347452Y734423D01*
X347399Y734441D01*
X347328Y734494D01*
X347240Y734547D01*
X347117Y734635D01*
X346976Y734741D01*
X346835Y734846D01*
X346676Y734987D01*
X346324Y735305D01*
X345989Y735692D01*
X345671Y736151D01*
X345530Y736415D01*
X345407Y736680D01*
Y736697D01*
X345389Y736750D01*
X345354Y736838D01*
X345319Y736962D01*
X345266Y737103D01*
X345213Y737297D01*
X345160Y737508D01*
X345107Y737755D01*
X345037Y738037D01*
X344984Y738337D01*
X344931Y738671D01*
X344896Y739042D01*
X344843Y739429D01*
X344825Y739853D01*
X344790Y740293D01*
Y740769D01*
Y750165D01*
X346941D01*
Y740769D01*
Y740752D01*
Y740681D01*
Y740575D01*
Y740417D01*
X346958Y740240D01*
Y740046D01*
X346976Y739817D01*
X346993Y739588D01*
X347029Y739077D01*
X347099Y738566D01*
X347205Y738072D01*
X347258Y737843D01*
X347328Y737649D01*
Y737632D01*
X347346Y737614D01*
X347364Y737561D01*
X347399Y737490D01*
X347505Y737297D01*
X347646Y737085D01*
X347822Y736821D01*
X348051Y736574D01*
X348333Y736327D01*
X348668Y736098D01*
X348686D01*
X348721Y736080D01*
X348774Y736045D01*
X348844Y736010D01*
X348932Y735975D01*
X349056Y735939D01*
X349179Y735886D01*
X349320Y735834D01*
X349673Y735745D01*
X350078Y735657D01*
X350537Y735587D01*
X351030Y735569D01*
X351259D01*
X351418Y735587D01*
X351612Y735604D01*
X351841Y735622D01*
X352088Y735657D01*
X352352Y735710D01*
X352899Y735834D01*
X353181Y735922D01*
X353463Y736027D01*
X353727Y736151D01*
X353974Y736292D01*
X354203Y736450D01*
X354415Y736644D01*
X354432Y736662D01*
X354468Y736697D01*
X354503Y736768D01*
X354573Y736856D01*
X354644Y736979D01*
X354732Y737138D01*
X354838Y737332D01*
X354926Y737561D01*
X355014Y737825D01*
X355120Y738125D01*
X355208Y738460D01*
X355278Y738830D01*
X355349Y739253D01*
X355402Y739712D01*
X355420Y740223D01*
X355437Y740769D01*
Y750165D01*
X357588D01*
Y740769D01*
D02*
G37*
G36*
X412239Y733630D02*
X410018D01*
X403707Y749900D01*
X406052D01*
X410283Y738072D01*
Y738055D01*
X410300Y738002D01*
X410335Y737931D01*
X410371Y737825D01*
X410406Y737702D01*
X410459Y737561D01*
X410512Y737402D01*
X410582Y737208D01*
X410706Y736803D01*
X410847Y736362D01*
X410988Y735886D01*
X411129Y735410D01*
Y735428D01*
X411146Y735463D01*
X411164Y735551D01*
X411199Y735639D01*
X411234Y735763D01*
X411270Y735904D01*
X411323Y736063D01*
X411375Y736239D01*
X411499Y736644D01*
X411657Y737103D01*
X411834Y737579D01*
X412010Y738072D01*
X416399Y749900D01*
X418585D01*
X412239Y733630D01*
D02*
G37*
G36*
X479089D02*
X476991D01*
X473589Y746022D01*
Y746040D01*
X473572Y746093D01*
X473554Y746163D01*
X473519Y746269D01*
X473483Y746392D01*
X473448Y746533D01*
X473360Y746851D01*
X473272Y747168D01*
X473184Y747485D01*
X473148Y747626D01*
X473113Y747750D01*
X473078Y747856D01*
X473060Y747926D01*
Y747908D01*
X473043Y747873D01*
Y747820D01*
X473008Y747732D01*
X472990Y747644D01*
X472972Y747521D01*
X472902Y747274D01*
X472831Y746974D01*
X472743Y746639D01*
X472655Y746322D01*
X472567Y746022D01*
X469147Y733630D01*
X466908D01*
X462625Y749900D01*
X464846D01*
X467296Y739218D01*
Y739200D01*
X467314Y739147D01*
X467331Y739059D01*
X467367Y738936D01*
X467402Y738777D01*
X467437Y738601D01*
X467490Y738407D01*
X467543Y738178D01*
X467596Y737931D01*
X467649Y737667D01*
X467755Y737120D01*
X467878Y736521D01*
X467984Y735904D01*
Y735939D01*
X468019Y736010D01*
X468036Y736151D01*
X468089Y736309D01*
X468125Y736521D01*
X468177Y736750D01*
X468248Y736997D01*
X468301Y737244D01*
X468442Y737773D01*
X468495Y738019D01*
X468565Y738266D01*
X468618Y738478D01*
X468653Y738654D01*
X468689Y738795D01*
X468724Y738901D01*
X471826Y749900D01*
X474418D01*
X476727Y741651D01*
X476744Y741615D01*
X476762Y741509D01*
X476815Y741351D01*
X476868Y741122D01*
X476938Y740857D01*
X477027Y740540D01*
X477115Y740188D01*
X477220Y739782D01*
X477326Y739359D01*
X477432Y738901D01*
X477538Y738425D01*
X477644Y737931D01*
X477837Y736926D01*
X478014Y735904D01*
Y735922D01*
X478031Y735975D01*
X478049Y736063D01*
X478067Y736168D01*
X478102Y736327D01*
X478137Y736503D01*
X478190Y736697D01*
X478243Y736926D01*
X478296Y737173D01*
X478349Y737438D01*
X478419Y737737D01*
X478490Y738037D01*
X478648Y738707D01*
X478825Y739429D01*
X481381Y749900D01*
X483549D01*
X479089Y733630D01*
D02*
G37*
D10*
X1575237Y580682D02*
G03*
X1575237Y549618I-23297J-15532D01*
G01*
X1256252Y707622D02*
G03*
X1256252Y676558I-23297J-15532D01*
G01*
X1197335Y707622D02*
G03*
X1197335Y676558I-23297J-15532D01*
G01*
X689335Y707622D02*
G03*
X689335Y676558I-23297J-15532D01*
G01*
X1138417Y580622D02*
G03*
X1138417Y549558I-23297J-15532D01*
G01*
X1197335Y580622D02*
G03*
X1197335Y549558I-23297J-15532D01*
G01*
X1256252Y580622D02*
G03*
X1256252Y549558I-23297J-15532D01*
G01*
X884417Y580622D02*
G03*
X884417Y549558I-23297J-15532D01*
G01*
X943335Y580622D02*
G03*
X943335Y549558I-23297J-15532D01*
G01*
X1002252Y580622D02*
G03*
X1002252Y549558I-23297J-15532D01*
G01*
X630417Y580622D02*
G03*
X630417Y549558I-23297J-15532D01*
G01*
X689335Y580622D02*
G03*
X689335Y549558I-23297J-15532D01*
G01*
X748252Y580622D02*
G03*
X748252Y549558I-23297J-15532D01*
G01*
X376417Y580622D02*
G03*
X376417Y549558I-23297J-15532D01*
G01*
X435335Y580622D02*
G03*
X435335Y549558I-23297J-15532D01*
G01*
X494252Y580622D02*
G03*
X494252Y549558I-23297J-15532D01*
G01*
X1138417Y707622D02*
G03*
X1138417Y676558I-23297J-15532D01*
G01*
X884417Y707622D02*
G03*
X884417Y676558I-23297J-15532D01*
G01*
X943335Y707622D02*
G03*
X943335Y676558I-23297J-15532D01*
G01*
X1002252Y707622D02*
G03*
X1002252Y676558I-23297J-15532D01*
G01*
X630417Y707622D02*
G03*
X630417Y676558I-23297J-15532D01*
G01*
X748252Y707622D02*
G03*
X748252Y676558I-23297J-15532D01*
G01*
X494252Y707622D02*
G03*
X494252Y676558I-23297J-15532D01*
G01*
X435335Y707622D02*
G03*
X435335Y676558I-23297J-15532D01*
G01*
X376417Y707622D02*
G03*
X376417Y676558I-23297J-15532D01*
G01*
X1575237Y549618D02*
Y580682D01*
X1256252Y676558D02*
Y707622D01*
X1197335Y676558D02*
Y707622D01*
X689335Y676558D02*
Y707622D01*
X1138417Y549558D02*
Y580622D01*
X1197335Y549558D02*
Y580622D01*
X1256252Y549558D02*
Y580622D01*
X884417Y549558D02*
Y580622D01*
X943335Y549558D02*
Y580622D01*
X1002252Y549558D02*
Y580622D01*
X630417Y549558D02*
Y580622D01*
X689335Y549558D02*
Y580622D01*
X748252Y549558D02*
Y580622D01*
X376417Y549558D02*
Y580622D01*
X435335Y549558D02*
Y580622D01*
X494252Y549558D02*
Y580622D01*
X1138417Y676558D02*
Y707622D01*
X884417Y676558D02*
Y707622D01*
X943335Y676558D02*
Y707622D01*
X1002252Y676558D02*
Y707622D01*
X630417Y676558D02*
Y707622D01*
X748252Y676558D02*
Y707622D01*
X494252Y676558D02*
Y707622D01*
X435335Y676558D02*
Y707622D01*
X376417Y676558D02*
Y707622D01*
X1444241Y570734D02*
X1441702Y573273D01*
X1436623D01*
X1434084Y570734D01*
Y568195D01*
X1436623Y565656D01*
X1441702D01*
X1444241Y563116D01*
Y560577D01*
X1441702Y558038D01*
X1436623D01*
X1434084Y560577D01*
X1451858Y570734D02*
Y568195D01*
X1449319D01*
X1454397D01*
X1451858D01*
Y560577D01*
X1454397Y558038D01*
X1464554Y568195D02*
X1469633D01*
X1472172Y565656D01*
Y558038D01*
X1464554D01*
X1462015Y560577D01*
X1464554Y563116D01*
X1472172D01*
X1479789Y570734D02*
Y568195D01*
X1477250D01*
X1482328D01*
X1479789D01*
Y560577D01*
X1482328Y558038D01*
X1489946Y568195D02*
Y560577D01*
X1492485Y558038D01*
X1500103D01*
Y568195D01*
X1505181Y558038D02*
X1512798D01*
X1515338Y560577D01*
X1512798Y563116D01*
X1507720D01*
X1505181Y565656D01*
X1507720Y568195D01*
X1515338D01*
X272539Y573527D02*
X262382D01*
Y565910D01*
X267460D01*
X262382D01*
Y558292D01*
X280156Y568449D02*
X285235D01*
X287774Y565910D01*
Y558292D01*
X280156D01*
X277617Y560831D01*
X280156Y563370D01*
X287774D01*
X292852Y558292D02*
Y568449D01*
X300470D01*
X303009Y565910D01*
Y558292D01*
X318244D02*
X308087D01*
X318244Y568449D01*
Y570988D01*
X315705Y573527D01*
X310626D01*
X308087Y570988D01*
X526539Y573527D02*
X516382D01*
Y565910D01*
X521460D01*
X516382D01*
Y558292D01*
X534156Y568449D02*
X539235D01*
X541774Y565910D01*
Y558292D01*
X534156D01*
X531617Y560831D01*
X534156Y563370D01*
X541774D01*
X546852Y558292D02*
Y568449D01*
X554470D01*
X557009Y565910D01*
Y558292D01*
X569705D02*
Y573527D01*
X562087Y565910D01*
X572244D01*
X780539Y573527D02*
X770382D01*
Y565910D01*
X775460D01*
X770382D01*
Y558292D01*
X788156Y568449D02*
X793235D01*
X795774Y565910D01*
Y558292D01*
X788156D01*
X785617Y560831D01*
X788156Y563370D01*
X795774D01*
X800852Y558292D02*
Y568449D01*
X808470D01*
X811009Y565910D01*
Y558292D01*
X826244Y573527D02*
X821166Y570988D01*
X816087Y565910D01*
Y560831D01*
X818626Y558292D01*
X823705D01*
X826244Y560831D01*
Y563370D01*
X823705Y565910D01*
X816087D01*
X1034539Y573527D02*
X1024382D01*
Y565910D01*
X1029460D01*
X1024382D01*
Y558292D01*
X1042156Y568449D02*
X1047235D01*
X1049774Y565910D01*
Y558292D01*
X1042156D01*
X1039617Y560831D01*
X1042156Y563370D01*
X1049774D01*
X1054852Y558292D02*
Y568449D01*
X1062470D01*
X1065009Y565910D01*
Y558292D01*
X1070087Y570988D02*
X1072626Y573527D01*
X1077705D01*
X1080244Y570988D01*
Y568449D01*
X1077705Y565910D01*
X1080244Y563370D01*
Y560831D01*
X1077705Y558292D01*
X1072626D01*
X1070087Y560831D01*
Y563370D01*
X1072626Y565910D01*
X1070087Y568449D01*
Y570988D01*
X1072626Y565910D02*
X1077705D01*
X1034539Y700527D02*
X1024382D01*
Y692909D01*
X1029460D01*
X1024382D01*
Y685292D01*
X1042156Y695449D02*
X1047235D01*
X1049774Y692909D01*
Y685292D01*
X1042156D01*
X1039617Y687831D01*
X1042156Y690370D01*
X1049774D01*
X1054852Y685292D02*
Y695449D01*
X1062470D01*
X1065009Y692909D01*
Y685292D01*
X1070087Y700527D02*
X1080244D01*
Y697988D01*
X1070087Y687831D01*
Y685292D01*
X780539Y700527D02*
X770382D01*
Y692909D01*
X775460D01*
X770382D01*
Y685292D01*
X788156Y695449D02*
X793235D01*
X795774Y692909D01*
Y685292D01*
X788156D01*
X785617Y687831D01*
X788156Y690370D01*
X795774D01*
X800852Y685292D02*
Y695449D01*
X808470D01*
X811009Y692909D01*
Y685292D01*
X826244Y700527D02*
X816087D01*
Y692909D01*
X821166Y695449D01*
X823705D01*
X826244Y692909D01*
Y687831D01*
X823705Y685292D01*
X818626D01*
X816087Y687831D01*
X526539Y700527D02*
X516382D01*
Y692909D01*
X521460D01*
X516382D01*
Y685292D01*
X534156Y695449D02*
X539235D01*
X541774Y692909D01*
Y685292D01*
X534156D01*
X531617Y687831D01*
X534156Y690370D01*
X541774D01*
X546852Y685292D02*
Y695449D01*
X554470D01*
X557009Y692909D01*
Y685292D01*
X562087Y697988D02*
X564626Y700527D01*
X569705D01*
X572244Y697988D01*
Y695449D01*
X569705Y692909D01*
X567166D01*
X569705D01*
X572244Y690370D01*
Y687831D01*
X569705Y685292D01*
X564626D01*
X562087Y687831D01*
X272539Y700527D02*
X262382D01*
Y692909D01*
X267460D01*
X262382D01*
Y685292D01*
X280156Y695449D02*
X285235D01*
X287774Y692909D01*
Y685292D01*
X280156D01*
X277617Y687831D01*
X280156Y690370D01*
X287774D01*
X292852Y685292D02*
Y695449D01*
X300470D01*
X303009Y692909D01*
Y685292D01*
X308087D02*
X313166D01*
X310626D01*
Y700527D01*
X308087Y697988D01*
M02*
