G04*
G04 #@! TF.GenerationSoftware,Altium Limited,Altium Designer,24.0.1 (36)*
G04*
G04 Layer_Color=16711935*
%FSLAX44Y44*%
%MOMM*%
G71*
G04*
G04 #@! TF.SameCoordinates,6AB65015-FC58-47BD-B1F7-23B370D85B0D*
G04*
G04*
G04 #@! TF.FilePolarity,Negative*
G04*
G01*
G75*
%ADD11C,1.9032*%
%ADD12R,1.9032X1.9032*%
%ADD13C,0.9032*%
%ADD26R,0.9532X1.0532*%
%ADD27R,0.7032X1.4532*%
%ADD28R,2.2032X2.7032*%
%ADD29R,0.6532X1.2032*%
%ADD30R,1.0532X0.9532*%
%ADD31R,3.7032X2.2032*%
%ADD32R,3.7032X1.4032*%
%ADD33R,1.2032X0.6532*%
D11*
X1564640Y565150D02*
D03*
X1245655Y692090D02*
D03*
X1186737D02*
D03*
X678737D02*
D03*
X1127820Y565090D02*
D03*
X1186737D02*
D03*
X1245655D02*
D03*
X873820D02*
D03*
X932737D02*
D03*
X991655D02*
D03*
X619820D02*
D03*
X678737D02*
D03*
X737655D02*
D03*
X365820D02*
D03*
X424737D02*
D03*
X483655D02*
D03*
X1127820Y692090D02*
D03*
X873820D02*
D03*
X932737D02*
D03*
X991655D02*
D03*
X619820D02*
D03*
X737655D02*
D03*
X483655D02*
D03*
X424737D02*
D03*
X365820D02*
D03*
D12*
X1539240Y565150D02*
D03*
X1220255Y692090D02*
D03*
X1161337D02*
D03*
X653337D02*
D03*
X1102420Y565090D02*
D03*
X1161337D02*
D03*
X1220255D02*
D03*
X848420D02*
D03*
X907337D02*
D03*
X966255D02*
D03*
X594420D02*
D03*
X653337D02*
D03*
X712255D02*
D03*
X340420D02*
D03*
X399337D02*
D03*
X458255D02*
D03*
X1102420Y692090D02*
D03*
X848420D02*
D03*
X907337D02*
D03*
X966255D02*
D03*
X594420D02*
D03*
X712255D02*
D03*
X458255D02*
D03*
X399337D02*
D03*
X340420D02*
D03*
D13*
X1261872Y772048D02*
D03*
X1203452Y766968D02*
D03*
X1143508Y761888D02*
D03*
X1007618Y756808D02*
D03*
X949452Y751728D02*
D03*
X889762Y746648D02*
D03*
X753872Y741568D02*
D03*
X695198Y736488D02*
D03*
X636270Y731408D02*
D03*
X499872Y726328D02*
D03*
X440436Y721248D02*
D03*
X1233170Y594868D02*
D03*
X1174750D02*
D03*
X1115060D02*
D03*
X979170D02*
D03*
X920750D02*
D03*
X861060D02*
D03*
X725170D02*
D03*
X666750D02*
D03*
X607060D02*
D03*
X471170D02*
D03*
X412750D02*
D03*
X353060D02*
D03*
X1261872Y706628D02*
D03*
X1233170D02*
D03*
X1203452D02*
D03*
X1174750D02*
D03*
X1143762D02*
D03*
X1115060D02*
D03*
X1007872D02*
D03*
X979170D02*
D03*
X949452D02*
D03*
X920750D02*
D03*
X753872D02*
D03*
X725170D02*
D03*
X695452D02*
D03*
X666750D02*
D03*
X635762D02*
D03*
X607060D02*
D03*
X499872D02*
D03*
X471170D02*
D03*
X440182D02*
D03*
X411480D02*
D03*
X351790D02*
D03*
X889762D02*
D03*
X861060D02*
D03*
X319264Y608330D02*
D03*
X319264Y624840D02*
D03*
X1378628Y676656D02*
D03*
X1398628D02*
D03*
X1418628D02*
D03*
X1438628D02*
D03*
X1458628D02*
D03*
X1478628D02*
D03*
X1498628D02*
D03*
X1518628D02*
D03*
X1538628D02*
D03*
X1558628D02*
D03*
X1578628D02*
D03*
X1598628D02*
D03*
X1608552Y649224D02*
D03*
X1588552D02*
D03*
X1568552D02*
D03*
X1548552D02*
D03*
X1528552D02*
D03*
X1508552D02*
D03*
X1488552D02*
D03*
X1468552D02*
D03*
X1448552D02*
D03*
X1428552D02*
D03*
X1408552D02*
D03*
X1388552D02*
D03*
X1348486Y655320D02*
D03*
X1338326Y655574D02*
D03*
Y671068D02*
D03*
X1348486Y670814D02*
D03*
D26*
X310780Y608330D02*
D03*
X296280D02*
D03*
X296280Y624840D02*
D03*
X310780D02*
D03*
X482230Y637540D02*
D03*
X467730D02*
D03*
X362850Y765810D02*
D03*
X348350D02*
D03*
X480960D02*
D03*
X466460D02*
D03*
X480960Y750570D02*
D03*
X466460D02*
D03*
X422540Y765810D02*
D03*
X408040D02*
D03*
X422540Y750570D02*
D03*
X408040D02*
D03*
X362850D02*
D03*
X348350D02*
D03*
X872120Y652780D02*
D03*
X857620D02*
D03*
X872120Y637540D02*
D03*
X857620D02*
D03*
X931810D02*
D03*
X917310D02*
D03*
X988960Y652780D02*
D03*
X974460D02*
D03*
X423810D02*
D03*
X409310D02*
D03*
X482230D02*
D03*
X467730D02*
D03*
X931810D02*
D03*
X917310D02*
D03*
X988960Y637540D02*
D03*
X974460D02*
D03*
X423810D02*
D03*
X409310D02*
D03*
X364120Y652780D02*
D03*
X349620D02*
D03*
X364120Y637540D02*
D03*
X349620D02*
D03*
X990230Y750570D02*
D03*
X975730D02*
D03*
X990230Y765810D02*
D03*
X975730D02*
D03*
X931810Y750570D02*
D03*
X917310D02*
D03*
X931810Y765810D02*
D03*
X917310D02*
D03*
X872120D02*
D03*
X857620D02*
D03*
X872120Y750570D02*
D03*
X857620D02*
D03*
X1126120Y652780D02*
D03*
X1111620D02*
D03*
X1126120Y637540D02*
D03*
X1111620D02*
D03*
X1185810D02*
D03*
X1171310D02*
D03*
X1244230D02*
D03*
X1229730D02*
D03*
X1185810Y652780D02*
D03*
X1171310D02*
D03*
X1244230Y765810D02*
D03*
X1229730D02*
D03*
X1244230Y750570D02*
D03*
X1229730D02*
D03*
X1185810D02*
D03*
X1171310D02*
D03*
X677810D02*
D03*
X663310D02*
D03*
X677810Y765810D02*
D03*
X663310D02*
D03*
X1126120D02*
D03*
X1111620D02*
D03*
X1126120Y750570D02*
D03*
X1111620D02*
D03*
X1244230Y652780D02*
D03*
X1229730D02*
D03*
X1185810Y765810D02*
D03*
X1171310D02*
D03*
X736230Y652780D02*
D03*
X721730D02*
D03*
X736230Y750570D02*
D03*
X721730D02*
D03*
X736230Y765810D02*
D03*
X721730D02*
D03*
X618120D02*
D03*
X603620D02*
D03*
X736230Y637540D02*
D03*
X721730D02*
D03*
X677810Y652780D02*
D03*
X663310D02*
D03*
X677810Y637540D02*
D03*
X663310D02*
D03*
X618120Y652780D02*
D03*
X603620D02*
D03*
X618120Y637540D02*
D03*
X603620D02*
D03*
X618120Y750570D02*
D03*
X603620D02*
D03*
D27*
X1608590Y662940D02*
D03*
X1598590D02*
D03*
X1568590D02*
D03*
X1558590D02*
D03*
X1538590D02*
D03*
X1518590D02*
D03*
X1508590D02*
D03*
X1458590D02*
D03*
X1318590D02*
D03*
X1328590D02*
D03*
X1338590D02*
D03*
X1348590D02*
D03*
X1358590D02*
D03*
X1368590D02*
D03*
X1378590D02*
D03*
X1388590D02*
D03*
X1398590D02*
D03*
X1408590D02*
D03*
X1448590D02*
D03*
X1438590D02*
D03*
X1418590D02*
D03*
X1428590D02*
D03*
X1468590D02*
D03*
X1478590D02*
D03*
X1488590D02*
D03*
X1498590D02*
D03*
X1528590D02*
D03*
X1548590D02*
D03*
X1578590D02*
D03*
X1588590D02*
D03*
D28*
X1296690Y688690D02*
D03*
X1630490D02*
D03*
D29*
X1489100Y576580D02*
D03*
X1508100D02*
D03*
X1498600Y553900D02*
D03*
D30*
X1456690Y557900D02*
D03*
Y572400D02*
D03*
X1473200Y557900D02*
D03*
Y572400D02*
D03*
D31*
X224880Y699860D02*
D03*
Y613320D02*
D03*
D32*
X296190Y669090D02*
D03*
Y644090D02*
D03*
D33*
X655500Y610870D02*
D03*
X678180Y601370D02*
D03*
Y620370D02*
D03*
X849810Y610870D02*
D03*
X872490Y601370D02*
D03*
Y620370D02*
D03*
X1221920Y610870D02*
D03*
X1244600Y601370D02*
D03*
Y620370D02*
D03*
X1163500Y610870D02*
D03*
X1186180Y601370D02*
D03*
Y620370D02*
D03*
X713920Y610870D02*
D03*
X736600Y601370D02*
D03*
Y620370D02*
D03*
X909500Y610870D02*
D03*
X932180Y601370D02*
D03*
Y620370D02*
D03*
X1103810Y610870D02*
D03*
X1126490Y601370D02*
D03*
Y620370D02*
D03*
X967920Y610870D02*
D03*
X990600Y601370D02*
D03*
Y620370D02*
D03*
X459920Y610870D02*
D03*
X482600Y601370D02*
D03*
Y620370D02*
D03*
X401500Y610870D02*
D03*
X424180Y601370D02*
D03*
Y620370D02*
D03*
X595810Y610870D02*
D03*
X618490Y601370D02*
D03*
Y620370D02*
D03*
X340540Y722630D02*
D03*
X363220Y713130D02*
D03*
Y732130D02*
D03*
X400230Y722630D02*
D03*
X422910Y713130D02*
D03*
Y732130D02*
D03*
X459920Y722630D02*
D03*
X482600Y713130D02*
D03*
Y732130D02*
D03*
X967920Y722630D02*
D03*
X990600Y713130D02*
D03*
Y732130D02*
D03*
X341810Y610870D02*
D03*
X364490Y601370D02*
D03*
Y620370D02*
D03*
X909500Y722630D02*
D03*
X932180Y713130D02*
D03*
Y732130D02*
D03*
X849810Y722630D02*
D03*
X872490Y713130D02*
D03*
Y732130D02*
D03*
X1221920Y722630D02*
D03*
X1244600Y713130D02*
D03*
Y732130D02*
D03*
X1163500Y722630D02*
D03*
X1186180Y713130D02*
D03*
Y732130D02*
D03*
X713920Y722630D02*
D03*
X736600Y713130D02*
D03*
Y732130D02*
D03*
X655500Y722630D02*
D03*
X678180Y713130D02*
D03*
Y732130D02*
D03*
X1103810Y722630D02*
D03*
X1126490Y713130D02*
D03*
Y732130D02*
D03*
X595810Y722630D02*
D03*
X618490Y713130D02*
D03*
Y732130D02*
D03*
M02*
