G04*
G04 #@! TF.GenerationSoftware,Altium Limited,Altium Designer,24.0.1 (36)*
G04*
G04 Layer_Physical_Order=1*
G04 Layer_Color=191*
%FSLAX44Y44*%
%MOMM*%
G71*
G04*
G04 #@! TF.SameCoordinates,6AB65015-FC58-47BD-B1F7-23B370D85B0D*
G04*
G04*
G04 #@! TF.FilePolarity,Positive*
G04*
G01*
G75*
%ADD10C,0.2540*%
%ADD14C,1.7000*%
%ADD15R,1.7000X1.7000*%
%ADD16C,0.7000*%
G36*
X1628135Y788157D02*
X1631934Y787139D01*
X1635567Y785634D01*
X1638973Y783668D01*
X1642093Y781274D01*
X1644874Y778493D01*
X1647268Y775373D01*
X1649234Y771967D01*
X1650739Y768334D01*
X1651757Y764535D01*
X1652270Y760636D01*
Y758670D01*
Y565940D01*
Y563974D01*
X1651757Y560075D01*
X1650739Y556276D01*
X1649234Y552643D01*
X1647268Y549237D01*
X1644874Y546117D01*
X1642093Y543336D01*
X1638973Y540942D01*
X1635567Y538976D01*
X1631934Y537471D01*
X1628135Y536453D01*
X1624236Y535940D01*
X235044D01*
X231145Y536453D01*
X227346Y537471D01*
X223713Y538976D01*
X220307Y540942D01*
X217187Y543336D01*
X214406Y546117D01*
X212012Y549237D01*
X210046Y552643D01*
X208541Y556276D01*
X207523Y560075D01*
X207010Y563974D01*
Y565940D01*
Y758670D01*
Y760636D01*
X207523Y764535D01*
X208541Y768334D01*
X210046Y771967D01*
X212012Y775373D01*
X214406Y778493D01*
X217187Y781274D01*
X220307Y783668D01*
X223713Y785634D01*
X227346Y787139D01*
X231145Y788157D01*
X235044Y788670D01*
X1624236D01*
X1628135Y788157D01*
D02*
G37*
%LPC*%
G36*
X1263073Y778088D02*
X1260671D01*
X1258451Y777169D01*
X1256751Y775469D01*
X1255832Y773250D01*
Y770847D01*
X1256227Y769893D01*
X1255378Y768623D01*
X1209304D01*
X1208572Y770389D01*
X1206873Y772088D01*
X1204653Y773008D01*
X1202251D01*
X1200031Y772088D01*
X1198332Y770389D01*
X1197412Y768169D01*
Y765767D01*
X1197807Y764813D01*
X1196958Y763543D01*
X1149360D01*
X1148628Y765309D01*
X1146929Y767009D01*
X1144709Y767928D01*
X1142307D01*
X1140087Y767009D01*
X1138388Y765309D01*
X1137468Y763090D01*
Y760687D01*
X1137863Y759733D01*
X1137014Y758463D01*
X1013470D01*
X1012738Y760229D01*
X1011039Y761928D01*
X1008819Y762848D01*
X1006417D01*
X1004197Y761928D01*
X1002497Y760229D01*
X1001578Y758009D01*
Y755607D01*
X1001973Y754653D01*
X1001124Y753383D01*
X955304D01*
X954573Y755149D01*
X952873Y756849D01*
X950653Y757768D01*
X948251D01*
X946031Y756849D01*
X944332Y755149D01*
X943412Y752930D01*
Y750527D01*
X943807Y749573D01*
X942959Y748303D01*
X895614D01*
X894883Y750069D01*
X893183Y751768D01*
X890963Y752688D01*
X888561D01*
X886341Y751768D01*
X884641Y750069D01*
X883722Y747850D01*
Y745447D01*
X884117Y744493D01*
X883269Y743223D01*
X759724D01*
X758992Y744989D01*
X757293Y746689D01*
X755073Y747608D01*
X752671D01*
X750451Y746689D01*
X748752Y744989D01*
X747832Y742769D01*
Y740367D01*
X748227Y739413D01*
X747378Y738143D01*
X701050D01*
X700319Y739909D01*
X698619Y741609D01*
X696399Y742528D01*
X693997D01*
X691777Y741609D01*
X690078Y739909D01*
X689158Y737690D01*
Y735287D01*
X689553Y734333D01*
X688705Y733063D01*
X642122D01*
X641391Y734829D01*
X639691Y736528D01*
X637471Y737448D01*
X635069D01*
X632849Y736528D01*
X631149Y734829D01*
X630230Y732609D01*
Y730207D01*
X630625Y729253D01*
X629776Y727983D01*
X505724D01*
X504992Y729749D01*
X503293Y731449D01*
X501073Y732368D01*
X498671D01*
X496451Y731449D01*
X494752Y729749D01*
X493832Y727530D01*
Y725127D01*
X494227Y724173D01*
X493378Y722903D01*
X446288D01*
X445556Y724669D01*
X443857Y726368D01*
X441637Y727288D01*
X439235D01*
X437015Y726368D01*
X435316Y724669D01*
X434396Y722449D01*
Y720047D01*
X434791Y719093D01*
X433942Y717823D01*
X358514D01*
X357028Y717527D01*
X355767Y716685D01*
X351750Y712668D01*
X350589D01*
X348369Y711749D01*
X346670Y710049D01*
X345750Y707829D01*
Y705427D01*
X346175Y704400D01*
X345327Y703130D01*
X329380D01*
Y681050D01*
X351460D01*
Y700588D01*
X352991D01*
X355211Y701507D01*
X356911Y703207D01*
X357830Y705427D01*
Y707760D01*
X360123Y710053D01*
X404986D01*
X405835Y708783D01*
X405440Y707829D01*
Y705427D01*
X405865Y704400D01*
X405017Y703130D01*
X388297D01*
Y681050D01*
X410377D01*
Y700588D01*
X412681D01*
X414901Y701507D01*
X416137Y702743D01*
X418569D01*
X418910Y701473D01*
X417959Y700924D01*
X415903Y698869D01*
X414450Y696351D01*
X413697Y693543D01*
Y693360D01*
X424737D01*
X435777D01*
Y693543D01*
X435025Y696351D01*
X433572Y698869D01*
X431516Y700924D01*
X430565Y701473D01*
X430905Y702743D01*
X435525D01*
X436761Y701507D01*
X438981Y700588D01*
X441383D01*
X443603Y701507D01*
X445303Y703207D01*
X446222Y705427D01*
Y707829D01*
X445827Y708783D01*
X446675Y710053D01*
X464677D01*
X465525Y708783D01*
X465130Y707829D01*
Y705427D01*
X465555Y704400D01*
X464707Y703130D01*
X447215D01*
Y681050D01*
X469295D01*
Y700138D01*
X469969Y700588D01*
X472371D01*
X474591Y701507D01*
X475827Y702743D01*
X477487D01*
X477827Y701473D01*
X476876Y700924D01*
X474821Y698869D01*
X473367Y696351D01*
X472615Y693543D01*
Y693360D01*
X483655D01*
X494695D01*
Y693543D01*
X493942Y696351D01*
X492489Y698869D01*
X490434Y700924D01*
X489482Y701473D01*
X489823Y702743D01*
X495215D01*
X496451Y701507D01*
X498671Y700588D01*
X501073D01*
X503293Y701507D01*
X504992Y703207D01*
X505912Y705427D01*
Y707829D01*
X505517Y708783D01*
X506366Y710053D01*
X600566D01*
X601415Y708783D01*
X601020Y707829D01*
Y705427D01*
X601445Y704400D01*
X600597Y703130D01*
X583380D01*
Y681050D01*
X605460D01*
Y700322D01*
X605859Y700588D01*
X608261D01*
X610481Y701507D01*
X611717Y702743D01*
X613652D01*
X613992Y701473D01*
X613041Y700924D01*
X610986Y698869D01*
X609532Y696351D01*
X608780Y693543D01*
Y693360D01*
X619820D01*
X630860D01*
Y693543D01*
X630108Y696351D01*
X628654Y698869D01*
X626599Y700924D01*
X625648Y701473D01*
X625988Y702743D01*
X631105D01*
X632341Y701507D01*
X634561Y700588D01*
X636963D01*
X639183Y701507D01*
X640882Y703207D01*
X641802Y705427D01*
Y707829D01*
X641407Y708783D01*
X642255Y710053D01*
X660257D01*
X661105Y708783D01*
X660710Y707829D01*
Y705427D01*
X661135Y704400D01*
X660287Y703130D01*
X642297D01*
Y681050D01*
X664377D01*
Y699930D01*
X665433Y700636D01*
X665549Y700588D01*
X667951D01*
X670171Y701507D01*
X671383Y702719D01*
X672478Y702600D01*
X672829Y701426D01*
X671959Y700924D01*
X669903Y698869D01*
X668450Y696351D01*
X667697Y693543D01*
Y693360D01*
X678737D01*
X689777D01*
Y693543D01*
X689025Y696351D01*
X687572Y698869D01*
X685516Y700924D01*
X684565Y701473D01*
X684905Y702743D01*
X690795D01*
X692031Y701507D01*
X694251Y700588D01*
X696653D01*
X698873Y701507D01*
X699945Y702579D01*
X701215Y702053D01*
Y681050D01*
X723295D01*
Y700138D01*
X723969Y700588D01*
X726371D01*
X728591Y701507D01*
X729827Y702743D01*
X731487D01*
X731827Y701473D01*
X730876Y700924D01*
X728821Y698869D01*
X727367Y696351D01*
X726615Y693543D01*
Y693360D01*
X737655D01*
X748695D01*
Y693543D01*
X747942Y696351D01*
X746489Y698869D01*
X744434Y700924D01*
X743482Y701473D01*
X743823Y702743D01*
X749215D01*
X750451Y701507D01*
X752671Y700588D01*
X755073D01*
X757293Y701507D01*
X758992Y703207D01*
X759912Y705427D01*
Y707829D01*
X759517Y708783D01*
X760366Y710053D01*
X854566D01*
X855415Y708783D01*
X855020Y707829D01*
Y705427D01*
X855445Y704400D01*
X854597Y703130D01*
X837380D01*
Y681050D01*
X859460D01*
Y700322D01*
X859859Y700588D01*
X862261D01*
X864481Y701507D01*
X865717Y702743D01*
X867652D01*
X867992Y701473D01*
X867041Y700924D01*
X864986Y698869D01*
X863532Y696351D01*
X862780Y693543D01*
Y693360D01*
X873820D01*
X884860D01*
Y693543D01*
X884108Y696351D01*
X882654Y698869D01*
X880599Y700924D01*
X879648Y701473D01*
X879988Y702743D01*
X885105D01*
X886341Y701507D01*
X888561Y700588D01*
X890963D01*
X893183Y701507D01*
X894883Y703207D01*
X895802Y705427D01*
Y707829D01*
X895407Y708783D01*
X896255Y710053D01*
X914257D01*
X915105Y708783D01*
X914710Y707829D01*
Y705427D01*
X915135Y704400D01*
X914287Y703130D01*
X896297D01*
Y681050D01*
X918377D01*
Y699930D01*
X919433Y700636D01*
X919549Y700588D01*
X921951D01*
X924171Y701507D01*
X925383Y702719D01*
X926478Y702600D01*
X926829Y701426D01*
X925959Y700924D01*
X923903Y698869D01*
X922450Y696351D01*
X921697Y693543D01*
Y693360D01*
X932737D01*
X943777D01*
Y693543D01*
X943025Y696351D01*
X941572Y698869D01*
X939516Y700924D01*
X938565Y701473D01*
X938905Y702743D01*
X944795D01*
X946031Y701507D01*
X948251Y700588D01*
X950653D01*
X952873Y701507D01*
X953945Y702579D01*
X955215Y702053D01*
Y681050D01*
X977295D01*
Y700138D01*
X977969Y700588D01*
X980371D01*
X982591Y701507D01*
X983827Y702743D01*
X985487D01*
X985827Y701473D01*
X984876Y700924D01*
X982821Y698869D01*
X981367Y696351D01*
X980615Y693543D01*
Y693360D01*
X991655D01*
X1002695D01*
Y693543D01*
X1001942Y696351D01*
X1000489Y698869D01*
X998434Y700924D01*
X997482Y701473D01*
X997823Y702743D01*
X1003215D01*
X1004451Y701507D01*
X1006671Y700588D01*
X1009073D01*
X1011293Y701507D01*
X1012992Y703207D01*
X1013912Y705427D01*
Y707829D01*
X1013517Y708783D01*
X1014365Y710053D01*
X1108567D01*
X1109415Y708783D01*
X1109020Y707829D01*
Y705427D01*
X1109445Y704400D01*
X1108597Y703130D01*
X1091380D01*
Y681050D01*
X1113460D01*
Y700322D01*
X1113859Y700588D01*
X1116261D01*
X1118481Y701507D01*
X1119717Y702743D01*
X1121652D01*
X1121992Y701473D01*
X1121041Y700924D01*
X1118986Y698869D01*
X1117532Y696351D01*
X1116780Y693543D01*
Y693360D01*
X1127820D01*
X1138860D01*
Y693543D01*
X1138108Y696351D01*
X1136654Y698869D01*
X1134599Y700924D01*
X1133648Y701473D01*
X1133988Y702743D01*
X1139105D01*
X1140341Y701507D01*
X1142561Y700588D01*
X1144963D01*
X1147183Y701507D01*
X1148883Y703207D01*
X1149802Y705427D01*
Y707829D01*
X1149407Y708783D01*
X1150256Y710053D01*
X1168257D01*
X1169105Y708783D01*
X1168710Y707829D01*
Y705427D01*
X1169135Y704400D01*
X1168287Y703130D01*
X1150297D01*
Y681050D01*
X1172377D01*
Y699930D01*
X1173433Y700636D01*
X1173549Y700588D01*
X1175951D01*
X1178171Y701507D01*
X1179383Y702719D01*
X1180478Y702600D01*
X1180828Y701426D01*
X1179959Y700924D01*
X1177903Y698869D01*
X1176450Y696351D01*
X1175697Y693543D01*
Y693360D01*
X1186737D01*
X1197777D01*
Y693543D01*
X1197025Y696351D01*
X1195572Y698869D01*
X1193516Y700924D01*
X1192565Y701473D01*
X1192905Y702743D01*
X1198795D01*
X1200031Y701507D01*
X1202251Y700588D01*
X1204653D01*
X1206873Y701507D01*
X1207945Y702579D01*
X1209215Y702053D01*
Y681050D01*
X1231295D01*
Y700138D01*
X1231969Y700588D01*
X1234371D01*
X1236591Y701507D01*
X1237827Y702743D01*
X1239487D01*
X1239827Y701473D01*
X1238876Y700924D01*
X1236821Y698869D01*
X1235367Y696351D01*
X1234615Y693543D01*
Y693360D01*
X1245655D01*
X1256695D01*
Y693543D01*
X1255942Y696351D01*
X1254489Y698869D01*
X1252433Y700924D01*
X1251482Y701473D01*
X1251823Y702743D01*
X1257215D01*
X1258451Y701507D01*
X1260671Y700588D01*
X1263073D01*
X1265293Y701507D01*
X1266992Y703207D01*
X1267912Y705427D01*
Y707829D01*
X1267517Y708783D01*
X1268365Y710053D01*
X1352775D01*
X1374743Y688085D01*
Y681313D01*
X1373508Y680077D01*
X1372588Y677857D01*
Y675455D01*
X1373508Y673235D01*
X1375207Y671535D01*
X1377427Y670616D01*
X1379829D01*
X1382049Y671535D01*
X1383397Y672884D01*
X1384667Y672387D01*
Y653881D01*
X1383432Y652645D01*
X1382512Y650425D01*
Y648023D01*
X1383432Y645803D01*
X1385131Y644103D01*
X1387351Y643184D01*
X1389753D01*
X1391973Y644103D01*
X1393672Y645803D01*
X1394592Y648023D01*
Y650425D01*
X1393672Y652645D01*
X1392437Y653881D01*
Y672646D01*
X1392765Y672827D01*
X1393707Y673036D01*
X1395207Y671535D01*
X1397427Y670616D01*
X1399829D01*
X1402049Y671535D01*
X1403397Y672884D01*
X1404667Y672387D01*
Y653881D01*
X1403432Y652645D01*
X1402512Y650425D01*
Y648023D01*
X1403432Y645803D01*
X1405131Y644103D01*
X1407351Y643184D01*
X1409753D01*
X1411973Y644103D01*
X1413672Y645803D01*
X1414592Y648023D01*
Y650425D01*
X1413672Y652645D01*
X1412437Y653881D01*
Y672646D01*
X1412765Y672827D01*
X1413707Y673036D01*
X1415207Y671535D01*
X1417427Y670616D01*
X1419829D01*
X1422049Y671535D01*
X1423397Y672884D01*
X1424667Y672387D01*
Y653881D01*
X1423432Y652645D01*
X1422512Y650425D01*
Y648023D01*
X1423432Y645803D01*
X1425131Y644103D01*
X1427351Y643184D01*
X1429753D01*
X1431973Y644103D01*
X1433672Y645803D01*
X1434592Y648023D01*
Y650425D01*
X1433672Y652645D01*
X1432437Y653881D01*
Y672646D01*
X1432765Y672827D01*
X1433707Y673036D01*
X1435207Y671535D01*
X1437427Y670616D01*
X1439829D01*
X1442049Y671535D01*
X1443397Y672884D01*
X1444667Y672387D01*
Y653881D01*
X1443432Y652645D01*
X1442512Y650425D01*
Y648023D01*
X1443432Y645803D01*
X1445131Y644103D01*
X1447351Y643184D01*
X1449753D01*
X1451973Y644103D01*
X1453672Y645803D01*
X1454592Y648023D01*
Y650425D01*
X1453672Y652645D01*
X1452437Y653881D01*
Y672646D01*
X1452765Y672827D01*
X1453707Y673036D01*
X1455207Y671535D01*
X1457427Y670616D01*
X1459829D01*
X1462049Y671535D01*
X1463397Y672884D01*
X1464667Y672387D01*
Y653881D01*
X1463432Y652645D01*
X1462512Y650425D01*
Y648023D01*
X1463432Y645803D01*
X1465131Y644103D01*
X1467351Y643184D01*
X1469753D01*
X1471973Y644103D01*
X1473672Y645803D01*
X1474592Y648023D01*
Y650425D01*
X1473672Y652645D01*
X1472437Y653881D01*
Y672646D01*
X1472765Y672827D01*
X1473707Y673036D01*
X1475207Y671535D01*
X1477427Y670616D01*
X1479829D01*
X1482049Y671535D01*
X1483397Y672884D01*
X1484667Y672387D01*
Y653881D01*
X1483432Y652645D01*
X1482512Y650425D01*
Y648023D01*
X1483432Y645803D01*
X1485131Y644103D01*
X1487350Y643184D01*
X1488826D01*
X1489352Y641914D01*
X1488101Y640663D01*
X1343237D01*
X1334762Y649138D01*
X1335481Y650215D01*
X1337056Y649562D01*
Y654304D01*
X1332314D01*
X1332967Y652729D01*
X1331890Y652010D01*
X1317197Y666703D01*
X1315937Y667545D01*
X1314450Y667841D01*
X422148D01*
X420661Y667545D01*
X419401Y666703D01*
X353606Y600908D01*
X351859D01*
X349639Y599989D01*
X347939Y598289D01*
X347020Y596069D01*
Y593667D01*
X347939Y591447D01*
X349639Y589748D01*
X351859Y588828D01*
X354261D01*
X356481Y589748D01*
X358181Y591447D01*
X359100Y593667D01*
Y595414D01*
X423757Y660071D01*
X470800D01*
X471286Y658898D01*
X413296Y600908D01*
X411549D01*
X409329Y599989D01*
X407630Y598289D01*
X406710Y596069D01*
Y593667D01*
X407630Y591447D01*
X409329Y589748D01*
X411549Y588828D01*
X413951D01*
X416171Y589748D01*
X417870Y591447D01*
X418790Y593667D01*
Y595414D01*
X478367Y654991D01*
X522933D01*
X523419Y653818D01*
X470509Y600908D01*
X469969D01*
X467749Y599989D01*
X466049Y598289D01*
X465130Y596069D01*
Y593667D01*
X466049Y591447D01*
X467749Y589748D01*
X469969Y588828D01*
X472371D01*
X474591Y589748D01*
X476291Y591447D01*
X477210Y593667D01*
Y596069D01*
X477048Y596460D01*
X530500Y649911D01*
X654950D01*
X655436Y648738D01*
X607606Y600908D01*
X605859D01*
X603639Y599989D01*
X601940Y598289D01*
X601020Y596069D01*
Y593667D01*
X601940Y591447D01*
X603639Y589748D01*
X605859Y588828D01*
X608261D01*
X610481Y589748D01*
X612180Y591447D01*
X613100Y593667D01*
Y595414D01*
X662517Y644831D01*
X709560D01*
X710046Y643658D01*
X667296Y600908D01*
X665549D01*
X663329Y599989D01*
X661629Y598289D01*
X660710Y596069D01*
Y593667D01*
X661629Y591447D01*
X663329Y589748D01*
X665549Y588828D01*
X667951D01*
X670171Y589748D01*
X671870Y591447D01*
X672790Y593667D01*
Y595414D01*
X717127Y639751D01*
X762900D01*
X763386Y638578D01*
X725716Y600908D01*
X723969D01*
X721749Y599989D01*
X720050Y598289D01*
X719130Y596069D01*
Y593667D01*
X720050Y591447D01*
X721749Y589748D01*
X723969Y588828D01*
X726371D01*
X728591Y589748D01*
X730291Y591447D01*
X731210Y593667D01*
Y595414D01*
X770467Y634671D01*
X893710D01*
X894196Y633498D01*
X861606Y600908D01*
X859859D01*
X857639Y599989D01*
X855939Y598289D01*
X855020Y596069D01*
Y593667D01*
X855939Y591447D01*
X857639Y589748D01*
X859859Y588828D01*
X862261D01*
X864481Y589748D01*
X866180Y591447D01*
X867100Y593667D01*
Y595414D01*
X901277Y629591D01*
X948320D01*
X948806Y628418D01*
X921296Y600908D01*
X919549D01*
X917329Y599989D01*
X915630Y598289D01*
X914710Y596069D01*
Y593667D01*
X915630Y591447D01*
X917329Y589748D01*
X919549Y588828D01*
X921951D01*
X924171Y589748D01*
X925871Y591447D01*
X926790Y593667D01*
Y595414D01*
X955887Y624511D01*
X1001660D01*
X1002146Y623338D01*
X979716Y600908D01*
X977969D01*
X975749Y599989D01*
X974050Y598289D01*
X973130Y596069D01*
Y593667D01*
X974050Y591447D01*
X975749Y589748D01*
X977969Y588828D01*
X980371D01*
X982591Y589748D01*
X984290Y591447D01*
X985210Y593667D01*
Y595414D01*
X1009227Y619431D01*
X1132470D01*
X1132956Y618258D01*
X1115606Y600908D01*
X1113859D01*
X1111639Y599989D01*
X1109939Y598289D01*
X1109020Y596069D01*
Y593667D01*
X1109939Y591447D01*
X1111639Y589748D01*
X1113859Y588828D01*
X1116261D01*
X1118481Y589748D01*
X1120181Y591447D01*
X1121100Y593667D01*
Y595414D01*
X1140037Y614351D01*
X1187080D01*
X1187566Y613178D01*
X1175296Y600908D01*
X1173549D01*
X1171329Y599989D01*
X1169630Y598289D01*
X1168710Y596069D01*
Y593667D01*
X1169630Y591447D01*
X1171329Y589748D01*
X1173549Y588828D01*
X1175951D01*
X1178171Y589748D01*
X1179871Y591447D01*
X1180790Y593667D01*
Y595414D01*
X1194393Y609017D01*
X1240166D01*
X1240652Y607844D01*
X1233716Y600908D01*
X1231969D01*
X1229749Y599989D01*
X1228049Y598289D01*
X1227130Y596069D01*
Y593667D01*
X1228049Y591447D01*
X1229749Y589748D01*
X1231969Y588828D01*
X1234371D01*
X1236591Y589748D01*
X1238290Y591447D01*
X1239210Y593667D01*
Y595414D01*
X1247733Y603937D01*
X1289949D01*
X1316497Y577389D01*
X1317757Y576547D01*
X1319244Y576251D01*
X1526955D01*
X1528200Y576190D01*
X1528200Y574981D01*
Y554110D01*
X1550280D01*
X1550280Y575541D01*
X1550887Y576547D01*
X1551290Y576817D01*
X1552147Y577389D01*
X1611299Y636541D01*
X1612141Y637801D01*
X1612436Y639288D01*
Y644567D01*
X1613672Y645803D01*
X1614592Y648023D01*
Y650425D01*
X1613672Y652645D01*
X1611973Y654344D01*
X1609753Y655264D01*
X1607350D01*
X1605130Y654344D01*
X1603782Y652997D01*
X1602512Y653493D01*
Y671999D01*
X1603748Y673235D01*
X1604668Y675455D01*
Y677857D01*
X1603748Y680077D01*
X1602049Y681777D01*
X1599829Y682696D01*
X1597426D01*
X1595206Y681777D01*
X1593507Y680077D01*
X1592588Y677857D01*
Y675455D01*
X1593507Y673235D01*
X1594743Y671999D01*
Y653234D01*
X1594415Y653053D01*
X1593473Y652844D01*
X1591973Y654344D01*
X1589753Y655264D01*
X1587350D01*
X1585130Y654344D01*
X1583782Y652997D01*
X1582512Y653493D01*
Y671999D01*
X1583748Y673235D01*
X1584668Y675455D01*
Y677857D01*
X1583748Y680077D01*
X1582049Y681777D01*
X1579829Y682696D01*
X1577426D01*
X1575206Y681777D01*
X1573507Y680077D01*
X1572588Y677857D01*
Y675455D01*
X1573507Y673235D01*
X1574743Y671999D01*
Y653234D01*
X1574415Y653053D01*
X1573473Y652844D01*
X1571973Y654344D01*
X1569753Y655264D01*
X1567350D01*
X1565130Y654344D01*
X1563783Y652997D01*
X1562513Y653493D01*
Y671999D01*
X1563748Y673235D01*
X1564668Y675455D01*
Y677857D01*
X1563748Y680077D01*
X1562049Y681777D01*
X1559829Y682696D01*
X1557426D01*
X1555206Y681777D01*
X1553507Y680077D01*
X1552588Y677857D01*
Y675455D01*
X1553507Y673235D01*
X1554743Y671999D01*
Y653234D01*
X1554415Y653053D01*
X1553473Y652844D01*
X1551973Y654344D01*
X1549753Y655264D01*
X1547350D01*
X1545130Y654344D01*
X1543783Y652997D01*
X1542513Y653493D01*
Y671999D01*
X1543748Y673235D01*
X1544668Y675455D01*
Y677857D01*
X1543748Y680077D01*
X1542049Y681777D01*
X1539829Y682696D01*
X1537426D01*
X1535206Y681777D01*
X1533507Y680077D01*
X1532588Y677857D01*
Y675455D01*
X1533507Y673235D01*
X1534743Y671999D01*
Y653234D01*
X1534415Y653053D01*
X1533473Y652844D01*
X1531973Y654344D01*
X1529753Y655264D01*
X1527350D01*
X1525130Y654344D01*
X1523783Y652997D01*
X1522513Y653493D01*
Y671999D01*
X1523748Y673235D01*
X1524668Y675455D01*
Y677857D01*
X1523748Y680077D01*
X1522049Y681777D01*
X1519829Y682696D01*
X1517426D01*
X1515206Y681777D01*
X1513507Y680077D01*
X1512588Y677857D01*
Y675455D01*
X1513507Y673235D01*
X1514743Y671999D01*
Y653234D01*
X1514415Y653053D01*
X1513473Y652844D01*
X1511973Y654344D01*
X1509753Y655264D01*
X1507350D01*
X1505130Y654344D01*
X1503783Y652997D01*
X1502513Y653493D01*
Y671999D01*
X1503748Y673235D01*
X1504668Y675455D01*
Y677857D01*
X1503748Y680077D01*
X1502049Y681777D01*
X1499829Y682696D01*
X1497426D01*
X1495207Y681777D01*
X1493508Y680077D01*
X1493180Y679287D01*
X1491747Y679146D01*
X1491299Y679817D01*
X1398551Y772565D01*
X1397290Y773407D01*
X1395804Y773703D01*
X1267724D01*
X1266992Y775469D01*
X1265293Y777169D01*
X1263073Y778088D01*
D02*
G37*
G36*
X1623747Y776260D02*
X1620793D01*
X1620542Y776210D01*
X1620287D01*
X1617389Y775634D01*
X1617154Y775536D01*
X1616904Y775486D01*
X1614174Y774355D01*
X1613962Y774214D01*
X1613726Y774116D01*
X1611269Y772475D01*
X1611089Y772294D01*
X1610877Y772152D01*
X1608788Y770063D01*
X1608646Y769851D01*
X1608465Y769671D01*
X1606824Y767214D01*
X1606726Y766978D01*
X1606584Y766766D01*
X1605454Y764036D01*
X1605404Y763786D01*
X1605306Y763551D01*
X1604730Y760653D01*
Y760397D01*
X1604680Y760147D01*
Y757193D01*
X1604730Y756943D01*
Y756687D01*
X1605306Y753789D01*
X1605404Y753554D01*
X1605454Y753304D01*
X1606584Y750574D01*
X1606726Y750362D01*
X1606824Y750126D01*
X1608465Y747669D01*
X1608646Y747489D01*
X1608788Y747277D01*
X1610877Y745188D01*
X1611089Y745046D01*
X1611269Y744865D01*
X1613726Y743224D01*
X1613962Y743126D01*
X1614174Y742984D01*
X1616904Y741854D01*
X1617154Y741804D01*
X1617389Y741706D01*
X1620287Y741130D01*
X1620542D01*
X1620793Y741080D01*
X1623747D01*
X1623997Y741130D01*
X1624253D01*
X1627151Y741706D01*
X1627386Y741804D01*
X1627636Y741854D01*
X1630366Y742984D01*
X1630578Y743126D01*
X1630814Y743224D01*
X1633271Y744865D01*
X1633451Y745046D01*
X1633663Y745188D01*
X1635753Y747277D01*
X1635894Y747489D01*
X1636075Y747669D01*
X1637716Y750126D01*
X1637814Y750362D01*
X1637955Y750574D01*
X1639086Y753304D01*
X1639136Y753554D01*
X1639234Y753789D01*
X1639810Y756687D01*
Y756943D01*
X1639860Y757193D01*
Y760147D01*
X1639810Y760397D01*
Y760653D01*
X1639234Y763551D01*
X1639136Y763786D01*
X1639086Y764036D01*
X1637955Y766766D01*
X1637814Y766978D01*
X1637716Y767214D01*
X1636075Y769671D01*
X1635894Y769851D01*
X1635753Y770063D01*
X1633663Y772152D01*
X1633451Y772294D01*
X1633271Y772475D01*
X1630814Y774116D01*
X1630578Y774214D01*
X1630366Y774355D01*
X1627636Y775486D01*
X1627386Y775536D01*
X1627151Y775634D01*
X1624253Y776210D01*
X1623997D01*
X1623747Y776260D01*
D02*
G37*
G36*
X238487D02*
X235533D01*
X235282Y776210D01*
X235027D01*
X232129Y775634D01*
X231894Y775536D01*
X231644Y775486D01*
X228914Y774355D01*
X228702Y774214D01*
X228466Y774116D01*
X226009Y772475D01*
X225829Y772294D01*
X225617Y772152D01*
X223528Y770063D01*
X223386Y769851D01*
X223205Y769671D01*
X221564Y767214D01*
X221466Y766978D01*
X221325Y766766D01*
X220194Y764036D01*
X220144Y763786D01*
X220046Y763551D01*
X219470Y760653D01*
Y760397D01*
X219420Y760147D01*
Y757193D01*
X219470Y756943D01*
Y756687D01*
X220046Y753789D01*
X220144Y753554D01*
X220194Y753304D01*
X221325Y750574D01*
X221466Y750362D01*
X221564Y750126D01*
X223205Y747669D01*
X223386Y747489D01*
X223528Y747277D01*
X225617Y745188D01*
X225829Y745046D01*
X226009Y744865D01*
X228466Y743224D01*
X228702Y743126D01*
X228914Y742984D01*
X231644Y741854D01*
X231894Y741804D01*
X232129Y741706D01*
X235027Y741130D01*
X235282D01*
X235533Y741080D01*
X238487D01*
X238738Y741130D01*
X238993D01*
X241891Y741706D01*
X242126Y741804D01*
X242376Y741854D01*
X245106Y742984D01*
X245318Y743126D01*
X245554Y743224D01*
X248011Y744865D01*
X248191Y745046D01*
X248403Y745188D01*
X250492Y747277D01*
X250634Y747489D01*
X250814Y747669D01*
X252456Y750126D01*
X252554Y750362D01*
X252695Y750574D01*
X253826Y753304D01*
X253876Y753554D01*
X253974Y753789D01*
X254550Y756687D01*
Y756943D01*
X254600Y757193D01*
Y760147D01*
X254550Y760397D01*
Y760653D01*
X253974Y763551D01*
X253876Y763786D01*
X253826Y764036D01*
X252695Y766766D01*
X252554Y766978D01*
X252456Y767214D01*
X250814Y769671D01*
X250634Y769851D01*
X250492Y770063D01*
X248403Y772152D01*
X248191Y772294D01*
X248011Y772475D01*
X245554Y774116D01*
X245318Y774214D01*
X245106Y774355D01*
X242376Y775486D01*
X242126Y775536D01*
X241891Y775634D01*
X238993Y776210D01*
X238738D01*
X238487Y776260D01*
D02*
G37*
G36*
X367273Y703130D02*
X367090D01*
Y693360D01*
X376860D01*
Y693543D01*
X376108Y696351D01*
X374654Y698869D01*
X372599Y700924D01*
X370081Y702378D01*
X367273Y703130D01*
D02*
G37*
G36*
X364550D02*
X364367D01*
X361559Y702378D01*
X359041Y700924D01*
X356986Y698869D01*
X355532Y696351D01*
X354780Y693543D01*
Y693360D01*
X364550D01*
Y703130D01*
D02*
G37*
G36*
X1256695Y690820D02*
X1246925D01*
Y681050D01*
X1247108D01*
X1249916Y681802D01*
X1252433Y683256D01*
X1254489Y685311D01*
X1255942Y687829D01*
X1256695Y690637D01*
Y690820D01*
D02*
G37*
G36*
X1244385D02*
X1234615D01*
Y690637D01*
X1235367Y687829D01*
X1236821Y685311D01*
X1238876Y683256D01*
X1241394Y681802D01*
X1244201Y681050D01*
X1244385D01*
Y690820D01*
D02*
G37*
G36*
X1197777Y690820D02*
X1188007D01*
Y681050D01*
X1188191D01*
X1190999Y681802D01*
X1193516Y683256D01*
X1195572Y685311D01*
X1197025Y687829D01*
X1197777Y690637D01*
Y690820D01*
D02*
G37*
G36*
X1185467D02*
X1175697D01*
Y690637D01*
X1176450Y687829D01*
X1177903Y685311D01*
X1179959Y683256D01*
X1182476Y681802D01*
X1185284Y681050D01*
X1185467D01*
Y690820D01*
D02*
G37*
G36*
X1138860Y690820D02*
X1129090D01*
Y681050D01*
X1129273D01*
X1132081Y681802D01*
X1134599Y683256D01*
X1136654Y685311D01*
X1138108Y687829D01*
X1138860Y690637D01*
Y690820D01*
D02*
G37*
G36*
X1126550D02*
X1116780D01*
Y690637D01*
X1117532Y687829D01*
X1118986Y685311D01*
X1121041Y683256D01*
X1123559Y681802D01*
X1126367Y681050D01*
X1126550D01*
Y690820D01*
D02*
G37*
G36*
X1002695Y690820D02*
X992925D01*
Y681050D01*
X993108D01*
X995916Y681802D01*
X998434Y683256D01*
X1000489Y685311D01*
X1001942Y687829D01*
X1002695Y690637D01*
Y690820D01*
D02*
G37*
G36*
X990385D02*
X980615D01*
Y690637D01*
X981367Y687829D01*
X982821Y685311D01*
X984876Y683256D01*
X987393Y681802D01*
X990201Y681050D01*
X990385D01*
Y690820D01*
D02*
G37*
G36*
X943777Y690820D02*
X934007D01*
Y681050D01*
X934191D01*
X936999Y681802D01*
X939516Y683256D01*
X941572Y685311D01*
X943025Y687829D01*
X943777Y690637D01*
Y690820D01*
D02*
G37*
G36*
X931467D02*
X921697D01*
Y690637D01*
X922450Y687829D01*
X923903Y685311D01*
X925959Y683256D01*
X928476Y681802D01*
X931284Y681050D01*
X931467D01*
Y690820D01*
D02*
G37*
G36*
X884860Y690820D02*
X875090D01*
Y681050D01*
X875273D01*
X878081Y681802D01*
X880599Y683256D01*
X882654Y685311D01*
X884108Y687829D01*
X884860Y690637D01*
Y690820D01*
D02*
G37*
G36*
X872550D02*
X862780D01*
Y690637D01*
X863532Y687829D01*
X864986Y685311D01*
X867041Y683256D01*
X869559Y681802D01*
X872367Y681050D01*
X872550D01*
Y690820D01*
D02*
G37*
G36*
X748695Y690820D02*
X738925D01*
Y681050D01*
X739108D01*
X741916Y681802D01*
X744434Y683256D01*
X746489Y685311D01*
X747942Y687829D01*
X748695Y690637D01*
Y690820D01*
D02*
G37*
G36*
X736385D02*
X726615D01*
Y690637D01*
X727367Y687829D01*
X728821Y685311D01*
X730876Y683256D01*
X733393Y681802D01*
X736201Y681050D01*
X736385D01*
Y690820D01*
D02*
G37*
G36*
X689777Y690820D02*
X680007D01*
Y681050D01*
X680191D01*
X682999Y681802D01*
X685516Y683256D01*
X687572Y685311D01*
X689025Y687829D01*
X689777Y690637D01*
Y690820D01*
D02*
G37*
G36*
X677467D02*
X667697D01*
Y690637D01*
X668450Y687829D01*
X669903Y685311D01*
X671959Y683256D01*
X674476Y681802D01*
X677284Y681050D01*
X677467D01*
Y690820D01*
D02*
G37*
G36*
X630860Y690820D02*
X621090D01*
Y681050D01*
X621273D01*
X624081Y681802D01*
X626599Y683256D01*
X628654Y685311D01*
X630108Y687829D01*
X630860Y690637D01*
Y690820D01*
D02*
G37*
G36*
X618550D02*
X608780D01*
Y690637D01*
X609532Y687829D01*
X610986Y685311D01*
X613041Y683256D01*
X615559Y681802D01*
X618367Y681050D01*
X618550D01*
Y690820D01*
D02*
G37*
G36*
X494695D02*
X484925D01*
Y681050D01*
X485108D01*
X487916Y681802D01*
X490434Y683256D01*
X492489Y685311D01*
X493942Y687829D01*
X494695Y690637D01*
Y690820D01*
D02*
G37*
G36*
X482385D02*
X472615D01*
Y690637D01*
X473367Y687829D01*
X474821Y685311D01*
X476876Y683256D01*
X479394Y681802D01*
X482201Y681050D01*
X482385D01*
Y690820D01*
D02*
G37*
G36*
X435777D02*
X426007D01*
Y681050D01*
X426191D01*
X428999Y681802D01*
X431516Y683256D01*
X433572Y685311D01*
X435025Y687829D01*
X435777Y690637D01*
Y690820D01*
D02*
G37*
G36*
X423467D02*
X413697D01*
Y690637D01*
X414450Y687829D01*
X415903Y685311D01*
X417959Y683256D01*
X420476Y681802D01*
X423284Y681050D01*
X423467D01*
Y690820D01*
D02*
G37*
G36*
X376860D02*
X367090D01*
Y681050D01*
X367273D01*
X370081Y681802D01*
X372599Y683256D01*
X374654Y685311D01*
X376108Y687829D01*
X376860Y690637D01*
Y690820D01*
D02*
G37*
G36*
X364550D02*
X354780D01*
Y690637D01*
X355532Y687829D01*
X356986Y685311D01*
X359041Y683256D01*
X361559Y681802D01*
X364367Y681050D01*
X364550D01*
Y690820D01*
D02*
G37*
G36*
X1337056Y677080D02*
X1334905Y676189D01*
X1333206Y674489D01*
X1332314Y672338D01*
X1337056D01*
Y677080D01*
D02*
G37*
G36*
X1349756Y676826D02*
Y672084D01*
X1354498D01*
X1353607Y674235D01*
X1351907Y675935D01*
X1349756Y676826D01*
D02*
G37*
G36*
X1337056Y669798D02*
X1332314D01*
X1333206Y667647D01*
X1334905Y665947D01*
X1337056Y665056D01*
Y669798D01*
D02*
G37*
G36*
X1354498Y669544D02*
X1349756D01*
Y664802D01*
X1351907Y665694D01*
X1353607Y667393D01*
X1354498Y669544D01*
D02*
G37*
G36*
X1339596Y677080D02*
Y671068D01*
Y665056D01*
X1341747Y665947D01*
X1342417Y666617D01*
X1344177Y666581D01*
X1345065Y665694D01*
X1347216Y664802D01*
Y670814D01*
Y676826D01*
X1345065Y675935D01*
X1344395Y675265D01*
X1342635Y675301D01*
X1341747Y676189D01*
X1339596Y677080D01*
D02*
G37*
G36*
X1337056Y661586D02*
X1334905Y660695D01*
X1333206Y658995D01*
X1332314Y656844D01*
X1337056D01*
Y661586D01*
D02*
G37*
G36*
X1349756Y661332D02*
Y656590D01*
X1354498D01*
X1353607Y658741D01*
X1351907Y660441D01*
X1349756Y661332D01*
D02*
G37*
G36*
X1354498Y654050D02*
X1349756D01*
Y649308D01*
X1351907Y650200D01*
X1353607Y651899D01*
X1354498Y654050D01*
D02*
G37*
G36*
X1339596Y661586D02*
Y655574D01*
Y649562D01*
X1341747Y650453D01*
X1342417Y651123D01*
X1344177Y651087D01*
X1345065Y650200D01*
X1347216Y649308D01*
Y655320D01*
Y661332D01*
X1345065Y660441D01*
X1344395Y659771D01*
X1342635Y659807D01*
X1341747Y660695D01*
X1339596Y661586D01*
D02*
G37*
G36*
X320534Y630852D02*
Y626110D01*
X325276D01*
X324384Y628261D01*
X322685Y629961D01*
X320534Y630852D01*
D02*
G37*
G36*
X317994D02*
X315843Y629961D01*
X314144Y628261D01*
X313252Y626110D01*
X317994D01*
Y630852D01*
D02*
G37*
G36*
X325276Y623570D02*
X320534D01*
Y618828D01*
X322685Y619720D01*
X324384Y621419D01*
X325276Y623570D01*
D02*
G37*
G36*
X317994D02*
X313252D01*
X314144Y621419D01*
X315843Y619720D01*
X317994Y618828D01*
Y623570D01*
D02*
G37*
G36*
X320534Y614342D02*
Y609600D01*
X325276D01*
X324384Y611751D01*
X322685Y613451D01*
X320534Y614342D01*
D02*
G37*
G36*
X317994D02*
X315843Y613451D01*
X314144Y611751D01*
X313252Y609600D01*
X317994D01*
Y614342D01*
D02*
G37*
G36*
X325276Y607060D02*
X320534D01*
Y602318D01*
X322685Y603209D01*
X324384Y604909D01*
X325276Y607060D01*
D02*
G37*
G36*
X317994D02*
X313252D01*
X314144Y604909D01*
X315843Y603209D01*
X317994Y602318D01*
Y607060D01*
D02*
G37*
G36*
X1566093Y576190D02*
X1565910D01*
Y566420D01*
X1575680D01*
Y566603D01*
X1574928Y569411D01*
X1573474Y571929D01*
X1571419Y573984D01*
X1568901Y575438D01*
X1566093Y576190D01*
D02*
G37*
G36*
X1563370D02*
X1563187D01*
X1560379Y575438D01*
X1557861Y573984D01*
X1555806Y571929D01*
X1554352Y569411D01*
X1553600Y566603D01*
Y566420D01*
X1563370D01*
Y576190D01*
D02*
G37*
G36*
X1129273Y576130D02*
X1129090D01*
Y566360D01*
X1138860D01*
Y566543D01*
X1138108Y569351D01*
X1136654Y571869D01*
X1134599Y573924D01*
X1132081Y575378D01*
X1129273Y576130D01*
D02*
G37*
G36*
X875273D02*
X875090D01*
Y566360D01*
X884860D01*
Y566543D01*
X884108Y569351D01*
X882654Y571869D01*
X880599Y573924D01*
X878081Y575378D01*
X875273Y576130D01*
D02*
G37*
G36*
X1126550D02*
X1126367D01*
X1123559Y575378D01*
X1121041Y573924D01*
X1118986Y571869D01*
X1117532Y569351D01*
X1116780Y566543D01*
Y566360D01*
X1126550D01*
Y576130D01*
D02*
G37*
G36*
X872550D02*
X872367D01*
X869559Y575378D01*
X867041Y573924D01*
X864986Y571869D01*
X863532Y569351D01*
X862780Y566543D01*
Y566360D01*
X872550D01*
Y576130D01*
D02*
G37*
G36*
X1188191D02*
X1188007D01*
Y566360D01*
X1197777D01*
Y566543D01*
X1197025Y569351D01*
X1195572Y571869D01*
X1193516Y573924D01*
X1190999Y575378D01*
X1188191Y576130D01*
D02*
G37*
G36*
X934191D02*
X934007D01*
Y566360D01*
X943777D01*
Y566543D01*
X943025Y569351D01*
X941572Y571869D01*
X939516Y573924D01*
X936999Y575378D01*
X934191Y576130D01*
D02*
G37*
G36*
X680191D02*
X680007D01*
Y566360D01*
X689777D01*
Y566543D01*
X689025Y569351D01*
X687572Y571869D01*
X685516Y573924D01*
X682999Y575378D01*
X680191Y576130D01*
D02*
G37*
G36*
X1185467D02*
X1185284D01*
X1182476Y575378D01*
X1179959Y573924D01*
X1177903Y571869D01*
X1176450Y569351D01*
X1175697Y566543D01*
Y566360D01*
X1185467D01*
Y576130D01*
D02*
G37*
G36*
X931467D02*
X931284D01*
X928476Y575378D01*
X925959Y573924D01*
X923903Y571869D01*
X922450Y569351D01*
X921697Y566543D01*
Y566360D01*
X931467D01*
Y576130D01*
D02*
G37*
G36*
X677467D02*
X677284D01*
X674476Y575378D01*
X671959Y573924D01*
X669903Y571869D01*
X668450Y569351D01*
X667697Y566543D01*
Y566360D01*
X677467D01*
Y576130D01*
D02*
G37*
G36*
X1247108D02*
X1246925D01*
Y566360D01*
X1256695D01*
Y566543D01*
X1255942Y569351D01*
X1254489Y571869D01*
X1252433Y573924D01*
X1249916Y575378D01*
X1247108Y576130D01*
D02*
G37*
G36*
X993108D02*
X992925D01*
Y566360D01*
X1002695D01*
Y566543D01*
X1001942Y569351D01*
X1000489Y571869D01*
X998434Y573924D01*
X995916Y575378D01*
X993108Y576130D01*
D02*
G37*
G36*
X739108D02*
X738925D01*
Y566360D01*
X748695D01*
Y566543D01*
X747942Y569351D01*
X746489Y571869D01*
X744434Y573924D01*
X741916Y575378D01*
X739108Y576130D01*
D02*
G37*
G36*
X621273D02*
X621090D01*
Y566360D01*
X630860D01*
Y566543D01*
X630108Y569351D01*
X628654Y571869D01*
X626599Y573924D01*
X624081Y575378D01*
X621273Y576130D01*
D02*
G37*
G36*
X485108D02*
X484925D01*
Y566360D01*
X494695D01*
Y566543D01*
X493942Y569351D01*
X492489Y571869D01*
X490434Y573924D01*
X487916Y575378D01*
X485108Y576130D01*
D02*
G37*
G36*
X426191D02*
X426007D01*
Y566360D01*
X435777D01*
Y566543D01*
X435025Y569351D01*
X433572Y571869D01*
X431516Y573924D01*
X428999Y575378D01*
X426191Y576130D01*
D02*
G37*
G36*
X367273D02*
X367090D01*
Y566360D01*
X376860D01*
Y566543D01*
X376108Y569351D01*
X374654Y571869D01*
X372599Y573924D01*
X370081Y575378D01*
X367273Y576130D01*
D02*
G37*
G36*
X618550D02*
X618367D01*
X615559Y575378D01*
X613041Y573924D01*
X610986Y571869D01*
X609532Y569351D01*
X608780Y566543D01*
Y566360D01*
X618550D01*
Y576130D01*
D02*
G37*
G36*
X364550D02*
X364367D01*
X361559Y575378D01*
X359041Y573924D01*
X356986Y571869D01*
X355532Y569351D01*
X354780Y566543D01*
Y566360D01*
X364550D01*
Y576130D01*
D02*
G37*
G36*
X1244385D02*
X1244201D01*
X1241394Y575378D01*
X1238876Y573924D01*
X1236821Y571869D01*
X1235367Y569351D01*
X1234615Y566543D01*
Y566360D01*
X1244385D01*
Y576130D01*
D02*
G37*
G36*
X990385D02*
X990201D01*
X987393Y575378D01*
X984876Y573924D01*
X982821Y571869D01*
X981367Y569351D01*
X980615Y566543D01*
Y566360D01*
X990385D01*
Y576130D01*
D02*
G37*
G36*
X423467D02*
X423284D01*
X420476Y575378D01*
X417959Y573924D01*
X415903Y571869D01*
X414450Y569351D01*
X413697Y566543D01*
Y566360D01*
X423467D01*
Y576130D01*
D02*
G37*
G36*
X736385D02*
X736201D01*
X733393Y575378D01*
X730876Y573924D01*
X728821Y571869D01*
X727367Y569351D01*
X726615Y566543D01*
Y566360D01*
X736385D01*
Y576130D01*
D02*
G37*
G36*
X482385D02*
X482201D01*
X479394Y575378D01*
X476876Y573924D01*
X474821Y571869D01*
X473367Y569351D01*
X472615Y566543D01*
Y566360D01*
X482385D01*
Y576130D01*
D02*
G37*
G36*
X1575680Y563880D02*
X1565910D01*
Y554110D01*
X1566093D01*
X1568901Y554862D01*
X1571419Y556316D01*
X1573474Y558371D01*
X1574928Y560889D01*
X1575680Y563697D01*
Y563880D01*
D02*
G37*
G36*
X1563370D02*
X1553600D01*
Y563697D01*
X1554352Y560889D01*
X1555806Y558371D01*
X1557861Y556316D01*
X1560379Y554862D01*
X1563187Y554110D01*
X1563370D01*
Y563880D01*
D02*
G37*
G36*
X1256695Y563820D02*
X1246925D01*
Y554050D01*
X1247108D01*
X1249916Y554802D01*
X1252433Y556256D01*
X1254489Y558311D01*
X1255942Y560829D01*
X1256695Y563637D01*
Y563820D01*
D02*
G37*
G36*
X1244385D02*
X1234615D01*
Y563637D01*
X1235367Y560829D01*
X1236821Y558311D01*
X1238876Y556256D01*
X1241394Y554802D01*
X1244201Y554050D01*
X1244385D01*
Y563820D01*
D02*
G37*
G36*
X1231295Y576130D02*
X1209215D01*
Y554050D01*
X1231295D01*
Y576130D01*
D02*
G37*
G36*
X1197777Y563820D02*
X1188007D01*
Y554050D01*
X1188191D01*
X1190999Y554802D01*
X1193516Y556256D01*
X1195572Y558311D01*
X1197025Y560829D01*
X1197777Y563637D01*
Y563820D01*
D02*
G37*
G36*
X1185467D02*
X1175697D01*
Y563637D01*
X1176450Y560829D01*
X1177903Y558311D01*
X1179959Y556256D01*
X1182476Y554802D01*
X1185284Y554050D01*
X1185467D01*
Y563820D01*
D02*
G37*
G36*
X1172377Y576130D02*
X1150297D01*
Y554050D01*
X1172377D01*
Y576130D01*
D02*
G37*
G36*
X1138860Y563820D02*
X1129090D01*
Y554050D01*
X1129273D01*
X1132081Y554802D01*
X1134599Y556256D01*
X1136654Y558311D01*
X1138108Y560829D01*
X1138860Y563637D01*
Y563820D01*
D02*
G37*
G36*
X1126550D02*
X1116780D01*
Y563637D01*
X1117532Y560829D01*
X1118986Y558311D01*
X1121041Y556256D01*
X1123559Y554802D01*
X1126367Y554050D01*
X1126550D01*
Y563820D01*
D02*
G37*
G36*
X1113460Y576130D02*
X1091380D01*
Y554050D01*
X1113460D01*
Y576130D01*
D02*
G37*
G36*
X1002695Y563820D02*
X992925D01*
Y554050D01*
X993108D01*
X995916Y554802D01*
X998434Y556256D01*
X1000489Y558311D01*
X1001942Y560829D01*
X1002695Y563637D01*
Y563820D01*
D02*
G37*
G36*
X990385D02*
X980615D01*
Y563637D01*
X981367Y560829D01*
X982821Y558311D01*
X984876Y556256D01*
X987393Y554802D01*
X990201Y554050D01*
X990385D01*
Y563820D01*
D02*
G37*
G36*
X977295Y576130D02*
X955215D01*
Y554050D01*
X977295D01*
Y576130D01*
D02*
G37*
G36*
X943777Y563820D02*
X934007D01*
Y554050D01*
X934191D01*
X936999Y554802D01*
X939516Y556256D01*
X941572Y558311D01*
X943025Y560829D01*
X943777Y563637D01*
Y563820D01*
D02*
G37*
G36*
X931467D02*
X921697D01*
Y563637D01*
X922450Y560829D01*
X923903Y558311D01*
X925959Y556256D01*
X928476Y554802D01*
X931284Y554050D01*
X931467D01*
Y563820D01*
D02*
G37*
G36*
X918377Y576130D02*
X896297D01*
Y554050D01*
X918377D01*
Y576130D01*
D02*
G37*
G36*
X884860Y563820D02*
X875090D01*
Y554050D01*
X875273D01*
X878081Y554802D01*
X880599Y556256D01*
X882654Y558311D01*
X884108Y560829D01*
X884860Y563637D01*
Y563820D01*
D02*
G37*
G36*
X872550D02*
X862780D01*
Y563637D01*
X863532Y560829D01*
X864986Y558311D01*
X867041Y556256D01*
X869559Y554802D01*
X872367Y554050D01*
X872550D01*
Y563820D01*
D02*
G37*
G36*
X859460Y576130D02*
X837380D01*
Y554050D01*
X859460D01*
Y576130D01*
D02*
G37*
G36*
X748695Y563820D02*
X738925D01*
Y554050D01*
X739108D01*
X741916Y554802D01*
X744434Y556256D01*
X746489Y558311D01*
X747942Y560829D01*
X748695Y563637D01*
Y563820D01*
D02*
G37*
G36*
X736385D02*
X726615D01*
Y563637D01*
X727367Y560829D01*
X728821Y558311D01*
X730876Y556256D01*
X733393Y554802D01*
X736201Y554050D01*
X736385D01*
Y563820D01*
D02*
G37*
G36*
X723295Y576130D02*
X701215D01*
Y554050D01*
X723295D01*
Y576130D01*
D02*
G37*
G36*
X689777Y563820D02*
X680007D01*
Y554050D01*
X680191D01*
X682999Y554802D01*
X685516Y556256D01*
X687572Y558311D01*
X689025Y560829D01*
X689777Y563637D01*
Y563820D01*
D02*
G37*
G36*
X677467D02*
X667697D01*
Y563637D01*
X668450Y560829D01*
X669903Y558311D01*
X671959Y556256D01*
X674476Y554802D01*
X677284Y554050D01*
X677467D01*
Y563820D01*
D02*
G37*
G36*
X664377Y576130D02*
X642297D01*
Y554050D01*
X664377D01*
Y576130D01*
D02*
G37*
G36*
X630860Y563820D02*
X621090D01*
Y554050D01*
X621273D01*
X624081Y554802D01*
X626599Y556256D01*
X628654Y558311D01*
X630108Y560829D01*
X630860Y563637D01*
Y563820D01*
D02*
G37*
G36*
X618550D02*
X608780D01*
Y563637D01*
X609532Y560829D01*
X610986Y558311D01*
X613041Y556256D01*
X615559Y554802D01*
X618367Y554050D01*
X618550D01*
Y563820D01*
D02*
G37*
G36*
X605460Y576130D02*
X583380D01*
Y554050D01*
X605460D01*
Y576130D01*
D02*
G37*
G36*
X494695Y563820D02*
X484925D01*
Y554050D01*
X485108D01*
X487916Y554802D01*
X490434Y556256D01*
X492489Y558311D01*
X493942Y560829D01*
X494695Y563637D01*
Y563820D01*
D02*
G37*
G36*
X482385D02*
X472615D01*
Y563637D01*
X473367Y560829D01*
X474821Y558311D01*
X476876Y556256D01*
X479394Y554802D01*
X482201Y554050D01*
X482385D01*
Y563820D01*
D02*
G37*
G36*
X469295Y576130D02*
X447215D01*
Y554050D01*
X469295D01*
Y576130D01*
D02*
G37*
G36*
X435777Y563820D02*
X426007D01*
Y554050D01*
X426191D01*
X428999Y554802D01*
X431516Y556256D01*
X433572Y558311D01*
X435025Y560829D01*
X435777Y563637D01*
Y563820D01*
D02*
G37*
G36*
X423467D02*
X413697D01*
Y563637D01*
X414450Y560829D01*
X415903Y558311D01*
X417959Y556256D01*
X420476Y554802D01*
X423284Y554050D01*
X423467D01*
Y563820D01*
D02*
G37*
G36*
X410377Y576130D02*
X388297D01*
Y554050D01*
X410377D01*
Y576130D01*
D02*
G37*
G36*
X376860Y563820D02*
X367090D01*
Y554050D01*
X367273D01*
X370081Y554802D01*
X372599Y556256D01*
X374654Y558311D01*
X376108Y560829D01*
X376860Y563637D01*
Y563820D01*
D02*
G37*
G36*
X364550D02*
X354780D01*
Y563637D01*
X355532Y560829D01*
X356986Y558311D01*
X359041Y556256D01*
X361559Y554802D01*
X364367Y554050D01*
X364550D01*
Y563820D01*
D02*
G37*
G36*
X351460Y576130D02*
X329380D01*
Y554050D01*
X351460D01*
Y576130D01*
D02*
G37*
G36*
X1623747Y583530D02*
X1620793D01*
X1620542Y583480D01*
X1620287D01*
X1617389Y582904D01*
X1617154Y582806D01*
X1616904Y582756D01*
X1614174Y581625D01*
X1613962Y581484D01*
X1613726Y581386D01*
X1611269Y579744D01*
X1611089Y579564D01*
X1610877Y579422D01*
X1608788Y577333D01*
X1608646Y577121D01*
X1608465Y576941D01*
X1606824Y574484D01*
X1606726Y574248D01*
X1606584Y574036D01*
X1605454Y571306D01*
X1605404Y571056D01*
X1605306Y570821D01*
X1604730Y567923D01*
Y567668D01*
X1604680Y567417D01*
Y564463D01*
X1604730Y564212D01*
Y563957D01*
X1605306Y561059D01*
X1605404Y560824D01*
X1605454Y560574D01*
X1606584Y557844D01*
X1606726Y557632D01*
X1606824Y557396D01*
X1608465Y554939D01*
X1608646Y554759D01*
X1608788Y554547D01*
X1610877Y552458D01*
X1611089Y552316D01*
X1611269Y552135D01*
X1613726Y550494D01*
X1613962Y550396D01*
X1614174Y550255D01*
X1616904Y549124D01*
X1617154Y549074D01*
X1617389Y548976D01*
X1620287Y548400D01*
X1620542D01*
X1620793Y548350D01*
X1623747D01*
X1623997Y548400D01*
X1624253D01*
X1627151Y548976D01*
X1627386Y549074D01*
X1627636Y549124D01*
X1630366Y550255D01*
X1630578Y550396D01*
X1630814Y550494D01*
X1633271Y552135D01*
X1633451Y552316D01*
X1633663Y552458D01*
X1635753Y554547D01*
X1635894Y554759D01*
X1636075Y554939D01*
X1637716Y557396D01*
X1637814Y557632D01*
X1637955Y557844D01*
X1639086Y560574D01*
X1639136Y560824D01*
X1639234Y561059D01*
X1639810Y563957D01*
Y564212D01*
X1639860Y564463D01*
Y567417D01*
X1639810Y567668D01*
Y567923D01*
X1639234Y570821D01*
X1639136Y571056D01*
X1639086Y571306D01*
X1637955Y574036D01*
X1637814Y574248D01*
X1637716Y574484D01*
X1636075Y576941D01*
X1635894Y577121D01*
X1635753Y577333D01*
X1633663Y579422D01*
X1633451Y579564D01*
X1633271Y579744D01*
X1630814Y581386D01*
X1630578Y581484D01*
X1630366Y581625D01*
X1627636Y582756D01*
X1627386Y582806D01*
X1627151Y582904D01*
X1624253Y583480D01*
X1623997D01*
X1623747Y583530D01*
D02*
G37*
G36*
X238487D02*
X235533D01*
X235282Y583480D01*
X235027D01*
X232129Y582904D01*
X231894Y582806D01*
X231644Y582756D01*
X228914Y581625D01*
X228702Y581484D01*
X228466Y581386D01*
X226009Y579744D01*
X225829Y579564D01*
X225617Y579422D01*
X223528Y577333D01*
X223386Y577121D01*
X223205Y576941D01*
X221564Y574484D01*
X221466Y574248D01*
X221325Y574036D01*
X220194Y571306D01*
X220144Y571056D01*
X220046Y570821D01*
X219470Y567923D01*
Y567668D01*
X219420Y567417D01*
Y564463D01*
X219470Y564212D01*
Y563957D01*
X220046Y561059D01*
X220144Y560824D01*
X220194Y560574D01*
X221325Y557844D01*
X221466Y557632D01*
X221564Y557396D01*
X223205Y554939D01*
X223386Y554759D01*
X223528Y554547D01*
X225617Y552458D01*
X225829Y552316D01*
X226009Y552135D01*
X228466Y550494D01*
X228702Y550396D01*
X228914Y550255D01*
X231644Y549124D01*
X231894Y549074D01*
X232129Y548976D01*
X235027Y548400D01*
X235282D01*
X235533Y548350D01*
X238487D01*
X238738Y548400D01*
X238993D01*
X241891Y548976D01*
X242126Y549074D01*
X242376Y549124D01*
X245106Y550255D01*
X245318Y550396D01*
X245554Y550494D01*
X248011Y552135D01*
X248191Y552316D01*
X248403Y552458D01*
X250492Y554547D01*
X250634Y554759D01*
X250814Y554939D01*
X252456Y557396D01*
X252554Y557632D01*
X252695Y557844D01*
X253826Y560574D01*
X253876Y560824D01*
X253974Y561059D01*
X254550Y563957D01*
Y564212D01*
X254600Y564463D01*
Y567417D01*
X254550Y567668D01*
Y567923D01*
X253974Y570821D01*
X253876Y571056D01*
X253826Y571306D01*
X252695Y574036D01*
X252554Y574248D01*
X252456Y574484D01*
X250814Y576941D01*
X250634Y577121D01*
X250492Y577333D01*
X248403Y579422D01*
X248191Y579564D01*
X248011Y579744D01*
X245554Y581386D01*
X245318Y581484D01*
X245106Y581625D01*
X242376Y582756D01*
X242126Y582806D01*
X241891Y582904D01*
X238993Y583480D01*
X238738D01*
X238487Y583530D01*
D02*
G37*
%LPD*%
D10*
X1549400Y580136D02*
X1608552Y639288D01*
X1319244Y580136D02*
X1549400D01*
X1608552Y639288D02*
Y649224D01*
X1321348Y585216D02*
X1544574D01*
X1598628Y639270D02*
Y676656D01*
X1544574Y585216D02*
X1598628Y639270D01*
X1588552Y639354D02*
Y649224D01*
X1539494Y590296D02*
X1588552Y639354D01*
X1323452Y590296D02*
X1539494D01*
X1327153Y600964D02*
X1528318D01*
X1568412Y641058D02*
Y649084D01*
X1528318Y600964D02*
X1568412Y641058D01*
X1558628Y643212D02*
Y676656D01*
X1521460Y606044D02*
X1558628Y643212D01*
X1329257Y606044D02*
X1521460D01*
X1507699Y648371D02*
X1508552Y649224D01*
X1507699Y646131D02*
Y648371D01*
X1339524Y631698D02*
X1493266D01*
X1507699Y646131D01*
X1533906Y595884D02*
X1578628Y640606D01*
Y676656D01*
X1325049Y595884D02*
X1533906D01*
X1246124Y607822D02*
X1291558D01*
X1233170Y594868D02*
X1246124Y607822D01*
X1291558D02*
X1319244Y580136D01*
X1192784Y612902D02*
X1293662D01*
X1174750Y594868D02*
X1192784Y612902D01*
X1138428Y618236D02*
X1295512D01*
X1115060Y594868D02*
X1138428Y618236D01*
X1007618Y623316D02*
X1297616D01*
X979170Y594868D02*
X1007618Y623316D01*
X920750Y594868D02*
X954278Y628396D01*
X1299721D01*
X861060Y594868D02*
X899668Y633476D01*
X1301825D01*
X768858Y638556D02*
X1303929D01*
X725170Y594868D02*
X768858Y638556D01*
X715518Y643636D02*
X1306033D01*
X666750Y594868D02*
X715518Y643636D01*
X660908Y648716D02*
X1308137D01*
X607060Y594868D02*
X660908Y648716D01*
X353060Y594868D02*
X422148Y663956D01*
X1314450D01*
X476758Y658876D02*
X1312346D01*
X412750Y594868D02*
X476758Y658876D01*
X1293662Y612902D02*
X1321348Y585216D01*
X1295512Y618236D02*
X1323452Y590296D01*
X1297616Y623316D02*
X1325049Y595884D01*
X1509522Y616458D02*
X1538628Y645564D01*
X1333211Y616458D02*
X1509522D01*
X1538628Y645564D02*
Y676656D01*
X1568412Y649084D02*
X1568552Y649224D01*
X1515364Y611378D02*
X1548252Y644266D01*
X1331107Y611378D02*
X1515364D01*
X1548252Y648924D02*
X1548552Y649224D01*
X1548252Y644266D02*
Y648924D01*
X1299721Y628396D02*
X1327153Y600964D01*
X1301825Y633476D02*
X1329257Y606044D01*
X1303929Y638556D02*
X1331107Y611378D01*
X1527699Y648371D02*
X1528552Y649224D01*
X1335315Y621538D02*
X1503934D01*
X1527699Y645303D02*
Y648371D01*
X1503934Y621538D02*
X1527699Y645303D01*
X1498600Y626618D02*
X1518628Y646646D01*
X1337420Y626618D02*
X1498600D01*
X1518628Y646646D02*
Y676656D01*
X1489710Y636778D02*
X1498628Y645696D01*
X1314450Y663956D02*
X1341628Y636778D01*
X1489710D01*
X1312346Y658876D02*
X1339524Y631698D01*
X1306033Y643636D02*
X1333211Y616458D01*
X1310242Y653796D02*
X1337420Y626618D01*
X1308137Y648716D02*
X1335315Y621538D01*
X528891Y653796D02*
X1310242D01*
X471170Y596075D02*
X528891Y653796D01*
X471170Y594868D02*
Y596075D01*
X1498628Y645696D02*
Y676656D01*
X1395804Y769818D02*
X1488552Y677070D01*
Y649224D02*
Y677070D01*
X1265309Y769818D02*
X1395804D01*
X1261872Y772048D02*
X1263079D01*
X1265309Y769818D01*
X1390546Y764738D02*
X1478628Y676656D01*
X1206889Y764738D02*
X1390546D01*
X1203452Y766968D02*
X1204659D01*
X1206889Y764738D01*
X1146945Y759658D02*
X1385964D01*
X1468552Y677070D01*
X1143508Y761888D02*
X1144715D01*
X1146945Y759658D01*
X1380706Y754578D02*
X1457612Y677672D01*
X1011055Y754578D02*
X1380706D01*
X1468552Y649224D02*
Y677070D01*
X1007618Y756808D02*
X1008825D01*
X1011055Y754578D01*
X1354384Y713938D02*
X1378628Y689694D01*
X358514Y713938D02*
X1354384D01*
X1357432Y719018D02*
X1388552Y687898D01*
X443873Y719018D02*
X1357432D01*
X1457612Y677672D02*
X1458468D01*
X1398628Y676656D02*
Y685442D01*
X1359972Y724098D02*
X1398628Y685442D01*
X503309Y724098D02*
X1359972D01*
X639707Y729178D02*
X1363782D01*
X1408552Y684408D01*
Y649224D02*
Y684408D01*
X698635Y734258D02*
X1366250D01*
X1417775Y682733D01*
Y677509D02*
Y682733D01*
X1428552Y649224D02*
Y679140D01*
X1368354Y739338D02*
X1428552Y679140D01*
X757309Y739338D02*
X1368354D01*
X893199Y744418D02*
X1372073D01*
X1438628Y677863D01*
Y676656D02*
Y677863D01*
X1376482Y749498D02*
X1448552Y677428D01*
Y649224D02*
Y677428D01*
X952889Y749498D02*
X1376482D01*
X1378628Y676656D02*
Y689694D01*
X890969Y746648D02*
X893199Y744418D01*
X950659Y751728D02*
X952889Y749498D01*
X949452Y751728D02*
X950659D01*
X889762Y746648D02*
X890969D01*
X753872Y741568D02*
X755079D01*
X757309Y739338D01*
X695198Y736488D02*
X696405D01*
X698635Y734258D01*
X637477Y731408D02*
X639707Y729178D01*
X636270Y731408D02*
X637477D01*
X501079Y726328D02*
X503309Y724098D01*
X499872Y726328D02*
X501079D01*
X441588Y720090D02*
X441893Y720395D01*
X442496D01*
X443873Y719018D01*
X441643Y721248D02*
X442496Y720395D01*
X440436Y721248D02*
X441643D01*
X351790Y706628D02*
Y707214D01*
X358514Y713938D01*
X1233170Y706628D02*
X1261872D01*
X1174750D02*
X1203452D01*
X1115060D02*
X1143762D01*
X979170D02*
X1007872D01*
X920750D02*
X949452D01*
X725170D02*
X753872D01*
X666750D02*
X695452D01*
X607060D02*
X635762D01*
X471170D02*
X499872D01*
X411480D02*
X440182D01*
X861060D02*
X889762D01*
X1417775Y677509D02*
X1418628Y676656D01*
X1388552Y649224D02*
Y687898D01*
D14*
X1564640Y565150D02*
D03*
X1245655Y692090D02*
D03*
X1186737D02*
D03*
X678737D02*
D03*
X1127820Y565090D02*
D03*
X1186737D02*
D03*
X1245655D02*
D03*
X873820D02*
D03*
X932737D02*
D03*
X991655D02*
D03*
X619820D02*
D03*
X678737D02*
D03*
X737655D02*
D03*
X365820D02*
D03*
X424737D02*
D03*
X483655D02*
D03*
X1127820Y692090D02*
D03*
X873820D02*
D03*
X932737D02*
D03*
X991655D02*
D03*
X619820D02*
D03*
X737655D02*
D03*
X483655D02*
D03*
X424737D02*
D03*
X365820D02*
D03*
D15*
X1539240Y565150D02*
D03*
X1220255Y692090D02*
D03*
X1161337D02*
D03*
X653337D02*
D03*
X1102420Y565090D02*
D03*
X1161337D02*
D03*
X1220255D02*
D03*
X848420D02*
D03*
X907337D02*
D03*
X966255D02*
D03*
X594420D02*
D03*
X653337D02*
D03*
X712255D02*
D03*
X340420D02*
D03*
X399337D02*
D03*
X458255D02*
D03*
X1102420Y692090D02*
D03*
X848420D02*
D03*
X907337D02*
D03*
X966255D02*
D03*
X594420D02*
D03*
X712255D02*
D03*
X458255D02*
D03*
X399337D02*
D03*
X340420D02*
D03*
D16*
X1261872Y772048D02*
D03*
X1203452Y766968D02*
D03*
X1143508Y761888D02*
D03*
X1007618Y756808D02*
D03*
X949452Y751728D02*
D03*
X889762Y746648D02*
D03*
X753872Y741568D02*
D03*
X695198Y736488D02*
D03*
X636270Y731408D02*
D03*
X499872Y726328D02*
D03*
X440436Y721248D02*
D03*
X1233170Y594868D02*
D03*
X1174750D02*
D03*
X1115060D02*
D03*
X979170D02*
D03*
X920750D02*
D03*
X861060D02*
D03*
X725170D02*
D03*
X666750D02*
D03*
X607060D02*
D03*
X471170D02*
D03*
X412750D02*
D03*
X353060D02*
D03*
X1261872Y706628D02*
D03*
X1233170D02*
D03*
X1203452D02*
D03*
X1174750D02*
D03*
X1143762D02*
D03*
X1115060D02*
D03*
X1007872D02*
D03*
X979170D02*
D03*
X949452D02*
D03*
X920750D02*
D03*
X753872D02*
D03*
X725170D02*
D03*
X695452D02*
D03*
X666750D02*
D03*
X635762D02*
D03*
X607060D02*
D03*
X499872D02*
D03*
X471170D02*
D03*
X440182D02*
D03*
X411480D02*
D03*
X351790D02*
D03*
X889762D02*
D03*
X861060D02*
D03*
X319264Y608330D02*
D03*
X319264Y624840D02*
D03*
X1378628Y676656D02*
D03*
X1398628D02*
D03*
X1418628D02*
D03*
X1438628D02*
D03*
X1458628D02*
D03*
X1478628D02*
D03*
X1498628D02*
D03*
X1518628D02*
D03*
X1538628D02*
D03*
X1558628D02*
D03*
X1578628D02*
D03*
X1598628D02*
D03*
X1608552Y649224D02*
D03*
X1588552D02*
D03*
X1568552D02*
D03*
X1548552D02*
D03*
X1528552D02*
D03*
X1508552D02*
D03*
X1488552D02*
D03*
X1468552D02*
D03*
X1448552D02*
D03*
X1428552D02*
D03*
X1408552D02*
D03*
X1388552D02*
D03*
X1348486Y655320D02*
D03*
X1338326Y655574D02*
D03*
Y671068D02*
D03*
X1348486Y670814D02*
D03*
M02*
