G04*
G04 #@! TF.GenerationSoftware,Altium Limited,Altium Designer,24.0.1 (36)*
G04*
G04 Layer_Color=32896*
%FSLAX44Y44*%
%MOMM*%
G71*
G04*
G04 #@! TF.SameCoordinates,6AB65015-FC58-47BD-B1F7-23B370D85B0D*
G04*
G04*
G04 #@! TF.FilePolarity,Positive*
G04*
G01*
G75*
%ADD10C,0.2540*%
%ADD34C,0.5000*%
%ADD35C,0.2500*%
%ADD36C,0.1524*%
%ADD37C,0.2000*%
D10*
X1287230Y663290D02*
Y673450D01*
Y663290D02*
X1312630D01*
X1287230Y703930D02*
Y720440D01*
X1629930D01*
X1639930Y703930D02*
Y720440D01*
Y663290D02*
Y673450D01*
X1614530Y663290D02*
X1639930D01*
X297942Y732023D02*
Y716788D01*
X290324D01*
X287785Y719327D01*
Y721866D01*
X290324Y724406D01*
X297942D01*
X290324D01*
X287785Y726945D01*
Y729484D01*
X290324Y732023D01*
X297942D01*
X282707Y726945D02*
Y719327D01*
X280168Y716788D01*
X272550D01*
Y726945D01*
X264933Y729484D02*
Y726945D01*
X267472D01*
X262393D01*
X264933D01*
Y719327D01*
X262393Y716788D01*
X252237Y729484D02*
Y726945D01*
X254776D01*
X249698D01*
X252237D01*
Y719327D01*
X249698Y716788D01*
X239541D02*
X234463D01*
X231923Y719327D01*
Y724406D01*
X234463Y726945D01*
X239541D01*
X242080Y724406D01*
Y719327D01*
X239541Y716788D01*
X226845D02*
Y726945D01*
X219228D01*
X216688Y724406D01*
Y716788D01*
D34*
X1310700Y656590D02*
G03*
X1310700Y656590I-1000J0D01*
G01*
D35*
X1483850Y580390D02*
G03*
X1483850Y580390I-1250J0D01*
G01*
X683240Y626870D02*
G03*
X683240Y626870I-1250J0D01*
G01*
X877550D02*
G03*
X877550Y626870I-1250J0D01*
G01*
X1249660D02*
G03*
X1249660Y626870I-1250J0D01*
G01*
X1191240D02*
G03*
X1191240Y626870I-1250J0D01*
G01*
X741660D02*
G03*
X741660Y626870I-1250J0D01*
G01*
X937240D02*
G03*
X937240Y626870I-1250J0D01*
G01*
X1131550D02*
G03*
X1131550Y626870I-1250J0D01*
G01*
X995660D02*
G03*
X995660Y626870I-1250J0D01*
G01*
X487660D02*
G03*
X487660Y626870I-1250J0D01*
G01*
X429240D02*
G03*
X429240Y626870I-1250J0D01*
G01*
X623550D02*
G03*
X623550Y626870I-1250J0D01*
G01*
X368280Y738630D02*
G03*
X368280Y738630I-1250J0D01*
G01*
X427970D02*
G03*
X427970Y738630I-1250J0D01*
G01*
X487660D02*
G03*
X487660Y738630I-1250J0D01*
G01*
X995660D02*
G03*
X995660Y738630I-1250J0D01*
G01*
X369550Y626870D02*
G03*
X369550Y626870I-1250J0D01*
G01*
X937240Y738630D02*
G03*
X937240Y738630I-1250J0D01*
G01*
X877550D02*
G03*
X877550Y738630I-1250J0D01*
G01*
X1249660D02*
G03*
X1249660Y738630I-1250J0D01*
G01*
X1191240D02*
G03*
X1191240Y738630I-1250J0D01*
G01*
X741660D02*
G03*
X741660Y738630I-1250J0D01*
G01*
X683240D02*
G03*
X683240Y738630I-1250J0D01*
G01*
X1131550D02*
G03*
X1131550Y738630I-1250J0D01*
G01*
X623550D02*
G03*
X623550Y738630I-1250J0D01*
G01*
D36*
X316992Y601472D02*
Y615188D01*
X290068D02*
X316992D01*
X290068Y601472D02*
Y615188D01*
Y601472D02*
X316992D01*
X290068Y617982D02*
Y631698D01*
X316992Y617982D02*
Y631698D01*
X290068D02*
X300228D01*
X306832Y617982D02*
X316992D01*
X290068D02*
X300228D01*
X306832Y631698D02*
X316992D01*
X301244Y624840D02*
X302514D01*
X304546D02*
X305816D01*
X304546Y622300D02*
Y627380D01*
X302514Y622300D02*
Y627380D01*
X1463548Y551688D02*
Y578612D01*
X1449832Y551688D02*
X1463548D01*
X1449832D02*
Y578612D01*
X1463548D01*
X1480058Y551688D02*
Y578612D01*
X1466342Y551688D02*
X1480058D01*
X1466342D02*
Y578612D01*
X1480058D01*
X488442Y630682D02*
Y644398D01*
X461518D02*
X488442D01*
X461518Y630682D02*
Y644398D01*
Y630682D02*
X488442D01*
X369062Y758952D02*
Y772668D01*
X342138D02*
X369062D01*
X342138Y758952D02*
Y772668D01*
Y758952D02*
X369062D01*
X487172D02*
Y772668D01*
X460248D02*
X487172D01*
X460248Y758952D02*
Y772668D01*
Y758952D02*
X487172D01*
Y743712D02*
Y757428D01*
X460248D02*
X487172D01*
X460248Y743712D02*
Y757428D01*
Y743712D02*
X487172D01*
X428752Y758952D02*
Y772668D01*
X401828D02*
X428752D01*
X401828Y758952D02*
Y772668D01*
Y758952D02*
X428752D01*
Y743712D02*
Y757428D01*
X401828D02*
X428752D01*
X401828Y743712D02*
Y757428D01*
Y743712D02*
X428752D01*
X369062D02*
Y757428D01*
X342138D02*
X369062D01*
X342138Y743712D02*
Y757428D01*
Y743712D02*
X369062D01*
X878332Y645922D02*
Y659638D01*
X851408D02*
X878332D01*
X851408Y645922D02*
Y659638D01*
Y645922D02*
X878332D01*
Y630682D02*
Y644398D01*
X851408D02*
X878332D01*
X851408Y630682D02*
Y644398D01*
Y630682D02*
X878332D01*
X938022D02*
Y644398D01*
X911098D02*
X938022D01*
X911098Y630682D02*
Y644398D01*
Y630682D02*
X938022D01*
X995172Y645922D02*
Y659638D01*
X968248D02*
X995172D01*
X968248Y645922D02*
Y659638D01*
Y645922D02*
X995172D01*
X430022D02*
Y659638D01*
X403098D02*
X430022D01*
X403098Y645922D02*
Y659638D01*
Y645922D02*
X430022D01*
X488442D02*
Y659638D01*
X461518D02*
X488442D01*
X461518Y645922D02*
Y659638D01*
Y645922D02*
X488442D01*
X938022D02*
Y659638D01*
X911098D02*
X938022D01*
X911098Y645922D02*
Y659638D01*
Y645922D02*
X938022D01*
X995172Y630682D02*
Y644398D01*
X968248D02*
X995172D01*
X968248Y630682D02*
Y644398D01*
Y630682D02*
X995172D01*
X430022D02*
Y644398D01*
X403098D02*
X430022D01*
X403098Y630682D02*
Y644398D01*
Y630682D02*
X430022D01*
X370332Y645922D02*
Y659638D01*
X343408D02*
X370332D01*
X343408Y645922D02*
Y659638D01*
Y645922D02*
X370332D01*
Y630682D02*
Y644398D01*
X343408D02*
X370332D01*
X343408Y630682D02*
Y644398D01*
Y630682D02*
X370332D01*
X996442Y743712D02*
Y757428D01*
X969518D02*
X996442D01*
X969518Y743712D02*
Y757428D01*
Y743712D02*
X996442D01*
Y758952D02*
Y772668D01*
X969518D02*
X996442D01*
X969518Y758952D02*
Y772668D01*
Y758952D02*
X996442D01*
X938022Y743712D02*
Y757428D01*
X911098D02*
X938022D01*
X911098Y743712D02*
Y757428D01*
Y743712D02*
X938022D01*
Y758952D02*
Y772668D01*
X911098D02*
X938022D01*
X911098Y758952D02*
Y772668D01*
Y758952D02*
X938022D01*
X878332D02*
Y772668D01*
X851408D02*
X878332D01*
X851408Y758952D02*
Y772668D01*
Y758952D02*
X878332D01*
Y743712D02*
Y757428D01*
X851408D02*
X878332D01*
X851408Y743712D02*
Y757428D01*
Y743712D02*
X878332D01*
X1132332Y645922D02*
Y659638D01*
X1105408D02*
X1132332D01*
X1105408Y645922D02*
Y659638D01*
Y645922D02*
X1132332D01*
Y630682D02*
Y644398D01*
X1105408D02*
X1132332D01*
X1105408Y630682D02*
Y644398D01*
Y630682D02*
X1132332D01*
X1192022D02*
Y644398D01*
X1165098D02*
X1192022D01*
X1165098Y630682D02*
Y644398D01*
Y630682D02*
X1192022D01*
X1250442D02*
Y644398D01*
X1223518D02*
X1250442D01*
X1223518Y630682D02*
Y644398D01*
Y630682D02*
X1250442D01*
X1192022Y645922D02*
Y659638D01*
X1165098D02*
X1192022D01*
X1165098Y645922D02*
Y659638D01*
Y645922D02*
X1192022D01*
X1250442Y758952D02*
Y772668D01*
X1223518D02*
X1250442D01*
X1223518Y758952D02*
Y772668D01*
Y758952D02*
X1250442D01*
Y743712D02*
Y757428D01*
X1223518D02*
X1250442D01*
X1223518Y743712D02*
Y757428D01*
Y743712D02*
X1250442D01*
X1192022D02*
Y757428D01*
X1165098D02*
X1192022D01*
X1165098Y743712D02*
Y757428D01*
Y743712D02*
X1192022D01*
X684022D02*
Y757428D01*
X657098D02*
X684022D01*
X657098Y743712D02*
Y757428D01*
Y743712D02*
X684022D01*
Y758952D02*
Y772668D01*
X657098D02*
X684022D01*
X657098Y758952D02*
Y772668D01*
Y758952D02*
X684022D01*
X1132332D02*
Y772668D01*
X1105408D02*
X1132332D01*
X1105408Y758952D02*
Y772668D01*
Y758952D02*
X1132332D01*
Y743712D02*
Y757428D01*
X1105408D02*
X1132332D01*
X1105408Y743712D02*
Y757428D01*
Y743712D02*
X1132332D01*
X1250442Y645922D02*
Y659638D01*
X1223518D02*
X1250442D01*
X1223518Y645922D02*
Y659638D01*
Y645922D02*
X1250442D01*
X1192022Y758952D02*
Y772668D01*
X1165098D02*
X1192022D01*
X1165098Y758952D02*
Y772668D01*
Y758952D02*
X1192022D01*
X742442Y645922D02*
Y659638D01*
X715518D02*
X742442D01*
X715518Y645922D02*
Y659638D01*
Y645922D02*
X742442D01*
Y743712D02*
Y757428D01*
X715518D02*
X742442D01*
X715518Y743712D02*
Y757428D01*
Y743712D02*
X742442D01*
Y758952D02*
Y772668D01*
X715518D02*
X742442D01*
X715518Y758952D02*
Y772668D01*
Y758952D02*
X742442D01*
X624332D02*
Y772668D01*
X597408D02*
X624332D01*
X597408Y758952D02*
Y772668D01*
Y758952D02*
X624332D01*
X742442Y630682D02*
Y644398D01*
X715518D02*
X742442D01*
X715518Y630682D02*
Y644398D01*
Y630682D02*
X742442D01*
X684022Y645922D02*
Y659638D01*
X657098D02*
X684022D01*
X657098Y645922D02*
Y659638D01*
Y645922D02*
X684022D01*
Y630682D02*
Y644398D01*
X657098D02*
X684022D01*
X657098Y630682D02*
Y644398D01*
Y630682D02*
X684022D01*
X624332Y645922D02*
Y659638D01*
X597408D02*
X624332D01*
X597408Y645922D02*
Y659638D01*
Y645922D02*
X624332D01*
Y630682D02*
Y644398D01*
X597408D02*
X624332D01*
X597408Y630682D02*
Y644398D01*
Y630682D02*
X624332D01*
Y743712D02*
Y757428D01*
X597408D02*
X624332D01*
X597408Y743712D02*
Y757428D01*
Y743712D02*
X624332D01*
D37*
X1483600Y558150D02*
Y568150D01*
Y558150D02*
X1491600D01*
X1513600D02*
Y568150D01*
X1505600Y558150D02*
X1513600D01*
X261740Y695090D02*
X287020D01*
X261740Y618090D02*
X287020D01*
X252740Y653090D02*
Y665170D01*
X240040Y672790D02*
X252740Y665170D01*
X205740Y672790D02*
X240040D01*
X205740Y640390D02*
X240040D01*
X252740Y648010D01*
Y653090D01*
X269240Y618090D02*
Y695090D01*
X243840Y706590D02*
X261740D01*
Y695090D02*
Y706590D01*
X243840Y606590D02*
X261740D01*
Y618090D01*
X287020D02*
Y695090D01*
X205740Y618090D02*
Y695090D01*
X659750Y595870D02*
Y603870D01*
Y595870D02*
X669750D01*
X659750Y617870D02*
Y625870D01*
X669750D01*
X854060Y595870D02*
Y603870D01*
Y595870D02*
X864060D01*
X854060Y617870D02*
Y625870D01*
X864060D01*
X1226170Y595870D02*
Y603870D01*
Y595870D02*
X1236170D01*
X1226170Y617870D02*
Y625870D01*
X1236170D01*
X1167750Y595870D02*
Y603870D01*
Y595870D02*
X1177750D01*
X1167750Y617870D02*
Y625870D01*
X1177750D01*
X718170Y595870D02*
Y603870D01*
Y595870D02*
X728170D01*
X718170Y617870D02*
Y625870D01*
X728170D01*
X913750Y595870D02*
Y603870D01*
Y595870D02*
X923750D01*
X913750Y617870D02*
Y625870D01*
X923750D01*
X1108060Y595870D02*
Y603870D01*
Y595870D02*
X1118060D01*
X1108060Y617870D02*
Y625870D01*
X1118060D01*
X972170Y595870D02*
Y603870D01*
Y595870D02*
X982170D01*
X972170Y617870D02*
Y625870D01*
X982170D01*
X464170Y595870D02*
Y603870D01*
Y595870D02*
X474170D01*
X464170Y617870D02*
Y625870D01*
X474170D01*
X405750Y595870D02*
Y603870D01*
Y595870D02*
X415750D01*
X405750Y617870D02*
Y625870D01*
X415750D01*
X600060Y595870D02*
Y603870D01*
Y595870D02*
X610060D01*
X600060Y617870D02*
Y625870D01*
X610060D01*
X344790Y707630D02*
Y715630D01*
Y707630D02*
X354790D01*
X344790Y729630D02*
Y737630D01*
X354790D01*
X404480Y707630D02*
Y715630D01*
Y707630D02*
X414480D01*
X404480Y729630D02*
Y737630D01*
X414480D01*
X464170Y707630D02*
Y715630D01*
Y707630D02*
X474170D01*
X464170Y729630D02*
Y737630D01*
X474170D01*
X972170Y707630D02*
Y715630D01*
Y707630D02*
X982170D01*
X972170Y729630D02*
Y737630D01*
X982170D01*
X346060Y595870D02*
Y603870D01*
Y595870D02*
X356060D01*
X346060Y617870D02*
Y625870D01*
X356060D01*
X913750Y707630D02*
Y715630D01*
Y707630D02*
X923750D01*
X913750Y729630D02*
Y737630D01*
X923750D01*
X854060Y707630D02*
Y715630D01*
Y707630D02*
X864060D01*
X854060Y729630D02*
Y737630D01*
X864060D01*
X1226170Y707630D02*
Y715630D01*
Y707630D02*
X1236170D01*
X1226170Y729630D02*
Y737630D01*
X1236170D01*
X1167750Y707630D02*
Y715630D01*
Y707630D02*
X1177750D01*
X1167750Y729630D02*
Y737630D01*
X1177750D01*
X718170Y707630D02*
Y715630D01*
Y707630D02*
X728170D01*
X718170Y729630D02*
Y737630D01*
X728170D01*
X659750Y707630D02*
Y715630D01*
Y707630D02*
X669750D01*
X659750Y729630D02*
Y737630D01*
X669750D01*
X1108060Y707630D02*
Y715630D01*
Y707630D02*
X1118060D01*
X1108060Y729630D02*
Y737630D01*
X1118060D01*
X600060Y707630D02*
Y715630D01*
Y707630D02*
X610060D01*
X600060Y729630D02*
Y737630D01*
X610060D01*
M02*
