M48
;Layer_Color=9474304
;FILE_FORMAT=4:4
METRIC,LZ
;TYPE=PLATED
T01F00S00C0.5000
T02F00S00C0.9000
%
T01
X01588552Y00649224
X01608552
X01598628Y00676656
X01578628
X01558628
X01538628
X01518628
X01498628
X01478628
X01458628
X01438628
X01418628
X01398628
X01378628
X01348486Y00670814
X01338326Y00671068
Y00655574
X01348486Y0065532
X01388552Y00649224
X01408552
X01428552
X01448552
X01468552
X01488552
X01508552
X01528552
X01548552
X01568552
X01261872Y00706628
X0123317
X01203452
Y00766968
X01261872Y00772048
X0123317Y00594868
X0117475
X0111506
Y00706628
X01143762
X0117475
X01143508Y00761888
X01007618Y00756808
X01007872Y00706628
X0097917
X00949452
X0092075
X00889762
X0086106
X00889762Y00746648
X00949452Y00751728
X0092075Y00594868
X0097917
X0086106
X0072517
X0066675
X0060706
Y00706628
X00635762
X0063627Y00731408
X0066675Y00706628
X00695452
X0072517
X00753872
Y00741568
X00695198Y00736488
X00499872Y00726328
Y00706628
X0047117
X00440182
X00440436Y00721248
X0041148Y00706628
X0041275Y00594868
X0047117
X0035306
X00319264Y0060833
X00319264Y0062484
X0035179Y00706628
T02
X01220255Y0056509
X01245655
Y0069209
X01220255
X0153924Y0056515
X0156464
X01186737Y0056509
X01161337
X0112782
X0110242
X00991655
X00966255
X00932737
X00907337
X0087382
X0084842
Y0069209
X0087382
X00907337
X00932737
X00966255
X00991655
X0110242
X0112782
X01161337
X01186737
X00737655
X00712255
X00678737
X00653337
X0061982
X0059442
X00483655
X00458255
X00424737
X00399337
Y0056509
X00424737
X00458255
X00483655
X0059442
X0061982
X00653337
X00678737
X00712255
X00737655
X0036582
X0034042
Y0069209
X0036582
M30
