ISO-10303-21;
HEADER;
FILE_DESCRIPTION (( 'STEP AP214' ),
    '1' );
FILE_NAME ('L型连接件_底部_右.STEP',
    '2025-09-28T11:35:22',
    ( '' ),
    ( '' ),
    'SwSTEP 2.0',
    'SolidWorks 2025',
    '' );
FILE_SCHEMA (( 'AUTOMOTIVE_DESIGN' ));
ENDSEC;

DATA;
#1 = EDGE_LOOP ( 'NONE', ( #1022, #754, #322, #647 ) ) ;
#2 = DIRECTION ( 'NONE',  ( -0.000000000000000000, 0.000000000000000000, 1.000000000000000000 ) ) ;
#3 = ORIENTED_EDGE ( 'NONE', *, *, #1076, .F. ) ;
#4 = CARTESIAN_POINT ( 'NONE',  ( 10.00000000000002487, 8.037299797026684149E-16, -10.39994919989799271 ) ) ;
#5 = VERTEX_POINT ( 'NONE', #661 ) ;
#6 = VERTEX_POINT ( 'NONE', #687 ) ;
#7 = DIRECTION ( 'NONE',  ( -3.474456949786320671E-16, 1.000000000000000000, 0.000000000000000000 ) ) ;
#8 = ADVANCED_FACE ( 'NONE', ( #214, #965, #127, #393, #590 ), #579, .F. ) ;
#9 = FACE_OUTER_BOUND ( 'NONE', #1161, .T. ) ;
#10 = DIRECTION ( 'NONE',  ( 0.000000000000000000, 0.000000000000000000, 1.000000000000000000 ) ) ;
#11 = CARTESIAN_POINT ( 'NONE',  ( 3.000000000000023981, -145.0000000000000284, 5.000000000000000000 ) ) ;
#12 = ORIENTED_EDGE ( 'NONE', *, *, #1146, .F. ) ;
#13 = DIRECTION ( 'NONE',  ( 0.000000000000000000, 0.000000000000000000, 1.000000000000000000 ) ) ;
#14 = FACE_OUTER_BOUND ( 'NONE', #82, .T. ) ;
#15 = CIRCLE ( 'NONE', #684, 1.599999999999997202 ) ;
#16 = DIRECTION ( 'NONE',  ( 1.000000000000000000, 0.000000000000000000, 0.000000000000000000 ) ) ;
#17 = ORIENTED_EDGE ( 'NONE', *, *, #1102, .F. ) ;
#18 = CARTESIAN_POINT ( 'NONE',  ( 16.40000000000004476, -150.0144195133372023, 5.000000000000000000 ) ) ;
#19 = DIRECTION ( 'NONE',  ( 1.000000000000000000, 0.000000000000000000, -0.000000000000000000 ) ) ;
#20 = ADVANCED_FACE ( 'NONE', ( #972 ), #119, .F. ) ;
#21 = FACE_OUTER_BOUND ( 'NONE', #527, .T. ) ;
#22 = LINE ( 'NONE', #310, #875 ) ;
#23 = EDGE_CURVE ( 'NONE', #664, #1214, #1150, .T. ) ;
#24 = ORIENTED_EDGE ( 'NONE', *, *, #1111, .T. ) ;
#25 = LINE ( 'NONE', #1062, #1088 ) ;
#26 = CARTESIAN_POINT ( 'NONE',  ( 20.00000000000004263, -140.0288390266744614, -10.39994919989799271 ) ) ;
#27 = CARTESIAN_POINT ( 'NONE',  ( 32.00000000000001421, -150.0144195133372023, 0.000000000000000000 ) ) ;
#28 = EDGE_CURVE ( 'NONE', #1219, #1207, #491, .T. ) ;
#29 = VERTEX_POINT ( 'NONE', #981 ) ;
#30 = CARTESIAN_POINT ( 'NONE',  ( 1.600000000000014966, -145.0000000000000284, 8.000000000000000000 ) ) ;
#31 = CIRCLE ( 'NONE', #117, 3.000000000000003109 ) ;
#32 = CARTESIAN_POINT ( 'NONE',  ( 1.561251128379126385E-14, -150.0000000000000000, 8.000000000000000000 ) ) ;
#33 = DIRECTION ( 'NONE',  ( 5.941427905220563066E-17, -1.000000000000000000, -8.284291026348728899E-18 ) ) ;
#34 = ADVANCED_FACE ( 'NONE', ( #21 ), #888, .F. ) ;
#35 = AXIS2_PLACEMENT_3D ( 'NONE', #1189, #54, #923 ) ;
#36 = EDGE_LOOP ( 'NONE', ( #716, #1224 ) ) ;
#37 = CYLINDRICAL_SURFACE ( 'NONE', #831, 1.599999999999993872 ) ;
#38 = VECTOR ( 'NONE', #656, 1000.000000000000000 ) ;
#39 = ADVANCED_FACE ( 'NONE', ( #122 ), #477, .T. ) ;
#40 = CARTESIAN_POINT ( 'NONE',  ( 2.081668171172168513E-14, -145.0000000000000284, 8.000000000000000000 ) ) ;
#41 = DIRECTION ( 'NONE',  ( -0.000000000000000000, -0.000000000000000000, 1.000000000000000000 ) ) ;
#42 = ORIENTED_EDGE ( 'NONE', *, *, #104, .T. ) ;
#43 = DIRECTION ( 'NONE',  ( 0.000000000000000000, -1.000000000000000000, -8.284291026348735062E-18 ) ) ;
#44 = EDGE_CURVE ( 'NONE', #298, #1207, #495, .T. ) ;
#45 = CARTESIAN_POINT ( 'NONE',  ( 19.60000000000003340, -150.0144195133372023, 5.000000000000000000 ) ) ;
#46 = VERTEX_POINT ( 'NONE', #26 ) ;
#47 = FILL_AREA_STYLE_COLOUR ( '', #213 ) ;
#48 = ORIENTED_EDGE ( 'NONE', *, *, #1170, .T. ) ;
#49 = DIRECTION ( 'NONE',  ( 1.000000000000000000, 0.000000000000000000, 0.000000000000000000 ) ) ;
#50 = EDGE_CURVE ( 'NONE', #784, #5, #381, .T. ) ;
#51 = DIRECTION ( 'NONE',  ( 1.000000000000000000, 0.000000000000000000, 0.000000000000000000 ) ) ;
#52 = AXIS2_PLACEMENT_3D ( 'NONE', #632, #920, #618 ) ;
#53 = EDGE_LOOP ( 'NONE', ( #1000, #231, #544, #806 ) ) ;
#54 = DIRECTION ( 'NONE',  ( -0.000000000000000000, -0.000000000000000000, -1.000000000000000000 ) ) ;
#55 = AXIS2_PLACEMENT_3D ( 'NONE', #337, #1014, #722 ) ;
#56 = AXIS2_PLACEMENT_3D ( 'NONE', #809, #530, #896 ) ;
#57 = EDGE_LOOP ( 'NONE', ( #555, #1217 ) ) ;
#58 = DIRECTION ( 'NONE',  ( 1.000000000000000000, 0.000000000000000000, 0.000000000000000000 ) ) ;
#59 = VERTEX_POINT ( 'NONE', #1059 ) ;
#60 = CARTESIAN_POINT ( 'NONE',  ( 19.60000000000003340, -150.0144195133372023, 0.000000000000000000 ) ) ;
#61 = EDGE_LOOP ( 'NONE', ( #1066, #86, #510, #738 ) ) ;
#62 = CARTESIAN_POINT ( 'NONE',  ( 20.00000000000004263, -140.0288390266744614, 0.000000000000000000 ) ) ;
#63 = EDGE_CURVE ( 'NONE', #1063, #637, #325, .T. ) ;
#64 = VERTEX_POINT ( 'NONE', #788 ) ;
#65 = LINE ( 'NONE', #422, #1190 ) ;
#66 = EDGE_CURVE ( 'NONE', #843, #430, #619, .T. ) ;
#67 = EDGE_LOOP ( 'NONE', ( #142, #741, #988, #206 ) ) ;
#68 = CARTESIAN_POINT ( 'NONE',  ( -9.999999999999984013, -150.0000000000000000, 0.000000000000000000 ) ) ;
#69 = CARTESIAN_POINT ( 'NONE',  ( 10.00000000000004086, -130.0288390266744614, -10.39994919989799449 ) ) ;
#70 = DIRECTION ( 'NONE',  ( 1.000000000000000000, 0.000000000000000000, 0.000000000000000000 ) ) ;
#71 = ORIENTED_EDGE ( 'NONE', *, *, #646, .F. ) ;
#72 = CYLINDRICAL_SURFACE ( 'NONE', #446, 3.000000000000003109 ) ;
#73 = AXIS2_PLACEMENT_3D ( 'NONE', #387, #1048, #364 ) ;
#74 = ORIENTED_EDGE ( 'NONE', *, *, #151, .F. ) ;
#75 = CARTESIAN_POINT ( 'NONE',  ( 18.00000000000003908, -150.0144195133372023, 5.000000000000000000 ) ) ;
#76 = AXIS2_PLACEMENT_3D ( 'NONE', #155, #1114, #323 ) ;
#77 = CARTESIAN_POINT ( 'NONE',  ( 20.00000000000004263, -130.0288390266744614, -52.84675324083757886 ) ) ;
#78 = AXIS2_PLACEMENT_3D ( 'NONE', #804, #321, #700 ) ;
#79 = DIRECTION ( 'NONE',  ( 1.000000000000000000, 0.000000000000000000, 0.000000000000000000 ) ) ;
#80 = ORIENTED_EDGE ( 'NONE', *, *, #1081, .T. ) ;
#81 = CARTESIAN_POINT ( 'NONE',  ( 29.00000000000001066, -150.0144195133372023, 5.000000000000000000 ) ) ;
#82 = EDGE_LOOP ( 'NONE', ( #1133, #94, #535, #1107 ) ) ;
#83 = EDGE_CURVE ( 'NONE', #1084, #366, #852, .T. ) ;
#84 = LINE ( 'NONE', #1036, #1052 ) ;
#85 = SHAPE_DEFINITION_REPRESENTATION ( #92, #1004 ) ;
#86 = ORIENTED_EDGE ( 'NONE', *, *, #516, .T. ) ;
#87 = CARTESIAN_POINT ( 'NONE',  ( 20.00000000000001776, -130.0288390266744329, 4.999999999999997335 ) ) ;
#88 = CARTESIAN_POINT ( 'NONE',  ( 2.081668171172168513E-14, -125.0000000000000000, 0.000000000000000000 ) ) ;
#89 = CARTESIAN_POINT ( 'NONE',  ( 40.00000000000000711, -120.0000000000000000, 8.000000000000000000 ) ) ;
#90 = EDGE_CURVE ( 'NONE', #366, #1084, #768, .T. ) ;
#91 = EDGE_LOOP ( 'NONE', ( #910, #464, #383, #162 ) ) ;
#92 = PRODUCT_DEFINITION_SHAPE ( 'NONE', 'NONE',  #612 ) ;
#93 = DIRECTION ( 'NONE',  ( 1.000000000000000000, 0.000000000000000000, 0.000000000000000000 ) ) ;
#94 = ORIENTED_EDGE ( 'NONE', *, *, #428, .F. ) ;
#95 = VECTOR ( 'NONE', #169, 1000.000000000000000 ) ;
#96 = VECTOR ( 'NONE', #672, 1000.000000000000000 ) ;
#97 = FACE_OUTER_BOUND ( 'NONE', #721, .T. ) ;
#98 =( GEOMETRIC_REPRESENTATION_CONTEXT ( 3 ) GLOBAL_UNCERTAINTY_ASSIGNED_CONTEXT ( ( #853 ) ) GLOBAL_UNIT_ASSIGNED_CONTEXT ( ( #1218, #943, #958 ) ) REPRESENTATION_CONTEXT ( 'NONE', 'WORKASPACE' ) );
#99 = VECTOR ( 'NONE', #335, 1000.000000000000000 ) ;
#100 = DIRECTION ( 'NONE',  ( 1.000000000000000000, 0.000000000000000000, 0.000000000000000000 ) ) ;
#101 = EDGE_CURVE ( 'NONE', #317, #885, #84, .T. ) ;
#102 = ORIENTED_EDGE ( 'NONE', *, *, #425, .F. ) ;
#103 = CARTESIAN_POINT ( 'NONE',  ( 30.00000000000001066, -130.0288390266744614, -10.39994919989799271 ) ) ;
#104 = EDGE_CURVE ( 'NONE', #637, #64, #633, .T. ) ;
#105 = ORIENTED_EDGE ( 'NONE', *, *, #319, .T. ) ;
#106 = LINE ( 'NONE', #1047, #769 ) ;
#107 = LINE ( 'NONE', #578, #249 ) ;
#108 = DIRECTION ( 'NONE',  ( 0.000000000000000000, 0.000000000000000000, 1.000000000000000000 ) ) ;
#109 = DIRECTION ( 'NONE',  ( 1.000000000000000000, 0.000000000000000000, 1.083861961953352097E-16 ) ) ;
#110 = ADVANCED_FACE ( 'NONE', ( #803 ), #595, .F. ) ;
#111 = VERTEX_POINT ( 'NONE', #694 ) ;
#112 = DIRECTION ( 'NONE',  ( 0.000000000000000000, 0.000000000000000000, 1.000000000000000000 ) ) ;
#113 = DIRECTION ( 'NONE',  ( 0.000000000000000000, -0.000000000000000000, -1.000000000000000000 ) ) ;
#114 = FACE_OUTER_BOUND ( 'NONE', #531, .T. ) ;
#115 = VERTEX_POINT ( 'NONE', #739 ) ;
#116 = AXIS2_PLACEMENT_3D ( 'NONE', #766, #482, #375 ) ;
#117 = AXIS2_PLACEMENT_3D ( 'NONE', #1220, #745, #188 ) ;
#118 = CIRCLE ( 'NONE', #686, 10.00000000000000178 ) ;
#119 = PLANE ( 'NONE',  #347 ) ;
#120 = FACE_BOUND ( 'NONE', #1033, .T. ) ;
#121 = EDGE_LOOP ( 'NONE', ( #260, #949 ) ) ;
#122 = FACE_OUTER_BOUND ( 'NONE', #274, .T. ) ;
#123 = CARTESIAN_POINT ( 'NONE',  ( 21.00000000000004619, -150.0144195133372023, 5.000000000000000000 ) ) ;
#124 = ORIENTED_EDGE ( 'NONE', *, *, #928, .T. ) ;
#125 = DIRECTION ( 'NONE',  ( 1.000000000000000000, 0.000000000000000000, 0.000000000000000000 ) ) ;
#126 = CARTESIAN_POINT ( 'NONE',  ( 2.081668171172168513E-14, -125.0000000000000000, 5.000000000000000000 ) ) ;
#127 = FACE_BOUND ( 'NONE', #676, .T. ) ;
#128 = EDGE_CURVE ( 'NONE', #29, #762, #1082, .T. ) ;
#129 = ORIENTED_EDGE ( 'NONE', *, *, #394, .T. ) ;
#130 = DIRECTION ( 'NONE',  ( -0.000000000000000000, -0.000000000000000000, 1.000000000000000000 ) ) ;
#131 = DIRECTION ( 'NONE',  ( 1.000000000000000000, 0.000000000000000000, 1.734723475976807341E-16 ) ) ;
#132 = FACE_OUTER_BOUND ( 'NONE', #270, .T. ) ;
#133 = AXIS2_PLACEMENT_3D ( 'NONE', #528, #617, #819 ) ;
#134 = EDGE_CURVE ( 'NONE', #166, #46, #639, .T. ) ;
#135 = ORIENTED_EDGE ( 'NONE', *, *, #50, .F. ) ;
#136 = CARTESIAN_POINT ( 'NONE',  ( -2.999999999999982236, -125.0000000000000000, 5.000000000000000000 ) ) ;
#137 = AXIS2_PLACEMENT_3D ( 'NONE', #302, #679, #485 ) ;
#138 = CARTESIAN_POINT ( 'NONE',  ( 1.600000000000022737, -125.0000000000000000, 8.000000000000000000 ) ) ;
#139 = DIRECTION ( 'NONE',  ( -0.000000000000000000, -0.000000000000000000, -1.000000000000000000 ) ) ;
#140 = ORIENTED_EDGE ( 'NONE', *, *, #839, .T. ) ;
#141 = DIRECTION ( 'NONE',  ( -1.155371657516204016E-16, 1.000000000000000000, -0.000000000000000000 ) ) ;
#142 = ORIENTED_EDGE ( 'NONE', *, *, #783, .T. ) ;
#143 = LINE ( 'NONE', #725, #1211 ) ;
#144 = EDGE_CURVE ( 'NONE', #1038, #173, #638, .T. ) ;
#145 = DIRECTION ( 'NONE',  ( -1.000000000000000000, 0.000000000000000000, 0.000000000000000000 ) ) ;
#146 = CARTESIAN_POINT ( 'NONE',  ( 17.00000000000001421, -130.0288390266744329, 5.000000000000000000 ) ) ;
#147 = VERTEX_POINT ( 'NONE', #419 ) ;
#148 = LINE ( 'NONE', #927, #288 ) ;
#149 = ORIENTED_EDGE ( 'NONE', *, *, #915, .F. ) ;
#150 = DIRECTION ( 'NONE',  ( -1.000000000000000000, 0.000000000000000000, 0.000000000000000000 ) ) ;
#151 = EDGE_CURVE ( 'NONE', #421, #1084, #699, .T. ) ;
#152 = DIRECTION ( 'NONE',  ( 1.000000000000000000, 0.000000000000000000, 0.000000000000000000 ) ) ;
#153 = AXIS2_PLACEMENT_3D ( 'NONE', #88, #1230, #1129 ) ;
#154 = ORIENTED_EDGE ( 'NONE', *, *, #780, .F. ) ;
#155 = CARTESIAN_POINT ( 'NONE',  ( 10.00000000000002487, 1.155371657516206925E-15, -52.84675324083757886 ) ) ;
#156 = AXIS2_PLACEMENT_3D ( 'NONE', #662, #356, #268 ) ;
#157 = ORIENTED_EDGE ( 'NONE', *, *, #629, .F. ) ;
#158 = CARTESIAN_POINT ( 'NONE',  ( 30.00000000000000711, -120.0000000000000000, 8.000000000000000000 ) ) ;
#159 = ADVANCED_FACE ( 'NONE', ( #235 ), #315, .F. ) ;
#160 = ORIENTED_EDGE ( 'NONE', *, *, #450, .T. ) ;
#161 = CARTESIAN_POINT ( 'NONE',  ( 32.00000000000001421, -150.0144195133372023, 5.000000000000000000 ) ) ;
#162 = ORIENTED_EDGE ( 'NONE', *, *, #134, .T. ) ;
#163 = FACE_OUTER_BOUND ( 'NONE', #1199, .T. ) ;
#164 = LINE ( 'NONE', #4, #38 ) ;
#165 = EDGE_CURVE ( 'NONE', #810, #378, #1183, .T. ) ;
#166 = VERTEX_POINT ( 'NONE', #69 ) ;
#167 = CARTESIAN_POINT ( 'NONE',  ( 21.60000000000001563, -130.0288390266744329, -10.39994919989799271 ) ) ;
#168 = VERTEX_POINT ( 'NONE', #264 ) ;
#169 = DIRECTION ( 'NONE',  ( -0.000000000000000000, -0.000000000000000000, -1.000000000000000000 ) ) ;
#170 = CARTESIAN_POINT ( 'NONE',  ( -9.999999999999987566, -110.0000000000000000, 0.000000000000000000 ) ) ;
#171 = ORIENTED_EDGE ( 'NONE', *, *, #44, .F. ) ;
#172 = EDGE_CURVE ( 'NONE', #217, #713, #1116, .T. ) ;
#173 = VERTEX_POINT ( 'NONE', #320 ) ;
#174 = AXIS2_PLACEMENT_3D ( 'NONE', #1134, #1126, #563 ) ;
#175 = EDGE_CURVE ( 'NONE', #820, #1003, #989, .T. ) ;
#176 =( GEOMETRIC_REPRESENTATION_CONTEXT ( 3 ) GLOBAL_UNCERTAINTY_ASSIGNED_CONTEXT ( ( #980 ) ) GLOBAL_UNIT_ASSIGNED_CONTEXT ( ( #862, #376, #354 ) ) REPRESENTATION_CONTEXT ( 'NONE', 'WORKASPACE' ) );
#177 = DIRECTION ( 'NONE',  ( -0.000000000000000000, -0.000000000000000000, -1.000000000000000000 ) ) ;
#178 = DIRECTION ( 'NONE',  ( 1.000000000000000000, 0.000000000000000000, 0.000000000000000000 ) ) ;
#179 = VERTEX_POINT ( 'NONE', #940 ) ;
#180 = DIRECTION ( 'NONE',  ( 1.000000000000000000, 0.000000000000000000, 0.000000000000000000 ) ) ;
#181 = EDGE_LOOP ( 'NONE', ( #1079, #372, #929, #585 ) ) ;
#182 = DIRECTION ( 'NONE',  ( 1.000000000000000000, 0.000000000000000000, -0.000000000000000000 ) ) ;
#183 = CYLINDRICAL_SURFACE ( 'NONE', #73, 3.000000000000002665 ) ;
#184 = CARTESIAN_POINT ( 'NONE',  ( 2.081668171172168513E-14, -145.0000000000000284, 0.000000000000000000 ) ) ;
#185 = ORIENTED_EDGE ( 'NONE', *, *, #1068, .F. ) ;
#186 = CARTESIAN_POINT ( 'NONE',  ( 30.00000000000001066, -140.0288390266744614, 0.000000000000000000 ) ) ;
#187 = ORIENTED_EDGE ( 'NONE', *, *, #365, .F. ) ;
#188 = DIRECTION ( 'NONE',  ( 1.000000000000000000, 0.000000000000000000, 0.000000000000000000 ) ) ;
#189 = CARTESIAN_POINT ( 'NONE',  ( 10.00000000000003908, -120.0000000000000000, 0.000000000000000000 ) ) ;
#190 = EDGE_CURVE ( 'NONE', #111, #240, #797, .T. ) ;
#191 = ORIENTED_EDGE ( 'NONE', *, *, #190, .F. ) ;
#192 = FACE_OUTER_BOUND ( 'NONE', #61, .T. ) ;
#193 = CARTESIAN_POINT ( 'NONE',  ( 1.600000000000014966, -145.0000000000000284, 5.000000000000000000 ) ) ;
#194 = AXIS2_PLACEMENT_3D ( 'NONE', #557, #202, #1221 ) ;
#195 = PLANE ( 'NONE',  #116 ) ;
#196 = CIRCLE ( 'NONE', #642, 10.00000000000000178 ) ;
#197 = CIRCLE ( 'NONE', #407, 3.000000000000002665 ) ;
#198 = EDGE_LOOP ( 'NONE', ( #1209, #149, #374, #610 ) ) ;
#199 = ADVANCED_FACE ( 'NONE', ( #1171 ), #933, .T. ) ;
#200 = DIRECTION ( 'NONE',  ( -0.000000000000000000, -0.000000000000000000, 1.000000000000000000 ) ) ;
#201 = ORIENTED_EDGE ( 'NONE', *, *, #1162, .F. ) ;
#202 = DIRECTION ( 'NONE',  ( 0.000000000000000000, 0.000000000000000000, 1.000000000000000000 ) ) ;
#203 = CARTESIAN_POINT ( 'NONE',  ( 18.00000000000003908, -150.0144195133372023, 5.000000000000000000 ) ) ;
#204 = FACE_OUTER_BOUND ( 'NONE', #1202, .T. ) ;
#205 = EDGE_CURVE ( 'NONE', #529, #147, #211, .T. ) ;
#206 = ORIENTED_EDGE ( 'NONE', *, *, #589, .T. ) ;
#207 = CARTESIAN_POINT ( 'NONE',  ( 0.000000000000000000, 0.000000000000000000, 0.000000000000000000 ) ) ;
#208 = DIRECTION ( 'NONE',  ( 0.000000000000000000, 0.000000000000000000, 1.000000000000000000 ) ) ;
#209 = ORIENTED_EDGE ( 'NONE', *, *, #839, .F. ) ;
#210 = DIRECTION ( 'NONE',  ( 1.000000000000000000, 0.000000000000000000, 0.000000000000000000 ) ) ;
#211 = CIRCLE ( 'NONE', #538, 1.599999999999994316 ) ;
#212 = EDGE_CURVE ( 'NONE', #258, #791, #107, .T. ) ;
#213 = COLOUR_RGB ( '',1.000000000000000000, 1.000000000000000000, 1.000000000000000000 ) ;
#214 = FACE_OUTER_BOUND ( 'NONE', #1026, .T. ) ;
#215 = ORIENTED_EDGE ( 'NONE', *, *, #570, .T. ) ;
#216 = CARTESIAN_POINT ( 'NONE',  ( 40.00000000000001421, -120.0000000000000000, -10.39994919989798738 ) ) ;
#217 = VERTEX_POINT ( 'NONE', #189 ) ;
#218 = PLANE ( 'NONE',  #834 ) ;
#219 = ORIENTED_EDGE ( 'NONE', *, *, #1068, .T. ) ;
#220 = DIRECTION ( 'NONE',  ( 1.000000000000000000, 0.000000000000000000, 0.000000000000000000 ) ) ;
#221 = ADVANCED_FACE ( 'NONE', ( #371 ), #380, .F. ) ;
#222 = CARTESIAN_POINT ( 'NONE',  ( -9.999999999999984013, -150.0000000000000000, 8.000000000000000000 ) ) ;
#223 = ORIENTED_EDGE ( 'NONE', *, *, #1011, .T. ) ;
#224 = CARTESIAN_POINT ( 'NONE',  ( 10.00000000000004086, -130.0288390266744614, -52.84675324083757886 ) ) ;
#225 = VECTOR ( 'NONE', #517, 1000.000000000000000 ) ;
#226 = AXIS2_PLACEMENT_3D ( 'NONE', #984, #304, #220 ) ;
#227 = EDGE_CURVE ( 'NONE', #281, #1054, #574, .T. ) ;
#228 = VECTOR ( 'NONE', #200, 1000.000000000000000 ) ;
#229 = CARTESIAN_POINT ( 'NONE',  ( -1.599999999999981215, -125.0000000000000000, 8.000000000000000000 ) ) ;
#230 = DIRECTION ( 'NONE',  ( 1.000000000000000000, 0.000000000000000000, 0.000000000000000000 ) ) ;
#231 = ORIENTED_EDGE ( 'NONE', *, *, #338, .T. ) ;
#232 = FACE_OUTER_BOUND ( 'NONE', #897, .T. ) ;
#233 = AXIS2_PLACEMENT_3D ( 'NONE', #184, #442, #70 ) ;
#234 = ORIENTED_EDGE ( 'NONE', *, *, #1011, .F. ) ;
#235 = FACE_OUTER_BOUND ( 'NONE', #616, .T. ) ;
#236 = FACE_OUTER_BOUND ( 'NONE', #1, .T. ) ;
#237 = ORIENTED_EDGE ( 'NONE', *, *, #932, .T. ) ;
#238 = CYLINDRICAL_SURFACE ( 'NONE', #1018, 10.00000000000000178 ) ;
#239 = ADVANCED_FACE ( 'NONE', ( #97, #755 ), #195, .T. ) ;
#240 = VERTEX_POINT ( 'NONE', #655 ) ;
#241 = CARTESIAN_POINT ( 'NONE',  ( 15.00000000000003375, -150.0144195133372023, 5.000000000000000000 ) ) ;
#242 = DIRECTION ( 'NONE',  ( 1.000000000000000000, 0.000000000000000000, 0.000000000000000000 ) ) ;
#243 = ORIENTED_EDGE ( 'NONE', *, *, #353, .T. ) ;
#244 = CARTESIAN_POINT ( 'NONE',  ( 2.081668171172168513E-14, -125.0000000000000000, 5.000000000000000000 ) ) ;
#245 = ORIENTED_EDGE ( 'NONE', *, *, #1102, .T. ) ;
#246 = ADVANCED_FACE ( 'NONE', ( #9 ), #845, .F. ) ;
#247 = DIRECTION ( 'NONE',  ( 1.000000000000000000, 0.000000000000000000, 0.000000000000000000 ) ) ;
#248 = DIRECTION ( 'NONE',  ( -0.000000000000000000, -0.000000000000000000, -1.000000000000000000 ) ) ;
#249 = VECTOR ( 'NONE', #476, 1000.000000000000000 ) ;
#250 = CIRCLE ( 'NONE', #194, 1.600000000000002087 ) ;
#251 = ORIENTED_EDGE ( 'NONE', *, *, #1124, .T. ) ;
#252 = VECTOR ( 'NONE', #109, 1000.000000000000000 ) ;
#253 = AXIS2_PLACEMENT_3D ( 'NONE', #615, #1012, #152 ) ;
#254 = EDGE_LOOP ( 'NONE', ( #243, #581, #1192, #432 ) ) ;
#255 = CARTESIAN_POINT ( 'NONE',  ( -9.999999999999982236, -160.0000000000000000, 8.000000000000000000 ) ) ;
#256 = EDGE_CURVE ( 'NONE', #820, #810, #250, .T. ) ;
#257 = DIRECTION ( 'NONE',  ( 1.000000000000000000, 0.000000000000000000, 0.000000000000000000 ) ) ;
#258 = VERTEX_POINT ( 'NONE', #964 ) ;
#259 = DIRECTION ( 'NONE',  ( 0.000000000000000000, 0.000000000000000000, 1.000000000000000000 ) ) ;
#260 = ORIENTED_EDGE ( 'NONE', *, *, #353, .F. ) ;
#261 = EDGE_LOOP ( 'NONE', ( #1127, #1188, #937, #191 ) ) ;
#262 = CARTESIAN_POINT ( 'NONE',  ( 32.00000000000001421, -150.0144195133372023, 0.000000000000000000 ) ) ;
#263 = ORIENTED_EDGE ( 'NONE', *, *, #290, .F. ) ;
#264 = CARTESIAN_POINT ( 'NONE',  ( 29.00000000000001066, -150.0144195133372023, 5.000000000000000000 ) ) ;
#265 = APPLICATION_PROTOCOL_DEFINITION ( 'draft international standard', 'automotive_design', 1998, #693 ) ;
#266 = ADVANCED_FACE ( 'NONE', ( #14 ), #183, .F. ) ;
#267 = ORIENTED_EDGE ( 'NONE', *, *, #928, .F. ) ;
#268 = DIRECTION ( 'NONE',  ( -1.000000000000000000, 0.000000000000000000, 0.000000000000000000 ) ) ;
#269 = AXIS2_PLACEMENT_3D ( 'NONE', #1193, #437, #58 ) ;
#270 = EDGE_LOOP ( 'NONE', ( #352, #448, #42, #301 ) ) ;
#271 = CIRCLE ( 'NONE', #327, 3.000000000000006217 ) ;
#272 = FACE_OUTER_BOUND ( 'NONE', #360, .T. ) ;
#273 = CARTESIAN_POINT ( 'NONE',  ( 20.00000000000004263, -130.0288390266744614, 0.000000000000000000 ) ) ;
#274 = EDGE_LOOP ( 'NONE', ( #497, #201, #799, #267 ) ) ;
#275 = ORIENTED_EDGE ( 'NONE', *, *, #558, .F. ) ;
#276 = EDGE_CURVE ( 'NONE', #6, #59, #456, .T. ) ;
#277 = CARTESIAN_POINT ( 'NONE',  ( 35.00000000000001421, -150.0144195133372023, 5.000000000000000000 ) ) ;
#278 = DIRECTION ( 'NONE',  ( 1.083861961953352097E-16, 8.284291026348735062E-18, -1.000000000000000000 ) ) ;
#279 = EDGE_LOOP ( 'NONE', ( #850, #237 ) ) ;
#280 = FACE_OUTER_BOUND ( 'NONE', #1073, .T. ) ;
#281 = VERTEX_POINT ( 'NONE', #851 ) ;
#282 = EDGE_CURVE ( 'NONE', #983, #1227, #523, .T. ) ;
#283 = CARTESIAN_POINT ( 'NONE',  ( -2.999999999999982236, -125.0000000000000000, 8.000000000000000000 ) ) ;
#284 = CARTESIAN_POINT ( 'NONE',  ( -2.999999999999982236, -125.0000000000000000, 5.000000000000000000 ) ) ;
#285 = EDGE_LOOP ( 'NONE', ( #1138, #1013, #234, #643 ) ) ;
#286 = AXIS2_PLACEMENT_3D ( 'NONE', #627, #1121, #49 ) ;
#287 = DIRECTION ( 'NONE',  ( 0.000000000000000000, 0.000000000000000000, 1.000000000000000000 ) ) ;
#288 = VECTOR ( 'NONE', #532, 1000.000000000000000 ) ;
#289 = AXIS2_PLACEMENT_3D ( 'NONE', #628, #248, #230 ) ;
#290 = EDGE_CURVE ( 'NONE', #1003, #378, #600, .T. ) ;
#291 = DIRECTION ( 'NONE',  ( -1.000000000000000000, -3.474456949786320671E-16, 0.000000000000000000 ) ) ;
#292 = DIRECTION ( 'NONE',  ( -0.000000000000000000, -0.000000000000000000, 1.000000000000000000 ) ) ;
#293 = ORIENTED_EDGE ( 'NONE', *, *, #345, .F. ) ;
#294 = CARTESIAN_POINT ( 'NONE',  ( 1.561251128379126385E-14, -150.0000000000000000, 8.000000000000000000 ) ) ;
#295 = CARTESIAN_POINT ( 'NONE',  ( 0.000000000000000000, -140.0288390266744614, -52.84675324083757886 ) ) ;
#296 = CARTESIAN_POINT ( 'NONE',  ( 20.00000000000001776, -130.0288390266744329, 5.000000000000000000 ) ) ;
#297 = ADVANCED_FACE ( 'NONE', ( #272 ), #952, .F. ) ;
#298 = VERTEX_POINT ( 'NONE', #216 ) ;
#299 = FACE_OUTER_BOUND ( 'NONE', #842, .T. ) ;
#300 = DIRECTION ( 'NONE',  ( 1.000000000000000000, 0.000000000000000000, 0.000000000000000000 ) ) ;
#301 = ORIENTED_EDGE ( 'NONE', *, *, #1049, .F. ) ;
#302 = CARTESIAN_POINT ( 'NONE',  ( -9.999999999999987566, -110.0000000000000000, 8.000000000000000000 ) ) ;
#303 = ORIENTED_EDGE ( 'NONE', *, *, #558, .T. ) ;
#304 = DIRECTION ( 'NONE',  ( 0.000000000000000000, 0.000000000000000000, 1.000000000000000000 ) ) ;
#305 = AXIS2_PLACEMENT_3D ( 'NONE', #873, #389, #674 ) ;
#306 = CIRCLE ( 'NONE', #269, 3.000000000000002665 ) ;
#307 = AXIS2_PLACEMENT_3D ( 'NONE', #520, #259, #731 ) ;
#308 = AXIS2_PLACEMENT_3D ( 'NONE', #433, #1201, #427 ) ;
#309 = ORIENTED_EDGE ( 'NONE', *, *, #1170, .F. ) ;
#310 = CARTESIAN_POINT ( 'NONE',  ( 1.561251128379126385E-14, -160.0000000000000000, 8.000000000000000000 ) ) ;
#311 = ORIENTED_EDGE ( 'NONE', *, *, #1186, .F. ) ;
#312 = DIRECTION ( 'NONE',  ( 0.000000000000000000, 0.000000000000000000, 1.000000000000000000 ) ) ;
#313 = ADVANCED_FACE ( 'NONE', ( #796 ), #887, .F. ) ;
#314 = DIRECTION ( 'NONE',  ( -1.000000000000000000, 0.000000000000000000, 0.000000000000000000 ) ) ;
#315 = CYLINDRICAL_SURFACE ( 'NONE', #463, 1.599999999999994316 ) ;
#316 = FACE_OUTER_BOUND ( 'NONE', #696, .T. ) ;
#317 = VERTEX_POINT ( 'NONE', #403 ) ;
#318 = PLANE ( 'NONE',  #892 ) ;
#319 = EDGE_CURVE ( 'NONE', #298, #1093, #801, .T. ) ;
#320 = CARTESIAN_POINT ( 'NONE',  ( 30.00000000000000711, -110.0000000000000000, -10.39994919989798916 ) ) ;
#321 = DIRECTION ( 'NONE',  ( 0.000000000000000000, 0.000000000000000000, 1.000000000000000000 ) ) ;
#322 = ORIENTED_EDGE ( 'NONE', *, *, #190, .T. ) ;
#323 = DIRECTION ( 'NONE',  ( -1.155371657516204016E-16, 1.000000000000000000, 0.000000000000000000 ) ) ;
#324 = ORIENTED_EDGE ( 'NONE', *, *, #128, .T. ) ;
#325 = CIRCLE ( 'NONE', #991, 1.599999999999993872 ) ;
#326 = AXIS2_PLACEMENT_3D ( 'NONE', #1029, #930, #150 ) ;
#327 = AXIS2_PLACEMENT_3D ( 'NONE', #586, #982, #597 ) ;
#328 = DIRECTION ( 'NONE',  ( 0.000000000000000000, 1.000000000000000000, 0.000000000000000000 ) ) ;
#329 = LINE ( 'NONE', #1007, #816 ) ;
#330 = ORIENTED_EDGE ( 'NONE', *, *, #50, .T. ) ;
#331 = ADVANCED_FACE ( 'NONE', ( #1175, #807 ), #318, .T. ) ;
#332 = CARTESIAN_POINT ( 'NONE',  ( 10.00000000000003908, -120.0000000000000000, -10.39994919989799449 ) ) ;
#333 = ORIENTED_EDGE ( 'NONE', *, *, #1162, .T. ) ;
#334 = LINE ( 'NONE', #714, #1108 ) ;
#335 = DIRECTION ( 'NONE',  ( -0.000000000000000000, -0.000000000000000000, -1.000000000000000000 ) ) ;
#336 = EDGE_LOOP ( 'NONE', ( #157, #12 ) ) ;
#337 = CARTESIAN_POINT ( 'NONE',  ( 2.081668171172168513E-14, -145.0000000000000284, 5.000000000000000000 ) ) ;
#338 = EDGE_CURVE ( 'NONE', #810, #820, #582, .T. ) ;
#339 = EDGE_LOOP ( 'NONE', ( #349, #859, #935, #828, #1168, #957 ) ) ;
#340 = CARTESIAN_POINT ( 'NONE',  ( 33.60000000000000853, -150.0144195133372023, 0.000000000000000000 ) ) ;
#341 = DIRECTION ( 'NONE',  ( 0.000000000000000000, 0.000000000000000000, 1.000000000000000000 ) ) ;
#342 = ORIENTED_EDGE ( 'NONE', *, *, #1225, .T. ) ;
#343 = CARTESIAN_POINT ( 'NONE',  ( 19.60000000000003340, -150.0144195133372023, 8.000000000000000000 ) ) ;
#344 = EDGE_LOOP ( 'NONE', ( #513, #881 ) ) ;
#345 = EDGE_CURVE ( 'NONE', #529, #1173, #499, .T. ) ;
#346 = DIRECTION ( 'NONE',  ( 1.040834085586084257E-16, -1.000000000000000000, 0.000000000000000000 ) ) ;
#347 = AXIS2_PLACEMENT_3D ( 'NONE', #678, #291, #960 ) ;
#348 = AXIS2_PLACEMENT_3D ( 'NONE', #87, #455, #363 ) ;
#349 = ORIENTED_EDGE ( 'NONE', *, *, #560, .T. ) ;
#350 = DIRECTION ( 'NONE',  ( -0.000000000000000000, -0.000000000000000000, -1.000000000000000000 ) ) ;
#351 = CIRCLE ( 'NONE', #622, 3.000000000000003109 ) ;
#352 = ORIENTED_EDGE ( 'NONE', *, *, #765, .F. ) ;
#353 = EDGE_CURVE ( 'NONE', #778, #6, #15, .T. ) ;
#354 =( NAMED_UNIT ( * ) SI_UNIT ( $, .STERADIAN. ) SOLID_ANGLE_UNIT ( ) );
#355 = EDGE_LOOP ( 'NONE', ( #187, #124, #1104, #1061 ) ) ;
#356 = DIRECTION ( 'NONE',  ( -0.000000000000000000, -0.000000000000000000, -1.000000000000000000 ) ) ;
#357 = ORIENTED_EDGE ( 'NONE', *, *, #144, .T. ) ;
#358 = DIRECTION ( 'NONE',  ( 1.040834085586084257E-16, -1.000000000000000000, 0.000000000000000000 ) ) ;
#359 = EDGE_CURVE ( 'NONE', #1054, #1136, #1069, .T. ) ;
#360 = EDGE_LOOP ( 'NONE', ( #1008, #848, #1155, #1215 ) ) ;
#361 = FACE_OUTER_BOUND ( 'NONE', #254, .T. ) ;
#362 = VERTEX_POINT ( 'NONE', #607 ) ;
#363 = DIRECTION ( 'NONE',  ( 1.000000000000000000, 0.000000000000000000, 0.000000000000000000 ) ) ;
#364 = DIRECTION ( 'NONE',  ( 1.000000000000000000, 0.000000000000000000, 0.000000000000000000 ) ) ;
#365 = EDGE_CURVE ( 'NONE', #1227, #1219, #978, .T. ) ;
#366 = VERTEX_POINT ( 'NONE', #733 ) ;
#367 = EDGE_CURVE ( 'NONE', #1038, #317, #143, .T. ) ;
#368 = EDGE_LOOP ( 'NONE', ( #986, #515 ) ) ;
#369 = PLANE ( 'NONE',  #467 ) ;
#370 = AXIS2_PLACEMENT_3D ( 'NONE', #533, #1031, #79 ) ;
#371 = FACE_OUTER_BOUND ( 'NONE', #53, .T. ) ;
#372 = ORIENTED_EDGE ( 'NONE', *, *, #151, .T. ) ;
#373 = DIRECTION ( 'NONE',  ( 1.000000000000000000, 0.000000000000000000, 0.000000000000000000 ) ) ;
#374 = ORIENTED_EDGE ( 'NONE', *, *, #847, .F. ) ;
#375 = DIRECTION ( 'NONE',  ( 1.000000000000000000, 0.000000000000000000, -0.000000000000000000 ) ) ;
#376 =( NAMED_UNIT ( * ) PLANE_ANGLE_UNIT ( ) SI_UNIT ( $, .RADIAN. ) );
#377 = ORIENTED_EDGE ( 'NONE', *, *, #1135, .F. ) ;
#378 = VERTEX_POINT ( 'NONE', #441 ) ;
#379 = CARTESIAN_POINT ( 'NONE',  ( 32.00000000000001421, -150.0144195133372023, 5.000000000000000000 ) ) ;
#380 = CYLINDRICAL_SURFACE ( 'NONE', #726, 1.600000000000002087 ) ;
#381 = LINE ( 'NONE', #770, #953 ) ;
#382 = DIRECTION ( 'NONE',  ( 0.000000000000000000, 0.000000000000000000, 1.000000000000000000 ) ) ;
#383 = ORIENTED_EDGE ( 'NONE', *, *, #589, .F. ) ;
#384 = FACE_OUTER_BOUND ( 'NONE', #865, .T. ) ;
#385 = CIRCLE ( 'NONE', #426, 1.600000000000002087 ) ;
#386 = CIRCLE ( 'NONE', #1091, 1.599999999999997202 ) ;
#387 = CARTESIAN_POINT ( 'NONE',  ( 32.00000000000001421, -150.0144195133372023, 5.000000000000000000 ) ) ;
#388 = CIRCLE ( 'NONE', #858, 1.599999999999993872 ) ;
#389 = DIRECTION ( 'NONE',  ( 0.000000000000000000, 0.000000000000000000, 1.000000000000000000 ) ) ;
#390 = DIRECTION ( 'NONE',  ( -0.000000000000000000, -0.000000000000000000, -1.000000000000000000 ) ) ;
#391 = EDGE_LOOP ( 'NONE', ( #102, #3 ) ) ;
#392 = CARTESIAN_POINT ( 'NONE',  ( 18.00000000000003908, -150.0144195133372023, 5.000000000000000000 ) ) ;
#393 = FACE_BOUND ( 'NONE', #1050, .T. ) ;
#394 = EDGE_CURVE ( 'NONE', #173, #298, #793, .T. ) ;
#395 = CARTESIAN_POINT ( 'NONE',  ( -1.599999999999981215, -125.0000000000000000, 0.000000000000000000 ) ) ;
#396 = VERTEX_POINT ( 'NONE', #813 ) ;
#397 = CARTESIAN_POINT ( 'NONE',  ( 32.00000000000001421, -150.0144195133372023, 8.000000000000000000 ) ) ;
#398 = DIRECTION ( 'NONE',  ( 0.000000000000000000, 0.000000000000000000, 1.000000000000000000 ) ) ;
#399 = DIRECTION ( 'NONE',  ( -0.000000000000000000, -0.000000000000000000, 1.000000000000000000 ) ) ;
#400 = ADVANCED_FACE ( 'NONE', ( #163 ), #1210, .F. ) ;
#401 = DIRECTION ( 'NONE',  ( 0.000000000000000000, 0.000000000000000000, 1.000000000000000000 ) ) ;
#402 = ADVANCED_FACE ( 'NONE', ( #821 ), #911, .F. ) ;
#403 = CARTESIAN_POINT ( 'NONE',  ( -9.999999999999987566, -110.0000000000000000, 8.000000000000000000 ) ) ;
#404 = VECTOR ( 'NONE', #1176, 1000.000000000000000 ) ;
#405 = AXIS2_PLACEMENT_3D ( 'NONE', #75, #449, #838 ) ;
#406 = CIRCLE ( 'NONE', #307, 3.000000000000002665 ) ;
#407 = AXIS2_PLACEMENT_3D ( 'NONE', #472, #640, #178 ) ;
#408 = DIRECTION ( 'NONE',  ( -0.000000000000000000, 0.000000000000000000, -1.000000000000000000 ) ) ;
#409 = LINE ( 'NONE', #1078, #490 ) ;
#410 = ORIENTED_EDGE ( 'NONE', *, *, #359, .F. ) ;
#411 = DIRECTION ( 'NONE',  ( 1.000000000000000000, 0.000000000000000000, 0.000000000000000000 ) ) ;
#412 = CARTESIAN_POINT ( 'NONE',  ( 15.00000000000003553, -150.0144195133372023, 5.000000000000000000 ) ) ;
#413 = CARTESIAN_POINT ( 'NONE',  ( 32.00000000000001421, -150.0144195133372023, 8.000000000000000000 ) ) ;
#414 = ORIENTED_EDGE ( 'NONE', *, *, #394, .F. ) ;
#415 = CARTESIAN_POINT ( 'NONE',  ( 18.00000000000003908, -150.0144195133372023, 5.000000000000000000 ) ) ;
#416 = ORIENTED_EDGE ( 'NONE', *, *, #165, .T. ) ;
#417 = DIRECTION ( 'NONE',  ( -0.000000000000000000, -0.000000000000000000, -1.000000000000000000 ) ) ;
#418 = ADVANCED_FACE ( 'NONE', ( #1024 ), #903, .F. ) ;
#419 = CARTESIAN_POINT ( 'NONE',  ( -1.599999999999973443, -145.0000000000000284, 5.000000000000000000 ) ) ;
#420 = DIRECTION ( 'NONE',  ( 1.000000000000000000, 0.000000000000000000, 0.000000000000000000 ) ) ;
#421 = VERTEX_POINT ( 'NONE', #241 ) ;
#422 = CARTESIAN_POINT ( 'NONE',  ( 33.60000000000000853, -150.0144195133372023, 8.000000000000000000 ) ) ;
#423 = ORIENTED_EDGE ( 'NONE', *, *, #847, .T. ) ;
#424 = AXIS2_PLACEMENT_3D ( 'NONE', #575, #113, #484 ) ;
#425 = EDGE_CURVE ( 'NONE', #762, #1118, #663, .T. ) ;
#426 = AXIS2_PLACEMENT_3D ( 'NONE', #682, #677, #886 ) ;
#427 = DIRECTION ( 'NONE',  ( 1.000000000000000000, 0.000000000000000000, 0.000000000000000000 ) ) ;
#428 = EDGE_CURVE ( 'NONE', #281, #168, #306, .T. ) ;
#429 = AXIS2_PLACEMENT_3D ( 'NONE', #1103, #438, #242 ) ;
#430 = VERTEX_POINT ( 'NONE', #68 ) ;
#431 = FACE_OUTER_BOUND ( 'NONE', #67, .T. ) ;
#432 = ORIENTED_EDGE ( 'NONE', *, *, #621, .F. ) ;
#433 = CARTESIAN_POINT ( 'NONE',  ( 20.00000000000001776, -130.0288390266744329, 8.000000000000000000 ) ) ;
#434 = ORIENTED_EDGE ( 'NONE', *, *, #63, .F. ) ;
#435 = PLANE ( 'NONE',  #76 ) ;
#436 = ORIENTED_EDGE ( 'NONE', *, *, #946, .F. ) ;
#437 = DIRECTION ( 'NONE',  ( 0.000000000000000000, 0.000000000000000000, 1.000000000000000000 ) ) ;
#438 = DIRECTION ( 'NONE',  ( -0.000000000000000000, -0.000000000000000000, 1.000000000000000000 ) ) ;
#439 = ORIENTED_EDGE ( 'NONE', *, *, #760, .F. ) ;
#440 = LINE ( 'NONE', #1179, #815 ) ;
#441 = CARTESIAN_POINT ( 'NONE',  ( 1.600000000000022737, -125.0000000000000000, 0.000000000000000000 ) ) ;
#442 = DIRECTION ( 'NONE',  ( 0.000000000000000000, 0.000000000000000000, 1.000000000000000000 ) ) ;
#443 = AXIS2_PLACEMENT_3D ( 'NONE', #126, #691, #300 ) ;
#444 = AXIS2_PLACEMENT_3D ( 'NONE', #1216, #536, #247 ) ;
#445 = ORIENTED_EDGE ( 'NONE', *, *, #1204, .F. ) ;
#446 = AXIS2_PLACEMENT_3D ( 'NONE', #1097, #829, #605 ) ;
#447 = CIRCLE ( 'NONE', #253, 3.000000000000002665 ) ;
#448 = ORIENTED_EDGE ( 'NONE', *, *, #63, .T. ) ;
#449 = DIRECTION ( 'NONE',  ( -0.000000000000000000, -0.000000000000000000, 1.000000000000000000 ) ) ;
#450 = EDGE_CURVE ( 'NONE', #147, #458, #334, .T. ) ;
#451 = CARTESIAN_POINT ( 'NONE',  ( 16.40000000000004476, -150.0144195133372023, 8.000000000000000000 ) ) ;
#452 = VERTEX_POINT ( 'NONE', #340 ) ;
#453 = DIRECTION ( 'NONE',  ( -0.000000000000000000, -0.000000000000000000, 1.000000000000000000 ) ) ;
#454 = ORIENTED_EDGE ( 'NONE', *, *, #1086, .T. ) ;
#455 = DIRECTION ( 'NONE',  ( -0.000000000000000000, -0.000000000000000000, -1.000000000000000000 ) ) ;
#456 = LINE ( 'NONE', #775, #1187 ) ;
#457 = CARTESIAN_POINT ( 'NONE',  ( 40.00000000000002132, -160.0000000000000000, 8.000000000000000000 ) ) ;
#458 = VERTEX_POINT ( 'NONE', #719 ) ;
#459 = DIRECTION ( 'NONE',  ( 1.000000000000000000, 0.000000000000000000, 0.000000000000000000 ) ) ;
#460 = ORIENTED_EDGE ( 'NONE', *, *, #90, .F. ) ;
#461 = DIRECTION ( 'NONE',  ( 1.000000000000000000, 0.000000000000000000, 0.000000000000000000 ) ) ;
#462 = CARTESIAN_POINT ( 'NONE',  ( 0.000000000000000000, 0.000000000000000000, 0.000000000000000000 ) ) ;
#463 = AXIS2_PLACEMENT_3D ( 'NONE', #40, #508, #145 ) ;
#464 = ORIENTED_EDGE ( 'NONE', *, *, #1194, .F. ) ;
#465 = ADVANCED_FACE ( 'NONE', ( #1015, #963 ), #369, .T. ) ;
#466 = CARTESIAN_POINT ( 'NONE',  ( 20.00000000000001776, -130.0288390266744329, -52.84675324083757886 ) ) ;
#467 = AXIS2_PLACEMENT_3D ( 'NONE', #939, #112, #182 ) ;
#468 = LINE ( 'NONE', #566, #506 ) ;
#469 = CIRCLE ( 'NONE', #133, 3.000000000000003109 ) ;
#470 = CIRCLE ( 'NONE', #624, 1.599999999999994316 ) ;
#471 = DIRECTION ( 'NONE',  ( -1.040834085586084257E-16, 1.000000000000000000, 0.000000000000000000 ) ) ;
#472 = CARTESIAN_POINT ( 'NONE',  ( 32.00000000000001421, -150.0144195133372023, 5.000000000000000000 ) ) ;
#473 = ORIENTED_EDGE ( 'NONE', *, *, #783, .F. ) ;
#474 = DIRECTION ( 'NONE',  ( 1.083861961953352097E-16, 8.284291026348735062E-18, -1.000000000000000000 ) ) ;
#475 = ORIENTED_EDGE ( 'NONE', *, *, #83, .F. ) ;
#476 = DIRECTION ( 'NONE',  ( 0.000000000000000000, 0.000000000000000000, 1.000000000000000000 ) ) ;
#477 = CYLINDRICAL_SURFACE ( 'NONE', #970, 10.00000000000000000 ) ;
#478 = DIRECTION ( 'NONE',  ( 1.000000000000000000, 0.000000000000000000, 0.000000000000000000 ) ) ;
#479 = ORIENTED_EDGE ( 'NONE', *, *, #904, .T. ) ;
#480 = PLANE ( 'NONE',  #1148 ) ;
#481 = ADVANCED_FACE ( 'NONE', ( #1056, #384 ), #480, .T. ) ;
#482 = DIRECTION ( 'NONE',  ( 0.000000000000000000, 0.000000000000000000, 1.000000000000000000 ) ) ;
#483 = EDGE_CURVE ( 'NONE', #59, #1178, #1035, .T. ) ;
#484 = DIRECTION ( 'NONE',  ( 1.000000000000000000, 0.000000000000000000, 0.000000000000000000 ) ) ;
#485 = DIRECTION ( 'NONE',  ( 0.000000000000000000, -0.000000000000000000, -1.000000000000000000 ) ) ;
#486 = AXIS2_PLACEMENT_3D ( 'NONE', #776, #1094, #905 ) ;
#487 = EDGE_LOOP ( 'NONE', ( #837, #922, #24, #975 ) ) ;
#488 = DIRECTION ( 'NONE',  ( 0.000000000000000000, 0.000000000000000000, 1.000000000000000000 ) ) ;
#489 = CIRCLE ( 'NONE', #1053, 1.599999999999997202 ) ;
#490 = VECTOR ( 'NONE', #580, 1000.000000000000000 ) ;
#491 = LINE ( 'NONE', #781, #1228 ) ;
#492 = FACE_BOUND ( 'NONE', #336, .T. ) ;
#493 = ORIENTED_EDGE ( 'NONE', *, *, #825, .T. ) ;
#494 = EDGE_CURVE ( 'NONE', #944, #366, #106, .T. ) ;
#495 = LINE ( 'NONE', #868, #680 ) ;
#496 = CARTESIAN_POINT ( 'NONE',  ( 2.081668171172168513E-14, -145.0000000000000284, 5.000000000000000000 ) ) ;
#497 = ORIENTED_EDGE ( 'NONE', *, *, #282, .F. ) ;
#498 = FACE_OUTER_BOUND ( 'NONE', #1140, .T. ) ;
#499 = LINE ( 'NONE', #30, #912 ) ;
#500 = DIRECTION ( 'NONE',  ( -3.474456949786320671E-16, 1.000000000000000000, 0.000000000000000000 ) ) ;
#501 = DIRECTION ( 'NONE',  ( -1.083861961953352097E-16, -8.284291026348735062E-18, 1.000000000000000000 ) ) ;
#502 = ORIENTED_EDGE ( 'NONE', *, *, #1111, .F. ) ;
#503 = CARTESIAN_POINT ( 'NONE',  ( -9.999999999999982236, -160.0000000000000000, 0.000000000000000000 ) ) ;
#504 = CARTESIAN_POINT ( 'NONE',  ( 20.00000000000001776, -130.0288390266744329, -10.39994919989799271 ) ) ;
#505 = AXIS2_PLACEMENT_3D ( 'NONE', #1212, #328, #1006 ) ;
#506 = VECTOR ( 'NONE', #7, 1000.000000000000000 ) ;
#507 = VECTOR ( 'NONE', #593, 1000.000000000000000 ) ;
#508 = DIRECTION ( 'NONE',  ( -0.000000000000000000, -0.000000000000000000, -1.000000000000000000 ) ) ;
#509 = PLANE ( 'NONE',  #56 ) ;
#510 = ORIENTED_EDGE ( 'NONE', *, *, #621, .T. ) ;
#511 = CARTESIAN_POINT ( 'NONE',  ( 10.00000000000003908, -120.0000000000000000, -52.84675324083757886 ) ) ;
#512 = CYLINDRICAL_SURFACE ( 'NONE', #645, 1.599999999999993872 ) ;
#513 = ORIENTED_EDGE ( 'NONE', *, *, #570, .F. ) ;
#514 = CARTESIAN_POINT ( 'NONE',  ( -2.999999999999982236, -145.0000000000000284, 5.000000000000000000 ) ) ;
#515 = ORIENTED_EDGE ( 'NONE', *, *, #614, .T. ) ;
#516 = EDGE_CURVE ( 'NONE', #6, #778, #489, .T. ) ;
#517 = DIRECTION ( 'NONE',  ( -0.000000000000000000, -0.000000000000000000, -1.000000000000000000 ) ) ;
#518 = DIRECTION ( 'NONE',  ( 0.000000000000000000, 0.000000000000000000, 1.000000000000000000 ) ) ;
#519 = ORIENTED_EDGE ( 'NONE', *, *, #101, .F. ) ;
#520 = CARTESIAN_POINT ( 'NONE',  ( 20.00000000000001776, -130.0288390266744329, 5.000000000000000000 ) ) ;
#521 = EDGE_LOOP ( 'NONE', ( #439, #330, #562, #950 ) ) ;
#522 = DIRECTION ( 'NONE',  ( 1.000000000000000000, 0.000000000000000000, 0.000000000000000000 ) ) ;
#523 = CIRCLE ( 'NONE', #564, 10.00000000000000000 ) ;
#524 = AXIS2_PLACEMENT_3D ( 'NONE', #496, #208, #884 ) ;
#525 = DIRECTION ( 'NONE',  ( -1.000000000000000000, 0.000000000000000000, 0.000000000000000000 ) ) ;
#526 = PRODUCT_DEFINITION_FORMATION_WITH_SPECIFIED_SOURCE ( '浠', '', #573, .NOT_KNOWN. ) ;
#527 = EDGE_LOOP ( 'NONE', ( #493, #919, #1040, #870 ) ) ;
#528 = CARTESIAN_POINT ( 'NONE',  ( 2.081668171172168513E-14, -125.0000000000000000, 5.000000000000000000 ) ) ;
#529 = VERTEX_POINT ( 'NONE', #193 ) ;
#530 = DIRECTION ( 'NONE',  ( -0.000000000000000000, 0.000000000000000000, 1.000000000000000000 ) ) ;
#531 = EDGE_LOOP ( 'NONE', ( #1055, #219, #1115, #80, #818, #856 ) ) ;
#532 = DIRECTION ( 'NONE',  ( -1.000000000000000000, -0.000000000000000000, -0.000000000000000000 ) ) ;
#533 = CARTESIAN_POINT ( 'NONE',  ( 30.00000000000001066, -130.0288390266744614, -52.84675324083757886 ) ) ;
#534 = ORIENTED_EDGE ( 'NONE', *, *, #1049, .T. ) ;
#535 = ORIENTED_EDGE ( 'NONE', *, *, #227, .T. ) ;
#536 = DIRECTION ( 'NONE',  ( -0.000000000000000000, -0.000000000000000000, 1.000000000000000000 ) ) ;
#537 = CARTESIAN_POINT ( 'NONE',  ( 3.000000000000023981, -125.0000000000000000, 5.000000000000000000 ) ) ;
#538 = AXIS2_PLACEMENT_3D ( 'NONE', #659, #287, #461 ) ;
#539 = AXIS2_PLACEMENT_3D ( 'NONE', #690, #488, #876 ) ;
#540 = VECTOR ( 'NONE', #453, 1000.000000000000000 ) ;
#541 = ORIENTED_EDGE ( 'NONE', *, *, #134, .F. ) ;
#542 = DIRECTION ( 'NONE',  ( 0.000000000000000000, 0.000000000000000000, 1.000000000000000000 ) ) ;
#543 = CIRCLE ( 'NONE', #1110, 10.00000000000000178 ) ;
#544 = ORIENTED_EDGE ( 'NONE', *, *, #175, .T. ) ;
#545 = CARTESIAN_POINT ( 'NONE',  ( 30.00000000000000711, -110.0000000000000000, 8.000000000000000000 ) ) ;
#546 = EDGE_CURVE ( 'NONE', #179, #784, #31, .T. ) ;
#547 = CARTESIAN_POINT ( 'NONE',  ( -9.999999999999984013, -150.0000000000000000, 8.000000000000000000 ) ) ;
#548 = ORIENTED_EDGE ( 'NONE', *, *, #846, .T. ) ;
#549 = CARTESIAN_POINT ( 'NONE',  ( -9.999999999999987566, -110.0000000000000000, 0.000000000000000000 ) ) ;
#550 = EDGE_LOOP ( 'NONE', ( #105, #479, #553, #541, #1205, #1100, #681, #129 ) ) ;
#551 = DIRECTION ( 'NONE',  ( -0.000000000000000000, -0.000000000000000000, 1.000000000000000000 ) ) ;
#552 = DIRECTION ( 'NONE',  ( 1.000000000000000000, 0.000000000000000000, 0.000000000000000000 ) ) ;
#553 = ORIENTED_EDGE ( 'NONE', *, *, #825, .F. ) ;
#554 = LINE ( 'NONE', #644, #252 ) ;
#555 = ORIENTED_EDGE ( 'NONE', *, *, #256, .F. ) ;
#556 = DIRECTION ( 'NONE',  ( 0.000000000000000000, 0.000000000000000000, 1.000000000000000000 ) ) ;
#557 = CARTESIAN_POINT ( 'NONE',  ( 2.081668171172168513E-14, -125.0000000000000000, 5.000000000000000000 ) ) ;
#558 = EDGE_CURVE ( 'NONE', #637, #1063, #1164, .T. ) ;
#559 = FACE_OUTER_BOUND ( 'NONE', #198, .T. ) ;
#560 = EDGE_CURVE ( 'NONE', #362, #631, #468, .T. ) ;
#561 = VECTOR ( 'NONE', #551, 1000.000000000000000 ) ;
#562 = ORIENTED_EDGE ( 'NONE', *, *, #1135, .T. ) ;
#563 = DIRECTION ( 'NONE',  ( 1.000000000000000000, 0.000000000000000000, 0.000000000000000000 ) ) ;
#564 = AXIS2_PLACEMENT_3D ( 'NONE', #294, #945, #673 ) ;
#565 = ORIENTED_EDGE ( 'NONE', *, *, #872, .T. ) ;
#566 = CARTESIAN_POINT ( 'NONE',  ( 40.00000000000002132, -160.0000000000000000, 0.000000000000000000 ) ) ;
#567 = AXIS2_PLACEMENT_3D ( 'NONE', #1226, #1139, #180 ) ;
#568 = VECTOR ( 'NONE', #941, 1000.000000000000000 ) ;
#569 = DIRECTION ( 'NONE',  ( 1.000000000000000000, 1.040834085586084257E-16, -0.000000000000000000 ) ) ;
#570 = EDGE_CURVE ( 'NONE', #993, #396, #1147, .T. ) ;
#571 = VERTEX_POINT ( 'NONE', #1157 ) ;
#572 = ORIENTED_EDGE ( 'NONE', *, *, #841, .F. ) ;
#573 = PRODUCT ( 'L\X2\578b8fde63a54ef6\X0\_\X2\5e9590e8\X0\_\X2\53f3\X0\', 'L\X2\578b8fde63a54ef6\X0\_\X2\5e9590e8\X0\_\X2\53f3\X0\', '', ( #947 ) ) ;
#574 = LINE ( 'NONE', #277, #561 ) ;
#575 = CARTESIAN_POINT ( 'NONE',  ( 1.561251128379126385E-14, -150.0000000000000000, 0.000000000000000000 ) ) ;
#576 = CYLINDRICAL_SURFACE ( 'NONE', #1019, 3.000000000000002665 ) ;
#577 = ORIENTED_EDGE ( 'NONE', *, *, #760, .T. ) ;
#578 = CARTESIAN_POINT ( 'NONE',  ( 30.00000000000001066, -140.0288390266744614, -52.84675324083757886 ) ) ;
#579 = PLANE ( 'NONE',  #704 ) ;
#580 = DIRECTION ( 'NONE',  ( 1.000000000000000000, 0.000000000000000000, 1.083861961953352097E-16 ) ) ;
#581 = ORIENTED_EDGE ( 'NONE', *, *, #276, .T. ) ;
#582 = CIRCLE ( 'NONE', #443, 1.600000000000002087 ) ;
#583 = CIRCLE ( 'NONE', #773, 3.000000000000003109 ) ;
#584 = ADVANCED_FACE ( 'NONE', ( #299 ), #37, .F. ) ;
#585 = ORIENTED_EDGE ( 'NONE', *, *, #494, .F. ) ;
#586 = CARTESIAN_POINT ( 'NONE',  ( 18.00000000000003908, -150.0144195133372023, 5.000000000000000000 ) ) ;
#587 = ORIENTED_EDGE ( 'NONE', *, *, #1186, .T. ) ;
#588 = CARTESIAN_POINT ( 'NONE',  ( 40.00000000000000711, -130.0288390266744614, 0.000000000000000000 ) ) ;
#589 = EDGE_CURVE ( 'NONE', #166, #924, #697, .T. ) ;
#590 = FACE_BOUND ( 'NONE', #635, .T. ) ;
#591 = CARTESIAN_POINT ( 'NONE',  ( 40.00000000000000711, -130.0288390266744614, 8.000000000000000000 ) ) ;
#592 = ORIENTED_EDGE ( 'NONE', *, *, #546, .F. ) ;
#593 = DIRECTION ( 'NONE',  ( 1.000000000000000000, 0.000000000000000000, 0.000000000000000000 ) ) ;
#594 = DIRECTION ( 'NONE',  ( 0.000000000000000000, 0.000000000000000000, 1.000000000000000000 ) ) ;
#595 = PLANE ( 'NONE',  #505 ) ;
#596 = EDGE_CURVE ( 'NONE', #396, #993, #994, .T. ) ;
#597 = DIRECTION ( 'NONE',  ( 1.000000000000000000, 0.000000000000000000, 0.000000000000000000 ) ) ;
#598 = ORIENTED_EDGE ( 'NONE', *, *, #546, .T. ) ;
#599 = DIRECTION ( 'NONE',  ( 0.000000000000000000, 0.000000000000000000, 1.000000000000000000 ) ) ;
#600 = CIRCLE ( 'NONE', #153, 1.600000000000002087 ) ;
#601 = PRESENTATION_LAYER_ASSIGNMENT (  '', '', ( #913 ) ) ;
#602 = AXIS2_PLACEMENT_3D ( 'NONE', #415, #130, #125 ) ;
#603 = CIRCLE ( 'NONE', #959, 3.000000000000003109 ) ;
#604 = DIRECTION ( 'NONE',  ( 1.000000000000000000, 0.000000000000000000, 0.000000000000000000 ) ) ;
#605 = DIRECTION ( 'NONE',  ( 1.000000000000000000, 0.000000000000000000, 0.000000000000000000 ) ) ;
#606 = EDGE_LOOP ( 'NONE', ( #436, #587, #454, #519, #1165, #357 ) ) ;
#607 = CARTESIAN_POINT ( 'NONE',  ( 40.00000000000002132, -160.0000000000000000, 0.000000000000000000 ) ) ;
#608 = DIRECTION ( 'NONE',  ( -0.000000000000000000, -0.000000000000000000, -1.000000000000000000 ) ) ;
#609 = DIRECTION ( 'NONE',  ( 1.000000000000000000, 0.000000000000000000, 0.000000000000000000 ) ) ;
#610 = ORIENTED_EDGE ( 'NONE', *, *, #212, .F. ) ;
#611 = DIRECTION ( 'NONE',  ( 0.000000000000000000, 0.000000000000000000, 1.000000000000000000 ) ) ;
#612 = PRODUCT_DEFINITION ( '鏈', '', #526, #668 ) ;
#613 = ORIENTED_EDGE ( 'NONE', *, *, #654, .F. ) ;
#614 = EDGE_CURVE ( 'NONE', #378, #1003, #385, .T. ) ;
#615 = CARTESIAN_POINT ( 'NONE',  ( 20.00000000000001776, -130.0288390266744329, 5.000000000000000000 ) ) ;
#616 = EDGE_LOOP ( 'NONE', ( #293, #702, #160, #309 ) ) ;
#617 = DIRECTION ( 'NONE',  ( 0.000000000000000000, 0.000000000000000000, 1.000000000000000000 ) ) ;
#618 = DIRECTION ( 'NONE',  ( 1.000000000000000000, 0.000000000000000000, 1.734723475976806848E-16 ) ) ;
#619 = CIRCLE ( 'NONE', #424, 10.00000000000000000 ) ;
#620 = AXIS2_PLACEMENT_3D ( 'NONE', #648, #556, #951 ) ;
#621 = EDGE_CURVE ( 'NONE', #778, #1178, #25, .T. ) ;
#622 = AXIS2_PLACEMENT_3D ( 'NONE', #244, #1198, #1009 ) ;
#623 = DIRECTION ( 'NONE',  ( 0.000000000000000000, 0.000000000000000000, 1.000000000000000000 ) ) ;
#624 = AXIS2_PLACEMENT_3D ( 'NONE', #782, #880, #478 ) ;
#625 = DIRECTION ( 'NONE',  ( -0.000000000000000000, -0.000000000000000000, -1.000000000000000000 ) ) ;
#626 = ORIENTED_EDGE ( 'NONE', *, *, #494, .T. ) ;
#627 = CARTESIAN_POINT ( 'NONE',  ( 20.00000000000001776, -130.0288390266744329, 8.000000000000000000 ) ) ;
#628 = CARTESIAN_POINT ( 'NONE',  ( 20.00000000000001776, -130.0288390266744329, 4.999999999999997335 ) ) ;
#629 = EDGE_CURVE ( 'NONE', #240, #1214, #1128, .T. ) ;
#630 = ORIENTED_EDGE ( 'NONE', *, *, #735, .T. ) ;
#631 = VERTEX_POINT ( 'NONE', #588 ) ;
#632 = CARTESIAN_POINT ( 'NONE',  ( 30.00000000000000711, -120.0000000000000000, -10.39994919989798916 ) ) ;
#633 = LINE ( 'NONE', #451, #225 ) ;
#634 = ADVANCED_FACE ( 'NONE', ( #785 ), #1067, .F. ) ;
#635 = EDGE_LOOP ( 'NONE', ( #653, #548 ) ) ;
#636 = DIRECTION ( 'NONE',  ( 1.000000000000000000, 0.000000000000000000, 0.000000000000000000 ) ) ;
#637 = VERTEX_POINT ( 'NONE', #18 ) ;
#638 = LINE ( 'NONE', #545, #404 ) ;
#639 = CIRCLE ( 'NONE', #1145, 9.999999999999998224 ) ;
#640 = DIRECTION ( 'NONE',  ( 0.000000000000000000, 0.000000000000000000, 1.000000000000000000 ) ) ;
#641 = VECTOR ( 'NONE', #522, 1000.000000000000000 ) ;
#642 = AXIS2_PLACEMENT_3D ( 'NONE', #737, #2, #459 ) ;
#643 = ORIENTED_EDGE ( 'NONE', *, *, #450, .F. ) ;
#644 = CARTESIAN_POINT ( 'NONE',  ( -4.600647630646226133E-15, -140.0288390266744614, -10.39994919989799271 ) ) ;
#645 = AXIS2_PLACEMENT_3D ( 'NONE', #709, #139, #525 ) ;
#646 = EDGE_CURVE ( 'NONE', #944, #421, #795, .T. ) ;
#647 = ORIENTED_EDGE ( 'NONE', *, *, #629, .T. ) ;
#648 = CARTESIAN_POINT ( 'NONE',  ( 18.00000000000003908, -150.0144195133372023, 5.000000000000000000 ) ) ;
#649 = ADVANCED_FACE ( 'NONE', ( #498 ), #779, .T. ) ;
#650 = DIRECTION ( 'NONE',  ( -0.000000000000000000, -0.000000000000000000, 1.000000000000000000 ) ) ;
#651 = ORIENTED_EDGE ( 'NONE', *, *, #104, .F. ) ;
#652 = CARTESIAN_POINT ( 'NONE',  ( 17.00000000000001421, -130.0288390266744329, 5.000000000000000000 ) ) ;
#653 = ORIENTED_EDGE ( 'NONE', *, *, #968, .T. ) ;
#654 = EDGE_CURVE ( 'NONE', #843, #362, #1080, .T. ) ;
#655 = CARTESIAN_POINT ( 'NONE',  ( 3.000000000000023981, -125.0000000000000000, 8.000000000000000000 ) ) ;
#656 = DIRECTION ( 'NONE',  ( 1.155371657516204016E-16, -1.000000000000000000, -8.284291026348722736E-18 ) ) ;
#657 = ORIENTED_EDGE ( 'NONE', *, *, #172, .F. ) ;
#658 = CARTESIAN_POINT ( 'NONE',  ( 1.600000000000022737, -125.0000000000000000, 5.000000000000000000 ) ) ;
#659 = CARTESIAN_POINT ( 'NONE',  ( 2.081668171172168513E-14, -145.0000000000000284, 5.000000000000000000 ) ) ;
#660 = EDGE_CURVE ( 'NONE', #1219, #362, #891, .T. ) ;
#661 = CARTESIAN_POINT ( 'NONE',  ( -2.999999999999982236, -145.0000000000000284, 8.000000000000000000 ) ) ;
#662 = CARTESIAN_POINT ( 'NONE',  ( 2.081668171172168513E-14, -125.0000000000000000, 8.000000000000000000 ) ) ;
#663 = CIRCLE ( 'NONE', #286, 3.000000000000002665 ) ;
#664 = VERTEX_POINT ( 'NONE', #136 ) ;
#665 = CIRCLE ( 'NONE', #55, 3.000000000000003109 ) ;
#666 = VECTOR ( 'NONE', #292, 1000.000000000000000 ) ;
#667 = CARTESIAN_POINT ( 'NONE',  ( 2.081668171172168513E-14, -125.0000000000000000, 8.000000000000000000 ) ) ;
#668 = PRODUCT_DEFINITION_CONTEXT ( 'detailed design', #693, 'design' ) ;
#669 = DIRECTION ( 'NONE',  ( -0.000000000000000000, -0.000000000000000000, 1.000000000000000000 ) ) ;
#670 = FACE_OUTER_BOUND ( 'NONE', #606, .T. ) ;
#671 = ORIENTED_EDGE ( 'NONE', *, *, #227, .F. ) ;
#672 = DIRECTION ( 'NONE',  ( 0.000000000000000000, 0.000000000000000000, 1.000000000000000000 ) ) ;
#673 = DIRECTION ( 'NONE',  ( 1.000000000000000000, 0.000000000000000000, 0.000000000000000000 ) ) ;
#674 = DIRECTION ( 'NONE',  ( 1.000000000000000000, 0.000000000000000000, 0.000000000000000000 ) ) ;
#675 = FACE_BOUND ( 'NONE', #900, .T. ) ;
#676 = EDGE_LOOP ( 'NONE', ( #223, #48 ) ) ;
#677 = DIRECTION ( 'NONE',  ( 0.000000000000000000, 0.000000000000000000, 1.000000000000000000 ) ) ;
#678 = CARTESIAN_POINT ( 'NONE',  ( 40.00000000000002132, -160.0000000000000000, 8.000000000000000000 ) ) ;
#679 = DIRECTION ( 'NONE',  ( 0.000000000000000000, -1.000000000000000000, 0.000000000000000000 ) ) ;
#680 = VECTOR ( 'NONE', #10, 1000.000000000000000 ) ;
#681 = ORIENTED_EDGE ( 'NONE', *, *, #946, .T. ) ;
#682 = CARTESIAN_POINT ( 'NONE',  ( 2.081668171172168513E-14, -125.0000000000000000, 0.000000000000000000 ) ) ;
#683 = ADVANCED_FACE ( 'NONE', ( #232 ), #238, .T. ) ;
#684 = AXIS2_PLACEMENT_3D ( 'NONE', #504, #894, #698 ) ;
#685 = CIRCLE ( 'NONE', #893, 1.599999999999993872 ) ;
#686 = AXIS2_PLACEMENT_3D ( 'NONE', #158, #1095, #420 ) ;
#687 = CARTESIAN_POINT ( 'NONE',  ( 18.40000000000001990, -130.0288390266744329, -10.39994919989799271 ) ) ;
#688 = FACE_BOUND ( 'NONE', #344, .T. ) ;
#689 = ORIENTED_EDGE ( 'NONE', *, *, #1194, .T. ) ;
#690 = CARTESIAN_POINT ( 'NONE',  ( 2.081668171172168513E-14, -125.0000000000000000, 8.000000000000000000 ) ) ;
#691 = DIRECTION ( 'NONE',  ( 0.000000000000000000, 0.000000000000000000, 1.000000000000000000 ) ) ;
#692 = EDGE_CURVE ( 'NONE', #46, #1120, #440, .T. ) ;
#693 = APPLICATION_CONTEXT ( 'automotive_design' ) ;
#694 = CARTESIAN_POINT ( 'NONE',  ( 3.000000000000023981, -125.0000000000000000, 5.000000000000000000 ) ) ;
#695 = DIRECTION ( 'NONE',  ( 0.000000000000000000, 0.000000000000000000, 1.000000000000000000 ) ) ;
#696 = EDGE_LOOP ( 'NONE', ( #1010, #962, #324, #907 ) ) ;
#697 = LINE ( 'NONE', #224, #96 ) ;
#698 = DIRECTION ( 'NONE',  ( 1.000000000000000000, 0.000000000000000000, 0.000000000000000000 ) ) ;
#699 = LINE ( 'NONE', #412, #830 ) ;
#700 = DIRECTION ( 'NONE',  ( 1.000000000000000000, 0.000000000000000000, 0.000000000000000000 ) ) ;
#701 = ADVANCED_FACE ( 'NONE', ( #1090 ), #72, .F. ) ;
#702 = ORIENTED_EDGE ( 'NONE', *, *, #205, .T. ) ;
#703 = LINE ( 'NONE', #343, #832 ) ;
#704 = AXIS2_PLACEMENT_3D ( 'NONE', #207, #879, #1142 ) ;
#705 = ORIENTED_EDGE ( 'NONE', *, *, #1225, .F. ) ;
#706 = VECTOR ( 'NONE', #390, 1000.000000000000000 ) ;
#707 = EDGE_CURVE ( 'NONE', #1046, #29, #406, .T. ) ;
#708 = DIRECTION ( 'NONE',  ( -0.000000000000000000, -0.000000000000000000, 1.000000000000000000 ) ) ;
#709 = CARTESIAN_POINT ( 'NONE',  ( 18.00000000000003908, -150.0144195133372023, 8.000000000000000000 ) ) ;
#710 = ADVANCED_FACE ( 'NONE', ( #824 ), #1208, .F. ) ;
#711 = ORIENTED_EDGE ( 'NONE', *, *, #66, .T. ) ;
#712 = CARTESIAN_POINT ( 'NONE',  ( 30.40000000000001990, -150.0144195133372023, 0.000000000000000000 ) ) ;
#713 = VERTEX_POINT ( 'NONE', #332 ) ;
#714 = CARTESIAN_POINT ( 'NONE',  ( -1.599999999999973443, -145.0000000000000284, 8.000000000000000000 ) ) ;
#715 = FACE_OUTER_BOUND ( 'NONE', #521, .T. ) ;
#716 = ORIENTED_EDGE ( 'NONE', *, *, #948, .F. ) ;
#717 = CARTESIAN_POINT ( 'NONE',  ( 30.00000000000000711, -120.0000000000000000, 8.000000000000000000 ) ) ;
#718 = ORIENTED_EDGE ( 'NONE', *, *, #1017, .T. ) ;
#719 = CARTESIAN_POINT ( 'NONE',  ( -1.599999999999973443, -145.0000000000000284, 0.000000000000000000 ) ) ;
#720 = CARTESIAN_POINT ( 'NONE',  ( 2.081668171172168513E-14, -125.0000000000000000, 5.000000000000000000 ) ) ;
#721 = EDGE_LOOP ( 'NONE', ( #251, #942 ) ) ;
#722 = DIRECTION ( 'NONE',  ( 1.000000000000000000, 0.000000000000000000, 0.000000000000000000 ) ) ;
#723 = ORIENTED_EDGE ( 'NONE', *, *, #1058, .T. ) ;
#724 = ADVANCED_FACE ( 'NONE', ( #431 ), #435, .F. ) ;
#725 = CARTESIAN_POINT ( 'NONE',  ( -9.999999999999987566, -110.0000000000000000, 8.000000000000000000 ) ) ;
#726 = AXIS2_PLACEMENT_3D ( 'NONE', #667, #1057, #747 ) ;
#727 = AXIS2_PLACEMENT_3D ( 'NONE', #861, #650, #1042 ) ;
#728 = CARTESIAN_POINT ( 'NONE',  ( 29.00000000000001066, -150.0144195133372023, 8.000000000000000000 ) ) ;
#729 = VECTOR ( 'NONE', #358, 1000.000000000000000 ) ;
#730 = VERTEX_POINT ( 'NONE', #712 ) ;
#731 = DIRECTION ( 'NONE',  ( 1.000000000000000000, 0.000000000000000000, 0.000000000000000000 ) ) ;
#732 = VERTEX_POINT ( 'NONE', #60 ) ;
#733 = CARTESIAN_POINT ( 'NONE',  ( 21.00000000000004619, -150.0144195133372023, 8.000000000000000000 ) ) ;
#734 = DIRECTION ( 'NONE',  ( -1.083861961953352097E-16, -8.284291026348735062E-18, 1.000000000000000000 ) ) ;
#735 = EDGE_CURVE ( 'NONE', #664, #111, #469, .T. ) ;
#736 = ORIENTED_EDGE ( 'NONE', *, *, #90, .T. ) ;
#737 = CARTESIAN_POINT ( 'NONE',  ( 20.00000000000003908, -120.0000000000000000, 0.000000000000000000 ) ) ;
#738 = ORIENTED_EDGE ( 'NONE', *, *, #483, .F. ) ;
#739 = CARTESIAN_POINT ( 'NONE',  ( 20.00000000000003908, -110.0000000000000000, 0.000000000000000000 ) ) ;
#740 = DIRECTION ( 'NONE',  ( 1.000000000000000000, 0.000000000000000000, 1.734723475976806848E-16 ) ) ;
#741 = ORIENTED_EDGE ( 'NONE', *, *, #172, .T. ) ;
#742 = EDGE_CURVE ( 'NONE', #396, #452, #65, .T. ) ;
#743 = CYLINDRICAL_SURFACE ( 'NONE', #174, 1.599999999999997202 ) ;
#744 = EDGE_LOOP ( 'NONE', ( #74, #71, #626, #736 ) ) ;
#745 = DIRECTION ( 'NONE',  ( 0.000000000000000000, 0.000000000000000000, 1.000000000000000000 ) ) ;
#746 = APPLICATION_CONTEXT ( 'automotive_design' ) ;
#747 = DIRECTION ( 'NONE',  ( -1.000000000000000000, 0.000000000000000000, 0.000000000000000000 ) ) ;
#748 = VECTOR ( 'NONE', #177, 1000.000000000000000 ) ;
#749 = CYLINDRICAL_SURFACE ( 'NONE', #370, 9.999999999999998224 ) ;
#750 = AXIS2_PLACEMENT_3D ( 'NONE', #466, #864, #93 ) ;
#751 = ORIENTED_EDGE ( 'NONE', *, *, #1196, .F. ) ;
#752 = FILL_AREA_STYLE ('',( #47 ) ) ;
#753 = CIRCLE ( 'NONE', #233, 1.599999999999994316 ) ;
#754 = ORIENTED_EDGE ( 'NONE', *, *, #759, .F. ) ;
#755 = FACE_BOUND ( 'NONE', #1096, .T. ) ;
#756 = ORIENTED_EDGE ( 'NONE', *, *, #144, .F. ) ;
#757 = CYLINDRICAL_SURFACE ( 'NONE', #750, 1.599999999999997202 ) ;
#758 = DIRECTION ( 'NONE',  ( 1.000000000000000000, 0.000000000000000000, -0.000000000000000000 ) ) ;
#759 = EDGE_CURVE ( 'NONE', #111, #664, #351, .T. ) ;
#760 = EDGE_CURVE ( 'NONE', #784, #179, #665, .T. ) ;
#761 = CARTESIAN_POINT ( 'NONE',  ( 20.00000000000003908, -120.0000000000000000, -10.39994919989799271 ) ) ;
#762 = VERTEX_POINT ( 'NONE', #1203 ) ;
#763 = PRESENTATION_STYLE_ASSIGNMENT (( #1045 ) ) ;
#764 = DIRECTION ( 'NONE',  ( 0.000000000000000000, 0.000000000000000000, 1.000000000000000000 ) ) ;
#765 = EDGE_CURVE ( 'NONE', #1063, #732, #703, .T. ) ;
#766 = CARTESIAN_POINT ( 'NONE',  ( 20.00000000000001776, -130.0288390266744329, 5.000000000000000000 ) ) ;
#767 = ADVANCED_FACE ( 'NONE', ( #1105 ), #1023, .F. ) ;
#768 = CIRCLE ( 'NONE', #486, 3.000000000000006217 ) ;
#769 = VECTOR ( 'NONE', #1153, 1000.000000000000000 ) ;
#770 = CARTESIAN_POINT ( 'NONE',  ( -2.999999999999982236, -145.0000000000000284, 5.000000000000000000 ) ) ;
#771 = DIRECTION ( 'NONE',  ( -0.000000000000000000, 0.000000000000000000, -1.000000000000000000 ) ) ;
#772 = ORIENTED_EDGE ( 'NONE', *, *, #968, .F. ) ;
#773 = AXIS2_PLACEMENT_3D ( 'NONE', #1156, #695, #990 ) ;
#774 = VECTOR ( 'NONE', #346, 1000.000000000000000 ) ;
#775 = CARTESIAN_POINT ( 'NONE',  ( 18.40000000000001990, -130.0288390266744329, -52.84675324083757886 ) ) ;
#776 = CARTESIAN_POINT ( 'NONE',  ( 18.00000000000003908, -150.0144195133372023, 8.000000000000000000 ) ) ;
#777 = CARTESIAN_POINT ( 'NONE',  ( 131.3737302514439875, -9.922625918486994934, -10.39994919989797850 ) ) ;
#778 = VERTEX_POINT ( 'NONE', #167 ) ;
#779 = CYLINDRICAL_SURFACE ( 'NONE', #855, 10.00000000000000178 ) ;
#780 = EDGE_CURVE ( 'NONE', #791, #1120, #148, .T. ) ;
#781 = CARTESIAN_POINT ( 'NONE',  ( 40.00000000000002132, -160.0000000000000000, 8.000000000000000000 ) ) ;
#782 = CARTESIAN_POINT ( 'NONE',  ( 2.081668171172168513E-14, -145.0000000000000284, 0.000000000000000000 ) ) ;
#783 = EDGE_CURVE ( 'NONE', #924, #217, #1001, .T. ) ;
#784 = VERTEX_POINT ( 'NONE', #514 ) ;
#785 = FACE_OUTER_BOUND ( 'NONE', #181, .T. ) ;
#786 = CARTESIAN_POINT ( 'NONE',  ( 40.00000000000001421, -3.516416778135391510E-16, -10.39994919989798561 ) ) ;
#787 = MANIFOLD_SOLID_BREP ( '\X2\570689d2\X0\2', #909 ) ;
#788 = CARTESIAN_POINT ( 'NONE',  ( 16.40000000000004476, -150.0144195133372023, 0.000000000000000000 ) ) ;
#789 = DIRECTION ( 'NONE',  ( 0.000000000000000000, 0.000000000000000000, 1.000000000000000000 ) ) ;
#790 = VECTOR ( 'NONE', #708, 1000.000000000000000 ) ;
#791 = VERTEX_POINT ( 'NONE', #186 ) ;
#792 = CARTESIAN_POINT ( 'NONE',  ( 20.00000000000003908, -120.0000000000000000, 8.000000000000000000 ) ) ;
#793 = CIRCLE ( 'NONE', #52, 10.00000000000000178 ) ;
#794 = EDGE_CURVE ( 'NONE', #1046, #1118, #901, .T. ) ;
#795 = CIRCLE ( 'NONE', #995, 3.000000000000006217 ) ;
#796 = FACE_OUTER_BOUND ( 'NONE', #487, .T. ) ;
#797 = LINE ( 'NONE', #537, #790 ) ;
#798 = DIRECTION ( 'NONE',  ( 1.000000000000000000, 0.000000000000000000, -0.000000000000000000 ) ) ;
#799 = ORIENTED_EDGE ( 'NONE', *, *, #66, .F. ) ;
#800 = CARTESIAN_POINT ( 'NONE',  ( 40.00000000000002132, -160.0000000000000000, 8.000000000000000000 ) ) ;
#801 = LINE ( 'NONE', #786, #1016 ) ;
#802 = ADVANCED_FACE ( 'NONE', ( #280 ), #961, .F. ) ;
#803 = FACE_OUTER_BOUND ( 'NONE', #355, .T. ) ;
#804 = CARTESIAN_POINT ( 'NONE',  ( 2.081668171172168513E-14, -125.0000000000000000, 8.000000000000000000 ) ) ;
#805 = ORIENTED_EDGE ( 'NONE', *, *, #560, .F. ) ;
#806 = ORIENTED_EDGE ( 'NONE', *, *, #614, .F. ) ;
#807 = FACE_OUTER_BOUND ( 'NONE', #279, .T. ) ;
#808 = ADVANCED_FACE ( 'NONE', ( #361 ), #757, .F. ) ;
#809 = CARTESIAN_POINT ( 'NONE',  ( 0.000000000000000000, 0.000000000000000000, 8.000000000000000000 ) ) ;
#810 = VERTEX_POINT ( 'NONE', #658 ) ;
#811 = DIRECTION ( 'NONE',  ( 1.000000000000000000, 0.000000000000000000, 0.000000000000000000 ) ) ;
#812 = ORIENTED_EDGE ( 'NONE', *, *, #175, .F. ) ;
#813 = CARTESIAN_POINT ( 'NONE',  ( 33.60000000000000853, -150.0144195133372023, 5.000000000000000000 ) ) ;
#814 = AXIS2_PLACEMENT_3D ( 'NONE', #996, #898, #1181 ) ;
#815 = VECTOR ( 'NONE', #1101, 1000.000000000000000 ) ;
#816 = VECTOR ( 'NONE', #822, 1000.000000000000000 ) ;
#817 = CARTESIAN_POINT ( 'NONE',  ( 40.00000000000001421, -130.0288390266744614, -10.39994919989798738 ) ) ;
#818 = ORIENTED_EDGE ( 'NONE', *, *, #282, .T. ) ;
#819 = DIRECTION ( 'NONE',  ( 1.000000000000000000, 0.000000000000000000, 0.000000000000000000 ) ) ;
#820 = VERTEX_POINT ( 'NONE', #857 ) ;
#821 = FACE_OUTER_BOUND ( 'NONE', #261, .T. ) ;
#822 = DIRECTION ( 'NONE',  ( -1.000000000000000000, -0.000000000000000000, -0.000000000000000000 ) ) ;
#823 = ORIENTED_EDGE ( 'NONE', *, *, #759, .T. ) ;
#824 = FACE_OUTER_BOUND ( 'NONE', #285, .T. ) ;
#825 = EDGE_CURVE ( 'NONE', #46, #258, #554, .T. ) ;
#826 = ORIENTED_EDGE ( 'NONE', *, *, #1002, .F. ) ;
#827 = LINE ( 'NONE', #1184, #774 ) ;
#828 = ORIENTED_EDGE ( 'NONE', *, *, #44, .T. ) ;
#829 = DIRECTION ( 'NONE',  ( -0.000000000000000000, -0.000000000000000000, 1.000000000000000000 ) ) ;
#830 = VECTOR ( 'NONE', #1085, 1000.000000000000000 ) ;
#831 = AXIS2_PLACEMENT_3D ( 'NONE', #976, #1074, #882 ) ;
#832 = VECTOR ( 'NONE', #625, 1000.000000000000000 ) ;
#833 = LINE ( 'NONE', #954, #568 ) ;
#834 = AXIS2_PLACEMENT_3D ( 'NONE', #1083, #382, #798 ) ;
#835 = ORIENTED_EDGE ( 'NONE', *, *, #1196, .T. ) ;
#836 = SURFACE_STYLE_FILL_AREA ( #752 ) ;
#837 = ORIENTED_EDGE ( 'NONE', *, *, #742, .F. ) ;
#838 = DIRECTION ( 'NONE',  ( 1.000000000000000000, 0.000000000000000000, 0.000000000000000000 ) ) ;
#839 = EDGE_CURVE ( 'NONE', #115, #217, #196, .T. ) ;
#840 = DIRECTION ( 'NONE',  ( -0.000000000000000000, -0.000000000000000000, 1.000000000000000000 ) ) ;
#841 = EDGE_CURVE ( 'NONE', #64, #732, #685, .T. ) ;
#842 = EDGE_LOOP ( 'NONE', ( #303, #1077, #572, #651 ) ) ;
#843 = VERTEX_POINT ( 'NONE', #936 ) ;
#844 = DIRECTION ( 'NONE',  ( 1.000000000000000000, 0.000000000000000000, 0.000000000000000000 ) ) ;
#845 = PLANE ( 'NONE',  #1229 ) ;
#846 = EDGE_CURVE ( 'NONE', #452, #730, #386, .T. ) ;
#847 = EDGE_CURVE ( 'NONE', #791, #631, #956, .T. ) ;
#848 = ORIENTED_EDGE ( 'NONE', *, *, #794, .T. ) ;
#849 = SURFACE_SIDE_STYLE ('',( #836 ) ) ;
#850 = ORIENTED_EDGE ( 'NONE', *, *, #646, .T. ) ;
#851 = CARTESIAN_POINT ( 'NONE',  ( 35.00000000000001421, -150.0144195133372023, 5.000000000000000000 ) ) ;
#852 = CIRCLE ( 'NONE', #305, 3.000000000000006217 ) ;
#853 = UNCERTAINTY_MEASURE_WITH_UNIT (LENGTH_MEASURE( 1.000000000000000082E-05 ), #1218, 'distance_accuracy_value', 'NONE');
#854 = APPLICATION_PROTOCOL_DEFINITION ( 'draft international standard', 'automotive_design', 1998, #746 ) ;
#855 = AXIS2_PLACEMENT_3D ( 'NONE', #792, #312, #411 ) ;
#856 = ORIENTED_EDGE ( 'NONE', *, *, #365, .T. ) ;
#857 = CARTESIAN_POINT ( 'NONE',  ( -1.599999999999981215, -125.0000000000000000, 5.000000000000000000 ) ) ;
#858 = AXIS2_PLACEMENT_3D ( 'NONE', #1021, #518, #51 ) ;
#859 = ORIENTED_EDGE ( 'NONE', *, *, #915, .T. ) ;
#860 = CARTESIAN_POINT ( 'NONE',  ( 20.00000000000001776, -130.0288390266744329, -10.39994919989799271 ) ) ;
#861 = CARTESIAN_POINT ( 'NONE',  ( 20.00000000000001776, -130.0288390266744329, 5.000000000000000000 ) ) ;
#862 =( LENGTH_UNIT ( ) NAMED_UNIT ( * ) SI_UNIT ( .MILLI., .METRE. ) );
#863 = ORIENTED_EDGE ( 'NONE', *, *, #1081, .F. ) ;
#864 = DIRECTION ( 'NONE',  ( 0.000000000000000000, 0.000000000000000000, 1.000000000000000000 ) ) ;
#865 = EDGE_LOOP ( 'NONE', ( #823, #630 ) ) ;
#866 = DIRECTION ( 'NONE',  ( 1.083861961953352097E-16, 8.284291026348735062E-18, -1.000000000000000000 ) ) ;
#867 = CARTESIAN_POINT ( 'NONE',  ( -9.999999999999987566, -110.0000000000000000, 8.000000000000000000 ) ) ;
#868 = CARTESIAN_POINT ( 'NONE',  ( 40.00000000000000711, -120.0000000000000000, 8.000000000000000000 ) ) ;
#869 = LINE ( 'NONE', #11, #666 ) ;
#870 = ORIENTED_EDGE ( 'NONE', *, *, #692, .F. ) ;
#871 = CARTESIAN_POINT ( 'NONE',  ( 2.081668171172168513E-14, -125.0000000000000000, 5.000000000000000000 ) ) ;
#872 = EDGE_CURVE ( 'NONE', #168, #1136, #1051, .T. ) ;
#873 = CARTESIAN_POINT ( 'NONE',  ( 18.00000000000003908, -150.0144195133372023, 8.000000000000000000 ) ) ;
#874 = DIRECTION ( 'NONE',  ( 1.000000000000000000, 0.000000000000000000, 0.000000000000000000 ) ) ;
#875 = VECTOR ( 'NONE', #771, 1000.000000000000000 ) ;
#876 = DIRECTION ( 'NONE',  ( 1.000000000000000000, 0.000000000000000000, 0.000000000000000000 ) ) ;
#877 = AXIS2_PLACEMENT_3D ( 'NONE', #462, #1043, #552 ) ;
#878 = ADVANCED_FACE ( 'NONE', ( #192 ), #743, .F. ) ;
#879 = DIRECTION ( 'NONE',  ( -0.000000000000000000, 0.000000000000000000, 1.000000000000000000 ) ) ;
#880 = DIRECTION ( 'NONE',  ( 0.000000000000000000, 0.000000000000000000, 1.000000000000000000 ) ) ;
#881 = ORIENTED_EDGE ( 'NONE', *, *, #596, .F. ) ;
#882 = DIRECTION ( 'NONE',  ( -1.000000000000000000, 0.000000000000000000, 0.000000000000000000 ) ) ;
#883 = DIRECTION ( 'NONE',  ( -0.000000000000000000, -0.000000000000000000, 1.000000000000000000 ) ) ;
#884 = DIRECTION ( 'NONE',  ( 1.000000000000000000, 0.000000000000000000, 0.000000000000000000 ) ) ;
#885 = VERTEX_POINT ( 'NONE', #549 ) ;
#886 = DIRECTION ( 'NONE',  ( 1.000000000000000000, 0.000000000000000000, 0.000000000000000000 ) ) ;
#887 = CYLINDRICAL_SURFACE ( 'NONE', #955, 1.599999999999993872 ) ;
#888 = PLANE ( 'NONE',  #931 ) ;
#889 = FACE_OUTER_BOUND ( 'NONE', #550, .T. ) ;
#890 = ORIENTED_EDGE ( 'NONE', *, *, #841, .T. ) ;
#891 = LINE ( 'NONE', #800, #1130 ) ;
#892 = AXIS2_PLACEMENT_3D ( 'NONE', #985, #594, #19 ) ;
#893 = AXIS2_PLACEMENT_3D ( 'NONE', #1119, #542, #373 ) ;
#894 = DIRECTION ( 'NONE',  ( 1.083861961953352097E-16, 8.284291026348735062E-18, -1.000000000000000000 ) ) ;
#895 = DIRECTION ( 'NONE',  ( -0.000000000000000000, -0.000000000000000000, -1.000000000000000000 ) ) ;
#896 = DIRECTION ( 'NONE',  ( 1.000000000000000000, 0.000000000000000000, 0.000000000000000000 ) ) ;
#897 = EDGE_LOOP ( 'NONE', ( #414, #756, #185, #171 ) ) ;
#898 = DIRECTION ( 'NONE',  ( 0.000000000000000000, 0.000000000000000000, 1.000000000000000000 ) ) ;
#899 = CARTESIAN_POINT ( 'NONE',  ( 35.00000000000001421, -150.0144195133372023, 8.000000000000000000 ) ) ;
#900 = EDGE_LOOP ( 'NONE', ( #410, #17 ) ) ;
#901 = LINE ( 'NONE', #652, #228 ) ;
#902 = ORIENTED_EDGE ( 'NONE', *, *, #742, .T. ) ;
#903 = CYLINDRICAL_SURFACE ( 'NONE', #405, 3.000000000000006217 ) ;
#904 = EDGE_CURVE ( 'NONE', #1093, #258, #1072, .T. ) ;
#905 = DIRECTION ( 'NONE',  ( 1.000000000000000000, 0.000000000000000000, 0.000000000000000000 ) ) ;
#906 = CARTESIAN_POINT ( 'NONE',  ( 30.00000000000000711, -110.0000000000000000, 8.000000000000000000 ) ) ;
#907 = ORIENTED_EDGE ( 'NONE', *, *, #425, .T. ) ;
#908 = CARTESIAN_POINT ( 'NONE',  ( 10.00000000000003730, -110.0000000000000000, 0.000000000000000000 ) ) ;
#909 = CLOSED_SHELL ( 'NONE', ( #297, #402, #1117, #634, #767, #400, #584, #710, #802, #808, #878, #221, #159, #1041, #313, #1032, #8, #246, #110, #20, #1020, #266, #969, #418, #331, #701, #465, #1098, #481, #39, #199, #34, #724, #938, #239, #979, #1182, #649, #683 ) ) ;
#910 = ORIENTED_EDGE ( 'NONE', *, *, #692, .T. ) ;
#911 = CYLINDRICAL_SURFACE ( 'NONE', #444, 3.000000000000003109 ) ;
#912 = VECTOR ( 'NONE', #417, 1000.000000000000000 ) ;
#913 = STYLED_ITEM ( 'NONE', ( #763 ), #787 ) ;
#914 = VECTOR ( 'NONE', #1025, 1000.000000000000000 ) ;
#915 = EDGE_CURVE ( 'NONE', #631, #1093, #1160, .T. ) ;
#916 = CARTESIAN_POINT ( 'NONE',  ( 2.081668171172168513E-14, -145.0000000000000284, 8.000000000000000000 ) ) ;
#917 = ORIENTED_EDGE ( 'NONE', *, *, #101, .T. ) ;
#918 = DIRECTION ( 'NONE',  ( 1.000000000000000000, 0.000000000000000000, 0.000000000000000000 ) ) ;
#919 = ORIENTED_EDGE ( 'NONE', *, *, #212, .T. ) ;
#920 = DIRECTION ( 'NONE',  ( 1.083861961953352097E-16, 8.284291026348735062E-18, -1.000000000000000000 ) ) ;
#921 = LINE ( 'NONE', #999, #99 ) ;
#922 = ORIENTED_EDGE ( 'NONE', *, *, #596, .T. ) ;
#923 = DIRECTION ( 'NONE',  ( -1.000000000000000000, 0.000000000000000000, 0.000000000000000000 ) ) ;
#924 = VERTEX_POINT ( 'NONE', #1172 ) ;
#925 = LINE ( 'NONE', #170, #729 ) ;
#926 = ORIENTED_EDGE ( 'NONE', *, *, #483, .T. ) ;
#927 = CARTESIAN_POINT ( 'NONE',  ( 10.00000000000004086, -140.0288390266744614, 0.000000000000000000 ) ) ;
#928 = EDGE_CURVE ( 'NONE', #1227, #843, #22, .T. ) ;
#929 = ORIENTED_EDGE ( 'NONE', *, *, #83, .T. ) ;
#930 = DIRECTION ( 'NONE',  ( -0.000000000000000000, -0.000000000000000000, -1.000000000000000000 ) ) ;
#931 = AXIS2_PLACEMENT_3D ( 'NONE', #295, #1070, #108 ) ;
#932 = EDGE_CURVE ( 'NONE', #421, #944, #271, .T. ) ;
#933 = CYLINDRICAL_SURFACE ( 'NONE', #1106, 9.999999999999998224 ) ;
#934 = CIRCLE ( 'NONE', #1169, 3.000000000000002665 ) ;
#935 = ORIENTED_EDGE ( 'NONE', *, *, #319, .F. ) ;
#936 = CARTESIAN_POINT ( 'NONE',  ( 1.561251128379126385E-14, -160.0000000000000000, 0.000000000000000000 ) ) ;
#937 = ORIENTED_EDGE ( 'NONE', *, *, #1146, .T. ) ;
#938 = ADVANCED_FACE ( 'NONE', ( #889, #1166 ), #1064, .F. ) ;
#939 = CARTESIAN_POINT ( 'NONE',  ( 2.081668171172168513E-14, -145.0000000000000284, 5.000000000000000000 ) ) ;
#940 = CARTESIAN_POINT ( 'NONE',  ( 3.000000000000023981, -145.0000000000000284, 5.000000000000000000 ) ) ;
#941 = DIRECTION ( 'NONE',  ( 0.000000000000000000, 0.000000000000000000, 1.000000000000000000 ) ) ;
#942 = ORIENTED_EDGE ( 'NONE', *, *, #707, .T. ) ;
#943 =( NAMED_UNIT ( * ) PLANE_ANGLE_UNIT ( ) SI_UNIT ( $, .RADIAN. ) );
#944 = VERTEX_POINT ( 'NONE', #123 ) ;
#945 = DIRECTION ( 'NONE',  ( -0.000000000000000000, 0.000000000000000000, 1.000000000000000000 ) ) ;
#946 = EDGE_CURVE ( 'NONE', #571, #173, #409, .T. ) ;
#947 = PRODUCT_CONTEXT ( 'NONE', #746, 'mechanical' ) ;
#948 = EDGE_CURVE ( 'NONE', #147, #529, #974, .T. ) ;
#949 = ORIENTED_EDGE ( 'NONE', *, *, #516, .F. ) ;
#950 = ORIENTED_EDGE ( 'NONE', *, *, #1017, .F. ) ;
#951 = DIRECTION ( 'NONE',  ( 1.000000000000000000, 0.000000000000000000, 0.000000000000000000 ) ) ;
#952 = CYLINDRICAL_SURFACE ( 'NONE', #727, 3.000000000000002665 ) ;
#953 = VECTOR ( 'NONE', #669, 1000.000000000000000 ) ;
#954 = CARTESIAN_POINT ( 'NONE',  ( 20.00000000000003908, -110.0000000000000000, 8.000000000000000000 ) ) ;
#955 = AXIS2_PLACEMENT_3D ( 'NONE', #397, #1158, #314 ) ;
#956 = CIRCLE ( 'NONE', #567, 9.999999999999998224 ) ;
#957 = ORIENTED_EDGE ( 'NONE', *, *, #660, .T. ) ;
#958 =( NAMED_UNIT ( * ) SI_UNIT ( $, .STERADIAN. ) SOLID_ANGLE_UNIT ( ) );
#959 = AXIS2_PLACEMENT_3D ( 'NONE', #916, #341, #1206 ) ;
#960 = DIRECTION ( 'NONE',  ( 3.474456949786320671E-16, -1.000000000000000000, 0.000000000000000000 ) ) ;
#961 = CYLINDRICAL_SURFACE ( 'NONE', #156, 1.600000000000002087 ) ;
#962 = ORIENTED_EDGE ( 'NONE', *, *, #1124, .F. ) ;
#963 = FACE_OUTER_BOUND ( 'NONE', #1044, .T. ) ;
#964 = CARTESIAN_POINT ( 'NONE',  ( 30.00000000000001066, -140.0288390266744614, -10.39994919989798916 ) ) ;
#965 = FACE_BOUND ( 'NONE', #368, .T. ) ;
#966 = FACE_BOUND ( 'NONE', #391, .T. ) ;
#967 = EDGE_LOOP ( 'NONE', ( #275, #434 ) ) ;
#968 = EDGE_CURVE ( 'NONE', #730, #452, #1213, .T. ) ;
#969 = ADVANCED_FACE ( 'NONE', ( #688, #204 ), #218, .T. ) ;
#970 = AXIS2_PLACEMENT_3D ( 'NONE', #32, #408, #1159 ) ;
#971 = AXIS2_PLACEMENT_3D ( 'NONE', #379, #764, #1144 ) ;
#972 = FACE_OUTER_BOUND ( 'NONE', #339, .T. ) ;
#973 = FACE_BOUND ( 'NONE', #1197, .T. ) ;
#974 = CIRCLE ( 'NONE', #524, 1.599999999999994316 ) ;
#975 = ORIENTED_EDGE ( 'NONE', *, *, #846, .F. ) ;
#976 = CARTESIAN_POINT ( 'NONE',  ( 18.00000000000003908, -150.0144195133372023, 8.000000000000000000 ) ) ;
#977 = CIRCLE ( 'NONE', #78, 3.000000000000003109 ) ;
#978 = LINE ( 'NONE', #255, #641 ) ;
#979 = ADVANCED_FACE ( 'NONE', ( #316 ), #576, .F. ) ;
#980 = UNCERTAINTY_MEASURE_WITH_UNIT (LENGTH_MEASURE( 1.000000000000000082E-05 ), #862, 'distance_accuracy_value', 'NONE');
#981 = CARTESIAN_POINT ( 'NONE',  ( 23.00000000000002132, -130.0288390266744329, 5.000000000000000000 ) ) ;
#982 = DIRECTION ( 'NONE',  ( 0.000000000000000000, 0.000000000000000000, 1.000000000000000000 ) ) ;
#983 = VERTEX_POINT ( 'NONE', #222 ) ;
#984 = CARTESIAN_POINT ( 'NONE',  ( 32.00000000000001421, -150.0144195133372023, 5.000000000000000000 ) ) ;
#985 = CARTESIAN_POINT ( 'NONE',  ( 18.00000000000003908, -150.0144195133372023, 5.000000000000000000 ) ) ;
#986 = ORIENTED_EDGE ( 'NONE', *, *, #290, .T. ) ;
#987 = DIRECTION ( 'NONE',  ( 1.000000000000000000, 0.000000000000000000, 1.734723475976807341E-16 ) ) ;
#988 = ORIENTED_EDGE ( 'NONE', *, *, #1222, .T. ) ;
#989 = LINE ( 'NONE', #229, #95 ) ;
#990 = DIRECTION ( 'NONE',  ( 1.000000000000000000, 0.000000000000000000, 0.000000000000000000 ) ) ;
#991 = AXIS2_PLACEMENT_3D ( 'NONE', #203, #398, #16 ) ;
#992 = VECTOR ( 'NONE', #883, 1000.000000000000000 ) ;
#993 = VERTEX_POINT ( 'NONE', #1151 ) ;
#994 = CIRCLE ( 'NONE', #226, 1.599999999999997202 ) ;
#995 = AXIS2_PLACEMENT_3D ( 'NONE', #392, #401, #210 ) ;
#996 = CARTESIAN_POINT ( 'NONE',  ( 32.00000000000001421, -150.0144195133372023, 8.000000000000000000 ) ) ;
#997 = CIRCLE ( 'NONE', #308, 3.000000000000002665 ) ;
#998 = DIRECTION ( 'NONE',  ( 0.000000000000000000, 0.000000000000000000, 1.000000000000000000 ) ) ;
#999 = CARTESIAN_POINT ( 'NONE',  ( 30.40000000000001990, -150.0144195133372023, 8.000000000000000000 ) ) ;
#1000 = ORIENTED_EDGE ( 'NONE', *, *, #165, .F. ) ;
#1001 = LINE ( 'NONE', #908, #1149 ) ;
#1002 = EDGE_CURVE ( 'NONE', #1180, #5, #583, .T. ) ;
#1003 = VERTEX_POINT ( 'NONE', #395 ) ;
#1004 = ADVANCED_BREP_SHAPE_REPRESENTATION ( 'L\X2\578b8fde63a54ef6\X0\_\X2\5e9590e8\X0\_\X2\53f3\X0\', ( #787, #877 ), #176 ) ;
#1005 = DIRECTION ( 'NONE',  ( -1.000000000000000000, -0.000000000000000000, -0.000000000000000000 ) ) ;
#1006 = DIRECTION ( 'NONE',  ( 0.000000000000000000, -0.000000000000000000, 1.000000000000000000 ) ) ;
#1007 = CARTESIAN_POINT ( 'NONE',  ( -9.999999999999987566, -110.0000000000000000, 0.000000000000000000 ) ) ;
#1008 = ORIENTED_EDGE ( 'NONE', *, *, #707, .F. ) ;
#1009 = DIRECTION ( 'NONE',  ( 1.000000000000000000, 0.000000000000000000, 0.000000000000000000 ) ) ;
#1010 = ORIENTED_EDGE ( 'NONE', *, *, #794, .F. ) ;
#1011 = EDGE_CURVE ( 'NONE', #458, #1173, #470, .T. ) ;
#1012 = DIRECTION ( 'NONE',  ( 0.000000000000000000, 0.000000000000000000, 1.000000000000000000 ) ) ;
#1013 = ORIENTED_EDGE ( 'NONE', *, *, #345, .T. ) ;
#1014 = DIRECTION ( 'NONE',  ( 0.000000000000000000, 0.000000000000000000, 1.000000000000000000 ) ) ;
#1015 = FACE_BOUND ( 'NONE', #36, .T. ) ;
#1016 = VECTOR ( 'NONE', #43, 1000.000000000000000 ) ;
#1017 = EDGE_CURVE ( 'NONE', #179, #1180, #869, .T. ) ;
#1018 = AXIS2_PLACEMENT_3D ( 'NONE', #717, #611, #918 ) ;
#1019 = AXIS2_PLACEMENT_3D ( 'NONE', #296, #399, #1071 ) ;
#1020 = ADVANCED_FACE ( 'NONE', ( #670 ), #1060, .F. ) ;
#1021 = CARTESIAN_POINT ( 'NONE',  ( 18.00000000000003908, -150.0144195133372023, 0.000000000000000000 ) ) ;
#1022 = ORIENTED_EDGE ( 'NONE', *, *, #23, .F. ) ;
#1023 = CYLINDRICAL_SURFACE ( 'NONE', #1167, 3.000000000000002665 ) ;
#1024 = FACE_OUTER_BOUND ( 'NONE', #744, .T. ) ;
#1025 = DIRECTION ( 'NONE',  ( 0.000000000000000000, -0.000000000000000000, 1.000000000000000000 ) ) ;
#1026 = EDGE_LOOP ( 'NONE', ( #613, #711, #705, #1143, #140, #473, #689, #154, #423, #805 ) ) ;
#1027 = DIRECTION ( 'NONE',  ( -0.000000000000000000, -0.000000000000000000, 1.000000000000000000 ) ) ;
#1028 = EDGE_LOOP ( 'NONE', ( #135, #592, #718, #1034 ) ) ;
#1029 = CARTESIAN_POINT ( 'NONE',  ( 32.00000000000001421, -150.0144195133372023, 8.000000000000000000 ) ) ;
#1030 = CARTESIAN_POINT ( 'NONE',  ( 23.00000000000002132, -130.0288390266744329, 5.000000000000000000 ) ) ;
#1031 = DIRECTION ( 'NONE',  ( 0.000000000000000000, 0.000000000000000000, 1.000000000000000000 ) ) ;
#1032 = ADVANCED_FACE ( 'NONE', ( #966, #114, #675, #973, #120, #492 ), #509, .T. ) ;
#1033 = EDGE_LOOP ( 'NONE', ( #826, #377 ) ) ;
#1034 = ORIENTED_EDGE ( 'NONE', *, *, #1002, .T. ) ;
#1035 = CIRCLE ( 'NONE', #348, 1.599999999999997202 ) ;
#1036 = CARTESIAN_POINT ( 'NONE',  ( -9.999999999999987566, -110.0000000000000000, 8.000000000000000000 ) ) ;
#1037 = AXIS2_PLACEMENT_3D ( 'NONE', #777, #501, #33 ) ;
#1038 = VERTEX_POINT ( 'NONE', #906 ) ;
#1039 = DIRECTION ( 'NONE',  ( 0.000000000000000000, 0.000000000000000000, 1.000000000000000000 ) ) ;
#1040 = ORIENTED_EDGE ( 'NONE', *, *, #780, .T. ) ;
#1041 = ADVANCED_FACE ( 'NONE', ( #132 ), #512, .F. ) ;
#1042 = DIRECTION ( 'NONE',  ( 1.000000000000000000, 0.000000000000000000, 0.000000000000000000 ) ) ;
#1043 = DIRECTION ( 'NONE',  ( 0.000000000000000000, 0.000000000000000000, 1.000000000000000000 ) ) ;
#1044 = EDGE_LOOP ( 'NONE', ( #598, #577 ) ) ;
#1045 = SURFACE_STYLE_USAGE ( .BOTH. , #849 ) ;
#1046 = VERTEX_POINT ( 'NONE', #146 ) ;
#1047 = CARTESIAN_POINT ( 'NONE',  ( 21.00000000000004619, -150.0144195133372023, 5.000000000000000000 ) ) ;
#1048 = DIRECTION ( 'NONE',  ( -0.000000000000000000, -0.000000000000000000, 1.000000000000000000 ) ) ;
#1049 = EDGE_CURVE ( 'NONE', #732, #64, #388, .T. ) ;
#1050 = EDGE_LOOP ( 'NONE', ( #890, #534 ) ) ;
#1051 = LINE ( 'NONE', #81, #540 ) ;
#1052 = VECTOR ( 'NONE', #895, 1000.000000000000000 ) ;
#1053 = AXIS2_PLACEMENT_3D ( 'NONE', #860, #866, #844 ) ;
#1054 = VERTEX_POINT ( 'NONE', #899 ) ;
#1055 = ORIENTED_EDGE ( 'NONE', *, *, #28, .T. ) ;
#1056 = FACE_BOUND ( 'NONE', #57, .T. ) ;
#1057 = DIRECTION ( 'NONE',  ( -0.000000000000000000, -0.000000000000000000, -1.000000000000000000 ) ) ;
#1058 = EDGE_CURVE ( 'NONE', #1178, #59, #1191, .T. ) ;
#1059 = CARTESIAN_POINT ( 'NONE',  ( 18.40000000000001990, -130.0288390266744329, 4.999999999999997335 ) ) ;
#1060 = PLANE ( 'NONE',  #137 ) ;
#1061 = ORIENTED_EDGE ( 'NONE', *, *, #660, .F. ) ;
#1062 = CARTESIAN_POINT ( 'NONE',  ( 21.60000000000001563, -130.0288390266744329, -52.84675324083757886 ) ) ;
#1063 = VERTEX_POINT ( 'NONE', #45 ) ;
#1064 = PLANE ( 'NONE',  #1037 ) ;
#1065 = PRODUCT_RELATED_PRODUCT_CATEGORY ( 'part', '', ( #573 ) ) ;
#1066 = ORIENTED_EDGE ( 'NONE', *, *, #276, .F. ) ;
#1067 = CYLINDRICAL_SURFACE ( 'NONE', #602, 3.000000000000006217 ) ;
#1068 = EDGE_CURVE ( 'NONE', #1207, #1038, #118, .T. ) ;
#1069 = CIRCLE ( 'NONE', #814, 3.000000000000002665 ) ;
#1070 = DIRECTION ( 'NONE',  ( 0.000000000000000000, 1.000000000000000000, -0.000000000000000000 ) ) ;
#1071 = DIRECTION ( 'NONE',  ( 1.000000000000000000, 0.000000000000000000, 0.000000000000000000 ) ) ;
#1072 = CIRCLE ( 'NONE', #1231, 9.999999999999998224 ) ;
#1073 = EDGE_LOOP ( 'NONE', ( #1089, #416, #263, #812 ) ) ;
#1074 = DIRECTION ( 'NONE',  ( -0.000000000000000000, -0.000000000000000000, -1.000000000000000000 ) ) ;
#1075 = AXIS2_PLACEMENT_3D ( 'NONE', #273, #1223, #100 ) ;
#1076 = EDGE_CURVE ( 'NONE', #1118, #762, #997, .T. ) ;
#1077 = ORIENTED_EDGE ( 'NONE', *, *, #765, .T. ) ;
#1078 = CARTESIAN_POINT ( 'NONE',  ( -4.600647630646226133E-15, -110.0000000000000000, -10.39994919989799271 ) ) ;
#1079 = ORIENTED_EDGE ( 'NONE', *, *, #932, .F. ) ;
#1080 = LINE ( 'NONE', #503, #507 ) ;
#1081 = EDGE_CURVE ( 'NONE', #317, #983, #827, .T. ) ;
#1082 = LINE ( 'NONE', #1030, #1185 ) ;
#1083 = CARTESIAN_POINT ( 'NONE',  ( 32.00000000000001421, -150.0144195133372023, 5.000000000000000000 ) ) ;
#1084 = VERTEX_POINT ( 'NONE', #1195 ) ;
#1085 = DIRECTION ( 'NONE',  ( -0.000000000000000000, -0.000000000000000000, 1.000000000000000000 ) ) ;
#1086 = EDGE_CURVE ( 'NONE', #115, #885, #329, .T. ) ;
#1087 = LINE ( 'NONE', #547, #914 ) ;
#1088 = VECTOR ( 'NONE', #599, 1000.000000000000000 ) ;
#1089 = ORIENTED_EDGE ( 'NONE', *, *, #256, .T. ) ;
#1090 = FACE_OUTER_BOUND ( 'NONE', #1028, .T. ) ;
#1091 = AXIS2_PLACEMENT_3D ( 'NONE', #262, #1039, #636 ) ;
#1092 = CIRCLE ( 'NONE', #1075, 9.999999999999998224 ) ;
#1093 = VERTEX_POINT ( 'NONE', #817 ) ;
#1094 = DIRECTION ( 'NONE',  ( 0.000000000000000000, 0.000000000000000000, 1.000000000000000000 ) ) ;
#1095 = DIRECTION ( 'NONE',  ( -0.000000000000000000, 0.000000000000000000, 1.000000000000000000 ) ) ;
#1096 = EDGE_LOOP ( 'NONE', ( #723, #926 ) ) ;
#1097 = CARTESIAN_POINT ( 'NONE',  ( 2.081668171172168513E-14, -145.0000000000000284, 5.000000000000000000 ) ) ;
#1098 = ADVANCED_FACE ( 'NONE', ( #236 ), #1112, .F. ) ;
#1099 = CYLINDRICAL_SURFACE ( 'NONE', #429, 3.000000000000003109 ) ;
#1100 = ORIENTED_EDGE ( 'NONE', *, *, #1204, .T. ) ;
#1101 = DIRECTION ( 'NONE',  ( 0.000000000000000000, 0.000000000000000000, 1.000000000000000000 ) ) ;
#1102 = EDGE_CURVE ( 'NONE', #1136, #1054, #934, .T. ) ;
#1103 = CARTESIAN_POINT ( 'NONE',  ( 2.081668171172168513E-14, -145.0000000000000284, 5.000000000000000000 ) ) ;
#1104 = ORIENTED_EDGE ( 'NONE', *, *, #654, .T. ) ;
#1105 = FACE_OUTER_BOUND ( 'NONE', #1125, .T. ) ;
#1106 = AXIS2_PLACEMENT_3D ( 'NONE', #77, #998, #604 ) ;
#1107 = ORIENTED_EDGE ( 'NONE', *, *, #359, .T. ) ;
#1108 = VECTOR ( 'NONE', #1200, 1000.000000000000000 ) ;
#1109 = MECHANICAL_DESIGN_GEOMETRIC_PRESENTATION_REPRESENTATION (  '', ( #913 ), #98 ) ;
#1110 = AXIS2_PLACEMENT_3D ( 'NONE', #761, #278, #740 ) ;
#1111 = EDGE_CURVE ( 'NONE', #993, #730, #921, .T. ) ;
#1112 = CYLINDRICAL_SURFACE ( 'NONE', #1152, 3.000000000000003109 ) ;
#1113 = ORIENTED_EDGE ( 'NONE', *, *, #428, .T. ) ;
#1114 = DIRECTION ( 'NONE',  ( 1.000000000000000000, 1.155371657516204016E-16, -0.000000000000000000 ) ) ;
#1115 = ORIENTED_EDGE ( 'NONE', *, *, #367, .T. ) ;
#1116 = LINE ( 'NONE', #511, #748 ) ;
#1117 = ADVANCED_FACE ( 'NONE', ( #715 ), #1099, .F. ) ;
#1118 = VERTEX_POINT ( 'NONE', #1177 ) ;
#1119 = CARTESIAN_POINT ( 'NONE',  ( 18.00000000000003908, -150.0144195133372023, 0.000000000000000000 ) ) ;
#1120 = VERTEX_POINT ( 'NONE', #62 ) ;
#1121 = DIRECTION ( 'NONE',  ( 0.000000000000000000, 0.000000000000000000, 1.000000000000000000 ) ) ;
#1122 = CARTESIAN_POINT ( 'NONE',  ( 20.00000000000004263, -130.0288390266744614, -10.39994919989799271 ) ) ;
#1123 = CARTESIAN_POINT ( 'NONE',  ( 1.600000000000014966, -145.0000000000000284, 0.000000000000000000 ) ) ;
#1124 = EDGE_CURVE ( 'NONE', #29, #1046, #447, .T. ) ;
#1125 = EDGE_LOOP ( 'NONE', ( #751, #565, #245, #671 ) ) ;
#1126 = DIRECTION ( 'NONE',  ( 0.000000000000000000, 0.000000000000000000, 1.000000000000000000 ) ) ;
#1127 = ORIENTED_EDGE ( 'NONE', *, *, #735, .F. ) ;
#1128 = CIRCLE ( 'NONE', #539, 3.000000000000003109 ) ;
#1129 = DIRECTION ( 'NONE',  ( 1.000000000000000000, 0.000000000000000000, 0.000000000000000000 ) ) ;
#1130 = VECTOR ( 'NONE', #1174, 1000.000000000000000 ) ;
#1131 = AXIS2_PLACEMENT_3D ( 'NONE', #27, #789, #874 ) ;
#1132 = CARTESIAN_POINT ( 'NONE',  ( 1.561251128379126385E-14, -160.0000000000000000, 8.000000000000000000 ) ) ;
#1133 = ORIENTED_EDGE ( 'NONE', *, *, #872, .F. ) ;
#1134 = CARTESIAN_POINT ( 'NONE',  ( 20.00000000000001776, -130.0288390266744329, -52.84675324083757886 ) ) ;
#1135 = EDGE_CURVE ( 'NONE', #5, #1180, #603, .T. ) ;
#1136 = VERTEX_POINT ( 'NONE', #728 ) ;
#1137 = CARTESIAN_POINT ( 'NONE',  ( 21.60000000000001563, -130.0288390266744329, 4.999999999999997335 ) ) ;
#1138 = ORIENTED_EDGE ( 'NONE', *, *, #948, .T. ) ;
#1139 = DIRECTION ( 'NONE',  ( -0.000000000000000000, 0.000000000000000000, 1.000000000000000000 ) ) ;
#1140 = EDGE_LOOP ( 'NONE', ( #445, #657, #209, #311 ) ) ;
#1141 = CARTESIAN_POINT ( 'NONE',  ( 3.000000000000023981, -145.0000000000000284, 8.000000000000000000 ) ) ;
#1142 = DIRECTION ( 'NONE',  ( 1.000000000000000000, 0.000000000000000000, 0.000000000000000000 ) ) ;
#1143 = ORIENTED_EDGE ( 'NONE', *, *, #1086, .F. ) ;
#1144 = DIRECTION ( 'NONE',  ( 1.000000000000000000, 0.000000000000000000, 0.000000000000000000 ) ) ;
#1145 = AXIS2_PLACEMENT_3D ( 'NONE', #1122, #734, #131 ) ;
#1146 = EDGE_CURVE ( 'NONE', #1214, #240, #977, .T. ) ;
#1147 = CIRCLE ( 'NONE', #971, 1.599999999999997202 ) ;
#1148 = AXIS2_PLACEMENT_3D ( 'NONE', #871, #13, #758 ) ;
#1149 = VECTOR ( 'NONE', #141, 1000.000000000000000 ) ;
#1150 = LINE ( 'NONE', #284, #992 ) ;
#1151 = CARTESIAN_POINT ( 'NONE',  ( 30.40000000000001990, -150.0144195133372023, 5.000000000000000000 ) ) ;
#1152 = AXIS2_PLACEMENT_3D ( 'NONE', #720, #41, #257 ) ;
#1153 = DIRECTION ( 'NONE',  ( -0.000000000000000000, -0.000000000000000000, 1.000000000000000000 ) ) ;
#1154 = DIRECTION ( 'NONE',  ( 0.000000000000000000, 0.000000000000000000, 1.000000000000000000 ) ) ;
#1155 = ORIENTED_EDGE ( 'NONE', *, *, #1076, .T. ) ;
#1156 = CARTESIAN_POINT ( 'NONE',  ( 2.081668171172168513E-14, -145.0000000000000284, 8.000000000000000000 ) ) ;
#1157 = CARTESIAN_POINT ( 'NONE',  ( 20.00000000000003908, -110.0000000000000000, -10.39994919989799094 ) ) ;
#1158 = DIRECTION ( 'NONE',  ( -0.000000000000000000, -0.000000000000000000, -1.000000000000000000 ) ) ;
#1159 = DIRECTION ( 'NONE',  ( -1.000000000000000000, 0.000000000000000000, 0.000000000000000000 ) ) ;
#1160 = LINE ( 'NONE', #591, #706 ) ;
#1161 = EDGE_LOOP ( 'NONE', ( #342, #333, #863, #917 ) ) ;
#1162 = EDGE_CURVE ( 'NONE', #430, #983, #1087, .T. ) ;
#1163 = VECTOR ( 'NONE', #608, 1000.000000000000000 ) ;
#1164 = CIRCLE ( 'NONE', #620, 1.599999999999993872 ) ;
#1165 = ORIENTED_EDGE ( 'NONE', *, *, #367, .F. ) ;
#1166 = FACE_BOUND ( 'NONE', #121, .T. ) ;
#1167 = AXIS2_PLACEMENT_3D ( 'NONE', #161, #1027, #811 ) ;
#1168 = ORIENTED_EDGE ( 'NONE', *, *, #28, .F. ) ;
#1169 = AXIS2_PLACEMENT_3D ( 'NONE', #413, #623, #609 ) ;
#1170 = EDGE_CURVE ( 'NONE', #1173, #458, #753, .T. ) ;
#1171 = FACE_OUTER_BOUND ( 'NONE', #91, .T. ) ;
#1172 = CARTESIAN_POINT ( 'NONE',  ( 10.00000000000004086, -130.0288390266744614, 0.000000000000000000 ) ) ;
#1173 = VERTEX_POINT ( 'NONE', #1123 ) ;
#1174 = DIRECTION ( 'NONE',  ( -0.000000000000000000, -0.000000000000000000, -1.000000000000000000 ) ) ;
#1175 = FACE_BOUND ( 'NONE', #967, .T. ) ;
#1176 = DIRECTION ( 'NONE',  ( -0.000000000000000000, -0.000000000000000000, -1.000000000000000000 ) ) ;
#1177 = CARTESIAN_POINT ( 'NONE',  ( 17.00000000000001421, -130.0288390266744329, 8.000000000000000000 ) ) ;
#1178 = VERTEX_POINT ( 'NONE', #1137 ) ;
#1179 = CARTESIAN_POINT ( 'NONE',  ( 20.00000000000004263, -140.0288390266744614, -52.84675324083757886 ) ) ;
#1180 = VERTEX_POINT ( 'NONE', #1141 ) ;
#1181 = DIRECTION ( 'NONE',  ( 1.000000000000000000, 0.000000000000000000, 0.000000000000000000 ) ) ;
#1182 = ADVANCED_FACE ( 'NONE', ( #559 ), #749, .T. ) ;
#1183 = LINE ( 'NONE', #138, #1163 ) ;
#1184 = CARTESIAN_POINT ( 'NONE',  ( -9.999999999999987566, -110.0000000000000000, 8.000000000000000000 ) ) ;
#1185 = VECTOR ( 'NONE', #840, 1000.000000000000000 ) ;
#1186 = EDGE_CURVE ( 'NONE', #571, #115, #833, .T. ) ;
#1187 = VECTOR ( 'NONE', #1154, 1000.000000000000000 ) ;
#1188 = ORIENTED_EDGE ( 'NONE', *, *, #23, .T. ) ;
#1189 = CARTESIAN_POINT ( 'NONE',  ( 2.081668171172168513E-14, -145.0000000000000284, 8.000000000000000000 ) ) ;
#1190 = VECTOR ( 'NONE', #350, 1000.000000000000000 ) ;
#1191 = CIRCLE ( 'NONE', #289, 1.599999999999997202 ) ;
#1192 = ORIENTED_EDGE ( 'NONE', *, *, #1058, .F. ) ;
#1193 = CARTESIAN_POINT ( 'NONE',  ( 32.00000000000001421, -150.0144195133372023, 5.000000000000000000 ) ) ;
#1194 = EDGE_CURVE ( 'NONE', #924, #1120, #1092, .T. ) ;
#1195 = CARTESIAN_POINT ( 'NONE',  ( 15.00000000000003375, -150.0144195133372023, 8.000000000000000000 ) ) ;
#1196 = EDGE_CURVE ( 'NONE', #168, #281, #197, .T. ) ;
#1197 = EDGE_LOOP ( 'NONE', ( #460, #475 ) ) ;
#1198 = DIRECTION ( 'NONE',  ( 0.000000000000000000, 0.000000000000000000, 1.000000000000000000 ) ) ;
#1199 = EDGE_LOOP ( 'NONE', ( #215, #902, #772, #502 ) ) ;
#1200 = DIRECTION ( 'NONE',  ( -0.000000000000000000, -0.000000000000000000, -1.000000000000000000 ) ) ;
#1201 = DIRECTION ( 'NONE',  ( 0.000000000000000000, 0.000000000000000000, 1.000000000000000000 ) ) ;
#1202 = EDGE_LOOP ( 'NONE', ( #1113, #835 ) ) ;
#1203 = CARTESIAN_POINT ( 'NONE',  ( 23.00000000000002132, -130.0288390266744329, 8.000000000000000000 ) ) ;
#1204 = EDGE_CURVE ( 'NONE', #713, #571, #543, .T. ) ;
#1205 = ORIENTED_EDGE ( 'NONE', *, *, #1222, .F. ) ;
#1206 = DIRECTION ( 'NONE',  ( 1.000000000000000000, 0.000000000000000000, 0.000000000000000000 ) ) ;
#1207 = VERTEX_POINT ( 'NONE', #89 ) ;
#1208 = CYLINDRICAL_SURFACE ( 'NONE', #35, 1.599999999999994316 ) ;
#1209 = ORIENTED_EDGE ( 'NONE', *, *, #904, .F. ) ;
#1210 = CYLINDRICAL_SURFACE ( 'NONE', #326, 1.599999999999993872 ) ;
#1211 = VECTOR ( 'NONE', #1005, 1000.000000000000000 ) ;
#1212 = CARTESIAN_POINT ( 'NONE',  ( -9.999999999999982236, -160.0000000000000000, 8.000000000000000000 ) ) ;
#1213 = CIRCLE ( 'NONE', #1131, 1.599999999999997202 ) ;
#1214 = VERTEX_POINT ( 'NONE', #283 ) ;
#1215 = ORIENTED_EDGE ( 'NONE', *, *, #128, .F. ) ;
#1216 = CARTESIAN_POINT ( 'NONE',  ( 2.081668171172168513E-14, -125.0000000000000000, 5.000000000000000000 ) ) ;
#1217 = ORIENTED_EDGE ( 'NONE', *, *, #338, .F. ) ;
#1218 =( LENGTH_UNIT ( ) NAMED_UNIT ( * ) SI_UNIT ( .MILLI., .METRE. ) );
#1219 = VERTEX_POINT ( 'NONE', #457 ) ;
#1220 = CARTESIAN_POINT ( 'NONE',  ( 2.081668171172168513E-14, -145.0000000000000284, 5.000000000000000000 ) ) ;
#1221 = DIRECTION ( 'NONE',  ( 1.000000000000000000, 0.000000000000000000, 0.000000000000000000 ) ) ;
#1222 = EDGE_CURVE ( 'NONE', #713, #166, #164, .T. ) ;
#1223 = DIRECTION ( 'NONE',  ( -0.000000000000000000, 0.000000000000000000, 1.000000000000000000 ) ) ;
#1224 = ORIENTED_EDGE ( 'NONE', *, *, #205, .F. ) ;
#1225 = EDGE_CURVE ( 'NONE', #885, #430, #925, .T. ) ;
#1226 = CARTESIAN_POINT ( 'NONE',  ( 30.00000000000001066, -130.0288390266744614, 0.000000000000000000 ) ) ;
#1227 = VERTEX_POINT ( 'NONE', #1132 ) ;
#1228 = VECTOR ( 'NONE', #500, 1000.000000000000000 ) ;
#1229 = AXIS2_PLACEMENT_3D ( 'NONE', #867, #569, #471 ) ;
#1230 = DIRECTION ( 'NONE',  ( 0.000000000000000000, 0.000000000000000000, 1.000000000000000000 ) ) ;
#1231 = AXIS2_PLACEMENT_3D ( 'NONE', #103, #474, #987 ) ;
ENDSEC;
END-ISO-10303-21;
