ISO-10303-21;
HEADER;
FILE_DESCRIPTION (( 'STEP AP214' ),
    '1' );
FILE_NAME ('L型连接件_底部_左.STEP',
    '2025-09-28T11:35:40',
    ( '' ),
    ( '' ),
    'SwSTEP 2.0',
    'SolidWorks 2025',
    '' );
FILE_SCHEMA (( 'AUTOMOTIVE_DESIGN' ));
ENDSEC;

DATA;
#1 = FACE_OUTER_BOUND ( 'NONE', #1018, .T. ) ;
#2 = EDGE_LOOP ( 'NONE', ( #1033, #939, #244, #556 ) ) ;
#3 = ORIENTED_EDGE ( 'NONE', *, *, #636, .T. ) ;
#4 = LINE ( 'NONE', #1061, #534 ) ;
#5 = LINE ( 'NONE', #1062, #1010 ) ;
#6 = PRESENTATION_STYLE_ASSIGNMENT (( #979 ) ) ;
#7 = EDGE_CURVE ( 'NONE', #1016, #682, #1170, .T. ) ;
#8 = EDGE_LOOP ( 'NONE', ( #1054, #1047, #31, #558 ) ) ;
#9 = LINE ( 'NONE', #13, #457 ) ;
#10 = EDGE_CURVE ( 'NONE', #735, #562, #854, .T. ) ;
#11 = DIRECTION ( 'NONE',  ( 0.000000000000000000, 0.000000000000000000, 1.000000000000000000 ) ) ;
#12 = VERTEX_POINT ( 'NONE', #1058 ) ;
#13 = CARTESIAN_POINT ( 'NONE',  ( -9.999999999999991118, 77.49999999999998579, 8.000000000000000000 ) ) ;
#14 = EDGE_CURVE ( 'NONE', #848, #111, #871, .T. ) ;
#15 = AXIS2_PLACEMENT_3D ( 'NONE', #1147, #399, #851 ) ;
#16 = DIRECTION ( 'NONE',  ( -0.000000000000000000, -0.000000000000000000, -1.000000000000000000 ) ) ;
#17 = CARTESIAN_POINT ( 'NONE',  ( 29.00000000000000355, 67.49999999999997158, 5.000000000000000000 ) ) ;
#18 = EDGE_LOOP ( 'NONE', ( #975, #879 ) ) ;
#19 = DIRECTION ( 'NONE',  ( 0.000000000000000000, 0.000000000000000000, 1.000000000000000000 ) ) ;
#20 = ORIENTED_EDGE ( 'NONE', *, *, #505, .F. ) ;
#21 = CARTESIAN_POINT ( 'NONE',  ( -9.999999999999987566, 27.49999999999998224, 8.000000000000000000 ) ) ;
#22 = CARTESIAN_POINT ( 'NONE',  ( 30.00000000000000711, 47.49999999999997868, -10.39994919989799627 ) ) ;
#23 = VERTEX_POINT ( 'NONE', #859 ) ;
#24 = DIRECTION ( 'NONE',  ( -0.000000000000000000, -0.000000000000000000, 1.000000000000000000 ) ) ;
#25 = ORIENTED_EDGE ( 'NONE', *, *, #291, .T. ) ;
#26 = CYLINDRICAL_SURFACE ( 'NONE', #773, 3.000000000000001776 ) ;
#27 = DIRECTION ( 'NONE',  ( -1.000000000000000000, 0.000000000000000000, 0.000000000000000000 ) ) ;
#28 = EDGE_CURVE ( 'NONE', #406, #429, #1142, .T. ) ;
#29 = EDGE_LOOP ( 'NONE', ( #894, #1079 ) ) ;
#30 = CARTESIAN_POINT ( 'NONE',  ( 32.00000000000000711, 67.49999999999997158, 5.000000000000000000 ) ) ;
#31 = ORIENTED_EDGE ( 'NONE', *, *, #900, .F. ) ;
#32 = FACE_OUTER_BOUND ( 'NONE', #561, .T. ) ;
#33 = CIRCLE ( 'NONE', #811, 3.000000000000002665 ) ;
#34 = CARTESIAN_POINT ( 'NONE',  ( 32.00000000000000711, 67.49999999999997158, 5.000000000000000000 ) ) ;
#35 = CIRCLE ( 'NONE', #953, 1.599999999999998535 ) ;
#36 = VERTEX_POINT ( 'NONE', #103 ) ;
#37 = CYLINDRICAL_SURFACE ( 'NONE', #754, 3.000000000000002665 ) ;
#38 = ORIENTED_EDGE ( 'NONE', *, *, #14, .F. ) ;
#39 = DIRECTION ( 'NONE',  ( -0.000000000000000000, -0.000000000000000000, -1.000000000000000000 ) ) ;
#40 = CARTESIAN_POINT ( 'NONE',  ( 30.00000000000000711, 27.49999999999998224, -10.39994919989799627 ) ) ;
#41 = EDGE_CURVE ( 'NONE', #913, #779, #578, .T. ) ;
#42 = DIRECTION ( 'NONE',  ( 1.000000000000000000, 0.000000000000000000, 0.000000000000000000 ) ) ;
#43 = EDGE_CURVE ( 'NONE', #12, #111, #624, .T. ) ;
#44 = ORIENTED_EDGE ( 'NONE', *, *, #884, .T. ) ;
#45 = CARTESIAN_POINT ( 'NONE',  ( -9.999999999999987566, 27.49999999999998224, 0.000000000000000000 ) ) ;
#46 = CARTESIAN_POINT ( 'NONE',  ( 18.00000000000003553, 67.49999999999997158, 5.000000000000000000 ) ) ;
#47 = LINE ( 'NONE', #1177, #1193 ) ;
#48 = VERTEX_POINT ( 'NONE', #958 ) ;
#49 = CARTESIAN_POINT ( 'NONE',  ( 18.00000000000003553, 67.49999999999997158, 5.000000000000000000 ) ) ;
#50 = AXIS2_PLACEMENT_3D ( 'NONE', #463, #635, #630 ) ;
#51 = FACE_OUTER_BOUND ( 'NONE', #924, .T. ) ;
#52 = AXIS2_PLACEMENT_3D ( 'NONE', #1098, #714, #1092 ) ;
#53 = CIRCLE ( 'NONE', #196, 3.000000000000001776 ) ;
#54 = DIRECTION ( 'NONE',  ( 0.000000000000000000, -1.000000000000000000, 0.000000000000000000 ) ) ;
#55 = DIRECTION ( 'NONE',  ( 0.000000000000000000, 0.000000000000000000, -1.000000000000000000 ) ) ;
#56 = CARTESIAN_POINT ( 'NONE',  ( 18.00000000000003553, 67.49999999999997158, 0.000000000000000000 ) ) ;
#57 = ORIENTED_EDGE ( 'NONE', *, *, #1149, .F. ) ;
#58 = CYLINDRICAL_SURFACE ( 'NONE', #178, 1.599999999999998535 ) ;
#59 = ORIENTED_EDGE ( 'NONE', *, *, #214, .F. ) ;
#60 = FACE_OUTER_BOUND ( 'NONE', #591, .T. ) ;
#61 = CARTESIAN_POINT ( 'NONE',  ( 10.00000000000004441, 1.156482317317876458E-15, -52.82635607109082798 ) ) ;
#62 = ORIENTED_EDGE ( 'NONE', *, *, #1095, .T. ) ;
#63 = EDGE_CURVE ( 'NONE', #746, #1207, #91, .T. ) ;
#64 = DIRECTION ( 'NONE',  ( 0.000000000000000000, 0.000000000000000000, 1.000000000000000000 ) ) ;
#65 = ORIENTED_EDGE ( 'NONE', *, *, #864, .F. ) ;
#66 = CYLINDRICAL_SURFACE ( 'NONE', #1175, 10.00000000000000178 ) ;
#67 = DIRECTION ( 'NONE',  ( -1.156482317317871478E-16, 1.000000000000000000, -0.000000000000000000 ) ) ;
#68 = AXIS2_PLACEMENT_3D ( 'NONE', #213, #590, #976 ) ;
#69 = PRESENTATION_LAYER_ASSIGNMENT (  '', '', ( #252 ) ) ;
#70 = VERTEX_POINT ( 'NONE', #963 ) ;
#71 = AXIS2_PLACEMENT_3D ( 'NONE', #998, #322, #1080 ) ;
#72 = DIRECTION ( 'NONE',  ( 0.000000000000000000, -0.000000000000000000, -1.000000000000000000 ) ) ;
#73 = CIRCLE ( 'NONE', #1152, 1.600000000000011191 ) ;
#74 = ORIENTED_EDGE ( 'NONE', *, *, #10, .F. ) ;
#75 = CARTESIAN_POINT ( 'NONE',  ( 2.081668171172168513E-14, 62.49999999999998579, 8.000000000000000000 ) ) ;
#76 = DIRECTION ( 'NONE',  ( 0.000000000000000000, 0.000000000000000000, 1.000000000000000000 ) ) ;
#77 = EDGE_LOOP ( 'NONE', ( #785, #825, #465, #922 ) ) ;
#78 = EDGE_CURVE ( 'NONE', #130, #389, #1137, .T. ) ;
#79 = ORIENTED_EDGE ( 'NONE', *, *, #799, .T. ) ;
#80 = CARTESIAN_POINT ( 'NONE',  ( -9.999999999999991118, 77.49999999999998579, 0.000000000000000000 ) ) ;
#81 = ADVANCED_FACE ( 'NONE', ( #305 ), #506, .F. ) ;
#82 = FACE_OUTER_BOUND ( 'NONE', #936, .T. ) ;
#83 = ORIENTED_EDGE ( 'NONE', *, *, #1166, .T. ) ;
#84 = SHAPE_DEFINITION_REPRESENTATION ( #821, #183 ) ;
#85 = ORIENTED_EDGE ( 'NONE', *, *, #1166, .F. ) ;
#86 = CARTESIAN_POINT ( 'NONE',  ( 35.00000000000000711, 67.49999999999997158, 5.000000000000000000 ) ) ;
#87 = DIRECTION ( 'NONE',  ( -0.000000000000000000, -0.000000000000000000, 1.000000000000000000 ) ) ;
#88 = EDGE_CURVE ( 'NONE', #149, #1214, #1227, .T. ) ;
#89 = DIRECTION ( 'NONE',  ( 1.000000000000000000, 0.000000000000000000, 0.000000000000000000 ) ) ;
#90 = PRODUCT_DEFINITION_FORMATION_WITH_SPECIFIED_SOURCE ( '浠', '', #910, .NOT_KNOWN. ) ;
#91 = CIRCLE ( 'NONE', #990, 3.000000000000001776 ) ;
#92 = VECTOR ( 'NONE', #310, 1000.000000000000000 ) ;
#93 = AXIS2_PLACEMENT_3D ( 'NONE', #767, #571, #866 ) ;
#94 = ORIENTED_EDGE ( 'NONE', *, *, #900, .T. ) ;
#95 = DIRECTION ( 'NONE',  ( 0.000000000000000000, 0.000000000000000000, 1.000000000000000000 ) ) ;
#96 = CARTESIAN_POINT ( 'NONE',  ( 2.081668171172168513E-14, 62.49999999999998579, 0.000000000000000000 ) ) ;
#97 = EDGE_CURVE ( 'NONE', #389, #1006, #352, .T. ) ;
#98 =( NAMED_UNIT ( * ) PLANE_ANGLE_UNIT ( ) SI_UNIT ( $, .RADIAN. ) );
#99 = APPLICATION_PROTOCOL_DEFINITION ( 'draft international standard', 'automotive_design', 1998, #841 ) ;
#100 = ORIENTED_EDGE ( 'NONE', *, *, #1094, .T. ) ;
#101 = PLANE ( 'NONE',  #629 ) ;
#102 = PLANE ( 'NONE',  #971 ) ;
#103 = CARTESIAN_POINT ( 'NONE',  ( 8.673617379884035472E-15, 77.49999999999998579, 8.000000000000000000 ) ) ;
#104 = EDGE_CURVE ( 'NONE', #217, #130, #415, .T. ) ;
#105 = VERTEX_POINT ( 'NONE', #583 ) ;
#106 = DIRECTION ( 'NONE',  ( 9.370887401898403266E-17, -4.833309796710061754E-19, -1.000000000000000000 ) ) ;
#107 = CYLINDRICAL_SURFACE ( 'NONE', #647, 3.000000000000001776 ) ;
#108 = DIRECTION ( 'NONE',  ( 0.000000000000000000, 0.000000000000000000, 1.000000000000000000 ) ) ;
#109 = CIRCLE ( 'NONE', #650, 3.000000000000002665 ) ;
#110 = AXIS2_PLACEMENT_3D ( 'NONE', #34, #135, #519 ) ;
#111 = VERTEX_POINT ( 'NONE', #408 ) ;
#112 = CARTESIAN_POINT ( 'NONE',  ( 10.00000000000004086, 27.49999999999998224, 8.000000000000000000 ) ) ;
#113 = AXIS2_PLACEMENT_3D ( 'NONE', #863, #486, #1056 ) ;
#114 = VECTOR ( 'NONE', #1074, 1000.000000000000000 ) ;
#115 = CARTESIAN_POINT ( 'NONE',  ( 10.00000000000004086, 37.49999999999998579, -10.39994919989799982 ) ) ;
#116 = CIRCLE ( 'NONE', #974, 3.000000000000002665 ) ;
#117 = DIRECTION ( 'NONE',  ( -0.000000000000000000, -0.000000000000000000, 1.000000000000000000 ) ) ;
#118 = ORIENTED_EDGE ( 'NONE', *, *, #1225, .F. ) ;
#119 = DIRECTION ( 'NONE',  ( -0.000000000000000000, -0.000000000000000000, -1.000000000000000000 ) ) ;
#120 = ORIENTED_EDGE ( 'NONE', *, *, #1192, .F. ) ;
#121 = LINE ( 'NONE', #426, #671 ) ;
#122 = EDGE_CURVE ( 'NONE', #657, #1184, #204, .T. ) ;
#123 = DIRECTION ( 'NONE',  ( -2.312964634635742957E-16, 1.000000000000000000, -4.833309796710278421E-19 ) ) ;
#124 = ORIENTED_EDGE ( 'NONE', *, *, #1117, .T. ) ;
#125 = DIRECTION ( 'NONE',  ( 0.000000000000000000, 0.000000000000000000, 1.000000000000000000 ) ) ;
#126 = ORIENTED_EDGE ( 'NONE', *, *, #43, .T. ) ;
#127 = CYLINDRICAL_SURFACE ( 'NONE', #1150, 1.600000000000002087 ) ;
#128 = MANIFOLD_SOLID_BREP ( '\X2\570689d2\X0\2', #791 ) ;
#129 = DIRECTION ( 'NONE',  ( -0.000000000000000000, -0.000000000000000000, 1.000000000000000000 ) ) ;
#130 = VERTEX_POINT ( 'NONE', #789 ) ;
#131 = DIRECTION ( 'NONE',  ( 0.000000000000000000, 0.000000000000000000, 1.000000000000000000 ) ) ;
#132 = AXIS2_PLACEMENT_3D ( 'NONE', #46, #1197, #1191 ) ;
#133 = DIRECTION ( 'NONE',  ( 0.000000000000000000, 0.000000000000000000, 1.000000000000000000 ) ) ;
#134 = AXIS2_PLACEMENT_3D ( 'NONE', #353, #76, #734 ) ;
#135 = DIRECTION ( 'NONE',  ( 0.000000000000000000, 0.000000000000000000, 1.000000000000000000 ) ) ;
#136 = ADVANCED_FACE ( 'NONE', ( #511, #991 ), #487, .T. ) ;
#137 = EDGE_CURVE ( 'NONE', #600, #36, #706, .T. ) ;
#138 = FACE_OUTER_BOUND ( 'NONE', #1120, .T. ) ;
#139 = ORIENTED_EDGE ( 'NONE', *, *, #1149, .T. ) ;
#140 = CARTESIAN_POINT ( 'NONE',  ( 1.600000000000022737, 62.49999999999998579, 8.000000000000000000 ) ) ;
#141 = DIRECTION ( 'NONE',  ( 0.000000000000000000, 0.000000000000000000, 1.000000000000000000 ) ) ;
#142 = DIRECTION ( 'NONE',  ( 0.000000000000000000, 0.000000000000000000, 1.000000000000000000 ) ) ;
#143 = ADVANCED_FACE ( 'NONE', ( #1082 ), #230, .F. ) ;
#144 = VERTEX_POINT ( 'NONE', #612 ) ;
#145 = DIRECTION ( 'NONE',  ( 0.000000000000000000, 0.000000000000000000, 1.000000000000000000 ) ) ;
#146 = DIRECTION ( 'NONE',  ( 0.000000000000000000, 0.000000000000000000, 1.000000000000000000 ) ) ;
#147 = CARTESIAN_POINT ( 'NONE',  ( 32.00000000000000711, 67.49999999999997158, 5.000000000000000000 ) ) ;
#148 = EDGE_CURVE ( 'NONE', #249, #416, #889, .T. ) ;
#149 = VERTEX_POINT ( 'NONE', #903 ) ;
#150 = CARTESIAN_POINT ( 'NONE',  ( 15.00000000000003375, 67.49999999999997158, 5.000000000000000000 ) ) ;
#151 = VECTOR ( 'NONE', #972, 1000.000000000000000 ) ;
#152 = CARTESIAN_POINT ( 'NONE',  ( 30.00000000000000711, 37.49999999999998579, 8.000000000000000000 ) ) ;
#153 = CIRCLE ( 'NONE', #295, 1.600000000000002087 ) ;
#154 = CIRCLE ( 'NONE', #853, 3.000000000000001776 ) ;
#155 = ORIENTED_EDGE ( 'NONE', *, *, #1153, .T. ) ;
#156 = DIRECTION ( 'NONE',  ( 0.000000000000000000, 0.000000000000000000, 1.000000000000000000 ) ) ;
#157 = VERTEX_POINT ( 'NONE', #797 ) ;
#158 = FACE_BOUND ( 'NONE', #856, .T. ) ;
#159 = DIRECTION ( 'NONE',  ( 2.775557561562890735E-17, -1.000000000000000000, 2.996222043954720890E-19 ) ) ;
#160 = EDGE_CURVE ( 'NONE', #326, #70, #1008, .T. ) ;
#161 = ORIENTED_EDGE ( 'NONE', *, *, #214, .T. ) ;
#162 = LINE ( 'NONE', #1195, #1030 ) ;
#163 = ORIENTED_EDGE ( 'NONE', *, *, #1160, .F. ) ;
#164 = DIRECTION ( 'NONE',  ( -0.000000000000000000, -0.000000000000000000, -1.000000000000000000 ) ) ;
#165 = CARTESIAN_POINT ( 'NONE',  ( 19.60000000000004761, 67.49999999999997158, 5.000000000000000000 ) ) ;
#166 = PRODUCT_DEFINITION ( '鏈', '', #90, #1138 ) ;
#167 = ORIENTED_EDGE ( 'NONE', *, *, #1133, .T. ) ;
#168 = CARTESIAN_POINT ( 'NONE',  ( 32.00000000000000711, 67.49999999999997158, 5.000000000000000000 ) ) ;
#169 = EDGE_LOOP ( 'NONE', ( #57, #1025 ) ) ;
#170 = LINE ( 'NONE', #1121, #315 ) ;
#171 = CARTESIAN_POINT ( 'NONE',  ( 40.00000000000000711, 37.49999999999998579, 8.000000000000000000 ) ) ;
#172 = CIRCLE ( 'NONE', #274, 3.000000000000002665 ) ;
#173 = VERTEX_POINT ( 'NONE', #720 ) ;
#174 = CIRCLE ( 'NONE', #870, 3.000000000000002665 ) ;
#175 = ADVANCED_FACE ( 'NONE', ( #421 ), #1181, .F. ) ;
#176 = CIRCLE ( 'NONE', #609, 1.599999999999997202 ) ;
#177 = PLANE ( 'NONE',  #331 ) ;
#178 = AXIS2_PLACEMENT_3D ( 'NONE', #632, #1198, #263 ) ;
#179 = ADVANCED_FACE ( 'NONE', ( #809 ), #618, .T. ) ;
#180 = ORIENTED_EDGE ( 'NONE', *, *, #1160, .T. ) ;
#181 = CYLINDRICAL_SURFACE ( 'NONE', #995, 1.599999999999998535 ) ;
#182 = CARTESIAN_POINT ( 'NONE',  ( 32.00000000000000711, 67.49999999999997158, 0.000000000000000000 ) ) ;
#183 = ADVANCED_BREP_SHAPE_REPRESENTATION ( 'L\X2\578b8fde63a54ef6\X0\_\X2\5e9590e8\X0\_\X2\5de6\X0\', ( #128, #1144 ), #393 ) ;
#184 = ORIENTED_EDGE ( 'NONE', *, *, #928, .F. ) ;
#185 =( NAMED_UNIT ( * ) SI_UNIT ( $, .STERADIAN. ) SOLID_ANGLE_UNIT ( ) );
#186 = ORIENTED_EDGE ( 'NONE', *, *, #229, .F. ) ;
#187 = CARTESIAN_POINT ( 'NONE',  ( 20.00000000000003908, 47.49999999999997868, 0.000000000000000000 ) ) ;
#188 = DIRECTION ( 'NONE',  ( 1.000000000000000000, 1.156482317317871478E-16, -0.000000000000000000 ) ) ;
#189 = ORIENTED_EDGE ( 'NONE', *, *, #291, .F. ) ;
#190 = ORIENTED_EDGE ( 'NONE', *, *, #541, .F. ) ;
#191 = DIRECTION ( 'NONE',  ( 1.000000000000000000, 0.000000000000000000, 0.000000000000000000 ) ) ;
#192 = EDGE_CURVE ( 'NONE', #881, #538, #1093, .T. ) ;
#193 = DIRECTION ( 'NONE',  ( 1.000000000000000000, 0.000000000000000000, 0.000000000000000000 ) ) ;
#194 = AXIS2_PLACEMENT_3D ( 'NONE', #985, #1099, #1174 ) ;
#195 = VECTOR ( 'NONE', #16, 1000.000000000000000 ) ;
#196 = AXIS2_PLACEMENT_3D ( 'NONE', #302, #1231, #857 ) ;
#197 = ORIENTED_EDGE ( 'NONE', *, *, #891, .F. ) ;
#198 = DIRECTION ( 'NONE',  ( 0.000000000000000000, 0.000000000000000000, 1.000000000000000000 ) ) ;
#199 = CARTESIAN_POINT ( 'NONE',  ( 32.00000000000000711, 67.49999999999997158, 8.000000000000000000 ) ) ;
#200 = EDGE_CURVE ( 'NONE', #657, #284, #890, .T. ) ;
#201 = ORIENTED_EDGE ( 'NONE', *, *, #267, .T. ) ;
#202 = DIRECTION ( 'NONE',  ( -0.000000000000000000, -0.000000000000000000, 1.000000000000000000 ) ) ;
#203 = CARTESIAN_POINT ( 'NONE',  ( -9.999999999999991118, 67.49999999999998579, 8.000000000000000000 ) ) ;
#204 = LINE ( 'NONE', #1154, #151 ) ;
#205 = DIRECTION ( 'NONE',  ( 0.000000000000000000, 0.000000000000000000, 1.000000000000000000 ) ) ;
#206 = ORIENTED_EDGE ( 'NONE', *, *, #467, .F. ) ;
#207 = LINE ( 'NONE', #112, #1012 ) ;
#208 = LINE ( 'NONE', #391, #951 ) ;
#209 = CARTESIAN_POINT ( 'NONE',  ( 2.081668171172168513E-14, 62.49999999999998579, 5.000000000000000000 ) ) ;
#210 = EDGE_CURVE ( 'NONE', #664, #1188, #172, .T. ) ;
#211 = AXIS2_PLACEMENT_3D ( 'NONE', #451, #54, #72 ) ;
#212 = VERTEX_POINT ( 'NONE', #898 ) ;
#213 = CARTESIAN_POINT ( 'NONE',  ( 30.00000000000000711, 37.49999999999998579, -10.39994919989799627 ) ) ;
#214 = EDGE_CURVE ( 'NONE', #36, #406, #332, .T. ) ;
#215 = CIRCLE ( 'NONE', #314, 1.600000000000011191 ) ;
#216 = CIRCLE ( 'NONE', #1071, 3.000000000000002665 ) ;
#217 = VERTEX_POINT ( 'NONE', #413 ) ;
#218 = DIRECTION ( 'NONE',  ( 1.000000000000000000, 0.000000000000000000, 0.000000000000000000 ) ) ;
#219 = CARTESIAN_POINT ( 'NONE',  ( 33.60000000000000142, 67.49999999999997158, 8.000000000000000000 ) ) ;
#220 = EDGE_LOOP ( 'NONE', ( #120, #703 ) ) ;
#221 = DIRECTION ( 'NONE',  ( -0.000000000000000000, 1.000000000000000000, -0.000000000000000000 ) ) ;
#222 = VERTEX_POINT ( 'NONE', #40 ) ;
#223 = DIRECTION ( 'NONE',  ( 1.000000000000000000, 0.000000000000000000, 0.000000000000000000 ) ) ;
#224 = DIRECTION ( 'NONE',  ( 6.938893903907228378E-17, -1.000000000000000000, 0.000000000000000000 ) ) ;
#225 = ORIENTED_EDGE ( 'NONE', *, *, #122, .T. ) ;
#226 = PLANE ( 'NONE',  #1089 ) ;
#227 = ORIENTED_EDGE ( 'NONE', *, *, #1133, .F. ) ;
#228 = DIRECTION ( 'NONE',  ( -0.000000000000000000, -0.000000000000000000, -1.000000000000000000 ) ) ;
#229 = EDGE_CURVE ( 'NONE', #798, #1214, #427, .T. ) ;
#230 = CYLINDRICAL_SURFACE ( 'NONE', #194, 1.600000000000002087 ) ;
#231 = ORIENTED_EDGE ( 'NONE', *, *, #967, .F. ) ;
#232 = DIRECTION ( 'NONE',  ( 1.000000000000000000, 0.000000000000000000, 0.000000000000000000 ) ) ;
#233 = VECTOR ( 'NONE', #123, 1000.000000000000000 ) ;
#234 = ORIENTED_EDGE ( 'NONE', *, *, #88, .T. ) ;
#235 = CARTESIAN_POINT ( 'NONE',  ( 20.00000000000003908, 47.49999999999997868, -52.82635607109082798 ) ) ;
#236 = DIRECTION ( 'NONE',  ( -1.000000000000000000, 0.000000000000000000, 0.000000000000000000 ) ) ;
#237 = AXIS2_PLACEMENT_3D ( 'NONE', #1000, #142, #780 ) ;
#238 = ADVANCED_FACE ( 'NONE', ( #51 ), #1186, .T. ) ;
#239 = CARTESIAN_POINT ( 'NONE',  ( 2.081668171172168829E-14, 42.49999999999998579, 8.000000000000000000 ) ) ;
#240 = VERTEX_POINT ( 'NONE', #523 ) ;
#241 = DIRECTION ( 'NONE',  ( -0.000000000000000000, -0.000000000000000000, -1.000000000000000000 ) ) ;
#242 = DIRECTION ( 'NONE',  ( 1.000000000000000000, 0.000000000000000000, 0.000000000000000000 ) ) ;
#243 = DIRECTION ( 'NONE',  ( 1.000000000000000000, 0.000000000000000000, 0.000000000000000000 ) ) ;
#244 = ORIENTED_EDGE ( 'NONE', *, *, #860, .F. ) ;
#245 = CARTESIAN_POINT ( 'NONE',  ( 0.000000000000000000, 0.000000000000000000, 8.000000000000000000 ) ) ;
#246 = DIRECTION ( 'NONE',  ( 0.000000000000000000, 0.000000000000000000, 1.000000000000000000 ) ) ;
#247 = FACE_OUTER_BOUND ( 'NONE', #755, .T. ) ;
#248 = ADVANCED_FACE ( 'NONE', ( #431 ), #439, .F. ) ;
#249 = VERTEX_POINT ( 'NONE', #744 ) ;
#250 = LINE ( 'NONE', #628, #774 ) ;
#251 = AXIS2_PLACEMENT_3D ( 'NONE', #239, #981, #42 ) ;
#252 = STYLED_ITEM ( 'NONE', ( #6 ), #128 ) ;
#253 = CARTESIAN_POINT ( 'NONE',  ( 30.40000000000000568, 67.49999999999997158, 8.000000000000000000 ) ) ;
#254 = AXIS2_PLACEMENT_3D ( 'NONE', #401, #1158, #852 ) ;
#255 = VECTOR ( 'NONE', #55, 1000.000000000000000 ) ;
#256 = VERTEX_POINT ( 'NONE', #171 ) ;
#257 = DIRECTION ( 'NONE',  ( 1.000000000000000000, 0.000000000000000000, -0.000000000000000000 ) ) ;
#258 = EDGE_LOOP ( 'NONE', ( #356, #988 ) ) ;
#259 = DIRECTION ( 'NONE',  ( 1.156482317317871478E-16, -1.000000000000000000, 4.833309796710170569E-19 ) ) ;
#260 = EDGE_CURVE ( 'NONE', #48, #682, #540, .T. ) ;
#261 = LINE ( 'NONE', #253, #831 ) ;
#262 = ORIENTED_EDGE ( 'NONE', *, *, #860, .T. ) ;
#263 = DIRECTION ( 'NONE',  ( -1.000000000000000000, 0.000000000000000000, 0.000000000000000000 ) ) ;
#264 = ORIENTED_EDGE ( 'NONE', *, *, #716, .T. ) ;
#265 = FACE_BOUND ( 'NONE', #169, .T. ) ;
#266 = DIRECTION ( 'NONE',  ( 0.000000000000000000, 0.000000000000000000, 1.000000000000000000 ) ) ;
#267 = EDGE_CURVE ( 'NONE', #1060, #385, #1027, .T. ) ;
#268 = ORIENTED_EDGE ( 'NONE', *, *, #283, .F. ) ;
#269 = ADVANCED_FACE ( 'NONE', ( #273 ), #443, .F. ) ;
#270 = DIRECTION ( 'NONE',  ( 1.000000000000000000, 0.000000000000000000, 0.000000000000000000 ) ) ;
#271 = EDGE_LOOP ( 'NONE', ( #1179, #917, #639, #836 ) ) ;
#272 = CARTESIAN_POINT ( 'NONE',  ( 30.00000000000000711, 47.49999999999997868, 8.000000000000000000 ) ) ;
#273 = FACE_OUTER_BOUND ( 'NONE', #1221, .T. ) ;
#274 = AXIS2_PLACEMENT_3D ( 'NONE', #535, #342, #242 ) ;
#275 = ORIENTED_EDGE ( 'NONE', *, *, #1192, .T. ) ;
#276 = CIRCLE ( 'NONE', #709, 1.599999999999998535 ) ;
#277 = VECTOR ( 'NONE', #325, 1000.000000000000000 ) ;
#278 = AXIS2_PLACEMENT_3D ( 'NONE', #886, #119, #895 ) ;
#279 = VERTEX_POINT ( 'NONE', #1206 ) ;
#280 = DIRECTION ( 'NONE',  ( -1.000000000000000000, 6.938893903907227392E-16, 0.000000000000000000 ) ) ;
#281 = CARTESIAN_POINT ( 'NONE',  ( 40.00000000000000711, 77.49999999999998579, 0.000000000000000000 ) ) ;
#282 = ORIENTED_EDGE ( 'NONE', *, *, #450, .T. ) ;
#283 = EDGE_CURVE ( 'NONE', #779, #240, #1145, .T. ) ;
#284 = VERTEX_POINT ( 'NONE', #165 ) ;
#285 = DIRECTION ( 'NONE',  ( 1.000000000000000000, -0.000000000000000000, -0.000000000000000000 ) ) ;
#286 = DIRECTION ( 'NONE',  ( 0.000000000000000000, -1.000000000000000000, 0.000000000000000000 ) ) ;
#287 = CARTESIAN_POINT ( 'NONE',  ( 2.081668171172168829E-14, 42.49999999999998579, 0.000000000000000000 ) ) ;
#288 =( NAMED_UNIT ( * ) PLANE_ANGLE_UNIT ( ) SI_UNIT ( $, .RADIAN. ) );
#289 = ORIENTED_EDGE ( 'NONE', *, *, #747, .F. ) ;
#290 = FACE_OUTER_BOUND ( 'NONE', #350, .T. ) ;
#291 = EDGE_CURVE ( 'NONE', #144, #416, #546, .T. ) ;
#292 = FACE_OUTER_BOUND ( 'NONE', #271, .T. ) ;
#293 = CARTESIAN_POINT ( 'NONE',  ( 32.00000000000000711, 67.49999999999997158, 0.000000000000000000 ) ) ;
#294 = VECTOR ( 'NONE', #921, 1000.000000000000000 ) ;
#295 = AXIS2_PLACEMENT_3D ( 'NONE', #96, #962, #193 ) ;
#296 = CIRCLE ( 'NONE', #587, 1.600000000000000755 ) ;
#297 = ORIENTED_EDGE ( 'NONE', *, *, #512, .F. ) ;
#298 = CARTESIAN_POINT ( 'NONE',  ( 18.00000000000003553, 67.49999999999997158, 0.000000000000000000 ) ) ;
#299 = DIRECTION ( 'NONE',  ( 0.000000000000000000, -0.000000000000000000, -1.000000000000000000 ) ) ;
#300 = FILL_AREA_STYLE_COLOUR ( '', #646 ) ;
#301 = EDGE_LOOP ( 'NONE', ( #955, #602, #155, #501 ) ) ;
#302 = CARTESIAN_POINT ( 'NONE',  ( 2.081668171172168829E-14, 42.49999999999998579, 5.000000000000000000 ) ) ;
#303 = FACE_OUTER_BOUND ( 'NONE', #580, .T. ) ;
#304 = ADVANCED_FACE ( 'NONE', ( #1213 ), #1020, .F. ) ;
#305 = FACE_OUTER_BOUND ( 'NONE', #1041, .T. ) ;
#306 = EDGE_CURVE ( 'NONE', #1006, #389, #892, .T. ) ;
#307 = VERTEX_POINT ( 'NONE', #641 ) ;
#308 = DIRECTION ( 'NONE',  ( 1.000000000000000000, 0.000000000000000000, 9.370887401898403266E-17 ) ) ;
#309 = ORIENTED_EDGE ( 'NONE', *, *, #613, .T. ) ;
#310 = DIRECTION ( 'NONE',  ( 0.000000000000000000, 0.000000000000000000, 1.000000000000000000 ) ) ;
#311 = DIRECTION ( 'NONE',  ( -0.000000000000000000, -0.000000000000000000, -1.000000000000000000 ) ) ;
#312 = ORIENTED_EDGE ( 'NONE', *, *, #707, .F. ) ;
#313 = FACE_OUTER_BOUND ( 'NONE', #527, .T. ) ;
#314 = AXIS2_PLACEMENT_3D ( 'NONE', #49, #592, #1196 ) ;
#315 = VECTOR ( 'NONE', #559, 1000.000000000000000 ) ;
#316 = ORIENTED_EDGE ( 'NONE', *, *, #267, .F. ) ;
#317 = CARTESIAN_POINT ( 'NONE',  ( -9.999999999999987566, 27.49999999999998224, 8.000000000000000000 ) ) ;
#318 = DIRECTION ( 'NONE',  ( 1.000000000000000000, 0.000000000000000000, 0.000000000000000000 ) ) ;
#319 = ORIENTED_EDGE ( 'NONE', *, *, #97, .T. ) ;
#320 = FACE_BOUND ( 'NONE', #377, .T. ) ;
#321 = EDGE_LOOP ( 'NONE', ( #718, #536, #793, #458 ) ) ;
#322 = DIRECTION ( 'NONE',  ( -0.000000000000000000, -0.000000000000000000, -1.000000000000000000 ) ) ;
#323 = CARTESIAN_POINT ( 'NONE',  ( 10.00000000000003908, 47.49999999999997868, -52.82635607109082798 ) ) ;
#324 = ORIENTED_EDGE ( 'NONE', *, *, #838, .F. ) ;
#325 = DIRECTION ( 'NONE',  ( -0.000000000000000000, -0.000000000000000000, 1.000000000000000000 ) ) ;
#326 = VERTEX_POINT ( 'NONE', #1015 ) ;
#327 = DIRECTION ( 'NONE',  ( 0.000000000000000000, 0.000000000000000000, 1.000000000000000000 ) ) ;
#328 = EDGE_CURVE ( 'NONE', #23, #873, #477, .T. ) ;
#329 = CARTESIAN_POINT ( 'NONE',  ( 9.367506770274756732E-15, 67.49999999999998579, 8.000000000000000000 ) ) ;
#330 = CARTESIAN_POINT ( 'NONE',  ( 18.00000000000003553, 67.49999999999997158, 5.000000000000000000 ) ) ;
#331 = AXIS2_PLACEMENT_3D ( 'NONE', #557, #812, #441 ) ;
#332 = CIRCLE ( 'NONE', #830, 10.00000000000000000 ) ;
#333 = VECTOR ( 'NONE', #145, 1000.000000000000000 ) ;
#334 = ORIENTED_EDGE ( 'NONE', *, *, #424, .T. ) ;
#335 = DIRECTION ( 'NONE',  ( 1.000000000000000000, 0.000000000000000000, 0.000000000000000000 ) ) ;
#336 = VECTOR ( 'NONE', #202, 1000.000000000000000 ) ;
#337 = CARTESIAN_POINT ( 'NONE',  ( 8.673617379884035472E-15, 77.49999999999998579, 8.000000000000000000 ) ) ;
#338 = AXIS2_PLACEMENT_3D ( 'NONE', #805, #1084, #607 ) ;
#339 = CARTESIAN_POINT ( 'NONE',  ( 20.00000000000003197, 47.52883902667444715, 4.999999999999997335 ) ) ;
#340 = ORIENTED_EDGE ( 'NONE', *, *, #625, .F. ) ;
#341 = FACE_OUTER_BOUND ( 'NONE', #479, .T. ) ;
#342 = DIRECTION ( 'NONE',  ( 0.000000000000000000, 0.000000000000000000, 1.000000000000000000 ) ) ;
#343 = ADVANCED_FACE ( 'NONE', ( #82, #648 ), #1036, .F. ) ;
#344 = FACE_BOUND ( 'NONE', #446, .T. ) ;
#345 = ORIENTED_EDGE ( 'NONE', *, *, #1094, .F. ) ;
#346 = CARTESIAN_POINT ( 'NONE',  ( 30.00000000000000711, 57.49999999999997868, 0.000000000000000000 ) ) ;
#347 = CARTESIAN_POINT ( 'NONE',  ( 2.081668171172168513E-14, 62.49999999999998579, 5.000000000000000000 ) ) ;
#348 = ORIENTED_EDGE ( 'NONE', *, *, #964, .T. ) ;
#349 = CARTESIAN_POINT ( 'NONE',  ( 20.00000000000003197, 47.52883902667444715, -10.39994919989799982 ) ) ;
#350 = EDGE_LOOP ( 'NONE', ( #1224, #1085, #696, #943 ) ) ;
#351 = CARTESIAN_POINT ( 'NONE',  ( -2.999999999999980904, 42.49999999999998579, 8.000000000000000000 ) ) ;
#352 = CIRCLE ( 'NONE', #394, 1.599999999999997202 ) ;
#353 = CARTESIAN_POINT ( 'NONE',  ( 20.00000000000003197, 47.52883902667444715, 5.000000000000000000 ) ) ;
#354 = AXIS2_PLACEMENT_3D ( 'NONE', #472, #492, #218 ) ;
#355 = VECTOR ( 'NONE', #221, 1000.000000000000000 ) ;
#356 = ORIENTED_EDGE ( 'NONE', *, *, #747, .T. ) ;
#357 = DIRECTION ( 'NONE',  ( -0.000000000000000000, -0.000000000000000000, 1.000000000000000000 ) ) ;
#358 = EDGE_CURVE ( 'NONE', #326, #307, #1228, .T. ) ;
#359 = ORIENTED_EDGE ( 'NONE', *, *, #358, .F. ) ;
#360 = DIRECTION ( 'NONE',  ( -0.000000000000000000, -0.000000000000000000, -1.000000000000000000 ) ) ;
#361 = EDGE_CURVE ( 'NONE', #562, #740, #725, .T. ) ;
#362 = CARTESIAN_POINT ( 'NONE',  ( 131.3737302514440444, -9.922625918486982499, -10.39994919989798561 ) ) ;
#363 = ORIENTED_EDGE ( 'NONE', *, *, #579, .F. ) ;
#364 = FACE_OUTER_BOUND ( 'NONE', #570, .T. ) ;
#365 = ORIENTED_EDGE ( 'NONE', *, *, #192, .F. ) ;
#366 = DIRECTION ( 'NONE',  ( -0.000000000000000000, -0.000000000000000000, -1.000000000000000000 ) ) ;
#367 = CARTESIAN_POINT ( 'NONE',  ( 10.00000000000003730, 57.49999999999997868, 0.000000000000000000 ) ) ;
#368 = ADVANCED_FACE ( 'NONE', ( #941 ), #656, .F. ) ;
#369 = ORIENTED_EDGE ( 'NONE', *, *, #10, .T. ) ;
#370 = PRODUCT_CONTEXT ( 'NONE', #668, 'mechanical' ) ;
#371 = EDGE_LOOP ( 'NONE', ( #1067, #180, #25, #1124 ) ) ;
#372 = PLANE ( 'NONE',  #834 ) ;
#373 = DIRECTION ( 'NONE',  ( 1.000000000000000000, 0.000000000000000000, 1.734723475976806848E-16 ) ) ;
#374 = CIRCLE ( 'NONE', #1226, 1.600000000000000755 ) ;
#375 = VECTOR ( 'NONE', #764, 1000.000000000000000 ) ;
#376 = EDGE_CURVE ( 'NONE', #735, #249, #688, .T. ) ;
#377 = EDGE_LOOP ( 'NONE', ( #594, #1156 ) ) ;
#378 = AXIS2_PLACEMENT_3D ( 'NONE', #182, #448, #1200 ) ;
#379 = CIRCLE ( 'NONE', #251, 3.000000000000001776 ) ;
#380 = VERTEX_POINT ( 'NONE', #753 ) ;
#381 = DIRECTION ( 'NONE',  ( -1.000000000000000000, -0.000000000000000000, -0.000000000000000000 ) ) ;
#382 = CARTESIAN_POINT ( 'NONE',  ( 0.000000000000000000, 0.000000000000000000, 0.000000000000000000 ) ) ;
#383 = EDGE_LOOP ( 'NONE', ( #766, #532, #324, #1219 ) ) ;
#384 = EDGE_CURVE ( 'NONE', #217, #1006, #261, .T. ) ;
#385 = VERTEX_POINT ( 'NONE', #281 ) ;
#386 = CARTESIAN_POINT ( 'NONE',  ( 40.00000000000001421, 37.49999999999998579, -10.39994919989799271 ) ) ;
#387 = FACE_BOUND ( 'NONE', #828, .T. ) ;
#388 = DIRECTION ( 'NONE',  ( 1.000000000000000000, 0.000000000000000000, 0.000000000000000000 ) ) ;
#389 = VERTEX_POINT ( 'NONE', #1040 ) ;
#390 = CARTESIAN_POINT ( 'NONE',  ( 2.081668171172168829E-14, 42.49999999999998579, 5.000000000000000000 ) ) ;
#391 = CARTESIAN_POINT ( 'NONE',  ( 3.000000000000022649, 62.49999999999998579, 5.000000000000000000 ) ) ;
#392 = DIRECTION ( 'NONE',  ( 1.000000000000000000, 0.000000000000000000, 1.734723475976806848E-16 ) ) ;
#393 =( GEOMETRIC_REPRESENTATION_CONTEXT ( 3 ) GLOBAL_UNCERTAINTY_ASSIGNED_CONTEXT ( ( #689 ) ) GLOBAL_UNIT_ASSIGNED_CONTEXT ( ( #765, #288, #185 ) ) REPRESENTATION_CONTEXT ( 'NONE', 'WORKASPACE' ) );
#394 = AXIS2_PLACEMENT_3D ( 'NONE', #293, #1046, #681 ) ;
#395 = AXIS2_PLACEMENT_3D ( 'NONE', #560, #565, #468 ) ;
#396 = AXIS2_PLACEMENT_3D ( 'NONE', #996, #697, #1168 ) ;
#397 = CIRCLE ( 'NONE', #814, 1.600000000000000755 ) ;
#398 = ORIENTED_EDGE ( 'NONE', *, *, #1117, .F. ) ;
#399 = DIRECTION ( 'NONE',  ( 0.000000000000000000, 0.000000000000000000, 1.000000000000000000 ) ) ;
#400 = EDGE_CURVE ( 'NONE', #380, #1184, #626, .T. ) ;
#401 = CARTESIAN_POINT ( 'NONE',  ( 20.00000000000003197, 47.52883902667444715, 5.000000000000000000 ) ) ;
#402 = EDGE_CURVE ( 'NONE', #222, #212, #5, .T. ) ;
#403 = DIRECTION ( 'NONE',  ( 1.000000000000000000, 0.000000000000000000, 0.000000000000000000 ) ) ;
#404 = ORIENTED_EDGE ( 'NONE', *, *, #784, .F. ) ;
#405 = CARTESIAN_POINT ( 'NONE',  ( -1.599999999999977662, 42.49999999999998579, 5.000000000000000000 ) ) ;
#406 = VERTEX_POINT ( 'NONE', #203 ) ;
#407 = LINE ( 'NONE', #662, #418 ) ;
#408 = CARTESIAN_POINT ( 'NONE',  ( 40.00000000000000711, 47.49999999999997868, -10.39994919989799271 ) ) ;
#409 = ORIENTED_EDGE ( 'NONE', *, *, #414, .F. ) ;
#410 = CARTESIAN_POINT ( 'NONE',  ( 40.00000000000000711, 77.49999999999998579, 8.000000000000000000 ) ) ;
#411 = ORIENTED_EDGE ( 'NONE', *, *, #945, .F. ) ;
#412 = LINE ( 'NONE', #803, #605 ) ;
#413 = CARTESIAN_POINT ( 'NONE',  ( 30.40000000000000568, 67.49999999999997158, 5.000000000000000000 ) ) ;
#414 = EDGE_CURVE ( 'NONE', #70, #157, #771, .T. ) ;
#415 = CIRCLE ( 'NONE', #687, 1.599999999999997202 ) ;
#416 = VERTEX_POINT ( 'NONE', #500 ) ;
#417 = DIRECTION ( 'NONE',  ( -1.000000000000000000, 0.000000000000000000, 0.000000000000000000 ) ) ;
#418 = VECTOR ( 'NONE', #572, 1000.000000000000000 ) ;
#419 = ORIENTED_EDGE ( 'NONE', *, *, #306, .F. ) ;
#420 = DIRECTION ( 'NONE',  ( 0.000000000000000000, 0.000000000000000000, 1.000000000000000000 ) ) ;
#421 = FACE_OUTER_BOUND ( 'NONE', #818, .T. ) ;
#422 = ORIENTED_EDGE ( 'NONE', *, *, #104, .T. ) ;
#423 = DIRECTION ( 'NONE',  ( 0.000000000000000000, 0.000000000000000000, 1.000000000000000000 ) ) ;
#424 = EDGE_CURVE ( 'NONE', #746, #279, #208, .T. ) ;
#425 = ORIENTED_EDGE ( 'NONE', *, *, #384, .T. ) ;
#426 = CARTESIAN_POINT ( 'NONE',  ( -1.599999999999981215, 62.49999999999998579, 8.000000000000000000 ) ) ;
#427 = LINE ( 'NONE', #804, #552 ) ;
#428 = CARTESIAN_POINT ( 'NONE',  ( 21.00000000000003908, 67.49999999999997158, 5.000000000000000000 ) ) ;
#429 = VERTEX_POINT ( 'NONE', #21 ) ;
#430 = DIRECTION ( 'NONE',  ( -0.000000000000000000, -0.000000000000000000, 1.000000000000000000 ) ) ;
#431 = FACE_OUTER_BOUND ( 'NONE', #301, .T. ) ;
#432 = DIRECTION ( 'NONE',  ( 0.000000000000000000, 0.000000000000000000, 1.000000000000000000 ) ) ;
#433 = AXIS2_PLACEMENT_3D ( 'NONE', #339, #736, #1215 ) ;
#434 = AXIS2_PLACEMENT_3D ( 'NONE', #704, #430, #335 ) ;
#435 = ORIENTED_EDGE ( 'NONE', *, *, #41, .T. ) ;
#436 = CARTESIAN_POINT ( 'NONE',  ( -2.999999999999980904, 62.49999999999998579, 8.000000000000000000 ) ) ;
#437 = EDGE_CURVE ( 'NONE', #691, #1139, #481, .T. ) ;
#438 = VECTOR ( 'NONE', #480, 1000.000000000000000 ) ;
#439 = CYLINDRICAL_SURFACE ( 'NONE', #50, 3.000000000000002665 ) ;
#440 = ADVANCED_FACE ( 'NONE', ( #303 ), #952, .F. ) ;
#441 = DIRECTION ( 'NONE',  ( 1.000000000000000000, 0.000000000000000000, -0.000000000000000000 ) ) ;
#442 = CARTESIAN_POINT ( 'NONE',  ( 20.00000000000003908, 57.49999999999997868, -10.39994919989799804 ) ) ;
#443 = CYLINDRICAL_SURFACE ( 'NONE', #1148, 3.000000000000001776 ) ;
#444 = ORIENTED_EDGE ( 'NONE', *, *, #328, .T. ) ;
#445 = DIRECTION ( 'NONE',  ( 1.000000000000000000, 0.000000000000000000, 0.000000000000000000 ) ) ;
#446 = EDGE_LOOP ( 'NONE', ( #514, #85 ) ) ;
#447 = CYLINDRICAL_SURFACE ( 'NONE', #973, 3.000000000000002665 ) ;
#448 = DIRECTION ( 'NONE',  ( 0.000000000000000000, 0.000000000000000000, 1.000000000000000000 ) ) ;
#449 = EDGE_LOOP ( 'NONE', ( #1230, #264, #521, #369 ) ) ;
#450 = EDGE_CURVE ( 'NONE', #901, #644, #153, .T. ) ;
#451 = CARTESIAN_POINT ( 'NONE',  ( -9.999999999999991118, 77.49999999999998579, 8.000000000000000000 ) ) ;
#452 = ORIENTED_EDGE ( 'NONE', *, *, #652, .T. ) ;
#453 = FACE_OUTER_BOUND ( 'NONE', #461, .T. ) ;
#454 = VECTOR ( 'NONE', #311, 1000.000000000000000 ) ;
#455 = DIRECTION ( 'NONE',  ( 0.000000000000000000, 0.000000000000000000, 1.000000000000000000 ) ) ;
#456 = VECTOR ( 'NONE', #1111, 1000.000000000000000 ) ;
#457 = VECTOR ( 'NONE', #381, 1000.000000000000000 ) ;
#458 = ORIENTED_EDGE ( 'NONE', *, *, #1057, .F. ) ;
#459 = CARTESIAN_POINT ( 'NONE',  ( 18.00000000000003553, 67.49999999999997158, 8.000000000000000000 ) ) ;
#460 = ADVANCED_FACE ( 'NONE', ( #292 ), #685, .F. ) ;
#461 = EDGE_LOOP ( 'NONE', ( #363, #517, #1001, #660 ) ) ;
#462 = CARTESIAN_POINT ( 'NONE',  ( 30.00000000000000711, 57.49999999999997868, -52.82635607109082798 ) ) ;
#463 = CARTESIAN_POINT ( 'NONE',  ( 18.00000000000003553, 67.49999999999997158, 5.000000000000000000 ) ) ;
#464 = ORIENTED_EDGE ( 'NONE', *, *, #14, .T. ) ;
#465 = ORIENTED_EDGE ( 'NONE', *, *, #864, .T. ) ;
#466 = DIRECTION ( 'NONE',  ( -1.000000000000000000, -0.000000000000000000, -0.000000000000000000 ) ) ;
#467 = EDGE_CURVE ( 'NONE', #547, #105, #407, .T. ) ;
#468 = DIRECTION ( 'NONE',  ( 0.000000000000000000, 0.000000000000000000, 1.000000000000000000 ) ) ;
#469 = ORIENTED_EDGE ( 'NONE', *, *, #488, .T. ) ;
#470 = ORIENTED_EDGE ( 'NONE', *, *, #28, .T. ) ;
#471 = DIRECTION ( 'NONE',  ( 1.000000000000000000, 0.000000000000000000, 0.000000000000000000 ) ) ;
#472 = CARTESIAN_POINT ( 'NONE',  ( 20.00000000000003197, 47.52883902667444715, 5.000000000000000000 ) ) ;
#473 = CIRCLE ( 'NONE', #338, 3.000000000000001776 ) ;
#474 = AXIS2_PLACEMENT_3D ( 'NONE', #566, #947, #89 ) ;
#475 = ORIENTED_EDGE ( 'NONE', *, *, #414, .T. ) ;
#476 = ADVANCED_FACE ( 'NONE', ( #858, #1050, #1, #680, #387 ), #582, .T. ) ;
#477 = CIRCLE ( 'NONE', #495, 1.600000000000002087 ) ;
#478 = CIRCLE ( 'NONE', #496, 10.00000000000000178 ) ;
#479 = EDGE_LOOP ( 'NONE', ( #190, #83, #684, #20 ) ) ;
#480 = DIRECTION ( 'NONE',  ( 0.000000000000000000, 0.000000000000000000, 1.000000000000000000 ) ) ;
#481 = LINE ( 'NONE', #577, #92 ) ;
#482 = ADVANCED_FACE ( 'NONE', ( #763 ), #107, .F. ) ;
#483 = DIRECTION ( 'NONE',  ( 9.370887401898403266E-17, -4.833309796710061754E-19, -1.000000000000000000 ) ) ;
#484 = VERTEX_POINT ( 'NONE', #115 ) ;
#485 = CARTESIAN_POINT ( 'NONE',  ( 21.60000000000003340, 47.52883902667444715, -52.82635607109082798 ) ) ;
#486 = DIRECTION ( 'NONE',  ( 0.000000000000000000, 0.000000000000000000, 1.000000000000000000 ) ) ;
#487 = PLANE ( 'NONE',  #110 ) ;
#488 = EDGE_CURVE ( 'NONE', #240, #779, #33, .T. ) ;
#489 = ORIENTED_EDGE ( 'NONE', *, *, #959, .F. ) ;
#490 = CARTESIAN_POINT ( 'NONE',  ( 20.00000000000004263, 37.49999999999998579, -52.82635607109082798 ) ) ;
#491 = ADVANCED_FACE ( 'NONE', ( #876 ), #102, .F. ) ;
#492 = DIRECTION ( 'NONE',  ( -0.000000000000000000, -0.000000000000000000, 1.000000000000000000 ) ) ;
#493 = CARTESIAN_POINT ( 'NONE',  ( 40.00000000000002132, 9.272364535339950765E-15, -10.39994919989799271 ) ) ;
#494 = VECTOR ( 'NONE', #878, 1000.000000000000000 ) ;
#495 = AXIS2_PLACEMENT_3D ( 'NONE', #843, #455, #1122 ) ;
#496 = AXIS2_PLACEMENT_3D ( 'NONE', #568, #576, #280 ) ;
#497 = CIRCLE ( 'NONE', #433, 1.600000000000000755 ) ;
#498 = ORIENTED_EDGE ( 'NONE', *, *, #954, .F. ) ;
#499 = DIRECTION ( 'NONE',  ( 1.000000000000000000, 0.000000000000000000, -0.000000000000000000 ) ) ;
#500 = CARTESIAN_POINT ( 'NONE',  ( 10.00000000000003908, 47.49999999999997868, 0.000000000000000000 ) ) ;
#501 = ORIENTED_EDGE ( 'NONE', *, *, #964, .F. ) ;
#502 = DIRECTION ( 'NONE',  ( 1.000000000000000000, 0.000000000000000000, 0.000000000000000000 ) ) ;
#503 = EDGE_LOOP ( 'NONE', ( #596, #124 ) ) ;
#504 = CARTESIAN_POINT ( 'NONE',  ( 2.081668171172168829E-14, 42.49999999999998579, 5.000000000000000000 ) ) ;
#505 = EDGE_CURVE ( 'NONE', #644, #901, #1049, .T. ) ;
#506 = CYLINDRICAL_SURFACE ( 'NONE', #950, 1.600000000000000755 ) ;
#507 = ORIENTED_EDGE ( 'NONE', *, *, #1095, .F. ) ;
#508 = DIRECTION ( 'NONE',  ( 1.000000000000000000, 0.000000000000000000, -0.000000000000000000 ) ) ;
#509 = EDGE_LOOP ( 'NONE', ( #726, #206, #1104, #163 ) ) ;
#510 = DIRECTION ( 'NONE',  ( -1.000000000000000000, 0.000000000000000000, 0.000000000000000000 ) ) ;
#511 = FACE_BOUND ( 'NONE', #18, .T. ) ;
#512 = EDGE_CURVE ( 'NONE', #284, #380, #782, .T. ) ;
#513 = MECHANICAL_DESIGN_GEOMETRIC_PRESENTATION_REPRESENTATION (  '', ( #252 ), #751 ) ;
#514 = ORIENTED_EDGE ( 'NONE', *, *, #328, .F. ) ;
#515 = CARTESIAN_POINT ( 'NONE',  ( 9.367506770274756732E-15, 67.49999999999998579, 0.000000000000000000 ) ) ;
#516 = AXIS2_PLACEMENT_3D ( 'NONE', #1086, #1075, #510 ) ;
#517 = ORIENTED_EDGE ( 'NONE', *, *, #801, .T. ) ;
#518 = LINE ( 'NONE', #897, #333 ) ;
#519 = DIRECTION ( 'NONE',  ( 1.000000000000000000, 0.000000000000000000, -0.000000000000000000 ) ) ;
#520 = CYLINDRICAL_SURFACE ( 'NONE', #672, 1.600000000000000755 ) ;
#521 = ORIENTED_EDGE ( 'NONE', *, *, #959, .T. ) ;
#522 = CARTESIAN_POINT ( 'NONE',  ( 20.00000000000003197, 47.52883902667444715, 5.000000000000000000 ) ) ;
#523 = CARTESIAN_POINT ( 'NONE',  ( 35.00000000000000711, 67.49999999999997158, 8.000000000000000000 ) ) ;
#524 = ADVANCED_FACE ( 'NONE', ( #946 ), #1045, .F. ) ;
#525 = LINE ( 'NONE', #410, #355 ) ;
#526 = ADVANCED_FACE ( 'NONE', ( #888 ), #983, .F. ) ;
#527 = EDGE_LOOP ( 'NONE', ( #297, #452, #225, #1042 ) ) ;
#528 = FACE_OUTER_BOUND ( 'NONE', #1128, .T. ) ;
#529 = DIRECTION ( 'NONE',  ( -0.000000000000000000, -0.000000000000000000, 1.000000000000000000 ) ) ;
#530 = VECTOR ( 'NONE', #117, 1000.000000000000000 ) ;
#531 = AXIS2_PLACEMENT_3D ( 'NONE', #61, #188, #847 ) ;
#532 = ORIENTED_EDGE ( 'NONE', *, *, #666, .F. ) ;
#533 = DIRECTION ( 'NONE',  ( 1.000000000000000000, 0.000000000000000000, 0.000000000000000000 ) ) ;
#534 = VECTOR ( 'NONE', #679, 1000.000000000000000 ) ;
#535 = CARTESIAN_POINT ( 'NONE',  ( 18.00000000000003553, 67.49999999999997158, 5.000000000000000000 ) ) ;
#536 = ORIENTED_EDGE ( 'NONE', *, *, #260, .T. ) ;
#537 = CARTESIAN_POINT ( 'NONE',  ( 2.081668171172168513E-14, 62.49999999999998579, 5.000000000000000000 ) ) ;
#538 = VERTEX_POINT ( 'NONE', #45 ) ;
#539 = CARTESIAN_POINT ( 'NONE',  ( 3.000000000000022649, 62.49999999999998579, 5.000000000000000000 ) ) ;
#540 = LINE ( 'NONE', #835, #294 ) ;
#541 = EDGE_CURVE ( 'NONE', #873, #644, #788, .T. ) ;
#542 = ORIENTED_EDGE ( 'NONE', *, *, #467, .T. ) ;
#543 = DIRECTION ( 'NONE',  ( 1.000000000000000000, 0.000000000000000000, 0.000000000000000000 ) ) ;
#544 = EDGE_LOOP ( 'NONE', ( #282, #781 ) ) ;
#545 = CARTESIAN_POINT ( 'NONE',  ( 32.00000000000000711, 67.49999999999997158, 5.000000000000000000 ) ) ;
#546 = LINE ( 'NONE', #935, #909 ) ;
#547 = VERTEX_POINT ( 'NONE', #611 ) ;
#548 = ADVANCED_FACE ( 'NONE', ( #341 ), #127, .F. ) ;
#549 = DIRECTION ( 'NONE',  ( 0.000000000000000000, 0.000000000000000000, 1.000000000000000000 ) ) ;
#550 = EDGE_LOOP ( 'NONE', ( #139, #1176, #815, #186 ) ) ;
#551 = CARTESIAN_POINT ( 'NONE',  ( 18.40000000000003055, 47.52883902667444715, -10.39994919989799982 ) ) ;
#552 = VECTOR ( 'NONE', #907, 1000.000000000000000 ) ;
#553 = AXIS2_PLACEMENT_3D ( 'NONE', #56, #11, #777 ) ;
#554 = DIRECTION ( 'NONE',  ( -0.000000000000000000, -0.000000000000000000, 1.000000000000000000 ) ) ;
#555 = AXIS2_PLACEMENT_3D ( 'NONE', #665, #106, #944 ) ;
#556 = ORIENTED_EDGE ( 'NONE', *, *, #122, .F. ) ;
#557 = CARTESIAN_POINT ( 'NONE',  ( 20.00000000000003197, 47.52883902667444715, 5.000000000000000000 ) ) ;
#558 = ORIENTED_EDGE ( 'NONE', *, *, #613, .F. ) ;
#559 = DIRECTION ( 'NONE',  ( -0.000000000000000000, -0.000000000000000000, -1.000000000000000000 ) ) ;
#560 = CARTESIAN_POINT ( 'NONE',  ( 10.00000000000004086, 27.49999999999998224, 8.000000000000000000 ) ) ;
#561 = EDGE_LOOP ( 'NONE', ( #422, #1167, #419, #575 ) ) ;
#562 = VERTEX_POINT ( 'NONE', #807 ) ;
#563 = DIRECTION ( 'NONE',  ( 1.000000000000000000, 0.000000000000000000, 0.000000000000000000 ) ) ;
#564 = ADVANCED_FACE ( 'NONE', ( #816 ), #1189, .T. ) ;
#565 = DIRECTION ( 'NONE',  ( 0.000000000000000000, 1.000000000000000000, -0.000000000000000000 ) ) ;
#566 = CARTESIAN_POINT ( 'NONE',  ( 2.081668171172168829E-14, 42.49999999999998579, 8.000000000000000000 ) ) ;
#567 = ORIENTED_EDGE ( 'NONE', *, *, #260, .F. ) ;
#568 = CARTESIAN_POINT ( 'NONE',  ( 30.00000000000000711, 37.49999999999998579, 8.000000000000000000 ) ) ;
#569 = DIRECTION ( 'NONE',  ( 1.000000000000000000, 0.000000000000000000, 0.000000000000000000 ) ) ;
#570 = EDGE_LOOP ( 'NONE', ( #822, #806, #62, #469 ) ) ;
#571 = DIRECTION ( 'NONE',  ( 1.000000000000000000, 6.938893903907228378E-17, -0.000000000000000000 ) ) ;
#572 = DIRECTION ( 'NONE',  ( -0.000000000000000000, -0.000000000000000000, -1.000000000000000000 ) ) ;
#573 = EDGE_CURVE ( 'NONE', #23, #901, #121, .T. ) ;
#574 = ADVANCED_FACE ( 'NONE', ( #32 ), #796, .F. ) ;
#575 = ORIENTED_EDGE ( 'NONE', *, *, #384, .F. ) ;
#576 = DIRECTION ( 'NONE',  ( 0.000000000000000000, 0.000000000000000000, 1.000000000000000000 ) ) ;
#577 = CARTESIAN_POINT ( 'NONE',  ( 18.40000000000003055, 47.52883902667444715, -52.82635607109082798 ) ) ;
#578 = LINE ( 'NONE', #17, #530 ) ;
#579 = EDGE_CURVE ( 'NONE', #982, #149, #412, .T. ) ;
#580 = EDGE_LOOP ( 'NONE', ( #404, #359, #654, #475 ) ) ;
#581 = CARTESIAN_POINT ( 'NONE',  ( 10.00000000000004086, 27.49999999999998224, 0.000000000000000000 ) ) ;
#582 = PLANE ( 'NONE',  #1105 ) ;
#583 = CARTESIAN_POINT ( 'NONE',  ( 20.00000000000004263, 27.49999999999998224, -10.39994919989799804 ) ) ;
#584 = VECTOR ( 'NONE', #246, 1000.000000000000000 ) ;
#585 = AXIS2_PLACEMENT_3D ( 'NONE', #1151, #1141, #569 ) ;
#586 = UNCERTAINTY_MEASURE_WITH_UNIT (LENGTH_MEASURE( 1.000000000000000082E-05 ), #676, 'distance_accuracy_value', 'NONE');
#587 = AXIS2_PLACEMENT_3D ( 'NONE', #920, #164, #634 ) ;
#588 = EDGE_LOOP ( 'NONE', ( #642, #312 ) ) ;
#589 = EDGE_CURVE ( 'NONE', #1214, #149, #276, .T. ) ;
#590 = DIRECTION ( 'NONE',  ( 9.370887401898403266E-17, -4.833309796710061754E-19, -1.000000000000000000 ) ) ;
#591 = EDGE_LOOP ( 'NONE', ( #633, #435, #1146, #507 ) ) ;
#592 = DIRECTION ( 'NONE',  ( 0.000000000000000000, 0.000000000000000000, 1.000000000000000000 ) ) ;
#593 = CARTESIAN_POINT ( 'NONE',  ( 32.00000000000000711, 67.49999999999997158, 5.000000000000000000 ) ) ;
#594 = ORIENTED_EDGE ( 'NONE', *, *, #200, .F. ) ;
#595 = DIRECTION ( 'NONE',  ( 1.000000000000000000, 0.000000000000000000, 0.000000000000000000 ) ) ;
#596 = ORIENTED_EDGE ( 'NONE', *, *, #63, .T. ) ;
#597 = DIRECTION ( 'NONE',  ( -0.000000000000000000, -0.000000000000000000, -1.000000000000000000 ) ) ;
#598 = EDGE_CURVE ( 'NONE', #307, #326, #174, .T. ) ;
#599 = CARTESIAN_POINT ( 'NONE',  ( 9.367506770274756732E-15, 67.49999999999998579, 8.000000000000000000 ) ) ;
#600 = VERTEX_POINT ( 'NONE', #1172 ) ;
#601 = CARTESIAN_POINT ( 'NONE',  ( 30.40000000000000568, 67.49999999999997158, 0.000000000000000000 ) ) ;
#602 = ORIENTED_EDGE ( 'NONE', *, *, #928, .T. ) ;
#603 = CARTESIAN_POINT ( 'NONE',  ( 2.081668171172168829E-14, 42.49999999999998579, 0.000000000000000000 ) ) ;
#604 = DIRECTION ( 'NONE',  ( -0.000000000000000000, -0.000000000000000000, 1.000000000000000000 ) ) ;
#605 = VECTOR ( 'NONE', #228, 1000.000000000000000 ) ;
#606 = VERTEX_POINT ( 'NONE', #436 ) ;
#607 = DIRECTION ( 'NONE',  ( 1.000000000000000000, 0.000000000000000000, 0.000000000000000000 ) ) ;
#608 = VECTOR ( 'NONE', #882, 1000.000000000000000 ) ;
#609 = AXIS2_PLACEMENT_3D ( 'NONE', #1043, #198, #563 ) ;
#610 = EDGE_LOOP ( 'NONE', ( #227, #118 ) ) ;
#611 = CARTESIAN_POINT ( 'NONE',  ( 20.00000000000004263, 27.49999999999998224, 0.000000000000000000 ) ) ;
#612 = CARTESIAN_POINT ( 'NONE',  ( 10.00000000000003908, 37.49999999999998579, 0.000000000000000000 ) ) ;
#613 = EDGE_CURVE ( 'NONE', #111, #1060, #518, .T. ) ;
#614 = ADVANCED_FACE ( 'NONE', ( #528 ), #1185, .F. ) ;
#615 = DIRECTION ( 'NONE',  ( -0.000000000000000000, -0.000000000000000000, 1.000000000000000000 ) ) ;
#616 = ORIENTED_EDGE ( 'NONE', *, *, #450, .F. ) ;
#617 = DIRECTION ( 'NONE',  ( -1.000000000000000000, 0.000000000000000000, 0.000000000000000000 ) ) ;
#618 = CYLINDRICAL_SURFACE ( 'NONE', #669, 10.00000000000000178 ) ;
#619 = CARTESIAN_POINT ( 'NONE',  ( 16.40000000000002700, 67.49999999999997158, 0.000000000000000000 ) ) ;
#620 = ORIENTED_EDGE ( 'NONE', *, *, #1005, .T. ) ;
#621 = DIRECTION ( 'NONE',  ( 0.000000000000000000, 0.000000000000000000, 1.000000000000000000 ) ) ;
#622 = PLANE ( 'NONE',  #1066 ) ;
#623 = CIRCLE ( 'NONE', #1194, 1.600000000000002087 ) ;
#624 = CIRCLE ( 'NONE', #728, 10.00000000000000178 ) ;
#625 = EDGE_CURVE ( 'NONE', #1188, #664, #1126, .T. ) ;
#626 = CIRCLE ( 'NONE', #553, 1.600000000000011191 ) ;
#627 = ORIENTED_EDGE ( 'NONE', *, *, #945, .T. ) ;
#628 = CARTESIAN_POINT ( 'NONE',  ( 10.00000000000004441, 1.176988314114851254E-15, -10.39994919989799982 ) ) ;
#629 = AXIS2_PLACEMENT_3D ( 'NONE', #661, #961, #499 ) ;
#630 = DIRECTION ( 'NONE',  ( 1.000000000000000000, 0.000000000000000000, 0.000000000000000000 ) ) ;
#631 = EDGE_LOOP ( 'NONE', ( #832, #319 ) ) ;
#632 = CARTESIAN_POINT ( 'NONE',  ( 2.081668171172168829E-14, 42.49999999999998579, 8.000000000000000000 ) ) ;
#633 = ORIENTED_EDGE ( 'NONE', *, *, #993, .F. ) ;
#634 = DIRECTION ( 'NONE',  ( 1.000000000000000000, 0.000000000000000000, 0.000000000000000000 ) ) ;
#635 = DIRECTION ( 'NONE',  ( -0.000000000000000000, -0.000000000000000000, 1.000000000000000000 ) ) ;
#636 = EDGE_CURVE ( 'NONE', #429, #538, #906, .T. ) ;
#637 = ORIENTED_EDGE ( 'NONE', *, *, #808, .F. ) ;
#638 = CARTESIAN_POINT ( 'NONE',  ( 18.00000000000003553, 67.49999999999997158, 8.000000000000000000 ) ) ;
#639 = ORIENTED_EDGE ( 'NONE', *, *, #1059, .T. ) ;
#640 = FACE_OUTER_BOUND ( 'NONE', #1091, .T. ) ;
#641 = CARTESIAN_POINT ( 'NONE',  ( 17.00000000000002842, 47.52883902667444715, 5.000000000000000000 ) ) ;
#642 = ORIENTED_EDGE ( 'NONE', *, *, #659, .F. ) ;
#643 = FACE_OUTER_BOUND ( 'NONE', #919, .T. ) ;
#644 = VERTEX_POINT ( 'NONE', #1002 ) ;
#645 = DIRECTION ( 'NONE',  ( 0.000000000000000000, 0.000000000000000000, 1.000000000000000000 ) ) ;
#646 = COLOUR_RGB ( '',1.000000000000000000, 1.000000000000000000, 1.000000000000000000 ) ;
#647 = AXIS2_PLACEMENT_3D ( 'NONE', #667, #970, #1068 ) ;
#648 = FACE_BOUND ( 'NONE', #610, .T. ) ;
#649 = CIRCLE ( 'NONE', #813, 10.00000000000000000 ) ;
#650 = AXIS2_PLACEMENT_3D ( 'NONE', #459, #837, #270 ) ;
#651 = ORIENTED_EDGE ( 'NONE', *, *, #7, .F. ) ;
#652 = EDGE_CURVE ( 'NONE', #284, #657, #215, .T. ) ;
#653 = ADVANCED_FACE ( 'NONE', ( #978 ), #26, .F. ) ;
#654 = ORIENTED_EDGE ( 'NONE', *, *, #160, .T. ) ;
#655 = CARTESIAN_POINT ( 'NONE',  ( 1.600000000000022737, 62.49999999999998579, 5.000000000000000000 ) ) ;
#656 = PLANE ( 'NONE',  #395 ) ;
#657 = VERTEX_POINT ( 'NONE', #1034 ) ;
#658 = CARTESIAN_POINT ( 'NONE',  ( -1.599999999999977662, 42.49999999999998579, 0.000000000000000000 ) ) ;
#659 = EDGE_CURVE ( 'NONE', #279, #606, #154, .T. ) ;
#660 = ORIENTED_EDGE ( 'NONE', *, *, #88, .F. ) ;
#661 = CARTESIAN_POINT ( 'NONE',  ( 2.081668171172168829E-14, 42.49999999999998579, 5.000000000000000000 ) ) ;
#662 = CARTESIAN_POINT ( 'NONE',  ( 20.00000000000004263, 27.49999999999998224, 8.000000000000000000 ) ) ;
#663 = DIRECTION ( 'NONE',  ( 1.000000000000000000, 0.000000000000000000, 0.000000000000000000 ) ) ;
#664 = VERTEX_POINT ( 'NONE', #150 ) ;
#665 = CARTESIAN_POINT ( 'NONE',  ( 20.00000000000004263, 37.49999999999998579, -10.39994919989799982 ) ) ;
#666 = EDGE_CURVE ( 'NONE', #256, #848, #170, .T. ) ;
#667 = CARTESIAN_POINT ( 'NONE',  ( 2.081668171172168829E-14, 42.49999999999998579, 5.000000000000000000 ) ) ;
#668 = APPLICATION_CONTEXT ( 'automotive_design' ) ;
#669 = AXIS2_PLACEMENT_3D ( 'NONE', #152, #141, #318 ) ;
#670 =( NAMED_UNIT ( * ) SI_UNIT ( $, .STERADIAN. ) SOLID_ANGLE_UNIT ( ) );
#671 = VECTOR ( 'NONE', #39, 1000.000000000000000 ) ;
#672 = AXIS2_PLACEMENT_3D ( 'NONE', #794, #131, #502 ) ;
#673 = ORIENTED_EDGE ( 'NONE', *, *, #842, .F. ) ;
#674 = CARTESIAN_POINT ( 'NONE',  ( 29.00000000000000355, 67.49999999999997158, 5.000000000000000000 ) ) ;
#675 = DIRECTION ( 'NONE',  ( -1.000000000000000000, 0.000000000000000000, 0.000000000000000000 ) ) ;
#676 =( LENGTH_UNIT ( ) NAMED_UNIT ( * ) SI_UNIT ( .MILLI., .METRE. ) );
#677 = ADVANCED_FACE ( 'NONE', ( #453 ), #181, .F. ) ;
#678 = ORIENTED_EDGE ( 'NONE', *, *, #916, .T. ) ;
#679 = DIRECTION ( 'NONE',  ( -0.000000000000000000, -0.000000000000000000, 1.000000000000000000 ) ) ;
#680 = FACE_BOUND ( 'NONE', #1022, .T. ) ;
#681 = DIRECTION ( 'NONE',  ( 1.000000000000000000, 0.000000000000000000, 0.000000000000000000 ) ) ;
#682 = VERTEX_POINT ( 'NONE', #351 ) ;
#683 = CARTESIAN_POINT ( 'NONE',  ( 3.000000000000022649, 42.49999999999998579, 8.000000000000000000 ) ) ;
#684 = ORIENTED_EDGE ( 'NONE', *, *, #573, .T. ) ;
#685 = CYLINDRICAL_SURFACE ( 'NONE', #254, 3.000000000000002665 ) ;
#686 = SURFACE_SIDE_STYLE ('',( #1165 ) ) ;
#687 = AXIS2_PLACEMENT_3D ( 'NONE', #593, #772, #1063 ) ;
#688 = CIRCLE ( 'NONE', #730, 10.00000000000000178 ) ;
#689 = UNCERTAINTY_MEASURE_WITH_UNIT (LENGTH_MEASURE( 1.000000000000000082E-05 ), #765, 'distance_accuracy_value', 'NONE');
#690 = CIRCLE ( 'NONE', #733, 3.000000000000001776 ) ;
#691 = VERTEX_POINT ( 'NONE', #551 ) ;
#692 = DIRECTION ( 'NONE',  ( -0.000000000000000000, -0.000000000000000000, -1.000000000000000000 ) ) ;
#693 = EDGE_CURVE ( 'NONE', #385, #600, #940, .T. ) ;
#694 = VERTEX_POINT ( 'NONE', #840 ) ;
#695 = DIRECTION ( 'NONE',  ( 1.000000000000000000, 0.000000000000000000, 0.000000000000000000 ) ) ;
#696 = ORIENTED_EDGE ( 'NONE', *, *, #192, .T. ) ;
#697 = DIRECTION ( 'NONE',  ( 0.000000000000000000, 0.000000000000000000, 1.000000000000000000 ) ) ;
#698 = VERTEX_POINT ( 'NONE', #1115 ) ;
#699 = CARTESIAN_POINT ( 'NONE',  ( 40.00000000000000711, 77.49999999999998579, 8.000000000000000000 ) ) ;
#700 = CARTESIAN_POINT ( 'NONE',  ( 20.00000000000003197, 47.52883902667444715, -52.82635607109082798 ) ) ;
#701 = EDGE_LOOP ( 'NONE', ( #444, #1118, #616, #787 ) ) ;
#702 = CYLINDRICAL_SURFACE ( 'NONE', #278, 1.600000000000011191 ) ;
#703 = ORIENTED_EDGE ( 'NONE', *, *, #1153, .F. ) ;
#704 = CARTESIAN_POINT ( 'NONE',  ( 2.081668171172168513E-14, 62.49999999999998579, 5.000000000000000000 ) ) ;
#705 = ADVANCED_FACE ( 'NONE', ( #1217, #732, #158, #1110, #1102, #1026 ), #372, .F. ) ;
#706 = LINE ( 'NONE', #337, #810 ) ;
#707 = EDGE_CURVE ( 'NONE', #606, #279, #690, .T. ) ;
#708 = AXIS2_PLACEMENT_3D ( 'NONE', #147, #529, #741 ) ;
#709 = AXIS2_PLACEMENT_3D ( 'NONE', #603, #989, #695 ) ;
#710 = CARTESIAN_POINT ( 'NONE',  ( -3.975730816570767477E-15, 57.49999999999997868, -10.39994919989799982 ) ) ;
#711 = CIRCLE ( 'NONE', #555, 9.999999999999998224 ) ;
#712 = CIRCLE ( 'NONE', #68, 10.00000000000000178 ) ;
#713 = EDGE_LOOP ( 'NONE', ( #960, #542, #620, #1171, #1114, #3 ) ) ;
#714 = DIRECTION ( 'NONE',  ( 0.000000000000000000, 0.000000000000000000, 1.000000000000000000 ) ) ;
#715 = DIRECTION ( 'NONE',  ( 1.000000000000000000, 0.000000000000000000, 0.000000000000000000 ) ) ;
#716 = EDGE_CURVE ( 'NONE', #740, #12, #819, .T. ) ;
#717 = DIRECTION ( 'NONE',  ( 1.000000000000000000, 0.000000000000000000, 0.000000000000000000 ) ) ;
#718 = ORIENTED_EDGE ( 'NONE', *, *, #916, .F. ) ;
#719 = DIRECTION ( 'NONE',  ( -1.000000000000000000, 0.000000000000000000, 0.000000000000000000 ) ) ;
#720 = CARTESIAN_POINT ( 'NONE',  ( 21.60000000000003340, 47.52883902667444715, 4.999999999999997335 ) ) ;
#721 = ADVANCED_FACE ( 'NONE', ( #743 ), #66, .T. ) ;
#722 = CYLINDRICAL_SURFACE ( 'NONE', #708, 3.000000000000002665 ) ;
#723 = ORIENTED_EDGE ( 'NONE', *, *, #137, .F. ) ;
#724 = DIRECTION ( 'NONE',  ( 1.000000000000000000, 0.000000000000000000, 0.000000000000000000 ) ) ;
#725 = LINE ( 'NONE', #367, #456 ) ;
#726 = ORIENTED_EDGE ( 'NONE', *, *, #875, .F. ) ;
#727 = CARTESIAN_POINT ( 'NONE',  ( 40.00000000000000711, 77.49999999999998579, 8.000000000000000000 ) ) ;
#728 = AXIS2_PLACEMENT_3D ( 'NONE', #22, #1070, #392 ) ;
#729 = EDGE_CURVE ( 'NONE', #406, #881, #1222, .T. ) ;
#730 = AXIS2_PLACEMENT_3D ( 'NONE', #1223, #1103, #373 ) ;
#731 = ORIENTED_EDGE ( 'NONE', *, *, #875, .T. ) ;
#732 = FACE_OUTER_BOUND ( 'NONE', #1009, .T. ) ;
#733 = AXIS2_PLACEMENT_3D ( 'NONE', #75, #621, #1007 ) ;
#734 = DIRECTION ( 'NONE',  ( 1.000000000000000000, 0.000000000000000000, 0.000000000000000000 ) ) ;
#735 = VERTEX_POINT ( 'NONE', #442 ) ;
#736 = DIRECTION ( 'NONE',  ( -0.000000000000000000, -0.000000000000000000, -1.000000000000000000 ) ) ;
#737 = VERTEX_POINT ( 'NONE', #1199 ) ;
#738 = CARTESIAN_POINT ( 'NONE',  ( 2.081668171172168513E-14, 62.49999999999998579, 8.000000000000000000 ) ) ;
#739 = DIRECTION ( 'NONE',  ( -9.370887401898403266E-17, 2.996222043954694890E-19, 1.000000000000000000 ) ) ;
#740 = VERTEX_POINT ( 'NONE', #346 ) ;
#741 = DIRECTION ( 'NONE',  ( 1.000000000000000000, 0.000000000000000000, 0.000000000000000000 ) ) ;
#742 = ORIENTED_EDGE ( 'NONE', *, *, #376, .T. ) ;
#743 = FACE_OUTER_BOUND ( 'NONE', #8, .T. ) ;
#744 = CARTESIAN_POINT ( 'NONE',  ( 10.00000000000003908, 47.49999999999997868, -10.39994919989800159 ) ) ;
#745 = EDGE_CURVE ( 'NONE', #249, #484, #250, .T. ) ;
#746 = VERTEX_POINT ( 'NONE', #539 ) ;
#747 = EDGE_CURVE ( 'NONE', #173, #1139, #296, .T. ) ;
#748 = ORIENTED_EDGE ( 'NONE', *, *, #598, .T. ) ;
#749 = VECTOR ( 'NONE', #1119, 1000.000000000000000 ) ;
#750 = CARTESIAN_POINT ( 'NONE',  ( 2.081668171172168829E-14, 42.49999999999998579, 8.000000000000000000 ) ) ;
#751 =( GEOMETRIC_REPRESENTATION_CONTEXT ( 3 ) GLOBAL_UNCERTAINTY_ASSIGNED_CONTEXT ( ( #586 ) ) GLOBAL_UNIT_ASSIGNED_CONTEXT ( ( #676, #98, #670 ) ) REPRESENTATION_CONTEXT ( 'NONE', 'WORKASPACE' ) );
#752 = VECTOR ( 'NONE', #241, 1000.000000000000000 ) ;
#753 = CARTESIAN_POINT ( 'NONE',  ( 19.60000000000004761, 67.49999999999997158, 0.000000000000000000 ) ) ;
#754 = AXIS2_PLACEMENT_3D ( 'NONE', #1090, #1183, #595 ) ;
#755 = EDGE_LOOP ( 'NONE', ( #977, #1037, #197, #100 ) ) ;
#756 = VERTEX_POINT ( 'NONE', #1205 ) ;
#757 = DIRECTION ( 'NONE',  ( 1.000000000000000000, 0.000000000000000000, 0.000000000000000000 ) ) ;
#758 = DIRECTION ( 'NONE',  ( -0.000000000000000000, 0.000000000000000000, -1.000000000000000000 ) ) ;
#759 = CARTESIAN_POINT ( 'NONE',  ( 32.00000000000000711, 67.49999999999997158, 8.000000000000000000 ) ) ;
#760 = ADVANCED_FACE ( 'NONE', ( #60 ), #447, .F. ) ;
#761 = ORIENTED_EDGE ( 'NONE', *, *, #589, .T. ) ;
#762 = DIRECTION ( 'NONE',  ( 1.000000000000000000, -0.000000000000000000, -0.000000000000000000 ) ) ;
#763 = FACE_OUTER_BOUND ( 'NONE', #997, .T. ) ;
#764 = DIRECTION ( 'NONE',  ( 6.938893903907228378E-17, -1.000000000000000000, 0.000000000000000000 ) ) ;
#765 =( LENGTH_UNIT ( ) NAMED_UNIT ( * ) SI_UNIT ( .MILLI., .METRE. ) );
#766 = ORIENTED_EDGE ( 'NONE', *, *, #1073, .F. ) ;
#767 = CARTESIAN_POINT ( 'NONE',  ( -9.999999999999991118, 77.49999999999998579, 8.000000000000000000 ) ) ;
#768 = ADVANCED_FACE ( 'NONE', ( #265, #640 ), #101, .T. ) ;
#769 = VECTOR ( 'NONE', #224, 1000.000000000000000 ) ;
#770 = DIRECTION ( 'NONE',  ( 0.000000000000000000, 0.000000000000000000, 1.000000000000000000 ) ) ;
#771 = CIRCLE ( 'NONE', #585, 3.000000000000002665 ) ;
#772 = DIRECTION ( 'NONE',  ( 0.000000000000000000, 0.000000000000000000, 1.000000000000000000 ) ) ;
#773 = AXIS2_PLACEMENT_3D ( 'NONE', #504, #826, #724 ) ;
#774 = VECTOR ( 'NONE', #259, 1000.000000000000000 ) ;
#775 = EDGE_LOOP ( 'NONE', ( #896, #980 ) ) ;
#776 = CARTESIAN_POINT ( 'NONE',  ( -1.599999999999981215, 62.49999999999998579, 0.000000000000000000 ) ) ;
#777 = DIRECTION ( 'NONE',  ( 1.000000000000000000, 0.000000000000000000, 0.000000000000000000 ) ) ;
#778 = DIRECTION ( 'NONE',  ( 0.000000000000000000, 0.000000000000000000, 1.000000000000000000 ) ) ;
#779 = VERTEX_POINT ( 'NONE', #1039 ) ;
#780 = DIRECTION ( 'NONE',  ( 1.000000000000000000, 0.000000000000000000, 0.000000000000000000 ) ) ;
#781 = ORIENTED_EDGE ( 'NONE', *, *, #505, .T. ) ;
#782 = LINE ( 'NONE', #1164, #195 ) ;
#783 = FILL_AREA_STYLE ('',( #300 ) ) ;
#784 = EDGE_CURVE ( 'NONE', #307, #157, #4, .T. ) ;
#785 = ORIENTED_EDGE ( 'NONE', *, *, #437, .F. ) ;
#786 = LINE ( 'NONE', #428, #277 ) ;
#787 = ORIENTED_EDGE ( 'NONE', *, *, #573, .F. ) ;
#788 = LINE ( 'NONE', #140, #608 ) ;
#789 = CARTESIAN_POINT ( 'NONE',  ( 33.60000000000000142, 67.49999999999997158, 5.000000000000000000 ) ) ;
#790 = VECTOR ( 'NONE', #1004, 1000.000000000000000 ) ;
#791 = CLOSED_SHELL ( 'NONE', ( #460, #760, #248, #269, #653, #1081, #143, #526, #574, #175, #1021, #81, #1023, #548, #677, #705, #476, #877, #368, #524, #1190, #482, #768, #614, #1210, #984, #938, #1178, #136, #238, #491, #564, #304, #343, #1202, #440, #823, #721, #179 ) ) ;
#792 = VECTOR ( 'NONE', #285, 1000.000000000000000 ) ;
#793 = ORIENTED_EDGE ( 'NONE', *, *, #1029, .T. ) ;
#794 = CARTESIAN_POINT ( 'NONE',  ( 20.00000000000003197, 47.52883902667444715, -52.82635607109082798 ) ) ;
#795 = EDGE_LOOP ( 'NONE', ( #409, #942 ) ) ;
#796 = CYLINDRICAL_SURFACE ( 'NONE', #71, 1.600000000000000755 ) ;
#797 = CARTESIAN_POINT ( 'NONE',  ( 17.00000000000002842, 47.52883902667444715, 8.000000000000000000 ) ) ;
#798 = VERTEX_POINT ( 'NONE', #405 ) ;
#799 = EDGE_CURVE ( 'NONE', #429, #212, #207, .T. ) ;
#800 = FACE_OUTER_BOUND ( 'NONE', #775, .T. ) ;
#801 = EDGE_CURVE ( 'NONE', #982, #798, #35, .T. ) ;
#802 = EDGE_LOOP ( 'NONE', ( #464, #309, #201, #345, #231, #845 ) ) ;
#803 = CARTESIAN_POINT ( 'NONE',  ( 1.600000000000019407, 42.49999999999998579, 8.000000000000000000 ) ) ;
#804 = CARTESIAN_POINT ( 'NONE',  ( -1.599999999999977662, 42.49999999999998579, 8.000000000000000000 ) ) ;
#805 = CARTESIAN_POINT ( 'NONE',  ( 2.081668171172168829E-14, 42.49999999999998579, 5.000000000000000000 ) ) ;
#806 = ORIENTED_EDGE ( 'NONE', *, *, #1108, .F. ) ;
#807 = CARTESIAN_POINT ( 'NONE',  ( 20.00000000000003908, 57.49999999999997868, 0.000000000000000000 ) ) ;
#808 = EDGE_CURVE ( 'NONE', #538, #547, #874, .T. ) ;
#809 = FACE_OUTER_BOUND ( 'NONE', #383, .T. ) ;
#810 = VECTOR ( 'NONE', #604, 1000.000000000000000 ) ;
#811 = AXIS2_PLACEMENT_3D ( 'NONE', #199, #957, #1136 ) ;
#812 = DIRECTION ( 'NONE',  ( 0.000000000000000000, 0.000000000000000000, 1.000000000000000000 ) ) ;
#813 = AXIS2_PLACEMENT_3D ( 'NONE', #187, #956, #966 ) ;
#814 = AXIS2_PLACEMENT_3D ( 'NONE', #855, #483, #388 ) ;
#815 = ORIENTED_EDGE ( 'NONE', *, *, #589, .F. ) ;
#816 = FACE_OUTER_BOUND ( 'NONE', #1182, .T. ) ;
#817 = CARTESIAN_POINT ( 'NONE',  ( -2.999999999999980904, 62.49999999999998579, 5.000000000000000000 ) ) ;
#818 = EDGE_LOOP ( 'NONE', ( #167, #1109, #289, #65 ) ) ;
#819 = LINE ( 'NONE', #462, #1052 ) ;
#820 = CARTESIAN_POINT ( 'NONE',  ( 40.00000000000000711, 77.49999999999998579, 0.000000000000000000 ) ) ;
#821 = PRODUCT_DEFINITION_SHAPE ( 'NONE', 'NONE',  #166 ) ;
#822 = ORIENTED_EDGE ( 'NONE', *, *, #41, .F. ) ;
#823 = ADVANCED_FACE ( 'NONE', ( #1157 ), #1129, .T. ) ;
#824 = CARTESIAN_POINT ( 'NONE',  ( 10.00000000000004086, 37.49999999999998579, -52.82635607109082798 ) ) ;
#825 = ORIENTED_EDGE ( 'NONE', *, *, #1225, .T. ) ;
#826 = DIRECTION ( 'NONE',  ( -0.000000000000000000, -0.000000000000000000, 1.000000000000000000 ) ) ;
#827 = DIRECTION ( 'NONE',  ( 1.000000000000000000, 0.000000000000000000, 0.000000000000000000 ) ) ;
#828 = EDGE_LOOP ( 'NONE', ( #761, #234 ) ) ;
#829 = CARTESIAN_POINT ( 'NONE',  ( 2.081668171172168513E-14, 62.49999999999998579, 5.000000000000000000 ) ) ;
#830 = AXIS2_PLACEMENT_3D ( 'NONE', #599, #146, #915 ) ;
#831 = VECTOR ( 'NONE', #1130, 1000.000000000000000 ) ;
#832 = ORIENTED_EDGE ( 'NONE', *, *, #306, .T. ) ;
#833 = DIRECTION ( 'NONE',  ( -0.000000000000000000, -0.000000000000000000, 1.000000000000000000 ) ) ;
#834 = AXIS2_PLACEMENT_3D ( 'NONE', #245, #1014, #846 ) ;
#835 = CARTESIAN_POINT ( 'NONE',  ( -2.999999999999980904, 42.49999999999998579, 5.000000000000000000 ) ) ;
#836 = ORIENTED_EDGE ( 'NONE', *, *, #160, .F. ) ;
#837 = DIRECTION ( 'NONE',  ( 0.000000000000000000, 0.000000000000000000, 1.000000000000000000 ) ) ;
#838 = EDGE_CURVE ( 'NONE', #212, #256, #478, .T. ) ;
#839 = ORIENTED_EDGE ( 'NONE', *, *, #931, .T. ) ;
#840 = CARTESIAN_POINT ( 'NONE',  ( 3.000000000000022649, 42.49999999999998579, 5.000000000000000000 ) ) ;
#841 = APPLICATION_CONTEXT ( 'automotive_design' ) ;
#842 = EDGE_CURVE ( 'NONE', #562, #416, #649, .T. ) ;
#843 = CARTESIAN_POINT ( 'NONE',  ( 2.081668171172168513E-14, 62.49999999999998579, 5.000000000000000000 ) ) ;
#844 = ORIENTED_EDGE ( 'NONE', *, *, #729, .F. ) ;
#845 = ORIENTED_EDGE ( 'NONE', *, *, #666, .T. ) ;
#846 = DIRECTION ( 'NONE',  ( -1.000000000000000000, 0.000000000000000000, 0.000000000000000000 ) ) ;
#847 = DIRECTION ( 'NONE',  ( -1.156482317317871478E-16, 1.000000000000000000, 0.000000000000000000 ) ) ;
#848 = VERTEX_POINT ( 'NONE', #386 ) ;
#849 = ORIENTED_EDGE ( 'NONE', *, *, #7, .T. ) ;
#850 = CIRCLE ( 'NONE', #237, 3.000000000000002665 ) ;
#851 = DIRECTION ( 'NONE',  ( -1.000000000000000000, 0.000000000000000000, 0.000000000000000000 ) ) ;
#852 = DIRECTION ( 'NONE',  ( 1.000000000000000000, 0.000000000000000000, 0.000000000000000000 ) ) ;
#853 = AXIS2_PLACEMENT_3D ( 'NONE', #738, #925, #933 ) ;
#854 = LINE ( 'NONE', #1159, #494 ) ;
#855 = CARTESIAN_POINT ( 'NONE',  ( 20.00000000000003197, 47.52883902667444715, -10.39994919989799982 ) ) ;
#856 = EDGE_LOOP ( 'NONE', ( #865, #268 ) ) ;
#857 = DIRECTION ( 'NONE',  ( 1.000000000000000000, 0.000000000000000000, 0.000000000000000000 ) ) ;
#858 = FACE_BOUND ( 'NONE', #544, .T. ) ;
#859 = CARTESIAN_POINT ( 'NONE',  ( -1.599999999999981215, 62.49999999999998579, 5.000000000000000000 ) ) ;
#860 = EDGE_CURVE ( 'NONE', #1184, #380, #73, .T. ) ;
#861 = ORIENTED_EDGE ( 'NONE', *, *, #838, .T. ) ;
#862 = PLANE ( 'NONE',  #93 ) ;
#863 = CARTESIAN_POINT ( 'NONE',  ( 2.081668171172168513E-14, 62.49999999999998579, 0.000000000000000000 ) ) ;
#864 = EDGE_CURVE ( 'NONE', #1216, #173, #1140, .T. ) ;
#865 = ORIENTED_EDGE ( 'NONE', *, *, #488, .F. ) ;
#866 = DIRECTION ( 'NONE',  ( -6.938893903907228378E-17, 1.000000000000000000, 0.000000000000000000 ) ) ;
#867 = CIRCLE ( 'NONE', #908, 3.000000000000002665 ) ;
#868 = AXIS2_PLACEMENT_3D ( 'NONE', #700, #1003, #715 ) ;
#869 = CARTESIAN_POINT ( 'NONE',  ( 0.000000000000000000, 57.49999999999997868, -52.82635607109082798 ) ) ;
#870 = AXIS2_PLACEMENT_3D ( 'NONE', #522, #133, #902 ) ;
#871 = LINE ( 'NONE', #493, #233 ) ;
#872 = CIRCLE ( 'NONE', #15, 10.00000000000000178 ) ;
#873 = VERTEX_POINT ( 'NONE', #655 ) ;
#874 = LINE ( 'NONE', #581, #792 ) ;
#875 = EDGE_CURVE ( 'NONE', #105, #484, #711, .T. ) ;
#876 = FACE_OUTER_BOUND ( 'NONE', #449, .T. ) ;
#877 = ADVANCED_FACE ( 'NONE', ( #290 ), #862, .F. ) ;
#878 = DIRECTION ( 'NONE',  ( 0.000000000000000000, 0.000000000000000000, 1.000000000000000000 ) ) ;
#879 = ORIENTED_EDGE ( 'NONE', *, *, #884, .F. ) ;
#880 = CARTESIAN_POINT ( 'NONE',  ( 1.600000000000019407, 42.49999999999998579, 5.000000000000000000 ) ) ;
#881 = VERTEX_POINT ( 'NONE', #1048 ) ;
#882 = DIRECTION ( 'NONE',  ( -0.000000000000000000, -0.000000000000000000, -1.000000000000000000 ) ) ;
#883 = CARTESIAN_POINT ( 'NONE',  ( -9.999999999999991118, 77.49999999999998579, 8.000000000000000000 ) ) ;
#884 = EDGE_CURVE ( 'NONE', #130, #217, #176, .T. ) ;
#885 = VERTEX_POINT ( 'NONE', #86 ) ;
#886 = CARTESIAN_POINT ( 'NONE',  ( 18.00000000000003553, 67.49999999999997158, 8.000000000000000000 ) ) ;
#887 = ORIENTED_EDGE ( 'NONE', *, *, #148, .T. ) ;
#888 = FACE_OUTER_BOUND ( 'NONE', #2, .T. ) ;
#889 = LINE ( 'NONE', #323, #584 ) ;
#890 = CIRCLE ( 'NONE', #132, 1.600000000000011191 ) ;
#891 = EDGE_CURVE ( 'NONE', #756, #36, #9, .T. ) ;
#892 = CIRCLE ( 'NONE', #378, 1.599999999999997202 ) ;
#893 = AXIS2_PLACEMENT_3D ( 'NONE', #515, #692, #417 ) ;
#894 = ORIENTED_EDGE ( 'NONE', *, *, #1108, .T. ) ;
#895 = DIRECTION ( 'NONE',  ( -1.000000000000000000, 0.000000000000000000, 0.000000000000000000 ) ) ;
#896 = ORIENTED_EDGE ( 'NONE', *, *, #625, .T. ) ;
#897 = CARTESIAN_POINT ( 'NONE',  ( 40.00000000000000711, 47.49999999999997868, 8.000000000000000000 ) ) ;
#898 = CARTESIAN_POINT ( 'NONE',  ( 30.00000000000000711, 27.49999999999998224, 8.000000000000000000 ) ) ;
#899 = CARTESIAN_POINT ( 'NONE',  ( -3.975730816570767477E-15, 27.49999999999998224, -10.39994919989799982 ) ) ;
#900 = EDGE_CURVE ( 'NONE', #1060, #740, #872, .T. ) ;
#901 = VERTEX_POINT ( 'NONE', #776 ) ;
#902 = DIRECTION ( 'NONE',  ( 1.000000000000000000, 0.000000000000000000, 0.000000000000000000 ) ) ;
#903 = CARTESIAN_POINT ( 'NONE',  ( 1.600000000000019407, 42.49999999999998579, 0.000000000000000000 ) ) ;
#904 = CARTESIAN_POINT ( 'NONE',  ( 3.000000000000022649, 42.49999999999998579, 5.000000000000000000 ) ) ;
#905 = ORIENTED_EDGE ( 'NONE', *, *, #361, .F. ) ;
#906 = LINE ( 'NONE', #317, #752 ) ;
#907 = DIRECTION ( 'NONE',  ( -0.000000000000000000, -0.000000000000000000, -1.000000000000000000 ) ) ;
#908 = AXIS2_PLACEMENT_3D ( 'NONE', #638, #432, #243 ) ;
#909 = VECTOR ( 'NONE', #67, 1000.000000000000000 ) ;
#910 = PRODUCT ( 'L\X2\578b8fde63a54ef6\X0\_\X2\5e9590e8\X0\_\X2\5de6\X0\', 'L\X2\578b8fde63a54ef6\X0\_\X2\5e9590e8\X0\_\X2\5de6\X0\', '', ( #370 ) ) ;
#911 = PLANE ( 'NONE',  #211 ) ;
#912 = VECTOR ( 'NONE', #308, 1000.000000000000000 ) ;
#913 = VERTEX_POINT ( 'NONE', #674 ) ;
#914 = CARTESIAN_POINT ( 'NONE',  ( -9.999999999999991118, 67.49999999999998579, 8.000000000000000000 ) ) ;
#915 = DIRECTION ( 'NONE',  ( -1.000000000000000000, 0.000000000000000000, 0.000000000000000000 ) ) ;
#916 = EDGE_CURVE ( 'NONE', #48, #694, #53, .T. ) ;
#917 = ORIENTED_EDGE ( 'NONE', *, *, #784, .T. ) ;
#918 = CARTESIAN_POINT ( 'NONE',  ( 18.40000000000003055, 47.52883902667444715, 4.999999999999997335 ) ) ;
#919 = EDGE_LOOP ( 'NONE', ( #1038, #748 ) ) ;
#920 = CARTESIAN_POINT ( 'NONE',  ( 20.00000000000003197, 47.52883902667444715, 4.999999999999997335 ) ) ;
#921 = DIRECTION ( 'NONE',  ( -0.000000000000000000, -0.000000000000000000, 1.000000000000000000 ) ) ;
#922 = ORIENTED_EDGE ( 'NONE', *, *, #1123, .F. ) ;
#923 = DIRECTION ( 'NONE',  ( 0.000000000000000000, 0.000000000000000000, 1.000000000000000000 ) ) ;
#924 = EDGE_LOOP ( 'NONE', ( #59, #723, #411, #844 ) ) ;
#925 = DIRECTION ( 'NONE',  ( 0.000000000000000000, 0.000000000000000000, 1.000000000000000000 ) ) ;
#926 = CARTESIAN_POINT ( 'NONE',  ( 32.00000000000000711, 67.49999999999997158, 8.000000000000000000 ) ) ;
#927 = ORIENTED_EDGE ( 'NONE', *, *, #1029, .F. ) ;
#928 = EDGE_CURVE ( 'NONE', #664, #737, #1135, .T. ) ;
#929 = AXIS2_PLACEMENT_3D ( 'NONE', #287, #108, #663 ) ;
#930 = DIRECTION ( 'NONE',  ( 1.000000000000000000, 0.000000000000000000, 0.000000000000000000 ) ) ;
#931 = EDGE_CURVE ( 'NONE', #144, #547, #1229, .T. ) ;
#932 = ORIENTED_EDGE ( 'NONE', *, *, #1044, .F. ) ;
#933 = DIRECTION ( 'NONE',  ( 1.000000000000000000, 0.000000000000000000, 0.000000000000000000 ) ) ;
#934 = CIRCLE ( 'NONE', #968, 3.000000000000001776 ) ;
#935 = CARTESIAN_POINT ( 'NONE',  ( 10.00000000000003730, 57.49999999999997868, 0.000000000000000000 ) ) ;
#936 = EDGE_LOOP ( 'NONE', ( #1134, #731, #1204, #965, #489, #126, #38, #986 ) ) ;
#937 = DIRECTION ( 'NONE',  ( 1.000000000000000000, 0.000000000000000000, 0.000000000000000000 ) ) ;
#938 = ADVANCED_FACE ( 'NONE', ( #320, #800 ), #226, .T. ) ;
#939 = ORIENTED_EDGE ( 'NONE', *, *, #512, .T. ) ;
#940 = LINE ( 'NONE', #80, #1127 ) ;
#941 = FACE_OUTER_BOUND ( 'NONE', #713, .T. ) ;
#942 = ORIENTED_EDGE ( 'NONE', *, *, #1059, .F. ) ;
#943 = ORIENTED_EDGE ( 'NONE', *, *, #636, .F. ) ;
#944 = DIRECTION ( 'NONE',  ( 1.000000000000000000, 6.938893903907229364E-16, 1.734723475976807341E-16 ) ) ;
#945 = EDGE_CURVE ( 'NONE', #881, #600, #1032, .T. ) ;
#946 = FACE_OUTER_BOUND ( 'NONE', #802, .T. ) ;
#947 = DIRECTION ( 'NONE',  ( 0.000000000000000000, 0.000000000000000000, 1.000000000000000000 ) ) ;
#948 = ORIENTED_EDGE ( 'NONE', *, *, #954, .T. ) ;
#949 = DIRECTION ( 'NONE',  ( 0.000000000000000000, 0.000000000000000000, 1.000000000000000000 ) ) ;
#950 = AXIS2_PLACEMENT_3D ( 'NONE', #759, #1053, #27 ) ;
#951 = VECTOR ( 'NONE', #87, 1000.000000000000000 ) ;
#952 = CYLINDRICAL_SURFACE ( 'NONE', #354, 3.000000000000002665 ) ;
#953 = AXIS2_PLACEMENT_3D ( 'NONE', #390, #949, #757 ) ;
#954 = EDGE_CURVE ( 'NONE', #1207, #606, #47, .T. ) ;
#955 = ORIENTED_EDGE ( 'NONE', *, *, #210, .F. ) ;
#956 = DIRECTION ( 'NONE',  ( 0.000000000000000000, 0.000000000000000000, 1.000000000000000000 ) ) ;
#957 = DIRECTION ( 'NONE',  ( 0.000000000000000000, 0.000000000000000000, 1.000000000000000000 ) ) ;
#958 = CARTESIAN_POINT ( 'NONE',  ( -2.999999999999980904, 42.49999999999998579, 5.000000000000000000 ) ) ;
#959 = EDGE_CURVE ( 'NONE', #12, #735, #1162, .T. ) ;
#960 = ORIENTED_EDGE ( 'NONE', *, *, #808, .T. ) ;
#961 = DIRECTION ( 'NONE',  ( 0.000000000000000000, 0.000000000000000000, 1.000000000000000000 ) ) ;
#962 = DIRECTION ( 'NONE',  ( 0.000000000000000000, 0.000000000000000000, 1.000000000000000000 ) ) ;
#963 = CARTESIAN_POINT ( 'NONE',  ( 23.00000000000003553, 47.52883902667444715, 8.000000000000000000 ) ) ;
#964 = EDGE_CURVE ( 'NONE', #1188, #698, #786, .T. ) ;
#965 = ORIENTED_EDGE ( 'NONE', *, *, #376, .F. ) ;
#966 = DIRECTION ( 'NONE',  ( -1.000000000000000000, 0.000000000000000000, 0.000000000000000000 ) ) ;
#967 = EDGE_CURVE ( 'NONE', #256, #756, #525, .T. ) ;
#968 = AXIS2_PLACEMENT_3D ( 'NONE', #537, #64, #937 ) ;
#969 = AXIS2_PLACEMENT_3D ( 'NONE', #329, #1087, #236 ) ;
#970 = DIRECTION ( 'NONE',  ( -0.000000000000000000, -0.000000000000000000, 1.000000000000000000 ) ) ;
#971 = AXIS2_PLACEMENT_3D ( 'NONE', #869, #286, #299 ) ;
#972 = DIRECTION ( 'NONE',  ( -0.000000000000000000, -0.000000000000000000, -1.000000000000000000 ) ) ;
#973 = AXIS2_PLACEMENT_3D ( 'NONE', #545, #833, #1212 ) ;
#974 = AXIS2_PLACEMENT_3D ( 'NONE', #168, #923, #543 ) ;
#975 = ORIENTED_EDGE ( 'NONE', *, *, #104, .F. ) ;
#976 = DIRECTION ( 'NONE',  ( 1.000000000000000000, 0.000000000000000000, 1.734723475976806848E-16 ) ) ;
#977 = ORIENTED_EDGE ( 'NONE', *, *, #693, .T. ) ;
#978 = FACE_OUTER_BOUND ( 'NONE', #321, .T. ) ;
#979 = SURFACE_STYLE_USAGE ( .BOTH. , #686 ) ;
#980 = ORIENTED_EDGE ( 'NONE', *, *, #210, .T. ) ;
#981 = DIRECTION ( 'NONE',  ( 0.000000000000000000, 0.000000000000000000, 1.000000000000000000 ) ) ;
#982 = VERTEX_POINT ( 'NONE', #880 ) ;
#983 = CYLINDRICAL_SURFACE ( 'NONE', #516, 1.600000000000011191 ) ;
#984 = ADVANCED_FACE ( 'NONE', ( #138 ), #37, .F. ) ;
#985 = CARTESIAN_POINT ( 'NONE',  ( 2.081668171172168513E-14, 62.49999999999998579, 8.000000000000000000 ) ) ;
#986 = ORIENTED_EDGE ( 'NONE', *, *, #1073, .T. ) ;
#987 = FACE_OUTER_BOUND ( 'NONE', #77, .T. ) ;
#988 = ORIENTED_EDGE ( 'NONE', *, *, #1123, .T. ) ;
#989 = DIRECTION ( 'NONE',  ( 0.000000000000000000, 0.000000000000000000, 1.000000000000000000 ) ) ;
#990 = AXIS2_PLACEMENT_3D ( 'NONE', #209, #778, #403 ) ;
#991 = FACE_OUTER_BOUND ( 'NONE', #29, .T. ) ;
#992 = VECTOR ( 'NONE', #1218, 1000.000000000000000 ) ;
#993 = EDGE_CURVE ( 'NONE', #913, #885, #216, .T. ) ;
#994 = AXIS2_PLACEMENT_3D ( 'NONE', #235, #420, #223 ) ;
#995 = AXIS2_PLACEMENT_3D ( 'NONE', #750, #360, #1019 ) ;
#996 = CARTESIAN_POINT ( 'NONE',  ( 20.00000000000004263, 37.49999999999998579, 0.000000000000000000 ) ) ;
#997 = EDGE_LOOP ( 'NONE', ( #567, #932, #1072, #849 ) ) ;
#998 = CARTESIAN_POINT ( 'NONE',  ( 32.00000000000000711, 67.49999999999997158, 8.000000000000000000 ) ) ;
#999 = CARTESIAN_POINT ( 'NONE',  ( 23.00000000000003553, 47.52883902667444715, 5.000000000000000000 ) ) ;
#1000 = CARTESIAN_POINT ( 'NONE',  ( 20.00000000000003197, 47.52883902667444715, 8.000000000000000000 ) ) ;
#1001 = ORIENTED_EDGE ( 'NONE', *, *, #229, .T. ) ;
#1002 = CARTESIAN_POINT ( 'NONE',  ( 1.600000000000022737, 62.49999999999998579, 0.000000000000000000 ) ) ;
#1003 = DIRECTION ( 'NONE',  ( 0.000000000000000000, 0.000000000000000000, 1.000000000000000000 ) ) ;
#1004 = DIRECTION ( 'NONE',  ( 0.000000000000000000, 0.000000000000000000, 1.000000000000000000 ) ) ;
#1005 = EDGE_CURVE ( 'NONE', #105, #222, #1078, .T. ) ;
#1006 = VERTEX_POINT ( 'NONE', #601 ) ;
#1007 = DIRECTION ( 'NONE',  ( 1.000000000000000000, 0.000000000000000000, 0.000000000000000000 ) ) ;
#1008 = LINE ( 'NONE', #999, #1208 ) ;
#1009 = EDGE_LOOP ( 'NONE', ( #79, #861, #1028, #1201, #161, #470 ) ) ;
#1010 = VECTOR ( 'NONE', #770, 1000.000000000000000 ) ;
#1011 = CARTESIAN_POINT ( 'NONE',  ( 2.081668171172168513E-14, 62.49999999999998579, 5.000000000000000000 ) ) ;
#1012 = VECTOR ( 'NONE', #762, 1000.000000000000000 ) ;
#1013 = ORIENTED_EDGE ( 'NONE', *, *, #693, .F. ) ;
#1014 = DIRECTION ( 'NONE',  ( -0.000000000000000000, 0.000000000000000000, -1.000000000000000000 ) ) ;
#1015 = CARTESIAN_POINT ( 'NONE',  ( 23.00000000000003553, 47.52883902667444715, 5.000000000000000000 ) ) ;
#1016 = VERTEX_POINT ( 'NONE', #683 ) ;
#1017 = LINE ( 'NONE', #824, #790 ) ;
#1018 = EDGE_LOOP ( 'NONE', ( #365, #627, #1013, #316, #94, #905, #1097, #189, #839, #637 ) ) ;
#1019 = DIRECTION ( 'NONE',  ( -1.000000000000000000, 0.000000000000000000, 0.000000000000000000 ) ) ;
#1020 = PLANE ( 'NONE',  #531 ) ;
#1021 = ADVANCED_FACE ( 'NONE', ( #987 ), #520, .F. ) ;
#1022 = EDGE_LOOP ( 'NONE', ( #262, #1077 ) ) ;
#1023 = ADVANCED_FACE ( 'NONE', ( #313 ), #702, .F. ) ;
#1024 = CARTESIAN_POINT ( 'NONE',  ( 2.081668171172168829E-14, 42.49999999999998579, 5.000000000000000000 ) ) ;
#1025 = ORIENTED_EDGE ( 'NONE', *, *, #801, .F. ) ;
#1026 = FACE_BOUND ( 'NONE', #1161, .T. ) ;
#1027 = LINE ( 'NONE', #820, #992 ) ;
#1028 = ORIENTED_EDGE ( 'NONE', *, *, #967, .T. ) ;
#1029 = EDGE_CURVE ( 'NONE', #682, #1016, #379, .T. ) ;
#1030 = VECTOR ( 'NONE', #357, 1000.000000000000000 ) ;
#1031 = FACE_BOUND ( 'NONE', #258, .T. ) ;
#1032 = CIRCLE ( 'NONE', #893, 10.00000000000000000 ) ;
#1033 = ORIENTED_EDGE ( 'NONE', *, *, #200, .T. ) ;
#1034 = CARTESIAN_POINT ( 'NONE',  ( 16.40000000000002700, 67.49999999999997158, 5.000000000000000000 ) ) ;
#1035 = CIRCLE ( 'NONE', #1125, 1.599999999999998535 ) ;
#1036 = PLANE ( 'NONE',  #1173 ) ;
#1037 = ORIENTED_EDGE ( 'NONE', *, *, #137, .T. ) ;
#1038 = ORIENTED_EDGE ( 'NONE', *, *, #358, .T. ) ;
#1039 = CARTESIAN_POINT ( 'NONE',  ( 29.00000000000000355, 67.49999999999997158, 8.000000000000000000 ) ) ;
#1040 = CARTESIAN_POINT ( 'NONE',  ( 33.60000000000000142, 67.49999999999997158, 0.000000000000000000 ) ) ;
#1041 = EDGE_LOOP ( 'NONE', ( #1163, #44, #425, #1112 ) ) ;
#1042 = ORIENTED_EDGE ( 'NONE', *, *, #400, .F. ) ;
#1043 = CARTESIAN_POINT ( 'NONE',  ( 32.00000000000000711, 67.49999999999997158, 5.000000000000000000 ) ) ;
#1044 = EDGE_CURVE ( 'NONE', #694, #48, #473, .T. ) ;
#1045 = PLANE ( 'NONE',  #1088 ) ;
#1046 = DIRECTION ( 'NONE',  ( 0.000000000000000000, 0.000000000000000000, 1.000000000000000000 ) ) ;
#1047 = ORIENTED_EDGE ( 'NONE', *, *, #716, .F. ) ;
#1048 = CARTESIAN_POINT ( 'NONE',  ( -9.999999999999991118, 67.49999999999998579, 0.000000000000000000 ) ) ;
#1049 = CIRCLE ( 'NONE', #113, 1.600000000000002087 ) ;
#1050 = FACE_BOUND ( 'NONE', #631, .T. ) ;
#1051 = PRODUCT_RELATED_PRODUCT_CATEGORY ( 'part', '', ( #910 ) ) ;
#1052 = VECTOR ( 'NONE', #366, 1000.000000000000000 ) ;
#1053 = DIRECTION ( 'NONE',  ( -0.000000000000000000, -0.000000000000000000, -1.000000000000000000 ) ) ;
#1054 = ORIENTED_EDGE ( 'NONE', *, *, #43, .F. ) ;
#1055 = CARTESIAN_POINT ( 'NONE',  ( 15.00000000000003375, 67.49999999999997158, 5.000000000000000000 ) ) ;
#1056 = DIRECTION ( 'NONE',  ( 1.000000000000000000, 0.000000000000000000, 0.000000000000000000 ) ) ;
#1057 = EDGE_CURVE ( 'NONE', #694, #1016, #1187, .T. ) ;
#1058 = CARTESIAN_POINT ( 'NONE',  ( 30.00000000000000711, 57.49999999999997868, -10.39994919989799627 ) ) ;
#1059 = EDGE_CURVE ( 'NONE', #157, #70, #850, .T. ) ;
#1060 = VERTEX_POINT ( 'NONE', #1065 ) ;
#1061 = CARTESIAN_POINT ( 'NONE',  ( 17.00000000000002842, 47.52883902667444715, 5.000000000000000000 ) ) ;
#1062 = CARTESIAN_POINT ( 'NONE',  ( 30.00000000000000711, 27.49999999999998224, 8.000000000000000000 ) ) ;
#1063 = DIRECTION ( 'NONE',  ( 1.000000000000000000, 0.000000000000000000, 0.000000000000000000 ) ) ;
#1064 = ORIENTED_EDGE ( 'NONE', *, *, #424, .F. ) ;
#1065 = CARTESIAN_POINT ( 'NONE',  ( 40.00000000000000711, 47.49999999999997868, 0.000000000000000000 ) ) ;
#1066 = AXIS2_PLACEMENT_3D ( 'NONE', #1011, #156, #257 ) ;
#1067 = ORIENTED_EDGE ( 'NONE', *, *, #745, .T. ) ;
#1068 = DIRECTION ( 'NONE',  ( 1.000000000000000000, 0.000000000000000000, 0.000000000000000000 ) ) ;
#1069 = AXIS2_PLACEMENT_3D ( 'NONE', #926, #266, #827 ) ;
#1070 = DIRECTION ( 'NONE',  ( 9.370887401898403266E-17, -4.833309796710061754E-19, -1.000000000000000000 ) ) ;
#1071 = AXIS2_PLACEMENT_3D ( 'NONE', #30, #423, #232 ) ;
#1072 = ORIENTED_EDGE ( 'NONE', *, *, #1057, .T. ) ;
#1073 = EDGE_CURVE ( 'NONE', #848, #222, #712, .T. ) ;
#1074 = DIRECTION ( 'NONE',  ( -1.000000000000000000, 0.000000000000000000, -9.370887401898403266E-17 ) ) ;
#1075 = DIRECTION ( 'NONE',  ( -0.000000000000000000, -0.000000000000000000, -1.000000000000000000 ) ) ;
#1076 = CARTESIAN_POINT ( 'NONE',  ( -9.999999999999991118, 77.49999999999998579, 0.000000000000000000 ) ) ;
#1077 = ORIENTED_EDGE ( 'NONE', *, *, #400, .T. ) ;
#1078 = LINE ( 'NONE', #899, #912 ) ;
#1079 = ORIENTED_EDGE ( 'NONE', *, *, #993, .T. ) ;
#1080 = DIRECTION ( 'NONE',  ( -1.000000000000000000, 0.000000000000000000, 0.000000000000000000 ) ) ;
#1081 = ADVANCED_FACE ( 'NONE', ( #1106 ), #58, .F. ) ;
#1082 = FACE_OUTER_BOUND ( 'NONE', #701, .T. ) ;
#1083 = ORIENTED_EDGE ( 'NONE', *, *, #707, .T. ) ;
#1084 = DIRECTION ( 'NONE',  ( 0.000000000000000000, 0.000000000000000000, 1.000000000000000000 ) ) ;
#1085 = ORIENTED_EDGE ( 'NONE', *, *, #729, .T. ) ;
#1086 = CARTESIAN_POINT ( 'NONE',  ( 18.00000000000003553, 67.49999999999997158, 8.000000000000000000 ) ) ;
#1087 = DIRECTION ( 'NONE',  ( 0.000000000000000000, 0.000000000000000000, -1.000000000000000000 ) ) ;
#1088 = AXIS2_PLACEMENT_3D ( 'NONE', #699, #617, #327 ) ;
#1089 = AXIS2_PLACEMENT_3D ( 'NONE', #330, #125, #508 ) ;
#1090 = CARTESIAN_POINT ( 'NONE',  ( 18.00000000000003553, 67.49999999999997158, 5.000000000000000000 ) ) ;
#1091 = EDGE_LOOP ( 'NONE', ( #1101, #678 ) ) ;
#1092 = DIRECTION ( 'NONE',  ( 1.000000000000000000, 0.000000000000000000, 0.000000000000000000 ) ) ;
#1093 = LINE ( 'NONE', #1076, #769 ) ;
#1094 = EDGE_CURVE ( 'NONE', #756, #385, #1203, .T. ) ;
#1095 = EDGE_CURVE ( 'NONE', #885, #240, #162, .T. ) ;
#1096 = DIRECTION ( 'NONE',  ( 0.000000000000000000, 0.000000000000000000, 1.000000000000000000 ) ) ;
#1097 = ORIENTED_EDGE ( 'NONE', *, *, #842, .T. ) ;
#1098 = CARTESIAN_POINT ( 'NONE',  ( 18.00000000000003553, 67.49999999999997158, 5.000000000000000000 ) ) ;
#1099 = DIRECTION ( 'NONE',  ( -0.000000000000000000, -0.000000000000000000, -1.000000000000000000 ) ) ;
#1100 = FACE_OUTER_BOUND ( 'NONE', #503, .T. ) ;
#1101 = ORIENTED_EDGE ( 'NONE', *, *, #1044, .T. ) ;
#1102 = FACE_BOUND ( 'NONE', #588, .T. ) ;
#1103 = DIRECTION ( 'NONE',  ( -9.370887401898403266E-17, 4.833309796710061754E-19, 1.000000000000000000 ) ) ;
#1104 = ORIENTED_EDGE ( 'NONE', *, *, #931, .F. ) ;
#1105 = AXIS2_PLACEMENT_3D ( 'NONE', #382, #758, #675 ) ;
#1106 = FACE_OUTER_BOUND ( 'NONE', #550, .T. ) ;
#1107 = AXIS2_PLACEMENT_3D ( 'NONE', #490, #19, #191 ) ;
#1108 = EDGE_CURVE ( 'NONE', #885, #913, #116, .T. ) ;
#1109 = ORIENTED_EDGE ( 'NONE', *, *, #437, .T. ) ;
#1110 = FACE_BOUND ( 'NONE', #220, .T. ) ;
#1111 = DIRECTION ( 'NONE',  ( 1.000000000000000000, 0.000000000000000000, 0.000000000000000000 ) ) ;
#1112 = ORIENTED_EDGE ( 'NONE', *, *, #97, .F. ) ;
#1113 = DIRECTION ( 'NONE',  ( 9.370887401898403266E-17, -4.833309796710061754E-19, -1.000000000000000000 ) ) ;
#1114 = ORIENTED_EDGE ( 'NONE', *, *, #799, .F. ) ;
#1115 = CARTESIAN_POINT ( 'NONE',  ( 21.00000000000003908, 67.49999999999997158, 8.000000000000000000 ) ) ;
#1116 = DIRECTION ( 'NONE',  ( 1.000000000000000000, 0.000000000000000000, 0.000000000000000000 ) ) ;
#1117 = EDGE_CURVE ( 'NONE', #1207, #746, #934, .T. ) ;
#1118 = ORIENTED_EDGE ( 'NONE', *, *, #541, .T. ) ;
#1119 = DIRECTION ( 'NONE',  ( -0.000000000000000000, -0.000000000000000000, -1.000000000000000000 ) ) ;
#1120 = EDGE_LOOP ( 'NONE', ( #184, #340, #348, #275 ) ) ;
#1121 = CARTESIAN_POINT ( 'NONE',  ( 40.00000000000000711, 37.49999999999998579, 8.000000000000000000 ) ) ;
#1122 = DIRECTION ( 'NONE',  ( 1.000000000000000000, 0.000000000000000000, 0.000000000000000000 ) ) ;
#1123 = EDGE_CURVE ( 'NONE', #1139, #173, #497, .T. ) ;
#1124 = ORIENTED_EDGE ( 'NONE', *, *, #148, .F. ) ;
#1125 = AXIS2_PLACEMENT_3D ( 'NONE', #1024, #1096, #445 ) ;
#1126 = CIRCLE ( 'NONE', #52, 3.000000000000002665 ) ;
#1127 = VECTOR ( 'NONE', #466, 1000.000000000000000 ) ;
#1128 = EDGE_LOOP ( 'NONE', ( #498, #1131, #334, #1211 ) ) ;
#1129 = CYLINDRICAL_SURFACE ( 'NONE', #1107, 9.999999999999998224 ) ;
#1130 = DIRECTION ( 'NONE',  ( -0.000000000000000000, -0.000000000000000000, -1.000000000000000000 ) ) ;
#1131 = ORIENTED_EDGE ( 'NONE', *, *, #63, .F. ) ;
#1132 = CARTESIAN_POINT ( 'NONE',  ( 0.000000000000000000, 0.000000000000000000, 0.000000000000000000 ) ) ;
#1133 = EDGE_CURVE ( 'NONE', #1216, #691, #374, .T. ) ;
#1134 = ORIENTED_EDGE ( 'NONE', *, *, #1005, .F. ) ;
#1135 = LINE ( 'NONE', #1055, #336 ) ;
#1136 = DIRECTION ( 'NONE',  ( 1.000000000000000000, 0.000000000000000000, 0.000000000000000000 ) ) ;
#1137 = LINE ( 'NONE', #219, #454 ) ;
#1138 = PRODUCT_DEFINITION_CONTEXT ( 'detailed design', #841, 'design' ) ;
#1139 = VERTEX_POINT ( 'NONE', #918 ) ;
#1140 = LINE ( 'NONE', #485, #438 ) ;
#1141 = DIRECTION ( 'NONE',  ( 0.000000000000000000, 0.000000000000000000, 1.000000000000000000 ) ) ;
#1142 = LINE ( 'NONE', #883, #375 ) ;
#1143 = CARTESIAN_POINT ( 'NONE',  ( 21.60000000000003340, 47.52883902667444715, -10.39994919989799982 ) ) ;
#1144 = AXIS2_PLACEMENT_3D ( 'NONE', #1132, #205, #1220 ) ;
#1145 = CIRCLE ( 'NONE', #1069, 3.000000000000002665 ) ;
#1146 = ORIENTED_EDGE ( 'NONE', *, *, #283, .T. ) ;
#1147 = CARTESIAN_POINT ( 'NONE',  ( 30.00000000000000711, 47.49999999999997868, 0.000000000000000000 ) ) ;
#1148 = AXIS2_PLACEMENT_3D ( 'NONE', #347, #554, #1116 ) ;
#1149 = EDGE_CURVE ( 'NONE', #798, #982, #1035, .T. ) ;
#1150 = AXIS2_PLACEMENT_3D ( 'NONE', #1180, #597, #719 ) ;
#1151 = CARTESIAN_POINT ( 'NONE',  ( 20.00000000000003197, 47.52883902667444715, 8.000000000000000000 ) ) ;
#1152 = AXIS2_PLACEMENT_3D ( 'NONE', #298, #95, #471 ) ;
#1153 = EDGE_CURVE ( 'NONE', #737, #698, #867, .T. ) ;
#1154 = CARTESIAN_POINT ( 'NONE',  ( 16.40000000000002700, 67.49999999999997158, 8.000000000000000000 ) ) ;
#1155 = APPLICATION_PROTOCOL_DEFINITION ( 'draft international standard', 'automotive_design', 1998, #668 ) ;
#1156 = ORIENTED_EDGE ( 'NONE', *, *, #652, .F. ) ;
#1157 = FACE_OUTER_BOUND ( 'NONE', #509, .T. ) ;
#1158 = DIRECTION ( 'NONE',  ( -0.000000000000000000, -0.000000000000000000, 1.000000000000000000 ) ) ;
#1159 = CARTESIAN_POINT ( 'NONE',  ( 20.00000000000003908, 57.49999999999997868, -52.82635607109082798 ) ) ;
#1160 = EDGE_CURVE ( 'NONE', #484, #144, #1017, .T. ) ;
#1161 = EDGE_LOOP ( 'NONE', ( #651, #927 ) ) ;
#1162 = LINE ( 'NONE', #710, #114 ) ;
#1163 = ORIENTED_EDGE ( 'NONE', *, *, #78, .F. ) ;
#1164 = CARTESIAN_POINT ( 'NONE',  ( 19.60000000000004761, 67.49999999999997158, 8.000000000000000000 ) ) ;
#1165 = SURFACE_STYLE_FILL_AREA ( #783 ) ;
#1166 = EDGE_CURVE ( 'NONE', #873, #23, #623, .T. ) ;
#1167 = ORIENTED_EDGE ( 'NONE', *, *, #78, .T. ) ;
#1168 = DIRECTION ( 'NONE',  ( -1.000000000000000000, 0.000000000000000000, 0.000000000000000000 ) ) ;
#1169 = VECTOR ( 'NONE', #615, 1000.000000000000000 ) ;
#1170 = CIRCLE ( 'NONE', #474, 3.000000000000001776 ) ;
#1171 = ORIENTED_EDGE ( 'NONE', *, *, #402, .T. ) ;
#1172 = CARTESIAN_POINT ( 'NONE',  ( 8.673617379884035472E-15, 77.49999999999998579, 0.000000000000000000 ) ) ;
#1173 = AXIS2_PLACEMENT_3D ( 'NONE', #362, #739, #159 ) ;
#1174 = DIRECTION ( 'NONE',  ( -1.000000000000000000, 0.000000000000000000, 0.000000000000000000 ) ) ;
#1175 = AXIS2_PLACEMENT_3D ( 'NONE', #272, #645, #533 ) ;
#1176 = ORIENTED_EDGE ( 'NONE', *, *, #579, .T. ) ;
#1177 = CARTESIAN_POINT ( 'NONE',  ( -2.999999999999980904, 62.49999999999998579, 5.000000000000000000 ) ) ;
#1178 = ADVANCED_FACE ( 'NONE', ( #364 ), #722, .F. ) ;
#1179 = ORIENTED_EDGE ( 'NONE', *, *, #598, .F. ) ;
#1180 = CARTESIAN_POINT ( 'NONE',  ( 2.081668171172168513E-14, 62.49999999999998579, 8.000000000000000000 ) ) ;
#1181 = CYLINDRICAL_SURFACE ( 'NONE', #868, 1.600000000000000755 ) ;
#1182 = EDGE_LOOP ( 'NONE', ( #673, #74, #742, #887 ) ) ;
#1183 = DIRECTION ( 'NONE',  ( -0.000000000000000000, -0.000000000000000000, 1.000000000000000000 ) ) ;
#1184 = VERTEX_POINT ( 'NONE', #619 ) ;
#1185 = CYLINDRICAL_SURFACE ( 'NONE', #434, 3.000000000000001776 ) ;
#1186 = CYLINDRICAL_SURFACE ( 'NONE', #969, 10.00000000000000000 ) ;
#1187 = LINE ( 'NONE', #904, #1169 ) ;
#1188 = VERTEX_POINT ( 'NONE', #1209 ) ;
#1189 = CYLINDRICAL_SURFACE ( 'NONE', #994, 10.00000000000000178 ) ;
#1190 = ADVANCED_FACE ( 'NONE', ( #247 ), #911, .F. ) ;
#1191 = DIRECTION ( 'NONE',  ( 1.000000000000000000, 0.000000000000000000, 0.000000000000000000 ) ) ;
#1192 = EDGE_CURVE ( 'NONE', #698, #737, #109, .T. ) ;
#1193 = VECTOR ( 'NONE', #24, 1000.000000000000000 ) ;
#1194 = AXIS2_PLACEMENT_3D ( 'NONE', #829, #549, #930 ) ;
#1195 = CARTESIAN_POINT ( 'NONE',  ( 35.00000000000000711, 67.49999999999997158, 5.000000000000000000 ) ) ;
#1196 = DIRECTION ( 'NONE',  ( 1.000000000000000000, 0.000000000000000000, 0.000000000000000000 ) ) ;
#1197 = DIRECTION ( 'NONE',  ( 0.000000000000000000, 0.000000000000000000, 1.000000000000000000 ) ) ;
#1198 = DIRECTION ( 'NONE',  ( -0.000000000000000000, -0.000000000000000000, -1.000000000000000000 ) ) ;
#1199 = CARTESIAN_POINT ( 'NONE',  ( 15.00000000000003375, 67.49999999999997158, 8.000000000000000000 ) ) ;
#1200 = DIRECTION ( 'NONE',  ( 1.000000000000000000, 0.000000000000000000, 0.000000000000000000 ) ) ;
#1201 = ORIENTED_EDGE ( 'NONE', *, *, #891, .T. ) ;
#1202 = ADVANCED_FACE ( 'NONE', ( #643, #1031 ), #177, .T. ) ;
#1203 = LINE ( 'NONE', #727, #749 ) ;
#1204 = ORIENTED_EDGE ( 'NONE', *, *, #745, .F. ) ;
#1205 = CARTESIAN_POINT ( 'NONE',  ( 40.00000000000000711, 77.49999999999998579, 8.000000000000000000 ) ) ;
#1206 = CARTESIAN_POINT ( 'NONE',  ( 3.000000000000022649, 62.49999999999998579, 8.000000000000000000 ) ) ;
#1207 = VERTEX_POINT ( 'NONE', #817 ) ;
#1208 = VECTOR ( 'NONE', #129, 1000.000000000000000 ) ;
#1209 = CARTESIAN_POINT ( 'NONE',  ( 21.00000000000003908, 67.49999999999997158, 5.000000000000000000 ) ) ;
#1210 = ADVANCED_FACE ( 'NONE', ( #344, #1100 ), #622, .T. ) ;
#1211 = ORIENTED_EDGE ( 'NONE', *, *, #659, .T. ) ;
#1212 = DIRECTION ( 'NONE',  ( 1.000000000000000000, 0.000000000000000000, 0.000000000000000000 ) ) ;
#1213 = FACE_OUTER_BOUND ( 'NONE', #371, .T. ) ;
#1214 = VERTEX_POINT ( 'NONE', #658 ) ;
#1215 = DIRECTION ( 'NONE',  ( 1.000000000000000000, 0.000000000000000000, 0.000000000000000000 ) ) ;
#1216 = VERTEX_POINT ( 'NONE', #1143 ) ;
#1217 = FACE_BOUND ( 'NONE', #795, .T. ) ;
#1218 = DIRECTION ( 'NONE',  ( -0.000000000000000000, 1.000000000000000000, -0.000000000000000000 ) ) ;
#1219 = ORIENTED_EDGE ( 'NONE', *, *, #402, .F. ) ;
#1220 = DIRECTION ( 'NONE',  ( 1.000000000000000000, 0.000000000000000000, 0.000000000000000000 ) ) ;
#1221 = EDGE_LOOP ( 'NONE', ( #398, #948, #1083, #1064 ) ) ;
#1222 = LINE ( 'NONE', #914, #255 ) ;
#1223 = CARTESIAN_POINT ( 'NONE',  ( 20.00000000000003908, 47.49999999999997868, -10.39994919989799982 ) ) ;
#1224 = ORIENTED_EDGE ( 'NONE', *, *, #28, .F. ) ;
#1225 = EDGE_CURVE ( 'NONE', #691, #1216, #397, .T. ) ;
#1226 = AXIS2_PLACEMENT_3D ( 'NONE', #349, #1113, #717 ) ;
#1227 = CIRCLE ( 'NONE', #929, 1.599999999999998535 ) ;
#1228 = CIRCLE ( 'NONE', #134, 3.000000000000002665 ) ;
#1229 = CIRCLE ( 'NONE', #396, 10.00000000000000000 ) ;
#1230 = ORIENTED_EDGE ( 'NONE', *, *, #361, .T. ) ;
#1231 = DIRECTION ( 'NONE',  ( 0.000000000000000000, 0.000000000000000000, 1.000000000000000000 ) ) ;
ENDSEC;
END-ISO-10303-21;
