ISO-10303-21;
HEADER;
FILE_DESCRIPTION (( 'STEP AP214' ),
    '1' );
FILE_NAME ('L–Õ¡¨Ω”_”“.STEP',
    '2025-09-28T10:38:13',
    ( '' ),
    ( '' ),
    'SwSTEP 2.0',
    'SolidWorks 2025',
    '' );
FILE_SCHEMA (( 'AUTOMOTIVE_DESIGN' ));
ENDSEC;

DATA;
#1 = DIRECTION ( 'NONE',  ( -1.000000000000000000, 0.000000000000000000, 0.000000000000000000 ) ) ;
#2 = EDGE_CURVE ( 'NONE', #76, #340, #557, .T. ) ;
#3 = AXIS2_PLACEMENT_3D ( 'NONE', #657, #87, #12 ) ;
#4 = ORIENTED_EDGE ( 'NONE', *, *, #817, .T. ) ;
#5 = AXIS2_PLACEMENT_3D ( 'NONE', #237, #298, #527 ) ;
#6 = CARTESIAN_POINT ( 'NONE',  ( -1.599999999999981215, -125.0000000000000000, 5.000000000000000000 ) ) ;
#7 = AXIS2_PLACEMENT_3D ( 'NONE', #494, #758, #120 ) ;
#8 = DIRECTION ( 'NONE',  ( 0.000000000000000000, 0.000000000000000000, 1.000000000000000000 ) ) ;
#9 = VERTEX_POINT ( 'NONE', #936 ) ;
#10 = CYLINDRICAL_SURFACE ( 'NONE', #868, 10.00000000000000000 ) ;
#11 = EDGE_CURVE ( 'NONE', #405, #193, #846, .T. ) ;
#12 = DIRECTION ( 'NONE',  ( 1.000000000000000000, 0.000000000000000000, 0.000000000000000000 ) ) ;
#13 = EDGE_LOOP ( 'NONE', ( #163, #363 ) ) ;
#14 = APPLICATION_PROTOCOL_DEFINITION ( 'draft international standard', 'automotive_design', 1998, #768 ) ;
#15 = EDGE_CURVE ( 'NONE', #369, #771, #418, .T. ) ;
#16 = DIRECTION ( 'NONE',  ( 1.000000000000000000, 0.000000000000000000, 0.000000000000000000 ) ) ;
#17 = ORIENTED_EDGE ( 'NONE', *, *, #407, .T. ) ;
#18 = DIRECTION ( 'NONE',  ( 1.000000000000000000, 0.000000000000000000, 0.000000000000000000 ) ) ;
#19 = DIRECTION ( 'NONE',  ( 1.000000000000000000, 0.000000000000000000, 0.000000000000000000 ) ) ;
#20 = VECTOR ( 'NONE', #218, 1000.000000000000000 ) ;
#21 = LINE ( 'NONE', #162, #631 ) ;
#22 = ORIENTED_EDGE ( 'NONE', *, *, #378, .F. ) ;
#23 = DIRECTION ( 'NONE',  ( -0.000000000000000000, -0.000000000000000000, -1.000000000000000000 ) ) ;
#24 = CYLINDRICAL_SURFACE ( 'NONE', #881, 3.000000000000003109 ) ;
#25 = DIRECTION ( 'NONE',  ( 1.000000000000000000, 0.000000000000000000, 0.000000000000000000 ) ) ;
#26 = ORIENTED_EDGE ( 'NONE', *, *, #11, .T. ) ;
#27 = DIRECTION ( 'NONE',  ( -0.000000000000000000, -0.000000000000000000, -1.000000000000000000 ) ) ;
#28 = DIRECTION ( 'NONE',  ( 0.000000000000000000, 0.000000000000000000, 1.000000000000000000 ) ) ;
#29 = FACE_OUTER_BOUND ( 'NONE', #793, .T. ) ;
#30 = ORIENTED_EDGE ( 'NONE', *, *, #555, .F. ) ;
#31 = CARTESIAN_POINT ( 'NONE',  ( 32.00000000000001421, -150.0144195133372023, 8.000000000000000000 ) ) ;
#32 = AXIS2_PLACEMENT_3D ( 'NONE', #79, #877, #806 ) ;
#33 = CARTESIAN_POINT ( 'NONE',  ( -9.999999999999987566, -110.0000000000000000, 8.000000000000000000 ) ) ;
#34 = AXIS2_PLACEMENT_3D ( 'NONE', #816, #659, #751 ) ;
#35 = ORIENTED_EDGE ( 'NONE', *, *, #817, .F. ) ;
#36 = DIRECTION ( 'NONE',  ( 1.000000000000000000, 0.000000000000000000, 0.000000000000000000 ) ) ;
#37 = CARTESIAN_POINT ( 'NONE',  ( 2.081668171172168513E-14, -125.0000000000000000, 5.000000000000000000 ) ) ;
#38 = ORIENTED_EDGE ( 'NONE', *, *, #385, .T. ) ;
#39 = DIRECTION ( 'NONE',  ( 0.000000000000000000, 0.000000000000000000, 1.000000000000000000 ) ) ;
#40 = EDGE_CURVE ( 'NONE', #705, #542, #348, .T. ) ;
#41 = CARTESIAN_POINT ( 'NONE',  ( -2.999999999999982236, -145.0000000000000284, 5.000000000000000000 ) ) ;
#42 = ORIENTED_EDGE ( 'NONE', *, *, #876, .F. ) ;
#43 = LINE ( 'NONE', #915, #92 ) ;
#44 = EDGE_CURVE ( 'NONE', #542, #705, #767, .T. ) ;
#45 = VECTOR ( 'NONE', #386, 1000.000000000000000 ) ;
#46 = FACE_BOUND ( 'NONE', #159, .T. ) ;
#47 = CIRCLE ( 'NONE', #635, 1.599999999999993872 ) ;
#48 = PRODUCT_DEFINITION_SHAPE ( 'NONE', 'NONE',  #158 ) ;
#49 = EDGE_CURVE ( 'NONE', #618, #663, #133, .T. ) ;
#50 = EDGE_LOOP ( 'NONE', ( #329, #439, #22, #435, #59, #485, #211, #854 ) ) ;
#51 = CARTESIAN_POINT ( 'NONE',  ( 16.40000000000004476, -150.0144195133372023, 5.000000000000000000 ) ) ;
#52 = DIRECTION ( 'NONE',  ( -1.000000000000000000, -0.000000000000000000, -0.000000000000000000 ) ) ;
#53 = ORIENTED_EDGE ( 'NONE', *, *, #461, .T. ) ;
#54 = EDGE_CURVE ( 'NONE', #746, #800, #792, .T. ) ;
#55 = DIRECTION ( 'NONE',  ( 0.000000000000000000, 0.000000000000000000, 1.000000000000000000 ) ) ;
#56 = CARTESIAN_POINT ( 'NONE',  ( 18.00000000000003908, -150.0144195133372023, 8.000000000000000000 ) ) ;
#57 = DIRECTION ( 'NONE',  ( 0.000000000000000000, 0.000000000000000000, 1.000000000000000000 ) ) ;
#58 = EDGE_CURVE ( 'NONE', #720, #760, #558, .T. ) ;
#59 = ORIENTED_EDGE ( 'NONE', *, *, #749, .F. ) ;
#60 = CARTESIAN_POINT ( 'NONE',  ( 32.00000000000001421, -150.0144195133372023, 8.000000000000000000 ) ) ;
#61 = CARTESIAN_POINT ( 'NONE',  ( 1.561251128379126385E-14, -160.0000000000000000, 8.000000000000000000 ) ) ;
#62 = VECTOR ( 'NONE', #499, 1000.000000000000000 ) ;
#63 = CARTESIAN_POINT ( 'NONE',  ( 10.00000000000003730, -110.0000000000000000, 8.000000000000000000 ) ) ;
#64 = AXIS2_PLACEMENT_3D ( 'NONE', #920, #268, #905 ) ;
#65 = ORIENTED_EDGE ( 'NONE', *, *, #341, .T. ) ;
#66 = DIRECTION ( 'NONE',  ( 0.000000000000000000, 0.000000000000000000, 1.000000000000000000 ) ) ;
#67 = DIRECTION ( 'NONE',  ( -0.000000000000000000, -0.000000000000000000, 1.000000000000000000 ) ) ;
#68 = ORIENTED_EDGE ( 'NONE', *, *, #699, .F. ) ;
#69 = ORIENTED_EDGE ( 'NONE', *, *, #320, .T. ) ;
#70 = FACE_OUTER_BOUND ( 'NONE', #256, .T. ) ;
#71 = ADVANCED_FACE ( 'NONE', ( #506 ), #719, .F. ) ;
#72 = CARTESIAN_POINT ( 'NONE',  ( 2.081668171172168513E-14, -145.0000000000000284, 8.000000000000000000 ) ) ;
#73 = EDGE_LOOP ( 'NONE', ( #281, #600 ) ) ;
#74 = DIRECTION ( 'NONE',  ( 0.000000000000000000, -1.000000000000000000, 0.000000000000000000 ) ) ;
#75 = CARTESIAN_POINT ( 'NONE',  ( 18.00000000000003908, -150.0144195133372023, 5.000000000000000000 ) ) ;
#76 = VERTEX_POINT ( 'NONE', #374 ) ;
#77 = CARTESIAN_POINT ( 'NONE',  ( 30.40000000000001990, -150.0144195133372023, 8.000000000000000000 ) ) ;
#78 = UNCERTAINTY_MEASURE_WITH_UNIT (LENGTH_MEASURE( 1.000000000000000082E-05 ), #260, 'distance_accuracy_value', 'NONE');
#79 = CARTESIAN_POINT ( 'NONE',  ( 2.081668171172168513E-14, -145.0000000000000284, 8.000000000000000000 ) ) ;
#80 = ORIENTED_EDGE ( 'NONE', *, *, #44, .T. ) ;
#81 = ADVANCED_FACE ( 'NONE', ( #891, #228 ), #814, .T. ) ;
#82 = CARTESIAN_POINT ( 'NONE',  ( 40.00000000000002132, -160.0000000000000000, 0.000000000000000000 ) ) ;
#83 = FACE_BOUND ( 'NONE', #192, .T. ) ;
#84 = EDGE_LOOP ( 'NONE', ( #345, #458, #202, #270 ) ) ;
#85 = DIRECTION ( 'NONE',  ( 1.000000000000000000, 0.000000000000000000, 0.000000000000000000 ) ) ;
#86 = LINE ( 'NONE', #535, #803 ) ;
#87 = DIRECTION ( 'NONE',  ( 0.000000000000000000, 0.000000000000000000, 1.000000000000000000 ) ) ;
#88 = ORIENTED_EDGE ( 'NONE', *, *, #839, .F. ) ;
#89 = AXIS2_PLACEMENT_3D ( 'NONE', #215, #858, #209 ) ;
#90 = CIRCLE ( 'NONE', #488, 1.600000000000002087 ) ;
#91 = PLANE ( 'NONE',  #170 ) ;
#92 = VECTOR ( 'NONE', #333, 1000.000000000000000 ) ;
#93 = ADVANCED_FACE ( 'NONE', ( #581, #520, #883, #83, #166 ), #233, .T. ) ;
#94 = DIRECTION ( 'NONE',  ( 1.040834085586084257E-16, -1.000000000000000000, 0.000000000000000000 ) ) ;
#95 = EDGE_LOOP ( 'NONE', ( #35, #830, #892, #682 ) ) ;
#96 = CARTESIAN_POINT ( 'NONE',  ( -1.599999999999973443, -145.0000000000000284, 0.000000000000000000 ) ) ;
#97 = DIRECTION ( 'NONE',  ( 1.000000000000000000, 0.000000000000000000, 0.000000000000000000 ) ) ;
#98 = ADVANCED_FACE ( 'NONE', ( #661 ), #303, .F. ) ;
#99 = FILL_AREA_STYLE ('',( #825 ) ) ;
#100 = ORIENTED_EDGE ( 'NONE', *, *, #122, .T. ) ;
#101 = CARTESIAN_POINT ( 'NONE',  ( -1.599999999999973443, -145.0000000000000284, 5.000000000000000000 ) ) ;
#102 = FACE_BOUND ( 'NONE', #586, .T. ) ;
#103 = DIRECTION ( 'NONE',  ( 1.000000000000000000, 0.000000000000000000, 0.000000000000000000 ) ) ;
#104 = VERTEX_POINT ( 'NONE', #380 ) ;
#105 = VECTOR ( 'NONE', #703, 1000.000000000000000 ) ;
#106 = DIRECTION ( 'NONE',  ( -1.040834085586084257E-16, 1.000000000000000000, 0.000000000000000000 ) ) ;
#107 = VECTOR ( 'NONE', #745, 1000.000000000000000 ) ;
#108 = CIRCLE ( 'NONE', #273, 1.599999999999994316 ) ;
#109 = PRODUCT_DEFINITION_FORMATION_WITH_SPECIFIED_SOURCE ( '‰ª', '', #465, .NOT_KNOWN. ) ;
#110 = DIRECTION ( 'NONE',  ( 1.000000000000000000, 0.000000000000000000, 0.000000000000000000 ) ) ;
#111 = VERTEX_POINT ( 'NONE', #809 ) ;
#112 = EDGE_CURVE ( 'NONE', #111, #919, #693, .T. ) ;
#113 = DIRECTION ( 'NONE',  ( 0.000000000000000000, 0.000000000000000000, 1.000000000000000000 ) ) ;
#114 = DIRECTION ( 'NONE',  ( -0.000000000000000000, 0.000000000000000000, 1.000000000000000000 ) ) ;
#115 = EDGE_LOOP ( 'NONE', ( #147, #65, #493, #392 ) ) ;
#116 = DIRECTION ( 'NONE',  ( 1.000000000000000000, 0.000000000000000000, 0.000000000000000000 ) ) ;
#117 = EDGE_CURVE ( 'NONE', #853, #800, #530, .T. ) ;
#118 = CARTESIAN_POINT ( 'NONE',  ( 29.00000000000001066, -150.0144195133372023, 8.000000000000000000 ) ) ;
#119 = ORIENTED_EDGE ( 'NONE', *, *, #361, .T. ) ;
#120 = DIRECTION ( 'NONE',  ( 1.000000000000000000, 0.000000000000000000, 0.000000000000000000 ) ) ;
#121 = VECTOR ( 'NONE', #939, 1000.000000000000000 ) ;
#122 = EDGE_CURVE ( 'NONE', #771, #299, #21, .T. ) ;
#123 = LINE ( 'NONE', #698, #426 ) ;
#124 = AXIS2_PLACEMENT_3D ( 'NONE', #187, #263, #550 ) ;
#125 = ORIENTED_EDGE ( 'NONE', *, *, #336, .T. ) ;
#126 = ORIENTED_EDGE ( 'NONE', *, *, #368, .F. ) ;
#127 = LINE ( 'NONE', #364, #20 ) ;
#128 = FACE_OUTER_BOUND ( 'NONE', #95, .T. ) ;
#129 = ORIENTED_EDGE ( 'NONE', *, *, #555, .T. ) ;
#130 = ORIENTED_EDGE ( 'NONE', *, *, #612, .T. ) ;
#131 = DIRECTION ( 'NONE',  ( 0.000000000000000000, 0.000000000000000000, 1.000000000000000000 ) ) ;
#132 = LINE ( 'NONE', #351, #695 ) ;
#133 = LINE ( 'NONE', #63, #909 ) ;
#134 = ORIENTED_EDGE ( 'NONE', *, *, #171, .F. ) ;
#135 = CARTESIAN_POINT ( 'NONE',  ( -1.599999999999973443, -145.0000000000000284, 8.000000000000000000 ) ) ;
#136 = COLOUR_RGB ( '',1.000000000000000000, 1.000000000000000000, 1.000000000000000000 ) ;
#137 = ORIENTED_EDGE ( 'NONE', *, *, #368, .T. ) ;
#138 = VECTOR ( 'NONE', #451, 1000.000000000000000 ) ;
#139 = ORIENTED_EDGE ( 'NONE', *, *, #171, .T. ) ;
#140 = DIRECTION ( 'NONE',  ( 0.000000000000000000, -1.000000000000000000, 0.000000000000000000 ) ) ;
#141 = EDGE_CURVE ( 'NONE', #287, #687, #313, .T. ) ;
#142 = DIRECTION ( 'NONE',  ( -0.000000000000000000, -0.000000000000000000, -1.000000000000000000 ) ) ;
#143 = ORIENTED_EDGE ( 'NONE', *, *, #419, .F. ) ;
#144 = ORIENTED_EDGE ( 'NONE', *, *, #419, .T. ) ;
#145 = DIRECTION ( 'NONE',  ( 0.000000000000000000, -0.000000000000000000, -1.000000000000000000 ) ) ;
#146 = ADVANCED_FACE ( 'NONE', ( #672 ), #309, .F. ) ;
#147 = ORIENTED_EDGE ( 'NONE', *, *, #851, .T. ) ;
#148 = ORIENTED_EDGE ( 'NONE', *, *, #646, .F. ) ;
#149 = CARTESIAN_POINT ( 'NONE',  ( 10.00000000000003908, -130.0288390266744614, 0.000000000000000000 ) ) ;
#150 = EDGE_CURVE ( 'NONE', #838, #746, #879, .T. ) ;
#151 = CARTESIAN_POINT ( 'NONE',  ( 2.081668171172168513E-14, -145.0000000000000284, 5.000000000000000000 ) ) ;
#152 = AXIS2_PLACEMENT_3D ( 'NONE', #456, #595, #599 ) ;
#153 = ORIENTED_EDGE ( 'NONE', *, *, #58, .F. ) ;
#154 = VECTOR ( 'NONE', #762, 1000.000000000000000 ) ;
#155 = CARTESIAN_POINT ( 'NONE',  ( 2.081668171172168513E-14, -145.0000000000000284, 0.000000000000000000 ) ) ;
#156 = CIRCLE ( 'NONE', #804, 3.000000000000003109 ) ;
#157 = CARTESIAN_POINT ( 'NONE',  ( -9.999999999999987566, -110.0000000000000000, 8.000000000000000000 ) ) ;
#158 = PRODUCT_DEFINITION ( 'Êú', '', #109, #441 ) ;
#159 = EDGE_LOOP ( 'NONE', ( #743, #700 ) ) ;
#160 = LINE ( 'NONE', #243, #383 ) ;
#161 = CARTESIAN_POINT ( 'NONE',  ( 3.000000000000023981, -125.0000000000000000, 5.000000000000000000 ) ) ;
#162 = CARTESIAN_POINT ( 'NONE',  ( 20.00000000000004263, -140.0288390266744614, 8.000000000000000000 ) ) ;
#163 = ORIENTED_EDGE ( 'NONE', *, *, #44, .F. ) ;
#164 = FACE_OUTER_BOUND ( 'NONE', #593, .T. ) ;
#165 = DIRECTION ( 'NONE',  ( -0.000000000000000000, -0.000000000000000000, 1.000000000000000000 ) ) ;
#166 = FACE_OUTER_BOUND ( 'NONE', #463, .T. ) ;
#167 = ORIENTED_EDGE ( 'NONE', *, *, #262, .F. ) ;
#168 = MECHANICAL_DESIGN_GEOMETRIC_PRESENTATION_REPRESENTATION (  '', ( #319 ), #819 ) ;
#169 = FACE_OUTER_BOUND ( 'NONE', #468, .T. ) ;
#170 = AXIS2_PLACEMENT_3D ( 'NONE', #738, #178, #106 ) ;
#171 = EDGE_CURVE ( 'NONE', #76, #296, #605, .T. ) ;
#172 = DIRECTION ( 'NONE',  ( 1.000000000000000000, 0.000000000000000000, -0.000000000000000000 ) ) ;
#173 = EDGE_LOOP ( 'NONE', ( #933, #496 ) ) ;
#174 = DIRECTION ( 'NONE',  ( 0.000000000000000000, 0.000000000000000000, 1.000000000000000000 ) ) ;
#175 = PLANE ( 'NONE',  #457 ) ;
#176 = ORIENTED_EDGE ( 'NONE', *, *, #262, .T. ) ;
#177 = PRODUCT_CONTEXT ( 'NONE', #889, 'mechanical' ) ;
#178 = DIRECTION ( 'NONE',  ( 1.000000000000000000, 1.040834085586084257E-16, -0.000000000000000000 ) ) ;
#179 = FACE_BOUND ( 'NONE', #324, .T. ) ;
#180 = EDGE_CURVE ( 'NONE', #796, #756, #517, .T. ) ;
#181 = ORIENTED_EDGE ( 'NONE', *, *, #785, .T. ) ;
#182 = CARTESIAN_POINT ( 'NONE',  ( 32.00000000000001421, -150.0144195133372023, 0.000000000000000000 ) ) ;
#183 = AXIS2_PLACEMENT_3D ( 'NONE', #718, #588, #880 ) ;
#184 = CIRCLE ( 'NONE', #231, 3.000000000000006217 ) ;
#185 = SURFACE_SIDE_STYLE ('',( #390 ) ) ;
#186 = EDGE_LOOP ( 'NONE', ( #148, #937, #673, #552 ) ) ;
#187 = CARTESIAN_POINT ( 'NONE',  ( -9.999999999999982236, -160.0000000000000000, 8.000000000000000000 ) ) ;
#188 = FACE_OUTER_BOUND ( 'NONE', #189, .T. ) ;
#189 = EDGE_LOOP ( 'NONE', ( #932, #224, #402, #733 ) ) ;
#190 = DIRECTION ( 'NONE',  ( 0.000000000000000000, 0.000000000000000000, 1.000000000000000000 ) ) ;
#191 = LINE ( 'NONE', #856, #62 ) ;
#192 = EDGE_LOOP ( 'NONE', ( #577, #878 ) ) ;
#193 = VERTEX_POINT ( 'NONE', #821 ) ;
#194 = DIRECTION ( 'NONE',  ( 1.000000000000000000, 0.000000000000000000, 0.000000000000000000 ) ) ;
#195 = EDGE_CURVE ( 'NONE', #217, #899, #473, .T. ) ;
#196 = VECTOR ( 'NONE', #775, 1000.000000000000000 ) ;
#197 = CIRCLE ( 'NONE', #681, 1.599999999999993872 ) ;
#198 = DIRECTION ( 'NONE',  ( 1.000000000000000000, 0.000000000000000000, 0.000000000000000000 ) ) ;
#199 = CIRCLE ( 'NONE', #696, 3.000000000000002665 ) ;
#200 = EDGE_LOOP ( 'NONE', ( #524, #354 ) ) ;
#201 = AXIS2_PLACEMENT_3D ( 'NONE', #539, #469, #602 ) ;
#202 = ORIENTED_EDGE ( 'NONE', *, *, #894, .T. ) ;
#203 = DIRECTION ( 'NONE',  ( 1.000000000000000000, 0.000000000000000000, 0.000000000000000000 ) ) ;
#204 = LINE ( 'NONE', #360, #121 ) ;
#205 = CARTESIAN_POINT ( 'NONE',  ( 32.00000000000001421, -150.0144195133372023, 5.000000000000000000 ) ) ;
#206 = VERTEX_POINT ( 'NONE', #443 ) ;
#207 = LINE ( 'NONE', #135, #489 ) ;
#208 = CARTESIAN_POINT ( 'NONE',  ( 40.00000000000001421, -140.0288390266744614, 0.000000000000000000 ) ) ;
#209 = DIRECTION ( 'NONE',  ( 1.000000000000000000, 0.000000000000000000, 0.000000000000000000 ) ) ;
#210 = EDGE_CURVE ( 'NONE', #760, #477, #729, .T. ) ;
#211 = ORIENTED_EDGE ( 'NONE', *, *, #15, .F. ) ;
#212 = CARTESIAN_POINT ( 'NONE',  ( 1.561251128379126385E-14, -150.0000000000000000, 8.000000000000000000 ) ) ;
#213 = CARTESIAN_POINT ( 'NONE',  ( 10.00000000000003730, -110.0000000000000000, 0.000000000000000000 ) ) ;
#214 = VECTOR ( 'NONE', #67, 1000.000000000000000 ) ;
#215 = CARTESIAN_POINT ( 'NONE',  ( 32.00000000000001421, -150.0144195133372023, 5.000000000000000000 ) ) ;
#216 = AXIS2_PLACEMENT_3D ( 'NONE', #370, #355, #359 ) ;
#217 = VERTEX_POINT ( 'NONE', #653 ) ;
#218 = DIRECTION ( 'NONE',  ( -0.000000000000000000, -0.000000000000000000, -1.000000000000000000 ) ) ;
#219 = ORIENTED_EDGE ( 'NONE', *, *, #54, .F. ) ;
#220 = ORIENTED_EDGE ( 'NONE', *, *, #774, .T. ) ;
#221 = FACE_OUTER_BOUND ( 'NONE', #624, .T. ) ;
#222 = EDGE_CURVE ( 'NONE', #694, #340, #619, .T. ) ;
#223 = CARTESIAN_POINT ( 'NONE',  ( 2.081668171172168513E-14, -125.0000000000000000, 8.000000000000000000 ) ) ;
#224 = ORIENTED_EDGE ( 'NONE', *, *, #54, .T. ) ;
#225 = CARTESIAN_POINT ( 'NONE',  ( -9.999999999999987566, -110.0000000000000000, 8.000000000000000000 ) ) ;
#226 = EDGE_CURVE ( 'NONE', #340, #694, #740, .T. ) ;
#227 = CLOSED_SHELL ( 'NONE', ( #266, #924, #780, #326, #580, #442, #71, #146, #414, #423, #913, #449, #93, #285, #545, #739, #293, #844, #918, #865, #882, #536, #98, #81, #589, #509, #466, #660, #655, #872 ) ) ;
#228 = FACE_OUTER_BOUND ( 'NONE', #884, .T. ) ;
#229 = VECTOR ( 'NONE', #356, 1000.000000000000000 ) ;
#230 = VERTEX_POINT ( 'NONE', #551 ) ;
#231 = AXIS2_PLACEMENT_3D ( 'NONE', #253, #113, #203 ) ;
#232 = DIRECTION ( 'NONE',  ( 0.000000000000000000, 0.000000000000000000, 1.000000000000000000 ) ) ;
#233 = PLANE ( 'NONE',  #926 ) ;
#234 = ORIENTED_EDGE ( 'NONE', *, *, #226, .T. ) ;
#235 = CARTESIAN_POINT ( 'NONE',  ( 1.561251128379126385E-14, -160.0000000000000000, 8.000000000000000000 ) ) ;
#236 = DIRECTION ( 'NONE',  ( 1.000000000000000000, 0.000000000000000000, -0.000000000000000000 ) ) ;
#237 = CARTESIAN_POINT ( 'NONE',  ( 18.00000000000003908, -150.0144195133372023, 5.000000000000000000 ) ) ;
#238 = ORIENTED_EDGE ( 'NONE', *, *, #765, .T. ) ;
#239 = EDGE_CURVE ( 'NONE', #797, #870, #90, .T. ) ;
#240 = FACE_OUTER_BOUND ( 'NONE', #501, .T. ) ;
#241 = DIRECTION ( 'NONE',  ( 0.000000000000000000, 0.000000000000000000, 1.000000000000000000 ) ) ;
#242 = VERTEX_POINT ( 'NONE', #118 ) ;
#243 = CARTESIAN_POINT ( 'NONE',  ( 40.00000000000001421, -140.0288390266744614, 8.000000000000000000 ) ) ;
#244 = CIRCLE ( 'NONE', #349, 10.00000000000000000 ) ;
#245 = CARTESIAN_POINT ( 'NONE',  ( 32.00000000000001421, -150.0144195133372023, 0.000000000000000000 ) ) ;
#246 = CIRCLE ( 'NONE', #216, 3.000000000000003109 ) ;
#247 = FACE_BOUND ( 'NONE', #779, .T. ) ;
#248 = ORIENTED_EDGE ( 'NONE', *, *, #378, .T. ) ;
#249 = DIRECTION ( 'NONE',  ( -0.000000000000000000, -0.000000000000000000, -1.000000000000000000 ) ) ;
#250 = EDGE_CURVE ( 'NONE', #9, #771, #504, .T. ) ;
#251 = CARTESIAN_POINT ( 'NONE',  ( 40.00000000000002132, -160.0000000000000000, 8.000000000000000000 ) ) ;
#252 = ORIENTED_EDGE ( 'NONE', *, *, #180, .T. ) ;
#253 = CARTESIAN_POINT ( 'NONE',  ( 18.00000000000003908, -150.0144195133372023, 8.000000000000000000 ) ) ;
#254 = PRODUCT_RELATED_PRODUCT_CATEGORY ( 'part', '', ( #465 ) ) ;
#255 = CARTESIAN_POINT ( 'NONE',  ( 32.00000000000001421, -150.0144195133372023, 5.000000000000000000 ) ) ;
#256 = EDGE_LOOP ( 'NONE', ( #304, #859, #549, #708 ) ) ;
#257 = DIRECTION ( 'NONE',  ( 0.000000000000000000, 0.000000000000000000, 1.000000000000000000 ) ) ;
#258 = AXIS2_PLACEMENT_3D ( 'NONE', #585, #241, #742 ) ;
#259 = AXIS2_PLACEMENT_3D ( 'NONE', #831, #257, #403 ) ;
#260 =( LENGTH_UNIT ( ) NAMED_UNIT ( * ) SI_UNIT ( .MILLI., .METRE. ) );
#261 = ORIENTED_EDGE ( 'NONE', *, *, #584, .F. ) ;
#262 = EDGE_CURVE ( 'NONE', #797, #206, #401, .T. ) ;
#263 = DIRECTION ( 'NONE',  ( 0.000000000000000000, 1.000000000000000000, 0.000000000000000000 ) ) ;
#264 = DIRECTION ( 'NONE',  ( 1.000000000000000000, 0.000000000000000000, 0.000000000000000000 ) ) ;
#265 = ORIENTED_EDGE ( 'NONE', *, *, #483, .T. ) ;
#266 = ADVANCED_FACE ( 'NONE', ( #188 ), #622, .F. ) ;
#267 = EDGE_LOOP ( 'NONE', ( #139, #422 ) ) ;
#268 = DIRECTION ( 'NONE',  ( 0.000000000000000000, 0.000000000000000000, 1.000000000000000000 ) ) ;
#269 = CARTESIAN_POINT ( 'NONE',  ( 1.561251128379126385E-14, -150.0000000000000000, 0.000000000000000000 ) ) ;
#270 = ORIENTED_EDGE ( 'NONE', *, *, #765, .F. ) ;
#271 = PLANE ( 'NONE',  #398 ) ;
#272 = AXIS2_PLACEMENT_3D ( 'NONE', #447, #732, #16 ) ;
#273 = AXIS2_PLACEMENT_3D ( 'NONE', #307, #540, #36 ) ;
#274 = CYLINDRICAL_SURFACE ( 'NONE', #365, 1.599999999999993872 ) ;
#275 = VERTEX_POINT ( 'NONE', #833 ) ;
#276 = AXIS2_PLACEMENT_3D ( 'NONE', #316, #23, #812 ) ;
#277 = ORIENTED_EDGE ( 'NONE', *, *, #437, .T. ) ;
#278 = DIRECTION ( 'NONE',  ( -3.474456949786320671E-16, 1.000000000000000000, 0.000000000000000000 ) ) ;
#279 = EDGE_CURVE ( 'NONE', #705, #658, #680, .T. ) ;
#280 = CARTESIAN_POINT ( 'NONE',  ( 15.00000000000003553, -150.0144195133372023, 5.000000000000000000 ) ) ;
#281 = ORIENTED_EDGE ( 'NONE', *, *, #226, .F. ) ;
#282 = ORIENTED_EDGE ( 'NONE', *, *, #519, .F. ) ;
#283 = DIRECTION ( 'NONE',  ( 0.000000000000000000, 0.000000000000000000, -1.000000000000000000 ) ) ;
#284 = DIRECTION ( 'NONE',  ( -0.000000000000000000, -0.000000000000000000, -1.000000000000000000 ) ) ;
#285 = ADVANCED_FACE ( 'NONE', ( #323, #247, #46, #903, #179 ), #916, .F. ) ;
#286 = CARTESIAN_POINT ( 'NONE',  ( -9.999999999999987566, -110.0000000000000000, 0.000000000000000000 ) ) ;
#287 = VERTEX_POINT ( 'NONE', #33 ) ;
#288 = LINE ( 'NONE', #425, #652 ) ;
#289 = VECTOR ( 'NONE', #94, 1000.000000000000000 ) ;
#290 = ORIENTED_EDGE ( 'NONE', *, *, #336, .F. ) ;
#291 = AXIS2_PLACEMENT_3D ( 'NONE', #455, #901, #394 ) ;
#292 = ORIENTED_EDGE ( 'NONE', *, *, #239, .F. ) ;
#293 = ADVANCED_FACE ( 'NONE', ( #754 ), #175, .F. ) ;
#294 = DIRECTION ( 'NONE',  ( 1.000000000000000000, 0.000000000000000000, 0.000000000000000000 ) ) ;
#295 = DIRECTION ( 'NONE',  ( 0.000000000000000000, 0.000000000000000000, 1.000000000000000000 ) ) ;
#296 = VERTEX_POINT ( 'NONE', #41 ) ;
#297 = CYLINDRICAL_SURFACE ( 'NONE', #667, 3.000000000000006217 ) ;
#298 = DIRECTION ( 'NONE',  ( 0.000000000000000000, 0.000000000000000000, 1.000000000000000000 ) ) ;
#299 = VERTEX_POINT ( 'NONE', #480 ) ;
#300 = SHAPE_DEFINITION_REPRESENTATION ( #48, #662 ) ;
#301 = CARTESIAN_POINT ( 'NONE',  ( 18.00000000000003908, -150.0144195133372023, 5.000000000000000000 ) ) ;
#302 = VECTOR ( 'NONE', #637, 1000.000000000000000 ) ;
#303 = CYLINDRICAL_SURFACE ( 'NONE', #516, 3.000000000000006217 ) ;
#304 = ORIENTED_EDGE ( 'NONE', *, *, #785, .F. ) ;
#305 = CIRCLE ( 'NONE', #259, 3.000000000000002665 ) ;
#306 = CYLINDRICAL_SURFACE ( 'NONE', #850, 3.000000000000002665 ) ;
#307 = CARTESIAN_POINT ( 'NONE',  ( 2.081668171172168513E-14, -145.0000000000000284, 5.000000000000000000 ) ) ;
#308 = EDGE_CURVE ( 'NONE', #296, #694, #604, .T. ) ;
#309 = CYLINDRICAL_SURFACE ( 'NONE', #679, 1.600000000000002087 ) ;
#310 = ORIENTED_EDGE ( 'NONE', *, *, #601, .T. ) ;
#311 = CARTESIAN_POINT ( 'NONE',  ( 32.00000000000001421, -150.0144195133372023, 5.000000000000000000 ) ) ;
#312 = CARTESIAN_POINT ( 'NONE',  ( 2.081668171172168513E-14, -125.0000000000000000, 5.000000000000000000 ) ) ;
#313 = LINE ( 'NONE', #157, #289 ) ;
#314 = EDGE_CURVE ( 'NONE', #922, #627, #331, .T. ) ;
#315 = VERTEX_POINT ( 'NONE', #686 ) ;
#316 = CARTESIAN_POINT ( 'NONE',  ( 18.00000000000003908, -150.0144195133372023, 8.000000000000000000 ) ) ;
#317 = FACE_OUTER_BOUND ( 'NONE', #869, .T. ) ;
#318 = ORIENTED_EDGE ( 'NONE', *, *, #483, .F. ) ;
#319 = STYLED_ITEM ( 'NONE', ( #911 ), #327 ) ;
#320 = EDGE_CURVE ( 'NONE', #315, #724, #197, .T. ) ;
#321 = CARTESIAN_POINT ( 'NONE',  ( 32.00000000000001421, -150.0144195133372023, 8.000000000000000000 ) ) ;
#322 = CIRCLE ( 'NONE', #427, 3.000000000000003109 ) ;
#323 = FACE_OUTER_BOUND ( 'NONE', #50, .T. ) ;
#324 = EDGE_LOOP ( 'NONE', ( #357, #265 ) ) ;
#325 = CYLINDRICAL_SURFACE ( 'NONE', #350, 1.599999999999993872 ) ;
#326 = ADVANCED_FACE ( 'NONE', ( #29 ), #616, .F. ) ;
#327 = MANIFOLD_SOLID_BREP ( '\X2\570689d2\X0\1', #227 ) ;
#328 = CARTESIAN_POINT ( 'NONE',  ( 18.00000000000003908, -150.0144195133372023, 0.000000000000000000 ) ) ;
#329 = ORIENTED_EDGE ( 'NONE', *, *, #894, .F. ) ;
#330 = CARTESIAN_POINT ( 'NONE',  ( 18.00000000000003908, -150.0144195133372023, 0.000000000000000000 ) ) ;
#331 = LINE ( 'NONE', #408, #633 ) ;
#332 = ORIENTED_EDGE ( 'NONE', *, *, #195, .F. ) ;
#333 = DIRECTION ( 'NONE',  ( 0.000000000000000000, -0.000000000000000000, 1.000000000000000000 ) ) ;
#334 = AXIS2_PLACEMENT_3D ( 'NONE', #395, #759, #103 ) ;
#335 = AXIS2_PLACEMENT_3D ( 'NONE', #890, #28, #734 ) ;
#336 = EDGE_CURVE ( 'NONE', #663, #405, #191, .T. ) ;
#337 = ORIENTED_EDGE ( 'NONE', *, *, #141, .T. ) ;
#338 = CARTESIAN_POINT ( 'NONE',  ( -9.999999999999984013, -150.0000000000000000, 0.000000000000000000 ) ) ;
#339 = DIRECTION ( 'NONE',  ( 0.000000000000000000, -0.000000000000000000, -1.000000000000000000 ) ) ;
#340 = VERTEX_POINT ( 'NONE', #845 ) ;
#341 = EDGE_CURVE ( 'NONE', #796, #724, #645, .T. ) ;
#342 = FACE_BOUND ( 'NONE', #769, .T. ) ;
#343 = DIRECTION ( 'NONE',  ( -0.000000000000000000, -0.000000000000000000, -1.000000000000000000 ) ) ;
#344 = DIRECTION ( 'NONE',  ( 0.000000000000000000, 0.000000000000000000, 1.000000000000000000 ) ) ;
#345 = ORIENTED_EDGE ( 'NONE', *, *, #314, .F. ) ;
#346 = CYLINDRICAL_SURFACE ( 'NONE', #64, 9.999999999999998224 ) ;
#347 = EDGE_CURVE ( 'NONE', #922, #275, #561, .T. ) ;
#348 = CIRCLE ( 'NONE', #379, 1.599999999999997202 ) ;
#349 = AXIS2_PLACEMENT_3D ( 'NONE', #269, #339, #931 ) ;
#350 = AXIS2_PLACEMENT_3D ( 'NONE', #321, #608, #611 ) ;
#351 = CARTESIAN_POINT ( 'NONE',  ( 1.600000000000022737, -125.0000000000000000, 8.000000000000000000 ) ) ;
#352 = VECTOR ( 'NONE', #85, 1000.000000000000000 ) ;
#353 = VERTEX_POINT ( 'NONE', #484 ) ;
#354 = ORIENTED_EDGE ( 'NONE', *, *, #612, .F. ) ;
#355 = DIRECTION ( 'NONE',  ( 0.000000000000000000, 0.000000000000000000, 1.000000000000000000 ) ) ;
#356 = DIRECTION ( 'NONE',  ( -0.000000000000000000, 0.000000000000000000, -1.000000000000000000 ) ) ;
#357 = ORIENTED_EDGE ( 'NONE', *, *, #722, .T. ) ;
#358 = ORIENTED_EDGE ( 'NONE', *, *, #684, .T. ) ;
#359 = DIRECTION ( 'NONE',  ( 1.000000000000000000, 0.000000000000000000, 0.000000000000000000 ) ) ;
#360 = CARTESIAN_POINT ( 'NONE',  ( -9.999999999999987566, -110.0000000000000000, 0.000000000000000000 ) ) ;
#361 = EDGE_CURVE ( 'NONE', #870, #375, #132, .T. ) ;
#362 = DIRECTION ( 'NONE',  ( -0.000000000000000000, -0.000000000000000000, 1.000000000000000000 ) ) ;
#363 = ORIENTED_EDGE ( 'NONE', *, *, #40, .F. ) ;
#364 = CARTESIAN_POINT ( 'NONE',  ( -9.999999999999987566, -110.0000000000000000, 8.000000000000000000 ) ) ;
#365 = AXIS2_PLACEMENT_3D ( 'NONE', #526, #522, #895 ) ;
#366 = CARTESIAN_POINT ( 'NONE',  ( 35.00000000000001421, -150.0144195133372023, 5.000000000000000000 ) ) ;
#367 = AXIS2_PLACEMENT_3D ( 'NONE', #182, #39, #194 ) ;
#368 = EDGE_CURVE ( 'NONE', #104, #786, #753, .T. ) ;
#369 = VERTEX_POINT ( 'NONE', #208 ) ;
#370 = CARTESIAN_POINT ( 'NONE',  ( 2.081668171172168513E-14, -145.0000000000000284, 5.000000000000000000 ) ) ;
#371 = CARTESIAN_POINT ( 'NONE',  ( 0.000000000000000000, 0.000000000000000000, 8.000000000000000000 ) ) ;
#372 = ORIENTED_EDGE ( 'NONE', *, *, #699, .T. ) ;
#373 =( NAMED_UNIT ( * ) PLANE_ANGLE_UNIT ( ) SI_UNIT ( $, .RADIAN. ) );
#374 = CARTESIAN_POINT ( 'NONE',  ( 3.000000000000023981, -145.0000000000000284, 5.000000000000000000 ) ) ;
#375 = VERTEX_POINT ( 'NONE', #714 ) ;
#376 = FACE_OUTER_BOUND ( 'NONE', #648, .T. ) ;
#377 = CARTESIAN_POINT ( 'NONE',  ( 18.00000000000003908, -150.0144195133372023, 5.000000000000000000 ) ) ;
#378 = EDGE_CURVE ( 'NONE', #193, #715, #204, .T. ) ;
#379 = AXIS2_PLACEMENT_3D ( 'NONE', #205, #57, #570 ) ;
#380 = CARTESIAN_POINT ( 'NONE',  ( 21.00000000000004619, -150.0144195133372023, 5.000000000000000000 ) ) ;
#381 = ORIENTED_EDGE ( 'NONE', *, *, #40, .T. ) ;
#382 = CIRCLE ( 'NONE', #770, 1.600000000000002087 ) ;
#383 = VECTOR ( 'NONE', #450, 1000.000000000000000 ) ;
#384 = DIRECTION ( 'NONE',  ( 0.000000000000000000, 0.000000000000000000, 1.000000000000000000 ) ) ;
#385 = EDGE_CURVE ( 'NONE', #104, #472, #636, .T. ) ;
#386 = DIRECTION ( 'NONE',  ( -0.000000000000000000, -0.000000000000000000, 1.000000000000000000 ) ) ;
#387 = ORIENTED_EDGE ( 'NONE', *, *, #385, .F. ) ;
#388 = CYLINDRICAL_SURFACE ( 'NONE', #201, 3.000000000000003109 ) ;
#389 = CARTESIAN_POINT ( 'NONE',  ( 2.081668171172168513E-14, -125.0000000000000000, 8.000000000000000000 ) ) ;
#390 = SURFACE_STYLE_FILL_AREA ( #99 ) ;
#391 = EDGE_CURVE ( 'NONE', #275, #715, #244, .T. ) ;
#392 = ORIENTED_EDGE ( 'NONE', *, *, #478, .F. ) ;
#393 = FACE_OUTER_BOUND ( 'NONE', #888, .T. ) ;
#394 = DIRECTION ( 'NONE',  ( 1.000000000000000000, 0.000000000000000000, 0.000000000000000000 ) ) ;
#395 = CARTESIAN_POINT ( 'NONE',  ( 20.00000000000004263, -130.0288390266744614, 0.000000000000000000 ) ) ;
#396 = AXIS2_PLACEMENT_3D ( 'NONE', #75, #295, #172 ) ;
#397 = ORIENTED_EDGE ( 'NONE', *, *, #150, .T. ) ;
#398 = AXIS2_PLACEMENT_3D ( 'NONE', #406, #908, #761 ) ;
#399 = CARTESIAN_POINT ( 'NONE',  ( 21.00000000000004619, -150.0144195133372023, 8.000000000000000000 ) ) ;
#400 =( GEOMETRIC_REPRESENTATION_CONTEXT ( 3 ) GLOBAL_UNCERTAINTY_ASSIGNED_CONTEXT ( ( #713 ) ) GLOBAL_UNIT_ASSIGNED_CONTEXT ( ( #534, #373, #737 ) ) REPRESENTATION_CONTEXT ( 'NONE', 'WORKASPACE' ) );
#401 = LINE ( 'NONE', #537, #575 ) ;
#402 = ORIENTED_EDGE ( 'NONE', *, *, #596, .T. ) ;
#403 = DIRECTION ( 'NONE',  ( 1.000000000000000000, 0.000000000000000000, 0.000000000000000000 ) ) ;
#404 = DIRECTION ( 'NONE',  ( -0.000000000000000000, -0.000000000000000000, 1.000000000000000000 ) ) ;
#405 = VERTEX_POINT ( 'NONE', #213 ) ;
#406 = CARTESIAN_POINT ( 'NONE',  ( 2.081668171172168513E-14, -125.0000000000000000, 5.000000000000000000 ) ) ;
#407 = EDGE_CURVE ( 'NONE', #786, #353, #428, .T. ) ;
#408 = CARTESIAN_POINT ( 'NONE',  ( -9.999999999999982236, -160.0000000000000000, 8.000000000000000000 ) ) ;
#409 = ORIENTED_EDGE ( 'NONE', *, *, #857, .T. ) ;
#410 = CARTESIAN_POINT ( 'NONE',  ( 10.00000000000003730, -110.0000000000000000, 0.000000000000000000 ) ) ;
#411 = VECTOR ( 'NONE', #142, 1000.000000000000000 ) ;
#412 = VECTOR ( 'NONE', #249, 1000.000000000000000 ) ;
#413 =( NAMED_UNIT ( * ) PLANE_ANGLE_UNIT ( ) SI_UNIT ( $, .RADIAN. ) );
#414 = ADVANCED_FACE ( 'NONE', ( #641 ), #565, .F. ) ;
#415 = ORIENTED_EDGE ( 'NONE', *, *, #757, .F. ) ;
#416 = DIRECTION ( 'NONE',  ( 1.000000000000000000, 0.000000000000000000, 0.000000000000000000 ) ) ;
#417 = CARTESIAN_POINT ( 'NONE',  ( 19.60000000000003340, -150.0144195133372023, 8.000000000000000000 ) ) ;
#418 = LINE ( 'NONE', #429, #105 ) ;
#419 = EDGE_CURVE ( 'NONE', #627, #230, #433, .T. ) ;
#420 = ORIENTED_EDGE ( 'NONE', *, *, #432, .T. ) ;
#421 = CARTESIAN_POINT ( 'NONE',  ( 10.00000000000003730, -110.0000000000000000, 8.000000000000000000 ) ) ;
#422 = ORIENTED_EDGE ( 'NONE', *, *, #795, .T. ) ;
#423 = ADVANCED_FACE ( 'NONE', ( #128 ), #569, .F. ) ;
#424 = ORIENTED_EDGE ( 'NONE', *, *, #571, .T. ) ;
#425 = CARTESIAN_POINT ( 'NONE',  ( 40.00000000000002132, -160.0000000000000000, 8.000000000000000000 ) ) ;
#426 = VECTOR ( 'NONE', #52, 1000.000000000000000 ) ;
#427 = AXIS2_PLACEMENT_3D ( 'NONE', #691, #554, #543 ) ;
#428 = LINE ( 'NONE', #280, #214 ) ;
#429 = CARTESIAN_POINT ( 'NONE',  ( 10.00000000000004086, -140.0288390266744614, 0.000000000000000000 ) ) ;
#430 = ORIENTED_EDGE ( 'NONE', *, *, #671, .T. ) ;
#431 = CARTESIAN_POINT ( 'NONE',  ( 1.600000000000022737, -125.0000000000000000, 5.000000000000000000 ) ) ;
#432 = EDGE_CURVE ( 'NONE', #230, #299, #123, .T. ) ;
#433 = LINE ( 'NONE', #778, #787 ) ;
#434 = CARTESIAN_POINT ( 'NONE',  ( -2.999999999999982236, -125.0000000000000000, 5.000000000000000000 ) ) ;
#435 = ORIENTED_EDGE ( 'NONE', *, *, #11, .F. ) ;
#436 = DIRECTION ( 'NONE',  ( -1.000000000000000000, 0.000000000000000000, 0.000000000000000000 ) ) ;
#437 = EDGE_CURVE ( 'NONE', #353, #472, #709, .T. ) ;
#438 = ORIENTED_EDGE ( 'NONE', *, *, #308, .T. ) ;
#439 = ORIENTED_EDGE ( 'NONE', *, *, #391, .T. ) ;
#440 = LINE ( 'NONE', #568, #867 ) ;
#441 = PRODUCT_DEFINITION_CONTEXT ( 'detailed design', #768, 'design' ) ;
#442 = ADVANCED_FACE ( 'NONE', ( #773 ), #702, .F. ) ;
#443 = CARTESIAN_POINT ( 'NONE',  ( -1.599999999999981215, -125.0000000000000000, 0.000000000000000000 ) ) ;
#444 = CIRCLE ( 'NONE', #741, 1.599999999999994316 ) ;
#445 = EDGE_LOOP ( 'NONE', ( #822, #4, #914, #88 ) ) ;
#446 = DIRECTION ( 'NONE',  ( 1.000000000000000000, 0.000000000000000000, 0.000000000000000000 ) ) ;
#447 = CARTESIAN_POINT ( 'NONE',  ( 2.081668171172168513E-14, -145.0000000000000284, 8.000000000000000000 ) ) ;
#448 = ORIENTED_EDGE ( 'NONE', *, *, #704, .T. ) ;
#449 = ADVANCED_FACE ( 'NONE', ( #925 ), #274, .F. ) ;
#450 = DIRECTION ( 'NONE',  ( -0.000000000000000000, -0.000000000000000000, -1.000000000000000000 ) ) ;
#451 = DIRECTION ( 'NONE',  ( -0.000000000000000000, -0.000000000000000000, 1.000000000000000000 ) ) ;
#452 = DIRECTION ( 'NONE',  ( -1.000000000000000000, 0.000000000000000000, 0.000000000000000000 ) ) ;
#453 = ORIENTED_EDGE ( 'NONE', *, *, #646, .T. ) ;
#454 = CARTESIAN_POINT ( 'NONE',  ( -9.999999999999982236, -160.0000000000000000, 0.000000000000000000 ) ) ;
#455 = CARTESIAN_POINT ( 'NONE',  ( 2.081668171172168513E-14, -125.0000000000000000, 5.000000000000000000 ) ) ;
#456 = CARTESIAN_POINT ( 'NONE',  ( 2.081668171172168513E-14, -125.0000000000000000, 5.000000000000000000 ) ) ;
#457 = AXIS2_PLACEMENT_3D ( 'NONE', #251, #613, #541 ) ;
#458 = ORIENTED_EDGE ( 'NONE', *, *, #347, .T. ) ;
#459 = AXIS2_PLACEMENT_3D ( 'NONE', #594, #886, #97 ) ;
#460 = FACE_BOUND ( 'NONE', #13, .T. ) ;
#461 = EDGE_CURVE ( 'NONE', #786, #104, #910, .T. ) ;
#462 = DIRECTION ( 'NONE',  ( -0.000000000000000000, -0.000000000000000000, 1.000000000000000000 ) ) ;
#463 = EDGE_LOOP ( 'NONE', ( #337, #181, #810, #144, #420, #453, #716, #220 ) ) ;
#464 = CARTESIAN_POINT ( 'NONE',  ( 30.40000000000001990, -150.0144195133372023, 5.000000000000000000 ) ) ;
#465 = PRODUCT ( 'L\X2\578b8fde63a5\X0\_\X2\53f3\X0\', 'L\X2\578b8fde63a5\X0\_\X2\53f3\X0\', '', ( #177 ) ) ;
#466 = ADVANCED_FACE ( 'NONE', ( #823 ), #24, .F. ) ;
#467 = DIRECTION ( 'NONE',  ( -0.000000000000000000, -0.000000000000000000, 1.000000000000000000 ) ) ;
#468 = EDGE_LOOP ( 'NONE', ( #80, #750, #654, #42 ) ) ;
#469 = DIRECTION ( 'NONE',  ( -0.000000000000000000, -0.000000000000000000, 1.000000000000000000 ) ) ;
#470 = LINE ( 'NONE', #598, #412 ) ;
#471 = CARTESIAN_POINT ( 'NONE',  ( -2.999999999999982236, -145.0000000000000284, 5.000000000000000000 ) ) ;
#472 = VERTEX_POINT ( 'NONE', #399 ) ;
#473 = CIRCLE ( 'NONE', #258, 1.599999999999994316 ) ;
#474 = CIRCLE ( 'NONE', #683, 3.000000000000002665 ) ;
#475 = CARTESIAN_POINT ( 'NONE',  ( 19.60000000000003340, -150.0144195133372023, 0.000000000000000000 ) ) ;
#476 = DIRECTION ( 'NONE',  ( 0.000000000000000000, 0.000000000000000000, 1.000000000000000000 ) ) ;
#477 = VERTEX_POINT ( 'NONE', #670 ) ;
#478 = EDGE_CURVE ( 'NONE', #756, #315, #470, .T. ) ;
#479 = FACE_OUTER_BOUND ( 'NONE', #186, .T. ) ;
#480 = CARTESIAN_POINT ( 'NONE',  ( 20.00000000000004263, -140.0288390266744614, 8.000000000000000000 ) ) ;
#481 = EDGE_LOOP ( 'NONE', ( #567, #532, #143, #238 ) ) ;
#482 = DIRECTION ( 'NONE',  ( 1.000000000000000000, 0.000000000000000000, 0.000000000000000000 ) ) ;
#483 = EDGE_CURVE ( 'NONE', #658, #572, #711, .T. ) ;
#484 = CARTESIAN_POINT ( 'NONE',  ( 15.00000000000003375, -150.0144195133372023, 8.000000000000000000 ) ) ;
#485 = ORIENTED_EDGE ( 'NONE', *, *, #250, .T. ) ;
#486 = ORIENTED_EDGE ( 'NONE', *, *, #239, .T. ) ;
#487 = CARTESIAN_POINT ( 'NONE',  ( 29.00000000000001066, -150.0144195133372023, 5.000000000000000000 ) ) ;
#488 = AXIS2_PLACEMENT_3D ( 'NONE', #37, #476, #692 ) ;
#489 = VECTOR ( 'NONE', #579, 1000.000000000000000 ) ;
#490 = EDGE_CURVE ( 'NONE', #838, #853, #828, .T. ) ;
#491 = DIRECTION ( 'NONE',  ( 0.000000000000000000, 0.000000000000000000, 1.000000000000000000 ) ) ;
#492 = ORIENTED_EDGE ( 'NONE', *, *, #308, .F. ) ;
#493 = ORIENTED_EDGE ( 'NONE', *, *, #320, .F. ) ;
#494 = CARTESIAN_POINT ( 'NONE',  ( 20.00000000000004263, -130.0288390266744614, 8.000000000000000000 ) ) ;
#495 = DIRECTION ( 'NONE',  ( -1.000000000000000000, 0.000000000000000000, 0.000000000000000000 ) ) ;
#496 = ORIENTED_EDGE ( 'NONE', *, *, #437, .F. ) ;
#497 = ORIENTED_EDGE ( 'NONE', *, *, #210, .T. ) ;
#498 = CARTESIAN_POINT ( 'NONE',  ( 18.00000000000003908, -150.0144195133372023, 5.000000000000000000 ) ) ;
#499 = DIRECTION ( 'NONE',  ( -0.000000000000000000, -0.000000000000000000, -1.000000000000000000 ) ) ;
#500 = ORIENTED_EDGE ( 'NONE', *, *, #640, .F. ) ;
#501 = EDGE_LOOP ( 'NONE', ( #372, #630 ) ) ;
#502 = DIRECTION ( 'NONE',  ( -0.000000000000000000, -0.000000000000000000, -1.000000000000000000 ) ) ;
#503 = VECTOR ( 'NONE', #362, 1000.000000000000000 ) ;
#504 = CIRCLE ( 'NONE', #334, 9.999999999999998224 ) ;
#505 = AXIS2_PLACEMENT_3D ( 'NONE', #788, #140, #145 ) ;
#506 = FACE_OUTER_BOUND ( 'NONE', #445, .T. ) ;
#507 = ORIENTED_EDGE ( 'NONE', *, *, #757, .T. ) ;
#508 = DIRECTION ( 'NONE',  ( -1.000000000000000000, -0.000000000000000000, -0.000000000000000000 ) ) ;
#509 = ADVANCED_FACE ( 'NONE', ( #102, #678 ), #747, .T. ) ;
#510 = ORIENTED_EDGE ( 'NONE', *, *, #279, .F. ) ;
#511 = EDGE_LOOP ( 'NONE', ( #248, #927, #904, #507 ) ) ;
#512 = CARTESIAN_POINT ( 'NONE',  ( 1.561251128379126385E-14, -150.0000000000000000, 8.000000000000000000 ) ) ;
#513 = CARTESIAN_POINT ( 'NONE',  ( 2.081668171172168513E-14, -125.0000000000000000, 8.000000000000000000 ) ) ;
#514 = EDGE_LOOP ( 'NONE', ( #781, #100, #736, #597 ) ) ;
#515 = CARTESIAN_POINT ( 'NONE',  ( 20.00000000000004263, -140.0288390266744614, 0.000000000000000000 ) ) ;
#516 = AXIS2_PLACEMENT_3D ( 'NONE', #592, #735, #25 ) ;
#517 = CIRCLE ( 'NONE', #5, 1.599999999999993872 ) ;
#518 = CIRCLE ( 'NONE', #291, 1.600000000000002087 ) ;
#519 = EDGE_CURVE ( 'NONE', #720, #242, #86, .T. ) ;
#520 = FACE_BOUND ( 'NONE', #173, .T. ) ;
#521 = ORIENTED_EDGE ( 'NONE', *, *, #851, .F. ) ;
#522 = DIRECTION ( 'NONE',  ( -0.000000000000000000, -0.000000000000000000, -1.000000000000000000 ) ) ;
#523 = DIRECTION ( 'NONE',  ( 1.000000000000000000, 0.000000000000000000, 0.000000000000000000 ) ) ;
#524 = ORIENTED_EDGE ( 'NONE', *, *, #571, .F. ) ;
#525 = DIRECTION ( 'NONE',  ( -0.000000000000000000, -0.000000000000000000, 1.000000000000000000 ) ) ;
#526 = CARTESIAN_POINT ( 'NONE',  ( 32.00000000000001421, -150.0144195133372023, 8.000000000000000000 ) ) ;
#527 = DIRECTION ( 'NONE',  ( 1.000000000000000000, 0.000000000000000000, 0.000000000000000000 ) ) ;
#528 = ORIENTED_EDGE ( 'NONE', *, *, #2, .T. ) ;
#529 = PLANE ( 'NONE',  #591 ) ;
#530 = CIRCLE ( 'NONE', #650, 3.000000000000003109 ) ;
#531 = DIRECTION ( 'NONE',  ( -0.000000000000000000, 0.000000000000000000, 1.000000000000000000 ) ) ;
#532 = ORIENTED_EDGE ( 'NONE', *, *, #902, .F. ) ;
#533 = CIRCLE ( 'NONE', #367, 1.599999999999997202 ) ;
#534 =( LENGTH_UNIT ( ) NAMED_UNIT ( * ) SI_UNIT ( .MILLI., .METRE. ) );
#535 = CARTESIAN_POINT ( 'NONE',  ( 29.00000000000001066, -150.0144195133372023, 5.000000000000000000 ) ) ;
#536 = ADVANCED_FACE ( 'NONE', ( #460, #240 ), #529, .T. ) ;
#537 = CARTESIAN_POINT ( 'NONE',  ( -1.599999999999981215, -125.0000000000000000, 8.000000000000000000 ) ) ;
#538 = ORIENTED_EDGE ( 'NONE', *, *, #361, .F. ) ;
#539 = CARTESIAN_POINT ( 'NONE',  ( 2.081668171172168513E-14, -145.0000000000000284, 5.000000000000000000 ) ) ;
#540 = DIRECTION ( 'NONE',  ( 0.000000000000000000, 0.000000000000000000, 1.000000000000000000 ) ) ;
#541 = DIRECTION ( 'NONE',  ( 3.474456949786320671E-16, -1.000000000000000000, 0.000000000000000000 ) ) ;
#542 = VERTEX_POINT ( 'NONE', #464 ) ;
#543 = DIRECTION ( 'NONE',  ( 1.000000000000000000, 0.000000000000000000, 0.000000000000000000 ) ) ;
#544 = DIRECTION ( 'NONE',  ( 1.000000000000000000, 0.000000000000000000, 0.000000000000000000 ) ) ;
#545 = ADVANCED_FACE ( 'NONE', ( #752 ), #91, .F. ) ;
#546 = ORIENTED_EDGE ( 'NONE', *, *, #461, .F. ) ;
#547 = VECTOR ( 'NONE', #508, 1000.000000000000000 ) ;
#548 = FACE_OUTER_BOUND ( 'NONE', #84, .T. ) ;
#549 = ORIENTED_EDGE ( 'NONE', *, *, #391, .F. ) ;
#550 = DIRECTION ( 'NONE',  ( 0.000000000000000000, -0.000000000000000000, 1.000000000000000000 ) ) ;
#551 = CARTESIAN_POINT ( 'NONE',  ( 40.00000000000001421, -140.0288390266744614, 8.000000000000000000 ) ) ;
#552 = ORIENTED_EDGE ( 'NONE', *, *, #857, .F. ) ;
#553 = EDGE_LOOP ( 'NONE', ( #917, #126, #38, #358 ) ) ;
#554 = DIRECTION ( 'NONE',  ( 0.000000000000000000, 0.000000000000000000, 1.000000000000000000 ) ) ;
#555 = EDGE_CURVE ( 'NONE', #870, #797, #518, .T. ) ;
#556 = DIRECTION ( 'NONE',  ( 0.000000000000000000, 0.000000000000000000, 1.000000000000000000 ) ) ;
#557 = LINE ( 'NONE', #642, #302 ) ;
#558 = CIRCLE ( 'NONE', #89, 3.000000000000002665 ) ;
#559 = DIRECTION ( 'NONE',  ( 0.000000000000000000, 0.000000000000000000, 1.000000000000000000 ) ) ;
#560 = PRESENTATION_LAYER_ASSIGNMENT (  '', '', ( #319 ) ) ;
#561 = LINE ( 'NONE', #61, #229 ) ;
#562 = DIRECTION ( 'NONE',  ( 1.000000000000000000, 0.000000000000000000, 0.000000000000000000 ) ) ;
#563 = ORIENTED_EDGE ( 'NONE', *, *, #222, .T. ) ;
#564 = DIRECTION ( 'NONE',  ( -0.000000000000000000, -0.000000000000000000, 1.000000000000000000 ) ) ;
#565 = CYLINDRICAL_SURFACE ( 'NONE', #590, 1.600000000000002087 ) ;
#566 = DIRECTION ( 'NONE',  ( -1.155371657516204016E-16, 1.000000000000000000, -0.000000000000000000 ) ) ;
#567 = ORIENTED_EDGE ( 'NONE', *, *, #824, .T. ) ;
#568 = CARTESIAN_POINT ( 'NONE',  ( 1.600000000000014966, -145.0000000000000284, 8.000000000000000000 ) ) ;
#569 = CYLINDRICAL_SURFACE ( 'NONE', #183, 1.599999999999994316 ) ;
#570 = DIRECTION ( 'NONE',  ( 1.000000000000000000, 0.000000000000000000, 0.000000000000000000 ) ) ;
#571 = EDGE_CURVE ( 'NONE', #477, #242, #199, .T. ) ;
#572 = VERTEX_POINT ( 'NONE', #665 ) ;
#573 = CARTESIAN_POINT ( 'NONE',  ( 10.00000000000004086, -140.0288390266744614, 8.000000000000000000 ) ) ;
#574 = AXIS2_PLACEMENT_3D ( 'NONE', #862, #344, #562 ) ;
#575 = VECTOR ( 'NONE', #609, 1000.000000000000000 ) ;
#576 = CIRCLE ( 'NONE', #789, 10.00000000000000000 ) ;
#577 = ORIENTED_EDGE ( 'NONE', *, *, #117, .F. ) ;
#578 = ORIENTED_EDGE ( 'NONE', *, *, #704, .F. ) ;
#579 = DIRECTION ( 'NONE',  ( -0.000000000000000000, -0.000000000000000000, -1.000000000000000000 ) ) ;
#580 = ADVANCED_FACE ( 'NONE', ( #169 ), #325, .F. ) ;
#581 = FACE_BOUND ( 'NONE', #200, .T. ) ;
#582 = ORIENTED_EDGE ( 'NONE', *, *, #490, .T. ) ;
#583 = CARTESIAN_POINT ( 'NONE',  ( 40.00000000000002132, -160.0000000000000000, 0.000000000000000000 ) ) ;
#584 = EDGE_CURVE ( 'NONE', #899, #217, #108, .T. ) ;
#585 = CARTESIAN_POINT ( 'NONE',  ( 2.081668171172168513E-14, -145.0000000000000284, 5.000000000000000000 ) ) ;
#586 = EDGE_LOOP ( 'NONE', ( #261, #332 ) ) ;
#587 = PLANE ( 'NONE',  #805 ) ;
#588 = DIRECTION ( 'NONE',  ( -0.000000000000000000, -0.000000000000000000, -1.000000000000000000 ) ) ;
#589 = ADVANCED_FACE ( 'NONE', ( #317 ), #744, .F. ) ;
#590 = AXIS2_PLACEMENT_3D ( 'NONE', #935, #284, #495 ) ;
#591 = AXIS2_PLACEMENT_3D ( 'NONE', #818, #174, #236 ) ;
#592 = CARTESIAN_POINT ( 'NONE',  ( 18.00000000000003908, -150.0144195133372023, 5.000000000000000000 ) ) ;
#593 = EDGE_LOOP ( 'NONE', ( #863, #438, #563, #676 ) ) ;
#594 = CARTESIAN_POINT ( 'NONE',  ( 2.081668171172168513E-14, -145.0000000000000284, 5.000000000000000000 ) ) ;
#595 = DIRECTION ( 'NONE',  ( 0.000000000000000000, 0.000000000000000000, 1.000000000000000000 ) ) ;
#596 = EDGE_CURVE ( 'NONE', #800, #853, #156, .T. ) ;
#597 = ORIENTED_EDGE ( 'NONE', *, *, #902, .T. ) ;
#598 = CARTESIAN_POINT ( 'NONE',  ( 16.40000000000004476, -150.0144195133372023, 8.000000000000000000 ) ) ;
#599 = DIRECTION ( 'NONE',  ( 1.000000000000000000, 0.000000000000000000, 0.000000000000000000 ) ) ;
#600 = ORIENTED_EDGE ( 'NONE', *, *, #222, .F. ) ;
#601 = EDGE_CURVE ( 'NONE', #375, #206, #382, .T. ) ;
#602 = DIRECTION ( 'NONE',  ( 1.000000000000000000, 0.000000000000000000, 0.000000000000000000 ) ) ;
#603 = DIRECTION ( 'NONE',  ( 1.000000000000000000, 0.000000000000000000, 0.000000000000000000 ) ) ;
#604 = LINE ( 'NONE', #471, #154 ) ;
#605 = CIRCLE ( 'NONE', #802, 3.000000000000003109 ) ;
#606 = ORIENTED_EDGE ( 'NONE', *, *, #774, .F. ) ;
#607 = AXIS2_PLACEMENT_3D ( 'NONE', #573, #74, #934 ) ;
#608 = DIRECTION ( 'NONE',  ( -0.000000000000000000, -0.000000000000000000, -1.000000000000000000 ) ) ;
#609 = DIRECTION ( 'NONE',  ( -0.000000000000000000, -0.000000000000000000, -1.000000000000000000 ) ) ;
#610 = EDGE_LOOP ( 'NONE', ( #282, #68, #497, #424 ) ) ;
#611 = DIRECTION ( 'NONE',  ( -1.000000000000000000, 0.000000000000000000, 0.000000000000000000 ) ) ;
#612 = EDGE_CURVE ( 'NONE', #242, #477, #474, .T. ) ;
#613 = DIRECTION ( 'NONE',  ( -1.000000000000000000, -3.474456949786320671E-16, 0.000000000000000000 ) ) ;
#614 = EDGE_LOOP ( 'NONE', ( #510, #381, #842, #318 ) ) ;
#615 = CARTESIAN_POINT ( 'NONE',  ( 33.60000000000000853, -150.0144195133372023, 5.000000000000000000 ) ) ;
#616 = CYLINDRICAL_SURFACE ( 'NONE', #847, 3.000000000000002665 ) ;
#617 = AXIS2_PLACEMENT_3D ( 'NONE', #72, #647, #1 ) ;
#618 = VERTEX_POINT ( 'NONE', #923 ) ;
#619 = CIRCLE ( 'NONE', #32, 3.000000000000003109 ) ;
#620 = VECTOR ( 'NONE', #697, 1000.000000000000000 ) ;
#621 = CARTESIAN_POINT ( 'NONE',  ( -9.999999999999984013, -150.0000000000000000, 8.000000000000000000 ) ) ;
#622 = CYLINDRICAL_SURFACE ( 'NONE', #726, 3.000000000000003109 ) ;
#623 = EDGE_LOOP ( 'NONE', ( #397, #430 ) ) ;
#624 = EDGE_LOOP ( 'NONE', ( #26, #415, #606, #125 ) ) ;
#625 = FACE_OUTER_BOUND ( 'NONE', #623, .T. ) ;
#626 = CARTESIAN_POINT ( 'NONE',  ( 18.00000000000003908, -150.0144195133372023, 8.000000000000000000 ) ) ;
#627 = VERTEX_POINT ( 'NONE', #764 ) ;
#628 = DIRECTION ( 'NONE',  ( 1.000000000000000000, 0.000000000000000000, 0.000000000000000000 ) ) ;
#629 = DIRECTION ( 'NONE',  ( -1.000000000000000000, 0.000000000000000000, 0.000000000000000000 ) ) ;
#630 = ORIENTED_EDGE ( 'NONE', *, *, #58, .T. ) ;
#631 = VECTOR ( 'NONE', #462, 1000.000000000000000 ) ;
#632 = EDGE_LOOP ( 'NONE', ( #521, #730 ) ) ;
#633 = VECTOR ( 'NONE', #110, 1000.000000000000000 ) ;
#634 = FACE_OUTER_BOUND ( 'NONE', #929, .T. ) ;
#635 = AXIS2_PLACEMENT_3D ( 'NONE', #330, #559, #416 ) ;
#636 = LINE ( 'NONE', #791, #651 ) ;
#637 = DIRECTION ( 'NONE',  ( -0.000000000000000000, -0.000000000000000000, 1.000000000000000000 ) ) ;
#638 = ORIENTED_EDGE ( 'NONE', *, *, #210, .F. ) ;
#639 = DIRECTION ( 'NONE',  ( -0.000000000000000000, -0.000000000000000000, -1.000000000000000000 ) ) ;
#640 = EDGE_CURVE ( 'NONE', #724, #315, #47, .T. ) ;
#641 = FACE_OUTER_BOUND ( 'NONE', #907, .T. ) ;
#642 = CARTESIAN_POINT ( 'NONE',  ( 3.000000000000023981, -145.0000000000000284, 5.000000000000000000 ) ) ;
#643 = ORIENTED_EDGE ( 'NONE', *, *, #601, .F. ) ;
#644 = FACE_OUTER_BOUND ( 'NONE', #514, .T. ) ;
#645 = LINE ( 'NONE', #417, #411 ) ;
#646 = EDGE_CURVE ( 'NONE', #299, #618, #820, .T. ) ;
#647 = DIRECTION ( 'NONE',  ( -0.000000000000000000, -0.000000000000000000, -1.000000000000000000 ) ) ;
#648 = EDGE_LOOP ( 'NONE', ( #826, #409, #707, #290 ) ) ;
#649 = LINE ( 'NONE', #225, #547 ) ;
#650 = AXIS2_PLACEMENT_3D ( 'NONE', #223, #873, #668 ) ;
#651 = VECTOR ( 'NONE', #783, 1000.000000000000000 ) ;
#652 = VECTOR ( 'NONE', #502, 1000.000000000000000 ) ;
#653 = CARTESIAN_POINT ( 'NONE',  ( 1.600000000000014966, -145.0000000000000284, 5.000000000000000000 ) ) ;
#654 = ORIENTED_EDGE ( 'NONE', *, *, #722, .F. ) ;
#655 = ADVANCED_FACE ( 'NONE', ( #479 ), #346, .F. ) ;
#656 = CARTESIAN_POINT ( 'NONE',  ( 19.60000000000003340, -150.0144195133372023, 5.000000000000000000 ) ) ;
#657 = CARTESIAN_POINT ( 'NONE',  ( 2.081668171172168513E-14, -145.0000000000000284, 0.000000000000000000 ) ) ;
#658 = VERTEX_POINT ( 'NONE', #706 ) ;
#659 = DIRECTION ( 'NONE',  ( 0.000000000000000000, 0.000000000000000000, 1.000000000000000000 ) ) ;
#660 = ADVANCED_FACE ( 'NONE', ( #342, #625 ), #271, .T. ) ;
#661 = FACE_OUTER_BOUND ( 'NONE', #553, .T. ) ;
#662 = ADVANCED_BREP_SHAPE_REPRESENTATION ( 'L\X2\578b8fde63a5\X0\_\X2\53f3\X0\', ( #327, #34 ), #400 ) ;
#663 = VERTEX_POINT ( 'NONE', #421 ) ;
#664 = CARTESIAN_POINT ( 'NONE',  ( 10.00000000000003730, -110.0000000000000000, 8.000000000000000000 ) ) ;
#665 = CARTESIAN_POINT ( 'NONE',  ( 30.40000000000001990, -150.0144195133372023, 0.000000000000000000 ) ) ;
#666 = AXIS2_PLACEMENT_3D ( 'NONE', #301, #491, #921 ) ;
#667 = AXIS2_PLACEMENT_3D ( 'NONE', #498, #564, #294 ) ;
#668 = DIRECTION ( 'NONE',  ( 1.000000000000000000, 0.000000000000000000, 0.000000000000000000 ) ) ;
#669 = ORIENTED_EDGE ( 'NONE', *, *, #341, .F. ) ;
#670 = CARTESIAN_POINT ( 'NONE',  ( 35.00000000000001421, -150.0144195133372023, 8.000000000000000000 ) ) ;
#671 = EDGE_CURVE ( 'NONE', #746, #838, #322, .T. ) ;
#672 = FACE_OUTER_BOUND ( 'NONE', #835, .T. ) ;
#673 = ORIENTED_EDGE ( 'NONE', *, *, #250, .F. ) ;
#674 = LINE ( 'NONE', #454, #352 ) ;
#675 = DIRECTION ( 'NONE',  ( -0.000000000000000000, -0.000000000000000000, 1.000000000000000000 ) ) ;
#676 = ORIENTED_EDGE ( 'NONE', *, *, #2, .F. ) ;
#677 = CYLINDRICAL_SURFACE ( 'NONE', #276, 1.599999999999993872 ) ;
#678 = FACE_OUTER_BOUND ( 'NONE', #267, .T. ) ;
#679 = AXIS2_PLACEMENT_3D ( 'NONE', #513, #799, #452 ) ;
#680 = LINE ( 'NONE', #898, #107 ) ;
#681 = AXIS2_PLACEMENT_3D ( 'NONE', #328, #748, #906 ) ;
#682 = ORIENTED_EDGE ( 'NONE', *, *, #112, .F. ) ;
#683 = AXIS2_PLACEMENT_3D ( 'NONE', #60, #55, #628 ) ;
#684 = EDGE_CURVE ( 'NONE', #472, #353, #184, .T. ) ;
#685 = DIRECTION ( 'NONE',  ( 1.000000000000000000, 0.000000000000000000, 0.000000000000000000 ) ) ;
#686 = CARTESIAN_POINT ( 'NONE',  ( 16.40000000000004476, -150.0144195133372023, 0.000000000000000000 ) ) ;
#687 = VERTEX_POINT ( 'NONE', #621 ) ;
#688 = CARTESIAN_POINT ( 'NONE',  ( 2.081668171172168513E-14, -125.0000000000000000, 0.000000000000000000 ) ) ;
#689 = DIRECTION ( 'NONE',  ( 1.000000000000000000, 0.000000000000000000, 0.000000000000000000 ) ) ;
#690 = ORIENTED_EDGE ( 'NONE', *, *, #640, .T. ) ;
#691 = CARTESIAN_POINT ( 'NONE',  ( 2.081668171172168513E-14, -125.0000000000000000, 5.000000000000000000 ) ) ;
#692 = DIRECTION ( 'NONE',  ( 1.000000000000000000, 0.000000000000000000, 0.000000000000000000 ) ) ;
#693 = CIRCLE ( 'NONE', #3, 1.599999999999994316 ) ;
#694 = VERTEX_POINT ( 'NONE', #777 ) ;
#695 = VECTOR ( 'NONE', #852, 1000.000000000000000 ) ;
#696 = AXIS2_PLACEMENT_3D ( 'NONE', #31, #384, #685 ) ;
#697 = DIRECTION ( 'NONE',  ( -1.155371657516204016E-16, 1.000000000000000000, -0.000000000000000000 ) ) ;
#698 = CARTESIAN_POINT ( 'NONE',  ( 10.00000000000004086, -140.0288390266744614, 8.000000000000000000 ) ) ;
#699 = EDGE_CURVE ( 'NONE', #760, #720, #305, .T. ) ;
#700 = ORIENTED_EDGE ( 'NONE', *, *, #112, .T. ) ;
#701 = CARTESIAN_POINT ( 'NONE',  ( 2.081668171172168513E-14, -125.0000000000000000, 0.000000000000000000 ) ) ;
#702 = CYLINDRICAL_SURFACE ( 'NONE', #832, 1.599999999999993872 ) ;
#703 = DIRECTION ( 'NONE',  ( -1.000000000000000000, -0.000000000000000000, -0.000000000000000000 ) ) ;
#704 = EDGE_CURVE ( 'NONE', #206, #375, #834, .T. ) ;
#705 = VERTEX_POINT ( 'NONE', #615 ) ;
#706 = CARTESIAN_POINT ( 'NONE',  ( 33.60000000000000853, -150.0144195133372023, 0.000000000000000000 ) ) ;
#707 = ORIENTED_EDGE ( 'NONE', *, *, #749, .T. ) ;
#708 = ORIENTED_EDGE ( 'NONE', *, *, #347, .F. ) ;
#709 = CIRCLE ( 'NONE', #864, 3.000000000000006217 ) ;
#710 = DIRECTION ( 'NONE',  ( 1.000000000000000000, 0.000000000000000000, 0.000000000000000000 ) ) ;
#711 = CIRCLE ( 'NONE', #755, 1.599999999999997202 ) ;
#712 = EDGE_CURVE ( 'NONE', #715, #687, #43, .T. ) ;
#713 = UNCERTAINTY_MEASURE_WITH_UNIT (LENGTH_MEASURE( 1.000000000000000082E-05 ), #534, 'distance_accuracy_value', 'NONE');
#714 = CARTESIAN_POINT ( 'NONE',  ( 1.600000000000022737, -125.0000000000000000, 0.000000000000000000 ) ) ;
#715 = VERTEX_POINT ( 'NONE', #338 ) ;
#716 = ORIENTED_EDGE ( 'NONE', *, *, #49, .T. ) ;
#717 = DIRECTION ( 'NONE',  ( 1.000000000000000000, 0.000000000000000000, 0.000000000000000000 ) ) ;
#718 = CARTESIAN_POINT ( 'NONE',  ( 2.081668171172168513E-14, -145.0000000000000284, 8.000000000000000000 ) ) ;
#719 = CYLINDRICAL_SURFACE ( 'NONE', #617, 1.599999999999994316 ) ;
#720 = VERTEX_POINT ( 'NONE', #487 ) ;
#721 = CARTESIAN_POINT ( 'NONE',  ( 3.000000000000023981, -125.0000000000000000, 8.000000000000000000 ) ) ;
#722 = EDGE_CURVE ( 'NONE', #572, #658, #533, .T. ) ;
#723 = ORIENTED_EDGE ( 'NONE', *, *, #478, .T. ) ;
#724 = VERTEX_POINT ( 'NONE', #475 ) ;
#725 = LINE ( 'NONE', #583, #897 ) ;
#726 = AXIS2_PLACEMENT_3D ( 'NONE', #829, #404, #264 ) ;
#727 = CIRCLE ( 'NONE', #848, 1.599999999999993872 ) ;
#728 = VECTOR ( 'NONE', #283, 1000.000000000000000 ) ;
#729 = LINE ( 'NONE', #366, #45 ) ;
#730 = ORIENTED_EDGE ( 'NONE', *, *, #180, .F. ) ;
#731 = CARTESIAN_POINT ( 'NONE',  ( 3.000000000000023981, -125.0000000000000000, 5.000000000000000000 ) ) ;
#732 = DIRECTION ( 'NONE',  ( 0.000000000000000000, 0.000000000000000000, 1.000000000000000000 ) ) ;
#733 = ORIENTED_EDGE ( 'NONE', *, *, #490, .F. ) ;
#734 = DIRECTION ( 'NONE',  ( 1.000000000000000000, 0.000000000000000000, -0.000000000000000000 ) ) ;
#735 = DIRECTION ( 'NONE',  ( -0.000000000000000000, -0.000000000000000000, 1.000000000000000000 ) ) ;
#736 = ORIENTED_EDGE ( 'NONE', *, *, #432, .F. ) ;
#737 =( NAMED_UNIT ( * ) SI_UNIT ( $, .STERADIAN. ) SOLID_ANGLE_UNIT ( ) );
#738 = CARTESIAN_POINT ( 'NONE',  ( -9.999999999999987566, -110.0000000000000000, 8.000000000000000000 ) ) ;
#739 = ADVANCED_FACE ( 'NONE', ( #548 ), #836, .F. ) ;
#740 = CIRCLE ( 'NONE', #272, 3.000000000000003109 ) ;
#741 = AXIS2_PLACEMENT_3D ( 'NONE', #155, #930, #446 ) ;
#742 = DIRECTION ( 'NONE',  ( 1.000000000000000000, 0.000000000000000000, 0.000000000000000000 ) ) ;
#743 = ORIENTED_EDGE ( 'NONE', *, *, #811, .T. ) ;
#744 = CYLINDRICAL_SURFACE ( 'NONE', #459, 3.000000000000003109 ) ;
#745 = DIRECTION ( 'NONE',  ( -0.000000000000000000, -0.000000000000000000, -1.000000000000000000 ) ) ;
#746 = VERTEX_POINT ( 'NONE', #840 ) ;
#747 = PLANE ( 'NONE',  #335 ) ;
#748 = DIRECTION ( 'NONE',  ( 0.000000000000000000, 0.000000000000000000, 1.000000000000000000 ) ) ;
#749 = EDGE_CURVE ( 'NONE', #9, #405, #772, .T. ) ;
#750 = ORIENTED_EDGE ( 'NONE', *, *, #279, .T. ) ;
#751 = DIRECTION ( 'NONE',  ( 1.000000000000000000, 0.000000000000000000, 0.000000000000000000 ) ) ;
#752 = FACE_OUTER_BOUND ( 'NONE', #511, .T. ) ;
#753 = CIRCLE ( 'NONE', #666, 3.000000000000006217 ) ;
#754 = FACE_OUTER_BOUND ( 'NONE', #481, .T. ) ;
#755 = AXIS2_PLACEMENT_3D ( 'NONE', #245, #813, #808 ) ;
#756 = VERTEX_POINT ( 'NONE', #51 ) ;
#757 = EDGE_CURVE ( 'NONE', #287, #193, #127, .T. ) ;
#758 = DIRECTION ( 'NONE',  ( 0.000000000000000000, -0.000000000000000000, -1.000000000000000000 ) ) ;
#759 = DIRECTION ( 'NONE',  ( -0.000000000000000000, 0.000000000000000000, 1.000000000000000000 ) ) ;
#760 = VERTEX_POINT ( 'NONE', #855 ) ;
#761 = DIRECTION ( 'NONE',  ( 1.000000000000000000, 0.000000000000000000, -0.000000000000000000 ) ) ;
#762 = DIRECTION ( 'NONE',  ( -0.000000000000000000, -0.000000000000000000, 1.000000000000000000 ) ) ;
#763 = ORIENTED_EDGE ( 'NONE', *, *, #519, .T. ) ;
#764 = CARTESIAN_POINT ( 'NONE',  ( 40.00000000000002132, -160.0000000000000000, 8.000000000000000000 ) ) ;
#765 = EDGE_CURVE ( 'NONE', #627, #776, #288, .T. ) ;
#766 = DIRECTION ( 'NONE',  ( -3.474456949786320671E-16, 1.000000000000000000, 0.000000000000000000 ) ) ;
#767 = CIRCLE ( 'NONE', #574, 1.599999999999997202 ) ;
#768 = APPLICATION_CONTEXT ( 'automotive_design' ) ;
#769 = EDGE_LOOP ( 'NONE', ( #292, #30 ) ) ;
#770 = AXIS2_PLACEMENT_3D ( 'NONE', #701, #190, #482 ) ;
#771 = VERTEX_POINT ( 'NONE', #515 ) ;
#772 = LINE ( 'NONE', #410, #620 ) ;
#773 = FACE_OUTER_BOUND ( 'NONE', #115, .T. ) ;
#774 = EDGE_CURVE ( 'NONE', #663, #287, #649, .T. ) ;
#775 = DIRECTION ( 'NONE',  ( -1.000000000000000000, -0.000000000000000000, -0.000000000000000000 ) ) ;
#776 = VERTEX_POINT ( 'NONE', #82 ) ;
#777 = CARTESIAN_POINT ( 'NONE',  ( -2.999999999999982236, -145.0000000000000284, 8.000000000000000000 ) ) ;
#778 = CARTESIAN_POINT ( 'NONE',  ( 40.00000000000002132, -160.0000000000000000, 8.000000000000000000 ) ) ;
#779 = EDGE_LOOP ( 'NONE', ( #448, #310 ) ) ;
#780 = ADVANCED_FACE ( 'NONE', ( #634 ), #297, .F. ) ;
#781 = ORIENTED_EDGE ( 'NONE', *, *, #15, .T. ) ;
#782 = CARTESIAN_POINT ( 'NONE',  ( 15.00000000000003375, -150.0144195133372023, 5.000000000000000000 ) ) ;
#783 = DIRECTION ( 'NONE',  ( -0.000000000000000000, -0.000000000000000000, 1.000000000000000000 ) ) ;
#784 = EDGE_LOOP ( 'NONE', ( #69, #690 ) ) ;
#785 = EDGE_CURVE ( 'NONE', #687, #922, #576, .T. ) ;
#786 = VERTEX_POINT ( 'NONE', #782 ) ;
#787 = VECTOR ( 'NONE', #766, 1000.000000000000000 ) ;
#788 = CARTESIAN_POINT ( 'NONE',  ( -9.999999999999987566, -110.0000000000000000, 8.000000000000000000 ) ) ;
#789 = AXIS2_PLACEMENT_3D ( 'NONE', #212, #871, #717 ) ;
#790 = VECTOR ( 'NONE', #27, 1000.000000000000000 ) ;
#791 = CARTESIAN_POINT ( 'NONE',  ( 21.00000000000004619, -150.0144195133372023, 5.000000000000000000 ) ) ;
#792 = LINE ( 'NONE', #434, #503 ) ;
#793 = EDGE_LOOP ( 'NONE', ( #153, #763, #130, #638 ) ) ;
#794 = LINE ( 'NONE', #149, #728 ) ;
#795 = EDGE_CURVE ( 'NONE', #296, #76, #246, .T. ) ;
#796 = VERTEX_POINT ( 'NONE', #656 ) ;
#797 = VERTEX_POINT ( 'NONE', #6 ) ;
#798 = LINE ( 'NONE', #77, #790 ) ;
#799 = DIRECTION ( 'NONE',  ( -0.000000000000000000, -0.000000000000000000, -1.000000000000000000 ) ) ;
#800 = VERTEX_POINT ( 'NONE', #801 ) ;
#801 = CARTESIAN_POINT ( 'NONE',  ( -2.999999999999982236, -125.0000000000000000, 8.000000000000000000 ) ) ;
#802 = AXIS2_PLACEMENT_3D ( 'NONE', #151, #8, #887 ) ;
#803 = VECTOR ( 'NONE', #165, 1000.000000000000000 ) ;
#804 = AXIS2_PLACEMENT_3D ( 'NONE', #389, #849, #116 ) ;
#805 = AXIS2_PLACEMENT_3D ( 'NONE', #664, #893, #885 ) ;
#806 = DIRECTION ( 'NONE',  ( 1.000000000000000000, 0.000000000000000000, 0.000000000000000000 ) ) ;
#807 = ORIENTED_EDGE ( 'NONE', *, *, #150, .F. ) ;
#808 = DIRECTION ( 'NONE',  ( 1.000000000000000000, 0.000000000000000000, 0.000000000000000000 ) ) ;
#809 = CARTESIAN_POINT ( 'NONE',  ( 1.600000000000014966, -145.0000000000000284, 0.000000000000000000 ) ) ;
#810 = ORIENTED_EDGE ( 'NONE', *, *, #314, .T. ) ;
#811 = EDGE_CURVE ( 'NONE', #919, #111, #444, .T. ) ;
#812 = DIRECTION ( 'NONE',  ( -1.000000000000000000, 0.000000000000000000, 0.000000000000000000 ) ) ;
#813 = DIRECTION ( 'NONE',  ( 0.000000000000000000, 0.000000000000000000, 1.000000000000000000 ) ) ;
#814 = PLANE ( 'NONE',  #396 ) ;
#815 = ORIENTED_EDGE ( 'NONE', *, *, #117, .T. ) ;
#816 = CARTESIAN_POINT ( 'NONE',  ( 0.000000000000000000, 0.000000000000000000, 0.000000000000000000 ) ) ;
#817 = EDGE_CURVE ( 'NONE', #217, #111, #440, .T. ) ;
#818 = CARTESIAN_POINT ( 'NONE',  ( 32.00000000000001421, -150.0144195133372023, 5.000000000000000000 ) ) ;
#819 =( GEOMETRIC_REPRESENTATION_CONTEXT ( 3 ) GLOBAL_UNCERTAINTY_ASSIGNED_CONTEXT ( ( #78 ) ) GLOBAL_UNIT_ASSIGNED_CONTEXT ( ( #260, #413, #861 ) ) REPRESENTATION_CONTEXT ( 'NONE', 'WORKASPACE' ) );
#820 = CIRCLE ( 'NONE', #7, 9.999999999999998224 ) ;
#821 = CARTESIAN_POINT ( 'NONE',  ( -9.999999999999987566, -110.0000000000000000, 0.000000000000000000 ) ) ;
#822 = ORIENTED_EDGE ( 'NONE', *, *, #584, .T. ) ;
#823 = FACE_OUTER_BOUND ( 'NONE', #874, .T. ) ;
#824 = EDGE_CURVE ( 'NONE', #776, #369, #725, .T. ) ;
#825 = FILL_AREA_STYLE_COLOUR ( '', #136 ) ;
#826 = ORIENTED_EDGE ( 'NONE', *, *, #49, .F. ) ;
#827 = APPLICATION_PROTOCOL_DEFINITION ( 'draft international standard', 'automotive_design', 1998, #889 ) ;
#828 = LINE ( 'NONE', #161, #138 ) ;
#829 = CARTESIAN_POINT ( 'NONE',  ( 2.081668171172168513E-14, -125.0000000000000000, 5.000000000000000000 ) ) ;
#830 = ORIENTED_EDGE ( 'NONE', *, *, #195, .T. ) ;
#831 = CARTESIAN_POINT ( 'NONE',  ( 32.00000000000001421, -150.0144195133372023, 5.000000000000000000 ) ) ;
#832 = AXIS2_PLACEMENT_3D ( 'NONE', #56, #343, #629 ) ;
#833 = CARTESIAN_POINT ( 'NONE',  ( 1.561251128379126385E-14, -160.0000000000000000, 0.000000000000000000 ) ) ;
#834 = CIRCLE ( 'NONE', #928, 1.600000000000002087 ) ;
#835 = EDGE_LOOP ( 'NONE', ( #486, #119, #578, #167 ) ) ;
#836 = PLANE ( 'NONE',  #124 ) ;
#837 = SURFACE_STYLE_USAGE ( .BOTH. , #185 ) ;
#838 = VERTEX_POINT ( 'NONE', #731 ) ;
#839 = EDGE_CURVE ( 'NONE', #899, #919, #207, .T. ) ;
#840 = CARTESIAN_POINT ( 'NONE',  ( -2.999999999999982236, -125.0000000000000000, 5.000000000000000000 ) ) ;
#841 = CARTESIAN_POINT ( 'NONE',  ( 0.000000000000000000, 0.000000000000000000, 0.000000000000000000 ) ) ;
#842 = ORIENTED_EDGE ( 'NONE', *, *, #876, .T. ) ;
#843 = DIRECTION ( 'NONE',  ( 1.000000000000000000, 0.000000000000000000, 0.000000000000000000 ) ) ;
#844 = ADVANCED_FACE ( 'NONE', ( #644 ), #938, .F. ) ;
#845 = CARTESIAN_POINT ( 'NONE',  ( 3.000000000000023981, -145.0000000000000284, 8.000000000000000000 ) ) ;
#846 = LINE ( 'NONE', #286, #196 ) ;
#847 = AXIS2_PLACEMENT_3D ( 'NONE', #255, #467, #544 ) ;
#848 = AXIS2_PLACEMENT_3D ( 'NONE', #860, #66, #710 ) ;
#849 = DIRECTION ( 'NONE',  ( 0.000000000000000000, 0.000000000000000000, 1.000000000000000000 ) ) ;
#850 = AXIS2_PLACEMENT_3D ( 'NONE', #311, #525, #18 ) ;
#851 = EDGE_CURVE ( 'NONE', #756, #796, #727, .T. ) ;
#852 = DIRECTION ( 'NONE',  ( -0.000000000000000000, -0.000000000000000000, -1.000000000000000000 ) ) ;
#853 = VERTEX_POINT ( 'NONE', #721 ) ;
#854 = ORIENTED_EDGE ( 'NONE', *, *, #824, .F. ) ;
#855 = CARTESIAN_POINT ( 'NONE',  ( 35.00000000000001421, -150.0144195133372023, 5.000000000000000000 ) ) ;
#856 = CARTESIAN_POINT ( 'NONE',  ( 10.00000000000003730, -110.0000000000000000, 8.000000000000000000 ) ) ;
#857 = EDGE_CURVE ( 'NONE', #618, #9, #794, .T. ) ;
#858 = DIRECTION ( 'NONE',  ( 0.000000000000000000, 0.000000000000000000, 1.000000000000000000 ) ) ;
#859 = ORIENTED_EDGE ( 'NONE', *, *, #712, .F. ) ;
#860 = CARTESIAN_POINT ( 'NONE',  ( 18.00000000000003908, -150.0144195133372023, 5.000000000000000000 ) ) ;
#861 =( NAMED_UNIT ( * ) SI_UNIT ( $, .STERADIAN. ) SOLID_ANGLE_UNIT ( ) );
#862 = CARTESIAN_POINT ( 'NONE',  ( 32.00000000000001421, -150.0144195133372023, 5.000000000000000000 ) ) ;
#863 = ORIENTED_EDGE ( 'NONE', *, *, #795, .F. ) ;
#864 = AXIS2_PLACEMENT_3D ( 'NONE', #626, #556, #198 ) ;
#865 = ADVANCED_FACE ( 'NONE', ( #221 ), #875, .F. ) ;
#866 = DIRECTION ( 'NONE',  ( -0.000000000000000000, 0.000000000000000000, -1.000000000000000000 ) ) ;
#867 = VECTOR ( 'NONE', #639, 1000.000000000000000 ) ;
#868 = AXIS2_PLACEMENT_3D ( 'NONE', #512, #866, #436 ) ;
#869 = EDGE_LOOP ( 'NONE', ( #492, #134, #528, #234 ) ) ;
#870 = VERTEX_POINT ( 'NONE', #431 ) ;
#871 = DIRECTION ( 'NONE',  ( -0.000000000000000000, 0.000000000000000000, 1.000000000000000000 ) ) ;
#872 = ADVANCED_FACE ( 'NONE', ( #70 ), #10, .T. ) ;
#873 = DIRECTION ( 'NONE',  ( 0.000000000000000000, 0.000000000000000000, 1.000000000000000000 ) ) ;
#874 = EDGE_LOOP ( 'NONE', ( #219, #807, #582, #815 ) ) ;
#875 = PLANE ( 'NONE',  #505 ) ;
#876 = EDGE_CURVE ( 'NONE', #542, #572, #798, .T. ) ;
#877 = DIRECTION ( 'NONE',  ( 0.000000000000000000, 0.000000000000000000, 1.000000000000000000 ) ) ;
#878 = ORIENTED_EDGE ( 'NONE', *, *, #596, .F. ) ;
#879 = CIRCLE ( 'NONE', #152, 3.000000000000003109 ) ;
#880 = DIRECTION ( 'NONE',  ( -1.000000000000000000, 0.000000000000000000, 0.000000000000000000 ) ) ;
#881 = AXIS2_PLACEMENT_3D ( 'NONE', #312, #675, #19 ) ;
#882 = ADVANCED_FACE ( 'NONE', ( #900 ), #306, .F. ) ;
#883 = FACE_BOUND ( 'NONE', #73, .T. ) ;
#884 = EDGE_LOOP ( 'NONE', ( #137, #53 ) ) ;
#885 = DIRECTION ( 'NONE',  ( 1.155371657516204016E-16, -1.000000000000000000, 0.000000000000000000 ) ) ;
#886 = DIRECTION ( 'NONE',  ( -0.000000000000000000, -0.000000000000000000, 1.000000000000000000 ) ) ;
#887 = DIRECTION ( 'NONE',  ( 1.000000000000000000, 0.000000000000000000, 0.000000000000000000 ) ) ;
#888 = EDGE_LOOP ( 'NONE', ( #669, #252, #723, #500 ) ) ;
#889 = APPLICATION_CONTEXT ( 'automotive_design' ) ;
#890 = CARTESIAN_POINT ( 'NONE',  ( 2.081668171172168513E-14, -145.0000000000000284, 5.000000000000000000 ) ) ;
#891 = FACE_BOUND ( 'NONE', #632, .T. ) ;
#892 = ORIENTED_EDGE ( 'NONE', *, *, #839, .T. ) ;
#893 = DIRECTION ( 'NONE',  ( -1.000000000000000000, -1.155371657516204016E-16, 0.000000000000000000 ) ) ;
#894 = EDGE_CURVE ( 'NONE', #275, #776, #674, .T. ) ;
#895 = DIRECTION ( 'NONE',  ( -1.000000000000000000, 0.000000000000000000, 0.000000000000000000 ) ) ;
#896 = AXIS2_PLACEMENT_3D ( 'NONE', #841, #114, #689 ) ;
#897 = VECTOR ( 'NONE', #278, 1000.000000000000000 ) ;
#898 = CARTESIAN_POINT ( 'NONE',  ( 33.60000000000000853, -150.0144195133372023, 8.000000000000000000 ) ) ;
#899 = VERTEX_POINT ( 'NONE', #101 ) ;
#900 = FACE_OUTER_BOUND ( 'NONE', #610, .T. ) ;
#901 = DIRECTION ( 'NONE',  ( 0.000000000000000000, 0.000000000000000000, 1.000000000000000000 ) ) ;
#902 = EDGE_CURVE ( 'NONE', #230, #369, #160, .T. ) ;
#903 = FACE_BOUND ( 'NONE', #784, .T. ) ;
#904 = ORIENTED_EDGE ( 'NONE', *, *, #141, .F. ) ;
#905 = DIRECTION ( 'NONE',  ( 1.000000000000000000, 0.000000000000000000, 0.000000000000000000 ) ) ;
#906 = DIRECTION ( 'NONE',  ( 1.000000000000000000, 0.000000000000000000, 0.000000000000000000 ) ) ;
#907 = EDGE_LOOP ( 'NONE', ( #538, #129, #176, #643 ) ) ;
#908 = DIRECTION ( 'NONE',  ( 0.000000000000000000, 0.000000000000000000, 1.000000000000000000 ) ) ;
#909 = VECTOR ( 'NONE', #566, 1000.000000000000000 ) ;
#910 = CIRCLE ( 'NONE', #912, 3.000000000000006217 ) ;
#911 = PRESENTATION_STYLE_ASSIGNMENT (( #837 ) ) ;
#912 = AXIS2_PLACEMENT_3D ( 'NONE', #377, #232, #603 ) ;
#913 = ADVANCED_FACE ( 'NONE', ( #393 ), #677, .F. ) ;
#914 = ORIENTED_EDGE ( 'NONE', *, *, #811, .F. ) ;
#915 = CARTESIAN_POINT ( 'NONE',  ( -9.999999999999984013, -150.0000000000000000, 8.000000000000000000 ) ) ;
#916 = PLANE ( 'NONE',  #896 ) ;
#917 = ORIENTED_EDGE ( 'NONE', *, *, #407, .F. ) ;
#918 = ADVANCED_FACE ( 'NONE', ( #376 ), #587, .F. ) ;
#919 = VERTEX_POINT ( 'NONE', #96 ) ;
#920 = CARTESIAN_POINT ( 'NONE',  ( 20.00000000000004263, -130.0288390266744614, 8.000000000000000000 ) ) ;
#921 = DIRECTION ( 'NONE',  ( 1.000000000000000000, 0.000000000000000000, 0.000000000000000000 ) ) ;
#922 = VERTEX_POINT ( 'NONE', #235 ) ;
#923 = CARTESIAN_POINT ( 'NONE',  ( 10.00000000000003908, -130.0288390266744614, 8.000000000000000000 ) ) ;
#924 = ADVANCED_FACE ( 'NONE', ( #164 ), #388, .F. ) ;
#925 = FACE_OUTER_BOUND ( 'NONE', #614, .T. ) ;
#926 = AXIS2_PLACEMENT_3D ( 'NONE', #371, #531, #523 ) ;
#927 = ORIENTED_EDGE ( 'NONE', *, *, #712, .T. ) ;
#928 = AXIS2_PLACEMENT_3D ( 'NONE', #688, #131, #843 ) ;
#929 = EDGE_LOOP ( 'NONE', ( #546, #17, #277, #387 ) ) ;
#930 = DIRECTION ( 'NONE',  ( 0.000000000000000000, 0.000000000000000000, 1.000000000000000000 ) ) ;
#931 = DIRECTION ( 'NONE',  ( 1.000000000000000000, 0.000000000000000000, 0.000000000000000000 ) ) ;
#932 = ORIENTED_EDGE ( 'NONE', *, *, #671, .F. ) ;
#933 = ORIENTED_EDGE ( 'NONE', *, *, #684, .F. ) ;
#934 = DIRECTION ( 'NONE',  ( 0.000000000000000000, -0.000000000000000000, -1.000000000000000000 ) ) ;
#935 = CARTESIAN_POINT ( 'NONE',  ( 2.081668171172168513E-14, -125.0000000000000000, 8.000000000000000000 ) ) ;
#936 = CARTESIAN_POINT ( 'NONE',  ( 10.00000000000003908, -130.0288390266744614, 0.000000000000000000 ) ) ;
#937 = ORIENTED_EDGE ( 'NONE', *, *, #122, .F. ) ;
#938 = PLANE ( 'NONE',  #607 ) ;
#939 = DIRECTION ( 'NONE',  ( 1.040834085586084257E-16, -1.000000000000000000, 0.000000000000000000 ) ) ;
ENDSEC;
END-ISO-10303-21;
