ISO-10303-21;
HEADER;
FILE_DESCRIPTION (( 'STEP AP214' ),
    '1' );
FILE_NAME ('LÐÍÁ¬½Ó_×ó.STEP',
    '2025-09-28T10:37:47',
    ( '' ),
    ( '' ),
    'SwSTEP 2.0',
    'SolidWorks 2025',
    '' );
FILE_SCHEMA (( 'AUTOMOTIVE_DESIGN' ));
ENDSEC;

DATA;
#1 = EDGE_CURVE ( 'NONE', #249, #86, #121, .T. ) ;
#2 = DIRECTION ( 'NONE',  ( 1.000000000000000000, 0.000000000000000000, 0.000000000000000000 ) ) ;
#3 = DIRECTION ( 'NONE',  ( 0.000000000000000000, 0.000000000000000000, 1.000000000000000000 ) ) ;
#4 = AXIS2_PLACEMENT_3D ( 'NONE', #930, #148, #290 ) ;
#5 = DIRECTION ( 'NONE',  ( 0.000000000000000000, 0.000000000000000000, 1.000000000000000000 ) ) ;
#6 = AXIS2_PLACEMENT_3D ( 'NONE', #471, #231, #752 ) ;
#7 = ORIENTED_EDGE ( 'NONE', *, *, #431, .T. ) ;
#8 = AXIS2_PLACEMENT_3D ( 'NONE', #756, #328, #903 ) ;
#9 = ADVANCED_FACE ( 'NONE', ( #475 ), #562, .F. ) ;
#10 = DIRECTION ( 'NONE',  ( 1.000000000000000000, 0.000000000000000000, 0.000000000000000000 ) ) ;
#11 = CARTESIAN_POINT ( 'NONE',  ( 19.60000000000004761, 67.49999999999997158, 0.000000000000000000 ) ) ;
#12 = ORIENTED_EDGE ( 'NONE', *, *, #759, .F. ) ;
#13 = PLANE ( 'NONE',  #262 ) ;
#14 = EDGE_CURVE ( 'NONE', #529, #583, #246, .T. ) ;
#15 = DIRECTION ( 'NONE',  ( 0.000000000000000000, 0.000000000000000000, 1.000000000000000000 ) ) ;
#16 = ORIENTED_EDGE ( 'NONE', *, *, #380, .F. ) ;
#17 = DIRECTION ( 'NONE',  ( -1.000000000000000000, 0.000000000000000000, 0.000000000000000000 ) ) ;
#18 = EDGE_CURVE ( 'NONE', #263, #416, #448, .T. ) ;
#19 = CARTESIAN_POINT ( 'NONE',  ( 35.00000000000000711, 67.49999999999997158, 5.000000000000000000 ) ) ;
#20 = VERTEX_POINT ( 'NONE', #126 ) ;
#21 = VECTOR ( 'NONE', #694, 1000.000000000000000 ) ;
#22 = DIRECTION ( 'NONE',  ( 1.000000000000000000, 0.000000000000000000, 0.000000000000000000 ) ) ;
#23 = FACE_BOUND ( 'NONE', #71, .T. ) ;
#24 = ORIENTED_EDGE ( 'NONE', *, *, #87, .F. ) ;
#25 = EDGE_CURVE ( 'NONE', #269, #587, #411, .T. ) ;
#26 = CARTESIAN_POINT ( 'NONE',  ( 2.081668171172168513E-14, 62.49999999999998579, 5.000000000000000000 ) ) ;
#27 = FACE_BOUND ( 'NONE', #93, .T. ) ;
#28 = EDGE_LOOP ( 'NONE', ( #99, #353 ) ) ;
#29 = EDGE_CURVE ( 'NONE', #712, #845, #921, .T. ) ;
#30 = DIRECTION ( 'NONE',  ( -0.000000000000000000, -0.000000000000000000, 1.000000000000000000 ) ) ;
#31 = CARTESIAN_POINT ( 'NONE',  ( -9.999999999999991118, 67.49999999999998579, 8.000000000000000000 ) ) ;
#32 = EDGE_LOOP ( 'NONE', ( #226, #910, #52, #16 ) ) ;
#33 = EDGE_LOOP ( 'NONE', ( #537, #821, #254, #158 ) ) ;
#34 = AXIS2_PLACEMENT_3D ( 'NONE', #904, #487, #772 ) ;
#35 = AXIS2_PLACEMENT_3D ( 'NONE', #478, #482, #342 ) ;
#36 = CIRCLE ( 'NONE', #560, 1.600000000000011191 ) ;
#37 = DIRECTION ( 'NONE',  ( 1.000000000000000000, 0.000000000000000000, 0.000000000000000000 ) ) ;
#38 = VERTEX_POINT ( 'NONE', #273 ) ;
#39 = EDGE_LOOP ( 'NONE', ( #401, #530, #159, #81, #579, #379, #935, #738 ) ) ;
#40 = EDGE_CURVE ( 'NONE', #444, #20, #761, .T. ) ;
#41 = CARTESIAN_POINT ( 'NONE',  ( 10.00000000000003730, 57.49999999999997868, 8.000000000000000000 ) ) ;
#42 = CARTESIAN_POINT ( 'NONE',  ( 2.081668171172168513E-14, 62.49999999999998579, 8.000000000000000000 ) ) ;
#43 = VERTEX_POINT ( 'NONE', #567 ) ;
#44 = LINE ( 'NONE', #771, #280 ) ;
#45 = EDGE_LOOP ( 'NONE', ( #85, #204, #826, #102 ) ) ;
#46 = EDGE_CURVE ( 'NONE', #416, #249, #839, .T. ) ;
#47 = ORIENTED_EDGE ( 'NONE', *, *, #677, .F. ) ;
#48 = CIRCLE ( 'NONE', #218, 3.000000000000001776 ) ;
#49 = AXIS2_PLACEMENT_3D ( 'NONE', #668, #15, #267 ) ;
#50 = DIRECTION ( 'NONE',  ( -0.000000000000000000, -0.000000000000000000, -1.000000000000000000 ) ) ;
#51 = DIRECTION ( 'NONE',  ( -0.000000000000000000, -0.000000000000000000, -1.000000000000000000 ) ) ;
#52 = ORIENTED_EDGE ( 'NONE', *, *, #615, .T. ) ;
#53 = ADVANCED_FACE ( 'NONE', ( #483 ), #764, .F. ) ;
#54 = DIRECTION ( 'NONE',  ( -0.000000000000000000, -0.000000000000000000, -1.000000000000000000 ) ) ;
#55 = DIRECTION ( 'NONE',  ( 1.000000000000000000, 0.000000000000000000, 0.000000000000000000 ) ) ;
#56 = ORIENTED_EDGE ( 'NONE', *, *, #600, .T. ) ;
#57 = DIRECTION ( 'NONE',  ( -0.000000000000000000, -0.000000000000000000, -1.000000000000000000 ) ) ;
#58 = CARTESIAN_POINT ( 'NONE',  ( -9.999999999999987566, 27.49999999999998224, 0.000000000000000000 ) ) ;
#59 = CARTESIAN_POINT ( 'NONE',  ( 10.00000000000004086, 27.49999999999998224, 8.000000000000000000 ) ) ;
#60 = EDGE_LOOP ( 'NONE', ( #647, #737, #397, #766 ) ) ;
#61 = DIRECTION ( 'NONE',  ( 0.000000000000000000, 0.000000000000000000, 1.000000000000000000 ) ) ;
#62 = VECTOR ( 'NONE', #881, 1000.000000000000000 ) ;
#63 = CARTESIAN_POINT ( 'NONE',  ( 2.081668171172168829E-14, 42.49999999999998579, 5.000000000000000000 ) ) ;
#64 = DIRECTION ( 'NONE',  ( 1.000000000000000000, -0.000000000000000000, -0.000000000000000000 ) ) ;
#65 = AXIS2_PLACEMENT_3D ( 'NONE', #775, #332, #637 ) ;
#66 = VERTEX_POINT ( 'NONE', #628 ) ;
#67 = FACE_OUTER_BOUND ( 'NONE', #112, .T. ) ;
#68 = ADVANCED_FACE ( 'NONE', ( #908 ), #778, .F. ) ;
#69 = FACE_OUTER_BOUND ( 'NONE', #167, .T. ) ;
#70 = CARTESIAN_POINT ( 'NONE',  ( 32.00000000000000711, 67.49999999999997158, 5.000000000000000000 ) ) ;
#71 = EDGE_LOOP ( 'NONE', ( #425, #24 ) ) ;
#72 = LINE ( 'NONE', #569, #813 ) ;
#73 = CARTESIAN_POINT ( 'NONE',  ( 10.00000000000003908, 47.49999999999997868, 0.000000000000000000 ) ) ;
#74 = DIRECTION ( 'NONE',  ( -0.000000000000000000, -0.000000000000000000, 1.000000000000000000 ) ) ;
#75 = VERTEX_POINT ( 'NONE', #58 ) ;
#76 = EDGE_CURVE ( 'NONE', #652, #484, #572, .T. ) ;
#77 = FACE_OUTER_BOUND ( 'NONE', #33, .T. ) ;
#78 = AXIS2_PLACEMENT_3D ( 'NONE', #690, #808, #453 ) ;
#79 = DIRECTION ( 'NONE',  ( 1.000000000000000000, 0.000000000000000000, 0.000000000000000000 ) ) ;
#80 = VECTOR ( 'NONE', #117, 1000.000000000000000 ) ;
#81 = ORIENTED_EDGE ( 'NONE', *, *, #282, .T. ) ;
#82 = ADVANCED_FACE ( 'NONE', ( #505 ), #513, .F. ) ;
#83 = CARTESIAN_POINT ( 'NONE',  ( 9.367506770274756732E-15, 67.49999999999998579, 8.000000000000000000 ) ) ;
#84 = FACE_OUTER_BOUND ( 'NONE', #393, .T. ) ;
#85 = ORIENTED_EDGE ( 'NONE', *, *, #251, .T. ) ;
#86 = VERTEX_POINT ( 'NONE', #73 ) ;
#87 = EDGE_CURVE ( 'NONE', #340, #712, #293, .T. ) ;
#88 = DIRECTION ( 'NONE',  ( -0.000000000000000000, 0.000000000000000000, -1.000000000000000000 ) ) ;
#89 = DIRECTION ( 'NONE',  ( -1.000000000000000000, 0.000000000000000000, 0.000000000000000000 ) ) ;
#90 = ORIENTED_EDGE ( 'NONE', *, *, #490, .T. ) ;
#91 = DIRECTION ( 'NONE',  ( 1.000000000000000000, 0.000000000000000000, -0.000000000000000000 ) ) ;
#92 = DIRECTION ( 'NONE',  ( -1.000000000000000000, 0.000000000000000000, 0.000000000000000000 ) ) ;
#93 = EDGE_LOOP ( 'NONE', ( #633, #430 ) ) ;
#94 = AXIS2_PLACEMENT_3D ( 'NONE', #799, #224, #857 ) ;
#95 = AXIS2_PLACEMENT_3D ( 'NONE', #680, #319, #895 ) ;
#96 = DIRECTION ( 'NONE',  ( 0.000000000000000000, 0.000000000000000000, 1.000000000000000000 ) ) ;
#97 = DIRECTION ( 'NONE',  ( 1.000000000000000000, 0.000000000000000000, 0.000000000000000000 ) ) ;
#98 = EDGE_CURVE ( 'NONE', #43, #66, #437, .T. ) ;
#99 = ORIENTED_EDGE ( 'NONE', *, *, #150, .F. ) ;
#100 = CARTESIAN_POINT ( 'NONE',  ( 0.000000000000000000, 0.000000000000000000, 0.000000000000000000 ) ) ;
#101 = CARTESIAN_POINT ( 'NONE',  ( 20.00000000000003908, 57.49999999999997868, 8.000000000000000000 ) ) ;
#102 = ORIENTED_EDGE ( 'NONE', *, *, #713, .F. ) ;
#103 = DIRECTION ( 'NONE',  ( 1.000000000000000000, 0.000000000000000000, 0.000000000000000000 ) ) ;
#104 = CARTESIAN_POINT ( 'NONE',  ( 18.00000000000003553, 67.49999999999997158, 5.000000000000000000 ) ) ;
#105 = ORIENTED_EDGE ( 'NONE', *, *, #590, .T. ) ;
#106 = AXIS2_PLACEMENT_3D ( 'NONE', #899, #691, #259 ) ;
#107 = EDGE_CURVE ( 'NONE', #249, #366, #130, .T. ) ;
#108 = AXIS2_PLACEMENT_3D ( 'NONE', #502, #360, #369 ) ;
#109 = CARTESIAN_POINT ( 'NONE',  ( -2.999999999999980904, 62.49999999999998579, 5.000000000000000000 ) ) ;
#110 = DIRECTION ( 'NONE',  ( 0.000000000000000000, 0.000000000000000000, 1.000000000000000000 ) ) ;
#111 = CARTESIAN_POINT ( 'NONE',  ( 20.00000000000003908, 47.49999999999997868, 8.000000000000000000 ) ) ;
#112 = EDGE_LOOP ( 'NONE', ( #292, #753, #708, #926 ) ) ;
#113 = CARTESIAN_POINT ( 'NONE',  ( 10.00000000000004086, 27.49999999999998224, 0.000000000000000000 ) ) ;
#114 = DIRECTION ( 'NONE',  ( 1.156482317317871725E-16, -1.000000000000000000, 0.000000000000000000 ) ) ;
#115 = ORIENTED_EDGE ( 'NONE', *, *, #584, .T. ) ;
#116 = EDGE_LOOP ( 'NONE', ( #182, #939, #325, #758 ) ) ;
#117 = DIRECTION ( 'NONE',  ( -0.000000000000000000, 1.000000000000000000, -0.000000000000000000 ) ) ;
#118 = EDGE_CURVE ( 'NONE', #333, #178, #467, .T. ) ;
#119 = DIRECTION ( 'NONE',  ( 0.000000000000000000, 0.000000000000000000, -1.000000000000000000 ) ) ;
#120 = ORIENTED_EDGE ( 'NONE', *, *, #621, .F. ) ;
#121 = CIRCLE ( 'NONE', #853, 10.00000000000000000 ) ;
#122 = AXIS2_PLACEMENT_3D ( 'NONE', #156, #301, #735 ) ;
#123 = AXIS2_PLACEMENT_3D ( 'NONE', #665, #5, #514 ) ;
#124 = VECTOR ( 'NONE', #50, 1000.000000000000000 ) ;
#125 = FACE_OUTER_BOUND ( 'NONE', #329, .T. ) ;
#126 = CARTESIAN_POINT ( 'NONE',  ( 1.600000000000022737, 62.49999999999998579, 0.000000000000000000 ) ) ;
#127 = EDGE_CURVE ( 'NONE', #455, #499, #133, .T. ) ;
#128 = VERTEX_POINT ( 'NONE', #283 ) ;
#129 = DIRECTION ( 'NONE',  ( 1.000000000000000000, 0.000000000000000000, 0.000000000000000000 ) ) ;
#130 = LINE ( 'NONE', #711, #198 ) ;
#131 = ORIENTED_EDGE ( 'NONE', *, *, #150, .T. ) ;
#132 = DIRECTION ( 'NONE',  ( 6.938893903907228378E-17, -1.000000000000000000, 0.000000000000000000 ) ) ;
#133 = LINE ( 'NONE', #351, #793 ) ;
#134 = SURFACE_SIDE_STYLE ('',( #429 ) ) ;
#135 = ORIENTED_EDGE ( 'NONE', *, *, #40, .T. ) ;
#136 = EDGE_CURVE ( 'NONE', #718, #269, #374, .T. ) ;
#137 = VECTOR ( 'NONE', #385, 1000.000000000000000 ) ;
#138 = LINE ( 'NONE', #222, #687 ) ;
#139 = DIRECTION ( 'NONE',  ( 1.000000000000000000, 0.000000000000000000, 0.000000000000000000 ) ) ;
#140 = CYLINDRICAL_SURFACE ( 'NONE', #123, 10.00000000000000178 ) ;
#141 = VECTOR ( 'NONE', #57, 1000.000000000000000 ) ;
#142 = ORIENTED_EDGE ( 'NONE', *, *, #357, .T. ) ;
#143 = FACE_OUTER_BOUND ( 'NONE', #684, .T. ) ;
#144 = DIRECTION ( 'NONE',  ( 0.000000000000000000, -1.000000000000000000, 0.000000000000000000 ) ) ;
#145 = PLANE ( 'NONE',  #295 ) ;
#146 = ORIENTED_EDGE ( 'NONE', *, *, #251, .F. ) ;
#147 = CYLINDRICAL_SURFACE ( 'NONE', #326, 1.600000000000000755 ) ;
#148 = DIRECTION ( 'NONE',  ( 0.000000000000000000, 0.000000000000000000, 1.000000000000000000 ) ) ;
#149 = CARTESIAN_POINT ( 'NONE',  ( 2.081668171172168513E-14, 62.49999999999998579, 5.000000000000000000 ) ) ;
#150 = EDGE_CURVE ( 'NONE', #484, #652, #404, .T. ) ;
#151 = ORIENTED_EDGE ( 'NONE', *, *, #371, .F. ) ;
#152 = FACE_OUTER_BOUND ( 'NONE', #439, .T. ) ;
#153 = DIRECTION ( 'NONE',  ( 1.000000000000000000, 0.000000000000000000, 0.000000000000000000 ) ) ;
#154 = ORIENTED_EDGE ( 'NONE', *, *, #640, .T. ) ;
#155 = VECTOR ( 'NONE', #936, 1000.000000000000000 ) ;
#156 = CARTESIAN_POINT ( 'NONE',  ( 32.00000000000000711, 67.49999999999997158, 0.000000000000000000 ) ) ;
#157 = CARTESIAN_POINT ( 'NONE',  ( 1.600000000000022737, 62.49999999999998579, 5.000000000000000000 ) ) ;
#158 = ORIENTED_EDGE ( 'NONE', *, *, #609, .T. ) ;
#159 = ORIENTED_EDGE ( 'NONE', *, *, #98, .T. ) ;
#160 = CARTESIAN_POINT ( 'NONE',  ( 10.00000000000003730, 57.49999999999997868, 0.000000000000000000 ) ) ;
#161 = DIRECTION ( 'NONE',  ( -0.000000000000000000, -0.000000000000000000, -1.000000000000000000 ) ) ;
#162 = VERTEX_POINT ( 'NONE', #296 ) ;
#163 = LINE ( 'NONE', #304, #588 ) ;
#164 = ADVANCED_FACE ( 'NONE', ( #69 ), #650, .F. ) ;
#165 = CARTESIAN_POINT ( 'NONE',  ( 33.60000000000000142, 67.49999999999997158, 8.000000000000000000 ) ) ;
#166 = CIRCLE ( 'NONE', #197, 3.000000000000002665 ) ;
#167 = EDGE_LOOP ( 'NONE', ( #285, #238, #334, #154 ) ) ;
#168 = VECTOR ( 'NONE', #523, 1000.000000000000000 ) ;
#169 = CIRCLE ( 'NONE', #108, 3.000000000000002665 ) ;
#170 = DIRECTION ( 'NONE',  ( -0.000000000000000000, -0.000000000000000000, -1.000000000000000000 ) ) ;
#171 = APPLICATION_CONTEXT ( 'automotive_design' ) ;
#172 = CARTESIAN_POINT ( 'NONE',  ( -1.599999999999977662, 42.49999999999998579, 0.000000000000000000 ) ) ;
#173 = ORIENTED_EDGE ( 'NONE', *, *, #485, .T. ) ;
#174 = LINE ( 'NONE', #335, #571 ) ;
#175 = DIRECTION ( 'NONE',  ( -0.000000000000000000, -0.000000000000000000, 1.000000000000000000 ) ) ;
#176 = DIRECTION ( 'NONE',  ( -1.000000000000000000, 0.000000000000000000, 0.000000000000000000 ) ) ;
#177 = EDGE_CURVE ( 'NONE', #435, #833, #934, .T. ) ;
#178 = VERTEX_POINT ( 'NONE', #642 ) ;
#179 = LINE ( 'NONE', #838, #777 ) ;
#180 = ORIENTED_EDGE ( 'NONE', *, *, #893, .T. ) ;
#181 = VECTOR ( 'NONE', #873, 1000.000000000000000 ) ;
#182 = ORIENTED_EDGE ( 'NONE', *, *, #803, .F. ) ;
#183 = AXIS2_PLACEMENT_3D ( 'NONE', #445, #641, #786 ) ;
#184 = CARTESIAN_POINT ( 'NONE',  ( 40.00000000000000711, 77.49999999999998579, 0.000000000000000000 ) ) ;
#185 = CARTESIAN_POINT ( 'NONE',  ( 20.00000000000003908, 47.49999999999997868, 0.000000000000000000 ) ) ;
#186 = VERTEX_POINT ( 'NONE', #570 ) ;
#187 = DIRECTION ( 'NONE',  ( 1.000000000000000000, -0.000000000000000000, -0.000000000000000000 ) ) ;
#188 = ADVANCED_FACE ( 'NONE', ( #363 ), #861, .F. ) ;
#189 = CYLINDRICAL_SURFACE ( 'NONE', #543, 10.00000000000000000 ) ;
#190 = DIRECTION ( 'NONE',  ( 0.000000000000000000, 0.000000000000000000, 1.000000000000000000 ) ) ;
#191 = ORIENTED_EDGE ( 'NONE', *, *, #600, .F. ) ;
#192 = APPLICATION_PROTOCOL_DEFINITION ( 'draft international standard', 'automotive_design', 1998, #171 ) ;
#193 = EDGE_CURVE ( 'NONE', #806, #38, #702, .T. ) ;
#194 = CARTESIAN_POINT ( 'NONE',  ( 3.000000000000022649, 62.49999999999998579, 5.000000000000000000 ) ) ;
#195 = ORIENTED_EDGE ( 'NONE', *, *, #380, .T. ) ;
#196 = ORIENTED_EDGE ( 'NONE', *, *, #713, .T. ) ;
#197 = AXIS2_PLACEMENT_3D ( 'NONE', #745, #318, #10 ) ;
#198 = VECTOR ( 'NONE', #347, 1000.000000000000000 ) ;
#199 = AXIS2_PLACEMENT_3D ( 'NONE', #302, #383, #888 ) ;
#200 = AXIS2_PLACEMENT_3D ( 'NONE', #358, #657, #129 ) ;
#201 = LINE ( 'NONE', #211, #886 ) ;
#202 = EDGE_CURVE ( 'NONE', #573, #820, #48, .T. ) ;
#203 = PLANE ( 'NONE',  #744 ) ;
#204 = ORIENTED_EDGE ( 'NONE', *, *, #855, .T. ) ;
#205 = CARTESIAN_POINT ( 'NONE',  ( 35.00000000000000711, 67.49999999999997158, 5.000000000000000000 ) ) ;
#206 = CARTESIAN_POINT ( 'NONE',  ( 2.081668171172168829E-14, 42.49999999999998579, 8.000000000000000000 ) ) ;
#207 = CARTESIAN_POINT ( 'NONE',  ( 15.00000000000003375, 67.49999999999997158, 5.000000000000000000 ) ) ;
#208 = ORIENTED_EDGE ( 'NONE', *, *, #118, .T. ) ;
#209 = ADVANCED_FACE ( 'NONE', ( #593, #864 ), #203, .T. ) ;
#210 = APPLICATION_CONTEXT ( 'automotive_design' ) ;
#211 = CARTESIAN_POINT ( 'NONE',  ( -1.599999999999981215, 62.49999999999998579, 8.000000000000000000 ) ) ;
#212 = CARTESIAN_POINT ( 'NONE',  ( 10.00000000000003730, 57.49999999999997868, 8.000000000000000000 ) ) ;
#213 = CYLINDRICAL_SURFACE ( 'NONE', #309, 3.000000000000002665 ) ;
#214 = EDGE_LOOP ( 'NONE', ( #146, #12 ) ) ;
#215 =( GEOMETRIC_REPRESENTATION_CONTEXT ( 3 ) GLOBAL_UNCERTAINTY_ASSIGNED_CONTEXT ( ( #869 ) ) GLOBAL_UNIT_ASSIGNED_CONTEXT ( ( #630, #250, #841 ) ) REPRESENTATION_CONTEXT ( 'NONE', 'WORKASPACE' ) );
#216 = ADVANCED_FACE ( 'NONE', ( #804 ), #834, .F. ) ;
#217 = DIRECTION ( 'NONE',  ( 0.000000000000000000, 0.000000000000000000, 1.000000000000000000 ) ) ;
#218 = AXIS2_PLACEMENT_3D ( 'NONE', #287, #581, #55 ) ;
#219 = DIRECTION ( 'NONE',  ( 0.000000000000000000, -0.000000000000000000, 1.000000000000000000 ) ) ;
#220 = CARTESIAN_POINT ( 'NONE',  ( 10.00000000000003908, 47.49999999999997868, 8.000000000000000000 ) ) ;
#221 = ORIENTED_EDGE ( 'NONE', *, *, #321, .T. ) ;
#222 = CARTESIAN_POINT ( 'NONE',  ( -9.999999999999991118, 77.49999999999998579, 0.000000000000000000 ) ) ;
#223 = EDGE_CURVE ( 'NONE', #424, #337, #827, .T. ) ;
#224 = DIRECTION ( 'NONE',  ( -0.000000000000000000, -0.000000000000000000, 1.000000000000000000 ) ) ;
#225 = PRESENTATION_STYLE_ASSIGNMENT (( #352 ) ) ;
#226 = ORIENTED_EDGE ( 'NONE', *, *, #316, .F. ) ;
#227 = DIRECTION ( 'NONE',  ( 0.000000000000000000, 0.000000000000000000, 1.000000000000000000 ) ) ;
#228 = LINE ( 'NONE', #454, #168 ) ;
#229 = ORIENTED_EDGE ( 'NONE', *, *, #87, .T. ) ;
#230 = DIRECTION ( 'NONE',  ( 0.000000000000000000, 0.000000000000000000, 1.000000000000000000 ) ) ;
#231 = DIRECTION ( 'NONE',  ( 0.000000000000000000, 0.000000000000000000, 1.000000000000000000 ) ) ;
#232 = VECTOR ( 'NONE', #74, 1000.000000000000000 ) ;
#233 = ORIENTED_EDGE ( 'NONE', *, *, #485, .F. ) ;
#234 = AXIS2_PLACEMENT_3D ( 'NONE', #41, #486, #114 ) ;
#235 = ORIENTED_EDGE ( 'NONE', *, *, #18, .F. ) ;
#236 = CARTESIAN_POINT ( 'NONE',  ( 16.40000000000002700, 67.49999999999997158, 0.000000000000000000 ) ) ;
#237 = CARTESIAN_POINT ( 'NONE',  ( 8.673617379884035472E-15, 77.49999999999998579, 8.000000000000000000 ) ) ;
#238 = ORIENTED_EDGE ( 'NONE', *, *, #692, .T. ) ;
#239 = ADVANCED_FACE ( 'NONE', ( #875 ), #140, .F. ) ;
#240 = DIRECTION ( 'NONE',  ( 0.000000000000000000, 0.000000000000000000, 1.000000000000000000 ) ) ;
#241 = DIRECTION ( 'NONE',  ( -0.000000000000000000, -0.000000000000000000, 1.000000000000000000 ) ) ;
#242 = EDGE_LOOP ( 'NONE', ( #208, #303 ) ) ;
#243 = FACE_BOUND ( 'NONE', #780, .T. ) ;
#244 = EDGE_CURVE ( 'NONE', #712, #340, #542, .T. ) ;
#245 = CARTESIAN_POINT ( 'NONE',  ( 3.000000000000022649, 42.49999999999998579, 5.000000000000000000 ) ) ;
#246 = CIRCLE ( 'NONE', #372, 3.000000000000001776 ) ;
#247 = ORIENTED_EDGE ( 'NONE', *, *, #386, .F. ) ;
#248 = AXIS2_PLACEMENT_3D ( 'NONE', #364, #792, #79 ) ;
#249 = VERTEX_POINT ( 'NONE', #443 ) ;
#250 =( NAMED_UNIT ( * ) PLANE_ANGLE_UNIT ( ) SI_UNIT ( $, .RADIAN. ) );
#251 = EDGE_CURVE ( 'NONE', #892, #330, #913, .T. ) ;
#252 = CARTESIAN_POINT ( 'NONE',  ( 40.00000000000000711, 77.49999999999998579, 0.000000000000000000 ) ) ;
#253 = ORIENTED_EDGE ( 'NONE', *, *, #223, .T. ) ;
#254 = ORIENTED_EDGE ( 'NONE', *, *, #621, .T. ) ;
#255 = CARTESIAN_POINT ( 'NONE',  ( 29.00000000000000355, 67.49999999999997158, 8.000000000000000000 ) ) ;
#256 = ADVANCED_FACE ( 'NONE', ( #800, #582 ), #145, .T. ) ;
#257 = ORIENTED_EDGE ( 'NONE', *, *, #338, .F. ) ;
#258 = VERTEX_POINT ( 'NONE', #11 ) ;
#259 = DIRECTION ( 'NONE',  ( -1.000000000000000000, 0.000000000000000000, 0.000000000000000000 ) ) ;
#260 = CARTESIAN_POINT ( 'NONE',  ( -9.999999999999987566, 27.49999999999998224, 8.000000000000000000 ) ) ;
#261 = DIRECTION ( 'NONE',  ( -1.000000000000000000, 0.000000000000000000, 0.000000000000000000 ) ) ;
#262 = AXIS2_PLACEMENT_3D ( 'NONE', #814, #240, #91 ) ;
#263 = VERTEX_POINT ( 'NONE', #220 ) ;
#264 = AXIS2_PLACEMENT_3D ( 'NONE', #925, #787, #442 ) ;
#265 = AXIS2_PLACEMENT_3D ( 'NONE', #612, #825, #97 ) ;
#266 = CIRCLE ( 'NONE', #65, 3.000000000000002665 ) ;
#267 = DIRECTION ( 'NONE',  ( 1.000000000000000000, 0.000000000000000000, 0.000000000000000000 ) ) ;
#268 = ORIENTED_EDGE ( 'NONE', *, *, #29, .F. ) ;
#269 = VERTEX_POINT ( 'NONE', #207 ) ;
#270 = ADVANCED_FACE ( 'NONE', ( #655 ), #213, .F. ) ;
#271 = DIRECTION ( 'NONE',  ( -0.000000000000000000, -0.000000000000000000, -1.000000000000000000 ) ) ;
#272 = DIRECTION ( 'NONE',  ( -0.000000000000000000, -0.000000000000000000, -1.000000000000000000 ) ) ;
#273 = CARTESIAN_POINT ( 'NONE',  ( -2.999999999999980904, 42.49999999999998579, 8.000000000000000000 ) ) ;
#274 = EDGE_LOOP ( 'NONE', ( #816, #180, #730, #488 ) ) ;
#275 = PRODUCT_RELATED_PRODUCT_CATEGORY ( 'part', '', ( #521 ) ) ;
#276 = CARTESIAN_POINT ( 'NONE',  ( 16.40000000000002700, 67.49999999999997158, 5.000000000000000000 ) ) ;
#277 = DIRECTION ( 'NONE',  ( 0.000000000000000000, -0.000000000000000000, -1.000000000000000000 ) ) ;
#278 = ORIENTED_EDGE ( 'NONE', *, *, #893, .F. ) ;
#279 = AXIS2_PLACEMENT_3D ( 'NONE', #63, #359, #658 ) ;
#280 = VECTOR ( 'NONE', #272, 1000.000000000000000 ) ;
#281 = CARTESIAN_POINT ( 'NONE',  ( 1.600000000000019407, 42.49999999999998579, 8.000000000000000000 ) ) ;
#282 = EDGE_CURVE ( 'NONE', #66, #879, #865, .T. ) ;
#283 = CARTESIAN_POINT ( 'NONE',  ( 21.00000000000003908, 67.49999999999997158, 8.000000000000000000 ) ) ;
#284 = DIRECTION ( 'NONE',  ( -0.000000000000000000, -0.000000000000000000, 1.000000000000000000 ) ) ;
#285 = ORIENTED_EDGE ( 'NONE', *, *, #127, .T. ) ;
#286 = CARTESIAN_POINT ( 'NONE',  ( 8.673617379884035472E-15, 77.49999999999998579, 8.000000000000000000 ) ) ;
#287 = CARTESIAN_POINT ( 'NONE',  ( 2.081668171172168513E-14, 62.49999999999998579, 8.000000000000000000 ) ) ;
#288 = ORIENTED_EDGE ( 'NONE', *, *, #524, .T. ) ;
#289 = CARTESIAN_POINT ( 'NONE',  ( 18.00000000000003553, 67.49999999999997158, 8.000000000000000000 ) ) ;
#290 = DIRECTION ( 'NONE',  ( 1.000000000000000000, 0.000000000000000000, 0.000000000000000000 ) ) ;
#291 = FILL_AREA_STYLE_COLOUR ( '', #856 ) ;
#292 = ORIENTED_EDGE ( 'NONE', *, *, #338, .T. ) ;
#293 = CIRCLE ( 'NONE', #811, 1.600000000000011191 ) ;
#294 = DIRECTION ( 'NONE',  ( 1.000000000000000000, 0.000000000000000000, 0.000000000000000000 ) ) ;
#295 = AXIS2_PLACEMENT_3D ( 'NONE', #70, #519, #938 ) ;
#296 = CARTESIAN_POINT ( 'NONE',  ( 29.00000000000000355, 67.49999999999997158, 5.000000000000000000 ) ) ;
#297 = CARTESIAN_POINT ( 'NONE',  ( 29.00000000000000355, 67.49999999999997158, 5.000000000000000000 ) ) ;
#298 = ORIENTED_EDGE ( 'NONE', *, *, #1, .F. ) ;
#299 = FACE_BOUND ( 'NONE', #503, .T. ) ;
#300 = ORIENTED_EDGE ( 'NONE', *, *, #597, .F. ) ;
#301 = DIRECTION ( 'NONE',  ( 0.000000000000000000, 0.000000000000000000, 1.000000000000000000 ) ) ;
#302 = CARTESIAN_POINT ( 'NONE',  ( 40.00000000000000711, 77.49999999999998579, 8.000000000000000000 ) ) ;
#303 = ORIENTED_EDGE ( 'NONE', *, *, #371, .T. ) ;
#304 = CARTESIAN_POINT ( 'NONE',  ( -9.999999999999991118, 77.49999999999998579, 8.000000000000000000 ) ) ;
#305 = VECTOR ( 'NONE', #30, 1000.000000000000000 ) ;
#306 = VECTOR ( 'NONE', #344, 1000.000000000000000 ) ;
#307 = FACE_OUTER_BOUND ( 'NONE', #39, .T. ) ;
#308 = EDGE_CURVE ( 'NONE', #162, #460, #594, .T. ) ;
#309 = AXIS2_PLACEMENT_3D ( 'NONE', #805, #284, #729 ) ;
#310 = ORIENTED_EDGE ( 'NONE', *, *, #14, .F. ) ;
#311 = AXIS2_PLACEMENT_3D ( 'NONE', #720, #61, #2 ) ;
#312 = ORIENTED_EDGE ( 'NONE', *, *, #107, .T. ) ;
#313 = DIRECTION ( 'NONE',  ( -1.156482317317871478E-16, 1.000000000000000000, -0.000000000000000000 ) ) ;
#314 = CARTESIAN_POINT ( 'NONE',  ( 32.00000000000000711, 67.49999999999997158, 5.000000000000000000 ) ) ;
#315 = EDGE_LOOP ( 'NONE', ( #666, #253 ) ) ;
#316 = EDGE_CURVE ( 'NONE', #162, #605, #169, .T. ) ;
#317 = MANIFOLD_SOLID_BREP ( '\X2\570689d2\X0\1', #538 ) ;
#318 = DIRECTION ( 'NONE',  ( 0.000000000000000000, 0.000000000000000000, 1.000000000000000000 ) ) ;
#319 = DIRECTION ( 'NONE',  ( 0.000000000000000000, 0.000000000000000000, 1.000000000000000000 ) ) ;
#320 = EDGE_LOOP ( 'NONE', ( #348, #750 ) ) ;
#321 = EDGE_CURVE ( 'NONE', #435, #366, #646, .T. ) ;
#322 = LINE ( 'NONE', #109, #305 ) ;
#323 = CARTESIAN_POINT ( 'NONE',  ( 40.00000000000000711, 57.49999999999997868, 0.000000000000000000 ) ) ;
#324 = ORIENTED_EDGE ( 'NONE', *, *, #855, .F. ) ;
#325 = ORIENTED_EDGE ( 'NONE', *, *, #327, .T. ) ;
#326 = AXIS2_PLACEMENT_3D ( 'NONE', #496, #924, #516 ) ;
#327 = EDGE_CURVE ( 'NONE', #333, #806, #716, .T. ) ;
#328 = DIRECTION ( 'NONE',  ( 0.000000000000000000, 0.000000000000000000, 1.000000000000000000 ) ) ;
#329 = EDGE_LOOP ( 'NONE', ( #917, #768, #727, #601 ) ) ;
#330 = VERTEX_POINT ( 'NONE', #157 ) ;
#331 = CARTESIAN_POINT ( 'NONE',  ( 35.00000000000000711, 67.49999999999997158, 8.000000000000000000 ) ) ;
#332 = DIRECTION ( 'NONE',  ( 0.000000000000000000, 0.000000000000000000, 1.000000000000000000 ) ) ;
#333 = VERTEX_POINT ( 'NONE', #245 ) ;
#334 = ORIENTED_EDGE ( 'NONE', *, *, #824, .F. ) ;
#335 = CARTESIAN_POINT ( 'NONE',  ( 30.40000000000000568, 67.49999999999997158, 8.000000000000000000 ) ) ;
#336 = LINE ( 'NONE', #631, #451 ) ;
#337 = VERTEX_POINT ( 'NONE', #172 ) ;
#338 = EDGE_CURVE ( 'NONE', #447, #660, #828, .T. ) ;
#339 = PRODUCT_DEFINITION_FORMATION_WITH_SPECIFIED_SOURCE ( 'ä»', '', #521, .NOT_KNOWN. ) ;
#340 = VERTEX_POINT ( 'NONE', #532 ) ;
#341 = FACE_OUTER_BOUND ( 'NONE', #60, .T. ) ;
#342 = DIRECTION ( 'NONE',  ( 1.000000000000000000, 0.000000000000000000, 0.000000000000000000 ) ) ;
#343 = ADVANCED_BREP_SHAPE_REPRESENTATION ( 'L\X2\578b8fde63a5\X0\_\X2\5de6\X0\', ( #317, #743 ), #215 ) ;
#344 = DIRECTION ( 'NONE',  ( -0.000000000000000000, -0.000000000000000000, -1.000000000000000000 ) ) ;
#345 = EDGE_LOOP ( 'NONE', ( #476, #7, #520, #268 ) ) ;
#346 = DIRECTION ( 'NONE',  ( -6.938893903907228378E-17, 1.000000000000000000, 0.000000000000000000 ) ) ;
#347 = DIRECTION ( 'NONE',  ( 1.000000000000000000, 0.000000000000000000, 0.000000000000000000 ) ) ;
#348 = ORIENTED_EDGE ( 'NONE', *, *, #740, .F. ) ;
#349 = ADVANCED_FACE ( 'NONE', ( #27, #819, #736, #536, #307 ), #544, .F. ) ;
#350 = CARTESIAN_POINT ( 'NONE',  ( 2.081668171172168829E-14, 42.49999999999998579, 8.000000000000000000 ) ) ;
#351 = CARTESIAN_POINT ( 'NONE',  ( -9.999999999999991118, 77.49999999999998579, 0.000000000000000000 ) ) ;
#352 = SURFACE_STYLE_USAGE ( .BOTH. , #134 ) ;
#353 = ORIENTED_EDGE ( 'NONE', *, *, #76, .F. ) ;
#354 = CIRCLE ( 'NONE', #200, 1.599999999999997202 ) ;
#355 = CIRCLE ( 'NONE', #122, 1.599999999999997202 ) ;
#356 = VECTOR ( 'NONE', #64, 1000.000000000000000 ) ;
#357 = EDGE_CURVE ( 'NONE', #587, #128, #494, .T. ) ;
#358 = CARTESIAN_POINT ( 'NONE',  ( 32.00000000000000711, 67.49999999999997158, 5.000000000000000000 ) ) ;
#359 = DIRECTION ( 'NONE',  ( 0.000000000000000000, 0.000000000000000000, 1.000000000000000000 ) ) ;
#360 = DIRECTION ( 'NONE',  ( 0.000000000000000000, 0.000000000000000000, 1.000000000000000000 ) ) ;
#361 = VERTEX_POINT ( 'NONE', #387 ) ;
#362 = CYLINDRICAL_SURFACE ( 'NONE', #183, 3.000000000000002665 ) ;
#363 = FACE_OUTER_BOUND ( 'NONE', #274, .T. ) ;
#364 = CARTESIAN_POINT ( 'NONE',  ( 18.00000000000003553, 67.49999999999997158, 5.000000000000000000 ) ) ;
#365 = ADVANCED_FACE ( 'NONE', ( #815 ), #459, .F. ) ;
#366 = VERTEX_POINT ( 'NONE', #323 ) ;
#367 = FACE_OUTER_BOUND ( 'NONE', #638, .T. ) ;
#368 = CARTESIAN_POINT ( 'NONE',  ( -9.999999999999991118, 77.49999999999998579, 8.000000000000000000 ) ) ;
#369 = DIRECTION ( 'NONE',  ( 1.000000000000000000, 0.000000000000000000, 0.000000000000000000 ) ) ;
#370 = ORIENTED_EDGE ( 'NONE', *, *, #136, .T. ) ;
#371 = EDGE_CURVE ( 'NONE', #178, #333, #795, .T. ) ;
#372 = AXIS2_PLACEMENT_3D ( 'NONE', #491, #190, #552 ) ;
#373 = AXIS2_PLACEMENT_3D ( 'NONE', #732, #230, #22 ) ;
#374 = CIRCLE ( 'NONE', #912, 3.000000000000002665 ) ;
#375 = DIRECTION ( 'NONE',  ( -1.000000000000000000, 0.000000000000000000, 0.000000000000000000 ) ) ;
#376 = AXIS2_PLACEMENT_3D ( 'NONE', #561, #556, #37 ) ;
#377 = CIRCLE ( 'NONE', #373, 1.599999999999997202 ) ;
#378 =( NAMED_UNIT ( * ) PLANE_ANGLE_UNIT ( ) SI_UNIT ( $, .RADIAN. ) );
#379 = ORIENTED_EDGE ( 'NONE', *, *, #18, .T. ) ;
#380 = EDGE_CURVE ( 'NONE', #605, #915, #891, .T. ) ;
#381 = DIRECTION ( 'NONE',  ( -0.000000000000000000, -0.000000000000000000, 1.000000000000000000 ) ) ;
#382 = CARTESIAN_POINT ( 'NONE',  ( 2.081668171172168829E-14, 42.49999999999998579, 0.000000000000000000 ) ) ;
#383 = DIRECTION ( 'NONE',  ( -1.000000000000000000, 0.000000000000000000, 0.000000000000000000 ) ) ;
#384 = VERTEX_POINT ( 'NONE', #237 ) ;
#385 = DIRECTION ( 'NONE',  ( -0.000000000000000000, -0.000000000000000000, 1.000000000000000000 ) ) ;
#386 = EDGE_CURVE ( 'NONE', #660, #769, #741, .T. ) ;
#387 = CARTESIAN_POINT ( 'NONE',  ( 30.40000000000000568, 67.49999999999997158, 0.000000000000000000 ) ) ;
#388 = EDGE_LOOP ( 'NONE', ( #257, #191 ) ) ;
#389 = CARTESIAN_POINT ( 'NONE',  ( 1.600000000000022737, 62.49999999999998579, 8.000000000000000000 ) ) ;
#390 = AXIS2_PLACEMENT_3D ( 'NONE', #755, #555, #564 ) ;
#391 = ADVANCED_FACE ( 'NONE', ( #84 ), #462, .F. ) ;
#392 = FACE_OUTER_BOUND ( 'NONE', #699, .T. ) ;
#393 = EDGE_LOOP ( 'NONE', ( #131, #840, #709, #784 ) ) ;
#394 = AXIS2_PLACEMENT_3D ( 'NONE', #710, #863, #504 ) ;
#395 = DIRECTION ( 'NONE',  ( -0.000000000000000000, -0.000000000000000000, -1.000000000000000000 ) ) ;
#396 = CARTESIAN_POINT ( 'NONE',  ( 2.081668171172168829E-14, 42.49999999999998579, 5.000000000000000000 ) ) ;
#397 = ORIENTED_EDGE ( 'NONE', *, *, #282, .F. ) ;
#398 = ADVANCED_FACE ( 'NONE', ( #23, #392 ), #748, .T. ) ;
#399 = DIRECTION ( 'NONE',  ( 0.000000000000000000, 0.000000000000000000, 1.000000000000000000 ) ) ;
#400 = CARTESIAN_POINT ( 'NONE',  ( 1.600000000000019407, 42.49999999999998579, 0.000000000000000000 ) ) ;
#401 = ORIENTED_EDGE ( 'NONE', *, *, #824, .T. ) ;
#402 = SHAPE_DEFINITION_REPRESENTATION ( #698, #343 ) ;
#403 = FACE_OUTER_BOUND ( 'NONE', #116, .T. ) ;
#404 = CIRCLE ( 'NONE', #929, 1.599999999999998535 ) ;
#405 = DIRECTION ( 'NONE',  ( 1.000000000000000000, 0.000000000000000000, 0.000000000000000000 ) ) ;
#406 = AXIS2_PLACEMENT_3D ( 'NONE', #607, #468, #92 ) ;
#407 = ORIENTED_EDGE ( 'NONE', *, *, #923, .T. ) ;
#408 = AXIS2_PLACEMENT_3D ( 'NONE', #289, #802, #728 ) ;
#409 = DIRECTION ( 'NONE',  ( -0.000000000000000000, -0.000000000000000000, 1.000000000000000000 ) ) ;
#410 = DIRECTION ( 'NONE',  ( 1.000000000000000000, 6.938893903907228378E-17, -0.000000000000000000 ) ) ;
#411 = LINE ( 'NONE', #688, #21 ) ;
#412 = ORIENTED_EDGE ( 'NONE', *, *, #193, .F. ) ;
#413 = EDGE_CURVE ( 'NONE', #845, #258, #898, .T. ) ;
#414 = CARTESIAN_POINT ( 'NONE',  ( 18.00000000000003553, 67.49999999999997158, 0.000000000000000000 ) ) ;
#415 = ORIENTED_EDGE ( 'NONE', *, *, #785, .F. ) ;
#416 = VERTEX_POINT ( 'NONE', #101 ) ;
#417 = DIRECTION ( 'NONE',  ( 1.000000000000000000, 0.000000000000000000, 0.000000000000000000 ) ) ;
#418 = CARTESIAN_POINT ( 'NONE',  ( -1.599999999999981215, 62.49999999999998579, 0.000000000000000000 ) ) ;
#419 = DIRECTION ( 'NONE',  ( -0.000000000000000000, -0.000000000000000000, -1.000000000000000000 ) ) ;
#420 = ORIENTED_EDGE ( 'NONE', *, *, #431, .F. ) ;
#421 = VECTOR ( 'NONE', #161, 1000.000000000000000 ) ;
#422 = CIRCLE ( 'NONE', #545, 1.600000000000002087 ) ;
#423 = PLANE ( 'NONE',  #604 ) ;
#424 = VERTEX_POINT ( 'NONE', #400 ) ;
#425 = ORIENTED_EDGE ( 'NONE', *, *, #244, .F. ) ;
#426 = EDGE_CURVE ( 'NONE', #43, #624, #682, .T. ) ;
#427 = CARTESIAN_POINT ( 'NONE',  ( 40.00000000000000711, 77.49999999999998579, 8.000000000000000000 ) ) ;
#428 = DIRECTION ( 'NONE',  ( 0.000000000000000000, 1.000000000000000000, 0.000000000000000000 ) ) ;
#429 = SURFACE_STYLE_FILL_AREA ( #651 ) ;
#430 = ORIENTED_EDGE ( 'NONE', *, *, #615, .F. ) ;
#431 = EDGE_CURVE ( 'NONE', #340, #258, #228, .T. ) ;
#432 = CARTESIAN_POINT ( 'NONE',  ( 10.00000000000003908, 47.49999999999997868, 8.000000000000000000 ) ) ;
#433 = DIRECTION ( 'NONE',  ( 0.000000000000000000, 0.000000000000000000, 1.000000000000000000 ) ) ;
#434 = DIRECTION ( 'NONE',  ( -0.000000000000000000, -0.000000000000000000, -1.000000000000000000 ) ) ;
#435 = VERTEX_POINT ( 'NONE', #809 ) ;
#436 = CARTESIAN_POINT ( 'NONE',  ( 21.00000000000003908, 67.49999999999997158, 5.000000000000000000 ) ) ;
#437 = LINE ( 'NONE', #645, #449 ) ;
#438 = DIRECTION ( 'NONE',  ( 1.000000000000000000, 0.000000000000000000, 0.000000000000000000 ) ) ;
#439 = EDGE_LOOP ( 'NONE', ( #151, #550, #480, #473 ) ) ;
#440 = CYLINDRICAL_SURFACE ( 'NONE', #495, 1.599999999999998535 ) ;
#441 = EDGE_CURVE ( 'NONE', #337, #424, #871, .T. ) ;
#442 = DIRECTION ( 'NONE',  ( -1.000000000000000000, 0.000000000000000000, 0.000000000000000000 ) ) ;
#443 = CARTESIAN_POINT ( 'NONE',  ( 20.00000000000003908, 57.49999999999997868, 0.000000000000000000 ) ) ;
#444 = VERTEX_POINT ( 'NONE', #418 ) ;
#445 = CARTESIAN_POINT ( 'NONE',  ( 18.00000000000003553, 67.49999999999997158, 5.000000000000000000 ) ) ;
#446 = CARTESIAN_POINT ( 'NONE',  ( 18.00000000000003553, 67.49999999999997158, 5.000000000000000000 ) ) ;
#447 = VERTEX_POINT ( 'NONE', #920 ) ;
#448 = CIRCLE ( 'NONE', #717, 10.00000000000000000 ) ;
#449 = VECTOR ( 'NONE', #497, 1000.000000000000000 ) ;
#450 = CARTESIAN_POINT ( 'NONE',  ( 3.000000000000022649, 42.49999999999998579, 8.000000000000000000 ) ) ;
#451 = VECTOR ( 'NONE', #54, 1000.000000000000000 ) ;
#452 = AXIS2_PLACEMENT_3D ( 'NONE', #686, #110, #551 ) ;
#453 = DIRECTION ( 'NONE',  ( 1.000000000000000000, 0.000000000000000000, 0.000000000000000000 ) ) ;
#454 = CARTESIAN_POINT ( 'NONE',  ( 19.60000000000004761, 67.49999999999997158, 8.000000000000000000 ) ) ;
#455 = VERTEX_POINT ( 'NONE', #252 ) ;
#456 = ORIENTED_EDGE ( 'NONE', *, *, #524, .F. ) ;
#457 = ADVANCED_FACE ( 'NONE', ( #701 ), #189, .T. ) ;
#458 = FACE_BOUND ( 'NONE', #315, .T. ) ;
#459 = PLANE ( 'NONE',  #199 ) ;
#460 = VERTEX_POINT ( 'NONE', #255 ) ;
#461 = CYLINDRICAL_SURFACE ( 'NONE', #830, 1.600000000000011191 ) ;
#462 = CYLINDRICAL_SURFACE ( 'NONE', #406, 1.599999999999998535 ) ;
#463 = ORIENTED_EDGE ( 'NONE', *, *, #635, .T. ) ;
#464 = LINE ( 'NONE', #823, #614 ) ;
#465 = AXIS2_PLACEMENT_3D ( 'NONE', #596, #88, #877 ) ;
#466 = EDGE_CURVE ( 'NONE', #66, #75, #622, .T. ) ;
#467 = CIRCLE ( 'NONE', #4, 3.000000000000001776 ) ;
#468 = DIRECTION ( 'NONE',  ( -0.000000000000000000, -0.000000000000000000, -1.000000000000000000 ) ) ;
#469 = ORIENTED_EDGE ( 'NONE', *, *, #798, .F. ) ;
#470 = PLANE ( 'NONE',  #465 ) ;
#471 = CARTESIAN_POINT ( 'NONE',  ( 18.00000000000003553, 67.49999999999997158, 0.000000000000000000 ) ) ;
#472 = ADVANCED_FACE ( 'NONE', ( #403 ), #693, .F. ) ;
#473 = ORIENTED_EDGE ( 'NONE', *, *, #327, .F. ) ;
#474 = CARTESIAN_POINT ( 'NONE',  ( 15.00000000000003375, 67.49999999999997158, 8.000000000000000000 ) ) ;
#475 = FACE_OUTER_BOUND ( 'NONE', #506, .T. ) ;
#476 = ORIENTED_EDGE ( 'NONE', *, *, #244, .T. ) ;
#477 = CYLINDRICAL_SURFACE ( 'NONE', #507, 3.000000000000001776 ) ;
#478 = CARTESIAN_POINT ( 'NONE',  ( 32.00000000000000711, 67.49999999999997158, 5.000000000000000000 ) ) ;
#479 = CARTESIAN_POINT ( 'NONE',  ( 20.00000000000003908, 57.49999999999997868, 0.000000000000000000 ) ) ;
#480 = ORIENTED_EDGE ( 'NONE', *, *, #540, .T. ) ;
#481 = EDGE_CURVE ( 'NONE', #416, #435, #179, .T. ) ;
#482 = DIRECTION ( 'NONE',  ( 0.000000000000000000, 0.000000000000000000, 1.000000000000000000 ) ) ;
#483 = FACE_OUTER_BOUND ( 'NONE', #45, .T. ) ;
#484 = VERTEX_POINT ( 'NONE', #914 ) ;
#485 = EDGE_CURVE ( 'NONE', #366, #455, #549, .T. ) ;
#486 = DIRECTION ( 'NONE',  ( -1.000000000000000000, -1.156482317317871725E-16, 0.000000000000000000 ) ) ;
#487 = DIRECTION ( 'NONE',  ( 0.000000000000000000, 0.000000000000000000, 1.000000000000000000 ) ) ;
#488 = ORIENTED_EDGE ( 'NONE', *, *, #584, .F. ) ;
#489 = CARTESIAN_POINT ( 'NONE',  ( 9.367506770274756732E-15, 67.49999999999998579, 8.000000000000000000 ) ) ;
#490 = EDGE_CURVE ( 'NONE', #605, #162, #731, .T. ) ;
#491 = CARTESIAN_POINT ( 'NONE',  ( 2.081668171172168513E-14, 62.49999999999998579, 5.000000000000000000 ) ) ;
#492 = AXIS2_PLACEMENT_3D ( 'NONE', #368, #144, #277 ) ;
#493 = ORIENTED_EDGE ( 'NONE', *, *, #321, .F. ) ;
#494 = CIRCLE ( 'NONE', #265, 3.000000000000002665 ) ;
#495 = AXIS2_PLACEMENT_3D ( 'NONE', #350, #724, #644 ) ;
#496 = CARTESIAN_POINT ( 'NONE',  ( 32.00000000000000711, 67.49999999999997158, 8.000000000000000000 ) ) ;
#497 = DIRECTION ( 'NONE',  ( 6.938893903907228378E-17, -1.000000000000000000, 0.000000000000000000 ) ) ;
#498 = DIRECTION ( 'NONE',  ( 0.000000000000000000, 0.000000000000000000, 1.000000000000000000 ) ) ;
#499 = VERTEX_POINT ( 'NONE', #626 ) ;
#500 = CARTESIAN_POINT ( 'NONE',  ( -9.999999999999991118, 67.49999999999998579, 0.000000000000000000 ) ) ;
#501 = DIRECTION ( 'NONE',  ( 0.000000000000000000, 0.000000000000000000, 1.000000000000000000 ) ) ;
#502 = CARTESIAN_POINT ( 'NONE',  ( 32.00000000000000711, 67.49999999999997158, 5.000000000000000000 ) ) ;
#503 = EDGE_LOOP ( 'NONE', ( #639, #706 ) ) ;
#504 = DIRECTION ( 'NONE',  ( -1.000000000000000000, 0.000000000000000000, 0.000000000000000000 ) ) ;
#505 = FACE_OUTER_BOUND ( 'NONE', #598, .T. ) ;
#506 = EDGE_LOOP ( 'NONE', ( #456, #608, #142, #120 ) ) ;
#507 = AXIS2_PLACEMENT_3D ( 'NONE', #906, #409, #636 ) ;
#508 = VECTOR ( 'NONE', #725, 1000.000000000000000 ) ;
#509 = EDGE_CURVE ( 'NONE', #879, #186, #336, .T. ) ;
#510 = AXIS2_PLACEMENT_3D ( 'NONE', #396, #832, #671 ) ;
#511 = VECTOR ( 'NONE', #714, 1000.000000000000000 ) ;
#512 = DIRECTION ( 'NONE',  ( -0.000000000000000000, -0.000000000000000000, 1.000000000000000000 ) ) ;
#513 = CYLINDRICAL_SURFACE ( 'NONE', #264, 1.600000000000002087 ) ;
#514 = DIRECTION ( 'NONE',  ( 1.000000000000000000, 0.000000000000000000, 0.000000000000000000 ) ) ;
#515 = ORIENTED_EDGE ( 'NONE', *, *, #413, .T. ) ;
#516 = DIRECTION ( 'NONE',  ( -1.000000000000000000, 0.000000000000000000, 0.000000000000000000 ) ) ;
#517 = DIRECTION ( 'NONE',  ( 1.000000000000000000, 0.000000000000000000, -0.000000000000000000 ) ) ;
#518 = ADVANCED_FACE ( 'NONE', ( #125 ), #847, .F. ) ;
#519 = DIRECTION ( 'NONE',  ( 0.000000000000000000, 0.000000000000000000, 1.000000000000000000 ) ) ;
#520 = ORIENTED_EDGE ( 'NONE', *, *, #413, .F. ) ;
#521 = PRODUCT ( 'L\X2\578b8fde63a5\X0\_\X2\5de6\X0\', 'L\X2\578b8fde63a5\X0\_\X2\5de6\X0\', '', ( #547 ) ) ;
#522 = DIRECTION ( 'NONE',  ( 1.000000000000000000, 0.000000000000000000, 0.000000000000000000 ) ) ;
#523 = DIRECTION ( 'NONE',  ( -0.000000000000000000, -0.000000000000000000, -1.000000000000000000 ) ) ;
#524 = EDGE_CURVE ( 'NONE', #269, #718, #266, .T. ) ;
#525 = ORIENTED_EDGE ( 'NONE', *, *, #609, .F. ) ;
#526 = DIRECTION ( 'NONE',  ( -1.156482317317871478E-16, 1.000000000000000000, -0.000000000000000000 ) ) ;
#527 = STYLED_ITEM ( 'NONE', ( #225 ), #317 ) ;
#528 = DIRECTION ( 'NONE',  ( 0.000000000000000000, 0.000000000000000000, 1.000000000000000000 ) ) ;
#529 = VERTEX_POINT ( 'NONE', #194 ) ;
#530 = ORIENTED_EDGE ( 'NONE', *, *, #789, .T. ) ;
#531 = LINE ( 'NONE', #389, #661 ) ;
#532 = CARTESIAN_POINT ( 'NONE',  ( 19.60000000000004761, 67.49999999999997158, 5.000000000000000000 ) ) ;
#533 = ORIENTED_EDGE ( 'NONE', *, *, #540, .F. ) ;
#534 = ORIENTED_EDGE ( 'NONE', *, *, #1, .T. ) ;
#535 = LINE ( 'NONE', #160, #557 ) ;
#536 = FACE_BOUND ( 'NONE', #695, .T. ) ;
#537 = ORIENTED_EDGE ( 'NONE', *, *, #25, .F. ) ;
#538 = CLOSED_SHELL ( 'NONE', ( #270, #9, #188, #770, #391, #53, #704, #649, #749, #754, #82, #747, #349, #872, #548, #927, #518, #68, #365, #164, #472, #822, #882, #209, #662, #398, #216, #256, #239, #457 ) ) ;
#539 = CARTESIAN_POINT ( 'NONE',  ( 32.00000000000000711, 67.49999999999997158, 8.000000000000000000 ) ) ;
#540 = EDGE_CURVE ( 'NONE', #38, #806, #663, .T. ) ;
#541 = AXIS2_PLACEMENT_3D ( 'NONE', #83, #96, #375 ) ;
#542 = CIRCLE ( 'NONE', #248, 1.600000000000011191 ) ;
#543 = AXIS2_PLACEMENT_3D ( 'NONE', #489, #843, #767 ) ;
#544 = PLANE ( 'NONE',  #685 ) ;
#545 = AXIS2_PLACEMENT_3D ( 'NONE', #26, #227, #522 ) ;
#546 = ORIENTED_EDGE ( 'NONE', *, *, #490, .F. ) ;
#547 = PRODUCT_CONTEXT ( 'NONE', #171, 'mechanical' ) ;
#548 = ADVANCED_FACE ( 'NONE', ( #835 ), #423, .F. ) ;
#549 = LINE ( 'NONE', #184, #80 ) ;
#550 = ORIENTED_EDGE ( 'NONE', *, *, #803, .T. ) ;
#551 = DIRECTION ( 'NONE',  ( 1.000000000000000000, 0.000000000000000000, 0.000000000000000000 ) ) ;
#552 = DIRECTION ( 'NONE',  ( 1.000000000000000000, 0.000000000000000000, 0.000000000000000000 ) ) ;
#553 = EDGE_CURVE ( 'NONE', #258, #845, #36, .T. ) ;
#554 = ORIENTED_EDGE ( 'NONE', *, *, #14, .T. ) ;
#555 = DIRECTION ( 'NONE',  ( 0.000000000000000000, 1.000000000000000000, -0.000000000000000000 ) ) ;
#556 = DIRECTION ( 'NONE',  ( -0.000000000000000000, -0.000000000000000000, 1.000000000000000000 ) ) ;
#557 = VECTOR ( 'NONE', #526, 1000.000000000000000 ) ;
#558 = ORIENTED_EDGE ( 'NONE', *, *, #789, .F. ) ;
#559 = EDGE_LOOP ( 'NONE', ( #173, #643, #876, #221 ) ) ;
#560 = AXIS2_PLACEMENT_3D ( 'NONE', #414, #907, #696 ) ;
#561 = CARTESIAN_POINT ( 'NONE',  ( 2.081668171172168829E-14, 42.49999999999998579, 5.000000000000000000 ) ) ;
#562 = CYLINDRICAL_SURFACE ( 'NONE', #774, 3.000000000000002665 ) ;
#563 = EDGE_LOOP ( 'NONE', ( #613, #546, #195, #669 ) ) ;
#564 = DIRECTION ( 'NONE',  ( 0.000000000000000000, 0.000000000000000000, 1.000000000000000000 ) ) ;
#565 = EDGE_CURVE ( 'NONE', #484, #337, #44, .T. ) ;
#566 = CARTESIAN_POINT ( 'NONE',  ( -2.999999999999980904, 62.49999999999998579, 8.000000000000000000 ) ) ;
#567 = CARTESIAN_POINT ( 'NONE',  ( -9.999999999999991118, 67.49999999999998579, 8.000000000000000000 ) ) ;
#568 = ORIENTED_EDGE ( 'NONE', *, *, #316, .T. ) ;
#569 = CARTESIAN_POINT ( 'NONE',  ( 21.00000000000003908, 67.49999999999997158, 5.000000000000000000 ) ) ;
#570 = CARTESIAN_POINT ( 'NONE',  ( 10.00000000000004086, 27.49999999999998224, 0.000000000000000000 ) ) ;
#571 = VECTOR ( 'NONE', #271, 1000.000000000000000 ) ;
#572 = CIRCLE ( 'NONE', #279, 1.599999999999998535 ) ;
#573 = VERTEX_POINT ( 'NONE', #566 ) ;
#574 = PRESENTATION_LAYER_ASSIGNMENT (  '', '', ( #527 ) ) ;
#575 = CIRCLE ( 'NONE', #8, 3.000000000000001776 ) ;
#576 = CARTESIAN_POINT ( 'NONE',  ( 33.60000000000000142, 67.49999999999997158, 5.000000000000000000 ) ) ;
#577 = CARTESIAN_POINT ( 'NONE',  ( 40.00000000000000711, 77.49999999999998579, 8.000000000000000000 ) ) ;
#578 = CARTESIAN_POINT ( 'NONE',  ( 40.00000000000000711, 57.49999999999997868, 8.000000000000000000 ) ) ;
#579 = ORIENTED_EDGE ( 'NONE', *, *, #817, .T. ) ;
#580 = CYLINDRICAL_SURFACE ( 'NONE', #394, 1.600000000000011191 ) ;
#581 = DIRECTION ( 'NONE',  ( 0.000000000000000000, 0.000000000000000000, 1.000000000000000000 ) ) ;
#582 = FACE_OUTER_BOUND ( 'NONE', #697, .T. ) ;
#583 = VERTEX_POINT ( 'NONE', #850 ) ;
#584 = EDGE_CURVE ( 'NONE', #529, #820, #707, .T. ) ;
#585 = DIRECTION ( 'NONE',  ( -0.000000000000000000, -0.000000000000000000, -1.000000000000000000 ) ) ;
#586 = CARTESIAN_POINT ( 'NONE',  ( 2.081668171172168513E-14, 62.49999999999998579, 5.000000000000000000 ) ) ;
#587 = VERTEX_POINT ( 'NONE', #474 ) ;
#588 = VECTOR ( 'NONE', #887, 1000.000000000000000 ) ;
#589 = AXIS2_PLACEMENT_3D ( 'NONE', #212, #428, #219 ) ;
#590 = EDGE_CURVE ( 'NONE', #583, #529, #575, .T. ) ;
#591 = AXIS2_PLACEMENT_3D ( 'NONE', #42, #419, #851 ) ;
#592 = LINE ( 'NONE', #427, #181 ) ;
#593 = FACE_BOUND ( 'NONE', #214, .T. ) ;
#594 = LINE ( 'NONE', #297, #232 ) ;
#595 = ORIENTED_EDGE ( 'NONE', *, *, #923, .F. ) ;
#596 = CARTESIAN_POINT ( 'NONE',  ( 0.000000000000000000, 0.000000000000000000, 0.000000000000000000 ) ) ;
#597 = EDGE_CURVE ( 'NONE', #624, #75, #138, .T. ) ;
#598 = EDGE_LOOP ( 'NONE', ( #324, #849, #196, #619 ) ) ;
#599 = CARTESIAN_POINT ( 'NONE',  ( 40.00000000000000711, 77.49999999999998579, 8.000000000000000000 ) ) ;
#600 = EDGE_CURVE ( 'NONE', #660, #447, #354, .T. ) ;
#601 = ORIENTED_EDGE ( 'NONE', *, *, #509, .T. ) ;
#602 = FACE_BOUND ( 'NONE', #28, .T. ) ;
#603 = VECTOR ( 'NONE', #241, 1000.000000000000000 ) ;
#604 = AXIS2_PLACEMENT_3D ( 'NONE', #763, #410, #346 ) ;
#605 = VERTEX_POINT ( 'NONE', #205 ) ;
#606 = FACE_OUTER_BOUND ( 'NONE', #242, .T. ) ;
#607 = CARTESIAN_POINT ( 'NONE',  ( 2.081668171172168829E-14, 42.49999999999998579, 8.000000000000000000 ) ) ;
#608 = ORIENTED_EDGE ( 'NONE', *, *, #25, .T. ) ;
#609 = EDGE_CURVE ( 'NONE', #128, #587, #931, .T. ) ;
#610 = DIRECTION ( 'NONE',  ( 0.000000000000000000, 0.000000000000000000, 1.000000000000000000 ) ) ;
#611 = FACE_BOUND ( 'NONE', #889, .T. ) ;
#612 = CARTESIAN_POINT ( 'NONE',  ( 18.00000000000003553, 67.49999999999997158, 8.000000000000000000 ) ) ;
#613 = ORIENTED_EDGE ( 'NONE', *, *, #308, .F. ) ;
#614 = VECTOR ( 'NONE', #313, 1000.000000000000000 ) ;
#615 = EDGE_CURVE ( 'NONE', #460, #915, #719, .T. ) ;
#616 = AXIS2_PLACEMENT_3D ( 'NONE', #382, #610, #438 ) ;
#617 = DIRECTION ( 'NONE',  ( 0.000000000000000000, 0.000000000000000000, -1.000000000000000000 ) ) ;
#618 = AXIS2_PLACEMENT_3D ( 'NONE', #539, #890, #673 ) ;
#619 = ORIENTED_EDGE ( 'NONE', *, *, #635, .F. ) ;
#620 = FACE_OUTER_BOUND ( 'NONE', #866, .T. ) ;
#621 = EDGE_CURVE ( 'NONE', #718, #128, #72, .T. ) ;
#622 = LINE ( 'NONE', #260, #124 ) ;
#623 = CARTESIAN_POINT ( 'NONE',  ( 16.40000000000002700, 67.49999999999997158, 8.000000000000000000 ) ) ;
#624 = VERTEX_POINT ( 'NONE', #500 ) ;
#625 = PLANE ( 'NONE',  #390 ) ;
#626 = CARTESIAN_POINT ( 'NONE',  ( 8.673617379884035472E-15, 77.49999999999998579, 0.000000000000000000 ) ) ;
#627 = PRODUCT_DEFINITION ( 'æœ', '', #339, #916 ) ;
#628 = CARTESIAN_POINT ( 'NONE',  ( -9.999999999999987566, 27.49999999999998224, 8.000000000000000000 ) ) ;
#629 = EDGE_LOOP ( 'NONE', ( #525, #656 ) ) ;
#630 =( LENGTH_UNIT ( ) NAMED_UNIT ( * ) SI_UNIT ( .MILLI., .METRE. ) );
#631 = CARTESIAN_POINT ( 'NONE',  ( 10.00000000000004086, 27.49999999999998224, 8.000000000000000000 ) ) ;
#632 = AXIS2_PLACEMENT_3D ( 'NONE', #206, #654, #782 ) ;
#633 = ORIENTED_EDGE ( 'NONE', *, *, #846, .F. ) ;
#634 = ORIENTED_EDGE ( 'NONE', *, *, #29, .T. ) ;
#635 = EDGE_CURVE ( 'NONE', #20, #444, #883, .T. ) ;
#636 = DIRECTION ( 'NONE',  ( 1.000000000000000000, 0.000000000000000000, 0.000000000000000000 ) ) ;
#637 = DIRECTION ( 'NONE',  ( 1.000000000000000000, 0.000000000000000000, 0.000000000000000000 ) ) ;
#638 = EDGE_LOOP ( 'NONE', ( #247, #56, #852, #415 ) ) ;
#639 = ORIENTED_EDGE ( 'NONE', *, *, #831, .T. ) ;
#640 = EDGE_CURVE ( 'NONE', #833, #455, #592, .T. ) ;
#641 = DIRECTION ( 'NONE',  ( -0.000000000000000000, -0.000000000000000000, 1.000000000000000000 ) ) ;
#642 = CARTESIAN_POINT ( 'NONE',  ( -2.999999999999980904, 42.49999999999998579, 5.000000000000000000 ) ) ;
#643 = ORIENTED_EDGE ( 'NONE', *, *, #640, .F. ) ;
#644 = DIRECTION ( 'NONE',  ( -1.000000000000000000, 0.000000000000000000, 0.000000000000000000 ) ) ;
#645 = CARTESIAN_POINT ( 'NONE',  ( -9.999999999999991118, 77.49999999999998579, 8.000000000000000000 ) ) ;
#646 = LINE ( 'NONE', #578, #674 ) ;
#647 = ORIENTED_EDGE ( 'NONE', *, *, #909, .T. ) ;
#648 = CARTESIAN_POINT ( 'NONE',  ( 2.081668171172168513E-14, 62.49999999999998579, 0.000000000000000000 ) ) ;
#649 = ADVANCED_FACE ( 'NONE', ( #67 ), #147, .F. ) ;
#650 = PLANE ( 'NONE',  #492 ) ;
#651 = FILL_AREA_STYLE ('',( #291 ) ) ;
#652 = VERTEX_POINT ( 'NONE', #933 ) ;
#653 = LINE ( 'NONE', #432, #511 ) ;
#654 = DIRECTION ( 'NONE',  ( 0.000000000000000000, 0.000000000000000000, 1.000000000000000000 ) ) ;
#655 = FACE_OUTER_BOUND ( 'NONE', #32, .T. ) ;
#656 = ORIENTED_EDGE ( 'NONE', *, *, #357, .F. ) ;
#657 = DIRECTION ( 'NONE',  ( 0.000000000000000000, 0.000000000000000000, 1.000000000000000000 ) ) ;
#658 = DIRECTION ( 'NONE',  ( 1.000000000000000000, 0.000000000000000000, 0.000000000000000000 ) ) ;
#659 = CARTESIAN_POINT ( 'NONE',  ( 3.000000000000022649, 42.49999999999998579, 5.000000000000000000 ) ) ;
#660 = VERTEX_POINT ( 'NONE', #576 ) ;
#661 = VECTOR ( 'NONE', #395, 1000.000000000000000 ) ;
#662 = ADVANCED_FACE ( 'NONE', ( #77 ), #362, .F. ) ;
#663 = CIRCLE ( 'NONE', #452, 3.000000000000001776 ) ;
#664 = CARTESIAN_POINT ( 'NONE',  ( 18.00000000000003553, 67.49999999999997158, 8.000000000000000000 ) ) ;
#665 = CARTESIAN_POINT ( 'NONE',  ( 20.00000000000003908, 47.49999999999997868, 8.000000000000000000 ) ) ;
#666 = ORIENTED_EDGE ( 'NONE', *, *, #441, .T. ) ;
#667 = LINE ( 'NONE', #807, #137 ) ;
#668 = CARTESIAN_POINT ( 'NONE',  ( 2.081668171172168829E-14, 42.49999999999998579, 0.000000000000000000 ) ) ;
#669 = ORIENTED_EDGE ( 'NONE', *, *, #846, .T. ) ;
#670 = CARTESIAN_POINT ( 'NONE',  ( 10.00000000000004086, 27.49999999999998224, 8.000000000000000000 ) ) ;
#671 = DIRECTION ( 'NONE',  ( 1.000000000000000000, 0.000000000000000000, 0.000000000000000000 ) ) ;
#672 = ORIENTED_EDGE ( 'NONE', *, *, #426, .T. ) ;
#673 = DIRECTION ( 'NONE',  ( -1.000000000000000000, 0.000000000000000000, 0.000000000000000000 ) ) ;
#674 = VECTOR ( 'NONE', #434, 1000.000000000000000 ) ;
#675 = AXIS2_PLACEMENT_3D ( 'NONE', #867, #217, #797 ) ;
#676 = DIRECTION ( 'NONE',  ( -0.000000000000000000, 0.000000000000000000, -1.000000000000000000 ) ) ;
#677 = EDGE_CURVE ( 'NONE', #86, #263, #653, .T. ) ;
#678 = ORIENTED_EDGE ( 'NONE', *, *, #909, .F. ) ;
#679 = DIRECTION ( 'NONE',  ( 1.000000000000000000, 0.000000000000000000, 0.000000000000000000 ) ) ;
#680 = CARTESIAN_POINT ( 'NONE',  ( 18.00000000000003553, 67.49999999999997158, 5.000000000000000000 ) ) ;
#681 = ORIENTED_EDGE ( 'NONE', *, *, #481, .F. ) ;
#682 = LINE ( 'NONE', #31, #746 ) ;
#683 = ORIENTED_EDGE ( 'NONE', *, *, #223, .F. ) ;
#684 = EDGE_LOOP ( 'NONE', ( #773, #859, #884, #683 ) ) ;
#685 = AXIS2_PLACEMENT_3D ( 'NONE', #733, #676, #89 ) ;
#686 = CARTESIAN_POINT ( 'NONE',  ( 2.081668171172168829E-14, 42.49999999999998579, 8.000000000000000000 ) ) ;
#687 = VECTOR ( 'NONE', #132, 1000.000000000000000 ) ;
#688 = CARTESIAN_POINT ( 'NONE',  ( 15.00000000000003375, 67.49999999999997158, 5.000000000000000000 ) ) ;
#689 = ORIENTED_EDGE ( 'NONE', *, *, #98, .F. ) ;
#690 = CARTESIAN_POINT ( 'NONE',  ( 32.00000000000000711, 67.49999999999997158, 5.000000000000000000 ) ) ;
#691 = DIRECTION ( 'NONE',  ( -0.000000000000000000, -0.000000000000000000, -1.000000000000000000 ) ) ;
#692 = EDGE_CURVE ( 'NONE', #499, #384, #790, .T. ) ;
#693 = CYLINDRICAL_SURFACE ( 'NONE', #376, 3.000000000000001776 ) ;
#694 = DIRECTION ( 'NONE',  ( -0.000000000000000000, -0.000000000000000000, 1.000000000000000000 ) ) ;
#695 = EDGE_LOOP ( 'NONE', ( #412, #533 ) ) ;
#696 = DIRECTION ( 'NONE',  ( 1.000000000000000000, 0.000000000000000000, 0.000000000000000000 ) ) ;
#697 = EDGE_LOOP ( 'NONE', ( #90, #568 ) ) ;
#698 = PRODUCT_DEFINITION_SHAPE ( 'NONE', 'NONE',  #627 ) ;
#699 = EDGE_LOOP ( 'NONE', ( #370, #288 ) ) ;
#700 = APPLICATION_PROTOCOL_DEFINITION ( 'draft international standard', 'automotive_design', 1998, #210 ) ;
#701 = FACE_OUTER_BOUND ( 'NONE', #742, .T. ) ;
#702 = CIRCLE ( 'NONE', #632, 3.000000000000001776 ) ;
#703 = EDGE_LOOP ( 'NONE', ( #554, #105 ) ) ;
#704 = ADVANCED_FACE ( 'NONE', ( #781 ), #580, .F. ) ;
#705 = AXIS2_PLACEMENT_3D ( 'NONE', #314, #528, #153 ) ;
#706 = ORIENTED_EDGE ( 'NONE', *, *, #785, .T. ) ;
#707 = LINE ( 'NONE', #901, #900 ) ;
#708 = ORIENTED_EDGE ( 'NONE', *, *, #831, .F. ) ;
#709 = ORIENTED_EDGE ( 'NONE', *, *, #441, .F. ) ;
#710 = CARTESIAN_POINT ( 'NONE',  ( 18.00000000000003553, 67.49999999999997158, 8.000000000000000000 ) ) ;
#711 = CARTESIAN_POINT ( 'NONE',  ( 10.00000000000003730, 57.49999999999997868, 0.000000000000000000 ) ) ;
#712 = VERTEX_POINT ( 'NONE', #276 ) ;
#713 = EDGE_CURVE ( 'NONE', #892, #444, #201, .T. ) ;
#714 = DIRECTION ( 'NONE',  ( -0.000000000000000000, -0.000000000000000000, 1.000000000000000000 ) ) ;
#715 = DIRECTION ( 'NONE',  ( -1.000000000000000000, -0.000000000000000000, -0.000000000000000000 ) ) ;
#716 = LINE ( 'NONE', #659, #603 ) ;
#717 = AXIS2_PLACEMENT_3D ( 'NONE', #111, #51, #261 ) ;
#718 = VERTEX_POINT ( 'NONE', #436 ) ;
#719 = CIRCLE ( 'NONE', #311, 3.000000000000002665 ) ;
#720 = CARTESIAN_POINT ( 'NONE',  ( 32.00000000000000711, 67.49999999999997158, 8.000000000000000000 ) ) ;
#721 = DIRECTION ( 'NONE',  ( 1.000000000000000000, 0.000000000000000000, 0.000000000000000000 ) ) ;
#722 = DIRECTION ( 'NONE',  ( 1.000000000000000000, 0.000000000000000000, 0.000000000000000000 ) ) ;
#723 = ORIENTED_EDGE ( 'NONE', *, *, #553, .F. ) ;
#724 = DIRECTION ( 'NONE',  ( -0.000000000000000000, -0.000000000000000000, -1.000000000000000000 ) ) ;
#725 = DIRECTION ( 'NONE',  ( -0.000000000000000000, 1.000000000000000000, -0.000000000000000000 ) ) ;
#726 = EDGE_CURVE ( 'NONE', #652, #424, #854, .T. ) ;
#727 = ORIENTED_EDGE ( 'NONE', *, *, #817, .F. ) ;
#728 = DIRECTION ( 'NONE',  ( 1.000000000000000000, 0.000000000000000000, 0.000000000000000000 ) ) ;
#729 = DIRECTION ( 'NONE',  ( 1.000000000000000000, 0.000000000000000000, 0.000000000000000000 ) ) ;
#730 = ORIENTED_EDGE ( 'NONE', *, *, #202, .T. ) ;
#731 = CIRCLE ( 'NONE', #35, 3.000000000000002665 ) ;
#732 = CARTESIAN_POINT ( 'NONE',  ( 32.00000000000000711, 67.49999999999997158, 0.000000000000000000 ) ) ;
#733 = CARTESIAN_POINT ( 'NONE',  ( 0.000000000000000000, 0.000000000000000000, 8.000000000000000000 ) ) ;
#734 = ORIENTED_EDGE ( 'NONE', *, *, #740, .T. ) ;
#735 = DIRECTION ( 'NONE',  ( 1.000000000000000000, 0.000000000000000000, 0.000000000000000000 ) ) ;
#736 = FACE_BOUND ( 'NONE', #320, .T. ) ;
#737 = ORIENTED_EDGE ( 'NONE', *, *, #509, .F. ) ;
#738 = ORIENTED_EDGE ( 'NONE', *, *, #177, .T. ) ;
#739 = CARTESIAN_POINT ( 'NONE',  ( 2.081668171172168829E-14, 42.49999999999998579, 5.000000000000000000 ) ) ;
#740 = EDGE_CURVE ( 'NONE', #820, #573, #779, .T. ) ;
#741 = LINE ( 'NONE', #165, #421 ) ;
#742 = EDGE_LOOP ( 'NONE', ( #558, #932, #595, #757 ) ) ;
#743 = AXIS2_PLACEMENT_3D ( 'NONE', #100, #399, #417 ) ;
#744 = AXIS2_PLACEMENT_3D ( 'NONE', #586, #868, #517 ) ;
#745 = CARTESIAN_POINT ( 'NONE',  ( 32.00000000000000711, 67.49999999999997158, 8.000000000000000000 ) ) ;
#746 = VECTOR ( 'NONE', #617, 1000.000000000000000 ) ;
#747 = ADVANCED_FACE ( 'NONE', ( #143 ), #440, .F. ) ;
#748 = PLANE ( 'NONE',  #95 ) ;
#749 = ADVANCED_FACE ( 'NONE', ( #367 ), #860, .F. ) ;
#750 = ORIENTED_EDGE ( 'NONE', *, *, #202, .F. ) ;
#751 = CARTESIAN_POINT ( 'NONE',  ( 33.60000000000000142, 67.49999999999997158, 0.000000000000000000 ) ) ;
#752 = DIRECTION ( 'NONE',  ( 1.000000000000000000, 0.000000000000000000, 0.000000000000000000 ) ) ;
#753 = ORIENTED_EDGE ( 'NONE', *, *, #386, .T. ) ;
#754 = ADVANCED_FACE ( 'NONE', ( #829 ), #461, .F. ) ;
#755 = CARTESIAN_POINT ( 'NONE',  ( 10.00000000000004086, 27.49999999999998224, 8.000000000000000000 ) ) ;
#756 = CARTESIAN_POINT ( 'NONE',  ( 2.081668171172168513E-14, 62.49999999999998579, 5.000000000000000000 ) ) ;
#757 = ORIENTED_EDGE ( 'NONE', *, *, #426, .F. ) ;
#758 = ORIENTED_EDGE ( 'NONE', *, *, #193, .T. ) ;
#759 = EDGE_CURVE ( 'NONE', #330, #892, #422, .T. ) ;
#760 = CARTESIAN_POINT ( 'NONE',  ( -1.599999999999981215, 62.49999999999998579, 5.000000000000000000 ) ) ;
#761 = CIRCLE ( 'NONE', #34, 1.600000000000002087 ) ;
#762 = MECHANICAL_DESIGN_GEOMETRIC_PRESENTATION_REPRESENTATION (  '', ( #527 ), #885 ) ;
#763 = CARTESIAN_POINT ( 'NONE',  ( -9.999999999999991118, 77.49999999999998579, 8.000000000000000000 ) ) ;
#764 = CYLINDRICAL_SURFACE ( 'NONE', #591, 1.600000000000002087 ) ;
#765 = UNCERTAINTY_MEASURE_WITH_UNIT (LENGTH_MEASURE( 1.000000000000000082E-05 ), #783, 'distance_accuracy_value', 'NONE');
#766 = ORIENTED_EDGE ( 'NONE', *, *, #466, .T. ) ;
#767 = DIRECTION ( 'NONE',  ( -1.000000000000000000, 0.000000000000000000, 0.000000000000000000 ) ) ;
#768 = ORIENTED_EDGE ( 'NONE', *, *, #677, .T. ) ;
#769 = VERTEX_POINT ( 'NONE', #751 ) ;
#770 = ADVANCED_FACE ( 'NONE', ( #152 ), #818, .F. ) ;
#771 = CARTESIAN_POINT ( 'NONE',  ( -1.599999999999977662, 42.49999999999998579, 8.000000000000000000 ) ) ;
#772 = DIRECTION ( 'NONE',  ( 1.000000000000000000, 0.000000000000000000, 0.000000000000000000 ) ) ;
#773 = ORIENTED_EDGE ( 'NONE', *, *, #726, .F. ) ;
#774 = AXIS2_PLACEMENT_3D ( 'NONE', #104, #848, #405 ) ;
#775 = CARTESIAN_POINT ( 'NONE',  ( 18.00000000000003553, 67.49999999999997158, 5.000000000000000000 ) ) ;
#776 = CIRCLE ( 'NONE', #106, 10.00000000000000000 ) ;
#777 = VECTOR ( 'NONE', #103, 1000.000000000000000 ) ;
#778 = PLANE ( 'NONE',  #589 ) ;
#779 = CIRCLE ( 'NONE', #675, 3.000000000000001776 ) ;
#780 = EDGE_LOOP ( 'NONE', ( #515, #870 ) ) ;
#781 = FACE_OUTER_BOUND ( 'NONE', #345, .T. ) ;
#782 = DIRECTION ( 'NONE',  ( 1.000000000000000000, 0.000000000000000000, 0.000000000000000000 ) ) ;
#783 =( LENGTH_UNIT ( ) NAMED_UNIT ( * ) SI_UNIT ( .MILLI., .METRE. ) );
#784 = ORIENTED_EDGE ( 'NONE', *, *, #565, .F. ) ;
#785 = EDGE_CURVE ( 'NONE', #769, #361, #377, .T. ) ;
#786 = DIRECTION ( 'NONE',  ( 1.000000000000000000, 0.000000000000000000, 0.000000000000000000 ) ) ;
#787 = DIRECTION ( 'NONE',  ( -0.000000000000000000, -0.000000000000000000, -1.000000000000000000 ) ) ;
#788 = EDGE_LOOP ( 'NONE', ( #300, #407, #810, #233, #905, #534, #469, #678 ) ) ;
#789 = EDGE_CURVE ( 'NONE', #384, #43, #911, .T. ) ;
#790 = LINE ( 'NONE', #286, #155 ) ;
#791 = CARTESIAN_POINT ( 'NONE',  ( 2.081668171172168829E-14, 42.49999999999998579, 5.000000000000000000 ) ) ;
#792 = DIRECTION ( 'NONE',  ( 0.000000000000000000, 0.000000000000000000, 1.000000000000000000 ) ) ;
#793 = VECTOR ( 'NONE', #715, 1000.000000000000000 ) ;
#794 = EDGE_LOOP ( 'NONE', ( #235, #47, #298, #896 ) ) ;
#795 = CIRCLE ( 'NONE', #510, 3.000000000000001776 ) ;
#796 = AXIS2_PLACEMENT_3D ( 'NONE', #648, #928, #294 ) ;
#797 = DIRECTION ( 'NONE',  ( 1.000000000000000000, 0.000000000000000000, 0.000000000000000000 ) ) ;
#798 = EDGE_CURVE ( 'NONE', #186, #86, #535, .T. ) ;
#799 = CARTESIAN_POINT ( 'NONE',  ( 2.081668171172168513E-14, 62.49999999999998579, 5.000000000000000000 ) ) ;
#800 = FACE_BOUND ( 'NONE', #388, .T. ) ;
#801 = EDGE_LOOP ( 'NONE', ( #689, #672, #844, #862 ) ) ;
#802 = DIRECTION ( 'NONE',  ( 0.000000000000000000, 0.000000000000000000, 1.000000000000000000 ) ) ;
#803 = EDGE_CURVE ( 'NONE', #178, #38, #667, .T. ) ;
#804 = FACE_OUTER_BOUND ( 'NONE', #563, .T. ) ;
#805 = CARTESIAN_POINT ( 'NONE',  ( 32.00000000000000711, 67.49999999999997158, 5.000000000000000000 ) ) ;
#806 = VERTEX_POINT ( 'NONE', #450 ) ;
#807 = CARTESIAN_POINT ( 'NONE',  ( -2.999999999999980904, 42.49999999999998579, 5.000000000000000000 ) ) ;
#808 = DIRECTION ( 'NONE',  ( -0.000000000000000000, -0.000000000000000000, 1.000000000000000000 ) ) ;
#809 = CARTESIAN_POINT ( 'NONE',  ( 40.00000000000000711, 57.49999999999997868, 8.000000000000000000 ) ) ;
#810 = ORIENTED_EDGE ( 'NONE', *, *, #127, .F. ) ;
#811 = AXIS2_PLACEMENT_3D ( 'NONE', #937, #433, #139 ) ;
#812 = AXIS2_PLACEMENT_3D ( 'NONE', #149, #498, #722 ) ;
#813 = VECTOR ( 'NONE', #512, 1000.000000000000000 ) ;
#814 = CARTESIAN_POINT ( 'NONE',  ( 2.081668171172168829E-14, 42.49999999999998579, 5.000000000000000000 ) ) ;
#815 = FACE_OUTER_BOUND ( 'NONE', #559, .T. ) ;
#816 = ORIENTED_EDGE ( 'NONE', *, *, #590, .F. ) ;
#817 = EDGE_CURVE ( 'NONE', #879, #263, #464, .T. ) ;
#818 = CYLINDRICAL_SURFACE ( 'NONE', #858, 3.000000000000001776 ) ;
#819 = FACE_BOUND ( 'NONE', #629, .T. ) ;
#820 = VERTEX_POINT ( 'NONE', #880 ) ;
#821 = ORIENTED_EDGE ( 'NONE', *, *, #136, .F. ) ;
#822 = ADVANCED_FACE ( 'NONE', ( #602, #606 ), #13, .T. ) ;
#823 = CARTESIAN_POINT ( 'NONE',  ( 10.00000000000003730, 57.49999999999997868, 8.000000000000000000 ) ) ;
#824 = EDGE_CURVE ( 'NONE', #833, #384, #163, .T. ) ;
#825 = DIRECTION ( 'NONE',  ( 0.000000000000000000, 0.000000000000000000, 1.000000000000000000 ) ) ;
#826 = ORIENTED_EDGE ( 'NONE', *, *, #40, .F. ) ;
#827 = CIRCLE ( 'NONE', #616, 1.599999999999998535 ) ;
#828 = CIRCLE ( 'NONE', #705, 1.599999999999997202 ) ;
#829 = FACE_OUTER_BOUND ( 'NONE', #902, .T. ) ;
#830 = AXIS2_PLACEMENT_3D ( 'NONE', #664, #170, #17 ) ;
#831 = EDGE_CURVE ( 'NONE', #361, #769, #355, .T. ) ;
#832 = DIRECTION ( 'NONE',  ( 0.000000000000000000, 0.000000000000000000, 1.000000000000000000 ) ) ;
#833 = VERTEX_POINT ( 'NONE', #599 ) ;
#834 = CYLINDRICAL_SURFACE ( 'NONE', #78, 3.000000000000002665 ) ;
#835 = FACE_OUTER_BOUND ( 'NONE', #801, .T. ) ;
#836 = DIRECTION ( 'NONE',  ( 0.000000000000000000, 0.000000000000000000, 1.000000000000000000 ) ) ;
#837 = EDGE_LOOP ( 'NONE', ( #681, #922, #312, #493 ) ) ;
#838 = CARTESIAN_POINT ( 'NONE',  ( 10.00000000000003730, 57.49999999999997868, 8.000000000000000000 ) ) ;
#839 = LINE ( 'NONE', #479, #897 ) ;
#840 = ORIENTED_EDGE ( 'NONE', *, *, #726, .T. ) ;
#841 =( NAMED_UNIT ( * ) SI_UNIT ( $, .STERADIAN. ) SOLID_ANGLE_UNIT ( ) );
#842 = VECTOR ( 'NONE', #187, 1000.000000000000000 ) ;
#843 = DIRECTION ( 'NONE',  ( 0.000000000000000000, 0.000000000000000000, -1.000000000000000000 ) ) ;
#844 = ORIENTED_EDGE ( 'NONE', *, *, #597, .T. ) ;
#845 = VERTEX_POINT ( 'NONE', #236 ) ;
#846 = EDGE_CURVE ( 'NONE', #915, #460, #166, .T. ) ;
#847 = PLANE ( 'NONE',  #234 ) ;
#848 = DIRECTION ( 'NONE',  ( -0.000000000000000000, -0.000000000000000000, 1.000000000000000000 ) ) ;
#849 = ORIENTED_EDGE ( 'NONE', *, *, #759, .T. ) ;
#850 = CARTESIAN_POINT ( 'NONE',  ( -2.999999999999980904, 62.49999999999998579, 5.000000000000000000 ) ) ;
#851 = DIRECTION ( 'NONE',  ( -1.000000000000000000, 0.000000000000000000, 0.000000000000000000 ) ) ;
#852 = ORIENTED_EDGE ( 'NONE', *, *, #918, .T. ) ;
#853 = AXIS2_PLACEMENT_3D ( 'NONE', #185, #836, #176 ) ;
#854 = LINE ( 'NONE', #281, #141 ) ;
#855 = EDGE_CURVE ( 'NONE', #330, #20, #531, .T. ) ;
#856 = COLOUR_RGB ( '',1.000000000000000000, 1.000000000000000000, 1.000000000000000000 ) ;
#857 = DIRECTION ( 'NONE',  ( 1.000000000000000000, 0.000000000000000000, 0.000000000000000000 ) ) ;
#858 = AXIS2_PLACEMENT_3D ( 'NONE', #739, #381, #679 ) ;
#859 = ORIENTED_EDGE ( 'NONE', *, *, #76, .T. ) ;
#860 = CYLINDRICAL_SURFACE ( 'NONE', #618, 1.600000000000000755 ) ;
#861 = CYLINDRICAL_SURFACE ( 'NONE', #94, 3.000000000000001776 ) ;
#862 = ORIENTED_EDGE ( 'NONE', *, *, #466, .F. ) ;
#863 = DIRECTION ( 'NONE',  ( -0.000000000000000000, -0.000000000000000000, -1.000000000000000000 ) ) ;
#864 = FACE_OUTER_BOUND ( 'NONE', #703, .T. ) ;
#865 = LINE ( 'NONE', #59, #356 ) ;
#866 = EDGE_LOOP ( 'NONE', ( #278, #310, #115, #734 ) ) ;
#867 = CARTESIAN_POINT ( 'NONE',  ( 2.081668171172168513E-14, 62.49999999999998579, 8.000000000000000000 ) ) ;
#868 = DIRECTION ( 'NONE',  ( 0.000000000000000000, 0.000000000000000000, 1.000000000000000000 ) ) ;
#869 = UNCERTAINTY_MEASURE_WITH_UNIT (LENGTH_MEASURE( 1.000000000000000082E-05 ), #630, 'distance_accuracy_value', 'NONE');
#870 = ORIENTED_EDGE ( 'NONE', *, *, #553, .T. ) ;
#871 = CIRCLE ( 'NONE', #49, 1.599999999999998535 ) ;
#872 = ADVANCED_FACE ( 'NONE', ( #611, #299, #894, #243, #458 ), #470, .T. ) ;
#873 = DIRECTION ( 'NONE',  ( -0.000000000000000000, -0.000000000000000000, -1.000000000000000000 ) ) ;
#874 = DIRECTION ( 'NONE',  ( 1.000000000000000000, 0.000000000000000000, 0.000000000000000000 ) ) ;
#875 = FACE_OUTER_BOUND ( 'NONE', #794, .T. ) ;
#876 = ORIENTED_EDGE ( 'NONE', *, *, #177, .F. ) ;
#877 = DIRECTION ( 'NONE',  ( -1.000000000000000000, 0.000000000000000000, 0.000000000000000000 ) ) ;
#878 =( NAMED_UNIT ( * ) SI_UNIT ( $, .STERADIAN. ) SOLID_ANGLE_UNIT ( ) );
#879 = VERTEX_POINT ( 'NONE', #670 ) ;
#880 = CARTESIAN_POINT ( 'NONE',  ( 3.000000000000022649, 62.49999999999998579, 8.000000000000000000 ) ) ;
#881 = DIRECTION ( 'NONE',  ( -0.000000000000000000, -0.000000000000000000, 1.000000000000000000 ) ) ;
#882 = ADVANCED_FACE ( 'NONE', ( #620 ), #477, .F. ) ;
#883 = CIRCLE ( 'NONE', #796, 1.600000000000002087 ) ;
#884 = ORIENTED_EDGE ( 'NONE', *, *, #565, .T. ) ;
#885 =( GEOMETRIC_REPRESENTATION_CONTEXT ( 3 ) GLOBAL_UNCERTAINTY_ASSIGNED_CONTEXT ( ( #765 ) ) GLOBAL_UNIT_ASSIGNED_CONTEXT ( ( #783, #378, #878 ) ) REPRESENTATION_CONTEXT ( 'NONE', 'WORKASPACE' ) );
#886 = VECTOR ( 'NONE', #585, 1000.000000000000000 ) ;
#887 = DIRECTION ( 'NONE',  ( -1.000000000000000000, -0.000000000000000000, -0.000000000000000000 ) ) ;
#888 = DIRECTION ( 'NONE',  ( 0.000000000000000000, 0.000000000000000000, 1.000000000000000000 ) ) ;
#889 = EDGE_LOOP ( 'NONE', ( #135, #463 ) ) ;
#890 = DIRECTION ( 'NONE',  ( -0.000000000000000000, -0.000000000000000000, -1.000000000000000000 ) ) ;
#891 = LINE ( 'NONE', #19, #62 ) ;
#892 = VERTEX_POINT ( 'NONE', #760 ) ;
#893 = EDGE_CURVE ( 'NONE', #583, #573, #322, .T. ) ;
#894 = FACE_OUTER_BOUND ( 'NONE', #788, .T. ) ;
#895 = DIRECTION ( 'NONE',  ( 1.000000000000000000, 0.000000000000000000, -0.000000000000000000 ) ) ;
#896 = ORIENTED_EDGE ( 'NONE', *, *, #46, .F. ) ;
#897 = VECTOR ( 'NONE', #119, 1000.000000000000000 ) ;
#898 = CIRCLE ( 'NONE', #6, 1.600000000000011191 ) ;
#899 = CARTESIAN_POINT ( 'NONE',  ( 9.367506770274756732E-15, 67.49999999999998579, 0.000000000000000000 ) ) ;
#900 = VECTOR ( 'NONE', #175, 1000.000000000000000 ) ;
#901 = CARTESIAN_POINT ( 'NONE',  ( 3.000000000000022649, 62.49999999999998579, 5.000000000000000000 ) ) ;
#902 = EDGE_LOOP ( 'NONE', ( #420, #229, #634, #723 ) ) ;
#903 = DIRECTION ( 'NONE',  ( 1.000000000000000000, 0.000000000000000000, 0.000000000000000000 ) ) ;
#904 = CARTESIAN_POINT ( 'NONE',  ( 2.081668171172168513E-14, 62.49999999999998579, 0.000000000000000000 ) ) ;
#905 = ORIENTED_EDGE ( 'NONE', *, *, #107, .F. ) ;
#906 = CARTESIAN_POINT ( 'NONE',  ( 2.081668171172168513E-14, 62.49999999999998579, 5.000000000000000000 ) ) ;
#907 = DIRECTION ( 'NONE',  ( 0.000000000000000000, 0.000000000000000000, 1.000000000000000000 ) ) ;
#908 = FACE_OUTER_BOUND ( 'NONE', #837, .T. ) ;
#909 = EDGE_CURVE ( 'NONE', #75, #186, #919, .T. ) ;
#910 = ORIENTED_EDGE ( 'NONE', *, *, #308, .T. ) ;
#911 = CIRCLE ( 'NONE', #541, 10.00000000000000000 ) ;
#912 = AXIS2_PLACEMENT_3D ( 'NONE', #446, #501, #874 ) ;
#913 = CIRCLE ( 'NONE', #812, 1.600000000000002087 ) ;
#914 = CARTESIAN_POINT ( 'NONE',  ( -1.599999999999977662, 42.49999999999998579, 5.000000000000000000 ) ) ;
#915 = VERTEX_POINT ( 'NONE', #331 ) ;
#916 = PRODUCT_DEFINITION_CONTEXT ( 'detailed design', #210, 'design' ) ;
#917 = ORIENTED_EDGE ( 'NONE', *, *, #798, .T. ) ;
#918 = EDGE_CURVE ( 'NONE', #447, #361, #174, .T. ) ;
#919 = LINE ( 'NONE', #113, #842 ) ;
#920 = CARTESIAN_POINT ( 'NONE',  ( 30.40000000000000568, 67.49999999999997158, 5.000000000000000000 ) ) ;
#921 = LINE ( 'NONE', #623, #306 ) ;
#922 = ORIENTED_EDGE ( 'NONE', *, *, #46, .T. ) ;
#923 = EDGE_CURVE ( 'NONE', #624, #499, #776, .T. ) ;
#924 = DIRECTION ( 'NONE',  ( -0.000000000000000000, -0.000000000000000000, -1.000000000000000000 ) ) ;
#925 = CARTESIAN_POINT ( 'NONE',  ( 2.081668171172168513E-14, 62.49999999999998579, 8.000000000000000000 ) ) ;
#926 = ORIENTED_EDGE ( 'NONE', *, *, #918, .F. ) ;
#927 = ADVANCED_FACE ( 'NONE', ( #341 ), #625, .F. ) ;
#928 = DIRECTION ( 'NONE',  ( 0.000000000000000000, 0.000000000000000000, 1.000000000000000000 ) ) ;
#929 = AXIS2_PLACEMENT_3D ( 'NONE', #791, #3, #721 ) ;
#930 = CARTESIAN_POINT ( 'NONE',  ( 2.081668171172168829E-14, 42.49999999999998579, 5.000000000000000000 ) ) ;
#931 = CIRCLE ( 'NONE', #408, 3.000000000000002665 ) ;
#932 = ORIENTED_EDGE ( 'NONE', *, *, #692, .F. ) ;
#933 = CARTESIAN_POINT ( 'NONE',  ( 1.600000000000019407, 42.49999999999998579, 5.000000000000000000 ) ) ;
#934 = LINE ( 'NONE', #577, #508 ) ;
#935 = ORIENTED_EDGE ( 'NONE', *, *, #481, .T. ) ;
#936 = DIRECTION ( 'NONE',  ( -0.000000000000000000, -0.000000000000000000, 1.000000000000000000 ) ) ;
#937 = CARTESIAN_POINT ( 'NONE',  ( 18.00000000000003553, 67.49999999999997158, 5.000000000000000000 ) ) ;
#938 = DIRECTION ( 'NONE',  ( 1.000000000000000000, 0.000000000000000000, -0.000000000000000000 ) ) ;
#939 = ORIENTED_EDGE ( 'NONE', *, *, #118, .F. ) ;
ENDSEC;
END-ISO-10303-21;
