ISO-10303-21;
HEADER;
FILE_DESCRIPTION (( 'STEP AP214' ),
    '1' );
FILE_NAME ('¹âÖáÖ§¼Ü×ó.STEP',
    '2025-09-28T11:02:42',
    ( '' ),
    ( '' ),
    'SwSTEP 2.0',
    'SolidWorks 2025',
    '' );
FILE_SCHEMA (( 'AUTOMOTIVE_DESIGN' ));
ENDSEC;

DATA;
#1 = CARTESIAN_POINT ( 'NONE',  ( 2.499999999999920064, 110.2740833761816646, 8.000000000000000000 ) ) ;
#2 = VERTEX_POINT ( 'NONE', #369 ) ;
#3 = CIRCLE ( 'NONE', #223, 4.099999999999999645 ) ;
#4 = AXIS2_PLACEMENT_3D ( 'NONE', #36, #556, #343 ) ;
#5 = DIRECTION ( 'NONE',  ( -0.000000000000000000, -0.000000000000000000, 1.000000000000000000 ) ) ;
#6 = ORIENTED_EDGE ( 'NONE', *, *, #180, .F. ) ;
#7 = EDGE_CURVE ( 'NONE', #445, #272, #545, .T. ) ;
#8 = CARTESIAN_POINT ( 'NONE',  ( -0.1767766952966744187, 88.80292240285599803, 8.000000000000000000 ) ) ;
#9 = ORIENTED_EDGE ( 'NONE', *, *, #7, .T. ) ;
#10 = CARTESIAN_POINT ( 'NONE',  ( -3.176776695296675168, 88.80292240285599803, 5.000000000000000000 ) ) ;
#11 = ORIENTED_EDGE ( 'NONE', *, *, #555, .T. ) ;
#12 =( LENGTH_UNIT ( ) NAMED_UNIT ( * ) SI_UNIT ( .MILLI., .METRE. ) );
#13 = EDGE_LOOP ( 'NONE', ( #397, #420, #459, #364 ) ) ;
#14 = SURFACE_STYLE_FILL_AREA ( #236 ) ;
#15 = ORIENTED_EDGE ( 'NONE', *, *, #83, .T. ) ;
#16 = DIRECTION ( 'NONE',  ( -0.000000000000000000, -0.000000000000000000, -1.000000000000000000 ) ) ;
#17 = VERTEX_POINT ( 'NONE', #324 ) ;
#18 = AXIS2_PLACEMENT_3D ( 'NONE', #115, #462, #71 ) ;
#19 = CARTESIAN_POINT ( 'NONE',  ( -10.00000000000000000, 102.2740833761816504, 8.000000000000000000 ) ) ;
#20 = ORIENTED_EDGE ( 'NONE', *, *, #377, .T. ) ;
#21 = ADVANCED_FACE ( 'NONE', ( #327 ), #23, .F. ) ;
#22 = CARTESIAN_POINT ( 'NONE',  ( 2.499999999999920064, 102.8029224028560122, 0.000000000000000000 ) ) ;
#23 = CYLINDRICAL_SURFACE ( 'NONE', #65, 3.000000000000000888 ) ;
#24 = ADVANCED_FACE ( 'NONE', ( #371 ), #507, .F. ) ;
#25 = DIRECTION ( 'NONE',  ( -1.000000000000000000, 0.000000000000000000, -0.000000000000000000 ) ) ;
#26 = VERTEX_POINT ( 'NONE', #1 ) ;
#27 = LINE ( 'NONE', #553, #151 ) ;
#28 = ORIENTED_EDGE ( 'NONE', *, *, #268, .T. ) ;
#29 = STYLED_ITEM ( 'NONE', ( #350 ), #201 ) ;
#30 = EDGE_CURVE ( 'NONE', #239, #51, #382, .T. ) ;
#31 = AXIS2_PLACEMENT_3D ( 'NONE', #257, #170, #434 ) ;
#32 = CARTESIAN_POINT ( 'NONE',  ( 0.000000000000000000, 0.000000000000000000, 8.000000000000000000 ) ) ;
#33 = CYLINDRICAL_SURFACE ( 'NONE', #365, 3.000000000000000888 ) ;
#34 = FACE_OUTER_BOUND ( 'NONE', #141, .T. ) ;
#35 = FACE_OUTER_BOUND ( 'NONE', #59, .T. ) ;
#36 = CARTESIAN_POINT ( 'NONE',  ( -0.1767766952966744187, 88.80292240285599803, 8.000000000000000000 ) ) ;
#37 = CARTESIAN_POINT ( 'NONE',  ( 2.499999999999920064, 110.2740833761816646, 8.000000000000000000 ) ) ;
#38 = ORIENTED_EDGE ( 'NONE', *, *, #86, .T. ) ;
#39 = AXIS2_PLACEMENT_3D ( 'NONE', #344, #469, #379 ) ;
#40 = EDGE_CURVE ( 'NONE', #222, #248, #275, .T. ) ;
#41 = CARTESIAN_POINT ( 'NONE',  ( -1.600000000000080025, 102.8029224028560122, 0.000000000000000000 ) ) ;
#42 = LINE ( 'NONE', #219, #142 ) ;
#43 = CARTESIAN_POINT ( 'NONE',  ( 0.000000000000000000, 110.2740833761816504, 8.000000000000000000 ) ) ;
#44 = DIRECTION ( 'NONE',  ( -0.000000000000000000, -0.000000000000000000, -1.000000000000000000 ) ) ;
#45 = EDGE_CURVE ( 'NONE', #102, #543, #432, .T. ) ;
#46 = CIRCLE ( 'NONE', #134, 7.471160973325645216 ) ;
#47 = VECTOR ( 'NONE', #166, 1000.000000000000000 ) ;
#48 =( NAMED_UNIT ( * ) PLANE_ANGLE_UNIT ( ) SI_UNIT ( $, .RADIAN. ) );
#49 = FACE_OUTER_BOUND ( 'NONE', #241, .T. ) ;
#50 = ADVANCED_FACE ( 'NONE', ( #259 ), #33, .F. ) ;
#51 = VERTEX_POINT ( 'NONE', #388 ) ;
#52 =( NAMED_UNIT ( * ) SI_UNIT ( $, .STERADIAN. ) SOLID_ANGLE_UNIT ( ) );
#53 = ORIENTED_EDGE ( 'NONE', *, *, #472, .T. ) ;
#54 = APPLICATION_PROTOCOL_DEFINITION ( 'draft international standard', 'automotive_design', 1998, #117 ) ;
#55 = CYLINDRICAL_SURFACE ( 'NONE', #78, 4.100000000000000533 ) ;
#56 = ORIENTED_EDGE ( 'NONE', *, *, #533, .T. ) ;
#57 = CIRCLE ( 'NONE', #103, 7.471160973325645216 ) ;
#58 = FACE_BOUND ( 'NONE', #355, .T. ) ;
#59 = EDGE_LOOP ( 'NONE', ( #373, #351, #333, #205 ) ) ;
#60 = PLANE ( 'NONE',  #405 ) ;
#61 = ORIENTED_EDGE ( 'NONE', *, *, #500, .F. ) ;
#62 = DIRECTION ( 'NONE',  ( -0.000000000000000000, -0.000000000000000000, -1.000000000000000000 ) ) ;
#63 = ORIENTED_EDGE ( 'NONE', *, *, #227, .F. ) ;
#64 = EDGE_CURVE ( 'NONE', #139, #192, #450, .T. ) ;
#65 = AXIS2_PLACEMENT_3D ( 'NONE', #504, #111, #243 ) ;
#66 = LINE ( 'NONE', #242, #329 ) ;
#67 = CIRCLE ( 'NONE', #375, 3.000000000000000888 ) ;
#68 = ORIENTED_EDGE ( 'NONE', *, *, #227, .T. ) ;
#69 = EDGE_CURVE ( 'NONE', #260, #266, #77, .T. ) ;
#70 = FACE_OUTER_BOUND ( 'NONE', #13, .T. ) ;
#71 = DIRECTION ( 'NONE',  ( -1.000000000000000000, 0.000000000000000000, 0.000000000000000000 ) ) ;
#72 = DIRECTION ( 'NONE',  ( -0.000000000000000000, -0.000000000000000000, -1.000000000000000000 ) ) ;
#73 = ORIENTED_EDGE ( 'NONE', *, *, #244, .T. ) ;
#74 = ADVANCED_FACE ( 'NONE', ( #250 ), #435, .F. ) ;
#75 = DIRECTION ( 'NONE',  ( -1.000000000000000000, 0.000000000000000000, 0.000000000000000000 ) ) ;
#76 = AXIS2_PLACEMENT_3D ( 'NONE', #306, #300, #559 ) ;
#77 = LINE ( 'NONE', #123, #328 ) ;
#78 = AXIS2_PLACEMENT_3D ( 'NONE', #196, #72, #105 ) ;
#79 = CYLINDRICAL_SURFACE ( 'NONE', #4, 2.000000000000002220 ) ;
#80 = DIRECTION ( 'NONE',  ( 0.000000000000000000, 0.000000000000000000, 1.000000000000000000 ) ) ;
#81 = DIRECTION ( 'NONE',  ( -0.000000000000000000, 0.000000000000000000, 1.000000000000000000 ) ) ;
#82 = CARTESIAN_POINT ( 'NONE',  ( -0.1767766952966744187, 88.80292240285599803, 5.000000000000000000 ) ) ;
#83 = EDGE_CURVE ( 'NONE', #266, #108, #42, .T. ) ;
#84 = DIRECTION ( 'NONE',  ( 1.000000000000000000, 0.000000000000000000, 0.000000000000000000 ) ) ;
#85 = VERTEX_POINT ( 'NONE', #424 ) ;
#86 = EDGE_CURVE ( 'NONE', #407, #464, #137, .T. ) ;
#87 = UNCERTAINTY_MEASURE_WITH_UNIT (LENGTH_MEASURE( 1.000000000000000082E-05 ), #12, 'distance_accuracy_value', 'NONE');
#88 = AXIS2_PLACEMENT_3D ( 'NONE', #326, #204, #411 ) ;
#89 = CARTESIAN_POINT ( 'NONE',  ( -10.00000000000000000, 82.80292240285599803, 0.000000000000000000 ) ) ;
#90 = DIRECTION ( 'NONE',  ( 0.000000000000000000, -0.000000000000000000, -1.000000000000000000 ) ) ;
#91 = ORIENTED_EDGE ( 'NONE', *, *, #69, .F. ) ;
#92 = CARTESIAN_POINT ( 'NONE',  ( 2.499999999999920064, 102.8029224028560122, 0.000000000000000000 ) ) ;
#93 = EDGE_CURVE ( 'NONE', #154, #178, #393, .T. ) ;
#94 = ORIENTED_EDGE ( 'NONE', *, *, #349, .T. ) ;
#95 = DIRECTION ( 'NONE',  ( -0.000000000000000000, 0.000000000000000000, 1.000000000000000000 ) ) ;
#96 = EDGE_LOOP ( 'NONE', ( #63, #316, #94, #466 ) ) ;
#97 = AXIS2_PLACEMENT_3D ( 'NONE', #337, #297, #523 ) ;
#98 = CARTESIAN_POINT ( 'NONE',  ( 2.499999999999920064, 102.8029224028560122, 8.000000000000000000 ) ) ;
#99 = ORIENTED_EDGE ( 'NONE', *, *, #171, .F. ) ;
#100 = FILL_AREA_STYLE_COLOUR ( '', #133 ) ;
#101 = ORIENTED_EDGE ( 'NONE', *, *, #40, .F. ) ;
#102 = VERTEX_POINT ( 'NONE', #519 ) ;
#103 = AXIS2_PLACEMENT_3D ( 'NONE', #22, #202, #278 ) ;
#104 = AXIS2_PLACEMENT_3D ( 'NONE', #447, #140, #232 ) ;
#105 = DIRECTION ( 'NONE',  ( -1.000000000000000000, 0.000000000000000000, 0.000000000000000000 ) ) ;
#106 = EDGE_LOOP ( 'NONE', ( #358, #288 ) ) ;
#107 = LINE ( 'NONE', #19, #366 ) ;
#108 = VERTEX_POINT ( 'NONE', #179 ) ;
#109 = EDGE_CURVE ( 'NONE', #290, #560, #234, .T. ) ;
#110 = LINE ( 'NONE', #458, #162 ) ;
#111 = DIRECTION ( 'NONE',  ( -0.000000000000000000, -0.000000000000000000, -1.000000000000000000 ) ) ;
#112 = AXIS2_PLACEMENT_3D ( 'NONE', #524, #80, #298 ) ;
#113 = CARTESIAN_POINT ( 'NONE',  ( 0.000000000000000000, 82.80292240285599803, 8.000000000000000000 ) ) ;
#114 = AXIS2_PLACEMENT_3D ( 'NONE', #32, #81, #558 ) ;
#115 = CARTESIAN_POINT ( 'NONE',  ( 2.499999999999920064, 102.8029224028560122, 8.000000000000000000 ) ) ;
#116 = FACE_OUTER_BOUND ( 'NONE', #120, .T. ) ;
#117 = APPLICATION_CONTEXT ( 'automotive_design' ) ;
#118 = ORIENTED_EDGE ( 'NONE', *, *, #506, .T. ) ;
#119 = DIRECTION ( 'NONE',  ( -1.000000000000000000, 0.000000000000000000, 0.000000000000000000 ) ) ;
#120 = EDGE_LOOP ( 'NONE', ( #409, #6, #515, #270 ) ) ;
#121 = CARTESIAN_POINT ( 'NONE',  ( -3.176776695296675168, 88.80292240285599803, 0.000000000000000000 ) ) ;
#122 = AXIS2_PLACEMENT_3D ( 'NONE', #221, #175, #437 ) ;
#123 = CARTESIAN_POINT ( 'NONE',  ( 9.971160973325565280, 0.000000000000000000, 8.000000000000000000 ) ) ;
#124 = AXIS2_PLACEMENT_3D ( 'NONE', #153, #461, #372 ) ;
#125 = ORIENTED_EDGE ( 'NONE', *, *, #109, .F. ) ;
#126 = FACE_BOUND ( 'NONE', #438, .T. ) ;
#127 = DIRECTION ( 'NONE',  ( 0.000000000000000000, 1.000000000000000000, -0.000000000000000000 ) ) ;
#128 = EDGE_CURVE ( 'NONE', #26, #483, #514, .T. ) ;
#129 = CARTESIAN_POINT ( 'NONE',  ( 2.499999999999920064, 110.2740833761816646, 0.000000000000000000 ) ) ;
#130 = DIRECTION ( 'NONE',  ( 1.000000000000000000, 0.000000000000000000, 0.000000000000000000 ) ) ;
#131 = CARTESIAN_POINT ( 'NONE',  ( -0.1767766952966744187, 88.80292240285599803, 3.000000000000000000 ) ) ;
#132 = CARTESIAN_POINT ( 'NONE',  ( 1.823223304703327718, 88.80292240285599803, 5.000000000000000000 ) ) ;
#133 = COLOUR_RGB ( '',0.8431372549019607865, 0.8156862745098039102, 0.7529411764705882248 ) ;
#134 = AXIS2_PLACEMENT_3D ( 'NONE', #98, #269, #444 ) ;
#135 = EDGE_CURVE ( 'NONE', #560, #290, #357, .T. ) ;
#136 = APPLICATION_PROTOCOL_DEFINITION ( 'draft international standard', 'automotive_design', 1998, #307 ) ;
#137 = LINE ( 'NONE', #211, #534 ) ;
#138 = DIRECTION ( 'NONE',  ( -0.000000000000000000, -0.000000000000000000, -1.000000000000000000 ) ) ;
#139 = VERTEX_POINT ( 'NONE', #132 ) ;
#140 = DIRECTION ( 'NONE',  ( -0.000000000000000000, -0.000000000000000000, -1.000000000000000000 ) ) ;
#141 = EDGE_LOOP ( 'NONE', ( #53, #318, #91, #404 ) ) ;
#142 = VECTOR ( 'NONE', #338, 1000.000000000000000 ) ;
#143 = CIRCLE ( 'NONE', #320, 2.000000000000002220 ) ;
#144 = CARTESIAN_POINT ( 'NONE',  ( 0.000000000000000000, 0.000000000000000000, 0.000000000000000000 ) ) ;
#145 = ORIENTED_EDGE ( 'NONE', *, *, #64, .T. ) ;
#146 = LINE ( 'NONE', #356, #249 ) ;
#147 = ORIENTED_EDGE ( 'NONE', *, *, #352, .T. ) ;
#148 = CARTESIAN_POINT ( 'NONE',  ( 6.599999999999920597, 102.8029224028560122, 8.000000000000000000 ) ) ;
#149 = ORIENTED_EDGE ( 'NONE', *, *, #495, .T. ) ;
#150 = VECTOR ( 'NONE', #479, 1000.000000000000000 ) ;
#151 = VECTOR ( 'NONE', #368, 1000.000000000000000 ) ;
#152 = EDGE_CURVE ( 'NONE', #272, #489, #303, .T. ) ;
#153 = CARTESIAN_POINT ( 'NONE',  ( -0.1767766952966744187, 88.80292240285599803, 3.000000000000000000 ) ) ;
#154 = VERTEX_POINT ( 'NONE', #426 ) ;
#155 = ADVANCED_FACE ( 'NONE', ( #35 ), #381, .F. ) ;
#156 = CARTESIAN_POINT ( 'NONE',  ( 9.971160973325565280, 82.80292240285599803, 8.000000000000000000 ) ) ;
#157 = DIRECTION ( 'NONE',  ( 0.000000000000000000, -1.000000000000000000, 0.000000000000000000 ) ) ;
#158 = CARTESIAN_POINT ( 'NONE',  ( -3.176776695296675168, 88.80292240285599803, 3.000000000000000000 ) ) ;
#159 = EDGE_LOOP ( 'NONE', ( #11, #391, #305, #339 ) ) ;
#160 = VECTOR ( 'NONE', #44, 1000.000000000000000 ) ;
#161 = FACE_OUTER_BOUND ( 'NONE', #494, .T. ) ;
#162 = VECTOR ( 'NONE', #549, 1000.000000000000000 ) ;
#163 = ADVANCED_FACE ( 'NONE', ( #262, #386 ), #562, .T. ) ;
#164 = ORIENTED_EDGE ( 'NONE', *, *, #325, .T. ) ;
#165 = UNCERTAINTY_MEASURE_WITH_UNIT (LENGTH_MEASURE( 1.000000000000000082E-05 ), #263, 'distance_accuracy_value', 'NONE');
#166 = DIRECTION ( 'NONE',  ( 0.000000000000000000, -1.000000000000000000, 0.000000000000000000 ) ) ;
#167 = ORIENTED_EDGE ( 'NONE', *, *, #135, .F. ) ;
#168 = DIRECTION ( 'NONE',  ( 0.000000000000000000, 0.000000000000000000, -1.000000000000000000 ) ) ;
#169 = CARTESIAN_POINT ( 'NONE',  ( -0.1767766952966744187, 88.80292240285599803, 5.000000000000000000 ) ) ;
#170 = DIRECTION ( 'NONE',  ( -0.000000000000000000, 0.000000000000000000, 1.000000000000000000 ) ) ;
#171 = EDGE_CURVE ( 'NONE', #248, #560, #537, .T. ) ;
#172 = VECTOR ( 'NONE', #271, 1000.000000000000000 ) ;
#173 = DIRECTION ( 'NONE',  ( 0.000000000000000000, 0.000000000000000000, 1.000000000000000000 ) ) ;
#174 = CYLINDRICAL_SURFACE ( 'NONE', #542, 3.000000000000000888 ) ;
#175 = DIRECTION ( 'NONE',  ( 0.000000000000000000, 0.000000000000000000, 1.000000000000000000 ) ) ;
#176 = DIRECTION ( 'NONE',  ( 0.000000000000000000, 0.000000000000000000, -1.000000000000000000 ) ) ;
#177 = CARTESIAN_POINT ( 'NONE',  ( -0.1767766952966744187, 88.80292240285599803, 5.000000000000000000 ) ) ;
#178 = VERTEX_POINT ( 'NONE', #186 ) ;
#179 = CARTESIAN_POINT ( 'NONE',  ( 9.971160973325565280, 102.8029224028560122, 0.000000000000000000 ) ) ;
#180 = EDGE_CURVE ( 'NONE', #178, #443, #402, .T. ) ;
#181 = AXIS2_PLACEMENT_3D ( 'NONE', #8, #491, #194 ) ;
#182 = EDGE_LOOP ( 'NONE', ( #246, #539 ) ) ;
#183 = CIRCLE ( 'NONE', #97, 3.000000000000000888 ) ;
#184 = SURFACE_STYLE_USAGE ( .BOTH. , #315 ) ;
#185 = ORIENTED_EDGE ( 'NONE', *, *, #470, .F. ) ;
#186 = CARTESIAN_POINT ( 'NONE',  ( -2.000000000000000000, 110.2740833761816504, 0.000000000000000000 ) ) ;
#187 = ORIENTED_EDGE ( 'NONE', *, *, #86, .F. ) ;
#188 = DIRECTION ( 'NONE',  ( 1.000000000000000000, 0.000000000000000000, 0.000000000000000000 ) ) ;
#189 = ADVANCED_BREP_SHAPE_REPRESENTATION ( '\X2\51498f74652f67b65de6\X0\', ( #201, #413 ), #359 ) ;
#190 = CARTESIAN_POINT ( 'NONE',  ( -10.00000000000000000, 82.80292240285599803, 8.000000000000000000 ) ) ;
#191 = ADVANCED_FACE ( 'NONE', ( #528 ), #406, .F. ) ;
#192 = VERTEX_POINT ( 'NONE', #530 ) ;
#193 = PRODUCT_DEFINITION_SHAPE ( 'NONE', 'NONE',  #396 ) ;
#194 = DIRECTION ( 'NONE',  ( -1.000000000000000000, 0.000000000000000000, 0.000000000000000000 ) ) ;
#195 = ORIENTED_EDGE ( 'NONE', *, *, #212, .F. ) ;
#196 = CARTESIAN_POINT ( 'NONE',  ( 2.499999999999920064, 102.8029224028560122, 8.000000000000000000 ) ) ;
#197 = EDGE_LOOP ( 'NONE', ( #511, #145, #164, #550 ) ) ;
#198 = AXIS2_PLACEMENT_3D ( 'NONE', #299, #340, #512 ) ;
#199 = DIRECTION ( 'NONE',  ( -1.000000000000000000, 0.000000000000000000, 0.000000000000000000 ) ) ;
#200 = ORIENTED_EDGE ( 'NONE', *, *, #472, .F. ) ;
#201 = MANIFOLD_SOLID_BREP ( '\X2\52079664\X0\-\X2\62c94f38\X0\2', #374 ) ;
#202 = DIRECTION ( 'NONE',  ( -0.000000000000000000, 0.000000000000000000, 1.000000000000000000 ) ) ;
#203 = CARTESIAN_POINT ( 'NONE',  ( -10.00000000000000000, 0.000000000000000000, 8.000000000000000000 ) ) ;
#204 = DIRECTION ( 'NONE',  ( 0.000000000000000000, 0.000000000000000000, 1.000000000000000000 ) ) ;
#205 = ORIENTED_EDGE ( 'NONE', *, *, #506, .F. ) ;
#206 = PRESENTATION_LAYER_ASSIGNMENT (  '', '', ( #29 ) ) ;
#207 = CARTESIAN_POINT ( 'NONE',  ( 2.823223304703326608, 88.80292240285599803, 3.000000000000000000 ) ) ;
#208 = VECTOR ( 'NONE', #505, 1000.000000000000000 ) ;
#209 = ORIENTED_EDGE ( 'NONE', *, *, #45, .T. ) ;
#210 = DIRECTION ( 'NONE',  ( 0.000000000000000000, 1.000000000000000000, -0.000000000000000000 ) ) ;
#211 = CARTESIAN_POINT ( 'NONE',  ( -3.176776695296675168, 88.80292240285599803, 3.000000000000000000 ) ) ;
#212 = EDGE_CURVE ( 'NONE', #85, #407, #421, .T. ) ;
#213 = CARTESIAN_POINT ( 'NONE',  ( -0.1767766952966744187, 88.80292240285599803, 3.000000000000000000 ) ) ;
#214 = DIRECTION ( 'NONE',  ( 1.000000000000000000, 0.000000000000000000, 0.000000000000000000 ) ) ;
#215 = FACE_OUTER_BOUND ( 'NONE', #451, .T. ) ;
#216 = DIRECTION ( 'NONE',  ( 1.000000000000000000, 0.000000000000000000, 0.000000000000000000 ) ) ;
#217 = ORIENTED_EDGE ( 'NONE', *, *, #555, .F. ) ;
#218 = DIRECTION ( 'NONE',  ( -0.000000000000000000, -0.000000000000000000, 1.000000000000000000 ) ) ;
#219 = CARTESIAN_POINT ( 'NONE',  ( 9.971160973325565280, 102.8029224028560122, 8.000000000000000000 ) ) ;
#220 = LINE ( 'NONE', #478, #422 ) ;
#221 = CARTESIAN_POINT ( 'NONE',  ( -0.1767766952966744187, 88.80292240285599803, 5.000000000000000000 ) ) ;
#222 = VERTEX_POINT ( 'NONE', #484 ) ;
#223 = AXIS2_PLACEMENT_3D ( 'NONE', #92, #95, #395 ) ;
#224 = DIRECTION ( 'NONE',  ( 0.000000000000000000, 0.000000000000000000, 1.000000000000000000 ) ) ;
#225 = CYLINDRICAL_SURFACE ( 'NONE', #104, 7.471160973325645216 ) ;
#226 = ORIENTED_EDGE ( 'NONE', *, *, #292, .F. ) ;
#227 = EDGE_CURVE ( 'NONE', #239, #102, #146, .T. ) ;
#228 =( NAMED_UNIT ( * ) SI_UNIT ( $, .STERADIAN. ) SOLID_ANGLE_UNIT ( ) );
#229 = PRODUCT ( '\X2\51498f74652f67b65de6\X0\', '\X2\51498f74652f67b65de6\X0\', '', ( #312 ) ) ;
#230 = ORIENTED_EDGE ( 'NONE', *, *, #548, .F. ) ;
#231 = SHAPE_DEFINITION_REPRESENTATION ( #193, #189 ) ;
#232 = DIRECTION ( 'NONE',  ( -1.000000000000000000, 0.000000000000000000, 0.000000000000000000 ) ) ;
#233 = EDGE_LOOP ( 'NONE', ( #522, #448 ) ) ;
#234 = CIRCLE ( 'NONE', #403, 3.000000000000000888 ) ;
#235 = AXIS2_PLACEMENT_3D ( 'NONE', #384, #520, #291 ) ;
#236 = FILL_AREA_STYLE ('',( #100 ) ) ;
#237 = ORIENTED_EDGE ( 'NONE', *, *, #352, .F. ) ;
#238 = CARTESIAN_POINT ( 'NONE',  ( 0.000000000000000000, 82.80292240285599803, 8.000000000000000000 ) ) ;
#239 = VERTEX_POINT ( 'NONE', #148 ) ;
#240 = CARTESIAN_POINT ( 'NONE',  ( -10.00000000000000000, 0.000000000000000000, 8.000000000000000000 ) ) ;
#241 = EDGE_LOOP ( 'NONE', ( #20, #532, #509, #15 ) ) ;
#242 = CARTESIAN_POINT ( 'NONE',  ( 1.823223304703327718, 88.80292240285599803, 8.000000000000000000 ) ) ;
#243 = DIRECTION ( 'NONE',  ( -1.000000000000000000, 0.000000000000000000, 0.000000000000000000 ) ) ;
#244 = EDGE_CURVE ( 'NONE', #543, #102, #3, .T. ) ;
#245 = LINE ( 'NONE', #238, #441 ) ;
#246 = ORIENTED_EDGE ( 'NONE', *, *, #334, .F. ) ;
#247 = DIRECTION ( 'NONE',  ( 1.000000000000000000, 0.000000000000000000, -0.000000000000000000 ) ) ;
#248 = VERTEX_POINT ( 'NONE', #10 ) ;
#249 = VECTOR ( 'NONE', #138, 1000.000000000000000 ) ;
#250 = FACE_OUTER_BOUND ( 'NONE', #159, .T. ) ;
#251 = ADVANCED_FACE ( 'NONE', ( #58, #311, #482 ), #354, .F. ) ;
#252 = LINE ( 'NONE', #43, #383 ) ;
#253 = ADVANCED_FACE ( 'NONE', ( #49 ), #225, .T. ) ;
#254 = DIRECTION ( 'NONE',  ( -0.000000000000000000, -0.000000000000000000, 1.000000000000000000 ) ) ;
#255 = FACE_BOUND ( 'NONE', #502, .T. ) ;
#256 = DIRECTION ( 'NONE',  ( -0.000000000000000000, -0.000000000000000000, 1.000000000000000000 ) ) ;
#257 = CARTESIAN_POINT ( 'NONE',  ( 2.499999999999920064, 102.8029224028560122, 8.000000000000000000 ) ) ;
#258 = VECTOR ( 'NONE', #157, 1000.000000000000000 ) ;
#259 = FACE_OUTER_BOUND ( 'NONE', #331, .T. ) ;
#260 = VERTEX_POINT ( 'NONE', #264 ) ;
#261 = LINE ( 'NONE', #564, #47 ) ;
#262 = FACE_BOUND ( 'NONE', #182, .T. ) ;
#263 =( LENGTH_UNIT ( ) NAMED_UNIT ( * ) SI_UNIT ( .MILLI., .METRE. ) );
#264 = CARTESIAN_POINT ( 'NONE',  ( 9.971160973325565280, 82.80292240285599803, 8.000000000000000000 ) ) ;
#265 = DIRECTION ( 'NONE',  ( -0.000000000000000000, 0.000000000000000000, 1.000000000000000000 ) ) ;
#266 = VERTEX_POINT ( 'NONE', #488 ) ;
#267 = CIRCLE ( 'NONE', #276, 3.000000000000000888 ) ;
#268 = EDGE_CURVE ( 'NONE', #266, #26, #46, .T. ) ;
#269 = DIRECTION ( 'NONE',  ( -0.000000000000000000, 0.000000000000000000, 1.000000000000000000 ) ) ;
#270 = ORIENTED_EDGE ( 'NONE', *, *, #410, .F. ) ;
#271 = DIRECTION ( 'NONE',  ( -0.000000000000000000, -0.000000000000000000, 1.000000000000000000 ) ) ;
#272 = VERTEX_POINT ( 'NONE', #190 ) ;
#273 = CARTESIAN_POINT ( 'NONE',  ( -0.1767766952966744187, 88.80292240285599803, 3.000000000000000000 ) ) ;
#274 = EDGE_LOOP ( 'NONE', ( #73, #209 ) ) ;
#275 = CIRCLE ( 'NONE', #285, 3.000000000000000888 ) ;
#276 = AXIS2_PLACEMENT_3D ( 'NONE', #468, #176, #436 ) ;
#277 = ADVANCED_FACE ( 'NONE', ( #313 ), #55, .F. ) ;
#278 = DIRECTION ( 'NONE',  ( 1.000000000000000000, 0.000000000000000000, 0.000000000000000000 ) ) ;
#279 = ORIENTED_EDGE ( 'NONE', *, *, #325, .F. ) ;
#280 = DIRECTION ( 'NONE',  ( 1.000000000000000000, 0.000000000000000000, 0.000000000000000000 ) ) ;
#281 = ORIENTED_EDGE ( 'NONE', *, *, #244, .F. ) ;
#282 = DIRECTION ( 'NONE',  ( -0.000000000000000000, 0.000000000000000000, -1.000000000000000000 ) ) ;
#283 = ORIENTED_EDGE ( 'NONE', *, *, #334, .T. ) ;
#284 = EDGE_CURVE ( 'NONE', #139, #2, #66, .T. ) ;
#285 = AXIS2_PLACEMENT_3D ( 'NONE', #177, #521, #130 ) ;
#286 = VECTOR ( 'NONE', #310, 1000.000000000000000 ) ;
#287 = CARTESIAN_POINT ( 'NONE',  ( 9.971160973325565280, 82.80292240285599803, 0.000000000000000000 ) ) ;
#288 = ORIENTED_EDGE ( 'NONE', *, *, #495, .F. ) ;
#289 = LINE ( 'NONE', #207, #208 ) ;
#290 = VERTEX_POINT ( 'NONE', #321 ) ;
#291 = DIRECTION ( 'NONE',  ( 0.000000000000000000, 0.000000000000000000, 1.000000000000000000 ) ) ;
#292 = EDGE_CURVE ( 'NONE', #260, #412, #363, .T. ) ;
#293 = ORIENTED_EDGE ( 'NONE', *, *, #431, .T. ) ;
#294 = CIRCLE ( 'NONE', #198, 3.000000000000000888 ) ;
#295 = LINE ( 'NONE', #425, #516 ) ;
#296 = DIRECTION ( 'NONE',  ( -0.000000000000000000, -0.000000000000000000, -1.000000000000000000 ) ) ;
#297 = DIRECTION ( 'NONE',  ( 0.000000000000000000, 0.000000000000000000, -1.000000000000000000 ) ) ;
#298 = DIRECTION ( 'NONE',  ( 1.000000000000000000, 0.000000000000000000, 0.000000000000000000 ) ) ;
#299 = CARTESIAN_POINT ( 'NONE',  ( -0.1767766952966744187, 88.80292240285599803, 5.000000000000000000 ) ) ;
#300 = DIRECTION ( 'NONE',  ( -0.000000000000000000, 0.000000000000000000, 1.000000000000000000 ) ) ;
#301 = PLANE ( 'NONE',  #114 ) ;
#302 = AXIS2_PLACEMENT_3D ( 'NONE', #82, #256, #216 ) ;
#303 = LINE ( 'NONE', #473, #150 ) ;
#304 = VECTOR ( 'NONE', #62, 1000.000000000000000 ) ;
#305 = ORIENTED_EDGE ( 'NONE', *, *, #490, .F. ) ;
#306 = CARTESIAN_POINT ( 'NONE',  ( 2.499999999999920064, 102.8029224028560122, 0.000000000000000000 ) ) ;
#307 = APPLICATION_CONTEXT ( 'automotive_design' ) ;
#308 = EDGE_CURVE ( 'NONE', #17, #2, #477, .T. ) ;
#309 = EDGE_LOOP ( 'NONE', ( #554, #417, #9, #440, #415, #28 ) ) ;
#310 = DIRECTION ( 'NONE',  ( -1.000000000000000000, 0.000000000000000000, 0.000000000000000000 ) ) ;
#311 = FACE_OUTER_BOUND ( 'NONE', #348, .T. ) ;
#312 = PRODUCT_CONTEXT ( 'NONE', #307, 'mechanical' ) ;
#313 = FACE_OUTER_BOUND ( 'NONE', #96, .T. ) ;
#314 = ORIENTED_EDGE ( 'NONE', *, *, #513, .F. ) ;
#315 = SURFACE_SIDE_STYLE ('',( #14 ) ) ;
#316 = ORIENTED_EDGE ( 'NONE', *, *, #30, .T. ) ;
#317 = DIRECTION ( 'NONE',  ( 0.000000000000000000, 0.000000000000000000, -1.000000000000000000 ) ) ;
#318 = ORIENTED_EDGE ( 'NONE', *, *, #83, .F. ) ;
#319 = AXIS2_PLACEMENT_3D ( 'NONE', #475, #346, #90 ) ;
#320 = AXIS2_PLACEMENT_3D ( 'NONE', #213, #389, #474 ) ;
#321 = CARTESIAN_POINT ( 'NONE',  ( 2.823223304703326608, 88.80292240285599803, 8.000000000000000000 ) ) ;
#322 = ORIENTED_EDGE ( 'NONE', *, *, #513, .T. ) ;
#323 = CARTESIAN_POINT ( 'NONE',  ( -2.176776695296676500, 88.80292240285599803, 8.000000000000000000 ) ) ;
#324 = CARTESIAN_POINT ( 'NONE',  ( -2.176776695296676500, 88.80292240285599803, 3.000000000000000000 ) ) ;
#325 = EDGE_CURVE ( 'NONE', #192, #17, #541, .T. ) ;
#326 = CARTESIAN_POINT ( 'NONE',  ( -0.1767766952966744187, 88.80292240285599803, 5.000000000000000000 ) ) ;
#327 = FACE_OUTER_BOUND ( 'NONE', #563, .T. ) ;
#328 = VECTOR ( 'NONE', #127, 1000.000000000000000 ) ;
#329 = VECTOR ( 'NONE', #16, 1000.000000000000000 ) ;
#330 = CARTESIAN_POINT ( 'NONE',  ( -0.1767766952966744187, 88.80292240285599803, 3.000000000000000000 ) ) ;
#331 = EDGE_LOOP ( 'NONE', ( #99, #101, #118, #476 ) ) ;
#332 = CARTESIAN_POINT ( 'NONE',  ( -0.1767766952966744187, 88.80292240285599803, 3.000000000000000000 ) ) ;
#333 = ORIENTED_EDGE ( 'NONE', *, *, #135, .T. ) ;
#334 = EDGE_CURVE ( 'NONE', #192, #139, #452, .T. ) ;
#335 = DIRECTION ( 'NONE',  ( 0.000000000000000000, 0.000000000000000000, 1.000000000000000000 ) ) ;
#336 = AXIS2_PLACEMENT_3D ( 'NONE', #169, #173, #214 ) ;
#337 = CARTESIAN_POINT ( 'NONE',  ( -0.1767766952966744187, 88.80292240285599803, 0.000000000000000000 ) ) ;
#338 = DIRECTION ( 'NONE',  ( -0.000000000000000000, -0.000000000000000000, -1.000000000000000000 ) ) ;
#339 = ORIENTED_EDGE ( 'NONE', *, *, #128, .T. ) ;
#340 = DIRECTION ( 'NONE',  ( 0.000000000000000000, 0.000000000000000000, 1.000000000000000000 ) ) ;
#341 = DIRECTION ( 'NONE',  ( 1.000000000000000000, 0.000000000000000000, 0.000000000000000000 ) ) ;
#342 = ADVANCED_FACE ( 'NONE', ( #501, #414 ), #503, .T. ) ;
#343 = DIRECTION ( 'NONE',  ( -1.000000000000000000, 0.000000000000000000, 0.000000000000000000 ) ) ;
#344 = CARTESIAN_POINT ( 'NONE',  ( -2.000000000000000000, 102.2740833761816504, 0.000000000000000000 ) ) ;
#345 =( GEOMETRIC_REPRESENTATION_CONTEXT ( 3 ) GLOBAL_UNCERTAINTY_ASSIGNED_CONTEXT ( ( #87 ) ) GLOBAL_UNIT_ASSIGNED_CONTEXT ( ( #12, #493, #52 ) ) REPRESENTATION_CONTEXT ( 'NONE', 'WORKASPACE' ) );
#346 = DIRECTION ( 'NONE',  ( 0.000000000000000000, -1.000000000000000000, 0.000000000000000000 ) ) ;
#347 = AXIS2_PLACEMENT_3D ( 'NONE', #419, #453, #370 ) ;
#348 = EDGE_LOOP ( 'NONE', ( #61, #378, #217, #485, #200, #535 ) ) ;
#349 = EDGE_CURVE ( 'NONE', #51, #543, #110, .T. ) ;
#350 = PRESENTATION_STYLE_ASSIGNMENT (( #184 ) ) ;
#351 = ORIENTED_EDGE ( 'NONE', *, *, #171, .T. ) ;
#352 = EDGE_CURVE ( 'NONE', #85, #527, #289, .T. ) ;
#353 = CARTESIAN_POINT ( 'NONE',  ( -3.176776695296675168, 88.80292240285599803, 8.000000000000000000 ) ) ;
#354 = PLANE ( 'NONE',  #540 ) ;
#355 = EDGE_LOOP ( 'NONE', ( #314, #230 ) ) ;
#356 = CARTESIAN_POINT ( 'NONE',  ( 6.599999999999920597, 102.8029224028560122, 8.000000000000000000 ) ) ;
#357 = CIRCLE ( 'NONE', #112, 3.000000000000000888 ) ;
#358 = ORIENTED_EDGE ( 'NONE', *, *, #308, .F. ) ;
#359 =( GEOMETRIC_REPRESENTATION_CONTEXT ( 3 ) GLOBAL_UNCERTAINTY_ASSIGNED_CONTEXT ( ( #165 ) ) GLOBAL_UNIT_ASSIGNED_CONTEXT ( ( #263, #48, #228 ) ) REPRESENTATION_CONTEXT ( 'NONE', 'WORKASPACE' ) );
#360 = CARTESIAN_POINT ( 'NONE',  ( -3.176776695296675168, 88.80292240285599803, 5.000000000000000000 ) ) ;
#361 = EDGE_LOOP ( 'NONE', ( #454, #401 ) ) ;
#362 = ORIENTED_EDGE ( 'NONE', *, *, #30, .F. ) ;
#363 = LINE ( 'NONE', #156, #552 ) ;
#364 = ORIENTED_EDGE ( 'NONE', *, *, #152, .F. ) ;
#365 = AXIS2_PLACEMENT_3D ( 'NONE', #565, #254, #84 ) ;
#366 = VECTOR ( 'NONE', #508, 1000.000000000000000 ) ;
#367 = ADVANCED_FACE ( 'NONE', ( #70 ), #376, .F. ) ;
#368 = DIRECTION ( 'NONE',  ( 1.000000000000000000, 0.000000000000000000, 0.000000000000000000 ) ) ;
#369 = CARTESIAN_POINT ( 'NONE',  ( 1.823223304703327718, 88.80292240285599803, 3.000000000000000000 ) ) ;
#370 = DIRECTION ( 'NONE',  ( 1.000000000000000000, 0.000000000000000000, 0.000000000000000000 ) ) ;
#371 = FACE_OUTER_BOUND ( 'NONE', #399, .T. ) ;
#372 = DIRECTION ( 'NONE',  ( -1.000000000000000000, 0.000000000000000000, 0.000000000000000000 ) ) ;
#373 = ORIENTED_EDGE ( 'NONE', *, *, #446, .F. ) ;
#374 = CLOSED_SHELL ( 'NONE', ( #155, #21, #24, #455, #191, #481, #253, #74, #367, #392, #277, #531, #251, #428, #439, #342, #50, #163 ) ) ;
#375 = AXIS2_PLACEMENT_3D ( 'NONE', #332, #168, #465 ) ;
#376 = PLANE ( 'NONE',  #467 ) ;
#377 = EDGE_CURVE ( 'NONE', #108, #483, #57, .T. ) ;
#378 = ORIENTED_EDGE ( 'NONE', *, *, #93, .T. ) ;
#379 = DIRECTION ( 'NONE',  ( 1.000000000000000000, 0.000000000000000000, 0.000000000000000000 ) ) ;
#380 = CARTESIAN_POINT ( 'NONE',  ( -2.000000000000000000, 110.2740833761816504, 8.000000000000000000 ) ) ;
#381 = CYLINDRICAL_SURFACE ( 'NONE', #302, 3.000000000000000888 ) ;
#382 = CIRCLE ( 'NONE', #460, 4.099999999999999645 ) ;
#383 = VECTOR ( 'NONE', #75, 1000.000000000000000 ) ;
#384 = CARTESIAN_POINT ( 'NONE',  ( 9.971160973325565280, 0.000000000000000000, 8.000000000000000000 ) ) ;
#385 = EDGE_CURVE ( 'NONE', #443, #445, #394, .T. ) ;
#386 = FACE_OUTER_BOUND ( 'NONE', #233, .T. ) ;
#387 = LINE ( 'NONE', #429, #286 ) ;
#388 = CARTESIAN_POINT ( 'NONE',  ( -1.600000000000080025, 102.8029224028560122, 8.000000000000000000 ) ) ;
#389 = DIRECTION ( 'NONE',  ( 0.000000000000000000, 0.000000000000000000, -1.000000000000000000 ) ) ;
#390 = CARTESIAN_POINT ( 'NONE',  ( 2.499999999999920064, 102.8029224028560122, 8.000000000000000000 ) ) ;
#391 = ORIENTED_EDGE ( 'NONE', *, *, #180, .T. ) ;
#392 = ADVANCED_FACE ( 'NONE', ( #161 ), #60, .F. ) ;
#393 = CIRCLE ( 'NONE', #39, 8.000000000000000000 ) ;
#394 = CIRCLE ( 'NONE', #347, 8.000000000000000000 ) ;
#395 = DIRECTION ( 'NONE',  ( 1.000000000000000000, 0.000000000000000000, 0.000000000000000000 ) ) ;
#396 = PRODUCT_DEFINITION ( 'æœ', '', #487, #427 ) ;
#397 = ORIENTED_EDGE ( 'NONE', *, *, #7, .F. ) ;
#398 = DIRECTION ( 'NONE',  ( 0.000000000000000000, 0.000000000000000000, -1.000000000000000000 ) ) ;
#399 = EDGE_LOOP ( 'NONE', ( #56, #68, #281, #492 ) ) ;
#400 = DIRECTION ( 'NONE',  ( -1.000000000000000000, 0.000000000000000000, 0.000000000000000000 ) ) ;
#401 = ORIENTED_EDGE ( 'NONE', *, *, #212, .T. ) ;
#402 = LINE ( 'NONE', #449, #551 ) ;
#403 = AXIS2_PLACEMENT_3D ( 'NONE', #557, #335, #341 ) ;
#404 = ORIENTED_EDGE ( 'NONE', *, *, #292, .T. ) ;
#405 = AXIS2_PLACEMENT_3D ( 'NONE', #113, #463, #546 ) ;
#406 = CYLINDRICAL_SURFACE ( 'NONE', #181, 2.000000000000002220 ) ;
#407 = VERTEX_POINT ( 'NONE', #158 ) ;
#408 = DIRECTION ( 'NONE',  ( 0.000000000000000000, 0.000000000000000000, -1.000000000000000000 ) ) ;
#409 = ORIENTED_EDGE ( 'NONE', *, *, #385, .F. ) ;
#410 = EDGE_CURVE ( 'NONE', #445, #154, #107, .T. ) ;
#411 = DIRECTION ( 'NONE',  ( 1.000000000000000000, 0.000000000000000000, 0.000000000000000000 ) ) ;
#412 = VERTEX_POINT ( 'NONE', #287 ) ;
#413 = AXIS2_PLACEMENT_3D ( 'NONE', #536, #224, #188 ) ;
#414 = FACE_OUTER_BOUND ( 'NONE', #361, .T. ) ;
#415 = ORIENTED_EDGE ( 'NONE', *, *, #69, .T. ) ;
#416 = CARTESIAN_POINT ( 'NONE',  ( -2.000000000000000000, 102.2740833761816504, 8.000000000000000000 ) ) ;
#417 = ORIENTED_EDGE ( 'NONE', *, *, #385, .T. ) ;
#418 = EDGE_CURVE ( 'NONE', #272, #260, #245, .T. ) ;
#419 = CARTESIAN_POINT ( 'NONE',  ( -2.000000000000000000, 102.2740833761816504, 8.000000000000000000 ) ) ;
#420 = ORIENTED_EDGE ( 'NONE', *, *, #410, .T. ) ;
#421 = CIRCLE ( 'NONE', #496, 3.000000000000000888 ) ;
#422 = VECTOR ( 'NONE', #210, 1000.000000000000000 ) ;
#423 = FACE_OUTER_BOUND ( 'NONE', #309, .T. ) ;
#424 = CARTESIAN_POINT ( 'NONE',  ( 2.823223304703326608, 88.80292240285599803, 3.000000000000000000 ) ) ;
#425 = CARTESIAN_POINT ( 'NONE',  ( 2.823223304703326608, 88.80292240285599803, 5.000000000000000000 ) ) ;
#426 = CARTESIAN_POINT ( 'NONE',  ( -10.00000000000000000, 102.2740833761816504, 0.000000000000000000 ) ) ;
#427 = PRODUCT_DEFINITION_CONTEXT ( 'detailed design', #117, 'design' ) ;
#428 = ADVANCED_FACE ( 'NONE', ( #116 ), #497, .T. ) ;
#429 = CARTESIAN_POINT ( 'NONE',  ( 0.000000000000000000, 110.2740833761816504, 0.000000000000000000 ) ) ;
#430 = DIRECTION ( 'NONE',  ( -0.000000000000000000, 0.000000000000000000, 1.000000000000000000 ) ) ;
#431 = EDGE_CURVE ( 'NONE', #489, #412, #27, .T. ) ;
#432 = CIRCLE ( 'NONE', #76, 4.099999999999999645 ) ;
#433 = CIRCLE ( 'NONE', #31, 4.099999999999999645 ) ;
#434 = DIRECTION ( 'NONE',  ( 1.000000000000000000, 0.000000000000000000, 0.000000000000000000 ) ) ;
#435 = PLANE ( 'NONE',  #319 ) ;
#436 = DIRECTION ( 'NONE',  ( -1.000000000000000000, 0.000000000000000000, 0.000000000000000000 ) ) ;
#437 = DIRECTION ( 'NONE',  ( 1.000000000000000000, 0.000000000000000000, -0.000000000000000000 ) ) ;
#438 = EDGE_LOOP ( 'NONE', ( #125, #167 ) ) ;
#439 = ADVANCED_FACE ( 'NONE', ( #544 ), #174, .F. ) ;
#440 = ORIENTED_EDGE ( 'NONE', *, *, #418, .T. ) ;
#441 = VECTOR ( 'NONE', #280, 1000.000000000000000 ) ;
#442 = DIRECTION ( 'NONE',  ( 1.000000000000000000, 0.000000000000000000, 0.000000000000000000 ) ) ;
#443 = VERTEX_POINT ( 'NONE', #380 ) ;
#444 = DIRECTION ( 'NONE',  ( 1.000000000000000000, 0.000000000000000000, 0.000000000000000000 ) ) ;
#445 = VERTEX_POINT ( 'NONE', #518 ) ;
#446 = EDGE_CURVE ( 'NONE', #248, #222, #294, .T. ) ;
#447 = CARTESIAN_POINT ( 'NONE',  ( 2.499999999999920064, 102.8029224028560122, 8.000000000000000000 ) ) ;
#448 = ORIENTED_EDGE ( 'NONE', *, *, #446, .T. ) ;
#449 = CARTESIAN_POINT ( 'NONE',  ( -2.000000000000000000, 110.2740833761816504, 8.000000000000000000 ) ) ;
#450 = CIRCLE ( 'NONE', #336, 2.000000000000002220 ) ;
#451 = EDGE_LOOP ( 'NONE', ( #283, #538, #149, #279 ) ) ;
#452 = CIRCLE ( 'NONE', #88, 2.000000000000002220 ) ;
#453 = DIRECTION ( 'NONE',  ( -0.000000000000000000, 0.000000000000000000, 1.000000000000000000 ) ) ;
#454 = ORIENTED_EDGE ( 'NONE', *, *, #470, .T. ) ;
#455 = ADVANCED_FACE ( 'NONE', ( #215 ), #79, .F. ) ;
#456 = DIRECTION ( 'NONE',  ( -0.000000000000000000, -0.000000000000000000, -1.000000000000000000 ) ) ;
#457 = ORIENTED_EDGE ( 'NONE', *, *, #418, .F. ) ;
#458 = CARTESIAN_POINT ( 'NONE',  ( -1.600000000000080025, 102.8029224028560122, 8.000000000000000000 ) ) ;
#459 = ORIENTED_EDGE ( 'NONE', *, *, #500, .T. ) ;
#460 = AXIS2_PLACEMENT_3D ( 'NONE', #390, #430, #526 ) ;
#461 = DIRECTION ( 'NONE',  ( 0.000000000000000000, 0.000000000000000000, -1.000000000000000000 ) ) ;
#462 = DIRECTION ( 'NONE',  ( -0.000000000000000000, -0.000000000000000000, -1.000000000000000000 ) ) ;
#463 = DIRECTION ( 'NONE',  ( 0.000000000000000000, 1.000000000000000000, 0.000000000000000000 ) ) ;
#464 = VERTEX_POINT ( 'NONE', #121 ) ;
#465 = DIRECTION ( 'NONE',  ( -1.000000000000000000, 0.000000000000000000, 0.000000000000000000 ) ) ;
#466 = ORIENTED_EDGE ( 'NONE', *, *, #45, .F. ) ;
#467 = AXIS2_PLACEMENT_3D ( 'NONE', #240, #247, #282 ) ;
#468 = CARTESIAN_POINT ( 'NONE',  ( -0.1767766952966744187, 88.80292240285599803, 0.000000000000000000 ) ) ;
#469 = DIRECTION ( 'NONE',  ( 0.000000000000000000, -0.000000000000000000, -1.000000000000000000 ) ) ;
#470 = EDGE_CURVE ( 'NONE', #407, #85, #67, .T. ) ;
#471 = DIRECTION ( 'NONE',  ( -0.000000000000000000, -0.000000000000000000, -1.000000000000000000 ) ) ;
#472 = EDGE_CURVE ( 'NONE', #412, #108, #220, .T. ) ;
#473 = CARTESIAN_POINT ( 'NONE',  ( -10.00000000000000000, 82.80292240285599803, 8.000000000000000000 ) ) ;
#474 = DIRECTION ( 'NONE',  ( -1.000000000000000000, 0.000000000000000000, 0.000000000000000000 ) ) ;
#475 = CARTESIAN_POINT ( 'NONE',  ( 0.000000000000000000, 110.2740833761816504, 8.000000000000000000 ) ) ;
#476 = ORIENTED_EDGE ( 'NONE', *, *, #109, .T. ) ;
#477 = CIRCLE ( 'NONE', #124, 2.000000000000002220 ) ;
#478 = CARTESIAN_POINT ( 'NONE',  ( 9.971160973325565280, 0.000000000000000000, 0.000000000000000000 ) ) ;
#479 = DIRECTION ( 'NONE',  ( -0.000000000000000000, -0.000000000000000000, -1.000000000000000000 ) ) ;
#480 = ORIENTED_EDGE ( 'NONE', *, *, #548, .T. ) ;
#481 = ADVANCED_FACE ( 'NONE', ( #34 ), #561, .F. ) ;
#482 = FACE_BOUND ( 'NONE', #274, .T. ) ;
#483 = VERTEX_POINT ( 'NONE', #129 ) ;
#484 = CARTESIAN_POINT ( 'NONE',  ( 2.823223304703326608, 88.80292240285599803, 5.000000000000000000 ) ) ;
#485 = ORIENTED_EDGE ( 'NONE', *, *, #377, .F. ) ;
#486 = MECHANICAL_DESIGN_GEOMETRIC_PRESENTATION_REPRESENTATION (  '', ( #29 ), #345 ) ;
#487 = PRODUCT_DEFINITION_FORMATION_WITH_SPECIFIED_SOURCE ( 'ä»', '', #229, .NOT_KNOWN. ) ;
#488 = CARTESIAN_POINT ( 'NONE',  ( 9.971160973325565280, 102.8029224028560122, 8.000000000000000000 ) ) ;
#489 = VERTEX_POINT ( 'NONE', #89 ) ;
#490 = EDGE_CURVE ( 'NONE', #26, #443, #252, .T. ) ;
#491 = DIRECTION ( 'NONE',  ( -0.000000000000000000, -0.000000000000000000, -1.000000000000000000 ) ) ;
#492 = ORIENTED_EDGE ( 'NONE', *, *, #349, .F. ) ;
#493 =( NAMED_UNIT ( * ) PLANE_ANGLE_UNIT ( ) SI_UNIT ( $, .RADIAN. ) );
#494 = EDGE_LOOP ( 'NONE', ( #293, #226, #457, #499 ) ) ;
#495 = EDGE_CURVE ( 'NONE', #2, #17, #143, .T. ) ;
#496 = AXIS2_PLACEMENT_3D ( 'NONE', #273, #398, #400 ) ;
#497 = CYLINDRICAL_SURFACE ( 'NONE', #525, 8.000000000000000000 ) ;
#498 = AXIS2_PLACEMENT_3D ( 'NONE', #330, #408, #25 ) ;
#499 = ORIENTED_EDGE ( 'NONE', *, *, #152, .T. ) ;
#500 = EDGE_CURVE ( 'NONE', #154, #489, #261, .T. ) ;
#501 = FACE_BOUND ( 'NONE', #106, .T. ) ;
#502 = EDGE_LOOP ( 'NONE', ( #529, #362 ) ) ;
#503 = PLANE ( 'NONE',  #498 ) ;
#504 = CARTESIAN_POINT ( 'NONE',  ( -0.1767766952966744187, 88.80292240285599803, 3.000000000000000000 ) ) ;
#505 = DIRECTION ( 'NONE',  ( -0.000000000000000000, -0.000000000000000000, -1.000000000000000000 ) ) ;
#506 = EDGE_CURVE ( 'NONE', #222, #290, #295, .T. ) ;
#507 = CYLINDRICAL_SURFACE ( 'NONE', #18, 4.100000000000000533 ) ;
#508 = DIRECTION ( 'NONE',  ( 0.000000000000000000, 0.000000000000000000, -1.000000000000000000 ) ) ;
#509 = ORIENTED_EDGE ( 'NONE', *, *, #268, .F. ) ;
#510 = CARTESIAN_POINT ( 'NONE',  ( 2.823223304703326608, 88.80292240285599803, 0.000000000000000000 ) ) ;
#511 = ORIENTED_EDGE ( 'NONE', *, *, #284, .F. ) ;
#512 = DIRECTION ( 'NONE',  ( 1.000000000000000000, 0.000000000000000000, 0.000000000000000000 ) ) ;
#513 = EDGE_CURVE ( 'NONE', #464, #527, #267, .T. ) ;
#514 = LINE ( 'NONE', #37, #160 ) ;
#515 = ORIENTED_EDGE ( 'NONE', *, *, #93, .F. ) ;
#516 = VECTOR ( 'NONE', #218, 1000.000000000000000 ) ;
#517 = PRODUCT_RELATED_PRODUCT_CATEGORY ( 'part', '', ( #229 ) ) ;
#518 = CARTESIAN_POINT ( 'NONE',  ( -10.00000000000000000, 102.2740833761816504, 8.000000000000000000 ) ) ;
#519 = CARTESIAN_POINT ( 'NONE',  ( 6.599999999999920597, 102.8029224028560122, 0.000000000000000000 ) ) ;
#520 = DIRECTION ( 'NONE',  ( -1.000000000000000000, 0.000000000000000000, 0.000000000000000000 ) ) ;
#521 = DIRECTION ( 'NONE',  ( 0.000000000000000000, 0.000000000000000000, 1.000000000000000000 ) ) ;
#522 = ORIENTED_EDGE ( 'NONE', *, *, #40, .T. ) ;
#523 = DIRECTION ( 'NONE',  ( -1.000000000000000000, 0.000000000000000000, 0.000000000000000000 ) ) ;
#524 = CARTESIAN_POINT ( 'NONE',  ( -0.1767766952966744187, 88.80292240285599803, 8.000000000000000000 ) ) ;
#525 = AXIS2_PLACEMENT_3D ( 'NONE', #416, #317, #199 ) ;
#526 = DIRECTION ( 'NONE',  ( 1.000000000000000000, 0.000000000000000000, 0.000000000000000000 ) ) ;
#527 = VERTEX_POINT ( 'NONE', #510 ) ;
#528 = FACE_OUTER_BOUND ( 'NONE', #197, .T. ) ;
#529 = ORIENTED_EDGE ( 'NONE', *, *, #533, .F. ) ;
#530 = CARTESIAN_POINT ( 'NONE',  ( -2.176776695296676500, 88.80292240285599803, 5.000000000000000000 ) ) ;
#531 = ADVANCED_FACE ( 'NONE', ( #126, #423, #255 ), #301, .T. ) ;
#532 = ORIENTED_EDGE ( 'NONE', *, *, #128, .F. ) ;
#533 = EDGE_CURVE ( 'NONE', #51, #239, #433, .T. ) ;
#534 = VECTOR ( 'NONE', #296, 1000.000000000000000 ) ;
#535 = ORIENTED_EDGE ( 'NONE', *, *, #431, .F. ) ;
#536 = CARTESIAN_POINT ( 'NONE',  ( 0.000000000000000000, 0.000000000000000000, 0.000000000000000000 ) ) ;
#537 = LINE ( 'NONE', #360, #172 ) ;
#538 = ORIENTED_EDGE ( 'NONE', *, *, #284, .T. ) ;
#539 = ORIENTED_EDGE ( 'NONE', *, *, #64, .F. ) ;
#540 = AXIS2_PLACEMENT_3D ( 'NONE', #144, #265, #442 ) ;
#541 = LINE ( 'NONE', #323, #304 ) ;
#542 = AXIS2_PLACEMENT_3D ( 'NONE', #131, #471, #119 ) ;
#543 = VERTEX_POINT ( 'NONE', #41 ) ;
#544 = FACE_OUTER_BOUND ( 'NONE', #547, .T. ) ;
#545 = LINE ( 'NONE', #203, #258 ) ;
#546 = DIRECTION ( 'NONE',  ( 0.000000000000000000, -0.000000000000000000, 1.000000000000000000 ) ) ;
#547 = EDGE_LOOP ( 'NONE', ( #237, #185, #38, #322 ) ) ;
#548 = EDGE_CURVE ( 'NONE', #527, #464, #183, .T. ) ;
#549 = DIRECTION ( 'NONE',  ( -0.000000000000000000, -0.000000000000000000, -1.000000000000000000 ) ) ;
#550 = ORIENTED_EDGE ( 'NONE', *, *, #308, .T. ) ;
#551 = VECTOR ( 'NONE', #5, 1000.000000000000000 ) ;
#552 = VECTOR ( 'NONE', #456, 1000.000000000000000 ) ;
#553 = CARTESIAN_POINT ( 'NONE',  ( -0.000000000000000000, 82.80292240285599803, 0.000000000000000000 ) ) ;
#554 = ORIENTED_EDGE ( 'NONE', *, *, #490, .T. ) ;
#555 = EDGE_CURVE ( 'NONE', #483, #178, #387, .T. ) ;
#556 = DIRECTION ( 'NONE',  ( -0.000000000000000000, -0.000000000000000000, -1.000000000000000000 ) ) ;
#557 = CARTESIAN_POINT ( 'NONE',  ( -0.1767766952966744187, 88.80292240285599803, 8.000000000000000000 ) ) ;
#558 = DIRECTION ( 'NONE',  ( 1.000000000000000000, 0.000000000000000000, 0.000000000000000000 ) ) ;
#559 = DIRECTION ( 'NONE',  ( 1.000000000000000000, 0.000000000000000000, 0.000000000000000000 ) ) ;
#560 = VERTEX_POINT ( 'NONE', #353 ) ;
#561 = PLANE ( 'NONE',  #235 ) ;
#562 = PLANE ( 'NONE',  #122 ) ;
#563 = EDGE_LOOP ( 'NONE', ( #195, #147, #480, #187 ) ) ;
#564 = CARTESIAN_POINT ( 'NONE',  ( -10.00000000000000000, 0.000000000000000000, 0.000000000000000000 ) ) ;
#565 = CARTESIAN_POINT ( 'NONE',  ( -0.1767766952966744187, 88.80292240285599803, 5.000000000000000000 ) ) ;
ENDSEC;
END-ISO-10303-21;
