ISO-10303-21;
HEADER;
FILE_DESCRIPTION (( 'STEP AP214' ),
    '1' );
FILE_NAME ('π‚÷·÷ßº‹”“.STEP',
    '2025-09-28T11:03:06',
    ( '' ),
    ( '' ),
    'SwSTEP 2.0',
    'SolidWorks 2025',
    '' );
FILE_SCHEMA (( 'AUTOMOTIVE_DESIGN' ));
ENDSEC;

DATA;
#1 = DIRECTION ( 'NONE',  ( 1.000000000000000000, 0.000000000000000000, -0.000000000000000000 ) ) ;
#2 = ORIENTED_EDGE ( 'NONE', *, *, #68, .T. ) ;
#3 = EDGE_LOOP ( 'NONE', ( #393, #308 ) ) ;
#4 = CARTESIAN_POINT ( 'NONE',  ( 2.499999999999920064, 102.8029224028560122, 8.000000000000000000 ) ) ;
#5 = EDGE_CURVE ( 'NONE', #221, #438, #361, .T. ) ;
#6 = ORIENTED_EDGE ( 'NONE', *, *, #32, .F. ) ;
#7 = ORIENTED_EDGE ( 'NONE', *, *, #495, .T. ) ;
#8 = VECTOR ( 'NONE', #395, 1000.000000000000000 ) ;
#9 = CARTESIAN_POINT ( 'NONE',  ( 2.499999999999920064, 102.8029224028560122, 8.000000000000000000 ) ) ;
#10 = PRODUCT_DEFINITION_CONTEXT ( 'detailed design', #106, 'design' ) ;
#11 = VERTEX_POINT ( 'NONE', #222 ) ;
#12 = CLOSED_SHELL ( 'NONE', ( #482, #296, #107, #13, #502, #375, #469, #27, #349, #362, #478, #80, #508, #275, #396, #278, #178, #53 ) ) ;
#13 = ADVANCED_FACE ( 'NONE', ( #312 ), #310, .F. ) ;
#14 = FACE_OUTER_BOUND ( 'NONE', #89, .T. ) ;
#15 = LINE ( 'NONE', #281, #533 ) ;
#16 = CIRCLE ( 'NONE', #257, 8.000000000000000000 ) ;
#17 = DIRECTION ( 'NONE',  ( -1.000000000000000000, 0.000000000000000000, 0.000000000000000000 ) ) ;
#18 = DIRECTION ( 'NONE',  ( 1.000000000000000000, 0.000000000000000000, 0.000000000000000000 ) ) ;
#19 = EDGE_LOOP ( 'NONE', ( #390, #176, #259, #265 ) ) ;
#20 = CARTESIAN_POINT ( 'NONE',  ( 9.971160973325565280, 0.000000000000000000, 8.000000000000000000 ) ) ;
#21 = CARTESIAN_POINT ( 'NONE',  ( -0.1767766952966744187, 88.80292240285599803, 5.000000000000000000 ) ) ;
#22 = AXIS2_PLACEMENT_3D ( 'NONE', #173, #472, #388 ) ;
#23 = CARTESIAN_POINT ( 'NONE',  ( 1.823223304703327718, 88.80292240285599803, 5.000000000000000000 ) ) ;
#24 = CARTESIAN_POINT ( 'NONE',  ( 2.499999999999920064, 110.2740833761816646, 8.000000000000000000 ) ) ;
#25 = DIRECTION ( 'NONE',  ( -1.000000000000000000, 0.000000000000000000, 0.000000000000000000 ) ) ;
#26 = DIRECTION ( 'NONE',  ( 1.000000000000000000, 0.000000000000000000, 0.000000000000000000 ) ) ;
#27 = ADVANCED_FACE ( 'NONE', ( #401 ), #99, .F. ) ;
#28 =( LENGTH_UNIT ( ) NAMED_UNIT ( * ) SI_UNIT ( .MILLI., .METRE. ) );
#29 = CARTESIAN_POINT ( 'NONE',  ( 0.000000000000000000, 0.000000000000000000, 0.000000000000000000 ) ) ;
#30 = STYLED_ITEM ( 'NONE', ( #413 ), #133 ) ;
#31 = CARTESIAN_POINT ( 'NONE',  ( 2.499999999999920064, 102.8029224028560122, 0.000000000000000000 ) ) ;
#32 = EDGE_CURVE ( 'NONE', #195, #11, #301, .T. ) ;
#33 = DIRECTION ( 'NONE',  ( -0.000000000000000000, -0.000000000000000000, 1.000000000000000000 ) ) ;
#34 = DIRECTION ( 'NONE',  ( -0.000000000000000000, -0.000000000000000000, -1.000000000000000000 ) ) ;
#35 = EDGE_LOOP ( 'NONE', ( #553, #130, #345, #93, #91, #175 ) ) ;
#36 = DIRECTION ( 'NONE',  ( 1.000000000000000000, 0.000000000000000000, 0.000000000000000000 ) ) ;
#37 = CARTESIAN_POINT ( 'NONE',  ( -10.00000000000000000, 102.2740833761816504, 0.000000000000000000 ) ) ;
#38 = VERTEX_POINT ( 'NONE', #135 ) ;
#39 = EDGE_CURVE ( 'NONE', #378, #124, #236, .T. ) ;
#40 = VECTOR ( 'NONE', #112, 1000.000000000000000 ) ;
#41 = CYLINDRICAL_SURFACE ( 'NONE', #65, 8.000000000000000000 ) ;
#42 = VERTEX_POINT ( 'NONE', #355 ) ;
#43 = AXIS2_PLACEMENT_3D ( 'NONE', #489, #359, #269 ) ;
#44 = DIRECTION ( 'NONE',  ( -0.000000000000000000, -0.000000000000000000, 1.000000000000000000 ) ) ;
#45 = ORIENTED_EDGE ( 'NONE', *, *, #149, .T. ) ;
#46 = LINE ( 'NONE', #509, #202 ) ;
#47 = ORIENTED_EDGE ( 'NONE', *, *, #462, .T. ) ;
#48 = ORIENTED_EDGE ( 'NONE', *, *, #485, .F. ) ;
#49 = AXIS2_PLACEMENT_3D ( 'NONE', #412, #450, #103 ) ;
#50 = EDGE_LOOP ( 'NONE', ( #159, #518, #292, #204 ) ) ;
#51 = EDGE_CURVE ( 'NONE', #560, #338, #94, .T. ) ;
#52 = LINE ( 'NONE', #441, #92 ) ;
#53 = ADVANCED_FACE ( 'NONE', ( #309, #225 ), #57, .T. ) ;
#54 = DIRECTION ( 'NONE',  ( 1.000000000000000000, 0.000000000000000000, 0.000000000000000000 ) ) ;
#55 = DIRECTION ( 'NONE',  ( 1.000000000000000000, 0.000000000000000000, 0.000000000000000000 ) ) ;
#56 = CARTESIAN_POINT ( 'NONE',  ( -0.1767766952966744187, 88.80292240285599803, 3.000000000000000000 ) ) ;
#57 = PLANE ( 'NONE',  #245 ) ;
#58 = DIRECTION ( 'NONE',  ( -1.000000000000000000, 0.000000000000000000, 0.000000000000000000 ) ) ;
#59 = DIRECTION ( 'NONE',  ( -0.000000000000000000, 0.000000000000000000, 1.000000000000000000 ) ) ;
#60 = PRODUCT_RELATED_PRODUCT_CATEGORY ( 'part', '', ( #530 ) ) ;
#61 = CYLINDRICAL_SURFACE ( 'NONE', #366, 3.000000000000000888 ) ;
#62 = DIRECTION ( 'NONE',  ( -0.000000000000000000, -0.000000000000000000, -1.000000000000000000 ) ) ;
#63 = MECHANICAL_DESIGN_GEOMETRIC_PRESENTATION_REPRESENTATION (  '', ( #30 ), #155 ) ;
#64 = LINE ( 'NONE', #20, #487 ) ;
#65 = AXIS2_PLACEMENT_3D ( 'NONE', #256, #429, #117 ) ;
#66 = CARTESIAN_POINT ( 'NONE',  ( 2.499999999999920064, 102.8029224028560122, 8.000000000000000000 ) ) ;
#67 = DIRECTION ( 'NONE',  ( 0.000000000000000000, 0.000000000000000000, 1.000000000000000000 ) ) ;
#68 = EDGE_CURVE ( 'NONE', #124, #81, #52, .T. ) ;
#69 = DIRECTION ( 'NONE',  ( 0.000000000000000000, 0.000000000000000000, 1.000000000000000000 ) ) ;
#70 = EDGE_LOOP ( 'NONE', ( #300, #381 ) ) ;
#71 = CARTESIAN_POINT ( 'NONE',  ( -10.00000000000000000, 82.80292240285599803, 0.000000000000000000 ) ) ;
#72 = AXIS2_PLACEMENT_3D ( 'NONE', #224, #408, #531 ) ;
#73 =( NAMED_UNIT ( * ) SI_UNIT ( $, .STERADIAN. ) SOLID_ANGLE_UNIT ( ) );
#74 = VECTOR ( 'NONE', #549, 1000.000000000000000 ) ;
#75 = CARTESIAN_POINT ( 'NONE',  ( 0.000000000000000000, 82.80292240285599803, 8.000000000000000000 ) ) ;
#76 = EDGE_CURVE ( 'NONE', #523, #465, #282, .T. ) ;
#77 = VERTEX_POINT ( 'NONE', #358 ) ;
#78 = CARTESIAN_POINT ( 'NONE',  ( 9.971160973325565280, 102.8029224028560122, 0.000000000000000000 ) ) ;
#79 = CARTESIAN_POINT ( 'NONE',  ( -10.00000000000000000, 82.80292240285599803, 8.000000000000000000 ) ) ;
#80 = ADVANCED_FACE ( 'NONE', ( #442, #14, #315 ), #490, .T. ) ;
#81 = VERTEX_POINT ( 'NONE', #411 ) ;
#82 = LINE ( 'NONE', #468, #356 ) ;
#83 = ORIENTED_EDGE ( 'NONE', *, *, #238, .F. ) ;
#84 = LINE ( 'NONE', #253, #266 ) ;
#85 = ORIENTED_EDGE ( 'NONE', *, *, #170, .T. ) ;
#86 = VECTOR ( 'NONE', #127, 1000.000000000000000 ) ;
#87 = VERTEX_POINT ( 'NONE', #529 ) ;
#88 = CARTESIAN_POINT ( 'NONE',  ( -0.1767766952966744187, 88.80292240285599803, 3.000000000000000000 ) ) ;
#89 = EDGE_LOOP ( 'NONE', ( #171, #209, #47, #332, #527, #339 ) ) ;
#90 = ORIENTED_EDGE ( 'NONE', *, *, #319, .T. ) ;
#91 = ORIENTED_EDGE ( 'NONE', *, *, #268, .F. ) ;
#92 = VECTOR ( 'NONE', #488, 1000.000000000000000 ) ;
#93 = ORIENTED_EDGE ( 'NONE', *, *, #76, .F. ) ;
#94 = LINE ( 'NONE', #352, #504 ) ;
#95 = EDGE_CURVE ( 'NONE', #526, #560, #211, .T. ) ;
#96 = LINE ( 'NONE', #318, #387 ) ;
#97 = CARTESIAN_POINT ( 'NONE',  ( -0.1767766952966744187, 88.80292240285599803, 5.000000000000000000 ) ) ;
#98 = CYLINDRICAL_SURFACE ( 'NONE', #423, 3.000000000000000888 ) ;
#99 = PLANE ( 'NONE',  #404 ) ;
#100 = AXIS2_PLACEMENT_3D ( 'NONE', #500, #69, #200 ) ;
#101 = DIRECTION ( 'NONE',  ( 0.000000000000000000, -1.000000000000000000, 0.000000000000000000 ) ) ;
#102 = ADVANCED_BREP_SHAPE_REPRESENTATION ( '\X2\51498f74652f67b653f3\X0\', ( #133, #525 ), #129 ) ;
#103 = DIRECTION ( 'NONE',  ( -1.000000000000000000, 0.000000000000000000, 0.000000000000000000 ) ) ;
#104 = DIRECTION ( 'NONE',  ( 1.000000000000000000, 0.000000000000000000, 0.000000000000000000 ) ) ;
#105 = DIRECTION ( 'NONE',  ( -1.000000000000000000, 0.000000000000000000, 0.000000000000000000 ) ) ;
#106 = APPLICATION_CONTEXT ( 'automotive_design' ) ;
#107 = ADVANCED_FACE ( 'NONE', ( #243 ), #276, .F. ) ;
#108 = CARTESIAN_POINT ( 'NONE',  ( -2.000000000000000000, 110.2740833761816504, 8.000000000000000000 ) ) ;
#109 = AXIS2_PLACEMENT_3D ( 'NONE', #293, #249, #199 ) ;
#110 = CARTESIAN_POINT ( 'NONE',  ( 2.499999999999920064, 102.8029224028560122, 8.000000000000000000 ) ) ;
#111 = ORIENTED_EDGE ( 'NONE', *, *, #280, .T. ) ;
#112 = DIRECTION ( 'NONE',  ( -0.000000000000000000, -0.000000000000000000, -1.000000000000000000 ) ) ;
#113 = PLANE ( 'NONE',  #542 ) ;
#114 = EDGE_LOOP ( 'NONE', ( #123, #464, #192, #347 ) ) ;
#115 = CARTESIAN_POINT ( 'NONE',  ( -2.000000000000000000, 102.2740833761816504, 8.000000000000000000 ) ) ;
#116 = EDGE_CURVE ( 'NONE', #378, #397, #377, .T. ) ;
#117 = DIRECTION ( 'NONE',  ( -1.000000000000000000, 0.000000000000000000, 0.000000000000000000 ) ) ;
#118 = AXIS2_PLACEMENT_3D ( 'NONE', #197, #203, #425 ) ;
#119 = EDGE_LOOP ( 'NONE', ( #261, #514, #436, #565 ) ) ;
#120 = ORIENTED_EDGE ( 'NONE', *, *, #511, .T. ) ;
#121 = LINE ( 'NONE', #557, #177 ) ;
#122 = CARTESIAN_POINT ( 'NONE',  ( -2.000000000000000000, 110.2740833761816504, 8.000000000000000000 ) ) ;
#123 = ORIENTED_EDGE ( 'NONE', *, *, #234, .T. ) ;
#124 = VERTEX_POINT ( 'NONE', #322 ) ;
#125 = DIRECTION ( 'NONE',  ( -1.000000000000000000, 0.000000000000000000, 0.000000000000000000 ) ) ;
#126 = ORIENTED_EDGE ( 'NONE', *, *, #370, .F. ) ;
#127 = DIRECTION ( 'NONE',  ( 0.000000000000000000, -1.000000000000000000, 0.000000000000000000 ) ) ;
#128 = EDGE_LOOP ( 'NONE', ( #524, #2, #219, #326 ) ) ;
#129 =( GEOMETRIC_REPRESENTATION_CONTEXT ( 3 ) GLOBAL_UNCERTAINTY_ASSIGNED_CONTEXT ( ( #132 ) ) GLOBAL_UNIT_ASSIGNED_CONTEXT ( ( #506, #369, #73 ) ) REPRESENTATION_CONTEXT ( 'NONE', 'WORKASPACE' ) );
#130 = ORIENTED_EDGE ( 'NONE', *, *, #370, .T. ) ;
#131 = DIRECTION ( 'NONE',  ( 0.000000000000000000, -1.000000000000000000, 0.000000000000000000 ) ) ;
#132 = UNCERTAINTY_MEASURE_WITH_UNIT (LENGTH_MEASURE( 1.000000000000000082E-05 ), #506, 'distance_accuracy_value', 'NONE');
#133 = MANIFOLD_SOLID_BREP ( '\X2\52079664\X0\-\X2\62c94f38\X0\2', #12 ) ;
#134 = EDGE_CURVE ( 'NONE', #124, #378, #185, .T. ) ;
#135 = CARTESIAN_POINT ( 'NONE',  ( -3.176776695296675168, 88.80292240285599803, 3.000000000000000000 ) ) ;
#136 = AXIS2_PLACEMENT_3D ( 'NONE', #75, #206, #298 ) ;
#137 = CARTESIAN_POINT ( 'NONE',  ( -1.600000000000080025, 102.8029224028560122, 0.000000000000000000 ) ) ;
#138 = DIRECTION ( 'NONE',  ( 1.000000000000000000, 0.000000000000000000, 0.000000000000000000 ) ) ;
#139 = FACE_BOUND ( 'NONE', #3, .T. ) ;
#140 = ORIENTED_EDGE ( 'NONE', *, *, #535, .F. ) ;
#141 = EDGE_LOOP ( 'NONE', ( #398, #263 ) ) ;
#142 = DIRECTION ( 'NONE',  ( -0.000000000000000000, -0.000000000000000000, -1.000000000000000000 ) ) ;
#143 = DIRECTION ( 'NONE',  ( -1.000000000000000000, 0.000000000000000000, 0.000000000000000000 ) ) ;
#144 = AXIS2_PLACEMENT_3D ( 'NONE', #451, #420, #198 ) ;
#145 = FACE_OUTER_BOUND ( 'NONE', #350, .T. ) ;
#146 = AXIS2_PLACEMENT_3D ( 'NONE', #88, #160, #162 ) ;
#147 = LINE ( 'NONE', #507, #40 ) ;
#148 = LINE ( 'NONE', #498, #432 ) ;
#149 = EDGE_CURVE ( 'NONE', #438, #11, #543, .T. ) ;
#150 =( NAMED_UNIT ( * ) SI_UNIT ( $, .STERADIAN. ) SOLID_ANGLE_UNIT ( ) );
#151 = SHAPE_DEFINITION_REPRESENTATION ( #444, #102 ) ;
#152 = EDGE_CURVE ( 'NONE', #559, #385, #399, .T. ) ;
#153 =( NAMED_UNIT ( * ) PLANE_ANGLE_UNIT ( ) SI_UNIT ( $, .RADIAN. ) );
#154 = EDGE_CURVE ( 'NONE', #81, #397, #227, .T. ) ;
#155 =( GEOMETRIC_REPRESENTATION_CONTEXT ( 3 ) GLOBAL_UNCERTAINTY_ASSIGNED_CONTEXT ( ( #440 ) ) GLOBAL_UNIT_ASSIGNED_CONTEXT ( ( #28, #153, #150 ) ) REPRESENTATION_CONTEXT ( 'NONE', 'WORKASPACE' ) );
#156 = DIRECTION ( 'NONE',  ( -0.000000000000000000, 0.000000000000000000, 1.000000000000000000 ) ) ;
#157 = AXIS2_PLACEMENT_3D ( 'NONE', #4, #142, #58 ) ;
#158 = SURFACE_STYLE_FILL_AREA ( #460 ) ;
#159 = ORIENTED_EDGE ( 'NONE', *, *, #68, .F. ) ;
#160 = DIRECTION ( 'NONE',  ( -0.000000000000000000, -0.000000000000000000, -1.000000000000000000 ) ) ;
#161 = EDGE_LOOP ( 'NONE', ( #341, #248 ) ) ;
#162 = DIRECTION ( 'NONE',  ( -1.000000000000000000, 0.000000000000000000, 0.000000000000000000 ) ) ;
#163 = ORIENTED_EDGE ( 'NONE', *, *, #134, .F. ) ;
#164 = AXIS2_PLACEMENT_3D ( 'NONE', #454, #59, #503 ) ;
#165 = PLANE ( 'NONE',  #136 ) ;
#166 = CIRCLE ( 'NONE', #246, 4.099999999999999645 ) ;
#167 = EDGE_LOOP ( 'NONE', ( #556, #386, #434, #342 ) ) ;
#168 = EDGE_LOOP ( 'NONE', ( #428, #344, #45, #218 ) ) ;
#169 = PLANE ( 'NONE',  #294 ) ;
#170 = EDGE_CURVE ( 'NONE', #262, #38, #384, .T. ) ;
#171 = ORIENTED_EDGE ( 'NONE', *, *, #51, .T. ) ;
#172 = EDGE_LOOP ( 'NONE', ( #252, #6 ) ) ;
#173 = CARTESIAN_POINT ( 'NONE',  ( -2.000000000000000000, 102.2740833761816504, 0.000000000000000000 ) ) ;
#174 = EDGE_LOOP ( 'NONE', ( #303, #85 ) ) ;
#175 = ORIENTED_EDGE ( 'NONE', *, *, #439, .F. ) ;
#176 = ORIENTED_EDGE ( 'NONE', *, *, #546, .F. ) ;
#177 = VECTOR ( 'NONE', #459, 1000.000000000000000 ) ;
#178 = ADVANCED_FACE ( 'NONE', ( #457 ), #279, .F. ) ;
#179 = EDGE_LOOP ( 'NONE', ( #348, #372 ) ) ;
#180 = EDGE_CURVE ( 'NONE', #297, #77, #291, .T. ) ;
#181 = EDGE_CURVE ( 'NONE', #11, #195, #453, .T. ) ;
#182 = CARTESIAN_POINT ( 'NONE',  ( -0.1767766952966744187, 88.80292240285599803, 3.000000000000000000 ) ) ;
#183 = ORIENTED_EDGE ( 'NONE', *, *, #499, .F. ) ;
#184 = FACE_OUTER_BOUND ( 'NONE', #168, .T. ) ;
#185 = CIRCLE ( 'NONE', #164, 4.099999999999999645 ) ;
#186 = CARTESIAN_POINT ( 'NONE',  ( 2.499999999999920064, 102.8029224028560122, 0.000000000000000000 ) ) ;
#187 = AXIS2_PLACEMENT_3D ( 'NONE', #196, #191, #235 ) ;
#188 = LINE ( 'NONE', #545, #313 ) ;
#189 = APPLICATION_CONTEXT ( 'automotive_design' ) ;
#190 = DIRECTION ( 'NONE',  ( 0.000000000000000000, 0.000000000000000000, 1.000000000000000000 ) ) ;
#191 = DIRECTION ( 'NONE',  ( 0.000000000000000000, 0.000000000000000000, 1.000000000000000000 ) ) ;
#192 = ORIENTED_EDGE ( 'NONE', *, *, #32, .T. ) ;
#193 = DIRECTION ( 'NONE',  ( 0.000000000000000000, 1.000000000000000000, -0.000000000000000000 ) ) ;
#194 = CARTESIAN_POINT ( 'NONE',  ( -0.1767766952966744187, 88.80292240285599803, 0.000000000000000000 ) ) ;
#195 = VERTEX_POINT ( 'NONE', #328 ) ;
#196 = CARTESIAN_POINT ( 'NONE',  ( -0.1767766952966744187, 88.80292240285599803, 8.000000000000000000 ) ) ;
#197 = CARTESIAN_POINT ( 'NONE',  ( -0.1767766952966744187, 88.80292240285599803, 5.000000000000000000 ) ) ;
#198 = DIRECTION ( 'NONE',  ( 1.000000000000000000, 0.000000000000000000, 0.000000000000000000 ) ) ;
#199 = DIRECTION ( 'NONE',  ( -1.000000000000000000, 0.000000000000000000, 0.000000000000000000 ) ) ;
#200 = DIRECTION ( 'NONE',  ( 1.000000000000000000, 0.000000000000000000, 0.000000000000000000 ) ) ;
#201 = AXIS2_PLACEMENT_3D ( 'NONE', #194, #244, #237 ) ;
#202 = VECTOR ( 'NONE', #250, 1000.000000000000000 ) ;
#203 = DIRECTION ( 'NONE',  ( 0.000000000000000000, 0.000000000000000000, 1.000000000000000000 ) ) ;
#204 = ORIENTED_EDGE ( 'NONE', *, *, #154, .F. ) ;
#205 = CARTESIAN_POINT ( 'NONE',  ( -0.1767766952966744187, 88.80292240285599803, 8.000000000000000000 ) ) ;
#206 = DIRECTION ( 'NONE',  ( 0.000000000000000000, 1.000000000000000000, 0.000000000000000000 ) ) ;
#207 = ORIENTED_EDGE ( 'NONE', *, *, #212, .F. ) ;
#208 = FACE_OUTER_BOUND ( 'NONE', #174, .T. ) ;
#209 = ORIENTED_EDGE ( 'NONE', *, *, #528, .T. ) ;
#210 = ORIENTED_EDGE ( 'NONE', *, *, #152, .T. ) ;
#211 = CIRCLE ( 'NONE', #430, 7.471160973325645216 ) ;
#212 = EDGE_CURVE ( 'NONE', #262, #385, #147, .T. ) ;
#213 = FACE_BOUND ( 'NONE', #172, .T. ) ;
#214 = VECTOR ( 'NONE', #34, 1000.000000000000000 ) ;
#215 = VERTEX_POINT ( 'NONE', #71 ) ;
#216 = ORIENTED_EDGE ( 'NONE', *, *, #268, .T. ) ;
#217 = PLANE ( 'NONE',  #229 ) ;
#218 = ORIENTED_EDGE ( 'NONE', *, *, #181, .T. ) ;
#219 = ORIENTED_EDGE ( 'NONE', *, *, #562, .F. ) ;
#220 = CARTESIAN_POINT ( 'NONE',  ( 9.971160973325565280, 82.80292240285599803, 8.000000000000000000 ) ) ;
#221 = VERTEX_POINT ( 'NONE', #23 ) ;
#222 = CARTESIAN_POINT ( 'NONE',  ( -2.176776695296676500, 88.80292240285599803, 3.000000000000000000 ) ) ;
#223 = CIRCLE ( 'NONE', #400, 3.000000000000000888 ) ;
#224 = CARTESIAN_POINT ( 'NONE',  ( -0.1767766952966744187, 88.80292240285599803, 8.000000000000000000 ) ) ;
#225 = FACE_OUTER_BOUND ( 'NONE', #161, .T. ) ;
#226 = CARTESIAN_POINT ( 'NONE',  ( 9.971160973325565280, 82.80292240285599803, 0.000000000000000000 ) ) ;
#227 = CIRCLE ( 'NONE', #346, 4.099999999999999645 ) ;
#228 = CARTESIAN_POINT ( 'NONE',  ( -0.1767766952966744187, 88.80292240285599803, 5.000000000000000000 ) ) ;
#229 = AXIS2_PLACEMENT_3D ( 'NONE', #391, #1, #558 ) ;
#230 = CARTESIAN_POINT ( 'NONE',  ( -0.1767766952966744187, 88.80292240285599803, 5.000000000000000000 ) ) ;
#231 = DIRECTION ( 'NONE',  ( 1.000000000000000000, 0.000000000000000000, 0.000000000000000000 ) ) ;
#232 = CARTESIAN_POINT ( 'NONE',  ( -10.00000000000000000, 82.80292240285599803, 8.000000000000000000 ) ) ;
#233 = CARTESIAN_POINT ( 'NONE',  ( -0.1767766952966744187, 88.80292240285599803, 3.000000000000000000 ) ) ;
#234 = EDGE_CURVE ( 'NONE', #438, #221, #353, .T. ) ;
#235 = DIRECTION ( 'NONE',  ( 1.000000000000000000, 0.000000000000000000, 0.000000000000000000 ) ) ;
#236 = CIRCLE ( 'NONE', #406, 4.099999999999999645 ) ;
#237 = DIRECTION ( 'NONE',  ( -1.000000000000000000, 0.000000000000000000, 0.000000000000000000 ) ) ;
#238 = EDGE_CURVE ( 'NONE', #38, #262, #223, .T. ) ;
#239 = VERTEX_POINT ( 'NONE', #37 ) ;
#240 = DIRECTION ( 'NONE',  ( 1.000000000000000000, 0.000000000000000000, 0.000000000000000000 ) ) ;
#241 = CARTESIAN_POINT ( 'NONE',  ( -2.176776695296676500, 88.80292240285599803, 8.000000000000000000 ) ) ;
#242 = CARTESIAN_POINT ( 'NONE',  ( 9.971160973325565280, 102.8029224028560122, 8.000000000000000000 ) ) ;
#243 = FACE_OUTER_BOUND ( 'NONE', #128, .T. ) ;
#244 = DIRECTION ( 'NONE',  ( 0.000000000000000000, 0.000000000000000000, -1.000000000000000000 ) ) ;
#245 = AXIS2_PLACEMENT_3D ( 'NONE', #97, #190, #448 ) ;
#246 = AXIS2_PLACEMENT_3D ( 'NONE', #373, #547, #284 ) ;
#247 = DIRECTION ( 'NONE',  ( 0.000000000000000000, 0.000000000000000000, -1.000000000000000000 ) ) ;
#248 = ORIENTED_EDGE ( 'NONE', *, *, #180, .T. ) ;
#249 = DIRECTION ( 'NONE',  ( 0.000000000000000000, 0.000000000000000000, -1.000000000000000000 ) ) ;
#250 = DIRECTION ( 'NONE',  ( 0.000000000000000000, 0.000000000000000000, -1.000000000000000000 ) ) ;
#251 = ORIENTED_EDGE ( 'NONE', *, *, #544, .T. ) ;
#252 = ORIENTED_EDGE ( 'NONE', *, *, #181, .F. ) ;
#253 = CARTESIAN_POINT ( 'NONE',  ( 9.971160973325565280, 0.000000000000000000, 0.000000000000000000 ) ) ;
#254 = ORIENTED_EDGE ( 'NONE', *, *, #319, .F. ) ;
#255 = AXIS2_PLACEMENT_3D ( 'NONE', #537, #493, #231 ) ;
#256 = CARTESIAN_POINT ( 'NONE',  ( -2.000000000000000000, 102.2740833761816504, 8.000000000000000000 ) ) ;
#257 = AXIS2_PLACEMENT_3D ( 'NONE', #115, #156, #26 ) ;
#258 = EDGE_LOOP ( 'NONE', ( #477, #484, #520, #120 ) ) ;
#259 = ORIENTED_EDGE ( 'NONE', *, *, #95, .F. ) ;
#260 = CARTESIAN_POINT ( 'NONE',  ( -0.1767766952966744187, 88.80292240285599803, 3.000000000000000000 ) ) ;
#261 = ORIENTED_EDGE ( 'NONE', *, *, #439, .T. ) ;
#262 = VERTEX_POINT ( 'NONE', #513 ) ;
#263 = ORIENTED_EDGE ( 'NONE', *, *, #495, .F. ) ;
#264 = VERTEX_POINT ( 'NONE', #379 ) ;
#265 = ORIENTED_EDGE ( 'NONE', *, *, #541, .T. ) ;
#266 = VECTOR ( 'NONE', #427, 1000.000000000000000 ) ;
#267 = DIRECTION ( 'NONE',  ( -1.000000000000000000, 0.000000000000000000, 0.000000000000000000 ) ) ;
#268 = EDGE_CURVE ( 'NONE', #389, #523, #84, .T. ) ;
#269 = DIRECTION ( 'NONE',  ( -1.000000000000000000, 0.000000000000000000, 0.000000000000000000 ) ) ;
#270 = DIRECTION ( 'NONE',  ( 0.000000000000000000, -0.000000000000000000, -1.000000000000000000 ) ) ;
#271 = LINE ( 'NONE', #277, #466 ) ;
#272 = VECTOR ( 'NONE', #62, 1000.000000000000000 ) ;
#273 = DIRECTION ( 'NONE',  ( 0.000000000000000000, 0.000000000000000000, -1.000000000000000000 ) ) ;
#274 = CARTESIAN_POINT ( 'NONE',  ( -2.176776695296676500, 88.80292240285599803, 5.000000000000000000 ) ) ;
#275 = ADVANCED_FACE ( 'NONE', ( #329 ), #41, .T. ) ;
#276 = CYLINDRICAL_SURFACE ( 'NONE', #364, 4.100000000000000533 ) ;
#277 = CARTESIAN_POINT ( 'NONE',  ( 0.000000000000000000, 82.80292240285599803, 8.000000000000000000 ) ) ;
#278 = ADVANCED_FACE ( 'NONE', ( #213, #208 ), #113, .T. ) ;
#279 = CYLINDRICAL_SURFACE ( 'NONE', #144, 3.000000000000000888 ) ;
#280 = EDGE_CURVE ( 'NONE', #297, #87, #305, .T. ) ;
#281 = CARTESIAN_POINT ( 'NONE',  ( -10.00000000000000000, 0.000000000000000000, 8.000000000000000000 ) ) ;
#282 = CIRCLE ( 'NONE', #512, 7.471160973325645216 ) ;
#283 = DIRECTION ( 'NONE',  ( -0.000000000000000000, 0.000000000000000000, 1.000000000000000000 ) ) ;
#284 = DIRECTION ( 'NONE',  ( 1.000000000000000000, 0.000000000000000000, 0.000000000000000000 ) ) ;
#285 = AXIS2_PLACEMENT_3D ( 'NONE', #205, #382, #240 ) ;
#286 = APPLICATION_PROTOCOL_DEFINITION ( 'draft international standard', 'automotive_design', 1998, #189 ) ;
#287 = EDGE_CURVE ( 'NONE', #239, #215, #340, .T. ) ;
#288 = DIRECTION ( 'NONE',  ( -0.000000000000000000, -0.000000000000000000, -1.000000000000000000 ) ) ;
#289 = DIRECTION ( 'NONE',  ( 1.000000000000000000, 0.000000000000000000, 0.000000000000000000 ) ) ;
#290 = FACE_OUTER_BOUND ( 'NONE', #167, .T. ) ;
#291 = CIRCLE ( 'NONE', #100, 3.000000000000000888 ) ;
#292 = ORIENTED_EDGE ( 'NONE', *, *, #116, .T. ) ;
#293 = CARTESIAN_POINT ( 'NONE',  ( -0.1767766952966744187, 88.80292240285599803, 0.000000000000000000 ) ) ;
#294 = AXIS2_PLACEMENT_3D ( 'NONE', #519, #125, #475 ) ;
#295 = DIRECTION ( 'NONE',  ( -1.000000000000000000, 0.000000000000000000, -0.000000000000000000 ) ) ;
#296 = ADVANCED_FACE ( 'NONE', ( #552 ), #337, .F. ) ;
#297 = VERTEX_POINT ( 'NONE', #331 ) ;
#298 = DIRECTION ( 'NONE',  ( 0.000000000000000000, -0.000000000000000000, 1.000000000000000000 ) ) ;
#299 = VERTEX_POINT ( 'NONE', #79 ) ;
#300 = ORIENTED_EDGE ( 'NONE', *, *, #562, .T. ) ;
#301 = CIRCLE ( 'NONE', #494, 2.000000000000002220 ) ;
#302 = LINE ( 'NONE', #220, #214 ) ;
#303 = ORIENTED_EDGE ( 'NONE', *, *, #238, .T. ) ;
#304 = ORIENTED_EDGE ( 'NONE', *, *, #51, .F. ) ;
#305 = LINE ( 'NONE', #433, #497 ) ;
#306 = CIRCLE ( 'NONE', #285, 3.000000000000000888 ) ;
#307 = ORIENTED_EDGE ( 'NONE', *, *, #546, .T. ) ;
#308 = ORIENTED_EDGE ( 'NONE', *, *, #544, .F. ) ;
#309 = FACE_BOUND ( 'NONE', #179, .T. ) ;
#310 = CYLINDRICAL_SURFACE ( 'NONE', #72, 2.000000000000002220 ) ;
#311 = AXIS2_PLACEMENT_3D ( 'NONE', #365, #374, #422 ) ;
#312 = FACE_OUTER_BOUND ( 'NONE', #114, .T. ) ;
#313 = VECTOR ( 'NONE', #357, 1000.000000000000000 ) ;
#314 = DIRECTION ( 'NONE',  ( -0.000000000000000000, -0.000000000000000000, 1.000000000000000000 ) ) ;
#315 = FACE_BOUND ( 'NONE', #517, .T. ) ;
#316 = FACE_OUTER_BOUND ( 'NONE', #50, .T. ) ;
#317 = CARTESIAN_POINT ( 'NONE',  ( 0.000000000000000000, 110.2740833761816504, 8.000000000000000000 ) ) ;
#318 = CARTESIAN_POINT ( 'NONE',  ( 1.823223304703327718, 88.80292240285599803, 8.000000000000000000 ) ) ;
#319 = EDGE_CURVE ( 'NONE', #38, #559, #82, .T. ) ;
#320 = FILL_AREA_STYLE_COLOUR ( '', #333 ) ;
#321 = DIRECTION ( 'NONE',  ( -0.000000000000000000, -0.000000000000000000, -1.000000000000000000 ) ) ;
#322 = CARTESIAN_POINT ( 'NONE',  ( 6.599999999999920597, 102.8029224028560122, 8.000000000000000000 ) ) ;
#323 = LINE ( 'NONE', #536, #550 ) ;
#324 = SURFACE_STYLE_USAGE ( .BOTH. , #371 ) ;
#325 = AXIS2_PLACEMENT_3D ( 'NONE', #228, #486, #138 ) ;
#326 = ORIENTED_EDGE ( 'NONE', *, *, #116, .F. ) ;
#327 = VECTOR ( 'NONE', #419, 1000.000000000000000 ) ;
#328 = CARTESIAN_POINT ( 'NONE',  ( 1.823223304703327718, 88.80292240285599803, 3.000000000000000000 ) ) ;
#329 = FACE_OUTER_BOUND ( 'NONE', #521, .T. ) ;
#330 = EDGE_CURVE ( 'NONE', #458, #239, #46, .T. ) ;
#331 = CARTESIAN_POINT ( 'NONE',  ( -3.176776695296675168, 88.80292240285599803, 5.000000000000000000 ) ) ;
#332 = ORIENTED_EDGE ( 'NONE', *, *, #474, .T. ) ;
#333 = COLOUR_RGB ( '',0.8431372549019607865, 0.8156862745098039102, 0.7529411764705882248 ) ;
#334 = CARTESIAN_POINT ( 'NONE',  ( 9.971160973325565280, 102.8029224028560122, 8.000000000000000000 ) ) ;
#335 = EDGE_CURVE ( 'NONE', #264, #389, #302, .T. ) ;
#336 = AXIS2_PLACEMENT_3D ( 'NONE', #230, #501, #452 ) ;
#337 = CYLINDRICAL_SURFACE ( 'NONE', #146, 3.000000000000000888 ) ;
#338 = VERTEX_POINT ( 'NONE', #122 ) ;
#339 = ORIENTED_EDGE ( 'NONE', *, *, #95, .T. ) ;
#340 = LINE ( 'NONE', #480, #86 ) ;
#341 = ORIENTED_EDGE ( 'NONE', *, *, #402, .T. ) ;
#342 = ORIENTED_EDGE ( 'NONE', *, *, #380, .F. ) ;
#343 = CARTESIAN_POINT ( 'NONE',  ( -1.600000000000080025, 102.8029224028560122, 8.000000000000000000 ) ) ;
#344 = ORIENTED_EDGE ( 'NONE', *, *, #5, .T. ) ;
#345 = ORIENTED_EDGE ( 'NONE', *, *, #491, .F. ) ;
#346 = AXIS2_PLACEMENT_3D ( 'NONE', #31, #416, #368 ) ;
#347 = ORIENTED_EDGE ( 'NONE', *, *, #149, .F. ) ;
#348 = ORIENTED_EDGE ( 'NONE', *, *, #234, .F. ) ;
#349 = ADVANCED_FACE ( 'NONE', ( #290 ), #217, .F. ) ;
#350 = EDGE_LOOP ( 'NONE', ( #405, #111, #7, #183 ) ) ;
#351 = ORIENTED_EDGE ( 'NONE', *, *, #491, .T. ) ;
#352 = CARTESIAN_POINT ( 'NONE',  ( 0.000000000000000000, 110.2740833761816504, 8.000000000000000000 ) ) ;
#353 = CIRCLE ( 'NONE', #118, 2.000000000000002220 ) ;
#354 = CYLINDRICAL_SURFACE ( 'NONE', #43, 2.000000000000002220 ) ;
#355 = CARTESIAN_POINT ( 'NONE',  ( 2.823223304703326608, 88.80292240285599803, 8.000000000000000000 ) ) ;
#356 = VECTOR ( 'NONE', #516, 1000.000000000000000 ) ;
#357 = DIRECTION ( 'NONE',  ( -1.000000000000000000, 0.000000000000000000, 0.000000000000000000 ) ) ;
#358 = CARTESIAN_POINT ( 'NONE',  ( 2.823223304703326608, 88.80292240285599803, 5.000000000000000000 ) ) ;
#359 = DIRECTION ( 'NONE',  ( -0.000000000000000000, -0.000000000000000000, -1.000000000000000000 ) ) ;
#360 = DIRECTION ( 'NONE',  ( -0.000000000000000000, 0.000000000000000000, 1.000000000000000000 ) ) ;
#361 = CIRCLE ( 'NONE', #325, 2.000000000000002220 ) ;
#362 = ADVANCED_FACE ( 'NONE', ( #463 ), #165, .F. ) ;
#363 = CARTESIAN_POINT ( 'NONE',  ( -2.000000000000000000, 110.2740833761816504, 0.000000000000000000 ) ) ;
#364 = AXIS2_PLACEMENT_3D ( 'NONE', #110, #288, #143 ) ;
#365 = CARTESIAN_POINT ( 'NONE',  ( -0.1767766952966744187, 88.80292240285599803, 3.000000000000000000 ) ) ;
#366 = AXIS2_PLACEMENT_3D ( 'NONE', #21, #314, #18 ) ;
#367 = DIRECTION ( 'NONE',  ( -0.000000000000000000, -0.000000000000000000, 1.000000000000000000 ) ) ;
#368 = DIRECTION ( 'NONE',  ( 1.000000000000000000, 0.000000000000000000, 0.000000000000000000 ) ) ;
#369 =( NAMED_UNIT ( * ) PLANE_ANGLE_UNIT ( ) SI_UNIT ( $, .RADIAN. ) );
#370 = EDGE_CURVE ( 'NONE', #239, #461, #409, .T. ) ;
#371 = SURFACE_SIDE_STYLE ('',( #158 ) ) ;
#372 = ORIENTED_EDGE ( 'NONE', *, *, #5, .F. ) ;
#373 = CARTESIAN_POINT ( 'NONE',  ( 2.499999999999920064, 102.8029224028560122, 0.000000000000000000 ) ) ;
#374 = DIRECTION ( 'NONE',  ( 0.000000000000000000, 0.000000000000000000, -1.000000000000000000 ) ) ;
#375 = ADVANCED_FACE ( 'NONE', ( #563 ), #169, .F. ) ;
#376 = APPLICATION_PROTOCOL_DEFINITION ( 'draft international standard', 'automotive_design', 1998, #106 ) ;
#377 = LINE ( 'NONE', #505, #74 ) ;
#378 = VERTEX_POINT ( 'NONE', #343 ) ;
#379 = CARTESIAN_POINT ( 'NONE',  ( 9.971160973325565280, 82.80292240285599803, 8.000000000000000000 ) ) ;
#380 = EDGE_CURVE ( 'NONE', #299, #215, #522, .T. ) ;
#381 = ORIENTED_EDGE ( 'NONE', *, *, #154, .T. ) ;
#382 = DIRECTION ( 'NONE',  ( 0.000000000000000000, 0.000000000000000000, 1.000000000000000000 ) ) ;
#383 = CARTESIAN_POINT ( 'NONE',  ( -0.1767766952966744187, 88.80292240285599803, 3.000000000000000000 ) ) ;
#384 = CIRCLE ( 'NONE', #548, 3.000000000000000888 ) ;
#385 = VERTEX_POINT ( 'NONE', #443 ) ;
#386 = ORIENTED_EDGE ( 'NONE', *, *, #330, .T. ) ;
#387 = VECTOR ( 'NONE', #492, 1000.000000000000000 ) ;
#388 = DIRECTION ( 'NONE',  ( 1.000000000000000000, 0.000000000000000000, 0.000000000000000000 ) ) ;
#389 = VERTEX_POINT ( 'NONE', #226 ) ;
#390 = ORIENTED_EDGE ( 'NONE', *, *, #76, .T. ) ;
#391 = CARTESIAN_POINT ( 'NONE',  ( -10.00000000000000000, 0.000000000000000000, 8.000000000000000000 ) ) ;
#392 = EDGE_CURVE ( 'NONE', #221, #195, #96, .T. ) ;
#393 = ORIENTED_EDGE ( 'NONE', *, *, #152, .F. ) ;
#394 = EDGE_LOOP ( 'NONE', ( #403, #473, #251, #254 ) ) ;
#395 = DIRECTION ( 'NONE',  ( -0.000000000000000000, -0.000000000000000000, -1.000000000000000000 ) ) ;
#396 = ADVANCED_FACE ( 'NONE', ( #532 ), #98, .F. ) ;
#397 = VERTEX_POINT ( 'NONE', #137 ) ;
#398 = ORIENTED_EDGE ( 'NONE', *, *, #511, .F. ) ;
#399 = CIRCLE ( 'NONE', #201, 3.000000000000000888 ) ;
#400 = AXIS2_PLACEMENT_3D ( 'NONE', #260, #247, #435 ) ;
#401 = FACE_OUTER_BOUND ( 'NONE', #431, .T. ) ;
#402 = EDGE_CURVE ( 'NONE', #77, #297, #455, .T. ) ;
#403 = ORIENTED_EDGE ( 'NONE', *, *, #170, .F. ) ;
#404 = AXIS2_PLACEMENT_3D ( 'NONE', #317, #131, #270 ) ;
#405 = ORIENTED_EDGE ( 'NONE', *, *, #180, .F. ) ;
#406 = AXIS2_PLACEMENT_3D ( 'NONE', #9, #360, #55 ) ;
#407 = FACE_OUTER_BOUND ( 'NONE', #19, .T. ) ;
#408 = DIRECTION ( 'NONE',  ( -0.000000000000000000, -0.000000000000000000, -1.000000000000000000 ) ) ;
#409 = CIRCLE ( 'NONE', #22, 8.000000000000000000 ) ;
#410 = CYLINDRICAL_SURFACE ( 'NONE', #49, 4.100000000000000533 ) ;
#411 = CARTESIAN_POINT ( 'NONE',  ( 6.599999999999920597, 102.8029224028560122, 0.000000000000000000 ) ) ;
#412 = CARTESIAN_POINT ( 'NONE',  ( 2.499999999999920064, 102.8029224028560122, 8.000000000000000000 ) ) ;
#413 = PRESENTATION_STYLE_ASSIGNMENT (( #324 ) ) ;
#414 = DIRECTION ( 'NONE',  ( 1.000000000000000000, 0.000000000000000000, 0.000000000000000000 ) ) ;
#415 = PRESENTATION_LAYER_ASSIGNMENT (  '', '', ( #30 ) ) ;
#416 = DIRECTION ( 'NONE',  ( -0.000000000000000000, 0.000000000000000000, 1.000000000000000000 ) ) ;
#417 = VECTOR ( 'NONE', #33, 1000.000000000000000 ) ;
#418 = DIRECTION ( 'NONE',  ( 0.000000000000000000, 0.000000000000000000, -1.000000000000000000 ) ) ;
#419 = DIRECTION ( 'NONE',  ( -0.000000000000000000, -0.000000000000000000, -1.000000000000000000 ) ) ;
#420 = DIRECTION ( 'NONE',  ( -0.000000000000000000, -0.000000000000000000, 1.000000000000000000 ) ) ;
#421 = PRODUCT_CONTEXT ( 'NONE', #189, 'mechanical' ) ;
#422 = DIRECTION ( 'NONE',  ( -1.000000000000000000, 0.000000000000000000, 0.000000000000000000 ) ) ;
#423 = AXIS2_PLACEMENT_3D ( 'NONE', #56, #321, #105 ) ;
#424 = DIRECTION ( 'NONE',  ( -0.000000000000000000, 0.000000000000000000, 1.000000000000000000 ) ) ;
#425 = DIRECTION ( 'NONE',  ( 1.000000000000000000, 0.000000000000000000, 0.000000000000000000 ) ) ;
#426 = EDGE_LOOP ( 'NONE', ( #207, #83, #90, #210 ) ) ;
#427 = DIRECTION ( 'NONE',  ( 0.000000000000000000, 1.000000000000000000, -0.000000000000000000 ) ) ;
#428 = ORIENTED_EDGE ( 'NONE', *, *, #392, .F. ) ;
#429 = DIRECTION ( 'NONE',  ( 0.000000000000000000, 0.000000000000000000, -1.000000000000000000 ) ) ;
#430 = AXIS2_PLACEMENT_3D ( 'NONE', #66, #283, #104 ) ;
#431 = EDGE_LOOP ( 'NONE', ( #351, #539, #304, #307 ) ) ;
#432 = VECTOR ( 'NONE', #414, 1000.000000000000000 ) ;
#433 = CARTESIAN_POINT ( 'NONE',  ( -3.176776695296675168, 88.80292240285599803, 5.000000000000000000 ) ) ;
#434 = ORIENTED_EDGE ( 'NONE', *, *, #287, .T. ) ;
#435 = DIRECTION ( 'NONE',  ( -1.000000000000000000, 0.000000000000000000, 0.000000000000000000 ) ) ;
#436 = ORIENTED_EDGE ( 'NONE', *, *, #474, .F. ) ;
#437 = ORIENTED_EDGE ( 'NONE', *, *, #330, .F. ) ;
#438 = VERTEX_POINT ( 'NONE', #274 ) ;
#439 = EDGE_CURVE ( 'NONE', #215, #389, #148, .T. ) ;
#440 = UNCERTAINTY_MEASURE_WITH_UNIT (LENGTH_MEASURE( 1.000000000000000082E-05 ), #28, 'distance_accuracy_value', 'NONE');
#441 = CARTESIAN_POINT ( 'NONE',  ( 6.599999999999920597, 102.8029224028560122, 8.000000000000000000 ) ) ;
#442 = FACE_BOUND ( 'NONE', #141, .T. ) ;
#443 = CARTESIAN_POINT ( 'NONE',  ( 2.823223304703326608, 88.80292240285599803, 0.000000000000000000 ) ) ;
#444 = PRODUCT_DEFINITION_SHAPE ( 'NONE', 'NONE',  #456 ) ;
#445 = ORIENTED_EDGE ( 'NONE', *, *, #39, .F. ) ;
#446 = FACE_BOUND ( 'NONE', #70, .T. ) ;
#447 = AXIS2_PLACEMENT_3D ( 'NONE', #551, #424, #36 ) ;
#448 = DIRECTION ( 'NONE',  ( 1.000000000000000000, 0.000000000000000000, -0.000000000000000000 ) ) ;
#449 = CYLINDRICAL_SURFACE ( 'NONE', #157, 7.471160973325645216 ) ;
#450 = DIRECTION ( 'NONE',  ( -0.000000000000000000, -0.000000000000000000, -1.000000000000000000 ) ) ;
#451 = CARTESIAN_POINT ( 'NONE',  ( -0.1767766952966744187, 88.80292240285599803, 5.000000000000000000 ) ) ;
#452 = DIRECTION ( 'NONE',  ( 1.000000000000000000, 0.000000000000000000, 0.000000000000000000 ) ) ;
#453 = CIRCLE ( 'NONE', #311, 2.000000000000002220 ) ;
#454 = CARTESIAN_POINT ( 'NONE',  ( 2.499999999999920064, 102.8029224028560122, 8.000000000000000000 ) ) ;
#455 = CIRCLE ( 'NONE', #336, 3.000000000000000888 ) ;
#456 = PRODUCT_DEFINITION ( 'Êú', '', #561, #10 ) ;
#457 = FACE_OUTER_BOUND ( 'NONE', #258, .T. ) ;
#458 = VERTEX_POINT ( 'NONE', #496 ) ;
#459 = DIRECTION ( 'NONE',  ( -0.000000000000000000, -0.000000000000000000, -1.000000000000000000 ) ) ;
#460 = FILL_AREA_STYLE ('',( #320 ) ) ;
#461 = VERTEX_POINT ( 'NONE', #363 ) ;
#462 = EDGE_CURVE ( 'NONE', #458, #299, #15, .T. ) ;
#463 = FACE_OUTER_BOUND ( 'NONE', #119, .T. ) ;
#464 = ORIENTED_EDGE ( 'NONE', *, *, #392, .T. ) ;
#465 = VERTEX_POINT ( 'NONE', #540 ) ;
#466 = VECTOR ( 'NONE', #54, 1000.000000000000000 ) ;
#467 = LINE ( 'NONE', #108, #417 ) ;
#468 = CARTESIAN_POINT ( 'NONE',  ( -3.176776695296675168, 88.80292240285599803, 3.000000000000000000 ) ) ;
#469 = ADVANCED_FACE ( 'NONE', ( #407 ), #449, .T. ) ;
#470 = ORIENTED_EDGE ( 'NONE', *, *, #541, .F. ) ;
#471 = CARTESIAN_POINT ( 'NONE',  ( -3.176776695296675168, 88.80292240285599803, 0.000000000000000000 ) ) ;
#472 = DIRECTION ( 'NONE',  ( 0.000000000000000000, -0.000000000000000000, -1.000000000000000000 ) ) ;
#473 = ORIENTED_EDGE ( 'NONE', *, *, #212, .T. ) ;
#474 = EDGE_CURVE ( 'NONE', #299, #264, #271, .T. ) ;
#475 = DIRECTION ( 'NONE',  ( 0.000000000000000000, 0.000000000000000000, 1.000000000000000000 ) ) ;
#476 = EDGE_LOOP ( 'NONE', ( #216, #470, #48, #564 ) ) ;
#477 = ORIENTED_EDGE ( 'NONE', *, *, #280, .F. ) ;
#478 = ADVANCED_FACE ( 'NONE', ( #316 ), #410, .F. ) ;
#479 = CIRCLE ( 'NONE', #187, 3.000000000000000888 ) ;
#480 = CARTESIAN_POINT ( 'NONE',  ( -10.00000000000000000, 0.000000000000000000, 0.000000000000000000 ) ) ;
#481 = ORIENTED_EDGE ( 'NONE', *, *, #528, .F. ) ;
#482 = ADVANCED_FACE ( 'NONE', ( #145 ), #61, .F. ) ;
#483 = DIRECTION ( 'NONE',  ( -0.000000000000000000, 0.000000000000000000, 1.000000000000000000 ) ) ;
#484 = ORIENTED_EDGE ( 'NONE', *, *, #402, .F. ) ;
#485 = EDGE_CURVE ( 'NONE', #264, #526, #64, .T. ) ;
#486 = DIRECTION ( 'NONE',  ( 0.000000000000000000, 0.000000000000000000, 1.000000000000000000 ) ) ;
#487 = VECTOR ( 'NONE', #193, 1000.000000000000000 ) ;
#488 = DIRECTION ( 'NONE',  ( -0.000000000000000000, -0.000000000000000000, -1.000000000000000000 ) ) ;
#489 = CARTESIAN_POINT ( 'NONE',  ( -0.1767766952966744187, 88.80292240285599803, 8.000000000000000000 ) ) ;
#490 = PLANE ( 'NONE',  #255 ) ;
#491 = EDGE_CURVE ( 'NONE', #465, #461, #188, .T. ) ;
#492 = DIRECTION ( 'NONE',  ( -0.000000000000000000, -0.000000000000000000, -1.000000000000000000 ) ) ;
#493 = DIRECTION ( 'NONE',  ( -0.000000000000000000, 0.000000000000000000, 1.000000000000000000 ) ) ;
#494 = AXIS2_PLACEMENT_3D ( 'NONE', #182, #273, #267 ) ;
#495 = EDGE_CURVE ( 'NONE', #87, #42, #479, .T. ) ;
#496 = CARTESIAN_POINT ( 'NONE',  ( -10.00000000000000000, 102.2740833761816504, 8.000000000000000000 ) ) ;
#497 = VECTOR ( 'NONE', #44, 1000.000000000000000 ) ;
#498 = CARTESIAN_POINT ( 'NONE',  ( -0.000000000000000000, 82.80292240285599803, 0.000000000000000000 ) ) ;
#499 = EDGE_CURVE ( 'NONE', #77, #42, #323, .T. ) ;
#500 = CARTESIAN_POINT ( 'NONE',  ( -0.1767766952966744187, 88.80292240285599803, 5.000000000000000000 ) ) ;
#501 = DIRECTION ( 'NONE',  ( 0.000000000000000000, 0.000000000000000000, 1.000000000000000000 ) ) ;
#502 = ADVANCED_FACE ( 'NONE', ( #184 ), #354, .F. ) ;
#503 = DIRECTION ( 'NONE',  ( 1.000000000000000000, 0.000000000000000000, 0.000000000000000000 ) ) ;
#504 = VECTOR ( 'NONE', #17, 1000.000000000000000 ) ;
#505 = CARTESIAN_POINT ( 'NONE',  ( -1.600000000000080025, 102.8029224028560122, 8.000000000000000000 ) ) ;
#506 =( LENGTH_UNIT ( ) NAMED_UNIT ( * ) SI_UNIT ( .MILLI., .METRE. ) );
#507 = CARTESIAN_POINT ( 'NONE',  ( 2.823223304703326608, 88.80292240285599803, 3.000000000000000000 ) ) ;
#508 = ADVANCED_FACE ( 'NONE', ( #139, #538, #446 ), #510, .F. ) ;
#509 = CARTESIAN_POINT ( 'NONE',  ( -10.00000000000000000, 102.2740833761816504, 8.000000000000000000 ) ) ;
#510 = PLANE ( 'NONE',  #447 ) ;
#511 = EDGE_CURVE ( 'NONE', #42, #87, #306, .T. ) ;
#512 = AXIS2_PLACEMENT_3D ( 'NONE', #186, #483, #534 ) ;
#513 = CARTESIAN_POINT ( 'NONE',  ( 2.823223304703326608, 88.80292240285599803, 3.000000000000000000 ) ) ;
#514 = ORIENTED_EDGE ( 'NONE', *, *, #335, .F. ) ;
#515 = CIRCLE ( 'NONE', #109, 3.000000000000000888 ) ;
#516 = DIRECTION ( 'NONE',  ( -0.000000000000000000, -0.000000000000000000, -1.000000000000000000 ) ) ;
#517 = EDGE_LOOP ( 'NONE', ( #445, #163 ) ) ;
#518 = ORIENTED_EDGE ( 'NONE', *, *, #134, .T. ) ;
#519 = CARTESIAN_POINT ( 'NONE',  ( 9.971160973325565280, 0.000000000000000000, 8.000000000000000000 ) ) ;
#520 = ORIENTED_EDGE ( 'NONE', *, *, #499, .T. ) ;
#521 = EDGE_LOOP ( 'NONE', ( #481, #140, #126, #437 ) ) ;
#522 = LINE ( 'NONE', #232, #8 ) ;
#523 = VERTEX_POINT ( 'NONE', #78 ) ;
#524 = ORIENTED_EDGE ( 'NONE', *, *, #39, .T. ) ;
#525 = AXIS2_PLACEMENT_3D ( 'NONE', #29, #67, #289 ) ;
#526 = VERTEX_POINT ( 'NONE', #334 ) ;
#527 = ORIENTED_EDGE ( 'NONE', *, *, #485, .T. ) ;
#528 = EDGE_CURVE ( 'NONE', #338, #458, #16, .T. ) ;
#529 = CARTESIAN_POINT ( 'NONE',  ( -3.176776695296675168, 88.80292240285599803, 8.000000000000000000 ) ) ;
#530 = PRODUCT ( '\X2\51498f74652f67b653f3\X0\', '\X2\51498f74652f67b653f3\X0\', '', ( #421 ) ) ;
#531 = DIRECTION ( 'NONE',  ( -1.000000000000000000, 0.000000000000000000, 0.000000000000000000 ) ) ;
#532 = FACE_OUTER_BOUND ( 'NONE', #426, .T. ) ;
#533 = VECTOR ( 'NONE', #101, 1000.000000000000000 ) ;
#534 = DIRECTION ( 'NONE',  ( 1.000000000000000000, 0.000000000000000000, 0.000000000000000000 ) ) ;
#535 = EDGE_CURVE ( 'NONE', #461, #338, #467, .T. ) ;
#536 = CARTESIAN_POINT ( 'NONE',  ( 2.823223304703326608, 88.80292240285599803, 5.000000000000000000 ) ) ;
#537 = CARTESIAN_POINT ( 'NONE',  ( 0.000000000000000000, 0.000000000000000000, 8.000000000000000000 ) ) ;
#538 = FACE_OUTER_BOUND ( 'NONE', #35, .T. ) ;
#539 = ORIENTED_EDGE ( 'NONE', *, *, #535, .T. ) ;
#540 = CARTESIAN_POINT ( 'NONE',  ( 2.499999999999920064, 110.2740833761816646, 0.000000000000000000 ) ) ;
#541 = EDGE_CURVE ( 'NONE', #526, #523, #554, .T. ) ;
#542 = AXIS2_PLACEMENT_3D ( 'NONE', #383, #555, #295 ) ;
#543 = LINE ( 'NONE', #241, #272 ) ;
#544 = EDGE_CURVE ( 'NONE', #385, #559, #515, .T. ) ;
#545 = CARTESIAN_POINT ( 'NONE',  ( 0.000000000000000000, 110.2740833761816504, 0.000000000000000000 ) ) ;
#546 = EDGE_CURVE ( 'NONE', #560, #465, #121, .T. ) ;
#547 = DIRECTION ( 'NONE',  ( -0.000000000000000000, 0.000000000000000000, 1.000000000000000000 ) ) ;
#548 = AXIS2_PLACEMENT_3D ( 'NONE', #233, #418, #25 ) ;
#549 = DIRECTION ( 'NONE',  ( -0.000000000000000000, -0.000000000000000000, -1.000000000000000000 ) ) ;
#550 = VECTOR ( 'NONE', #367, 1000.000000000000000 ) ;
#551 = CARTESIAN_POINT ( 'NONE',  ( 0.000000000000000000, 0.000000000000000000, 0.000000000000000000 ) ) ;
#552 = FACE_OUTER_BOUND ( 'NONE', #394, .T. ) ;
#553 = ORIENTED_EDGE ( 'NONE', *, *, #287, .F. ) ;
#554 = LINE ( 'NONE', #242, #327 ) ;
#555 = DIRECTION ( 'NONE',  ( 0.000000000000000000, 0.000000000000000000, -1.000000000000000000 ) ) ;
#556 = ORIENTED_EDGE ( 'NONE', *, *, #462, .F. ) ;
#557 = CARTESIAN_POINT ( 'NONE',  ( 2.499999999999920064, 110.2740833761816646, 8.000000000000000000 ) ) ;
#558 = DIRECTION ( 'NONE',  ( -0.000000000000000000, 0.000000000000000000, -1.000000000000000000 ) ) ;
#559 = VERTEX_POINT ( 'NONE', #471 ) ;
#560 = VERTEX_POINT ( 'NONE', #24 ) ;
#561 = PRODUCT_DEFINITION_FORMATION_WITH_SPECIFIED_SOURCE ( '‰ª', '', #530, .NOT_KNOWN. ) ;
#562 = EDGE_CURVE ( 'NONE', #397, #81, #166, .T. ) ;
#563 = FACE_OUTER_BOUND ( 'NONE', #476, .T. ) ;
#564 = ORIENTED_EDGE ( 'NONE', *, *, #335, .T. ) ;
#565 = ORIENTED_EDGE ( 'NONE', *, *, #380, .T. ) ;
ENDSEC;
END-ISO-10303-21;
