ISO-10303-21;
HEADER;
FILE_DESCRIPTION (( 'STEP AP214' ),
    '1' );
FILE_NAME ('ÃΩ’Î∫·¡∫.STEP',
    '2025-09-27T08:02:16',
    ( '' ),
    ( '' ),
    'SwSTEP 2.0',
    'SolidWorks 2025',
    '' );
FILE_SCHEMA (( 'AUTOMOTIVE_DESIGN' ));
ENDSEC;

DATA;
#1 = DIRECTION ( 'NONE',  ( 1.445602896647337931E-16, 1.000000000000000000, 0.000000000000000000 ) ) ;
#2 = EDGE_CURVE ( 'NONE', #1035, #746, #165, .T. ) ;
#3 = DIRECTION ( 'NONE',  ( 0.000000000000000000, 1.000000000000000000, 0.000000000000000000 ) ) ;
#4 = EDGE_LOOP ( 'NONE', ( #385, #250 ) ) ;
#5 = CYLINDRICAL_SURFACE ( 'NONE', #74, 1.599999999999997202 ) ;
#6 = DIRECTION ( 'NONE',  ( 1.000000000000000000, -1.031877304899886213E-16, -0.000000000000000000 ) ) ;
#7 = EDGE_CURVE ( 'NONE', #162, #459, #713, .T. ) ;
#8 = ORIENTED_EDGE ( 'NONE', *, *, #615, .F. ) ;
#9 = CIRCLE ( 'NONE', #393, 3.000000000000002665 ) ;
#10 = VECTOR ( 'NONE', #658, 1000.000000000000000 ) ;
#11 = CARTESIAN_POINT ( 'NONE',  ( -2.800000000000015365, -167.5000000000000000, -5.000000000000127898 ) ) ;
#12 = ORIENTED_EDGE ( 'NONE', *, *, #732, .T. ) ;
#13 = CARTESIAN_POINT ( 'NONE',  ( -8.520801216717046600, -169.0340885353423346, -19.78031611624926356 ) ) ;
#14 = CARTESIAN_POINT ( 'NONE',  ( -8.549997893052749376, -167.5000000000000000, -5.000000000000127898 ) ) ;
#15 = AXIS2_PLACEMENT_3D ( 'NONE', #978, #547, #1046 ) ;
#16 = EDGE_LOOP ( 'NONE', ( #61, #556 ) ) ;
#17 = CARTESIAN_POINT ( 'NONE',  ( -0.4966679003209212295, -183.7397459621556379, 0.000000000000000000 ) ) ;
#18 = LINE ( 'NONE', #1003, #907 ) ;
#19 = ORIENTED_EDGE ( 'NONE', *, *, #560, .T. ) ;
#20 = CARTESIAN_POINT ( 'NONE',  ( 0.1999999999999851341, -167.5000000000000000, -5.000000000000127898 ) ) ;
#21 = CARTESIAN_POINT ( 'NONE',  ( -8.549997893052767139, -168.5048131209564417, -6.245130752954929143 ) ) ;
#22 = AXIS2_PLACEMENT_3D ( 'NONE', #435, #188, #694 ) ;
#23 = ORIENTED_EDGE ( 'NONE', *, *, #425, .F. ) ;
#24 = DIRECTION ( 'NONE',  ( 0.000000000000000000, 0.000000000000000000, 1.000000000000000000 ) ) ;
#25 = ADVANCED_FACE ( 'NONE', ( #174, #934 ), #346, .T. ) ;
#26 = DIRECTION ( 'NONE',  ( 1.000000000000000000, -1.031877304899886213E-16, -0.000000000000000000 ) ) ;
#27 = MECHANICAL_DESIGN_GEOMETRIC_PRESENTATION_REPRESENTATION (  '', ( #240 ), #946 ) ;
#28 = DIRECTION ( 'NONE',  ( 1.000000000000000000, -1.031877304899886336E-16, 0.000000000000000000 ) ) ;
#29 = LINE ( 'NONE', #372, #957 ) ;
#30 = ADVANCED_FACE ( 'NONE', ( #336 ), #925, .F. ) ;
#31 = VERTEX_POINT ( 'NONE', #290 ) ;
#32 = FACE_BOUND ( 'NONE', #654, .T. ) ;
#33 = CARTESIAN_POINT ( 'NONE',  ( -8.512954178702910824, -169.0999999999999943, -5.000000000000127898 ) ) ;
#34 = CARTESIAN_POINT ( 'NONE',  ( 0.1999999999999980960, -42.00000000000005684, -5.000000000000018652 ) ) ;
#35 = EDGE_LOOP ( 'NONE', ( #439, #210 ) ) ;
#36 = CARTESIAN_POINT ( 'NONE',  ( -2.800000000000002487, -48.00000000000005684, -20.25000000000000355 ) ) ;
#37 = VECTOR ( 'NONE', #182, 1000.000000000000000 ) ;
#38 = DIRECTION ( 'NONE',  ( 1.000000000000000000, 0.000000000000000000, -1.703117503849664896E-32 ) ) ;
#39 = PLANE ( 'NONE',  #590 ) ;
#40 = ORIENTED_EDGE ( 'NONE', *, *, #684, .F. ) ;
#41 = DIRECTION ( 'NONE',  ( 0.000000000000000000, 1.000000000000000000, 0.000000000000000000 ) ) ;
#42 = CARTESIAN_POINT ( 'NONE',  ( -8.549997893052742270, -43.99518687904360803, -25.25000000000002132 ) ) ;
#43 = CARTESIAN_POINT ( 'NONE',  ( -8.539628069534398236, -168.8286371306854505, -21.14931877521139825 ) ) ;
#44 = ORIENTED_EDGE ( 'NONE', *, *, #990, .F. ) ;
#45 = FACE_OUTER_BOUND ( 'NONE', #448, .T. ) ;
#46 = DIRECTION ( 'NONE',  ( 0.000000000000000000, 1.000000000000000000, 0.000000000000000000 ) ) ;
#47 = FACE_OUTER_BOUND ( 'NONE', #519, .T. ) ;
#48 = ORIENTED_EDGE ( 'NONE', *, *, #64, .T. ) ;
#49 = CARTESIAN_POINT ( 'NONE',  ( 0.1999999999999834688, -183.7397459621556095, -180.4763037640402104 ) ) ;
#50 = ORIENTED_EDGE ( 'NONE', *, *, #398, .F. ) ;
#51 = CARTESIAN_POINT ( 'NONE',  ( -8.549997893052747600, -43.80848881090437175, -21.34446652104314524 ) ) ;
#52 = AXIS2_PLACEMENT_3D ( 'NONE', #604, #849, #928 ) ;
#53 = AXIS2_PLACEMENT_3D ( 'NONE', #583, #593, #416 ) ;
#54 = CARTESIAN_POINT ( 'NONE',  ( -129.4945880568757559, -1.387778780781445676E-14, -25.25000000000000711 ) ) ;
#55 = VERTEX_POINT ( 'NONE', #873 ) ;
#56 = EDGE_LOOP ( 'NONE', ( #719, #364 ) ) ;
#57 = DIRECTION ( 'NONE',  ( 1.031877304899886336E-16, 1.000000000000000000, 0.000000000000000000 ) ) ;
#58 = AXIS2_PLACEMENT_3D ( 'NONE', #352, #796, #286 ) ;
#59 = PLANE ( 'NONE',  #83 ) ;
#60 = ORIENTED_EDGE ( 'NONE', *, *, #319, .T. ) ;
#61 = ORIENTED_EDGE ( 'NONE', *, *, #252, .F. ) ;
#62 = CARTESIAN_POINT ( 'NONE',  ( -8.512954178702903718, -43.40000000000004832, -20.25000000000000355 ) ) ;
#63 = CYLINDRICAL_SURFACE ( 'NONE', #219, 3.000000000000002665 ) ;
#64 = EDGE_CURVE ( 'NONE', #913, #819, #701, .T. ) ;
#65 = VECTOR ( 'NONE', #109, 1000.000000000000000 ) ;
#66 = DIRECTION ( 'NONE',  ( 1.000000000000000000, -1.031877304899886336E-16, 0.000000000000000000 ) ) ;
#67 = ORIENTED_EDGE ( 'NONE', *, *, #929, .T. ) ;
#68 = DIRECTION ( 'NONE',  ( 0.000000000000000000, 0.000000000000000000, 1.000000000000000000 ) ) ;
#69 = CARTESIAN_POINT ( 'NONE',  ( -2.800000000000001599, -42.00000000000004974, -20.25000000000000355 ) ) ;
#70 = AXIS2_PLACEMENT_3D ( 'NONE', #14, #853, #1000 ) ;
#71 = ORIENTED_EDGE ( 'NONE', *, *, #1008, .T. ) ;
#72 = DIRECTION ( 'NONE',  ( 1.000000000000000000, -1.031877304899886336E-16, 0.000000000000000000 ) ) ;
#73 = FACE_OUTER_BOUND ( 'NONE', #277, .T. ) ;
#74 = AXIS2_PLACEMENT_3D ( 'NONE', #76, #405, #238 ) ;
#75 = ORIENTED_EDGE ( 'NONE', *, *, #919, .F. ) ;
#76 = CARTESIAN_POINT ( 'NONE',  ( -8.549997893052754705, -45.00000000000006395, -5.000000000000018652 ) ) ;
#77 = EDGE_CURVE ( 'NONE', #964, #884, #799, .T. ) ;
#78 = CARTESIAN_POINT ( 'NONE',  ( 0.1999999999999848288, -170.5000000000000000, -5.000000000000127898 ) ) ;
#79 = ORIENTED_EDGE ( 'NONE', *, *, #761, .T. ) ;
#80 = EDGE_LOOP ( 'NONE', ( #115, #754 ) ) ;
#81 = LINE ( 'NONE', #17, #255 ) ;
#82 = LINE ( 'NONE', #932, #37 ) ;
#83 = AXIS2_PLACEMENT_3D ( 'NONE', #226, #473, #743 ) ;
#84 = AXIS2_PLACEMENT_3D ( 'NONE', #229, #383, #312 ) ;
#85 = ORIENTED_EDGE ( 'NONE', *, *, #990, .T. ) ;
#86 = FACE_OUTER_BOUND ( 'NONE', #587, .T. ) ;
#87 = DIRECTION ( 'NONE',  ( 1.000000000000000000, -1.031877304899886336E-16, 0.000000000000000000 ) ) ;
#88 = EDGE_CURVE ( 'NONE', #751, #370, #939, .T. ) ;
#89 = FACE_OUTER_BOUND ( 'NONE', #404, .T. ) ;
#90 = ORIENTED_EDGE ( 'NONE', *, *, #724, .F. ) ;
#91 = DIRECTION ( 'NONE',  ( 1.000000000000000000, -1.031877304899886336E-16, 0.000000000000000000 ) ) ;
#92 = LINE ( 'NONE', #411, #446 ) ;
#93 = EDGE_CURVE ( 'NONE', #342, #588, #881, .T. ) ;
#94 = ORIENTED_EDGE ( 'NONE', *, *, #407, .F. ) ;
#95 = FACE_OUTER_BOUND ( 'NONE', #166, .T. ) ;
#96 = CARTESIAN_POINT ( 'NONE',  ( -0.4966679003208989140, -183.7397459621556663, -25.25000000000004974 ) ) ;
#97 = CARTESIAN_POINT ( 'NONE',  ( 0.1999999999999977907, -45.00000000000006395, -5.000000000000018652 ) ) ;
#98 = AXIS2_PLACEMENT_3D ( 'NONE', #821, #485, #827 ) ;
#99 = ORIENTED_EDGE ( 'NONE', *, *, #242, .F. ) ;
#100 = LINE ( 'NONE', #275, #528 ) ;
#101 = EDGE_CURVE ( 'NONE', #280, #682, #437, .T. ) ;
#102 = CARTESIAN_POINT ( 'NONE',  ( -7.906919831218042205, -41.59518687904360945, -180.4763037640402104 ) ) ;
#103 =( GEOMETRIC_REPRESENTATION_CONTEXT ( 3 ) GLOBAL_UNCERTAINTY_ASSIGNED_CONTEXT ( ( #585 ) ) GLOBAL_UNIT_ASSIGNED_CONTEXT ( ( #249, #500, #321 ) ) REPRESENTATION_CONTEXT ( 'NONE', 'WORKASPACE' ) );
#104 = AXIS2_PLACEMENT_3D ( 'NONE', #571, #396, #300 ) ;
#105 = ORIENTED_EDGE ( 'NONE', *, *, #252, .T. ) ;
#106 = DIRECTION ( 'NONE',  ( 0.000000000000000000, 1.000000000000000000, 0.000000000000000000 ) ) ;
#107 = DIRECTION ( 'NONE',  ( 1.445602896647337931E-16, 1.000000000000000000, 0.000000000000000000 ) ) ;
#108 = EDGE_CURVE ( 'NONE', #501, #1057, #303, .T. ) ;
#109 = DIRECTION ( 'NONE',  ( 0.000000000000000000, 0.000000000000000000, 1.000000000000000000 ) ) ;
#110 = EDGE_LOOP ( 'NONE', ( #375, #735, #864, #703, #299 ) ) ;
#111 = CARTESIAN_POINT ( 'NONE',  ( -7.906919831218042205, -41.59518687904360945, -25.24999999999999289 ) ) ;
#112 = ORIENTED_EDGE ( 'NONE', *, *, #1036, .T. ) ;
#113 = FACE_OUTER_BOUND ( 'NONE', #288, .T. ) ;
#114 = CARTESIAN_POINT ( 'NONE',  ( -3.749997893052750886, -168.5048131209564417, -25.25000000000004974 ) ) ;
#115 = ORIENTED_EDGE ( 'NONE', *, *, #869, .T. ) ;
#116 = LINE ( 'NONE', #36, #381 ) ;
#117 = VECTOR ( 'NONE', #779, 1000.000000000000000 ) ;
#118 = CARTESIAN_POINT ( 'NONE',  ( -8.549997893052767139, -169.0999999999999943, -5.000000000000127898 ) ) ;
#119 = VECTOR ( 'NONE', #975, 1000.000000000000114 ) ;
#120 = CARTESIAN_POINT ( 'NONE',  ( -8.549997893052754705, -46.60000000000005826, -20.25000000000000355 ) ) ;
#121 = ADVANCED_FACE ( 'NONE', ( #131 ), #543, .T. ) ;
#122 = DIRECTION ( 'NONE',  ( 0.5000000000000006661, 0.8660254037844382635, 2.884444029575343999E-16 ) ) ;
#123 = B_SPLINE_CURVE_WITH_KNOTS ( 'NONE', 3,
 ( #62, #232, #554, #562, #638, #577, #51, #376 ),
 .UNSPECIFIED., .F., .F.,
 ( 4, 2, 2, 4 ),
 ( 0.001421017662254419386, 0.001775724732212782819, 0.002130431802171145819, 0.002839845942087882227 ),
 .UNSPECIFIED. ) ;
#124 = DIRECTION ( 'NONE',  ( -1.000000000000000000, 0.000000000000000000, 0.000000000000000000 ) ) ;
#125 = DIRECTION ( 'NONE',  ( -1.703117503849664896E-32, 3.330669073875468635E-16, -1.000000000000000000 ) ) ;
#126 = ORIENTED_EDGE ( 'NONE', *, *, #875, .F. ) ;
#127 = EDGE_CURVE ( 'NONE', #338, #465, #537, .T. ) ;
#128 = CARTESIAN_POINT ( 'NONE',  ( -8.512954178702903718, -43.40000000000006253, -20.01288734129207469 ) ) ;
#129 = VERTEX_POINT ( 'NONE', #455 ) ;
#130 = CARTESIAN_POINT ( 'NONE',  ( -8.549997893052767139, -165.9000000000000057, -5.000000000000127898 ) ) ;
#131 = FACE_OUTER_BOUND ( 'NONE', #1053, .T. ) ;
#132 = EDGE_LOOP ( 'NONE', ( #727, #1047 ) ) ;
#133 = CARTESIAN_POINT ( 'NONE',  ( 0.1999999999999977907, -45.00000000000006395, -5.000000000000018652 ) ) ;
#134 = ADVANCED_FACE ( 'NONE', ( #47 ), #39, .F. ) ;
#135 = ORIENTED_EDGE ( 'NONE', *, *, #357, .F. ) ;
#136 = DIRECTION ( 'NONE',  ( 1.000000000000000000, 0.000000000000000000, 0.000000000000000000 ) ) ;
#137 = AXIS2_PLACEMENT_3D ( 'NONE', #230, #490, #833 ) ;
#138 = EDGE_CURVE ( 'NONE', #338, #415, #234, .T. ) ;
#139 = AXIS2_PLACEMENT_3D ( 'NONE', #950, #871, #57 ) ;
#140 = FACE_OUTER_BOUND ( 'NONE', #582, .T. ) ;
#141 = EDGE_LOOP ( 'NONE', ( #808, #19, #1041, #391, #733 ) ) ;
#142 = CARTESIAN_POINT ( 'NONE',  ( -2.800000000000002487, -48.00000000000005684, -20.25000000000000355 ) ) ;
#143 = ORIENTED_EDGE ( 'NONE', *, *, #179, .T. ) ;
#144 = PLANE ( 'NONE',  #759 ) ;
#145 = CIRCLE ( 'NONE', #565, 1.599999999999990319 ) ;
#146 = CARTESIAN_POINT ( 'NONE',  ( -8.512954178702912600, -169.0999999999999943, -20.48711265870804255 ) ) ;
#147 = EDGE_CURVE ( 'NONE', #223, #825, #451, .T. ) ;
#148 = CARTESIAN_POINT ( 'NONE',  ( -8.534575034698539397, -43.60730339761308016, -19.45347732246800376 ) ) ;
#149 = ORIENTED_EDGE ( 'NONE', *, *, #840, .F. ) ;
#150 = DIRECTION ( 'NONE',  ( 0.000000000000000000, 1.000000000000000000, 0.000000000000000000 ) ) ;
#151 = CARTESIAN_POINT ( 'NONE',  ( -8.549997893052742270, -43.99518687904360803, -180.4763037640402104 ) ) ;
#152 = CARTESIAN_POINT ( 'NONE',  ( -8.539628069534389354, -43.67136286931462053, -19.35068122478869412 ) ) ;
#153 = ORIENTED_EDGE ( 'NONE', *, *, #838, .F. ) ;
#154 = DIRECTION ( 'NONE',  ( 0.000000000000000000, 0.000000000000000000, 1.000000000000000000 ) ) ;
#155 = CARTESIAN_POINT ( 'NONE',  ( -2.800000000000015365, -167.4999999999999716, -20.25000000000011369 ) ) ;
#156 = ORIENTED_EDGE ( 'NONE', *, *, #748, .F. ) ;
#157 = CARTESIAN_POINT ( 'NONE',  ( -8.549997893052754705, -168.6915111890956496, -19.15553347895695424 ) ) ;
#158 = CARTESIAN_POINT ( 'NONE',  ( 0.1999999999999851341, -167.4999999999999716, -20.25000000000011369 ) ) ;
#159 = AXIS2_PLACEMENT_3D ( 'NONE', #936, #28, #609 ) ;
#160 = VERTEX_POINT ( 'NONE', #862 ) ;
#161 = APPLICATION_PROTOCOL_DEFINITION ( 'draft international standard', 'automotive_design', 1998, #539 ) ;
#162 = VERTEX_POINT ( 'NONE', #34 ) ;
#163 = DIRECTION ( 'NONE',  ( -0.000000000000000000, -1.000000000000000000, -0.000000000000000000 ) ) ;
#164 = DIRECTION ( 'NONE',  ( 1.807003620809171822E-15, -1.000000000000000000, 0.000000000000000000 ) ) ;
#165 = CIRCLE ( 'NONE', #516, 3.000000000000002665 ) ;
#166 = EDGE_LOOP ( 'NONE', ( #551, #112, #322, #153 ) ) ;
#167 = FACE_OUTER_BOUND ( 'NONE', #241, .T. ) ;
#168 = CARTESIAN_POINT ( 'NONE',  ( -2.800000000000015365, -170.5000000000000000, -5.000000000000127898 ) ) ;
#169 = EDGE_CURVE ( 'NONE', #1035, #911, #958, .T. ) ;
#170 = CIRCLE ( 'NONE', #1024, 3.000000000000002665 ) ;
#171 = ORIENTED_EDGE ( 'NONE', *, *, #1013, .T. ) ;
#172 = LINE ( 'NONE', #752, #394 ) ;
#173 = CYLINDRICAL_SURFACE ( 'NONE', #484, 1.599999999999990319 ) ;
#174 = FACE_OUTER_BOUND ( 'NONE', #482, .T. ) ;
#175 = EDGE_CURVE ( 'NONE', #964, #788, #707, .T. ) ;
#176 = VERTEX_POINT ( 'NONE', #279 ) ;
#177 = CARTESIAN_POINT ( 'NONE',  ( 0.1999999999999851341, -167.5000000000000000, -5.000000000000127898 ) ) ;
#178 = CARTESIAN_POINT ( 'NONE',  ( -8.512954178702910824, -169.0999999999999943, -5.237112658708054092 ) ) ;
#179 = EDGE_CURVE ( 'NONE', #420, #223, #363, .T. ) ;
#180 = ORIENTED_EDGE ( 'NONE', *, *, #710, .T. ) ;
#181 = DIRECTION ( 'NONE',  ( 1.031877304899886336E-16, 1.000000000000000000, 0.000000000000000000 ) ) ;
#182 = DIRECTION ( 'NONE',  ( 0.000000000000000000, 0.000000000000000000, 1.000000000000000000 ) ) ;
#183 = VECTOR ( 'NONE', #309, 1000.000000000000000 ) ;
#184 = AXIS2_PLACEMENT_3D ( 'NONE', #508, #1011, #260 ) ;
#185 = ORIENTED_EDGE ( 'NONE', *, *, #479, .F. ) ;
#186 = PRODUCT_RELATED_PRODUCT_CATEGORY ( 'part', '', ( #723 ) ) ;
#187 = CARTESIAN_POINT ( 'NONE',  ( -8.520801216717039495, -43.46591146465769384, -5.469683883750869668 ) ) ;
#188 = DIRECTION ( 'NONE',  ( 1.000000000000000000, -1.031877304899886336E-16, 0.000000000000000000 ) ) ;
#189 = DIRECTION ( 'NONE',  ( 1.000000000000000000, -1.031877304899886336E-16, -0.000000000000000000 ) ) ;
#190 = AXIS2_PLACEMENT_3D ( 'NONE', #434, #715, #775 ) ;
#191 = EDGE_LOOP ( 'NONE', ( #44, #316, #452, #295 ) ) ;
#192 = LINE ( 'NONE', #453, #470 ) ;
#193 = CARTESIAN_POINT ( 'NONE',  ( -8.512954178702905494, -43.40000000000006253, -5.000000000000018652 ) ) ;
#194 = CARTESIAN_POINT ( 'NONE',  ( -8.549997893052767139, -169.0999999999999943, -20.25000000000011369 ) ) ;
#195 = ORIENTED_EDGE ( 'NONE', *, *, #661, .F. ) ;
#196 = CARTESIAN_POINT ( 'NONE',  ( -2.800000000000002043, -45.00000000000006395, -5.000000000000018652 ) ) ;
#197 = CARTESIAN_POINT ( 'NONE',  ( -2.800000000000002043, -45.00000000000005684, -20.25000000000000355 ) ) ;
#198 = ORIENTED_EDGE ( 'NONE', *, *, #242, .T. ) ;
#199 = CARTESIAN_POINT ( 'NONE',  ( -0.4966679003209255594, -28.76025403784444734, -25.24999999999999289 ) ) ;
#200 = VECTOR ( 'NONE', #26, 1000.000000000000000 ) ;
#201 = CYLINDRICAL_SURFACE ( 'NONE', #235, 3.000000000000002665 ) ;
#202 = DIRECTION ( 'NONE',  ( 1.000000000000000000, -1.031877304899886213E-16, -0.000000000000000000 ) ) ;
#203 = EDGE_CURVE ( 'NONE', #1057, #420, #314, .T. ) ;
#204 = VERTEX_POINT ( 'NONE', #730 ) ;
#205 = CARTESIAN_POINT ( 'NONE',  ( -8.549997893052742270, -43.99518687904360803, -3.754869247045211633 ) ) ;
#206 = AXIS2_PLACEMENT_3D ( 'NONE', #616, #942, #41 ) ;
#207 = EDGE_LOOP ( 'NONE', ( #781, #1016, #90, #523 ) ) ;
#208 = CARTESIAN_POINT ( 'NONE',  ( -2.800000000000002043, -46.60000000000005826, -5.000000000000018652 ) ) ;
#209 = CARTESIAN_POINT ( 'NONE',  ( -8.549997893052754705, -43.40000000000006253, -5.000000000000018652 ) ) ;
#210 = ORIENTED_EDGE ( 'NONE', *, *, #997, .F. ) ;
#211 = ORIENTED_EDGE ( 'NONE', *, *, #563, .F. ) ;
#212 = FACE_OUTER_BOUND ( 'NONE', #1029, .T. ) ;
#213 = CARTESIAN_POINT ( 'NONE',  ( -8.549997893052749376, -165.8999999999999773, -20.25000000000011369 ) ) ;
#214 = ORIENTED_EDGE ( 'NONE', *, *, #93, .T. ) ;
#215 = CARTESIAN_POINT ( 'NONE',  ( -2.800000000000014921, -164.5000000000000000, -5.000000000000127898 ) ) ;
#216 = ADVANCED_FACE ( 'NONE', ( #1055 ), #753, .F. ) ;
#217 = ORIENTED_EDGE ( 'NONE', *, *, #581, .F. ) ;
#218 = FACE_OUTER_BOUND ( 'NONE', #207, .T. ) ;
#219 = AXIS2_PLACEMENT_3D ( 'NONE', #402, #389, #1 ) ;
#220 = CIRCLE ( 'NONE', #613, 3.000000000000002665 ) ;
#221 = LINE ( 'NONE', #749, #522 ) ;
#222 = CARTESIAN_POINT ( 'NONE',  ( 0.1999999999999977907, -45.00000000000005684, -20.25000000000000355 ) ) ;
#223 = VERTEX_POINT ( 'NONE', #656 ) ;
#224 = LINE ( 'NONE', #820, #740 ) ;
#225 = AXIS2_PLACEMENT_3D ( 'NONE', #423, #332, #512 ) ;
#226 = CARTESIAN_POINT ( 'NONE',  ( -2.800000000000015365, -167.5000000000000000, -5.000000000000127898 ) ) ;
#227 = LINE ( 'NONE', #305, #744 ) ;
#228 = VERTEX_POINT ( 'NONE', #395 ) ;
#229 = CARTESIAN_POINT ( 'NONE',  ( -2.800000000000015365, -167.5000000000000000, -5.000000000000127898 ) ) ;
#230 = CARTESIAN_POINT ( 'NONE',  ( -2.800000000000015365, -167.4999999999999716, -20.25000000000011369 ) ) ;
#231 = ORIENTED_EDGE ( 'NONE', *, *, #944, .F. ) ;
#232 = CARTESIAN_POINT ( 'NONE',  ( -8.512954178702903718, -43.40000000000006963, -20.36837366790627257 ) ) ;
#233 = CARTESIAN_POINT ( 'NONE',  ( -8.512954178702912600, -169.0999999999999943, -20.25000000000011369 ) ) ;
#234 = CIRCLE ( 'NONE', #605, 1.600000000000004086 ) ;
#235 = AXIS2_PLACEMENT_3D ( 'NONE', #542, #699, #454 ) ;
#236 = ORIENTED_EDGE ( 'NONE', *, *, #919, .T. ) ;
#237 = ORIENTED_EDGE ( 'NONE', *, *, #1013, .F. ) ;
#238 = DIRECTION ( 'NONE',  ( 0.000000000000000000, 1.000000000000000000, 0.000000000000000000 ) ) ;
#239 = CARTESIAN_POINT ( 'NONE',  ( -2.800000000000002043, -46.60000000000005826, -20.25000000000000355 ) ) ;
#240 = STYLED_ITEM ( 'NONE', ( #558 ), #955 ) ;
#241 = EDGE_LOOP ( 'NONE', ( #50, #424, #771, #877, #979, #887, #921, #635, #813, #851 ) ) ;
#242 = EDGE_CURVE ( 'NONE', #800, #631, #555, .T. ) ;
#243 = ORIENTED_EDGE ( 'NONE', *, *, #495, .T. ) ;
#244 = EDGE_CURVE ( 'NONE', #825, #682, #557, .T. ) ;
#245 = DIRECTION ( 'NONE',  ( 1.000000000000000000, 3.984046861186501840E-14, 0.000000000000000000 ) ) ;
#246 = CARTESIAN_POINT ( 'NONE',  ( -8.549997893052754705, -45.00000000000006395, -5.000000000000018652 ) ) ;
#247 = DIRECTION ( 'NONE',  ( 1.000000000000000000, -1.031877304899886336E-16, 0.000000000000000000 ) ) ;
#248 = VECTOR ( 'NONE', #273, 1000.000000000000000 ) ;
#249 =( LENGTH_UNIT ( ) NAMED_UNIT ( * ) SI_UNIT ( .MILLI., .METRE. ) );
#250 = ORIENTED_EDGE ( 'NONE', *, *, #244, .T. ) ;
#251 = CARTESIAN_POINT ( 'NONE',  ( -8.525143559595505849, -168.9953912722294262, -19.66850896079152733 ) ) ;
#252 = EDGE_CURVE ( 'NONE', #911, #908, #170, .T. ) ;
#253 = DIRECTION ( 'NONE',  ( 0.000000000000000000, 0.000000000000000000, 1.000000000000000000 ) ) ;
#254 = VECTOR ( 'NONE', #6, 1000.000000000000000 ) ;
#255 = VECTOR ( 'NONE', #769, 1000.000000000000227 ) ;
#256 = ORIENTED_EDGE ( 'NONE', *, *, #982, .T. ) ;
#257 = PLANE ( 'NONE',  #874 ) ;
#258 = CARTESIAN_POINT ( 'NONE',  ( -8.549997893052749376, -168.5983139959142534, -6.169676102304348930 ) ) ;
#259 = ORIENTED_EDGE ( 'NONE', *, *, #390, .T. ) ;
#260 = DIRECTION ( 'NONE',  ( 0.000000000000000000, 0.000000000000000000, 1.000000000000000000 ) ) ;
#261 = LINE ( 'NONE', #509, #200 ) ;
#262 = ADVANCED_FACE ( 'NONE', ( #140 ), #660, .F. ) ;
#263 = ORIENTED_EDGE ( 'NONE', *, *, #147, .F. ) ;
#264 = PLANE ( 'NONE',  #159 ) ;
#265 = LINE ( 'NONE', #118, #872 ) ;
#266 = CARTESIAN_POINT ( 'NONE',  ( -2.800000000000015365, -167.4999999999999716, -20.25000000000011369 ) ) ;
#267 = CIRCLE ( 'NONE', #1043, 3.000000000000002665 ) ;
#268 = CIRCLE ( 'NONE', #596, 3.000000000000002665 ) ;
#269 = VERTEX_POINT ( 'NONE', #78 ) ;
#270 = CARTESIAN_POINT ( 'NONE',  ( -8.514691393214748771, -43.41347159913975418, -5.238659209308601739 ) ) ;
#271 = ORIENTED_EDGE ( 'NONE', *, *, #889, .F. ) ;
#272 = CARTESIAN_POINT ( 'NONE',  ( -8.549997893052742270, -43.99518687904360803, -3.754869247045211633 ) ) ;
#273 = DIRECTION ( 'NONE',  ( 1.000000000000000000, -1.031877304899886336E-16, -0.000000000000000000 ) ) ;
#274 = ORIENTED_EDGE ( 'NONE', *, *, #169, .T. ) ;
#275 = CARTESIAN_POINT ( 'NONE',  ( -8.549997893052754705, -43.40000000000004832, -20.25000000000000355 ) ) ;
#276 = EDGE_CURVE ( 'NONE', #501, #540, #406, .T. ) ;
#277 = EDGE_LOOP ( 'NONE', ( #486, #409, #644, #847 ) ) ;
#278 = CARTESIAN_POINT ( 'NONE',  ( -8.512954178702907271, -43.40000000000006963, -4.762887341292093346 ) ) ;
#279 = CARTESIAN_POINT ( 'NONE',  ( -0.4966679003209281684, -28.76025403784444734, 0.000000000000000000 ) ) ;
#280 = VERTEX_POINT ( 'NONE', #213 ) ;
#281 = PLANE ( 'NONE',  #331 ) ;
#282 = LINE ( 'NONE', #130, #857 ) ;
#283 = EDGE_CURVE ( 'NONE', #160, #162, #221, .T. ) ;
#284 = DIRECTION ( 'NONE',  ( 1.000000000000000000, -1.031877304899886336E-16, 0.000000000000000000 ) ) ;
#285 = ORIENTED_EDGE ( 'NONE', *, *, #7, .T. ) ;
#286 = DIRECTION ( 'NONE',  ( 0.000000000000000000, 1.000000000000000000, 0.000000000000000000 ) ) ;
#287 = AXIS2_PLACEMENT_3D ( 'NONE', #844, #503, #164 ) ;
#288 = EDGE_LOOP ( 'NONE', ( #60, #476, #720, #94, #676, #156, #149, #256, #211, #671, #48, #714, #764, #408, #623, #1025 ) ) ;
#289 = DIRECTION ( 'NONE',  ( 1.000000000000000000, -1.031877304899886213E-16, -0.000000000000000000 ) ) ;
#290 = CARTESIAN_POINT ( 'NONE',  ( -8.549997893052749376, -165.9000000000000057, -5.000000000000127898 ) ) ;
#291 = EDGE_CURVE ( 'NONE', #969, #348, #9, .T. ) ;
#292 = ORIENTED_EDGE ( 'NONE', *, *, #365, .F. ) ;
#293 = DIRECTION ( 'NONE',  ( 0.000000000000000000, 0.000000000000000000, 1.000000000000000000 ) ) ;
#294 = VECTOR ( 'NONE', #709, 1000.000000000000000 ) ;
#295 = ORIENTED_EDGE ( 'NONE', *, *, #169, .F. ) ;
#296 = DIRECTION ( 'NONE',  ( -0.5000000000000006661, -0.8660254037844382635, 0.000000000000000000 ) ) ;
#297 = DIRECTION ( 'NONE',  ( 1.000000000000000000, -1.031877304899886213E-16, -0.000000000000000000 ) ) ;
#298 = ADVANCED_FACE ( 'NONE', ( #652, #898 ), #59, .T. ) ;
#299 = ORIENTED_EDGE ( 'NONE', *, *, #906, .F. ) ;
#300 = DIRECTION ( 'NONE',  ( 0.000000000000000000, 1.000000000000000000, 0.000000000000000000 ) ) ;
#301 = ORIENTED_EDGE ( 'NONE', *, *, #906, .T. ) ;
#302 = CARTESIAN_POINT ( 'NONE',  ( 0.1999999999999834965, -183.7397459621556095, -25.25000000000004974 ) ) ;
#303 = CIRCLE ( 'NONE', #835, 4.799999999999998934 ) ;
#304 = DIRECTION ( 'NONE',  ( 1.000000000000000000, -1.031877304899886336E-16, 0.000000000000000000 ) ) ;
#305 = CARTESIAN_POINT ( 'NONE',  ( -8.549997893052749376, -168.5048131209564417, -180.4763037640402104 ) ) ;
#306 = VERTEX_POINT ( 'NONE', #574 ) ;
#307 = VECTOR ( 'NONE', #467, 1000.000000000000000 ) ;
#308 = CIRCLE ( 'NONE', #559, 1.600000000000004086 ) ;
#309 = DIRECTION ( 'NONE',  ( -1.031877304899886336E-16, -1.000000000000000000, -3.330669073875468635E-16 ) ) ;
#310 = CARTESIAN_POINT ( 'NONE',  ( -8.520499623292295155, -43.45403872937846046, -19.77438191978243509 ) ) ;
#311 = ORIENTED_EDGE ( 'NONE', *, *, #147, .T. ) ;
#312 = DIRECTION ( 'NONE',  ( 0.000000000000000000, 1.000000000000000000, 0.000000000000000000 ) ) ;
#313 = ADVANCED_FACE ( 'NONE', ( #902 ), #564, .F. ) ;
#314 = LINE ( 'NONE', #569, #991 ) ;
#315 = B_SPLINE_CURVE_WITH_KNOTS ( 'NONE', 3,
 ( #721, #655, #803, #317, #891, #466, #573, #729 ),
 .UNSPECIFIED., .F., .F.,
 ( 4, 2, 2, 4 ),
 ( 0.001421017662254410278, 0.001775724732212774146, 0.002130431802171138013, 0.002839845942087866181 ),
 .UNSPECIFIED. ) ;
#316 = ORIENTED_EDGE ( 'NONE', *, *, #357, .T. ) ;
#317 = CARTESIAN_POINT ( 'NONE',  ( -8.520801216717046600, -169.0340885353423346, -4.530316116249272440 ) ) ;
#318 = CARTESIAN_POINT ( 'NONE',  ( -8.549997893052754705, -46.60000000000005826, -20.25000000000000355 ) ) ;
#319 = EDGE_CURVE ( 'NONE', #948, #338, #578, .T. ) ;
#320 = AXIS2_PLACEMENT_3D ( 'NONE', #97, #247, #428 ) ;
#321 =( NAMED_UNIT ( * ) SI_UNIT ( $, .STERADIAN. ) SOLID_ANGLE_UNIT ( ) );
#322 = ORIENTED_EDGE ( 'NONE', *, *, #929, .F. ) ;
#323 = CARTESIAN_POINT ( 'NONE',  ( -8.549997893052749376, -168.5048131209564417, 0.000000000000000000 ) ) ;
#324 = DIRECTION ( 'NONE',  ( 1.000000000000000000, -1.031877304899886336E-16, 0.000000000000000000 ) ) ;
#325 = AXIS2_PLACEMENT_3D ( 'NONE', #956, #879, #1026 ) ;
#326 = ORIENTED_EDGE ( 'NONE', *, *, #108, .T. ) ;
#327 = ADVANCED_FACE ( 'NONE', ( #73 ), #63, .F. ) ;
#328 = EDGE_LOOP ( 'NONE', ( #992, #1071 ) ) ;
#329 = CARTESIAN_POINT ( 'NONE',  ( -8.539355608166092182, -168.8406477730072197, -19.34447744827120275 ) ) ;
#330 = CARTESIAN_POINT ( 'NONE',  ( -8.549997893052754705, -45.00000000000006395, -5.000000000000018652 ) ) ;
#331 = AXIS2_PLACEMENT_3D ( 'NONE', #196, #697, #181 ) ;
#332 = DIRECTION ( 'NONE',  ( 0.000000000000000000, 1.000000000000000000, 0.000000000000000000 ) ) ;
#333 = EDGE_LOOP ( 'NONE', ( #531, #599, #692, #285 ) ) ;
#334 = CARTESIAN_POINT ( 'NONE',  ( -8.549997893052749376, -168.5048131209564417, -19.00486924704530978 ) ) ;
#335 = DIRECTION ( 'NONE',  ( 1.445602896647337931E-16, 1.000000000000000000, 0.000000000000000000 ) ) ;
#336 = FACE_OUTER_BOUND ( 'NONE', #953, .T. ) ;
#337 = CARTESIAN_POINT ( 'NONE',  ( -8.549997893052749376, -168.5048131209564417, -19.00486924704530978 ) ) ;
#338 = VERTEX_POINT ( 'NONE', #318 ) ;
#339 = CARTESIAN_POINT ( 'NONE',  ( 0.1999999999999994560, -28.76025403784444734, -25.24999999999999289 ) ) ;
#340 = LINE ( 'NONE', #102, #504 ) ;
#341 = AXIS2_PLACEMENT_3D ( 'NONE', #330, #324, #760 ) ;
#342 = VERTEX_POINT ( 'NONE', #737 ) ;
#343 = CARTESIAN_POINT ( 'NONE',  ( -8.512954178702912600, -169.0999999999999943, -20.25000000000011369 ) ) ;
#344 = DIRECTION ( 'NONE',  ( 9.938519914450448273E-17, 1.000000000000000000, 0.000000000000000000 ) ) ;
#345 = EDGE_CURVE ( 'NONE', #948, #306, #1062, .T. ) ;
#346 = PLANE ( 'NONE',  #659 ) ;
#347 = COLOUR_RGB ( '',1.000000000000000000, 1.000000000000000000, 1.000000000000000000 ) ;
#348 = VERTEX_POINT ( 'NONE', #69 ) ;
#349 = CARTESIAN_POINT ( 'NONE',  ( -8.549997893052754705, -43.99518687904362224, -6.245130752954814568 ) ) ;
#350 = CARTESIAN_POINT ( 'NONE',  ( -2.800000000000002043, -45.00000000000006395, -5.000000000000018652 ) ) ;
#351 = ORIENTED_EDGE ( 'NONE', *, *, #345, .T. ) ;
#352 = CARTESIAN_POINT ( 'NONE',  ( -8.549997893052767139, -167.5000000000000000, -5.000000000000127898 ) ) ;
#353 = ORIENTED_EDGE ( 'NONE', *, *, #138, .F. ) ;
#354 = FACE_OUTER_BOUND ( 'NONE', #567, .T. ) ;
#355 = DIRECTION ( 'NONE',  ( 1.445602896647337931E-16, 1.000000000000000000, 0.000000000000000000 ) ) ;
#356 = VECTOR ( 'NONE', #1012, 1000.000000000000000 ) ;
#357 = EDGE_CURVE ( 'NONE', #746, #908, #261, .T. ) ;
#358 = CIRCLE ( 'NONE', #807, 3.000000000000002665 ) ;
#359 = ORIENTED_EDGE ( 'NONE', *, *, #378, .F. ) ;
#360 = FACE_OUTER_BOUND ( 'NONE', #110, .T. ) ;
#361 = CARTESIAN_POINT ( 'NONE',  ( -7.906919831218049310, -170.9048131209564474, 0.000000000000000000 ) ) ;
#362 = CARTESIAN_POINT ( 'NONE',  ( -2.800000000000014921, -164.4999999999999716, -20.25000000000011369 ) ) ;
#363 = B_SPLINE_CURVE_WITH_KNOTS ( 'NONE', 3,
 ( #622, #952, #793, #43, #368, #1038, #146, #233 ),
 .UNSPECIFIED., .F., .F.,
 ( 4, 2, 2, 4 ),
 ( 6.938893903907228378E-18, 0.0003552544155636051717, 0.0007105088311272034045, 0.001421017662254408977 ),
 .UNSPECIFIED. ) ;
#364 = ORIENTED_EDGE ( 'NONE', *, *, #378, .T. ) ;
#365 = EDGE_CURVE ( 'NONE', #895, #608, #340, .T. ) ;
#366 = CARTESIAN_POINT ( 'NONE',  ( -0.4966679003209212295, -183.7397459621556379, 0.000000000000000000 ) ) ;
#367 = CARTESIAN_POINT ( 'NONE',  ( -8.549997893052742270, -43.90168600408583899, -3.830323897695789181 ) ) ;
#368 = CARTESIAN_POINT ( 'NONE',  ( -8.534575034698548279, -168.8926966023869625, -21.04652267753209571 ) ) ;
#369 = B_SPLINE_CURVE_WITH_KNOTS ( 'NONE', 3,
 ( #272, #367, #527, #797, #860, #536, #278, #193 ),
 .UNSPECIFIED., .F., .F.,
 ( 4, 2, 2, 4 ),
 ( 8.182674270850420572E-18, 0.0003552544155636059848, 0.0007105088311272037297, 0.001421017662254408544 ),
 .UNSPECIFIED. ) ;
#370 = VERTEX_POINT ( 'NONE', #685 ) ;
#371 = DIRECTION ( 'NONE',  ( 1.000000000000000000, -1.031877304899886336E-16, -0.000000000000000000 ) ) ;
#372 = CARTESIAN_POINT ( 'NONE',  ( -0.4966679003209281684, -28.76025403784444734, -25.24999999999999289 ) ) ;
#373 = ORIENTED_EDGE ( 'NONE', *, *, #795, .T. ) ;
#374 = CIRCLE ( 'NONE', #538, 1.599999999999998979 ) ;
#375 = ORIENTED_EDGE ( 'NONE', *, *, #93, .F. ) ;
#376 = CARTESIAN_POINT ( 'NONE',  ( -8.549997893052754705, -43.99518687904362224, -21.49513075295480746 ) ) ;
#377 = CARTESIAN_POINT ( 'NONE',  ( -8.549997893052754705, -45.00000000000005684, -20.25000000000000355 ) ) ;
#378 = EDGE_CURVE ( 'NONE', #884, #964, #267, .T. ) ;
#379 = ORIENTED_EDGE ( 'NONE', *, *, #479, .T. ) ;
#380 = CARTESIAN_POINT ( 'NONE',  ( -8.549997893052742270, -43.99518687904360803, -19.00486924704519609 ) ) ;
#381 = VECTOR ( 'NONE', #520, 1000.000000000000000 ) ;
#382 = ORIENTED_EDGE ( 'NONE', *, *, #761, .F. ) ;
#383 = DIRECTION ( 'NONE',  ( -1.000000000000000000, 1.031877304899886336E-16, -0.000000000000000000 ) ) ;
#384 = CARTESIAN_POINT ( 'NONE',  ( -8.549997893052767139, -167.4999999999999716, -20.25000000000011369 ) ) ;
#385 = ORIENTED_EDGE ( 'NONE', *, *, #425, .T. ) ;
#386 = DIRECTION ( 'NONE',  ( 1.000000000000000000, 0.000000000000000000, 0.000000000000000000 ) ) ;
#387 = ORIENTED_EDGE ( 'NONE', *, *, #2, .F. ) ;
#388 = DIRECTION ( 'NONE',  ( -0.8660254037844383745, -0.5000000000000004441, 0.000000000000000000 ) ) ;
#389 = DIRECTION ( 'NONE',  ( 1.000000000000000000, -1.031877304899886213E-16, -0.000000000000000000 ) ) ;
#390 = EDGE_CURVE ( 'NONE', #1039, #501, #1007, .T. ) ;
#391 = ORIENTED_EDGE ( 'NONE', *, *, #601, .F. ) ;
#392 = DIRECTION ( 'NONE',  ( 1.000000000000000000, -1.031877304899886336E-16, -0.000000000000000000 ) ) ;
#393 = AXIS2_PLACEMENT_3D ( 'NONE', #639, #812, #977 ) ;
#394 = VECTOR ( 'NONE', #24, 1000.000000000000000 ) ;
#395 = CARTESIAN_POINT ( 'NONE',  ( -2.800000000000015365, -165.9000000000000057, -5.000000000000127898 ) ) ;
#396 = DIRECTION ( 'NONE',  ( -1.000000000000000000, 1.031877304899886336E-16, -0.000000000000000000 ) ) ;
#397 = EDGE_CURVE ( 'NONE', #913, #31, #893, .T. ) ;
#398 = EDGE_CURVE ( 'NONE', #204, #546, #499, .T. ) ;
#399 = ORIENTED_EDGE ( 'NONE', *, *, #787, .T. ) ;
#400 = DIRECTION ( 'NONE',  ( 1.445602896647337931E-16, 1.000000000000000000, 0.000000000000000000 ) ) ;
#401 = AXIS2_PLACEMENT_3D ( 'NONE', #552, #66, #648 ) ;
#402 = CARTESIAN_POINT ( 'NONE',  ( -2.800000000000002043, -45.00000000000006395, -5.000000000000018652 ) ) ;
#403 = CARTESIAN_POINT ( 'NONE',  ( -8.549997893052749376, -168.5048131209564417, -25.25000000000004974 ) ) ;
#404 = EDGE_LOOP ( 'NONE', ( #614, #243, #1019, #75 ) ) ;
#405 = DIRECTION ( 'NONE',  ( 1.000000000000000000, -1.031877304899886336E-16, -0.000000000000000000 ) ) ;
#406 = LINE ( 'NONE', #910, #307 ) ;
#407 = EDGE_CURVE ( 'NONE', #1057, #592, #92, .T. ) ;
#408 = ORIENTED_EDGE ( 'NONE', *, *, #487, .T. ) ;
#409 = ORIENTED_EDGE ( 'NONE', *, *, #436, .T. ) ;
#410 = DIRECTION ( 'NONE',  ( 0.000000000000000000, 0.000000000000000000, 1.000000000000000000 ) ) ;
#411 = CARTESIAN_POINT ( 'NONE',  ( -8.549997893052749376, -168.5048131209564986, -25.25000000000004974 ) ) ;
#412 = CIRCLE ( 'NONE', #822, 3.000000000000002665 ) ;
#413 = AXIS2_PLACEMENT_3D ( 'NONE', #837, #410, #918 ) ;
#414 = EDGE_CURVE ( 'NONE', #783, #129, #412, .T. ) ;
#415 = VERTEX_POINT ( 'NONE', #689 ) ;
#416 = DIRECTION ( 'NONE',  ( 0.000000000000000000, 1.000000000000000000, 0.000000000000000000 ) ) ;
#417 = CARTESIAN_POINT ( 'NONE',  ( -8.520499623292300484, -169.0459612706216603, -5.475618080217685701 ) ) ;
#418 = DIRECTION ( 'NONE',  ( 1.031877304899886336E-16, 1.000000000000000000, 0.000000000000000000 ) ) ;
#419 = DIRECTION ( 'NONE',  ( 0.000000000000000000, 1.000000000000000000, 0.000000000000000000 ) ) ;
#420 = VERTEX_POINT ( 'NONE', #920 ) ;
#421 = CARTESIAN_POINT ( 'NONE',  ( -2.800000000000002487, -48.00000000000006395, -5.000000000000018652 ) ) ;
#422 = CARTESIAN_POINT ( 'NONE',  ( -2.800000000000015365, -167.5000000000000000, -5.000000000000127898 ) ) ;
#423 = CARTESIAN_POINT ( 'NONE',  ( -0.4966679003209281684, -28.76025403784444734, -180.4763037640402104 ) ) ;
#424 = ORIENTED_EDGE ( 'NONE', *, *, #982, .F. ) ;
#425 = EDGE_CURVE ( 'NONE', #682, #825, #972, .T. ) ;
#426 = CARTESIAN_POINT ( 'NONE',  ( -8.512954178702910824, -169.1000000000000227, -20.13162633209383756 ) ) ;
#427 = CARTESIAN_POINT ( 'NONE',  ( -8.512954178702910824, -169.0999999999999943, -5.000000000000127898 ) ) ;
#428 = DIRECTION ( 'NONE',  ( 9.938519914450448273E-17, 1.000000000000000000, 0.000000000000000000 ) ) ;
#429 = CYLINDRICAL_SURFACE ( 'NONE', #190, 1.600000000000018074 ) ;
#430 = LINE ( 'NONE', #168, #254 ) ;
#431 = PRODUCT_DEFINITION_FORMATION_WITH_SPECIFIED_SOURCE ( '‰ª', '', #723, .NOT_KNOWN. ) ;
#432 = AXIS2_PLACEMENT_3D ( 'NONE', #814, #1065, #386 ) ;
#433 = ORIENTED_EDGE ( 'NONE', *, *, #695, .T. ) ;
#434 = CARTESIAN_POINT ( 'NONE',  ( -8.549997893052767139, -167.4999999999999716, -20.25000000000011369 ) ) ;
#435 = CARTESIAN_POINT ( 'NONE',  ( 0.1999999999999851341, -167.4999999999999716, -20.25000000000011369 ) ) ;
#436 = EDGE_CURVE ( 'NONE', #774, #459, #680, .T. ) ;
#437 = LINE ( 'NONE', #868, #679 ) ;
#438 = EDGE_CURVE ( 'NONE', #592, #415, #82, .T. ) ;
#439 = ORIENTED_EDGE ( 'NONE', *, *, #7, .F. ) ;
#440 = CYLINDRICAL_SURFACE ( 'NONE', #58, 1.599999999999990319 ) ;
#441 = PRODUCT_DEFINITION_CONTEXT ( 'detailed design', #670, 'design' ) ;
#442 = ORIENTED_EDGE ( 'NONE', *, *, #724, .T. ) ;
#443 = FACE_BOUND ( 'NONE', #935, .T. ) ;
#444 = DIRECTION ( 'NONE',  ( 1.000000000000000000, -1.031877304899886336E-16, -0.000000000000000000 ) ) ;
#445 = EDGE_CURVE ( 'NONE', #884, #269, #430, .T. ) ;
#446 = VECTOR ( 'NONE', #591, 1000.000000000000000 ) ;
#447 = AXIS2_PLACEMENT_3D ( 'NONE', #1048, #154, #136 ) ;
#448 = EDGE_LOOP ( 'NONE', ( #143, #311, #23, #708, #941 ) ) ;
#449 = CYLINDRICAL_SURFACE ( 'NONE', #206, 1.599999999999997202 ) ;
#450 = CARTESIAN_POINT ( 'NONE',  ( 0.1999999999999834688, -183.7397459621556095, 0.000000000000000000 ) ) ;
#451 = LINE ( 'NONE', #194, #738 ) ;
#452 = ORIENTED_EDGE ( 'NONE', *, *, #526, .T. ) ;
#453 = CARTESIAN_POINT ( 'NONE',  ( -7.906919831218065298, -41.59518687904365208, -25.24999999999999289 ) ) ;
#454 = DIRECTION ( 'NONE',  ( 1.445602896647337931E-16, 1.000000000000000000, 0.000000000000000000 ) ) ;
#455 = CARTESIAN_POINT ( 'NONE',  ( 0.1999999999999980960, -42.00000000000004974, -20.25000000000000355 ) ) ;
#456 = CARTESIAN_POINT ( 'NONE',  ( -2.800000000000014921, -164.4999999999999716, -20.25000000000011369 ) ) ;
#457 = EDGE_CURVE ( 'NONE', #342, #306, #663, .T. ) ;
#458 = VECTOR ( 'NONE', #785, 1000.000000000000000 ) ;
#459 = VERTEX_POINT ( 'NONE', #994 ) ;
#460 = FACE_OUTER_BOUND ( 'NONE', #858, .T. ) ;
#461 = ORIENTED_EDGE ( 'NONE', *, *, #291, .F. ) ;
#462 = VECTOR ( 'NONE', #712, 1000.000000000000000 ) ;
#463 = DIRECTION ( 'NONE',  ( 1.000000000000000000, -1.031877304899886336E-16, 0.000000000000000000 ) ) ;
#464 = VECTOR ( 'NONE', #816, 1000.000000000000000 ) ;
#465 = VERTEX_POINT ( 'NONE', #239 ) ;
#466 = CARTESIAN_POINT ( 'NONE',  ( -8.539355608166093958, -168.8406477730072481, -4.094477448271211628 ) ) ;
#467 = DIRECTION ( 'NONE',  ( 0.000000000000000000, 0.000000000000000000, 1.000000000000000000 ) ) ;
#468 = ORIENTED_EDGE ( 'NONE', *, *, #787, .F. ) ;
#469 = AXIS2_PLACEMENT_3D ( 'NONE', #222, #463, #636 ) ;
#470 = VECTOR ( 'NONE', #122, 1000.000000000000114 ) ;
#471 = ORIENTED_EDGE ( 'NONE', *, *, #390, .F. ) ;
#472 = CARTESIAN_POINT ( 'NONE',  ( -0.4966679003209212295, -183.7397459621556379, -180.4763037640402104 ) ) ;
#473 = DIRECTION ( 'NONE',  ( 1.000000000000000000, -1.031877304899886336E-16, 0.000000000000000000 ) ) ;
#474 = EDGE_CURVE ( 'NONE', #631, #1039, #586, .T. ) ;
#475 = CARTESIAN_POINT ( 'NONE',  ( -2.800000000000002043, -45.00000000000005684, -20.25000000000000355 ) ) ;
#476 = ORIENTED_EDGE ( 'NONE', *, *, #138, .T. ) ;
#477 = CARTESIAN_POINT ( 'NONE',  ( -2.800000000000015365, -165.8999999999999773, -20.25000000000011369 ) ) ;
#478 = DIRECTION ( 'NONE',  ( 0.000000000000000000, 0.000000000000000000, 1.000000000000000000 ) ) ;
#479 = EDGE_CURVE ( 'NONE', #592, #895, #647, .T. ) ;
#480 = SURFACE_SIDE_STYLE ('',( #1058 ) ) ;
#481 = B_SPLINE_CURVE_WITH_KNOTS ( 'NONE', 3,
 ( #541, #530, #270, #187, #865, #624, #704, #349 ),
 .UNSPECIFIED., .F., .F.,
 ( 4, 2, 2, 4 ),
 ( 0.001421017662254408544, 0.001775724732212771544, 0.002130431802171134543, 0.002839845942087860110 ),
 .UNSPECIFIED. ) ;
#482 = EDGE_LOOP ( 'NONE', ( #433, #553 ) ) ;
#483 = DIRECTION ( 'NONE',  ( -0.8660254037844382635, 0.5000000000000006661, 0.000000000000000000 ) ) ;
#484 = AXIS2_PLACEMENT_3D ( 'NONE', #610, #716, #46 ) ;
#485 = DIRECTION ( 'NONE',  ( 1.000000000000000000, -1.031877304899886336E-16, 0.000000000000000000 ) ) ;
#486 = ORIENTED_EDGE ( 'NONE', *, *, #976, .F. ) ;
#487 = EDGE_CURVE ( 'NONE', #1032, #342, #1063, .T. ) ;
#488 = DIRECTION ( 'NONE',  ( 1.000000000000000000, 0.000000000000000000, -0.000000000000000000 ) ) ;
#489 = AXIS2_PLACEMENT_3D ( 'NONE', #993, #534, #954 ) ;
#490 = DIRECTION ( 'NONE',  ( 1.000000000000000000, -1.031877304899886213E-16, -0.000000000000000000 ) ) ;
#491 = EDGE_LOOP ( 'NONE', ( #664, #214, #237, #705, #597 ) ) ;
#492 = APPLICATION_PROTOCOL_DEFINITION ( 'draft international standard', 'automotive_design', 1998, #670 ) ;
#493 = ORIENTED_EDGE ( 'NONE', *, *, #77, .F. ) ;
#494 = CARTESIAN_POINT ( 'NONE',  ( 0.1999999999999974853, -48.00000000000005684, -20.25000000000000355 ) ) ;
#495 = EDGE_CURVE ( 'NONE', #900, #176, #18, .T. ) ;
#496 = AXIS2_PLACEMENT_3D ( 'NONE', #798, #805, #1051 ) ;
#497 = DIRECTION ( 'NONE',  ( 0.000000000000000000, 0.000000000000000000, 1.000000000000000000 ) ) ;
#498 = DIRECTION ( 'NONE',  ( 1.000000000000000000, -1.031877304899886336E-16, 0.000000000000000000 ) ) ;
#499 = B_SPLINE_CURVE_WITH_KNOTS ( 'NONE', 3,
 ( #21, #258, #667, #839, #600, #417, #178, #427 ),
 .UNSPECIFIED., .F., .F.,
 ( 4, 2, 2, 4 ),
 ( 6.938893903907228378E-18, 0.0003552544155636077738, 0.0007105088311272086087, 0.001421017662254410278 ),
 .UNSPECIFIED. ) ;
#500 =( NAMED_UNIT ( * ) PLANE_ANGLE_UNIT ( ) SI_UNIT ( $, .RADIAN. ) );
#501 = VERTEX_POINT ( 'NONE', #594 ) ;
#502 = DIRECTION ( 'NONE',  ( -1.000000000000000000, 0.000000000000000000, 0.000000000000000000 ) ) ;
#503 = DIRECTION ( 'NONE',  ( -1.703117503849664896E-32, 3.330669073875468635E-16, -1.000000000000000000 ) ) ;
#504 = VECTOR ( 'NONE', #497, 1000.000000000000000 ) ;
#505 = AXIS2_PLACEMENT_3D ( 'NONE', #197, #549, #885 ) ;
#506 = DIRECTION ( 'NONE',  ( -1.000000000000000000, 1.031877304899886336E-16, -0.000000000000000000 ) ) ;
#507 = ORIENTED_EDGE ( 'NONE', *, *, #445, .T. ) ;
#508 = CARTESIAN_POINT ( 'NONE',  ( -8.549997893052749376, -167.4999999999999716, -20.25000000000011369 ) ) ;
#509 = CARTESIAN_POINT ( 'NONE',  ( -2.800000000000015365, -170.4999999999999716, -20.25000000000011369 ) ) ;
#510 = CIRCLE ( 'NONE', #469, 3.000000000000002665 ) ;
#511 = ADVANCED_FACE ( 'NONE', ( #924 ), #173, .F. ) ;
#512 = DIRECTION ( 'NONE',  ( 0.000000000000000000, -0.000000000000000000, 1.000000000000000000 ) ) ;
#513 = ORIENTED_EDGE ( 'NONE', *, *, #560, .F. ) ;
#514 = CARTESIAN_POINT ( 'NONE',  ( -8.549997893052749376, -168.5048131209564417, 0.000000000000000000 ) ) ;
#515 = DIRECTION ( 'NONE',  ( 1.000000000000000000, -1.031877304899886213E-16, -0.000000000000000000 ) ) ;
#516 = AXIS2_PLACEMENT_3D ( 'NONE', #266, #498, #602 ) ;
#517 = EDGE_CURVE ( 'NONE', #900, #800, #29, .T. ) ;
#518 = ADVANCED_FACE ( 'NONE', ( #711 ), #625, .F. ) ;
#519 = EDGE_LOOP ( 'NONE', ( #831, #198, #687, #259, #326, #1001, #379, #890 ) ) ;
#520 = DIRECTION ( 'NONE',  ( 1.000000000000000000, -1.031877304899886213E-16, -0.000000000000000000 ) ) ;
#521 = DIRECTION ( 'NONE',  ( 1.000000000000000000, -1.031877304899886336E-16, 0.000000000000000000 ) ) ;
#522 = VECTOR ( 'NONE', #297, 1000.000000000000000 ) ;
#523 = ORIENTED_EDGE ( 'NONE', *, *, #495, .F. ) ;
#524 = DIRECTION ( 'NONE',  ( -1.000000000000000000, 1.031877304899886336E-16, -0.000000000000000000 ) ) ;
#525 = UNCERTAINTY_MEASURE_WITH_UNIT (LENGTH_MEASURE( 1.000000000000000082E-05 ), #809, 'distance_accuracy_value', 'NONE');
#526 = EDGE_CURVE ( 'NONE', #908, #911, #628, .T. ) ;
#527 = CARTESIAN_POINT ( 'NONE',  ( -8.547305806165168107, -43.81839320401671500, -3.914709133840375888 ) ) ;
#528 = VECTOR ( 'NONE', #371, 1000.000000000000000 ) ;
#529 = ORIENTED_EDGE ( 'NONE', *, *, #838, .T. ) ;
#530 = CARTESIAN_POINT ( 'NONE',  ( -8.512954178702905494, -43.40000000000007674, -5.118373667906292113 ) ) ;
#531 = ORIENTED_EDGE ( 'NONE', *, *, #436, .F. ) ;
#532 = FACE_BOUND ( 'NONE', #328, .T. ) ;
#533 = CARTESIAN_POINT ( 'NONE',  ( -2.800000000000015365, -167.5000000000000000, -5.000000000000127898 ) ) ;
#534 = DIRECTION ( 'NONE',  ( 1.000000000000000000, -1.031877304899886336E-16, 0.000000000000000000 ) ) ;
#535 = VERTEX_POINT ( 'NONE', #450 ) ;
#536 = CARTESIAN_POINT ( 'NONE',  ( -8.520499623292296931, -43.45403872937845335, -4.524381919782460848 ) ) ;
#537 = LINE ( 'NONE', #120, #1056 ) ;
#538 = AXIS2_PLACEMENT_3D ( 'NONE', #706, #124, #632 ) ;
#539 = APPLICATION_CONTEXT ( 'automotive_design' ) ;
#540 = VERTEX_POINT ( 'NONE', #361 ) ;
#541 = CARTESIAN_POINT ( 'NONE',  ( -8.512954178702905494, -43.40000000000006253, -5.000000000000018652 ) ) ;
#542 = CARTESIAN_POINT ( 'NONE',  ( -2.800000000000015365, -167.5000000000000000, -5.000000000000127898 ) ) ;
#543 = CYLINDRICAL_SURFACE ( 'NONE', #496, 4.800000000000006040 ) ;
#544 = ADVANCED_FACE ( 'NONE', ( #113 ), #1018, .T. ) ;
#545 = EDGE_CURVE ( 'NONE', #55, #176, #1037, .T. ) ;
#546 = VERTEX_POINT ( 'NONE', #33 ) ;
#547 = DIRECTION ( 'NONE',  ( 1.000000000000000000, -1.031877304899886336E-16, 0.000000000000000000 ) ) ;
#548 = ORIENTED_EDGE ( 'NONE', *, *, #795, .F. ) ;
#549 = DIRECTION ( 'NONE',  ( 1.000000000000000000, -1.031877304899886213E-16, -0.000000000000000000 ) ) ;
#550 = DIRECTION ( 'NONE',  ( -9.035018104045872913E-16, -1.000000000000000000, 0.000000000000000000 ) ) ;
#551 = ORIENTED_EDGE ( 'NONE', *, *, #474, .F. ) ;
#552 = CARTESIAN_POINT ( 'NONE',  ( -2.800000000000015365, -167.4999999999999716, -20.25000000000011369 ) ) ;
#553 = ORIENTED_EDGE ( 'NONE', *, *, #291, .T. ) ;
#554 = CARTESIAN_POINT ( 'NONE',  ( -8.514691393214745219, -43.41347159913974707, -20.48865920930858309 ) ) ;
#555 = LINE ( 'NONE', #981, #183 ) ;
#556 = ORIENTED_EDGE ( 'NONE', *, *, #526, .F. ) ;
#557 = CIRCLE ( 'NONE', #611, 1.600000000000018074 ) ;
#558 = PRESENTATION_STYLE_ASSIGNMENT (( #823 ) ) ;
#559 = AXIS2_PLACEMENT_3D ( 'NONE', #645, #568, #747 ) ;
#560 = EDGE_CURVE ( 'NONE', #546, #580, #265, .T. ) ;
#561 = EDGE_LOOP ( 'NONE', ( #231, #854, #668, #866 ) ) ;
#562 = CARTESIAN_POINT ( 'NONE',  ( -8.520801216717039495, -43.46591146465768674, -20.71968388375085368 ) ) ;
#563 = EDGE_CURVE ( 'NONE', #31, #204, #374, .T. ) ;
#564 = CYLINDRICAL_SURFACE ( 'NONE', #756, 3.000000000000002665 ) ;
#565 = AXIS2_PLACEMENT_3D ( 'NONE', #11, #506, #419 ) ;
#566 =( NAMED_UNIT ( * ) PLANE_ANGLE_UNIT ( ) SI_UNIT ( $, .RADIAN. ) );
#567 = EDGE_LOOP ( 'NONE', ( #461, #998, #637, #40 ) ) ;
#568 = DIRECTION ( 'NONE',  ( -1.000000000000000000, 1.031877304899886336E-16, -0.000000000000000000 ) ) ;
#569 = CARTESIAN_POINT ( 'NONE',  ( -8.549997893052749376, -168.5048131209564417, -180.4763037640402104 ) ) ;
#570 = ADVANCED_FACE ( 'NONE', ( #962 ), #201, .F. ) ;
#571 = CARTESIAN_POINT ( 'NONE',  ( -2.800000000000002043, -45.00000000000006395, -5.000000000000018652 ) ) ;
#572 = ORIENTED_EDGE ( 'NONE', *, *, #2, .T. ) ;
#573 = CARTESIAN_POINT ( 'NONE',  ( -8.549997893052754705, -168.6915111890957064, -3.905533478956968896 ) ) ;
#574 = CARTESIAN_POINT ( 'NONE',  ( -8.549997893052754705, -43.99518687904362224, -6.245130752954814568 ) ) ;
#575 = SHAPE_DEFINITION_REPRESENTATION ( #1049, #725 ) ;
#576 = ORIENTED_EDGE ( 'NONE', *, *, #661, .T. ) ;
#577 = CARTESIAN_POINT ( 'NONE',  ( -8.539355608166086853, -43.65935222699278739, -21.15552255172892160 ) ) ;
#578 = CIRCLE ( 'NONE', #98, 1.600000000000004086 ) ;
#579 = DIRECTION ( 'NONE',  ( 0.000000000000000000, 1.000000000000000000, 0.000000000000000000 ) ) ;
#580 = VERTEX_POINT ( 'NONE', #1033 ) ;
#581 = EDGE_CURVE ( 'NONE', #1032, #751, #369, .T. ) ;
#582 = EDGE_LOOP ( 'NONE', ( #135, #387, #274, #105 ) ) ;
#583 = CARTESIAN_POINT ( 'NONE',  ( -8.549997893052754705, -45.00000000000005684, -20.25000000000000355 ) ) ;
#584 = CIRCLE ( 'NONE', #104, 1.599999999999997202 ) ;
#585 = UNCERTAINTY_MEASURE_WITH_UNIT (LENGTH_MEASURE( 1.000000000000000082E-05 ), #249, 'distance_accuracy_value', 'NONE');
#586 = LINE ( 'NONE', #916, #686 ) ;
#587 = EDGE_LOOP ( 'NONE', ( #698, #442, #71, #629, #834, #399, #67, #576 ) ) ;
#588 = VERTEX_POINT ( 'NONE', #208 ) ;
#589 = DIRECTION ( 'NONE',  ( 0.000000000000000000, 0.000000000000000000, 1.000000000000000000 ) ) ;
#590 = AXIS2_PLACEMENT_3D ( 'NONE', #54, #722, #780 ) ;
#591 = DIRECTION ( 'NONE',  ( 0.000000000000000000, 1.000000000000000000, 3.330669073875468635E-16 ) ) ;
#592 = VERTEX_POINT ( 'NONE', #42 ) ;
#593 = DIRECTION ( 'NONE',  ( 1.000000000000000000, -1.031877304899886336E-16, -0.000000000000000000 ) ) ;
#594 = CARTESIAN_POINT ( 'NONE',  ( -7.906919831218047534, -170.9048131209564474, -25.25000000000004974 ) ) ;
#595 = ADVANCED_FACE ( 'NONE', ( #354 ), #791, .F. ) ;
#596 = AXIS2_PLACEMENT_3D ( 'NONE', #20, #91, #922 ) ;
#597 = ORIENTED_EDGE ( 'NONE', *, *, #889, .T. ) ;
#598 = CARTESIAN_POINT ( 'NONE',  ( -2.800000000000002043, -45.00000000000005684, -20.25000000000000355 ) ) ;
#599 = ORIENTED_EDGE ( 'NONE', *, *, #869, .F. ) ;
#600 = CARTESIAN_POINT ( 'NONE',  ( -8.534575034698550056, -168.8926966023869909, -5.796522677532115253 ) ) ;
#601 = EDGE_CURVE ( 'NONE', #31, #228, #282, .T. ) ;
#602 = DIRECTION ( 'NONE',  ( 1.445602896647337931E-16, 1.000000000000000000, 0.000000000000000000 ) ) ;
#603 = FACE_OUTER_BOUND ( 'NONE', #491, .T. ) ;
#604 = CARTESIAN_POINT ( 'NONE',  ( -2.800000000000015365, -167.4999999999999716, -20.25000000000011369 ) ) ;
#605 = AXIS2_PLACEMENT_3D ( 'NONE', #377, #284, #612 ) ;
#606 = VERTEX_POINT ( 'NONE', #776 ) ;
#607 = ADVANCED_FACE ( 'NONE', ( #945, #532, #867, #443, #784 ), #621, .T. ) ;
#608 = VERTEX_POINT ( 'NONE', #909 ) ;
#609 = DIRECTION ( 'NONE',  ( 1.031877304899886336E-16, 1.000000000000000000, 0.000000000000000000 ) ) ;
#610 = CARTESIAN_POINT ( 'NONE',  ( -8.549997893052767139, -167.5000000000000000, -5.000000000000127898 ) ) ;
#611 = AXIS2_PLACEMENT_3D ( 'NONE', #905, #987, #579 ) ;
#612 = DIRECTION ( 'NONE',  ( 0.000000000000000000, 1.000000000000000000, 0.000000000000000000 ) ) ;
#613 = AXIS2_PLACEMENT_3D ( 'NONE', #742, #72, #400 ) ;
#614 = ORIENTED_EDGE ( 'NONE', *, *, #517, .F. ) ;
#615 = EDGE_CURVE ( 'NONE', #580, #228, #786, .T. ) ;
#616 = CARTESIAN_POINT ( 'NONE',  ( -8.549997893052754705, -45.00000000000006395, -5.000000000000018652 ) ) ;
#617 = DIRECTION ( 'NONE',  ( 1.000000000000000000, -1.031877304899886336E-16, -0.000000000000000000 ) ) ;
#618 = CARTESIAN_POINT ( 'NONE',  ( -2.800000000000015365, -167.5000000000000000, -5.000000000000127898 ) ) ;
#619 = ORIENTED_EDGE ( 'NONE', *, *, #1020, .F. ) ;
#620 = FACE_OUTER_BOUND ( 'NONE', #974, .T. ) ;
#621 = PLANE ( 'NONE',  #139 ) ;
#622 = CARTESIAN_POINT ( 'NONE',  ( -8.549997893052767139, -168.5048131209564417, -21.49513075295492115 ) ) ;
#623 = ORIENTED_EDGE ( 'NONE', *, *, #457, .T. ) ;
#624 = CARTESIAN_POINT ( 'NONE',  ( -8.539355608166086853, -43.65935222699279450, -5.905522551728925151 ) ) ;
#625 = CYLINDRICAL_SURFACE ( 'NONE', #1004, 3.000000000000002665 ) ;
#626 = DIRECTION ( 'NONE',  ( 1.000000000000000000, -1.031877304899886213E-16, -0.000000000000000000 ) ) ;
#627 = EDGE_CURVE ( 'NONE', #546, #913, #315, .T. ) ;
#628 = CIRCLE ( 'NONE', #22, 3.000000000000002665 ) ;
#629 = ORIENTED_EDGE ( 'NONE', *, *, #767, .T. ) ;
#630 = FILL_AREA_STYLE ('',( #734 ) ) ;
#631 = VERTEX_POINT ( 'NONE', #302 ) ;
#632 = DIRECTION ( 'NONE',  ( 0.000000000000000000, 0.000000000000000000, 1.000000000000000000 ) ) ;
#633 = CARTESIAN_POINT ( 'NONE',  ( -8.549997893052749376, -168.5048131209564417, -180.4763037640402104 ) ) ;
#634 = PRESENTATION_LAYER_ASSIGNMENT (  '', '', ( #240 ) ) ;
#635 = ORIENTED_EDGE ( 'NONE', *, *, #677, .F. ) ;
#636 = DIRECTION ( 'NONE',  ( 9.938519914450448273E-17, 1.000000000000000000, 0.000000000000000000 ) ) ;
#637 = ORIENTED_EDGE ( 'NONE', *, *, #414, .T. ) ;
#638 = CARTESIAN_POINT ( 'NONE',  ( -8.525143559595498743, -43.50460872777065902, -20.83149103920860057 ) ) ;
#639 = CARTESIAN_POINT ( 'NONE',  ( -2.800000000000002043, -45.00000000000005684, -20.25000000000000355 ) ) ;
#640 = ADVANCED_FACE ( 'NONE', ( #460 ), #1054, .F. ) ;
#641 = ORIENTED_EDGE ( 'NONE', *, *, #875, .T. ) ;
#642 = CARTESIAN_POINT ( 'NONE',  ( -8.549997893052740494, -43.90168600408581767, -19.08032389769576298 ) ) ;
#643 = EDGE_CURVE ( 'NONE', #1010, #465, #308, .T. ) ;
#644 = ORIENTED_EDGE ( 'NONE', *, *, #997, .T. ) ;
#645 = CARTESIAN_POINT ( 'NONE',  ( -2.800000000000002043, -45.00000000000005684, -20.25000000000000355 ) ) ;
#646 = DIRECTION ( 'NONE',  ( 1.000000000000000000, -1.031877304899886213E-16, -0.000000000000000000 ) ) ;
#647 = CIRCLE ( 'NONE', #287, 4.800000000000006040 ) ;
#648 = DIRECTION ( 'NONE',  ( 1.445602896647337931E-16, 1.000000000000000000, 0.000000000000000000 ) ) ;
#649 = AXIS2_PLACEMENT_3D ( 'NONE', #852, #502, #589 ) ;
#650 = ORIENTED_EDGE ( 'NONE', *, *, #244, .F. ) ;
#651 = CARTESIAN_POINT ( 'NONE',  ( -7.906919831218042205, -41.59518687904360945, 0.000000000000000000 ) ) ;
#652 = FACE_OUTER_BOUND ( 'NONE', #56, .T. ) ;
#653 = CYLINDRICAL_SURFACE ( 'NONE', #792, 3.000000000000002665 ) ;
#654 = EDGE_LOOP ( 'NONE', ( #171, #301 ) ) ;
#655 = CARTESIAN_POINT ( 'NONE',  ( -8.512954178702912600, -169.1000000000000227, -4.881626332093853549 ) ) ;
#656 = CARTESIAN_POINT ( 'NONE',  ( -8.512954178702912600, -169.0999999999999943, -20.25000000000011369 ) ) ;
#657 = ORIENTED_EDGE ( 'NONE', *, *, #615, .T. ) ;
#658 = DIRECTION ( 'NONE',  ( 1.000000000000000000, -1.031877304899886213E-16, -0.000000000000000000 ) ) ;
#659 = AXIS2_PLACEMENT_3D ( 'NONE', #845, #690, #418 ) ;
#660 = CYLINDRICAL_SURFACE ( 'NONE', #137, 3.000000000000002665 ) ;
#661 = EDGE_CURVE ( 'NONE', #535, #55, #901, .T. ) ;
#662 = EDGE_LOOP ( 'NONE', ( #815, #657 ) ) ;
#663 = CIRCLE ( 'NONE', #341, 1.599999999999997202 ) ;
#664 = ORIENTED_EDGE ( 'NONE', *, *, #457, .F. ) ;
#665 = DIRECTION ( 'NONE',  ( 0.000000000000000000, 0.000000000000000000, 1.000000000000000000 ) ) ;
#666 = CIRCLE ( 'NONE', #184, 1.600000000000021627 ) ;
#667 = CARTESIAN_POINT ( 'NONE',  ( -8.547305806165176989, -168.6816067959833276, -6.085290866159771106 ) ) ;
#668 = ORIENTED_EDGE ( 'NONE', *, *, #684, .T. ) ;
#669 = CARTESIAN_POINT ( 'NONE',  ( 0.000000000000000000, 0.000000000000000000, 0.000000000000000000 ) ) ;
#670 = APPLICATION_CONTEXT ( 'automotive_design' ) ;
#671 = ORIENTED_EDGE ( 'NONE', *, *, #397, .F. ) ;
#672 = CARTESIAN_POINT ( 'NONE',  ( -3.749997893052750886, -168.5048131209564417, 0.000000000000000000 ) ) ;
#673 = AXIS2_PLACEMENT_3D ( 'NONE', #870, #524, #106 ) ;
#674 = DIRECTION ( 'NONE',  ( -1.000000000000000000, -3.984046861186501840E-14, -1.325251049438601808E-29 ) ) ;
#675 = PRODUCT_CONTEXT ( 'NONE', #539, 'mechanical' ) ;
#676 = ORIENTED_EDGE ( 'NONE', *, *, #203, .T. ) ;
#677 = EDGE_CURVE ( 'NONE', #819, #540, #702, .T. ) ;
#678 = CARTESIAN_POINT ( 'NONE',  ( -0.4966679003209212295, -183.7397459621556379, -180.4763037640402104 ) ) ;
#679 = VECTOR ( 'NONE', #947, 1000.000000000000000 ) ;
#680 = LINE ( 'NONE', #770, #806 ) ;
#681 = AXIS2_PLACEMENT_3D ( 'NONE', #533, #202, #355 ) ;
#682 = VERTEX_POINT ( 'NONE', #477 ) ;
#683 = CARTESIAN_POINT ( 'NONE',  ( 0.1999999999999854394, -164.5000000000000000, -5.000000000000127898 ) ) ;
#684 = EDGE_CURVE ( 'NONE', #348, #129, #970, .T. ) ;
#685 = CARTESIAN_POINT ( 'NONE',  ( -2.800000000000002043, -43.40000000000006253, -5.000000000000018652 ) ) ;
#686 = VECTOR ( 'NONE', #674, 1000.000000000000000 ) ;
#687 = ORIENTED_EDGE ( 'NONE', *, *, #474, .T. ) ;
#688 = PLANE ( 'NONE',  #1027 ) ;
#689 = CARTESIAN_POINT ( 'NONE',  ( -8.549997893052754705, -43.99518687904362224, -21.49513075295480746 ) ) ;
#690 = DIRECTION ( 'NONE',  ( 1.000000000000000000, -1.031877304899886336E-16, 0.000000000000000000 ) ) ;
#691 = ADVANCED_FACE ( 'NONE', ( #218 ), #986, .T. ) ;
#692 = ORIENTED_EDGE ( 'NONE', *, *, #283, .T. ) ;
#693 = CARTESIAN_POINT ( 'NONE',  ( 0.1999999999999994560, -28.76025403784444734, -180.4763037640402104 ) ) ;
#694 = DIRECTION ( 'NONE',  ( 9.938519914450448273E-17, 1.000000000000000000, 0.000000000000000000 ) ) ;
#695 = EDGE_CURVE ( 'NONE', #348, #969, #220, .T. ) ;
#696 = ORIENTED_EDGE ( 'NONE', *, *, #319, .F. ) ;
#697 = DIRECTION ( 'NONE',  ( 1.000000000000000000, -1.031877304899886336E-16, 0.000000000000000000 ) ) ;
#698 = ORIENTED_EDGE ( 'NONE', *, *, #545, .T. ) ;
#699 = DIRECTION ( 'NONE',  ( 1.000000000000000000, -1.031877304899886213E-16, -0.000000000000000000 ) ) ;
#700 = VECTOR ( 'NONE', #626, 1000.000000000000000 ) ;
#701 = LINE ( 'NONE', #633, #65 ) ;
#702 = CIRCLE ( 'NONE', #447, 4.799999999999999822 ) ;
#703 = ORIENTED_EDGE ( 'NONE', *, *, #88, .T. ) ;
#704 = CARTESIAN_POINT ( 'NONE',  ( -8.549997893052747600, -43.80848881090437175, -6.094466521043146123 ) ) ;
#705 = ORIENTED_EDGE ( 'NONE', *, *, #88, .F. ) ;
#706 = CARTESIAN_POINT ( 'NONE',  ( -8.549997893052749376, -167.5000000000000000, -5.000000000000127898 ) ) ;
#707 = LINE ( 'NONE', #1034, #462 ) ;
#708 = ORIENTED_EDGE ( 'NONE', *, *, #101, .F. ) ;
#709 = DIRECTION ( 'NONE',  ( 1.000000000000000000, 3.984046861186501840E-14, 0.000000000000000000 ) ) ;
#710 = EDGE_CURVE ( 'NONE', #836, #415, #123, .T. ) ;
#711 = FACE_OUTER_BOUND ( 'NONE', #333, .T. ) ;
#712 = DIRECTION ( 'NONE',  ( 1.000000000000000000, -1.031877304899886213E-16, -0.000000000000000000 ) ) ;
#713 = CIRCLE ( 'NONE', #320, 3.000000000000002665 ) ;
#714 = ORIENTED_EDGE ( 'NONE', *, *, #767, .F. ) ;
#715 = DIRECTION ( 'NONE',  ( 1.000000000000000000, -1.031877304899886336E-16, -0.000000000000000000 ) ) ;
#716 = DIRECTION ( 'NONE',  ( 1.000000000000000000, -1.031877304899886336E-16, -0.000000000000000000 ) ) ;
#717 = ADVANCED_FACE ( 'NONE', ( #212 ), #144, .T. ) ;
#718 = AXIS2_PLACEMENT_3D ( 'NONE', #246, #87, #766 ) ;
#719 = ORIENTED_EDGE ( 'NONE', *, *, #77, .T. ) ;
#720 = ORIENTED_EDGE ( 'NONE', *, *, #438, .F. ) ;
#721 = CARTESIAN_POINT ( 'NONE',  ( -8.512954178702910824, -169.0999999999999943, -5.000000000000127898 ) ) ;
#722 = DIRECTION ( 'NONE',  ( 1.703117503849664896E-32, -3.330669073875468142E-16, 1.000000000000000000 ) ) ;
#723 = PRODUCT ( '\X2\63a294886a2a6881\X0\', '\X2\63a294886a2a6881\X0\', '', ( #675 ) ) ;
#724 = EDGE_CURVE ( 'NONE', #176, #608, #1061, .T. ) ;
#725 = ADVANCED_BREP_SHAPE_REPRESENTATION ( '\X2\63a294886a2a6881\X0\', ( #955, #763 ), #103 ) ;
#726 = VECTOR ( 'NONE', #789, 1000.000000000000000 ) ;
#727 = ORIENTED_EDGE ( 'NONE', *, *, #643, .T. ) ;
#728 = ORIENTED_EDGE ( 'NONE', *, *, #127, .T. ) ;
#729 = CARTESIAN_POINT ( 'NONE',  ( -8.549997893052749376, -168.5048131209564417, -3.754869247045326652 ) ) ;
#730 = CARTESIAN_POINT ( 'NONE',  ( -8.549997893052767139, -168.5048131209564417, -6.245130752954929143 ) ) ;
#731 = PRODUCT_DEFINITION ( 'Êú', '', #431, #441 ) ;
#732 = EDGE_CURVE ( 'NONE', #1032, #1067, #224, .T. ) ;
#733 = ORIENTED_EDGE ( 'NONE', *, *, #563, .T. ) ;
#734 = FILL_AREA_STYLE_COLOUR ( '', #347 ) ;
#735 = ORIENTED_EDGE ( 'NONE', *, *, #487, .F. ) ;
#736 = DIRECTION ( 'NONE',  ( 0.5000000000000004441, -0.8660254037844383745, 0.000000000000000000 ) ) ;
#737 = CARTESIAN_POINT ( 'NONE',  ( -8.549997893052754705, -46.60000000000005826, -5.000000000000018652 ) ) ;
#738 = VECTOR ( 'NONE', #444, 1000.000000000000000 ) ;
#739 =( NAMED_UNIT ( * ) SI_UNIT ( $, .STERADIAN. ) SOLID_ANGLE_UNIT ( ) );
#740 = VECTOR ( 'NONE', #68, 1000.000000000000000 ) ;
#741 = EDGE_LOOP ( 'NONE', ( #99, #236, #195, #959 ) ) ;
#742 = CARTESIAN_POINT ( 'NONE',  ( -2.800000000000002043, -45.00000000000005684, -20.25000000000000355 ) ) ;
#743 = DIRECTION ( 'NONE',  ( 1.031877304899886336E-16, 1.000000000000000000, 0.000000000000000000 ) ) ;
#744 = VECTOR ( 'NONE', #882, 1000.000000000000000 ) ;
#745 = CARTESIAN_POINT ( 'NONE',  ( -8.512954178702903718, -43.40000000000004832, -20.25000000000000355 ) ) ;
#746 = VERTEX_POINT ( 'NONE', #1068 ) ;
#747 = DIRECTION ( 'NONE',  ( 0.000000000000000000, 1.000000000000000000, 0.000000000000000000 ) ) ;
#748 = EDGE_CURVE ( 'NONE', #280, #420, #1064, .T. ) ;
#749 = CARTESIAN_POINT ( 'NONE',  ( -2.800000000000001599, -42.00000000000005684, -5.000000000000018652 ) ) ;
#750 = PLANE ( 'NONE',  #225 ) ;
#751 = VERTEX_POINT ( 'NONE', #915 ) ;
#752 = CARTESIAN_POINT ( 'NONE',  ( -0.4966679003209212295, -183.7397459621556379, -180.4763037640402104 ) ) ;
#753 = CYLINDRICAL_SURFACE ( 'NONE', #937, 1.600000000000018074 ) ;
#754 = ORIENTED_EDGE ( 'NONE', *, *, #976, .T. ) ;
#755 = CARTESIAN_POINT ( 'NONE',  ( -0.4966679003209140686, -183.7397459621556379, -25.25000000000004974 ) ) ;
#756 = AXIS2_PLACEMENT_3D ( 'NONE', #155, #646, #817 ) ;
#757 = ORIENTED_EDGE ( 'NONE', *, *, #804, .T. ) ;
#758 = DIRECTION ( 'NONE',  ( 9.938519914450448273E-17, 1.000000000000000000, 0.000000000000000000 ) ) ;
#759 = AXIS2_PLACEMENT_3D ( 'NONE', #472, #388, #736 ) ;
#760 = DIRECTION ( 'NONE',  ( 0.000000000000000000, 1.000000000000000000, 0.000000000000000000 ) ) ;
#761 = EDGE_CURVE ( 'NONE', #269, #788, #268, .T. ) ;
#762 = ADVANCED_FACE ( 'NONE', ( #167 ), #848, .T. ) ;
#763 = AXIS2_PLACEMENT_3D ( 'NONE', #669, #846, #850 ) ;
#764 = ORIENTED_EDGE ( 'NONE', *, *, #732, .F. ) ;
#765 = CARTESIAN_POINT ( 'NONE',  ( -8.512954178702903718, -43.40000000000004832, -20.25000000000000355 ) ) ;
#766 = DIRECTION ( 'NONE',  ( 0.000000000000000000, 1.000000000000000000, 0.000000000000000000 ) ) ;
#767 = EDGE_CURVE ( 'NONE', #1067, #819, #927, .T. ) ;
#768 = EDGE_LOOP ( 'NONE', ( #353, #728, #1005, #126, #180 ) ) ;
#769 = DIRECTION ( 'NONE',  ( 0.5000000000000004441, -0.8660254037844382635, -0.000000000000000000 ) ) ;
#770 = CARTESIAN_POINT ( 'NONE',  ( -2.800000000000002487, -48.00000000000006395, -5.000000000000018652 ) ) ;
#771 = ORIENTED_EDGE ( 'NONE', *, *, #804, .F. ) ;
#772 = FACE_OUTER_BOUND ( 'NONE', #768, .T. ) ;
#773 = CARTESIAN_POINT ( 'NONE',  ( 0.1999999999999977907, -45.00000000000005684, -20.25000000000000355 ) ) ;
#774 = VERTEX_POINT ( 'NONE', #421 ) ;
#775 = DIRECTION ( 'NONE',  ( 0.000000000000000000, 1.000000000000000000, 0.000000000000000000 ) ) ;
#776 = CARTESIAN_POINT ( 'NONE',  ( -0.4966679003209212295, -183.7397459621556379, 0.000000000000000000 ) ) ;
#777 = CIRCLE ( 'NONE', #432, 4.800000000000006040 ) ;
#778 = CARTESIAN_POINT ( 'NONE',  ( -8.549997893052749376, -168.5048131209564417, -3.754869247045326652 ) ) ;
#779 = DIRECTION ( 'NONE',  ( -1.000000000000000000, -0.000000000000000000, -0.000000000000000000 ) ) ;
#780 = DIRECTION ( 'NONE',  ( -3.282226122919472445E-32, -1.000000000000000000, -3.330669073875468142E-16 ) ) ;
#781 = ORIENTED_EDGE ( 'NONE', *, *, #883, .F. ) ;
#782 = CARTESIAN_POINT ( 'NONE',  ( 0.1999999999999848288, -170.4999999999999716, -20.25000000000011369 ) ) ;
#783 = VERTEX_POINT ( 'NONE', #494 ) ;
#784 = FACE_OUTER_BOUND ( 'NONE', #741, .T. ) ;
#785 = DIRECTION ( 'NONE',  ( 1.000000000000000000, -1.031877304899886336E-16, -0.000000000000000000 ) ) ;
#786 = CIRCLE ( 'NONE', #84, 1.599999999999990319 ) ;
#787 = EDGE_CURVE ( 'NONE', #540, #606, #81, .T. ) ;
#788 = VERTEX_POINT ( 'NONE', #683 ) ;
#789 = DIRECTION ( 'NONE',  ( 0.000000000000000000, 0.000000000000000000, 1.000000000000000000 ) ) ;
#790 = ORIENTED_EDGE ( 'NONE', *, *, #445, .F. ) ;
#791 = CYLINDRICAL_SURFACE ( 'NONE', #505, 3.000000000000002665 ) ;
#792 = AXIS2_PLACEMENT_3D ( 'NONE', #475, #818, #1070 ) ;
#793 = CARTESIAN_POINT ( 'NONE',  ( -8.547305806165175213, -168.6816067959833276, -21.33529086615974890 ) ) ;
#794 = EDGE_LOOP ( 'NONE', ( #572, #85 ) ) ;
#795 = EDGE_CURVE ( 'NONE', #788, #269, #358, .T. ) ;
#796 = DIRECTION ( 'NONE',  ( 1.000000000000000000, -1.031877304899886336E-16, -0.000000000000000000 ) ) ;
#797 = CARTESIAN_POINT ( 'NONE',  ( -8.539628069534391130, -43.67136286931462053, -4.100681224788721657 ) ) ;
#798 = CARTESIAN_POINT ( 'NONE',  ( -3.749997893052738451, -43.99518687904362224, -180.4763037640402104 ) ) ;
#799 = CIRCLE ( 'NONE', #933, 3.000000000000002665 ) ;
#800 = VERTEX_POINT ( 'NONE', #339 ) ;
#801 = LINE ( 'NONE', #49, #1031 ) ;
#802 = ORIENTED_EDGE ( 'NONE', *, *, #840, .T. ) ;
#803 = CARTESIAN_POINT ( 'NONE',  ( -8.514691393214757653, -169.0865284008603453, -4.761340790691545699 ) ) ;
#804 = EDGE_CURVE ( 'NONE', #223, #1060, #1015, .T. ) ;
#805 = DIRECTION ( 'NONE',  ( 0.000000000000000000, 0.000000000000000000, 1.000000000000000000 ) ) ;
#806 = VECTOR ( 'NONE', #515, 1000.000000000000000 ) ;
#807 = AXIS2_PLACEMENT_3D ( 'NONE', #177, #1002, #758 ) ;
#808 = ORIENTED_EDGE ( 'NONE', *, *, #398, .T. ) ;
#809 =( LENGTH_UNIT ( ) NAMED_UNIT ( * ) SI_UNIT ( .MILLI., .METRE. ) );
#810 = ORIENTED_EDGE ( 'NONE', *, *, #601, .T. ) ;
#811 = CARTESIAN_POINT ( 'NONE',  ( -7.906919831218042205, -41.59518687904360945, -180.4763037640402104 ) ) ;
#812 = DIRECTION ( 'NONE',  ( 1.000000000000000000, -1.031877304899886336E-16, 0.000000000000000000 ) ) ;
#813 = ORIENTED_EDGE ( 'NONE', *, *, #64, .F. ) ;
#814 = CARTESIAN_POINT ( 'NONE',  ( -3.749997893052738451, -43.99518687904362224, 0.000000000000000000 ) ) ;
#815 = ORIENTED_EDGE ( 'NONE', *, *, #1059, .T. ) ;
#816 = DIRECTION ( 'NONE',  ( 1.031877304899886459E-16, 1.000000000000000000, -0.000000000000000000 ) ) ;
#817 = DIRECTION ( 'NONE',  ( 1.445602896647337931E-16, 1.000000000000000000, 0.000000000000000000 ) ) ;
#818 = DIRECTION ( 'NONE',  ( 1.000000000000000000, -1.031877304899886213E-16, -0.000000000000000000 ) ) ;
#819 = VERTEX_POINT ( 'NONE', #514 ) ;
#820 = CARTESIAN_POINT ( 'NONE',  ( -8.549997893052742270, -43.99518687904360803, -180.4763037640402104 ) ) ;
#821 = CARTESIAN_POINT ( 'NONE',  ( -8.549997893052754705, -45.00000000000005684, -20.25000000000000355 ) ) ;
#822 = AXIS2_PLACEMENT_3D ( 'NONE', #773, #521, #344 ) ;
#823 = SURFACE_STYLE_USAGE ( .BOTH. , #480 ) ;
#824 = ADVANCED_FACE ( 'NONE', ( #86 ), #257, .T. ) ;
#825 = VERTEX_POINT ( 'NONE', #1006 ) ;
#826 = CARTESIAN_POINT ( 'NONE',  ( 0.1999999999999994560, -28.76025403784444734, 0.000000000000000000 ) ) ;
#827 = DIRECTION ( 'NONE',  ( 0.000000000000000000, 1.000000000000000000, 0.000000000000000000 ) ) ;
#828 = AXIS2_PLACEMENT_3D ( 'NONE', #598, #912, #3 ) ;
#829 = ADVANCED_FACE ( 'NONE', ( #95 ), #688, .T. ) ;
#830 = ADVANCED_FACE ( 'NONE', ( #772 ), #832, .F. ) ;
#831 = ORIENTED_EDGE ( 'NONE', *, *, #517, .T. ) ;
#832 = CYLINDRICAL_SURFACE ( 'NONE', #53, 1.600000000000004086 ) ;
#833 = DIRECTION ( 'NONE',  ( 1.445602896647337931E-16, 1.000000000000000000, 0.000000000000000000 ) ) ;
#834 = ORIENTED_EDGE ( 'NONE', *, *, #677, .T. ) ;
#835 = AXIS2_PLACEMENT_3D ( 'NONE', #114, #125, #550 ) ;
#836 = VERTEX_POINT ( 'NONE', #765 ) ;
#837 = CARTESIAN_POINT ( 'NONE',  ( -3.749997893052750886, -168.5048131209564417, -180.4763037640402104 ) ) ;
#838 = EDGE_CURVE ( 'NONE', #1039, #606, #172, .T. ) ;
#839 = CARTESIAN_POINT ( 'NONE',  ( -8.539628069534400012, -168.8286371306854221, -5.899318775211422228 ) ) ;
#840 = EDGE_CURVE ( 'NONE', #1060, #280, #666, .T. ) ;
#841 = ORIENTED_EDGE ( 'NONE', *, *, #710, .F. ) ;
#842 = CARTESIAN_POINT ( 'NONE',  ( -8.514691393214754100, -169.0865284008602600, -20.01134079069153060 ) ) ;
#843 = AXIS2_PLACEMENT_3D ( 'NONE', #811, #483, #296 ) ;
#844 = CARTESIAN_POINT ( 'NONE',  ( -3.749997893052738451, -43.99518687904362224, -25.25000000000002132 ) ) ;
#845 = CARTESIAN_POINT ( 'NONE',  ( -2.800000000000002043, -45.00000000000005684, -20.25000000000000355 ) ) ;
#846 = DIRECTION ( 'NONE',  ( 0.000000000000000000, 0.000000000000000000, 1.000000000000000000 ) ) ;
#847 = ORIENTED_EDGE ( 'NONE', *, *, #283, .F. ) ;
#848 = CYLINDRICAL_SURFACE ( 'NONE', #413, 4.799999999999999822 ) ;
#849 = DIRECTION ( 'NONE',  ( -1.000000000000000000, 1.031877304899886336E-16, -0.000000000000000000 ) ) ;
#850 = DIRECTION ( 'NONE',  ( 1.000000000000000000, 0.000000000000000000, 0.000000000000000000 ) ) ;
#851 = ORIENTED_EDGE ( 'NONE', *, *, #627, .F. ) ;
#852 = CARTESIAN_POINT ( 'NONE',  ( -8.549997893052749376, -167.4999999999999716, -20.25000000000011369 ) ) ;
#853 = DIRECTION ( 'NONE',  ( -1.000000000000000000, 0.000000000000000000, 0.000000000000000000 ) ) ;
#854 = ORIENTED_EDGE ( 'NONE', *, *, #695, .F. ) ;
#855 = ADVANCED_FACE ( 'NONE', ( #603 ), #5, .F. ) ;
#856 = DIRECTION ( 'NONE',  ( 1.000000000000000000, -1.031877304899886336E-16, 0.000000000000000000 ) ) ;
#857 = VECTOR ( 'NONE', #617, 1000.000000000000000 ) ;
#858 = EDGE_LOOP ( 'NONE', ( #961, #696, #896, #641, #926 ) ) ;
#859 = LINE ( 'NONE', #693, #726 ) ;
#860 = CARTESIAN_POINT ( 'NONE',  ( -8.534575034698539397, -43.60730339761308016, -4.203477322468034849 ) ) ;
#861 = CIRCLE ( 'NONE', #673, 1.599999999999997202 ) ;
#862 = CARTESIAN_POINT ( 'NONE',  ( -2.800000000000001599, -42.00000000000005684, -5.000000000000018652 ) ) ;
#863 = B_SPLINE_CURVE_WITH_KNOTS ( 'NONE', 3,
 ( #380, #642, #899, #152, #148, #310, #128, #745 ),
 .UNSPECIFIED., .F., .F.,
 ( 4, 2, 2, 4 ),
 ( 0.000000000000000000, 0.0003552544155636001844, 0.0007105088311272003687, 0.001421017662254419386 ),
 .UNSPECIFIED. ) ;
#864 = ORIENTED_EDGE ( 'NONE', *, *, #581, .T. ) ;
#865 = CARTESIAN_POINT ( 'NONE',  ( -8.525143559595496967, -43.50460872777065902, -5.581491039208610339 ) ) ;
#866 = ORIENTED_EDGE ( 'NONE', *, *, #1014, .T. ) ;
#867 = FACE_BOUND ( 'NONE', #16, .T. ) ;
#868 = CARTESIAN_POINT ( 'NONE',  ( -8.549997893052767139, -165.8999999999999773, -20.25000000000011369 ) ) ;
#869 = EDGE_CURVE ( 'NONE', #160, #774, #996, .T. ) ;
#870 = CARTESIAN_POINT ( 'NONE',  ( -2.800000000000002043, -45.00000000000006395, -5.000000000000018652 ) ) ;
#871 = DIRECTION ( 'NONE',  ( 1.000000000000000000, -1.031877304899886336E-16, 0.000000000000000000 ) ) ;
#872 = VECTOR ( 'NONE', #938, 1000.000000000000000 ) ;
#873 = CARTESIAN_POINT ( 'NONE',  ( 0.1999999999999994560, -28.76025403784444734, 0.000000000000000000 ) ) ;
#874 = AXIS2_PLACEMENT_3D ( 'NONE', #672, #665, #488 ) ;
#875 = EDGE_CURVE ( 'NONE', #836, #1010, #100, .T. ) ;
#876 = ADVANCED_FACE ( 'NONE', ( #1040, #1030 ), #264, .T. ) ;
#877 = ORIENTED_EDGE ( 'NONE', *, *, #179, .F. ) ;
#878 = CARTESIAN_POINT ( 'NONE',  ( 0.1999999999999854394, -164.4999999999999716, -20.25000000000011369 ) ) ;
#879 = DIRECTION ( 'NONE',  ( -1.000000000000000000, 0.000000000000000000, 0.000000000000000000 ) ) ;
#880 = CIRCLE ( 'NONE', #401, 3.000000000000002665 ) ;
#881 = LINE ( 'NONE', #886, #248 ) ;
#882 = DIRECTION ( 'NONE',  ( 0.000000000000000000, 0.000000000000000000, 1.000000000000000000 ) ) ;
#883 = EDGE_CURVE ( 'NONE', #895, #900, #192, .T. ) ;
#884 = VERTEX_POINT ( 'NONE', #949 ) ;
#885 = DIRECTION ( 'NONE',  ( 1.445602896647337931E-16, 1.000000000000000000, 0.000000000000000000 ) ) ;
#886 = CARTESIAN_POINT ( 'NONE',  ( -8.549997893052754705, -46.60000000000005826, -5.000000000000018652 ) ) ;
#887 = ORIENTED_EDGE ( 'NONE', *, *, #108, .F. ) ;
#888 = DIRECTION ( 'NONE',  ( 9.938519914450448273E-17, 1.000000000000000000, 0.000000000000000000 ) ) ;
#889 = EDGE_CURVE ( 'NONE', #751, #306, #481, .T. ) ;
#890 = ORIENTED_EDGE ( 'NONE', *, *, #883, .T. ) ;
#891 = CARTESIAN_POINT ( 'NONE',  ( -8.525143559595505849, -168.9953912722293978, -4.418508960791532658 ) ) ;
#892 = DIRECTION ( 'NONE',  ( 0.000000000000000000, 1.000000000000000000, 0.000000000000000000 ) ) ;
#893 = CIRCLE ( 'NONE', #70, 1.599999999999998979 ) ;
#894 = VECTOR ( 'NONE', #163, 1000.000000000000000 ) ;
#895 = VERTEX_POINT ( 'NONE', #111 ) ;
#896 = ORIENTED_EDGE ( 'NONE', *, *, #1020, .T. ) ;
#897 = CARTESIAN_POINT ( 'NONE',  ( -2.800000000000001599, -42.00000000000004974, -20.25000000000000355 ) ) ;
#898 = FACE_BOUND ( 'NONE', #662, .T. ) ;
#899 = CARTESIAN_POINT ( 'NONE',  ( -8.547305806165168107, -43.81839320401671500, -19.16470913384035413 ) ) ;
#900 = VERTEX_POINT ( 'NONE', #199 ) ;
#901 = LINE ( 'NONE', #826, #464 ) ;
#902 = FACE_OUTER_BOUND ( 'NONE', #191, .T. ) ;
#903 = ADVANCED_FACE ( 'NONE', ( #620 ), #440, .F. ) ;
#904 = ORIENTED_EDGE ( 'NONE', *, *, #175, .T. ) ;
#905 = CARTESIAN_POINT ( 'NONE',  ( -2.800000000000015365, -167.4999999999999716, -20.25000000000011369 ) ) ;
#906 = EDGE_CURVE ( 'NONE', #588, #370, #861, .T. ) ;
#907 = VECTOR ( 'NONE', #253, 1000.000000000000000 ) ;
#908 = VERTEX_POINT ( 'NONE', #782 ) ;
#909 = CARTESIAN_POINT ( 'NONE',  ( -7.906919831218042205, -41.59518687904360945, 0.000000000000000000 ) ) ;
#910 = CARTESIAN_POINT ( 'NONE',  ( -7.906919831218049310, -170.9048131209564474, -180.4763037640402104 ) ) ;
#911 = VERTEX_POINT ( 'NONE', #878 ) ;
#912 = DIRECTION ( 'NONE',  ( -1.000000000000000000, 1.031877304899886336E-16, -0.000000000000000000 ) ) ;
#913 = VERTEX_POINT ( 'NONE', #778 ) ;
#914 = ADVANCED_FACE ( 'NONE', ( #45 ), #429, .F. ) ;
#915 = CARTESIAN_POINT ( 'NONE',  ( -8.512954178702905494, -43.40000000000006253, -5.000000000000018652 ) ) ;
#916 = CARTESIAN_POINT ( 'NONE',  ( -0.4966679003209212295, -183.7397459621556379, -25.25000000000004974 ) ) ;
#917 = ORIENTED_EDGE ( 'NONE', *, *, #397, .T. ) ;
#918 = DIRECTION ( 'NONE',  ( 1.000000000000000000, 0.000000000000000000, 0.000000000000000000 ) ) ;
#919 = EDGE_CURVE ( 'NONE', #800, #55, #859, .T. ) ;
#920 = CARTESIAN_POINT ( 'NONE',  ( -8.549997893052767139, -168.5048131209564417, -21.49513075295492115 ) ) ;
#921 = ORIENTED_EDGE ( 'NONE', *, *, #276, .T. ) ;
#922 = DIRECTION ( 'NONE',  ( 9.938519914450448273E-17, 1.000000000000000000, 0.000000000000000000 ) ) ;
#923 = AXIS2_PLACEMENT_3D ( 'NONE', #980, #392, #150 ) ;
#924 = FACE_OUTER_BOUND ( 'NONE', #141, .T. ) ;
#925 = CYLINDRICAL_SURFACE ( 'NONE', #681, 3.000000000000002665 ) ;
#926 = ORIENTED_EDGE ( 'NONE', *, *, #1066, .F. ) ;
#927 = LINE ( 'NONE', #323, #894 ) ;
#928 = DIRECTION ( 'NONE',  ( 0.000000000000000000, 1.000000000000000000, 0.000000000000000000 ) ) ;
#929 = EDGE_CURVE ( 'NONE', #606, #535, #931, .T. ) ;
#930 = ORIENTED_EDGE ( 'NONE', *, *, #1008, .F. ) ;
#931 = LINE ( 'NONE', #366, #294 ) ;
#932 = CARTESIAN_POINT ( 'NONE',  ( -8.549997893052742270, -43.99518687904360803, -180.4763037640402104 ) ) ;
#933 = AXIS2_PLACEMENT_3D ( 'NONE', #618, #1028, #1044 ) ;
#934 = FACE_BOUND ( 'NONE', #132, .T. ) ;
#935 = EDGE_LOOP ( 'NONE', ( #548, #382 ) ) ;
#936 = CARTESIAN_POINT ( 'NONE',  ( -2.800000000000015365, -167.4999999999999716, -20.25000000000011369 ) ) ;
#937 = AXIS2_PLACEMENT_3D ( 'NONE', #384, #1069, #892 ) ;
#938 = DIRECTION ( 'NONE',  ( 1.000000000000000000, -1.031877304899886336E-16, -0.000000000000000000 ) ) ;
#939 = LINE ( 'NONE', #209, #458 ) ;
#940 = ADVANCED_FACE ( 'NONE', ( #1017, #32 ), #281, .T. ) ;
#941 = ORIENTED_EDGE ( 'NONE', *, *, #748, .T. ) ;
#942 = DIRECTION ( 'NONE',  ( 1.000000000000000000, -1.031877304899886336E-16, -0.000000000000000000 ) ) ;
#943 = CIRCLE ( 'NONE', #828, 1.600000000000004086 ) ;
#944 = EDGE_CURVE ( 'NONE', #969, #783, #116, .T. ) ;
#945 = FACE_BOUND ( 'NONE', #35, .T. ) ;
#946 =( GEOMETRIC_REPRESENTATION_CONTEXT ( 3 ) GLOBAL_UNCERTAINTY_ASSIGNED_CONTEXT ( ( #525 ) ) GLOBAL_UNIT_ASSIGNED_CONTEXT ( ( #809, #566, #739 ) ) REPRESENTATION_CONTEXT ( 'NONE', 'WORKASPACE' ) );
#947 = DIRECTION ( 'NONE',  ( 1.000000000000000000, -1.031877304899886336E-16, -0.000000000000000000 ) ) ;
#948 = VERTEX_POINT ( 'NONE', #1023 ) ;
#949 = CARTESIAN_POINT ( 'NONE',  ( -2.800000000000015365, -170.5000000000000000, -5.000000000000127898 ) ) ;
#950 = CARTESIAN_POINT ( 'NONE',  ( 0.1999999999999994560, -28.76025403784444734, -180.4763037640402104 ) ) ;
#951 = ADVANCED_FACE ( 'NONE', ( #360 ), #449, .F. ) ;
#952 = CARTESIAN_POINT ( 'NONE',  ( -8.549997893052749376, -168.5983139959142250, -21.41967610230434360 ) ) ;
#953 = EDGE_LOOP ( 'NONE', ( #790, #493, #904, #373 ) ) ;
#954 = DIRECTION ( 'NONE',  ( 1.445602896647337931E-16, 1.000000000000000000, 0.000000000000000000 ) ) ;
#955 = MANIFOLD_SOLID_BREP ( '\X2\52079664\X0\-\X2\62c94f38\X0\2', #984 ) ;
#956 = CARTESIAN_POINT ( 'NONE',  ( -8.549997893052749376, -168.5048131209564417, -180.4763037640402104 ) ) ;
#957 = VECTOR ( 'NONE', #38, 1000.000000000000000 ) ;
#958 = LINE ( 'NONE', #362, #700 ) ;
#959 = ORIENTED_EDGE ( 'NONE', *, *, #1036, .F. ) ;
#960 = CARTESIAN_POINT ( 'NONE',  ( -2.800000000000002043, -43.40000000000004832, -20.25000000000000355 ) ) ;
#961 = ORIENTED_EDGE ( 'NONE', *, *, #127, .F. ) ;
#962 = FACE_OUTER_BOUND ( 'NONE', #968, .T. ) ;
#963 = CIRCLE ( 'NONE', #15, 3.000000000000002665 ) ;
#964 = VERTEX_POINT ( 'NONE', #215 ) ;
#965 = FACE_OUTER_BOUND ( 'NONE', #561, .T. ) ;
#966 = ORIENTED_EDGE ( 'NONE', *, *, #438, .T. ) ;
#967 = DIRECTION ( 'NONE',  ( 0.000000000000000000, 0.000000000000000000, 1.000000000000000000 ) ) ;
#968 = EDGE_LOOP ( 'NONE', ( #359, #507, #79, #1022 ) ) ;
#969 = VERTEX_POINT ( 'NONE', #142 ) ;
#970 = LINE ( 'NONE', #897, #10 ) ;
#971 = DIRECTION ( 'NONE',  ( 9.938519914450448273E-17, 1.000000000000000000, 0.000000000000000000 ) ) ;
#972 = CIRCLE ( 'NONE', #52, 1.600000000000018074 ) ;
#973 = DIRECTION ( 'NONE',  ( 1.000000000000000000, -1.031877304899886336E-16, 0.000000000000000000 ) ) ;
#974 = EDGE_LOOP ( 'NONE', ( #513, #985, #917, #810, #8 ) ) ;
#975 = DIRECTION ( 'NONE',  ( -0.5000000000000006661, -0.8660254037844382635, -0.000000000000000000 ) ) ;
#976 = EDGE_CURVE ( 'NONE', #774, #160, #963, .T. ) ;
#977 = DIRECTION ( 'NONE',  ( 1.445602896647337931E-16, 1.000000000000000000, 0.000000000000000000 ) ) ;
#978 = CARTESIAN_POINT ( 'NONE',  ( -2.800000000000002043, -45.00000000000006395, -5.000000000000018652 ) ) ;
#979 = ORIENTED_EDGE ( 'NONE', *, *, #203, .F. ) ;
#980 = CARTESIAN_POINT ( 'NONE',  ( -8.549997893052754705, -45.00000000000005684, -20.25000000000000355 ) ) ;
#981 = CARTESIAN_POINT ( 'NONE',  ( 0.1999999999999994560, -28.76025403784450063, -25.24999999999999289 ) ) ;
#982 = EDGE_CURVE ( 'NONE', #1060, #204, #227, .T. ) ;
#983 = CARTESIAN_POINT ( 'NONE',  ( -8.549997893052742270, -43.99518687904360803, 0.000000000000000000 ) ) ;
#984 = CLOSED_SHELL ( 'NONE', ( #327, #595, #313, #570, #511, #914, #830, #855, #951, #640, #216, #903, #1045, #607, #829, #717, #762, #544, #121, #691, #824, #134, #298, #30, #876, #262, #25, #1021, #940, #518 ) ) ;
#985 = ORIENTED_EDGE ( 'NONE', *, *, #627, .T. ) ;
#986 = PLANE ( 'NONE',  #843 ) ;
#987 = DIRECTION ( 'NONE',  ( -1.000000000000000000, 1.031877304899886336E-16, -0.000000000000000000 ) ) ;
#988 = EDGE_LOOP ( 'NONE', ( #263, #757, #802, #995, #650 ) ) ;
#989 = VECTOR ( 'NONE', #478, 1000.000000000000000 ) ;
#990 = EDGE_CURVE ( 'NONE', #746, #1035, #880, .T. ) ;
#991 = VECTOR ( 'NONE', #967, 1000.000000000000000 ) ;
#992 = ORIENTED_EDGE ( 'NONE', *, *, #1014, .F. ) ;
#993 = CARTESIAN_POINT ( 'NONE',  ( -2.800000000000002043, -45.00000000000006395, -5.000000000000018652 ) ) ;
#994 = CARTESIAN_POINT ( 'NONE',  ( 0.1999999999999974853, -48.00000000000006395, -5.000000000000018652 ) ) ;
#995 = ORIENTED_EDGE ( 'NONE', *, *, #101, .T. ) ;
#996 = CIRCLE ( 'NONE', #489, 3.000000000000002665 ) ;
#997 = EDGE_CURVE ( 'NONE', #459, #162, #1050, .T. ) ;
#998 = ORIENTED_EDGE ( 'NONE', *, *, #944, .T. ) ;
#999 = DIRECTION ( 'NONE',  ( 3.984046861186501840E-14, -1.000000000000000000, 0.000000000000000000 ) ) ;
#1000 = DIRECTION ( 'NONE',  ( 0.000000000000000000, 0.000000000000000000, 1.000000000000000000 ) ) ;
#1001 = ORIENTED_EDGE ( 'NONE', *, *, #407, .T. ) ;
#1002 = DIRECTION ( 'NONE',  ( 1.000000000000000000, -1.031877304899886336E-16, 0.000000000000000000 ) ) ;
#1003 = CARTESIAN_POINT ( 'NONE',  ( -0.4966679003209281684, -28.76025403784444734, -180.4763037640402104 ) ) ;
#1004 = AXIS2_PLACEMENT_3D ( 'NONE', #350, #289, #107 ) ;
#1005 = ORIENTED_EDGE ( 'NONE', *, *, #643, .F. ) ;
#1006 = CARTESIAN_POINT ( 'NONE',  ( -2.800000000000015365, -169.0999999999999943, -20.25000000000011369 ) ) ;
#1007 = LINE ( 'NONE', #96, #356 ) ;
#1008 = EDGE_CURVE ( 'NONE', #608, #1067, #777, .T. ) ;
#1009 = AXIS2_PLACEMENT_3D ( 'NONE', #133, #973, #888 ) ;
#1010 = VERTEX_POINT ( 'NONE', #960 ) ;
#1011 = DIRECTION ( 'NONE',  ( -1.000000000000000000, 0.000000000000000000, 0.000000000000000000 ) ) ;
#1012 = DIRECTION ( 'NONE',  ( -0.5000000000000004441, 0.8660254037844383745, 2.884444029575344985E-16 ) ) ;
#1013 = EDGE_CURVE ( 'NONE', #370, #588, #584, .T. ) ;
#1014 = EDGE_CURVE ( 'NONE', #129, #783, #510, .T. ) ;
#1015 = B_SPLINE_CURVE_WITH_KNOTS ( 'NONE', 3,
 ( #343, #426, #842, #13, #251, #329, #157, #334 ),
 .UNSPECIFIED., .F., .F.,
 ( 4, 2, 2, 4 ),
 ( 0.001421017662254408977, 0.001775724732212775447, 0.002130431802171142350, 0.002839845942087865747 ),
 .UNSPECIFIED. ) ;
#1016 = ORIENTED_EDGE ( 'NONE', *, *, #365, .T. ) ;
#1017 = FACE_OUTER_BOUND ( 'NONE', #80, .T. ) ;
#1018 = PLANE ( 'NONE',  #325 ) ;
#1019 = ORIENTED_EDGE ( 'NONE', *, *, #545, .F. ) ;
#1020 = EDGE_CURVE ( 'NONE', #948, #836, #863, .T. ) ;
#1021 = ADVANCED_FACE ( 'NONE', ( #965 ), #653, .F. ) ;
#1022 = ORIENTED_EDGE ( 'NONE', *, *, #175, .F. ) ;
#1023 = CARTESIAN_POINT ( 'NONE',  ( -8.549997893052742270, -43.99518687904360803, -19.00486924704519609 ) ) ;
#1024 = AXIS2_PLACEMENT_3D ( 'NONE', #158, #304, #971 ) ;
#1025 = ORIENTED_EDGE ( 'NONE', *, *, #345, .F. ) ;
#1026 = DIRECTION ( 'NONE',  ( 0.000000000000000000, 0.000000000000000000, 1.000000000000000000 ) ) ;
#1027 = AXIS2_PLACEMENT_3D ( 'NONE', #678, #999, #245 ) ;
#1028 = DIRECTION ( 'NONE',  ( 1.000000000000000000, -1.031877304899886336E-16, 0.000000000000000000 ) ) ;
#1029 = EDGE_LOOP ( 'NONE', ( #471, #529, #468, #1052 ) ) ;
#1030 = FACE_BOUND ( 'NONE', #4, .T. ) ;
#1031 = VECTOR ( 'NONE', #293, 1000.000000000000000 ) ;
#1032 = VERTEX_POINT ( 'NONE', #205 ) ;
#1033 = CARTESIAN_POINT ( 'NONE',  ( -2.800000000000015365, -169.0999999999999943, -5.000000000000127898 ) ) ;
#1034 = CARTESIAN_POINT ( 'NONE',  ( -2.800000000000014921, -164.5000000000000000, -5.000000000000127898 ) ) ;
#1035 = VERTEX_POINT ( 'NONE', #456 ) ;
#1036 = EDGE_CURVE ( 'NONE', #631, #535, #801, .T. ) ;
#1037 = LINE ( 'NONE', #1042, #117 ) ;
#1038 = CARTESIAN_POINT ( 'NONE',  ( -8.520499623292302260, -169.0459612706216603, -20.72561808021767504 ) ) ;
#1039 = VERTEX_POINT ( 'NONE', #755 ) ;
#1040 = FACE_OUTER_BOUND ( 'NONE', #794, .T. ) ;
#1041 = ORIENTED_EDGE ( 'NONE', *, *, #1059, .F. ) ;
#1042 = CARTESIAN_POINT ( 'NONE',  ( -0.4966679003209281684, -28.76025403784444734, 0.000000000000000000 ) ) ;
#1043 = AXIS2_PLACEMENT_3D ( 'NONE', #422, #856, #335 ) ;
#1044 = DIRECTION ( 'NONE',  ( 1.445602896647337931E-16, 1.000000000000000000, 0.000000000000000000 ) ) ;
#1045 = ADVANCED_FACE ( 'NONE', ( #89 ), #750, .T. ) ;
#1046 = DIRECTION ( 'NONE',  ( 1.445602896647337931E-16, 1.000000000000000000, 0.000000000000000000 ) ) ;
#1047 = ORIENTED_EDGE ( 'NONE', *, *, #1066, .T. ) ;
#1048 = CARTESIAN_POINT ( 'NONE',  ( -3.749997893052750886, -168.5048131209564417, 0.000000000000000000 ) ) ;
#1049 = PRODUCT_DEFINITION_SHAPE ( 'NONE', 'NONE',  #731 ) ;
#1050 = CIRCLE ( 'NONE', #1009, 3.000000000000002665 ) ;
#1051 = DIRECTION ( 'NONE',  ( 1.000000000000000000, 0.000000000000000000, 0.000000000000000000 ) ) ;
#1052 = ORIENTED_EDGE ( 'NONE', *, *, #276, .F. ) ;
#1053 = EDGE_LOOP ( 'NONE', ( #619, #351, #271, #217, #12, #930, #292, #185, #966, #841 ) ) ;
#1054 = CYLINDRICAL_SURFACE ( 'NONE', #923, 1.600000000000004086 ) ;
#1055 = FACE_OUTER_BOUND ( 'NONE', #988, .T. ) ;
#1056 = VECTOR ( 'NONE', #189, 1000.000000000000000 ) ;
#1057 = VERTEX_POINT ( 'NONE', #403 ) ;
#1058 = SURFACE_STYLE_FILL_AREA ( #630 ) ;
#1059 = EDGE_CURVE ( 'NONE', #228, #580, #145, .T. ) ;
#1060 = VERTEX_POINT ( 'NONE', #337 ) ;
#1061 = LINE ( 'NONE', #651, #119 ) ;
#1062 = LINE ( 'NONE', #151, #989 ) ;
#1063 = CIRCLE ( 'NONE', #718, 1.599999999999997202 ) ;
#1064 = CIRCLE ( 'NONE', #649, 1.600000000000021627 ) ;
#1065 = DIRECTION ( 'NONE',  ( 0.000000000000000000, 0.000000000000000000, 1.000000000000000000 ) ) ;
#1066 = EDGE_CURVE ( 'NONE', #465, #1010, #943, .T. ) ;
#1067 = VERTEX_POINT ( 'NONE', #983 ) ;
#1068 = CARTESIAN_POINT ( 'NONE',  ( -2.800000000000015365, -170.4999999999999716, -20.25000000000011369 ) ) ;
#1069 = DIRECTION ( 'NONE',  ( 1.000000000000000000, -1.031877304899886336E-16, -0.000000000000000000 ) ) ;
#1070 = DIRECTION ( 'NONE',  ( 1.445602896647337931E-16, 1.000000000000000000, 0.000000000000000000 ) ) ;
#1071 = ORIENTED_EDGE ( 'NONE', *, *, #414, .F. ) ;
ENDSEC;
END-ISO-10303-21;
