ISO-10303-21;
HEADER;
FILE_DESCRIPTION (( 'STEP AP214' ),
    '1' );
FILE_NAME ('顶部横梁连接件.STEP',
    '2025-09-28T12:36:37',
    ( '' ),
    ( '' ),
    'SwSTEP 2.0',
    'SolidWorks 2025',
    '' );
FILE_SCHEMA (( 'AUTOMOTIVE_DESIGN' ));
ENDSEC;

DATA;
#1 = DIRECTION ( 'NONE',  ( 1.000000000000000000, -0.000000000000000000, -0.000000000000000000 ) ) ;
#2 = CARTESIAN_POINT ( 'NONE',  ( -10.00000000000000178, 27.50000000000006040, -8.299999999999984723 ) ) ;
#3 = CARTESIAN_POINT ( 'NONE',  ( -10.00000000000000178, 17.50000000000006395, -19.99999999999996803 ) ) ;
#4 = EDGE_CURVE ( 'NONE', #467, #52, #225, .T. ) ;
#5 = AXIS2_PLACEMENT_3D ( 'NONE', #34, #174, #119 ) ;
#6 = CIRCLE ( 'NONE', #488, 1.700000000000000178 ) ;
#7 = CARTESIAN_POINT ( 'NONE',  ( -19.19771352516684715, 27.90816882281221467, -12.97384119996248408 ) ) ;
#8 = EDGE_LOOP ( 'NONE', ( #573, #555, #509, #593 ) ) ;
#9 = CARTESIAN_POINT ( 'NONE',  ( -30.00000000000000355, 37.50000000000006395, -19.99999999999996803 ) ) ;
#10 = ORIENTED_EDGE ( 'NONE', *, *, #193, .F. ) ;
#11 = VERTEX_POINT ( 'NONE', #439 ) ;
#12 = EDGE_CURVE ( 'NONE', #198, #419, #146, .T. ) ;
#13 = DIRECTION ( 'NONE',  ( -1.000000000000000000, 3.469446951953614682E-16, 0.000000000000000000 ) ) ;
#14 = CYLINDRICAL_SURFACE ( 'NONE', #479, 3.000000000000000888 ) ;
#15 = CARTESIAN_POINT ( 'NONE',  ( -18.81966011250104387, 27.50000000000006040, -6.999999999999984901 ) ) ;
#16 = CARTESIAN_POINT ( 'NONE',  ( -16.74571697932517012, 24.52330799674287931, -10.43286088145339363 ) ) ;
#17 = ADVANCED_FACE ( 'NONE', ( #530, #296 ), #482, .T. ) ;
#18 = CARTESIAN_POINT ( 'NONE',  ( -30.00000000000000355, 37.50000000000006395, -19.99999999999996803 ) ) ;
#19 = DIRECTION ( 'NONE',  ( -1.000000000000000000, 0.000000000000000000, 0.000000000000000000 ) ) ;
#20 = AXIS2_PLACEMENT_3D ( 'NONE', #501, #547, #552 ) ;
#21 = B_SPLINE_CURVE_WITH_KNOTS ( 'NONE', 3,
 ( #572, #428, #435, #7, #145, #104 ),
 .UNSPECIFIED., .F., .F.,
 ( 4, 2, 4 ),
 ( 0.01046594165852552868, 0.01088206170034192871, 0.01129818174215832700 ),
 .UNSPECIFIED. ) ;
#22 = EDGE_LOOP ( 'NONE', ( #515, #241 ) ) ;
#23 = CARTESIAN_POINT ( 'NONE',  ( -22.27174896557132300, 30.35671231989740448, -8.029695680043092310 ) ) ;
#24 = CARTESIAN_POINT ( 'NONE',  ( -16.93434845569924008, 24.86882010466646875, -11.45719575075717245 ) ) ;
#25 = EDGE_LOOP ( 'NONE', ( #503, #272, #560, #335 ) ) ;
#26 = DIRECTION ( 'NONE',  ( -1.000000000000000000, -0.000000000000000000, 0.000000000000000000 ) ) ;
#27 = CARTESIAN_POINT ( 'NONE',  ( -16.83647747668042527, 24.69253656290432986, -8.920932155585337142 ) ) ;
#28 = ADVANCED_FACE ( 'NONE', ( #578, #246 ), #575, .F. ) ;
#29 = CARTESIAN_POINT ( 'NONE',  ( -13.00000000000000178, 37.50000000000005684, -48.28427124746186649 ) ) ;
#30 = CARTESIAN_POINT ( 'NONE',  ( -30.00000000000000000, 17.50000000000006395, 0.000000000000000000 ) ) ;
#31 = ORIENTED_EDGE ( 'NONE', *, *, #193, .T. ) ;
#32 = CARTESIAN_POINT ( 'NONE',  ( -22.87770178576904456, 30.70135803147234199, -10.87544732981826989 ) ) ;
#33 = ORIENTED_EDGE ( 'NONE', *, *, #286, .F. ) ;
#34 = CARTESIAN_POINT ( 'NONE',  ( -13.00000000000000178, 27.50000000000006040, -9.999999999999984013 ) ) ;
#35 = ORIENTED_EDGE ( 'NONE', *, *, #37, .F. ) ;
#36 = DIRECTION ( 'NONE',  ( -3.469446951953614682E-16, -1.000000000000000000, 0.000000000000000000 ) ) ;
#37 = EDGE_CURVE ( 'NONE', #387, #198, #396, .T. ) ;
#38 = PLANE ( 'NONE',  #576 ) ;
#39 = VERTEX_POINT ( 'NONE', #249 ) ;
#40 = LINE ( 'NONE', #570, #160 ) ;
#41 = DIRECTION ( 'NONE',  ( 0.000000000000000000, 0.000000000000000000, 1.000000000000000000 ) ) ;
#42 = ORIENTED_EDGE ( 'NONE', *, *, #429, .F. ) ;
#43 = CARTESIAN_POINT ( 'NONE',  ( -30.00000000000000711, 27.50000000000006040, -9.999999999999984013 ) ) ;
#44 = CARTESIAN_POINT ( 'NONE',  ( -30.00000000000000711, 27.50000000000006040, -9.999999999999984013 ) ) ;
#45 = EDGE_CURVE ( 'NONE', #586, #287, #318, .T. ) ;
#46 = ORIENTED_EDGE ( 'NONE', *, *, #588, .T. ) ;
#47 = CARTESIAN_POINT ( 'NONE',  ( -13.00000000000000178, 27.50000000000006040, -9.999999999999984013 ) ) ;
#48 = DIRECTION ( 'NONE',  ( -1.000000000000000000, -0.000000000000000000, -0.000000000000000000 ) ) ;
#49 = DIRECTION ( 'NONE',  ( 1.000000000000000000, 0.000000000000000000, 0.000000000000000000 ) ) ;
#50 = CIRCLE ( 'NONE', #86, 3.000000000000002665 ) ;
#51 = LINE ( 'NONE', #137, #295 ) ;
#52 = VERTEX_POINT ( 'NONE', #2 ) ;
#53 = DIRECTION ( 'NONE',  ( -1.000000000000000000, 0.000000000000000000, 0.000000000000000000 ) ) ;
#54 = EDGE_CURVE ( 'NONE', #178, #11, #452, .T. ) ;
#55 = CARTESIAN_POINT ( 'NONE',  ( -30.00000000000000355, 37.50000000000006395, -48.28427124746186649 ) ) ;
#56 = DIRECTION ( 'NONE',  ( 3.469446951953614189E-16, 1.000000000000000000, -0.000000000000000000 ) ) ;
#57 = CYLINDRICAL_SURFACE ( 'NONE', #531, 1.700000000000000178 ) ;
#58 = CARTESIAN_POINT ( 'NONE',  ( -16.74710297706849360, 24.52593098650486070, -9.550012113416379123 ) ) ;
#59 = ADVANCED_FACE ( 'NONE', ( #405 ), #14, .F. ) ;
#60 = CARTESIAN_POINT ( 'NONE',  ( -13.00000000000000178, 27.50000000000006040, -12.99999999999998401 ) ) ;
#61 = CARTESIAN_POINT ( 'NONE',  ( -17.14703917021692803, 25.23447841545415216, -8.022732186564534018 ) ) ;
#62 = VERTEX_POINT ( 'NONE', #397 ) ;
#63 = FACE_BOUND ( 'NONE', #157, .T. ) ;
#64 = CARTESIAN_POINT ( 'NONE',  ( -16.79864196852771840, 24.62229821423101939, -9.124552670181698133 ) ) ;
#65 = VECTOR ( 'NONE', #228, 1000.000000000000000 ) ;
#66 = PLANE ( 'NONE',  #105 ) ;
#67 = CARTESIAN_POINT ( 'NONE',  ( -17.22892328708005394, 25.36960921191789353, -12.12153040363650014 ) ) ;
#68 = ORIENTED_EDGE ( 'NONE', *, *, #353, .T. ) ;
#69 = CARTESIAN_POINT ( 'NONE',  ( -20.32946314700836510, 28.97502068461569635, -12.99999999999998934 ) ) ;
#70 = EDGE_LOOP ( 'NONE', ( #384, #223 ) ) ;
#71 = CARTESIAN_POINT ( 'NONE',  ( -21.34229999437944869, 29.75084765868894010, -12.68954800104270042 ) ) ;
#72 =( NAMED_UNIT ( * ) PLANE_ANGLE_UNIT ( ) SI_UNIT ( $, .RADIAN. ) );
#73 = VERTEX_POINT ( 'NONE', #545 ) ;
#74 = AXIS2_PLACEMENT_3D ( 'NONE', #43, #558, #91 ) ;
#75 = DIRECTION ( 'NONE',  ( -1.000000000000000000, 0.000000000000000000, 0.000000000000000000 ) ) ;
#76 = CARTESIAN_POINT ( 'NONE',  ( -164.3899999999999864, 56.50000000000005684, -19.99999999999996803 ) ) ;
#77 = EDGE_LOOP ( 'NONE', ( #590, #366, #445, #172 ) ) ;
#78 = EDGE_CURVE ( 'NONE', #73, #81, #263, .T. ) ;
#79 = PLANE ( 'NONE',  #334 ) ;
#80 = SURFACE_SIDE_STYLE ('',( #329 ) ) ;
#81 = VERTEX_POINT ( 'NONE', #113 ) ;
#82 = LINE ( 'NONE', #518, #243 ) ;
#83 = AXIS2_PLACEMENT_3D ( 'NONE', #539, #302, #490 ) ;
#84 = DIRECTION ( 'NONE',  ( 0.000000000000000000, 0.000000000000000000, -1.000000000000000000 ) ) ;
#85 = VERTEX_POINT ( 'NONE', #304 ) ;
#86 = AXIS2_PLACEMENT_3D ( 'NONE', #279, #339, #75 ) ;
#87 = DIRECTION ( 'NONE',  ( -1.000000000000000000, -0.000000000000000000, 0.000000000000000000 ) ) ;
#88 = EDGE_CURVE ( 'NONE', #440, #52, #166, .T. ) ;
#89 = CYLINDRICAL_SURFACE ( 'NONE', #20, 1.700000000000000178 ) ;
#90 = ORIENTED_EDGE ( 'NONE', *, *, #500, .F. ) ;
#91 = DIRECTION ( 'NONE',  ( 0.000000000000000000, 0.000000000000000000, -1.000000000000000000 ) ) ;
#92 = DIRECTION ( 'NONE',  ( 0.000000000000000000, 0.000000000000000000, 1.000000000000000000 ) ) ;
#93 = B_SPLINE_CURVE_WITH_KNOTS ( 'NONE', 3,
 ( #433, #128, #378, #332, #284, #567 ),
 .UNSPECIFIED., .F., .F.,
 ( 4, 2, 4 ),
 ( 0.02175191662843068210, 0.02216873156573914011, 0.02258554650304760159 ),
 .UNSPECIFIED. ) ;
#94 = ORIENTED_EDGE ( 'NONE', *, *, #286, .T. ) ;
#95 = FACE_OUTER_BOUND ( 'NONE', #437, .T. ) ;
#96 = ORIENTED_EDGE ( 'NONE', *, *, #571, .F. ) ;
#97 = EDGE_LOOP ( 'NONE', ( #96, #31, #215, #120 ) ) ;
#98 = EDGE_CURVE ( 'NONE', #387, #142, #261, .T. ) ;
#99 = PRODUCT_DEFINITION_SHAPE ( 'NONE', 'NONE',  #219 ) ;
#100 = CARTESIAN_POINT ( 'NONE',  ( -30.00000000000000355, 32.50000000000006395, -19.99999999999996803 ) ) ;
#101 = CLOSED_SHELL ( 'NONE', ( #59, #381, #311, #483, #106, #17, #258, #519, #134, #266, #28, #290, #361, #421, #150, #199, #464 ) ) ;
#102 = DIRECTION ( 'NONE',  ( 1.000000000000000000, 0.000000000000000000, 0.000000000000000000 ) ) ;
#103 = DIRECTION ( 'NONE',  ( 0.000000000000000000, 0.000000000000000000, -1.000000000000000000 ) ) ;
#104 = CARTESIAN_POINT ( 'NONE',  ( -19.39339828220178674, 28.10660171779827721, -12.93803239532244653 ) ) ;
#105 = AXIS2_PLACEMENT_3D ( 'NONE', #29, #455, #259 ) ;
#106 = ADVANCED_FACE ( 'NONE', ( #107 ), #309, .T. ) ;
#107 = FACE_OUTER_BOUND ( 'NONE', #470, .T. ) ;
#108 = ORIENTED_EDGE ( 'NONE', *, *, #185, .T. ) ;
#109 = DIRECTION ( 'NONE',  ( -1.000000000000000000, 3.469446951953614189E-16, -0.000000000000000000 ) ) ;
#110 = CARTESIAN_POINT ( 'NONE',  ( -18.25107619471288700, 26.83496462794193960, -7.052694683833406586 ) ) ;
#111 = ORIENTED_EDGE ( 'NONE', *, *, #563, .T. ) ;
#112 = CYLINDRICAL_SURFACE ( 'NONE', #74, 1.700000000000000178 ) ;
#113 = CARTESIAN_POINT ( 'NONE',  ( -18.30000000000000426, 37.50000000000005684, -9.999999999999982236 ) ) ;
#114 = CARTESIAN_POINT ( 'NONE',  ( -22.99940188063943225, 30.76618356620447159, -10.22724511188450869 ) ) ;
#115 = VECTOR ( 'NONE', #289, 1000.000000000000000 ) ;
#116 = CARTESIAN_POINT ( 'NONE',  ( -17.52536411969270347, 25.83201640645741648, -7.499346394140819605 ) ) ;
#117 = EDGE_LOOP ( 'NONE', ( #94, #197, #68, #463, #460, #380 ) ) ;
#118 = CARTESIAN_POINT ( 'NONE',  ( -20.00000000000000355, 34.50000000000005684, -9.999999999999982236 ) ) ;
#119 = DIRECTION ( 'NONE',  ( 0.000000000000000000, 0.000000000000000000, -1.000000000000000000 ) ) ;
#120 = ORIENTED_EDGE ( 'NONE', *, *, #412, .F. ) ;
#121 = CARTESIAN_POINT ( 'NONE',  ( -20.00000000000000355, 28.68033988749901653, -12.99999999999998401 ) ) ;
#122 = ORIENTED_EDGE ( 'NONE', *, *, #167, .T. ) ;
#123 = DIRECTION ( 'NONE',  ( 0.000000000000000000, 0.000000000000000000, 1.000000000000000000 ) ) ;
#124 = PLANE ( 'NONE',  #270 ) ;
#125 = PRODUCT_RELATED_PRODUCT_CATEGORY ( 'part', '', ( #357 ) ) ;
#126 = ORIENTED_EDGE ( 'NONE', *, *, #244, .F. ) ;
#127 = VECTOR ( 'NONE', #222, 1000.000000000000000 ) ;
#128 = CARTESIAN_POINT ( 'NONE',  ( -19.49071893820370605, 28.20392237380019651, -12.95812573302763759 ) ) ;
#129 = EDGE_LOOP ( 'NONE', ( #374, #566, #532, #111, #615 ) ) ;
#130 = DIRECTION ( 'NONE',  ( 0.000000000000000000, -1.000000000000000000, -1.172416807168114790E-16 ) ) ;
#131 = DIRECTION ( 'NONE',  ( 1.000000000000000000, 0.000000000000000000, -0.000000000000000000 ) ) ;
#132 = ORIENTED_EDGE ( 'NONE', *, *, #315, .T. ) ;
#133 = DIRECTION ( 'NONE',  ( -0.000000000000000000, 1.000000000000000000, -0.000000000000000000 ) ) ;
#134 = ADVANCED_FACE ( 'NONE', ( #346 ), #354, .F. ) ;
#135 = AXIS2_PLACEMENT_3D ( 'NONE', #161, #19, #411 ) ;
#136 = AXIS2_PLACEMENT_3D ( 'NONE', #30, #84, #322 ) ;
#137 = CARTESIAN_POINT ( 'NONE',  ( -1.514718625761440896, 27.50000000000006040, -12.99999999999998401 ) ) ;
#138 = EDGE_LOOP ( 'NONE', ( #377, #90 ) ) ;
#139 = AXIS2_PLACEMENT_3D ( 'NONE', #359, #26, #602 ) ;
#140 = DIRECTION ( 'NONE',  ( 3.469446951953614189E-16, 1.000000000000000000, -0.000000000000000000 ) ) ;
#141 = LINE ( 'NONE', #253, #115 ) ;
#142 = VERTEX_POINT ( 'NONE', #487 ) ;
#143 = UNCERTAINTY_MEASURE_WITH_UNIT (LENGTH_MEASURE( 1.000000000000000082E-05 ), #559, 'distance_accuracy_value', 'NONE');
#144 = CARTESIAN_POINT ( 'NONE',  ( -20.00000000000000355, 37.50000000000005684, -9.999999999999982236 ) ) ;
#145 = CARTESIAN_POINT ( 'NONE',  ( -19.29512379899632535, 28.00832723459281937, -12.95832266524019616 ) ) ;
#146 = LINE ( 'NONE', #100, #457 ) ;
#147 = DIRECTION ( 'NONE',  ( 0.000000000000000000, 0.000000000000000000, 1.000000000000000000 ) ) ;
#148 = VECTOR ( 'NONE', #214, 1000.000000000000000 ) ;
#149 = CARTESIAN_POINT ( 'NONE',  ( -19.39339828220178674, 28.10660171779827721, -7.061967604677518828 ) ) ;
#150 = ADVANCED_FACE ( 'NONE', ( #443 ), #156, .F. ) ;
#151 = ORIENTED_EDGE ( 'NONE', *, *, #391, .F. ) ;
#152 = CIRCLE ( 'NONE', #540, 1.700000000000000178 ) ;
#153 = EDGE_LOOP ( 'NONE', ( #257, #430, #330, #369 ) ) ;
#154 = CARTESIAN_POINT ( 'NONE',  ( -18.25561397513424211, 26.83364956944264890, -12.93006668586536456 ) ) ;
#155 = EDGE_CURVE ( 'NONE', #85, #142, #390, .T. ) ;
#156 = CYLINDRICAL_SURFACE ( 'NONE', #83, 1.700000000000000178 ) ;
#157 = EDGE_LOOP ( 'NONE', ( #42, #398 ) ) ;
#158 = DIRECTION ( 'NONE',  ( -1.000000000000000000, -0.000000000000000000, -0.000000000000000000 ) ) ;
#159 = VECTOR ( 'NONE', #469, 1000.000000000000000 ) ;
#160 = VECTOR ( 'NONE', #133, 1000.000000000000000 ) ;
#161 = CARTESIAN_POINT ( 'NONE',  ( -30.00000000000000355, 32.50000000000006395, -48.28427124746186649 ) ) ;
#162 = CARTESIAN_POINT ( 'NONE',  ( -22.26552158454591890, 30.35296082978313592, -11.97726781343543401 ) ) ;
#163 = CARTESIAN_POINT ( 'NONE',  ( -17.42184006585991440, 25.67444766753077445, -7.610998120374500964 ) ) ;
#164 = ORIENTED_EDGE ( 'NONE', *, *, #336, .F. ) ;
#165 = CARTESIAN_POINT ( 'NONE',  ( -22.52107894657812537, 30.50333248073096470, -8.360761328867653219 ) ) ;
#166 = LINE ( 'NONE', #408, #423 ) ;
#167 = EDGE_CURVE ( 'NONE', #287, #235, #418, .T. ) ;
#168 = CARTESIAN_POINT ( 'NONE',  ( -30.00000000000000355, 34.50000000000005684, -48.28427124746186649 ) ) ;
#169 = FILL_AREA_STYLE_COLOUR ( '', #349 ) ;
#170 = CARTESIAN_POINT ( 'NONE',  ( -10.00000000000000178, 37.50000000000005684, -19.99999999999996447 ) ) ;
#171 = CARTESIAN_POINT ( 'NONE',  ( -15.29578728956180278, 32.20421271043826295, -12.09201794328252255 ) ) ;
#172 = ORIENTED_EDGE ( 'NONE', *, *, #444, .F. ) ;
#173 = CARTESIAN_POINT ( 'NONE',  ( -10.00000000000000178, 17.50000000000006395, -48.28427124746186649 ) ) ;
#174 = DIRECTION ( 'NONE',  ( -1.000000000000000000, -0.000000000000000000, 0.000000000000000000 ) ) ;
#175 = EDGE_LOOP ( 'NONE', ( #188, #184 ) ) ;
#176 = APPLICATION_PROTOCOL_DEFINITION ( 'draft international standard', 'automotive_design', 1998, #580 ) ;
#177 = CYLINDRICAL_SURFACE ( 'NONE', #269, 3.000000000000000888 ) ;
#178 = VERTEX_POINT ( 'NONE', #603 ) ;
#179 = VECTOR ( 'NONE', #123, 1000.000000000000000 ) ;
#180 = LINE ( 'NONE', #363, #280 ) ;
#181 = ORIENTED_EDGE ( 'NONE', *, *, #429, .T. ) ;
#182 = CARTESIAN_POINT ( 'NONE',  ( -20.00000000000000355, 37.50000000000005684, -9.999999999999982236 ) ) ;
#183 = LINE ( 'NONE', #9, #350 ) ;
#184 = ORIENTED_EDGE ( 'NONE', *, *, #612, .T. ) ;
#185 = EDGE_CURVE ( 'NONE', #267, #291, #196, .T. ) ;
#186 = DIRECTION ( 'NONE',  ( -1.000000000000000000, 0.000000000000000000, 0.000000000000000000 ) ) ;
#187 = DIRECTION ( 'NONE',  ( -0.000000000000000000, -1.000000000000000000, -0.000000000000000000 ) ) ;
#188 = ORIENTED_EDGE ( 'NONE', *, *, #45, .T. ) ;
#189 = VECTOR ( 'NONE', #48, 1000.000000000000000 ) ;
#190 = CARTESIAN_POINT ( 'NONE',  ( -20.00000000000000355, 34.50000000000005684, -9.999999999999982236 ) ) ;
#191 = FACE_OUTER_BOUND ( 'NONE', #25, .T. ) ;
#192 = DIRECTION ( 'NONE',  ( 0.000000000000000000, 0.000000000000000000, -1.000000000000000000 ) ) ;
#193 = EDGE_CURVE ( 'NONE', #409, #218, #180, .T. ) ;
#194 = CARTESIAN_POINT ( 'NONE',  ( -19.49167276540724458, 28.20487620100374215, -7.041677334759773643 ) ) ;
#195 = DIRECTION ( 'NONE',  ( 3.469446951953614682E-16, 1.000000000000000000, -0.000000000000000000 ) ) ;
#196 =( BOUNDED_CURVE ( )  B_SPLINE_CURVE ( 3, ( #317, #365, #171, #607 ),
 .UNSPECIFIED., .F., .F. ) 
 B_SPLINE_CURVE_WITH_KNOTS ( ( 4, 4 ),
 ( 1.774400714546756630, 4.508784592632829380 ),
 .UNSPECIFIED. ) 
 CURVE ( )  GEOMETRIC_REPRESENTATION_ITEM ( )  RATIONAL_B_SPLINE_CURVE ( ( 1.000000000000000000, 0.4681337150662708280, 0.4681337150662708280, 1.000000000000000000 ) ) 
 REPRESENTATION_ITEM ( '' )  );
#197 = ORIENTED_EDGE ( 'NONE', *, *, #54, .T. ) ;
#198 = VERTEX_POINT ( 'NONE', #471 ) ;
#199 = ADVANCED_FACE ( 'NONE', ( #234 ), #177, .F. ) ;
#200 = ADVANCED_BREP_SHAPE_REPRESENTATION ( '\X2\987690e86a2a68818fde63a54ef6\X0\', ( #229, #312 ), #231 ) ;
#201 = CARTESIAN_POINT ( 'NONE',  ( -18.81966011250104387, 27.50000000000006040, -12.99999999999998579 ) ) ;
#202 = VERTEX_POINT ( 'NONE', #376 ) ;
#203 = CARTESIAN_POINT ( 'NONE',  ( -19.29607762619986033, 28.00928106179636146, -7.041874266972324214 ) ) ;
#204 = CARTESIAN_POINT ( 'NONE',  ( -16.83368676392715813, 24.68741648867232286, -11.06578660595814156 ) ) ;
#205 = ORIENTED_EDGE ( 'NONE', *, *, #220, .F. ) ;
#206 = CARTESIAN_POINT ( 'NONE',  ( -21.68292168971667166, 29.98802652955897230, -7.484925599454540723 ) ) ;
#207 = CARTESIAN_POINT ( 'NONE',  ( -18.67402954907568713, 27.33718008028970559, -12.99999999999998579 ) ) ;
#208 = ORIENTED_EDGE ( 'NONE', *, *, #78, .T. ) ;
#209 = CARTESIAN_POINT ( 'NONE',  ( -20.66503537205811369, 29.24892380528717339, -12.94730531616656322 ) ) ;
#210 = EDGE_CURVE ( 'NONE', #345, #343, #538, .T. ) ;
#211 = CARTESIAN_POINT ( 'NONE',  ( -17.51197347044109165, 25.81707831028338873, -12.51507440054542997 ) ) ;
#212 = ORIENTED_EDGE ( 'NONE', *, *, #155, .T. ) ;
#213 = CARTESIAN_POINT ( 'NONE',  ( -20.16281991971035126, 28.82597045092437682, -6.999999999999980460 ) ) ;
#214 = DIRECTION ( 'NONE',  ( 0.000000000000000000, 0.000000000000000000, 1.000000000000000000 ) ) ;
#215 = ORIENTED_EDGE ( 'NONE', *, *, #588, .F. ) ;
#216 = DIRECTION ( 'NONE',  ( -1.000000000000000000, 0.000000000000000000, 0.000000000000000000 ) ) ;
#217 = DIRECTION ( 'NONE',  ( 1.000000000000000000, 0.000000000000000000, 0.000000000000000000 ) ) ;
#218 = VERTEX_POINT ( 'NONE', #426 ) ;
#219 = PRODUCT_DEFINITION ( '鏈', '', #597, #526 ) ;
#220 = EDGE_CURVE ( 'NONE', #198, #85, #561, .T. ) ;
#221 = CARTESIAN_POINT ( 'NONE',  ( -22.63117989533360230, 30.56565154430083453, -8.542804249242795578 ) ) ;
#222 = DIRECTION ( 'NONE',  ( 0.000000000000000000, 0.000000000000000000, 1.000000000000000000 ) ) ;
#223 = ORIENTED_EDGE ( 'NONE', *, *, #210, .T. ) ;
#224 = DIRECTION ( 'NONE',  ( 0.000000000000000000, -0.000000000000000000, -1.000000000000000000 ) ) ;
#225 = CIRCLE ( 'NONE', #475, 1.700000000000000178 ) ;
#226 =( NAMED_UNIT ( * ) SI_UNIT ( $, .STERADIAN. ) SOLID_ANGLE_UNIT ( ) );
#227 = ORIENTED_EDGE ( 'NONE', *, *, #210, .F. ) ;
#228 = DIRECTION ( 'NONE',  ( -1.000000000000000000, 0.000000000000000000, -2.621359919253850083E-17 ) ) ;
#229 = MANIFOLD_SOLID_BREP ( '\X2\52079664\X0\-\X2\62c94f38\X0\4', #101 ) ;
#230 = CARTESIAN_POINT ( 'NONE',  ( -10.00000000000000178, 37.50000000000005684, -48.28427124746186649 ) ) ;
#231 =( GEOMETRIC_REPRESENTATION_CONTEXT ( 3 ) GLOBAL_UNCERTAINTY_ASSIGNED_CONTEXT ( ( #327 ) ) GLOBAL_UNIT_ASSIGNED_CONTEXT ( ( #273, #375, #609 ) ) REPRESENTATION_CONTEXT ( 'NONE', 'WORKASPACE' ) );
#232 = ORIENTED_EDGE ( 'NONE', *, *, #500, .T. ) ;
#233 = CIRCLE ( 'NONE', #282, 1.700000000000000178 ) ;
#234 = FACE_OUTER_BOUND ( 'NONE', #494, .T. ) ;
#235 = VERTEX_POINT ( 'NONE', #514 ) ;
#236 = DIRECTION ( 'NONE',  ( 0.000000000000000000, 0.000000000000000000, 1.000000000000000000 ) ) ;
#237 = ORIENTED_EDGE ( 'NONE', *, *, #315, .F. ) ;
#238 = DIRECTION ( 'NONE',  ( 0.000000000000000000, -1.000000000000000000, 0.000000000000000000 ) ) ;
#239 = AXIS2_PLACEMENT_3D ( 'NONE', #338, #484, #53 ) ;
#240 = CARTESIAN_POINT ( 'NONE',  ( -13.00000000000000178, 27.50000000000006040, -6.999999999999984901 ) ) ;
#241 = ORIENTED_EDGE ( 'NONE', *, *, #248, .F. ) ;
#242 = PRESENTATION_LAYER_ASSIGNMENT (  '', '', ( #434 ) ) ;
#243 = VECTOR ( 'NONE', #130, 1000.000000000000000 ) ;
#244 = EDGE_CURVE ( 'NONE', #419, #62, #265, .T. ) ;
#245 = DIRECTION ( 'NONE',  ( -1.000000000000000000, -0.000000000000000000, -0.000000000000000000 ) ) ;
#246 = FACE_OUTER_BOUND ( 'NONE', #543, .T. ) ;
#247 = ORIENTED_EDGE ( 'NONE', *, *, #185, .F. ) ;
#248 = EDGE_CURVE ( 'NONE', #52, #467, #610, .T. ) ;
#249 = CARTESIAN_POINT ( 'NONE',  ( -20.00000000000000355, 28.68033988749901653, -12.99999999999998401 ) ) ;
#250 = AXIS2_PLACEMENT_3D ( 'NONE', #182, #468, #564 ) ;
#251 = CARTESIAN_POINT ( 'NONE',  ( -18.12109525153994483, 26.66167436902841104, -12.88607904228215340 ) ) ;
#252 = ORIENTED_EDGE ( 'NONE', *, *, #612, .F. ) ;
#253 = CARTESIAN_POINT ( 'NONE',  ( -30.00000000000000355, 32.50000000000006395, 0.000000000000000000 ) ) ;
#254 = CARTESIAN_POINT ( 'NONE',  ( -16.93790599830705901, 24.87513442057803204, -8.531558971751149301 ) ) ;
#255 = DIRECTION ( 'NONE',  ( 1.000000000000000000, -0.000000000000000000, -0.000000000000000000 ) ) ;
#256 = CARTESIAN_POINT ( 'NONE',  ( -17.74915234131112385, 26.15770000562061526, -7.310451998957268493 ) ) ;
#257 = ORIENTED_EDGE ( 'NONE', *, *, #563, .F. ) ;
#258 = ADVANCED_FACE ( 'NONE', ( #368, #422 ), #38, .T. ) ;
#259 = DIRECTION ( 'NONE',  ( -0.000000000000000000, 0.000000000000000000, -1.000000000000000000 ) ) ;
#260 = CIRCLE ( 'NONE', #344, 1.700000000000000178 ) ;
#261 = LINE ( 'NONE', #581, #148 ) ;
#262 = CARTESIAN_POINT ( 'NONE',  ( -22.80746343709575186, 30.66352252331964934, -11.07906784441463088 ) ) ;
#263 = LINE ( 'NONE', #348, #606 ) ;
#264 = CARTESIAN_POINT ( 'NONE',  ( -20.83832563097165291, 29.37890474846012268, -7.113920957717812854 ) ) ;
#265 = LINE ( 'NONE', #459, #127 ) ;
#266 = ADVANCED_FACE ( 'NONE', ( #600 ), #124, .F. ) ;
#267 = VERTEX_POINT ( 'NONE', #401 ) ;
#268 = CARTESIAN_POINT ( 'NONE',  ( -22.12641990135947268, 30.26865061109820587, -12.12563160085195868 ) ) ;
#269 = AXIS2_PLACEMENT_3D ( 'NONE', #271, #277, #595 ) ;
#270 = AXIS2_PLACEMENT_3D ( 'NONE', #76, #274, #574 ) ;
#271 = CARTESIAN_POINT ( 'NONE',  ( -20.00000000000000355, 45.98528137423861750, -9.999999999999982236 ) ) ;
#272 = ORIENTED_EDGE ( 'NONE', *, *, #546, .T. ) ;
#273 =( LENGTH_UNIT ( ) NAMED_UNIT ( * ) SI_UNIT ( .MILLI., .METRE. ) );
#274 = DIRECTION ( 'NONE',  ( -2.621359919253849775E-17, -1.172416807168114790E-16, 1.000000000000000000 ) ) ;
#275 = ORIENTED_EDGE ( 'NONE', *, *, #598, .F. ) ;
#276 = CARTESIAN_POINT ( 'NONE',  ( -21.70000000000000284, 34.50000000000005684, -9.999999999999982236 ) ) ;
#277 = DIRECTION ( 'NONE',  ( -0.000000000000000000, -1.000000000000000000, -0.000000000000000000 ) ) ;
#278 = VERTEX_POINT ( 'NONE', #489 ) ;
#279 = CARTESIAN_POINT ( 'NONE',  ( -20.00000000000000355, 34.50000000000005684, -9.999999999999982236 ) ) ;
#280 = VECTOR ( 'NONE', #41, 1000.000000000000000 ) ;
#281 = EDGE_CURVE ( 'NONE', #586, #39, #293, .T. ) ;
#282 = AXIS2_PLACEMENT_3D ( 'NONE', #144, #328, #186 ) ;
#283 = ORIENTED_EDGE ( 'NONE', *, *, #220, .T. ) ;
#284 = CARTESIAN_POINT ( 'NONE',  ( -19.89503082249355614, 28.58645260092035301, -12.99999999999998579 ) ) ;
#285 = CARTESIAN_POINT ( 'NONE',  ( -19.39339828220178674, 28.10660171779827721, -7.061967604677518828 ) ) ;
#286 = EDGE_CURVE ( 'NONE', #267, #178, #394, .T. ) ;
#287 = VERTEX_POINT ( 'NONE', #431 ) ;
#288 = DIRECTION ( 'NONE',  ( -1.000000000000000000, 0.000000000000000000, 0.000000000000000000 ) ) ;
#289 = DIRECTION ( 'NONE',  ( -0.000000000000000000, -1.000000000000000000, -0.000000000000000000 ) ) ;
#290 = ADVANCED_FACE ( 'NONE', ( #191 ), #57, .F. ) ;
#291 = VERTEX_POINT ( 'NONE', #528 ) ;
#292 = VECTOR ( 'NONE', #611, 1000.000000000000000 ) ;
#293 = LINE ( 'NONE', #303, #499 ) ;
#294 = CARTESIAN_POINT ( 'NONE',  ( -10.00000000000000178, 27.50000000000006040, -9.999999999999984013 ) ) ;
#295 = VECTOR ( 'NONE', #541, 1000.000000000000000 ) ;
#296 = FACE_OUTER_BOUND ( 'NONE', #441, .T. ) ;
#297 = CARTESIAN_POINT ( 'NONE',  ( -30.00000000000000000, 17.50000000000006395, -19.99999999999996803 ) ) ;
#298 = B_SPLINE_CURVE_WITH_KNOTS ( 'NONE', 3,
 ( #121, #69, #209, #307, #71, #417, #367, #268, #162, #495, #550, #262, #32, #461, #114, #504, #314, #556, #407, #221, #165, #23, #451, #206, #362, #264, #458, #364, #213, #448 ),
 .UNSPECIFIED., .F., .F.,
 ( 4, 2, 2, 2, 2, 2, 2, 2, 2, 2, 2, 2, 2, 2, 4 ),
 ( 0.000000000000000000, 0.001308242707315684580, 0.001962364060973530340, 0.002616485414631376100, 0.003270606768289221426, 0.003924728121947067619, 0.004578849475604912511, 0.005232970829262759138, 0.005887092182920604030, 0.006541213536578449790, 0.007195334890236296417, 0.007849456243894142177, 0.009157698951209828492, 0.009811820304867678588, 0.01046594165852552695 ),
 .UNSPECIFIED. ) ;
#299 = EDGE_CURVE ( 'NONE', #345, #11, #51, .T. ) ;
#300 = DIRECTION ( 'NONE',  ( -1.000000000000000000, 0.000000000000000000, -0.000000000000000000 ) ) ;
#301 = CARTESIAN_POINT ( 'NONE',  ( -1.514718625761440896, 27.50000000000006040, -6.999999999999984901 ) ) ;
#302 = DIRECTION ( 'NONE',  ( 3.469446951953614189E-16, 1.000000000000000000, -0.000000000000000000 ) ) ;
#303 = CARTESIAN_POINT ( 'NONE',  ( -20.00000000000000355, 45.98528137423861750, -12.99999999999998401 ) ) ;
#304 = CARTESIAN_POINT ( 'NONE',  ( -30.00000000000000355, 32.50000000000006395, 0.000000000000000000 ) ) ;
#305 = AXIS2_PLACEMENT_3D ( 'NONE', #55, #195, #13 ) ;
#306 = EDGE_CURVE ( 'NONE', #142, #355, #382, .T. ) ;
#307 = CARTESIAN_POINT ( 'NONE',  ( -21.17252369958409375, 29.62931803369171035, -12.76720225898137606 ) ) ;
#308 = AXIS2_PLACEMENT_3D ( 'NONE', #297, #485, #395 ) ;
#309 = PLANE ( 'NONE',  #135 ) ;
#310 = FACE_OUTER_BOUND ( 'NONE', #70, .T. ) ;
#311 = ADVANCED_FACE ( 'NONE', ( #582 ), #524, .F. ) ;
#312 = AXIS2_PLACEMENT_3D ( 'NONE', #579, #147, #102 ) ;
#313 = DIRECTION ( 'NONE',  ( 1.000000000000000000, -0.000000000000000000, -0.000000000000000000 ) ) ;
#314 = CARTESIAN_POINT ( 'NONE',  ( -22.97669200325718819, 30.75428302067489383, -9.567139118546576171 ) ) ;
#315 = EDGE_CURVE ( 'NONE', #62, #85, #141, .T. ) ;
#316 = FACE_OUTER_BOUND ( 'NONE', #175, .T. ) ;
#317 = CARTESIAN_POINT ( 'NONE',  ( -19.39339828220178674, 28.10660171779827721, -7.061967604677518828 ) ) ;
#318 = CIRCLE ( 'NONE', #331, 3.000000000000002665 ) ;
#319 = ORIENTED_EDGE ( 'NONE', *, *, #155, .F. ) ;
#320 = FACE_BOUND ( 'NONE', #413, .T. ) ;
#321 = VECTOR ( 'NONE', #140, 1000.000000000000000 ) ;
#322 = DIRECTION ( 'NONE',  ( -1.000000000000000000, 0.000000000000000000, 0.000000000000000000 ) ) ;
#323 = ORIENTED_EDGE ( 'NONE', *, *, #400, .F. ) ;
#324 = FACE_OUTER_BOUND ( 'NONE', #153, .T. ) ;
#325 = ORIENTED_EDGE ( 'NONE', *, *, #373, .F. ) ;
#326 = EDGE_CURVE ( 'NONE', #218, #62, #388, .T. ) ;
#327 = UNCERTAINTY_MEASURE_WITH_UNIT (LENGTH_MEASURE( 1.000000000000000082E-05 ), #273, 'distance_accuracy_value', 'NONE');
#328 = DIRECTION ( 'NONE',  ( 3.469446951953614682E-16, 1.000000000000000000, 0.000000000000000000 ) ) ;
#329 = SURFACE_STYLE_FILL_AREA ( #554 ) ;
#330 = ORIENTED_EDGE ( 'NONE', *, *, #306, .F. ) ;
#331 = AXIS2_PLACEMENT_3D ( 'NONE', #522, #474, #432 ) ;
#332 = CARTESIAN_POINT ( 'NONE',  ( -19.79201221401816113, 28.49164884670885911, -12.99450590501829872 ) ) ;
#333 = DIRECTION ( 'NONE',  ( 1.000000000000000000, -3.469446951953614682E-16, 2.621359919253846077E-17 ) ) ;
#334 = AXIS2_PLACEMENT_3D ( 'NONE', #465, #238, #224 ) ;
#335 = ORIENTED_EDGE ( 'NONE', *, *, #4, .T. ) ;
#336 = EDGE_CURVE ( 'NONE', #343, #178, #477, .T. ) ;
#337 = DIRECTION ( 'NONE',  ( 1.000000000000000000, -0.000000000000000000, -0.000000000000000000 ) ) ;
#338 = CARTESIAN_POINT ( 'NONE',  ( -30.00000000000000000, 17.50000000000006395, -48.28427124746186649 ) ) ;
#339 = DIRECTION ( 'NONE',  ( -3.469446951953614682E-16, -1.000000000000000000, 0.000000000000000000 ) ) ;
#340 = CARTESIAN_POINT ( 'NONE',  ( -10.00000000000000178, 17.50000000000006395, 0.000000000000000000 ) ) ;
#341 = DIRECTION ( 'NONE',  ( 0.000000000000000000, 1.000000000000000000, 1.172416807168114790E-16 ) ) ;
#342 = DIRECTION ( 'NONE',  ( 0.000000000000000000, 0.000000000000000000, -1.000000000000000000 ) ) ;
#343 = VERTEX_POINT ( 'NONE', #240 ) ;
#344 = AXIS2_PLACEMENT_3D ( 'NONE', #385, #476, #605 ) ;
#345 = VERTEX_POINT ( 'NONE', #60 ) ;
#346 = FACE_OUTER_BOUND ( 'NONE', #506, .T. ) ;
#347 = PRODUCT_CONTEXT ( 'NONE', #580, 'mechanical' ) ;
#348 = CARTESIAN_POINT ( 'NONE',  ( -18.30000000000001137, 17.50000000000006040, -9.999999999999982236 ) ) ;
#349 = COLOUR_RGB ( '',1.000000000000000000, 1.000000000000000000, 1.000000000000000000 ) ;
#350 = VECTOR ( 'NONE', #333, 1000.000000000000000 ) ;
#351 = CARTESIAN_POINT ( 'NONE',  ( -30.00000000000000355, 37.50000000000006395, 0.000000000000000000 ) ) ;
#352 = EDGE_CURVE ( 'NONE', #419, #409, #183, .T. ) ;
#353 = EDGE_CURVE ( 'NONE', #11, #291, #21, .T. ) ;
#354 = PLANE ( 'NONE',  #496 ) ;
#355 = VERTEX_POINT ( 'NONE', #340 ) ;
#356 = DIRECTION ( 'NONE',  ( 3.469446951953614682E-16, 1.000000000000000000, -0.000000000000000000 ) ) ;
#357 = PRODUCT ( '\X2\987690e86a2a68818fde63a54ef6\X0\', '\X2\987690e86a2a68818fde63a54ef6\X0\', '', ( #347 ) ) ;
#358 = DIRECTION ( 'NONE',  ( 0.000000000000000000, 0.000000000000000000, -1.000000000000000000 ) ) ;
#359 = CARTESIAN_POINT ( 'NONE',  ( -13.00000000000000178, 27.50000000000006040, -9.999999999999984013 ) ) ;
#360 = CARTESIAN_POINT ( 'NONE',  ( -18.52497931538437115, 27.17053685299169885, -6.999999999999985789 ) ) ;
#361 = ADVANCED_FACE ( 'NONE', ( #95 ), #473, .F. ) ;
#362 = CARTESIAN_POINT ( 'NONE',  ( -21.34572493200716536, 29.75896178784769930, -7.294821112245628569 ) ) ;
#363 = CARTESIAN_POINT ( 'NONE',  ( -10.00000000000000178, 37.50000000000005684, -48.28427124746186649 ) ) ;
#364 = CARTESIAN_POINT ( 'NONE',  ( -20.32866711777976576, 28.96790903641571191, -7.013146872440389146 ) ) ;
#365 = CARTESIAN_POINT ( 'NONE',  ( -15.29578728956180100, 32.20421271043826295, -7.907982056717443697 ) ) ;
#366 = ORIENTED_EDGE ( 'NONE', *, *, #88, .T. ) ;
#367 = CARTESIAN_POINT ( 'NONE',  ( -21.82555233246929660, 30.07815993414014244, -12.38900187962546973 ) ) ;
#368 = FACE_BOUND ( 'NONE', #22, .T. ) ;
#369 = ORIENTED_EDGE ( 'NONE', *, *, #98, .F. ) ;
#370 = LINE ( 'NONE', #3, #65 ) ;
#371 = CIRCLE ( 'NONE', #139, 2.999999999999999112 ) ;
#372 = CARTESIAN_POINT ( 'NONE',  ( -30.00000000000000355, 32.50000000000006395, -48.28427124746186649 ) ) ;
#373 = EDGE_CURVE ( 'NONE', #235, #267, #497, .T. ) ;
#374 = ORIENTED_EDGE ( 'NONE', *, *, #12, .T. ) ;
#375 =( NAMED_UNIT ( * ) PLANE_ANGLE_UNIT ( ) SI_UNIT ( $, .RADIAN. ) );
#376 = CARTESIAN_POINT ( 'NONE',  ( -10.00000000000000178, 17.50000000000006395, -19.99999999999996803 ) ) ;
#377 = ORIENTED_EDGE ( 'NONE', *, *, #553, .F. ) ;
#378 = CARTESIAN_POINT ( 'NONE',  ( -19.58987403359146384, 28.30039982461840609, -12.97357045081911053 ) ) ;
#379 = CARTESIAN_POINT ( 'NONE',  ( -20.00000000000000355, 28.68033988749901653, -6.999999999999981348 ) ) ;
#380 = ORIENTED_EDGE ( 'NONE', *, *, #373, .T. ) ;
#381 = ADVANCED_FACE ( 'NONE', ( #537 ), #89, .F. ) ;
#382 = LINE ( 'NONE', #568, #520 ) ;
#383 =( GEOMETRIC_REPRESENTATION_CONTEXT ( 3 ) GLOBAL_UNCERTAINTY_ASSIGNED_CONTEXT ( ( #143 ) ) GLOBAL_UNIT_ASSIGNED_CONTEXT ( ( #559, #72, #226 ) ) REPRESENTATION_CONTEXT ( 'NONE', 'WORKASPACE' ) );
#384 = ORIENTED_EDGE ( 'NONE', *, *, #400, .T. ) ;
#385 = CARTESIAN_POINT ( 'NONE',  ( -13.00000000000000178, 27.50000000000006040, -9.999999999999984013 ) ) ;
#386 = CARTESIAN_POINT ( 'NONE',  ( -1.514718625761440896, 27.50000000000006040, -9.999999999999984013 ) ) ;
#387 = VERTEX_POINT ( 'NONE', #587 ) ;
#388 = LINE ( 'NONE', #351, #481 ) ;
#389 = ORIENTED_EDGE ( 'NONE', *, *, #244, .T. ) ;
#390 = CIRCLE ( 'NONE', #136, 15.00000000000000000 ) ;
#391 = EDGE_CURVE ( 'NONE', #39, #235, #298, .T. ) ;
#392 = ORIENTED_EDGE ( 'NONE', *, *, #45, .F. ) ;
#393 = CIRCLE ( 'NONE', #250, 1.700000000000000178 ) ;
#394 = B_SPLINE_CURVE_WITH_KNOTS ( 'NONE', 3,
 ( #285, #203, #446, #480, #492, #15 ),
 .UNSPECIFIED., .F., .F.,
 ( 4, 2, 4 ),
 ( 0.02175191662843067170, 0.02216873156573913317, 0.02258554650304759118 ),
 .UNSPECIFIED. ) ;
#395 = DIRECTION ( 'NONE',  ( 0.000000000000000000, -1.000000000000000000, -2.312964634635742957E-16 ) ) ;
#396 = CIRCLE ( 'NONE', #308, 15.00000000000000000 ) ;
#397 = CARTESIAN_POINT ( 'NONE',  ( -30.00000000000000355, 37.50000000000006395, 0.000000000000000000 ) ) ;
#398 = ORIENTED_EDGE ( 'NONE', *, *, #534, .F. ) ;
#399 = APPLICATION_PROTOCOL_DEFINITION ( 'draft international standard', 'automotive_design', 1998, #527 ) ;
#400 = EDGE_CURVE ( 'NONE', #343, #345, #371, .T. ) ;
#401 = CARTESIAN_POINT ( 'NONE',  ( -19.39339828220178674, 28.10660171779827721, -7.061967604677518828 ) ) ;
#402 = CARTESIAN_POINT ( 'NONE',  ( -16.79625380302321602, 24.61786203681151974, -10.86101369681049178 ) ) ;
#403 = ORIENTED_EDGE ( 'NONE', *, *, #326, .F. ) ;
#404 = CARTESIAN_POINT ( 'NONE',  ( -13.00000000000000178, 27.50000000000006040, -8.299999999999984723 ) ) ;
#405 = FACE_OUTER_BOUND ( 'NONE', #427, .T. ) ;
#406 = ORIENTED_EDGE ( 'NONE', *, *, #12, .F. ) ;
#407 = CARTESIAN_POINT ( 'NONE',  ( -22.81258351132774820, 30.66631323607290938, -8.934213394041824685 ) ) ;
#408 = CARTESIAN_POINT ( 'NONE',  ( -30.00000000000000711, 27.50000000000006040, -8.299999999999984723 ) ) ;
#409 = VERTEX_POINT ( 'NONE', #170 ) ;
#410 = LINE ( 'NONE', #414, #442 ) ;
#411 = DIRECTION ( 'NONE',  ( 0.000000000000000000, 0.000000000000000000, 1.000000000000000000 ) ) ;
#412 = EDGE_CURVE ( 'NONE', #202, #355, #591, .T. ) ;
#413 = EDGE_LOOP ( 'NONE', ( #533, #454 ) ) ;
#414 = CARTESIAN_POINT ( 'NONE',  ( -30.00000000000000711, 27.50000000000006040, -11.69999999999998508 ) ) ;
#415 = DIRECTION ( 'NONE',  ( -0.000000000000000000, 0.000000000000000000, -1.000000000000000000 ) ) ;
#416 = EDGE_LOOP ( 'NONE', ( #227, #596, #577, #164 ) ) ;
#417 = CARTESIAN_POINT ( 'NONE',  ( -21.66798359354265457, 29.97463588030737114, -12.50065360585915641 ) ) ;
#418 = LINE ( 'NONE', #551, #292 ) ;
#419 = VERTEX_POINT ( 'NONE', #18 ) ;
#420 = CARTESIAN_POINT ( 'NONE',  ( -21.70000000000000995, 17.50000000000006040, -9.999999999999982236 ) ) ;
#421 = ADVANCED_FACE ( 'NONE', ( #310, #320 ), #66, .F. ) ;
#422 = FACE_OUTER_BOUND ( 'NONE', #97, .T. ) ;
#423 = VECTOR ( 'NONE', #313, 1000.000000000000000 ) ;
#424 = ORIENTED_EDGE ( 'NONE', *, *, #326, .T. ) ;
#425 = AXIS2_PLACEMENT_3D ( 'NONE', #386, #158, #92 ) ;
#426 = CARTESIAN_POINT ( 'NONE',  ( -10.00000000000000178, 37.50000000000005684, 0.000000000000000000 ) ) ;
#427 = EDGE_LOOP ( 'NONE', ( #252, #122, #151, #613 ) ) ;
#428 = CARTESIAN_POINT ( 'NONE',  ( -18.91230316077249185, 27.60357807678892428, -12.99999999999998579 ) ) ;
#429 = EDGE_CURVE ( 'NONE', #491, #73, #152, .T. ) ;
#430 = ORIENTED_EDGE ( 'NONE', *, *, #412, .T. ) ;
#431 = CARTESIAN_POINT ( 'NONE',  ( -20.00000000000000355, 34.50000000000005684, -6.999999999999981348 ) ) ;
#432 = DIRECTION ( 'NONE',  ( -1.000000000000000000, 0.000000000000000000, 0.000000000000000000 ) ) ;
#433 = CARTESIAN_POINT ( 'NONE',  ( -19.39339828220178674, 28.10660171779827721, -12.93803239532244653 ) ) ;
#434 = STYLED_ITEM ( 'NONE', ( #508 ), #229 ) ;
#435 = CARTESIAN_POINT ( 'NONE',  ( -19.00644089886920085, 27.70593110002550574, -12.99464950412439634 ) ) ;
#436 = CIRCLE ( 'NONE', #462, 1.700000000000000178 ) ;
#437 = EDGE_LOOP ( 'NONE', ( #525, #323, #512, #33, #108, #562 ) ) ;
#438 = CARTESIAN_POINT ( 'NONE',  ( -19.89642192321113967, 28.58769683922757565, -6.999999999999982236 ) ) ;
#439 = CARTESIAN_POINT ( 'NONE',  ( -18.81966011250104387, 27.50000000000006040, -12.99999999999998579 ) ) ;
#440 = VERTEX_POINT ( 'NONE', #404 ) ;
#441 = EDGE_LOOP ( 'NONE', ( #601, #389, #403, #10 ) ) ;
#442 = VECTOR ( 'NONE', #255, 1000.000000000000000 ) ;
#443 = FACE_OUTER_BOUND ( 'NONE', #8, .T. ) ;
#444 = EDGE_CURVE ( 'NONE', #608, #467, #410, .T. ) ;
#445 = ORIENTED_EDGE ( 'NONE', *, *, #248, .T. ) ;
#446 = CARTESIAN_POINT ( 'NONE',  ( -19.19960017538165786, 27.91012596640860721, -7.026429549180861933 ) ) ;
#447 = CARTESIAN_POINT ( 'NONE',  ( -18.81966011250104387, 27.50000000000006040, -6.999999999999984901 ) ) ;
#448 = CARTESIAN_POINT ( 'NONE',  ( -20.00000000000000355, 28.68033988749901653, -6.999999999999981348 ) ) ;
#449 = CARTESIAN_POINT ( 'NONE',  ( -20.00000000000000355, 45.98528137423861750, -9.999999999999982236 ) ) ;
#450 = AXIS2_PLACEMENT_3D ( 'NONE', #466, #217, #511 ) ;
#451 = CARTESIAN_POINT ( 'NONE',  ( -22.13039078808217397, 30.27107671292001356, -7.878469596363467886 ) ) ;
#452 = B_SPLINE_CURVE_WITH_KNOTS ( 'NONE', 3,
 ( #447, #360, #110, #456, #256, #116, #163, #592, #61, #453, #254, #27, #64, #58, #542, #502, #16, #402, #204, #24, #548, #498, #67, #211, #493, #251, #154, #584, #207, #201 ),
 .UNSPECIFIED., .F., .F.,
 ( 4, 2, 2, 2, 2, 2, 2, 2, 2, 2, 2, 2, 2, 2, 4 ),
 ( 0.000000000000000000, 0.001308242707315681761, 0.001962364060973526871, 0.002616485414631371763, 0.003270606768289218390, 0.003924728121947065017, 0.004578849475604911644, 0.005232970829262758271, 0.005887092182920604898, 0.006541213536578451525, 0.007195334890236299019, 0.007849456243894145646, 0.009157698951209833696, 0.009811820304867680323, 0.01046594165852552868 ),
 .UNSPECIFIED. ) ;
#453 = CARTESIAN_POINT ( 'NONE',  ( -17.00084192500479219, 24.98616375671484846, -8.349908063762221389 ) ) ;
#454 = ORIENTED_EDGE ( 'NONE', *, *, #546, .F. ) ;
#455 = DIRECTION ( 'NONE',  ( 1.000000000000000000, 0.000000000000000000, -0.000000000000000000 ) ) ;
#456 = CARTESIAN_POINT ( 'NONE',  ( -17.87068196630835715, 26.32747630041597731, -7.232797741018592852 ) ) ;
#457 = VECTOR ( 'NONE', #341, 1000.000000000000000 ) ;
#458 = CARTESIAN_POINT ( 'NONE',  ( -20.66635043055741505, 29.24438602486581473, -7.069933314134598135 ) ) ;
#459 = CARTESIAN_POINT ( 'NONE',  ( -30.00000000000000355, 37.50000000000006395, -48.28427124746186649 ) ) ;
#460 = ORIENTED_EDGE ( 'NONE', *, *, #391, .T. ) ;
#461 = CARTESIAN_POINT ( 'NONE',  ( -22.97406901349519970, 30.75289702293156680, -10.44998788658359068 ) ) ;
#462 = AXIS2_PLACEMENT_3D ( 'NONE', #190, #36, #288 ) ;
#463 = ORIENTED_EDGE ( 'NONE', *, *, #529, .T. ) ;
#464 = ADVANCED_FACE ( 'NONE', ( #316, #63 ), #594, .F. ) ;
#465 = CARTESIAN_POINT ( 'NONE',  ( -10.00000000000000178, 17.50000000000006395, -48.28427124746186649 ) ) ;
#466 = CARTESIAN_POINT ( 'NONE',  ( -10.00000000000000178, 27.50000000000006040, -9.999999999999984013 ) ) ;
#467 = VERTEX_POINT ( 'NONE', #599 ) ;
#468 = DIRECTION ( 'NONE',  ( 3.469446951953614682E-16, 1.000000000000000000, 0.000000000000000000 ) ) ;
#469 = DIRECTION ( 'NONE',  ( 0.000000000000000000, 0.000000000000000000, 1.000000000000000000 ) ) ;
#470 = EDGE_LOOP ( 'NONE', ( #406, #283, #237, #126 ) ) ;
#471 = CARTESIAN_POINT ( 'NONE',  ( -30.00000000000000711, 32.50000000000006395, -19.99999999999996803 ) ) ;
#472 = ORIENTED_EDGE ( 'NONE', *, *, #529, .F. ) ;
#473 = CYLINDRICAL_SURFACE ( 'NONE', #549, 3.000000000000000000 ) ;
#474 = DIRECTION ( 'NONE',  ( -3.469446951953614682E-16, -1.000000000000000000, 0.000000000000000000 ) ) ;
#475 = AXIS2_PLACEMENT_3D ( 'NONE', #294, #49, #192 ) ;
#476 = DIRECTION ( 'NONE',  ( -1.000000000000000000, -0.000000000000000000, 0.000000000000000000 ) ) ;
#477 = LINE ( 'NONE', #301, #189 ) ;
#478 = ORIENTED_EDGE ( 'NONE', *, *, #98, .T. ) ;
#479 = AXIS2_PLACEMENT_3D ( 'NONE', #449, #589, #358 ) ;
#480 = CARTESIAN_POINT ( 'NONE',  ( -19.00835115329119418, 27.70798778598189926, -7.005494094981669306 ) ) ;
#481 = VECTOR ( 'NONE', #109, 1000.000000000000000 ) ;
#482 = PLANE ( 'NONE',  #305 ) ;
#483 = ADVANCED_FACE ( 'NONE', ( #507 ), #112, .F. ) ;
#484 = DIRECTION ( 'NONE',  ( 0.000000000000000000, 0.000000000000000000, -1.000000000000000000 ) ) ;
#485 = DIRECTION ( 'NONE',  ( -2.621359919253849775E-17, -1.172416807168114790E-16, 1.000000000000000000 ) ) ;
#486 = EDGE_CURVE ( 'NONE', #608, #440, #6, .T. ) ;
#487 = CARTESIAN_POINT ( 'NONE',  ( -15.00000000000000178, 17.50000000000006395, 0.000000000000000000 ) ) ;
#488 = AXIS2_PLACEMENT_3D ( 'NONE', #47, #87, #523 ) ;
#489 = CARTESIAN_POINT ( 'NONE',  ( -21.70000000000000284, 37.50000000000005684, -9.999999999999982236 ) ) ;
#490 = DIRECTION ( 'NONE',  ( -1.000000000000000000, 0.000000000000000000, 0.000000000000000000 ) ) ;
#491 = VERTEX_POINT ( 'NONE', #276 ) ;
#492 = CARTESIAN_POINT ( 'NONE',  ( -18.91354739907971449, 27.60496917750651136, -6.999999999999984901 ) ) ;
#493 = CARTESIAN_POINT ( 'NONE',  ( -17.74103821215236110, 26.15427506799289503, -12.70517888775433413 ) ) ;
#494 = EDGE_LOOP ( 'NONE', ( #517, #392, #569, #472, #247, #325 ) ) ;
#495 = CARTESIAN_POINT ( 'NONE',  ( -22.51383624328521549, 30.49915807499526466, -11.65009193623774664 ) ) ;
#496 = AXIS2_PLACEMENT_3D ( 'NONE', #535, #103, #300 ) ;
#497 = B_SPLINE_CURVE_WITH_KNOTS ( 'NONE', 3,
 ( #379, #438, #565, #521, #194, #149 ),
 .UNSPECIFIED., .F., .F.,
 ( 4, 2, 4 ),
 ( 0.01046594165852552695, 0.01088206170034192698, 0.01129818174215832700 ),
 .UNSPECIFIED. ) ;
#498 = CARTESIAN_POINT ( 'NONE',  ( -17.14328768010266302, 25.22825103442874450, -11.97030431995687216 ) ) ;
#499 = VECTOR ( 'NONE', #187, 1000.000000000000000 ) ;
#500 = EDGE_CURVE ( 'NONE', #81, #278, #393, .T. ) ;
#501 = CARTESIAN_POINT ( 'NONE',  ( -20.00000000000001066, 17.50000000000006040, -9.999999999999982236 ) ) ;
#502 = CARTESIAN_POINT ( 'NONE',  ( -16.73319660778295770, 24.49942341863140172, -10.21116856252949745 ) ) ;
#503 = ORIENTED_EDGE ( 'NONE', *, *, #88, .F. ) ;
#504 = CARTESIAN_POINT ( 'NONE',  ( -23.00057658136865513, 30.76680339221710625, -9.788831437470467023 ) ) ;
#505 = SURFACE_STYLE_USAGE ( .BOTH. , #80 ) ;
#506 = EDGE_LOOP ( 'NONE', ( #132, #212, #604, #46, #424 ) ) ;
#507 = FACE_OUTER_BOUND ( 'NONE', #77, .T. ) ;
#508 = PRESENTATION_STYLE_ASSIGNMENT (( #505 ) ) ;
#509 = ORIENTED_EDGE ( 'NONE', *, *, #598, .T. ) ;
#510 = DIRECTION ( 'NONE',  ( -3.469446951953614682E-16, -1.000000000000000000, 0.000000000000000000 ) ) ;
#511 = DIRECTION ( 'NONE',  ( 0.000000000000000000, 0.000000000000000000, -1.000000000000000000 ) ) ;
#512 = ORIENTED_EDGE ( 'NONE', *, *, #336, .T. ) ;
#513 = CARTESIAN_POINT ( 'NONE',  ( -13.00000000000000178, 27.50000000000006040, -11.69999999999998508 ) ) ;
#514 = CARTESIAN_POINT ( 'NONE',  ( -20.00000000000000355, 28.68033988749901653, -6.999999999999981348 ) ) ;
#515 = ORIENTED_EDGE ( 'NONE', *, *, #4, .F. ) ;
#516 = LINE ( 'NONE', #420, #321 ) ;
#517 = ORIENTED_EDGE ( 'NONE', *, *, #167, .F. ) ;
#518 = CARTESIAN_POINT ( 'NONE',  ( -10.00000000000000178, 37.50000000000005684, -19.99999999999996447 ) ) ;
#519 = ADVANCED_FACE ( 'NONE', ( #324 ), #79, .T. ) ;
#520 = VECTOR ( 'NONE', #337, 1000.000000000000000 ) ;
#521 = CARTESIAN_POINT ( 'NONE',  ( -19.59183117718784217, 28.30228647483320970, -7.026158800037482166 ) ) ;
#522 = CARTESIAN_POINT ( 'NONE',  ( -20.00000000000000355, 34.50000000000005684, -9.999999999999982236 ) ) ;
#523 = DIRECTION ( 'NONE',  ( 0.000000000000000000, 0.000000000000000000, -1.000000000000000000 ) ) ;
#524 = CYLINDRICAL_SURFACE ( 'NONE', #425, 3.000000000000000000 ) ;
#525 = ORIENTED_EDGE ( 'NONE', *, *, #299, .F. ) ;
#526 = PRODUCT_DEFINITION_CONTEXT ( 'detailed design', #527, 'design' ) ;
#527 = APPLICATION_CONTEXT ( 'automotive_design' ) ;
#528 = CARTESIAN_POINT ( 'NONE',  ( -19.39339828220178674, 28.10660171779827721, -12.93803239532244653 ) ) ;
#529 = EDGE_CURVE ( 'NONE', #291, #39, #93, .T. ) ;
#530 = FACE_BOUND ( 'NONE', #138, .T. ) ;
#531 = AXIS2_PLACEMENT_3D ( 'NONE', #44, #1, #342 ) ;
#532 = ORIENTED_EDGE ( 'NONE', *, *, #571, .T. ) ;
#533 = ORIENTED_EDGE ( 'NONE', *, *, #486, .F. ) ;
#534 = EDGE_CURVE ( 'NONE', #73, #491, #436, .T. ) ;
#535 = CARTESIAN_POINT ( 'NONE',  ( 0.000000000000000000, 0.000000000000000000, 0.000000000000000000 ) ) ;
#536 = SHAPE_DEFINITION_REPRESENTATION ( #99, #200 ) ;
#537 = FACE_OUTER_BOUND ( 'NONE', #557, .T. ) ;
#538 = CIRCLE ( 'NONE', #5, 2.999999999999999112 ) ;
#539 = CARTESIAN_POINT ( 'NONE',  ( -20.00000000000001066, 17.50000000000006040, -9.999999999999982236 ) ) ;
#540 = AXIS2_PLACEMENT_3D ( 'NONE', #118, #510, #216 ) ;
#541 = DIRECTION ( 'NONE',  ( -1.000000000000000000, -0.000000000000000000, -0.000000000000000000 ) ) ;
#542 = CARTESIAN_POINT ( 'NONE',  ( -16.73381643379559947, 24.50059811936063170, -9.772754888115455785 ) ) ;
#543 = EDGE_LOOP ( 'NONE', ( #35, #478, #319, #205 ) ) ;
#544 = DIRECTION ( 'NONE',  ( -1.000000000000000000, 3.469446951953614682E-16, 0.000000000000000000 ) ) ;
#545 = CARTESIAN_POINT ( 'NONE',  ( -18.30000000000000426, 34.50000000000005684, -9.999999999999982236 ) ) ;
#546 = EDGE_CURVE ( 'NONE', #440, #608, #260, .T. ) ;
#547 = DIRECTION ( 'NONE',  ( 3.469446951953614189E-16, 1.000000000000000000, -0.000000000000000000 ) ) ;
#548 = CARTESIAN_POINT ( 'NONE',  ( -16.99666751926910990, 24.97892105342194213, -11.63923867113231658 ) ) ;
#549 = AXIS2_PLACEMENT_3D ( 'NONE', #614, #245, #236 ) ;
#550 = CARTESIAN_POINT ( 'NONE',  ( -22.62486557942203902, 30.56209400169300849, -11.46844102824882050 ) ) ;
#551 = CARTESIAN_POINT ( 'NONE',  ( -20.00000000000000355, 45.98528137423861750, -6.999999999999982236 ) ) ;
#552 = DIRECTION ( 'NONE',  ( -1.000000000000000000, 0.000000000000000000, 0.000000000000000000 ) ) ;
#553 = EDGE_CURVE ( 'NONE', #278, #81, #233, .T. ) ;
#554 = FILL_AREA_STYLE ('',( #169 ) ) ;
#555 = ORIENTED_EDGE ( 'NONE', *, *, #534, .T. ) ;
#556 = CARTESIAN_POINT ( 'NONE',  ( -22.88213796318854065, 30.70374619697684437, -9.138986303189472693 ) ) ;
#557 = EDGE_LOOP ( 'NONE', ( #181, #208, #232, #275 ) ) ;
#558 = DIRECTION ( 'NONE',  ( 1.000000000000000000, -0.000000000000000000, -0.000000000000000000 ) ) ;
#559 =( LENGTH_UNIT ( ) NAMED_UNIT ( * ) SI_UNIT ( .MILLI., .METRE. ) );
#560 = ORIENTED_EDGE ( 'NONE', *, *, #444, .T. ) ;
#561 = LINE ( 'NONE', #372, #159 ) ;
#562 = ORIENTED_EDGE ( 'NONE', *, *, #353, .F. ) ;
#563 = EDGE_CURVE ( 'NONE', #202, #387, #370, .T. ) ;
#564 = DIRECTION ( 'NONE',  ( -1.000000000000000000, 0.000000000000000000, 0.000000000000000000 ) ) ;
#565 = CARTESIAN_POINT ( 'NONE',  ( -19.79406889997455821, 28.49355910113085955, -7.005350495875569905 ) ) ;
#566 = ORIENTED_EDGE ( 'NONE', *, *, #352, .T. ) ;
#567 = CARTESIAN_POINT ( 'NONE',  ( -20.00000000000000355, 28.68033988749901653, -12.99999999999998401 ) ) ;
#568 = CARTESIAN_POINT ( 'NONE',  ( -10.00000000000000178, 17.50000000000006395, 0.000000000000000000 ) ) ;
#569 = ORIENTED_EDGE ( 'NONE', *, *, #281, .T. ) ;
#570 = CARTESIAN_POINT ( 'NONE',  ( -10.00000000000000178, 37.50000000000005684, 0.000000000000000000 ) ) ;
#571 = EDGE_CURVE ( 'NONE', #409, #202, #82, .T. ) ;
#572 = CARTESIAN_POINT ( 'NONE',  ( -18.81966011250104387, 27.50000000000006040, -12.99999999999998579 ) ) ;
#573 = ORIENTED_EDGE ( 'NONE', *, *, #78, .F. ) ;
#574 = DIRECTION ( 'NONE',  ( -1.222436467041039548E-18, 1.000000000000000000, 1.172416807168114790E-16 ) ) ;
#575 = CYLINDRICAL_SURFACE ( 'NONE', #239, 15.00000000000000000 ) ;
#576 = AXIS2_PLACEMENT_3D ( 'NONE', #230, #131, #415 ) ;
#577 = ORIENTED_EDGE ( 'NONE', *, *, #54, .F. ) ;
#578 = FACE_BOUND ( 'NONE', #117, .T. ) ;
#579 = CARTESIAN_POINT ( 'NONE',  ( 0.000000000000000000, 0.000000000000000000, 0.000000000000000000 ) ) ;
#580 = APPLICATION_CONTEXT ( 'automotive_design' ) ;
#581 = CARTESIAN_POINT ( 'NONE',  ( -15.00000000000000178, 17.50000000000006395, -48.28427124746186649 ) ) ;
#582 = FACE_OUTER_BOUND ( 'NONE', #416, .T. ) ;
#583 = MECHANICAL_DESIGN_GEOMETRIC_PRESENTATION_REPRESENTATION (  '', ( #434 ), #383 ) ;
#584 = CARTESIAN_POINT ( 'NONE',  ( -18.53209096358435559, 27.17133288222029108, -12.98685312755958066 ) ) ;
#585 = AXIS2_PLACEMENT_3D ( 'NONE', #168, #356, #544 ) ;
#586 = VERTEX_POINT ( 'NONE', #616 ) ;
#587 = CARTESIAN_POINT ( 'NONE',  ( -15.00000000000000178, 17.50000000000006395, -19.99999999999996803 ) ) ;
#588 = EDGE_CURVE ( 'NONE', #355, #218, #40, .T. ) ;
#589 = DIRECTION ( 'NONE',  ( -0.000000000000000000, -1.000000000000000000, -0.000000000000000000 ) ) ;
#590 = ORIENTED_EDGE ( 'NONE', *, *, #486, .T. ) ;
#591 = LINE ( 'NONE', #173, #179 ) ;
#592 = CARTESIAN_POINT ( 'NONE',  ( -17.23134938890186163, 25.37358009864059483, -7.874368399148014674 ) ) ;
#593 = ORIENTED_EDGE ( 'NONE', *, *, #553, .T. ) ;
#594 = PLANE ( 'NONE',  #585 ) ;
#595 = DIRECTION ( 'NONE',  ( 0.000000000000000000, 0.000000000000000000, -1.000000000000000000 ) ) ;
#596 = ORIENTED_EDGE ( 'NONE', *, *, #299, .T. ) ;
#597 = PRODUCT_DEFINITION_FORMATION_WITH_SPECIFIED_SOURCE ( '浠', '', #357, .NOT_KNOWN. ) ;
#598 = EDGE_CURVE ( 'NONE', #491, #278, #516, .T. ) ;
#599 = CARTESIAN_POINT ( 'NONE',  ( -10.00000000000000178, 27.50000000000006040, -11.69999999999998508 ) ) ;
#600 = FACE_OUTER_BOUND ( 'NONE', #129, .T. ) ;
#601 = ORIENTED_EDGE ( 'NONE', *, *, #352, .F. ) ;
#602 = DIRECTION ( 'NONE',  ( 0.000000000000000000, 0.000000000000000000, -1.000000000000000000 ) ) ;
#603 = CARTESIAN_POINT ( 'NONE',  ( -18.81966011250104387, 27.50000000000006040, -6.999999999999984901 ) ) ;
#604 = ORIENTED_EDGE ( 'NONE', *, *, #306, .T. ) ;
#605 = DIRECTION ( 'NONE',  ( 0.000000000000000000, 0.000000000000000000, -1.000000000000000000 ) ) ;
#606 = VECTOR ( 'NONE', #56, 1000.000000000000000 ) ;
#607 = CARTESIAN_POINT ( 'NONE',  ( -19.39339828220178674, 28.10660171779827721, -12.93803239532244653 ) ) ;
#608 = VERTEX_POINT ( 'NONE', #513 ) ;
#609 =( NAMED_UNIT ( * ) SI_UNIT ( $, .STERADIAN. ) SOLID_ANGLE_UNIT ( ) );
#610 = CIRCLE ( 'NONE', #450, 1.700000000000000178 ) ;
#611 = DIRECTION ( 'NONE',  ( -0.000000000000000000, -1.000000000000000000, -0.000000000000000000 ) ) ;
#612 = EDGE_CURVE ( 'NONE', #287, #586, #50, .T. ) ;
#613 = ORIENTED_EDGE ( 'NONE', *, *, #281, .F. ) ;
#614 = CARTESIAN_POINT ( 'NONE',  ( -1.514718625761440896, 27.50000000000006040, -9.999999999999984013 ) ) ;
#615 = ORIENTED_EDGE ( 'NONE', *, *, #37, .T. ) ;
#616 = CARTESIAN_POINT ( 'NONE',  ( -20.00000000000000355, 34.50000000000005684, -12.99999999999998401 ) ) ;
ENDSEC;
END-ISO-10303-21;
