G04*
G04 #@! TF.GenerationSoftware,Altium Limited,Altium Designer,24.0.1 (36)*
G04*
G04 Layer_Color=65535*
%FSLAX44Y44*%
%MOMM*%
G71*
G04*
G04 #@! TF.SameCoordinates,133CE3EA-F9F0-4B72-99F4-21709E576B51*
G04*
G04*
G04 #@! TF.FilePolarity,Positive*
G04*
G01*
G75*
%ADD10C,0.4000*%
%ADD11C,0.2000*%
%ADD12C,0.2540*%
%ADD13C,0.2032*%
%ADD14C,0.5080*%
G36*
X932656Y1627577D02*
X936563D01*
Y1627276D01*
X939869D01*
Y1626976D01*
X943175D01*
Y1626675D01*
X946180D01*
Y1626375D01*
X949185D01*
Y1626074D01*
X952191D01*
Y1625774D01*
X955196D01*
Y1625473D01*
X957901D01*
Y1625172D01*
X960605D01*
Y1624872D01*
X963310D01*
Y1624571D01*
X966015D01*
Y1624271D01*
X968419D01*
Y1623970D01*
X970824D01*
Y1623670D01*
X972627D01*
Y1623369D01*
X974730D01*
Y1623069D01*
X976534D01*
Y1622768D01*
X978036D01*
Y1622468D01*
X979238D01*
Y1622167D01*
X980441D01*
Y1621867D01*
X981342D01*
Y1621566D01*
X982244D01*
Y1621266D01*
X983145D01*
Y1620965D01*
X983746D01*
Y1620665D01*
X984648D01*
Y1620364D01*
X985549D01*
Y1620063D01*
X986151D01*
Y1619763D01*
X987052D01*
Y1619462D01*
X987653D01*
Y1619162D01*
X988254D01*
Y1618861D01*
X988855D01*
Y1618561D01*
X989456D01*
Y1618260D01*
X990058D01*
Y1617960D01*
X990658D01*
Y1617659D01*
X991260D01*
Y1617359D01*
X991861D01*
Y1617058D01*
X992462D01*
Y1616758D01*
X992762D01*
Y1616457D01*
X993363D01*
Y1616157D01*
X993664D01*
Y1615856D01*
X994265D01*
Y1615556D01*
X994866D01*
Y1615255D01*
X995166D01*
Y1614955D01*
X995768D01*
Y1614654D01*
X996068D01*
Y1614353D01*
X996669D01*
Y1614053D01*
X996970D01*
Y1613752D01*
X997571D01*
Y1613452D01*
X997871D01*
Y1613151D01*
X998172D01*
Y1612851D01*
X998773D01*
Y1612550D01*
X999073D01*
Y1612250D01*
X999374D01*
Y1611949D01*
X999675D01*
Y1611649D01*
X1000275D01*
Y1611348D01*
X1000576D01*
Y1611048D01*
X1000877D01*
Y1610747D01*
X1001177D01*
Y1610446D01*
X1001478D01*
Y1610146D01*
X1002079D01*
Y1609845D01*
X1002379D01*
Y1609545D01*
X1002680D01*
Y1609244D01*
X1002980D01*
Y1608944D01*
X1003281D01*
Y1608643D01*
X1003581D01*
Y1608343D01*
X1003882D01*
Y1608042D01*
X1004182D01*
Y1607742D01*
X1004483D01*
Y1607441D01*
X1004783D01*
Y1607141D01*
X1005084D01*
Y1606840D01*
X1005385D01*
Y1606540D01*
X1005685D01*
Y1606239D01*
X1005986D01*
Y1605939D01*
X1006286D01*
Y1605638D01*
X1006587D01*
Y1605338D01*
X1006887D01*
Y1605037D01*
X1007188D01*
Y1604736D01*
X1007488D01*
Y1604436D01*
Y1604135D01*
X1007789D01*
Y1603835D01*
X1008089D01*
Y1603534D01*
X1008390D01*
Y1603234D01*
X1008690D01*
Y1602933D01*
X1008991D01*
Y1602633D01*
Y1602332D01*
X1009291D01*
Y1602032D01*
X1009592D01*
Y1601731D01*
X1009893D01*
Y1601431D01*
Y1601130D01*
X1010193D01*
Y1600829D01*
X1010493D01*
Y1600529D01*
X1010794D01*
Y1600228D01*
Y1599928D01*
X1011095D01*
Y1599627D01*
X1011395D01*
Y1599327D01*
Y1599026D01*
X1011696D01*
Y1598726D01*
Y1598425D01*
X1011996D01*
Y1598125D01*
X1012297D01*
Y1597824D01*
Y1597524D01*
X1012597D01*
Y1597223D01*
X1012898D01*
Y1596923D01*
Y1596622D01*
X1013198D01*
Y1596322D01*
X1013499D01*
Y1596021D01*
Y1595721D01*
X1013799D01*
Y1595420D01*
Y1595119D01*
X1014100D01*
Y1594819D01*
Y1594518D01*
X1014400D01*
Y1594218D01*
X1014701D01*
Y1593917D01*
Y1593617D01*
X1015002D01*
Y1593316D01*
Y1593016D01*
X1015302D01*
Y1592715D01*
Y1592415D01*
X1015603D01*
Y1592114D01*
Y1591814D01*
X1015903D01*
Y1591513D01*
Y1591213D01*
X1016204D01*
Y1590912D01*
Y1590612D01*
Y1590311D01*
X1016504D01*
Y1590010D01*
Y1589710D01*
X1016805D01*
Y1589409D01*
Y1589109D01*
Y1588808D01*
X1017105D01*
Y1588508D01*
Y1588207D01*
X1017406D01*
Y1587907D01*
Y1587606D01*
Y1587306D01*
X1017706D01*
Y1587005D01*
Y1586705D01*
X1018007D01*
Y1586404D01*
Y1586104D01*
Y1585803D01*
X1018307D01*
Y1585502D01*
Y1585202D01*
Y1584901D01*
X1018608D01*
Y1584601D01*
Y1584300D01*
Y1584000D01*
X1018908D01*
Y1583699D01*
Y1583399D01*
Y1583098D01*
X1019209D01*
Y1582798D01*
Y1582497D01*
Y1582197D01*
Y1581896D01*
X1019510D01*
Y1581596D01*
Y1581295D01*
Y1580995D01*
Y1580694D01*
X1019810D01*
Y1580394D01*
Y1580093D01*
Y1579792D01*
Y1579492D01*
Y1579191D01*
X1020110D01*
Y1578891D01*
Y1578590D01*
Y1578290D01*
Y1577989D01*
X1020411D01*
Y1577689D01*
Y1577388D01*
Y1577088D01*
Y1576787D01*
Y1576487D01*
Y1576186D01*
X1020712D01*
Y1575885D01*
Y1575585D01*
Y1575284D01*
Y1574984D01*
Y1574683D01*
Y1574383D01*
Y1574082D01*
Y1573782D01*
X1021012D01*
Y1573481D01*
Y1573181D01*
Y1572880D01*
Y1572580D01*
Y1572279D01*
Y1571979D01*
Y1571678D01*
Y1571378D01*
Y1571077D01*
Y1570777D01*
Y1570476D01*
Y1570175D01*
Y1569875D01*
Y1569574D01*
Y1569274D01*
X1021313D01*
Y1568973D01*
Y1568673D01*
Y1568372D01*
Y1568072D01*
Y1567771D01*
Y1567471D01*
Y1567170D01*
Y1566870D01*
Y1566569D01*
Y1566268D01*
Y1565968D01*
X1021012D01*
Y1565668D01*
Y1565367D01*
Y1565066D01*
Y1564766D01*
Y1564465D01*
Y1564165D01*
Y1563864D01*
Y1563564D01*
Y1563263D01*
Y1562963D01*
Y1562662D01*
Y1562362D01*
Y1562061D01*
Y1561761D01*
Y1561460D01*
X1020712D01*
Y1561160D01*
Y1560859D01*
Y1560558D01*
Y1560258D01*
Y1559957D01*
Y1559657D01*
Y1559356D01*
X1020411D01*
Y1559056D01*
Y1558755D01*
Y1558455D01*
Y1558154D01*
Y1557854D01*
Y1557553D01*
X1020110D01*
Y1557253D01*
Y1556952D01*
Y1556652D01*
Y1556351D01*
Y1556051D01*
Y1555750D01*
X1019810D01*
Y1555450D01*
Y1555149D01*
Y1554848D01*
Y1554548D01*
X1019510D01*
Y1554247D01*
Y1553947D01*
Y1553646D01*
Y1553346D01*
X1019209D01*
Y1553045D01*
Y1552745D01*
Y1552444D01*
X1018908D01*
Y1552144D01*
Y1551843D01*
Y1551543D01*
Y1551242D01*
X1018608D01*
Y1550941D01*
Y1550641D01*
Y1550341D01*
X1018307D01*
Y1550040D01*
Y1549739D01*
Y1549439D01*
X1018007D01*
Y1549138D01*
Y1548838D01*
Y1548537D01*
X1017706D01*
Y1548237D01*
Y1547936D01*
Y1547636D01*
X1017406D01*
Y1547335D01*
Y1547035D01*
X1017105D01*
Y1546734D01*
Y1546434D01*
Y1546133D01*
X1016805D01*
Y1545833D01*
Y1545532D01*
X1016504D01*
Y1545231D01*
Y1544931D01*
Y1544630D01*
X1016204D01*
Y1544330D01*
X1015903D01*
Y1544029D01*
Y1543729D01*
Y1543428D01*
X1015603D01*
Y1543128D01*
Y1542827D01*
X1015302D01*
Y1542527D01*
Y1542226D01*
X1015002D01*
Y1541926D01*
Y1541625D01*
Y1541325D01*
X1014701D01*
Y1541625D01*
X1014400D01*
Y1541325D01*
X1014701D01*
Y1541024D01*
X1014400D01*
Y1540724D01*
X1014100D01*
Y1540423D01*
Y1540122D01*
Y1539822D01*
X1013799D01*
Y1539521D01*
X1013499D01*
Y1539221D01*
Y1538920D01*
Y1538620D01*
X1013198D01*
Y1538319D01*
X1012898D01*
Y1538019D01*
Y1537718D01*
X1012597D01*
Y1537418D01*
X1012297D01*
Y1537718D01*
X1011996D01*
Y1537418D01*
X1012297D01*
Y1537117D01*
Y1536817D01*
X1011996D01*
Y1536516D01*
X1011696D01*
Y1536216D01*
Y1535915D01*
X1011395D01*
Y1535614D01*
X1011095D01*
Y1535314D01*
Y1535013D01*
X1010794D01*
Y1534713D01*
X1010493D01*
Y1535013D01*
X1010193D01*
Y1534713D01*
X1010493D01*
Y1534412D01*
Y1534112D01*
X1010193D01*
Y1533811D01*
X1009893D01*
Y1533511D01*
Y1533210D01*
X1009592D01*
Y1532910D01*
X1009291D01*
Y1532609D01*
X1008991D01*
Y1532309D01*
X1008690D01*
Y1532008D01*
Y1531708D01*
X1008390D01*
Y1531407D01*
X1008089D01*
Y1531107D01*
Y1530806D01*
X1007789D01*
Y1530505D01*
X1007488D01*
Y1530205D01*
X1007188D01*
Y1530505D01*
X1006887D01*
Y1530806D01*
Y1531107D01*
X1007188D01*
Y1530806D01*
X1007488D01*
Y1531107D01*
X1007188D01*
Y1531407D01*
Y1531708D01*
X1006587D01*
Y1531407D01*
Y1531107D01*
Y1530806D01*
Y1530505D01*
X1006887D01*
Y1530205D01*
X1007188D01*
Y1529904D01*
X1006887D01*
Y1529604D01*
X1006286D01*
Y1529303D01*
Y1529003D01*
Y1528702D01*
X1005986D01*
Y1529003D01*
X1005685D01*
Y1528702D01*
X1005986D01*
Y1528402D01*
X1005685D01*
Y1528101D01*
X1005385D01*
Y1527801D01*
X1004783D01*
Y1527500D01*
X1004483D01*
Y1527200D01*
Y1526899D01*
X1003882D01*
Y1526599D01*
Y1526298D01*
X1003581D01*
Y1525997D01*
X1003281D01*
Y1526298D01*
X1002680D01*
Y1526599D01*
Y1526899D01*
X1002379D01*
Y1526599D01*
Y1526298D01*
X1002680D01*
Y1525997D01*
X1003281D01*
Y1525697D01*
X1002680D01*
Y1525997D01*
X1002379D01*
Y1526298D01*
X1002079D01*
Y1525997D01*
X1002379D01*
Y1525697D01*
X1002680D01*
Y1525396D01*
Y1525096D01*
X1002079D01*
Y1524795D01*
Y1524495D01*
X1001478D01*
Y1524194D01*
X1001177D01*
Y1523894D01*
X1000877D01*
Y1523593D01*
X1000576D01*
Y1523293D01*
X1000275D01*
Y1522992D01*
X999675D01*
Y1522692D01*
X999073D01*
Y1522391D01*
X998773D01*
Y1522091D01*
X998472D01*
Y1522391D01*
Y1522692D01*
X998773D01*
Y1522992D01*
X998472D01*
Y1523293D01*
X998172D01*
Y1523593D01*
X997571D01*
Y1523894D01*
X997270D01*
Y1523593D01*
X997571D01*
Y1523293D01*
X997871D01*
Y1522992D01*
X998172D01*
Y1522692D01*
Y1522391D01*
X997871D01*
Y1522091D01*
X998472D01*
Y1521790D01*
X998172D01*
Y1521490D01*
X997871D01*
Y1521189D01*
X997571D01*
Y1521490D01*
Y1521790D01*
X997871D01*
Y1522091D01*
X997270D01*
Y1522391D01*
X997571D01*
Y1522692D01*
X997270D01*
Y1522992D01*
Y1523293D01*
Y1523593D01*
X992462D01*
Y1523894D01*
X937164D01*
Y1523593D01*
X934760D01*
Y1523894D01*
Y1524194D01*
Y1524495D01*
X934159D01*
Y1524194D01*
Y1523894D01*
X933858D01*
Y1523593D01*
X933257D01*
Y1523894D01*
X932957D01*
Y1524194D01*
Y1524495D01*
X932356D01*
Y1524194D01*
Y1523894D01*
X929651D01*
Y1524194D01*
X929350D01*
Y1524495D01*
X928749D01*
Y1524194D01*
X929350D01*
Y1523894D01*
X929651D01*
Y1523593D01*
X929951D01*
Y1523293D01*
X929651D01*
Y1523593D01*
X929350D01*
Y1523894D01*
X928749D01*
Y1524194D01*
X928449D01*
Y1524495D01*
X927848D01*
Y1524194D01*
X928449D01*
Y1523894D01*
X928749D01*
Y1523593D01*
X928449D01*
Y1523894D01*
X927848D01*
Y1524194D01*
X927547D01*
Y1524495D01*
Y1524795D01*
Y1525096D01*
X927247D01*
Y1525396D01*
X926646D01*
Y1525697D01*
X926345D01*
Y1525997D01*
X926045D01*
Y1525697D01*
X926345D01*
Y1525396D01*
X926646D01*
Y1525096D01*
Y1524795D01*
X926946D01*
Y1524495D01*
X927247D01*
Y1524194D01*
X927547D01*
Y1523894D01*
X927848D01*
Y1523593D01*
X927547D01*
Y1523894D01*
X927247D01*
Y1524194D01*
X926946D01*
Y1524495D01*
X926345D01*
Y1524795D01*
Y1525096D01*
X925744D01*
Y1525396D01*
Y1525697D01*
X925143D01*
Y1525997D01*
X924842D01*
Y1526298D01*
X924542D01*
Y1526599D01*
X924241D01*
Y1526899D01*
X923941D01*
Y1527200D01*
Y1527500D01*
X923340D01*
Y1527801D01*
X923039D01*
Y1528101D01*
X922739D01*
Y1528402D01*
X922438D01*
Y1528702D01*
X922138D01*
Y1529003D01*
X921837D01*
Y1529303D01*
Y1529604D01*
X921537D01*
Y1529904D01*
X921236D01*
Y1530205D01*
X920936D01*
Y1530505D01*
X920635D01*
Y1530806D01*
X920334D01*
Y1531107D01*
Y1531407D01*
X920034D01*
Y1531708D01*
X919733D01*
Y1532008D01*
X919433D01*
Y1532309D01*
X919132D01*
Y1532609D01*
Y1532910D01*
X918832D01*
Y1533210D01*
X918531D01*
Y1533511D01*
X918231D01*
Y1533811D01*
Y1534112D01*
X917930D01*
Y1534412D01*
X917630D01*
Y1534713D01*
Y1535013D01*
X917329D01*
Y1535314D01*
X917029D01*
Y1535614D01*
Y1535915D01*
X916728D01*
Y1536216D01*
Y1536516D01*
X916428D01*
Y1536817D01*
X916127D01*
Y1537117D01*
X915826D01*
Y1537418D01*
Y1537718D01*
X915526D01*
Y1538019D01*
Y1538319D01*
X915225D01*
Y1538620D01*
X914925D01*
Y1538920D01*
Y1539221D01*
X914624D01*
Y1539521D01*
Y1539822D01*
X914324D01*
Y1540122D01*
X914023D01*
Y1540423D01*
Y1540724D01*
X913723D01*
Y1541024D01*
Y1541325D01*
X913422D01*
Y1541625D01*
Y1541926D01*
X913122D01*
Y1542226D01*
Y1542527D01*
X912821D01*
Y1542827D01*
Y1543128D01*
X912521D01*
Y1543428D01*
Y1543729D01*
X912220D01*
Y1544029D01*
Y1544330D01*
X911920D01*
Y1544630D01*
Y1544931D01*
X911619D01*
Y1545231D01*
Y1545532D01*
Y1545833D01*
X911319D01*
Y1546133D01*
Y1546434D01*
Y1546734D01*
X911018D01*
Y1547035D01*
Y1547335D01*
X910717D01*
Y1547636D01*
Y1547936D01*
Y1548237D01*
X910417D01*
Y1548537D01*
Y1548838D01*
Y1549138D01*
X910116D01*
Y1549439D01*
Y1549739D01*
X909816D01*
Y1550040D01*
Y1550341D01*
Y1550641D01*
Y1550941D01*
X909515D01*
Y1551242D01*
Y1551543D01*
Y1551843D01*
Y1552144D01*
X909215D01*
Y1552444D01*
Y1552745D01*
Y1553045D01*
Y1553346D01*
X908914D01*
Y1553646D01*
Y1553947D01*
Y1554247D01*
Y1554548D01*
Y1554848D01*
X908614D01*
Y1555149D01*
Y1555450D01*
Y1555750D01*
Y1556051D01*
Y1556351D01*
Y1556652D01*
X908313D01*
Y1556952D01*
Y1557253D01*
Y1557553D01*
Y1557854D01*
Y1558154D01*
Y1558455D01*
Y1558755D01*
X908013D01*
Y1559056D01*
Y1559356D01*
Y1559657D01*
Y1559957D01*
Y1560258D01*
Y1560558D01*
Y1560859D01*
Y1561160D01*
Y1561460D01*
Y1561761D01*
X907712D01*
Y1562061D01*
Y1562362D01*
Y1562662D01*
Y1562963D01*
Y1563263D01*
Y1563564D01*
Y1563864D01*
Y1564165D01*
Y1564465D01*
Y1564766D01*
Y1565066D01*
Y1565367D01*
Y1565668D01*
Y1565968D01*
Y1566268D01*
Y1566569D01*
Y1566870D01*
X907412D01*
Y1567170D01*
Y1567471D01*
Y1567771D01*
Y1568072D01*
Y1568372D01*
Y1568673D01*
Y1568973D01*
Y1569274D01*
Y1569574D01*
Y1569875D01*
Y1570175D01*
Y1570476D01*
Y1570777D01*
Y1571077D01*
Y1571378D01*
Y1571678D01*
Y1571979D01*
Y1572279D01*
Y1572580D01*
Y1572880D01*
Y1573181D01*
Y1573481D01*
Y1573782D01*
Y1574082D01*
Y1574383D01*
Y1574683D01*
Y1574984D01*
Y1575284D01*
Y1575585D01*
Y1575885D01*
Y1576186D01*
Y1576487D01*
Y1576787D01*
Y1577088D01*
Y1577388D01*
Y1577689D01*
Y1577989D01*
Y1578290D01*
Y1578590D01*
Y1578891D01*
Y1579191D01*
Y1579492D01*
Y1579792D01*
Y1580093D01*
Y1580394D01*
Y1580694D01*
Y1580995D01*
Y1581295D01*
Y1581596D01*
Y1581896D01*
Y1582197D01*
Y1582497D01*
Y1582798D01*
Y1583098D01*
Y1583399D01*
Y1583699D01*
Y1584000D01*
Y1584300D01*
Y1584601D01*
Y1584901D01*
Y1585202D01*
Y1585502D01*
Y1585803D01*
Y1586104D01*
Y1586404D01*
Y1586705D01*
Y1587005D01*
Y1587306D01*
Y1587606D01*
Y1587907D01*
Y1588207D01*
X907111D01*
Y1588508D01*
Y1588808D01*
Y1589109D01*
Y1589409D01*
Y1589710D01*
Y1590010D01*
Y1590311D01*
Y1590612D01*
Y1590912D01*
Y1591213D01*
Y1591513D01*
Y1591814D01*
Y1592114D01*
Y1592415D01*
Y1592715D01*
Y1593016D01*
Y1593316D01*
Y1593617D01*
Y1593917D01*
Y1594218D01*
Y1594518D01*
Y1594819D01*
Y1595119D01*
Y1595420D01*
Y1595721D01*
Y1596021D01*
Y1596322D01*
Y1596622D01*
Y1596923D01*
Y1597223D01*
Y1597524D01*
Y1597824D01*
Y1598125D01*
Y1598425D01*
Y1598726D01*
Y1599026D01*
Y1599327D01*
Y1599627D01*
Y1599928D01*
Y1600228D01*
Y1600529D01*
Y1600829D01*
Y1601130D01*
Y1601431D01*
Y1601731D01*
Y1602032D01*
Y1602332D01*
Y1602633D01*
Y1602933D01*
Y1603234D01*
Y1603534D01*
Y1603835D01*
Y1604135D01*
X906811D01*
Y1604436D01*
Y1604736D01*
Y1605037D01*
Y1605338D01*
Y1605638D01*
Y1605939D01*
Y1606239D01*
Y1606540D01*
Y1606840D01*
Y1607141D01*
Y1607441D01*
Y1607742D01*
Y1608042D01*
Y1608343D01*
Y1608643D01*
Y1608944D01*
Y1609244D01*
Y1609545D01*
Y1609845D01*
Y1610146D01*
Y1610446D01*
Y1610747D01*
Y1611048D01*
Y1611348D01*
Y1611649D01*
Y1611949D01*
Y1612250D01*
Y1612550D01*
Y1612851D01*
Y1613151D01*
Y1613452D01*
Y1613752D01*
Y1614053D01*
Y1614353D01*
Y1614654D01*
Y1614955D01*
Y1615255D01*
Y1615556D01*
Y1615856D01*
Y1616157D01*
Y1616457D01*
X907111D01*
Y1616758D01*
Y1617058D01*
Y1617359D01*
Y1617659D01*
Y1617960D01*
Y1618260D01*
Y1618561D01*
Y1618861D01*
Y1619162D01*
Y1619462D01*
Y1619763D01*
Y1620063D01*
Y1620364D01*
Y1620665D01*
Y1620965D01*
Y1621266D01*
Y1621566D01*
Y1621867D01*
Y1622167D01*
Y1622468D01*
Y1622768D01*
Y1623069D01*
Y1623369D01*
Y1623670D01*
Y1623970D01*
X907412D01*
Y1623670D01*
X908013D01*
Y1623369D01*
X908313D01*
Y1623069D01*
X908614D01*
Y1622768D01*
X908914D01*
Y1622468D01*
X909215D01*
Y1622167D01*
X909515D01*
Y1621867D01*
X909816D01*
Y1621566D01*
X910116D01*
Y1621266D01*
X910417D01*
Y1620965D01*
X910717D01*
Y1620665D01*
X911319D01*
Y1620364D01*
X911619D01*
Y1620063D01*
X911920D01*
Y1619763D01*
X912220D01*
Y1619462D01*
X912521D01*
Y1619162D01*
X912821D01*
Y1618861D01*
X913122D01*
Y1618561D01*
X913422D01*
Y1618260D01*
X913723D01*
Y1617960D01*
X914023D01*
Y1617659D01*
X914324D01*
Y1617359D01*
X914624D01*
Y1617058D01*
X914925D01*
Y1616758D01*
X915225D01*
Y1616457D01*
X915526D01*
Y1616157D01*
X915826D01*
Y1615856D01*
X916127D01*
Y1615556D01*
X916428D01*
Y1615255D01*
X916728D01*
Y1614955D01*
X917029D01*
Y1614654D01*
X917329D01*
Y1614353D01*
X917630D01*
Y1614053D01*
X917930D01*
Y1613752D01*
X918231D01*
Y1613452D01*
X918531D01*
Y1613151D01*
X919132D01*
Y1612851D01*
X919433D01*
Y1612550D01*
X919733D01*
Y1612250D01*
X920034D01*
Y1611949D01*
X920334D01*
Y1611649D01*
Y1611348D01*
X920635D01*
Y1611048D01*
X920936D01*
Y1610747D01*
X921537D01*
Y1610446D01*
X921837D01*
Y1610146D01*
X922138D01*
Y1609845D01*
X922438D01*
Y1609545D01*
X922739D01*
Y1609244D01*
X923039D01*
Y1608944D01*
X923340D01*
Y1608643D01*
X923640D01*
Y1608343D01*
X923941D01*
Y1608042D01*
X924241D01*
Y1607742D01*
X924542D01*
Y1607441D01*
X924842D01*
Y1607141D01*
X925143D01*
Y1606840D01*
X925443D01*
Y1606540D01*
X925744D01*
Y1606239D01*
X926045D01*
Y1605939D01*
X926345D01*
Y1605638D01*
X926646D01*
Y1605338D01*
X926946D01*
Y1605037D01*
X927247D01*
Y1604736D01*
X927547D01*
Y1604436D01*
X927848D01*
Y1604135D01*
X928148D01*
Y1603835D01*
X928449D01*
Y1603534D01*
X928749D01*
Y1603234D01*
X929050D01*
Y1602933D01*
X929350D01*
Y1602633D01*
X929651D01*
Y1602332D01*
X929951D01*
Y1602032D01*
X930252D01*
Y1601731D01*
X930553D01*
Y1601431D01*
X930853D01*
Y1601130D01*
X931154D01*
Y1600829D01*
X931454D01*
Y1600529D01*
X931755D01*
Y1600228D01*
X932055D01*
Y1599928D01*
X932356D01*
Y1599627D01*
X932656D01*
Y1599327D01*
X932957D01*
Y1599026D01*
X933257D01*
Y1598726D01*
X933558D01*
Y1598425D01*
X933858D01*
Y1598125D01*
X934159D01*
Y1597824D01*
X934459D01*
Y1597524D01*
X934760D01*
Y1597223D01*
X935061D01*
Y1596923D01*
X935361D01*
Y1596622D01*
X935661D01*
Y1596322D01*
X935962D01*
Y1596021D01*
X936263D01*
Y1595721D01*
X936563D01*
Y1595420D01*
X936864D01*
Y1595119D01*
X937164D01*
Y1594819D01*
X937465D01*
Y1594518D01*
X937765D01*
Y1594218D01*
X938066D01*
Y1593917D01*
X938366D01*
Y1593617D01*
X938667D01*
Y1593316D01*
X938967D01*
Y1593016D01*
X939268D01*
Y1592715D01*
X939568D01*
Y1592415D01*
X939869D01*
Y1592114D01*
X940170D01*
Y1591814D01*
X940470D01*
Y1591513D01*
X940770D01*
Y1591213D01*
X941071D01*
Y1590912D01*
X941372D01*
Y1590612D01*
X941672D01*
Y1590311D01*
X941973D01*
Y1590010D01*
X942273D01*
Y1589710D01*
X942574D01*
Y1589409D01*
X942874D01*
Y1589109D01*
X943175D01*
Y1588808D01*
X943475D01*
Y1588508D01*
X943776D01*
Y1588207D01*
X944076D01*
Y1587907D01*
X944377D01*
Y1587606D01*
X944677D01*
Y1587306D01*
X944978D01*
Y1587005D01*
X945278D01*
Y1586705D01*
X945579D01*
Y1586404D01*
X945880D01*
Y1586104D01*
X946180D01*
Y1585803D01*
X946481D01*
Y1585502D01*
X946781D01*
Y1585202D01*
X947082D01*
Y1584901D01*
X947382D01*
Y1584601D01*
X947683D01*
Y1584300D01*
X947983D01*
Y1584000D01*
X948284D01*
Y1583699D01*
X948584D01*
Y1583399D01*
X948885D01*
Y1583098D01*
X949185D01*
Y1582798D01*
X949486D01*
Y1582497D01*
X949786D01*
Y1582197D01*
X950087D01*
Y1581896D01*
X950387D01*
Y1581596D01*
X950688D01*
Y1581295D01*
X950988D01*
Y1580995D01*
X951289D01*
Y1580694D01*
X951590D01*
Y1580394D01*
X951890D01*
Y1580093D01*
X952191D01*
Y1579792D01*
X952792D01*
Y1579492D01*
X953092D01*
Y1579191D01*
X953393D01*
Y1578891D01*
X953994D01*
Y1578590D01*
Y1578290D01*
X954595D01*
Y1577989D01*
X955196D01*
Y1577689D01*
X955497D01*
Y1577388D01*
X955797D01*
Y1577088D01*
X956098D01*
Y1576787D01*
X956398D01*
Y1576487D01*
X956999D01*
Y1576186D01*
X957300D01*
Y1575885D01*
X957901D01*
Y1575585D01*
X958201D01*
Y1575284D01*
X958502D01*
Y1574984D01*
X960005D01*
Y1575284D01*
X961207D01*
Y1575585D01*
X962709D01*
Y1575885D01*
X963911D01*
Y1576186D01*
X965114D01*
Y1576487D01*
X966616D01*
Y1576787D01*
X968119D01*
Y1577088D01*
X969922D01*
Y1576787D01*
X970824D01*
Y1576487D01*
X971425D01*
Y1576186D01*
X971725D01*
Y1575885D01*
X972026D01*
Y1575585D01*
Y1575284D01*
X972326D01*
Y1574984D01*
X972627D01*
Y1574683D01*
Y1574383D01*
X972927D01*
Y1574082D01*
Y1573782D01*
Y1573481D01*
X973228D01*
Y1573181D01*
Y1572880D01*
Y1572580D01*
X973528D01*
Y1572279D01*
Y1571979D01*
Y1571678D01*
X973829D01*
Y1571378D01*
Y1571077D01*
Y1570777D01*
X974129D01*
Y1570476D01*
Y1570175D01*
Y1569875D01*
X974430D01*
Y1569574D01*
Y1569274D01*
X974730D01*
Y1568973D01*
Y1568673D01*
Y1568372D01*
X975031D01*
Y1568072D01*
Y1567771D01*
Y1567471D01*
Y1567170D01*
X975331D01*
Y1566870D01*
Y1566569D01*
X975632D01*
Y1566268D01*
Y1565968D01*
Y1565668D01*
X975933D01*
Y1565367D01*
Y1565066D01*
Y1564766D01*
X976233D01*
Y1564465D01*
Y1564165D01*
Y1563864D01*
X976534D01*
Y1563564D01*
Y1563263D01*
Y1562963D01*
X976834D01*
Y1562662D01*
Y1562362D01*
Y1562061D01*
X977135D01*
Y1561761D01*
Y1561460D01*
Y1561160D01*
X977435D01*
Y1560859D01*
Y1560558D01*
X977736D01*
Y1560258D01*
Y1559957D01*
Y1559657D01*
Y1559356D01*
X978036D01*
Y1559056D01*
Y1558755D01*
X978337D01*
Y1558455D01*
Y1558154D01*
Y1557854D01*
Y1557553D01*
X978637D01*
Y1557253D01*
Y1556952D01*
X978938D01*
Y1556652D01*
Y1556351D01*
Y1556051D01*
Y1555750D01*
Y1555450D01*
Y1555149D01*
X979238D01*
Y1554848D01*
X978938D01*
Y1554548D01*
Y1554247D01*
Y1553947D01*
X978637D01*
Y1553646D01*
Y1553346D01*
X978337D01*
Y1553045D01*
X978036D01*
Y1552745D01*
X977435D01*
Y1552444D01*
X976534D01*
Y1552144D01*
X975632D01*
Y1552444D01*
X974730D01*
Y1552745D01*
X974129D01*
Y1553045D01*
X973829D01*
Y1553346D01*
X973528D01*
Y1553646D01*
Y1553947D01*
X973228D01*
Y1554247D01*
Y1554548D01*
X972927D01*
Y1554848D01*
Y1555149D01*
Y1555450D01*
X972627D01*
Y1555750D01*
Y1556051D01*
Y1556351D01*
X972326D01*
Y1556652D01*
Y1556952D01*
Y1557253D01*
X972026D01*
Y1557553D01*
Y1557854D01*
Y1558154D01*
X971725D01*
Y1558455D01*
Y1558755D01*
Y1559056D01*
X971425D01*
Y1559356D01*
Y1559657D01*
Y1559957D01*
X971124D01*
Y1560258D01*
Y1560558D01*
X970824D01*
Y1560859D01*
Y1561160D01*
Y1561460D01*
Y1561761D01*
X970523D01*
Y1562061D01*
Y1562362D01*
Y1562662D01*
X970222D01*
Y1562963D01*
Y1563263D01*
Y1563564D01*
X969922D01*
Y1563864D01*
Y1564165D01*
Y1564465D01*
X969621D01*
Y1564766D01*
Y1565066D01*
Y1565367D01*
X969321D01*
Y1565668D01*
Y1565968D01*
Y1566268D01*
X969020D01*
Y1566569D01*
Y1566870D01*
Y1567170D01*
X968720D01*
Y1567471D01*
Y1567771D01*
X968419D01*
Y1568072D01*
Y1568372D01*
Y1568673D01*
Y1568973D01*
X968119D01*
Y1569274D01*
Y1569574D01*
X967818D01*
Y1569875D01*
Y1570175D01*
X966316D01*
Y1569875D01*
X964813D01*
Y1569574D01*
X963310D01*
Y1569274D01*
X961507D01*
Y1568973D01*
X960005D01*
Y1568673D01*
X958502D01*
Y1568372D01*
X957600D01*
Y1568072D01*
X957300D01*
Y1567771D01*
X956999D01*
Y1567471D01*
X956699D01*
Y1567170D01*
X956398D01*
Y1566870D01*
Y1566569D01*
X956098D01*
Y1566268D01*
X955797D01*
Y1565968D01*
X955497D01*
Y1565668D01*
Y1565367D01*
X955196D01*
Y1565066D01*
X954895D01*
Y1564766D01*
X954595D01*
Y1564465D01*
Y1564165D01*
X954294D01*
Y1563864D01*
X953994D01*
Y1563564D01*
X953693D01*
Y1563263D01*
X953393D01*
Y1562963D01*
Y1562662D01*
X953092D01*
Y1562362D01*
X952792D01*
Y1562061D01*
X952491D01*
Y1561761D01*
Y1561460D01*
X952191D01*
Y1561160D01*
Y1560859D01*
Y1560558D01*
Y1560258D01*
Y1559957D01*
X951890D01*
Y1559657D01*
Y1559356D01*
Y1559056D01*
Y1558755D01*
Y1558455D01*
Y1558154D01*
Y1557854D01*
Y1557553D01*
Y1557253D01*
Y1556952D01*
Y1556652D01*
Y1556351D01*
Y1556051D01*
Y1555750D01*
Y1555450D01*
Y1555149D01*
Y1554848D01*
Y1554548D01*
Y1554247D01*
Y1553947D01*
Y1553646D01*
Y1553346D01*
Y1553045D01*
Y1552745D01*
Y1552444D01*
Y1552144D01*
Y1551843D01*
Y1551543D01*
X952792D01*
Y1551242D01*
X954595D01*
Y1550941D01*
X956398D01*
Y1550641D01*
X958201D01*
Y1550341D01*
X960305D01*
Y1550040D01*
X962409D01*
Y1549739D01*
X963911D01*
Y1549439D01*
X966015D01*
Y1549138D01*
X967518D01*
Y1548838D01*
X969020D01*
Y1548537D01*
X969922D01*
Y1548237D01*
X970222D01*
Y1547936D01*
Y1547636D01*
X970824D01*
Y1547335D01*
Y1547035D01*
X971124D01*
Y1546734D01*
Y1546434D01*
Y1546133D01*
Y1545833D01*
Y1545532D01*
Y1545231D01*
Y1544931D01*
X970824D01*
Y1544630D01*
Y1544330D01*
X970523D01*
Y1544029D01*
X970222D01*
Y1543729D01*
Y1543428D01*
X969621D01*
Y1543128D01*
X969020D01*
Y1543428D01*
X968720D01*
Y1543128D01*
X969020D01*
Y1542827D01*
X966616D01*
Y1543128D01*
X964813D01*
Y1543428D01*
X963310D01*
Y1543729D01*
X961808D01*
Y1544029D01*
X959704D01*
Y1544330D01*
X957600D01*
Y1544630D01*
X955797D01*
Y1544931D01*
X953994D01*
Y1545231D01*
X951890D01*
Y1545532D01*
Y1545833D01*
X951590D01*
Y1545532D01*
X950087D01*
Y1545833D01*
X948284D01*
Y1546133D01*
X947382D01*
Y1546434D01*
X946781D01*
Y1546734D01*
X946481D01*
Y1547035D01*
X946180D01*
Y1547335D01*
Y1547636D01*
X945880D01*
Y1547936D01*
Y1548237D01*
X945579D01*
Y1548537D01*
Y1548838D01*
Y1549138D01*
Y1549439D01*
Y1549739D01*
Y1550040D01*
Y1550341D01*
Y1550641D01*
Y1550941D01*
Y1551242D01*
Y1551543D01*
Y1551843D01*
Y1552144D01*
Y1552444D01*
Y1552745D01*
Y1553045D01*
Y1553346D01*
Y1553646D01*
Y1553947D01*
Y1554247D01*
Y1554548D01*
Y1554848D01*
Y1555149D01*
Y1555450D01*
Y1555750D01*
Y1556051D01*
Y1556351D01*
Y1556652D01*
Y1556952D01*
Y1557253D01*
X945880D01*
Y1557553D01*
Y1557854D01*
Y1558154D01*
Y1558455D01*
Y1558755D01*
Y1559056D01*
X945579D01*
Y1559356D01*
X945278D01*
Y1559657D01*
X944978D01*
Y1559957D01*
Y1560258D01*
X944677D01*
Y1560558D01*
X944377D01*
Y1560859D01*
X944076D01*
Y1561160D01*
X943776D01*
Y1561460D01*
X943475D01*
Y1561761D01*
X943175D01*
Y1562061D01*
Y1562362D01*
X942574D01*
Y1562662D01*
X942273D01*
Y1562963D01*
X941973D01*
Y1563263D01*
Y1563564D01*
X941372D01*
Y1563864D01*
X941071D01*
Y1564165D01*
X940770D01*
Y1564465D01*
X940470D01*
Y1564766D01*
X940170D01*
Y1565066D01*
X939869D01*
Y1565367D01*
X939568D01*
Y1565668D01*
X939268D01*
Y1565968D01*
X938967D01*
Y1566268D01*
X938667D01*
Y1566569D01*
X938366D01*
Y1566870D01*
X938066D01*
Y1567170D01*
X937765D01*
Y1567471D01*
X937465D01*
Y1567771D01*
X937164D01*
Y1568072D01*
X936864D01*
Y1568372D01*
X936563D01*
Y1568673D01*
X936263D01*
Y1568973D01*
X935962D01*
Y1569274D01*
X935661D01*
Y1569574D01*
X935361D01*
Y1569875D01*
X935061D01*
Y1570175D01*
X934760D01*
Y1570476D01*
X934459D01*
Y1570777D01*
X934159D01*
Y1571077D01*
X933858D01*
Y1571378D01*
X933558D01*
Y1571678D01*
X933257D01*
Y1571979D01*
X932957D01*
Y1572279D01*
X932656D01*
Y1572580D01*
X932356D01*
Y1572880D01*
X932055D01*
Y1573181D01*
X931755D01*
Y1573481D01*
X931454D01*
Y1573782D01*
X931154D01*
Y1574082D01*
X930853D01*
Y1574383D01*
X930553D01*
Y1574683D01*
X929951D01*
Y1574383D01*
X929651D01*
Y1574082D01*
Y1573782D01*
Y1573481D01*
X929350D01*
Y1573181D01*
Y1572880D01*
Y1572580D01*
X929050D01*
Y1572279D01*
Y1571979D01*
Y1571678D01*
Y1571378D01*
Y1571077D01*
Y1570777D01*
Y1570476D01*
Y1570175D01*
X928749D01*
Y1569875D01*
Y1569574D01*
Y1569274D01*
Y1568973D01*
Y1568673D01*
Y1568372D01*
Y1568072D01*
Y1567771D01*
Y1567471D01*
Y1567170D01*
Y1566870D01*
Y1566569D01*
Y1566268D01*
Y1565968D01*
Y1565668D01*
Y1565367D01*
Y1565066D01*
X929050D01*
Y1564766D01*
Y1564465D01*
Y1564165D01*
Y1563864D01*
Y1563564D01*
Y1563263D01*
Y1562963D01*
Y1562662D01*
Y1562362D01*
X929350D01*
Y1562061D01*
Y1561761D01*
Y1561460D01*
Y1561160D01*
Y1560859D01*
X929651D01*
Y1560558D01*
Y1560258D01*
Y1559957D01*
Y1559657D01*
X929951D01*
Y1559356D01*
Y1559056D01*
Y1558755D01*
Y1558455D01*
X930252D01*
Y1558154D01*
Y1557854D01*
Y1557553D01*
Y1557253D01*
X930553D01*
Y1556952D01*
Y1556652D01*
Y1556351D01*
X930853D01*
Y1556051D01*
Y1555750D01*
Y1555450D01*
X931154D01*
Y1555149D01*
Y1554848D01*
Y1554548D01*
X931454D01*
Y1554247D01*
Y1553947D01*
X931755D01*
Y1553646D01*
Y1553346D01*
X932055D01*
Y1553045D01*
Y1552745D01*
Y1552444D01*
X932356D01*
Y1552144D01*
Y1551843D01*
X932656D01*
Y1551543D01*
Y1551242D01*
X932957D01*
Y1550941D01*
Y1550641D01*
X933257D01*
Y1550341D01*
Y1550040D01*
X933558D01*
Y1549739D01*
Y1549439D01*
X933858D01*
Y1549138D01*
X933558D01*
Y1548838D01*
X934159D01*
Y1548537D01*
Y1548237D01*
X934459D01*
Y1547936D01*
X934760D01*
Y1547636D01*
X935061D01*
Y1547335D01*
Y1547035D01*
X935361D01*
Y1546734D01*
X935661D01*
Y1546434D01*
Y1546133D01*
X935962D01*
Y1545833D01*
X936263D01*
Y1545532D01*
X936563D01*
Y1545231D01*
X936864D01*
Y1544931D01*
Y1544630D01*
X937164D01*
Y1544330D01*
X937465D01*
Y1544029D01*
X937765D01*
Y1543729D01*
Y1543428D01*
X938066D01*
Y1543128D01*
X938366D01*
Y1542827D01*
X938667D01*
Y1542527D01*
X938967D01*
Y1542226D01*
X939268D01*
Y1541926D01*
X939568D01*
Y1541625D01*
X939869D01*
Y1541325D01*
X940170D01*
Y1541024D01*
X940770D01*
Y1540724D01*
Y1540423D01*
X941372D01*
Y1540122D01*
X941672D01*
Y1539822D01*
X941973D01*
Y1539521D01*
X942273D01*
Y1539221D01*
X942874D01*
Y1538920D01*
X943175D01*
Y1538620D01*
X943475D01*
Y1538319D01*
X943776D01*
Y1538019D01*
X944377D01*
Y1537718D01*
X944978D01*
Y1537418D01*
X945579D01*
Y1537117D01*
X945880D01*
Y1536817D01*
X946180D01*
Y1536516D01*
X946781D01*
Y1536216D01*
Y1535915D01*
X947082D01*
Y1535614D01*
X947382D01*
Y1535915D01*
X947082D01*
Y1536216D01*
X947382D01*
Y1535915D01*
X947983D01*
Y1535614D01*
X947683D01*
Y1535314D01*
X947082D01*
Y1535614D01*
X946781D01*
Y1535314D01*
X947082D01*
Y1535013D01*
X947983D01*
Y1535314D01*
X948284D01*
Y1535614D01*
X948584D01*
Y1535314D01*
X949185D01*
Y1535013D01*
X949786D01*
Y1534713D01*
X950387D01*
Y1534412D01*
X950988D01*
Y1534112D01*
X951890D01*
Y1533811D01*
X952792D01*
Y1533511D01*
X953994D01*
Y1533210D01*
X953393D01*
Y1532910D01*
X954294D01*
Y1532609D01*
X953393D01*
Y1532910D01*
X952191D01*
Y1533210D01*
X952792D01*
Y1533511D01*
X951890D01*
Y1533210D01*
Y1532910D01*
X951590D01*
Y1533210D01*
Y1533511D01*
X950988D01*
Y1533210D01*
Y1532910D01*
X950688D01*
Y1532609D01*
X951289D01*
Y1532309D01*
X951590D01*
Y1532008D01*
X953092D01*
Y1532309D01*
X951590D01*
Y1532609D01*
X953092D01*
Y1532309D01*
X954595D01*
Y1532008D01*
X955196D01*
Y1532309D01*
X954595D01*
Y1532609D01*
X955196D01*
Y1532910D01*
X955797D01*
Y1532609D01*
X957300D01*
Y1532309D01*
X959103D01*
Y1532008D01*
X961808D01*
Y1531708D01*
X966917D01*
Y1532008D01*
X969621D01*
Y1531708D01*
X970222D01*
Y1532008D01*
X969621D01*
Y1532309D01*
X971425D01*
Y1532609D01*
X972627D01*
Y1532910D01*
X973528D01*
Y1532609D01*
X973829D01*
Y1532910D01*
Y1533210D01*
X974430D01*
Y1532910D01*
X975331D01*
Y1533210D01*
X974730D01*
Y1533511D01*
X975632D01*
Y1533811D01*
X976534D01*
Y1534112D01*
X977135D01*
Y1534412D01*
X977736D01*
Y1534713D01*
X978637D01*
Y1535013D01*
X979238D01*
Y1535314D01*
X979539D01*
Y1535614D01*
X980140D01*
Y1535314D01*
X980441D01*
Y1535013D01*
X980741D01*
Y1535314D01*
X980441D01*
Y1535614D01*
Y1535915D01*
X981342D01*
Y1536216D01*
X981643D01*
Y1536516D01*
X981943D01*
Y1536817D01*
X982544D01*
Y1536516D01*
X982244D01*
Y1536216D01*
X982845D01*
Y1536516D01*
Y1536817D01*
X982544D01*
Y1537117D01*
X982845D01*
Y1537418D01*
X983145D01*
Y1537117D01*
X983446D01*
Y1537418D01*
X983145D01*
Y1537718D01*
X983746D01*
Y1538019D01*
X984047D01*
Y1538319D01*
X984347D01*
Y1538620D01*
X984949D01*
Y1538920D01*
X985249D01*
Y1539221D01*
X985549D01*
Y1538920D01*
X985850D01*
Y1539221D01*
X985549D01*
Y1539521D01*
X985850D01*
Y1539822D01*
X986151D01*
Y1540122D01*
X986752D01*
Y1540423D01*
X987353D01*
Y1540122D01*
X987653D01*
Y1540423D01*
X987353D01*
Y1540724D01*
Y1541024D01*
X987653D01*
Y1541325D01*
X987954D01*
Y1541625D01*
X988254D01*
Y1541926D01*
X988555D01*
Y1542226D01*
X988855D01*
Y1542527D01*
X989156D01*
Y1542827D01*
X989456D01*
Y1543128D01*
Y1543428D01*
X989757D01*
Y1543128D01*
X990058D01*
Y1543428D01*
Y1543729D01*
Y1544029D01*
X990358D01*
Y1544330D01*
X990658D01*
Y1544630D01*
X990959D01*
Y1544931D01*
X991260D01*
Y1545231D01*
X991560D01*
Y1545532D01*
Y1545833D01*
X991861D01*
Y1546133D01*
X992161D01*
Y1546434D01*
X992462D01*
Y1546734D01*
Y1547035D01*
X992762D01*
Y1547335D01*
X993063D01*
Y1547035D01*
X993363D01*
Y1547335D01*
X993063D01*
Y1547636D01*
Y1547936D01*
X993664D01*
Y1548237D01*
Y1548537D01*
Y1548838D01*
X993964D01*
Y1549138D01*
Y1549439D01*
X994265D01*
Y1549739D01*
X994565D01*
Y1550040D01*
Y1550341D01*
X994866D01*
Y1550641D01*
Y1550941D01*
X995166D01*
Y1551242D01*
X995467D01*
Y1551543D01*
Y1551843D01*
Y1552144D01*
X995768D01*
Y1552444D01*
Y1552745D01*
X996068D01*
Y1553045D01*
Y1553346D01*
X996369D01*
Y1553646D01*
Y1553947D01*
X996669D01*
Y1554247D01*
Y1554548D01*
Y1554848D01*
X996970D01*
Y1555149D01*
Y1555450D01*
Y1555750D01*
X997270D01*
Y1556051D01*
Y1556351D01*
X997571D01*
Y1556652D01*
Y1556952D01*
Y1557253D01*
Y1557553D01*
X997871D01*
Y1557854D01*
Y1558154D01*
Y1558455D01*
X998172D01*
Y1558755D01*
Y1559056D01*
Y1559356D01*
Y1559657D01*
X998472D01*
Y1559957D01*
Y1560258D01*
Y1560558D01*
Y1560859D01*
Y1561160D01*
X998773D01*
Y1561460D01*
Y1561761D01*
Y1562061D01*
Y1562362D01*
Y1562662D01*
Y1562963D01*
X999073D01*
Y1563263D01*
Y1563564D01*
Y1563864D01*
Y1564165D01*
Y1564465D01*
Y1564766D01*
Y1565066D01*
Y1565367D01*
X999374D01*
Y1565668D01*
Y1565968D01*
Y1566268D01*
Y1566569D01*
Y1566870D01*
Y1567170D01*
Y1567471D01*
Y1567771D01*
Y1568072D01*
Y1568372D01*
Y1568673D01*
Y1568973D01*
Y1569274D01*
Y1569574D01*
Y1569875D01*
Y1570175D01*
X999073D01*
Y1570476D01*
Y1570777D01*
Y1571077D01*
Y1571378D01*
Y1571678D01*
Y1571979D01*
Y1572279D01*
Y1572580D01*
Y1572880D01*
Y1573181D01*
X998773D01*
Y1573481D01*
Y1573782D01*
Y1574082D01*
Y1574383D01*
Y1574683D01*
X998472D01*
Y1574984D01*
Y1575284D01*
Y1575585D01*
Y1575885D01*
Y1576186D01*
X998172D01*
Y1576487D01*
Y1576787D01*
Y1577088D01*
Y1577388D01*
X997871D01*
Y1577689D01*
Y1577989D01*
Y1578290D01*
Y1578590D01*
X997571D01*
Y1578891D01*
Y1579191D01*
Y1579492D01*
X997270D01*
Y1579792D01*
Y1580093D01*
X996970D01*
Y1580394D01*
Y1580694D01*
Y1580995D01*
X996669D01*
Y1581295D01*
Y1581596D01*
X996369D01*
Y1581896D01*
Y1582197D01*
Y1582497D01*
X996068D01*
Y1582798D01*
Y1583098D01*
X995768D01*
Y1583399D01*
Y1583699D01*
X995467D01*
Y1584000D01*
Y1584300D01*
X995166D01*
Y1584601D01*
X994866D01*
Y1584901D01*
Y1585202D01*
Y1585502D01*
X994565D01*
Y1585803D01*
X994265D01*
Y1586104D01*
Y1586404D01*
X993964D01*
Y1586705D01*
Y1587005D01*
X993664D01*
Y1587306D01*
Y1587606D01*
X993363D01*
Y1587907D01*
X993063D01*
Y1588207D01*
X992762D01*
Y1588508D01*
Y1588808D01*
X992462D01*
Y1589109D01*
X992161D01*
Y1589409D01*
X991861D01*
Y1589710D01*
X991560D01*
Y1590010D01*
X991260D01*
Y1590311D01*
Y1590612D01*
X990959D01*
Y1590912D01*
X990658D01*
Y1591213D01*
X990358D01*
Y1591513D01*
X990058D01*
Y1591814D01*
X989757D01*
Y1592114D01*
X989456D01*
Y1592415D01*
X989156D01*
Y1592715D01*
X988855D01*
Y1593016D01*
X988555D01*
Y1593316D01*
X988254D01*
Y1593617D01*
X987954D01*
Y1593917D01*
X987653D01*
Y1594218D01*
X987353D01*
Y1594518D01*
X987052D01*
Y1594819D01*
X986451D01*
Y1595119D01*
X986151D01*
Y1595420D01*
X985850D01*
Y1595721D01*
X985249D01*
Y1596021D01*
X984949D01*
Y1596322D01*
X984648D01*
Y1596622D01*
X984047D01*
Y1596923D01*
X983446D01*
Y1597223D01*
X983145D01*
Y1597524D01*
X982544D01*
Y1597824D01*
X982244D01*
Y1598125D01*
X981643D01*
Y1598425D01*
X981042D01*
Y1598726D01*
X980441D01*
Y1599026D01*
X979839D01*
Y1599327D01*
X978938D01*
Y1599627D01*
X978337D01*
Y1599928D01*
X977736D01*
Y1600228D01*
X976834D01*
Y1600529D01*
X975933D01*
Y1600829D01*
X975031D01*
Y1601130D01*
X973829D01*
Y1601431D01*
X972627D01*
Y1601731D01*
X971425D01*
Y1602032D01*
X969321D01*
Y1602332D01*
X966015D01*
Y1602633D01*
X963611D01*
Y1602332D01*
X960605D01*
Y1602032D01*
X958802D01*
Y1601731D01*
X956999D01*
Y1601431D01*
X954595D01*
Y1601130D01*
X953393D01*
Y1601431D01*
X953092D01*
Y1601731D01*
Y1602032D01*
X952792D01*
Y1602332D01*
X952491D01*
Y1602633D01*
X952191D01*
Y1602933D01*
Y1603234D01*
X951890D01*
Y1603534D01*
X951590D01*
Y1603835D01*
X951289D01*
Y1604135D01*
X950988D01*
Y1604436D01*
Y1604736D01*
X950688D01*
Y1605037D01*
X950387D01*
Y1605338D01*
X950087D01*
Y1605638D01*
X949786D01*
Y1605939D01*
X949486D01*
Y1606239D01*
X949185D01*
Y1606540D01*
Y1606840D01*
X948885D01*
Y1607141D01*
X948584D01*
Y1607441D01*
X948284D01*
Y1607742D01*
X947983D01*
Y1608042D01*
X947683D01*
Y1608343D01*
Y1608643D01*
X947382D01*
Y1608944D01*
X947082D01*
Y1609244D01*
X946781D01*
Y1609545D01*
X946481D01*
Y1609845D01*
X946180D01*
Y1610146D01*
X945880D01*
Y1610446D01*
Y1610747D01*
X945579D01*
Y1611048D01*
X945278D01*
Y1611348D01*
X944978D01*
Y1611649D01*
X944677D01*
Y1611949D01*
X944377D01*
Y1612250D01*
X944076D01*
Y1612550D01*
Y1612851D01*
X943776D01*
Y1613151D01*
X943475D01*
Y1613452D01*
X943175D01*
Y1613752D01*
X942874D01*
Y1614053D01*
X942574D01*
Y1614353D01*
X942273D01*
Y1614654D01*
Y1614955D01*
X941973D01*
Y1615255D01*
X941672D01*
Y1615556D01*
X941372D01*
Y1615856D01*
X941071D01*
Y1616157D01*
X940770D01*
Y1616457D01*
X940470D01*
Y1616758D01*
X940170D01*
Y1617058D01*
Y1617359D01*
X939869D01*
Y1617659D01*
X939568D01*
Y1617960D01*
X939268D01*
Y1618260D01*
X938967D01*
Y1618561D01*
X938667D01*
Y1618861D01*
X938366D01*
Y1619162D01*
Y1619462D01*
X938066D01*
Y1619763D01*
X937765D01*
Y1620063D01*
X937465D01*
Y1620364D01*
X937164D01*
Y1620665D01*
X936864D01*
Y1620965D01*
X936563D01*
Y1621266D01*
Y1621566D01*
X936263D01*
Y1621867D01*
X935962D01*
Y1622167D01*
X935661D01*
Y1622468D01*
Y1622768D01*
X935361D01*
Y1623069D01*
X935061D01*
Y1623369D01*
X934760D01*
Y1623670D01*
Y1623970D01*
X934459D01*
Y1624271D01*
X934159D01*
Y1624571D01*
X933858D01*
Y1624872D01*
X933558D01*
Y1625172D01*
Y1625473D01*
X933257D01*
Y1625774D01*
X932957D01*
Y1626074D01*
Y1626375D01*
X932656D01*
Y1626675D01*
X932356D01*
Y1626976D01*
Y1627276D01*
Y1627577D01*
X932055D01*
Y1627877D01*
X932656D01*
Y1627577D01*
D02*
G37*
%LPC*%
G36*
X928148Y1602032D02*
X927848D01*
Y1601731D01*
X928148D01*
Y1602032D01*
D02*
G37*
G36*
X946481Y1559356D02*
X946180D01*
Y1559056D01*
X946481D01*
Y1559356D01*
D02*
G37*
G36*
X996970Y1553346D02*
X996669D01*
Y1553045D01*
X996970D01*
Y1553346D01*
D02*
G37*
G36*
X930853D02*
X930553D01*
Y1553045D01*
X930853D01*
Y1553346D01*
D02*
G37*
G36*
X932957Y1550641D02*
X932656D01*
Y1550341D01*
Y1550040D01*
X932957D01*
Y1550341D01*
Y1550641D01*
D02*
G37*
G36*
X946781Y1548537D02*
X946481D01*
Y1548237D01*
X946781D01*
Y1548537D01*
D02*
G37*
G36*
X912821D02*
X912521D01*
Y1548237D01*
X912821D01*
Y1548537D01*
D02*
G37*
G36*
X994866Y1547035D02*
X994565D01*
Y1546734D01*
X994866D01*
Y1547035D01*
D02*
G37*
G36*
X970222Y1546734D02*
X969922D01*
Y1546434D01*
X970222D01*
Y1546734D01*
D02*
G37*
G36*
X994565Y1546434D02*
X994265D01*
Y1546133D01*
X994565D01*
Y1546434D01*
D02*
G37*
G36*
X969922Y1546133D02*
X969621D01*
Y1545833D01*
X969922D01*
Y1546133D01*
D02*
G37*
G36*
X935361Y1545231D02*
X935061D01*
Y1544931D01*
X935361D01*
Y1545231D01*
D02*
G37*
G36*
X992161Y1544931D02*
X991861D01*
Y1544630D01*
X992161D01*
Y1544931D01*
D02*
G37*
G36*
X912821D02*
X912521D01*
Y1544630D01*
X912821D01*
Y1544931D01*
D02*
G37*
G36*
X991861Y1544630D02*
X991560D01*
Y1544330D01*
X991861D01*
Y1544630D01*
D02*
G37*
G36*
X935962D02*
X935661D01*
Y1544330D01*
X935962D01*
Y1544630D01*
D02*
G37*
G36*
X936864D02*
X936563D01*
Y1544330D01*
Y1544029D01*
X936864D01*
Y1544330D01*
Y1544630D01*
D02*
G37*
G36*
X992161Y1544029D02*
X991861D01*
Y1543729D01*
X992161D01*
Y1544029D01*
D02*
G37*
G36*
X991260D02*
X990959D01*
Y1543729D01*
X991260D01*
Y1544029D01*
D02*
G37*
G36*
X936563D02*
X936263D01*
Y1543729D01*
X936563D01*
Y1544029D01*
D02*
G37*
G36*
X915225Y1543729D02*
X914925D01*
Y1543428D01*
X915225D01*
Y1543729D01*
D02*
G37*
G36*
X913723D02*
X913422D01*
Y1543428D01*
X913723D01*
Y1543729D01*
D02*
G37*
G36*
X914624Y1542827D02*
X914324D01*
Y1542527D01*
X914624D01*
Y1542827D01*
D02*
G37*
G36*
X938066Y1541625D02*
X937465D01*
Y1541325D01*
X938066D01*
Y1541625D01*
D02*
G37*
G36*
X914324Y1541926D02*
X914023D01*
Y1541625D01*
Y1541325D01*
X914324D01*
Y1541625D01*
Y1541926D01*
D02*
G37*
G36*
X939869Y1541325D02*
X939568D01*
Y1541024D01*
X939869D01*
Y1540724D01*
X940170D01*
Y1541024D01*
X939869D01*
Y1541325D01*
D02*
G37*
G36*
X914925Y1541024D02*
X914624D01*
Y1540724D01*
X914925D01*
Y1541024D01*
D02*
G37*
G36*
X914624Y1540724D02*
X914324D01*
Y1540423D01*
X914624D01*
Y1540724D01*
D02*
G37*
G36*
X940770Y1540423D02*
X940470D01*
Y1540122D01*
X940770D01*
Y1540423D01*
D02*
G37*
G36*
X940170Y1540122D02*
X939869D01*
Y1539822D01*
X940170D01*
Y1540122D01*
D02*
G37*
G36*
X941672Y1539822D02*
X941372D01*
Y1539521D01*
X941672D01*
Y1539822D01*
D02*
G37*
G36*
X939869D02*
X939568D01*
Y1539521D01*
X939869D01*
Y1539822D01*
D02*
G37*
G36*
X987653Y1539521D02*
X987353D01*
Y1539221D01*
X987653D01*
Y1539521D01*
D02*
G37*
G36*
X986752D02*
X986451D01*
Y1539221D01*
X986752D01*
Y1539521D01*
D02*
G37*
G36*
X942273Y1539221D02*
X941973D01*
Y1538920D01*
X942273D01*
Y1539221D01*
D02*
G37*
G36*
X1012297Y1538920D02*
X1011996D01*
Y1538620D01*
X1012297D01*
Y1538920D01*
D02*
G37*
G36*
X917930Y1538620D02*
X917630D01*
Y1538319D01*
Y1538019D01*
X917930D01*
Y1538319D01*
Y1538620D01*
D02*
G37*
G36*
X917029Y1538319D02*
X916728D01*
Y1538019D01*
X917029D01*
Y1538319D01*
D02*
G37*
G36*
X984949Y1538019D02*
X984648D01*
Y1537718D01*
X984949D01*
Y1538019D01*
D02*
G37*
G36*
X917930Y1537418D02*
X917630D01*
Y1537117D01*
X917930D01*
Y1537418D01*
D02*
G37*
G36*
X984648Y1537718D02*
X984347D01*
Y1537418D01*
X984648D01*
Y1537117D01*
X984949D01*
Y1536817D01*
X985249D01*
Y1537117D01*
X984949D01*
Y1537418D01*
X984648D01*
Y1537718D01*
D02*
G37*
G36*
X984347Y1537117D02*
X984047D01*
Y1536817D01*
X984347D01*
Y1537117D01*
D02*
G37*
G36*
X944377Y1537418D02*
X944076D01*
Y1537117D01*
X944377D01*
Y1536817D01*
X944677D01*
Y1537117D01*
X944377D01*
Y1537418D01*
D02*
G37*
G36*
X984949Y1536817D02*
X984648D01*
Y1536516D01*
X984949D01*
Y1536817D01*
D02*
G37*
G36*
X944076D02*
X943776D01*
Y1536516D01*
X944076D01*
Y1536817D01*
D02*
G37*
G36*
X1010794Y1536516D02*
X1010493D01*
Y1536216D01*
X1010794D01*
Y1536516D01*
D02*
G37*
G36*
X917630D02*
X917329D01*
Y1536216D01*
Y1535915D01*
X917630D01*
Y1536216D01*
Y1536516D01*
D02*
G37*
G36*
X1009893D02*
X1009592D01*
Y1536216D01*
X1009893D01*
Y1535915D01*
Y1535614D01*
X1010193D01*
Y1535915D01*
Y1536216D01*
X1009893D01*
Y1536516D01*
D02*
G37*
G36*
X1010794Y1535614D02*
X1010493D01*
Y1535314D01*
X1010794D01*
Y1535614D01*
D02*
G37*
G36*
X981943Y1535915D02*
X981643D01*
Y1535614D01*
X981342D01*
Y1535314D01*
X981943D01*
Y1535614D01*
Y1535915D01*
D02*
G37*
G36*
X1009893Y1535314D02*
X1009592D01*
Y1535013D01*
X1009893D01*
Y1535314D01*
D02*
G37*
G36*
X980140D02*
X979839D01*
Y1535013D01*
X980140D01*
Y1535314D01*
D02*
G37*
G36*
X947082Y1535013D02*
X946781D01*
Y1534713D01*
X947082D01*
Y1535013D01*
D02*
G37*
G36*
X981943Y1534713D02*
X981342D01*
Y1534412D01*
X981943D01*
Y1534713D01*
D02*
G37*
G36*
X1009893Y1534412D02*
X1009592D01*
Y1534112D01*
X1009893D01*
Y1534412D01*
D02*
G37*
G36*
X982845D02*
X982544D01*
Y1534112D01*
X982845D01*
Y1534412D01*
D02*
G37*
G36*
X978337D02*
X978036D01*
Y1534112D01*
X978337D01*
Y1534412D01*
D02*
G37*
G36*
X950387D02*
X950087D01*
Y1534112D01*
X950387D01*
Y1534412D01*
D02*
G37*
G36*
X947683D02*
X947082D01*
Y1534112D01*
X947683D01*
Y1534412D01*
D02*
G37*
G36*
X919132Y1534112D02*
X918832D01*
Y1533811D01*
X919132D01*
Y1534112D01*
D02*
G37*
G36*
X1009592Y1533811D02*
X1009291D01*
Y1533511D01*
X1009592D01*
Y1533811D01*
D02*
G37*
G36*
X949786Y1534713D02*
X949185D01*
Y1534412D01*
X948584D01*
Y1534112D01*
X949185D01*
Y1533811D01*
Y1533511D01*
X949486D01*
Y1533811D01*
X950087D01*
Y1533511D01*
X950387D01*
Y1533811D01*
X950087D01*
Y1534112D01*
X949786D01*
Y1534412D01*
Y1534713D01*
D02*
G37*
G36*
X919733Y1534112D02*
X919433D01*
Y1533811D01*
Y1533511D01*
X919733D01*
Y1533811D01*
Y1534112D01*
D02*
G37*
G36*
X918832Y1533811D02*
X918531D01*
Y1533511D01*
X918832D01*
Y1533811D01*
D02*
G37*
G36*
X1008991Y1534112D02*
X1008690D01*
Y1533811D01*
Y1533511D01*
Y1533210D01*
X1008991D01*
Y1533511D01*
Y1533811D01*
Y1534112D01*
D02*
G37*
G36*
X1007188Y1533811D02*
X1006887D01*
Y1533511D01*
Y1533210D01*
X1007188D01*
Y1533511D01*
Y1533811D01*
D02*
G37*
G36*
X919433Y1533511D02*
X919132D01*
Y1533210D01*
X919433D01*
Y1533511D01*
D02*
G37*
G36*
X1008690Y1533210D02*
X1008390D01*
Y1532910D01*
X1008690D01*
Y1533210D01*
D02*
G37*
G36*
X975933D02*
X975632D01*
Y1532910D01*
X975933D01*
Y1533210D01*
D02*
G37*
G36*
X947683D02*
X946781D01*
Y1532910D01*
X947683D01*
Y1533210D01*
D02*
G37*
G36*
X977435Y1532910D02*
X976834D01*
Y1532609D01*
X977435D01*
Y1532910D01*
D02*
G37*
G36*
X1008390D02*
X1008089D01*
Y1532609D01*
Y1532309D01*
X1008390D01*
Y1532609D01*
Y1532910D01*
D02*
G37*
G36*
X976834Y1532609D02*
X975933D01*
Y1532309D01*
X976834D01*
Y1532609D01*
D02*
G37*
G36*
X975031D02*
X974129D01*
Y1532309D01*
X975031D01*
Y1532609D01*
D02*
G37*
G36*
X955797D02*
X955497D01*
Y1532309D01*
X955797D01*
Y1532609D01*
D02*
G37*
G36*
X947683D02*
X946781D01*
Y1532309D01*
X947683D01*
Y1532609D01*
D02*
G37*
G36*
X978036Y1532309D02*
X977736D01*
Y1532008D01*
X978036D01*
Y1532309D01*
D02*
G37*
G36*
X975632D02*
X975331D01*
Y1532008D01*
X975632D01*
Y1532309D01*
D02*
G37*
G36*
X973528D02*
X972927D01*
Y1532008D01*
X973528D01*
Y1532309D01*
D02*
G37*
G36*
X956999D02*
X956098D01*
Y1532008D01*
X956999D01*
Y1532309D01*
D02*
G37*
G36*
X920034Y1532609D02*
X919733D01*
Y1532309D01*
Y1532008D01*
X920034D01*
Y1532309D01*
Y1532609D01*
D02*
G37*
G36*
X974430Y1532008D02*
X974129D01*
Y1531708D01*
X974430D01*
Y1532008D01*
D02*
G37*
G36*
X958201D02*
X957901D01*
Y1531708D01*
X958201D01*
Y1532008D01*
D02*
G37*
G36*
X950688Y1532309D02*
X949185D01*
Y1532008D01*
Y1531708D01*
X950688D01*
Y1532008D01*
Y1532309D01*
D02*
G37*
G36*
X956098Y1532008D02*
X955497D01*
Y1531708D01*
Y1531407D01*
X956398D01*
Y1531708D01*
X956098D01*
Y1532008D01*
D02*
G37*
G36*
X954294D02*
X953693D01*
Y1531708D01*
X953994D01*
Y1531407D01*
X954294D01*
Y1531708D01*
Y1532008D01*
D02*
G37*
G36*
X920635Y1531708D02*
X920334D01*
Y1531407D01*
X920635D01*
Y1531708D01*
D02*
G37*
G36*
X1007789Y1531407D02*
X1007488D01*
Y1531107D01*
X1007789D01*
Y1531407D01*
D02*
G37*
G36*
X921236D02*
X920936D01*
Y1531107D01*
X921236D01*
Y1531407D01*
D02*
G37*
G36*
X922438Y1531708D02*
X922138D01*
Y1531407D01*
X922438D01*
Y1531107D01*
Y1530806D01*
X922739D01*
Y1531107D01*
Y1531407D01*
X922438D01*
Y1531708D01*
D02*
G37*
G36*
X920936Y1531107D02*
X920635D01*
Y1530806D01*
X920936D01*
Y1531107D01*
D02*
G37*
G36*
X921537Y1531708D02*
X921236D01*
Y1531407D01*
X921537D01*
Y1531107D01*
X921837D01*
Y1530806D01*
X922138D01*
Y1530505D01*
Y1530205D01*
X922438D01*
Y1530505D01*
Y1530806D01*
X922138D01*
Y1531107D01*
X921837D01*
Y1531407D01*
X921537D01*
Y1531708D01*
D02*
G37*
G36*
X921837Y1530505D02*
X921236D01*
Y1530205D01*
X921837D01*
Y1529904D01*
X922138D01*
Y1529604D01*
X922438D01*
Y1529904D01*
X922138D01*
Y1530205D01*
X921837D01*
Y1530505D01*
D02*
G37*
G36*
X924542Y1529303D02*
X923941D01*
Y1529003D01*
X924542D01*
Y1529303D01*
D02*
G37*
G36*
X1005084D02*
X1004783D01*
Y1529003D01*
Y1528702D01*
Y1528402D01*
X1005084D01*
Y1528702D01*
Y1529003D01*
Y1529303D01*
D02*
G37*
G36*
X1002680D02*
X1002079D01*
Y1529003D01*
Y1528702D01*
Y1528402D01*
X1002680D01*
Y1528702D01*
Y1529003D01*
Y1529303D01*
D02*
G37*
G36*
X925443D02*
X924842D01*
Y1529003D01*
Y1528702D01*
Y1528402D01*
X925143D01*
Y1528702D01*
Y1529003D01*
X925443D01*
Y1529303D01*
D02*
G37*
G36*
X1004783Y1528402D02*
X1004483D01*
Y1528101D01*
X1004783D01*
Y1528402D01*
D02*
G37*
G36*
X1003882Y1527801D02*
X1003581D01*
Y1527500D01*
X1003281D01*
Y1527200D01*
X1004182D01*
Y1527500D01*
X1003882D01*
Y1527801D01*
D02*
G37*
G36*
X923340Y1529303D02*
X923039D01*
Y1529003D01*
X922739D01*
Y1528702D01*
X923340D01*
Y1528402D01*
Y1528101D01*
X923640D01*
Y1527801D01*
X923941D01*
Y1527500D01*
X924241D01*
Y1527801D01*
X924842D01*
Y1527500D01*
Y1527200D01*
X925143D01*
Y1527500D01*
Y1527801D01*
X924842D01*
Y1528101D01*
Y1528402D01*
X924542D01*
Y1528101D01*
X923941D01*
Y1528402D01*
Y1528702D01*
X923340D01*
Y1529003D01*
Y1529303D01*
D02*
G37*
G36*
X926646Y1527200D02*
X926045D01*
Y1526899D01*
X926646D01*
Y1527200D01*
D02*
G37*
G36*
X924842D02*
X924241D01*
Y1526899D01*
X924842D01*
Y1527200D01*
D02*
G37*
G36*
X1003581Y1526899D02*
X1003281D01*
Y1526599D01*
X1003581D01*
Y1526899D01*
D02*
G37*
G36*
X928449Y1526599D02*
X928148D01*
Y1526298D01*
X927848D01*
Y1526599D01*
X927547D01*
Y1526298D01*
Y1525997D01*
X927247D01*
Y1526298D01*
X926946D01*
Y1526599D01*
X926345D01*
Y1526298D01*
X926646D01*
Y1525997D01*
X927247D01*
Y1525697D01*
Y1525396D01*
X927848D01*
Y1525697D01*
X928449D01*
Y1525997D01*
X928749D01*
Y1526298D01*
X928449D01*
Y1526599D01*
D02*
G37*
G36*
X926045Y1526899D02*
X925443D01*
Y1526599D01*
X925143D01*
Y1526298D01*
Y1525997D01*
X925443D01*
Y1526298D01*
X925744D01*
Y1526599D01*
X926045D01*
Y1526899D01*
D02*
G37*
G36*
X1001778Y1525697D02*
X1001478D01*
Y1525396D01*
X1001778D01*
Y1525697D01*
D02*
G37*
G36*
X1001478Y1525396D02*
X1001177D01*
Y1525096D01*
X1001478D01*
Y1525396D01*
D02*
G37*
G36*
X997571Y1525096D02*
X997270D01*
Y1524795D01*
X997571D01*
Y1525096D01*
D02*
G37*
G36*
X930252Y1524795D02*
X929350D01*
Y1524495D01*
X930252D01*
Y1524795D01*
D02*
G37*
G36*
X1000877Y1524495D02*
X999975D01*
Y1524194D01*
X1000877D01*
Y1524495D01*
D02*
G37*
G36*
X999675D02*
X999374D01*
Y1524194D01*
X998472D01*
Y1524495D01*
X998172D01*
Y1524194D01*
X998472D01*
Y1523894D01*
X998773D01*
Y1523593D01*
X999073D01*
Y1523293D01*
X999975D01*
Y1523593D01*
X999374D01*
Y1523894D01*
X999975D01*
Y1523593D01*
X1000275D01*
Y1523894D01*
X999975D01*
Y1524194D01*
X999675D01*
Y1524495D01*
D02*
G37*
%LPD*%
D10*
X858850Y1581150D02*
G03*
X858850Y1581150I-2000J0D01*
G01*
X639572Y1581316D02*
G03*
X639572Y1581316I-2000J0D01*
G01*
D11*
X834578Y1127280D02*
X866598D01*
X763058D02*
X819338D01*
Y1122280D02*
Y1127280D01*
Y1122280D02*
X834578D01*
Y1127280D01*
X716598Y1123530D02*
Y1127280D01*
X866598Y1066030D02*
Y1091030D01*
X716598Y1066030D02*
X866598D01*
X716598D02*
Y1091030D01*
X747818Y1122280D02*
Y1127280D01*
Y1122280D02*
X763058D01*
Y1127280D01*
X716598D02*
X747818D01*
X866598Y1123530D02*
Y1127280D01*
X1002280D02*
X1034300D01*
X930760D02*
X987040D01*
Y1122280D02*
Y1127280D01*
Y1122280D02*
X1002280D01*
Y1127280D01*
X884300Y1123530D02*
Y1127280D01*
X1034300Y1066030D02*
Y1091030D01*
X884300Y1066030D02*
X1034300D01*
X884300D02*
Y1091030D01*
X915520Y1122280D02*
Y1127280D01*
Y1122280D02*
X930760D01*
Y1127280D01*
X884300D02*
X915520D01*
X1034300Y1123530D02*
Y1127280D01*
X328730Y1634490D02*
X430730D01*
X328730Y1553210D02*
X430730D01*
Y1578490D02*
X443230D01*
Y1596390D01*
X316230Y1578490D02*
X328730D01*
X316230D02*
Y1596390D01*
X328730Y1570990D02*
X430730D01*
X395730Y1587490D02*
Y1634490D01*
Y1587490D02*
X400810D01*
X408430Y1600190D01*
Y1634490D01*
X351030Y1600190D02*
Y1634490D01*
Y1600190D02*
X358650Y1587490D01*
X363730D01*
Y1634490D01*
X430730Y1553210D02*
Y1578490D01*
X328730Y1553210D02*
Y1578490D01*
X1002280Y350040D02*
X1034300D01*
X930760D02*
X987040D01*
Y345040D02*
Y350040D01*
Y345040D02*
X1002280D01*
Y350040D01*
X884300Y346290D02*
Y350040D01*
X1034300Y288790D02*
Y313790D01*
X884300Y288790D02*
X1034300D01*
X884300D02*
Y313790D01*
X915520Y345040D02*
Y350040D01*
Y345040D02*
X930760D01*
Y350040D01*
X884300D02*
X915520D01*
X1034300Y346290D02*
Y350040D01*
X834578Y739930D02*
X866598D01*
X763058D02*
X819338D01*
Y734930D02*
Y739930D01*
Y734930D02*
X834578D01*
Y739930D01*
X716598Y736180D02*
Y739930D01*
X866598Y678680D02*
Y703680D01*
X716598Y678680D02*
X866598D01*
X716598D02*
Y703680D01*
X747818Y734930D02*
Y739930D01*
Y734930D02*
X763058D01*
Y739930D01*
X716598D02*
X747818D01*
X866598Y736180D02*
Y739930D01*
X1002280Y738660D02*
X1034300D01*
X930760D02*
X987040D01*
Y733660D02*
Y738660D01*
Y733660D02*
X1002280D01*
Y738660D01*
X884300Y734910D02*
Y738660D01*
X1034300Y677410D02*
Y702410D01*
X884300Y677410D02*
X1034300D01*
X884300D02*
Y702410D01*
X915520Y733660D02*
Y738660D01*
Y733660D02*
X930760D01*
Y738660D01*
X884300D02*
X915520D01*
X1034300Y734910D02*
Y738660D01*
X834578Y1514630D02*
X866598D01*
X763058D02*
X819338D01*
Y1509630D02*
Y1514630D01*
Y1509630D02*
X834578D01*
Y1514630D01*
X716598Y1510880D02*
Y1514630D01*
X866598Y1453380D02*
Y1478380D01*
X716598Y1453380D02*
X866598D01*
X716598D02*
Y1478380D01*
X747818Y1509630D02*
Y1514630D01*
Y1509630D02*
X763058D01*
Y1514630D01*
X716598D02*
X747818D01*
X866598Y1510880D02*
Y1514630D01*
X1002280D02*
X1034300D01*
X930760D02*
X987040D01*
Y1509630D02*
Y1514630D01*
Y1509630D02*
X1002280D01*
Y1514630D01*
X884300Y1510880D02*
Y1514630D01*
X1034300Y1453380D02*
Y1478380D01*
X884300Y1453380D02*
X1034300D01*
X884300D02*
Y1478380D01*
X915520Y1509630D02*
Y1514630D01*
Y1509630D02*
X930760D01*
Y1514630D01*
X884300D02*
X915520D01*
X1034300Y1510880D02*
Y1514630D01*
X834578Y351310D02*
X866598D01*
X763058D02*
X819338D01*
Y346310D02*
Y351310D01*
Y346310D02*
X834578D01*
Y351310D01*
X716598Y347560D02*
Y351310D01*
X866598Y290060D02*
Y315060D01*
X716598Y290060D02*
X866598D01*
X716598D02*
Y315060D01*
X747818Y346310D02*
Y351310D01*
Y346310D02*
X763058D01*
Y351310D01*
X716598D02*
X747818D01*
X866598Y347560D02*
Y351310D01*
D12*
X704088Y1604010D02*
Y1620520D01*
X719328D01*
Y1604010D02*
Y1620520D01*
X704088Y1604010D02*
X719328D01*
X830688D02*
X845928D01*
X830688D02*
Y1620520D01*
X845928D01*
Y1604010D02*
Y1620520D01*
X674100Y1633910D02*
X878170D01*
X878440Y1590294D02*
Y1593850D01*
X851770Y1590294D02*
X878440D01*
X673100D02*
X699770D01*
X673100D02*
Y1593850D01*
X484810Y1604176D02*
Y1620686D01*
X500050D01*
Y1604176D02*
Y1620686D01*
X484810Y1604176D02*
X500050D01*
X611410D02*
X626650D01*
X611410D02*
Y1620686D01*
X626650D01*
Y1604176D02*
Y1620686D01*
X454822Y1634076D02*
X658892D01*
X659162Y1590460D02*
Y1594016D01*
X632492Y1590460D02*
X659162D01*
X453822D02*
X480492D01*
X453822D02*
Y1594016D01*
X420370Y1533395D02*
X426175Y1518158D01*
X431979Y1533395D02*
X426175Y1518158D01*
X444821Y1529767D02*
X444096Y1531218D01*
X442645Y1532669D01*
X441194Y1533395D01*
X438291D01*
X436840Y1532669D01*
X435389Y1531218D01*
X434664Y1529767D01*
X433938Y1527590D01*
Y1523963D01*
X434664Y1521786D01*
X435389Y1520335D01*
X436840Y1518884D01*
X438291Y1518158D01*
X441194D01*
X442645Y1518884D01*
X444096Y1520335D01*
X444821Y1521786D01*
X459986Y1529767D02*
X459260Y1531218D01*
X457809Y1532669D01*
X456358Y1533395D01*
X453456D01*
X452004Y1532669D01*
X450553Y1531218D01*
X449828Y1529767D01*
X449102Y1527590D01*
Y1523963D01*
X449828Y1521786D01*
X450553Y1520335D01*
X452004Y1518884D01*
X453456Y1518158D01*
X456358D01*
X457809Y1518884D01*
X459260Y1520335D01*
X459986Y1521786D01*
X464266Y1530493D02*
X465717Y1531218D01*
X467894Y1533395D01*
Y1518158D01*
X476166Y1529767D02*
Y1530493D01*
X476891Y1531944D01*
X477617Y1532669D01*
X479068Y1533395D01*
X481970D01*
X483421Y1532669D01*
X484147Y1531944D01*
X484872Y1530493D01*
Y1529041D01*
X484147Y1527590D01*
X482696Y1525414D01*
X475440Y1518158D01*
X485598D01*
X489008Y1533395D02*
X494812Y1518158D01*
X500617Y1533395D02*
X494812Y1518158D01*
X383973Y1503973D02*
X385424Y1504698D01*
X386875Y1506149D01*
X387601Y1507600D01*
Y1510503D01*
X386875Y1511954D01*
X385424Y1513405D01*
X383973Y1514130D01*
X381796Y1514856D01*
X378168D01*
X375992Y1514130D01*
X374541Y1513405D01*
X373090Y1511954D01*
X372364Y1510503D01*
Y1507600D01*
X373090Y1506149D01*
X374541Y1504698D01*
X375992Y1503973D01*
X378168D01*
Y1507600D02*
Y1503973D01*
X387601Y1500490D02*
X372364D01*
X387601D02*
X372364Y1490332D01*
X387601D02*
X372364D01*
X387601Y1486124D02*
X372364D01*
X387601D02*
Y1481045D01*
X386875Y1478868D01*
X385424Y1477417D01*
X383973Y1476692D01*
X381796Y1475966D01*
X378168D01*
X375992Y1476692D01*
X374541Y1477417D01*
X373090Y1478868D01*
X372364Y1481045D01*
Y1486124D01*
X362201Y1514348D02*
X346964D01*
Y1505641D01*
X362201Y1503972D02*
X346964D01*
X362201Y1500780D02*
X346964D01*
X362201D02*
X346964Y1490622D01*
X362201D02*
X346964D01*
X1553678Y1277275D02*
X1559483Y1262039D01*
X1565287Y1277275D02*
X1559483Y1262039D01*
X1578130Y1273648D02*
X1577404Y1275099D01*
X1575953Y1276550D01*
X1574502Y1277275D01*
X1571600D01*
X1570148Y1276550D01*
X1568697Y1275099D01*
X1567972Y1273648D01*
X1567246Y1271471D01*
Y1267843D01*
X1567972Y1265667D01*
X1568697Y1264215D01*
X1570148Y1262764D01*
X1571600Y1262039D01*
X1574502D01*
X1575953Y1262764D01*
X1577404Y1264215D01*
X1578130Y1265667D01*
X1593294Y1273648D02*
X1592568Y1275099D01*
X1591117Y1276550D01*
X1589666Y1277275D01*
X1586764D01*
X1585313Y1276550D01*
X1583862Y1275099D01*
X1583136Y1273648D01*
X1582410Y1271471D01*
Y1267843D01*
X1583136Y1265667D01*
X1583862Y1264215D01*
X1585313Y1262764D01*
X1586764Y1262039D01*
X1589666D01*
X1591117Y1262764D01*
X1592568Y1264215D01*
X1593294Y1265667D01*
X1597575Y1274373D02*
X1599026Y1275099D01*
X1601202Y1277275D01*
Y1262039D01*
X1609474Y1273648D02*
Y1274373D01*
X1610199Y1275824D01*
X1610925Y1276550D01*
X1612376Y1277275D01*
X1615278D01*
X1616729Y1276550D01*
X1617455Y1275824D01*
X1618181Y1274373D01*
Y1272922D01*
X1617455Y1271471D01*
X1616004Y1269294D01*
X1608748Y1262039D01*
X1618906D01*
X1622316Y1277275D02*
X1628121Y1262039D01*
X1633925Y1277275D02*
X1628121Y1262039D01*
X1577065Y1302228D02*
X1576340Y1303680D01*
X1574889Y1305131D01*
X1573437Y1305856D01*
X1570535D01*
X1569084Y1305131D01*
X1567633Y1303680D01*
X1566907Y1302228D01*
X1566182Y1300052D01*
Y1296424D01*
X1566907Y1294247D01*
X1567633Y1292796D01*
X1569084Y1291345D01*
X1570535Y1290620D01*
X1573437D01*
X1574889Y1291345D01*
X1576340Y1292796D01*
X1577065Y1294247D01*
Y1296424D01*
X1573437D02*
X1577065D01*
X1580548Y1305856D02*
Y1290620D01*
Y1305856D02*
X1590706Y1290620D01*
Y1305856D02*
Y1290620D01*
X1594914Y1305856D02*
Y1290620D01*
Y1305856D02*
X1599993D01*
X1602170Y1305131D01*
X1603621Y1303680D01*
X1604346Y1302228D01*
X1605072Y1300052D01*
Y1296424D01*
X1604346Y1294247D01*
X1603621Y1292796D01*
X1602170Y1291345D01*
X1599993Y1290620D01*
X1594914D01*
X1566182Y1332526D02*
Y1317289D01*
X1574889D01*
X1576557Y1332526D02*
Y1317289D01*
X1579750Y1332526D02*
Y1317289D01*
Y1332526D02*
X1589908Y1317289D01*
Y1332526D02*
Y1317289D01*
X1566182Y1356656D02*
Y1341420D01*
X1569374Y1356656D02*
Y1341420D01*
Y1356656D02*
X1574453D01*
X1576630Y1355931D01*
X1578081Y1354480D01*
X1578807Y1353028D01*
X1579532Y1350852D01*
Y1347224D01*
X1578807Y1345047D01*
X1578081Y1343596D01*
X1576630Y1342145D01*
X1574453Y1341420D01*
X1569374D01*
X1582942Y1353754D02*
X1584393Y1354480D01*
X1586570Y1356656D01*
Y1341420D01*
X1566182Y1383326D02*
Y1368089D01*
X1569374Y1383326D02*
Y1368089D01*
Y1383326D02*
X1574453D01*
X1576630Y1382601D01*
X1578081Y1381150D01*
X1578807Y1379698D01*
X1579532Y1377522D01*
Y1373894D01*
X1578807Y1371717D01*
X1578081Y1370266D01*
X1576630Y1368815D01*
X1574453Y1368089D01*
X1569374D01*
X1583668Y1379698D02*
Y1380424D01*
X1584393Y1381875D01*
X1585119Y1382601D01*
X1586570Y1383326D01*
X1589472D01*
X1590923Y1382601D01*
X1591649Y1381875D01*
X1592375Y1380424D01*
Y1378973D01*
X1591649Y1377522D01*
X1590198Y1375345D01*
X1582942Y1368089D01*
X1593100D01*
X1566182Y1408726D02*
Y1393490D01*
X1569374Y1408726D02*
Y1393490D01*
Y1408726D02*
X1574453D01*
X1576630Y1408001D01*
X1578081Y1406550D01*
X1578807Y1405098D01*
X1579532Y1402922D01*
Y1399294D01*
X1578807Y1397117D01*
X1578081Y1395666D01*
X1576630Y1394215D01*
X1574453Y1393490D01*
X1569374D01*
X1584393Y1408726D02*
X1592375D01*
X1588021Y1402922D01*
X1590198D01*
X1591649Y1402196D01*
X1592375Y1401471D01*
X1593100Y1399294D01*
Y1397843D01*
X1592375Y1395666D01*
X1590923Y1394215D01*
X1588747Y1393490D01*
X1586570D01*
X1584393Y1394215D01*
X1583668Y1394941D01*
X1582942Y1396392D01*
X1553522Y889193D02*
X1559327Y873956D01*
X1565131Y889193D02*
X1559327Y873956D01*
X1577974Y885565D02*
X1577248Y887016D01*
X1575797Y888467D01*
X1574346Y889193D01*
X1571443D01*
X1569992Y888467D01*
X1568541Y887016D01*
X1567816Y885565D01*
X1567090Y883388D01*
Y879760D01*
X1567816Y877584D01*
X1568541Y876133D01*
X1569992Y874681D01*
X1571443Y873956D01*
X1574346D01*
X1575797Y874681D01*
X1577248Y876133D01*
X1577974Y877584D01*
X1593138Y885565D02*
X1592412Y887016D01*
X1590961Y888467D01*
X1589510Y889193D01*
X1586608D01*
X1585157Y888467D01*
X1583705Y887016D01*
X1582980Y885565D01*
X1582254Y883388D01*
Y879760D01*
X1582980Y877584D01*
X1583705Y876133D01*
X1585157Y874681D01*
X1586608Y873956D01*
X1589510D01*
X1590961Y874681D01*
X1592412Y876133D01*
X1593138Y877584D01*
X1597419Y886290D02*
X1598870Y887016D01*
X1601046Y889193D01*
Y873956D01*
X1609318Y885565D02*
Y886290D01*
X1610043Y887741D01*
X1610769Y888467D01*
X1612220Y889193D01*
X1615122D01*
X1616573Y888467D01*
X1617299Y887741D01*
X1618024Y886290D01*
Y884839D01*
X1617299Y883388D01*
X1615848Y881211D01*
X1608592Y873956D01*
X1618750D01*
X1622160Y889193D02*
X1627964Y873956D01*
X1633769Y889193D02*
X1627964Y873956D01*
X1576909Y914146D02*
X1576184Y915597D01*
X1574733Y917048D01*
X1573281Y917773D01*
X1570379D01*
X1568928Y917048D01*
X1567477Y915597D01*
X1566751Y914146D01*
X1566026Y911969D01*
Y908341D01*
X1566751Y906164D01*
X1567477Y904713D01*
X1568928Y903262D01*
X1570379Y902537D01*
X1573281D01*
X1574733Y903262D01*
X1576184Y904713D01*
X1576909Y906164D01*
Y908341D01*
X1573281D02*
X1576909D01*
X1580392Y917773D02*
Y902537D01*
Y917773D02*
X1590550Y902537D01*
Y917773D02*
Y902537D01*
X1594758Y917773D02*
Y902537D01*
Y917773D02*
X1599837D01*
X1602014Y917048D01*
X1603465Y915597D01*
X1604190Y914146D01*
X1604916Y911969D01*
Y908341D01*
X1604190Y906164D01*
X1603465Y904713D01*
X1602014Y903262D01*
X1599837Y902537D01*
X1594758D01*
X1566026Y944443D02*
Y929207D01*
X1574733D01*
X1576401Y944443D02*
Y929207D01*
X1579594Y944443D02*
Y929207D01*
Y944443D02*
X1589751Y929207D01*
Y944443D02*
Y929207D01*
X1566026Y968573D02*
Y953337D01*
X1569218Y968573D02*
Y953337D01*
Y968573D02*
X1574297D01*
X1576474Y967848D01*
X1577925Y966397D01*
X1578651Y964946D01*
X1579376Y962769D01*
Y959141D01*
X1578651Y956964D01*
X1577925Y955513D01*
X1576474Y954062D01*
X1574297Y953337D01*
X1569218D01*
X1582786Y965671D02*
X1584237Y966397D01*
X1586414Y968573D01*
Y953337D01*
X1566026Y995243D02*
Y980007D01*
X1569218Y995243D02*
Y980007D01*
Y995243D02*
X1574297D01*
X1576474Y994518D01*
X1577925Y993067D01*
X1578651Y991616D01*
X1579376Y989439D01*
Y985811D01*
X1578651Y983634D01*
X1577925Y982183D01*
X1576474Y980732D01*
X1574297Y980007D01*
X1569218D01*
X1583512Y991616D02*
Y992341D01*
X1584237Y993792D01*
X1584963Y994518D01*
X1586414Y995243D01*
X1589316D01*
X1590767Y994518D01*
X1591493Y993792D01*
X1592218Y992341D01*
Y990890D01*
X1591493Y989439D01*
X1590042Y987262D01*
X1582786Y980007D01*
X1592944D01*
X1566026Y1020643D02*
Y1005407D01*
X1569218Y1020643D02*
Y1005407D01*
Y1020643D02*
X1574297D01*
X1576474Y1019918D01*
X1577925Y1018467D01*
X1578651Y1017016D01*
X1579376Y1014839D01*
Y1011211D01*
X1578651Y1009034D01*
X1577925Y1007583D01*
X1576474Y1006132D01*
X1574297Y1005407D01*
X1569218D01*
X1584237Y1020643D02*
X1592218D01*
X1587865Y1014839D01*
X1590042D01*
X1591493Y1014113D01*
X1592218Y1013388D01*
X1592944Y1011211D01*
Y1009760D01*
X1592218Y1007583D01*
X1590767Y1006132D01*
X1588591Y1005407D01*
X1586414D01*
X1584237Y1006132D01*
X1583512Y1006858D01*
X1582786Y1008309D01*
X1553366Y501110D02*
X1559171Y485873D01*
X1564975Y501110D02*
X1559171Y485873D01*
X1577817Y497482D02*
X1577092Y498933D01*
X1575641Y500384D01*
X1574190Y501110D01*
X1571287D01*
X1569836Y500384D01*
X1568385Y498933D01*
X1567660Y497482D01*
X1566934Y495305D01*
Y491677D01*
X1567660Y489501D01*
X1568385Y488050D01*
X1569836Y486598D01*
X1571287Y485873D01*
X1574190D01*
X1575641Y486598D01*
X1577092Y488050D01*
X1577817Y489501D01*
X1592982Y497482D02*
X1592256Y498933D01*
X1590805Y500384D01*
X1589354Y501110D01*
X1586452D01*
X1585000Y500384D01*
X1583549Y498933D01*
X1582824Y497482D01*
X1582098Y495305D01*
Y491677D01*
X1582824Y489501D01*
X1583549Y488050D01*
X1585000Y486598D01*
X1586452Y485873D01*
X1589354D01*
X1590805Y486598D01*
X1592256Y488050D01*
X1592982Y489501D01*
X1597262Y498207D02*
X1598714Y498933D01*
X1600890Y501110D01*
Y485873D01*
X1609162Y497482D02*
Y498207D01*
X1609887Y499659D01*
X1610613Y500384D01*
X1612064Y501110D01*
X1614966D01*
X1616417Y500384D01*
X1617143Y499659D01*
X1617868Y498207D01*
Y496756D01*
X1617143Y495305D01*
X1615692Y493129D01*
X1608436Y485873D01*
X1618594D01*
X1622004Y501110D02*
X1627808Y485873D01*
X1633613Y501110D02*
X1627808Y485873D01*
X1576753Y526063D02*
X1576028Y527514D01*
X1574576Y528965D01*
X1573125Y529690D01*
X1570223D01*
X1568772Y528965D01*
X1567321Y527514D01*
X1566595Y526063D01*
X1565870Y523886D01*
Y520258D01*
X1566595Y518082D01*
X1567321Y516630D01*
X1568772Y515179D01*
X1570223Y514454D01*
X1573125D01*
X1574576Y515179D01*
X1576028Y516630D01*
X1576753Y518082D01*
Y520258D01*
X1573125D02*
X1576753D01*
X1580236Y529690D02*
Y514454D01*
Y529690D02*
X1590394Y514454D01*
Y529690D02*
Y514454D01*
X1594602Y529690D02*
Y514454D01*
Y529690D02*
X1599681D01*
X1601857Y528965D01*
X1603309Y527514D01*
X1604034Y526063D01*
X1604760Y523886D01*
Y520258D01*
X1604034Y518082D01*
X1603309Y516630D01*
X1601857Y515179D01*
X1599681Y514454D01*
X1594602D01*
X1565870Y556360D02*
Y541124D01*
X1574576D01*
X1576245Y556360D02*
Y541124D01*
X1579438Y556360D02*
Y541124D01*
Y556360D02*
X1589595Y541124D01*
Y556360D02*
Y541124D01*
X1565870Y580490D02*
Y565254D01*
X1569062Y580490D02*
Y565254D01*
Y580490D02*
X1574141D01*
X1576318Y579765D01*
X1577769Y578314D01*
X1578494Y576863D01*
X1579220Y574686D01*
Y571058D01*
X1578494Y568881D01*
X1577769Y567430D01*
X1576318Y565979D01*
X1574141Y565254D01*
X1569062D01*
X1582630Y577588D02*
X1584081Y578314D01*
X1586258Y580490D01*
Y565254D01*
X1565870Y607160D02*
Y591924D01*
X1569062Y607160D02*
Y591924D01*
Y607160D02*
X1574141D01*
X1576318Y606435D01*
X1577769Y604984D01*
X1578494Y603533D01*
X1579220Y601356D01*
Y597728D01*
X1578494Y595551D01*
X1577769Y594100D01*
X1576318Y592649D01*
X1574141Y591924D01*
X1569062D01*
X1583356Y603533D02*
Y604258D01*
X1584081Y605709D01*
X1584807Y606435D01*
X1586258Y607160D01*
X1589160D01*
X1590611Y606435D01*
X1591337Y605709D01*
X1592062Y604258D01*
Y602807D01*
X1591337Y601356D01*
X1589886Y599179D01*
X1582630Y591924D01*
X1592788D01*
X1565870Y632560D02*
Y617324D01*
X1569062Y632560D02*
Y617324D01*
Y632560D02*
X1574141D01*
X1576318Y631835D01*
X1577769Y630384D01*
X1578494Y628933D01*
X1579220Y626756D01*
Y623128D01*
X1578494Y620951D01*
X1577769Y619500D01*
X1576318Y618049D01*
X1574141Y617324D01*
X1569062D01*
X1584081Y632560D02*
X1592062D01*
X1587709Y626756D01*
X1589886D01*
X1591337Y626030D01*
X1592062Y625305D01*
X1592788Y623128D01*
Y621677D01*
X1592062Y619500D01*
X1590611Y618049D01*
X1588434Y617324D01*
X1586258D01*
X1584081Y618049D01*
X1583356Y618775D01*
X1582630Y620226D01*
X1565714Y244478D02*
Y229241D01*
X1568906Y244478D02*
Y229241D01*
Y244478D02*
X1573985D01*
X1576162Y243752D01*
X1577613Y242301D01*
X1578338Y240850D01*
X1579064Y238673D01*
Y235045D01*
X1578338Y232869D01*
X1577613Y231418D01*
X1576162Y229966D01*
X1573985Y229241D01*
X1568906D01*
X1583925Y244478D02*
X1591906D01*
X1587553Y238673D01*
X1589729D01*
X1591181Y237948D01*
X1591906Y237222D01*
X1592632Y235045D01*
Y233594D01*
X1591906Y231418D01*
X1590455Y229966D01*
X1588278Y229241D01*
X1586102D01*
X1583925Y229966D01*
X1583199Y230692D01*
X1582474Y232143D01*
X1565714Y219077D02*
Y203841D01*
X1568906Y219077D02*
Y203841D01*
Y219077D02*
X1573985D01*
X1576162Y218352D01*
X1577613Y216901D01*
X1578338Y215450D01*
X1579064Y213273D01*
Y209645D01*
X1578338Y207469D01*
X1577613Y206017D01*
X1576162Y204566D01*
X1573985Y203841D01*
X1568906D01*
X1583199Y215450D02*
Y216175D01*
X1583925Y217626D01*
X1584651Y218352D01*
X1586102Y219077D01*
X1589004D01*
X1590455Y218352D01*
X1591181Y217626D01*
X1591906Y216175D01*
Y214724D01*
X1591181Y213273D01*
X1589729Y211096D01*
X1582474Y203841D01*
X1592632D01*
X1565714Y192407D02*
Y177171D01*
X1568906Y192407D02*
Y177171D01*
Y192407D02*
X1573985D01*
X1576162Y191682D01*
X1577613Y190231D01*
X1578338Y188780D01*
X1579064Y186603D01*
Y182975D01*
X1578338Y180799D01*
X1577613Y179347D01*
X1576162Y177896D01*
X1573985Y177171D01*
X1568906D01*
X1582474Y189505D02*
X1583925Y190231D01*
X1586102Y192407D01*
Y177171D01*
X1565714Y168277D02*
Y153041D01*
X1574420D01*
X1576089Y168277D02*
Y153041D01*
X1579281Y168277D02*
Y153041D01*
Y168277D02*
X1589439Y153041D01*
Y168277D02*
Y153041D01*
X1576597Y137980D02*
X1575871Y139431D01*
X1574420Y140882D01*
X1572969Y141608D01*
X1570067D01*
X1568616Y140882D01*
X1567165Y139431D01*
X1566439Y137980D01*
X1565714Y135803D01*
Y132175D01*
X1566439Y129999D01*
X1567165Y128547D01*
X1568616Y127096D01*
X1570067Y126371D01*
X1572969D01*
X1574420Y127096D01*
X1575871Y128547D01*
X1576597Y129999D01*
Y132175D01*
X1572969D02*
X1576597D01*
X1580080Y141608D02*
Y126371D01*
Y141608D02*
X1590237Y126371D01*
Y141608D02*
Y126371D01*
X1594446Y141608D02*
Y126371D01*
Y141608D02*
X1599525D01*
X1601701Y140882D01*
X1603152Y139431D01*
X1603878Y137980D01*
X1604603Y135803D01*
Y132175D01*
X1603878Y129999D01*
X1603152Y128547D01*
X1601701Y127096D01*
X1599525Y126371D01*
X1594446D01*
X1553210Y113027D02*
X1559014Y97790D01*
X1564819Y113027D02*
X1559014Y97790D01*
X1577661Y109399D02*
X1576936Y110850D01*
X1575485Y112301D01*
X1574034Y113027D01*
X1571131D01*
X1569680Y112301D01*
X1568229Y110850D01*
X1567504Y109399D01*
X1566778Y107222D01*
Y103595D01*
X1567504Y101418D01*
X1568229Y99967D01*
X1569680Y98516D01*
X1571131Y97790D01*
X1574034D01*
X1575485Y98516D01*
X1576936Y99967D01*
X1577661Y101418D01*
X1592825Y109399D02*
X1592100Y110850D01*
X1590649Y112301D01*
X1589198Y113027D01*
X1586295D01*
X1584844Y112301D01*
X1583393Y110850D01*
X1582668Y109399D01*
X1581942Y107222D01*
Y103595D01*
X1582668Y101418D01*
X1583393Y99967D01*
X1584844Y98516D01*
X1586295Y97790D01*
X1589198D01*
X1590649Y98516D01*
X1592100Y99967D01*
X1592825Y101418D01*
X1597106Y110125D02*
X1598557Y110850D01*
X1600734Y113027D01*
Y97790D01*
X1609005Y109399D02*
Y110125D01*
X1609731Y111576D01*
X1610457Y112301D01*
X1611908Y113027D01*
X1614810D01*
X1616261Y112301D01*
X1616987Y111576D01*
X1617712Y110125D01*
Y108673D01*
X1616987Y107222D01*
X1615535Y105046D01*
X1608280Y97790D01*
X1618438D01*
X1621848Y113027D02*
X1627652Y97790D01*
X1633457Y113027D02*
X1627652Y97790D01*
X270042Y272118D02*
Y256881D01*
X273234Y272118D02*
Y256881D01*
Y272118D02*
X278313D01*
X280490Y271392D01*
X281941Y269941D01*
X282666Y268490D01*
X283392Y266314D01*
Y262686D01*
X282666Y260509D01*
X281941Y259058D01*
X280490Y257607D01*
X278313Y256881D01*
X273234D01*
X288253Y272118D02*
X296234D01*
X291881Y266314D01*
X294058D01*
X295509Y265588D01*
X296234Y264862D01*
X296960Y262686D01*
Y261235D01*
X296234Y259058D01*
X294783Y257607D01*
X292607Y256881D01*
X290430D01*
X288253Y257607D01*
X287528Y258333D01*
X286802Y259784D01*
X270042Y246718D02*
Y231481D01*
X273234Y246718D02*
Y231481D01*
Y246718D02*
X278313D01*
X280490Y245993D01*
X281941Y244541D01*
X282666Y243090D01*
X283392Y240914D01*
Y237286D01*
X282666Y235109D01*
X281941Y233658D01*
X280490Y232207D01*
X278313Y231481D01*
X273234D01*
X287528Y243090D02*
Y243816D01*
X288253Y245267D01*
X288979Y245993D01*
X290430Y246718D01*
X293332D01*
X294783Y245993D01*
X295509Y245267D01*
X296234Y243816D01*
Y242365D01*
X295509Y240914D01*
X294058Y238737D01*
X286802Y231481D01*
X296960D01*
X270042Y220048D02*
Y204811D01*
X273234Y220048D02*
Y204811D01*
Y220048D02*
X278313D01*
X280490Y219322D01*
X281941Y217871D01*
X282666Y216420D01*
X283392Y214244D01*
Y210616D01*
X282666Y208439D01*
X281941Y206988D01*
X280490Y205537D01*
X278313Y204811D01*
X273234D01*
X286802Y217146D02*
X288253Y217871D01*
X290430Y220048D01*
Y204811D01*
X270042Y195918D02*
Y180681D01*
X278748D01*
X280417Y195918D02*
Y180681D01*
X283610Y195918D02*
Y180681D01*
Y195918D02*
X293767Y180681D01*
Y195918D02*
Y180681D01*
X280925Y165620D02*
X280200Y167071D01*
X278748Y168522D01*
X277297Y169248D01*
X274395D01*
X272944Y168522D01*
X271493Y167071D01*
X270767Y165620D01*
X270042Y163444D01*
Y159816D01*
X270767Y157639D01*
X271493Y156188D01*
X272944Y154737D01*
X274395Y154011D01*
X277297D01*
X278748Y154737D01*
X280200Y156188D01*
X280925Y157639D01*
Y159816D01*
X277297D02*
X280925D01*
X284408Y169248D02*
Y154011D01*
Y169248D02*
X294566Y154011D01*
Y169248D02*
Y154011D01*
X298774Y169248D02*
Y154011D01*
Y169248D02*
X303853D01*
X306029Y168522D01*
X307481Y167071D01*
X308206Y165620D01*
X308932Y163444D01*
Y159816D01*
X308206Y157639D01*
X307481Y156188D01*
X306029Y154737D01*
X303853Y154011D01*
X298774D01*
X270042Y141308D02*
X275846Y126071D01*
X281651Y141308D02*
X275846Y126071D01*
X294493Y137680D02*
X293767Y139131D01*
X292316Y140583D01*
X290865Y141308D01*
X287963D01*
X286512Y140583D01*
X285061Y139131D01*
X284335Y137680D01*
X283610Y135504D01*
Y131876D01*
X284335Y129699D01*
X285061Y128248D01*
X286512Y126797D01*
X287963Y126071D01*
X290865D01*
X292316Y126797D01*
X293767Y128248D01*
X294493Y129699D01*
X309657Y137680D02*
X308932Y139131D01*
X307481Y140583D01*
X306029Y141308D01*
X303127D01*
X301676Y140583D01*
X300225Y139131D01*
X299499Y137680D01*
X298774Y135504D01*
Y131876D01*
X299499Y129699D01*
X300225Y128248D01*
X301676Y126797D01*
X303127Y126071D01*
X306029D01*
X307481Y126797D01*
X308932Y128248D01*
X309657Y129699D01*
X313938Y138406D02*
X315389Y139131D01*
X317566Y141308D01*
Y126071D01*
X325837Y137680D02*
Y138406D01*
X326563Y139857D01*
X327288Y140583D01*
X328739Y141308D01*
X331642D01*
X333093Y140583D01*
X333818Y139857D01*
X334544Y138406D01*
Y136955D01*
X333818Y135504D01*
X332367Y133327D01*
X325112Y126071D01*
X335269D01*
X338680Y141308D02*
X344484Y126071D01*
X350289Y141308D02*
X344484Y126071D01*
X270198Y660201D02*
Y644964D01*
X273390Y660201D02*
Y644964D01*
Y660201D02*
X278469D01*
X280646Y659475D01*
X282097Y658024D01*
X282822Y656573D01*
X283548Y654397D01*
Y650769D01*
X282822Y648592D01*
X282097Y647141D01*
X280646Y645690D01*
X278469Y644964D01*
X273390D01*
X288409Y660201D02*
X296390D01*
X292037Y654397D01*
X294214D01*
X295665Y653671D01*
X296390Y652945D01*
X297116Y650769D01*
Y649318D01*
X296390Y647141D01*
X294939Y645690D01*
X292763Y644964D01*
X290586D01*
X288409Y645690D01*
X287684Y646415D01*
X286958Y647866D01*
X270198Y634801D02*
Y619564D01*
X273390Y634801D02*
Y619564D01*
Y634801D02*
X278469D01*
X280646Y634075D01*
X282097Y632624D01*
X282822Y631173D01*
X283548Y628997D01*
Y625369D01*
X282822Y623192D01*
X282097Y621741D01*
X280646Y620290D01*
X278469Y619564D01*
X273390D01*
X287684Y631173D02*
Y631899D01*
X288409Y633350D01*
X289135Y634075D01*
X290586Y634801D01*
X293488D01*
X294939Y634075D01*
X295665Y633350D01*
X296390Y631899D01*
Y630448D01*
X295665Y628997D01*
X294214Y626820D01*
X286958Y619564D01*
X297116D01*
X270198Y608131D02*
Y592894D01*
X273390Y608131D02*
Y592894D01*
Y608131D02*
X278469D01*
X280646Y607405D01*
X282097Y605954D01*
X282822Y604503D01*
X283548Y602327D01*
Y598699D01*
X282822Y596522D01*
X282097Y595071D01*
X280646Y593620D01*
X278469Y592894D01*
X273390D01*
X286958Y605229D02*
X288409Y605954D01*
X290586Y608131D01*
Y592894D01*
X270198Y584001D02*
Y568764D01*
X278904D01*
X280573Y584001D02*
Y568764D01*
X283766Y584001D02*
Y568764D01*
Y584001D02*
X293923Y568764D01*
Y584001D02*
Y568764D01*
X281081Y553703D02*
X280356Y555154D01*
X278904Y556605D01*
X277453Y557331D01*
X274551D01*
X273100Y556605D01*
X271649Y555154D01*
X270923Y553703D01*
X270198Y551526D01*
Y547899D01*
X270923Y545722D01*
X271649Y544271D01*
X273100Y542820D01*
X274551Y542094D01*
X277453D01*
X278904Y542820D01*
X280356Y544271D01*
X281081Y545722D01*
Y547899D01*
X277453D02*
X281081D01*
X284564Y557331D02*
Y542094D01*
Y557331D02*
X294722Y542094D01*
Y557331D02*
Y542094D01*
X298930Y557331D02*
Y542094D01*
Y557331D02*
X304009D01*
X306185Y556605D01*
X307637Y555154D01*
X308362Y553703D01*
X309088Y551526D01*
Y547899D01*
X308362Y545722D01*
X307637Y544271D01*
X306185Y542820D01*
X304009Y542094D01*
X298930D01*
X270198Y529391D02*
X276002Y514154D01*
X281807Y529391D02*
X276002Y514154D01*
X294649Y525763D02*
X293923Y527214D01*
X292472Y528665D01*
X291021Y529391D01*
X288119D01*
X286668Y528665D01*
X285217Y527214D01*
X284491Y525763D01*
X283766Y523587D01*
Y519959D01*
X284491Y517782D01*
X285217Y516331D01*
X286668Y514880D01*
X288119Y514154D01*
X291021D01*
X292472Y514880D01*
X293923Y516331D01*
X294649Y517782D01*
X309813Y525763D02*
X309088Y527214D01*
X307637Y528665D01*
X306185Y529391D01*
X303283D01*
X301832Y528665D01*
X300381Y527214D01*
X299655Y525763D01*
X298930Y523587D01*
Y519959D01*
X299655Y517782D01*
X300381Y516331D01*
X301832Y514880D01*
X303283Y514154D01*
X306185D01*
X307637Y514880D01*
X309088Y516331D01*
X309813Y517782D01*
X314094Y526489D02*
X315545Y527214D01*
X317722Y529391D01*
Y514154D01*
X325993Y525763D02*
Y526489D01*
X326719Y527940D01*
X327444Y528665D01*
X328895Y529391D01*
X331798D01*
X333249Y528665D01*
X333974Y527940D01*
X334700Y526489D01*
Y525038D01*
X333974Y523587D01*
X332523Y521410D01*
X325268Y514154D01*
X335425D01*
X338836Y529391D02*
X344640Y514154D01*
X350445Y529391D02*
X344640Y514154D01*
X270354Y1048284D02*
Y1033047D01*
X273546Y1048284D02*
Y1033047D01*
Y1048284D02*
X278625D01*
X280802Y1047558D01*
X282253Y1046107D01*
X282979Y1044656D01*
X283704Y1042479D01*
Y1038852D01*
X282979Y1036675D01*
X282253Y1035224D01*
X280802Y1033773D01*
X278625Y1033047D01*
X273546D01*
X288565Y1048284D02*
X296546D01*
X292193Y1042479D01*
X294370D01*
X295821Y1041754D01*
X296546Y1041028D01*
X297272Y1038852D01*
Y1037401D01*
X296546Y1035224D01*
X295095Y1033773D01*
X292919Y1033047D01*
X290742D01*
X288565Y1033773D01*
X287840Y1034498D01*
X287114Y1035949D01*
X270354Y1022884D02*
Y1007647D01*
X273546Y1022884D02*
Y1007647D01*
Y1022884D02*
X278625D01*
X280802Y1022158D01*
X282253Y1020707D01*
X282979Y1019256D01*
X283704Y1017079D01*
Y1013452D01*
X282979Y1011275D01*
X282253Y1009824D01*
X280802Y1008373D01*
X278625Y1007647D01*
X273546D01*
X287840Y1019256D02*
Y1019982D01*
X288565Y1021433D01*
X289291Y1022158D01*
X290742Y1022884D01*
X293644D01*
X295095Y1022158D01*
X295821Y1021433D01*
X296546Y1019982D01*
Y1018531D01*
X295821Y1017079D01*
X294370Y1014903D01*
X287114Y1007647D01*
X297272D01*
X270354Y996214D02*
Y980977D01*
X273546Y996214D02*
Y980977D01*
Y996214D02*
X278625D01*
X280802Y995488D01*
X282253Y994037D01*
X282979Y992586D01*
X283704Y990409D01*
Y986782D01*
X282979Y984605D01*
X282253Y983154D01*
X280802Y981703D01*
X278625Y980977D01*
X273546D01*
X287114Y993312D02*
X288565Y994037D01*
X290742Y996214D01*
Y980977D01*
X270354Y972084D02*
Y956847D01*
X279061D01*
X280729Y972084D02*
Y956847D01*
X283922Y972084D02*
Y956847D01*
Y972084D02*
X294080Y956847D01*
Y972084D02*
Y956847D01*
X281237Y941786D02*
X280512Y943237D01*
X279061Y944688D01*
X277610Y945414D01*
X274707D01*
X273256Y944688D01*
X271805Y943237D01*
X271079Y941786D01*
X270354Y939609D01*
Y935982D01*
X271079Y933805D01*
X271805Y932354D01*
X273256Y930903D01*
X274707Y930177D01*
X277610D01*
X279061Y930903D01*
X280512Y932354D01*
X281237Y933805D01*
Y935982D01*
X277610D02*
X281237D01*
X284720Y945414D02*
Y930177D01*
Y945414D02*
X294878Y930177D01*
Y945414D02*
Y930177D01*
X299086Y945414D02*
Y930177D01*
Y945414D02*
X304165D01*
X306342Y944688D01*
X307793Y943237D01*
X308518Y941786D01*
X309244Y939609D01*
Y935982D01*
X308518Y933805D01*
X307793Y932354D01*
X306342Y930903D01*
X304165Y930177D01*
X299086D01*
X270354Y917474D02*
X276158Y902237D01*
X281963Y917474D02*
X276158Y902237D01*
X294805Y913846D02*
X294080Y915297D01*
X292628Y916748D01*
X291177Y917474D01*
X288275D01*
X286824Y916748D01*
X285373Y915297D01*
X284647Y913846D01*
X283922Y911669D01*
Y908042D01*
X284647Y905865D01*
X285373Y904414D01*
X286824Y902963D01*
X288275Y902237D01*
X291177D01*
X292628Y902963D01*
X294080Y904414D01*
X294805Y905865D01*
X309969Y913846D02*
X309244Y915297D01*
X307793Y916748D01*
X306342Y917474D01*
X303439D01*
X301988Y916748D01*
X300537Y915297D01*
X299812Y913846D01*
X299086Y911669D01*
Y908042D01*
X299812Y905865D01*
X300537Y904414D01*
X301988Y902963D01*
X303439Y902237D01*
X306342D01*
X307793Y902963D01*
X309244Y904414D01*
X309969Y905865D01*
X314250Y914572D02*
X315701Y915297D01*
X317878Y917474D01*
Y902237D01*
X326149Y913846D02*
Y914572D01*
X326875Y916023D01*
X327601Y916748D01*
X329052Y917474D01*
X331954D01*
X333405Y916748D01*
X334131Y916023D01*
X334856Y914572D01*
Y913120D01*
X334131Y911669D01*
X332679Y909493D01*
X325424Y902237D01*
X335582D01*
X338992Y917474D02*
X344796Y902237D01*
X350601Y917474D02*
X344796Y902237D01*
X270510Y1305557D02*
X276315Y1290320D01*
X282119Y1305557D02*
X276315Y1290320D01*
X294961Y1301929D02*
X294236Y1303380D01*
X292785Y1304831D01*
X291334Y1305557D01*
X288431D01*
X286980Y1304831D01*
X285529Y1303380D01*
X284804Y1301929D01*
X284078Y1299752D01*
Y1296125D01*
X284804Y1293948D01*
X285529Y1292497D01*
X286980Y1291046D01*
X288431Y1290320D01*
X291334D01*
X292785Y1291046D01*
X294236Y1292497D01*
X294961Y1293948D01*
X310126Y1301929D02*
X309400Y1303380D01*
X307949Y1304831D01*
X306498Y1305557D01*
X303596D01*
X302144Y1304831D01*
X300693Y1303380D01*
X299968Y1301929D01*
X299242Y1299752D01*
Y1296125D01*
X299968Y1293948D01*
X300693Y1292497D01*
X302144Y1291046D01*
X303596Y1290320D01*
X306498D01*
X307949Y1291046D01*
X309400Y1292497D01*
X310126Y1293948D01*
X314406Y1302655D02*
X315857Y1303380D01*
X318034Y1305557D01*
Y1290320D01*
X326306Y1301929D02*
Y1302655D01*
X327031Y1304106D01*
X327757Y1304831D01*
X329208Y1305557D01*
X332110D01*
X333561Y1304831D01*
X334287Y1304106D01*
X335012Y1302655D01*
Y1301203D01*
X334287Y1299752D01*
X332836Y1297576D01*
X325580Y1290320D01*
X335738D01*
X339148Y1305557D02*
X344952Y1290320D01*
X350757Y1305557D02*
X344952Y1290320D01*
X281393Y1329869D02*
X280668Y1331320D01*
X279217Y1332771D01*
X277766Y1333497D01*
X274863D01*
X273412Y1332771D01*
X271961Y1331320D01*
X271236Y1329869D01*
X270510Y1327692D01*
Y1324064D01*
X271236Y1321888D01*
X271961Y1320437D01*
X273412Y1318986D01*
X274863Y1318260D01*
X277766D01*
X279217Y1318986D01*
X280668Y1320437D01*
X281393Y1321888D01*
Y1324064D01*
X277766D02*
X281393D01*
X284876Y1333497D02*
Y1318260D01*
Y1333497D02*
X295034Y1318260D01*
Y1333497D02*
Y1318260D01*
X299242Y1333497D02*
Y1318260D01*
Y1333497D02*
X304321D01*
X306498Y1332771D01*
X307949Y1331320D01*
X308674Y1329869D01*
X309400Y1327692D01*
Y1324064D01*
X308674Y1321888D01*
X307949Y1320437D01*
X306498Y1318986D01*
X304321Y1318260D01*
X299242D01*
X270510Y1360167D02*
Y1344930D01*
X279217D01*
X280886Y1360167D02*
Y1344930D01*
X284078Y1360167D02*
Y1344930D01*
Y1360167D02*
X294236Y1344930D01*
Y1360167D02*
Y1344930D01*
X270510Y1384297D02*
Y1369060D01*
X273702Y1384297D02*
Y1369060D01*
Y1384297D02*
X278781D01*
X280958Y1383571D01*
X282409Y1382120D01*
X283135Y1380669D01*
X283860Y1378492D01*
Y1374865D01*
X283135Y1372688D01*
X282409Y1371237D01*
X280958Y1369786D01*
X278781Y1369060D01*
X273702D01*
X287270Y1381395D02*
X288722Y1382120D01*
X290898Y1384297D01*
Y1369060D01*
X270510Y1410967D02*
Y1395730D01*
X273702Y1410967D02*
Y1395730D01*
Y1410967D02*
X278781D01*
X280958Y1410241D01*
X282409Y1408790D01*
X283135Y1407339D01*
X283860Y1405162D01*
Y1401534D01*
X283135Y1399358D01*
X282409Y1397907D01*
X280958Y1396456D01*
X278781Y1395730D01*
X273702D01*
X287996Y1407339D02*
Y1408065D01*
X288722Y1409516D01*
X289447Y1410241D01*
X290898Y1410967D01*
X293800D01*
X295252Y1410241D01*
X295977Y1409516D01*
X296703Y1408065D01*
Y1406613D01*
X295977Y1405162D01*
X294526Y1402986D01*
X287270Y1395730D01*
X297428D01*
X270510Y1436367D02*
Y1421130D01*
X273702Y1436367D02*
Y1421130D01*
Y1436367D02*
X278781D01*
X280958Y1435641D01*
X282409Y1434190D01*
X283135Y1432739D01*
X283860Y1430562D01*
Y1426935D01*
X283135Y1424758D01*
X282409Y1423307D01*
X280958Y1421856D01*
X278781Y1421130D01*
X273702D01*
X288722Y1436367D02*
X296703D01*
X292349Y1430562D01*
X294526D01*
X295977Y1429837D01*
X296703Y1429111D01*
X297428Y1426935D01*
Y1425483D01*
X296703Y1423307D01*
X295252Y1421856D01*
X293075Y1421130D01*
X290898D01*
X288722Y1421856D01*
X287996Y1422581D01*
X287270Y1424032D01*
D13*
X308610Y1550750D02*
Y1562180D01*
Y1505030D02*
Y1516460D01*
X274320Y1505030D02*
X308610D01*
X207010D02*
X241300D01*
X207010D02*
Y1506300D01*
Y1516460D01*
Y1550750D02*
Y1562180D01*
Y1597740D02*
Y1635840D01*
X308610D01*
Y1597740D02*
Y1635840D01*
X207010Y1625680D02*
X308610D01*
D14*
X1044448Y1510874D02*
X1052912D01*
X1048680D01*
Y1536266D01*
X1044448D01*
X1065608Y1527802D02*
Y1515106D01*
X1069840Y1510874D01*
X1082536D01*
Y1506642D01*
X1078304Y1502410D01*
X1074072D01*
X1082536Y1510874D02*
Y1527802D01*
X1091000Y1536266D02*
Y1510874D01*
Y1523570D01*
X1095232Y1527802D01*
X1103696D01*
X1107927Y1523570D01*
Y1510874D01*
X528609Y1259834D02*
Y1229360D01*
X530061Y1259834D02*
Y1229360D01*
X524256Y1259834D02*
X541669D01*
X546023Y1258382D01*
X547474Y1256931D01*
X548925Y1254029D01*
Y1249676D01*
X547474Y1246773D01*
X546023Y1245322D01*
X541669Y1243871D01*
X530061D01*
X541669Y1259834D02*
X544572Y1258382D01*
X546023Y1256931D01*
X547474Y1254029D01*
Y1249676D01*
X546023Y1246773D01*
X544572Y1245322D01*
X541669Y1243871D01*
X524256Y1229360D02*
X534414D01*
X555890Y1246773D02*
Y1245322D01*
X554439D01*
Y1246773D01*
X555890Y1248224D01*
X558793Y1249676D01*
X564597D01*
X567499Y1248224D01*
X568950Y1246773D01*
X570401Y1243871D01*
Y1233713D01*
X571853Y1230811D01*
X573304Y1229360D01*
X568950Y1246773D02*
Y1233713D01*
X570401Y1230811D01*
X573304Y1229360D01*
X574755D01*
X568950Y1243871D02*
X567499Y1242420D01*
X558793Y1240969D01*
X554439Y1239518D01*
X552988Y1236616D01*
Y1233713D01*
X554439Y1230811D01*
X558793Y1229360D01*
X563146D01*
X566048Y1230811D01*
X568950Y1233713D01*
X558793Y1240969D02*
X555890Y1239518D01*
X554439Y1236616D01*
Y1233713D01*
X555890Y1230811D01*
X558793Y1229360D01*
X583462Y1249676D02*
Y1229360D01*
X584913Y1249676D02*
Y1229360D01*
Y1240969D02*
X586364Y1245322D01*
X589266Y1248224D01*
X592168Y1249676D01*
X596522D01*
X597973Y1248224D01*
Y1246773D01*
X596522Y1245322D01*
X595070Y1246773D01*
X596522Y1248224D01*
X579108Y1249676D02*
X584913D01*
X579108Y1229360D02*
X589266D01*
X611323D02*
X609872Y1230811D01*
X608421Y1235164D01*
Y1259834D01*
X606970D01*
Y1235164D01*
X608421Y1230811D01*
X611323Y1229360D01*
X614225D01*
X617127Y1230811D01*
X618579Y1233713D01*
X602616Y1249676D02*
X614225D01*
X623512Y1259834D02*
Y1251127D01*
Y1254029D02*
X624964Y1256931D01*
X627866Y1259834D01*
X630768D01*
X638024Y1255480D01*
X640926D01*
X642377Y1256931D01*
X643828Y1259834D01*
X624964Y1256931D02*
X627866Y1258382D01*
X630768D01*
X638024Y1255480D01*
X643828Y1259834D02*
Y1255480D01*
X642377Y1251127D01*
X636572Y1243871D01*
X635121Y1240969D01*
X633670Y1236616D01*
Y1229360D01*
X642377Y1251127D02*
X635121Y1243871D01*
X633670Y1240969D01*
X632219Y1236616D01*
Y1229360D01*
X648326Y1242420D02*
X674447D01*
X682718Y1259834D02*
X688522Y1229360D01*
X684169Y1259834D02*
X688522Y1236616D01*
X694327Y1259834D02*
X688522Y1229360D01*
X694327Y1259834D02*
X700131Y1229360D01*
X695778Y1259834D02*
X700131Y1236616D01*
X705936Y1259834D02*
X700131Y1229360D01*
X678365Y1259834D02*
X688522D01*
X701583D02*
X710289D01*
X1041400Y1551092D02*
Y1576484D01*
X1054096D01*
X1058328Y1572252D01*
Y1563788D01*
X1054096Y1559556D01*
X1041400D01*
X1066792Y1551092D02*
X1075256D01*
X1071024D01*
Y1576484D01*
X1066792Y1572252D01*
X1087952D02*
X1092184Y1576484D01*
X1100648D01*
X1104880Y1572252D01*
Y1555324D01*
X1100648Y1551092D01*
X1092184D01*
X1087952Y1555324D01*
Y1572252D01*
X1113343D02*
X1117575Y1576484D01*
X1126039D01*
X1130271Y1572252D01*
Y1555324D01*
X1126039Y1551092D01*
X1117575D01*
X1113343Y1555324D01*
Y1572252D01*
X1138735Y1546860D02*
X1155663D01*
X1164127Y1576484D02*
X1181055D01*
X1172591D01*
Y1551092D01*
X1202215D02*
X1193751D01*
X1189519Y1555324D01*
Y1563788D01*
X1193751Y1568020D01*
X1202215D01*
X1206447Y1563788D01*
Y1559556D01*
X1189519D01*
X1214911Y1551092D02*
X1227607D01*
X1231839Y1555324D01*
X1227607Y1559556D01*
X1219143D01*
X1214911Y1563788D01*
X1219143Y1568020D01*
X1231839D01*
X1244534Y1572252D02*
Y1568020D01*
X1240302D01*
X1248766D01*
X1244534D01*
Y1555324D01*
X1248766Y1551092D01*
X1261462Y1576484D02*
Y1551092D01*
X1274158D01*
X1278390Y1555324D01*
Y1559556D01*
X1274158Y1563788D01*
X1261462D01*
X1274158D01*
X1278390Y1568020D01*
Y1572252D01*
X1274158Y1576484D01*
X1261462D01*
X1291086Y1551092D02*
X1299550D01*
X1303782Y1555324D01*
Y1563788D01*
X1299550Y1568020D01*
X1291086D01*
X1286854Y1563788D01*
Y1555324D01*
X1291086Y1551092D01*
X1312246Y1568020D02*
Y1551092D01*
Y1559556D01*
X1316478Y1563788D01*
X1320710Y1568020D01*
X1324942D01*
X1354565Y1576484D02*
Y1551092D01*
X1341870D01*
X1337638Y1555324D01*
Y1563788D01*
X1341870Y1568020D01*
X1354565D01*
X1354238Y1587500D02*
X1337310D01*
X1354238Y1604428D01*
Y1608660D01*
X1350006Y1612892D01*
X1341542D01*
X1337310Y1608660D01*
X1362702D02*
X1366934Y1612892D01*
X1375398D01*
X1379630Y1608660D01*
Y1591732D01*
X1375398Y1587500D01*
X1366934D01*
X1362702Y1591732D01*
Y1608660D01*
X1405021Y1587500D02*
X1388094D01*
X1405021Y1604428D01*
Y1608660D01*
X1400789Y1612892D01*
X1392326D01*
X1388094Y1608660D01*
X1430413Y1612892D02*
X1413485D01*
Y1600196D01*
X1421949Y1604428D01*
X1426181D01*
X1430413Y1600196D01*
Y1591732D01*
X1426181Y1587500D01*
X1417717D01*
X1413485Y1591732D01*
X1438877Y1587500D02*
X1455805Y1604428D01*
X1464269Y1591732D02*
X1468501Y1587500D01*
X1476965D01*
X1481197Y1591732D01*
Y1608660D01*
X1476965Y1612892D01*
X1468501D01*
X1464269Y1608660D01*
Y1604428D01*
X1468501Y1600196D01*
X1481197D01*
X1489661Y1587500D02*
X1506589Y1604428D01*
X1515053Y1587500D02*
X1523517D01*
X1519285D01*
Y1612892D01*
X1515053Y1608660D01*
X1553140Y1612892D02*
X1536212D01*
Y1600196D01*
X1544676Y1604428D01*
X1548908D01*
X1553140Y1600196D01*
Y1591732D01*
X1548908Y1587500D01*
X1540444D01*
X1536212Y1591732D01*
X1055788Y1617124D02*
X1051556Y1621356D01*
X1043092D01*
X1038860Y1617124D01*
Y1600196D01*
X1043092Y1595964D01*
X1051556D01*
X1055788Y1600196D01*
X1064252Y1621356D02*
Y1595964D01*
Y1608660D01*
X1068484Y1612892D01*
X1076948D01*
X1081180Y1608660D01*
Y1595964D01*
X1093876Y1612892D02*
X1102339D01*
X1106571Y1608660D01*
Y1595964D01*
X1093876D01*
X1089644Y1600196D01*
X1093876Y1604428D01*
X1106571D01*
X1115035Y1595964D02*
Y1612892D01*
X1127731D01*
X1131963Y1608660D01*
Y1595964D01*
X1148891Y1587500D02*
X1153123D01*
X1157355Y1591732D01*
Y1612892D01*
X1144659D01*
X1140427Y1608660D01*
Y1600196D01*
X1144659Y1595964D01*
X1157355D01*
X1178515D02*
X1170051D01*
X1165819Y1600196D01*
Y1608660D01*
X1170051Y1612892D01*
X1178515D01*
X1182747Y1608660D01*
Y1604428D01*
X1165819D01*
X1195443Y1595964D02*
X1203907D01*
X1208139Y1600196D01*
Y1608660D01*
X1203907Y1612892D01*
X1195443D01*
X1191211Y1608660D01*
Y1600196D01*
X1195443Y1595964D01*
X1241994Y1621356D02*
X1258922D01*
X1250458D01*
Y1595964D01*
X1280082D02*
X1271618D01*
X1267386Y1600196D01*
Y1608660D01*
X1271618Y1612892D01*
X1280082D01*
X1284314Y1608660D01*
Y1604428D01*
X1267386D01*
X1309706Y1612892D02*
X1297010D01*
X1292778Y1608660D01*
Y1600196D01*
X1297010Y1595964D01*
X1309706D01*
X1163828Y1531612D02*
Y1514684D01*
X1172292Y1506220D01*
X1180756Y1514684D01*
Y1531612D01*
X1201916Y1506220D02*
X1193452D01*
X1189220Y1510452D01*
Y1518916D01*
X1193452Y1523148D01*
X1201916D01*
X1206148Y1518916D01*
Y1514684D01*
X1189220D01*
X1214612Y1523148D02*
Y1506220D01*
Y1514684D01*
X1218844Y1518916D01*
X1223075Y1523148D01*
X1227308D01*
X1240003Y1527380D02*
X1244235Y1531612D01*
X1252699D01*
X1256931Y1527380D01*
Y1510452D01*
X1252699Y1506220D01*
X1244235D01*
X1240003Y1510452D01*
Y1527380D01*
X1265395Y1506220D02*
Y1510452D01*
X1269627D01*
Y1506220D01*
X1265395D01*
X1286555D02*
X1295019D01*
X1290787D01*
Y1531612D01*
X1286555Y1527380D01*
X1170213Y1230623D02*
Y1200150D01*
X1171665Y1230623D02*
Y1200150D01*
X1165860Y1230623D02*
X1183273D01*
X1187627Y1229172D01*
X1189078Y1227721D01*
X1190529Y1224819D01*
Y1220466D01*
X1189078Y1217563D01*
X1187627Y1216112D01*
X1183273Y1214661D01*
X1171665D01*
X1183273Y1230623D02*
X1186176Y1229172D01*
X1187627Y1227721D01*
X1189078Y1224819D01*
Y1220466D01*
X1187627Y1217563D01*
X1186176Y1216112D01*
X1183273Y1214661D01*
X1165860Y1200150D02*
X1176018D01*
X1197494Y1217563D02*
Y1216112D01*
X1196043D01*
Y1217563D01*
X1197494Y1219015D01*
X1200397Y1220466D01*
X1206201D01*
X1209103Y1219015D01*
X1210554Y1217563D01*
X1212005Y1214661D01*
Y1204503D01*
X1213457Y1201601D01*
X1214908Y1200150D01*
X1210554Y1217563D02*
Y1204503D01*
X1212005Y1201601D01*
X1214908Y1200150D01*
X1216359D01*
X1210554Y1214661D02*
X1209103Y1213210D01*
X1200397Y1211759D01*
X1196043Y1210308D01*
X1194592Y1207406D01*
Y1204503D01*
X1196043Y1201601D01*
X1200397Y1200150D01*
X1204750D01*
X1207652Y1201601D01*
X1210554Y1204503D01*
X1200397Y1211759D02*
X1197494Y1210308D01*
X1196043Y1207406D01*
Y1204503D01*
X1197494Y1201601D01*
X1200397Y1200150D01*
X1225066Y1220466D02*
Y1200150D01*
X1226517Y1220466D02*
Y1200150D01*
Y1211759D02*
X1227968Y1216112D01*
X1230870Y1219015D01*
X1233772Y1220466D01*
X1238126D01*
X1239577Y1219015D01*
Y1217563D01*
X1238126Y1216112D01*
X1236674Y1217563D01*
X1238126Y1219015D01*
X1220712Y1220466D02*
X1226517D01*
X1220712Y1200150D02*
X1230870D01*
X1252927D02*
X1251476Y1201601D01*
X1250025Y1205955D01*
Y1230623D01*
X1248574D01*
Y1205955D01*
X1250025Y1201601D01*
X1252927Y1200150D01*
X1255829D01*
X1258732Y1201601D01*
X1260183Y1204503D01*
X1244220Y1220466D02*
X1255829D01*
X1272372Y1230623D02*
X1268019Y1229172D01*
X1266568Y1226270D01*
Y1221917D01*
X1268019Y1219015D01*
X1272372Y1217563D01*
X1278176D01*
X1282530Y1219015D01*
X1283981Y1221917D01*
Y1226270D01*
X1282530Y1229172D01*
X1278176Y1230623D01*
X1272372D01*
X1269470Y1229172D01*
X1268019Y1226270D01*
Y1221917D01*
X1269470Y1219015D01*
X1272372Y1217563D01*
X1278176D02*
X1281079Y1219015D01*
X1282530Y1221917D01*
Y1226270D01*
X1281079Y1229172D01*
X1278176Y1230623D01*
X1272372Y1217563D02*
X1268019Y1216112D01*
X1266568Y1214661D01*
X1265116Y1211759D01*
Y1205955D01*
X1266568Y1203052D01*
X1268019Y1201601D01*
X1272372Y1200150D01*
X1278176D01*
X1282530Y1201601D01*
X1283981Y1203052D01*
X1285432Y1205955D01*
Y1211759D01*
X1283981Y1214661D01*
X1282530Y1216112D01*
X1278176Y1217563D01*
X1272372D02*
X1269470Y1216112D01*
X1268019Y1214661D01*
X1266568Y1211759D01*
Y1205955D01*
X1268019Y1203052D01*
X1269470Y1201601D01*
X1272372Y1200150D01*
X1278176D02*
X1281079Y1201601D01*
X1282530Y1203052D01*
X1283981Y1205955D01*
Y1211759D01*
X1282530Y1214661D01*
X1281079Y1216112D01*
X1278176Y1217563D01*
X1289931Y1213210D02*
X1316051D01*
X1324322Y1230623D02*
Y1208857D01*
X1325773Y1204503D01*
X1328675Y1201601D01*
X1333029Y1200150D01*
X1335931D01*
X1340284Y1201601D01*
X1343187Y1204503D01*
X1344638Y1208857D01*
Y1230623D01*
X1325773D02*
Y1208857D01*
X1327224Y1204503D01*
X1330126Y1201601D01*
X1333029Y1200150D01*
X1319969Y1230623D02*
X1330126D01*
X1340284D02*
X1348991D01*
X1096085Y268305D02*
Y237831D01*
X1097536Y268305D02*
Y237831D01*
X1091732Y268305D02*
X1109145D01*
X1113498Y266854D01*
X1114950Y265403D01*
X1116401Y262500D01*
Y258147D01*
X1114950Y255245D01*
X1113498Y253794D01*
X1109145Y252342D01*
X1097536D01*
X1109145Y268305D02*
X1112047Y266854D01*
X1113498Y265403D01*
X1114950Y262500D01*
Y258147D01*
X1113498Y255245D01*
X1112047Y253794D01*
X1109145Y252342D01*
X1091732Y237831D02*
X1101889D01*
X1123366Y255245D02*
Y253794D01*
X1121915D01*
Y255245D01*
X1123366Y256696D01*
X1126268Y258147D01*
X1132073D01*
X1134975Y256696D01*
X1136426Y255245D01*
X1137877Y252342D01*
Y242185D01*
X1139328Y239282D01*
X1140779Y237831D01*
X1136426Y255245D02*
Y242185D01*
X1137877Y239282D01*
X1140779Y237831D01*
X1142231D01*
X1136426Y252342D02*
X1134975Y250891D01*
X1126268Y249440D01*
X1121915Y247989D01*
X1120464Y245087D01*
Y242185D01*
X1121915Y239282D01*
X1126268Y237831D01*
X1130622D01*
X1133524Y239282D01*
X1136426Y242185D01*
X1126268Y249440D02*
X1123366Y247989D01*
X1121915Y245087D01*
Y242185D01*
X1123366Y239282D01*
X1126268Y237831D01*
X1150937Y258147D02*
Y237831D01*
X1152388Y258147D02*
Y237831D01*
Y249440D02*
X1153839Y253794D01*
X1156742Y256696D01*
X1159644Y258147D01*
X1163997D01*
X1165448Y256696D01*
Y255245D01*
X1163997Y253794D01*
X1162546Y255245D01*
X1163997Y256696D01*
X1146584Y258147D02*
X1152388D01*
X1146584Y237831D02*
X1156742D01*
X1178799D02*
X1177348Y239282D01*
X1175897Y243636D01*
Y268305D01*
X1174445D01*
Y243636D01*
X1175897Y239282D01*
X1178799Y237831D01*
X1181701D01*
X1184603Y239282D01*
X1186054Y242185D01*
X1170092Y258147D02*
X1181701D01*
X1192439Y262500D02*
X1193890Y261049D01*
X1192439Y259598D01*
X1190988Y261049D01*
Y262500D01*
X1192439Y265403D01*
X1193890Y266854D01*
X1198244Y268305D01*
X1204048D01*
X1208401Y266854D01*
X1209853Y265403D01*
X1211304Y262500D01*
Y259598D01*
X1209853Y256696D01*
X1205499Y253794D01*
X1198244Y250891D01*
X1195341Y249440D01*
X1192439Y246538D01*
X1190988Y242185D01*
Y237831D01*
X1204048Y268305D02*
X1206950Y266854D01*
X1208401Y265403D01*
X1209853Y262500D01*
Y259598D01*
X1208401Y256696D01*
X1204048Y253794D01*
X1198244Y250891D01*
X1190988Y240734D02*
X1192439Y242185D01*
X1195341D01*
X1202597Y239282D01*
X1206950D01*
X1209853Y240734D01*
X1211304Y242185D01*
Y245087D01*
X1195341Y242185D02*
X1202597Y237831D01*
X1208401D01*
X1209853Y239282D01*
X1211304Y242185D01*
X1215802Y250891D02*
X1241922D01*
X1250194Y268305D02*
X1255998Y237831D01*
X1251645Y268305D02*
X1255998Y245087D01*
X1261803Y268305D02*
X1255998Y237831D01*
X1261803Y268305D02*
X1267607Y237831D01*
X1263254Y268305D02*
X1267607Y245087D01*
X1273412Y268305D02*
X1267607Y237831D01*
X1245840Y268305D02*
X1255998D01*
X1269058D02*
X1277765D01*
X1169745Y66375D02*
Y35901D01*
X1171196Y66375D02*
Y35901D01*
X1165392Y66375D02*
X1182805D01*
X1187158Y64924D01*
X1188610Y63473D01*
X1190061Y60570D01*
Y56217D01*
X1188610Y53315D01*
X1187158Y51864D01*
X1182805Y50413D01*
X1171196D01*
X1182805Y66375D02*
X1185707Y64924D01*
X1187158Y63473D01*
X1188610Y60570D01*
Y56217D01*
X1187158Y53315D01*
X1185707Y51864D01*
X1182805Y50413D01*
X1165392Y35901D02*
X1175549D01*
X1197026Y53315D02*
Y51864D01*
X1195575D01*
Y53315D01*
X1197026Y54766D01*
X1199928Y56217D01*
X1205733D01*
X1208635Y54766D01*
X1210086Y53315D01*
X1211537Y50413D01*
Y40255D01*
X1212988Y37352D01*
X1214439Y35901D01*
X1210086Y53315D02*
Y40255D01*
X1211537Y37352D01*
X1214439Y35901D01*
X1215891D01*
X1210086Y50413D02*
X1208635Y48961D01*
X1199928Y47510D01*
X1195575Y46059D01*
X1194124Y43157D01*
Y40255D01*
X1195575Y37352D01*
X1199928Y35901D01*
X1204282D01*
X1207184Y37352D01*
X1210086Y40255D01*
X1199928Y47510D02*
X1197026Y46059D01*
X1195575Y43157D01*
Y40255D01*
X1197026Y37352D01*
X1199928Y35901D01*
X1224597Y56217D02*
Y35901D01*
X1226048Y56217D02*
Y35901D01*
Y47510D02*
X1227499Y51864D01*
X1230402Y54766D01*
X1233304Y56217D01*
X1237657D01*
X1239108Y54766D01*
Y53315D01*
X1237657Y51864D01*
X1236206Y53315D01*
X1237657Y54766D01*
X1220244Y56217D02*
X1226048D01*
X1220244Y35901D02*
X1230402D01*
X1252459D02*
X1251008Y37352D01*
X1249557Y41706D01*
Y66375D01*
X1248105D01*
Y41706D01*
X1249557Y37352D01*
X1252459Y35901D01*
X1255361D01*
X1258263Y37352D01*
X1259714Y40255D01*
X1243752Y56217D02*
X1255361D01*
X1266099Y60570D02*
X1267550Y59119D01*
X1266099Y57668D01*
X1264648Y59119D01*
Y60570D01*
X1266099Y63473D01*
X1267550Y64924D01*
X1271904Y66375D01*
X1277708D01*
X1282061Y64924D01*
X1283513Y63473D01*
X1284964Y60570D01*
Y57668D01*
X1283513Y54766D01*
X1279159Y51864D01*
X1271904Y48961D01*
X1269001Y47510D01*
X1266099Y44608D01*
X1264648Y40255D01*
Y35901D01*
X1277708Y66375D02*
X1280610Y64924D01*
X1282061Y63473D01*
X1283513Y60570D01*
Y57668D01*
X1282061Y54766D01*
X1277708Y51864D01*
X1271904Y48961D01*
X1264648Y38804D02*
X1266099Y40255D01*
X1269001D01*
X1276257Y37352D01*
X1280610D01*
X1283513Y38804D01*
X1284964Y40255D01*
Y43157D01*
X1269001Y40255D02*
X1276257Y35901D01*
X1282061D01*
X1283513Y37352D01*
X1284964Y40255D01*
X1289462Y48961D02*
X1315582D01*
X1323854Y66375D02*
Y44608D01*
X1325305Y40255D01*
X1328207Y37352D01*
X1332560Y35901D01*
X1335463D01*
X1339816Y37352D01*
X1342718Y40255D01*
X1344169Y44608D01*
Y66375D01*
X1325305D02*
Y44608D01*
X1326756Y40255D01*
X1329658Y37352D01*
X1332560Y35901D01*
X1319500Y66375D02*
X1329658D01*
X1339816D02*
X1348523D01*
X1074495Y142575D02*
Y112101D01*
X1075946Y142575D02*
Y112101D01*
X1070142Y142575D02*
X1087555D01*
X1091908Y141124D01*
X1093360Y139673D01*
X1094811Y136770D01*
Y132417D01*
X1093360Y129515D01*
X1091908Y128064D01*
X1087555Y126613D01*
X1075946D01*
X1087555Y142575D02*
X1090457Y141124D01*
X1091908Y139673D01*
X1093360Y136770D01*
Y132417D01*
X1091908Y129515D01*
X1090457Y128064D01*
X1087555Y126613D01*
X1070142Y112101D02*
X1080300D01*
X1101776Y129515D02*
Y128064D01*
X1100325D01*
Y129515D01*
X1101776Y130966D01*
X1104678Y132417D01*
X1110483D01*
X1113385Y130966D01*
X1114836Y129515D01*
X1116287Y126613D01*
Y116455D01*
X1117738Y113553D01*
X1119190Y112101D01*
X1114836Y129515D02*
Y116455D01*
X1116287Y113553D01*
X1119190Y112101D01*
X1120641D01*
X1114836Y126613D02*
X1113385Y125161D01*
X1104678Y123710D01*
X1100325Y122259D01*
X1098874Y119357D01*
Y116455D01*
X1100325Y113553D01*
X1104678Y112101D01*
X1109032D01*
X1111934Y113553D01*
X1114836Y116455D01*
X1104678Y123710D02*
X1101776Y122259D01*
X1100325Y119357D01*
Y116455D01*
X1101776Y113553D01*
X1104678Y112101D01*
X1129347Y132417D02*
Y112101D01*
X1130798Y132417D02*
Y112101D01*
Y123710D02*
X1132250Y128064D01*
X1135152Y130966D01*
X1138054Y132417D01*
X1142407D01*
X1143858Y130966D01*
Y129515D01*
X1142407Y128064D01*
X1140956Y129515D01*
X1142407Y130966D01*
X1124994Y132417D02*
X1130798D01*
X1124994Y112101D02*
X1135152D01*
X1157209D02*
X1155758Y113553D01*
X1154306Y117906D01*
Y142575D01*
X1152855D01*
Y117906D01*
X1154306Y113553D01*
X1157209Y112101D01*
X1160111D01*
X1163013Y113553D01*
X1164464Y116455D01*
X1148502Y132417D02*
X1160111D01*
X1170849Y136770D02*
X1172300Y135319D01*
X1170849Y133868D01*
X1169398Y135319D01*
Y136770D01*
X1170849Y139673D01*
X1172300Y141124D01*
X1176654Y142575D01*
X1182458D01*
X1186812Y141124D01*
X1188263Y139673D01*
X1189714Y136770D01*
Y133868D01*
X1188263Y130966D01*
X1183909Y128064D01*
X1176654Y125161D01*
X1173752Y123710D01*
X1170849Y120808D01*
X1169398Y116455D01*
Y112101D01*
X1182458Y142575D02*
X1185360Y141124D01*
X1186812Y139673D01*
X1188263Y136770D01*
Y133868D01*
X1186812Y130966D01*
X1182458Y128064D01*
X1176654Y125161D01*
X1169398Y115004D02*
X1170849Y116455D01*
X1173752D01*
X1181007Y113553D01*
X1185360D01*
X1188263Y115004D01*
X1189714Y116455D01*
Y119357D01*
X1173752Y116455D02*
X1181007Y112101D01*
X1186812D01*
X1188263Y113553D01*
X1189714Y116455D01*
X1194212Y125161D02*
X1220332D01*
X1227153Y142575D02*
X1237310Y112101D01*
X1228604Y142575D02*
X1237310Y116455D01*
X1247468Y142575D02*
X1237310Y112101D01*
X1224250Y142575D02*
X1232957D01*
X1241664D02*
X1250370D01*
X1223085Y195915D02*
Y165441D01*
X1224536Y195915D02*
Y165441D01*
X1218732Y195915D02*
X1236145D01*
X1240498Y194464D01*
X1241950Y193013D01*
X1243401Y190110D01*
Y185757D01*
X1241950Y182855D01*
X1240498Y181404D01*
X1236145Y179953D01*
X1224536D01*
X1236145Y195915D02*
X1239047Y194464D01*
X1240498Y193013D01*
X1241950Y190110D01*
Y185757D01*
X1240498Y182855D01*
X1239047Y181404D01*
X1236145Y179953D01*
X1218732Y165441D02*
X1228889D01*
X1250366Y182855D02*
Y181404D01*
X1248915D01*
Y182855D01*
X1250366Y184306D01*
X1253268Y185757D01*
X1259073D01*
X1261975Y184306D01*
X1263426Y182855D01*
X1264877Y179953D01*
Y169795D01*
X1266328Y166893D01*
X1267779Y165441D01*
X1263426Y182855D02*
Y169795D01*
X1264877Y166893D01*
X1267779Y165441D01*
X1269231D01*
X1263426Y179953D02*
X1261975Y178501D01*
X1253268Y177050D01*
X1248915Y175599D01*
X1247464Y172697D01*
Y169795D01*
X1248915Y166893D01*
X1253268Y165441D01*
X1257622D01*
X1260524Y166893D01*
X1263426Y169795D01*
X1253268Y177050D02*
X1250366Y175599D01*
X1248915Y172697D01*
Y169795D01*
X1250366Y166893D01*
X1253268Y165441D01*
X1277937Y185757D02*
Y165441D01*
X1279388Y185757D02*
Y165441D01*
Y177050D02*
X1280840Y181404D01*
X1283742Y184306D01*
X1286644Y185757D01*
X1290997D01*
X1292448Y184306D01*
Y182855D01*
X1290997Y181404D01*
X1289546Y182855D01*
X1290997Y184306D01*
X1273584Y185757D02*
X1279388D01*
X1273584Y165441D02*
X1283742D01*
X1305799D02*
X1304348Y166893D01*
X1302897Y171246D01*
Y195915D01*
X1301445D01*
Y171246D01*
X1302897Y166893D01*
X1305799Y165441D01*
X1308701D01*
X1311603Y166893D01*
X1313054Y169795D01*
X1297092Y185757D02*
X1308701D01*
X1319439Y190110D02*
X1320890Y188659D01*
X1319439Y187208D01*
X1317988Y188659D01*
Y190110D01*
X1319439Y193013D01*
X1320890Y194464D01*
X1325244Y195915D01*
X1331048D01*
X1335401Y194464D01*
X1336853Y193013D01*
X1338304Y190110D01*
Y187208D01*
X1336853Y184306D01*
X1332499Y181404D01*
X1325244Y178501D01*
X1322341Y177050D01*
X1319439Y174148D01*
X1317988Y169795D01*
Y165441D01*
X1331048Y195915D02*
X1333950Y194464D01*
X1335401Y193013D01*
X1336853Y190110D01*
Y187208D01*
X1335401Y184306D01*
X1331048Y181404D01*
X1325244Y178501D01*
X1317988Y168344D02*
X1319439Y169795D01*
X1322341D01*
X1329597Y166893D01*
X1333950D01*
X1336853Y168344D01*
X1338304Y169795D01*
Y172697D01*
X1322341Y169795D02*
X1329597Y165441D01*
X1335401D01*
X1336853Y166893D01*
X1338304Y169795D01*
X1342802Y178501D02*
X1368922D01*
X1393156Y191562D02*
X1394607Y187208D01*
Y195915D01*
X1393156Y191562D01*
X1390254Y194464D01*
X1385900Y195915D01*
X1382998D01*
X1378645Y194464D01*
X1375743Y191562D01*
X1374292Y188659D01*
X1372840Y184306D01*
Y177050D01*
X1374292Y172697D01*
X1375743Y169795D01*
X1378645Y166893D01*
X1382998Y165441D01*
X1385900D01*
X1390254Y166893D01*
X1393156Y169795D01*
X1394607Y172697D01*
X1382998Y195915D02*
X1380096Y194464D01*
X1377194Y191562D01*
X1375743Y188659D01*
X1374292Y184306D01*
Y177050D01*
X1375743Y172697D01*
X1377194Y169795D01*
X1380096Y166893D01*
X1382998Y165441D01*
X1403314Y195915D02*
Y165441D01*
X1404765Y195915D02*
X1413472Y169795D01*
X1403314Y195915D02*
X1413472Y165441D01*
X1423629Y195915D02*
X1413472Y165441D01*
X1423629Y195915D02*
Y165441D01*
X1425081Y195915D02*
Y165441D01*
X1398961Y195915D02*
X1404765D01*
X1423629D02*
X1429434D01*
X1398961Y165441D02*
X1407667D01*
X1419276D02*
X1429434D01*
X1437270Y195915D02*
Y165441D01*
X1438721Y195915D02*
Y165441D01*
X1432917Y195915D02*
X1450330D01*
X1454683Y194464D01*
X1456134Y193013D01*
X1457586Y190110D01*
Y185757D01*
X1456134Y182855D01*
X1454683Y181404D01*
X1450330Y179953D01*
X1438721D01*
X1450330Y195915D02*
X1453232Y194464D01*
X1454683Y193013D01*
X1456134Y190110D01*
Y185757D01*
X1454683Y182855D01*
X1453232Y181404D01*
X1450330Y179953D01*
X1432917Y165441D02*
X1443074D01*
X1169901Y454458D02*
Y423984D01*
X1171352Y454458D02*
Y423984D01*
X1165548Y454458D02*
X1182961D01*
X1187315Y453007D01*
X1188766Y451555D01*
X1190217Y448653D01*
Y444300D01*
X1188766Y441398D01*
X1187315Y439947D01*
X1182961Y438495D01*
X1171352D01*
X1182961Y454458D02*
X1185863Y453007D01*
X1187315Y451555D01*
X1188766Y448653D01*
Y444300D01*
X1187315Y441398D01*
X1185863Y439947D01*
X1182961Y438495D01*
X1165548Y423984D02*
X1175706D01*
X1197182Y441398D02*
Y439947D01*
X1195731D01*
Y441398D01*
X1197182Y442849D01*
X1200084Y444300D01*
X1205889D01*
X1208791Y442849D01*
X1210242Y441398D01*
X1211693Y438495D01*
Y428338D01*
X1213144Y425435D01*
X1214596Y423984D01*
X1210242Y441398D02*
Y428338D01*
X1211693Y425435D01*
X1214596Y423984D01*
X1216047D01*
X1210242Y438495D02*
X1208791Y437044D01*
X1200084Y435593D01*
X1195731Y434142D01*
X1194280Y431240D01*
Y428338D01*
X1195731Y425435D01*
X1200084Y423984D01*
X1204438D01*
X1207340Y425435D01*
X1210242Y428338D01*
X1200084Y435593D02*
X1197182Y434142D01*
X1195731Y431240D01*
Y428338D01*
X1197182Y425435D01*
X1200084Y423984D01*
X1224753Y444300D02*
Y423984D01*
X1226205Y444300D02*
Y423984D01*
Y435593D02*
X1227656Y439947D01*
X1230558Y442849D01*
X1233460Y444300D01*
X1237813D01*
X1239265Y442849D01*
Y441398D01*
X1237813Y439947D01*
X1236362Y441398D01*
X1237813Y442849D01*
X1220400Y444300D02*
X1226205D01*
X1220400Y423984D02*
X1230558D01*
X1258419Y451555D02*
Y423984D01*
X1267126Y432691D02*
X1243908D01*
X1259870Y454458D01*
Y423984D01*
X1254066D02*
X1264224D01*
X1271334Y437044D02*
X1297454D01*
X1305726Y454458D02*
Y432691D01*
X1307177Y428338D01*
X1310079Y425435D01*
X1314433Y423984D01*
X1317335D01*
X1321688Y425435D01*
X1324590Y428338D01*
X1326041Y432691D01*
Y454458D01*
X1307177D02*
Y432691D01*
X1308628Y428338D01*
X1311530Y425435D01*
X1314433Y423984D01*
X1301372Y454458D02*
X1311530D01*
X1321688D02*
X1330395D01*
X1074651Y530658D02*
Y500184D01*
X1076102Y530658D02*
Y500184D01*
X1070298Y530658D02*
X1087711D01*
X1092065Y529207D01*
X1093516Y527756D01*
X1094967Y524853D01*
Y520500D01*
X1093516Y517598D01*
X1092065Y516147D01*
X1087711Y514695D01*
X1076102D01*
X1087711Y530658D02*
X1090613Y529207D01*
X1092065Y527756D01*
X1093516Y524853D01*
Y520500D01*
X1092065Y517598D01*
X1090613Y516147D01*
X1087711Y514695D01*
X1070298Y500184D02*
X1080456D01*
X1101932Y517598D02*
Y516147D01*
X1100481D01*
Y517598D01*
X1101932Y519049D01*
X1104834Y520500D01*
X1110639D01*
X1113541Y519049D01*
X1114992Y517598D01*
X1116443Y514695D01*
Y504538D01*
X1117894Y501635D01*
X1119346Y500184D01*
X1114992Y517598D02*
Y504538D01*
X1116443Y501635D01*
X1119346Y500184D01*
X1120797D01*
X1114992Y514695D02*
X1113541Y513244D01*
X1104834Y511793D01*
X1100481Y510342D01*
X1099030Y507440D01*
Y504538D01*
X1100481Y501635D01*
X1104834Y500184D01*
X1109188D01*
X1112090Y501635D01*
X1114992Y504538D01*
X1104834Y511793D02*
X1101932Y510342D01*
X1100481Y507440D01*
Y504538D01*
X1101932Y501635D01*
X1104834Y500184D01*
X1129503Y520500D02*
Y500184D01*
X1130955Y520500D02*
Y500184D01*
Y511793D02*
X1132406Y516147D01*
X1135308Y519049D01*
X1138210Y520500D01*
X1142563D01*
X1144015Y519049D01*
Y517598D01*
X1142563Y516147D01*
X1141112Y517598D01*
X1142563Y519049D01*
X1125150Y520500D02*
X1130955D01*
X1125150Y500184D02*
X1135308D01*
X1157365D02*
X1155914Y501635D01*
X1154463Y505989D01*
Y530658D01*
X1153011D01*
Y505989D01*
X1154463Y501635D01*
X1157365Y500184D01*
X1160267D01*
X1163169Y501635D01*
X1164620Y504538D01*
X1148658Y520500D02*
X1160267D01*
X1184065Y527756D02*
Y500184D01*
X1192772Y508891D02*
X1169554D01*
X1185517Y530658D01*
Y500184D01*
X1179712D02*
X1189870D01*
X1196980Y513244D02*
X1223101D01*
X1229921Y530658D02*
X1240079Y500184D01*
X1231372Y530658D02*
X1240079Y504538D01*
X1250236Y530658D02*
X1240079Y500184D01*
X1227019Y530658D02*
X1235725D01*
X1244432D02*
X1253139D01*
X1096241Y656388D02*
Y625914D01*
X1097692Y656388D02*
Y625914D01*
X1091888Y656388D02*
X1109301D01*
X1113654Y654937D01*
X1115106Y653485D01*
X1116557Y650583D01*
Y646230D01*
X1115106Y643328D01*
X1113654Y641877D01*
X1109301Y640425D01*
X1097692D01*
X1109301Y656388D02*
X1112203Y654937D01*
X1113654Y653485D01*
X1115106Y650583D01*
Y646230D01*
X1113654Y643328D01*
X1112203Y641877D01*
X1109301Y640425D01*
X1091888Y625914D02*
X1102046D01*
X1123522Y643328D02*
Y641877D01*
X1122071D01*
Y643328D01*
X1123522Y644779D01*
X1126424Y646230D01*
X1132229D01*
X1135131Y644779D01*
X1136582Y643328D01*
X1138033Y640425D01*
Y630268D01*
X1139484Y627365D01*
X1140936Y625914D01*
X1136582Y643328D02*
Y630268D01*
X1138033Y627365D01*
X1140936Y625914D01*
X1142387D01*
X1136582Y640425D02*
X1135131Y638974D01*
X1126424Y637523D01*
X1122071Y636072D01*
X1120620Y633170D01*
Y630268D01*
X1122071Y627365D01*
X1126424Y625914D01*
X1130778D01*
X1133680Y627365D01*
X1136582Y630268D01*
X1126424Y637523D02*
X1123522Y636072D01*
X1122071Y633170D01*
Y630268D01*
X1123522Y627365D01*
X1126424Y625914D01*
X1151093Y646230D02*
Y625914D01*
X1152544Y646230D02*
Y625914D01*
Y637523D02*
X1153996Y641877D01*
X1156898Y644779D01*
X1159800Y646230D01*
X1164153D01*
X1165605Y644779D01*
Y643328D01*
X1164153Y641877D01*
X1162702Y643328D01*
X1164153Y644779D01*
X1146740Y646230D02*
X1152544D01*
X1146740Y625914D02*
X1156898D01*
X1178955D02*
X1177504Y627365D01*
X1176053Y631719D01*
Y656388D01*
X1174602D01*
Y631719D01*
X1176053Y627365D01*
X1178955Y625914D01*
X1181857D01*
X1184759Y627365D01*
X1186210Y630268D01*
X1170248Y646230D02*
X1181857D01*
X1205655Y653485D02*
Y625914D01*
X1214362Y634621D02*
X1191144D01*
X1207106Y656388D01*
Y625914D01*
X1201302D02*
X1211460D01*
X1218570Y638974D02*
X1244690D01*
X1252962Y656388D02*
X1258766Y625914D01*
X1254413Y656388D02*
X1258766Y633170D01*
X1264571Y656388D02*
X1258766Y625914D01*
X1264571Y656388D02*
X1270375Y625914D01*
X1266022Y656388D02*
X1270375Y633170D01*
X1276180Y656388D02*
X1270375Y625914D01*
X1248608Y656388D02*
X1258766D01*
X1271826D02*
X1280533D01*
X1223241Y583998D02*
Y553524D01*
X1224692Y583998D02*
Y553524D01*
X1218888Y583998D02*
X1236301D01*
X1240655Y582547D01*
X1242106Y581096D01*
X1243557Y578193D01*
Y573840D01*
X1242106Y570938D01*
X1240655Y569487D01*
X1236301Y568035D01*
X1224692D01*
X1236301Y583998D02*
X1239203Y582547D01*
X1240655Y581096D01*
X1242106Y578193D01*
Y573840D01*
X1240655Y570938D01*
X1239203Y569487D01*
X1236301Y568035D01*
X1218888Y553524D02*
X1229046D01*
X1250522Y570938D02*
Y569487D01*
X1249071D01*
Y570938D01*
X1250522Y572389D01*
X1253424Y573840D01*
X1259229D01*
X1262131Y572389D01*
X1263582Y570938D01*
X1265033Y568035D01*
Y557878D01*
X1266484Y554975D01*
X1267936Y553524D01*
X1263582Y570938D02*
Y557878D01*
X1265033Y554975D01*
X1267936Y553524D01*
X1269387D01*
X1263582Y568035D02*
X1262131Y566584D01*
X1253424Y565133D01*
X1249071Y563682D01*
X1247620Y560780D01*
Y557878D01*
X1249071Y554975D01*
X1253424Y553524D01*
X1257778D01*
X1260680Y554975D01*
X1263582Y557878D01*
X1253424Y565133D02*
X1250522Y563682D01*
X1249071Y560780D01*
Y557878D01*
X1250522Y554975D01*
X1253424Y553524D01*
X1278093Y573840D02*
Y553524D01*
X1279545Y573840D02*
Y553524D01*
Y565133D02*
X1280996Y569487D01*
X1283898Y572389D01*
X1286800Y573840D01*
X1291153D01*
X1292605Y572389D01*
Y570938D01*
X1291153Y569487D01*
X1289702Y570938D01*
X1291153Y572389D01*
X1273740Y573840D02*
X1279545D01*
X1273740Y553524D02*
X1283898D01*
X1305955D02*
X1304504Y554975D01*
X1303053Y559329D01*
Y583998D01*
X1301602D01*
Y559329D01*
X1303053Y554975D01*
X1305955Y553524D01*
X1308857D01*
X1311759Y554975D01*
X1313210Y557878D01*
X1297248Y573840D02*
X1308857D01*
X1332655Y581096D02*
Y553524D01*
X1341362Y562231D02*
X1318144D01*
X1334106Y583998D01*
Y553524D01*
X1328302D02*
X1338460D01*
X1345570Y566584D02*
X1371691D01*
X1395924Y579644D02*
X1397375Y575291D01*
Y583998D01*
X1395924Y579644D01*
X1393022Y582547D01*
X1388669Y583998D01*
X1385766D01*
X1381413Y582547D01*
X1378511Y579644D01*
X1377060Y576742D01*
X1375609Y572389D01*
Y565133D01*
X1377060Y560780D01*
X1378511Y557878D01*
X1381413Y554975D01*
X1385766Y553524D01*
X1388669D01*
X1393022Y554975D01*
X1395924Y557878D01*
X1397375Y560780D01*
X1385766Y583998D02*
X1382864Y582547D01*
X1379962Y579644D01*
X1378511Y576742D01*
X1377060Y572389D01*
Y565133D01*
X1378511Y560780D01*
X1379962Y557878D01*
X1382864Y554975D01*
X1385766Y553524D01*
X1406082Y583998D02*
Y553524D01*
X1407533Y583998D02*
X1416240Y557878D01*
X1406082Y583998D02*
X1416240Y553524D01*
X1426398Y583998D02*
X1416240Y553524D01*
X1426398Y583998D02*
Y553524D01*
X1427849Y583998D02*
Y553524D01*
X1401729Y583998D02*
X1407533D01*
X1426398D02*
X1432202D01*
X1401729Y553524D02*
X1410435D01*
X1422044D02*
X1432202D01*
X1440038Y583998D02*
Y553524D01*
X1441489Y583998D02*
Y553524D01*
X1435685Y583998D02*
X1453098D01*
X1457451Y582547D01*
X1458903Y581096D01*
X1460354Y578193D01*
Y573840D01*
X1458903Y570938D01*
X1457451Y569487D01*
X1453098Y568035D01*
X1441489D01*
X1453098Y583998D02*
X1456000Y582547D01*
X1457451Y581096D01*
X1458903Y578193D01*
Y573840D01*
X1457451Y570938D01*
X1456000Y569487D01*
X1453098Y568035D01*
X1435685Y553524D02*
X1445843D01*
X1170057Y842541D02*
Y812067D01*
X1171508Y842541D02*
Y812067D01*
X1165704Y842541D02*
X1183117D01*
X1187471Y841089D01*
X1188922Y839638D01*
X1190373Y836736D01*
Y832383D01*
X1188922Y829481D01*
X1187471Y828029D01*
X1183117Y826578D01*
X1171508D01*
X1183117Y842541D02*
X1186020Y841089D01*
X1187471Y839638D01*
X1188922Y836736D01*
Y832383D01*
X1187471Y829481D01*
X1186020Y828029D01*
X1183117Y826578D01*
X1165704Y812067D02*
X1175862D01*
X1197338Y829481D02*
Y828029D01*
X1195887D01*
Y829481D01*
X1197338Y830932D01*
X1200240Y832383D01*
X1206045D01*
X1208947Y830932D01*
X1210398Y829481D01*
X1211849Y826578D01*
Y816421D01*
X1213300Y813518D01*
X1214752Y812067D01*
X1210398Y829481D02*
Y816421D01*
X1211849Y813518D01*
X1214752Y812067D01*
X1216203D01*
X1210398Y826578D02*
X1208947Y825127D01*
X1200240Y823676D01*
X1195887Y822225D01*
X1194436Y819323D01*
Y816421D01*
X1195887Y813518D01*
X1200240Y812067D01*
X1204594D01*
X1207496Y813518D01*
X1210398Y816421D01*
X1200240Y823676D02*
X1197338Y822225D01*
X1195887Y819323D01*
Y816421D01*
X1197338Y813518D01*
X1200240Y812067D01*
X1224910Y832383D02*
Y812067D01*
X1226361Y832383D02*
Y812067D01*
Y823676D02*
X1227812Y828029D01*
X1230714Y830932D01*
X1233616Y832383D01*
X1237970D01*
X1239421Y830932D01*
Y829481D01*
X1237970Y828029D01*
X1236518Y829481D01*
X1237970Y830932D01*
X1220556Y832383D02*
X1226361D01*
X1220556Y812067D02*
X1230714D01*
X1252771D02*
X1251320Y813518D01*
X1249869Y817872D01*
Y842541D01*
X1248418D01*
Y817872D01*
X1249869Y813518D01*
X1252771Y812067D01*
X1255673D01*
X1258575Y813518D01*
X1260026Y816421D01*
X1244064Y832383D02*
X1255673D01*
X1282374Y838187D02*
X1280923Y836736D01*
X1282374Y835285D01*
X1283825Y836736D01*
Y838187D01*
X1282374Y841089D01*
X1279472Y842541D01*
X1275118D01*
X1270765Y841089D01*
X1267863Y838187D01*
X1266412Y835285D01*
X1264960Y829481D01*
Y820774D01*
X1266412Y816421D01*
X1269314Y813518D01*
X1273667Y812067D01*
X1276569D01*
X1280923Y813518D01*
X1283825Y816421D01*
X1285276Y820774D01*
Y822225D01*
X1283825Y826578D01*
X1280923Y829481D01*
X1276569Y830932D01*
X1275118D01*
X1270765Y829481D01*
X1267863Y826578D01*
X1266412Y822225D01*
X1275118Y842541D02*
X1272216Y841089D01*
X1269314Y838187D01*
X1267863Y835285D01*
X1266412Y829481D01*
Y820774D01*
X1267863Y816421D01*
X1270765Y813518D01*
X1273667Y812067D01*
X1276569D02*
X1279472Y813518D01*
X1282374Y816421D01*
X1283825Y820774D01*
Y822225D01*
X1282374Y826578D01*
X1279472Y829481D01*
X1276569Y830932D01*
X1289774Y825127D02*
X1315894D01*
X1324166Y842541D02*
Y820774D01*
X1325617Y816421D01*
X1328519Y813518D01*
X1332873Y812067D01*
X1335775D01*
X1340128Y813518D01*
X1343031Y816421D01*
X1344482Y820774D01*
Y842541D01*
X1325617D02*
Y820774D01*
X1327068Y816421D01*
X1329970Y813518D01*
X1332873Y812067D01*
X1319813Y842541D02*
X1329970D01*
X1340128D02*
X1348835D01*
X1074807Y918741D02*
Y888267D01*
X1076258Y918741D02*
Y888267D01*
X1070454Y918741D02*
X1087867D01*
X1092221Y917290D01*
X1093672Y915838D01*
X1095123Y912936D01*
Y908583D01*
X1093672Y905680D01*
X1092221Y904229D01*
X1087867Y902778D01*
X1076258D01*
X1087867Y918741D02*
X1090770Y917290D01*
X1092221Y915838D01*
X1093672Y912936D01*
Y908583D01*
X1092221Y905680D01*
X1090770Y904229D01*
X1087867Y902778D01*
X1070454Y888267D02*
X1080612D01*
X1102088Y905680D02*
Y904229D01*
X1100637D01*
Y905680D01*
X1102088Y907132D01*
X1104990Y908583D01*
X1110795D01*
X1113697Y907132D01*
X1115148Y905680D01*
X1116599Y902778D01*
Y892620D01*
X1118051Y889718D01*
X1119502Y888267D01*
X1115148Y905680D02*
Y892620D01*
X1116599Y889718D01*
X1119502Y888267D01*
X1120953D01*
X1115148Y902778D02*
X1113697Y901327D01*
X1104990Y899876D01*
X1100637Y898425D01*
X1099186Y895523D01*
Y892620D01*
X1100637Y889718D01*
X1104990Y888267D01*
X1109344D01*
X1112246Y889718D01*
X1115148Y892620D01*
X1104990Y899876D02*
X1102088Y898425D01*
X1100637Y895523D01*
Y892620D01*
X1102088Y889718D01*
X1104990Y888267D01*
X1129660Y908583D02*
Y888267D01*
X1131111Y908583D02*
Y888267D01*
Y899876D02*
X1132562Y904229D01*
X1135464Y907132D01*
X1138366Y908583D01*
X1142719D01*
X1144171Y907132D01*
Y905680D01*
X1142719Y904229D01*
X1141268Y905680D01*
X1142719Y907132D01*
X1125306Y908583D02*
X1131111D01*
X1125306Y888267D02*
X1135464D01*
X1157521D02*
X1156070Y889718D01*
X1154619Y894072D01*
Y918741D01*
X1153168D01*
Y894072D01*
X1154619Y889718D01*
X1157521Y888267D01*
X1160423D01*
X1163325Y889718D01*
X1164777Y892620D01*
X1148814Y908583D02*
X1160423D01*
X1187124Y914387D02*
X1185673Y912936D01*
X1187124Y911485D01*
X1188575Y912936D01*
Y914387D01*
X1187124Y917290D01*
X1184221Y918741D01*
X1179868D01*
X1175515Y917290D01*
X1172613Y914387D01*
X1171161Y911485D01*
X1169710Y905680D01*
Y896974D01*
X1171161Y892620D01*
X1174064Y889718D01*
X1178417Y888267D01*
X1181319D01*
X1185673Y889718D01*
X1188575Y892620D01*
X1190026Y896974D01*
Y898425D01*
X1188575Y902778D01*
X1185673Y905680D01*
X1181319Y907132D01*
X1179868D01*
X1175515Y905680D01*
X1172613Y902778D01*
X1171161Y898425D01*
X1179868Y918741D02*
X1176966Y917290D01*
X1174064Y914387D01*
X1172613Y911485D01*
X1171161Y905680D01*
Y896974D01*
X1172613Y892620D01*
X1175515Y889718D01*
X1178417Y888267D01*
X1181319D02*
X1184221Y889718D01*
X1187124Y892620D01*
X1188575Y896974D01*
Y898425D01*
X1187124Y902778D01*
X1184221Y905680D01*
X1181319Y907132D01*
X1194524Y901327D02*
X1220645D01*
X1227465Y918741D02*
X1237623Y888267D01*
X1228916Y918741D02*
X1237623Y892620D01*
X1247781Y918741D02*
X1237623Y888267D01*
X1224563Y918741D02*
X1233269D01*
X1241976D02*
X1250683D01*
X1096397Y1044471D02*
Y1013997D01*
X1097848Y1044471D02*
Y1013997D01*
X1092044Y1044471D02*
X1109457D01*
X1113811Y1043019D01*
X1115262Y1041568D01*
X1116713Y1038666D01*
Y1034313D01*
X1115262Y1031411D01*
X1113811Y1029959D01*
X1109457Y1028508D01*
X1097848D01*
X1109457Y1044471D02*
X1112359Y1043019D01*
X1113811Y1041568D01*
X1115262Y1038666D01*
Y1034313D01*
X1113811Y1031411D01*
X1112359Y1029959D01*
X1109457Y1028508D01*
X1092044Y1013997D02*
X1102202D01*
X1123678Y1031411D02*
Y1029959D01*
X1122227D01*
Y1031411D01*
X1123678Y1032862D01*
X1126581Y1034313D01*
X1132385D01*
X1135287Y1032862D01*
X1136738Y1031411D01*
X1138189Y1028508D01*
Y1018351D01*
X1139641Y1015448D01*
X1141092Y1013997D01*
X1136738Y1031411D02*
Y1018351D01*
X1138189Y1015448D01*
X1141092Y1013997D01*
X1142543D01*
X1136738Y1028508D02*
X1135287Y1027057D01*
X1126581Y1025606D01*
X1122227Y1024155D01*
X1120776Y1021253D01*
Y1018351D01*
X1122227Y1015448D01*
X1126581Y1013997D01*
X1130934D01*
X1133836Y1015448D01*
X1136738Y1018351D01*
X1126581Y1025606D02*
X1123678Y1024155D01*
X1122227Y1021253D01*
Y1018351D01*
X1123678Y1015448D01*
X1126581Y1013997D01*
X1151249Y1034313D02*
Y1013997D01*
X1152701Y1034313D02*
Y1013997D01*
Y1025606D02*
X1154152Y1029959D01*
X1157054Y1032862D01*
X1159956Y1034313D01*
X1164309D01*
X1165761Y1032862D01*
Y1031411D01*
X1164309Y1029959D01*
X1162858Y1031411D01*
X1164309Y1032862D01*
X1146896Y1034313D02*
X1152701D01*
X1146896Y1013997D02*
X1157054D01*
X1179111D02*
X1177660Y1015448D01*
X1176209Y1019802D01*
Y1044471D01*
X1174758D01*
Y1019802D01*
X1176209Y1015448D01*
X1179111Y1013997D01*
X1182013D01*
X1184915Y1015448D01*
X1186367Y1018351D01*
X1170404Y1034313D02*
X1182013D01*
X1208714Y1040117D02*
X1207263Y1038666D01*
X1208714Y1037215D01*
X1210165Y1038666D01*
Y1040117D01*
X1208714Y1043019D01*
X1205811Y1044471D01*
X1201458D01*
X1197105Y1043019D01*
X1194203Y1040117D01*
X1192751Y1037215D01*
X1191300Y1031411D01*
Y1022704D01*
X1192751Y1018351D01*
X1195654Y1015448D01*
X1200007Y1013997D01*
X1202909D01*
X1207263Y1015448D01*
X1210165Y1018351D01*
X1211616Y1022704D01*
Y1024155D01*
X1210165Y1028508D01*
X1207263Y1031411D01*
X1202909Y1032862D01*
X1201458D01*
X1197105Y1031411D01*
X1194203Y1028508D01*
X1192751Y1024155D01*
X1201458Y1044471D02*
X1198556Y1043019D01*
X1195654Y1040117D01*
X1194203Y1037215D01*
X1192751Y1031411D01*
Y1022704D01*
X1194203Y1018351D01*
X1197105Y1015448D01*
X1200007Y1013997D01*
X1202909D02*
X1205811Y1015448D01*
X1208714Y1018351D01*
X1210165Y1022704D01*
Y1024155D01*
X1208714Y1028508D01*
X1205811Y1031411D01*
X1202909Y1032862D01*
X1216114Y1027057D02*
X1242234D01*
X1250506Y1044471D02*
X1256310Y1013997D01*
X1251957Y1044471D02*
X1256310Y1021253D01*
X1262115Y1044471D02*
X1256310Y1013997D01*
X1262115Y1044471D02*
X1267919Y1013997D01*
X1263566Y1044471D02*
X1267919Y1021253D01*
X1273724Y1044471D02*
X1267919Y1013997D01*
X1246153Y1044471D02*
X1256310D01*
X1269370D02*
X1278077D01*
X1223397Y972081D02*
Y941607D01*
X1224848Y972081D02*
Y941607D01*
X1219044Y972081D02*
X1236457D01*
X1240811Y970630D01*
X1242262Y969178D01*
X1243713Y966276D01*
Y961923D01*
X1242262Y959020D01*
X1240811Y957569D01*
X1236457Y956118D01*
X1224848D01*
X1236457Y972081D02*
X1239360Y970630D01*
X1240811Y969178D01*
X1242262Y966276D01*
Y961923D01*
X1240811Y959020D01*
X1239360Y957569D01*
X1236457Y956118D01*
X1219044Y941607D02*
X1229202D01*
X1250678Y959020D02*
Y957569D01*
X1249227D01*
Y959020D01*
X1250678Y960472D01*
X1253580Y961923D01*
X1259385D01*
X1262287Y960472D01*
X1263738Y959020D01*
X1265189Y956118D01*
Y945960D01*
X1266640Y943058D01*
X1268092Y941607D01*
X1263738Y959020D02*
Y945960D01*
X1265189Y943058D01*
X1268092Y941607D01*
X1269543D01*
X1263738Y956118D02*
X1262287Y954667D01*
X1253580Y953216D01*
X1249227Y951765D01*
X1247776Y948863D01*
Y945960D01*
X1249227Y943058D01*
X1253580Y941607D01*
X1257934D01*
X1260836Y943058D01*
X1263738Y945960D01*
X1253580Y953216D02*
X1250678Y951765D01*
X1249227Y948863D01*
Y945960D01*
X1250678Y943058D01*
X1253580Y941607D01*
X1278250Y961923D02*
Y941607D01*
X1279701Y961923D02*
Y941607D01*
Y953216D02*
X1281152Y957569D01*
X1284054Y960472D01*
X1286956Y961923D01*
X1291310D01*
X1292761Y960472D01*
Y959020D01*
X1291310Y957569D01*
X1289858Y959020D01*
X1291310Y960472D01*
X1273896Y961923D02*
X1279701D01*
X1273896Y941607D02*
X1284054D01*
X1306111D02*
X1304660Y943058D01*
X1303209Y947412D01*
Y972081D01*
X1301758D01*
Y947412D01*
X1303209Y943058D01*
X1306111Y941607D01*
X1309013D01*
X1311915Y943058D01*
X1313367Y945960D01*
X1297404Y961923D02*
X1309013D01*
X1335714Y967727D02*
X1334263Y966276D01*
X1335714Y964825D01*
X1337165Y966276D01*
Y967727D01*
X1335714Y970630D01*
X1332811Y972081D01*
X1328458D01*
X1324105Y970630D01*
X1321203Y967727D01*
X1319751Y964825D01*
X1318300Y959020D01*
Y950314D01*
X1319751Y945960D01*
X1322654Y943058D01*
X1327007Y941607D01*
X1329909D01*
X1334263Y943058D01*
X1337165Y945960D01*
X1338616Y950314D01*
Y951765D01*
X1337165Y956118D01*
X1334263Y959020D01*
X1329909Y960472D01*
X1328458D01*
X1324105Y959020D01*
X1321203Y956118D01*
X1319751Y951765D01*
X1328458Y972081D02*
X1325556Y970630D01*
X1322654Y967727D01*
X1321203Y964825D01*
X1319751Y959020D01*
Y950314D01*
X1321203Y945960D01*
X1324105Y943058D01*
X1327007Y941607D01*
X1329909D02*
X1332811Y943058D01*
X1335714Y945960D01*
X1337165Y950314D01*
Y951765D01*
X1335714Y956118D01*
X1332811Y959020D01*
X1329909Y960472D01*
X1343114Y954667D02*
X1369234D01*
X1377506Y972081D02*
Y941607D01*
X1378957Y972081D02*
X1387664Y945960D01*
X1377506Y972081D02*
X1387664Y941607D01*
X1397822Y972081D02*
X1387664Y941607D01*
X1397822Y972081D02*
Y941607D01*
X1399273Y972081D02*
Y941607D01*
X1373153Y972081D02*
X1378957D01*
X1397822D02*
X1403626D01*
X1373153Y941607D02*
X1381859D01*
X1393468D02*
X1403626D01*
X1411462Y972081D02*
Y941607D01*
X1412913Y972081D02*
Y941607D01*
X1407109Y972081D02*
X1424522D01*
X1428875Y970630D01*
X1430327Y969178D01*
X1431778Y966276D01*
Y961923D01*
X1430327Y959020D01*
X1428875Y957569D01*
X1424522Y956118D01*
X1412913D01*
X1424522Y972081D02*
X1427424Y970630D01*
X1428875Y969178D01*
X1430327Y966276D01*
Y961923D01*
X1428875Y959020D01*
X1427424Y957569D01*
X1424522Y956118D01*
X1407109Y941607D02*
X1417267D01*
X427771Y340354D02*
Y309880D01*
X429222Y340354D02*
Y309880D01*
X423418Y340354D02*
X440831D01*
X445185Y338902D01*
X446636Y337451D01*
X448087Y334549D01*
Y330196D01*
X446636Y327293D01*
X445185Y325842D01*
X440831Y324391D01*
X429222D01*
X440831Y340354D02*
X443734Y338902D01*
X445185Y337451D01*
X446636Y334549D01*
Y330196D01*
X445185Y327293D01*
X443734Y325842D01*
X440831Y324391D01*
X423418Y309880D02*
X433576D01*
X455052Y327293D02*
Y325842D01*
X453601D01*
Y327293D01*
X455052Y328745D01*
X457955Y330196D01*
X463759D01*
X466661Y328745D01*
X468112Y327293D01*
X469563Y324391D01*
Y314233D01*
X471015Y311331D01*
X472466Y309880D01*
X468112Y327293D02*
Y314233D01*
X469563Y311331D01*
X472466Y309880D01*
X473917D01*
X468112Y324391D02*
X466661Y322940D01*
X457955Y321489D01*
X453601Y320038D01*
X452150Y317136D01*
Y314233D01*
X453601Y311331D01*
X457955Y309880D01*
X462308D01*
X465210Y311331D01*
X468112Y314233D01*
X457955Y321489D02*
X455052Y320038D01*
X453601Y317136D01*
Y314233D01*
X455052Y311331D01*
X457955Y309880D01*
X482624Y330196D02*
Y309880D01*
X484075Y330196D02*
Y309880D01*
Y321489D02*
X485526Y325842D01*
X488428Y328745D01*
X491330Y330196D01*
X495684D01*
X497135Y328745D01*
Y327293D01*
X495684Y325842D01*
X494232Y327293D01*
X495684Y328745D01*
X478270Y330196D02*
X484075D01*
X478270Y309880D02*
X488428D01*
X510485D02*
X509034Y311331D01*
X507583Y315685D01*
Y340354D01*
X506132D01*
Y315685D01*
X507583Y311331D01*
X510485Y309880D01*
X513387D01*
X516289Y311331D01*
X517741Y314233D01*
X501778Y330196D02*
X513387D01*
X522674Y334549D02*
X525577Y336000D01*
X529930Y340354D01*
Y309880D01*
X528479Y338902D02*
Y309880D01*
X522674D02*
X535734D01*
X540959Y322940D02*
X567079D01*
X575350Y340354D02*
Y318587D01*
X576801Y314233D01*
X579703Y311331D01*
X584057Y309880D01*
X586959D01*
X591312Y311331D01*
X594215Y314233D01*
X595666Y318587D01*
Y340354D01*
X576801D02*
Y318587D01*
X578252Y314233D01*
X581155Y311331D01*
X584057Y309880D01*
X570997Y340354D02*
X581155D01*
X591312D02*
X600019D01*
X521497Y262376D02*
Y231902D01*
X522948Y262376D02*
Y231902D01*
X517144Y262376D02*
X534557D01*
X538911Y260924D01*
X540362Y259473D01*
X541813Y256571D01*
Y252218D01*
X540362Y249315D01*
X538911Y247864D01*
X534557Y246413D01*
X522948D01*
X534557Y262376D02*
X537460Y260924D01*
X538911Y259473D01*
X540362Y256571D01*
Y252218D01*
X538911Y249315D01*
X537460Y247864D01*
X534557Y246413D01*
X517144Y231902D02*
X527302D01*
X548778Y249315D02*
Y247864D01*
X547327D01*
Y249315D01*
X548778Y250767D01*
X551681Y252218D01*
X557485D01*
X560387Y250767D01*
X561838Y249315D01*
X563289Y246413D01*
Y236255D01*
X564741Y233353D01*
X566192Y231902D01*
X561838Y249315D02*
Y236255D01*
X563289Y233353D01*
X566192Y231902D01*
X567643D01*
X561838Y246413D02*
X560387Y244962D01*
X551681Y243511D01*
X547327Y242060D01*
X545876Y239158D01*
Y236255D01*
X547327Y233353D01*
X551681Y231902D01*
X556034D01*
X558936Y233353D01*
X561838Y236255D01*
X551681Y243511D02*
X548778Y242060D01*
X547327Y239158D01*
Y236255D01*
X548778Y233353D01*
X551681Y231902D01*
X576350Y252218D02*
Y231902D01*
X577801Y252218D02*
Y231902D01*
Y243511D02*
X579252Y247864D01*
X582154Y250767D01*
X585056Y252218D01*
X589410D01*
X590861Y250767D01*
Y249315D01*
X589410Y247864D01*
X587958Y249315D01*
X589410Y250767D01*
X571996Y252218D02*
X577801D01*
X571996Y231902D02*
X582154D01*
X604211D02*
X602760Y233353D01*
X601309Y237707D01*
Y262376D01*
X599858D01*
Y237707D01*
X601309Y233353D01*
X604211Y231902D01*
X607113D01*
X610015Y233353D01*
X611467Y236255D01*
X595504Y252218D02*
X607113D01*
X616400Y256571D02*
X619303Y258022D01*
X623656Y262376D01*
Y231902D01*
X622205Y260924D02*
Y231902D01*
X616400D02*
X629460D01*
X634684Y244962D02*
X660805D01*
X667625Y262376D02*
X677783Y231902D01*
X669076Y262376D02*
X677783Y236255D01*
X687941Y262376D02*
X677783Y231902D01*
X664723Y262376D02*
X673429D01*
X682136D02*
X690843D01*
X524799Y96005D02*
Y65532D01*
X526250Y96005D02*
Y65532D01*
X520446Y96005D02*
X537859D01*
X542213Y94554D01*
X543664Y93103D01*
X545115Y90201D01*
Y85848D01*
X543664Y82945D01*
X542213Y81494D01*
X537859Y80043D01*
X526250D01*
X537859Y96005D02*
X540762Y94554D01*
X542213Y93103D01*
X543664Y90201D01*
Y85848D01*
X542213Y82945D01*
X540762Y81494D01*
X537859Y80043D01*
X520446Y65532D02*
X530604D01*
X552080Y82945D02*
Y81494D01*
X550629D01*
Y82945D01*
X552080Y84396D01*
X554983Y85848D01*
X560787D01*
X563689Y84396D01*
X565140Y82945D01*
X566591Y80043D01*
Y69885D01*
X568043Y66983D01*
X569494Y65532D01*
X565140Y82945D02*
Y69885D01*
X566591Y66983D01*
X569494Y65532D01*
X570945D01*
X565140Y80043D02*
X563689Y78592D01*
X554983Y77141D01*
X550629Y75690D01*
X549178Y72788D01*
Y69885D01*
X550629Y66983D01*
X554983Y65532D01*
X559336D01*
X562238Y66983D01*
X565140Y69885D01*
X554983Y77141D02*
X552080Y75690D01*
X550629Y72788D01*
Y69885D01*
X552080Y66983D01*
X554983Y65532D01*
X579652Y85848D02*
Y65532D01*
X581103Y85848D02*
Y65532D01*
Y77141D02*
X582554Y81494D01*
X585456Y84396D01*
X588358Y85848D01*
X592712D01*
X594163Y84396D01*
Y82945D01*
X592712Y81494D01*
X591260Y82945D01*
X592712Y84396D01*
X575298Y85848D02*
X581103D01*
X575298Y65532D02*
X585456D01*
X607513D02*
X606062Y66983D01*
X604611Y71336D01*
Y96005D01*
X603160D01*
Y71336D01*
X604611Y66983D01*
X607513Y65532D01*
X610415D01*
X613317Y66983D01*
X614769Y69885D01*
X598806Y85848D02*
X610415D01*
X619702Y90201D02*
X622605Y91652D01*
X626958Y96005D01*
Y65532D01*
X625507Y94554D02*
Y65532D01*
X619702D02*
X632762D01*
X637986Y78592D02*
X664107D01*
X672378Y96005D02*
X678183Y65532D01*
X673829Y96005D02*
X678183Y72788D01*
X683987Y96005D02*
X678183Y65532D01*
X683987Y96005D02*
X689791Y65532D01*
X685438Y96005D02*
X689791Y72788D01*
X695596Y96005D02*
X689791Y65532D01*
X668025Y96005D02*
X678183D01*
X691243D02*
X699949D01*
X522767Y176777D02*
Y146304D01*
X524218Y176777D02*
Y146304D01*
X518414Y176777D02*
X535827D01*
X540181Y175326D01*
X541632Y173875D01*
X543083Y170973D01*
Y166620D01*
X541632Y163717D01*
X540181Y162266D01*
X535827Y160815D01*
X524218D01*
X535827Y176777D02*
X538730Y175326D01*
X540181Y173875D01*
X541632Y170973D01*
Y166620D01*
X540181Y163717D01*
X538730Y162266D01*
X535827Y160815D01*
X518414Y146304D02*
X528572D01*
X550048Y163717D02*
Y162266D01*
X548597D01*
Y163717D01*
X550048Y165168D01*
X552951Y166620D01*
X558755D01*
X561657Y165168D01*
X563108Y163717D01*
X564560Y160815D01*
Y150657D01*
X566011Y147755D01*
X567462Y146304D01*
X563108Y163717D02*
Y150657D01*
X564560Y147755D01*
X567462Y146304D01*
X568913D01*
X563108Y160815D02*
X561657Y159364D01*
X552951Y157913D01*
X548597Y156462D01*
X547146Y153560D01*
Y150657D01*
X548597Y147755D01*
X552951Y146304D01*
X557304D01*
X560206Y147755D01*
X563108Y150657D01*
X552951Y157913D02*
X550048Y156462D01*
X548597Y153560D01*
Y150657D01*
X550048Y147755D01*
X552951Y146304D01*
X577620Y166620D02*
Y146304D01*
X579071Y166620D02*
Y146304D01*
Y157913D02*
X580522Y162266D01*
X583424Y165168D01*
X586326Y166620D01*
X590680D01*
X592131Y165168D01*
Y163717D01*
X590680Y162266D01*
X589229Y163717D01*
X590680Y165168D01*
X573266Y166620D02*
X579071D01*
X573266Y146304D02*
X583424D01*
X605481D02*
X604030Y147755D01*
X602579Y152108D01*
Y176777D01*
X601128D01*
Y152108D01*
X602579Y147755D01*
X605481Y146304D01*
X608383D01*
X611286Y147755D01*
X612737Y150657D01*
X596774Y166620D02*
X608383D01*
X617670Y170973D02*
X620573Y172424D01*
X624926Y176777D01*
Y146304D01*
X623475Y175326D02*
Y146304D01*
X617670D02*
X630731D01*
X635955Y159364D02*
X662075D01*
X686308Y172424D02*
X687759Y168071D01*
Y176777D01*
X686308Y172424D01*
X683406Y175326D01*
X679053Y176777D01*
X676151D01*
X671797Y175326D01*
X668895Y172424D01*
X667444Y169522D01*
X665993Y165168D01*
Y157913D01*
X667444Y153560D01*
X668895Y150657D01*
X671797Y147755D01*
X676151Y146304D01*
X679053D01*
X683406Y147755D01*
X686308Y150657D01*
X687759Y153560D01*
X676151Y176777D02*
X673248Y175326D01*
X670346Y172424D01*
X668895Y169522D01*
X667444Y165168D01*
Y157913D01*
X668895Y153560D01*
X670346Y150657D01*
X673248Y147755D01*
X676151Y146304D01*
X696466Y176777D02*
Y146304D01*
X697917Y176777D02*
X706624Y150657D01*
X696466Y176777D02*
X706624Y146304D01*
X716782Y176777D02*
X706624Y146304D01*
X716782Y176777D02*
Y146304D01*
X718233Y176777D02*
Y146304D01*
X692113Y176777D02*
X697917D01*
X716782D02*
X722586D01*
X692113Y146304D02*
X700819D01*
X712428D02*
X722586D01*
X730422Y176777D02*
Y146304D01*
X731873Y176777D02*
Y146304D01*
X726069Y176777D02*
X743482D01*
X747836Y175326D01*
X749287Y173875D01*
X750738Y170973D01*
Y166620D01*
X749287Y163717D01*
X747836Y162266D01*
X743482Y160815D01*
X731873D01*
X743482Y176777D02*
X746385Y175326D01*
X747836Y173875D01*
X749287Y170973D01*
Y166620D01*
X747836Y163717D01*
X746385Y162266D01*
X743482Y160815D01*
X726069Y146304D02*
X736227D01*
X416849Y728973D02*
Y698500D01*
X418301Y728973D02*
Y698500D01*
X412496Y728973D02*
X429909D01*
X434263Y727522D01*
X435714Y726071D01*
X437165Y723169D01*
Y718816D01*
X435714Y715913D01*
X434263Y714462D01*
X429909Y713011D01*
X418301D01*
X429909Y728973D02*
X432812Y727522D01*
X434263Y726071D01*
X435714Y723169D01*
Y718816D01*
X434263Y715913D01*
X432812Y714462D01*
X429909Y713011D01*
X412496Y698500D02*
X422654D01*
X444130Y715913D02*
Y714462D01*
X442679D01*
Y715913D01*
X444130Y717365D01*
X447033Y718816D01*
X452837D01*
X455739Y717365D01*
X457190Y715913D01*
X458642Y713011D01*
Y702853D01*
X460093Y699951D01*
X461544Y698500D01*
X457190Y715913D02*
Y702853D01*
X458642Y699951D01*
X461544Y698500D01*
X462995D01*
X457190Y713011D02*
X455739Y711560D01*
X447033Y710109D01*
X442679Y708658D01*
X441228Y705756D01*
Y702853D01*
X442679Y699951D01*
X447033Y698500D01*
X451386D01*
X454288Y699951D01*
X457190Y702853D01*
X447033Y710109D02*
X444130Y708658D01*
X442679Y705756D01*
Y702853D01*
X444130Y699951D01*
X447033Y698500D01*
X471702Y718816D02*
Y698500D01*
X473153Y718816D02*
Y698500D01*
Y710109D02*
X474604Y714462D01*
X477506Y717365D01*
X480408Y718816D01*
X484762D01*
X486213Y717365D01*
Y715913D01*
X484762Y714462D01*
X483311Y715913D01*
X484762Y717365D01*
X467348Y718816D02*
X473153D01*
X467348Y698500D02*
X477506D01*
X499563D02*
X498112Y699951D01*
X496661Y704305D01*
Y728973D01*
X495210D01*
Y704305D01*
X496661Y699951D01*
X499563Y698500D01*
X502465D01*
X505368Y699951D01*
X506819Y702853D01*
X490856Y718816D02*
X502465D01*
X513204Y723169D02*
X514655Y721718D01*
X513204Y720267D01*
X511752Y721718D01*
Y723169D01*
X513204Y726071D01*
X514655Y727522D01*
X519008Y728973D01*
X524813D01*
X529166Y727522D01*
X530617Y724620D01*
Y720267D01*
X529166Y717365D01*
X524813Y715913D01*
X520459D01*
X524813Y728973D02*
X527715Y727522D01*
X529166Y724620D01*
Y720267D01*
X527715Y717365D01*
X524813Y715913D01*
X527715Y714462D01*
X530617Y711560D01*
X532068Y708658D01*
Y704305D01*
X530617Y701402D01*
X529166Y699951D01*
X524813Y698500D01*
X519008D01*
X514655Y699951D01*
X513204Y701402D01*
X511752Y704305D01*
Y705756D01*
X513204Y707207D01*
X514655Y705756D01*
X513204Y704305D01*
X529166Y713011D02*
X530617Y708658D01*
Y704305D01*
X529166Y701402D01*
X527715Y699951D01*
X524813Y698500D01*
X536567Y711560D02*
X562687D01*
X570958Y728973D02*
Y707207D01*
X572409Y702853D01*
X575311Y699951D01*
X579665Y698500D01*
X582567D01*
X586920Y699951D01*
X589823Y702853D01*
X591274Y707207D01*
Y728973D01*
X572409D02*
Y707207D01*
X573860Y702853D01*
X576763Y699951D01*
X579665Y698500D01*
X566605Y728973D02*
X576763D01*
X586920D02*
X595627D01*
X520735Y648456D02*
Y617982D01*
X522187Y648456D02*
Y617982D01*
X516382Y648456D02*
X533795D01*
X538149Y647004D01*
X539600Y645553D01*
X541051Y642651D01*
Y638298D01*
X539600Y635395D01*
X538149Y633944D01*
X533795Y632493D01*
X522187D01*
X533795Y648456D02*
X536698Y647004D01*
X538149Y645553D01*
X539600Y642651D01*
Y638298D01*
X538149Y635395D01*
X536698Y633944D01*
X533795Y632493D01*
X516382Y617982D02*
X526540D01*
X548016Y635395D02*
Y633944D01*
X546565D01*
Y635395D01*
X548016Y636847D01*
X550919Y638298D01*
X556723D01*
X559625Y636847D01*
X561076Y635395D01*
X562528Y632493D01*
Y622335D01*
X563979Y619433D01*
X565430Y617982D01*
X561076Y635395D02*
Y622335D01*
X562528Y619433D01*
X565430Y617982D01*
X566881D01*
X561076Y632493D02*
X559625Y631042D01*
X550919Y629591D01*
X546565Y628140D01*
X545114Y625238D01*
Y622335D01*
X546565Y619433D01*
X550919Y617982D01*
X555272D01*
X558174Y619433D01*
X561076Y622335D01*
X550919Y629591D02*
X548016Y628140D01*
X546565Y625238D01*
Y622335D01*
X548016Y619433D01*
X550919Y617982D01*
X575588Y638298D02*
Y617982D01*
X577039Y638298D02*
Y617982D01*
Y629591D02*
X578490Y633944D01*
X581392Y636847D01*
X584294Y638298D01*
X588648D01*
X590099Y636847D01*
Y635395D01*
X588648Y633944D01*
X587197Y635395D01*
X588648Y636847D01*
X571234Y638298D02*
X577039D01*
X571234Y617982D02*
X581392D01*
X603449D02*
X601998Y619433D01*
X600547Y623787D01*
Y648456D01*
X599096D01*
Y623787D01*
X600547Y619433D01*
X603449Y617982D01*
X606351D01*
X609254Y619433D01*
X610705Y622335D01*
X594742Y638298D02*
X606351D01*
X617090Y642651D02*
X618541Y641200D01*
X617090Y639749D01*
X615638Y641200D01*
Y642651D01*
X617090Y645553D01*
X618541Y647004D01*
X622894Y648456D01*
X628699D01*
X633052Y647004D01*
X634503Y644102D01*
Y639749D01*
X633052Y636847D01*
X628699Y635395D01*
X624345D01*
X628699Y648456D02*
X631601Y647004D01*
X633052Y644102D01*
Y639749D01*
X631601Y636847D01*
X628699Y635395D01*
X631601Y633944D01*
X634503Y631042D01*
X635954Y628140D01*
Y623787D01*
X634503Y620884D01*
X633052Y619433D01*
X628699Y617982D01*
X622894D01*
X618541Y619433D01*
X617090Y620884D01*
X615638Y623787D01*
Y625238D01*
X617090Y626689D01*
X618541Y625238D01*
X617090Y623787D01*
X633052Y632493D02*
X634503Y628140D01*
Y623787D01*
X633052Y620884D01*
X631601Y619433D01*
X628699Y617982D01*
X640452Y631042D02*
X666573D01*
X673393Y648456D02*
X683551Y617982D01*
X674844Y648456D02*
X683551Y622335D01*
X693709Y648456D02*
X683551Y617982D01*
X670491Y648456D02*
X679197D01*
X687904D02*
X696611D01*
X526323Y482340D02*
Y451866D01*
X527775Y482340D02*
Y451866D01*
X521970Y482340D02*
X539383D01*
X543737Y480888D01*
X545188Y479437D01*
X546639Y476535D01*
Y472182D01*
X545188Y469279D01*
X543737Y467828D01*
X539383Y466377D01*
X527775D01*
X539383Y482340D02*
X542286Y480888D01*
X543737Y479437D01*
X545188Y476535D01*
Y472182D01*
X543737Y469279D01*
X542286Y467828D01*
X539383Y466377D01*
X521970Y451866D02*
X532128D01*
X553604Y469279D02*
Y467828D01*
X552153D01*
Y469279D01*
X553604Y470731D01*
X556507Y472182D01*
X562311D01*
X565213Y470731D01*
X566664Y469279D01*
X568116Y466377D01*
Y456219D01*
X569567Y453317D01*
X571018Y451866D01*
X566664Y469279D02*
Y456219D01*
X568116Y453317D01*
X571018Y451866D01*
X572469D01*
X566664Y466377D02*
X565213Y464926D01*
X556507Y463475D01*
X552153Y462024D01*
X550702Y459122D01*
Y456219D01*
X552153Y453317D01*
X556507Y451866D01*
X560860D01*
X563762Y453317D01*
X566664Y456219D01*
X556507Y463475D02*
X553604Y462024D01*
X552153Y459122D01*
Y456219D01*
X553604Y453317D01*
X556507Y451866D01*
X581176Y472182D02*
Y451866D01*
X582627Y472182D02*
Y451866D01*
Y463475D02*
X584078Y467828D01*
X586980Y470731D01*
X589882Y472182D01*
X594236D01*
X595687Y470731D01*
Y469279D01*
X594236Y467828D01*
X592785Y469279D01*
X594236Y470731D01*
X576822Y472182D02*
X582627D01*
X576822Y451866D02*
X586980D01*
X609037D02*
X607586Y453317D01*
X606135Y457671D01*
Y482340D01*
X604684D01*
Y457671D01*
X606135Y453317D01*
X609037Y451866D01*
X611939D01*
X614841Y453317D01*
X616293Y456219D01*
X600330Y472182D02*
X611939D01*
X622678Y476535D02*
X624129Y475084D01*
X622678Y473633D01*
X621226Y475084D01*
Y476535D01*
X622678Y479437D01*
X624129Y480888D01*
X628482Y482340D01*
X634286D01*
X638640Y480888D01*
X640091Y477986D01*
Y473633D01*
X638640Y470731D01*
X634286Y469279D01*
X629933D01*
X634286Y482340D02*
X637189Y480888D01*
X638640Y477986D01*
Y473633D01*
X637189Y470731D01*
X634286Y469279D01*
X637189Y467828D01*
X640091Y464926D01*
X641542Y462024D01*
Y457671D01*
X640091Y454768D01*
X638640Y453317D01*
X634286Y451866D01*
X628482D01*
X624129Y453317D01*
X622678Y454768D01*
X621226Y457671D01*
Y459122D01*
X622678Y460573D01*
X624129Y459122D01*
X622678Y457671D01*
X638640Y466377D02*
X640091Y462024D01*
Y457671D01*
X638640Y454768D01*
X637189Y453317D01*
X634286Y451866D01*
X646040Y464926D02*
X672161D01*
X680432Y482340D02*
X686236Y451866D01*
X681883Y482340D02*
X686236Y459122D01*
X692041Y482340D02*
X686236Y451866D01*
X692041Y482340D02*
X697845Y451866D01*
X693492Y482340D02*
X697845Y459122D01*
X703650Y482340D02*
X697845Y451866D01*
X676079Y482340D02*
X686236D01*
X699297D02*
X708003D01*
X520227Y566668D02*
Y536194D01*
X521679Y566668D02*
Y536194D01*
X515874Y566668D02*
X533287D01*
X537641Y565216D01*
X539092Y563765D01*
X540543Y560863D01*
Y556510D01*
X539092Y553607D01*
X537641Y552156D01*
X533287Y550705D01*
X521679D01*
X533287Y566668D02*
X536190Y565216D01*
X537641Y563765D01*
X539092Y560863D01*
Y556510D01*
X537641Y553607D01*
X536190Y552156D01*
X533287Y550705D01*
X515874Y536194D02*
X526032D01*
X547508Y553607D02*
Y552156D01*
X546057D01*
Y553607D01*
X547508Y555059D01*
X550411Y556510D01*
X556215D01*
X559117Y555059D01*
X560568Y553607D01*
X562020Y550705D01*
Y540547D01*
X563471Y537645D01*
X564922Y536194D01*
X560568Y553607D02*
Y540547D01*
X562020Y537645D01*
X564922Y536194D01*
X566373D01*
X560568Y550705D02*
X559117Y549254D01*
X550411Y547803D01*
X546057Y546352D01*
X544606Y543450D01*
Y540547D01*
X546057Y537645D01*
X550411Y536194D01*
X554764D01*
X557666Y537645D01*
X560568Y540547D01*
X550411Y547803D02*
X547508Y546352D01*
X546057Y543450D01*
Y540547D01*
X547508Y537645D01*
X550411Y536194D01*
X575080Y556510D02*
Y536194D01*
X576531Y556510D02*
Y536194D01*
Y547803D02*
X577982Y552156D01*
X580884Y555059D01*
X583786Y556510D01*
X588140D01*
X589591Y555059D01*
Y553607D01*
X588140Y552156D01*
X586688Y553607D01*
X588140Y555059D01*
X570726Y556510D02*
X576531D01*
X570726Y536194D02*
X580884D01*
X602941D02*
X601490Y537645D01*
X600039Y541998D01*
Y566668D01*
X598588D01*
Y541998D01*
X600039Y537645D01*
X602941Y536194D01*
X605843D01*
X608745Y537645D01*
X610197Y540547D01*
X594234Y556510D02*
X605843D01*
X616582Y560863D02*
X618033Y559412D01*
X616582Y557961D01*
X615130Y559412D01*
Y560863D01*
X616582Y563765D01*
X618033Y565216D01*
X622386Y566668D01*
X628190D01*
X632544Y565216D01*
X633995Y562314D01*
Y557961D01*
X632544Y555059D01*
X628190Y553607D01*
X623837D01*
X628190Y566668D02*
X631093Y565216D01*
X632544Y562314D01*
Y557961D01*
X631093Y555059D01*
X628190Y553607D01*
X631093Y552156D01*
X633995Y549254D01*
X635446Y546352D01*
Y541998D01*
X633995Y539096D01*
X632544Y537645D01*
X628190Y536194D01*
X622386D01*
X618033Y537645D01*
X616582Y539096D01*
X615130Y541998D01*
Y543450D01*
X616582Y544901D01*
X618033Y543450D01*
X616582Y541998D01*
X632544Y550705D02*
X633995Y546352D01*
Y541998D01*
X632544Y539096D01*
X631093Y537645D01*
X628190Y536194D01*
X639944Y549254D02*
X666065D01*
X690298Y562314D02*
X691749Y557961D01*
Y566668D01*
X690298Y562314D01*
X687396Y565216D01*
X683043Y566668D01*
X680141D01*
X675787Y565216D01*
X672885Y562314D01*
X671434Y559412D01*
X669983Y555059D01*
Y547803D01*
X671434Y543450D01*
X672885Y540547D01*
X675787Y537645D01*
X680141Y536194D01*
X683043D01*
X687396Y537645D01*
X690298Y540547D01*
X691749Y543450D01*
X680141Y566668D02*
X677238Y565216D01*
X674336Y562314D01*
X672885Y559412D01*
X671434Y555059D01*
Y547803D01*
X672885Y543450D01*
X674336Y540547D01*
X677238Y537645D01*
X680141Y536194D01*
X700456Y566668D02*
Y536194D01*
X701907Y566668D02*
X710614Y540547D01*
X700456Y566668D02*
X710614Y536194D01*
X720772Y566668D02*
X710614Y536194D01*
X720772Y566668D02*
Y536194D01*
X722223Y566668D02*
Y536194D01*
X696103Y566668D02*
X701907D01*
X720772D02*
X726576D01*
X696103Y536194D02*
X704809D01*
X716419D02*
X726576D01*
X734412Y566668D02*
Y536194D01*
X735863Y566668D02*
Y536194D01*
X730059Y566668D02*
X747472D01*
X751826Y565216D01*
X753277Y563765D01*
X754728Y560863D01*
Y556510D01*
X753277Y553607D01*
X751826Y552156D01*
X747472Y550705D01*
X735863D01*
X747472Y566668D02*
X750375Y565216D01*
X751826Y563765D01*
X753277Y560863D01*
Y556510D01*
X751826Y553607D01*
X750375Y552156D01*
X747472Y550705D01*
X730059Y536194D02*
X740217D01*
X423199Y1112767D02*
Y1082294D01*
X424650Y1112767D02*
Y1082294D01*
X418846Y1112767D02*
X436259D01*
X440613Y1111316D01*
X442064Y1109865D01*
X443515Y1106963D01*
Y1102610D01*
X442064Y1099707D01*
X440613Y1098256D01*
X436259Y1096805D01*
X424650D01*
X436259Y1112767D02*
X439162Y1111316D01*
X440613Y1109865D01*
X442064Y1106963D01*
Y1102610D01*
X440613Y1099707D01*
X439162Y1098256D01*
X436259Y1096805D01*
X418846Y1082294D02*
X429004D01*
X450480Y1099707D02*
Y1098256D01*
X449029D01*
Y1099707D01*
X450480Y1101159D01*
X453383Y1102610D01*
X459187D01*
X462089Y1101159D01*
X463540Y1099707D01*
X464991Y1096805D01*
Y1086647D01*
X466443Y1083745D01*
X467894Y1082294D01*
X463540Y1099707D02*
Y1086647D01*
X464991Y1083745D01*
X467894Y1082294D01*
X469345D01*
X463540Y1096805D02*
X462089Y1095354D01*
X453383Y1093903D01*
X449029Y1092452D01*
X447578Y1089550D01*
Y1086647D01*
X449029Y1083745D01*
X453383Y1082294D01*
X457736D01*
X460638Y1083745D01*
X463540Y1086647D01*
X453383Y1093903D02*
X450480Y1092452D01*
X449029Y1089550D01*
Y1086647D01*
X450480Y1083745D01*
X453383Y1082294D01*
X478052Y1102610D02*
Y1082294D01*
X479503Y1102610D02*
Y1082294D01*
Y1093903D02*
X480954Y1098256D01*
X483856Y1101159D01*
X486758Y1102610D01*
X491112D01*
X492563Y1101159D01*
Y1099707D01*
X491112Y1098256D01*
X489660Y1099707D01*
X491112Y1101159D01*
X473698Y1102610D02*
X479503D01*
X473698Y1082294D02*
X483856D01*
X505913D02*
X504462Y1083745D01*
X503011Y1088099D01*
Y1112767D01*
X501560D01*
Y1088099D01*
X503011Y1083745D01*
X505913Y1082294D01*
X508815D01*
X511717Y1083745D01*
X513169Y1086647D01*
X497206Y1102610D02*
X508815D01*
X521005Y1112767D02*
X518102Y1098256D01*
X521005Y1101159D01*
X525358Y1102610D01*
X529711D01*
X534065Y1101159D01*
X536967Y1098256D01*
X538418Y1093903D01*
Y1091001D01*
X536967Y1086647D01*
X534065Y1083745D01*
X529711Y1082294D01*
X525358D01*
X521005Y1083745D01*
X519554Y1085196D01*
X518102Y1088099D01*
Y1089550D01*
X519554Y1091001D01*
X521005Y1089550D01*
X519554Y1088099D01*
X529711Y1102610D02*
X532614Y1101159D01*
X535516Y1098256D01*
X536967Y1093903D01*
Y1091001D01*
X535516Y1086647D01*
X532614Y1083745D01*
X529711Y1082294D01*
X521005Y1112767D02*
X535516D01*
X521005Y1111316D02*
X528260D01*
X535516Y1112767D01*
X542916Y1095354D02*
X569037D01*
X577308Y1112767D02*
Y1091001D01*
X578759Y1086647D01*
X581661Y1083745D01*
X586015Y1082294D01*
X588917D01*
X593270Y1083745D01*
X596173Y1086647D01*
X597624Y1091001D01*
Y1112767D01*
X578759D02*
Y1091001D01*
X580210Y1086647D01*
X583112Y1083745D01*
X586015Y1082294D01*
X572955Y1112767D02*
X583112D01*
X593270D02*
X601977D01*
X517941Y1035043D02*
Y1004570D01*
X519393Y1035043D02*
Y1004570D01*
X513588Y1035043D02*
X531001D01*
X535355Y1033592D01*
X536806Y1032141D01*
X538257Y1029239D01*
Y1024886D01*
X536806Y1021983D01*
X535355Y1020532D01*
X531001Y1019081D01*
X519393D01*
X531001Y1035043D02*
X533904Y1033592D01*
X535355Y1032141D01*
X536806Y1029239D01*
Y1024886D01*
X535355Y1021983D01*
X533904Y1020532D01*
X531001Y1019081D01*
X513588Y1004570D02*
X523746D01*
X545222Y1021983D02*
Y1020532D01*
X543771D01*
Y1021983D01*
X545222Y1023435D01*
X548125Y1024886D01*
X553929D01*
X556831Y1023435D01*
X558282Y1021983D01*
X559734Y1019081D01*
Y1008923D01*
X561185Y1006021D01*
X562636Y1004570D01*
X558282Y1021983D02*
Y1008923D01*
X559734Y1006021D01*
X562636Y1004570D01*
X564087D01*
X558282Y1019081D02*
X556831Y1017630D01*
X548125Y1016179D01*
X543771Y1014728D01*
X542320Y1011826D01*
Y1008923D01*
X543771Y1006021D01*
X548125Y1004570D01*
X552478D01*
X555380Y1006021D01*
X558282Y1008923D01*
X548125Y1016179D02*
X545222Y1014728D01*
X543771Y1011826D01*
Y1008923D01*
X545222Y1006021D01*
X548125Y1004570D01*
X572794Y1024886D02*
Y1004570D01*
X574245Y1024886D02*
Y1004570D01*
Y1016179D02*
X575696Y1020532D01*
X578598Y1023435D01*
X581500Y1024886D01*
X585854D01*
X587305Y1023435D01*
Y1021983D01*
X585854Y1020532D01*
X584403Y1021983D01*
X585854Y1023435D01*
X568440Y1024886D02*
X574245D01*
X568440Y1004570D02*
X578598D01*
X600655D02*
X599204Y1006021D01*
X597753Y1010375D01*
Y1035043D01*
X596302D01*
Y1010375D01*
X597753Y1006021D01*
X600655Y1004570D01*
X603557D01*
X606460Y1006021D01*
X607911Y1008923D01*
X591948Y1024886D02*
X603557D01*
X615747Y1035043D02*
X612844Y1020532D01*
X615747Y1023435D01*
X620100Y1024886D01*
X624453D01*
X628807Y1023435D01*
X631709Y1020532D01*
X633160Y1016179D01*
Y1013277D01*
X631709Y1008923D01*
X628807Y1006021D01*
X624453Y1004570D01*
X620100D01*
X615747Y1006021D01*
X614296Y1007472D01*
X612844Y1010375D01*
Y1011826D01*
X614296Y1013277D01*
X615747Y1011826D01*
X614296Y1010375D01*
X624453Y1024886D02*
X627356Y1023435D01*
X630258Y1020532D01*
X631709Y1016179D01*
Y1013277D01*
X630258Y1008923D01*
X627356Y1006021D01*
X624453Y1004570D01*
X615747Y1035043D02*
X630258D01*
X615747Y1033592D02*
X623002D01*
X630258Y1035043D01*
X637659Y1017630D02*
X663779D01*
X670599Y1035043D02*
X680757Y1004570D01*
X672050Y1035043D02*
X680757Y1008923D01*
X690915Y1035043D02*
X680757Y1004570D01*
X667697Y1035043D02*
X676403D01*
X685110D02*
X693817D01*
X502193Y885692D02*
Y855218D01*
X503644Y885692D02*
Y855218D01*
X497840Y885692D02*
X515253D01*
X519607Y884240D01*
X521058Y882789D01*
X522509Y879887D01*
Y875534D01*
X521058Y872631D01*
X519607Y871180D01*
X515253Y869729D01*
X503644D01*
X515253Y885692D02*
X518156Y884240D01*
X519607Y882789D01*
X521058Y879887D01*
Y875534D01*
X519607Y872631D01*
X518156Y871180D01*
X515253Y869729D01*
X497840Y855218D02*
X507998D01*
X529474Y872631D02*
Y871180D01*
X528023D01*
Y872631D01*
X529474Y874082D01*
X532377Y875534D01*
X538181D01*
X541083Y874082D01*
X542534Y872631D01*
X543985Y869729D01*
Y859571D01*
X545437Y856669D01*
X546888Y855218D01*
X542534Y872631D02*
Y859571D01*
X543985Y856669D01*
X546888Y855218D01*
X548339D01*
X542534Y869729D02*
X541083Y868278D01*
X532377Y866827D01*
X528023Y865376D01*
X526572Y862474D01*
Y859571D01*
X528023Y856669D01*
X532377Y855218D01*
X536730D01*
X539632Y856669D01*
X542534Y859571D01*
X532377Y866827D02*
X529474Y865376D01*
X528023Y862474D01*
Y859571D01*
X529474Y856669D01*
X532377Y855218D01*
X557046Y875534D02*
Y855218D01*
X558497Y875534D02*
Y855218D01*
Y866827D02*
X559948Y871180D01*
X562850Y874082D01*
X565752Y875534D01*
X570106D01*
X571557Y874082D01*
Y872631D01*
X570106Y871180D01*
X568655Y872631D01*
X570106Y874082D01*
X552692Y875534D02*
X558497D01*
X552692Y855218D02*
X562850D01*
X584907D02*
X583456Y856669D01*
X582005Y861022D01*
Y885692D01*
X580554D01*
Y861022D01*
X582005Y856669D01*
X584907Y855218D01*
X587809D01*
X590712Y856669D01*
X592163Y859571D01*
X576200Y875534D02*
X587809D01*
X599999Y885692D02*
X597096Y871180D01*
X599999Y874082D01*
X604352Y875534D01*
X608705D01*
X613059Y874082D01*
X615961Y871180D01*
X617412Y866827D01*
Y863925D01*
X615961Y859571D01*
X613059Y856669D01*
X608705Y855218D01*
X604352D01*
X599999Y856669D01*
X598548Y858120D01*
X597096Y861022D01*
Y862474D01*
X598548Y863925D01*
X599999Y862474D01*
X598548Y861022D01*
X608705Y875534D02*
X611608Y874082D01*
X614510Y871180D01*
X615961Y866827D01*
Y863925D01*
X614510Y859571D01*
X611608Y856669D01*
X608705Y855218D01*
X599999Y885692D02*
X614510D01*
X599999Y884240D02*
X607254D01*
X614510Y885692D01*
X621911Y868278D02*
X648031D01*
X656302Y885692D02*
X662106Y855218D01*
X657753Y885692D02*
X662106Y862474D01*
X667911Y885692D02*
X662106Y855218D01*
X667911Y885692D02*
X673715Y855218D01*
X669362Y885692D02*
X673715Y862474D01*
X679520Y885692D02*
X673715Y855218D01*
X651949Y885692D02*
X662106D01*
X675167D02*
X683873D01*
X520227Y950969D02*
Y920496D01*
X521679Y950969D02*
Y920496D01*
X515874Y950969D02*
X533287D01*
X537641Y949518D01*
X539092Y948067D01*
X540543Y945165D01*
Y940812D01*
X539092Y937909D01*
X537641Y936458D01*
X533287Y935007D01*
X521679D01*
X533287Y950969D02*
X536190Y949518D01*
X537641Y948067D01*
X539092Y945165D01*
Y940812D01*
X537641Y937909D01*
X536190Y936458D01*
X533287Y935007D01*
X515874Y920496D02*
X526032D01*
X547508Y937909D02*
Y936458D01*
X546057D01*
Y937909D01*
X547508Y939361D01*
X550411Y940812D01*
X556215D01*
X559117Y939361D01*
X560568Y937909D01*
X562020Y935007D01*
Y924849D01*
X563471Y921947D01*
X564922Y920496D01*
X560568Y937909D02*
Y924849D01*
X562020Y921947D01*
X564922Y920496D01*
X566373D01*
X560568Y935007D02*
X559117Y933556D01*
X550411Y932105D01*
X546057Y930654D01*
X544606Y927752D01*
Y924849D01*
X546057Y921947D01*
X550411Y920496D01*
X554764D01*
X557666Y921947D01*
X560568Y924849D01*
X550411Y932105D02*
X547508Y930654D01*
X546057Y927752D01*
Y924849D01*
X547508Y921947D01*
X550411Y920496D01*
X575080Y940812D02*
Y920496D01*
X576531Y940812D02*
Y920496D01*
Y932105D02*
X577982Y936458D01*
X580884Y939361D01*
X583786Y940812D01*
X588140D01*
X589591Y939361D01*
Y937909D01*
X588140Y936458D01*
X586688Y937909D01*
X588140Y939361D01*
X570726Y940812D02*
X576531D01*
X570726Y920496D02*
X580884D01*
X602941D02*
X601490Y921947D01*
X600039Y926301D01*
Y950969D01*
X598588D01*
Y926301D01*
X600039Y921947D01*
X602941Y920496D01*
X605843D01*
X608745Y921947D01*
X610197Y924849D01*
X594234Y940812D02*
X605843D01*
X618033Y950969D02*
X615130Y936458D01*
X618033Y939361D01*
X622386Y940812D01*
X626739D01*
X631093Y939361D01*
X633995Y936458D01*
X635446Y932105D01*
Y929203D01*
X633995Y924849D01*
X631093Y921947D01*
X626739Y920496D01*
X622386D01*
X618033Y921947D01*
X616582Y923398D01*
X615130Y926301D01*
Y927752D01*
X616582Y929203D01*
X618033Y927752D01*
X616582Y926301D01*
X626739Y940812D02*
X629642Y939361D01*
X632544Y936458D01*
X633995Y932105D01*
Y929203D01*
X632544Y924849D01*
X629642Y921947D01*
X626739Y920496D01*
X618033Y950969D02*
X632544D01*
X618033Y949518D02*
X625288D01*
X632544Y950969D01*
X639944Y933556D02*
X666065D01*
X690298Y946616D02*
X691749Y942263D01*
Y950969D01*
X690298Y946616D01*
X687396Y949518D01*
X683043Y950969D01*
X680141D01*
X675787Y949518D01*
X672885Y946616D01*
X671434Y943714D01*
X669983Y939361D01*
Y932105D01*
X671434Y927752D01*
X672885Y924849D01*
X675787Y921947D01*
X680141Y920496D01*
X683043D01*
X687396Y921947D01*
X690298Y924849D01*
X691749Y927752D01*
X680141Y950969D02*
X677238Y949518D01*
X674336Y946616D01*
X672885Y943714D01*
X671434Y939361D01*
Y932105D01*
X672885Y927752D01*
X674336Y924849D01*
X677238Y921947D01*
X680141Y920496D01*
X700456Y950969D02*
Y920496D01*
X701907Y950969D02*
X710614Y924849D01*
X700456Y950969D02*
X710614Y920496D01*
X720772Y950969D02*
X710614Y920496D01*
X720772Y950969D02*
Y920496D01*
X722223Y950969D02*
Y920496D01*
X696103Y950969D02*
X701907D01*
X720772D02*
X726576D01*
X696103Y920496D02*
X704809D01*
X716419D02*
X726576D01*
X734412Y950969D02*
Y920496D01*
X735863Y950969D02*
Y920496D01*
X730059Y950969D02*
X747472D01*
X751826Y949518D01*
X753277Y948067D01*
X754728Y945165D01*
Y940812D01*
X753277Y937909D01*
X751826Y936458D01*
X747472Y935007D01*
X735863D01*
X747472Y950969D02*
X750375Y949518D01*
X751826Y948067D01*
X753277Y945165D01*
Y940812D01*
X751826Y937909D01*
X750375Y936458D01*
X747472Y935007D01*
X730059Y920496D02*
X740217D01*
X1223553Y1360164D02*
Y1329690D01*
X1225005Y1360164D02*
Y1329690D01*
X1219200Y1360164D02*
X1236613D01*
X1240967Y1358712D01*
X1242418Y1357261D01*
X1243869Y1354359D01*
Y1350006D01*
X1242418Y1347103D01*
X1240967Y1345652D01*
X1236613Y1344201D01*
X1225005D01*
X1236613Y1360164D02*
X1239516Y1358712D01*
X1240967Y1357261D01*
X1242418Y1354359D01*
Y1350006D01*
X1240967Y1347103D01*
X1239516Y1345652D01*
X1236613Y1344201D01*
X1219200Y1329690D02*
X1229358D01*
X1250834Y1347103D02*
Y1345652D01*
X1249383D01*
Y1347103D01*
X1250834Y1348555D01*
X1253737Y1350006D01*
X1259541D01*
X1262443Y1348555D01*
X1263894Y1347103D01*
X1265346Y1344201D01*
Y1334043D01*
X1266797Y1331141D01*
X1268248Y1329690D01*
X1263894Y1347103D02*
Y1334043D01*
X1265346Y1331141D01*
X1268248Y1329690D01*
X1269699D01*
X1263894Y1344201D02*
X1262443Y1342750D01*
X1253737Y1341299D01*
X1249383Y1339848D01*
X1247932Y1336946D01*
Y1334043D01*
X1249383Y1331141D01*
X1253737Y1329690D01*
X1258090D01*
X1260992Y1331141D01*
X1263894Y1334043D01*
X1253737Y1341299D02*
X1250834Y1339848D01*
X1249383Y1336946D01*
Y1334043D01*
X1250834Y1331141D01*
X1253737Y1329690D01*
X1278406Y1350006D02*
Y1329690D01*
X1279857Y1350006D02*
Y1329690D01*
Y1341299D02*
X1281308Y1345652D01*
X1284210Y1348555D01*
X1287112Y1350006D01*
X1291466D01*
X1292917Y1348555D01*
Y1347103D01*
X1291466Y1345652D01*
X1290014Y1347103D01*
X1291466Y1348555D01*
X1274052Y1350006D02*
X1279857D01*
X1274052Y1329690D02*
X1284210D01*
X1306267D02*
X1304816Y1331141D01*
X1303365Y1335495D01*
Y1360164D01*
X1301914D01*
Y1335495D01*
X1303365Y1331141D01*
X1306267Y1329690D01*
X1309169D01*
X1312072Y1331141D01*
X1313523Y1334043D01*
X1297560Y1350006D02*
X1309169D01*
X1325712Y1360164D02*
X1321359Y1358712D01*
X1319908Y1355810D01*
Y1351457D01*
X1321359Y1348555D01*
X1325712Y1347103D01*
X1331517D01*
X1335870Y1348555D01*
X1337321Y1351457D01*
Y1355810D01*
X1335870Y1358712D01*
X1331517Y1360164D01*
X1325712D01*
X1322810Y1358712D01*
X1321359Y1355810D01*
Y1351457D01*
X1322810Y1348555D01*
X1325712Y1347103D01*
X1331517D02*
X1334419Y1348555D01*
X1335870Y1351457D01*
Y1355810D01*
X1334419Y1358712D01*
X1331517Y1360164D01*
X1325712Y1347103D02*
X1321359Y1345652D01*
X1319908Y1344201D01*
X1318456Y1341299D01*
Y1335495D01*
X1319908Y1332592D01*
X1321359Y1331141D01*
X1325712Y1329690D01*
X1331517D01*
X1335870Y1331141D01*
X1337321Y1332592D01*
X1338772Y1335495D01*
Y1341299D01*
X1337321Y1344201D01*
X1335870Y1345652D01*
X1331517Y1347103D01*
X1325712D02*
X1322810Y1345652D01*
X1321359Y1344201D01*
X1319908Y1341299D01*
Y1335495D01*
X1321359Y1332592D01*
X1322810Y1331141D01*
X1325712Y1329690D01*
X1331517D02*
X1334419Y1331141D01*
X1335870Y1332592D01*
X1337321Y1335495D01*
Y1341299D01*
X1335870Y1344201D01*
X1334419Y1345652D01*
X1331517Y1347103D01*
X1343271Y1342750D02*
X1369391D01*
X1393624Y1355810D02*
X1395075Y1351457D01*
Y1360164D01*
X1393624Y1355810D01*
X1390722Y1358712D01*
X1386369Y1360164D01*
X1383466D01*
X1379113Y1358712D01*
X1376211Y1355810D01*
X1374760Y1352908D01*
X1373309Y1348555D01*
Y1341299D01*
X1374760Y1336946D01*
X1376211Y1334043D01*
X1379113Y1331141D01*
X1383466Y1329690D01*
X1386369D01*
X1390722Y1331141D01*
X1393624Y1334043D01*
X1395075Y1336946D01*
X1383466Y1360164D02*
X1380564Y1358712D01*
X1377662Y1355810D01*
X1376211Y1352908D01*
X1374760Y1348555D01*
Y1341299D01*
X1376211Y1336946D01*
X1377662Y1334043D01*
X1380564Y1331141D01*
X1383466Y1329690D01*
X1403782Y1360164D02*
Y1329690D01*
X1405233Y1360164D02*
X1413940Y1334043D01*
X1403782Y1360164D02*
X1413940Y1329690D01*
X1424098Y1360164D02*
X1413940Y1329690D01*
X1424098Y1360164D02*
Y1329690D01*
X1425549Y1360164D02*
Y1329690D01*
X1399429Y1360164D02*
X1405233D01*
X1424098D02*
X1429902D01*
X1399429Y1329690D02*
X1408136D01*
X1419745D02*
X1429902D01*
X1437738Y1360164D02*
Y1329690D01*
X1439189Y1360164D02*
Y1329690D01*
X1433385Y1360164D02*
X1450798D01*
X1455152Y1358712D01*
X1456603Y1357261D01*
X1458054Y1354359D01*
Y1350006D01*
X1456603Y1347103D01*
X1455152Y1345652D01*
X1450798Y1344201D01*
X1439189D01*
X1450798Y1360164D02*
X1453701Y1358712D01*
X1455152Y1357261D01*
X1456603Y1354359D01*
Y1350006D01*
X1455152Y1347103D01*
X1453701Y1345652D01*
X1450798Y1344201D01*
X1433385Y1329690D02*
X1443543D01*
X1096553Y1432554D02*
Y1402080D01*
X1098005Y1432554D02*
Y1402080D01*
X1092200Y1432554D02*
X1109613D01*
X1113967Y1431102D01*
X1115418Y1429651D01*
X1116869Y1426749D01*
Y1422396D01*
X1115418Y1419493D01*
X1113967Y1418042D01*
X1109613Y1416591D01*
X1098005D01*
X1109613Y1432554D02*
X1112516Y1431102D01*
X1113967Y1429651D01*
X1115418Y1426749D01*
Y1422396D01*
X1113967Y1419493D01*
X1112516Y1418042D01*
X1109613Y1416591D01*
X1092200Y1402080D02*
X1102358D01*
X1123834Y1419493D02*
Y1418042D01*
X1122383D01*
Y1419493D01*
X1123834Y1420945D01*
X1126737Y1422396D01*
X1132541D01*
X1135443Y1420945D01*
X1136894Y1419493D01*
X1138345Y1416591D01*
Y1406433D01*
X1139797Y1403531D01*
X1141248Y1402080D01*
X1136894Y1419493D02*
Y1406433D01*
X1138345Y1403531D01*
X1141248Y1402080D01*
X1142699D01*
X1136894Y1416591D02*
X1135443Y1415140D01*
X1126737Y1413689D01*
X1122383Y1412238D01*
X1120932Y1409336D01*
Y1406433D01*
X1122383Y1403531D01*
X1126737Y1402080D01*
X1131090D01*
X1133992Y1403531D01*
X1136894Y1406433D01*
X1126737Y1413689D02*
X1123834Y1412238D01*
X1122383Y1409336D01*
Y1406433D01*
X1123834Y1403531D01*
X1126737Y1402080D01*
X1151406Y1422396D02*
Y1402080D01*
X1152857Y1422396D02*
Y1402080D01*
Y1413689D02*
X1154308Y1418042D01*
X1157210Y1420945D01*
X1160112Y1422396D01*
X1164466D01*
X1165917Y1420945D01*
Y1419493D01*
X1164466Y1418042D01*
X1163015Y1419493D01*
X1164466Y1420945D01*
X1147052Y1422396D02*
X1152857D01*
X1147052Y1402080D02*
X1157210D01*
X1179267D02*
X1177816Y1403531D01*
X1176365Y1407885D01*
Y1432554D01*
X1174914D01*
Y1407885D01*
X1176365Y1403531D01*
X1179267Y1402080D01*
X1182169D01*
X1185071Y1403531D01*
X1186523Y1406433D01*
X1170560Y1422396D02*
X1182169D01*
X1198712Y1432554D02*
X1194359Y1431102D01*
X1192908Y1428200D01*
Y1423847D01*
X1194359Y1420945D01*
X1198712Y1419493D01*
X1204517D01*
X1208870Y1420945D01*
X1210321Y1423847D01*
Y1428200D01*
X1208870Y1431102D01*
X1204517Y1432554D01*
X1198712D01*
X1195810Y1431102D01*
X1194359Y1428200D01*
Y1423847D01*
X1195810Y1420945D01*
X1198712Y1419493D01*
X1204517D02*
X1207419Y1420945D01*
X1208870Y1423847D01*
Y1428200D01*
X1207419Y1431102D01*
X1204517Y1432554D01*
X1198712Y1419493D02*
X1194359Y1418042D01*
X1192908Y1416591D01*
X1191456Y1413689D01*
Y1407885D01*
X1192908Y1404982D01*
X1194359Y1403531D01*
X1198712Y1402080D01*
X1204517D01*
X1208870Y1403531D01*
X1210321Y1404982D01*
X1211772Y1407885D01*
Y1413689D01*
X1210321Y1416591D01*
X1208870Y1418042D01*
X1204517Y1419493D01*
X1198712D02*
X1195810Y1418042D01*
X1194359Y1416591D01*
X1192908Y1413689D01*
Y1407885D01*
X1194359Y1404982D01*
X1195810Y1403531D01*
X1198712Y1402080D01*
X1204517D02*
X1207419Y1403531D01*
X1208870Y1404982D01*
X1210321Y1407885D01*
Y1413689D01*
X1208870Y1416591D01*
X1207419Y1418042D01*
X1204517Y1419493D01*
X1216271Y1415140D02*
X1242391D01*
X1250662Y1432554D02*
X1256467Y1402080D01*
X1252113Y1432554D02*
X1256467Y1409336D01*
X1262271Y1432554D02*
X1256467Y1402080D01*
X1262271Y1432554D02*
X1268075Y1402080D01*
X1263722Y1432554D02*
X1268075Y1409336D01*
X1273880Y1432554D02*
X1268075Y1402080D01*
X1246309Y1432554D02*
X1256467D01*
X1269527D02*
X1278233D01*
X1074963Y1306823D02*
Y1276350D01*
X1076414Y1306823D02*
Y1276350D01*
X1070610Y1306823D02*
X1088023D01*
X1092377Y1305372D01*
X1093828Y1303921D01*
X1095279Y1301019D01*
Y1296666D01*
X1093828Y1293763D01*
X1092377Y1292312D01*
X1088023Y1290861D01*
X1076414D01*
X1088023Y1306823D02*
X1090926Y1305372D01*
X1092377Y1303921D01*
X1093828Y1301019D01*
Y1296666D01*
X1092377Y1293763D01*
X1090926Y1292312D01*
X1088023Y1290861D01*
X1070610Y1276350D02*
X1080768D01*
X1102244Y1293763D02*
Y1292312D01*
X1100793D01*
Y1293763D01*
X1102244Y1295215D01*
X1105147Y1296666D01*
X1110951D01*
X1113853Y1295215D01*
X1115304Y1293763D01*
X1116756Y1290861D01*
Y1280703D01*
X1118207Y1277801D01*
X1119658Y1276350D01*
X1115304Y1293763D02*
Y1280703D01*
X1116756Y1277801D01*
X1119658Y1276350D01*
X1121109D01*
X1115304Y1290861D02*
X1113853Y1289410D01*
X1105147Y1287959D01*
X1100793Y1286508D01*
X1099342Y1283606D01*
Y1280703D01*
X1100793Y1277801D01*
X1105147Y1276350D01*
X1109500D01*
X1112402Y1277801D01*
X1115304Y1280703D01*
X1105147Y1287959D02*
X1102244Y1286508D01*
X1100793Y1283606D01*
Y1280703D01*
X1102244Y1277801D01*
X1105147Y1276350D01*
X1129816Y1296666D02*
Y1276350D01*
X1131267Y1296666D02*
Y1276350D01*
Y1287959D02*
X1132718Y1292312D01*
X1135620Y1295215D01*
X1138522Y1296666D01*
X1142876D01*
X1144327Y1295215D01*
Y1293763D01*
X1142876Y1292312D01*
X1141424Y1293763D01*
X1142876Y1295215D01*
X1125462Y1296666D02*
X1131267D01*
X1125462Y1276350D02*
X1135620D01*
X1157677D02*
X1156226Y1277801D01*
X1154775Y1282155D01*
Y1306823D01*
X1153324D01*
Y1282155D01*
X1154775Y1277801D01*
X1157677Y1276350D01*
X1160579D01*
X1163482Y1277801D01*
X1164933Y1280703D01*
X1148970Y1296666D02*
X1160579D01*
X1177122Y1306823D02*
X1172769Y1305372D01*
X1171318Y1302470D01*
Y1298117D01*
X1172769Y1295215D01*
X1177122Y1293763D01*
X1182926D01*
X1187280Y1295215D01*
X1188731Y1298117D01*
Y1302470D01*
X1187280Y1305372D01*
X1182926Y1306823D01*
X1177122D01*
X1174220Y1305372D01*
X1172769Y1302470D01*
Y1298117D01*
X1174220Y1295215D01*
X1177122Y1293763D01*
X1182926D02*
X1185829Y1295215D01*
X1187280Y1298117D01*
Y1302470D01*
X1185829Y1305372D01*
X1182926Y1306823D01*
X1177122Y1293763D02*
X1172769Y1292312D01*
X1171318Y1290861D01*
X1169866Y1287959D01*
Y1282155D01*
X1171318Y1279252D01*
X1172769Y1277801D01*
X1177122Y1276350D01*
X1182926D01*
X1187280Y1277801D01*
X1188731Y1279252D01*
X1190182Y1282155D01*
Y1287959D01*
X1188731Y1290861D01*
X1187280Y1292312D01*
X1182926Y1293763D01*
X1177122D02*
X1174220Y1292312D01*
X1172769Y1290861D01*
X1171318Y1287959D01*
Y1282155D01*
X1172769Y1279252D01*
X1174220Y1277801D01*
X1177122Y1276350D01*
X1182926D02*
X1185829Y1277801D01*
X1187280Y1279252D01*
X1188731Y1282155D01*
Y1287959D01*
X1187280Y1290861D01*
X1185829Y1292312D01*
X1182926Y1293763D01*
X1194680Y1289410D02*
X1220801D01*
X1227621Y1306823D02*
X1237779Y1276350D01*
X1229072Y1306823D02*
X1237779Y1280703D01*
X1247937Y1306823D02*
X1237779Y1276350D01*
X1224719Y1306823D02*
X1233425D01*
X1242132D02*
X1250839D01*
X519973Y1338320D02*
Y1307846D01*
X521424Y1338320D02*
Y1307846D01*
X515620Y1338320D02*
X533033D01*
X537387Y1336868D01*
X538838Y1335417D01*
X540289Y1332515D01*
Y1328162D01*
X538838Y1325259D01*
X537387Y1323808D01*
X533033Y1322357D01*
X521424D01*
X533033Y1338320D02*
X535936Y1336868D01*
X537387Y1335417D01*
X538838Y1332515D01*
Y1328162D01*
X537387Y1325259D01*
X535936Y1323808D01*
X533033Y1322357D01*
X515620Y1307846D02*
X525778D01*
X547254Y1325259D02*
Y1323808D01*
X545803D01*
Y1325259D01*
X547254Y1326711D01*
X550157Y1328162D01*
X555961D01*
X558863Y1326711D01*
X560314Y1325259D01*
X561766Y1322357D01*
Y1312199D01*
X563217Y1309297D01*
X564668Y1307846D01*
X560314Y1325259D02*
Y1312199D01*
X561766Y1309297D01*
X564668Y1307846D01*
X566119D01*
X560314Y1322357D02*
X558863Y1320906D01*
X550157Y1319455D01*
X545803Y1318004D01*
X544352Y1315102D01*
Y1312199D01*
X545803Y1309297D01*
X550157Y1307846D01*
X554510D01*
X557412Y1309297D01*
X560314Y1312199D01*
X550157Y1319455D02*
X547254Y1318004D01*
X545803Y1315102D01*
Y1312199D01*
X547254Y1309297D01*
X550157Y1307846D01*
X574826Y1328162D02*
Y1307846D01*
X576277Y1328162D02*
Y1307846D01*
Y1319455D02*
X577728Y1323808D01*
X580630Y1326711D01*
X583532Y1328162D01*
X587886D01*
X589337Y1326711D01*
Y1325259D01*
X587886Y1323808D01*
X586435Y1325259D01*
X587886Y1326711D01*
X570472Y1328162D02*
X576277D01*
X570472Y1307846D02*
X580630D01*
X602687D02*
X601236Y1309297D01*
X599785Y1313651D01*
Y1338320D01*
X598334D01*
Y1313651D01*
X599785Y1309297D01*
X602687Y1307846D01*
X605589D01*
X608492Y1309297D01*
X609943Y1312199D01*
X593980Y1328162D02*
X605589D01*
X614876Y1338320D02*
Y1329613D01*
Y1332515D02*
X616328Y1335417D01*
X619230Y1338320D01*
X622132D01*
X629388Y1333966D01*
X632290D01*
X633741Y1335417D01*
X635192Y1338320D01*
X616328Y1335417D02*
X619230Y1336868D01*
X622132D01*
X629388Y1333966D01*
X635192Y1338320D02*
Y1333966D01*
X633741Y1329613D01*
X627937Y1322357D01*
X626485Y1319455D01*
X625034Y1315102D01*
Y1307846D01*
X633741Y1329613D02*
X626485Y1322357D01*
X625034Y1319455D01*
X623583Y1315102D01*
Y1307846D01*
X639691Y1320906D02*
X665811D01*
X690044Y1333966D02*
X691495Y1329613D01*
Y1338320D01*
X690044Y1333966D01*
X687142Y1336868D01*
X682789Y1338320D01*
X679886D01*
X675533Y1336868D01*
X672631Y1333966D01*
X671180Y1331064D01*
X669729Y1326711D01*
Y1319455D01*
X671180Y1315102D01*
X672631Y1312199D01*
X675533Y1309297D01*
X679886Y1307846D01*
X682789D01*
X687142Y1309297D01*
X690044Y1312199D01*
X691495Y1315102D01*
X679886Y1338320D02*
X676984Y1336868D01*
X674082Y1333966D01*
X672631Y1331064D01*
X671180Y1326711D01*
Y1319455D01*
X672631Y1315102D01*
X674082Y1312199D01*
X676984Y1309297D01*
X679886Y1307846D01*
X700202Y1338320D02*
Y1307846D01*
X701653Y1338320D02*
X710360Y1312199D01*
X700202Y1338320D02*
X710360Y1307846D01*
X720518Y1338320D02*
X710360Y1307846D01*
X720518Y1338320D02*
Y1307846D01*
X721969Y1338320D02*
Y1307846D01*
X695849Y1338320D02*
X701653D01*
X720518D02*
X726322D01*
X695849Y1307846D02*
X704556D01*
X716164D02*
X726322D01*
X734158Y1338320D02*
Y1307846D01*
X735609Y1338320D02*
Y1307846D01*
X729805Y1338320D02*
X747218D01*
X751572Y1336868D01*
X753023Y1335417D01*
X754474Y1332515D01*
Y1328162D01*
X753023Y1325259D01*
X751572Y1323808D01*
X747218Y1322357D01*
X735609D01*
X747218Y1338320D02*
X750121Y1336868D01*
X751572Y1335417D01*
X753023Y1332515D01*
Y1328162D01*
X751572Y1325259D01*
X750121Y1323808D01*
X747218Y1322357D01*
X729805Y1307846D02*
X739963D01*
X526323Y1422648D02*
Y1392174D01*
X527775Y1422648D02*
Y1392174D01*
X521970Y1422648D02*
X539383D01*
X543737Y1421196D01*
X545188Y1419745D01*
X546639Y1416843D01*
Y1412490D01*
X545188Y1409587D01*
X543737Y1408136D01*
X539383Y1406685D01*
X527775D01*
X539383Y1422648D02*
X542286Y1421196D01*
X543737Y1419745D01*
X545188Y1416843D01*
Y1412490D01*
X543737Y1409587D01*
X542286Y1408136D01*
X539383Y1406685D01*
X521970Y1392174D02*
X532128D01*
X553604Y1409587D02*
Y1408136D01*
X552153D01*
Y1409587D01*
X553604Y1411039D01*
X556507Y1412490D01*
X562311D01*
X565213Y1411039D01*
X566664Y1409587D01*
X568116Y1406685D01*
Y1396527D01*
X569567Y1393625D01*
X571018Y1392174D01*
X566664Y1409587D02*
Y1396527D01*
X568116Y1393625D01*
X571018Y1392174D01*
X572469D01*
X566664Y1406685D02*
X565213Y1405234D01*
X556507Y1403783D01*
X552153Y1402332D01*
X550702Y1399430D01*
Y1396527D01*
X552153Y1393625D01*
X556507Y1392174D01*
X560860D01*
X563762Y1393625D01*
X566664Y1396527D01*
X556507Y1403783D02*
X553604Y1402332D01*
X552153Y1399430D01*
Y1396527D01*
X553604Y1393625D01*
X556507Y1392174D01*
X581176Y1412490D02*
Y1392174D01*
X582627Y1412490D02*
Y1392174D01*
Y1403783D02*
X584078Y1408136D01*
X586980Y1411039D01*
X589882Y1412490D01*
X594236D01*
X595687Y1411039D01*
Y1409587D01*
X594236Y1408136D01*
X592785Y1409587D01*
X594236Y1411039D01*
X576822Y1412490D02*
X582627D01*
X576822Y1392174D02*
X586980D01*
X609037D02*
X607586Y1393625D01*
X606135Y1397979D01*
Y1422648D01*
X604684D01*
Y1397979D01*
X606135Y1393625D01*
X609037Y1392174D01*
X611939D01*
X614841Y1393625D01*
X616293Y1396527D01*
X600330Y1412490D02*
X611939D01*
X621226Y1422648D02*
Y1413941D01*
Y1416843D02*
X622678Y1419745D01*
X625580Y1422648D01*
X628482D01*
X635738Y1418294D01*
X638640D01*
X640091Y1419745D01*
X641542Y1422648D01*
X622678Y1419745D02*
X625580Y1421196D01*
X628482D01*
X635738Y1418294D01*
X641542Y1422648D02*
Y1418294D01*
X640091Y1413941D01*
X634286Y1406685D01*
X632835Y1403783D01*
X631384Y1399430D01*
Y1392174D01*
X640091Y1413941D02*
X632835Y1406685D01*
X631384Y1403783D01*
X629933Y1399430D01*
Y1392174D01*
X646040Y1405234D02*
X672161D01*
X678981Y1422648D02*
X689139Y1392174D01*
X680432Y1422648D02*
X689139Y1396527D01*
X699297Y1422648D02*
X689139Y1392174D01*
X676079Y1422648D02*
X684785D01*
X693492D02*
X702199D01*
X424723Y1498848D02*
Y1468374D01*
X426175Y1498848D02*
Y1468374D01*
X420370Y1498848D02*
X437783D01*
X442137Y1497396D01*
X443588Y1495945D01*
X445039Y1493043D01*
Y1488690D01*
X443588Y1485787D01*
X442137Y1484336D01*
X437783Y1482885D01*
X426175D01*
X437783Y1498848D02*
X440686Y1497396D01*
X442137Y1495945D01*
X443588Y1493043D01*
Y1488690D01*
X442137Y1485787D01*
X440686Y1484336D01*
X437783Y1482885D01*
X420370Y1468374D02*
X430528D01*
X452004Y1485787D02*
Y1484336D01*
X450553D01*
Y1485787D01*
X452004Y1487238D01*
X454907Y1488690D01*
X460711D01*
X463613Y1487238D01*
X465064Y1485787D01*
X466516Y1482885D01*
Y1472727D01*
X467967Y1469825D01*
X469418Y1468374D01*
X465064Y1485787D02*
Y1472727D01*
X466516Y1469825D01*
X469418Y1468374D01*
X470869D01*
X465064Y1482885D02*
X463613Y1481434D01*
X454907Y1479983D01*
X450553Y1478532D01*
X449102Y1475630D01*
Y1472727D01*
X450553Y1469825D01*
X454907Y1468374D01*
X459260D01*
X462162Y1469825D01*
X465064Y1472727D01*
X454907Y1479983D02*
X452004Y1478532D01*
X450553Y1475630D01*
Y1472727D01*
X452004Y1469825D01*
X454907Y1468374D01*
X479576Y1488690D02*
Y1468374D01*
X481027Y1488690D02*
Y1468374D01*
Y1479983D02*
X482478Y1484336D01*
X485380Y1487238D01*
X488282Y1488690D01*
X492636D01*
X494087Y1487238D01*
Y1485787D01*
X492636Y1484336D01*
X491185Y1485787D01*
X492636Y1487238D01*
X475222Y1488690D02*
X481027D01*
X475222Y1468374D02*
X485380D01*
X507437D02*
X505986Y1469825D01*
X504535Y1474178D01*
Y1498848D01*
X503084D01*
Y1474178D01*
X504535Y1469825D01*
X507437Y1468374D01*
X510339D01*
X513242Y1469825D01*
X514693Y1472727D01*
X498730Y1488690D02*
X510339D01*
X519626Y1498848D02*
Y1490141D01*
Y1493043D02*
X521078Y1495945D01*
X523980Y1498848D01*
X526882D01*
X534138Y1494494D01*
X537040D01*
X538491Y1495945D01*
X539942Y1498848D01*
X521078Y1495945D02*
X523980Y1497396D01*
X526882D01*
X534138Y1494494D01*
X539942Y1498848D02*
Y1494494D01*
X538491Y1490141D01*
X532687Y1482885D01*
X531235Y1479983D01*
X529784Y1475630D01*
Y1468374D01*
X538491Y1490141D02*
X531235Y1482885D01*
X529784Y1479983D01*
X528333Y1475630D01*
Y1468374D01*
X544440Y1481434D02*
X570561D01*
X578832Y1498848D02*
Y1477081D01*
X580283Y1472727D01*
X583185Y1469825D01*
X587539Y1468374D01*
X590441D01*
X594794Y1469825D01*
X597697Y1472727D01*
X599148Y1477081D01*
Y1498848D01*
X580283D02*
Y1477081D01*
X581734Y1472727D01*
X584636Y1469825D01*
X587539Y1468374D01*
X574479Y1498848D02*
X584636D01*
X594794D02*
X603501D01*
M02*
