M48
;Layer_Color=9474304
;FILE_FORMAT=4:4
METRIC,LZ
;TYPE=PLATED
T01F00S00C0.7112
T02F00S00C2.1000
;TYPE=NON_PLATED
T04F00S00C1.4000
T05F00S00C1.6000
%
T01
X0031496Y0005588
X0036322Y0016256
X0028448Y0039116
X0077978Y0034163
X0060706Y0012065
X0064008Y0005334
X0094361Y0005207
X00899414Y00102616
X0085344Y0015875
X0116967Y0034163
X0153416Y0031242
X0144399Y0005334
X0153289Y0042545
X0154051Y0071374
X0123698Y0073533
X0111252Y0076454
X0097917Y0042799
X0073914Y0047244
X0071247Y0075692
X004445Y0077978
X0043434Y0045593
X0048768Y0041148
X0032131Y0048387
X0028575Y007112
X0024892Y0076962
X003175Y0086487
X0028321Y0115189
X0043434Y0083185
X0077724Y0113284
X008001Y0084328
X0095885Y0085598
X0118745Y011303
X0138557Y0117094
X0155067Y0110744
X0145288Y0080899
X0153289Y0121031
X0156083Y0148717
X0141224Y0156464
X0134747Y0155448
X0116205Y0144907
X0095377Y0149098
X00832023Y01549369
X00807023
X00794588Y01565744
X00819658Y01567014
X00844658
X0101346Y0123952
X0077343Y0124714
X00781888Y01549234
X00757758
X00732358
X00706958
X00719658Y01567014
X00745058
X00770458
X0067056Y015367
X00612745Y01549535
X00587745
X0056261Y015494
X0053848
X0051308
X0048768
X0050038Y0156718
X0052578
X0055118
X0057531Y0156591
X0060038Y0156718
X0062538
X0049149Y0119507
X0033274Y0120904
X0035687Y012573
X0032258Y013462
Y0145923
X0027813Y014605
T02
X0022468Y0013623
X00246927Y0016163
X00224426Y0018703
X00246316Y00214161
X00224426Y0023783
X00246427Y0026323
X00489891Y00158521
X0070055Y00121376
X00721996Y00243
X00627389Y00322384
X01066229Y00250444
X01044783Y0012882
X0113939Y00049436
X01276888Y00213299
X01519852Y0021019
X01542099Y0023559
X01542353Y0018479
X01520462Y00157659
X01542353Y0013399
X01520352Y00108589
X01520508Y00496672
X01542509Y00522072
X01520508Y00547472
X01542509Y00572873
X01520008Y00598273
X01542255Y00623673
X01277044Y00601382
X01066385Y00638527
X0104648Y0051943
X01139546Y00437519
X00700706Y00509459
X00722152Y00631083
X00627545Y00710467
X00490047Y00546604
X00247083Y00549713
X00224836Y00524313
X00224582Y00575113
X00246583Y00600513
X00224582Y00625913
X00246583Y00651313
X00224992Y00912396
X00247239Y00937796
X00224738Y00963196
X00246739Y00988596
X00224738Y01013996
X00246739Y01039396
X00490203Y00934686
X00700862Y00897542
X00722308Y01019166
X00627701Y0109855
X01066541Y0102661
X01045095Y00904986
X01139702Y00825601
X012772Y00989465
X01520164Y00986356
X01542411Y01011756
X01542665Y00960956
X01520664Y00935555
X01542665Y00910155
X01520664Y00884755
X0152082Y01272838
X0154051Y0129794
X0152082Y01323638
X01542821Y01349038
X0152032Y01374438
X01542567Y01399839
X01277356Y01377548
X01066697Y01414693
X01045251Y01293069
X01139858Y01213684
X00701018Y01285624
X00722464Y01407248
X00627857Y01486633
X00490359Y01322769
X00247395Y01325879
X00225148Y01300479
X00224894Y01351279
X00246895Y01376679
X00224894Y01402079
X00246895Y01427479
T04
X0025781Y015148
T05
X0025781Y016073
M30
