G04*
G04 #@! TF.GenerationSoftware,Altium Limited,Altium Designer,24.0.1 (36)*
G04*
G04 Layer_Physical_Order=2*
G04 Layer_Color=12517376*
%FSLAX44Y44*%
%MOMM*%
G71*
G04*
G04 #@! TF.SameCoordinates,133CE3EA-F9F0-4B72-99F4-21709E576B51*
G04*
G04*
G04 #@! TF.FilePolarity,Positive*
G04*
G01*
G75*
%ADD14C,0.5080*%
%ADD35O,1.8000X3.0000*%
%ADD36O,4.3000X1.8000*%
%ADD37C,3.0000*%
%ADD38C,2.8000*%
%ADD39C,1.2700*%
G36*
X1599004Y1634226D02*
X1605082Y1633018D01*
X1610949Y1631026D01*
X1616507Y1628285D01*
X1621659Y1624843D01*
X1626317Y1620757D01*
X1630403Y1616098D01*
X1633846Y1610946D01*
X1636586Y1605389D01*
X1638578Y1599521D01*
X1639787Y1593444D01*
X1640186Y1587357D01*
X1640167Y1587261D01*
X1640167Y50064D01*
X1640167Y50064D01*
X1640167D01*
X1640110Y48817D01*
X1639787Y43881D01*
X1638578Y37803D01*
X1636586Y31936D01*
X1633846Y26378D01*
X1630403Y21226D01*
X1626317Y16567D01*
X1621659Y12482D01*
X1616507Y9039D01*
X1610949Y6299D01*
X1605082Y4307D01*
X1599004Y3098D01*
X1592917Y2699D01*
X1592821Y2718D01*
X156336Y2718D01*
X156336Y2718D01*
Y2718D01*
X155090Y2774D01*
X150153Y3098D01*
X144076Y4307D01*
X138208Y6298D01*
X132651Y9039D01*
X127499Y12482D01*
X122840Y16567D01*
X118755Y21226D01*
X115312Y26378D01*
X112571Y31935D01*
X110580Y37803D01*
X109371Y43880D01*
X108972Y49967D01*
X108991Y50064D01*
X108991Y1587261D01*
X108972Y1587357D01*
X109371Y1593444D01*
X110580Y1599521D01*
X112571Y1605389D01*
X115312Y1610946D01*
X118754Y1616098D01*
X122840Y1620757D01*
X127499Y1624843D01*
X132651Y1628285D01*
X138208Y1631026D01*
X144076Y1633017D01*
X150153Y1634226D01*
X156240Y1634625D01*
X156336Y1634606D01*
X1592821Y1634606D01*
X1592917Y1634625D01*
X1599004Y1634226D01*
D02*
G37*
%LPC*%
G36*
X259198Y1617840D02*
X256422D01*
X253742Y1617122D01*
X251338Y1615734D01*
X249376Y1613772D01*
X247988Y1611368D01*
X247270Y1608688D01*
Y1605912D01*
X247988Y1603232D01*
X249376Y1600828D01*
X251338Y1598866D01*
X253742Y1597478D01*
X256422Y1596760D01*
X259198D01*
X261878Y1597478D01*
X264282Y1598866D01*
X266244Y1600828D01*
X267632Y1603232D01*
X268350Y1605912D01*
Y1608688D01*
X267632Y1611368D01*
X266244Y1613772D01*
X264282Y1615734D01*
X261878Y1617122D01*
X259198Y1617840D01*
D02*
G37*
G36*
X305310Y1596415D02*
X302563Y1596053D01*
X300003Y1594993D01*
X298820Y1594086D01*
X305310Y1587596D01*
X311800Y1594086D01*
X310617Y1594993D01*
X308057Y1596053D01*
X305310Y1596415D01*
D02*
G37*
G36*
X210310D02*
X207563Y1596053D01*
X205003Y1594993D01*
X203820Y1594086D01*
X210310Y1587596D01*
X216800Y1594086D01*
X215617Y1594993D01*
X213057Y1596053D01*
X210310Y1596415D01*
D02*
G37*
G36*
X278596Y1581290D02*
X272106Y1574800D01*
X278596Y1568311D01*
X279503Y1569493D01*
X280563Y1572053D01*
X280925Y1574800D01*
X280563Y1577547D01*
X279503Y1580107D01*
X278596Y1581290D01*
D02*
G37*
G36*
X237024D02*
X236117Y1580107D01*
X235057Y1577547D01*
X234695Y1574800D01*
X235057Y1572053D01*
X236117Y1569493D01*
X237024Y1568311D01*
X243514Y1574800D01*
X237024Y1581290D01*
D02*
G37*
G36*
X297024Y1592290D02*
X296117Y1591107D01*
X295057Y1588547D01*
X294695Y1585800D01*
Y1573800D01*
X295057Y1571053D01*
X296117Y1568493D01*
X297024Y1567310D01*
X304412Y1574698D01*
X305310Y1573800D01*
X306208Y1574698D01*
X313596Y1567310D01*
X314503Y1568493D01*
X315563Y1571053D01*
X315925Y1573800D01*
Y1585800D01*
X315563Y1588547D01*
X314503Y1591107D01*
X313596Y1592290D01*
X306208Y1584902D01*
X305310Y1585800D01*
X304412Y1584902D01*
X297024Y1592290D01*
D02*
G37*
G36*
X202024D02*
X201117Y1591107D01*
X200057Y1588547D01*
X199695Y1585800D01*
Y1573800D01*
X200057Y1571053D01*
X201117Y1568493D01*
X202024Y1567310D01*
X209412Y1574698D01*
X210310Y1573800D01*
X211208Y1574698D01*
X218596Y1567310D01*
X219503Y1568493D01*
X220563Y1571053D01*
X220925Y1573800D01*
Y1585800D01*
X220563Y1588547D01*
X219503Y1591107D01*
X218596Y1592290D01*
X211208Y1584902D01*
X210310Y1585800D01*
X209412Y1584902D01*
X202024Y1592290D01*
D02*
G37*
G36*
X1413277Y1572514D02*
X1411203D01*
X1409201Y1571977D01*
X1407614Y1571062D01*
X1412240Y1566436D01*
X1416866Y1571062D01*
X1415279Y1571977D01*
X1413277Y1572514D01*
D02*
G37*
G36*
X270310Y1585415D02*
X245310D01*
X242563Y1585053D01*
X240003Y1583993D01*
X238820Y1583086D01*
X246208Y1575698D01*
X245310Y1574800D01*
X246208Y1573902D01*
X238820Y1566514D01*
X240003Y1565607D01*
X242563Y1564547D01*
X245310Y1564185D01*
X270310D01*
X273057Y1564547D01*
X275617Y1565607D01*
X276800Y1566514D01*
X269412Y1573902D01*
X270310Y1574800D01*
X269412Y1575698D01*
X276800Y1583086D01*
X275617Y1583993D01*
X273057Y1585053D01*
X270310Y1585415D01*
D02*
G37*
G36*
X305310Y1572004D02*
X298820Y1565514D01*
X300003Y1564607D01*
X302563Y1563547D01*
X305310Y1563185D01*
X308057Y1563547D01*
X310617Y1564607D01*
X311800Y1565514D01*
X305310Y1572004D01*
D02*
G37*
G36*
X210310D02*
X203820Y1565514D01*
X205003Y1564607D01*
X207563Y1563547D01*
X210310Y1563185D01*
X213057Y1563547D01*
X215617Y1564607D01*
X216800Y1565514D01*
X210310Y1572004D01*
D02*
G37*
G36*
X1418662Y1569265D02*
X1414036Y1564640D01*
X1418662Y1560014D01*
X1419577Y1561601D01*
X1420114Y1563603D01*
Y1565677D01*
X1419577Y1567679D01*
X1418662Y1569265D01*
D02*
G37*
G36*
X1405818Y1569265D02*
X1404903Y1567679D01*
X1404366Y1565677D01*
Y1563603D01*
X1404903Y1561601D01*
X1405818Y1560014D01*
X1410444Y1564640D01*
X1405818Y1569265D01*
D02*
G37*
G36*
X1592821Y1614950D02*
X1591562Y1614850D01*
X1590359D01*
X1590109Y1614801D01*
X1589854D01*
X1589149Y1614661D01*
X1588490Y1614609D01*
X1586564Y1614146D01*
X1585024Y1613840D01*
X1584788Y1613742D01*
X1584538Y1613693D01*
X1584350Y1613615D01*
X1584265Y1613594D01*
X1580251Y1611932D01*
X1580176Y1611886D01*
X1579988Y1611808D01*
X1579776Y1611666D01*
X1579540Y1611569D01*
X1578234Y1610696D01*
X1576546Y1609662D01*
X1576043Y1609232D01*
X1575446Y1608833D01*
X1575265Y1608652D01*
X1575053Y1608511D01*
X1574202Y1607660D01*
X1573242Y1606840D01*
X1572422Y1605879D01*
X1571571Y1605029D01*
X1571429Y1604816D01*
X1571249Y1604636D01*
X1570850Y1604039D01*
X1570420Y1603536D01*
X1569386Y1601848D01*
X1568513Y1600542D01*
X1568415Y1600306D01*
X1568274Y1600094D01*
X1568196Y1599906D01*
X1568150Y1599831D01*
X1566487Y1595817D01*
X1566467Y1595732D01*
X1566389Y1595544D01*
X1566339Y1595294D01*
X1566242Y1595058D01*
X1565935Y1593517D01*
X1565473Y1591592D01*
X1565421Y1590933D01*
X1565281Y1590228D01*
Y1589973D01*
X1565231Y1589723D01*
Y1588520D01*
X1565132Y1587261D01*
X1565231Y1586002D01*
Y1584798D01*
X1565281Y1584548D01*
Y1584293D01*
X1565421Y1583589D01*
X1565473Y1582929D01*
X1565935Y1581004D01*
X1566242Y1579463D01*
X1566339Y1579228D01*
X1566389Y1578978D01*
X1566467Y1578790D01*
X1566487Y1578704D01*
X1568150Y1574690D01*
X1568196Y1574616D01*
X1568274Y1574428D01*
X1568415Y1574216D01*
X1568513Y1573980D01*
X1569386Y1572674D01*
X1570420Y1570986D01*
X1570850Y1570483D01*
X1571249Y1569885D01*
X1571429Y1569705D01*
X1571571Y1569493D01*
X1572422Y1568642D01*
X1573242Y1567682D01*
X1574202Y1566862D01*
X1575053Y1566011D01*
X1575265Y1565869D01*
X1575446Y1565689D01*
X1576043Y1565289D01*
X1576546Y1564860D01*
X1578234Y1563826D01*
X1579540Y1562953D01*
X1579776Y1562855D01*
X1579988Y1562713D01*
X1580176Y1562636D01*
X1580251Y1562590D01*
X1584265Y1560927D01*
X1584350Y1560907D01*
X1584538Y1560829D01*
X1584788Y1560779D01*
X1585024Y1560681D01*
X1586564Y1560375D01*
X1588490Y1559913D01*
X1589149Y1559861D01*
X1589854Y1559721D01*
X1590109D01*
X1590359Y1559671D01*
X1591562D01*
X1592821Y1559572D01*
X1594080Y1559671D01*
X1595283D01*
X1595533Y1559721D01*
X1595789D01*
X1596493Y1559861D01*
X1597153Y1559913D01*
X1599078Y1560375D01*
X1600618Y1560681D01*
X1600854Y1560779D01*
X1601104Y1560829D01*
X1601292Y1560907D01*
X1601377Y1560927D01*
X1605392Y1562590D01*
X1605466Y1562636D01*
X1605654Y1562713D01*
X1605866Y1562855D01*
X1606102Y1562953D01*
X1607408Y1563826D01*
X1609096Y1564860D01*
X1609599Y1565289D01*
X1610196Y1565689D01*
X1610377Y1565869D01*
X1610589Y1566011D01*
X1611440Y1566862D01*
X1612400Y1567682D01*
X1613220Y1568642D01*
X1614071Y1569493D01*
X1614213Y1569705D01*
X1614393Y1569885D01*
X1614792Y1570483D01*
X1615222Y1570986D01*
X1616256Y1572674D01*
X1617129Y1573980D01*
X1617227Y1574216D01*
X1617368Y1574428D01*
X1617446Y1574615D01*
X1617492Y1574690D01*
X1619155Y1578704D01*
X1619175Y1578790D01*
X1619253Y1578978D01*
X1619303Y1579228D01*
X1619400Y1579463D01*
X1619707Y1581004D01*
X1620169Y1582929D01*
X1620221Y1583589D01*
X1620361Y1584293D01*
Y1584548D01*
X1620411Y1584798D01*
Y1586002D01*
X1620510Y1587261D01*
X1620411Y1588520D01*
Y1589723D01*
X1620361Y1589973D01*
Y1590228D01*
X1620221Y1590933D01*
X1620169Y1591592D01*
X1619707Y1593518D01*
X1619400Y1595058D01*
X1619303Y1595294D01*
X1619253Y1595544D01*
X1619175Y1595732D01*
X1619155Y1595817D01*
X1617492Y1599831D01*
X1617446Y1599906D01*
X1617368Y1600094D01*
X1617227Y1600306D01*
X1617129Y1600542D01*
X1616257Y1601847D01*
X1615222Y1603536D01*
X1614792Y1604039D01*
X1614393Y1604636D01*
X1614213Y1604816D01*
X1614071Y1605029D01*
X1613220Y1605879D01*
X1612400Y1606840D01*
X1611440Y1607660D01*
X1610589Y1608511D01*
X1610377Y1608652D01*
X1610196Y1608833D01*
X1609599Y1609232D01*
X1609096Y1609662D01*
X1607408Y1610696D01*
X1606102Y1611569D01*
X1605866Y1611666D01*
X1605654Y1611808D01*
X1605466Y1611886D01*
X1605392Y1611932D01*
X1601377Y1613594D01*
X1601292Y1613615D01*
X1601104Y1613693D01*
X1600854Y1613742D01*
X1600618Y1613840D01*
X1599078Y1614146D01*
X1597153Y1614609D01*
X1596493Y1614661D01*
X1595789Y1614801D01*
X1595533D01*
X1595283Y1614850D01*
X1594080D01*
X1592821Y1614950D01*
D02*
G37*
G36*
X156336Y1614949D02*
X155077Y1614850D01*
X153874D01*
X153624Y1614801D01*
X153369D01*
X152664Y1614660D01*
X152005Y1614609D01*
X150079Y1614146D01*
X148539Y1613840D01*
X148303Y1613742D01*
X148053Y1613692D01*
X147865Y1613615D01*
X147780Y1613594D01*
X143766Y1611932D01*
X143691Y1611886D01*
X143503Y1611808D01*
X143291Y1611666D01*
X143056Y1611569D01*
X141750Y1610696D01*
X140061Y1609661D01*
X139558Y1609232D01*
X138961Y1608833D01*
X138781Y1608652D01*
X138568Y1608511D01*
X137718Y1607660D01*
X136757Y1606840D01*
X135937Y1605879D01*
X135086Y1605029D01*
X134945Y1604816D01*
X134764Y1604636D01*
X134365Y1604039D01*
X133936Y1603536D01*
X132901Y1601848D01*
X132028Y1600541D01*
X131931Y1600306D01*
X131789Y1600094D01*
X131711Y1599906D01*
X131665Y1599831D01*
X130003Y1595817D01*
X129982Y1595732D01*
X129904Y1595544D01*
X129855Y1595294D01*
X129757Y1595058D01*
X129451Y1593517D01*
X128988Y1591592D01*
X128937Y1590933D01*
X128796Y1590228D01*
Y1589973D01*
X128747Y1589723D01*
Y1588520D01*
X128647Y1587261D01*
X128747Y1586002D01*
Y1584798D01*
X128796Y1584548D01*
Y1584293D01*
X128937Y1583589D01*
X128988Y1582929D01*
X129451Y1581004D01*
X129757Y1579463D01*
X129855Y1579228D01*
X129904Y1578977D01*
X129982Y1578790D01*
X130003Y1578704D01*
X131665Y1574690D01*
X131711Y1574615D01*
X131789Y1574428D01*
X131931Y1574216D01*
X132028Y1573980D01*
X132901Y1572673D01*
X133936Y1570986D01*
X134365Y1570483D01*
X134764Y1569885D01*
X134945Y1569705D01*
X135086Y1569493D01*
X135937Y1568642D01*
X136757Y1567682D01*
X137718Y1566862D01*
X138568Y1566011D01*
X138781Y1565869D01*
X138961Y1565689D01*
X139558Y1565289D01*
X140061Y1564860D01*
X141749Y1563826D01*
X143056Y1562953D01*
X143291Y1562855D01*
X143503Y1562713D01*
X143691Y1562635D01*
X143766Y1562590D01*
X147780Y1560927D01*
X147865Y1560907D01*
X148053Y1560829D01*
X148303Y1560779D01*
X148539Y1560681D01*
X150080Y1560375D01*
X152005Y1559913D01*
X152664Y1559861D01*
X153369Y1559721D01*
X153624D01*
X153874Y1559671D01*
X155077D01*
X156336Y1559572D01*
X157595Y1559671D01*
X158799D01*
X159049Y1559721D01*
X159304D01*
X160009Y1559861D01*
X160668Y1559913D01*
X162593Y1560375D01*
X164134Y1560681D01*
X164369Y1560779D01*
X164620Y1560829D01*
X164807Y1560907D01*
X164893Y1560927D01*
X168907Y1562590D01*
X168982Y1562635D01*
X169169Y1562713D01*
X169381Y1562855D01*
X169617Y1562953D01*
X170923Y1563825D01*
X172611Y1564860D01*
X173114Y1565289D01*
X173712Y1565689D01*
X173892Y1565869D01*
X174104Y1566011D01*
X174955Y1566862D01*
X175915Y1567682D01*
X176735Y1568642D01*
X177586Y1569493D01*
X177728Y1569705D01*
X177908Y1569885D01*
X178308Y1570483D01*
X178737Y1570986D01*
X179772Y1572674D01*
X180644Y1573980D01*
X180742Y1574216D01*
X180884Y1574428D01*
X180961Y1574615D01*
X181007Y1574690D01*
X182670Y1578704D01*
X182691Y1578790D01*
X182768Y1578977D01*
X182818Y1579227D01*
X182916Y1579463D01*
X183222Y1581004D01*
X183684Y1582929D01*
X183736Y1583589D01*
X183876Y1584293D01*
Y1584548D01*
X183926Y1584798D01*
Y1586002D01*
X184025Y1587261D01*
X183926Y1588520D01*
Y1589723D01*
X183876Y1589973D01*
Y1590228D01*
X183736Y1590933D01*
X183684Y1591592D01*
X183222Y1593518D01*
X182916Y1595058D01*
X182818Y1595294D01*
X182768Y1595544D01*
X182691Y1595732D01*
X182670Y1595817D01*
X181007Y1599831D01*
X180961Y1599906D01*
X180884Y1600094D01*
X180742Y1600306D01*
X180644Y1600541D01*
X179772Y1601847D01*
X178737Y1603536D01*
X178307Y1604039D01*
X177908Y1604636D01*
X177728Y1604816D01*
X177586Y1605029D01*
X176736Y1605879D01*
X175915Y1606840D01*
X174955Y1607660D01*
X174104Y1608511D01*
X173892Y1608652D01*
X173712Y1608833D01*
X173114Y1609232D01*
X172611Y1609661D01*
X170923Y1610696D01*
X169617Y1611569D01*
X169381Y1611666D01*
X169169Y1611808D01*
X168982Y1611886D01*
X168907Y1611932D01*
X164893Y1613594D01*
X164807Y1613615D01*
X164620Y1613692D01*
X164370Y1613742D01*
X164134Y1613840D01*
X162593Y1614146D01*
X160668Y1614609D01*
X160009Y1614660D01*
X159304Y1614801D01*
X159049D01*
X158799Y1614850D01*
X157595D01*
X156336Y1614949D01*
D02*
G37*
G36*
X1412240Y1562844D02*
X1407614Y1558218D01*
X1409201Y1557303D01*
X1411203Y1556766D01*
X1413277D01*
X1415279Y1557303D01*
X1416866Y1558218D01*
X1412240Y1562844D01*
D02*
G37*
G36*
X1348507Y1562354D02*
X1346433D01*
X1344431Y1561817D01*
X1342845Y1560902D01*
X1347470Y1556276D01*
X1352095Y1560902D01*
X1350509Y1561817D01*
X1348507Y1562354D01*
D02*
G37*
G36*
X626550Y1576070D02*
X624210D01*
X621949Y1575464D01*
X619921Y1574294D01*
X618266Y1572639D01*
X617096Y1570611D01*
X616490Y1568350D01*
Y1566010D01*
X617096Y1563749D01*
X618266Y1561721D01*
X619921Y1560066D01*
X620201Y1559905D01*
Y1556448D01*
X618931Y1555922D01*
X618204Y1556649D01*
X616176Y1557819D01*
X613915Y1558425D01*
X611575D01*
X609314Y1557819D01*
X607286Y1556649D01*
X606829Y1556192D01*
X605560Y1556718D01*
Y1559905D01*
X605839Y1560066D01*
X607494Y1561721D01*
X608664Y1563749D01*
X609270Y1566010D01*
Y1568350D01*
X608664Y1570611D01*
X607494Y1572639D01*
X605839Y1574294D01*
X603811Y1575464D01*
X601550Y1576070D01*
X599210D01*
X596949Y1575464D01*
X594921Y1574294D01*
X593266Y1572639D01*
X592096Y1570611D01*
X591490Y1568350D01*
Y1566010D01*
X592096Y1563749D01*
X593266Y1561721D01*
X594921Y1560066D01*
X595201Y1559905D01*
Y1556448D01*
X593931Y1555922D01*
X593204Y1556649D01*
X591176Y1557819D01*
X588915Y1558425D01*
X586575D01*
X584314Y1557819D01*
X582286Y1556649D01*
X581759Y1556122D01*
X580490Y1556648D01*
Y1558635D01*
X580769Y1558796D01*
X582424Y1560451D01*
X583594Y1562479D01*
X584200Y1564740D01*
Y1567080D01*
X583594Y1569341D01*
X582424Y1571369D01*
X580769Y1573024D01*
X578741Y1574194D01*
X576480Y1574800D01*
X574140D01*
X571879Y1574194D01*
X569851Y1573024D01*
X568196Y1571369D01*
X567026Y1569341D01*
X566420Y1567080D01*
Y1564740D01*
X567026Y1562479D01*
X568196Y1560451D01*
X569851Y1558796D01*
X570131Y1558635D01*
Y1556248D01*
X568861Y1555722D01*
X568069Y1556514D01*
X566041Y1557684D01*
X563780Y1558290D01*
X561440D01*
X559179Y1557684D01*
X557630Y1556790D01*
X556359Y1557409D01*
Y1559905D01*
X556639Y1560066D01*
X558294Y1561721D01*
X559464Y1563749D01*
X560070Y1566010D01*
Y1568350D01*
X559464Y1570611D01*
X558294Y1572639D01*
X556639Y1574294D01*
X554611Y1575464D01*
X552350Y1576070D01*
X550010D01*
X547749Y1575464D01*
X545721Y1574294D01*
X544066Y1572639D01*
X542896Y1570611D01*
X542290Y1568350D01*
Y1566010D01*
X542896Y1563749D01*
X544066Y1561721D01*
X545721Y1560066D01*
X546001Y1559905D01*
Y1556248D01*
X544730Y1555722D01*
X543939Y1556514D01*
X541911Y1557684D01*
X539650Y1558290D01*
X537310D01*
X535049Y1557684D01*
X533021Y1556514D01*
X532229Y1555722D01*
X530960Y1556248D01*
Y1559905D01*
X531239Y1560066D01*
X532894Y1561721D01*
X534064Y1563749D01*
X534670Y1566010D01*
Y1568350D01*
X534064Y1570611D01*
X532894Y1572639D01*
X531239Y1574294D01*
X529211Y1575464D01*
X526950Y1576070D01*
X524610D01*
X522349Y1575464D01*
X520321Y1574294D01*
X518666Y1572639D01*
X517496Y1570611D01*
X516890Y1568350D01*
Y1566010D01*
X517496Y1563749D01*
X518666Y1561721D01*
X520321Y1560066D01*
X520601Y1559905D01*
Y1556248D01*
X519330Y1555722D01*
X518539Y1556514D01*
X516511Y1557684D01*
X514250Y1558290D01*
X511910D01*
X509649Y1557684D01*
X507621Y1556514D01*
X506829Y1555722D01*
X505560Y1556248D01*
Y1559905D01*
X505839Y1560066D01*
X507494Y1561721D01*
X508664Y1563749D01*
X509270Y1566010D01*
Y1568350D01*
X508664Y1570611D01*
X507494Y1572639D01*
X505839Y1574294D01*
X503811Y1575464D01*
X501550Y1576070D01*
X499210D01*
X496949Y1575464D01*
X494921Y1574294D01*
X493266Y1572639D01*
X492096Y1570611D01*
X491490Y1568350D01*
Y1566010D01*
X492096Y1563749D01*
X493266Y1561721D01*
X494921Y1560066D01*
X495201Y1559905D01*
Y1556248D01*
X493931Y1555722D01*
X493139Y1556514D01*
X491111Y1557684D01*
X488850Y1558290D01*
X486510D01*
X484249Y1557684D01*
X482221Y1556514D01*
X480566Y1554859D01*
X479396Y1552831D01*
X478790Y1550570D01*
Y1548230D01*
X479396Y1545969D01*
X480566Y1543941D01*
X482221Y1542286D01*
X482500Y1542125D01*
Y1448638D01*
X448741Y1414879D01*
X266821D01*
X261700Y1419999D01*
X262800Y1422654D01*
X263435Y1425850D01*
Y1429108D01*
X262800Y1432303D01*
X261553Y1435314D01*
X259743Y1438023D01*
X257439Y1440326D01*
X254730Y1442137D01*
X251720Y1443383D01*
X248524Y1444019D01*
X245266D01*
X242071Y1443383D01*
X239061Y1442137D01*
X236352Y1440326D01*
X234048Y1438023D01*
X232238Y1435314D01*
X230991Y1432303D01*
X230355Y1429108D01*
Y1425850D01*
X230991Y1422654D01*
X232238Y1419644D01*
X233298Y1418058D01*
X232745Y1416841D01*
X232624Y1416780D01*
X229719Y1417983D01*
X226523Y1418619D01*
X223265D01*
X220070Y1417983D01*
X217059Y1416736D01*
X214350Y1414926D01*
X212047Y1412623D01*
X210236Y1409914D01*
X208990Y1406904D01*
X208354Y1403708D01*
Y1400450D01*
X208990Y1397254D01*
X210236Y1394244D01*
X212047Y1391535D01*
X214350Y1389232D01*
X217059Y1387421D01*
X220070Y1386174D01*
X223265Y1385539D01*
X226523D01*
X229719Y1386174D01*
X232624Y1387378D01*
X232745Y1387316D01*
X233298Y1386100D01*
X232238Y1384514D01*
X230991Y1381503D01*
X230355Y1378308D01*
Y1375050D01*
X230991Y1371854D01*
X232238Y1368844D01*
X233298Y1367258D01*
X232745Y1366041D01*
X232624Y1365980D01*
X229719Y1367183D01*
X226523Y1367819D01*
X223265D01*
X220070Y1367183D01*
X217059Y1365936D01*
X214350Y1364126D01*
X212047Y1361823D01*
X210236Y1359113D01*
X208990Y1356103D01*
X208354Y1352908D01*
Y1349650D01*
X208990Y1346454D01*
X210089Y1343799D01*
X174137Y1307847D01*
X173015Y1306167D01*
X172621Y1304185D01*
Y962660D01*
Y577850D01*
Y189230D01*
Y124460D01*
X173015Y122478D01*
X174137Y120798D01*
X223668Y71268D01*
X223668Y71267D01*
X225348Y70145D01*
X227330Y69750D01*
X1557020D01*
X1559002Y70145D01*
X1560683Y71267D01*
X1601322Y111908D01*
X1602445Y113588D01*
X1602840Y115570D01*
Y182880D01*
X1602840Y182880D01*
X1602840Y182880D01*
Y574040D01*
X1602840Y574040D01*
X1602840Y574040D01*
Y961390D01*
Y1323340D01*
X1602445Y1325322D01*
X1601322Y1327003D01*
X1575624Y1352701D01*
X1573944Y1353824D01*
X1571962Y1354218D01*
X1558578D01*
X1557479Y1356873D01*
X1555668Y1359582D01*
X1553365Y1361886D01*
X1550656Y1363696D01*
X1547646Y1364943D01*
X1544450Y1365578D01*
X1541192D01*
X1537997Y1364943D01*
X1534986Y1363696D01*
X1532277Y1361886D01*
X1529974Y1359582D01*
X1528163Y1356873D01*
X1526917Y1353863D01*
X1526281Y1350667D01*
Y1347409D01*
X1526917Y1344214D01*
X1528163Y1341204D01*
X1529223Y1339618D01*
X1528671Y1338401D01*
X1528550Y1338339D01*
X1525645Y1339543D01*
X1522449Y1340178D01*
X1519191D01*
X1515995Y1339543D01*
X1512985Y1338296D01*
X1510276Y1336486D01*
X1507973Y1334182D01*
X1506162Y1331473D01*
X1504916Y1328463D01*
X1504280Y1325267D01*
Y1322009D01*
X1504916Y1318814D01*
X1506015Y1316159D01*
X1500596Y1310739D01*
X1145108D01*
X1105985Y1349863D01*
X1104305Y1350985D01*
X1102323Y1351380D01*
X972425D01*
X849837Y1473967D01*
Y1559739D01*
X850117Y1559900D01*
X851772Y1561555D01*
X852942Y1563583D01*
X853548Y1565844D01*
Y1568184D01*
X852942Y1570445D01*
X851772Y1572473D01*
X850117Y1574128D01*
X848089Y1575298D01*
X845828Y1575904D01*
X843488D01*
X841227Y1575298D01*
X839199Y1574128D01*
X837544Y1572473D01*
X836374Y1570445D01*
X835768Y1568184D01*
Y1565844D01*
X836374Y1563583D01*
X837544Y1561555D01*
X839199Y1559900D01*
X839479Y1559739D01*
Y1556282D01*
X838208Y1555756D01*
X837482Y1556483D01*
X835454Y1557653D01*
X833193Y1558259D01*
X830853D01*
X828592Y1557653D01*
X826564Y1556483D01*
X824909Y1554828D01*
X824902Y1554816D01*
X823633Y1555156D01*
Y1559043D01*
X825117Y1559900D01*
X826772Y1561555D01*
X827942Y1563583D01*
X828548Y1565844D01*
Y1568184D01*
X827942Y1570445D01*
X826772Y1572473D01*
X825117Y1574128D01*
X823089Y1575298D01*
X820828Y1575904D01*
X818488D01*
X816227Y1575298D01*
X814199Y1574128D01*
X812544Y1572473D01*
X811374Y1570445D01*
X810768Y1568184D01*
Y1565844D01*
X811374Y1563583D01*
X812544Y1561555D01*
X813273Y1560826D01*
Y1557378D01*
X812003Y1556759D01*
X810454Y1557653D01*
X808193Y1558259D01*
X805853D01*
X803592Y1557653D01*
X801564Y1556483D01*
X800200Y1555118D01*
X798930Y1555529D01*
Y1557985D01*
X800047Y1558630D01*
X801702Y1560285D01*
X802872Y1562313D01*
X803478Y1564574D01*
Y1566914D01*
X802872Y1569175D01*
X801702Y1571203D01*
X800047Y1572858D01*
X798019Y1574028D01*
X795758Y1574634D01*
X793418D01*
X791157Y1574028D01*
X789129Y1572858D01*
X787474Y1571203D01*
X786304Y1569175D01*
X785698Y1566914D01*
Y1564574D01*
X786304Y1562313D01*
X787474Y1560285D01*
X788570Y1559189D01*
Y1556783D01*
X787976Y1556537D01*
X787300Y1556374D01*
X785319Y1557518D01*
X783058Y1558124D01*
X780718D01*
X778457Y1557518D01*
X776908Y1556624D01*
X775638Y1557243D01*
Y1559739D01*
X775917Y1559900D01*
X777572Y1561555D01*
X778742Y1563583D01*
X779348Y1565844D01*
Y1568184D01*
X778742Y1570445D01*
X777572Y1572473D01*
X775917Y1574128D01*
X773889Y1575298D01*
X771628Y1575904D01*
X769288D01*
X767027Y1575298D01*
X764999Y1574128D01*
X763344Y1572473D01*
X762174Y1570445D01*
X761568Y1568184D01*
Y1565844D01*
X762174Y1563583D01*
X763344Y1561555D01*
X764999Y1559900D01*
X765278Y1559739D01*
Y1556082D01*
X764008Y1555556D01*
X763217Y1556348D01*
X761189Y1557518D01*
X758928Y1558124D01*
X756588D01*
X754327Y1557518D01*
X752299Y1556348D01*
X751507Y1555556D01*
X750238Y1556082D01*
Y1559739D01*
X750517Y1559900D01*
X752172Y1561555D01*
X753342Y1563583D01*
X753948Y1565844D01*
Y1568184D01*
X753342Y1570445D01*
X752172Y1572473D01*
X750517Y1574128D01*
X748489Y1575298D01*
X746228Y1575904D01*
X743888D01*
X741627Y1575298D01*
X739599Y1574128D01*
X737944Y1572473D01*
X736774Y1570445D01*
X736168Y1568184D01*
Y1565844D01*
X736774Y1563583D01*
X737944Y1561555D01*
X739599Y1559900D01*
X739878Y1559739D01*
Y1556082D01*
X738608Y1555556D01*
X737817Y1556348D01*
X735789Y1557518D01*
X733528Y1558124D01*
X731188D01*
X728927Y1557518D01*
X726899Y1556348D01*
X725269Y1554718D01*
X725152Y1554721D01*
X723999Y1555077D01*
Y1559255D01*
X725117Y1559900D01*
X726772Y1561555D01*
X727942Y1563583D01*
X728548Y1565844D01*
Y1568184D01*
X727942Y1570445D01*
X726772Y1572473D01*
X725117Y1574128D01*
X723089Y1575298D01*
X720828Y1575904D01*
X718488D01*
X716227Y1575298D01*
X714199Y1574128D01*
X712544Y1572473D01*
X711374Y1570445D01*
X710768Y1568184D01*
Y1565844D01*
X711374Y1563583D01*
X712544Y1561555D01*
X713641Y1560459D01*
Y1556783D01*
X713046Y1556537D01*
X712371Y1556374D01*
X710389Y1557518D01*
X708128Y1558124D01*
X705788D01*
X703527Y1557518D01*
X701499Y1556348D01*
X699844Y1554693D01*
X698674Y1552665D01*
X698068Y1550404D01*
Y1548064D01*
X698674Y1545803D01*
X699844Y1543775D01*
X701499Y1542120D01*
X701778Y1541959D01*
Y1490983D01*
X702173Y1489001D01*
X703296Y1487320D01*
X850800Y1339815D01*
Y241300D01*
X851195Y239318D01*
X852318Y237638D01*
X929788Y160168D01*
X931468Y159045D01*
X933450Y158651D01*
X1205625D01*
X1241568Y122707D01*
X1243248Y121584D01*
X1245230Y121190D01*
X1500426D01*
X1505547Y116069D01*
X1504447Y113414D01*
X1503812Y110219D01*
Y106960D01*
X1504447Y103765D01*
X1505694Y100755D01*
X1507504Y98046D01*
X1509808Y95742D01*
X1512517Y93932D01*
X1515527Y92685D01*
X1518723Y92050D01*
X1521981D01*
X1525176Y92685D01*
X1528186Y93932D01*
X1530895Y95742D01*
X1533199Y98046D01*
X1535009Y100755D01*
X1536256Y103765D01*
X1536892Y106960D01*
Y110219D01*
X1536256Y113414D01*
X1535009Y116424D01*
X1533950Y118010D01*
X1534501Y119227D01*
X1534622Y119289D01*
X1537528Y118085D01*
X1540724Y117450D01*
X1543982D01*
X1547177Y118085D01*
X1550187Y119332D01*
X1552896Y121142D01*
X1555200Y123446D01*
X1557010Y126155D01*
X1558257Y129165D01*
X1558893Y132360D01*
Y135619D01*
X1558257Y138814D01*
X1557010Y141824D01*
X1555200Y144533D01*
X1552896Y146837D01*
X1550187Y148647D01*
X1547177Y149894D01*
X1543982Y150530D01*
X1540724D01*
X1537528Y149894D01*
X1536315Y149392D01*
X1535343Y150364D01*
X1536367Y152834D01*
X1537002Y156030D01*
Y159288D01*
X1536367Y162483D01*
X1535120Y165493D01*
X1533310Y168202D01*
X1531006Y170506D01*
X1528297Y172316D01*
X1525287Y173563D01*
X1522091Y174199D01*
X1518833D01*
X1515638Y173563D01*
X1512628Y172316D01*
X1509919Y170506D01*
X1507615Y168202D01*
X1505805Y165493D01*
X1504558Y162483D01*
X1503922Y159288D01*
Y156030D01*
X1504558Y152834D01*
X1505658Y150179D01*
X1502268Y146789D01*
X1253689D01*
X1217745Y182733D01*
X1216065Y183855D01*
X1214083Y184249D01*
X941908D01*
X876400Y249758D01*
Y635460D01*
X877573Y635946D01*
X960921Y552598D01*
X962602Y551475D01*
X964584Y551081D01*
X964584Y551081D01*
X1160558D01*
X1200951Y510687D01*
X1202632Y509565D01*
X1204614Y509170D01*
X1368406D01*
X1368922Y509273D01*
X1500582D01*
X1505703Y504152D01*
X1504603Y501497D01*
X1503968Y498302D01*
Y495043D01*
X1504603Y491848D01*
X1505850Y488838D01*
X1507660Y486129D01*
X1509964Y483825D01*
X1512673Y482015D01*
X1515683Y480768D01*
X1518879Y480132D01*
X1522137D01*
X1525332Y480768D01*
X1528342Y482015D01*
X1531051Y483825D01*
X1533355Y486129D01*
X1535165Y488838D01*
X1536412Y491848D01*
X1537048Y495043D01*
Y498302D01*
X1536412Y501497D01*
X1535165Y504507D01*
X1534106Y506093D01*
X1534657Y507310D01*
X1534779Y507372D01*
X1537684Y506168D01*
X1540880Y505532D01*
X1544138D01*
X1547333Y506168D01*
X1550343Y507415D01*
X1553053Y509225D01*
X1555356Y511529D01*
X1557166Y514238D01*
X1558413Y517248D01*
X1559049Y520443D01*
Y523702D01*
X1558413Y526897D01*
X1557166Y529907D01*
X1555356Y532616D01*
X1553053Y534920D01*
X1550343Y536730D01*
X1547333Y537977D01*
X1544138Y538613D01*
X1540880D01*
X1537684Y537977D01*
X1534779Y536773D01*
X1534657Y536835D01*
X1534106Y538052D01*
X1535165Y539638D01*
X1536412Y542648D01*
X1537048Y545844D01*
Y549102D01*
X1536412Y552297D01*
X1535165Y555307D01*
X1534106Y556893D01*
X1534657Y558110D01*
X1534779Y558172D01*
X1537684Y556968D01*
X1540880Y556333D01*
X1544138D01*
X1547333Y556968D01*
X1550343Y558215D01*
X1553053Y560025D01*
X1555356Y562329D01*
X1557166Y565038D01*
X1558266Y567693D01*
X1592480D01*
Y189969D01*
X1558110D01*
X1557010Y192624D01*
X1555200Y195333D01*
X1552896Y197637D01*
X1550187Y199447D01*
X1547177Y200694D01*
X1543982Y201330D01*
X1540724D01*
X1537528Y200694D01*
X1534518Y199447D01*
X1531809Y197637D01*
X1529505Y195333D01*
X1527695Y192624D01*
X1526448Y189614D01*
X1525813Y186419D01*
Y183161D01*
X1526448Y179965D01*
X1527695Y176955D01*
X1529505Y174246D01*
X1531809Y171942D01*
X1534518Y170132D01*
X1537528Y168885D01*
X1540724Y168250D01*
X1543982D01*
X1547177Y168885D01*
X1550187Y170132D01*
X1552896Y171942D01*
X1555200Y174246D01*
X1557010Y176955D01*
X1558110Y179610D01*
X1592480D01*
Y117715D01*
X1554875Y80110D01*
X229475D01*
X182980Y126605D01*
Y181851D01*
X208668D01*
X209768Y179195D01*
X211578Y176486D01*
X213882Y174183D01*
X216591Y172373D01*
X219601Y171126D01*
X222797Y170490D01*
X226055D01*
X229250Y171126D01*
X232260Y172373D01*
X234969Y174183D01*
X237273Y176486D01*
X239083Y179195D01*
X240330Y182206D01*
X240966Y185401D01*
Y188659D01*
X240330Y191855D01*
X239083Y194865D01*
X237273Y197574D01*
X234969Y199878D01*
X232260Y201688D01*
X229250Y202934D01*
X226055Y203570D01*
X222797D01*
X219601Y202934D01*
X216591Y201688D01*
X213882Y199878D01*
X211578Y197574D01*
X209768Y194865D01*
X208668Y192210D01*
X182980D01*
Y569934D01*
X208825D01*
X209924Y567278D01*
X211734Y564569D01*
X214038Y562266D01*
X216747Y560456D01*
X219757Y559209D01*
X222953Y558573D01*
X226211D01*
X229406Y559209D01*
X232416Y560456D01*
X235126Y562266D01*
X237429Y564569D01*
X239239Y567278D01*
X240486Y570289D01*
X241122Y573484D01*
Y576742D01*
X240486Y579938D01*
X239239Y582948D01*
X238180Y584534D01*
X238732Y585751D01*
X238853Y585812D01*
X241758Y584609D01*
X244954Y583973D01*
X248212D01*
X251408Y584609D01*
X254418Y585855D01*
X257127Y587666D01*
X259431Y589969D01*
X261241Y592678D01*
X262488Y595689D01*
X263123Y598884D01*
Y602142D01*
X262488Y605338D01*
X261388Y607993D01*
X266509Y613114D01*
X407473D01*
X409455Y613508D01*
X411136Y614631D01*
X565147Y768642D01*
X566320Y768156D01*
Y378028D01*
X438922Y250630D01*
X266353D01*
X261232Y255751D01*
X262331Y258406D01*
X262967Y261601D01*
Y264859D01*
X262331Y268055D01*
X261084Y271065D01*
X259274Y273774D01*
X256971Y276078D01*
X254262Y277888D01*
X251252Y279135D01*
X248056Y279770D01*
X244798D01*
X241602Y279135D01*
X238592Y277888D01*
X235883Y276078D01*
X233580Y273774D01*
X231769Y271065D01*
X230523Y268055D01*
X229887Y264859D01*
Y261601D01*
X230523Y258406D01*
X231769Y255396D01*
X232829Y253810D01*
X232277Y252593D01*
X232156Y252531D01*
X229250Y253735D01*
X226055Y254370D01*
X222797D01*
X219601Y253735D01*
X216591Y252488D01*
X213882Y250678D01*
X211578Y248374D01*
X209768Y245665D01*
X208521Y242655D01*
X207886Y239459D01*
Y236201D01*
X208521Y233006D01*
X209768Y229996D01*
X211578Y227287D01*
X213882Y224983D01*
X216591Y223173D01*
X219601Y221926D01*
X222797Y221290D01*
X226055D01*
X229250Y221926D01*
X230463Y222428D01*
X231435Y221456D01*
X230412Y218986D01*
X229776Y215790D01*
Y212532D01*
X230412Y209337D01*
X231659Y206327D01*
X233469Y203618D01*
X235773Y201314D01*
X238482Y199504D01*
X241492Y198257D01*
X244687Y197621D01*
X247945D01*
X251141Y198257D01*
X254151Y199504D01*
X256860Y201314D01*
X259164Y203618D01*
X260974Y206327D01*
X262221Y209337D01*
X262856Y212532D01*
Y215790D01*
X262221Y218986D01*
X261121Y221641D01*
X264511Y225031D01*
X447380D01*
X449362Y225425D01*
X451043Y226548D01*
X590402Y365908D01*
X591525Y367588D01*
X591920Y369570D01*
Y1493915D01*
X629042Y1531037D01*
X629043Y1531037D01*
X630165Y1532718D01*
X630560Y1534700D01*
X630560Y1534700D01*
Y1559905D01*
X630839Y1560066D01*
X632494Y1561721D01*
X633664Y1563749D01*
X634270Y1566010D01*
Y1568350D01*
X633664Y1570611D01*
X632494Y1572639D01*
X630839Y1574294D01*
X628811Y1575464D01*
X626550Y1576070D01*
D02*
G37*
G36*
X1353892Y1559106D02*
X1349266Y1554480D01*
X1353892Y1549854D01*
X1354807Y1551441D01*
X1355344Y1553443D01*
Y1555517D01*
X1354807Y1557519D01*
X1353892Y1559106D01*
D02*
G37*
G36*
X1341048Y1559106D02*
X1340133Y1557519D01*
X1339596Y1555517D01*
Y1553443D01*
X1340133Y1551441D01*
X1341048Y1549854D01*
X1345674Y1554480D01*
X1341048Y1559106D01*
D02*
G37*
G36*
X1347470Y1552684D02*
X1342845Y1548058D01*
X1344431Y1547143D01*
X1346433Y1546606D01*
X1348507D01*
X1350509Y1547143D01*
X1352095Y1548058D01*
X1347470Y1552684D01*
D02*
G37*
G36*
X305310Y1549415D02*
X302563Y1549053D01*
X300003Y1547993D01*
X298820Y1547086D01*
X305310Y1540596D01*
X311800Y1547086D01*
X310617Y1547993D01*
X308057Y1549053D01*
X305310Y1549415D01*
D02*
G37*
G36*
X210310D02*
X207563Y1549053D01*
X205003Y1547993D01*
X203820Y1547086D01*
X210310Y1540596D01*
X216800Y1547086D01*
X215617Y1547993D01*
X213057Y1549053D01*
X210310Y1549415D01*
D02*
G37*
G36*
X671597Y1544574D02*
X669523D01*
X667521Y1544037D01*
X665935Y1543122D01*
X670560Y1538496D01*
X675185Y1543122D01*
X673599Y1544037D01*
X671597Y1544574D01*
D02*
G37*
G36*
X676982Y1541326D02*
X672356Y1536700D01*
X676982Y1532074D01*
X677897Y1533661D01*
X678434Y1535663D01*
Y1537737D01*
X677897Y1539739D01*
X676982Y1541326D01*
D02*
G37*
G36*
X664138Y1541326D02*
X663223Y1539739D01*
X662686Y1537737D01*
Y1535663D01*
X663223Y1533661D01*
X664138Y1532074D01*
X668764Y1536700D01*
X664138Y1541326D01*
D02*
G37*
G36*
X670560Y1534904D02*
X665935Y1530278D01*
X667521Y1529363D01*
X669523Y1528826D01*
X671597D01*
X673599Y1529363D01*
X675185Y1530278D01*
X670560Y1534904D01*
D02*
G37*
G36*
X297024Y1545290D02*
X296117Y1544107D01*
X295057Y1541547D01*
X294695Y1538800D01*
Y1526800D01*
X295057Y1524053D01*
X296117Y1521493D01*
X297024Y1520311D01*
X304412Y1527698D01*
X305310Y1526800D01*
X306208Y1527698D01*
X313596Y1520311D01*
X314503Y1521493D01*
X315563Y1524053D01*
X315925Y1526800D01*
Y1538800D01*
X315563Y1541547D01*
X314503Y1544107D01*
X313596Y1545289D01*
X306208Y1537902D01*
X305310Y1538800D01*
X304412Y1537902D01*
X297024Y1545290D01*
D02*
G37*
G36*
X202024D02*
X201117Y1544107D01*
X200057Y1541547D01*
X199695Y1538800D01*
Y1526800D01*
X200057Y1524053D01*
X201117Y1521493D01*
X202024Y1520311D01*
X209412Y1527698D01*
X210310Y1526800D01*
X211208Y1527698D01*
X218596Y1520311D01*
X219503Y1521493D01*
X220563Y1524053D01*
X220925Y1526800D01*
Y1538800D01*
X220563Y1541547D01*
X219503Y1544107D01*
X218596Y1545289D01*
X211208Y1537902D01*
X210310Y1538800D01*
X209412Y1537902D01*
X202024Y1545290D01*
D02*
G37*
G36*
X305310Y1525004D02*
X298820Y1518514D01*
X300003Y1517607D01*
X302563Y1516547D01*
X305310Y1516185D01*
X308057Y1516547D01*
X310617Y1517607D01*
X311800Y1518514D01*
X305310Y1525004D01*
D02*
G37*
G36*
X210310D02*
X203820Y1518514D01*
X205003Y1517607D01*
X207563Y1516547D01*
X210310Y1516185D01*
X213057Y1516547D01*
X215617Y1517607D01*
X216800Y1518514D01*
X210310Y1525004D01*
D02*
G37*
G36*
X259538Y1532340D02*
X256082D01*
X252694Y1531666D01*
X249502Y1530344D01*
X246629Y1528424D01*
X244186Y1525981D01*
X242266Y1523108D01*
X240944Y1519916D01*
X240270Y1516528D01*
Y1513073D01*
X240944Y1509684D01*
X242266Y1506492D01*
X244186Y1503619D01*
X246629Y1501176D01*
X249502Y1499256D01*
X252694Y1497934D01*
X256082Y1497260D01*
X259538D01*
X262926Y1497934D01*
X266118Y1499256D01*
X268991Y1501176D01*
X271434Y1503619D01*
X273354Y1506492D01*
X274676Y1509684D01*
X275350Y1513073D01*
Y1516528D01*
X274676Y1519916D01*
X273354Y1523108D01*
X271434Y1525981D01*
X268991Y1528424D01*
X266118Y1530344D01*
X262926Y1531666D01*
X259538Y1532340D01*
D02*
G37*
G36*
X954807Y1498854D02*
X952733D01*
X950731Y1498317D01*
X949145Y1497402D01*
X953770Y1492776D01*
X958395Y1497402D01*
X956809Y1498317D01*
X954807Y1498854D01*
D02*
G37*
G36*
X1561867Y1495044D02*
X1559793D01*
X1557791Y1494507D01*
X1556205Y1493592D01*
X1560830Y1488966D01*
X1565455Y1493592D01*
X1563869Y1494507D01*
X1561867Y1495044D01*
D02*
G37*
G36*
X960192Y1495605D02*
X955566Y1490980D01*
X960192Y1486355D01*
X961107Y1487941D01*
X961644Y1489943D01*
Y1492017D01*
X961107Y1494019D01*
X960192Y1495605D01*
D02*
G37*
G36*
X947348Y1495605D02*
X946433Y1494019D01*
X945896Y1492017D01*
Y1489943D01*
X946433Y1487941D01*
X947348Y1486355D01*
X951974Y1490980D01*
X947348Y1495605D01*
D02*
G37*
G36*
X953770Y1489184D02*
X949145Y1484558D01*
X950731Y1483643D01*
X952733Y1483106D01*
X954807D01*
X956809Y1483643D01*
X958395Y1484558D01*
X953770Y1489184D01*
D02*
G37*
G36*
X1567252Y1491796D02*
X1562626Y1487170D01*
X1567252Y1482545D01*
X1568167Y1484131D01*
X1568704Y1486133D01*
Y1488207D01*
X1568167Y1490209D01*
X1567252Y1491796D01*
D02*
G37*
G36*
X1554408Y1491796D02*
X1553493Y1490209D01*
X1552956Y1488207D01*
Y1486133D01*
X1553493Y1484131D01*
X1554408Y1482545D01*
X1559034Y1487170D01*
X1554408Y1491796D01*
D02*
G37*
G36*
X1560830Y1485374D02*
X1556205Y1480748D01*
X1557791Y1479833D01*
X1559793Y1479296D01*
X1561867D01*
X1563869Y1479833D01*
X1565455Y1480748D01*
X1560830Y1485374D01*
D02*
G37*
G36*
X629486Y1503173D02*
X626228D01*
X623033Y1502537D01*
X620023Y1501290D01*
X617313Y1499480D01*
X615010Y1497177D01*
X613200Y1494467D01*
X611953Y1491457D01*
X611317Y1488262D01*
Y1485004D01*
X611953Y1481808D01*
X613200Y1478798D01*
X615010Y1476089D01*
X617313Y1473785D01*
X620023Y1471975D01*
X623033Y1470728D01*
X626228Y1470093D01*
X629486D01*
X632682Y1470728D01*
X635692Y1471975D01*
X638401Y1473785D01*
X640705Y1476089D01*
X642515Y1478798D01*
X643762Y1481808D01*
X644397Y1485004D01*
Y1488262D01*
X643762Y1491457D01*
X642515Y1494467D01*
X640705Y1497177D01*
X638401Y1499480D01*
X635692Y1501290D01*
X632682Y1502537D01*
X629486Y1503173D01*
D02*
G37*
G36*
X279167Y1468374D02*
X277093D01*
X275091Y1467837D01*
X273505Y1466922D01*
X278130Y1462296D01*
X282756Y1466922D01*
X281169Y1467837D01*
X279167Y1468374D01*
D02*
G37*
G36*
X323617Y1467104D02*
X321543D01*
X319541Y1466567D01*
X317955Y1465652D01*
X322580Y1461026D01*
X327206Y1465652D01*
X325619Y1466567D01*
X323617Y1467104D01*
D02*
G37*
G36*
X284552Y1465125D02*
X279926Y1460500D01*
X284552Y1455874D01*
X285467Y1457461D01*
X286004Y1459463D01*
Y1461537D01*
X285467Y1463539D01*
X284552Y1465125D01*
D02*
G37*
G36*
X271708Y1465125D02*
X270793Y1463539D01*
X270256Y1461537D01*
Y1459463D01*
X270793Y1457461D01*
X271708Y1455874D01*
X276334Y1460500D01*
X271708Y1465125D01*
D02*
G37*
G36*
X329002Y1463855D02*
X324376Y1459230D01*
X329002Y1454604D01*
X329917Y1456191D01*
X330454Y1458193D01*
Y1460267D01*
X329917Y1462269D01*
X329002Y1463855D01*
D02*
G37*
G36*
X316158Y1463855D02*
X315243Y1462269D01*
X314706Y1460267D01*
Y1458193D01*
X315243Y1456191D01*
X316158Y1454604D01*
X320784Y1459230D01*
X316158Y1463855D01*
D02*
G37*
G36*
X278130Y1458704D02*
X273505Y1454078D01*
X275091Y1453163D01*
X277093Y1452626D01*
X279167D01*
X281169Y1453163D01*
X282756Y1454078D01*
X278130Y1458704D01*
D02*
G37*
G36*
X322580Y1457434D02*
X317955Y1452808D01*
X319541Y1451893D01*
X321543Y1451356D01*
X323617D01*
X325619Y1451893D01*
X327206Y1452808D01*
X322580Y1457434D01*
D02*
G37*
G36*
X1163087Y1456944D02*
X1161013D01*
X1159011Y1456407D01*
X1157424Y1455492D01*
X1162050Y1450866D01*
X1166675Y1455492D01*
X1165089Y1456407D01*
X1163087Y1456944D01*
D02*
G37*
G36*
X1168472Y1453696D02*
X1163846Y1449070D01*
X1168472Y1444444D01*
X1169387Y1446031D01*
X1169924Y1448033D01*
Y1450107D01*
X1169387Y1452109D01*
X1168472Y1453696D01*
D02*
G37*
G36*
X1155628Y1453696D02*
X1154713Y1452109D01*
X1154176Y1450107D01*
Y1448033D01*
X1154713Y1446031D01*
X1155628Y1444444D01*
X1160254Y1449070D01*
X1155628Y1453696D01*
D02*
G37*
G36*
X1162050Y1447274D02*
X1157424Y1442648D01*
X1159011Y1441733D01*
X1161013Y1441196D01*
X1163087D01*
X1165089Y1441733D01*
X1166675Y1442648D01*
X1162050Y1447274D01*
D02*
G37*
G36*
X1068326Y1431233D02*
X1065068D01*
X1061872Y1430597D01*
X1058862Y1429350D01*
X1056153Y1427540D01*
X1053849Y1425236D01*
X1052039Y1422527D01*
X1050792Y1419517D01*
X1050157Y1416322D01*
Y1413064D01*
X1050792Y1409868D01*
X1052039Y1406858D01*
X1053849Y1404149D01*
X1056153Y1401845D01*
X1058862Y1400035D01*
X1061872Y1398788D01*
X1065068Y1398153D01*
X1068326D01*
X1071521Y1398788D01*
X1074531Y1400035D01*
X1077241Y1401845D01*
X1079544Y1404149D01*
X1081354Y1406858D01*
X1082601Y1409868D01*
X1083237Y1413064D01*
Y1416322D01*
X1082601Y1419517D01*
X1081354Y1422527D01*
X1079544Y1425236D01*
X1077241Y1427540D01*
X1074531Y1429350D01*
X1071521Y1430597D01*
X1068326Y1431233D01*
D02*
G37*
G36*
X724093Y1423788D02*
X720835D01*
X717639Y1423153D01*
X714629Y1421906D01*
X711920Y1420096D01*
X709616Y1417792D01*
X707806Y1415083D01*
X706560Y1412073D01*
X705924Y1408878D01*
Y1405619D01*
X706560Y1402424D01*
X707806Y1399414D01*
X709616Y1396705D01*
X711920Y1394401D01*
X714629Y1392591D01*
X717639Y1391344D01*
X720835Y1390708D01*
X724093D01*
X727289Y1391344D01*
X730298Y1392591D01*
X733008Y1394401D01*
X735311Y1396705D01*
X737122Y1399414D01*
X738368Y1402424D01*
X739004Y1405619D01*
Y1408878D01*
X738368Y1412073D01*
X737122Y1415083D01*
X735311Y1417792D01*
X733008Y1420096D01*
X730298Y1421906D01*
X727289Y1423153D01*
X724093Y1423788D01*
D02*
G37*
G36*
X1544196Y1416378D02*
X1540938D01*
X1537742Y1415743D01*
X1534732Y1414496D01*
X1532023Y1412686D01*
X1529720Y1410382D01*
X1527910Y1407673D01*
X1526663Y1404663D01*
X1526027Y1401467D01*
Y1398209D01*
X1526663Y1395014D01*
X1527910Y1392004D01*
X1529720Y1389295D01*
X1532023Y1386991D01*
X1534732Y1385181D01*
X1537742Y1383934D01*
X1540938Y1383298D01*
X1544196D01*
X1547392Y1383934D01*
X1550402Y1385181D01*
X1553111Y1386991D01*
X1555414Y1389295D01*
X1557225Y1392004D01*
X1558472Y1395014D01*
X1559107Y1398209D01*
Y1401467D01*
X1558472Y1404663D01*
X1557225Y1407673D01*
X1555414Y1410382D01*
X1553111Y1412686D01*
X1550402Y1414496D01*
X1547392Y1415743D01*
X1544196Y1416378D01*
D02*
G37*
G36*
X1521849Y1389962D02*
X1518791D01*
X1515792Y1389366D01*
X1512966Y1388196D01*
X1510424Y1386497D01*
X1510241Y1386313D01*
X1520320Y1376234D01*
X1530399Y1386314D01*
X1530216Y1386497D01*
X1527673Y1388196D01*
X1524848Y1389366D01*
X1521849Y1389962D01*
D02*
G37*
G36*
X1508445Y1384518D02*
X1508262Y1384334D01*
X1506563Y1381792D01*
X1505392Y1378967D01*
X1504796Y1375967D01*
Y1372909D01*
X1505392Y1369910D01*
X1506563Y1367085D01*
X1508262Y1364543D01*
X1508445Y1364359D01*
X1518524Y1374438D01*
X1508445Y1384518D01*
D02*
G37*
G36*
X1532195Y1384518D02*
X1522116Y1374438D01*
X1532195Y1364359D01*
X1532378Y1364543D01*
X1534077Y1367085D01*
X1535247Y1369910D01*
X1535844Y1372909D01*
Y1375967D01*
X1535247Y1378967D01*
X1534077Y1381792D01*
X1532378Y1384334D01*
X1532195Y1384518D01*
D02*
G37*
G36*
X1278985Y1394088D02*
X1275727D01*
X1272531Y1393452D01*
X1269521Y1392206D01*
X1266812Y1390395D01*
X1264508Y1388092D01*
X1262698Y1385383D01*
X1261451Y1382372D01*
X1260816Y1379177D01*
Y1375919D01*
X1261451Y1372723D01*
X1262698Y1369713D01*
X1264508Y1367004D01*
X1266812Y1364700D01*
X1269521Y1362890D01*
X1272531Y1361644D01*
X1275727Y1361008D01*
X1278985D01*
X1282180Y1361644D01*
X1285190Y1362890D01*
X1287899Y1364700D01*
X1290203Y1367004D01*
X1292013Y1369713D01*
X1293260Y1372723D01*
X1293896Y1375919D01*
Y1379177D01*
X1293260Y1382372D01*
X1292013Y1385383D01*
X1290203Y1388092D01*
X1287899Y1390395D01*
X1285190Y1392206D01*
X1282180Y1393452D01*
X1278985Y1394088D01*
D02*
G37*
G36*
X1520320Y1372642D02*
X1510241Y1362563D01*
X1510424Y1362380D01*
X1512966Y1360681D01*
X1515792Y1359511D01*
X1518791Y1358914D01*
X1521849D01*
X1524848Y1359511D01*
X1527673Y1360681D01*
X1530216Y1362380D01*
X1530399Y1362563D01*
X1520320Y1372642D01*
D02*
G37*
G36*
X702647Y1302164D02*
X699389D01*
X696194Y1301529D01*
X693184Y1300282D01*
X690475Y1298472D01*
X688171Y1296168D01*
X686361Y1293459D01*
X685114Y1290449D01*
X684478Y1287254D01*
Y1283995D01*
X685114Y1280800D01*
X686361Y1277790D01*
X688171Y1275081D01*
X690475Y1272777D01*
X693184Y1270967D01*
X696194Y1269720D01*
X699389Y1269084D01*
X702647D01*
X705843Y1269720D01*
X708853Y1270967D01*
X711562Y1272777D01*
X713866Y1275081D01*
X715676Y1277790D01*
X716923Y1280800D01*
X717558Y1283995D01*
Y1287254D01*
X716923Y1290449D01*
X715676Y1293459D01*
X713866Y1296168D01*
X711562Y1298472D01*
X708853Y1300282D01*
X705843Y1301529D01*
X702647Y1302164D01*
D02*
G37*
G36*
X774467Y1255014D02*
X772393D01*
X770391Y1254477D01*
X768804Y1253562D01*
X773430Y1248936D01*
X778055Y1253562D01*
X776469Y1254477D01*
X774467Y1255014D01*
D02*
G37*
G36*
X779852Y1251766D02*
X775226Y1247140D01*
X779852Y1242514D01*
X780767Y1244101D01*
X781304Y1246103D01*
Y1248177D01*
X780767Y1250179D01*
X779852Y1251766D01*
D02*
G37*
G36*
X767008Y1251766D02*
X766093Y1250179D01*
X765556Y1248177D01*
Y1246103D01*
X766093Y1244101D01*
X767008Y1242514D01*
X771634Y1247140D01*
X767008Y1251766D01*
D02*
G37*
G36*
X773430Y1245344D02*
X768804Y1240718D01*
X770391Y1239803D01*
X772393Y1239266D01*
X774467D01*
X776469Y1239803D01*
X778055Y1240718D01*
X773430Y1245344D01*
D02*
G37*
G36*
X778277Y1140714D02*
X776203D01*
X774201Y1140177D01*
X772615Y1139262D01*
X777240Y1134636D01*
X781865Y1139262D01*
X780279Y1140177D01*
X778277Y1140714D01*
D02*
G37*
G36*
X783662Y1137466D02*
X779036Y1132840D01*
X783662Y1128214D01*
X784577Y1129801D01*
X785114Y1131803D01*
Y1133877D01*
X784577Y1135879D01*
X783662Y1137466D01*
D02*
G37*
G36*
X770818Y1137466D02*
X769903Y1135879D01*
X769366Y1133877D01*
Y1131803D01*
X769903Y1129801D01*
X770818Y1128214D01*
X775444Y1132840D01*
X770818Y1137466D01*
D02*
G37*
G36*
X777240Y1131044D02*
X772615Y1126418D01*
X774201Y1125503D01*
X776203Y1124966D01*
X778277D01*
X780279Y1125503D01*
X781865Y1126418D01*
X777240Y1131044D01*
D02*
G37*
G36*
X629330Y1115090D02*
X626072D01*
X622877Y1114454D01*
X619866Y1113207D01*
X617157Y1111397D01*
X614854Y1109094D01*
X613044Y1106385D01*
X611797Y1103374D01*
X611161Y1100179D01*
Y1096921D01*
X611797Y1093725D01*
X613044Y1090715D01*
X614854Y1088006D01*
X617157Y1085703D01*
X619866Y1083892D01*
X622877Y1082646D01*
X626072Y1082010D01*
X629330D01*
X632526Y1082646D01*
X635536Y1083892D01*
X638245Y1085703D01*
X640548Y1088006D01*
X642359Y1090715D01*
X643605Y1093725D01*
X644241Y1096921D01*
Y1100179D01*
X643605Y1103374D01*
X642359Y1106385D01*
X640548Y1109094D01*
X638245Y1111397D01*
X635536Y1113207D01*
X632526Y1114454D01*
X629330Y1115090D01*
D02*
G37*
G36*
X723937Y1035705D02*
X720679D01*
X717483Y1035070D01*
X714473Y1033823D01*
X711764Y1032013D01*
X709460Y1029709D01*
X707650Y1027000D01*
X706403Y1023990D01*
X705768Y1020795D01*
Y1017536D01*
X706403Y1014341D01*
X707650Y1011331D01*
X709460Y1008622D01*
X711764Y1006318D01*
X714473Y1004508D01*
X717483Y1003261D01*
X720679Y1002626D01*
X723937D01*
X727132Y1003261D01*
X730142Y1004508D01*
X732851Y1006318D01*
X735155Y1008622D01*
X736965Y1011331D01*
X738212Y1014341D01*
X738848Y1017536D01*
Y1020795D01*
X738212Y1023990D01*
X736965Y1027000D01*
X735155Y1029709D01*
X732851Y1032013D01*
X730142Y1033823D01*
X727132Y1035070D01*
X723937Y1035705D01*
D02*
G37*
G36*
X702491Y914081D02*
X699233D01*
X696038Y913446D01*
X693027Y912199D01*
X690319Y910389D01*
X688015Y908085D01*
X686205Y905376D01*
X684958Y902366D01*
X684322Y899171D01*
Y895912D01*
X684958Y892717D01*
X686205Y889707D01*
X688015Y886998D01*
X690319Y884694D01*
X693027Y882884D01*
X696038Y881637D01*
X699233Y881002D01*
X702491D01*
X705687Y881637D01*
X708697Y882884D01*
X711406Y884694D01*
X713710Y886998D01*
X715520Y889707D01*
X716767Y892717D01*
X717402Y895912D01*
Y899171D01*
X716767Y902366D01*
X715520Y905376D01*
X713710Y908085D01*
X711406Y910389D01*
X708697Y912199D01*
X705687Y913446D01*
X702491Y914081D01*
D02*
G37*
G36*
X801137Y851154D02*
X799063D01*
X797061Y850617D01*
X795474Y849702D01*
X800100Y845076D01*
X804725Y849702D01*
X803139Y850617D01*
X801137Y851154D01*
D02*
G37*
G36*
X806522Y847906D02*
X801896Y843280D01*
X806522Y838654D01*
X807437Y840241D01*
X807974Y842243D01*
Y844317D01*
X807437Y846319D01*
X806522Y847906D01*
D02*
G37*
G36*
X793678Y847906D02*
X792763Y846319D01*
X792226Y844317D01*
Y842243D01*
X792763Y840241D01*
X793678Y838654D01*
X798304Y843280D01*
X793678Y847906D01*
D02*
G37*
G36*
X800100Y841484D02*
X795474Y836858D01*
X797061Y835943D01*
X799063Y835406D01*
X801137D01*
X803139Y835943D01*
X804725Y836858D01*
X800100Y841484D01*
D02*
G37*
G36*
X713507Y764794D02*
X711433D01*
X709431Y764257D01*
X707844Y763342D01*
X712470Y758716D01*
X717095Y763342D01*
X715509Y764257D01*
X713507Y764794D01*
D02*
G37*
G36*
X718892Y761545D02*
X714266Y756920D01*
X718892Y752294D01*
X719807Y753881D01*
X720344Y755883D01*
Y757957D01*
X719807Y759959D01*
X718892Y761545D01*
D02*
G37*
G36*
X706048Y761545D02*
X705133Y759959D01*
X704596Y757957D01*
Y755883D01*
X705133Y753881D01*
X706048Y752294D01*
X710674Y756920D01*
X706048Y761545D01*
D02*
G37*
G36*
X712470Y755124D02*
X707844Y750498D01*
X709431Y749583D01*
X711433Y749046D01*
X713507D01*
X715509Y749583D01*
X717095Y750498D01*
X712470Y755124D01*
D02*
G37*
G36*
X629174Y727007D02*
X625916D01*
X622720Y726372D01*
X619710Y725125D01*
X617001Y723315D01*
X614697Y721011D01*
X612887Y718302D01*
X611641Y715292D01*
X611005Y712096D01*
Y708838D01*
X611641Y705642D01*
X612887Y702633D01*
X614697Y699923D01*
X617001Y697620D01*
X619710Y695809D01*
X622720Y694563D01*
X625916Y693927D01*
X629174D01*
X632369Y694563D01*
X635380Y695809D01*
X638089Y697620D01*
X640392Y699923D01*
X642203Y702633D01*
X643449Y705642D01*
X644085Y708838D01*
Y712096D01*
X643449Y715292D01*
X642203Y718302D01*
X640392Y721011D01*
X638089Y723315D01*
X635380Y725125D01*
X632369Y726372D01*
X629174Y727007D01*
D02*
G37*
G36*
X723781Y647623D02*
X720523D01*
X717327Y646987D01*
X714317Y645740D01*
X711608Y643930D01*
X709304Y641626D01*
X707494Y638917D01*
X706247Y635907D01*
X705612Y632712D01*
Y629454D01*
X706247Y626258D01*
X707494Y623248D01*
X709304Y620539D01*
X711608Y618235D01*
X714317Y616425D01*
X717327Y615178D01*
X720523Y614543D01*
X723781D01*
X726976Y615178D01*
X729986Y616425D01*
X732695Y618235D01*
X734999Y620539D01*
X736809Y623248D01*
X738056Y626258D01*
X738692Y629454D01*
Y632712D01*
X738056Y635907D01*
X736809Y638917D01*
X734999Y641626D01*
X732695Y643930D01*
X729986Y645740D01*
X726976Y646987D01*
X723781Y647623D01*
D02*
G37*
G36*
X248612Y565237D02*
X245554D01*
X242555Y564640D01*
X239730Y563470D01*
X237187Y561771D01*
X237004Y561588D01*
X247083Y551509D01*
X257162Y561588D01*
X256979Y561771D01*
X254436Y563470D01*
X251611Y564640D01*
X248612Y565237D01*
D02*
G37*
G36*
X235208Y559792D02*
X235025Y559609D01*
X233326Y557066D01*
X232156Y554241D01*
X231559Y551242D01*
Y548184D01*
X232156Y545185D01*
X233326Y542360D01*
X235025Y539817D01*
X235208Y539634D01*
X245287Y549713D01*
X235208Y559792D01*
D02*
G37*
G36*
X258958D02*
X248879Y549713D01*
X258958Y539634D01*
X259141Y539817D01*
X260840Y542360D01*
X262010Y545185D01*
X262607Y548184D01*
Y551242D01*
X262010Y554241D01*
X260840Y557066D01*
X259141Y559609D01*
X258958Y559792D01*
D02*
G37*
G36*
X247083Y547917D02*
X237004Y537838D01*
X237187Y537655D01*
X239730Y535956D01*
X242555Y534786D01*
X245554Y534189D01*
X248612D01*
X251611Y534786D01*
X254436Y535956D01*
X256979Y537655D01*
X257162Y537838D01*
X247083Y547917D01*
D02*
G37*
G36*
X491676Y563144D02*
X488418D01*
X485223Y562508D01*
X482212Y561261D01*
X479503Y559451D01*
X477200Y557147D01*
X475390Y554438D01*
X474143Y551428D01*
X473507Y548233D01*
Y544974D01*
X474143Y541779D01*
X475390Y538769D01*
X477200Y536060D01*
X479503Y533756D01*
X482212Y531946D01*
X485223Y530699D01*
X488418Y530064D01*
X491676D01*
X494872Y530699D01*
X497882Y531946D01*
X500591Y533756D01*
X502895Y536060D01*
X504705Y538769D01*
X505951Y541779D01*
X506587Y544974D01*
Y548233D01*
X505951Y551428D01*
X504705Y554438D01*
X502895Y557147D01*
X500591Y559451D01*
X497882Y561261D01*
X494872Y562508D01*
X491676Y563144D01*
D02*
G37*
G36*
X226465Y540853D02*
X223207D01*
X220011Y540217D01*
X217001Y538970D01*
X214292Y537160D01*
X211988Y534857D01*
X210178Y532148D01*
X208932Y529137D01*
X208296Y525942D01*
Y522684D01*
X208932Y519488D01*
X210178Y516478D01*
X211988Y513769D01*
X214292Y511465D01*
X217001Y509655D01*
X220011Y508409D01*
X223207Y507773D01*
X226465D01*
X229660Y508409D01*
X232670Y509655D01*
X235380Y511465D01*
X237683Y513769D01*
X239493Y516478D01*
X240740Y519488D01*
X241376Y522684D01*
Y525942D01*
X240740Y529137D01*
X239493Y532148D01*
X237683Y534857D01*
X235380Y537160D01*
X232670Y538970D01*
X229660Y540217D01*
X226465Y540853D01*
D02*
G37*
G36*
X1048109Y535970D02*
X1044851D01*
X1041655Y535334D01*
X1038645Y534088D01*
X1035936Y532277D01*
X1033633Y529974D01*
X1031822Y527265D01*
X1030576Y524255D01*
X1029940Y521059D01*
Y517801D01*
X1030576Y514605D01*
X1031822Y511595D01*
X1033633Y508886D01*
X1035936Y506583D01*
X1038645Y504772D01*
X1041655Y503526D01*
X1044851Y502890D01*
X1048109D01*
X1051304Y503526D01*
X1054315Y504772D01*
X1057024Y506583D01*
X1059327Y508886D01*
X1061137Y511595D01*
X1062384Y514605D01*
X1063020Y517801D01*
Y521059D01*
X1062384Y524255D01*
X1061137Y527265D01*
X1059327Y529974D01*
X1057024Y532277D01*
X1054315Y534088D01*
X1051304Y535334D01*
X1048109Y535970D01*
D02*
G37*
G36*
X702335Y525999D02*
X699077D01*
X695882Y525363D01*
X692871Y524116D01*
X690162Y522306D01*
X687859Y520002D01*
X686049Y517293D01*
X684802Y514283D01*
X684166Y511088D01*
Y507830D01*
X684802Y504634D01*
X686049Y501624D01*
X687859Y498915D01*
X690162Y496611D01*
X692871Y494801D01*
X695882Y493554D01*
X699077Y492919D01*
X702335D01*
X705531Y493554D01*
X708541Y494801D01*
X711250Y496611D01*
X713553Y498915D01*
X715364Y501624D01*
X716610Y504634D01*
X717246Y507830D01*
Y511088D01*
X716610Y514283D01*
X715364Y517293D01*
X713553Y520002D01*
X711250Y522306D01*
X708541Y524116D01*
X705531Y525363D01*
X702335Y525999D01*
D02*
G37*
G36*
X322347Y491744D02*
X320273D01*
X318271Y491207D01*
X316684Y490292D01*
X321310Y485666D01*
X325936Y490292D01*
X324349Y491207D01*
X322347Y491744D01*
D02*
G37*
G36*
X327732Y488495D02*
X323106Y483870D01*
X327732Y479244D01*
X328647Y480831D01*
X329184Y482833D01*
Y484907D01*
X328647Y486909D01*
X327732Y488495D01*
D02*
G37*
G36*
X314888Y488495D02*
X313973Y486909D01*
X313436Y484907D01*
Y482833D01*
X313973Y480831D01*
X314888Y479244D01*
X319514Y483870D01*
X314888Y488495D01*
D02*
G37*
G36*
X321310Y482074D02*
X316684Y477448D01*
X318271Y476533D01*
X320273Y475996D01*
X322347D01*
X324349Y476533D01*
X325936Y477448D01*
X321310Y482074D01*
D02*
G37*
G36*
X740177Y480314D02*
X738103D01*
X736101Y479777D01*
X734514Y478862D01*
X739140Y474236D01*
X743765Y478862D01*
X742179Y479777D01*
X740177Y480314D01*
D02*
G37*
G36*
X745562Y477066D02*
X740936Y472440D01*
X745562Y467814D01*
X746477Y469401D01*
X747014Y471403D01*
Y473477D01*
X746477Y475479D01*
X745562Y477066D01*
D02*
G37*
G36*
X732718Y477066D02*
X731803Y475479D01*
X731266Y473477D01*
Y471403D01*
X731803Y469401D01*
X732718Y467814D01*
X737344Y472440D01*
X732718Y477066D01*
D02*
G37*
G36*
X739140Y470644D02*
X734514Y466018D01*
X736101Y465103D01*
X738103Y464566D01*
X740177D01*
X742179Y465103D01*
X743765Y466018D01*
X739140Y470644D01*
D02*
G37*
G36*
X435377Y463804D02*
X433303D01*
X431301Y463267D01*
X429715Y462352D01*
X434340Y457726D01*
X438965Y462352D01*
X437379Y463267D01*
X435377Y463804D01*
D02*
G37*
G36*
X440762Y460555D02*
X436136Y455930D01*
X440762Y451305D01*
X441677Y452891D01*
X442214Y454893D01*
Y456967D01*
X441677Y458969D01*
X440762Y460555D01*
D02*
G37*
G36*
X427918Y460555D02*
X427003Y458969D01*
X426466Y456967D01*
Y454893D01*
X427003Y452891D01*
X427918Y451305D01*
X432544Y455930D01*
X427918Y460555D01*
D02*
G37*
G36*
X434340Y454134D02*
X429715Y449508D01*
X431301Y448593D01*
X433303Y448056D01*
X435377D01*
X437379Y448593D01*
X438965Y449508D01*
X434340Y454134D01*
D02*
G37*
G36*
X980207Y435864D02*
X978133D01*
X976131Y435327D01*
X974545Y434412D01*
X979170Y429786D01*
X983795Y434412D01*
X982209Y435327D01*
X980207Y435864D01*
D02*
G37*
G36*
X1533927Y433324D02*
X1531853D01*
X1529851Y432787D01*
X1528264Y431872D01*
X1532890Y427246D01*
X1537516Y431872D01*
X1535929Y432787D01*
X1533927Y433324D01*
D02*
G37*
G36*
X985592Y432616D02*
X980966Y427990D01*
X985592Y423364D01*
X986507Y424951D01*
X987044Y426953D01*
Y429027D01*
X986507Y431029D01*
X985592Y432616D01*
D02*
G37*
G36*
X972748Y432616D02*
X971833Y431029D01*
X971296Y429027D01*
Y426953D01*
X971833Y424951D01*
X972748Y423364D01*
X977374Y427990D01*
X972748Y432616D01*
D02*
G37*
G36*
X1141175Y454059D02*
X1137917D01*
X1134721Y453423D01*
X1131711Y452176D01*
X1129002Y450366D01*
X1126698Y448062D01*
X1124888Y445353D01*
X1123641Y442343D01*
X1123006Y439148D01*
Y435890D01*
X1123641Y432694D01*
X1124888Y429684D01*
X1126698Y426975D01*
X1129002Y424671D01*
X1131711Y422861D01*
X1134721Y421614D01*
X1137917Y420979D01*
X1141175D01*
X1144370Y421614D01*
X1147380Y422861D01*
X1150089Y424671D01*
X1152393Y426975D01*
X1154203Y429684D01*
X1155450Y432694D01*
X1156086Y435890D01*
Y439148D01*
X1155450Y442343D01*
X1154203Y445353D01*
X1152393Y448062D01*
X1150089Y450366D01*
X1147380Y452176D01*
X1144370Y453423D01*
X1141175Y454059D01*
D02*
G37*
G36*
X1539312Y430075D02*
X1534686Y425450D01*
X1539312Y420825D01*
X1540227Y422411D01*
X1540764Y424413D01*
Y426487D01*
X1540227Y428489D01*
X1539312Y430075D01*
D02*
G37*
G36*
X1526468Y430075D02*
X1525553Y428489D01*
X1525016Y426487D01*
Y424413D01*
X1525553Y422411D01*
X1526468Y420825D01*
X1531094Y425450D01*
X1526468Y430075D01*
D02*
G37*
G36*
X979170Y426194D02*
X974545Y421568D01*
X976131Y420653D01*
X978133Y420116D01*
X980207D01*
X982209Y420653D01*
X983795Y421568D01*
X979170Y426194D01*
D02*
G37*
G36*
X1532890Y423654D02*
X1528264Y419028D01*
X1529851Y418113D01*
X1531853Y417576D01*
X1533927D01*
X1535929Y418113D01*
X1537516Y419028D01*
X1532890Y423654D01*
D02*
G37*
G36*
X488717Y419354D02*
X486643D01*
X484641Y418817D01*
X483055Y417902D01*
X487680Y413276D01*
X492305Y417902D01*
X490719Y418817D01*
X488717Y419354D01*
D02*
G37*
G36*
X494102Y416105D02*
X489476Y411480D01*
X494102Y406855D01*
X495017Y408441D01*
X495554Y410443D01*
Y412517D01*
X495017Y414519D01*
X494102Y416105D01*
D02*
G37*
G36*
X481258Y416105D02*
X480343Y414519D01*
X479806Y412517D01*
Y410443D01*
X480343Y408441D01*
X481258Y406855D01*
X485884Y411480D01*
X481258Y416105D01*
D02*
G37*
G36*
X487680Y409684D02*
X483055Y405058D01*
X484641Y404143D01*
X486643Y403606D01*
X488717D01*
X490719Y404143D01*
X492305Y405058D01*
X487680Y409684D01*
D02*
G37*
G36*
X285517Y399034D02*
X283443D01*
X281441Y398497D01*
X279855Y397582D01*
X284480Y392956D01*
X289105Y397582D01*
X287519Y398497D01*
X285517Y399034D01*
D02*
G37*
G36*
X290902Y395785D02*
X286276Y391160D01*
X290902Y386535D01*
X291817Y388121D01*
X292354Y390123D01*
Y392197D01*
X291817Y394199D01*
X290902Y395785D01*
D02*
G37*
G36*
X278058Y395785D02*
X277143Y394199D01*
X276606Y392197D01*
Y390123D01*
X277143Y388121D01*
X278058Y386535D01*
X282684Y391160D01*
X278058Y395785D01*
D02*
G37*
G36*
X284480Y389364D02*
X279855Y384738D01*
X281441Y383823D01*
X283443Y383286D01*
X285517D01*
X287519Y383823D01*
X289105Y384738D01*
X284480Y389364D01*
D02*
G37*
G36*
X1170707Y349504D02*
X1168633D01*
X1166631Y348967D01*
X1165044Y348052D01*
X1169670Y343426D01*
X1174296Y348052D01*
X1172709Y348967D01*
X1170707Y349504D01*
D02*
G37*
G36*
X780817D02*
X778743D01*
X776741Y348967D01*
X775154Y348052D01*
X779780Y343426D01*
X784406Y348052D01*
X782819Y348967D01*
X780817Y349504D01*
D02*
G37*
G36*
X1176092Y346255D02*
X1171466Y341630D01*
X1176092Y337005D01*
X1177007Y338591D01*
X1177544Y340593D01*
Y342667D01*
X1177007Y344669D01*
X1176092Y346255D01*
D02*
G37*
G36*
X786202D02*
X781576Y341630D01*
X786202Y337005D01*
X787117Y338591D01*
X787654Y340593D01*
Y342667D01*
X787117Y344669D01*
X786202Y346255D01*
D02*
G37*
G36*
X773358Y346255D02*
X772443Y344669D01*
X771906Y342667D01*
Y340593D01*
X772443Y338591D01*
X773358Y337005D01*
X777984Y341630D01*
X773358Y346255D01*
D02*
G37*
G36*
X1163248D02*
X1162333Y344669D01*
X1161796Y342667D01*
Y340593D01*
X1162333Y338591D01*
X1163248Y337005D01*
X1167874Y341630D01*
X1163248Y346255D01*
D02*
G37*
G36*
X1169670Y339834D02*
X1165044Y335208D01*
X1166631Y334293D01*
X1168633Y333756D01*
X1170707D01*
X1172709Y334293D01*
X1174296Y335208D01*
X1169670Y339834D01*
D02*
G37*
G36*
X779780D02*
X775154Y335208D01*
X776741Y334293D01*
X778743Y333756D01*
X780817D01*
X782819Y334293D01*
X784406Y335208D01*
X779780Y339834D01*
D02*
G37*
G36*
X1535197Y320294D02*
X1533123D01*
X1531121Y319757D01*
X1529534Y318842D01*
X1534160Y314216D01*
X1538786Y318842D01*
X1537199Y319757D01*
X1535197Y320294D01*
D02*
G37*
G36*
X1540582Y317045D02*
X1535956Y312420D01*
X1540582Y307794D01*
X1541497Y309381D01*
X1542034Y311383D01*
Y313457D01*
X1541497Y315459D01*
X1540582Y317045D01*
D02*
G37*
G36*
X1527738Y317045D02*
X1526823Y315459D01*
X1526286Y313457D01*
Y311383D01*
X1526823Y309381D01*
X1527738Y307794D01*
X1532364Y312420D01*
X1527738Y317045D01*
D02*
G37*
G36*
X629018Y338924D02*
X625760D01*
X622564Y338289D01*
X619554Y337042D01*
X616845Y335232D01*
X614541Y332928D01*
X612731Y330219D01*
X611484Y327209D01*
X610849Y324013D01*
Y320755D01*
X611484Y317560D01*
X612731Y314550D01*
X614541Y311840D01*
X616845Y309537D01*
X619554Y307727D01*
X622564Y306480D01*
X625760Y305844D01*
X629018D01*
X632213Y306480D01*
X635224Y307727D01*
X637933Y309537D01*
X640236Y311840D01*
X642046Y314550D01*
X643293Y317560D01*
X643929Y320755D01*
Y324013D01*
X643293Y327209D01*
X642046Y330219D01*
X640236Y332928D01*
X637933Y335232D01*
X635224Y337042D01*
X632213Y338289D01*
X629018Y338924D01*
D02*
G37*
G36*
X1534160Y310624D02*
X1529534Y305998D01*
X1531121Y305083D01*
X1533123Y304546D01*
X1535197D01*
X1537199Y305083D01*
X1538786Y305998D01*
X1534160Y310624D01*
D02*
G37*
G36*
X1067858Y266984D02*
X1064600D01*
X1061404Y266348D01*
X1058394Y265102D01*
X1055685Y263291D01*
X1053381Y260988D01*
X1051571Y258279D01*
X1050324Y255269D01*
X1049689Y252073D01*
Y248815D01*
X1050324Y245620D01*
X1051571Y242610D01*
X1053381Y239900D01*
X1055685Y237597D01*
X1058394Y235786D01*
X1061404Y234540D01*
X1064600Y233904D01*
X1067858D01*
X1071053Y234540D01*
X1074063Y235786D01*
X1076772Y237597D01*
X1079076Y239900D01*
X1080886Y242610D01*
X1082133Y245620D01*
X1082768Y248815D01*
Y252073D01*
X1082133Y255269D01*
X1080886Y258279D01*
X1079076Y260988D01*
X1076772Y263291D01*
X1074063Y265102D01*
X1071053Y266348D01*
X1067858Y266984D01*
D02*
G37*
G36*
X723625Y259540D02*
X720367D01*
X717171Y258904D01*
X714161Y257657D01*
X711452Y255847D01*
X709148Y253543D01*
X707338Y250834D01*
X706091Y247824D01*
X705456Y244629D01*
Y241371D01*
X706091Y238175D01*
X707338Y235165D01*
X709148Y232456D01*
X711452Y230152D01*
X714161Y228342D01*
X717171Y227095D01*
X720367Y226460D01*
X723625D01*
X726820Y227095D01*
X729830Y228342D01*
X732539Y230152D01*
X734843Y232456D01*
X736653Y235165D01*
X737900Y238175D01*
X738536Y241371D01*
Y244629D01*
X737900Y247824D01*
X736653Y250834D01*
X734843Y253543D01*
X732539Y255847D01*
X729830Y257657D01*
X726820Y258904D01*
X723625Y259540D01*
D02*
G37*
G36*
X1543728Y252130D02*
X1540470D01*
X1537274Y251494D01*
X1534264Y250247D01*
X1531555Y248437D01*
X1529251Y246133D01*
X1527441Y243424D01*
X1526194Y240414D01*
X1525559Y237219D01*
Y233961D01*
X1526194Y230765D01*
X1527441Y227755D01*
X1529251Y225046D01*
X1531555Y222742D01*
X1534264Y220932D01*
X1537274Y219685D01*
X1540470Y219050D01*
X1543728D01*
X1546923Y219685D01*
X1549933Y220932D01*
X1552642Y222742D01*
X1554946Y225046D01*
X1556756Y227755D01*
X1558003Y230765D01*
X1558639Y233961D01*
Y237219D01*
X1558003Y240414D01*
X1556756Y243424D01*
X1554946Y246133D01*
X1552642Y248437D01*
X1549933Y250247D01*
X1546923Y251494D01*
X1543728Y252130D01*
D02*
G37*
G36*
X1521380Y225714D02*
X1518323D01*
X1515323Y225117D01*
X1512498Y223947D01*
X1509956Y222248D01*
X1509772Y222065D01*
X1519852Y211986D01*
X1529931Y222065D01*
X1529747Y222248D01*
X1527205Y223947D01*
X1524380Y225117D01*
X1521380Y225714D01*
D02*
G37*
G36*
X1507976Y220269D02*
X1507793Y220086D01*
X1506094Y217543D01*
X1504924Y214718D01*
X1504328Y211719D01*
Y208661D01*
X1504924Y205662D01*
X1506094Y202836D01*
X1507793Y200294D01*
X1507976Y200111D01*
X1518056Y210190D01*
X1507976Y220269D01*
D02*
G37*
G36*
X1531727D02*
X1521648Y210190D01*
X1531727Y200111D01*
X1531910Y200294D01*
X1533609Y202836D01*
X1534779Y205662D01*
X1535376Y208661D01*
Y211719D01*
X1534779Y214718D01*
X1533609Y217543D01*
X1531910Y220086D01*
X1531727Y220269D01*
D02*
G37*
G36*
X1278517Y229839D02*
X1275258D01*
X1272063Y229204D01*
X1269053Y227957D01*
X1266344Y226147D01*
X1264040Y223843D01*
X1262230Y221134D01*
X1260983Y218124D01*
X1260348Y214928D01*
Y211670D01*
X1260983Y208475D01*
X1262230Y205465D01*
X1264040Y202756D01*
X1266344Y200452D01*
X1269053Y198642D01*
X1272063Y197395D01*
X1275258Y196759D01*
X1278517D01*
X1281712Y197395D01*
X1284722Y198642D01*
X1287431Y200452D01*
X1289735Y202756D01*
X1291545Y205465D01*
X1292792Y208475D01*
X1293427Y211670D01*
Y214928D01*
X1292792Y218124D01*
X1291545Y221134D01*
X1289735Y223843D01*
X1287431Y226147D01*
X1284722Y227957D01*
X1281712Y229204D01*
X1278517Y229839D01*
D02*
G37*
G36*
X1519852Y208394D02*
X1509772Y198315D01*
X1509956Y198132D01*
X1512498Y196433D01*
X1515323Y195262D01*
X1518323Y194666D01*
X1521380D01*
X1524380Y195262D01*
X1527205Y196433D01*
X1529747Y198132D01*
X1529931Y198315D01*
X1519852Y208394D01*
D02*
G37*
G36*
X364257Y170434D02*
X362183D01*
X360181Y169897D01*
X358595Y168982D01*
X363220Y164356D01*
X367845Y168982D01*
X366259Y169897D01*
X364257Y170434D01*
D02*
G37*
G36*
X248456Y177154D02*
X245398D01*
X242399Y176558D01*
X239573Y175387D01*
X237031Y173688D01*
X236848Y173505D01*
X246927Y163426D01*
X257006Y173505D01*
X256823Y173688D01*
X254280Y175387D01*
X251455Y176558D01*
X248456Y177154D01*
D02*
G37*
G36*
X854477Y166624D02*
X852403D01*
X850401Y166087D01*
X848814Y165172D01*
X853440Y160546D01*
X858065Y165172D01*
X856479Y166087D01*
X854477Y166624D01*
D02*
G37*
G36*
X369642Y167185D02*
X365016Y162560D01*
X369642Y157935D01*
X370557Y159521D01*
X371094Y161523D01*
Y163597D01*
X370557Y165599D01*
X369642Y167185D01*
D02*
G37*
G36*
X356798Y167185D02*
X355883Y165599D01*
X355346Y163597D01*
Y161523D01*
X355883Y159521D01*
X356798Y157935D01*
X361424Y162560D01*
X356798Y167185D01*
D02*
G37*
G36*
X363220Y160764D02*
X358595Y156138D01*
X360181Y155223D01*
X362183Y154686D01*
X364257D01*
X366259Y155223D01*
X367845Y156138D01*
X363220Y160764D01*
D02*
G37*
G36*
X859862Y163375D02*
X855236Y158750D01*
X859862Y154124D01*
X860777Y155711D01*
X861314Y157713D01*
Y159787D01*
X860777Y161789D01*
X859862Y163375D01*
D02*
G37*
G36*
X847018Y163375D02*
X846103Y161789D01*
X845566Y159787D01*
Y157713D01*
X846103Y155711D01*
X847018Y154124D01*
X851644Y158750D01*
X847018Y163375D01*
D02*
G37*
G36*
X235052Y171709D02*
X234869Y171526D01*
X233170Y168983D01*
X231999Y166158D01*
X231403Y163159D01*
Y160101D01*
X231999Y157102D01*
X233170Y154277D01*
X234869Y151734D01*
X235052Y151551D01*
X245131Y161630D01*
X235052Y171709D01*
D02*
G37*
G36*
X258802D02*
X248723Y161630D01*
X258802Y151551D01*
X258985Y151734D01*
X260684Y154277D01*
X261854Y157102D01*
X262451Y160101D01*
Y163159D01*
X261854Y166158D01*
X260684Y168983D01*
X258985Y171526D01*
X258802Y171709D01*
D02*
G37*
G36*
X853440Y156954D02*
X848814Y152328D01*
X850401Y151413D01*
X852403Y150876D01*
X854477D01*
X856479Y151413D01*
X858065Y152328D01*
X853440Y156954D01*
D02*
G37*
G36*
X246927Y159834D02*
X236848Y149755D01*
X237031Y149572D01*
X239573Y147873D01*
X242399Y146703D01*
X245398Y146106D01*
X248456D01*
X251455Y146703D01*
X254280Y147873D01*
X256823Y149572D01*
X257006Y149755D01*
X246927Y159834D01*
D02*
G37*
G36*
X491520Y175061D02*
X488262D01*
X485066Y174425D01*
X482056Y173178D01*
X479347Y171368D01*
X477044Y169064D01*
X475233Y166355D01*
X473987Y163345D01*
X473351Y160150D01*
Y156892D01*
X473987Y153696D01*
X475233Y150686D01*
X477044Y147977D01*
X479347Y145673D01*
X482056Y143863D01*
X485066Y142616D01*
X488262Y141981D01*
X491520D01*
X494716Y142616D01*
X497726Y143863D01*
X500435Y145673D01*
X502738Y147977D01*
X504549Y150686D01*
X505795Y153696D01*
X506431Y156892D01*
Y160150D01*
X505795Y163345D01*
X504549Y166355D01*
X502738Y169064D01*
X500435Y171368D01*
X497726Y173178D01*
X494716Y174425D01*
X491520Y175061D01*
D02*
G37*
G36*
X608097Y128524D02*
X606023D01*
X604021Y127987D01*
X602435Y127072D01*
X607060Y122446D01*
X611685Y127072D01*
X610099Y127987D01*
X608097Y128524D01*
D02*
G37*
G36*
X226309Y152770D02*
X223051D01*
X219855Y152134D01*
X216845Y150888D01*
X214136Y149078D01*
X211832Y146774D01*
X210022Y144065D01*
X208775Y141055D01*
X208140Y137859D01*
Y134601D01*
X208775Y131405D01*
X210022Y128395D01*
X211832Y125686D01*
X214136Y123383D01*
X216845Y121573D01*
X219855Y120326D01*
X223051Y119690D01*
X226309D01*
X229504Y120326D01*
X232514Y121573D01*
X235223Y123383D01*
X237527Y125686D01*
X239337Y128395D01*
X240584Y131405D01*
X241220Y134601D01*
Y137859D01*
X240584Y141055D01*
X239337Y144065D01*
X237527Y146774D01*
X235223Y149078D01*
X232514Y150888D01*
X229504Y152134D01*
X226309Y152770D01*
D02*
G37*
G36*
X613482Y125275D02*
X608856Y120650D01*
X613482Y116025D01*
X614397Y117611D01*
X614934Y119613D01*
Y121687D01*
X614397Y123689D01*
X613482Y125275D01*
D02*
G37*
G36*
X600638Y125275D02*
X599723Y123689D01*
X599186Y121687D01*
Y119613D01*
X599723Y117611D01*
X600638Y116025D01*
X605264Y120650D01*
X600638Y125275D01*
D02*
G37*
G36*
X607060Y118854D02*
X602435Y114228D01*
X604021Y113313D01*
X606023Y112776D01*
X608097D01*
X610099Y113313D01*
X611685Y114228D01*
X607060Y118854D01*
D02*
G37*
G36*
X1046412Y145360D02*
X1043154D01*
X1039958Y144725D01*
X1036948Y143478D01*
X1034239Y141668D01*
X1031936Y139364D01*
X1030125Y136655D01*
X1028879Y133645D01*
X1028243Y130449D01*
Y127191D01*
X1028879Y123996D01*
X1030125Y120985D01*
X1031936Y118277D01*
X1034239Y115973D01*
X1036948Y114163D01*
X1039958Y112916D01*
X1043154Y112280D01*
X1046412D01*
X1049608Y112916D01*
X1052618Y114163D01*
X1055327Y115973D01*
X1057630Y118277D01*
X1059441Y120985D01*
X1060687Y123996D01*
X1061323Y127191D01*
Y130449D01*
X1060687Y133645D01*
X1059441Y136655D01*
X1057630Y139364D01*
X1055327Y141668D01*
X1052618Y143478D01*
X1049608Y144725D01*
X1046412Y145360D01*
D02*
G37*
G36*
X702179Y137916D02*
X698921D01*
X695725Y137280D01*
X692715Y136033D01*
X690006Y134223D01*
X687702Y131919D01*
X685892Y129210D01*
X684645Y126200D01*
X684010Y123005D01*
Y119747D01*
X684645Y116551D01*
X685892Y113541D01*
X687702Y110832D01*
X690006Y108528D01*
X692715Y106718D01*
X695725Y105471D01*
X698921Y104836D01*
X702179D01*
X705375Y105471D01*
X708385Y106718D01*
X711094Y108528D01*
X713397Y110832D01*
X715208Y113541D01*
X716454Y116551D01*
X717090Y119747D01*
Y123005D01*
X716454Y126200D01*
X715208Y129210D01*
X713397Y131919D01*
X711094Y134223D01*
X708385Y136033D01*
X705375Y137280D01*
X702179Y137916D01*
D02*
G37*
G36*
X900451Y110490D02*
X898377D01*
X896375Y109953D01*
X894789Y109038D01*
X899414Y104412D01*
X904040Y109038D01*
X902453Y109953D01*
X900451Y110490D01*
D02*
G37*
G36*
X905836Y107241D02*
X901210Y102616D01*
X905836Y97991D01*
X906751Y99577D01*
X907288Y101579D01*
Y103653D01*
X906751Y105655D01*
X905836Y107241D01*
D02*
G37*
G36*
X892992Y107241D02*
X892077Y105655D01*
X891540Y103653D01*
Y101579D01*
X892077Y99577D01*
X892992Y97991D01*
X897618Y102616D01*
X892992Y107241D01*
D02*
G37*
G36*
X899414Y100820D02*
X894789Y96194D01*
X896375Y95279D01*
X898377Y94742D01*
X900451D01*
X902453Y95279D01*
X904040Y96194D01*
X899414Y100820D01*
D02*
G37*
G36*
X315997Y63754D02*
X313923D01*
X311921Y63217D01*
X310334Y62302D01*
X314960Y57676D01*
X319585Y62302D01*
X317999Y63217D01*
X315997Y63754D01*
D02*
G37*
G36*
X1445027Y61214D02*
X1442953D01*
X1440951Y60677D01*
X1439364Y59762D01*
X1443990Y55136D01*
X1448616Y59762D01*
X1447029Y60677D01*
X1445027Y61214D01*
D02*
G37*
G36*
X641117D02*
X639043D01*
X637041Y60677D01*
X635454Y59762D01*
X640080Y55136D01*
X644706Y59762D01*
X643119Y60677D01*
X641117Y61214D01*
D02*
G37*
G36*
X944647Y59944D02*
X942573D01*
X940571Y59407D01*
X938985Y58492D01*
X943610Y53866D01*
X948235Y58492D01*
X946649Y59407D01*
X944647Y59944D01*
D02*
G37*
G36*
X321382Y60505D02*
X316756Y55880D01*
X321382Y51255D01*
X322297Y52841D01*
X322834Y54843D01*
Y56917D01*
X322297Y58919D01*
X321382Y60505D01*
D02*
G37*
G36*
X308538Y60505D02*
X307623Y58919D01*
X307086Y56917D01*
Y54843D01*
X307623Y52841D01*
X308538Y51255D01*
X313164Y55880D01*
X308538Y60505D01*
D02*
G37*
G36*
X1450412Y57965D02*
X1445786Y53340D01*
X1450412Y48714D01*
X1451327Y50301D01*
X1451864Y52303D01*
Y54377D01*
X1451327Y56379D01*
X1450412Y57965D01*
D02*
G37*
G36*
X646502D02*
X641876Y53340D01*
X646502Y48714D01*
X647417Y50301D01*
X647954Y52303D01*
Y54377D01*
X647417Y56379D01*
X646502Y57965D01*
D02*
G37*
G36*
X1437568Y57965D02*
X1436653Y56379D01*
X1436116Y54377D01*
Y52303D01*
X1436653Y50301D01*
X1437568Y48714D01*
X1442194Y53340D01*
X1437568Y57965D01*
D02*
G37*
G36*
X633658D02*
X632743Y56379D01*
X632206Y54377D01*
Y52303D01*
X632743Y50301D01*
X633658Y48714D01*
X638284Y53340D01*
X633658Y57965D01*
D02*
G37*
G36*
X314960Y54084D02*
X310334Y49458D01*
X311921Y48543D01*
X313923Y48006D01*
X315997D01*
X317999Y48543D01*
X319585Y49458D01*
X314960Y54084D01*
D02*
G37*
G36*
X950032Y56695D02*
X945406Y52070D01*
X950032Y47445D01*
X950947Y49031D01*
X951484Y51033D01*
Y53107D01*
X950947Y55109D01*
X950032Y56695D01*
D02*
G37*
G36*
X937188Y56695D02*
X936273Y55109D01*
X935736Y53107D01*
Y51033D01*
X936273Y49031D01*
X937188Y47445D01*
X941814Y52070D01*
X937188Y56695D01*
D02*
G37*
G36*
X1443990Y51544D02*
X1439364Y46918D01*
X1440951Y46003D01*
X1442953Y45466D01*
X1445027D01*
X1447029Y46003D01*
X1448616Y46918D01*
X1443990Y51544D01*
D02*
G37*
G36*
X640080D02*
X635454Y46918D01*
X637041Y46003D01*
X639043Y45466D01*
X641117D01*
X643119Y46003D01*
X644706Y46918D01*
X640080Y51544D01*
D02*
G37*
G36*
X943610Y50274D02*
X938985Y45648D01*
X940571Y44733D01*
X942573Y44196D01*
X944647D01*
X946649Y44733D01*
X948235Y45648D01*
X943610Y50274D01*
D02*
G37*
G36*
X1141019Y65976D02*
X1137761D01*
X1134565Y65340D01*
X1131555Y64093D01*
X1128846Y62283D01*
X1126542Y59979D01*
X1124732Y57270D01*
X1123485Y54260D01*
X1122850Y51065D01*
Y47807D01*
X1123485Y44611D01*
X1124732Y41601D01*
X1126542Y38892D01*
X1128846Y36588D01*
X1131555Y34778D01*
X1134565Y33531D01*
X1137761Y32896D01*
X1141019D01*
X1144214Y33531D01*
X1147224Y34778D01*
X1149933Y36588D01*
X1152237Y38892D01*
X1154047Y41601D01*
X1155294Y44611D01*
X1155930Y47807D01*
Y51065D01*
X1155294Y54260D01*
X1154047Y57270D01*
X1152237Y59979D01*
X1149933Y62283D01*
X1147224Y64093D01*
X1144214Y65340D01*
X1141019Y65976D01*
D02*
G37*
G36*
X1592821Y77752D02*
X1591562Y77653D01*
X1590359D01*
X1590109Y77604D01*
X1589854D01*
X1589149Y77463D01*
X1588490Y77412D01*
X1586564Y76949D01*
X1585024Y76643D01*
X1584788Y76545D01*
X1584538Y76495D01*
X1584350Y76418D01*
X1584265Y76397D01*
X1580251Y74735D01*
X1580176Y74689D01*
X1579988Y74611D01*
X1579776Y74469D01*
X1579541Y74372D01*
X1578235Y73499D01*
X1576546Y72464D01*
X1576043Y72035D01*
X1575446Y71636D01*
X1575266Y71455D01*
X1575053Y71314D01*
X1574203Y70463D01*
X1573242Y69643D01*
X1572422Y68682D01*
X1571571Y67831D01*
X1571429Y67619D01*
X1571249Y67439D01*
X1570850Y66842D01*
X1570421Y66339D01*
X1569386Y64651D01*
X1568513Y63344D01*
X1568416Y63109D01*
X1568274Y62897D01*
X1568196Y62709D01*
X1568150Y62634D01*
X1566487Y58620D01*
X1566467Y58535D01*
X1566389Y58347D01*
X1566340Y58097D01*
X1566242Y57861D01*
X1565936Y56320D01*
X1565473Y54395D01*
X1565421Y53736D01*
X1565281Y53031D01*
Y52776D01*
X1565231Y52526D01*
Y51323D01*
X1565132Y50064D01*
X1565231Y48805D01*
Y47601D01*
X1565281Y47351D01*
Y47096D01*
X1565421Y46391D01*
X1565473Y45732D01*
X1565936Y43807D01*
X1566242Y42266D01*
X1566340Y42031D01*
X1566389Y41780D01*
X1566467Y41592D01*
X1566487Y41507D01*
X1568150Y37493D01*
X1568196Y37418D01*
X1568274Y37231D01*
X1568416Y37018D01*
X1568513Y36783D01*
X1569386Y35476D01*
X1570421Y33788D01*
X1570850Y33286D01*
X1571249Y32688D01*
X1571429Y32508D01*
X1571571Y32296D01*
X1572422Y31445D01*
X1573242Y30485D01*
X1574202Y29665D01*
X1575053Y28814D01*
X1575265Y28672D01*
X1575446Y28491D01*
X1576043Y28092D01*
X1576546Y27663D01*
X1578234Y26629D01*
X1579541Y25756D01*
X1579776Y25658D01*
X1579988Y25516D01*
X1580176Y25438D01*
X1580251Y25393D01*
X1584265Y23730D01*
X1584350Y23709D01*
X1584538Y23632D01*
X1584788Y23582D01*
X1585024Y23484D01*
X1586565Y23178D01*
X1588490Y22716D01*
X1589149Y22664D01*
X1589854Y22524D01*
X1590109D01*
X1590359Y22474D01*
X1591562D01*
X1592821Y22375D01*
X1594080Y22474D01*
X1595284D01*
X1595534Y22524D01*
X1595789D01*
X1596493Y22664D01*
X1597153Y22716D01*
X1599078Y23178D01*
X1600619Y23484D01*
X1600854Y23582D01*
X1601104Y23632D01*
X1601292Y23709D01*
X1601378Y23730D01*
X1605392Y25393D01*
X1605466Y25438D01*
X1605654Y25516D01*
X1605866Y25658D01*
X1606102Y25756D01*
X1607408Y26628D01*
X1609096Y27663D01*
X1609599Y28092D01*
X1610197Y28491D01*
X1610377Y28672D01*
X1610589Y28814D01*
X1611440Y29664D01*
X1612400Y30485D01*
X1613220Y31445D01*
X1614071Y32296D01*
X1614213Y32508D01*
X1614393Y32688D01*
X1614792Y33286D01*
X1615222Y33788D01*
X1616257Y35477D01*
X1617129Y36783D01*
X1617227Y37018D01*
X1617368Y37231D01*
X1617446Y37418D01*
X1617492Y37493D01*
X1619155Y41507D01*
X1619175Y41593D01*
X1619253Y41780D01*
X1619303Y42030D01*
X1619400Y42266D01*
X1619707Y43807D01*
X1620169Y45732D01*
X1620221Y46391D01*
X1620361Y47096D01*
Y47351D01*
X1620411Y47601D01*
Y48805D01*
X1620510Y50064D01*
X1620411Y51323D01*
Y52526D01*
X1620361Y52776D01*
Y53031D01*
X1620221Y53736D01*
X1620169Y54395D01*
X1619707Y56321D01*
X1619400Y57861D01*
X1619303Y58097D01*
X1619253Y58347D01*
X1619175Y58534D01*
X1619155Y58620D01*
X1617492Y62634D01*
X1617446Y62709D01*
X1617368Y62897D01*
X1617227Y63109D01*
X1617129Y63344D01*
X1616257Y64650D01*
X1615222Y66339D01*
X1614792Y66842D01*
X1614393Y67439D01*
X1614213Y67619D01*
X1614071Y67831D01*
X1613221Y68682D01*
X1612400Y69643D01*
X1611440Y70463D01*
X1610589Y71314D01*
X1610377Y71455D01*
X1610197Y71636D01*
X1609599Y72035D01*
X1609096Y72464D01*
X1607408Y73499D01*
X1606102Y74372D01*
X1605866Y74469D01*
X1605654Y74611D01*
X1605467Y74689D01*
X1605392Y74735D01*
X1601378Y76397D01*
X1601292Y76418D01*
X1601104Y76495D01*
X1600854Y76545D01*
X1600619Y76643D01*
X1599078Y76949D01*
X1597153Y77412D01*
X1596493Y77463D01*
X1595789Y77604D01*
X1595534D01*
X1595284Y77653D01*
X1594080D01*
X1592821Y77752D01*
D02*
G37*
G36*
X156336Y77752D02*
X155077Y77653D01*
X153874D01*
X153624Y77604D01*
X153369D01*
X152664Y77463D01*
X152005Y77411D01*
X150079Y76949D01*
X148539Y76643D01*
X148303Y76545D01*
X148053Y76495D01*
X147865Y76418D01*
X147780Y76397D01*
X143766Y74734D01*
X143691Y74689D01*
X143503Y74611D01*
X143291Y74469D01*
X143056Y74372D01*
X141750Y73499D01*
X140061Y72464D01*
X139558Y72035D01*
X138961Y71636D01*
X138781Y71455D01*
X138569Y71314D01*
X137718Y70463D01*
X136757Y69643D01*
X135937Y68682D01*
X135086Y67831D01*
X134945Y67619D01*
X134764Y67439D01*
X134365Y66841D01*
X133936Y66339D01*
X132901Y64651D01*
X132028Y63344D01*
X131931Y63109D01*
X131789Y62896D01*
X131711Y62709D01*
X131665Y62634D01*
X130003Y58620D01*
X129982Y58534D01*
X129904Y58347D01*
X129855Y58097D01*
X129757Y57861D01*
X129451Y56320D01*
X128989Y54395D01*
X128937Y53736D01*
X128796Y53031D01*
Y52776D01*
X128747Y52526D01*
Y51322D01*
X128648Y50064D01*
X128747Y48804D01*
Y47601D01*
X128796Y47351D01*
Y47096D01*
X128937Y46391D01*
X128989Y45732D01*
X129451Y43807D01*
X129757Y42266D01*
X129855Y42030D01*
X129904Y41780D01*
X129982Y41592D01*
X130003Y41507D01*
X131665Y37493D01*
X131711Y37418D01*
X131789Y37231D01*
X131931Y37018D01*
X132028Y36783D01*
X132901Y35476D01*
X133936Y33788D01*
X134365Y33286D01*
X134764Y32688D01*
X134945Y32508D01*
X135086Y32296D01*
X135937Y31445D01*
X136757Y30484D01*
X137718Y29664D01*
X138569Y28814D01*
X138781Y28672D01*
X138961Y28491D01*
X139559Y28092D01*
X140061Y27663D01*
X141749Y26628D01*
X143056Y25756D01*
X143291Y25658D01*
X143503Y25516D01*
X143691Y25438D01*
X143766Y25393D01*
X147780Y23730D01*
X147865Y23709D01*
X148053Y23632D01*
X148303Y23582D01*
X148539Y23484D01*
X150080Y23178D01*
X152005Y22716D01*
X152664Y22664D01*
X153369Y22524D01*
X153624D01*
X153874Y22474D01*
X155078D01*
X156336Y22375D01*
X157595Y22474D01*
X158799D01*
X159049Y22524D01*
X159304D01*
X160009Y22664D01*
X160668Y22716D01*
X162593Y23178D01*
X164134Y23484D01*
X164370Y23582D01*
X164620Y23632D01*
X164807Y23709D01*
X164893Y23730D01*
X168907Y25393D01*
X168982Y25438D01*
X169169Y25516D01*
X169382Y25658D01*
X169617Y25756D01*
X170923Y26628D01*
X172612Y27663D01*
X173114Y28092D01*
X173712Y28491D01*
X173892Y28672D01*
X174104Y28814D01*
X174955Y29664D01*
X175915Y30484D01*
X176736Y31445D01*
X177586Y32296D01*
X177728Y32508D01*
X177908Y32688D01*
X178308Y33286D01*
X178737Y33788D01*
X179772Y35477D01*
X180644Y36783D01*
X180742Y37018D01*
X180884Y37231D01*
X180961Y37418D01*
X181007Y37493D01*
X182670Y41507D01*
X182691Y41593D01*
X182768Y41780D01*
X182818Y42030D01*
X182916Y42266D01*
X183222Y43807D01*
X183684Y45732D01*
X183736Y46391D01*
X183876Y47096D01*
Y47351D01*
X183926Y47601D01*
Y48804D01*
X184025Y50064D01*
X183926Y51322D01*
Y52526D01*
X183876Y52776D01*
Y53031D01*
X183736Y53736D01*
X183684Y54395D01*
X183222Y56321D01*
X182916Y57861D01*
X182818Y58097D01*
X182768Y58347D01*
X182691Y58534D01*
X182670Y58620D01*
X181007Y62634D01*
X180961Y62709D01*
X180884Y62896D01*
X180742Y63109D01*
X180644Y63344D01*
X179772Y64650D01*
X178737Y66339D01*
X178308Y66842D01*
X177908Y67439D01*
X177728Y67619D01*
X177586Y67831D01*
X176736Y68682D01*
X175915Y69643D01*
X174955Y70463D01*
X174104Y71314D01*
X173892Y71455D01*
X173712Y71636D01*
X173114Y72035D01*
X172612Y72464D01*
X170923Y73499D01*
X169617Y74372D01*
X169382Y74469D01*
X169169Y74611D01*
X168982Y74689D01*
X168907Y74734D01*
X164893Y76397D01*
X164807Y76418D01*
X164620Y76495D01*
X164370Y76545D01*
X164134Y76643D01*
X162593Y76949D01*
X160668Y77411D01*
X160009Y77463D01*
X159304Y77604D01*
X159049D01*
X158799Y77653D01*
X157595D01*
X156336Y77752D01*
D02*
G37*
%LPD*%
G36*
X520601Y1542552D02*
Y1124788D01*
X422608Y1026796D01*
X266665D01*
X261544Y1031917D01*
X262644Y1034572D01*
X263279Y1037767D01*
Y1041025D01*
X262644Y1044221D01*
X261397Y1047231D01*
X259587Y1049940D01*
X257283Y1052243D01*
X254574Y1054054D01*
X251564Y1055301D01*
X248368Y1055936D01*
X245110D01*
X241915Y1055301D01*
X238905Y1054054D01*
X236196Y1052243D01*
X233892Y1049940D01*
X232082Y1047231D01*
X230835Y1044221D01*
X230199Y1041025D01*
Y1037767D01*
X230835Y1034572D01*
X232082Y1031562D01*
X233141Y1029975D01*
X232589Y1028759D01*
X232468Y1028697D01*
X229562Y1029900D01*
X226367Y1030536D01*
X223109D01*
X219913Y1029900D01*
X216903Y1028654D01*
X214194Y1026843D01*
X211891Y1024540D01*
X210080Y1021831D01*
X208834Y1018821D01*
X208198Y1015625D01*
Y1012367D01*
X208834Y1009172D01*
X210080Y1006161D01*
X211891Y1003452D01*
X214194Y1001149D01*
X216903Y999339D01*
X219913Y998092D01*
X223109Y997456D01*
X226367D01*
X229562Y998092D01*
X232468Y999295D01*
X232589Y999233D01*
X233141Y998017D01*
X232082Y996431D01*
X230835Y993420D01*
X230199Y990225D01*
Y986967D01*
X230835Y983771D01*
X232082Y980761D01*
X233141Y979175D01*
X232589Y977959D01*
X232468Y977897D01*
X229562Y979100D01*
X226367Y979736D01*
X223109D01*
X219913Y979100D01*
X216903Y977853D01*
X214194Y976043D01*
X211891Y973740D01*
X210080Y971031D01*
X208981Y968375D01*
X182980D01*
Y1302039D01*
X217414Y1336474D01*
X220070Y1335374D01*
X223265Y1334739D01*
X226523D01*
X229719Y1335374D01*
X232729Y1336621D01*
X235438Y1338431D01*
X237742Y1340735D01*
X239552Y1343444D01*
X240798Y1346454D01*
X241434Y1349650D01*
Y1352908D01*
X240798Y1356103D01*
X239552Y1359113D01*
X238492Y1360700D01*
X239044Y1361916D01*
X239165Y1361978D01*
X242071Y1360775D01*
X245266Y1360139D01*
X248524D01*
X251720Y1360775D01*
X254730Y1362021D01*
X257439Y1363831D01*
X259743Y1366135D01*
X261553Y1368844D01*
X262800Y1371854D01*
X263435Y1375050D01*
Y1378308D01*
X262800Y1381503D01*
X261700Y1384158D01*
X266821Y1389279D01*
X457199D01*
X459181Y1389674D01*
X460861Y1390797D01*
X516743Y1446678D01*
X517865Y1448358D01*
X518260Y1450340D01*
Y1542125D01*
X518539Y1542286D01*
X519330Y1543078D01*
X520601Y1542552D01*
D02*
G37*
G36*
X543461Y1109786D02*
Y783158D01*
X399015Y638713D01*
X266509D01*
X261388Y643834D01*
X262488Y646489D01*
X263123Y649684D01*
Y652942D01*
X262488Y656138D01*
X261241Y659148D01*
X259431Y661857D01*
X257127Y664161D01*
X254418Y665971D01*
X251408Y667218D01*
X248212Y667853D01*
X244954D01*
X241758Y667218D01*
X238748Y665971D01*
X236039Y664161D01*
X233736Y661857D01*
X231926Y659148D01*
X230679Y656138D01*
X230043Y652942D01*
Y649684D01*
X230679Y646489D01*
X231926Y643479D01*
X232985Y641892D01*
X232433Y640676D01*
X232312Y640614D01*
X229406Y641817D01*
X226211Y642453D01*
X222953D01*
X219757Y641817D01*
X216747Y640571D01*
X214038Y638761D01*
X211734Y636457D01*
X209924Y633748D01*
X208678Y630738D01*
X208042Y627542D01*
Y624284D01*
X208678Y621089D01*
X209924Y618078D01*
X211734Y615369D01*
X214038Y613066D01*
X216747Y611256D01*
X219757Y610009D01*
X222953Y609373D01*
X226211D01*
X229406Y610009D01*
X232312Y611212D01*
X232433Y611151D01*
X232985Y609934D01*
X231926Y608348D01*
X230679Y605338D01*
X230043Y602142D01*
Y598884D01*
X230679Y595689D01*
X231926Y592678D01*
X232985Y591092D01*
X232433Y589876D01*
X232312Y589814D01*
X229406Y591017D01*
X226211Y591653D01*
X222953D01*
X219757Y591017D01*
X216747Y589771D01*
X214038Y587961D01*
X211734Y585657D01*
X209924Y582948D01*
X208825Y580293D01*
X182980D01*
Y958016D01*
X208981D01*
X210080Y955361D01*
X211891Y952652D01*
X214194Y950349D01*
X216903Y948538D01*
X219913Y947292D01*
X223109Y946656D01*
X226367D01*
X229562Y947292D01*
X232573Y948538D01*
X235282Y950349D01*
X237585Y952652D01*
X239396Y955361D01*
X240642Y958371D01*
X241278Y961567D01*
Y964825D01*
X240642Y968020D01*
X239396Y971031D01*
X238336Y972617D01*
X238888Y973833D01*
X239009Y973895D01*
X241915Y972692D01*
X245110Y972056D01*
X248368D01*
X251564Y972692D01*
X254574Y973938D01*
X257283Y975749D01*
X259587Y978052D01*
X261397Y980761D01*
X262644Y983771D01*
X263279Y986967D01*
Y990225D01*
X262644Y993420D01*
X261544Y996076D01*
X266665Y1001197D01*
X431066D01*
X433048Y1001591D01*
X434729Y1002714D01*
X542287Y1110272D01*
X543461Y1109786D01*
D02*
G37*
G36*
X960305Y1327298D02*
X960305Y1327298D01*
X961985Y1326175D01*
X963967Y1325780D01*
X1093865D01*
X1132988Y1286658D01*
X1134668Y1285535D01*
X1136650Y1285141D01*
X1501193D01*
X1506015Y1280318D01*
X1504916Y1277663D01*
X1504280Y1274467D01*
Y1271209D01*
X1504916Y1268014D01*
X1506162Y1265004D01*
X1507973Y1262295D01*
X1510276Y1259991D01*
X1512985Y1258181D01*
X1515995Y1256934D01*
X1519191Y1256298D01*
X1522449D01*
X1525645Y1256934D01*
X1528655Y1258181D01*
X1531364Y1259991D01*
X1533667Y1262295D01*
X1535477Y1265004D01*
X1536724Y1268014D01*
X1537360Y1271209D01*
Y1274467D01*
X1536724Y1277663D01*
X1535477Y1280673D01*
X1535368Y1280836D01*
X1536157Y1281942D01*
X1538881Y1281400D01*
X1542139D01*
X1545334Y1282036D01*
X1548345Y1283282D01*
X1551054Y1285093D01*
X1553357Y1287396D01*
X1555168Y1290105D01*
X1556414Y1293115D01*
X1557050Y1296311D01*
Y1299569D01*
X1556414Y1302765D01*
X1555168Y1305775D01*
X1553357Y1308484D01*
X1551054Y1310787D01*
X1548345Y1312598D01*
X1545334Y1313844D01*
X1542139Y1314480D01*
X1538881D01*
X1535697Y1313847D01*
X1535667Y1313868D01*
X1534858Y1314876D01*
X1535477Y1315804D01*
X1536724Y1318814D01*
X1537360Y1322009D01*
Y1325267D01*
X1536724Y1328463D01*
X1535477Y1331473D01*
X1534418Y1333058D01*
X1534970Y1334276D01*
X1535091Y1334338D01*
X1537997Y1333134D01*
X1541192Y1332498D01*
X1544450D01*
X1547646Y1333134D01*
X1550656Y1334381D01*
X1553365Y1336191D01*
X1555668Y1338495D01*
X1557479Y1341204D01*
X1558578Y1343859D01*
X1569816D01*
X1592480Y1321195D01*
Y966135D01*
X1558422D01*
X1557323Y968790D01*
X1555512Y971499D01*
X1553209Y973803D01*
X1550500Y975613D01*
X1547489Y976860D01*
X1544294Y977495D01*
X1541036D01*
X1537840Y976860D01*
X1534830Y975613D01*
X1532121Y973803D01*
X1529818Y971499D01*
X1528007Y968790D01*
X1526761Y965780D01*
X1526125Y962585D01*
Y959326D01*
X1526761Y956131D01*
X1528007Y953121D01*
X1529067Y951535D01*
X1528515Y950318D01*
X1528394Y950256D01*
X1525488Y951460D01*
X1522293Y952095D01*
X1519035D01*
X1515839Y951460D01*
X1512829Y950213D01*
X1510120Y948403D01*
X1507816Y946099D01*
X1506006Y943390D01*
X1504759Y940380D01*
X1504124Y937185D01*
Y933926D01*
X1504759Y930731D01*
X1505859Y928076D01*
X1500738Y922955D01*
X1159513D01*
X1113605Y968863D01*
X1111925Y969985D01*
X1109943Y970379D01*
X969014D01*
X922120Y1017274D01*
Y1363824D01*
X923293Y1364310D01*
X960305Y1327298D01*
D02*
G37*
G36*
X956458Y946298D02*
X958138Y945175D01*
X960120Y944781D01*
X1101485D01*
X1147392Y898873D01*
X1149072Y897750D01*
X1151055Y897356D01*
X1500738D01*
X1505859Y892235D01*
X1504759Y889580D01*
X1504124Y886384D01*
Y883126D01*
X1504759Y879931D01*
X1506006Y876921D01*
X1507816Y874212D01*
X1510120Y871908D01*
X1512829Y870098D01*
X1515839Y868851D01*
X1519035Y868215D01*
X1522293D01*
X1525488Y868851D01*
X1528499Y870098D01*
X1531207Y871908D01*
X1533511Y874212D01*
X1535321Y876921D01*
X1536568Y879931D01*
X1537204Y883126D01*
Y886384D01*
X1536568Y889580D01*
X1535321Y892590D01*
X1534262Y894175D01*
X1534814Y895393D01*
X1534935Y895455D01*
X1537840Y894251D01*
X1541036Y893615D01*
X1544294D01*
X1547489Y894251D01*
X1550500Y895498D01*
X1553209Y897308D01*
X1555512Y899612D01*
X1557323Y902321D01*
X1558569Y905331D01*
X1559205Y908526D01*
Y911784D01*
X1558569Y914980D01*
X1557323Y917990D01*
X1555512Y920699D01*
X1553209Y923003D01*
X1550500Y924813D01*
X1547489Y926060D01*
X1544294Y926695D01*
X1541036D01*
X1537840Y926060D01*
X1534935Y924856D01*
X1534814Y924918D01*
X1534262Y926135D01*
X1535321Y927721D01*
X1536568Y930731D01*
X1537204Y933926D01*
Y937185D01*
X1536568Y940380D01*
X1535321Y943390D01*
X1534262Y944976D01*
X1534814Y946193D01*
X1534935Y946255D01*
X1537840Y945051D01*
X1541036Y944416D01*
X1544294D01*
X1547489Y945051D01*
X1550500Y946298D01*
X1553209Y948108D01*
X1555512Y950412D01*
X1557323Y953121D01*
X1558422Y955776D01*
X1592480D01*
Y578052D01*
X1558266D01*
X1557166Y580707D01*
X1555356Y583416D01*
X1553053Y585720D01*
X1550343Y587530D01*
X1547333Y588777D01*
X1544138Y589413D01*
X1540880D01*
X1537684Y588777D01*
X1534674Y587530D01*
X1531965Y585720D01*
X1529661Y583416D01*
X1527851Y580707D01*
X1526604Y577697D01*
X1525969Y574502D01*
Y571244D01*
X1526604Y568048D01*
X1527851Y565038D01*
X1528911Y563452D01*
X1528359Y562235D01*
X1528238Y562173D01*
X1525332Y563377D01*
X1522137Y564012D01*
X1518879D01*
X1515683Y563377D01*
X1512673Y562130D01*
X1509964Y560320D01*
X1507660Y558016D01*
X1505850Y555307D01*
X1504603Y552297D01*
X1503968Y549102D01*
Y545844D01*
X1504603Y542648D01*
X1505703Y539993D01*
X1500582Y534872D01*
X1362196D01*
X1361681Y534770D01*
X1213072D01*
X1172679Y575163D01*
X1170998Y576285D01*
X1169016Y576679D01*
X973695D01*
X899259Y651115D01*
Y1001836D01*
X900433Y1002322D01*
X956458Y946298D01*
D02*
G37*
%LPC*%
G36*
X323617Y1354074D02*
X321543D01*
X319541Y1353537D01*
X317955Y1352622D01*
X322580Y1347996D01*
X327206Y1352622D01*
X325619Y1353537D01*
X323617Y1354074D01*
D02*
G37*
G36*
X329002Y1350826D02*
X324376Y1346200D01*
X329002Y1341575D01*
X329917Y1343161D01*
X330454Y1345163D01*
Y1347237D01*
X329917Y1349239D01*
X329002Y1350826D01*
D02*
G37*
G36*
X316158Y1350826D02*
X315243Y1349239D01*
X314706Y1347237D01*
Y1345163D01*
X315243Y1343161D01*
X316158Y1341575D01*
X320784Y1346200D01*
X316158Y1350826D01*
D02*
G37*
G36*
X322580Y1344404D02*
X317955Y1339778D01*
X319541Y1338863D01*
X321543Y1338326D01*
X323617D01*
X325619Y1338863D01*
X327206Y1339778D01*
X322580Y1344404D01*
D02*
G37*
G36*
X248924Y1341403D02*
X245866D01*
X242867Y1340806D01*
X240042Y1339636D01*
X237499Y1337937D01*
X237316Y1337754D01*
X247395Y1327675D01*
X257474Y1337754D01*
X257291Y1337937D01*
X254749Y1339636D01*
X251923Y1340806D01*
X248924Y1341403D01*
D02*
G37*
G36*
X235520Y1335958D02*
X235337Y1335775D01*
X233638Y1333232D01*
X232468Y1330407D01*
X231871Y1327408D01*
Y1324350D01*
X232468Y1321351D01*
X233638Y1318525D01*
X235337Y1315983D01*
X235520Y1315800D01*
X245599Y1325879D01*
X235520Y1335958D01*
D02*
G37*
G36*
X259270D02*
X249191Y1325879D01*
X259270Y1315800D01*
X259454Y1315983D01*
X261152Y1318525D01*
X262323Y1321351D01*
X262919Y1324350D01*
Y1327408D01*
X262323Y1330407D01*
X261152Y1333232D01*
X259454Y1335775D01*
X259270Y1335958D01*
D02*
G37*
G36*
X247395Y1324083D02*
X237316Y1314004D01*
X237499Y1313820D01*
X240042Y1312122D01*
X242867Y1310951D01*
X245866Y1310355D01*
X248924D01*
X251923Y1310951D01*
X254749Y1312122D01*
X257291Y1313820D01*
X257474Y1314004D01*
X247395Y1324083D01*
D02*
G37*
G36*
X491988Y1339309D02*
X488730D01*
X485535Y1338674D01*
X482525Y1337427D01*
X479816Y1335617D01*
X477512Y1333313D01*
X475702Y1330604D01*
X474455Y1327594D01*
X473819Y1324398D01*
Y1321140D01*
X474455Y1317945D01*
X475702Y1314935D01*
X477512Y1312226D01*
X479816Y1309922D01*
X482525Y1308112D01*
X485535Y1306865D01*
X488730Y1306229D01*
X491988D01*
X495184Y1306865D01*
X498194Y1308112D01*
X500903Y1309922D01*
X503207Y1312226D01*
X505017Y1314935D01*
X506264Y1317945D01*
X506899Y1321140D01*
Y1324398D01*
X506264Y1327594D01*
X505017Y1330604D01*
X503207Y1333313D01*
X500903Y1335617D01*
X498194Y1337427D01*
X495184Y1338674D01*
X491988Y1339309D01*
D02*
G37*
G36*
X226777Y1317019D02*
X223519D01*
X220324Y1316383D01*
X217313Y1315136D01*
X214604Y1313326D01*
X212301Y1311022D01*
X210490Y1308313D01*
X209244Y1305303D01*
X208608Y1302108D01*
Y1298850D01*
X209244Y1295654D01*
X210490Y1292644D01*
X212301Y1289935D01*
X214604Y1287631D01*
X217313Y1285821D01*
X220324Y1284574D01*
X223519Y1283939D01*
X226777D01*
X229973Y1284574D01*
X232983Y1285821D01*
X235692Y1287631D01*
X237995Y1289935D01*
X239806Y1292644D01*
X241052Y1295654D01*
X241688Y1298850D01*
Y1302108D01*
X241052Y1305303D01*
X239806Y1308313D01*
X237995Y1311022D01*
X235692Y1313326D01*
X232983Y1315136D01*
X229973Y1316383D01*
X226777Y1317019D01*
D02*
G37*
G36*
X357907Y1265174D02*
X355833D01*
X353831Y1264637D01*
X352244Y1263722D01*
X356870Y1259096D01*
X361496Y1263722D01*
X359909Y1264637D01*
X357907Y1265174D01*
D02*
G37*
G36*
X363292Y1261926D02*
X358666Y1257300D01*
X363292Y1252674D01*
X364207Y1254261D01*
X364744Y1256263D01*
Y1258337D01*
X364207Y1260339D01*
X363292Y1261926D01*
D02*
G37*
G36*
X350448Y1261926D02*
X349533Y1260339D01*
X348996Y1258337D01*
Y1256263D01*
X349533Y1254261D01*
X350448Y1252674D01*
X355074Y1257300D01*
X350448Y1261926D01*
D02*
G37*
G36*
X356870Y1255504D02*
X352244Y1250878D01*
X353831Y1249963D01*
X355833Y1249426D01*
X357907D01*
X359909Y1249963D01*
X361496Y1250878D01*
X356870Y1255504D01*
D02*
G37*
G36*
X333777Y1216914D02*
X331703D01*
X329701Y1216377D01*
X328115Y1215462D01*
X332740Y1210836D01*
X337365Y1215462D01*
X335779Y1216377D01*
X333777Y1216914D01*
D02*
G37*
G36*
X339162Y1213665D02*
X334536Y1209040D01*
X339162Y1204415D01*
X340077Y1206001D01*
X340614Y1208003D01*
Y1210077D01*
X340077Y1212079D01*
X339162Y1213665D01*
D02*
G37*
G36*
X326318Y1213665D02*
X325403Y1212079D01*
X324866Y1210077D01*
Y1208003D01*
X325403Y1206001D01*
X326318Y1204415D01*
X330944Y1209040D01*
X326318Y1213665D01*
D02*
G37*
G36*
X332740Y1207244D02*
X328115Y1202618D01*
X329701Y1201703D01*
X331703Y1201166D01*
X333777D01*
X335779Y1201703D01*
X337365Y1202618D01*
X332740Y1207244D01*
D02*
G37*
G36*
X492527Y1202944D02*
X490453D01*
X488451Y1202407D01*
X486865Y1201492D01*
X491490Y1196866D01*
X496115Y1201492D01*
X494529Y1202407D01*
X492527Y1202944D01*
D02*
G37*
G36*
X497912Y1199696D02*
X493286Y1195070D01*
X497912Y1190444D01*
X498827Y1192031D01*
X499364Y1194033D01*
Y1196107D01*
X498827Y1198109D01*
X497912Y1199696D01*
D02*
G37*
G36*
X485068Y1199696D02*
X484153Y1198109D01*
X483616Y1196107D01*
Y1194033D01*
X484153Y1192031D01*
X485068Y1190444D01*
X489694Y1195070D01*
X485068Y1199696D01*
D02*
G37*
G36*
X491490Y1193274D02*
X486865Y1188648D01*
X488451Y1187733D01*
X490453Y1187196D01*
X492527D01*
X494529Y1187733D01*
X496115Y1188648D01*
X491490Y1193274D01*
D02*
G37*
G36*
X284247Y1159764D02*
X282173D01*
X280171Y1159227D01*
X278584Y1158312D01*
X283210Y1153686D01*
X287836Y1158312D01*
X286249Y1159227D01*
X284247Y1159764D01*
D02*
G37*
G36*
X289632Y1156516D02*
X285006Y1151890D01*
X289632Y1147264D01*
X290547Y1148851D01*
X291084Y1150853D01*
Y1152927D01*
X290547Y1154929D01*
X289632Y1156516D01*
D02*
G37*
G36*
X276788Y1156516D02*
X275873Y1154929D01*
X275336Y1152927D01*
Y1150853D01*
X275873Y1148851D01*
X276788Y1147264D01*
X281414Y1151890D01*
X276788Y1156516D01*
D02*
G37*
G36*
X283210Y1150094D02*
X278584Y1145468D01*
X280171Y1144553D01*
X282173Y1144016D01*
X284247D01*
X286249Y1144553D01*
X287836Y1145468D01*
X283210Y1150094D01*
D02*
G37*
G36*
X248768Y953320D02*
X245710D01*
X242711Y952723D01*
X239886Y951553D01*
X237343Y949854D01*
X237160Y949671D01*
X247239Y939592D01*
X257318Y949671D01*
X257135Y949854D01*
X254592Y951553D01*
X251767Y952723D01*
X248768Y953320D01*
D02*
G37*
G36*
X235364Y947875D02*
X235181Y947692D01*
X233482Y945149D01*
X232312Y942324D01*
X231715Y939325D01*
Y936267D01*
X232312Y933268D01*
X233482Y930443D01*
X235181Y927900D01*
X235364Y927717D01*
X245443Y937796D01*
X235364Y947875D01*
D02*
G37*
G36*
X259114Y947875D02*
X249035Y937796D01*
X259114Y927717D01*
X259297Y927900D01*
X260996Y930443D01*
X262167Y933268D01*
X262763Y936267D01*
Y939325D01*
X262167Y942324D01*
X260996Y945149D01*
X259297Y947692D01*
X259114Y947875D01*
D02*
G37*
G36*
X247239Y936000D02*
X237160Y925921D01*
X237343Y925738D01*
X239886Y924039D01*
X242711Y922868D01*
X245710Y922272D01*
X248768D01*
X251767Y922868D01*
X254592Y924039D01*
X257135Y925738D01*
X257318Y925921D01*
X247239Y936000D01*
D02*
G37*
G36*
X491832Y951226D02*
X488574D01*
X485379Y950591D01*
X482369Y949344D01*
X479660Y947534D01*
X477356Y945230D01*
X475546Y942521D01*
X474299Y939511D01*
X473663Y936316D01*
Y933057D01*
X474299Y929862D01*
X475546Y926852D01*
X477356Y924143D01*
X479660Y921839D01*
X482369Y920029D01*
X485379Y918782D01*
X488574Y918146D01*
X491832D01*
X495028Y918782D01*
X498038Y920029D01*
X500747Y921839D01*
X503051Y924143D01*
X504861Y926852D01*
X506108Y929862D01*
X506743Y933057D01*
Y936316D01*
X506108Y939511D01*
X504861Y942521D01*
X503051Y945230D01*
X500747Y947534D01*
X498038Y949344D01*
X495028Y950591D01*
X491832Y951226D01*
D02*
G37*
G36*
X226621Y928936D02*
X223363D01*
X220167Y928300D01*
X217157Y927053D01*
X214448Y925243D01*
X212145Y922940D01*
X210334Y920230D01*
X209088Y917220D01*
X208452Y914025D01*
Y910767D01*
X209088Y907571D01*
X210334Y904561D01*
X212145Y901852D01*
X214448Y899548D01*
X217157Y897738D01*
X220167Y896491D01*
X223363Y895856D01*
X226621D01*
X229816Y896491D01*
X232827Y897738D01*
X235536Y899548D01*
X237839Y901852D01*
X239650Y904561D01*
X240896Y907571D01*
X241532Y910767D01*
Y914025D01*
X240896Y917220D01*
X239650Y920230D01*
X237839Y922940D01*
X235536Y925243D01*
X232827Y927053D01*
X229816Y928300D01*
X226621Y928936D01*
D02*
G37*
G36*
X318537Y872744D02*
X316463D01*
X314461Y872207D01*
X312875Y871292D01*
X317500Y866666D01*
X322126Y871292D01*
X320539Y872207D01*
X318537Y872744D01*
D02*
G37*
G36*
X323922Y869495D02*
X319296Y864870D01*
X323922Y860245D01*
X324837Y861831D01*
X325374Y863833D01*
Y865907D01*
X324837Y867909D01*
X323922Y869495D01*
D02*
G37*
G36*
X311078Y869495D02*
X310163Y867909D01*
X309626Y865907D01*
Y863833D01*
X310163Y861831D01*
X311078Y860245D01*
X315704Y864870D01*
X311078Y869495D01*
D02*
G37*
G36*
X317500Y863074D02*
X312875Y858448D01*
X314461Y857533D01*
X316463Y856996D01*
X318537D01*
X320539Y857533D01*
X322126Y858448D01*
X317500Y863074D01*
D02*
G37*
G36*
X435377Y839724D02*
X433303D01*
X431301Y839187D01*
X429715Y838272D01*
X434340Y833646D01*
X438965Y838272D01*
X437379Y839187D01*
X435377Y839724D01*
D02*
G37*
G36*
X440762Y836476D02*
X436136Y831850D01*
X440762Y827225D01*
X441677Y828811D01*
X442214Y830813D01*
Y832887D01*
X441677Y834889D01*
X440762Y836476D01*
D02*
G37*
G36*
X427918Y836476D02*
X427003Y834889D01*
X426466Y832887D01*
Y830813D01*
X427003Y828811D01*
X427918Y827225D01*
X432544Y831850D01*
X427918Y836476D01*
D02*
G37*
G36*
X434340Y830054D02*
X429715Y825428D01*
X431301Y824513D01*
X433303Y823976D01*
X435377D01*
X437379Y824513D01*
X438965Y825428D01*
X434340Y830054D01*
D02*
G37*
G36*
X445537Y787654D02*
X443463D01*
X441461Y787117D01*
X439874Y786202D01*
X444500Y781576D01*
X449126Y786202D01*
X447539Y787117D01*
X445537Y787654D01*
D02*
G37*
G36*
X450922Y784406D02*
X446296Y779780D01*
X450922Y775154D01*
X451837Y776741D01*
X452374Y778743D01*
Y780817D01*
X451837Y782819D01*
X450922Y784406D01*
D02*
G37*
G36*
X438078Y784406D02*
X437163Y782819D01*
X436626Y780817D01*
Y778743D01*
X437163Y776741D01*
X438078Y775154D01*
X442704Y779780D01*
X438078Y784406D01*
D02*
G37*
G36*
X444500Y777984D02*
X439874Y773358D01*
X441461Y772443D01*
X443463Y771906D01*
X445537D01*
X447539Y772443D01*
X449126Y773358D01*
X444500Y777984D01*
D02*
G37*
G36*
X249957Y777494D02*
X247883D01*
X245881Y776957D01*
X244294Y776042D01*
X248920Y771416D01*
X253545Y776042D01*
X251959Y776957D01*
X249957Y777494D01*
D02*
G37*
G36*
X255342Y774246D02*
X250716Y769620D01*
X255342Y764995D01*
X256257Y766581D01*
X256794Y768583D01*
Y770657D01*
X256257Y772659D01*
X255342Y774246D01*
D02*
G37*
G36*
X242498Y774246D02*
X241583Y772659D01*
X241046Y770657D01*
Y768583D01*
X241583Y766581D01*
X242498Y764995D01*
X247124Y769620D01*
X242498Y774246D01*
D02*
G37*
G36*
X248920Y767824D02*
X244294Y763198D01*
X245881Y762283D01*
X247883Y761746D01*
X249957D01*
X251959Y762283D01*
X253545Y763198D01*
X248920Y767824D01*
D02*
G37*
G36*
X286787Y719074D02*
X284713D01*
X282711Y718537D01*
X281124Y717622D01*
X285750Y712996D01*
X290375Y717622D01*
X288789Y718537D01*
X286787Y719074D01*
D02*
G37*
G36*
X292172Y715826D02*
X287546Y711200D01*
X292172Y706574D01*
X293087Y708161D01*
X293624Y710163D01*
Y712237D01*
X293087Y714239D01*
X292172Y715826D01*
D02*
G37*
G36*
X279328Y715826D02*
X278413Y714239D01*
X277876Y712237D01*
Y710163D01*
X278413Y708161D01*
X279328Y706574D01*
X283954Y711200D01*
X279328Y715826D01*
D02*
G37*
G36*
X285750Y709404D02*
X281124Y704778D01*
X282711Y703863D01*
X284713Y703326D01*
X286787D01*
X288789Y703863D01*
X290375Y704778D01*
X285750Y709404D01*
D02*
G37*
G36*
X1046880Y1309609D02*
X1043622D01*
X1040427Y1308973D01*
X1037417Y1307726D01*
X1034708Y1305916D01*
X1032404Y1303612D01*
X1030594Y1300903D01*
X1029347Y1297893D01*
X1028711Y1294698D01*
Y1291440D01*
X1029347Y1288244D01*
X1030594Y1285234D01*
X1032404Y1282525D01*
X1034708Y1280221D01*
X1037417Y1278411D01*
X1040427Y1277164D01*
X1043622Y1276529D01*
X1046880D01*
X1050076Y1277164D01*
X1053086Y1278411D01*
X1055795Y1280221D01*
X1058099Y1282525D01*
X1059909Y1285234D01*
X1061156Y1288244D01*
X1061791Y1291440D01*
Y1294698D01*
X1061156Y1297893D01*
X1059909Y1300903D01*
X1058099Y1303612D01*
X1055795Y1305916D01*
X1053086Y1307726D01*
X1050076Y1308973D01*
X1046880Y1309609D01*
D02*
G37*
G36*
X1014497Y1247394D02*
X1012423D01*
X1010421Y1246857D01*
X1008835Y1245942D01*
X1013460Y1241316D01*
X1018085Y1245942D01*
X1016499Y1246857D01*
X1014497Y1247394D01*
D02*
G37*
G36*
X1019882Y1244146D02*
X1015256Y1239520D01*
X1019882Y1234894D01*
X1020797Y1236481D01*
X1021334Y1238483D01*
Y1240557D01*
X1020797Y1242559D01*
X1019882Y1244146D01*
D02*
G37*
G36*
X1007038Y1244146D02*
X1006123Y1242559D01*
X1005586Y1240557D01*
Y1238483D01*
X1006123Y1236481D01*
X1007038Y1234894D01*
X1011664Y1239520D01*
X1007038Y1244146D01*
D02*
G37*
G36*
X1013460Y1237724D02*
X1008835Y1233098D01*
X1010421Y1232183D01*
X1012423Y1231646D01*
X1014497D01*
X1016499Y1232183D01*
X1018085Y1233098D01*
X1013460Y1237724D01*
D02*
G37*
G36*
X1533927Y1218184D02*
X1531853D01*
X1529851Y1217647D01*
X1528264Y1216732D01*
X1532890Y1212106D01*
X1537516Y1216732D01*
X1535929Y1217647D01*
X1533927Y1218184D01*
D02*
G37*
G36*
X1539312Y1214936D02*
X1534686Y1210310D01*
X1539312Y1205685D01*
X1540227Y1207271D01*
X1540764Y1209273D01*
Y1211347D01*
X1540227Y1213349D01*
X1539312Y1214936D01*
D02*
G37*
G36*
X1526468Y1214936D02*
X1525553Y1213349D01*
X1525016Y1211347D01*
Y1209273D01*
X1525553Y1207271D01*
X1526468Y1205685D01*
X1531094Y1210310D01*
X1526468Y1214936D01*
D02*
G37*
G36*
X1532890Y1208514D02*
X1528264Y1203888D01*
X1529851Y1202973D01*
X1531853Y1202436D01*
X1533927D01*
X1535929Y1202973D01*
X1537516Y1203888D01*
X1532890Y1208514D01*
D02*
G37*
G36*
X1141487Y1230224D02*
X1138229D01*
X1135033Y1229589D01*
X1132023Y1228342D01*
X1129314Y1226532D01*
X1127010Y1224228D01*
X1125200Y1221519D01*
X1123954Y1218509D01*
X1123318Y1215313D01*
Y1212055D01*
X1123954Y1208860D01*
X1125200Y1205850D01*
X1127010Y1203141D01*
X1129314Y1200837D01*
X1132023Y1199027D01*
X1135033Y1197780D01*
X1138229Y1197144D01*
X1141487D01*
X1144682Y1197780D01*
X1147693Y1199027D01*
X1150402Y1200837D01*
X1152705Y1203141D01*
X1154516Y1205850D01*
X1155762Y1208860D01*
X1156398Y1212055D01*
Y1215313D01*
X1155762Y1218509D01*
X1154516Y1221519D01*
X1152705Y1224228D01*
X1150402Y1226532D01*
X1147693Y1228342D01*
X1144682Y1229589D01*
X1141487Y1230224D01*
D02*
G37*
G36*
X1386607Y1178814D02*
X1384533D01*
X1382531Y1178277D01*
X1380945Y1177362D01*
X1385570Y1172736D01*
X1390195Y1177362D01*
X1388609Y1178277D01*
X1386607Y1178814D01*
D02*
G37*
G36*
X1391992Y1175565D02*
X1387366Y1170940D01*
X1391992Y1166314D01*
X1392907Y1167901D01*
X1393444Y1169903D01*
Y1171977D01*
X1392907Y1173979D01*
X1391992Y1175565D01*
D02*
G37*
G36*
X1379148Y1175565D02*
X1378233Y1173979D01*
X1377696Y1171977D01*
Y1169903D01*
X1378233Y1167901D01*
X1379148Y1166314D01*
X1383774Y1170940D01*
X1379148Y1175565D01*
D02*
G37*
G36*
X1385570Y1169144D02*
X1380945Y1164518D01*
X1382531Y1163603D01*
X1384533Y1163066D01*
X1386607D01*
X1388609Y1163603D01*
X1390195Y1164518D01*
X1385570Y1169144D01*
D02*
G37*
G36*
X1188487Y1138174D02*
X1186413D01*
X1184411Y1137637D01*
X1182824Y1136722D01*
X1187450Y1132096D01*
X1192076Y1136722D01*
X1190489Y1137637D01*
X1188487Y1138174D01*
D02*
G37*
G36*
X1193872Y1134926D02*
X1189246Y1130300D01*
X1193872Y1125675D01*
X1194787Y1127261D01*
X1195324Y1129263D01*
Y1131337D01*
X1194787Y1133339D01*
X1193872Y1134926D01*
D02*
G37*
G36*
X1181028Y1134926D02*
X1180113Y1133339D01*
X1179576Y1131337D01*
Y1129263D01*
X1180113Y1127261D01*
X1181028Y1125675D01*
X1185654Y1130300D01*
X1181028Y1134926D01*
D02*
G37*
G36*
X1187450Y1128504D02*
X1182824Y1123878D01*
X1184411Y1122963D01*
X1186413Y1122426D01*
X1188487D01*
X1190489Y1122963D01*
X1192076Y1123878D01*
X1187450Y1128504D01*
D02*
G37*
G36*
X1551707Y1115314D02*
X1549633D01*
X1547631Y1114777D01*
X1546044Y1113862D01*
X1550670Y1109236D01*
X1555296Y1113862D01*
X1553709Y1114777D01*
X1551707Y1115314D01*
D02*
G37*
G36*
X1557092Y1112066D02*
X1552466Y1107440D01*
X1557092Y1102814D01*
X1558007Y1104401D01*
X1558544Y1106403D01*
Y1108477D01*
X1558007Y1110479D01*
X1557092Y1112066D01*
D02*
G37*
G36*
X1544248Y1112066D02*
X1543333Y1110479D01*
X1542796Y1108477D01*
Y1106403D01*
X1543333Y1104401D01*
X1544248Y1102814D01*
X1548874Y1107440D01*
X1544248Y1112066D01*
D02*
G37*
G36*
X1550670Y1105644D02*
X1546044Y1101018D01*
X1547631Y1100103D01*
X1549633Y1099566D01*
X1551707D01*
X1553709Y1100103D01*
X1555296Y1101018D01*
X1550670Y1105644D01*
D02*
G37*
G36*
X1068170Y1043150D02*
X1064912D01*
X1061716Y1042514D01*
X1058706Y1041267D01*
X1055997Y1039457D01*
X1053693Y1037153D01*
X1051883Y1034445D01*
X1050636Y1031434D01*
X1050001Y1028239D01*
Y1024981D01*
X1050636Y1021785D01*
X1051883Y1018775D01*
X1053693Y1016066D01*
X1055997Y1013762D01*
X1058706Y1011952D01*
X1061716Y1010705D01*
X1064912Y1010070D01*
X1068170D01*
X1071365Y1010705D01*
X1074375Y1011952D01*
X1077084Y1013762D01*
X1079388Y1016066D01*
X1081198Y1018775D01*
X1082445Y1021785D01*
X1083081Y1024981D01*
Y1028239D01*
X1082445Y1031434D01*
X1081198Y1034445D01*
X1079388Y1037153D01*
X1077084Y1039457D01*
X1074375Y1041267D01*
X1071365Y1042514D01*
X1068170Y1043150D01*
D02*
G37*
G36*
X1544040Y1028296D02*
X1540782D01*
X1537586Y1027660D01*
X1534576Y1026413D01*
X1531867Y1024603D01*
X1529563Y1022299D01*
X1527753Y1019590D01*
X1526507Y1016580D01*
X1525871Y1013385D01*
Y1010126D01*
X1526507Y1006931D01*
X1527753Y1003921D01*
X1529563Y1001212D01*
X1531867Y998908D01*
X1534576Y997098D01*
X1537586Y995851D01*
X1540782Y995216D01*
X1544040D01*
X1547236Y995851D01*
X1550246Y997098D01*
X1552955Y998908D01*
X1555258Y1001212D01*
X1557068Y1003921D01*
X1558315Y1006931D01*
X1558951Y1010126D01*
Y1013385D01*
X1558315Y1016580D01*
X1557068Y1019590D01*
X1555258Y1022299D01*
X1552955Y1024603D01*
X1550246Y1026413D01*
X1547236Y1027660D01*
X1544040Y1028296D01*
D02*
G37*
G36*
X1521693Y1001880D02*
X1518635D01*
X1515636Y1001283D01*
X1512810Y1000113D01*
X1510268Y998414D01*
X1510085Y998231D01*
X1520164Y988152D01*
X1530243Y998231D01*
X1530060Y998414D01*
X1527517Y1000113D01*
X1524692Y1001283D01*
X1521693Y1001880D01*
D02*
G37*
G36*
X1532039Y996435D02*
X1521960Y986356D01*
X1532039Y976276D01*
X1532222Y976460D01*
X1533921Y979002D01*
X1535091Y981827D01*
X1535688Y984827D01*
Y987885D01*
X1535091Y990884D01*
X1533921Y993709D01*
X1532222Y996252D01*
X1532039Y996435D01*
D02*
G37*
G36*
X1508289Y996435D02*
X1508105Y996252D01*
X1506407Y993709D01*
X1505236Y990884D01*
X1504640Y987885D01*
Y984827D01*
X1505236Y981827D01*
X1506407Y979002D01*
X1508105Y976460D01*
X1508289Y976276D01*
X1518368Y986356D01*
X1508289Y996435D01*
D02*
G37*
G36*
X1278829Y1006005D02*
X1275571D01*
X1272375Y1005369D01*
X1269365Y1004123D01*
X1266656Y1002312D01*
X1264352Y1000009D01*
X1262542Y997300D01*
X1261295Y994290D01*
X1260660Y991094D01*
Y987836D01*
X1261295Y984641D01*
X1262542Y981630D01*
X1264352Y978921D01*
X1266656Y976618D01*
X1269365Y974808D01*
X1272375Y973561D01*
X1275571Y972925D01*
X1278829D01*
X1282024Y973561D01*
X1285034Y974808D01*
X1287743Y976618D01*
X1290047Y978921D01*
X1291857Y981630D01*
X1293104Y984641D01*
X1293740Y987836D01*
Y991094D01*
X1293104Y994290D01*
X1291857Y997300D01*
X1290047Y1000009D01*
X1287743Y1002312D01*
X1285034Y1004123D01*
X1282024Y1005369D01*
X1278829Y1006005D01*
D02*
G37*
G36*
X1520164Y984559D02*
X1510085Y974480D01*
X1510268Y974297D01*
X1512810Y972598D01*
X1515636Y971428D01*
X1518635Y970832D01*
X1521693D01*
X1524692Y971428D01*
X1527517Y972598D01*
X1530060Y974297D01*
X1530243Y974480D01*
X1520164Y984559D01*
D02*
G37*
G36*
X1046724Y921526D02*
X1043466D01*
X1040271Y920890D01*
X1037261Y919643D01*
X1034552Y917833D01*
X1032248Y915529D01*
X1030438Y912821D01*
X1029191Y909810D01*
X1028555Y906615D01*
Y903357D01*
X1029191Y900161D01*
X1030438Y897151D01*
X1032248Y894442D01*
X1034552Y892138D01*
X1037261Y890328D01*
X1040271Y889081D01*
X1043466Y888446D01*
X1046724D01*
X1049920Y889081D01*
X1052930Y890328D01*
X1055639Y892138D01*
X1057943Y894442D01*
X1059753Y897151D01*
X1061000Y900161D01*
X1061635Y903357D01*
Y906615D01*
X1061000Y909810D01*
X1059753Y912821D01*
X1057943Y915529D01*
X1055639Y917833D01*
X1052930Y919643D01*
X1049920Y920890D01*
X1046724Y921526D01*
D02*
G37*
G36*
X959887Y863854D02*
X957813D01*
X955811Y863317D01*
X954224Y862402D01*
X958850Y857776D01*
X963475Y862402D01*
X961889Y863317D01*
X959887Y863854D01*
D02*
G37*
G36*
X965272Y860605D02*
X960646Y855980D01*
X965272Y851355D01*
X966187Y852941D01*
X966724Y854943D01*
Y857017D01*
X966187Y859019D01*
X965272Y860605D01*
D02*
G37*
G36*
X952428Y860605D02*
X951513Y859019D01*
X950976Y857017D01*
Y854943D01*
X951513Y852941D01*
X952428Y851355D01*
X957054Y855980D01*
X952428Y860605D01*
D02*
G37*
G36*
X958850Y854184D02*
X954224Y849558D01*
X955811Y848643D01*
X957813Y848106D01*
X959887D01*
X961889Y848643D01*
X963475Y849558D01*
X958850Y854184D01*
D02*
G37*
G36*
X1453917Y816864D02*
X1451843D01*
X1449841Y816327D01*
X1448255Y815412D01*
X1452880Y810786D01*
X1457505Y815412D01*
X1455919Y816327D01*
X1453917Y816864D01*
D02*
G37*
G36*
X1141331Y842141D02*
X1138073D01*
X1134877Y841506D01*
X1131867Y840259D01*
X1129158Y838449D01*
X1126854Y836145D01*
X1125044Y833436D01*
X1123798Y830426D01*
X1123162Y827231D01*
Y823972D01*
X1123798Y820777D01*
X1125044Y817767D01*
X1126854Y815058D01*
X1129158Y812754D01*
X1131867Y810944D01*
X1134877Y809697D01*
X1138073Y809062D01*
X1141331D01*
X1144526Y809697D01*
X1147536Y810944D01*
X1150246Y812754D01*
X1152549Y815058D01*
X1154359Y817767D01*
X1155606Y820777D01*
X1156242Y823972D01*
Y827231D01*
X1155606Y830426D01*
X1154359Y833436D01*
X1152549Y836145D01*
X1150246Y838449D01*
X1147536Y840259D01*
X1144526Y841506D01*
X1141331Y842141D01*
D02*
G37*
G36*
X1459302Y813615D02*
X1454676Y808990D01*
X1459302Y804364D01*
X1460217Y805951D01*
X1460754Y807953D01*
Y810027D01*
X1460217Y812029D01*
X1459302Y813615D01*
D02*
G37*
G36*
X1446458Y813615D02*
X1445543Y812029D01*
X1445006Y810027D01*
Y807953D01*
X1445543Y805951D01*
X1446458Y804364D01*
X1451084Y808990D01*
X1446458Y813615D01*
D02*
G37*
G36*
X1452880Y807194D02*
X1448255Y802568D01*
X1449841Y801653D01*
X1451843Y801116D01*
X1453917D01*
X1455919Y801653D01*
X1457505Y802568D01*
X1452880Y807194D01*
D02*
G37*
G36*
X1113557Y772414D02*
X1111483D01*
X1109481Y771877D01*
X1107895Y770962D01*
X1112520Y766336D01*
X1117145Y770962D01*
X1115559Y771877D01*
X1113557Y772414D01*
D02*
G37*
G36*
X1118942Y769165D02*
X1114316Y764540D01*
X1118942Y759914D01*
X1119857Y761501D01*
X1120394Y763503D01*
Y765577D01*
X1119857Y767579D01*
X1118942Y769165D01*
D02*
G37*
G36*
X1106098Y769165D02*
X1105183Y767579D01*
X1104646Y765577D01*
Y763503D01*
X1105183Y761501D01*
X1106098Y759914D01*
X1110724Y764540D01*
X1106098Y769165D01*
D02*
G37*
G36*
X1112520Y762744D02*
X1107895Y758118D01*
X1109481Y757203D01*
X1111483Y756666D01*
X1113557D01*
X1115559Y757203D01*
X1117145Y758118D01*
X1112520Y762744D01*
D02*
G37*
G36*
X1238017Y743204D02*
X1235943D01*
X1233941Y742667D01*
X1232355Y741752D01*
X1236980Y737126D01*
X1241606Y741752D01*
X1240019Y742667D01*
X1238017Y743204D01*
D02*
G37*
G36*
X1243402Y739956D02*
X1238776Y735330D01*
X1243402Y730704D01*
X1244317Y732291D01*
X1244854Y734293D01*
Y736367D01*
X1244317Y738369D01*
X1243402Y739956D01*
D02*
G37*
G36*
X1230558Y739956D02*
X1229643Y738369D01*
X1229106Y736367D01*
Y734293D01*
X1229643Y732291D01*
X1230558Y730704D01*
X1235184Y735330D01*
X1230558Y739956D01*
D02*
G37*
G36*
X1236980Y733534D02*
X1232355Y728908D01*
X1233941Y727993D01*
X1235943Y727456D01*
X1238017D01*
X1240019Y727993D01*
X1241606Y728908D01*
X1236980Y733534D01*
D02*
G37*
G36*
X1541547Y721614D02*
X1539473D01*
X1537471Y721077D01*
X1535885Y720162D01*
X1540510Y715536D01*
X1545135Y720162D01*
X1543549Y721077D01*
X1541547Y721614D01*
D02*
G37*
G36*
X1546932Y718365D02*
X1542306Y713740D01*
X1546932Y709115D01*
X1547847Y710701D01*
X1548384Y712703D01*
Y714777D01*
X1547847Y716779D01*
X1546932Y718365D01*
D02*
G37*
G36*
X1534088Y718365D02*
X1533173Y716779D01*
X1532636Y714777D01*
Y712703D01*
X1533173Y710701D01*
X1534088Y709115D01*
X1538714Y713740D01*
X1534088Y718365D01*
D02*
G37*
G36*
X1540510Y711944D02*
X1535885Y707318D01*
X1537471Y706403D01*
X1539473Y705866D01*
X1541547D01*
X1543549Y706403D01*
X1545135Y707318D01*
X1540510Y711944D01*
D02*
G37*
G36*
X1068014Y655067D02*
X1064756D01*
X1061560Y654431D01*
X1058550Y653185D01*
X1055841Y651374D01*
X1053537Y649071D01*
X1051727Y646362D01*
X1050480Y643352D01*
X1049845Y640156D01*
Y636898D01*
X1050480Y633702D01*
X1051727Y630692D01*
X1053537Y627983D01*
X1055841Y625680D01*
X1058550Y623869D01*
X1061560Y622623D01*
X1064756Y621987D01*
X1068014D01*
X1071209Y622623D01*
X1074219Y623869D01*
X1076928Y625680D01*
X1079232Y627983D01*
X1081042Y630692D01*
X1082289Y633702D01*
X1082925Y636898D01*
Y640156D01*
X1082289Y643352D01*
X1081042Y646362D01*
X1079232Y649071D01*
X1076928Y651374D01*
X1074219Y653185D01*
X1071209Y654431D01*
X1068014Y655067D01*
D02*
G37*
G36*
X1543884Y640213D02*
X1540626D01*
X1537430Y639577D01*
X1534420Y638330D01*
X1531711Y636520D01*
X1529407Y634216D01*
X1527597Y631507D01*
X1526351Y628497D01*
X1525715Y625302D01*
Y622044D01*
X1526351Y618848D01*
X1527597Y615838D01*
X1529407Y613129D01*
X1531711Y610825D01*
X1534420Y609015D01*
X1537430Y607768D01*
X1540626Y607133D01*
X1543884D01*
X1547079Y607768D01*
X1550090Y609015D01*
X1552798Y610825D01*
X1555102Y613129D01*
X1556912Y615838D01*
X1558159Y618848D01*
X1558795Y622044D01*
Y625302D01*
X1558159Y628497D01*
X1556912Y631507D01*
X1555102Y634216D01*
X1552798Y636520D01*
X1550090Y638330D01*
X1547079Y639577D01*
X1543884Y640213D01*
D02*
G37*
G36*
X1521537Y613797D02*
X1518479D01*
X1515479Y613200D01*
X1512654Y612030D01*
X1510112Y610331D01*
X1509929Y610148D01*
X1520008Y600069D01*
X1530087Y610148D01*
X1529904Y610331D01*
X1527361Y612030D01*
X1524536Y613200D01*
X1521537Y613797D01*
D02*
G37*
G36*
X1531883Y608352D02*
X1521804Y598273D01*
X1531883Y588194D01*
X1532066Y588377D01*
X1533765Y590919D01*
X1534935Y593745D01*
X1535532Y596744D01*
Y599802D01*
X1534935Y602801D01*
X1533765Y605626D01*
X1532066Y608169D01*
X1531883Y608352D01*
D02*
G37*
G36*
X1508132Y608352D02*
X1507949Y608169D01*
X1506250Y605626D01*
X1505080Y602801D01*
X1504484Y599802D01*
Y596744D01*
X1505080Y593745D01*
X1506250Y590919D01*
X1507949Y588377D01*
X1508133Y588194D01*
X1518212Y598273D01*
X1508132Y608352D01*
D02*
G37*
G36*
X1278673Y617922D02*
X1275415D01*
X1272219Y617286D01*
X1269209Y616040D01*
X1266500Y614230D01*
X1264196Y611926D01*
X1262386Y609217D01*
X1261139Y606207D01*
X1260504Y603011D01*
Y599753D01*
X1261139Y596558D01*
X1262386Y593548D01*
X1264196Y590839D01*
X1266500Y588535D01*
X1269209Y586725D01*
X1272219Y585478D01*
X1275415Y584842D01*
X1278673D01*
X1281868Y585478D01*
X1284878Y586725D01*
X1287587Y588535D01*
X1289891Y590839D01*
X1291701Y593548D01*
X1292948Y596558D01*
X1293584Y599753D01*
Y603011D01*
X1292948Y606207D01*
X1291701Y609217D01*
X1289891Y611926D01*
X1287587Y614230D01*
X1284878Y616040D01*
X1281868Y617286D01*
X1278673Y617922D01*
D02*
G37*
G36*
X1520008Y596477D02*
X1509929Y586398D01*
X1510112Y586214D01*
X1512654Y584515D01*
X1515479Y583345D01*
X1518479Y582749D01*
X1521537D01*
X1524536Y583345D01*
X1527361Y584515D01*
X1529904Y586214D01*
X1530087Y586398D01*
X1520008Y596477D01*
D02*
G37*
%LPD*%
D14*
X807023Y1477128D02*
Y1549369D01*
Y1477128D02*
X916940Y1367211D01*
X1502742Y1305560D02*
X1520820Y1323638D01*
X1102323Y1346200D02*
X1142963Y1305560D01*
X1502742D01*
X1096010Y1330960D02*
X1136650Y1290320D01*
X1503338D02*
X1520820Y1272838D01*
X1136650Y1290320D02*
X1503338D01*
X1502884Y902535D02*
X1520664Y884755D01*
X1151055Y902535D02*
X1502884D01*
X1103630Y949960D02*
X1151055Y902535D01*
X1502884Y917775D02*
X1520664Y935555D01*
X1109943Y965200D02*
X1157367Y917775D01*
X1502884D01*
X1368406Y514350D02*
X1368509Y514453D01*
X1502728D01*
X1162704Y556260D02*
X1204614Y514350D01*
X1502728Y514453D02*
X1520508Y496672D01*
X1204614Y514350D02*
X1368406D01*
X1502728Y529692D02*
X1520508Y547472D01*
X1169016Y571500D02*
X1210926Y529590D01*
X1362094D02*
X1362196Y529692D01*
X1502728D01*
X1210926Y529590D02*
X1362094D01*
X1245230Y126370D02*
X1502572D01*
X1207770Y163830D02*
X1245230Y126370D01*
X1502572D02*
X1520352Y108589D01*
X1504413Y141610D02*
X1520462Y157659D01*
X1251543Y141610D02*
X1504413D01*
X1214083Y179070D02*
X1251543Y141610D01*
X246316Y214161D02*
X262365Y230210D01*
X447380D01*
X586740Y369570D01*
X246427Y263230D02*
X264207Y245450D01*
X441068D01*
X571500Y375883D01*
X264363Y618293D02*
X407473D01*
X563880Y774700D01*
X246583Y600513D02*
X264363Y618293D01*
X246583Y651313D02*
X264363Y633533D01*
X401161D01*
X548640Y781013D01*
X431066Y1006376D02*
X541020Y1116330D01*
X246739Y988596D02*
X264519Y1006376D01*
X431066D01*
X424753Y1021616D02*
X525780Y1122643D01*
X264519Y1021616D02*
X424753D01*
X246739Y1039396D02*
X264519Y1021616D01*
X246895Y1376679D02*
X264675Y1394459D01*
X457199D01*
X513080Y1450340D01*
X246895Y1427479D02*
X264675Y1409699D01*
X450886D02*
X487680Y1446493D01*
X264675Y1409699D02*
X450886D01*
X180000Y187030D02*
X224426D01*
X177800Y189230D02*
X180000Y187030D01*
X177800Y124460D02*
Y189230D01*
Y577850D01*
Y962660D01*
X180537Y575113D02*
X224582D01*
X177800Y577850D02*
X180537Y575113D01*
X177800Y962660D02*
Y1304185D01*
X178336Y963196D02*
X224738D01*
X177800Y962660D02*
X178336Y963196D01*
X1597660Y961390D02*
Y1323340D01*
Y574040D02*
Y961390D01*
X1542665Y960956D02*
X1597225D01*
X1597660Y961390D01*
Y182880D02*
Y574040D01*
X1542509Y572873D02*
X1596493D01*
X1597660Y574040D01*
Y115570D02*
Y182880D01*
X1542353Y184790D02*
X1595750D01*
X1597660Y182880D01*
X939763Y179070D02*
X1214083D01*
X871220Y247613D02*
X939763Y179070D01*
X871220Y247613D02*
Y1348273D01*
X863600Y244456D02*
X936606Y171450D01*
X1210926D01*
X863600Y244456D02*
Y1345117D01*
X855980Y241300D02*
X933450Y163830D01*
X1207770D01*
X855980Y241300D02*
Y1341961D01*
X1210926Y171450D02*
X1248387Y133990D01*
X1542353D01*
X894080Y648970D02*
X971550Y571500D01*
X1169016D01*
X886460Y645160D02*
X967740Y563880D01*
X1165860D01*
X1207770Y521970D01*
X964584Y556260D02*
X1162704D01*
X878840Y642004D02*
X964584Y556260D01*
X878840Y642004D02*
Y1351430D01*
X886460Y645160D02*
Y1354586D01*
X894080Y648970D02*
Y1357742D01*
X745058Y1485212D02*
X878840Y1351430D01*
X916940Y1015128D02*
Y1367211D01*
X909320Y1011536D02*
Y1364055D01*
X832023Y1473681D02*
X967124Y1338580D01*
X793750Y1479625D02*
X909320Y1364055D01*
X832023Y1473681D02*
Y1549369D01*
X718820Y1489897D02*
Y1566176D01*
X818453Y1476474D02*
Y1565809D01*
X793750Y1479625D02*
Y1564906D01*
X745058Y1485212D02*
Y1567014D01*
X732358Y1487135D02*
X871220Y1348273D01*
X963967Y1330960D02*
X1096010D01*
X844658Y1471822D02*
Y1567014D01*
X718820Y1489897D02*
X863600Y1345117D01*
X706958Y1490983D02*
X855980Y1341961D01*
X781888Y1480710D02*
X901700Y1360898D01*
X732358Y1487135D02*
Y1549234D01*
X818453Y1476474D02*
X963967Y1330960D01*
X706958Y1490983D02*
Y1549234D01*
X967124Y1338580D02*
X1099166D01*
X781888Y1480710D02*
Y1549234D01*
X970280Y1346200D02*
X1102323D01*
X770458Y1481364D02*
Y1567014D01*
X756920Y1484126D02*
X886460Y1354586D01*
X901700Y1008380D02*
Y1360898D01*
X770458Y1481364D02*
X894080Y1357742D01*
X756920Y1484126D02*
Y1548396D01*
X844658Y1471822D02*
X970280Y1346200D01*
X916940Y1015128D02*
X966868Y965200D01*
X909320Y1011536D02*
X963276Y957580D01*
X1106786D01*
X966868Y965200D02*
X1109943D01*
X960120Y949960D02*
X1103630D01*
X901700Y1008380D02*
X960120Y949960D01*
X1099166Y1338580D02*
X1139806Y1297940D01*
X1540510D01*
X1106786Y957580D02*
X1154211Y910155D01*
X1542665D01*
X818453Y1565809D02*
X819658Y1567014D01*
X793750Y1564906D02*
X794588Y1565744D01*
X756920Y1548396D02*
X757758Y1549234D01*
X718820Y1566176D02*
X719658Y1567014D01*
X1207770Y521970D02*
X1365250D01*
X1365352Y522072D02*
X1542509D01*
X1365250Y521970D02*
X1365352Y522072D01*
X1542821Y1349038D02*
X1571962D01*
X1597660Y1323340D01*
X227330Y74930D02*
X1557020D01*
X1597660Y115570D01*
X556260Y1512570D02*
X575310Y1531620D01*
X556260Y777856D02*
Y1512570D01*
X575310Y1531620D02*
Y1565910D01*
X551180Y1530662D02*
Y1567180D01*
X541020Y1520502D02*
X551180Y1530662D01*
X563880Y1507453D02*
X586287Y1529860D01*
Y1548077D01*
X571500Y1504296D02*
X600380Y1533176D01*
Y1567180D01*
X487680Y1446493D02*
Y1549400D01*
X224894Y1402079D02*
X454043D01*
X500380Y1448416D02*
Y1567180D01*
X454043Y1402079D02*
X500380Y1448416D01*
X513080Y1450340D02*
Y1549400D01*
X525780Y1122643D02*
Y1567180D01*
X224738Y1013996D02*
X427910D01*
X533400Y1119486D02*
Y1524663D01*
X427910Y1013996D02*
X533400Y1119486D01*
X541020Y1116330D02*
Y1520502D01*
X548640Y781013D02*
Y1517346D01*
X404317Y625913D02*
X556260Y777856D01*
X224582Y625913D02*
X404317D01*
X563880Y774700D02*
Y1507453D01*
X571500Y375883D02*
Y1504296D01*
X224426Y237830D02*
X444224D01*
X579120Y372726D01*
Y1501140D01*
X586740Y369570D02*
Y1496060D01*
X548640Y1517346D02*
X562610Y1531316D01*
Y1549400D01*
X586740Y1496060D02*
X625380Y1534700D01*
X579120Y1501140D02*
X612745Y1534765D01*
X533400Y1524663D02*
X537492Y1528755D01*
Y1548412D01*
X625380Y1534700D02*
Y1567180D01*
X612745Y1534765D02*
Y1549535D01*
X537492Y1548412D02*
X538480Y1549400D01*
X586287Y1548077D02*
X587745Y1549535D01*
X177800Y124460D02*
X227330Y74930D01*
X177800Y1304185D02*
X224894Y1351279D01*
D35*
X305310Y1532800D02*
D03*
X210310D02*
D03*
Y1579800D02*
D03*
X305310D02*
D03*
D36*
X257810Y1574800D02*
D03*
D37*
Y1514800D02*
D03*
D38*
X1542665Y910155D02*
D03*
X247239Y937796D02*
D03*
X246739Y988596D02*
D03*
X224738Y1013996D02*
D03*
Y963196D02*
D03*
X224992Y912396D02*
D03*
X246583Y651313D02*
D03*
X224836Y524313D02*
D03*
X247083Y549713D02*
D03*
X224582Y625913D02*
D03*
X246583Y600513D02*
D03*
X224582Y575113D02*
D03*
X489891Y158521D02*
D03*
X627701Y1098550D02*
D03*
X246427Y263230D02*
D03*
X224680Y136230D02*
D03*
X246739Y1039396D02*
D03*
X246927Y161630D02*
D03*
X224426Y187030D02*
D03*
Y237830D02*
D03*
X246316Y214161D02*
D03*
X490359Y1322769D02*
D03*
X224894Y1402079D02*
D03*
X246895Y1427479D02*
D03*
X627857Y1486633D02*
D03*
X225148Y1300479D02*
D03*
X247395Y1325879D02*
D03*
X246895Y1376679D02*
D03*
X224894Y1351279D02*
D03*
X1066229Y250444D02*
D03*
X1520508Y496672D02*
D03*
X1542099Y235590D02*
D03*
X1139546Y437519D02*
D03*
X1277044Y601382D02*
D03*
X1046480Y519430D02*
D03*
X1066385Y638527D02*
D03*
X1542509Y522072D02*
D03*
Y572873D02*
D03*
X1542255Y623673D02*
D03*
X1520008Y598273D02*
D03*
X1520508Y547472D02*
D03*
X1139390Y49436D02*
D03*
X700550Y121376D02*
D03*
X1520352Y108589D02*
D03*
X1519852Y210190D02*
D03*
X1542353Y184790D02*
D03*
Y133990D02*
D03*
X1520462Y157659D02*
D03*
X1276888Y213299D02*
D03*
X721996Y243000D02*
D03*
X1044783Y128820D02*
D03*
X1045251Y1293069D02*
D03*
X1045095Y904986D02*
D03*
X700862Y897542D02*
D03*
X722308Y1019166D02*
D03*
X722464Y1407248D02*
D03*
X701018Y1285624D02*
D03*
X1066541Y1026610D02*
D03*
X1520664Y884755D02*
D03*
X1139702Y825601D02*
D03*
X1277200Y989465D02*
D03*
X1520164Y986356D02*
D03*
X1520664Y935555D02*
D03*
X1520820Y1272838D02*
D03*
X1540510Y1297940D02*
D03*
X1520820Y1323638D02*
D03*
X1542567Y1399839D02*
D03*
X1542821Y1349038D02*
D03*
X1520320Y1374438D02*
D03*
X1066697Y1414693D02*
D03*
X1277356Y1377548D02*
D03*
X1139858Y1213684D02*
D03*
X1542665Y960956D02*
D03*
X1542411Y1011756D02*
D03*
X627389Y322384D02*
D03*
X722152Y631083D02*
D03*
X627545Y710467D02*
D03*
X490047Y546604D02*
D03*
X490203Y934686D02*
D03*
X700706Y509459D02*
D03*
D39*
X322580Y1346200D02*
D03*
Y1459230D02*
D03*
X278130Y1460500D02*
D03*
X670560Y1536700D02*
D03*
X1560830Y1487170D02*
D03*
X1412240Y1564640D02*
D03*
X1162050Y1449070D02*
D03*
X1347470Y1554480D02*
D03*
X953770Y1490980D02*
D03*
X1013460Y1239520D02*
D03*
X1187450Y1130300D02*
D03*
X1385570Y1170940D02*
D03*
X1550670Y1107440D02*
D03*
X1532890Y1210310D02*
D03*
X1112520Y764540D02*
D03*
X1236980Y735330D02*
D03*
X958850Y855980D02*
D03*
X1540510Y713740D02*
D03*
X1452880Y808990D02*
D03*
X1443990Y53340D02*
D03*
X979170Y427990D02*
D03*
X1169670Y341630D02*
D03*
X1534160Y312420D02*
D03*
X1532890Y425450D02*
D03*
X487680Y411480D02*
D03*
X321310Y483870D02*
D03*
X284480Y391160D02*
D03*
X434340Y455930D02*
D03*
X899414Y102616D02*
D03*
X363220Y162560D02*
D03*
X607060Y120650D02*
D03*
X640080Y53340D02*
D03*
X943610Y52070D02*
D03*
X314960Y55880D02*
D03*
X853440Y158750D02*
D03*
X779780Y341630D02*
D03*
X739140Y472440D02*
D03*
X712470Y756920D02*
D03*
X800100Y843280D02*
D03*
X777240Y1132840D02*
D03*
X773430Y1247140D02*
D03*
X444500Y779780D02*
D03*
X285750Y711200D02*
D03*
X317500Y864870D02*
D03*
X248920Y769620D02*
D03*
X434340Y831850D02*
D03*
X332740Y1209040D02*
D03*
X283210Y1151890D02*
D03*
X491490Y1195070D02*
D03*
X356870Y1257300D02*
D03*
X770458Y1567014D02*
D03*
X781888Y1549234D02*
D03*
X794588Y1565744D02*
D03*
X745058Y1567014D02*
D03*
X757758Y1549234D02*
D03*
X719658Y1567014D02*
D03*
X732358Y1549234D02*
D03*
X706958D02*
D03*
X807023Y1549369D02*
D03*
X832023D02*
D03*
X819658Y1567014D02*
D03*
X844658D02*
D03*
X625380Y1567180D02*
D03*
X600380D02*
D03*
X612745Y1549535D02*
D03*
X587745D02*
D03*
X487680Y1549400D02*
D03*
X513080D02*
D03*
X500380Y1567180D02*
D03*
X538480Y1549400D02*
D03*
X525780Y1567180D02*
D03*
X575310Y1565910D02*
D03*
X562610Y1549400D02*
D03*
X551180Y1567180D02*
D03*
M02*
