ISO-10303-21;
HEADER;
FILE_DESCRIPTION (( 'STEP AP214' ),
    '1' );
FILE_NAME ('Ö÷¿Ø°å¹Ì¶¨°å.STEP',
    '2025-09-22T09:59:05',
    ( '' ),
    ( '' ),
    'SwSTEP 2.0',
    'SolidWorks 2025',
    '' );
FILE_SCHEMA (( 'AUTOMOTIVE_DESIGN' ));
ENDSEC;

DATA;
#1 = AXIS2_PLACEMENT_3D ( 'NONE', #360, #371, #277 ) ;
#2 = CARTESIAN_POINT ( 'NONE',  ( 116.5459057971000050, 75.16990579710099496, -0.4114799999999999569 ) ) ;
#3 = CYLINDRICAL_SURFACE ( 'NONE', #110, 2.049999999999996270 ) ;
#4 = CARTESIAN_POINT ( 'NONE',  ( 51.96909420289898662, 38.90309420289900544, -5.411480000000000068 ) ) ;
#5 = EDGE_CURVE ( 'NONE', #610, #168, #7, .T. ) ;
#6 = CYLINDRICAL_SURFACE ( 'NONE', #563, 3.001094402373643888 ) ;
#7 = LINE ( 'NONE', #546, #35 ) ;
#8 = DIRECTION ( 'NONE',  ( -0.000000000000000000, -0.000000000000000000, 1.000000000000000000 ) ) ;
#9 = ORIENTED_EDGE ( 'NONE', *, *, #480, .F. ) ;
#10 = CIRCLE ( 'NONE', #313, 3.001094402373643888 ) ;
#11 = CARTESIAN_POINT ( 'NONE',  ( 118.5969999999999942, 35.90199999999950364, -5.411480000000000068 ) ) ;
#12 = DIRECTION ( 'NONE',  ( -1.000000000000000000, -1.339222402805442661E-14, 0.000000000000000000 ) ) ;
#13 = CARTESIAN_POINT ( 'NONE',  ( 121.5969999999999942, 38.90200000000000102, -5.411480000000000068 ) ) ;
#14 = APPLICATION_CONTEXT ( 'automotive_design' ) ;
#15 = ORIENTED_EDGE ( 'NONE', *, *, #425, .T. ) ;
#16 =( GEOMETRIC_REPRESENTATION_CONTEXT ( 3 ) GLOBAL_UNCERTAINTY_ASSIGNED_CONTEXT ( ( #27 ) ) GLOBAL_UNIT_ASSIGNED_CONTEXT ( ( #48, #141, #239 ) ) REPRESENTATION_CONTEXT ( 'NONE', 'WORKASPACE' ) );
#17 = AXIS2_PLACEMENT_3D ( 'NONE', #303, #357, #585 ) ;
#18 = EDGE_LOOP ( 'NONE', ( #363, #576 ) ) ;
#19 = DIRECTION ( 'NONE',  ( 1.000000000000000000, -0.000000000000000000, 0.000000000000000000 ) ) ;
#20 = VERTEX_POINT ( 'NONE', #66 ) ;
#21 = ORIENTED_EDGE ( 'NONE', *, *, #599, .T. ) ;
#22 = EDGE_CURVE ( 'NONE', #467, #586, #251, .T. ) ;
#23 = DIRECTION ( 'NONE',  ( 0.000000000000000000, 0.000000000000000000, -1.000000000000000000 ) ) ;
#24 = FACE_OUTER_BOUND ( 'NONE', #293, .T. ) ;
#25 = EDGE_LOOP ( 'NONE', ( #417, #314 ) ) ;
#26 = CARTESIAN_POINT ( 'NONE',  ( 121.5969999999992552, 75.17100000000000648, -5.411480000000000068 ) ) ;
#27 = UNCERTAINTY_MEASURE_WITH_UNIT (LENGTH_MEASURE( 1.000000000000000082E-05 ), #48, 'distance_accuracy_value', 'NONE');
#28 = CARTESIAN_POINT ( 'NONE',  ( 51.96909420289898662, 75.16990579710099496, -5.411480000000000068 ) ) ;
#29 = AXIS2_PLACEMENT_3D ( 'NONE', #521, #426, #579 ) ;
#30 = VECTOR ( 'NONE', #36, 1000.000000000000000 ) ;
#31 = ORIENTED_EDGE ( 'NONE', *, *, #333, .F. ) ;
#32 = DIRECTION ( 'NONE',  ( 1.000000000000000000, 0.000000000000000000, 0.000000000000000000 ) ) ;
#33 = DIRECTION ( 'NONE',  ( -0.000000000000000000, -0.000000000000000000, 1.000000000000000000 ) ) ;
#34 = ORIENTED_EDGE ( 'NONE', *, *, #43, .T. ) ;
#35 = VECTOR ( 'NONE', #301, 1000.000000000000000 ) ;
#36 = DIRECTION ( 'NONE',  ( -0.000000000000000000, -0.000000000000000000, 1.000000000000000000 ) ) ;
#37 = CARTESIAN_POINT ( 'NONE',  ( 118.5969999999999942, 35.90199999999950364, -5.411480000000000068 ) ) ;
#38 = EDGE_CURVE ( 'NONE', #168, #464, #238, .T. ) ;
#39 = ORIENTED_EDGE ( 'NONE', *, *, #545, .F. ) ;
#40 = DIRECTION ( 'NONE',  ( 1.000000000000000000, 0.000000000000000000, 0.000000000000000000 ) ) ;
#41 = CARTESIAN_POINT ( 'NONE',  ( 116.5459057971000050, 38.90309420289900544, -0.4114799999999999569 ) ) ;
#42 = ORIENTED_EDGE ( 'NONE', *, *, #199, .T. ) ;
#43 = EDGE_CURVE ( 'NONE', #162, #610, #596, .T. ) ;
#44 = DIRECTION ( 'NONE',  ( 0.000000000000000000, 0.000000000000000000, 1.000000000000000000 ) ) ;
#45 = EDGE_CURVE ( 'NONE', #464, #273, #69, .T. ) ;
#46 =( NAMED_UNIT ( * ) SI_UNIT ( $, .STERADIAN. ) SOLID_ANGLE_UNIT ( ) );
#47 = ORIENTED_EDGE ( 'NONE', *, *, #45, .F. ) ;
#48 =( LENGTH_UNIT ( ) NAMED_UNIT ( * ) SI_UNIT ( .MILLI., .METRE. ) );
#49 = EDGE_CURVE ( 'NONE', #613, #281, #488, .T. ) ;
#50 = CIRCLE ( 'NONE', #484, 2.049999999999989164 ) ;
#51 = LINE ( 'NONE', #524, #494 ) ;
#52 = ORIENTED_EDGE ( 'NONE', *, *, #559, .T. ) ;
#53 = AXIS2_PLACEMENT_3D ( 'NONE', #577, #44, #198 ) ;
#54 = CIRCLE ( 'NONE', #92, 2.049999999999996270 ) ;
#55 = AXIS2_PLACEMENT_3D ( 'NONE', #80, #368, #556 ) ;
#56 = LINE ( 'NONE', #242, #539 ) ;
#57 = ADVANCED_FACE ( 'NONE', ( #448 ), #256, .F. ) ;
#58 = CARTESIAN_POINT ( 'NONE',  ( 121.5969999999995110, 75.17100000000000648, -0.4114799999999999569 ) ) ;
#59 = ORIENTED_EDGE ( 'NONE', *, *, #305, .F. ) ;
#60 = EDGE_CURVE ( 'NONE', #107, #443, #588, .T. ) ;
#61 = LINE ( 'NONE', #58, #330 ) ;
#62 = CIRCLE ( 'NONE', #407, 2.049999999999989164 ) ;
#63 = VECTOR ( 'NONE', #311, 1000.000000000000000 ) ;
#64 = EDGE_LOOP ( 'NONE', ( #335, #122, #218, #503 ) ) ;
#65 = FACE_BOUND ( 'NONE', #452, .T. ) ;
#66 = CARTESIAN_POINT ( 'NONE',  ( 118.5969999999999942, 35.90199999999925495, -0.4114799999999999569 ) ) ;
#67 = CIRCLE ( 'NONE', #416, 3.001094402373172265 ) ;
#68 = DIRECTION ( 'NONE',  ( 0.000000000000000000, 0.000000000000000000, -1.000000000000000000 ) ) ;
#69 = LINE ( 'NONE', #295, #96 ) ;
#70 = DIRECTION ( 'NONE',  ( -1.000000000000000000, 7.274426841994213481E-15, 0.000000000000000000 ) ) ;
#71 = DIRECTION ( 'NONE',  ( -1.000000000000000000, 0.000000000000000000, 0.000000000000000000 ) ) ;
#72 = VECTOR ( 'NONE', #174, 1000.000000000000000 ) ;
#73 = ADVANCED_FACE ( 'NONE', ( #321 ), #127, .T. ) ;
#74 = ORIENTED_EDGE ( 'NONE', *, *, #243, .T. ) ;
#75 = CARTESIAN_POINT ( 'NONE',  ( 46.91799999999999926, 75.17100000000000648, -5.411480000000000068 ) ) ;
#76 = DIRECTION ( 'NONE',  ( 1.000000000000000000, 0.000000000000000000, 0.000000000000000000 ) ) ;
#77 = EDGE_CURVE ( 'NONE', #20, #162, #466, .T. ) ;
#78 = CYLINDRICAL_SURFACE ( 'NONE', #144, 2.049999999999996270 ) ;
#79 = DIRECTION ( 'NONE',  ( 1.000000000000000000, 0.000000000000000000, 0.000000000000000000 ) ) ;
#80 = CARTESIAN_POINT ( 'NONE',  ( 49.91909420289900368, 38.90309420289900544, -5.411480000000000068 ) ) ;
#81 = DIRECTION ( 'NONE',  ( 0.000000000000000000, 0.000000000000000000, -1.000000000000000000 ) ) ;
#82 = VECTOR ( 'NONE', #548, 1000.000000000000000 ) ;
#83 = ORIENTED_EDGE ( 'NONE', *, *, #264, .T. ) ;
#84 = DIRECTION ( 'NONE',  ( -1.000000000000000000, 0.000000000000000000, 0.000000000000000000 ) ) ;
#85 = DIRECTION ( 'NONE',  ( 0.000000000000000000, 0.000000000000000000, -1.000000000000000000 ) ) ;
#86 = PRODUCT ( '\X2\4e3b63a7677f56fa5b9a677f\X0\', '\X2\4e3b63a7677f56fa5b9a677f\X0\', '', ( #193 ) ) ;
#87 = ORIENTED_EDGE ( 'NONE', *, *, #235, .F. ) ;
#88 = DIRECTION ( 'NONE',  ( -1.000000000000000000, 0.000000000000000000, 0.000000000000000000 ) ) ;
#89 = DIRECTION ( 'NONE',  ( -1.000000000000000000, 7.274426841994213481E-15, 0.000000000000000000 ) ) ;
#90 = EDGE_LOOP ( 'NONE', ( #117, #283, #536, #163 ) ) ;
#91 = LINE ( 'NONE', #580, #489 ) ;
#92 = AXIS2_PLACEMENT_3D ( 'NONE', #620, #249, #150 ) ;
#93 = ORIENTED_EDGE ( 'NONE', *, *, #290, .T. ) ;
#94 = SURFACE_STYLE_FILL_AREA ( #240 ) ;
#95 = ORIENTED_EDGE ( 'NONE', *, *, #45, .T. ) ;
#96 = VECTOR ( 'NONE', #393, 1000.000000000000000 ) ;
#97 = CARTESIAN_POINT ( 'NONE',  ( 46.91799999999999926, 38.90200000000000102, -0.4114799999999999569 ) ) ;
#98 = CARTESIAN_POINT ( 'NONE',  ( 47.86909420289901362, 38.90309420289900544, -0.4114799999999999569 ) ) ;
#99 = APPLICATION_PROTOCOL_DEFINITION ( 'draft international standard', 'automotive_design', 1998, #14 ) ;
#100 = AXIS2_PLACEMENT_3D ( 'NONE', #11, #437, #70 ) ;
#101 = LINE ( 'NONE', #329, #161 ) ;
#102 = EDGE_CURVE ( 'NONE', #361, #424, #327, .T. ) ;
#103 = LINE ( 'NONE', #440, #252 ) ;
#104 = VECTOR ( 'NONE', #112, 1000.000000000000000 ) ;
#105 = ORIENTED_EDGE ( 'NONE', *, *, #491, .T. ) ;
#106 = DIRECTION ( 'NONE',  ( -1.000000000000000000, 0.000000000000000000, 0.000000000000000000 ) ) ;
#107 = VERTEX_POINT ( 'NONE', #411 ) ;
#108 = ADVANCED_FACE ( 'NONE', ( #187 ), #324, .F. ) ;
#109 = LINE ( 'NONE', #394, #445 ) ;
#110 = AXIS2_PLACEMENT_3D ( 'NONE', #194, #387, #247 ) ;
#111 = CIRCLE ( 'NONE', #222, 2.049999999999996270 ) ;
#112 = DIRECTION ( 'NONE',  ( -0.000000000000000000, -0.000000000000000000, 1.000000000000000000 ) ) ;
#113 = CARTESIAN_POINT ( 'NONE',  ( 118.5959057971000021, 38.90309420289900544, -5.411480000000000068 ) ) ;
#114 = VERTEX_POINT ( 'NONE', #270 ) ;
#115 = ORIENTED_EDGE ( 'NONE', *, *, #176, .F. ) ;
#116 = DIRECTION ( 'NONE',  ( -1.000000000000000000, 0.000000000000000000, -0.000000000000000000 ) ) ;
#117 = ORIENTED_EDGE ( 'NONE', *, *, #77, .T. ) ;
#118 = EDGE_CURVE ( 'NONE', #497, #162, #451, .T. ) ;
#119 = DIRECTION ( 'NONE',  ( 0.000000000000000000, 0.000000000000000000, -1.000000000000000000 ) ) ;
#120 = EDGE_LOOP ( 'NONE', ( #554, #380 ) ) ;
#121 = ADVANCED_FACE ( 'NONE', ( #612 ), #515, .T. ) ;
#122 = ORIENTED_EDGE ( 'NONE', *, *, #337, .T. ) ;
#123 = CARTESIAN_POINT ( 'NONE',  ( 116.5459057971000050, 38.90309420289900544, -5.411480000000000068 ) ) ;
#124 = DIRECTION ( 'NONE',  ( -1.000000000000000000, 0.000000000000000000, 0.000000000000000000 ) ) ;
#125 = AXIS2_PLACEMENT_3D ( 'NONE', #312, #455, #76 ) ;
#126 = CARTESIAN_POINT ( 'NONE',  ( 118.5959057971000021, 75.16990579710099496, -0.4114799999999999569 ) ) ;
#127 = CYLINDRICAL_SURFACE ( 'NONE', #227, 3.001094402373172265 ) ;
#128 = ORIENTED_EDGE ( 'NONE', *, *, #264, .F. ) ;
#129 = DIRECTION ( 'NONE',  ( -0.000000000000000000, -0.000000000000000000, 1.000000000000000000 ) ) ;
#130 = CARTESIAN_POINT ( 'NONE',  ( 49.91799999999999926, 35.90200000000000102, -0.4114799999999999569 ) ) ;
#131 = CIRCLE ( 'NONE', #29, 2.049999999999996270 ) ;
#132 = VERTEX_POINT ( 'NONE', #41 ) ;
#133 = CARTESIAN_POINT ( 'NONE',  ( 118.5969999999999942, 78.17100000000000648, -5.411480000000000068 ) ) ;
#134 = DIRECTION ( 'NONE',  ( -0.000000000000000000, -0.000000000000000000, 1.000000000000000000 ) ) ;
#135 = EDGE_CURVE ( 'NONE', #361, #136, #10, .T. ) ;
#136 = VERTEX_POINT ( 'NONE', #507 ) ;
#137 = APPLICATION_PROTOCOL_DEFINITION ( 'draft international standard', 'automotive_design', 1998, #516 ) ;
#138 = DIRECTION ( 'NONE',  ( -0.000000000000000000, -0.000000000000000000, 1.000000000000000000 ) ) ;
#139 = EDGE_CURVE ( 'NONE', #443, #449, #50, .T. ) ;
#140 = ORIENTED_EDGE ( 'NONE', *, *, #460, .F. ) ;
#141 =( NAMED_UNIT ( * ) PLANE_ANGLE_UNIT ( ) SI_UNIT ( $, .RADIAN. ) );
#142 = CIRCLE ( 'NONE', #384, 2.049999999999996270 ) ;
#143 = ORIENTED_EDGE ( 'NONE', *, *, #203, .F. ) ;
#144 = AXIS2_PLACEMENT_3D ( 'NONE', #271, #316, #32 ) ;
#145 = CARTESIAN_POINT ( 'NONE',  ( 49.91909420289900368, 75.16990579710099496, -5.411480000000000068 ) ) ;
#146 = VERTEX_POINT ( 'NONE', #28 ) ;
#147 = AXIS2_PLACEMENT_3D ( 'NONE', #441, #12, #395 ) ;
#148 = DIRECTION ( 'NONE',  ( -0.000000000000000000, -0.000000000000000000, 1.000000000000000000 ) ) ;
#149 = CARTESIAN_POINT ( 'NONE',  ( 49.91909420289900368, 75.16990579710099496, -5.411480000000000068 ) ) ;
#150 = DIRECTION ( 'NONE',  ( -1.000000000000000000, 0.000000000000000000, 0.000000000000000000 ) ) ;
#151 = AXIS2_PLACEMENT_3D ( 'NONE', #518, #119, #481 ) ;
#152 = STYLED_ITEM ( 'NONE', ( #339 ), #288 ) ;
#153 =( NAMED_UNIT ( * ) PLANE_ANGLE_UNIT ( ) SI_UNIT ( $, .RADIAN. ) );
#154 = ADVANCED_FACE ( 'NONE', ( #24 ), #569, .F. ) ;
#155 = DIRECTION ( 'NONE',  ( 0.000000000000000000, 0.000000000000000000, -1.000000000000000000 ) ) ;
#156 = DIRECTION ( 'NONE',  ( -1.000000000000000000, 0.000000000000000000, 0.000000000000000000 ) ) ;
#157 = EDGE_CURVE ( 'NONE', #132, #566, #336, .T. ) ;
#158 = DIRECTION ( 'NONE',  ( -1.000000000000000000, 0.000000000000000000, 0.000000000000000000 ) ) ;
#159 = ORIENTED_EDGE ( 'NONE', *, *, #615, .T. ) ;
#160 = PLANE ( 'NONE',  #100 ) ;
#161 = VECTOR ( 'NONE', #388, 1000.000000000000000 ) ;
#162 = VERTEX_POINT ( 'NONE', #130 ) ;
#163 = ORIENTED_EDGE ( 'NONE', *, *, #235, .T. ) ;
#164 = CYLINDRICAL_SURFACE ( 'NONE', #17, 2.049999999999996270 ) ;
#165 = ORIENTED_EDGE ( 'NONE', *, *, #425, .F. ) ;
#166 = DIRECTION ( 'NONE',  ( 0.000000000000000000, 0.000000000000000000, -1.000000000000000000 ) ) ;
#167 = EDGE_LOOP ( 'NONE', ( #474, #308, #224, #231 ) ) ;
#168 = VERTEX_POINT ( 'NONE', #463 ) ;
#169 = CARTESIAN_POINT ( 'NONE',  ( 49.91909420289900368, 75.16990579710099496, -5.411480000000000068 ) ) ;
#170 =( GEOMETRIC_REPRESENTATION_CONTEXT ( 3 ) GLOBAL_UNCERTAINTY_ASSIGNED_CONTEXT ( ( #212 ) ) GLOBAL_UNIT_ASSIGNED_CONTEXT ( ( #428, #153, #46 ) ) REPRESENTATION_CONTEXT ( 'NONE', 'WORKASPACE' ) );
#171 = DIRECTION ( 'NONE',  ( -0.000000000000000000, -0.000000000000000000, 1.000000000000000000 ) ) ;
#172 = EDGE_CURVE ( 'NONE', #136, #497, #220, .T. ) ;
#173 = EDGE_LOOP ( 'NONE', ( #260, #373, #263, #143 ) ) ;
#174 = DIRECTION ( 'NONE',  ( -0.000000000000000000, -0.000000000000000000, 1.000000000000000000 ) ) ;
#175 = CARTESIAN_POINT ( 'NONE',  ( 118.5959057971000021, 75.16990579710099496, -0.4114799999999999569 ) ) ;
#176 = EDGE_CURVE ( 'NONE', #592, #302, #405, .T. ) ;
#177 = AXIS2_PLACEMENT_3D ( 'NONE', #606, #553, #124 ) ;
#178 = ORIENTED_EDGE ( 'NONE', *, *, #135, .T. ) ;
#179 = LINE ( 'NONE', #266, #72 ) ;
#180 = DIRECTION ( 'NONE',  ( -1.000000000000000000, 0.000000000000000000, 0.000000000000000000 ) ) ;
#181 = EDGE_LOOP ( 'NONE', ( #600, #621, #214, #542 ) ) ;
#182 = CARTESIAN_POINT ( 'NONE',  ( 121.5969999999995110, 75.17100000000000648, -5.411480000000000068 ) ) ;
#183 = CARTESIAN_POINT ( 'NONE',  ( 49.91799999999999926, 35.90200000000000102, -5.411480000000000068 ) ) ;
#184 = CIRCLE ( 'NONE', #151, 3.001094402373172265 ) ;
#185 = ORIENTED_EDGE ( 'NONE', *, *, #522, .T. ) ;
#186 = ADVANCED_FACE ( 'NONE', ( #230 ), #419, .F. ) ;
#187 = FACE_OUTER_BOUND ( 'NONE', #64, .T. ) ;
#188 = ORIENTED_EDGE ( 'NONE', *, *, #315, .F. ) ;
#189 = CARTESIAN_POINT ( 'NONE',  ( 118.5959057971000021, 38.90309420289900544, -0.4114799999999999569 ) ) ;
#190 = SURFACE_SIDE_STYLE ('',( #94 ) ) ;
#191 = EDGE_CURVE ( 'NONE', #497, #595, #370, .T. ) ;
#192 = ORIENTED_EDGE ( 'NONE', *, *, #480, .T. ) ;
#193 = PRODUCT_CONTEXT ( 'NONE', #14, 'mechanical' ) ;
#194 = CARTESIAN_POINT ( 'NONE',  ( 118.5959057971000021, 75.16990579710099496, -5.411480000000000068 ) ) ;
#195 = MECHANICAL_DESIGN_GEOMETRIC_PRESENTATION_REPRESENTATION (  '', ( #152 ), #170 ) ;
#196 = EDGE_LOOP ( 'NONE', ( #95, #322, #525, #83 ) ) ;
#197 = CIRCLE ( 'NONE', #431, 2.049999999999989164 ) ;
#198 = DIRECTION ( 'NONE',  ( 1.000000000000000000, 0.000000000000000000, 0.000000000000000000 ) ) ;
#199 = EDGE_CURVE ( 'NONE', #273, #328, #67, .T. ) ;
#200 = EDGE_CURVE ( 'NONE', #114, #566, #51, .T. ) ;
#201 = PLANE ( 'NONE',  #479 ) ;
#202 = CARTESIAN_POINT ( 'NONE',  ( 51.96909420289898662, 75.16990579710099496, -0.4114799999999999569 ) ) ;
#203 = EDGE_CURVE ( 'NONE', #146, #449, #101, .T. ) ;
#204 = CARTESIAN_POINT ( 'NONE',  ( 49.91909420289900368, 38.90309420289900544, -0.4114799999999999569 ) ) ;
#205 = PLANE ( 'NONE',  #532 ) ;
#206 = AXIS2_PLACEMENT_3D ( 'NONE', #275, #519, #79 ) ;
#207 = ORIENTED_EDGE ( 'NONE', *, *, #522, .F. ) ;
#208 = FACE_OUTER_BOUND ( 'NONE', #461, .T. ) ;
#209 = ORIENTED_EDGE ( 'NONE', *, *, #118, .T. ) ;
#210 = CARTESIAN_POINT ( 'NONE',  ( 49.91909420289900368, 38.90309420289900544, -5.411480000000000068 ) ) ;
#211 = AXIS2_PLACEMENT_3D ( 'NONE', #210, #68, #257 ) ;
#212 = UNCERTAINTY_MEASURE_WITH_UNIT (LENGTH_MEASURE( 1.000000000000000082E-05 ), #428, 'distance_accuracy_value', 'NONE');
#213 = DIRECTION ( 'NONE',  ( 0.000000000000000000, 0.000000000000000000, -1.000000000000000000 ) ) ;
#214 = ORIENTED_EDGE ( 'NONE', *, *, #309, .F. ) ;
#215 = DIRECTION ( 'NONE',  ( 0.000000000000000000, 0.000000000000000000, -1.000000000000000000 ) ) ;
#216 = EDGE_LOOP ( 'NONE', ( #52, #401 ) ) ;
#217 = AXIS2_PLACEMENT_3D ( 'NONE', #204, #390, #156 ) ;
#218 = ORIENTED_EDGE ( 'NONE', *, *, #200, .T. ) ;
#219 = CARTESIAN_POINT ( 'NONE',  ( 49.91909420289900368, 38.90309420289900544, -0.4114799999999999569 ) ) ;
#220 = LINE ( 'NONE', #37, #284 ) ;
#221 = CARTESIAN_POINT ( 'NONE',  ( 116.5459057971000050, 38.90309420289900544, -5.411480000000000068 ) ) ;
#222 = AXIS2_PLACEMENT_3D ( 'NONE', #422, #409, #552 ) ;
#223 = CARTESIAN_POINT ( 'NONE',  ( 49.91799999999999926, 78.17100000000000648, -5.411480000000000068 ) ) ;
#224 = ORIENTED_EDGE ( 'NONE', *, *, #599, .F. ) ;
#225 = CARTESIAN_POINT ( 'NONE',  ( 49.91909420289900368, 75.16990579710099496, -0.4114799999999999569 ) ) ;
#226 = CARTESIAN_POINT ( 'NONE',  ( 49.91909420289900368, 38.90309420289900544, -5.411480000000000068 ) ) ;
#227 = AXIS2_PLACEMENT_3D ( 'NONE', #378, #134, #616 ) ;
#228 = ORIENTED_EDGE ( 'NONE', *, *, #529, .F. ) ;
#229 = DIRECTION ( 'NONE',  ( 0.000000000000000000, 0.000000000000000000, -1.000000000000000000 ) ) ;
#230 = FACE_OUTER_BOUND ( 'NONE', #196, .T. ) ;
#231 = ORIENTED_EDGE ( 'NONE', *, *, #483, .T. ) ;
#232 = CARTESIAN_POINT ( 'NONE',  ( 46.91799999999999926, 38.90200000000000102, -5.411480000000000068 ) ) ;
#233 = DIRECTION ( 'NONE',  ( -1.000000000000000000, 7.274426841994213481E-15, 0.000000000000000000 ) ) ;
#234 = ORIENTED_EDGE ( 'NONE', *, *, #362, .F. ) ;
#235 = EDGE_CURVE ( 'NONE', #136, #20, #530, .T. ) ;
#236 = DIRECTION ( 'NONE',  ( 0.000000000000000000, 0.000000000000000000, -1.000000000000000000 ) ) ;
#237 = ORIENTED_EDGE ( 'NONE', *, *, #135, .F. ) ;
#238 = CIRCLE ( 'NONE', #391, 3.001094402372908476 ) ;
#239 =( NAMED_UNIT ( * ) SI_UNIT ( $, .STERADIAN. ) SOLID_ANGLE_UNIT ( ) );
#240 = FILL_AREA_STYLE ('',( #432 ) ) ;
#241 = EDGE_LOOP ( 'NONE', ( #398, #469, #617, #348, #549, #21, #178, #399 ) ) ;
#242 = CARTESIAN_POINT ( 'NONE',  ( 49.91799999999999926, 78.17100000000000648, -5.411480000000000068 ) ) ;
#243 = EDGE_CURVE ( 'NONE', #310, #350, #91, .T. ) ;
#244 = CIRCLE ( 'NONE', #500, 3.001094402373643888 ) ;
#245 = CIRCLE ( 'NONE', #364, 2.049999999999989164 ) ;
#246 = SHAPE_DEFINITION_REPRESENTATION ( #567, #340 ) ;
#247 = DIRECTION ( 'NONE',  ( 1.000000000000000000, 0.000000000000000000, 0.000000000000000000 ) ) ;
#248 = VECTOR ( 'NONE', #33, 1000.000000000000000 ) ;
#249 = DIRECTION ( 'NONE',  ( 0.000000000000000000, 0.000000000000000000, -1.000000000000000000 ) ) ;
#250 = DIRECTION ( 'NONE',  ( -1.000000000000000000, 0.000000000000000000, 0.000000000000000000 ) ) ;
#251 = LINE ( 'NONE', #304, #619 ) ;
#252 = VECTOR ( 'NONE', #495, 1000.000000000000000 ) ;
#253 = FACE_OUTER_BOUND ( 'NONE', #241, .T. ) ;
#254 = ORIENTED_EDGE ( 'NONE', *, *, #203, .T. ) ;
#255 = CARTESIAN_POINT ( 'NONE',  ( 121.5969999999999942, 38.90200000000000102, -0.4114799999999999569 ) ) ;
#256 = PLANE ( 'NONE',  #147 ) ;
#257 = DIRECTION ( 'NONE',  ( -1.000000000000000000, 0.000000000000000000, -0.000000000000000000 ) ) ;
#258 = CARTESIAN_POINT ( 'NONE',  ( 116.5459057971000050, 75.16990579710099496, -5.411480000000000068 ) ) ;
#259 = ADVANCED_FACE ( 'NONE', ( #482 ), #3, .F. ) ;
#260 = ORIENTED_EDGE ( 'NONE', *, *, #305, .T. ) ;
#261 = CARTESIAN_POINT ( 'NONE',  ( 121.5969999999992552, 75.17100000000000648, -5.411480000000000068 ) ) ;
#262 = CIRCLE ( 'NONE', #396, 2.049999999999996270 ) ;
#263 = ORIENTED_EDGE ( 'NONE', *, *, #559, .F. ) ;
#264 = EDGE_CURVE ( 'NONE', #467, #464, #56, .T. ) ;
#265 = ORIENTED_EDGE ( 'NONE', *, *, #199, .F. ) ;
#266 = CARTESIAN_POINT ( 'NONE',  ( 120.6459057970999993, 75.16990579710099496, -5.411480000000000068 ) ) ;
#267 = CARTESIAN_POINT ( 'NONE',  ( 49.91909420289900368, 75.16990579710099496, -0.4114799999999999569 ) ) ;
#268 = ORIENTED_EDGE ( 'NONE', *, *, #60, .F. ) ;
#269 = CARTESIAN_POINT ( 'NONE',  ( 47.86909420289901362, 38.90309420289900544, -5.411480000000000068 ) ) ;
#270 = CARTESIAN_POINT ( 'NONE',  ( 120.6459057970999993, 38.90309420289900544, -5.411480000000000068 ) ) ;
#271 = CARTESIAN_POINT ( 'NONE',  ( 118.5959057971000021, 75.16990579710099496, -5.411480000000000068 ) ) ;
#272 = CARTESIAN_POINT ( 'NONE',  ( 47.86909420289901362, 75.16990579710099496, -5.411480000000000068 ) ) ;
#273 = VERTEX_POINT ( 'NONE', #472 ) ;
#274 = LINE ( 'NONE', #26, #30 ) ;
#275 = CARTESIAN_POINT ( 'NONE',  ( 49.91909420289900368, 38.90309420289900544, -5.411480000000000068 ) ) ;
#276 = ORIENTED_EDGE ( 'NONE', *, *, #5, .F. ) ;
#277 = DIRECTION ( 'NONE',  ( 1.000000000000000000, 0.000000000000000000, 0.000000000000000000 ) ) ;
#278 = DIRECTION ( 'NONE',  ( 0.000000000000000000, -1.000000000000000000, 0.000000000000000000 ) ) ;
#279 = ORIENTED_EDGE ( 'NONE', *, *, #444, .T. ) ;
#280 = SURFACE_STYLE_USAGE ( .BOTH. , #190 ) ;
#281 = VERTEX_POINT ( 'NONE', #2 ) ;
#282 = DIRECTION ( 'NONE',  ( -1.000000000000000000, 0.000000000000000000, 0.000000000000000000 ) ) ;
#283 = ORIENTED_EDGE ( 'NONE', *, *, #118, .F. ) ;
#284 = VECTOR ( 'NONE', #89, 1000.000000000000000 ) ;
#285 = CARTESIAN_POINT ( 'NONE',  ( 121.5969999999992552, 75.17100000000000648, -0.4114799999999999569 ) ) ;
#286 = DIRECTION ( 'NONE',  ( -1.000000000000000000, 0.000000000000000000, 0.000000000000000000 ) ) ;
#287 = CIRCLE ( 'NONE', #375, 2.049999999999989164 ) ;
#288 = MANIFOLD_SOLID_BREP ( '\X2\51f853f0\X0\-\X2\62c94f38\X0\1', #379 ) ;
#289 = CARTESIAN_POINT ( 'NONE',  ( 118.5969999999999942, 35.90199999999925495, -5.411480000000000068 ) ) ;
#290 = EDGE_CURVE ( 'NONE', #501, #613, #262, .T. ) ;
#291 = VECTOR ( 'NONE', #171, 1000.000000000000000 ) ;
#292 = FACE_BOUND ( 'NONE', #582, .T. ) ;
#293 = EDGE_LOOP ( 'NONE', ( #115, #279, #74, #527 ) ) ;
#294 = DIRECTION ( 'NONE',  ( -0.000000000000000000, -0.000000000000000000, 1.000000000000000000 ) ) ;
#295 = CARTESIAN_POINT ( 'NONE',  ( 49.91799999999999926, 78.17100000000000648, -0.4114799999999999569 ) ) ;
#296 = CIRCLE ( 'NONE', #319, 3.001094402372908476 ) ;
#297 = CIRCLE ( 'NONE', #540, 2.049999999999989164 ) ;
#298 = FACE_BOUND ( 'NONE', #216, .T. ) ;
#299 = EDGE_LOOP ( 'NONE', ( #420, #105, #429, #547 ) ) ;
#300 = DIRECTION ( 'NONE',  ( 1.000000000000000000, 0.000000000000000000, 0.000000000000000000 ) ) ;
#301 = DIRECTION ( 'NONE',  ( 0.000000000000000000, 1.000000000000000000, 0.000000000000000000 ) ) ;
#302 = VERTEX_POINT ( 'NONE', #98 ) ;
#303 = CARTESIAN_POINT ( 'NONE',  ( 118.5959057971000021, 38.90309420289900544, -5.411480000000000068 ) ) ;
#304 = CARTESIAN_POINT ( 'NONE',  ( 49.91799999999999926, 78.17100000000000648, -5.411480000000000068 ) ) ;
#305 = EDGE_CURVE ( 'NONE', #146, #107, #512, .T. ) ;
#306 = ORIENTED_EDGE ( 'NONE', *, *, #509, .T. ) ;
#307 = DIRECTION ( 'NONE',  ( -1.000000000000000000, 0.000000000000000000, 0.000000000000000000 ) ) ;
#308 = ORIENTED_EDGE ( 'NONE', *, *, #102, .F. ) ;
#309 = EDGE_CURVE ( 'NONE', #350, #302, #245, .T. ) ;
#310 = VERTEX_POINT ( 'NONE', #4 ) ;
#311 = DIRECTION ( 'NONE',  ( -0.000000000000000000, -0.000000000000000000, 1.000000000000000000 ) ) ;
#312 = CARTESIAN_POINT ( 'NONE',  ( 118.5959057971000021, 38.90309420289900544, -5.411480000000000068 ) ) ;
#313 = AXIS2_PLACEMENT_3D ( 'NONE', #376, #609, #180 ) ;
#314 = ORIENTED_EDGE ( 'NONE', *, *, #529, .T. ) ;
#315 = EDGE_CURVE ( 'NONE', #562, #467, #296, .T. ) ;
#316 = DIRECTION ( 'NONE',  ( -0.000000000000000000, -0.000000000000000000, 1.000000000000000000 ) ) ;
#317 = CARTESIAN_POINT ( 'NONE',  ( 118.5969999999999942, 35.90199999999950364, -0.4114799999999999569 ) ) ;
#318 = FACE_OUTER_BOUND ( 'NONE', #181, .T. ) ;
#319 = AXIS2_PLACEMENT_3D ( 'NONE', #145, #526, #286 ) ;
#320 = CIRCLE ( 'NONE', #574, 2.049999999999996270 ) ;
#321 = FACE_OUTER_BOUND ( 'NONE', #623, .T. ) ;
#322 = ORIENTED_EDGE ( 'NONE', *, *, #454, .F. ) ;
#323 = CARTESIAN_POINT ( 'NONE',  ( 120.6459057970999993, 38.90309420289900544, -0.4114799999999999569 ) ) ;
#324 = CYLINDRICAL_SURFACE ( 'NONE', #125, 2.049999999999996270 ) ;
#325 = AXIS2_PLACEMENT_3D ( 'NONE', #226, #138, #415 ) ;
#326 = ORIENTED_EDGE ( 'NONE', *, *, #5, .T. ) ;
#327 = LINE ( 'NONE', #459, #248 ) ;
#328 = VERTEX_POINT ( 'NONE', #285 ) ;
#329 = CARTESIAN_POINT ( 'NONE',  ( 51.96909420289898662, 75.16990579710099496, -5.411480000000000068 ) ) ;
#330 = VECTOR ( 'NONE', #498, 1000.000000000000000 ) ;
#331 = AXIS2_PLACEMENT_3D ( 'NONE', #465, #229, #88 ) ;
#332 = VERTEX_POINT ( 'NONE', #478 ) ;
#333 = EDGE_CURVE ( 'NONE', #332, #281, #131, .T. ) ;
#334 = CARTESIAN_POINT ( 'NONE',  ( 49.91909420289900368, 75.16990579710099496, -5.411480000000000068 ) ) ;
#335 = ORIENTED_EDGE ( 'NONE', *, *, #491, .F. ) ;
#336 = CIRCLE ( 'NONE', #473, 2.049999999999996270 ) ;
#337 = EDGE_CURVE ( 'NONE', #523, #114, #54, .T. ) ;
#338 = DIRECTION ( 'NONE',  ( -1.000000000000000000, 0.000000000000000000, 0.000000000000000000 ) ) ;
#339 = PRESENTATION_STYLE_ASSIGNMENT (( #280 ) ) ;
#340 = ADVANCED_BREP_SHAPE_REPRESENTATION ( '\X2\4e3b63a7677f56fa5b9a677f\X0\', ( #288, #53 ), #16 ) ;
#341 = DIRECTION ( 'NONE',  ( -0.000000000000000000, -0.000000000000000000, 1.000000000000000000 ) ) ;
#342 = FACE_OUTER_BOUND ( 'NONE', #359, .T. ) ;
#343 = ADVANCED_FACE ( 'NONE', ( #342 ), #201, .F. ) ;
#344 = COLOUR_RGB ( '',1.000000000000000000, 1.000000000000000000, 1.000000000000000000 ) ;
#345 = DIRECTION ( 'NONE',  ( 0.000000000000000000, 0.000000000000000000, -1.000000000000000000 ) ) ;
#346 = ADVANCED_FACE ( 'NONE', ( #485, #487, #253, #292, #492 ), #535, .T. ) ;
#347 = CARTESIAN_POINT ( 'NONE',  ( 49.91799999999999926, 78.17100000000000648, -0.4114799999999999569 ) ) ;
#348 = ORIENTED_EDGE ( 'NONE', *, *, #22, .T. ) ;
#349 = CARTESIAN_POINT ( 'NONE',  ( 49.91909420289900368, 38.90309420289900544, -5.411480000000000068 ) ) ;
#350 = VERTEX_POINT ( 'NONE', #392 ) ;
#351 = AXIS2_PLACEMENT_3D ( 'NONE', #450, #23, #84 ) ;
#352 = ADVANCED_FACE ( 'NONE', ( #400 ), #6, .T. ) ;
#353 = CARTESIAN_POINT ( 'NONE',  ( 49.91909420289900368, 38.90309420289900544, -5.411480000000000068 ) ) ;
#354 = ORIENTED_EDGE ( 'NONE', *, *, #38, .F. ) ;
#355 = VERTEX_POINT ( 'NONE', #261 ) ;
#356 = ADVANCED_FACE ( 'NONE', ( #442 ), #164, .F. ) ;
#357 = DIRECTION ( 'NONE',  ( -0.000000000000000000, -0.000000000000000000, 1.000000000000000000 ) ) ;
#358 = EDGE_LOOP ( 'NONE', ( #93, #406, #31, #9 ) ) ;
#359 = EDGE_LOOP ( 'NONE', ( #326, #597, #234, #15 ) ) ;
#360 = CARTESIAN_POINT ( 'NONE',  ( 49.91909420289900368, 75.16990579710099496, -5.411480000000000068 ) ) ;
#361 = VERTEX_POINT ( 'NONE', #13 ) ;
#362 = EDGE_CURVE ( 'NONE', #595, #562, #103, .T. ) ;
#363 = ORIENTED_EDGE ( 'NONE', *, *, #309, .T. ) ;
#364 = AXIS2_PLACEMENT_3D ( 'NONE', #468, #236, #575 ) ;
#365 = DIRECTION ( 'NONE',  ( -0.000000000000000000, -0.000000000000000000, 1.000000000000000000 ) ) ;
#366 = DIRECTION ( 'NONE',  ( 0.000000000000000000, -0.000000000000000000, -1.000000000000000000 ) ) ;
#367 = EDGE_LOOP ( 'NONE', ( #159, #87, #237, #446 ) ) ;
#368 = DIRECTION ( 'NONE',  ( -0.000000000000000000, -0.000000000000000000, 1.000000000000000000 ) ) ;
#369 = DIRECTION ( 'NONE',  ( -1.000000000000000000, 0.000000000000000000, 0.000000000000000000 ) ) ;
#370 = CIRCLE ( 'NONE', #177, 3.001094402372901815 ) ;
#371 = DIRECTION ( 'NONE',  ( -0.000000000000000000, -0.000000000000000000, 1.000000000000000000 ) ) ;
#372 = DIRECTION ( 'NONE',  ( -1.000000000000000000, 0.000000000000000000, 0.000000000000000000 ) ) ;
#373 = ORIENTED_EDGE ( 'NONE', *, *, #60, .T. ) ;
#374 = DIRECTION ( 'NONE',  ( -1.000000000000000000, 0.000000000000000000, 0.000000000000000000 ) ) ;
#375 = AXIS2_PLACEMENT_3D ( 'NONE', #349, #537, #250 ) ;
#376 = CARTESIAN_POINT ( 'NONE',  ( 118.5959057971000021, 38.90309420289900544, -5.411480000000000068 ) ) ;
#377 = EDGE_LOOP ( 'NONE', ( #551, #128, #188, #306 ) ) ;
#378 = CARTESIAN_POINT ( 'NONE',  ( 118.5959057971000021, 75.16990579710099496, -5.411480000000000068 ) ) ;
#379 = CLOSED_SHELL ( 'NONE', ( #356, #533, #618, #550, #346, #438, #121, #343, #514, #186, #73, #57, #352, #421, #259, #593, #154, #108 ) ) ;
#380 = ORIENTED_EDGE ( 'NONE', *, *, #444, .F. ) ;
#381 = DIRECTION ( 'NONE',  ( -1.000000000000000000, 0.000000000000000000, 0.000000000000000000 ) ) ;
#382 = ORIENTED_EDGE ( 'NONE', *, *, #337, .F. ) ;
#383 = DIRECTION ( 'NONE',  ( 0.000000000000000000, 0.000000000000000000, -1.000000000000000000 ) ) ;
#384 = AXIS2_PLACEMENT_3D ( 'NONE', #581, #155, #158 ) ;
#385 = CIRCLE ( 'NONE', #331, 2.049999999999989164 ) ;
#386 = ORIENTED_EDGE ( 'NONE', *, *, #157, .T. ) ;
#387 = DIRECTION ( 'NONE',  ( -0.000000000000000000, -0.000000000000000000, 1.000000000000000000 ) ) ;
#388 = DIRECTION ( 'NONE',  ( -0.000000000000000000, -0.000000000000000000, 1.000000000000000000 ) ) ;
#389 = DIRECTION ( 'NONE',  ( -0.000000000000000000, -0.000000000000000000, 1.000000000000000000 ) ) ;
#390 = DIRECTION ( 'NONE',  ( 0.000000000000000000, 0.000000000000000000, -1.000000000000000000 ) ) ;
#391 = AXIS2_PLACEMENT_3D ( 'NONE', #496, #213, #71 ) ;
#392 = CARTESIAN_POINT ( 'NONE',  ( 51.96909420289898662, 38.90309420289900544, -0.4114799999999999569 ) ) ;
#393 = DIRECTION ( 'NONE',  ( 1.000000000000000000, 0.000000000000000000, 0.000000000000000000 ) ) ;
#394 = CARTESIAN_POINT ( 'NONE',  ( 46.91799999999999926, 38.90200000000000102, -5.411480000000000068 ) ) ;
#395 = DIRECTION ( 'NONE',  ( 1.339222402805442661E-14, -1.000000000000000000, 0.000000000000000000 ) ) ;
#396 = AXIS2_PLACEMENT_3D ( 'NONE', #571, #430, #282 ) ;
#397 = FACE_OUTER_BOUND ( 'NONE', #90, .T. ) ;
#398 = ORIENTED_EDGE ( 'NONE', *, *, #191, .T. ) ;
#399 = ORIENTED_EDGE ( 'NONE', *, *, #172, .T. ) ;
#400 = FACE_OUTER_BOUND ( 'NONE', #367, .T. ) ;
#401 = ORIENTED_EDGE ( 'NONE', *, *, #139, .T. ) ;
#402 = EDGE_LOOP ( 'NONE', ( #268, #520, #254, #508 ) ) ;
#403 = DIRECTION ( 'NONE',  ( 0.000000000000000000, 0.000000000000000000, -1.000000000000000000 ) ) ;
#404 = EDGE_CURVE ( 'NONE', #328, #424, #61, .T. ) ;
#405 = LINE ( 'NONE', #602, #291 ) ;
#406 = ORIENTED_EDGE ( 'NONE', *, *, #49, .T. ) ;
#407 = AXIS2_PLACEMENT_3D ( 'NONE', #353, #345, #106 ) ;
#408 = CIRCLE ( 'NONE', #351, 2.049999999999996270 ) ;
#409 = DIRECTION ( 'NONE',  ( 0.000000000000000000, 0.000000000000000000, -1.000000000000000000 ) ) ;
#410 = PRODUCT_DEFINITION_CONTEXT ( 'detailed design', #516, 'design' ) ;
#411 = CARTESIAN_POINT ( 'NONE',  ( 47.86909420289901362, 75.16990579710099496, -5.411480000000000068 ) ) ;
#412 = EDGE_CURVE ( 'NONE', #310, #592, #287, .T. ) ;
#413 = ORIENTED_EDGE ( 'NONE', *, *, #191, .F. ) ;
#414 = LINE ( 'NONE', #182, #82 ) ;
#415 = DIRECTION ( 'NONE',  ( 1.000000000000000000, 0.000000000000000000, 0.000000000000000000 ) ) ;
#416 = AXIS2_PLACEMENT_3D ( 'NONE', #175, #81, #369 ) ;
#417 = ORIENTED_EDGE ( 'NONE', *, *, #333, .T. ) ;
#418 = CARTESIAN_POINT ( 'NONE',  ( 46.91799999999999926, 75.17100000000000648, -5.411480000000000068 ) ) ;
#419 = PLANE ( 'NONE',  #568 ) ;
#420 = ORIENTED_EDGE ( 'NONE', *, *, #460, .T. ) ;
#421 = ADVANCED_FACE ( 'NONE', ( #397 ), #160, .F. ) ;
#422 = CARTESIAN_POINT ( 'NONE',  ( 118.5959057971000021, 75.16990579710099496, -5.411480000000000068 ) ) ;
#423 = DIRECTION ( 'NONE',  ( -0.000000000000000000, -0.000000000000000000, 1.000000000000000000 ) ) ;
#424 = VERTEX_POINT ( 'NONE', #255 ) ;
#425 = EDGE_CURVE ( 'NONE', #595, #610, #109, .T. ) ;
#426 = DIRECTION ( 'NONE',  ( 0.000000000000000000, 0.000000000000000000, -1.000000000000000000 ) ) ;
#427 = ORIENTED_EDGE ( 'NONE', *, *, #483, .F. ) ;
#428 =( LENGTH_UNIT ( ) NAMED_UNIT ( * ) SI_UNIT ( .MILLI., .METRE. ) );
#429 = ORIENTED_EDGE ( 'NONE', *, *, #572, .F. ) ;
#430 = DIRECTION ( 'NONE',  ( 0.000000000000000000, 0.000000000000000000, -1.000000000000000000 ) ) ;
#431 = AXIS2_PLACEMENT_3D ( 'NONE', #219, #403, #374 ) ;
#432 = FILL_AREA_STYLE_COLOUR ( '', #344 ) ;
#433 = DIRECTION ( 'NONE',  ( -0.000000000000000000, -0.000000000000000000, 1.000000000000000000 ) ) ;
#434 = CARTESIAN_POINT ( 'NONE',  ( 47.86909420289901362, 75.16990579710099496, -0.4114799999999999569 ) ) ;
#435 = EDGE_LOOP ( 'NONE', ( #573, #207 ) ) ;
#436 = PRESENTATION_LAYER_ASSIGNMENT (  '', '', ( #152 ) ) ;
#437 = DIRECTION ( 'NONE',  ( 7.274426841994213481E-15, 1.000000000000000000, 0.000000000000000000 ) ) ;
#438 = ADVANCED_FACE ( 'NONE', ( #208, #598, #298, #541, #65 ), #205, .F. ) ;
#439 = ORIENTED_EDGE ( 'NONE', *, *, #43, .F. ) ;
#440 = CARTESIAN_POINT ( 'NONE',  ( 46.91799999999999926, 38.90200000000000102, -5.411480000000000068 ) ) ;
#441 = CARTESIAN_POINT ( 'NONE',  ( 121.5969999999995110, 75.17100000000000648, -5.411480000000000068 ) ) ;
#442 = FACE_OUTER_BOUND ( 'NONE', #299, .T. ) ;
#443 = VERTEX_POINT ( 'NONE', #434 ) ;
#444 = EDGE_CURVE ( 'NONE', #592, #310, #62, .T. ) ;
#445 = VECTOR ( 'NONE', #8, 1000.000000000000000 ) ;
#446 = ORIENTED_EDGE ( 'NONE', *, *, #102, .T. ) ;
#447 = CARTESIAN_POINT ( 'NONE',  ( 46.91799999999999926, 38.90200000000000102, -5.411480000000000068 ) ) ;
#448 = FACE_OUTER_BOUND ( 'NONE', #167, .T. ) ;
#449 = VERTEX_POINT ( 'NONE', #202 ) ;
#450 = CARTESIAN_POINT ( 'NONE',  ( 118.5959057971000021, 38.90309420289900544, -0.4114799999999999569 ) ) ;
#451 = LINE ( 'NONE', #183, #555 ) ;
#452 = EDGE_LOOP ( 'NONE', ( #517, #386 ) ) ;
#453 = CYLINDRICAL_SURFACE ( 'NONE', #1, 2.049999999999989164 ) ;
#454 = EDGE_CURVE ( 'NONE', #586, #273, #594, .T. ) ;
#455 = DIRECTION ( 'NONE',  ( -0.000000000000000000, -0.000000000000000000, 1.000000000000000000 ) ) ;
#456 = ORIENTED_EDGE ( 'NONE', *, *, #454, .T. ) ;
#457 = VECTOR ( 'NONE', #433, 1000.000000000000000 ) ;
#458 = CYLINDRICAL_SURFACE ( 'NONE', #591, 3.001094402372908476 ) ;
#459 = CARTESIAN_POINT ( 'NONE',  ( 121.5969999999999942, 38.90200000000000102, -5.411480000000000068 ) ) ;
#460 = EDGE_CURVE ( 'NONE', #114, #523, #142, .T. ) ;
#461 = EDGE_LOOP ( 'NONE', ( #439, #543, #504, #558, #265, #47, #354, #276 ) ) ;
#462 = CARTESIAN_POINT ( 'NONE',  ( 120.6459057970999993, 75.16990579710099496, -5.411480000000000068 ) ) ;
#463 = CARTESIAN_POINT ( 'NONE',  ( 46.91799999999999926, 75.17100000000000648, -0.4114799999999999569 ) ) ;
#464 = VERTEX_POINT ( 'NONE', #347 ) ;
#465 = CARTESIAN_POINT ( 'NONE',  ( 49.91909420289900368, 75.16990579710099496, -5.411480000000000068 ) ) ;
#466 = LINE ( 'NONE', #317, #584 ) ;
#467 = VERTEX_POINT ( 'NONE', #564 ) ;
#468 = CARTESIAN_POINT ( 'NONE',  ( 49.91909420289900368, 38.90309420289900544, -0.4114799999999999569 ) ) ;
#469 = ORIENTED_EDGE ( 'NONE', *, *, #362, .T. ) ;
#470 = PRODUCT_RELATED_PRODUCT_CATEGORY ( 'part', '', ( #86 ) ) ;
#471 = CARTESIAN_POINT ( 'NONE',  ( 116.5459057971000050, 75.16990579710099496, -5.411480000000000068 ) ) ;
#472 = CARTESIAN_POINT ( 'NONE',  ( 118.5969999999999942, 78.17100000000000648, -0.4114799999999999569 ) ) ;
#473 = AXIS2_PLACEMENT_3D ( 'NONE', #561, #565, #557 ) ;
#474 = ORIENTED_EDGE ( 'NONE', *, *, #404, .T. ) ;
#475 = CYLINDRICAL_SURFACE ( 'NONE', #589, 2.049999999999989164 ) ;
#476 = DIRECTION ( 'NONE',  ( -0.000000000000000000, -0.000000000000000000, 1.000000000000000000 ) ) ;
#477 = DIRECTION ( 'NONE',  ( 0.000000000000000000, 0.000000000000000000, -1.000000000000000000 ) ) ;
#478 = CARTESIAN_POINT ( 'NONE',  ( 120.6459057970999993, 75.16990579710099496, -0.4114799999999999569 ) ) ;
#479 = AXIS2_PLACEMENT_3D ( 'NONE', #447, #19, #587 ) ;
#480 = EDGE_CURVE ( 'NONE', #501, #332, #179, .T. ) ;
#481 = DIRECTION ( 'NONE',  ( -1.000000000000000000, 0.000000000000000000, 0.000000000000000000 ) ) ;
#482 = FACE_OUTER_BOUND ( 'NONE', #570, .T. ) ;
#483 = EDGE_CURVE ( 'NONE', #355, #328, #274, .T. ) ;
#484 = AXIS2_PLACEMENT_3D ( 'NONE', #267, #85, #372 ) ;
#485 = FACE_BOUND ( 'NONE', #120, .T. ) ;
#486 = EDGE_LOOP ( 'NONE', ( #140, #382 ) ) ;
#487 = FACE_BOUND ( 'NONE', #435, .T. ) ;
#488 = LINE ( 'NONE', #258, #104 ) ;
#489 = VECTOR ( 'NONE', #148, 1000.000000000000000 ) ;
#490 = VECTOR ( 'NONE', #129, 1000.000000000000000 ) ;
#491 = EDGE_CURVE ( 'NONE', #523, #132, #608, .T. ) ;
#492 = FACE_BOUND ( 'NONE', #486, .T. ) ;
#493 = EDGE_LOOP ( 'NONE', ( #34, #165, #413, #209 ) ) ;
#494 = VECTOR ( 'NONE', #578, 1000.000000000000000 ) ;
#495 = DIRECTION ( 'NONE',  ( 0.000000000000000000, 1.000000000000000000, 0.000000000000000000 ) ) ;
#496 = CARTESIAN_POINT ( 'NONE',  ( 49.91909420289900368, 75.16990579710099496, -0.4114799999999999569 ) ) ;
#497 = VERTEX_POINT ( 'NONE', #510 ) ;
#498 = DIRECTION ( 'NONE',  ( 1.339222402805442661E-14, -1.000000000000000000, 0.000000000000000000 ) ) ;
#499 = DIRECTION ( 'NONE',  ( 1.000000000000000000, 0.000000000000000000, 0.000000000000000000 ) ) ;
#500 = AXIS2_PLACEMENT_3D ( 'NONE', #189, #477, #338 ) ;
#501 = VERTEX_POINT ( 'NONE', #462 ) ;
#502 = DIRECTION ( 'NONE',  ( 0.000000000000000000, 0.000000000000000000, -1.000000000000000000 ) ) ;
#503 = ORIENTED_EDGE ( 'NONE', *, *, #157, .F. ) ;
#504 = ORIENTED_EDGE ( 'NONE', *, *, #615, .F. ) ;
#505 = VECTOR ( 'NONE', #423, 1000.000000000000000 ) ;
#506 = FACE_OUTER_BOUND ( 'NONE', #377, .T. ) ;
#507 = CARTESIAN_POINT ( 'NONE',  ( 118.5969999999999942, 35.90199999999925495, -5.411480000000000068 ) ) ;
#508 = ORIENTED_EDGE ( 'NONE', *, *, #139, .F. ) ;
#509 = EDGE_CURVE ( 'NONE', #562, #168, #560, .T. ) ;
#510 = CARTESIAN_POINT ( 'NONE',  ( 49.91799999999999926, 35.90200000000000102, -5.411480000000000068 ) ) ;
#511 = DIRECTION ( 'NONE',  ( -0.000000000000000000, -0.000000000000000000, 1.000000000000000000 ) ) ;
#512 = CIRCLE ( 'NONE', #590, 2.049999999999989164 ) ;
#513 = FACE_OUTER_BOUND ( 'NONE', #358, .T. ) ;
#514 = ADVANCED_FACE ( 'NONE', ( #506 ), #458, .T. ) ;
#515 = CYLINDRICAL_SURFACE ( 'NONE', #325, 3.001094402372901815 ) ;
#516 = APPLICATION_CONTEXT ( 'automotive_design' ) ;
#517 = ORIENTED_EDGE ( 'NONE', *, *, #572, .T. ) ;
#518 = CARTESIAN_POINT ( 'NONE',  ( 118.5959057971000021, 75.16990579710099496, -5.411480000000000068 ) ) ;
#519 = DIRECTION ( 'NONE',  ( -0.000000000000000000, -0.000000000000000000, 1.000000000000000000 ) ) ;
#520 = ORIENTED_EDGE ( 'NONE', *, *, #545, .T. ) ;
#521 = CARTESIAN_POINT ( 'NONE',  ( 118.5959057971000021, 75.16990579710099496, -0.4114799999999999569 ) ) ;
#522 = EDGE_CURVE ( 'NONE', #613, #501, #111, .T. ) ;
#523 = VERTEX_POINT ( 'NONE', #221 ) ;
#524 = CARTESIAN_POINT ( 'NONE',  ( 120.6459057970999993, 38.90309420289900544, -5.411480000000000068 ) ) ;
#525 = ORIENTED_EDGE ( 'NONE', *, *, #22, .F. ) ;
#526 = DIRECTION ( 'NONE',  ( 0.000000000000000000, 0.000000000000000000, -1.000000000000000000 ) ) ;
#527 = ORIENTED_EDGE ( 'NONE', *, *, #603, .F. ) ;
#528 = DIRECTION ( 'NONE',  ( 1.000000000000000000, 0.000000000000000000, 0.000000000000000000 ) ) ;
#529 = EDGE_CURVE ( 'NONE', #281, #332, #320, .T. ) ;
#530 = LINE ( 'NONE', #289, #457 ) ;
#531 = PRODUCT_DEFINITION_FORMATION_WITH_SPECIFIED_SOURCE ( 'ä»', '', #86, .NOT_KNOWN. ) ;
#532 = AXIS2_PLACEMENT_3D ( 'NONE', #544, #215, #116 ) ;
#533 = ADVANCED_FACE ( 'NONE', ( #318 ), #601, .F. ) ;
#534 = CARTESIAN_POINT ( 'NONE',  ( 118.5969999999999942, 78.17100000000000648, -5.411480000000000068 ) ) ;
#535 = PLANE ( 'NONE',  #211 ) ;
#536 = ORIENTED_EDGE ( 'NONE', *, *, #172, .F. ) ;
#537 = DIRECTION ( 'NONE',  ( 0.000000000000000000, 0.000000000000000000, -1.000000000000000000 ) ) ;
#538 = ORIENTED_EDGE ( 'NONE', *, *, #607, .F. ) ;
#539 = VECTOR ( 'NONE', #476, 1000.000000000000000 ) ;
#540 = AXIS2_PLACEMENT_3D ( 'NONE', #225, #502, #605 ) ;
#541 = FACE_BOUND ( 'NONE', #18, .T. ) ;
#542 = ORIENTED_EDGE ( 'NONE', *, *, #243, .F. ) ;
#543 = ORIENTED_EDGE ( 'NONE', *, *, #77, .F. ) ;
#544 = CARTESIAN_POINT ( 'NONE',  ( 49.91909420289900368, 38.90309420289900544, -0.4114799999999999569 ) ) ;
#545 = EDGE_CURVE ( 'NONE', #107, #146, #385, .T. ) ;
#546 = CARTESIAN_POINT ( 'NONE',  ( 46.91799999999999926, 38.90200000000000102, -0.4114799999999999569 ) ) ;
#547 = ORIENTED_EDGE ( 'NONE', *, *, #200, .F. ) ;
#548 = DIRECTION ( 'NONE',  ( 1.339222402805442661E-14, -1.000000000000000000, 0.000000000000000000 ) ) ;
#549 = ORIENTED_EDGE ( 'NONE', *, *, #607, .T. ) ;
#550 = ADVANCED_FACE ( 'NONE', ( #513 ), #78, .F. ) ;
#551 = ORIENTED_EDGE ( 'NONE', *, *, #38, .T. ) ;
#552 = DIRECTION ( 'NONE',  ( -1.000000000000000000, 0.000000000000000000, 0.000000000000000000 ) ) ;
#553 = DIRECTION ( 'NONE',  ( 0.000000000000000000, 0.000000000000000000, -1.000000000000000000 ) ) ;
#554 = ORIENTED_EDGE ( 'NONE', *, *, #412, .F. ) ;
#555 = VECTOR ( 'NONE', #511, 1000.000000000000000 ) ;
#556 = DIRECTION ( 'NONE',  ( 1.000000000000000000, 0.000000000000000000, 0.000000000000000000 ) ) ;
#557 = DIRECTION ( 'NONE',  ( -1.000000000000000000, 0.000000000000000000, 0.000000000000000000 ) ) ;
#558 = ORIENTED_EDGE ( 'NONE', *, *, #404, .F. ) ;
#559 = EDGE_CURVE ( 'NONE', #449, #443, #297, .T. ) ;
#560 = LINE ( 'NONE', #418, #490 ) ;
#561 = CARTESIAN_POINT ( 'NONE',  ( 118.5959057971000021, 38.90309420289900544, -0.4114799999999999569 ) ) ;
#562 = VERTEX_POINT ( 'NONE', #75 ) ;
#563 = AXIS2_PLACEMENT_3D ( 'NONE', #113, #294, #300 ) ;
#564 = CARTESIAN_POINT ( 'NONE',  ( 49.91799999999999926, 78.17100000000000648, -5.411480000000000068 ) ) ;
#565 = DIRECTION ( 'NONE',  ( 0.000000000000000000, 0.000000000000000000, -1.000000000000000000 ) ) ;
#566 = VERTEX_POINT ( 'NONE', #323 ) ;
#567 = PRODUCT_DEFINITION_SHAPE ( 'NONE', 'NONE',  #583 ) ;
#568 = AXIS2_PLACEMENT_3D ( 'NONE', #223, #278, #366 ) ;
#569 = CYLINDRICAL_SURFACE ( 'NONE', #206, 2.049999999999989164 ) ;
#570 = EDGE_LOOP ( 'NONE', ( #604, #185, #192, #228 ) ) ;
#571 = CARTESIAN_POINT ( 'NONE',  ( 118.5959057971000021, 75.16990579710099496, -5.411480000000000068 ) ) ;
#572 = EDGE_CURVE ( 'NONE', #566, #132, #408, .T. ) ;
#573 = ORIENTED_EDGE ( 'NONE', *, *, #290, .F. ) ;
#574 = AXIS2_PLACEMENT_3D ( 'NONE', #126, #166, #307 ) ;
#575 = DIRECTION ( 'NONE',  ( -1.000000000000000000, 0.000000000000000000, 0.000000000000000000 ) ) ;
#576 = ORIENTED_EDGE ( 'NONE', *, *, #603, .T. ) ;
#577 = CARTESIAN_POINT ( 'NONE',  ( 0.000000000000000000, 0.000000000000000000, 0.000000000000000000 ) ) ;
#578 = DIRECTION ( 'NONE',  ( -0.000000000000000000, -0.000000000000000000, 1.000000000000000000 ) ) ;
#579 = DIRECTION ( 'NONE',  ( -1.000000000000000000, 0.000000000000000000, 0.000000000000000000 ) ) ;
#580 = CARTESIAN_POINT ( 'NONE',  ( 51.96909420289898662, 38.90309420289900544, -5.411480000000000068 ) ) ;
#581 = CARTESIAN_POINT ( 'NONE',  ( 118.5959057971000021, 38.90309420289900544, -5.411480000000000068 ) ) ;
#582 = EDGE_LOOP ( 'NONE', ( #59, #39 ) ) ;
#583 = PRODUCT_DEFINITION ( 'æœ', '', #531, #410 ) ;
#584 = VECTOR ( 'NONE', #233, 1000.000000000000000 ) ;
#585 = DIRECTION ( 'NONE',  ( 1.000000000000000000, 0.000000000000000000, 0.000000000000000000 ) ) ;
#586 = VERTEX_POINT ( 'NONE', #133 ) ;
#587 = DIRECTION ( 'NONE',  ( 0.000000000000000000, 0.000000000000000000, -1.000000000000000000 ) ) ;
#588 = LINE ( 'NONE', #272, #505 ) ;
#589 = AXIS2_PLACEMENT_3D ( 'NONE', #149, #341, #528 ) ;
#590 = AXIS2_PLACEMENT_3D ( 'NONE', #334, #383, #381 ) ;
#591 = AXIS2_PLACEMENT_3D ( 'NONE', #169, #365, #40 ) ;
#592 = VERTEX_POINT ( 'NONE', #269 ) ;
#593 = ADVANCED_FACE ( 'NONE', ( #611 ), #453, .F. ) ;
#594 = LINE ( 'NONE', #534, #614 ) ;
#595 = VERTEX_POINT ( 'NONE', #232 ) ;
#596 = CIRCLE ( 'NONE', #217, 3.001094402372901815 ) ;
#597 = ORIENTED_EDGE ( 'NONE', *, *, #509, .F. ) ;
#598 = FACE_BOUND ( 'NONE', #25, .T. ) ;
#599 = EDGE_CURVE ( 'NONE', #355, #361, #414, .T. ) ;
#600 = ORIENTED_EDGE ( 'NONE', *, *, #412, .T. ) ;
#601 = CYLINDRICAL_SURFACE ( 'NONE', #55, 2.049999999999989164 ) ;
#602 = CARTESIAN_POINT ( 'NONE',  ( 47.86909420289901362, 38.90309420289900544, -5.411480000000000068 ) ) ;
#603 = EDGE_CURVE ( 'NONE', #302, #350, #197, .T. ) ;
#604 = ORIENTED_EDGE ( 'NONE', *, *, #49, .F. ) ;
#605 = DIRECTION ( 'NONE',  ( -1.000000000000000000, 0.000000000000000000, 0.000000000000000000 ) ) ;
#606 = CARTESIAN_POINT ( 'NONE',  ( 49.91909420289900368, 38.90309420289900544, -5.411480000000000068 ) ) ;
#607 = EDGE_CURVE ( 'NONE', #586, #355, #184, .T. ) ;
#608 = LINE ( 'NONE', #123, #63 ) ;
#609 = DIRECTION ( 'NONE',  ( 0.000000000000000000, 0.000000000000000000, -1.000000000000000000 ) ) ;
#610 = VERTEX_POINT ( 'NONE', #97 ) ;
#611 = FACE_OUTER_BOUND ( 'NONE', #402, .T. ) ;
#612 = FACE_OUTER_BOUND ( 'NONE', #493, .T. ) ;
#613 = VERTEX_POINT ( 'NONE', #471 ) ;
#614 = VECTOR ( 'NONE', #389, 1000.000000000000000 ) ;
#615 = EDGE_CURVE ( 'NONE', #424, #20, #244, .T. ) ;
#616 = DIRECTION ( 'NONE',  ( 1.000000000000000000, 0.000000000000000000, 0.000000000000000000 ) ) ;
#617 = ORIENTED_EDGE ( 'NONE', *, *, #315, .T. ) ;
#618 = ADVANCED_FACE ( 'NONE', ( #622 ), #475, .F. ) ;
#619 = VECTOR ( 'NONE', #499, 1000.000000000000000 ) ;
#620 = CARTESIAN_POINT ( 'NONE',  ( 118.5959057971000021, 38.90309420289900544, -5.411480000000000068 ) ) ;
#621 = ORIENTED_EDGE ( 'NONE', *, *, #176, .T. ) ;
#622 = FACE_OUTER_BOUND ( 'NONE', #173, .T. ) ;
#623 = EDGE_LOOP ( 'NONE', ( #42, #427, #538, #456 ) ) ;
ENDSEC;
END-ISO-10303-21;
