M48
;Layer_Color=9474304
;FILE_FORMAT=4:4
METRIC,LZ
;TYPE=PLATED
T01F00S00C0.3000
T02F00S00C0.4000
T03F00S00C0.9000
%
T01
X00068834Y00037846
X00037846Y00093472
X00023114Y00093726
X00023368Y0012573
X0003112Y00135636
X0004826Y00121666
X00057444Y00140659
X00067524Y00140346
X00070664Y00147377
X00062658Y00146106
X00077658Y00140462
X00085084Y00141767
X00091694Y00135128
X0010033Y00103594
X00149606Y00118364
X00179497Y00128543
X00179243Y00140481
X00179497Y00152927
X00191689
Y00140735
X00204389
Y00128543
X00192451Y00128289
X00196088Y00113792
X0018796
X00207618
X00212896Y00119177
X0022733Y0010922
X00271526Y00104728
X002793Y00100507
X00308021Y00102381
X00308783Y00124733
X00299974Y00158496
X0029337Y00165354
X00285734Y00157988
X00235458Y00163322
X002413Y0014605
X00217932Y0014859
X00204135Y00152927
X0018415Y00184404
X00188468Y00225298
X00184831Y00235223
X00203119Y00235477
X00207264Y00225298
X00221915Y00235985
X00239441Y00232937
X0024384Y00239776
X0023622Y00245872
X00259334Y0024003
X00242743Y00213379
X00227838Y00207518
X00219202Y00199898
X00164338Y00212212
X00164084Y00226822
X00148844Y00212096
X00140127Y00234461
X00129794Y00249936
X00129286Y0026539
X00136144Y00271018
X00103886Y0026924
X00087565Y00277687
X00077566Y00277526
X0006739Y0027784
X00062561Y00283631
X00072649Y00283243
X00082475Y00283249
X00053848Y002794
X00030866Y00272796
X00022606Y00265176
X00023368Y00255524
X00038949Y0025443
X00037338Y00230378
X00022524Y00231902
Y00211074
X00030866Y00203454
X00050804Y00209828
X0005564Y00215613
X00062756Y00218105
X00069385Y00213245
X00077271Y00207625
X00091948Y00202438
X00097708Y00207304
X00104394Y00200914
X00142921Y00176549
X00172131Y00248939
X00172893Y00254273
X00176449Y00274339
X00175433Y00281959
X00177973Y00289071
X00166797Y00289579
X00169845Y00276879
X0019558Y00260096
X00202184Y00264668
X00209042Y00271018
X00236982Y0028956
X0024384Y00295656
X00251714Y0028956
X00259334Y00295402
X00254508Y0034544
X0026924Y00347472
X00229108Y003302
X0020447Y00324652
X00317246Y00305816
X00322834
X00328422
X00334264
X00339852
X0034544
Y00299974
X00339852
X00334264
X00328422
X00322834
X00317246
X00346405Y00289611
X00371602Y00293664
X0037719Y00288544
X00386588Y00293664
X00393192Y00288798
X00393446Y00245364
X00387096Y00239522
X00377952Y00245364
X00364744
X00371856Y00221488
X00387096Y00221234
X00393954Y00215138
X00348234Y00214884
X00341376Y00221234
X00332994Y00229616
X00326136Y00223266
X00310896
X00304292Y00229362
X0030226Y00214884
X00295402Y0022098
X00353487Y00127019
X00355519Y00101873
X00037592Y00161036
X00044958Y00189992
X0046736Y00216916
Y00222504
Y00228092
X00473202
Y00222504
Y00233934
Y00239522
Y0024511
X0046736
Y00239522
Y00233934
X00467868Y00089154
X00482346Y00075438
T02
X00178562Y00362204
T03
X00428244Y00086868
Y00112268
Y00137668
Y00163068
M30
