%TF.GenerationSoftware,Altium Limited,Altium Designer,24.0.1 (36)*%
G04 Layer_Physical_Order=1*
G04 Layer_Color=191*
%FSLAX45Y45*%
%MOMM*%
%TF.SameCoordinates,14D861EB-6B2A-43A0-B606-02C4F9DF8899*%
%TF.FilePolarity,Positive*%
%TF.FileFunction,Copper,L1,Top,Signal*%
%TF.Part,Single*%
G01*
G75*
%TA.AperFunction,NonConductor*%
%ADD10C,0.20320*%
%TA.AperFunction,SMDPad,CuDef*%
%ADD11R,0.60000X1.20000*%
%ADD12R,0.60000X2.10000*%
G04:AMPARAMS|DCode=13|XSize=1.8mm|YSize=3mm|CornerRadius=0mm|HoleSize=0mm|Usage=FLASHONLY|Rotation=180.000|XOffset=0mm|YOffset=0mm|HoleType=Round|Shape=Octagon|*
%AMOCTAGOND13*
4,1,8,0.45000,-1.50000,-0.45000,-1.50000,-0.90000,-1.05000,-0.90000,1.05000,-0.45000,1.50000,0.45000,1.50000,0.90000,1.05000,0.90000,-1.05000,0.45000,-1.50000,0.0*
%
%ADD13OCTAGOND13*%

%ADD14R,1.30000X1.20000*%
%ADD15O,2.03200X0.60960*%
%ADD16R,3.05000X2.05000*%
G04:AMPARAMS|DCode=17|XSize=0.6mm|YSize=0.24mm|CornerRadius=0.048mm|HoleSize=0mm|Usage=FLASHONLY|Rotation=90.000|XOffset=0mm|YOffset=0mm|HoleType=Round|Shape=RoundedRectangle|*
%AMROUNDEDRECTD17*
21,1,0.60000,0.14400,0,0,90.0*
21,1,0.50400,0.24000,0,0,90.0*
1,1,0.09600,0.07200,0.25200*
1,1,0.09600,0.07200,-0.25200*
1,1,0.09600,-0.07200,-0.25200*
1,1,0.09600,-0.07200,0.25200*
%
%ADD17ROUNDEDRECTD17*%
G04:AMPARAMS|DCode=18|XSize=0.24mm|YSize=0.6mm|CornerRadius=0.048mm|HoleSize=0mm|Usage=FLASHONLY|Rotation=90.000|XOffset=0mm|YOffset=0mm|HoleType=Round|Shape=RoundedRectangle|*
%AMROUNDEDRECTD18*
21,1,0.24000,0.50400,0,0,90.0*
21,1,0.14400,0.60000,0,0,90.0*
1,1,0.09600,0.25200,0.07200*
1,1,0.09600,0.25200,-0.07200*
1,1,0.09600,-0.25200,-0.07200*
1,1,0.09600,-0.25200,0.07200*
%
%ADD18ROUNDEDRECTD18*%
%ADD19O,1.00000X0.30000*%
%ADD20O,0.30000X1.00000*%
%ADD21R,0.30000X1.00000*%
%ADD22R,3.00000X3.00000*%
%ADD23R,0.30000X0.80000*%
%ADD24R,2.40000X1.52000*%
%ADD25R,0.85000X0.75000*%
%ADD26R,0.75000X0.85000*%
%ADD27R,4.70000X4.50000*%
%ADD28R,0.65000X1.20000*%
%ADD29R,1.10000X3.70000*%
%ADD30R,1.00000X0.80000*%
G04:AMPARAMS|DCode=31|XSize=1mm|YSize=0.8mm|CornerRadius=0mm|HoleSize=0mm|Usage=FLASHONLY|Rotation=180.000|XOffset=0mm|YOffset=0mm|HoleType=Round|Shape=Octagon|*
%AMOCTAGOND31*
4,1,8,-0.50000,0.20000,-0.50000,-0.20000,-0.30000,-0.40000,0.30000,-0.40000,0.50000,-0.20000,0.50000,0.20000,0.30000,0.40000,-0.30000,0.40000,-0.50000,0.20000,0.0*
%
%ADD31OCTAGOND31*%

%TA.AperFunction,NonConductor*%
%ADD32C,0.25400*%
%TA.AperFunction,Conductor*%
%ADD33C,0.25400*%
%ADD34C,0.20320*%
%ADD35C,0.15240*%
%ADD36C,0.38100*%
%ADD37C,0.30480*%
%TA.AperFunction,ComponentPad*%
%ADD38R,1.70000X1.70000*%
%ADD39C,1.70000*%
%TA.AperFunction,ViaPad*%
%ADD40C,0.50000*%
%ADD41C,0.60000*%
G36*
X3482641Y2928184D02*
X3482641Y2776521D01*
X3477260Y2771140D01*
X3449320D01*
X3444944Y2775516D01*
Y2866427D01*
X3435111Y2876260D01*
X3288995Y2876261D01*
X3215859Y2803124D01*
Y2517359D01*
X3169920Y2471420D01*
X2961640D01*
X2936240Y2496820D01*
Y2903220D01*
X2979518Y2946498D01*
X3464327D01*
X3482641Y2928184D01*
D02*
G37*
G36*
X4968240Y3126740D02*
Y2750820D01*
X4945380Y2727960D01*
X4640580D01*
X4612640Y2700020D01*
X4272280D01*
X4254500Y2717800D01*
Y2923540D01*
X4201160Y2976880D01*
X3665220D01*
X3652520Y2964180D01*
X3162300D01*
X3141980Y2984500D01*
X3141979Y3129279D01*
X3167380Y3154680D01*
X4940300D01*
X4968240Y3126740D01*
D02*
G37*
G36*
X3502378Y2745950D02*
X3532858D01*
Y2709948D01*
X3584377D01*
Y2679948D01*
X3532858D01*
Y2659948D01*
X3584377D01*
Y2629948D01*
X3532858D01*
Y2593953D01*
X3292859D01*
Y2629948D01*
X3242376D01*
Y2659948D01*
X3292859D01*
Y2679948D01*
X3242376D01*
Y2709948D01*
X3292859D01*
Y2745952D01*
X3502376D01*
X3502378Y2745950D01*
D02*
G37*
G36*
X2849880Y2867660D02*
Y2476500D01*
X2834640Y2461260D01*
X2692400D01*
X2674620Y2479040D01*
Y2512060D01*
X2646680Y2540000D01*
X2346960D01*
X2219960Y2413000D01*
X1849120D01*
X1818640Y2443480D01*
Y2588260D01*
X1841500Y2611120D01*
X1986280D01*
X2021840Y2575560D01*
X2161540D01*
X2209800Y2623820D01*
Y2760980D01*
X2268220Y2819400D01*
X2644140D01*
X2674620Y2849880D01*
Y2867660D01*
X2694940Y2887980D01*
X2829560D01*
X2849880Y2867660D01*
D02*
G37*
G36*
X3677918Y2809240D02*
X4005580D01*
X4109720Y2705100D01*
X4224020Y2590800D01*
X4610100D01*
X4650740Y2550160D01*
X4742180D01*
X4780280Y2512060D01*
Y2176780D01*
X4755280Y2151780D01*
X4061060D01*
X4010660Y2202180D01*
Y2476500D01*
X3957320Y2529840D01*
X3660140D01*
X3616960Y2573020D01*
X3616960Y2722880D01*
X3594100Y2745740D01*
X3568700Y2771140D01*
X3505248Y2771140D01*
X3498696Y2777692D01*
Y2869315D01*
X3504660Y2875280D01*
X3611878D01*
X3677918Y2809240D01*
D02*
G37*
D10*
X4964558Y2597040D02*
G03*
X4989703Y2607455I0J35560D01*
G01*
X4964558Y2597040D02*
G03*
X4989703Y2607455I0J35560D01*
G01*
X4930440Y2112980D02*
G03*
X4918501Y2141752I-40640J0D01*
G01*
X4930440Y2112980D02*
G03*
X4918537Y2141717I-40640J0D01*
G01*
X4647769Y2125882D02*
G03*
X4699431Y2125882I25831J43278D01*
G01*
X4751780Y1917800D02*
G03*
X4741365Y1942945I-35560J0D01*
G01*
X4751780Y1917800D02*
G03*
X4741365Y1942945I-35560J0D01*
G01*
X3791369Y2416288D02*
G03*
X3776300Y2424905I-23349J-23349D01*
G01*
X3791369Y2416288D02*
G03*
X3776300Y2424905I-23349J-23349D01*
G01*
X3768960Y2214880D02*
G03*
X3765927Y2232100I-50400J0D01*
G01*
X3671193D02*
G03*
X3668199Y2212900I47367J-17220D01*
G01*
X3638616Y2032255D02*
G03*
X3663760Y2021840I25145J25145D01*
G01*
X3638616Y2032255D02*
G03*
X3663760Y2021840I25145J25145D01*
G01*
X3514191Y2901177D02*
G03*
X3508539Y2919789I-50145J-5063D01*
G01*
X3059320Y2430780D02*
G03*
X3035971Y2421109I0J-33020D01*
G01*
X3059320Y2430780D02*
G03*
X3035971Y2421109I0J-33020D01*
G01*
X2688824Y3424447D02*
G03*
X2742800Y3474720I3576J50273D01*
G01*
D02*
G03*
X2642127Y3471144I-50400J0D01*
G01*
X2580796Y3418840D02*
G03*
X2595480Y3454400I-35716J35560D01*
G01*
D02*
G03*
X2494807Y3450824I-50400J0D01*
G01*
X2603500Y3352800D02*
G03*
X2626849Y3362471I0J33020D01*
G01*
X2603500Y3352800D02*
G03*
X2626849Y3362471I0J33020D01*
G01*
X3321640Y2330860D02*
G03*
X3340905Y2340278I-4084J32767D01*
G01*
X3321640Y2330860D02*
G03*
X3340905Y2340278I-4084J32767D01*
G01*
X3217120Y2212900D02*
G03*
X3218180Y2221200I-31960J8300D01*
G01*
X3217120Y2212900D02*
G03*
X3218180Y2221200I-31960J8300D01*
G01*
X2481580Y2237740D02*
G03*
X2491251Y2214391I33020J0D01*
G01*
X2481580Y2237740D02*
G03*
X2491251Y2214391I33020J0D01*
G01*
X2578991Y2126651D02*
G03*
X2602340Y2116980I23349J23349D01*
G01*
X2578991Y2126651D02*
G03*
X2602340Y2116980I23349J23349D01*
G01*
X2532719Y1948669D02*
G03*
X2509370Y1958340I-23349J-23349D01*
G01*
X2532719Y1948669D02*
G03*
X2509370Y1958340I-23349J-23349D01*
G01*
X4859020Y1624220D02*
G03*
X4848605Y1649365I-35560J0D01*
G01*
X4859020Y1624220D02*
G03*
X4848605Y1649365I-35560J0D01*
G01*
X4392840Y1630680D02*
G03*
X4392840Y1630680I-110400J0D01*
G01*
Y1376680D02*
G03*
X4254022Y1270000I-110400J0D01*
G01*
X4310858D02*
G03*
X4392840Y1376680I-28418J106680D01*
G01*
X4074921Y1393628D02*
G03*
X4086860Y1422400I-28701J28772D01*
G01*
X3957320Y1455420D02*
G03*
X3901440Y1511300I-55880J0D01*
G01*
Y1399540D02*
G03*
X3957320Y1455420I0J55880D01*
G01*
X4074957Y1393663D02*
G03*
X4086860Y1422400I-28737J28737D01*
G01*
X3952240Y1287780D02*
G03*
X3981012Y1299719I0J40640D01*
G01*
X3952240Y1287780D02*
G03*
X3980977Y1299683I0J40640D01*
G01*
X3901440Y1272540D02*
G03*
X3939793Y1287780I0J55880D01*
G01*
X3937475Y1371129D02*
G03*
X3901440Y1384300I-36035J-42709D01*
G01*
X3933663Y1270000D02*
G03*
X3908518Y1259585I0J-35560D01*
G01*
X3933663Y1270000D02*
G03*
X3908518Y1259585I0J-35560D01*
G01*
X4773094Y752520D02*
G03*
X4873826Y752520I50366J1860D01*
G01*
X3901440Y1145540D02*
G03*
X3957262Y1198880I0J55880D01*
G01*
X3949700Y1074420D02*
G03*
X3901440Y1122680I-48260J0D01*
G01*
Y1026160D02*
G03*
X3949700Y1074420I0J48260D01*
G01*
X3782890Y744910D02*
G03*
X3809831Y756070I0J38100D01*
G01*
X3782890Y744910D02*
G03*
X3809816Y756054I0J38100D01*
G01*
X3757220Y1511265D02*
G03*
X3759200Y1399540I1980J-55845D01*
G01*
X3560825Y1480565D02*
G03*
X3535680Y1490980I-25145J-25145D01*
G01*
X3560825Y1480565D02*
G03*
X3535680Y1490980I-25145J-25145D01*
G01*
X3181835Y1523065D02*
G03*
X3156690Y1533480I-25145J-25145D01*
G01*
X3181835Y1523065D02*
G03*
X3156690Y1533480I-25145J-25145D01*
G01*
X3385745Y1490980D02*
G03*
X3342640Y1511300I-43105J-35560D01*
G01*
X3144680Y1459641D02*
G03*
X3200400Y1399540I55720J-4221D01*
G01*
X3342640D02*
G03*
X3385745Y1419860I0J55880D01*
G01*
X3759200Y1384300D02*
G03*
X3704038Y1337351I0J-55880D01*
G01*
X3398520Y1328420D02*
G03*
X3342640Y1384300I-55880J0D01*
G01*
X3721700Y1286992D02*
G03*
X3759200Y1272540I37500J41428D01*
G01*
X3200400Y1384300D02*
G03*
X3157295Y1363980I0J-55880D01*
G01*
X3006536Y1303275D02*
G03*
X3031680Y1292860I25145J25145D01*
G01*
X3006536Y1303275D02*
G03*
X3031680Y1292860I25145J25145D01*
G01*
X3157295D02*
G03*
X3200400Y1272540I43105J35560D01*
G01*
X2879800Y1532731D02*
G03*
X2861915Y1523065I7259J-34811D01*
G01*
X2852980Y1529669D02*
G03*
X2879800Y1534761I4360J50211D01*
G01*
X2685514Y1782197D02*
G03*
X2675842Y1805545I-33020J0D01*
G01*
X2685514Y1782197D02*
G03*
X2675842Y1805545I-33020J0D01*
G01*
X2879800Y1624999D02*
G03*
X2852980Y1630091I-22460J-45119D01*
G01*
X2879800Y1532731D02*
G03*
X2861915Y1523065I7259J-34811D01*
G01*
X2486562Y1605509D02*
G03*
X2463214Y1615180I-23349J-23349D01*
G01*
X2486562Y1605509D02*
G03*
X2463214Y1615180I-23349J-23349D01*
G01*
X2821940Y1357660D02*
G03*
X2825112Y1342980I35560J0D01*
G01*
X2821940Y1357660D02*
G03*
X2825112Y1342980I35560J0D01*
G01*
X3759200Y1257300D02*
G03*
X3721700Y1242848I0J-55880D01*
G01*
Y1159992D02*
G03*
X3759200Y1145540I37500J41428D01*
G01*
X3469640Y1236980D02*
G03*
X3459225Y1262125I-35560J0D01*
G01*
X3371500Y1249271D02*
G03*
X3342640Y1257300I-28860J-47851D01*
G01*
X3469640Y1236980D02*
G03*
X3459225Y1262125I-35560J0D01*
G01*
X3362960Y1126475D02*
G03*
X3342640Y1130300I-20320J-52055D01*
G01*
X3759200Y1122680D02*
G03*
X3721700Y1104797I0J-48260D01*
G01*
Y1044043D02*
G03*
X3759200Y1026160I37500J30377D01*
G01*
X3200400Y1257300D02*
G03*
X3200400Y1145540I0J-55880D01*
G01*
X3179825Y1145285D02*
G03*
X3154680Y1155700I-25145J-25145D01*
G01*
X3179825Y1145285D02*
G03*
X3154680Y1155700I-25145J-25145D01*
G01*
X3218180Y1008380D02*
G03*
X3193035Y997965I0J-35560D01*
G01*
X3218180Y1008380D02*
G03*
X3193035Y997965I0J-35560D01*
G01*
X3144775Y1079755D02*
G03*
X3200400Y1018540I55625J-5335D01*
G01*
X3141448Y946377D02*
G03*
X3132547Y931500I25145J-25145D01*
G01*
X3141448Y946377D02*
G03*
X3132547Y931500I25145J-25145D01*
G01*
X2691911Y1223608D02*
G03*
X2685514Y1214594I23349J-23349D01*
G01*
X2691911Y1223608D02*
G03*
X2685514Y1214594I23349J-23349D01*
G01*
X2742598Y1004938D02*
G03*
X2843397Y1005070I50400J132D01*
G01*
D02*
G03*
X2826017Y1043147I-50400J0D01*
G01*
X2685514Y1006594D02*
G03*
X2742598Y1004938I29746J40685D01*
G01*
X2872740Y821110D02*
G03*
X2845815Y809966I0J-38100D01*
G01*
X2872740Y821110D02*
G03*
X2845799Y809951I0J-38100D01*
G01*
X2675842Y747005D02*
G03*
X2685514Y770354I-23349J23349D01*
G01*
X2675842Y747005D02*
G03*
X2685514Y770354I-23349J23349D01*
G01*
X2468190Y340360D02*
G03*
X2495131Y351519I0J38100D01*
G01*
X2468190Y340360D02*
G03*
X2495131Y351519I0J38100D01*
G01*
X2329180Y3269007D02*
G03*
X2341480Y3302000I-38100J32993D01*
G01*
D02*
G03*
X2252980Y3269007I-50400J0D01*
G01*
X2095100Y3246520D02*
G03*
X2006623Y3279540I-50400J0D01*
G01*
Y3213500D02*
G03*
X2095100Y3246520I38077J33020D01*
G01*
X1992176Y2635845D02*
G03*
X1920586Y2637018I-36376J-34885D01*
G01*
X1740117Y3653641D02*
G03*
X1828101Y3586480I45503J-31601D01*
G01*
X2077231Y2192749D02*
G03*
X2067561Y2169560I23349J-23349D01*
G01*
X2077231Y2192749D02*
G03*
X2067561Y2169560I23349J-23349D01*
G01*
X1693780Y2122120D02*
G03*
X1688499Y2144580I-50400J0D01*
G01*
X1424940Y3449320D02*
G03*
X1401591Y3439649I0J-33020D01*
G01*
X1424940Y3449320D02*
G03*
X1401591Y3439649I0J-33020D01*
G01*
X1435500Y3279540D02*
G03*
X1412151Y3269869I0J-33020D01*
G01*
X1435500Y3279540D02*
G03*
X1412151Y3269869I0J-33020D01*
G01*
X1157751Y3195809D02*
G03*
X1148080Y3172460I23349J-23349D01*
G01*
X1157751Y3195809D02*
G03*
X1148080Y3172460I23349J-23349D01*
G01*
X913440Y2743512D02*
G03*
X926055Y2776865I-37785J33353D01*
G01*
X875151Y2832489D02*
G03*
X775615Y2843702I-50400J0D01*
G01*
D02*
G03*
X676226Y2828747I-49123J-11272D01*
G01*
X926055Y2776865D02*
G03*
X874879Y2827259I-50400J0D01*
G01*
X963820Y2639980D02*
G03*
X941240Y2662560I-22580J0D01*
G01*
X883240Y2667380D02*
G03*
X913440Y2697580I0J30200D01*
G01*
X890840Y2662560D02*
G03*
X878940Y2659170I0J-22580D01*
G01*
X941240Y2603000D02*
G03*
X963820Y2625580I0J22580D01*
G01*
X878940Y2606391D02*
G03*
X890840Y2603000I11900J19190D01*
G01*
X676009Y2836307D02*
G03*
X575948Y2827710I-50400J0D01*
G01*
D02*
G03*
X495689Y2767372I-37468J-33710D01*
G01*
Y2767372D02*
G03*
X491534Y2760880I23152J-19392D01*
G01*
X286200Y2682841D02*
G03*
X313020Y2677749I22460J45119D01*
G01*
Y2778171D02*
G03*
X286200Y2773079I-4360J-50211D01*
G01*
X311820Y2666400D02*
G03*
X288471Y2656729I0J-33020D01*
G01*
X311820Y2666400D02*
G03*
X288471Y2656729I0J-33020D01*
G01*
X237256Y2605513D02*
G03*
X202301Y2515800I-3576J-50273D01*
G01*
X1296080Y2549726D02*
G03*
X1275080Y2544277I1860J-50366D01*
G01*
Y2454443D02*
G03*
X1296080Y2448994I22860J44917D01*
G01*
X511240Y2595380D02*
G03*
X523140Y2597824I0J30200D01*
G01*
X956904Y2515800D02*
G03*
X941240Y2520180I-15664J-25820D01*
G01*
X949060Y2446410D02*
G03*
X956904Y2449760I-7820J29170D01*
G01*
X890840Y2520180D02*
G03*
X878940Y2517736I0J-30200D01*
G01*
X523140D02*
G03*
X511240Y2520180I-11900J-27757D01*
G01*
X1143489Y2357609D02*
G03*
X1120140Y2367280I-23349J-23349D01*
G01*
X1143489Y2357609D02*
G03*
X1120140Y2367280I-23349J-23349D01*
G01*
X533240Y2337380D02*
G03*
X543020Y2339008I0J30200D01*
G01*
X491534Y2354680D02*
G03*
X518840Y2337380I27306J12900D01*
G01*
X543020Y2334800D02*
G03*
X552691Y2311452I33020J0D01*
G01*
X632990Y2231153D02*
G03*
X580930Y2200162I-5426J-50107D01*
G01*
X969865Y2023159D02*
G03*
X1027476Y2073040I7211J49882D01*
G01*
X580930Y2200162D02*
G03*
X506555Y2148663I-24532J-44027D01*
G01*
X543020Y2334800D02*
G03*
X552691Y2311452I33020J0D01*
G01*
X506555Y2148663D02*
G03*
X468165Y2067460I1484J-50378D01*
G01*
X444227Y2600360D02*
G03*
X460840Y2595380I16613J25220D01*
G01*
Y2520180D02*
G03*
X445176Y2515800I0J-30200D01*
G01*
X265059D02*
G03*
X284080Y2555240I-31379J39440D01*
G01*
X196921Y2515800D02*
G03*
X173573Y2506129I0J-33020D01*
G01*
X196921Y2515800D02*
G03*
X173573Y2506129I0J-33020D01*
G01*
X75711Y2408267D02*
G03*
X66040Y2384919I23349J-23349D01*
G01*
X75711Y2408267D02*
G03*
X66040Y2384919I23349J-23349D01*
G01*
X326482Y2322240D02*
G03*
X423780Y2303780I46898J-18460D01*
G01*
D02*
G03*
X420278Y2322240I-50400J0D01*
G01*
X313020Y2084751D02*
G03*
X286200Y2079659I-4360J-50211D01*
G01*
X2345640Y1682160D02*
G03*
X2305240Y1722560I-40400J0D01*
G01*
X2331646Y1651584D02*
G03*
X2345640Y1682160I-26406J30576D01*
G01*
X2338020Y1632160D02*
G03*
X2331646Y1651584I-32780J0D01*
G01*
X1854689Y1953749D02*
G03*
X1831340Y1963420I-23349J-23349D01*
G01*
X1854689Y1953749D02*
G03*
X1831340Y1963420I-23349J-23349D01*
G01*
X1927860Y1866900D02*
G03*
X1918189Y1890249I-33020J0D01*
G01*
X1927860Y1866900D02*
G03*
X1918189Y1890249I-33020J0D01*
G01*
X1861820Y1820438D02*
G03*
X1828628Y1820419I-16580J-28278D01*
G01*
X2345640Y1482160D02*
G03*
X2341899Y1499140I-40400J0D01*
G01*
X2333280Y1615180D02*
G03*
X2338020Y1632160I-28039J16980D01*
G01*
X2361458Y1455509D02*
G03*
X2341802Y1464973I-23349J-23349D01*
G01*
X2361458Y1455509D02*
G03*
X2341802Y1464973I-23349J-23349D01*
G01*
D02*
G03*
X2345640Y1482160I-36562J17187D01*
G01*
X2088020Y1450203D02*
G03*
X2093944Y1442526I32880J19249D01*
G01*
X2131060Y1320800D02*
G03*
X2142219Y1293859I38100J0D01*
G01*
X2131060Y1320800D02*
G03*
X2142204Y1293874I38100J0D01*
G01*
X2088020Y1450203D02*
G03*
X2093959Y1442511I32880J19249D01*
G01*
X1828628Y1820419D02*
G03*
X1821301Y1830707I-34268J-16653D01*
G01*
X1828628Y1820419D02*
G03*
X1821316Y1830692I-34268J-16653D01*
G01*
X1532794Y1722486D02*
G03*
X1498581Y1665180I2446J-40326D01*
G01*
X2151380Y1124360D02*
G03*
X2125816Y1118566I-6140J-32200D01*
G01*
X2123625Y1120908D02*
G03*
X2126583Y1137920I-47442J17012D01*
G01*
X2235640Y1058705D02*
G03*
X2314674Y1063418I37660J33495D01*
G01*
X2126583Y1137920D02*
G03*
X2026753Y1128082I-50400J0D01*
G01*
X2125816Y995754D02*
G03*
X2164664Y995754I19424J26406D01*
G01*
D02*
G03*
X2235640Y1022160I30576J26405D01*
G01*
X2078124Y985565D02*
G03*
X2125816Y995754I17116J36595D01*
G01*
X2068589Y965211D02*
G03*
X2078124Y985565I-23349J23349D01*
G01*
X2068589Y965211D02*
G03*
X2078124Y985565I-23349J23349D01*
G01*
X2011280Y1137920D02*
G03*
X1920240Y1167728I-50400J0D01*
G01*
D02*
G03*
X1829902Y1129535I-40640J-29808D01*
G01*
X1675237Y1137549D02*
G03*
X1686381Y1164475I-26956J26926D01*
G01*
X2010578Y1129535D02*
G03*
X2011280Y1137920I-49698J8385D01*
G01*
X1829902Y1129535D02*
G03*
X1820240Y1123896I15338J-37375D01*
G01*
X2026753Y1128082D02*
G03*
X2020240Y1123896I18487J-35922D01*
G01*
D02*
G03*
X2010578Y1129535I-25000J-31736D01*
G01*
X1675222Y1137534D02*
G03*
X1686381Y1164475I-26941J26941D01*
G01*
X1720240Y1123896D02*
G03*
X1670240Y1123896I-25000J-31736D01*
G01*
X1820240D02*
G03*
X1770240Y1123896I-25000J-31736D01*
G01*
D02*
G03*
X1720240Y1123896I-25000J-31736D01*
G01*
X2334260Y419100D02*
G03*
X2357609Y428771I0J33020D01*
G01*
X2334260Y419100D02*
G03*
X2357609Y428771I0J33020D01*
G01*
X1884720Y795020D02*
G03*
X1908069Y804691I0J33020D01*
G01*
X1884720Y795020D02*
G03*
X1908069Y804691I0J33020D01*
G01*
X1497118Y1211635D02*
G03*
X1504282Y1206202I23349J23349D01*
G01*
X1508834Y1201584D02*
G03*
X1508834Y1162736I26405J-19424D01*
G01*
X1497118Y1211635D02*
G03*
X1504282Y1206202I23349J23349D01*
G01*
X1508834Y1162736D02*
G03*
X1535240Y1091760I26406J-30576D01*
G01*
X1409889Y804691D02*
G03*
X1433238Y795020I23349J23349D01*
G01*
X1231900Y996358D02*
G03*
X1241571Y973009I33020J0D01*
G01*
X1231900Y996358D02*
G03*
X1241571Y973009I33020J0D01*
G01*
X1409889Y804691D02*
G03*
X1433238Y795020I23349J23349D01*
G01*
X898934Y1978358D02*
G03*
X969865Y2023159I20546J46022D01*
G01*
X963820Y1946560D02*
G03*
X941240Y1969140I-22580J0D01*
G01*
X883240Y1973960D02*
G03*
X898934Y1978358I0J30200D01*
G01*
X890840Y1969140D02*
G03*
X878940Y1965750I0J-22580D01*
G01*
X941240Y1909580D02*
G03*
X963820Y1932160I0J22580D01*
G01*
X878940Y1912971D02*
G03*
X890840Y1909580I11900J19190D01*
G01*
Y1826760D02*
G03*
X878940Y1824316I0J-30200D01*
G01*
X491534Y1991260D02*
G03*
X506140Y1976760I27306J12900D01*
G01*
X460840D02*
G03*
X438820Y1967228I0J-30200D01*
G01*
X438283Y1966640D02*
G03*
X430640Y1946626I22557J-20080D01*
G01*
Y1946626D02*
G03*
X499980Y1899920I18940J-46706D01*
G01*
X511240Y1901960D02*
G03*
X523140Y1904404I0J30200D01*
G01*
Y1824316D02*
G03*
X511240Y1826760I-11900J-27757D01*
G01*
X460840D02*
G03*
X445176Y1822380I0J-30200D01*
G01*
X956904D02*
G03*
X941240Y1826760I-15664J-25820D01*
G01*
X533240Y1643960D02*
G03*
X551040Y1649764I0J30200D01*
G01*
X898825Y1402247D02*
G03*
X901242Y1417667I-47983J15420D01*
G01*
X902742Y1302921D02*
G03*
X967340Y1351280I14198J48359D01*
G01*
D02*
G03*
X902566Y1399587I-50400J0D01*
G01*
X683074Y1518321D02*
G03*
X661911Y1496999I23565J-44552D01*
G01*
X661911D02*
G03*
X576347Y1456954I-35331J-35942D01*
G01*
X901242Y1417667D02*
G03*
X894575Y1442720I-50400J0D01*
G01*
X576347Y1456954D02*
G03*
X524040Y1406580I-1907J-50364D01*
G01*
X491534Y1661260D02*
G03*
X518840Y1643960I27306J12900D01*
G01*
X426320Y1610360D02*
G03*
X423740Y1626280I-50400J0D01*
G01*
X328100D02*
G03*
X426320Y1610360I47820J-15920D01*
G01*
X518840Y1406580D02*
G03*
X491534Y1389280I0J-30200D01*
G01*
Y1313080D02*
G03*
X506140Y1298580I27306J12900D01*
G01*
X286200Y1989421D02*
G03*
X313020Y1984329I22460J45119D01*
G01*
X201672Y1822380D02*
G03*
X178323Y1812709I0J-33020D01*
G01*
X201672Y1822380D02*
G03*
X178323Y1812709I0J-33020D01*
G01*
X315560Y1406571D02*
G03*
X288740Y1401479I-4360J-50211D01*
G01*
Y1311241D02*
G03*
X315560Y1306149I22460J45119D01*
G01*
X963820Y1268380D02*
G03*
X941240Y1290960I-22580J0D01*
G01*
X883240Y1295780D02*
G03*
X902742Y1302921I0J30200D01*
G01*
X890840Y1290960D02*
G03*
X878940Y1287570I0J-22580D01*
G01*
X941240Y1231400D02*
G03*
X963820Y1253980I0J22580D01*
G01*
X956904Y1144200D02*
G03*
X941240Y1148580I-15664J-25820D01*
G01*
X949060Y1074810D02*
G03*
X956904Y1078160I-7820J29170D01*
G01*
X890840Y1148580D02*
G03*
X878940Y1146136I0J-30200D01*
G01*
Y1234791D02*
G03*
X890840Y1231400I11900J19190D01*
G01*
X460840Y1298580D02*
G03*
X441360Y1291458I0J-30200D01*
G01*
X438283Y1288460D02*
G03*
X430640Y1268380I22557J-20080D01*
G01*
Y1253980D02*
G03*
X436248Y1236451I30200J0D01*
G01*
D02*
G03*
X523140Y1186716I46352J-19791D01*
G01*
Y1146136D02*
G03*
X511240Y1148580I-11900J-27757D01*
G01*
X460840D02*
G03*
X445176Y1144200I0J-30200D01*
G01*
X658532Y419100D02*
G03*
X721333Y340360I29808J-40640D01*
G01*
X533240Y965780D02*
G03*
X543020Y967408I0J30200D01*
G01*
X491534Y983080D02*
G03*
X518840Y965780I27306J12900D01*
G01*
X428860Y934720D02*
G03*
X427051Y948100I-50400J0D01*
G01*
X543020Y729520D02*
G03*
X552691Y706172I33020J0D01*
G01*
X543020Y729520D02*
G03*
X552691Y706172I33020J0D01*
G01*
X329869Y948100D02*
G03*
X428860Y934720I48591J-13380D01*
G01*
X204358Y1144200D02*
G03*
X181010Y1134529I0J-33020D01*
G01*
X204358Y1144200D02*
G03*
X181010Y1134529I0J-33020D01*
G01*
X233266Y428771D02*
G03*
X256615Y419100I23349J23349D01*
G01*
X66040Y609675D02*
G03*
X75711Y586326I33020J0D01*
G01*
X66040Y609675D02*
G03*
X75711Y586326I33020J0D01*
G01*
X233266Y428771D02*
G03*
X256615Y419100I23349J23349D01*
G01*
X4819043Y3586480D02*
X4969617Y3435906D01*
X4747201Y3586480D02*
X4969617Y3364064D01*
X4838109Y3586480D02*
X4969617Y3454971D01*
X4675359Y3586480D02*
X4969617Y3292222D01*
X4603517Y3586480D02*
X4969617Y3220380D01*
X4531675Y3586480D02*
X4937577Y3180578D01*
X4387990Y3586480D02*
X4793893Y3180578D01*
X4401894D02*
X4807796Y3586480D01*
X4330052Y3180578D02*
X4735954Y3586480D01*
X4459833D02*
X4865735Y3180578D01*
X4473736D02*
X4858873Y3565715D01*
X4904789Y3180578D02*
X4969617Y3245406D01*
X4950211Y3178606D02*
X4958612Y3172992D01*
X4940300Y3180578D02*
X4950211Y3178606D01*
X4969617Y3161988D02*
Y3454971D01*
X4958612Y3172992D02*
X4969617Y3161988D01*
X4963829Y3167776D02*
X4969617Y3173564D01*
X4617420Y3180578D02*
X4930716Y3493873D01*
X4689262Y3180578D02*
X4966636Y3457952D01*
X4545578Y3180578D02*
X4894794Y3529794D01*
X4832946Y3180578D02*
X4969617Y3317248D01*
X4761104Y3180578D02*
X4969617Y3389091D01*
X4172464Y3586480D02*
X4578367Y3180578D01*
X4186367D02*
X4592270Y3586480D01*
X4114525Y3180578D02*
X4520428Y3586480D01*
X4258209Y3180578D02*
X4664112Y3586480D01*
X4316148D02*
X4722051Y3180578D01*
X4244306Y3586480D02*
X4650209Y3180578D01*
X3970841D02*
X4376743Y3586480D01*
X4028780D02*
X4434682Y3180578D01*
X3956938Y3586480D02*
X4362840Y3180578D01*
X4100622Y3586480D02*
X4506524Y3180578D01*
X4042683D02*
X4448585Y3586480D01*
X4161383Y2950982D02*
X4228602Y2883763D01*
X4128020Y2862180D02*
X4228602D01*
X4190433Y2950982D02*
X4228602Y2912813D01*
Y2862180D02*
Y2912813D01*
X4155338Y2862180D02*
X4217287Y2924129D01*
X4017698Y2950982D02*
X4128020Y2840661D01*
X4089540Y2950982D02*
X4178343Y2862180D01*
X3928700Y2922910D02*
X3956772Y2950982D01*
X3928700Y2835138D02*
X4005580D01*
X3928700Y2896296D02*
X3989859Y2835138D01*
X4989703Y2607455D02*
X5020841Y2638593D01*
X4998754Y2616506D02*
X5020841Y2594419D01*
X4957400Y2586018D02*
X5020841Y2522577D01*
X4957400Y2569700D02*
Y2597040D01*
X4800153Y2599580D02*
X4821600Y2578134D01*
X4957400Y2586610D02*
X4967996Y2597206D01*
X4797380Y2599580D02*
X4821600D01*
Y2569700D02*
Y2599580D01*
X4797380Y2570274D02*
X4821600Y2594494D01*
Y2569700D02*
X4957400D01*
X4901876D02*
X5020841Y2450734D01*
X4821600Y2578134D02*
X4830034Y2569700D01*
X4806178Y2291703D02*
X5020841Y2506367D01*
X4830034Y2569700D02*
X5020841Y2378892D01*
X4806178Y2363545D02*
X5020841Y2578209D01*
X4806178Y2435388D02*
X4940490Y2569700D01*
X4806178Y2507230D02*
X4868648Y2569700D01*
X4800754Y2527137D02*
X5020841Y2307050D01*
X4806178Y2254073D02*
Y2512060D01*
X4036380Y2815064D02*
X4172298Y2950982D01*
X4108222Y2743222D02*
X4128020Y2763020D01*
X4072301Y2779143D02*
X4128020Y2834862D01*
X4797380Y2569700D02*
Y2599580D01*
X4778035Y2550929D02*
X4796806Y2569700D01*
X4128020Y2723425D02*
Y2862180D01*
X3984612Y2835138D02*
X4100456Y2950982D01*
X4015491Y2833166D02*
X4023892Y2827552D01*
X4005580Y2835138D02*
X4015491Y2833166D01*
X4023892Y2827552D02*
X4128020Y2723425D01*
X3945856Y2950982D02*
X4128020Y2768819D01*
X4760492Y2568472D02*
X4798592Y2530372D01*
X4804206Y2521971D01*
X4758655Y2569700D02*
X4797380D01*
X4804206Y2521971D02*
X4806178Y2512060D01*
X3984762Y2202180D02*
Y2465773D01*
X3928700Y2503942D02*
X3946593D01*
X3984762Y2465773D01*
X3928700Y2491858D02*
X3940785Y2503942D01*
X3928700Y2420015D02*
X3979610Y2470925D01*
X3928700Y2399520D02*
Y2503942D01*
X3669569Y3586480D02*
X4075472Y3180578D01*
X3683472D02*
X4089375Y3586480D01*
X3611630Y3180578D02*
X4017533Y3586480D01*
X3755315Y3180578D02*
X4161217Y3586480D01*
X3813253D02*
X4219156Y3180578D01*
X3741411Y3586480D02*
X4147314Y3180578D01*
X3467946D02*
X3873848Y3586480D01*
X3525885D02*
X3931787Y3180578D01*
X3454043Y3586480D02*
X3859945Y3180578D01*
X3597727Y3586480D02*
X4003630Y3180578D01*
X3539788D02*
X3945691Y3586480D01*
X3885096D02*
X4290998Y3180578D01*
X3898999D02*
X4304901Y3586480D01*
X3827157Y3180578D02*
X4233059Y3586480D01*
X3874014Y2950982D02*
X3886596Y2938400D01*
X3872348D02*
X3884930Y2950982D01*
X3167380Y3180578D02*
X4940300D01*
X3675947Y2950982D02*
X4190433D01*
X3802172D02*
X3814754Y2938400D01*
X3808140D02*
X3928700D01*
X3382201Y3586480D02*
X3788103Y3180578D01*
X3396104D02*
X3802006Y3586480D01*
X3324262Y3180578D02*
X3730164Y3586480D01*
X3730330Y2950982D02*
X3742912Y2938400D01*
X3776300Y2914195D02*
X3813088Y2950982D01*
X3728663Y2938400D02*
X3741246Y2950982D01*
X3180578Y3180578D02*
X3586480Y3586480D01*
X3238517D02*
X3644419Y3180578D01*
X3180578D02*
X3586480Y3586480D01*
X3310359D02*
X3716261Y3180578D01*
X3252420D02*
X3658322Y3586480D01*
X3662431Y2940254D02*
X3670832Y2945868D01*
X3655740Y2938400D02*
X3776300D01*
X3652520Y2938282D02*
X3662431Y2940254D01*
X3618318Y2899896D02*
X3655740Y2937319D01*
X3621789Y2899206D02*
X3630191Y2893592D01*
X3506442Y2938282D02*
X3652520D01*
X3514191Y2901177D02*
X3611878D01*
X3547756D02*
X3584862Y2938282D01*
X3599346D02*
X3655740Y2881888D01*
X3611878Y2901177D02*
X3621789Y2899206D01*
X3928700Y2851068D02*
X4028614Y2950982D01*
X3808140Y2835138D02*
Y2938400D01*
X3928700Y2835138D02*
Y2938400D01*
X3776300Y2424905D02*
Y2503942D01*
Y2905012D02*
X3808140Y2873172D01*
X3776300Y2842352D02*
X3808140Y2874192D01*
X3776300Y2835138D02*
X3808140D01*
X3776300D02*
Y2938400D01*
X3928700Y2465244D02*
X3984762Y2409181D01*
X3776300Y2483142D02*
X3797101Y2503942D01*
X3776300D02*
X3808140D01*
Y2399520D02*
Y2503942D01*
X3776300Y2473959D02*
X3808140Y2442120D01*
X3630191Y2893592D02*
X3655740Y2868043D01*
Y2938400D01*
X3591062Y2573020D02*
X3591062Y2712153D01*
X3575788Y2727428D02*
X3591062Y2712153D01*
X3550638Y2699621D02*
X3591062Y2659197D01*
X3550638Y2616691D02*
X3591062Y2657115D01*
X3550638Y2688533D02*
X3582660Y2720555D01*
X3554147Y2548357D02*
X3591062Y2585272D01*
X3550638Y2627779D02*
X3591062Y2587355D01*
X3598647Y2554708D02*
X3641828Y2511528D01*
X3650229Y2505914D01*
X3593033Y2563109D02*
X3598647Y2554708D01*
X3655740Y2426116D02*
Y2504818D01*
X3554147Y2552428D02*
X3655740Y2450835D01*
X3554147Y2476515D02*
X3615493Y2537862D01*
X3591062Y2573020D02*
X3593033Y2563109D01*
X3575590Y2426116D02*
X3654532Y2505058D01*
X3554147Y2480586D02*
X3608617Y2426116D01*
X4859206Y2201047D02*
X5020841Y2362683D01*
X4895127Y2165126D02*
X5020841Y2290840D01*
X4823285Y2236969D02*
X5020841Y2434525D01*
X4928182Y2126339D02*
X5020841Y2218998D01*
X4953305Y2079620D02*
X5020841Y2147156D01*
X4806512Y2253741D02*
X4918501Y2141752D01*
X4806178Y2449872D02*
X5020841Y2235208D01*
X4806178Y2378030D02*
X5020841Y2163366D01*
X4773592Y2133468D02*
X4792716Y2152591D01*
X4806178Y2306187D02*
X5020841Y2091524D01*
X4792716Y2152591D02*
X4849160Y2096146D01*
Y2079620D02*
Y2096146D01*
X4930440Y2110083D02*
X4960903Y2079620D01*
X4930440D02*
X4965200D01*
X4930440D02*
Y2112980D01*
X4765191Y2127854D02*
X4773592Y2133468D01*
X4755280Y2125882D02*
X4765191Y2127854D01*
X4699431Y2125882D02*
X4755280D01*
X4814400Y2079620D02*
X4849160D01*
X4767465Y2129373D02*
X4817218Y2079620D01*
X4141420Y2125882D02*
X4211420D01*
X4274920D01*
X4141420D02*
X4211420D01*
X4274920D02*
X4344920D01*
X4407920D01*
X4274920D02*
X4344920D01*
X3992348Y2183868D02*
X4005580Y2170635D01*
X4086860Y2125882D02*
X4141420D01*
X3986734Y2192269D02*
X3992348Y2183868D01*
X4086860Y2075281D02*
X4137462Y2125882D01*
X4005580Y2092960D02*
Y2170635D01*
X4611420Y2125882D02*
X4647769D01*
X4555430D02*
X4601692Y2079620D01*
X4567100D02*
X4652500D01*
X4594094D02*
X4640357Y2125882D01*
X4407920D02*
X4477920D01*
X4541420D01*
X4407920D02*
X4477920D01*
X4541420D02*
X4611420D01*
X4541420D02*
X4611420D01*
X4965200Y2075323D02*
X5020841Y2019682D01*
X4965200Y2019673D02*
X5020841Y2075314D01*
X4707155Y1977154D02*
X4837654Y2107653D01*
X4965200Y1948820D02*
Y2079620D01*
X4743018Y1941175D02*
X4814400Y2012557D01*
Y1948820D02*
Y2079620D01*
X4685200Y2027042D02*
X4801732Y2143574D01*
X4659218Y2072902D02*
X4712199Y2125882D01*
X4652500Y2079620D02*
X4685200Y2046920D01*
X4699232Y2125765D02*
X4814400Y2010597D01*
X4685200Y1999109D02*
Y2046920D01*
X4965200Y2003481D02*
X5020841Y1947840D01*
X4814400Y1948820D02*
X4965200D01*
X4790705Y1917020D02*
X4822505Y1948820D01*
X4948019D02*
X5020841Y1875998D01*
X4806460Y1860933D02*
X4894347Y1948820D01*
X4685200Y1999109D02*
X4741365Y1942945D01*
X4751780Y1917020D02*
X4806460D01*
X4748417Y1932895D02*
X4764292Y1917020D01*
X4483588Y2125882D02*
X4548475Y2060995D01*
X4534400Y2046920D02*
X4567100Y2079620D01*
X4411746Y2125882D02*
X4534400Y2003228D01*
X4339903Y2125882D02*
X4548766Y1917020D01*
X4534400Y1981520D02*
X4567100Y1948820D01*
X4534400Y1981520D02*
Y2046920D01*
X4086860Y2003438D02*
X4209304Y2125882D01*
X4086860Y1931596D02*
X4281146Y2125882D01*
X4086860Y2057400D02*
Y2125882D01*
X4268061D02*
X4535660Y1858284D01*
X4086860Y1859754D02*
X4352988Y2125882D01*
X4680660Y1870000D02*
Y1903070D01*
Y1870000D02*
Y1903070D01*
X4647021Y1917020D02*
X4656865Y1926865D01*
X4661460Y1876168D02*
X4680660Y1856968D01*
X4661460Y1859618D02*
X4680660Y1878817D01*
X4567100Y1948820D02*
X4634911D01*
X4535660Y1917020D02*
X4661460D01*
X4575179D02*
X4606978Y1948820D01*
X4634911D02*
X4680660Y1903070D01*
X4588808Y1948820D02*
X4620608Y1917020D01*
X3866585Y2357900D02*
X3908205Y2399520D01*
X3849757Y2357900D02*
X3938860D01*
X3850740Y2399520D02*
X3892359Y2357900D01*
X3938427D02*
X3984762Y2404236D01*
X3922582Y2399520D02*
X3984762Y2337339D01*
X3938860Y2232100D02*
Y2357900D01*
X3785778Y2420778D02*
X3808140Y2443140D01*
Y2399520D02*
X3928700D01*
X3791369Y2416288D02*
X3849757Y2357900D01*
X3822250Y2385407D02*
X3836362Y2399520D01*
X3938860Y2286491D02*
X3984762Y2332394D01*
X3938860Y2311399D02*
X3984762Y2265497D01*
X3803060Y2232100D02*
Y2311203D01*
X3929491Y2205280D02*
X3984762Y2260551D01*
X3803060Y2232100D02*
X3938860D01*
X3786460Y2320115D02*
X3803060Y2303515D01*
X3786460Y2277775D02*
X3803060Y2294375D01*
X3786460Y2327803D02*
X3803060Y2311203D01*
X3786460Y2248273D02*
X3829453Y2205280D01*
X3786460Y2205933D02*
X3812627Y2232100D01*
X3647432Y2426116D02*
X3655740Y2434424D01*
X3634060Y2256989D02*
X3650660Y2240389D01*
X3786460Y2232100D02*
Y2327803D01*
X3650660Y2240389D02*
X3658949Y2232100D01*
X3650660D02*
Y2307610D01*
X3574342Y2426116D02*
X3655740D01*
X3634060Y2269060D02*
X3650660Y2285660D01*
X3634060Y2324210D02*
X3650660Y2307610D01*
X3634060Y2232100D02*
Y2324210D01*
X3577901Y2212900D02*
X3597101Y2232100D01*
X3765927Y2232100D02*
X3786460D01*
X3658949D02*
X3668714Y2222335D01*
X3768921Y2212900D02*
X3786460D01*
X3650660Y2232100D02*
X3671193D01*
X3498260Y2212900D02*
X3634060D01*
X3498260Y2232100D02*
X3634060D01*
X3650660Y2212900D02*
X3668199D01*
X3587107Y2232100D02*
X3606306Y2212900D01*
X3938860Y2239557D02*
X3987913Y2190504D01*
X3931240Y2135187D02*
X3987370Y2191317D01*
X3984762Y2202180D02*
X3986734Y2192269D01*
X3931240Y2175335D02*
X4005580Y2100995D01*
X3960855Y2092960D02*
X4005580Y2137685D01*
X3931240Y2094720D02*
Y2205280D01*
X3874475Y2232100D02*
X3901295Y2205280D01*
X3810680D02*
X3931240D01*
X3857649D02*
X3884469Y2232100D01*
X3946000Y2016891D02*
X4005580Y1957311D01*
X3946000Y1934420D02*
X4005580Y1994001D01*
X3946000Y2021840D02*
X4005580D01*
X3946000Y1862578D02*
X4005580Y1922158D01*
X3946000Y1945049D02*
X4005580Y1885469D01*
X3810680Y2094720D02*
X3931240D01*
X3914140Y2092960D02*
X4005580D01*
X3786460D02*
X3914140D01*
X3946000Y2006262D02*
X3961577Y2021840D01*
X3931240Y2103493D02*
X3941773Y2092960D01*
X3786460Y2134091D02*
X3810680Y2158311D01*
X3786460Y2176431D02*
X3810680Y2152211D01*
Y2094720D02*
Y2205280D01*
X3786460Y2092960D02*
Y2212900D01*
X3634060Y2197218D02*
X3668942Y2232100D01*
X3634060Y2185147D02*
X3650660Y2168547D01*
X3634060Y2137390D02*
Y2212900D01*
X3650660Y2120790D02*
Y2212900D01*
X3640067Y2131383D02*
X3650660Y2141975D01*
X3663760Y2021840D02*
X3874880D01*
X3869209D02*
X3874880Y2016169D01*
X3786460Y2104589D02*
X3798089Y2092960D01*
X3725525Y2021840D02*
X3874880Y1872485D01*
X3797367Y2021840D02*
X3874880Y1944327D01*
X3634060Y2137390D02*
X3650660Y2120790D01*
X3583771Y2087100D02*
X3638616Y2032255D01*
X3498260Y2087100D02*
X3583771D01*
X3507607Y2932870D02*
X3513019Y2938282D01*
X3508539Y2919789D02*
Y2928184D01*
X3506568Y2938094D02*
X3508539Y2928184D01*
X3527503Y2938282D02*
X3564609Y2901177D01*
X3241757Y2792397D02*
X3280968Y2831608D01*
X2951148Y3586480D02*
X3357050Y3180578D01*
X3022990Y3586480D02*
X3428893Y3180578D01*
X2879306Y3586480D02*
X3285208Y3180578D01*
X3166674Y3586480D02*
X3572577Y3180578D01*
X3094832Y3586480D02*
X3500735Y3180578D01*
X3557973Y2745242D02*
X3575788Y2727428D01*
X3280968Y2763728D02*
Y2831608D01*
X3550638Y2585513D02*
Y2745242D01*
X3275078Y2576168D02*
Y2585513D01*
Y2763728D01*
X3241757Y2738862D02*
X3280968Y2778073D01*
X3241757Y2667020D02*
X3275078Y2700341D01*
X3241757Y2721135D02*
X3275078Y2687813D01*
X3241757Y2595177D02*
X3275078Y2628499D01*
X3241757Y2649292D02*
X3275078Y2615971D01*
X3157469Y3178606D02*
X3167380Y3180578D01*
X3149067Y3172992D02*
X3157469Y3178606D01*
X3123667Y3147592D02*
X3149067Y3172992D01*
X3118053Y3139190D02*
X3123667Y3147592D01*
X3116082Y2984500D02*
X3118054Y2974589D01*
X3116082Y3129279D02*
X3116082Y2984500D01*
X3116082Y3129279D02*
X3118053Y3139190D01*
X3044238Y2972396D02*
X3116082Y3044240D01*
X2970628Y2970628D02*
X3116082Y3116082D01*
X2970628Y2970628D02*
X3116082Y3116082D01*
X2969608Y2970425D02*
X2979518Y2972396D01*
X3119519D01*
X2961206Y2964811D02*
X2969608Y2970425D01*
X2917928Y2921532D02*
X2961206Y2964811D01*
X3242046Y2792687D02*
X3275078Y2759655D01*
X2912314Y2913131D02*
X2917928Y2921532D01*
X2910342Y2903220D02*
X2912314Y2913131D01*
X2875778Y2727903D02*
X2910342Y2693338D01*
X2875778Y2803935D02*
X2910342Y2838500D01*
X2875778Y2588409D02*
X2910342Y2622974D01*
X2875778Y2656061D02*
X2910342Y2621496D01*
X3550638Y2576168D02*
Y2585513D01*
X3241757Y2523335D02*
X3273348Y2554926D01*
X3241757Y2577450D02*
X3273348Y2545859D01*
Y2454713D02*
Y2585513D01*
X3554147Y2454713D02*
Y2585513D01*
X3241757Y2517359D02*
Y2792397D01*
X3239785Y2507448D02*
X3241757Y2517359D01*
X3239807Y2507558D02*
X3273348Y2474017D01*
X3234171Y2499047D02*
X3239785Y2507448D01*
X3221043Y2430780D02*
X3273348Y2483084D01*
X3188232Y2453108D02*
X3234171Y2499047D01*
X3546767Y2453690D02*
X3574342Y2426116D01*
X3358527Y2357900D02*
X3380727Y2380101D01*
X3373996Y2373369D02*
X3380727Y2366637D01*
Y2357900D02*
Y2380101D01*
X3363690Y2357900D02*
X3380727Y2374938D01*
X3279140Y2436837D02*
Y2454713D01*
X3059320Y2430780D02*
X3273083D01*
X3179831Y2447494D02*
X3188232Y2453108D01*
X3273083Y2430780D02*
X3279140Y2436837D01*
X3205324Y2470199D02*
X3244743Y2430780D01*
X2912314Y2486909D02*
X2917928Y2478508D01*
X2943328Y2453108D01*
X2910342Y2496820D02*
X2912314Y2486909D01*
X2951729Y2447494D02*
X2961640Y2445522D01*
X3169920D02*
X3179831Y2447494D01*
X2943328Y2453108D02*
X2951729Y2447494D01*
X2910342Y2496820D02*
Y2903220D01*
X2875778Y2516567D02*
X2910342Y2551132D01*
X2875778Y2584219D02*
X2910342Y2549654D01*
X2875778Y2512376D02*
X3001508Y2386646D01*
X2875778Y2476500D02*
Y2867660D01*
X3086316Y2445522D02*
X3101058Y2430780D01*
X3149201D02*
X3163944Y2445522D01*
X3077359Y2430780D02*
X3092102Y2445522D01*
X3158158D02*
X3172900Y2430780D01*
X2961640Y2445522D02*
X3169920D01*
X3014474D02*
X3037475Y2422521D01*
X2972763Y2357900D02*
X3035971Y2421109D01*
X2932637Y2357900D02*
X3020259Y2445522D01*
X2740139Y3458560D02*
X2868059Y3586480D01*
X2807464D02*
X3213366Y3180578D01*
X2723844Y3514108D02*
X2796217Y3586480D01*
X2698351Y2913878D02*
X3370954Y3586480D01*
X2770193Y2913878D02*
X3442796Y3586480D01*
X2735622D02*
X3149093Y3173009D01*
X2663780Y3586480D02*
X3116894Y3133365D01*
X2587969Y2947180D02*
X3227269Y3586480D01*
X2444285Y2947180D02*
X3083585Y3586480D01*
X2653620Y2940989D02*
X3299112Y3586480D01*
X2498680Y2929733D02*
X3155427Y3586480D01*
X2733236Y3445181D02*
X3116082Y3062336D01*
X2694940Y2913878D02*
X2829560D01*
X2839826Y2911669D02*
X3514638Y3586480D01*
X2839471Y2911906D02*
X2847872Y2906292D01*
X2829560Y2913878D02*
X2839471Y2911906D01*
X2685476Y3421099D02*
X3116082Y2990493D01*
X2649555Y3385178D02*
X3062337Y2972396D01*
X2609535Y3353356D02*
X2990495Y2972396D01*
X2538249Y3352800D02*
X2943722Y2947327D01*
X2466407Y3352800D02*
X2911279Y2907928D01*
X2595385Y3457491D02*
X2724375Y3586480D01*
X2591937D02*
X2662861Y3515556D01*
X2589823Y3418840D02*
X2642127Y3471144D01*
X2593680Y3441053D02*
X2602858Y3431875D01*
X2520095Y3586480D02*
X2638779Y3467796D01*
X2566209Y3500157D02*
X2652532Y3586480D01*
X2448253D02*
X2531733Y3503000D01*
X2443530Y3449320D02*
X2580690Y3586480D01*
X2626849Y3362471D02*
X2688824Y3424447D01*
X2685029Y2911906D02*
X2694940Y2913878D01*
X2676628Y2906292D02*
X2685029Y2911906D01*
X2580796Y3418840D02*
X2589823D01*
X2533060Y2947180D02*
X2653620D01*
X2874431Y2874431D02*
X2912111Y2912111D01*
X2874431Y2874431D02*
X2912111Y2912111D01*
X2874802Y2872562D02*
X2910342Y2837022D01*
X2875778Y2732093D02*
X2910342Y2766658D01*
X2875778Y2660251D02*
X2910342Y2694816D01*
X2875778Y2799745D02*
X2910342Y2765180D01*
X2868192Y2885972D02*
X2873806Y2877571D01*
X2875778Y2867660D01*
X2847872Y2906292D02*
X2868192Y2885972D01*
X2788953Y2357900D02*
X2914576Y2483523D01*
X2873806Y2466589D02*
X2875778Y2476500D01*
X2868192Y2458188D02*
X2873806Y2466589D01*
X2852952Y2442948D02*
X2868192Y2458188D01*
X2844551Y2437334D02*
X2852952Y2442948D01*
X2863158Y2453154D02*
X2958412Y2357900D01*
X2860795D02*
X2950926Y2448031D01*
X2834640Y2435362D02*
X2844551Y2437334D01*
X2692400Y2435362D02*
X2834640D01*
X2737265D02*
X2814728Y2357900D01*
X2809107Y2435362D02*
X2888660Y2355810D01*
X2579124Y2219913D02*
X2794573Y2435362D01*
X2656308Y2885972D02*
X2676628Y2906292D01*
X2656308Y2460728D02*
X2674088Y2442948D01*
X2653620Y2881950D02*
Y2947180D01*
Y2405760D02*
Y2464750D01*
Y2438094D02*
X2666281Y2450754D01*
X2498680Y2857891D02*
X2533060Y2892271D01*
X2498680Y2889474D02*
X2533060Y2855094D01*
X2498680Y2845298D02*
Y2947180D01*
X2533060Y2845298D02*
Y2947180D01*
X2498680Y2845298D02*
X2533060D01*
X2653620Y2447166D02*
X2742886Y2357900D01*
X2682489Y2437334D02*
X2692400Y2435362D01*
X2674088Y2442948D02*
X2682489Y2437334D01*
X2551346Y2405760D02*
X2744206Y2212900D01*
X2623189Y2405760D02*
X2736260Y2292689D01*
X2547620Y2260252D02*
X2722731Y2435362D01*
X2547620Y2405760D02*
X2653620D01*
X2547620Y2332094D02*
X2621286Y2405760D01*
X2547620Y2251417D02*
Y2405760D01*
X2481580Y2237740D02*
Y2405760D01*
X3489305Y2258060D02*
X3498260Y2249105D01*
Y2232100D02*
Y2258060D01*
X3481660D02*
X3498260D01*
X3506059Y2212900D02*
X3525258Y2232100D01*
X3515264D02*
X3534464Y2212900D01*
X3481660Y2232100D02*
Y2258060D01*
X3345860Y2345233D02*
X3358527Y2357900D01*
X3380727D01*
X3321640Y2282040D02*
X3345860Y2257820D01*
X3354754Y2205280D02*
X3381574Y2232100D01*
X3321640Y2244008D02*
X3345860Y2268228D01*
X3426596Y2205280D02*
X3453416Y2232100D01*
X3443423D02*
X3470242Y2205280D01*
X3371581Y2232100D02*
X3398400Y2205280D01*
X3498260Y2205102D02*
X3506059Y2212900D01*
X3474040Y2201483D02*
X3498260Y2177263D01*
X3474040Y2180882D02*
X3498260Y2205102D01*
X3345860Y2232100D02*
X3481660D01*
X3353480Y2205280D02*
X3474040D01*
X3329260Y2179786D02*
X3353480Y2204006D01*
X3329260Y2202578D02*
X3353480Y2178358D01*
X3337902Y2337620D02*
X3345860Y2329663D01*
Y2232100D02*
Y2345233D01*
X3321640Y2315850D02*
X3345860Y2340070D01*
X3321640Y2239720D02*
Y2330860D01*
X3161811Y2354478D02*
X3172074Y2364740D01*
X3140543Y2350280D02*
X3155003Y2364740D01*
X3218690Y2212900D02*
X3245510Y2239720D01*
X3218180Y2221200D02*
Y2239720D01*
X3290532Y2212900D02*
X3317352Y2239720D01*
X3218180D02*
X3321640D01*
X3220276D02*
X3247096Y2212900D01*
X3318938D02*
X3329260Y2202578D01*
X3292118Y2239720D02*
X3318938Y2212900D01*
X3130163D02*
X3152140Y2234877D01*
X3217120Y2212900D02*
X3329260D01*
X3176860Y2166203D02*
X3193460Y2182803D01*
X3474040Y2109040D02*
X3498260Y2133260D01*
X3474040Y2129640D02*
X3498260Y2105420D01*
Y2087100D02*
Y2212900D01*
X3474040Y2094720D02*
Y2205280D01*
X3329260Y2130736D02*
X3353480Y2106516D01*
X3329260Y2107944D02*
X3353480Y2132164D01*
Y2094720D02*
Y2205280D01*
X3329260Y2087100D02*
Y2212900D01*
X3320560Y2027402D02*
X3387878Y2094720D01*
X3353480D02*
X3474040D01*
X3302000Y2071960D02*
X3320560D01*
Y1955560D02*
X3459720Y2094720D01*
X3320560Y1936160D02*
Y2071960D01*
X3302000Y2080684D02*
X3308416Y2087100D01*
X3302000D02*
X3329260D01*
X3302000Y2071960D02*
Y2087100D01*
X3194760Y1936160D02*
X3320560D01*
X3302000Y2086154D02*
X3316194Y2071960D01*
X3176860Y2139452D02*
X3193460Y2122852D01*
X3176860Y2099228D02*
X3193460Y2115828D01*
X3176860Y2087100D02*
Y2166203D01*
X3229212Y2087100D02*
X3235960Y2080352D01*
Y2071960D02*
Y2087100D01*
X3193460D02*
Y2182803D01*
X3164732Y2087100D02*
X3176860Y2099228D01*
X3141980Y2087100D02*
X3176860D01*
X3141980Y2071960D02*
Y2087100D01*
X3157370D02*
X3172510Y2071960D01*
X3149592D02*
X3164732Y2087100D01*
X3221434Y2071960D02*
X3235960Y2086486D01*
X3194760Y2071960D02*
X3235960D01*
X3193460Y2087100D02*
X3235960D01*
X3194760Y1936160D02*
Y2071960D01*
X3175560Y1954244D02*
X3194760Y1973444D01*
X3175560Y2068910D02*
X3194760Y2049710D01*
X3175560Y2026086D02*
X3194760Y2045286D01*
X3141980Y2071960D02*
X3175560D01*
Y1997067D02*
X3194760Y1977868D01*
X3175560Y1936160D02*
Y2071960D01*
X3072997Y2364740D02*
X3172074D01*
X3058537Y2350280D02*
X3158261D01*
X3058537D02*
X3072997Y2364740D01*
X3095256D02*
X3109716Y2350280D01*
X3068701D02*
X3083161Y2364740D01*
X3048680Y2340423D02*
X3058537Y2350280D01*
X3024460Y2306039D02*
X3048680Y2330259D01*
X3024460Y2316203D02*
X3048680Y2340423D01*
Y2239720D02*
Y2340423D01*
X3024460Y2232100D02*
Y2316203D01*
X3048680Y2239720D02*
X3152140D01*
X3041060Y2212900D02*
X3130163D01*
X3076592Y2239720D02*
X3103412Y2212900D01*
X3075006D02*
X3101825Y2239720D01*
X3024460Y2291852D02*
X3048680Y2267632D01*
X3024460Y2234197D02*
X3048680Y2258417D01*
X2888660Y2232100D02*
X3024460D01*
X3012370D02*
X3041060Y2203410D01*
X2995543Y2205280D02*
X3022363Y2232100D01*
X2888660Y2328020D02*
Y2357900D01*
X2972763D01*
X2872060Y2328020D02*
X2888660D01*
X2872060Y2261980D02*
X2888660D01*
Y2232100D02*
Y2261980D01*
X2872060Y2232100D02*
Y2261980D01*
X2736260Y2357900D02*
X2872060D01*
Y2328020D02*
Y2357900D01*
X2736260Y2232100D02*
Y2357900D01*
X2859479Y2212900D02*
X2888660Y2242081D01*
X2427560Y2212034D02*
X2481580Y2266054D01*
X2923701Y2205280D02*
X2950521Y2232100D01*
X2896280Y2205280D02*
X3016840D01*
X2796849Y2232100D02*
X2816048Y2212900D01*
X2940528Y2232100D02*
X2967348Y2205280D01*
X2868686Y2232100D02*
X2896280Y2204506D01*
X2736260Y2232100D02*
X2872060D01*
X2736260Y2212900D02*
X2872060D01*
X2787637D02*
X2806837Y2232100D01*
X3016840Y2154735D02*
X3041060Y2178954D01*
X3016840Y2155788D02*
X3041060Y2131568D01*
Y2087100D02*
Y2212900D01*
X3016840Y2094720D02*
Y2205280D01*
X2872060Y2156888D02*
X2896280Y2132669D01*
X2872060Y2153639D02*
X2896280Y2177859D01*
Y2094720D02*
Y2205280D01*
X2872060Y2087100D02*
Y2212900D01*
X3075940Y2071960D02*
Y2087100D01*
X3049760Y2071960D02*
X3075940D01*
X3041060Y2087100D02*
X3075940D01*
X3049760Y1936160D02*
X3175560D01*
X3049760D02*
Y2071960D01*
X2896280Y2094720D02*
X3016840D01*
X2736260Y2087100D02*
X2872060D01*
X2934229Y2094720D02*
X3049760Y1979188D01*
X3006066Y2094720D02*
X3049760Y2051025D01*
X2615045Y2183992D02*
X2736260Y2305207D01*
X2616017Y2183020D02*
X2736260D01*
X2547620Y2251417D02*
X2616017Y2183020D01*
X2685915D02*
X2736260Y2233365D01*
Y2183020D02*
Y2212900D01*
X2547620Y2337644D02*
X2702244Y2183020D01*
X2547620Y2265802D02*
X2630402Y2183020D01*
X2427560Y2147120D02*
Y2272920D01*
X2491251Y2214391D02*
X2578991Y2126651D01*
X2419940Y2060729D02*
X2532426Y2173216D01*
X2602340Y2116980D02*
X2736260D01*
Y2087100D02*
Y2116980D01*
X2599904Y1881483D02*
X2805521Y2087100D01*
X2563983Y1917404D02*
X2736260Y2089681D01*
X2461235Y1958340D02*
X2619875Y2116980D01*
X2527593Y1952856D02*
X2691717Y2116980D01*
X2419940Y2034272D02*
X2495872Y1958340D01*
X4876177Y1948820D02*
X5020841Y1804155D01*
X4829512Y1668458D02*
X5020841Y1859788D01*
X4806460Y1781220D02*
Y1917020D01*
Y1803010D02*
X5020841Y1588629D01*
X4858971Y1626076D02*
X5020841Y1787946D01*
X4806460Y1874852D02*
X5020841Y1660471D01*
X4806460Y1789091D02*
X5020841Y2003472D01*
X4798589Y1781220D02*
X4806460Y1789091D01*
X4661460Y1836509D02*
X4680660Y1817310D01*
X4793590Y1704379D02*
X5020841Y1931630D01*
X4627272Y2125882D02*
X5020841Y1732313D01*
X4757669Y1740300D02*
X4798589Y1781220D01*
X4756408D02*
X5020841Y1516787D01*
X4859020Y1482440D02*
X5020841Y1644261D01*
X4859020Y1554282D02*
X5020841Y1716104D01*
X4716750Y1781220D02*
X4806460D01*
X4716750D02*
X4848605Y1649365D01*
X4616171Y1781220D02*
X4787900Y1609491D01*
X4540882Y1781220D02*
X4787900Y1534202D01*
X4612724Y1781220D02*
X4787900Y1606044D01*
X4661460Y1836509D02*
Y1917020D01*
X4680660Y1817310D02*
Y1870000D01*
X4535660Y1781220D02*
Y1917020D01*
X4320594Y1734277D02*
X4551118Y1964802D01*
X4363638Y1705480D02*
X4535660Y1877502D01*
X4250976Y1736501D02*
X4534400Y2019926D01*
X4086860Y1787912D02*
X4424830Y2125882D01*
X4196219D02*
X4535660Y1786441D01*
X4086860Y1947873D02*
X4294291Y1740442D01*
X4086860Y1716070D02*
X4496672Y2125882D01*
X4086860Y1876031D02*
X4233334Y1729557D01*
X4378996Y1577153D02*
X4583063Y1781220D01*
X4535660D02*
X4616171D01*
X4389115Y1659115D02*
X4535660Y1805660D01*
X4342802Y1469117D02*
X4635538Y1761853D01*
X4288743Y1486900D02*
X4335967Y1534124D01*
X4086860Y1804189D02*
X4194124Y1696925D01*
X4086860Y1572386D02*
X4176619Y1662144D01*
X4086860Y1660505D02*
X4262163Y1485202D01*
X4086860Y1500544D02*
X4178843Y1592526D01*
X4859020Y1410598D02*
X5020841Y1572419D01*
X4859020Y1534924D02*
X5020841Y1373103D01*
X4859020Y1606766D02*
X5020841Y1444945D01*
Y300635D02*
X5020841Y2638593D01*
X4859020Y1338756D02*
X5020841Y1500577D01*
X4859020Y1463082D02*
X5020841Y1301261D01*
X4502895Y1270000D02*
X4787900Y1555005D01*
X4574738Y1270000D02*
X4787900Y1483162D01*
X4086860Y2019715D02*
X4787900Y1318675D01*
X4859020Y1234440D02*
Y1624220D01*
X4787900Y1270000D02*
Y1609491D01*
X4859020Y1123230D02*
X5020841Y1285051D01*
X4859020Y1247555D02*
X5020841Y1085734D01*
X4859020Y1319397D02*
X5020841Y1157577D01*
X4859020Y1051388D02*
X5020841Y1213208D01*
X4859020Y888320D02*
Y1234440D01*
Y1266914D02*
X5020841Y1428735D01*
X4646580Y1270000D02*
X4787900Y1411320D01*
X4310858Y1270000D02*
X4787900D01*
X4859020Y1195072D02*
X5020841Y1356893D01*
X4859020Y1391240D02*
X5020841Y1229419D01*
X4392833Y1375464D02*
X4707380Y1690011D01*
X4359211Y1270000D02*
X4743301Y1654090D01*
X4377813Y1432286D02*
X4671459Y1725932D01*
X4392202Y1642531D02*
X4764733Y1270000D01*
X4431053D02*
X4779222Y1618169D01*
X4381317Y1581574D02*
X4692891Y1270000D01*
X4124377Y2125882D02*
X4787900Y1462360D01*
X4086860Y1588663D02*
X4213009Y1462514D01*
X4086860Y1428701D02*
X4207640Y1549482D01*
X4086860Y2091557D02*
X4787900Y1390517D01*
X4086860Y1422400D02*
Y2057400D01*
X4348685Y1542364D02*
X4621049Y1270000D01*
X4368274Y1307249D02*
X4405523Y1270000D01*
X4327698Y1275983D02*
X4333680Y1270000D01*
X4718422D02*
X4787900Y1339478D01*
X4390962Y1356403D02*
X4477365Y1270000D01*
X4215527D02*
X4226834Y1281307D01*
X4143685Y1270000D02*
X4190003Y1316318D01*
X4297847Y1521360D02*
X4549207Y1270000D01*
X3946000Y1801365D02*
X4005580Y1741785D01*
X3946000Y1718894D02*
X4005580Y1778474D01*
X3946000Y1729523D02*
X3969323Y1706200D01*
X4086860Y1644228D02*
X4568515Y2125882D01*
X4086860Y1732347D02*
X4173120Y1646087D01*
X3973340Y1674392D02*
X4005580Y1706632D01*
X3946000Y1873207D02*
X4005580Y1813627D01*
X3946000Y1790736D02*
X4005580Y1850316D01*
X3946000Y1706200D02*
Y2021840D01*
X3430717Y1490980D02*
X3874880Y1935142D01*
X3371291Y1503396D02*
X3874880Y2006985D01*
X3973340Y1702183D02*
X4005580Y1669943D01*
X3973340Y1602550D02*
X4005580Y1634790D01*
X3946000Y1706200D02*
X3973340D01*
Y1630341D02*
X4005580Y1598100D01*
X3961438Y1570400D02*
X4005580Y1526258D01*
X3973340Y1570400D02*
Y1706200D01*
X3847540Y1570400D02*
X3973340D01*
X3828340Y1511300D02*
X3901440D01*
X3828340Y1559814D02*
X3876854Y1511300D01*
X3939223Y1496591D02*
X4005580Y1562948D01*
X3882090Y1511300D02*
X3941190Y1570400D01*
X3789622Y1706200D02*
X3874880Y1791458D01*
X3861464Y1706200D02*
X3874880Y1719616D01*
X3717779Y1706200D02*
X3874880Y1863300D01*
Y1706200D02*
Y2021840D01*
X3847540Y1570400D02*
Y1706200D01*
X3828340Y1610960D02*
Y1706200D01*
X3516580Y2087100D02*
X3874880Y1728801D01*
X3651503Y2024019D02*
X3874880Y1800643D01*
X3437118Y2094720D02*
X3825638Y1706200D01*
X3702540D02*
X3828340D01*
X3307353Y1511300D02*
X3817893Y2021840D01*
X3847540Y1692276D02*
X3861464Y1706200D01*
X3847540D02*
X3874880D01*
X3828340Y1570400D02*
Y1610960D01*
Y1529392D02*
X3869348Y1570400D01*
X3828340Y1511300D02*
Y1570400D01*
Y1673076D02*
X3847540Y1692276D01*
X3828340Y1631656D02*
X3847540Y1612457D01*
X3828340Y1703498D02*
X3847540Y1684299D01*
X3828340Y1601234D02*
X3847540Y1620434D01*
X3828340Y1570400D02*
Y1610960D01*
X4005580Y1439234D02*
Y2021840D01*
X4086860Y1516820D02*
X4181743Y1421938D01*
X3955410Y1440936D02*
X4005580Y1491106D01*
X4000001Y1270000D02*
X4254005Y1524005D01*
X4086860Y1444978D02*
X4173589Y1358249D01*
X3889596Y1570400D02*
X4005580Y1454416D01*
X3953370Y1434784D02*
X3977250Y1410904D01*
X3937475Y1371129D02*
X4005580Y1439234D01*
X4034724Y1353430D02*
X4118154Y1270000D01*
X3998803Y1317509D02*
X4046312Y1270000D01*
X4070645Y1389351D02*
X4189996Y1270000D01*
X4071843D02*
X4172220Y1370377D01*
X3981012Y1299719D02*
X4074921Y1393628D01*
X3933663Y1270000D02*
X4254022D01*
X3956469Y1288001D02*
X3974470Y1270000D01*
X3898774Y1384300D02*
X3915924Y1401450D01*
X3915081Y1401231D02*
X3941329Y1374983D01*
X3844930Y1399540D02*
X3860170Y1384300D01*
X3927646Y1269487D02*
X3945939Y1287780D01*
X3759200Y1399540D02*
X3901440D01*
X3759200Y1384300D02*
X3901440D01*
X3773088Y1399540D02*
X3788328Y1384300D01*
X3826932D02*
X3842172Y1399540D01*
X3754926Y1384136D02*
X3770330Y1399540D01*
X3939793Y1287780D02*
X3952240D01*
X3900088Y1272540D02*
X3910883Y1261745D01*
X3843616Y1257300D02*
X3858856Y1272540D01*
X3759200D02*
X3901440D01*
X3759200Y1257300D02*
X3901440D01*
X3756335Y1272613D02*
X3771649Y1257300D01*
X3828246Y1272540D02*
X3843486Y1257300D01*
X3771774D02*
X3787014Y1272540D01*
X4859020Y1175713D02*
X5020841Y1013892D01*
X4859020Y979545D02*
X5020841Y1141366D01*
X4764011Y1198880D02*
X4787900Y1174991D01*
X4859020Y1103871D02*
X5020841Y942050D01*
X4859020Y907703D02*
X5020841Y1069524D01*
X4787900Y888320D02*
Y1198880D01*
X4620327D02*
X4787900Y1031307D01*
X4548485Y1198880D02*
X4787900Y959465D01*
X4692169Y1198880D02*
X4787900Y1103149D01*
X4392840Y800734D02*
X4787900Y1195794D01*
X4476643Y1198880D02*
X4787203Y888320D01*
X4859020Y1032029D02*
X5020841Y870208D01*
X4859020Y888320D02*
X4887740D01*
X4767795D02*
X4787900Y908425D01*
X4859020Y960187D02*
X5020841Y798366D01*
X4887740Y792739D02*
X5020841Y925840D01*
X4887740Y864581D02*
X5020841Y997682D01*
X4688333Y880700D02*
X4787900Y980268D01*
X4761940Y888320D02*
X4787900D01*
X4761940Y882465D02*
X4767795Y888320D01*
X4735120Y796718D02*
X4761940Y769898D01*
X4735120Y783803D02*
X4761940Y810623D01*
X4355660Y979080D02*
X4575460Y1198880D01*
X4392840Y944418D02*
X4647302Y1198880D01*
X4283818Y979080D02*
X4503618Y1198880D01*
X4392840Y872576D02*
X4719144Y1198880D01*
X4404800D02*
X4722980Y880700D01*
X4332958Y1198880D02*
X4651138Y880700D01*
X4211976Y979080D02*
X4431775Y1198880D01*
X4172040Y979080D02*
X4392840D01*
X4172040Y901700D02*
Y979080D01*
X4189274Y1198880D02*
X4624560Y763594D01*
X4261116Y1198880D02*
X4624560Y835436D01*
X4735120Y855645D02*
X4761940Y882465D01*
X4735120Y868560D02*
X4761940Y841741D01*
X4735120Y760140D02*
Y880700D01*
X4624560D02*
X4735120D01*
X4624560Y760140D02*
X4735120D01*
X4624560D02*
Y880700D01*
X4887740Y787783D02*
X5020841Y654682D01*
X4869594Y734087D02*
X5020841Y582840D01*
X4887740Y859625D02*
X5020841Y726524D01*
X4699856Y760140D02*
X5020841Y439155D01*
X4628014Y760140D02*
X5020841Y367313D01*
X4827681Y704157D02*
X5020841Y510997D01*
X4392840Y923472D02*
X5020841Y295471D01*
X4219272Y52429D02*
X5020841Y853998D01*
X4392840Y851630D02*
X5011473Y232997D01*
X4362956Y52429D02*
X5020841Y710314D01*
X4291114Y52429D02*
X5020841Y782156D01*
Y284366D02*
Y300635D01*
X5016594Y252108D02*
X5020841Y284366D01*
X5008172Y220679D02*
X5016594Y252108D01*
X4794783Y53203D02*
X5020067Y278487D01*
X4995721Y190620D02*
X5008172Y220679D01*
X4506640Y52429D02*
X5020841Y566629D01*
X4578483Y52429D02*
X5020841Y494787D01*
X4434798Y52429D02*
X5020841Y638471D01*
X4722167Y52429D02*
X5020841Y351103D01*
X4650325Y52429D02*
X5020841Y422945D01*
X4761940Y752520D02*
Y888320D01*
Y752520D02*
X4773094D01*
X4392840Y758280D02*
Y979080D01*
X4887740Y752520D02*
Y888320D01*
X4392840Y779788D02*
X4990702Y181926D01*
X4172040Y758280D02*
X4392840D01*
X4342506D02*
X4961604Y139181D01*
X4172040Y758280D02*
Y825500D01*
X4270669Y758280D02*
X4924579Y104369D01*
X4198827Y758280D02*
X4880464Y76643D01*
X4979453Y162443D02*
X4995721Y190620D01*
X4959647Y136631D02*
X4979453Y162443D01*
X4936640Y113623D02*
X4959647Y136631D01*
X4902337Y88915D02*
X4984355Y170933D01*
X4910827Y93816D02*
X4936640Y113623D01*
X4873826Y752520D02*
X4887740D01*
X4882649Y77548D02*
X4910827Y93816D01*
X4852590Y65097D02*
X4882649Y77548D01*
X4821163Y56676D02*
X4852590Y65097D01*
X4788903Y52429D02*
X4821163Y56676D01*
X4045590Y1198880D02*
X4265390Y979080D01*
X3957262Y1198880D02*
X4787900D01*
X3973748D02*
X4193548Y979080D01*
X4117432Y1198880D02*
X4337232Y979080D01*
X4062753Y901700D02*
X4359933Y1198880D01*
X3990911Y901700D02*
X4288091Y1198880D01*
X3920570Y1118727D02*
X4000723Y1198880D01*
X3949674Y1075989D02*
X4072565Y1198880D01*
X3921380Y904011D02*
X4216249Y1198880D01*
X3877027Y931500D02*
X4144407Y1198880D01*
X3939902Y1160883D02*
X4172040Y928746D01*
X3921380Y901700D02*
X4172040D01*
X3924875Y1032232D02*
X4055406Y901700D01*
X4134595D02*
X4172040Y939144D01*
X3949430Y1079519D02*
X4127249Y901700D01*
X3795580Y931500D02*
X3921380D01*
X3859104Y1026160D02*
X3983564Y901700D01*
X3921380D02*
Y931500D01*
X3852681Y1122680D02*
X3875541Y1145540D01*
X3883409D02*
X3906539Y1122410D01*
X3811566Y1145540D02*
X3834426Y1122680D01*
X3759200Y1145540D02*
X3901440D01*
X3759200Y1122680D02*
X3901440D01*
X3733425Y1151840D02*
X3762584Y1122680D01*
X3780839D02*
X3803699Y1145540D01*
X3787262Y1026160D02*
X3881922Y931500D01*
X3805185D02*
X3899845Y1026160D01*
X3795580Y921895D02*
X3805185Y931500D01*
X3795580Y849581D02*
Y931500D01*
X3776380Y893358D02*
X3795580Y874158D01*
X3759200Y1026160D02*
X3901440D01*
X3721700Y1019880D02*
X3810080Y931500D01*
X3721700D02*
X3776380D01*
X3733343D02*
X3828003Y1026160D01*
X3776380Y902695D02*
X3795580Y921895D01*
X4059764Y825500D02*
X4827019Y58245D01*
X3921380Y820200D02*
X4689151Y52429D01*
X3874038Y795700D02*
X4617309Y52429D01*
X3987922Y825500D02*
X4760993Y52429D01*
X4003746D02*
X4711457Y760140D01*
X3931903Y52429D02*
X4639615Y760140D01*
X3716377Y52429D02*
X4787900Y1123952D01*
X3788219Y52429D02*
X4787900Y1052110D01*
X3429009Y52429D02*
X4172040Y795460D01*
X3860061Y52429D02*
X4624560Y816928D01*
X3825829Y772067D02*
X4545467Y52429D01*
X3709301Y744910D02*
X4401783Y52429D01*
X3781143Y744910D02*
X4473625Y52429D01*
X3644535D02*
X4350386Y758280D01*
X4147430Y52429D02*
X4803223Y708222D01*
X4075588Y52429D02*
X4773243Y750085D01*
X3500851Y52429D02*
X4206702Y758280D01*
X3565617Y744910D02*
X4258098Y52429D01*
X3493775Y744910D02*
X4186256Y52429D01*
X3637459Y744910D02*
X4329941Y52429D01*
X3572693D02*
X4278544Y758280D01*
X3776380Y830382D02*
X3795580Y849581D01*
X3921380Y825500D02*
X4172040D01*
X3776380Y830853D02*
X3795580Y850053D01*
X3921380Y795700D02*
Y825500D01*
X4131606D02*
X4172040Y785067D01*
X3809846Y756085D02*
X3849461Y795700D01*
X3213482Y52429D02*
X3986553Y825500D01*
X3141640Y52429D02*
X3884911Y795700D01*
X3776380Y830382D02*
Y931500D01*
X3357167Y52429D02*
X4130238Y825500D01*
X3285324Y52429D02*
X4058395Y825500D01*
X3849461Y795700D02*
X3921380D01*
X3572620Y744910D02*
X3782890D01*
X3421933D02*
X4114414Y52429D01*
X3134564Y744910D02*
X3827046Y52429D01*
X3206406Y744910D02*
X3898888Y52429D01*
X3069798D02*
X3762279Y744910D01*
X3350091D02*
X4042572Y52429D01*
X3278248Y744910D02*
X3970730Y52429D01*
X3365276Y2094720D02*
X3753796Y1706200D01*
X3320560Y1995752D02*
X3702540Y1613772D01*
X3320560Y2067594D02*
X3702540Y1685614D01*
X3236468Y1936160D02*
X3704731Y1467897D01*
X3308310Y1936160D02*
X3737539Y1506931D01*
X3702540Y1570400D02*
Y1706200D01*
X3114007Y1533480D02*
X3625699Y2045172D01*
X3178430Y1526061D02*
X3674209Y2021840D01*
X3042165Y1533480D02*
X3589778Y2081093D01*
X3235511Y1511300D02*
X3746051Y2021840D01*
X3092789Y1936160D02*
X3538048Y1490901D01*
X3745912Y1570400D02*
X3757220Y1559092D01*
Y1511265D02*
Y1570400D01*
X3702540D02*
X3757220D01*
X3730431Y1503325D02*
X3757220Y1530114D01*
X3634248Y1407142D02*
X3711295Y1484189D01*
X3502559Y1490980D02*
X3702540Y1690960D01*
X3598327Y1443063D02*
X3725664Y1570400D01*
X3562406Y1478984D02*
X3702540Y1619118D01*
X3200400Y1511300D02*
X3342640D01*
X3385745Y1490980D02*
X3535680D01*
X3181835Y1523065D02*
X3193970Y1510929D01*
X2997980Y1462360D02*
X3141960D01*
X3135536D02*
X3144559Y1453337D01*
X2997980Y1417454D02*
X3042887Y1462360D01*
X3031379Y1379010D02*
X3114729Y1462360D01*
X3385745Y1419860D02*
X3520951D01*
X3270198Y1399540D02*
X3285438Y1384300D01*
X3342040Y1399540D02*
X3360067Y1381513D01*
X3324037Y1384300D02*
X3339277Y1399540D01*
X3200400D02*
X3342640D01*
X3200400Y1384300D02*
X3342640D01*
X3198317Y1399579D02*
X3213596Y1384300D01*
X3252195D02*
X3267435Y1399540D01*
X3173394Y1377341D02*
X3195784Y1399731D01*
X3670169Y1371221D02*
X3717345Y1418397D01*
X3560825Y1480565D02*
X3704038Y1337351D01*
X3520951Y1419860D02*
X3650580Y1290231D01*
X3465404Y1419860D02*
X3650580Y1234684D01*
X3438307Y1283043D02*
X3548037Y1392773D01*
X3164626Y1936160D02*
X3726822Y1373964D01*
X3380811Y1369231D02*
X3431439Y1419860D01*
X3393562D02*
X3650580Y1162842D01*
X3402385Y1318964D02*
X3503282Y1419860D01*
X3721700Y1242848D02*
Y1286992D01*
X3469640Y1170692D02*
X3619879Y1320931D01*
X3650580Y931500D02*
Y1290231D01*
X3469640Y1098850D02*
X3650580Y1279790D01*
X3398265Y1323085D02*
X3459225Y1262125D01*
X3347975Y1272795D02*
X3371500Y1249271D01*
X3340722Y1257300D02*
X3352096Y1268674D01*
X3395733Y1345847D02*
X3650580Y1091000D01*
X3469261Y1242156D02*
X3583958Y1356853D01*
X3063694Y1462360D02*
X3159528Y1366526D01*
X3046410Y1363980D02*
X3157295D01*
X3088191D02*
X3151891Y1427680D01*
X3011123Y1299404D02*
X3154828Y1155700D01*
X2997980Y1456231D02*
X3090232Y1363980D01*
X2997980Y1311830D02*
X3006536Y1303275D01*
X2997980Y1273769D02*
X3019297Y1295086D01*
X2997980Y1207180D02*
Y1311830D01*
X3268879Y1257300D02*
X3284119Y1272540D01*
X3200400D02*
X3342640D01*
X3253514D02*
X3268754Y1257300D01*
X3325356Y1272540D02*
X3340596Y1257300D01*
X3196929Y1257192D02*
X3212277Y1272540D01*
X3176122Y1278090D02*
X3197014Y1257197D01*
X3031680Y1292860D02*
X3157295D01*
X3023595Y1155700D02*
X3158897Y1291002D01*
X3089509Y1292860D02*
X3152377Y1229992D01*
X2685514Y1679724D02*
X3049760Y2043971D01*
X2730492Y1652860D02*
X3049760Y1972128D01*
X2685514Y1751566D02*
X3041060Y2107112D01*
X2990360Y1553518D02*
X3523943Y2087100D01*
X2852980Y1631664D02*
X3157476Y1936160D01*
X2802334Y1652860D02*
X3085634Y1936160D01*
X2635825Y1845562D02*
X2896280Y2106017D01*
X2671746Y1809641D02*
X2956825Y2094720D01*
X2419940Y2106114D02*
X2880814Y1645240D01*
X2427560Y2242178D02*
X3136258Y1533480D01*
X2427560Y2170336D02*
X2952656Y1645240D01*
X2938398D02*
X3229318Y1936160D01*
X2990360Y1625360D02*
X3301160Y1936160D01*
X2990360Y1607536D02*
X3064416Y1533480D01*
X2990360D02*
X3156690D01*
X2990360D02*
Y1645240D01*
X2879800D02*
X2990360D01*
X2685514Y1768698D02*
X2801352Y1652860D01*
X2685514Y1696856D02*
X2729509Y1652860D01*
X2727180D02*
X2852980D01*
Y1630091D02*
Y1652860D01*
X2685514Y1607882D02*
X2727180Y1649548D01*
X2532719Y1948669D02*
X2675842Y1805545D01*
X2470443Y1831340D02*
X2558514Y1743269D01*
Y1533558D02*
Y1743269D01*
X2475080Y1612974D02*
X2558514Y1696408D01*
X2879800Y1624999D02*
Y1645240D01*
X2685514Y1625014D02*
X2727180Y1583347D01*
X2685514Y1536040D02*
X2727180Y1577706D01*
X2513009Y1579062D02*
X2558514Y1624566D01*
X2486562Y1605509D02*
X2558514Y1533558D01*
X2548930Y1543141D02*
X2558514Y1552724D01*
X2852980Y1529389D02*
X2860610Y1521760D01*
X2836770Y1497920D02*
X2861915Y1523065D01*
X2852980Y1517060D02*
Y1529669D01*
X2870006Y2087100D02*
X3466126Y1490980D01*
X2997980Y1412409D02*
X3046410Y1363980D01*
X2997980Y1412409D02*
Y1462360D01*
X2624600Y2116980D02*
X3230280Y1511300D01*
X2696442Y2116980D02*
X3302122Y1511300D01*
X2727180Y1517060D02*
X2852980D01*
X2798164Y2087100D02*
X3394284Y1490980D01*
X2727180Y1497920D02*
X2836770D01*
X2852980Y1311890D02*
X2872180Y1292691D01*
X2852980Y1272454D02*
X2872180Y1291653D01*
X2852980Y1207180D02*
Y1311890D01*
X2984093Y1188040D02*
X3088913Y1292860D01*
X2872180Y1207180D02*
Y1292691D01*
X2804723Y1362120D02*
X2823863Y1342980D01*
X2727180D02*
X2825112D01*
X2727180Y1362120D02*
X2821940D01*
X2791078Y1497920D02*
X2810218Y1517060D01*
X2793467D02*
X2812607Y1497920D01*
X2727180Y1517060D02*
Y1652860D01*
Y1362120D02*
Y1497920D01*
X2685514Y1392355D02*
X2727180Y1434022D01*
X2685514Y1481330D02*
X2727180Y1439663D01*
X2685514Y1553172D02*
X2740765Y1497920D01*
X2685514Y1464197D02*
X2738376Y1517060D01*
X2423020Y1499140D02*
X2497554Y1424607D01*
X2685514Y1214594D02*
Y1782197D01*
X2497554Y1319413D02*
Y1424607D01*
X2732881Y1362120D02*
X2752021Y1342980D01*
X2779822D02*
X2798962Y1362120D01*
X2727180Y1367821D02*
X2732881Y1362120D01*
X2685514Y1248671D02*
X2727180Y1290338D01*
Y1258877D02*
Y1342980D01*
X2685514Y1409487D02*
X2727180Y1367821D01*
X2483220Y1333746D02*
X2497554Y1348080D01*
X2447299Y1369667D02*
X2497554Y1419922D01*
X2685514Y1337645D02*
X2727180Y1295979D01*
X2685514Y1320513D02*
X2727180Y1362180D01*
X3721700Y1135384D02*
X3736621Y1150305D01*
X3469640Y1200098D02*
X3650580Y1019158D01*
X3721700Y1104797D02*
Y1159992D01*
X3469640Y1027008D02*
X3650580Y1207948D01*
X3200400Y1257300D02*
X3342640D01*
X3347975Y1145795D02*
X3362960Y1130811D01*
X3308672Y1145540D02*
X3323912Y1130300D01*
X3333444Y1008380D02*
X3343612Y1018548D01*
X3307328Y1008380D02*
X3317488Y1018540D01*
X3200400Y1130300D02*
X3342640D01*
X3200400Y1018540D02*
X3342640D01*
X3200400Y1145540D02*
X3342640D01*
X3218180Y1008380D02*
X3333444D01*
X3291987Y1018540D02*
X3302147Y1008380D01*
X3236829Y1145540D02*
X3252069Y1130300D01*
X3285564D02*
X3300804Y1145540D01*
X3213722Y1130300D02*
X3228962Y1145540D01*
X2997980Y1168863D02*
X3011143Y1155700D01*
X2997980D02*
X3154680D01*
X2997980D02*
Y1188040D01*
X3095437Y1155700D02*
X3144628Y1204891D01*
X2997980Y1240705D02*
X3082985Y1155700D01*
X3220145Y1018540D02*
X3230305Y1008380D01*
X3235486D02*
X3245646Y1018540D01*
X3179825Y1145285D02*
X3195065Y1130045D01*
X2997980Y1058243D02*
X3024317Y1084580D01*
X2997980D02*
X3139951D01*
X2991977Y1052240D02*
X2997980Y1058243D01*
Y1052240D02*
Y1084580D01*
X3721700Y931500D02*
Y1044043D01*
Y991699D02*
X3756251Y1026250D01*
X3589659Y931500D02*
X3650580Y992421D01*
X3721700Y948038D02*
X3738238Y931500D01*
X3650580Y880780D02*
Y931500D01*
X3635520Y821110D02*
Y931500D01*
X3469640Y955166D02*
X3650580Y1136106D01*
X3469640Y1128256D02*
X3650580Y947316D01*
X3469640Y1056414D02*
X3594554Y931500D01*
X3517816D02*
X3650580Y1064264D01*
X3509720Y931500D02*
X3635520D01*
Y890533D02*
X3650580Y875474D01*
X3635520Y833678D02*
X3650580Y848737D01*
Y880780D02*
Y931500D01*
Y821110D02*
Y880780D01*
X3635520Y821110D02*
X3650580D01*
X3635520Y905520D02*
X3650580Y920579D01*
X2990880Y744910D02*
X3683361Y52429D01*
X3286760Y744910D02*
X3571240D01*
X3062722D02*
X3755204Y52429D01*
X2997956D02*
X3690437Y744910D01*
X3086764Y931500D02*
X3178342Y1023078D01*
X3141448Y946377D02*
X3193035Y997965D01*
X3469640Y931500D02*
Y1236980D01*
Y984572D02*
X3522712Y931500D01*
X3010421Y1084580D02*
X3145036Y949965D01*
X3082263Y1084580D02*
X3180957Y985886D01*
X3078860Y931500D02*
X3132547D01*
X3078860Y923596D02*
X3086764Y931500D01*
X3078860Y821110D02*
Y931500D01*
X3509720Y923404D02*
X3517816Y931500D01*
X3490520Y832362D02*
X3509720Y851562D01*
X3490520Y891849D02*
X3509720Y872649D01*
Y821110D02*
Y931500D01*
X3490520Y821110D02*
X3509720D01*
X3469640Y931500D02*
X3490520D01*
Y904204D02*
X3509720Y923404D01*
X2976374Y821110D02*
X3078860Y923596D01*
X3490520Y821110D02*
Y931500D01*
X3048216Y821110D02*
X3078860Y851754D01*
X2872180Y1207180D02*
X2997980D01*
X2872180Y1188040D02*
X2997980D01*
X2887821Y1207180D02*
X2906961Y1188040D01*
X2912251D02*
X2931391Y1207180D01*
X2959663D02*
X2978803Y1188040D01*
X2872180Y1052240D02*
Y1188040D01*
X2852980Y1242021D02*
X2872180Y1222821D01*
X2840409Y1188040D02*
X2872180Y1219811D01*
X2852980Y1170179D02*
X2872180Y1150979D01*
X2852980Y1098337D02*
X2872180Y1079137D01*
X2852980Y1128769D02*
X2872180Y1147969D01*
X2899077Y1052240D02*
X3078860Y872457D01*
X2970919Y1052240D02*
X3091659Y931500D01*
X2872180Y1052240D02*
X2997980D01*
X2904532Y821110D02*
X3145827Y1062405D01*
X2872740Y821110D02*
X3078860D01*
X2827235Y1052240D02*
X3058364Y821110D01*
X2779193Y956597D02*
X2914680Y821110D01*
X2852980Y1056927D02*
X2872180Y1076127D01*
X2833096Y974537D02*
X2986522Y821110D01*
X2685514Y817618D02*
X2920135Y1052240D01*
X2768878Y1207180D02*
X2852980D01*
X2749738Y1188040D02*
X2852980D01*
X2756507Y1194810D02*
X2763277Y1188040D01*
X2815979Y1207180D02*
X2835119Y1188040D01*
X2852980Y1052240D02*
Y1188040D01*
X2768567D02*
X2787707Y1207180D01*
X2685514Y1265803D02*
X2709810Y1241507D01*
X2691911Y1223608D02*
X2727180Y1258877D01*
X2749738Y1188040D02*
X2768878Y1207180D01*
X2832466Y1036413D02*
X2848293Y1052240D01*
X2826017D02*
X2852980D01*
X2826017Y1043147D02*
Y1052240D01*
X2734919Y1000872D02*
X2744525Y991265D01*
X2685514Y961303D02*
X2721475Y997264D01*
X2685514Y978435D02*
X2850212Y813736D01*
X2685514Y889461D02*
X2761654Y965601D01*
X2710587Y52429D02*
X3403069Y744910D01*
X2782430Y52429D02*
X3474911Y744910D01*
X2888522D02*
X3286760D01*
X2919038D02*
X3611519Y52429D01*
X2926114D02*
X3618595Y744910D01*
X2854272Y52429D02*
X3546753Y744910D01*
X2423219Y52429D02*
X3115700Y744910D01*
X2495061Y52429D02*
X3187543Y744910D01*
X2428139Y416560D02*
X3096159Y1084580D01*
X2638745Y52429D02*
X3331227Y744910D01*
X2566903Y52429D02*
X3259385Y744910D01*
X2796017Y652405D02*
X3395993Y52429D01*
X2760096Y616484D02*
X3324151Y52429D01*
X2724175Y580563D02*
X3252309Y52429D01*
X2867859Y724247D02*
X3539677Y52429D01*
X2831938Y688326D02*
X3467835Y52429D01*
X2616411Y472800D02*
X3036782Y52429D01*
X2580490Y436879D02*
X2964940Y52429D01*
X2544569Y400958D02*
X2893098Y52429D01*
X2688253Y544642D02*
X3180467Y52429D01*
X2652333Y508721D02*
X3108624Y52429D01*
X2685514Y906593D02*
X2813977Y778129D01*
X2685514Y834750D02*
X2778056Y742208D01*
X2684817Y763605D02*
X2742135Y706287D01*
X2685514Y770354D02*
Y1006594D01*
X2652709Y723871D02*
X2706214Y670366D01*
X2495131Y351519D02*
X2888522Y744910D01*
X2452408Y416560D02*
X2845784Y809936D01*
X2616788Y687950D02*
X2670293Y634445D01*
X2580867Y652029D02*
X2634372Y598524D01*
X2544945Y616108D02*
X2598451Y562603D01*
X2508648Y365037D02*
X2821256Y52429D01*
X2509024Y580187D02*
X2562530Y526681D01*
X2473103Y544266D02*
X2526609Y490761D01*
X2437182Y508345D02*
X2490688Y454839D01*
X2461483Y340360D02*
X2749414Y52429D01*
X2304569Y3586480D02*
X2441729Y3449320D01*
X2376411Y3586480D02*
X2496202Y3466690D01*
X2299846Y3449320D02*
X2437006Y3586480D01*
X2329180Y2975759D02*
X2939901Y3586480D01*
X2329180Y3047601D02*
X2708560Y3426981D01*
X2371688Y3449320D02*
X2508848Y3586480D01*
X2160885D02*
X2298045Y3449320D01*
X2228004D02*
X2365164Y3586480D01*
X2156162Y3449320D02*
X2293322Y3586480D01*
X2232727D02*
X2369887Y3449320D01*
X2250880Y3352800D02*
X2261138Y3342542D01*
X2329191Y3334981D02*
X2347010Y3352800D01*
X2329180Y3202658D02*
X2584658Y2947180D01*
X2329180Y3058974D02*
X2440974Y2947180D01*
X2378120D02*
X2498680D01*
X2329180Y2987132D02*
X2378120Y2938192D01*
X2329180Y3263128D02*
X2418852Y3352800D01*
X2329180Y3191285D02*
X2490695Y3352800D01*
X2329180Y3119443D02*
X2562537Y3352800D01*
X2090603Y3225709D02*
X2252980Y3063332D01*
X1945358Y3586480D02*
X2082518Y3449320D01*
X2012478D02*
X2149638Y3586480D01*
X1940635Y3449320D02*
X2077795Y3586480D01*
X2084320Y3449320D02*
X2221480Y3586480D01*
X2089043D02*
X2226203Y3449320D01*
X2017200Y3586480D02*
X2154360Y3449320D01*
X1868793D02*
X2005953Y3586480D01*
X1873516D02*
X2010676Y3449320D01*
X1842698Y3279540D02*
X1915958Y3352800D01*
X1914540Y3279540D02*
X1987800Y3352800D01*
X1891670D02*
X1964930Y3279540D01*
X2095061Y3244535D02*
X2203326Y3352800D01*
X2179038D02*
X2242226Y3289612D01*
X2069231Y3290547D02*
X2131484Y3352800D01*
X2048226Y3196244D02*
X2252980Y2991490D01*
X2107196Y3352800D02*
X2252980Y3207016D01*
X1986382Y3279540D02*
X2059642Y3352800D01*
X1963512D02*
X2023889Y3292423D01*
X2035354Y3352800D02*
X2252980Y3135174D01*
X2322723Y3352800D02*
X2761645Y2913878D01*
X2331622Y3272058D02*
X2690655Y2913025D01*
X2329180Y3130816D02*
X2533060Y2926936D01*
X2329180Y2903917D02*
X3011743Y3586480D01*
X2394565Y3352800D02*
X2834462Y2912902D01*
X2329180Y2845298D02*
Y3269007D01*
X2252980Y2839765D02*
Y3269007D01*
X1887286Y3213500D02*
X2252980Y2847806D01*
X1959128Y3213500D02*
X2252980Y2919648D01*
X1834980Y2697086D02*
X2252980Y3115085D01*
X1834980Y2768928D02*
X2252980Y3186928D01*
X2329180Y2845298D02*
X2378120D01*
X2329180Y2915290D02*
X2378120Y2866350D01*
Y2845298D02*
Y2947180D01*
X2342403Y2845298D02*
X2378120Y2881015D01*
X2054221Y2700800D02*
X2252980Y2899559D01*
X2191488Y2779292D02*
X2249908Y2837712D01*
X2185874Y2770891D02*
X2191488Y2779292D01*
X1918596Y2637018D02*
X2252980Y2971401D01*
X1846754Y2637018D02*
X2252980Y3043243D01*
X2183902Y2760980D02*
X2185874Y2770891D01*
X2126063Y2700800D02*
X2183902Y2758639D01*
X2032680Y2700800D02*
X2153240D01*
X2183902Y2634547D02*
Y2760980D01*
X2153240Y2603885D02*
Y2700800D01*
X1834980Y2906600D02*
X2040780Y2700800D01*
X1834980Y2762916D02*
X1947264Y2650632D01*
X1834980Y2687730D02*
Y2915510D01*
X2032680Y2601458D02*
Y2700800D01*
X1834980Y2834758D02*
X2032680Y2637058D01*
X2153240Y2656135D02*
X2183902Y2686797D01*
X2153240Y2660182D02*
X2181389Y2632034D01*
X2153240Y2603885D02*
X2183902Y2634547D01*
X2004592Y2629432D02*
X2032567Y2601458D01*
X1990721Y2637301D02*
X2032680Y2679259D01*
X1841500Y2637018D02*
X1920586D01*
X1834980Y2691074D02*
X1889036Y2637018D01*
X1996191Y2635046D02*
X2004592Y2629432D01*
X1725109Y3449320D02*
X1862269Y3586480D01*
X1828101D02*
X4838109D01*
X1796951Y3449320D02*
X1934111Y3586480D01*
X1813807Y3574347D02*
X1938834Y3449320D01*
X1747986Y3352800D02*
X1821246Y3279540D01*
X1590829Y3653641D02*
X1795150Y3449320D01*
X1424940D02*
X2493303D01*
X1653267D02*
X1772230Y3568283D01*
X1662671Y3653641D02*
X1866992Y3449320D01*
X1699013Y3279540D02*
X1772273Y3352800D01*
X1819828D02*
X1893088Y3279540D01*
X1748084Y2969400D02*
X1992184Y3213500D01*
X1770855Y3279540D02*
X1844115Y3352800D01*
X1834980Y2912612D02*
X2245176Y3322808D01*
X1800508Y2949982D02*
X2046685Y3196159D01*
X1781090Y2969400D02*
X1834980Y2915510D01*
X1451242Y3352800D02*
X2603500D01*
X1449177Y3213500D02*
X2006623D01*
X1435500Y3279540D02*
X2006623D01*
X1676242Y2969400D02*
X1920342Y3213500D01*
X1673310Y2969400D02*
X1781090D01*
X1518987Y3653641D02*
X1723308Y3449320D01*
X1581425D02*
X1734009Y3601904D01*
X1509583Y3449320D02*
X1713904Y3653641D01*
X1532464Y3352800D02*
X1605724Y3279540D01*
X1555329D02*
X1628589Y3352800D01*
X1483487Y3279540D02*
X1556747Y3352800D01*
X1437741Y3449320D02*
X1642061Y3653641D01*
X300636D02*
X1740117D01*
X1375308D02*
X1579629Y3449320D01*
X1447145Y3653641D02*
X1651466Y3449320D01*
X1460622Y3352800D02*
X1533882Y3279540D01*
X1627171D02*
X1700431Y3352800D01*
X1676149D02*
X1749408Y3279540D01*
X1604306Y3352800D02*
X1677566Y3279540D01*
X1528080Y3213500D02*
X1772180Y2969400D01*
X1619420Y2915510D02*
X1673310Y2969400D01*
X1456238Y3213500D02*
X1700338Y2969400D01*
X1416787Y3181109D02*
X1650903Y2946993D01*
X1275080Y2927449D02*
X1561131Y3213500D01*
X1275080Y2855607D02*
X1632973Y3213500D01*
X1380866Y3145188D02*
X1619420Y2906634D01*
X1834980Y2840770D02*
X2252980Y3258770D01*
X1815448Y3213500D02*
X2220572Y2808377D01*
X1743606Y3213500D02*
X2186011Y2771096D01*
X1781090Y2633840D02*
X1834980Y2687730D01*
X1800731Y2653481D02*
X1824142Y2630070D01*
X1338340Y2703340D02*
X1848500Y3213500D01*
X1275080Y2711922D02*
X1776658Y3213500D01*
X1671764D02*
X2183902Y2701362D01*
X1599922Y3213500D02*
X2112622Y2700800D01*
X1831589Y2635046D02*
X1841500Y2637018D01*
X1823188Y2629432D02*
X1831589Y2635046D01*
X1800328Y2606572D02*
X1823188Y2629432D01*
X1794714Y2598171D02*
X1800328Y2606572D01*
X1792742Y2443480D02*
Y2588260D01*
X1774980Y2607390D02*
X1792969Y2589400D01*
X1792742Y2588260D02*
X1794714Y2598171D01*
X1774980Y2429920D02*
Y2633840D01*
X1309024Y3073346D02*
X1619420Y2762950D01*
X1344944Y3109267D02*
X1619420Y2834792D01*
Y2687730D02*
Y2915510D01*
X1424260Y2645576D02*
X1619420Y2840736D01*
X1410182Y2703340D02*
X1619420Y2912578D01*
X1275080Y2783765D02*
X1704815Y3213500D01*
X1275080Y3035447D02*
X1619420Y2691107D01*
X771563Y2854985D02*
X1570219Y3653641D01*
X1275080Y2963605D02*
X1679420Y2559265D01*
X1275080Y2891763D02*
X1571743Y2595100D01*
X1632600Y2566548D02*
X1679420Y2613368D01*
X1619420Y2687730D02*
X1673310Y2633840D01*
X1679420Y2429920D02*
Y2633840D01*
X1632600Y2424300D02*
Y2595100D01*
X1589311D02*
X1650680Y2656470D01*
X1521800Y2595100D02*
X1632600D01*
X1424260Y2670741D02*
X1521800Y2573201D01*
X1469878Y2547510D02*
X1619420Y2697052D01*
X1416486Y2565960D02*
X1619420Y2768894D01*
X2371162Y2514102D02*
X2378120Y2507144D01*
X2357687Y2514102D02*
X2378120D01*
Y2405760D02*
Y2514102D01*
X2328504Y2484919D02*
X2378120Y2435302D01*
X2195876Y2339560D02*
X2370418Y2514102D01*
X2267718Y2339560D02*
X2378120Y2449962D01*
X2238272Y2394688D02*
X2357687Y2514102D01*
X2292582Y2448998D02*
X2481580Y2260000D01*
X2256661Y2413077D02*
X2396818Y2272920D01*
X2378120Y2405760D02*
X2481580D01*
X2407662D02*
X2481580Y2331842D01*
X2291760Y2272920D02*
X2329780D01*
X2344762D02*
X2477602Y2405760D01*
X2416604Y2272920D02*
X2481580Y2337896D01*
X2329780Y2272920D02*
X2427560D01*
X2280740Y2280740D02*
X2405760Y2405760D01*
X2280740Y2280740D02*
X2405760Y2405760D01*
X2280740Y2317156D02*
X2324976Y2272920D01*
X2291760D02*
X2329780D01*
X2280740Y2206880D02*
X2291760D01*
X2229871Y2389074D02*
X2238272Y2394688D01*
X2219960Y2387102D02*
X2229871Y2389074D01*
X2067109Y2387102D02*
X2114651Y2339560D01*
X2138951Y2387102D02*
X2186493Y2339560D01*
X2210793Y2387102D02*
X2258336Y2339560D01*
X2124034D02*
X2171576Y2387102D01*
X1923425D02*
X1978587Y2331940D01*
X1972730D02*
X2027892Y2387102D01*
X1900887Y2331940D02*
X1956050Y2387102D01*
X2044572Y2331940D02*
X2099734Y2387102D01*
X1995267D02*
X2050429Y2331940D01*
X2280740Y2272920D02*
Y2339560D01*
Y2272920D02*
X2291760D01*
X2099940Y2339560D02*
X2280740D01*
X2063120Y2206804D02*
X2099940Y2243624D01*
Y2215457D02*
Y2339560D01*
X2063120Y2319249D02*
X2099940Y2282430D01*
X2063120Y2278646D02*
X2099940Y2315466D01*
X2063120Y2247407D02*
X2097505Y2213022D01*
X2335826Y2120300D02*
X2362646Y2147120D01*
X2291760D02*
X2427560D01*
X2307092D02*
X2333912Y2120300D01*
X2407669D02*
X2496506Y2209137D01*
X2378934Y2147120D02*
X2405754Y2120300D01*
X2299380Y2009740D02*
Y2120300D01*
X2280740Y2168760D02*
Y2206880D01*
Y2173471D02*
X2291760Y2162452D01*
X2146637Y2168760D02*
X2280740D01*
X2273120Y2129436D02*
X2291760Y2148076D01*
Y2147120D02*
Y2206880D01*
X2419940Y2009740D02*
Y2120300D01*
X2299380D02*
X2419940D01*
X2273120Y2057594D02*
X2299380Y2083854D01*
X2273120Y2109249D02*
X2299380Y2082989D01*
Y2009740D02*
X2419940D01*
X2273120Y2037407D02*
X2299380Y2011147D01*
X2063120Y2176380D02*
Y2331940D01*
X2077231Y2192749D02*
X2099940Y2215457D01*
X1990463Y2176380D02*
X1997283Y2169560D01*
X2025876D02*
X2032696Y2176380D01*
X1897560D02*
Y2331940D01*
X1954034Y2169560D02*
X1960854Y2176380D01*
X1918621D02*
X1925441Y2169560D01*
X2233782Y2161940D02*
X2240602Y2168760D01*
X2213609D02*
X2220429Y2161940D01*
X2273120Y2006380D02*
Y2161940D01*
X2161940D02*
X2168760Y2168760D01*
X2139817Y2161940D02*
X2273120D01*
X2139817D02*
X2146637Y2168760D01*
X2133600Y2006380D02*
X2273120D01*
X2161940Y2161940D02*
X2168760Y2168760D01*
X1774980Y2493401D02*
X1792742Y2511164D01*
X1774980Y2463705D02*
X1792742Y2445943D01*
X1774980Y2535547D02*
X1792742Y2517785D01*
X1794714Y2433569D02*
X1800328Y2425168D01*
X1830808Y2394688D01*
X1792742Y2443480D02*
X1794714Y2433569D01*
X1774980Y2565243D02*
X1792742Y2583006D01*
X1736923Y2429920D02*
X1897560Y2269283D01*
X1679420Y2429920D02*
X1774980D01*
X1632600Y2462401D02*
X1839861Y2255140D01*
X1608561D02*
X1793432Y2440011D01*
X1851583Y2387102D02*
X1906745Y2331940D01*
X1849120Y2387102D02*
X2219960D01*
X1839209Y2389074D02*
X1849120Y2387102D01*
X1897560Y2331940D02*
X2063120D01*
X1856060Y2215271D02*
X1897560Y2256770D01*
X1830808Y2394688D02*
X1839209Y2389074D01*
X1735500Y2255140D02*
X1856060D01*
X1680403D02*
X1825379Y2400116D01*
X1824087Y2255140D02*
X1897560Y2328613D01*
X1752245Y2255140D02*
X1884208Y2387102D01*
X1632600Y2494705D02*
X1679420Y2541526D01*
X1632600Y2534243D02*
X1679420Y2487423D01*
X1603241Y2321662D02*
X1711499Y2429920D01*
X1603241Y2255140D02*
Y2424300D01*
Y2393504D02*
X1679420Y2469683D01*
X1431880Y2447595D02*
X1527041Y2352433D01*
X1492707Y2458610D02*
X1521800Y2429517D01*
X1527041Y2261600D02*
Y2424300D01*
X1367473Y2440160D02*
X1527041Y2280591D01*
X1603241Y2348076D02*
X1696177Y2255140D01*
X1603241D02*
X1703660D01*
X1603241Y2276233D02*
X1624335Y2255140D01*
X1703660Y2247657D02*
X1735500Y2215817D01*
X1696177Y2255140D02*
X1703660Y2247657D01*
X1603241Y2424300D02*
X1632600D01*
X1471337Y2261600D02*
X1527041Y2317304D01*
X1423080Y2261600D02*
X1527041D01*
X1603241Y2419918D02*
X1768019Y2255140D01*
X1384153Y2246259D02*
X1527041Y2389147D01*
X1897560Y2176380D02*
X2063120D01*
X1889940Y2169560D02*
X2067561D01*
X1856060Y2238941D02*
X1897560Y2197441D01*
X1889940Y2087880D02*
Y2169560D01*
X1856060Y2167099D02*
X1889940Y2133219D01*
X1856060Y2144580D02*
Y2255140D01*
X1735500Y2144580D02*
X1856060D01*
X1830392Y2117760D02*
X1897560Y2184928D01*
X1806737Y2144580D02*
X1833557Y2117760D01*
X1872354Y2087880D02*
X1889940Y2105466D01*
X1863680Y2021840D02*
X1889940D01*
X1863680Y2007364D02*
X1878156Y2021840D01*
X1889940Y1998760D02*
X2019043D01*
X1889940D02*
Y2021840D01*
X1863680Y2087880D02*
Y2117760D01*
Y2087880D02*
X1889940D01*
X1727880Y2117760D02*
X1863680D01*
Y1991960D02*
Y2021840D01*
X1727880Y1991960D02*
X1863680D01*
X1703660Y2206555D02*
X1735500Y2238395D01*
Y2144580D02*
Y2255140D01*
X1703660Y2175815D02*
X1761715Y2117760D01*
X1703660Y2144580D02*
Y2255140D01*
X1688499Y2144580D02*
X1703660D01*
X1693711Y2124763D02*
X1735500Y2166553D01*
X1758549Y2117760D02*
X1785369Y2144580D01*
X1711280Y2024510D02*
X1727880Y2007910D01*
X1711280Y2070491D02*
X1727880Y2087091D01*
Y1991960D02*
Y2117760D01*
X1711280Y1998649D02*
X1727880Y2015248D01*
X1711280Y2096352D02*
X1727880Y2079753D01*
X1684397Y1991960D02*
X1711280D01*
X1693591Y2117760D02*
X1711280D01*
Y1991960D02*
Y2117760D01*
X1704591Y1991960D02*
X1711280Y1998649D01*
X1231623Y3653641D02*
X1435944Y3449320D01*
X1303466Y3653641D02*
X1507786Y3449320D01*
X1244600Y3146158D02*
X1451242Y3352800D01*
X1244600Y3112495D02*
X1484905Y3352800D01*
X1159781Y3653641D02*
X1387683Y3425740D01*
X1157751Y3195809D02*
X1401591Y3439649D01*
X1087939Y3653641D02*
X1351761Y3389819D01*
X727556Y2882819D02*
X1498377Y3653641D01*
X652086Y2879192D02*
X1426535Y3653641D01*
X1420011Y3321569D02*
X1462040Y3279540D01*
X1384090Y3285648D02*
X1406010Y3263728D01*
X1348169Y3249727D02*
X1370089Y3227807D01*
X1312248Y3213806D02*
X1334168Y3191886D01*
X1275080Y3039403D02*
X1449177Y3213500D01*
X1275080Y2999291D02*
X1489289Y3213500D01*
X1244600Y3102317D02*
X1412151Y3269869D01*
X1303700Y2703340D02*
X1424260D01*
X1275080Y2819921D02*
X1391661Y2703340D01*
X944255Y3653641D02*
X1279919Y3317977D01*
X1016097Y3653641D02*
X1315840Y3353898D01*
X1276327Y3177885D02*
X1298247Y3155964D01*
X1244600Y3102317D02*
Y3146158D01*
X800571Y3653641D02*
X1208077Y3246134D01*
X872413Y3653641D02*
X1243998Y3282056D01*
X728729Y3653641D02*
X1172156Y3210214D01*
X858417Y2869996D02*
X1148080Y3159659D01*
X656886Y3653641D02*
X1148080Y3162447D01*
X1244600Y3137769D02*
X1262326Y3120044D01*
X923818Y2791713D02*
X1148080Y3015975D01*
X1275080Y2748079D02*
X1319819Y2703340D01*
X913440Y2697580D02*
Y2743512D01*
X886375Y2826112D02*
X1148080Y3087817D01*
X913440Y2709493D02*
X1148080Y2944133D01*
X1303700Y2592780D02*
Y2703340D01*
X1275080Y2544277D02*
Y3039403D01*
X1424260Y2592780D02*
Y2703340D01*
X1148080Y2353017D02*
Y3172460D01*
X1033191Y2685560D02*
X1148080Y2800449D01*
X1099140Y2679667D02*
X1148080Y2728607D01*
X978580Y2685560D02*
X1099140D01*
X938349Y2662560D02*
X1148080Y2872291D01*
X1099140Y2575000D02*
Y2685560D01*
X1275080Y2640080D02*
X1303700Y2668700D01*
X1275080Y2676237D02*
X1303700Y2647617D01*
X1275080Y2604395D02*
X1313515Y2565960D01*
X1099140Y2607825D02*
X1148080Y2656765D01*
X1099140Y2636650D02*
X1148080Y2587710D01*
X916546Y2747402D02*
X978580Y2685368D01*
X909478Y2682628D02*
X929546Y2662560D01*
X978580Y2575000D02*
Y2685560D01*
X890840Y2662560D02*
X941240D01*
X878940Y2659170D02*
Y2667380D01*
X963820Y2625580D02*
Y2639980D01*
Y2628286D02*
X978580Y2613526D01*
X917264Y2603000D02*
X972084Y2548180D01*
X890840Y2603000D02*
X941240D01*
X878940Y2531309D02*
X978580Y2630949D01*
X878940Y2517736D02*
Y2606391D01*
X513202Y3653641D02*
X1148080Y3018763D01*
X441360Y3653641D02*
X1148080Y2946921D01*
X585044Y3653641D02*
X1148080Y3090605D01*
X369518Y3653641D02*
X1148080Y2875079D01*
X297676Y3653641D02*
X1148080Y2803237D01*
X52429Y2854272D02*
X851798Y3653641D01*
X52429Y3141640D02*
X564430Y3653641D01*
X52429Y3069798D02*
X636272Y3653641D01*
X52429Y3213482D02*
X492588Y3653641D01*
X52429Y2926114D02*
X779956Y3653641D01*
X52429Y2997956D02*
X708114Y3653641D01*
X545025Y2843973D02*
X1354693Y3653641D01*
X105324Y3558624D02*
X792625Y2871323D01*
X353228Y2795860D02*
X1211009Y3653641D01*
X425070Y2795860D02*
X1282851Y3653641D01*
X313020Y2795860D02*
X438820D01*
X77287Y3514819D02*
X711543Y2880563D01*
X58710Y3461554D02*
X634315Y2885949D01*
X52429Y3395993D02*
X583868Y2864554D01*
X52429Y3324151D02*
X532532Y2844048D01*
X52429Y3252309D02*
X491781Y2812957D01*
X284366Y3653641D02*
X300636Y3653641D01*
X252108Y3649394D02*
X284366Y3653641D01*
X220679Y3640972D02*
X252108Y3649394D01*
X190621Y3628522D02*
X220679Y3640972D01*
X162443Y3612253D02*
X190621Y3628522D01*
X136630Y3592446D02*
X162443Y3612253D01*
X53537Y3430116D02*
X275953Y3652533D01*
X91920Y3540342D02*
X165728Y3614149D01*
X113622Y3569438D02*
X136630Y3592446D01*
X52429Y3285324D02*
X420745Y3653641D01*
X52429Y3357167D02*
X348903Y3653641D01*
X93816Y3543627D02*
X113622Y3569438D01*
X77548Y3515449D02*
X93816Y3543627D01*
X65097Y3485390D02*
X77548Y3515449D01*
X175640Y2788240D02*
X286200D01*
X56676Y3453961D02*
X65097Y3485390D01*
X52429Y3421703D02*
X56676Y3453961D01*
X52429Y3180467D02*
X437035Y2795860D01*
X52429Y3405435D02*
Y3421703D01*
Y3108624D02*
X365193Y2795860D01*
X52429Y2964940D02*
X229129Y2788240D01*
X201924D02*
X1067325Y3653641D01*
X273766Y2788240D02*
X1139167Y3653641D01*
X313020Y2778171D02*
Y2795860D01*
X234736Y3644739D02*
X1148080Y2731395D01*
X438820Y2760880D02*
Y2795860D01*
X52429Y2782430D02*
X923640Y3653641D01*
X52429Y2710587D02*
X995482Y3653641D01*
X52429Y3036782D02*
X310901Y2778310D01*
X183324Y3624309D02*
X1148080Y2659552D01*
X140429Y3595361D02*
X1050231Y2685560D01*
X461932Y2760880D02*
X488507Y2787455D01*
X438820Y2760880D02*
X491534D01*
X438820Y2794075D02*
X472016Y2760880D01*
X417009Y2600360D02*
X497189Y2520180D01*
X313020Y2666400D02*
Y2677749D01*
X286200Y2773079D02*
Y2788240D01*
X175640Y2667680D02*
Y2788240D01*
X52429Y2821256D02*
X175640Y2698045D01*
X52429Y2638745D02*
X175640Y2761956D01*
X52429Y2893098D02*
X175640Y2769887D01*
X52429Y2749414D02*
X205094Y2596749D01*
X52429Y2566903D02*
X175640Y2690114D01*
X286200Y2667680D02*
Y2682841D01*
X277847Y2667680D02*
X288635Y2656892D01*
X206005Y2667680D02*
X252714Y2620971D01*
X234837Y2605627D02*
X306804Y2677594D01*
X237256Y2605513D02*
X288471Y2656729D01*
X175640Y2667680D02*
X286200D01*
X52429Y2677572D02*
X184165Y2545835D01*
X52429Y2495061D02*
X225048Y2667680D01*
X52429Y2605730D02*
X162801Y2495357D01*
X1358537Y2592780D02*
X1385357Y2565960D01*
X1303700Y2592780D02*
X1424260D01*
X1344644Y2565960D02*
X1371464Y2592780D01*
X1424260Y2598899D02*
X1475649Y2547510D01*
X1521800D02*
Y2595100D01*
X1431880Y2547510D02*
Y2565960D01*
X1275080Y2568238D02*
X1303700Y2596858D01*
X1296080Y2565960D02*
X1431880D01*
X1296080Y2549726D02*
Y2565960D01*
X1088949Y2575000D02*
X1148080Y2515868D01*
X1106760Y2543602D02*
X1148080Y2584922D01*
X1431880Y2547510D02*
X1521800D01*
X1431880Y2458610D02*
X1521800D01*
X1296080Y2440160D02*
Y2448994D01*
X1431880Y2440160D02*
Y2458610D01*
X1521800Y2424300D02*
Y2458610D01*
X1296080Y2440160D02*
X1431880D01*
X1106760Y2471760D02*
X1148080Y2513080D01*
X1275080Y2424554D02*
X1296080Y2445554D01*
X1106760Y2485346D02*
X1148080Y2444026D01*
X978580Y2575000D02*
X1099140D01*
X970960Y2548180D02*
X1106760D01*
X1017106Y2575000D02*
X1043926Y2548180D01*
X939653Y2520180D02*
X994473Y2575000D01*
X1039495Y2548180D02*
X1066315Y2575000D01*
X970960Y2515800D02*
Y2548180D01*
X493831Y2595380D02*
X523140Y2566071D01*
X460840Y2595380D02*
X511240D01*
X878940Y2569482D02*
X928242Y2520180D01*
X523140Y2517736D02*
Y2597824D01*
X956904Y2515800D02*
X970960D01*
X956904Y2449760D02*
X970960D01*
X1106760Y2422380D02*
Y2548180D01*
X508600Y2520180D02*
X523140Y2534719D01*
X890840Y2520180D02*
X941240D01*
X460840D02*
X511240D01*
X1312311Y2318101D02*
X1452820Y2458610D01*
X1276390Y2354022D02*
X1362528Y2440160D01*
X1275080Y2355333D02*
Y2454443D01*
X1348233Y2282180D02*
X1521800Y2455748D01*
X1285191Y2450599D02*
X1474190Y2261600D01*
X1275080Y2388868D02*
X1423080Y2240868D01*
X970960Y2422380D02*
X1106760D01*
X1097884D02*
X1148080Y2372184D01*
X1026042Y2422380D02*
X1081142Y2367280D01*
X1139612Y2360928D02*
X1148080Y2369396D01*
X1074122Y2367280D02*
X1148080Y2441238D01*
X1275080Y2355333D02*
X1423080Y2207333D01*
Y2261600D01*
X1082040Y1992140D02*
Y2023927D01*
X956017Y2367280D02*
X1120140D01*
X1026423Y2062789D02*
X1082040Y2007171D01*
X1027143Y2078824D02*
X1082040Y2023927D01*
X1058192Y1992140D02*
X1082040Y2015988D01*
X978580Y1992140D02*
X1082040D01*
X970960Y2422380D02*
Y2449760D01*
X949060Y2385903D02*
X985537Y2422380D01*
X949060Y2374237D02*
Y2446410D01*
Y2427520D02*
X1009300Y2367280D01*
X1002280D02*
X1057379Y2422380D01*
X949060Y2374237D02*
X956017Y2367280D01*
X518840Y2337380D02*
X533240D01*
X536163Y2337522D02*
X543319Y2330366D01*
X554114Y2206483D02*
X605887Y2258256D01*
X986350Y1992140D02*
X1050089Y2055878D01*
X992357Y2025012D02*
X1025229Y1992140D01*
X552691Y2311452D02*
X632990Y2231153D01*
X494450Y2146819D02*
X506050Y2158419D01*
X325497Y2600360D02*
X444227D01*
X345167D02*
X429727Y2515800D01*
X432378D02*
X511967Y2595389D01*
X360536Y2515800D02*
X444756Y2600020D01*
X288694Y2515800D02*
X373254Y2600360D01*
X265059Y2515800D02*
X445176D01*
X283953Y2558816D02*
X325497Y2600360D01*
X299411Y2574274D02*
X357885Y2515800D01*
X286200Y2441464D02*
X294496Y2449760D01*
X438820Y2354680D02*
X491534D01*
X313020Y2322240D02*
X326482D01*
X313020D02*
Y2449760D01*
X438820Y2322240D02*
Y2354680D01*
X420278Y2322240D02*
X438820D01*
X286200Y2443801D02*
X313020Y2416981D01*
X286200Y2369622D02*
X313020Y2396441D01*
X286200Y2449760D02*
X313020D01*
X286200Y2371958D02*
X313020Y2345139D01*
X175640Y2329860D02*
X286200D01*
X275189Y2526654D02*
X286043Y2515800D01*
X286200Y2329860D02*
Y2449760D01*
X175640Y2329860D02*
Y2414801D01*
X52429Y2533887D02*
X126880Y2459436D01*
X52429Y2462045D02*
X90959Y2423515D01*
X52429Y2423219D02*
X183293Y2554083D01*
X75711Y2408267D02*
X173573Y2506129D01*
X132080Y2359186D02*
X175640Y2402746D01*
Y2338834D02*
X184614Y2329860D01*
X137657Y2376818D02*
X175640Y2338834D01*
X52429Y2390203D02*
X66040Y2376592D01*
X132080Y2371241D02*
X175640Y2414801D01*
X52429Y2351377D02*
X66040Y2364988D01*
X421760Y2289656D02*
X486785Y2354680D01*
X447163D02*
X588703Y2213140D01*
X378229Y2102440D02*
X569966Y2294177D01*
X423718Y2306283D02*
X530580Y2199420D01*
X256456Y2329860D02*
X463830Y2122486D01*
X132080Y2310552D02*
X340192Y2102440D01*
X132080Y2143659D02*
X313020Y2324599D01*
X286200Y2082253D02*
X542921Y2338974D01*
X184614Y2329860D02*
X412034Y2102440D01*
X398228Y2259931D02*
X506169Y2151990D01*
X438820Y2091189D02*
X459506Y2111875D01*
X438820Y2067460D02*
Y2102440D01*
Y2067460D02*
X468165D01*
X438820Y2075654D02*
X447014Y2067460D01*
X226925Y2094820D02*
X387504Y2255400D01*
X313020Y2102440D02*
X438820D01*
X313020Y2084751D02*
Y2102440D01*
X132080Y2071817D02*
X333380Y2273118D01*
X132080Y2287344D02*
X175640Y2330904D01*
X132080Y2215502D02*
X246438Y2329860D01*
X52429Y2135850D02*
X66040Y2149462D01*
X132080Y2238710D02*
X275970Y2094820D01*
X132080Y2166868D02*
X204128Y2094820D01*
X52429Y2102835D02*
X66040Y2089224D01*
X52429Y2279535D02*
X66040Y2293146D01*
X52429Y2246519D02*
X66040Y2232908D01*
X52429Y2318361D02*
X66040Y2304750D01*
X52429Y2174677D02*
X66040Y2161066D01*
X52429Y2207693D02*
X66040Y2221304D01*
X275970Y2094820D02*
X286200Y2084590D01*
Y2079659D02*
Y2094820D01*
X175640D02*
X286200D01*
X132080Y2095026D02*
X175640Y2051466D01*
X52429Y2030993D02*
X66040Y2017382D01*
X52429Y2064008D02*
X66040Y2077619D01*
X132080Y1999975D02*
X175640Y2043535D01*
X52429Y1992166D02*
X66040Y2005777D01*
X2300787Y2009740D02*
X2352187Y1958340D01*
X2317551D02*
X2368951Y2009740D01*
X2245708Y1958340D02*
X2299380Y2012011D01*
X2389393Y1958340D02*
X2568348Y2137295D01*
X2372629Y2009740D02*
X2424029Y1958340D01*
X2235640Y1722560D02*
Y1831340D01*
X2160463Y2006380D02*
X2208503Y1958340D01*
X2136140D02*
X2509370D01*
X2133600Y1989916D02*
X2150064Y2006380D01*
X2232305D02*
X2280345Y1958340D01*
X2173866D02*
X2221906Y2006380D01*
X2297297Y1722560D02*
X2406077Y1831340D01*
X2343029Y1696449D02*
X2474181Y1827602D01*
X2407345Y1831340D02*
X2558514Y1680172D01*
X2235640Y1732745D02*
X2334235Y1831340D01*
X2235640D02*
X2470443D01*
X2235640Y1804587D02*
X2262393Y1831340D01*
X2235640Y1722560D02*
X2305240D01*
X2235640Y1787519D02*
X2300599Y1722560D01*
X2133600Y1958242D02*
Y2006380D01*
X2029460Y1956777D02*
Y1988342D01*
X2019043Y1998760D02*
X2029460Y1988342D01*
X1952557Y1998760D02*
X2012000Y1939317D01*
X1927860Y1856018D02*
X2029460Y1957618D01*
X1904219Y1904219D02*
X1998760Y1998760D01*
X1868298Y1940140D02*
X1926918Y1998760D01*
X1904219Y1904219D02*
X1998760Y1998760D01*
X1863680Y2015795D02*
X1976079Y1903396D01*
X1927860Y1855177D02*
X2029460Y1956777D01*
X1922103Y1885530D02*
X1940158Y1867475D01*
X2036258Y1641120D02*
X2050764Y1626614D01*
X1927860Y1855177D02*
Y1866900D01*
X1854689Y1953749D02*
X1918189Y1890249D01*
X1825590Y1825590D02*
X1857521Y1857521D01*
X1861820Y1820438D02*
Y1853223D01*
X2405443Y1615180D02*
X2546023Y1755760D01*
X2341899Y1499140D02*
X2423020D01*
X2345400Y1677759D02*
X2407979Y1615180D01*
X2345618Y1483512D02*
X2361245Y1499140D01*
X2380335D02*
X2497554Y1381921D01*
X2333601Y1615180D02*
X2510102Y1791681D01*
X2333280Y1615180D02*
X2463214D01*
X2263661Y1831340D02*
X2558514Y1536487D01*
X2335503Y1831340D02*
X2558514Y1608330D01*
X2375457Y1441509D02*
X2428054Y1494106D01*
X2361458Y1455509D02*
X2497554Y1319413D01*
X2411378Y1405589D02*
X2463975Y1458185D01*
X2088020Y1288560D02*
X2151380Y1225200D01*
X2142234Y1293844D02*
X2151380Y1284698D01*
Y1124360D02*
Y1284698D01*
X2010235Y1148130D02*
X2149092Y1286987D01*
X2022828Y1641120D02*
X2082800Y1581148D01*
X2050864Y1626515D02*
X2082800Y1594578D01*
X2005993Y1574940D02*
X2054216Y1623163D01*
X2088020Y1239380D02*
Y1450203D01*
X2082800Y1574940D02*
Y1594578D01*
X1879144Y1641120D02*
X1945324Y1574940D01*
X1934151D02*
X2000331Y1641120D01*
X1862308Y1574940D02*
X1928488Y1641120D01*
X1950986D02*
X2017166Y1574940D01*
X2131060Y1320800D02*
Y1405410D01*
X2088020Y1297757D02*
X2131060Y1340797D01*
X2093974Y1442496D02*
X2131060Y1405410D01*
X2088020Y1432244D02*
X2131060Y1389204D01*
X2088020Y1369599D02*
X2127446Y1409024D01*
X2088020Y1360402D02*
X2131231Y1317190D01*
X1819736Y1963420D02*
X1848276Y1991960D01*
X1815673D02*
X1849970Y1957663D01*
X1754628Y1897380D02*
X1817663D01*
X1766568D02*
X1839512Y1824436D01*
X1817663Y1897380D02*
X1861820Y1853223D01*
X1754628Y1897380D02*
X1821286Y1830722D01*
X1684397Y1991960D02*
X1712937Y1963420D01*
X1831340D01*
X1694494Y1981863D02*
X1704591Y1991960D01*
X1747894Y1963420D02*
X1776434Y1991960D01*
X1743830D02*
X1772370Y1963420D01*
X1825590Y1825590D02*
X1857521Y1857521D01*
X1790083Y1861925D02*
X1821600Y1893442D01*
X1795240Y1641120D02*
X2036258D01*
X1361440Y1893840D02*
X1532794Y1722486D01*
X1467525Y1683052D02*
X1519877Y1735403D01*
X1361440Y1871455D02*
X1515491Y1717404D01*
X1485397Y1665180D02*
X1498581D01*
X1361440Y1799613D02*
X1495873Y1665180D01*
X978580Y1984370D02*
X986350Y1992140D01*
X1361440Y1789137D02*
Y1893840D01*
X992654Y1854760D02*
X1019474Y1881580D01*
X992105D02*
X1018925Y1854760D01*
X956970Y1962760D02*
X978580Y1984370D01*
X957348Y1916337D02*
X978580Y1895105D01*
X955942Y1989585D02*
X978580Y1966947D01*
X892812Y1826760D02*
X978580Y1912528D01*
Y1881580D02*
Y1992140D01*
X1361440Y1792493D02*
X1412114Y1843166D01*
X1395683Y1754894D02*
X1448034Y1807245D01*
X1361440Y1864335D02*
X1376192Y1879087D01*
X1361440Y1789137D02*
X1485397Y1665180D01*
X1431604Y1718973D02*
X1483956Y1771324D01*
X1063947Y1881580D02*
X1082040Y1863487D01*
X970960Y1854760D02*
X1082040D01*
X978580Y1881580D02*
X1082040D01*
Y1854760D02*
Y1881580D01*
X1064496Y1854760D02*
X1082040Y1872303D01*
X1790466Y1574940D02*
X1856646Y1641120D01*
X1752460Y1574940D02*
X2082800D01*
X1739035Y1641120D02*
X1795240D01*
X1807302D02*
X1873482Y1574940D01*
X1752460Y1239380D02*
Y1574940D01*
X1737247Y1639333D02*
X1801640Y1574940D01*
X1701326Y1603412D02*
X1752460Y1552278D01*
X1686381Y1588466D02*
X1739035Y1641120D01*
X1686381Y1542697D02*
X1784804Y1641120D01*
X1686381Y1546515D02*
X1752460Y1480435D01*
X1686381Y1255328D02*
X1752460Y1321407D01*
X1686381Y1330988D02*
X1752460Y1264909D01*
X1686381Y1259146D02*
X1821027Y1124500D01*
X1686381Y1183486D02*
X1752460Y1249565D01*
X1686381Y1474672D02*
X1752460Y1408593D01*
X1686381Y1399012D02*
X1752460Y1465092D01*
X1686381Y1470855D02*
X1752460Y1536934D01*
X1686381Y1327170D02*
X1752460Y1393249D01*
X1686381Y1402830D02*
X1752460Y1336751D01*
X1086828Y1320190D02*
X1093058Y1313960D01*
X981120D02*
X1093058D01*
X1026591D02*
X1059825Y1347193D01*
X1686381Y1164475D02*
Y1588466D01*
X1093058Y1313960D02*
X1101680Y1305337D01*
X981120Y1203400D02*
Y1313960D01*
X928070Y1442720D02*
X1056830Y1313960D01*
X964298Y1442720D02*
X1086726Y1320292D01*
X954184Y1385236D02*
X987983Y1419035D01*
X931749Y1290960D02*
X1023903Y1383114D01*
X964460Y1334488D02*
X984988Y1313960D01*
X1101680Y1203400D02*
Y1305337D01*
Y1245364D02*
X1131667Y1275351D01*
X1101680Y1269110D02*
X1231900Y1138890D01*
X1101680Y1305337D02*
X1231900Y1175117D01*
X963621Y1250990D02*
X981120Y1268488D01*
X963820Y1263286D02*
X981120Y1245986D01*
X2125130Y1119340D02*
X2151380Y1145590D01*
X2314674Y910282D02*
Y1063418D01*
X2235640Y1022160D02*
Y1058705D01*
X1752460Y1239380D02*
X2088020D01*
X2109598Y1175650D02*
X2151380Y1217432D01*
X1993515Y1239380D02*
X2051202Y1181693D01*
X2065358Y1239380D02*
X2151380Y1153358D01*
X2261548Y1043189D02*
X2314674Y990064D01*
X2234668Y1013352D02*
X2263985Y1042668D01*
X2230484Y1002411D02*
X2314674Y918222D01*
X2171794Y989259D02*
X2282723Y878331D01*
X2105994Y983217D02*
X2246802Y842410D01*
X2060373Y956996D02*
X2210881Y806489D01*
X1921673Y1239380D02*
X1974651Y1186402D01*
X1976199Y1185935D02*
X2029643Y1239380D01*
X1901658Y1183237D02*
X1957801Y1239380D01*
X1849831D02*
X1920771Y1168440D01*
X1777989Y1239380D02*
X1843887Y1173483D01*
X1686381Y1187304D02*
X1741316Y1132369D01*
X1771232Y1124653D02*
X1885959Y1239380D01*
X1705873Y1131136D02*
X1814117Y1239380D01*
X2009362Y1151691D02*
X2025857Y1135197D01*
X1665055Y1127367D02*
X1675206Y1137519D01*
X2357609Y428771D02*
X2675842Y747005D01*
X2401261Y472424D02*
X2454767Y418918D01*
X2356297Y416560D02*
X2991977Y1052240D01*
X2351377Y52429D02*
X3043858Y744910D01*
X2365340Y436503D02*
X2385283Y416560D01*
X2160020Y795020D02*
X2314674Y949673D01*
X2199412Y795020D02*
X2314674Y910282D01*
X2088178Y795020D02*
X2314674Y1021515D01*
X2279535Y52429D02*
X2972016Y744910D01*
X2207693Y52429D02*
X2900174Y744910D01*
X2174114Y340360D02*
X2462045Y52429D01*
X2245956Y340360D02*
X2533887Y52429D01*
X2389641Y340360D02*
X2677572Y52429D01*
X2317799Y340360D02*
X2605730Y52429D01*
X2030430Y340360D02*
X2318361Y52429D01*
X2064008D02*
X2351939Y340360D01*
X1992166Y52429D02*
X2280097Y340360D01*
X2135850Y52429D02*
X2423782Y340360D01*
X2102272D02*
X2390203Y52429D01*
X1944494Y795020D02*
X2139382Y989908D01*
X1952610Y849233D02*
X2006823Y795020D01*
X1916689Y813312D02*
X1934981Y795020D01*
X2016336D02*
X2204048Y982732D01*
X2024452Y921075D02*
X2150507Y795020D01*
X1988531Y885154D02*
X2078665Y795020D01*
X1908069Y804691D02*
X2068589Y965211D01*
X1884720Y795020D02*
X2199412D01*
X1599377Y340360D02*
X1887308Y52429D01*
X1848482D02*
X2136413Y340360D01*
X1886746D02*
X2174677Y52429D01*
X1814904Y340360D02*
X2102835Y52429D01*
X1958588Y340360D02*
X2246519Y52429D01*
X1920324D02*
X2208255Y340360D01*
X1671219D02*
X1959151Y52429D01*
X1704798D02*
X1992729Y340360D01*
X1632956Y52429D02*
X1920887Y340360D01*
X1776640Y52429D02*
X2064571Y340360D01*
X1743062D02*
X2030993Y52429D01*
X1480820Y1177339D02*
X1502428Y1155730D01*
X1480820Y1121609D02*
X1495003Y1135793D01*
X1480820Y1227934D02*
X1497118Y1211635D01*
X1480820Y1193452D02*
X1498080Y1210712D01*
X1480820Y1113498D02*
Y1227934D01*
X1109300Y1117806D02*
X1231921Y995185D01*
X949060Y877218D02*
X1231900Y1160058D01*
X1535240Y1091760D02*
X1604840D01*
X1504138Y1090180D02*
X1604840D01*
X1480820Y1113498D02*
X1504138Y1090180D01*
X1241571Y973009D02*
X1409889Y804691D01*
X1017572Y802045D02*
X1231900Y1016374D01*
X1032642Y1050780D02*
X1288402Y795020D01*
X1082388D02*
X1250975Y963606D01*
X1104738Y1176580D02*
X1167587Y1239430D01*
X1032896Y1176580D02*
X1059715Y1203400D01*
X1023706D02*
X1050526Y1176580D01*
X1109300Y1109300D02*
X1203509Y1203509D01*
X1095548Y1203400D02*
X1231900Y1067048D01*
X1109300Y1109300D02*
X1203509Y1203509D01*
X981120Y1203400D02*
X1101680D01*
X973500Y1176580D02*
X1109300D01*
X923864Y1231400D02*
X978684Y1176580D01*
X933054Y1148580D02*
X987873Y1203400D01*
X973500Y1144200D02*
Y1176580D01*
X1109300Y1050780D02*
Y1176580D01*
X973500Y1050780D02*
X1109300D01*
X973500D02*
Y1078160D01*
X981651Y837967D02*
X1231900Y1088216D01*
Y996358D02*
Y1175117D01*
X956904Y1078160D02*
X973500D01*
X949060Y1020902D02*
X978938Y1050780D01*
X956904Y1144200D02*
X973500D01*
X949060Y949060D02*
X1050780Y1050780D01*
X949060Y949060D02*
X1050780Y1050780D01*
X1433238Y795020D02*
X1884720D01*
X1433238D02*
X1884720D01*
X1240167Y340360D02*
X1528098Y52429D01*
X1273745D02*
X1561676Y340360D01*
X1201903Y52429D02*
X1489834Y340360D01*
X718148Y419100D02*
X2334260D01*
X721333Y416560D02*
X2452408D01*
X1024597Y795020D02*
X1433238D01*
X1168325Y340360D02*
X1456256Y52429D01*
X1130061D02*
X1417992Y340360D01*
X1455693D02*
X1743624Y52429D01*
X1489271D02*
X1777202Y340360D01*
X1417429Y52429D02*
X1705360Y340360D01*
X1561113Y52429D02*
X1849045Y340360D01*
X1527535D02*
X1815466Y52429D01*
X721333Y340360D02*
X2468190D01*
X284367Y52429D02*
X4788903D01*
X1312009Y340360D02*
X1599940Y52429D01*
X1383851Y340360D02*
X1671782Y52429D01*
X1345587D02*
X1633518Y340360D01*
X1104484Y1050780D02*
X1360244Y795020D01*
X1154231D02*
X1286896Y927685D01*
X949060Y870557D02*
X1024597Y795020D01*
X1297915D02*
X1358738Y855843D01*
X1369757Y795020D02*
X1394659Y819922D01*
X1226073Y795020D02*
X1322817Y891764D01*
X949060Y1062519D02*
X1216559Y795020D01*
X949060Y990677D02*
X1144717Y795020D01*
X949060Y918835D02*
X1072875Y795020D01*
X737272Y340360D02*
X1025203Y52429D01*
X699008D02*
X986939Y340360D01*
X986376Y52429D02*
X1274308Y340360D01*
X1024640D02*
X1312571Y52429D01*
X952798Y340360D02*
X1240729Y52429D01*
X1096482Y340360D02*
X1384414Y52429D01*
X1058219D02*
X1346150Y340360D01*
X809114D02*
X1097045Y52429D01*
X842692D02*
X1130623Y340360D01*
X770850Y52429D02*
X1058781Y340360D01*
X914534Y52429D02*
X1202465Y340360D01*
X880956D02*
X1168887Y52429D01*
X896606Y1977079D02*
X904545Y1969140D01*
X963820Y1932160D02*
Y1946560D01*
X891508Y1969140D02*
X900187Y1977819D01*
X890840Y1969140D02*
X941240D01*
X878940Y1965750D02*
Y1973960D01*
X892263Y1909580D02*
X970960Y1830883D01*
Y1822380D02*
Y1854760D01*
X890840Y1826760D02*
X941240D01*
X878940Y1884730D02*
X903790Y1909580D01*
X890840D02*
X941240D01*
X878940Y1851061D02*
X903241Y1826760D01*
X438820Y1991260D02*
X491534D01*
X460840Y1976760D02*
X506140D01*
X451372Y1991260D02*
X465872Y1976760D01*
X468076D02*
X482575Y1991260D01*
X438820Y1967228D02*
Y1991260D01*
X404150Y1966640D02*
X426214Y1944576D01*
X332308Y1966640D02*
X399180Y1899768D01*
X499939Y1901960D02*
X511240D01*
X878940Y1824316D02*
Y1912971D01*
X523140Y1824316D02*
Y1904404D01*
X494236Y1876554D02*
X523140Y1847650D01*
X460840Y1826760D02*
X511240D01*
X449428Y1849520D02*
X472188Y1826760D01*
X461760D02*
X523140Y1888140D01*
X960274Y1822380D02*
X970960Y1833065D01*
X956904Y1822380D02*
X970960D01*
X509972Y1645292D02*
X649136Y1506127D01*
X557071Y1644323D02*
X683074Y1518321D01*
X441360Y1642061D02*
X588896Y1494525D01*
X346628Y1424260D02*
X561881Y1639513D01*
X421887Y1589692D02*
X557516Y1454064D01*
X455332Y1389280D02*
X633723Y1567671D01*
X418470Y1424260D02*
X597802Y1603592D01*
X899153Y1402047D02*
X939825Y1442720D01*
X894575D02*
X964298D01*
X645617Y1507723D02*
X669645Y1531750D01*
X518840Y1643960D02*
X533240D01*
X441360Y1661260D02*
X491534D01*
X441360Y1626280D02*
Y1661260D01*
X423740Y1626280D02*
X441360D01*
X385537Y1822380D02*
X421335Y1858178D01*
X315560Y1626280D02*
X328100D01*
X315560D02*
Y1756340D01*
X379640Y1560097D02*
X524745Y1414992D01*
X441360Y1313080D02*
X491534D01*
X441360Y1303466D02*
X450974Y1313080D01*
X482973D02*
X497473Y1298580D01*
X315560Y1424260D02*
X441360D01*
Y1389280D02*
Y1424260D01*
X315560Y1406571D02*
Y1424260D01*
X441360Y1389280D02*
X491534D01*
X441360Y1291458D02*
Y1313080D01*
X286200Y1974260D02*
Y1989421D01*
X252846Y1974260D02*
X404726Y1822380D01*
X241853D02*
X386113Y1966640D01*
X313020D02*
Y1984329D01*
X132080Y1856291D02*
X250049Y1974260D01*
X175640D02*
X286200D01*
X181004D02*
X332884Y1822380D01*
X132080Y1784449D02*
X314271Y1966640D01*
X313020D02*
X438283D01*
X313695Y1822380D02*
X399937Y1908622D01*
X288740Y1725583D02*
X315560Y1752402D01*
X288740Y1722839D02*
X315560Y1696019D01*
X288740Y1653740D02*
X315560Y1680560D01*
X201672Y1822380D02*
X445176D01*
X215350Y1756340D02*
X315560D01*
X132080Y1951342D02*
X261042Y1822380D01*
X213470Y1754460D02*
X288740D01*
X175640Y1974260D02*
Y2094820D01*
X132080Y1928133D02*
X178207Y1974260D01*
X132080Y2023184D02*
X175640Y1979624D01*
X132080Y1879499D02*
X190979Y1820600D01*
X52429Y1920324D02*
X66040Y1933935D01*
X52429Y1887308D02*
X66040Y1873697D01*
X52429Y1959151D02*
X66040Y1945539D01*
X132080Y1766465D02*
Y2371241D01*
X52429Y1848482D02*
X66040Y1862093D01*
X132080Y1766465D02*
X178323Y1812709D01*
X162560Y1703550D02*
X178180Y1719170D01*
X132080Y1807657D02*
X152676Y1787061D01*
X162560Y1671245D02*
X178180Y1686865D01*
X163453Y1704443D02*
X178180Y1689715D01*
X52429Y1776640D02*
X66040Y1790251D01*
X52429Y1743624D02*
X66040Y1730013D01*
X52429Y1815466D02*
X66040Y1801855D01*
X52429Y1671782D02*
X66040Y1658171D01*
X52429Y1704798D02*
X66040Y1718409D01*
X288740Y1633900D02*
Y1754460D01*
Y1650997D02*
X325657Y1614080D01*
X267166Y1416640D02*
X500610Y1650084D01*
X233995Y1633900D02*
X478615Y1389280D01*
X195324Y1416640D02*
X347453Y1568769D01*
X178180Y1633900D02*
X288740D01*
X162560Y1455718D02*
X326359Y1619517D01*
X162560Y1527560D02*
X268900Y1633900D01*
X162560Y1633493D02*
X371793Y1424260D01*
X162560Y1561651D02*
X315560Y1408651D01*
X288740Y1401479D02*
Y1416640D01*
Y1296080D02*
Y1311241D01*
X178180Y1416640D02*
X288740D01*
X162560Y1168350D02*
X301177Y1306967D01*
X178180Y1633900D02*
Y1719170D01*
X162560Y1599402D02*
X197058Y1633900D01*
X52429Y1489271D02*
X66040Y1502882D01*
X162560Y1116079D02*
Y1703550D01*
Y1489809D02*
X235729Y1416640D01*
X66040Y609675D02*
Y2384919D01*
X52429Y1599940D02*
X66040Y1586329D01*
X52429Y1561113D02*
X66040Y1574725D01*
X52429Y1632956D02*
X66040Y1646567D01*
X52429Y1528098D02*
X66040Y1514487D01*
X52429Y300635D02*
Y3405435D01*
X162560Y1383876D02*
X178180Y1399496D01*
X162560Y1346125D02*
X178180Y1330505D01*
X162560Y1417967D02*
X178180Y1402347D01*
Y1296080D02*
Y1416640D01*
X162560Y1312034D02*
X178180Y1327654D01*
X52429Y1417429D02*
X66040Y1431040D01*
X52429Y1384414D02*
X66040Y1370802D01*
X52429Y1456256D02*
X66040Y1442645D01*
X52429Y1312571D02*
X66040Y1298960D01*
X52429Y1345587D02*
X66040Y1359198D01*
X925494Y1301611D02*
X936146Y1290960D01*
X963820Y1253980D02*
Y1268380D01*
X890840Y1290960D02*
X941240D01*
X878940Y1287570D02*
Y1295780D01*
X890840Y1148580D02*
X941240D01*
X890840Y1231400D02*
X941240D01*
X878940Y1166309D02*
X944231Y1231599D01*
X878940Y1204481D02*
X934842Y1148580D01*
X878940Y1146136D02*
Y1234791D01*
X523140Y1146136D02*
Y1186716D01*
X460840Y1298580D02*
X506140D01*
X430640Y1253980D02*
Y1268380D01*
X363909Y1288460D02*
X432315Y1220054D01*
X315560Y1288460D02*
X438283D01*
X315560D02*
Y1306149D01*
X284447Y1296080D02*
X436327Y1144200D01*
X282094D02*
X426354Y1288460D01*
X502001Y1148580D02*
X523140Y1169719D01*
X460840Y1148580D02*
X511240D01*
X485994Y1166375D02*
X503789Y1148580D01*
X353937Y1144200D02*
X432581Y1222844D01*
X425779Y1144200D02*
X455650Y1174071D01*
X288740Y1076260D02*
X315560Y1049440D01*
X441360Y983080D02*
X491534D01*
X288740Y1007161D02*
X315560Y1033981D01*
X949060Y870557D02*
Y1074810D01*
X552691Y706172D02*
X712763Y546100D01*
X546100D02*
X629431Y629431D01*
X617942Y546100D02*
X665352Y593510D01*
X689784Y546100D02*
X701273Y557589D01*
X586690Y419100D02*
X639409Y366381D01*
X546100Y546100D02*
X629431Y629431D01*
X295543Y546100D02*
X712763D01*
X474258D02*
X593510Y665352D01*
X299321Y419100D02*
X665992Y52429D01*
X269865Y54338D02*
X634626Y419100D01*
X514848D02*
X881519Y52429D01*
X555324D02*
X843255Y340360D01*
X676261Y329529D02*
X953361Y52429D01*
X627166D02*
X915097Y340360D01*
X371163Y419100D02*
X737834Y52429D01*
X411640D02*
X687282Y328071D01*
X339797Y52429D02*
X643270Y355902D01*
X443005Y419100D02*
X809677Y52429D01*
X483482D02*
X771413Y340360D01*
X518840Y965780D02*
X533240D01*
X453762Y983080D02*
X543020Y893822D01*
Y729520D02*
Y967408D01*
X441360Y948100D02*
Y983080D01*
X315560Y948100D02*
Y1078160D01*
X288740Y1004418D02*
X315560Y977598D01*
X288740Y955720D02*
Y1076280D01*
X428767Y931662D02*
X480185Y983080D01*
X315560Y948100D02*
X329869D01*
X427051D02*
X441360D01*
X428839Y936161D02*
X543020Y821980D01*
X402652Y890506D02*
X543020Y750138D01*
X277137Y564506D02*
X543020Y830388D01*
X402416Y546100D02*
X557589Y701273D01*
X330574Y546100D02*
X543020Y758546D01*
X212605Y1296080D02*
X364485Y1144200D01*
X204358D02*
X445176D01*
X210252D02*
X354512Y1288460D01*
X218036Y1078160D02*
X315560D01*
X216156Y1076280D02*
X288740D01*
X178180Y1296080D02*
X288740D01*
X162560Y1274282D02*
X292643Y1144200D01*
X162560Y1240192D02*
X218448Y1296080D01*
X162560Y1202440D02*
X220800Y1144200D01*
X193040Y695935D02*
X381518Y884413D01*
X241216Y600427D02*
X543020Y902231D01*
X205295Y636348D02*
X534766Y965819D01*
X193040Y839619D02*
X315560Y962139D01*
X193040Y955720D02*
X288740D01*
X193040Y911461D02*
X237299Y955720D01*
X193040Y767777D02*
X334802Y909539D01*
X193040Y648603D02*
Y955720D01*
X162560Y1116079D02*
X181010Y1134529D01*
X162560Y1130598D02*
X169820Y1123339D01*
X52429Y1097045D02*
X66040Y1083434D01*
X52429Y1025203D02*
X66040Y1011592D01*
X52429Y986376D02*
X66040Y999988D01*
X52429Y1058219D02*
X66040Y1071830D01*
X52429Y1240729D02*
X66040Y1227118D01*
X52429Y1201903D02*
X66040Y1215514D01*
X52429Y1273745D02*
X66040Y1287356D01*
X52429Y1130061D02*
X66040Y1143672D01*
X52429Y1168887D02*
X66040Y1155276D01*
X52429Y737834D02*
X66040Y724223D01*
X52429Y699008D02*
X66040Y712619D01*
X52429Y770850D02*
X66040Y784461D01*
X52429Y627166D02*
X66040Y640777D01*
X52429Y665992D02*
X66040Y652381D01*
X52429Y914534D02*
X66040Y928145D01*
X52429Y881519D02*
X66040Y867908D01*
X52429Y953361D02*
X66040Y939750D01*
X52429Y809677D02*
X66040Y796065D01*
X52429Y842692D02*
X66040Y856303D01*
X193040Y740908D02*
X387848Y546100D01*
X193040Y669065D02*
X316005Y546100D01*
X193040Y648603D02*
X295543Y546100D01*
X193754Y955720D02*
X603374Y546100D01*
X265596Y955720D02*
X675216Y546100D01*
X193040Y884592D02*
X531532Y546100D01*
X52429Y594150D02*
X594150Y52429D01*
X193040Y812750D02*
X459690Y546100D01*
X52429Y522308D02*
X522308Y52429D01*
X52429Y450466D02*
X450466Y52429D01*
X164482Y92639D02*
X490942Y419100D01*
X256615D02*
X658532D01*
X125127Y125127D02*
X419100Y419100D01*
X212266Y68582D02*
X562784Y419100D01*
X252108Y56676D02*
X284367Y52429D01*
X92639Y164482D02*
X347258Y419100D01*
X125127Y125127D02*
X419100Y419100D01*
X68582Y212266D02*
X275416Y419100D01*
X52429Y378624D02*
X378624Y52429D01*
X52429Y306782D02*
X306782Y52429D01*
X75711Y586326D02*
X233266Y428771D01*
X54338Y269865D02*
X223256Y438782D01*
X52429Y284367D02*
X56676Y252107D01*
X52429Y483482D02*
X115493Y546545D01*
X52429Y411640D02*
X151413Y510624D01*
X52429Y555324D02*
X79571Y582466D01*
X52429Y339797D02*
X187335Y474703D01*
X52429Y284367D02*
Y300635D01*
X136630Y113623D02*
X162443Y93816D01*
X190621Y77548D01*
X113623Y136630D02*
X136630Y113623D01*
X220679Y65097D02*
X252108Y56676D01*
X190621Y77548D02*
X220679Y65097D01*
X65097Y220679D02*
X77548Y190621D01*
X93817Y162442D01*
X56676Y252107D02*
X65097Y220679D01*
X64514Y222854D02*
X222854Y64514D01*
X93817Y162442D02*
X113623Y136630D01*
D11*
X1577200Y2509700D02*
D03*
X1877200D02*
D03*
D12*
X1727200Y2552700D02*
D03*
D13*
Y2801620D02*
D03*
D14*
X1980340Y2084160D02*
D03*
X2190340D02*
D03*
Y2254160D02*
D03*
X1980340D02*
D03*
D15*
X3830320Y1074420D02*
D03*
Y1201420D02*
D03*
Y1328420D02*
D03*
Y1455420D02*
D03*
X3271520Y1074420D02*
D03*
Y1328420D02*
D03*
Y1455420D02*
D03*
Y1201420D02*
D03*
D16*
X701040Y2557780D02*
D03*
Y1864360D02*
D03*
Y1186180D02*
D03*
D17*
X526040Y2722780D02*
D03*
X576040D02*
D03*
X626040D02*
D03*
X676040D02*
D03*
X726040D02*
D03*
X776040D02*
D03*
X826040D02*
D03*
X876040D02*
D03*
Y2392780D02*
D03*
X826040D02*
D03*
X776040D02*
D03*
X726040D02*
D03*
X676040D02*
D03*
X626040D02*
D03*
X576040D02*
D03*
X526040D02*
D03*
Y2029360D02*
D03*
X576040D02*
D03*
X626040D02*
D03*
X676040D02*
D03*
X726040D02*
D03*
X776040D02*
D03*
X826040D02*
D03*
X876040D02*
D03*
Y1699360D02*
D03*
X826040D02*
D03*
X776040D02*
D03*
X726040D02*
D03*
X676040D02*
D03*
X626040D02*
D03*
X576040D02*
D03*
X526040D02*
D03*
Y1351180D02*
D03*
X576040D02*
D03*
X626040D02*
D03*
X676040D02*
D03*
X726040D02*
D03*
X776040D02*
D03*
X826040D02*
D03*
X876040D02*
D03*
Y1021180D02*
D03*
X826040D02*
D03*
X776040D02*
D03*
X726040D02*
D03*
X676040D02*
D03*
X626040D02*
D03*
X576040D02*
D03*
X526040D02*
D03*
D18*
X486040Y2482780D02*
D03*
Y2632780D02*
D03*
X916040D02*
D03*
Y2482780D02*
D03*
X486040Y1789360D02*
D03*
Y1939360D02*
D03*
X916040D02*
D03*
Y1789360D02*
D03*
X486040Y1111180D02*
D03*
Y1261180D02*
D03*
X916040D02*
D03*
Y1111180D02*
D03*
D19*
X2270240Y1132160D02*
D03*
Y1182160D02*
D03*
Y1232160D02*
D03*
Y1282160D02*
D03*
Y1332160D02*
D03*
Y1382160D02*
D03*
Y1432160D02*
D03*
Y1482160D02*
D03*
Y1532160D02*
D03*
Y1582160D02*
D03*
Y1632160D02*
D03*
Y1682160D02*
D03*
X1570240D02*
D03*
Y1632160D02*
D03*
Y1582160D02*
D03*
Y1532160D02*
D03*
Y1482160D02*
D03*
Y1432160D02*
D03*
Y1382160D02*
D03*
Y1332160D02*
D03*
Y1282160D02*
D03*
Y1232160D02*
D03*
Y1182160D02*
D03*
Y1132160D02*
D03*
D20*
X1645240Y1057160D02*
D03*
X1695240D02*
D03*
X1745240D02*
D03*
X1795240D02*
D03*
X1845240D02*
D03*
X1895240D02*
D03*
X1945240D02*
D03*
X1995240D02*
D03*
X2045240D02*
D03*
X2095240D02*
D03*
X2145240D02*
D03*
X2195240D02*
D03*
X2145240Y1757160D02*
D03*
X2095240D02*
D03*
X2045240D02*
D03*
X1995240D02*
D03*
X1945240D02*
D03*
X1895240D02*
D03*
X1845240D02*
D03*
X1795240D02*
D03*
X1745240D02*
D03*
X1695240D02*
D03*
X1645240D02*
D03*
D21*
X2195240D02*
D03*
D22*
X1920240Y1407160D02*
D03*
D23*
X3513747Y2820087D02*
D03*
X3463760D02*
D03*
X3413747D02*
D03*
X3363760D02*
D03*
X3313748D02*
D03*
Y2520113D02*
D03*
X3363760D02*
D03*
X3413747D02*
D03*
X3513747D02*
D03*
X3463760D02*
D03*
D24*
X3412858Y2669948D02*
D03*
D25*
X1038860Y2630280D02*
D03*
Y2485280D02*
D03*
Y1936860D02*
D03*
Y1791860D02*
D03*
X1490980Y2053700D02*
D03*
Y2198700D02*
D03*
X1041400Y1258680D02*
D03*
Y1113680D02*
D03*
X4889500Y2777600D02*
D03*
Y2632600D02*
D03*
X2956560Y2295000D02*
D03*
Y2150000D02*
D03*
X3870960Y2295000D02*
D03*
Y2150000D02*
D03*
X3413760Y2295000D02*
D03*
Y2150000D02*
D03*
X2804160D02*
D03*
Y2295000D02*
D03*
X3566160Y2150000D02*
D03*
Y2295000D02*
D03*
X1363980Y2648060D02*
D03*
Y2503060D02*
D03*
X2092960Y2645520D02*
D03*
Y2500520D02*
D03*
X2359660Y2210020D02*
D03*
Y2065020D02*
D03*
X1795780Y2054860D02*
D03*
Y2199860D02*
D03*
X1643380D02*
D03*
Y2054860D02*
D03*
X4729480Y2777600D02*
D03*
Y2632600D02*
D03*
X3261360Y2295000D02*
D03*
Y2150000D02*
D03*
X3108960Y2295000D02*
D03*
Y2150000D02*
D03*
X2438400Y2461040D02*
D03*
Y2606040D02*
D03*
X2593340Y2461040D02*
D03*
Y2606040D02*
D03*
X2438400Y2891900D02*
D03*
Y2746900D02*
D03*
X2593340Y2891900D02*
D03*
Y2746900D02*
D03*
X3716020Y2454800D02*
D03*
Y2599800D02*
D03*
X3868420Y2454800D02*
D03*
Y2599800D02*
D03*
X3716020Y2883120D02*
D03*
Y2738120D02*
D03*
X3868420Y2883120D02*
D03*
Y2738120D02*
D03*
X3718560Y2150000D02*
D03*
Y2295000D02*
D03*
D26*
X2790080Y1584960D02*
D03*
X2935080D02*
D03*
X3141760Y863600D02*
D03*
X3286760D02*
D03*
X2790080Y1120140D02*
D03*
X2935080D02*
D03*
X2790080Y1430020D02*
D03*
X2935080D02*
D03*
X2790080Y1275080D02*
D03*
X2935080D02*
D03*
X4598560Y1849120D02*
D03*
X4743560D02*
D03*
X3427620Y863600D02*
D03*
X3572620D02*
D03*
X3713480D02*
D03*
X3858480D02*
D03*
X3910440Y1638300D02*
D03*
X3765440D02*
D03*
X3112660Y2004060D02*
D03*
X3257660D02*
D03*
X230920Y2727960D02*
D03*
X375920D02*
D03*
Y2390140D02*
D03*
X230920D02*
D03*
X233460Y1356360D02*
D03*
X378460D02*
D03*
Y1694180D02*
D03*
X233460D02*
D03*
X4679840Y820420D02*
D03*
X4824840D02*
D03*
X230920Y2034540D02*
D03*
X375920D02*
D03*
X378460Y1016000D02*
D03*
X233460D02*
D03*
D27*
X4376420Y2426780D02*
D03*
D28*
X4566920Y2776780D02*
D03*
X4439920D02*
D03*
X4312920D02*
D03*
X4185920D02*
D03*
X4175760Y2214880D02*
D03*
X4310380D02*
D03*
X4442460D02*
D03*
X4577080D02*
D03*
D29*
X2763380Y2672080D02*
D03*
X3063380D02*
D03*
D30*
X4889800Y2014220D02*
D03*
D31*
X4609800D02*
D03*
D32*
X3868420Y2883120D02*
X3913540Y2928240D01*
X3823300D02*
X3868420Y2883120D01*
X3913540Y2838000D01*
X3823300D02*
X3868420Y2883120D01*
X3716020D02*
X3761140Y2838000D01*
X3868420Y2454800D02*
X3913540Y2499920D01*
X3823300D02*
X3868420Y2454800D01*
X3913540Y2409680D01*
X3823300D02*
X3868420Y2454800D01*
X3716020D02*
X3761140Y2499920D01*
X3670900Y2928240D02*
X3716020Y2883120D01*
X3761140Y2928240D01*
X3670900Y2499920D02*
X3716020Y2454800D01*
X3870960Y2150000D02*
X3916080Y2104880D01*
X3870960Y2150000D02*
X3916080Y2195120D01*
X3825840D02*
X3870960Y2150000D01*
X3825840Y2104880D02*
X3870960Y2150000D01*
X3291128Y2797467D02*
X3313748Y2820087D01*
X2438400Y2891900D02*
X2483520Y2937020D01*
X2593340Y2891900D02*
X2638460Y2937020D01*
X2548220D02*
X2593340Y2891900D01*
Y2461040D02*
X2638460Y2415920D01*
X3368640Y2195120D02*
X3413760Y2150000D01*
X3261360Y2295000D02*
X3306480Y2249880D01*
X3413760Y2150000D02*
X3458880Y2195120D01*
X3413760Y2150000D02*
X3458880Y2104880D01*
X3368640D02*
X3413760Y2150000D01*
X3063840Y2340120D02*
X3108960Y2295000D01*
X3063840Y2249880D02*
X3108960Y2295000D01*
X2956560Y2150000D02*
X3001680Y2195120D01*
X2911440Y2104880D02*
X2956560Y2150000D01*
X2911440Y2195120D02*
X2956560Y2150000D01*
X3001680Y2104880D01*
X4679840Y820420D02*
X4724960Y865540D01*
X4679840Y820420D02*
X4724960Y775300D01*
X4634720D02*
X4679840Y820420D01*
X4634720Y865540D02*
X4679840Y820420D01*
X3830320Y1074420D02*
X3868420Y1112520D01*
X3830320Y1074420D02*
X3868420Y1036320D01*
X3792220D02*
X3830320Y1074420D01*
X3792220Y1112520D02*
X3830320Y1074420D01*
X2935080Y1584960D02*
X2980200Y1539840D01*
X2935080Y1584960D02*
X2980200Y1630080D01*
X2889960D02*
X2935080Y1584960D01*
X2393280Y2937020D02*
X2438400Y2891900D01*
X2047840Y2690640D02*
X2092960Y2645520D01*
X2138080Y2690640D01*
X1727200Y2801620D02*
X1824820Y2704000D01*
X1727200Y2801620D02*
X1824820Y2899240D01*
X1689580Y2590320D02*
X1727200Y2552700D01*
X1764820Y2590320D01*
X1629580Y2899240D02*
X1727200Y2801620D01*
X1629580Y2704000D02*
X1727200Y2801620D01*
X2393280Y2506160D02*
X2438400Y2461040D01*
X2393280Y2415920D02*
X2438400Y2461040D01*
X1912720Y2321780D02*
X1980340Y2254160D01*
X2047960Y2321780D01*
X2359660Y2065020D02*
X2404780Y2110140D01*
X2314540Y2019900D02*
X2359660Y2065020D01*
X2314540Y2110140D02*
X2359660Y2065020D01*
X2404780Y2019900D01*
X1912720Y2186540D02*
X1980340Y2254160D01*
X2047960Y2186540D01*
X2190340Y2084160D02*
X2257960Y2151780D01*
X2190340Y2084160D02*
X2257960Y2016540D01*
X1689580Y2515080D02*
X1727200Y2552700D01*
X1764820Y2515080D01*
X1795780Y2199860D02*
X1840900Y2154740D01*
X1795780Y2199860D02*
X1840900Y2244980D01*
X1750660D02*
X1795780Y2199860D01*
X1750660Y2154740D02*
X1795780Y2199860D01*
X1643380D02*
X1688500Y2154740D01*
X1643380Y2199860D02*
X1688500Y2244980D01*
X1318860Y2693180D02*
X1363980Y2648060D01*
X1409100Y2693180D01*
X1318860Y2602940D02*
X1363980Y2648060D01*
X1409100Y2602940D01*
X1038860Y2630280D02*
X1083980Y2675400D01*
X1038860Y2630280D02*
X1083980Y2585160D01*
X993740D02*
X1038860Y2630280D01*
X993740Y2675400D02*
X1038860Y2630280D01*
X916040Y2632780D02*
X935660Y2652400D01*
X896420D02*
X916040Y2632780D01*
X935660Y2613160D01*
X896420D02*
X916040Y2632780D01*
X230920Y2727960D02*
X276040Y2773080D01*
X185800D02*
X230920Y2727960D01*
X185800Y2682840D02*
X230920Y2727960D01*
X276040Y2682840D01*
X230920Y2390140D02*
X276040Y2435260D01*
X185800Y2345020D02*
X230920Y2390140D01*
X276040Y2345020D01*
X230920Y2034540D02*
X276040Y2079660D01*
X185800D02*
X230920Y2034540D01*
X1920240Y1407160D02*
X2077860Y1564780D01*
X1920240Y1407160D02*
X2077860Y1249540D01*
X993740Y1981980D02*
X1038860Y1936860D01*
X993740Y1891740D02*
X1038860Y1936860D01*
X1762620Y1564780D02*
X1920240Y1407160D01*
X1762620Y1249540D02*
X1920240Y1407160D01*
X1041400Y1258680D02*
X1086520Y1213560D01*
X996280Y1303800D02*
X1041400Y1258680D01*
X1086520Y1303800D01*
X996280Y1213560D02*
X1041400Y1258680D01*
X916040Y1939360D02*
X935660Y1958980D01*
X896420D02*
X916040Y1939360D01*
X935660Y1919740D01*
X896420D02*
X916040Y1939360D01*
X230920Y2034540D02*
X276040Y1989420D01*
X185800D02*
X230920Y2034540D01*
X233460Y1694180D02*
X278580Y1649060D01*
X233460Y1694180D02*
X278580Y1739300D01*
X188340Y1649060D02*
X233460Y1694180D01*
Y1356360D02*
X278580Y1311240D01*
X233460Y1356360D02*
X278580Y1401480D01*
X188340D02*
X233460Y1356360D01*
X188340Y1311240D02*
X233460Y1356360D01*
X916040Y1261180D02*
X935660Y1280800D01*
X916040Y1261180D02*
X935660Y1241560D01*
X896420D02*
X916040Y1261180D01*
X896420Y1280800D02*
X916040Y1261180D01*
X233460Y1016000D02*
X278580Y970880D01*
X233460Y1016000D02*
X278580Y1061120D01*
D33*
X1795240Y1679220D02*
X2052040D01*
X1648281Y1604248D02*
X1723253Y1679220D01*
X1616846Y1133040D02*
X1648281Y1164475D01*
X1723253Y1679220D02*
X1795240D01*
X1648281Y1164475D02*
Y1604248D01*
X2145240Y964140D02*
Y1057160D01*
X2143760Y962660D02*
X2145240Y964140D01*
X1003300Y1035940D02*
X1083173D01*
X1111840Y1064607D01*
X916740Y1260480D02*
X1041400D01*
X1046400Y1258680D02*
X1111840Y1193240D01*
Y1064607D02*
Y1193240D01*
X1041400Y1258680D02*
X1046400D01*
X1043940Y1941940D02*
Y2009140D01*
X1038860Y1936860D02*
X1043940Y1941940D01*
X2128964Y1185108D02*
Y1191765D01*
X2145240Y1057160D02*
Y1168833D01*
X2128964Y1185108D02*
X2145240Y1168833D01*
X2077720Y1653540D02*
X2120900Y1610360D01*
X2077720Y1653540D02*
X2077720D01*
X2052040Y1679220D02*
X2077720Y1653540D01*
X1795240Y1679220D02*
Y1757160D01*
Y1679220D02*
X1795240Y1679220D01*
X1794360Y1758040D02*
X1795240Y1757160D01*
X2189480Y1054100D02*
Y1300480D01*
X2169160Y1320800D02*
Y1421192D01*
Y1320800D02*
X2189480Y1300480D01*
X1571120Y1133040D02*
X1616846D01*
X1570240Y1132160D02*
X1571120Y1133040D01*
X2270770Y1632690D02*
X2354050D01*
X2270240Y1632160D02*
X2270770Y1632690D01*
X2354050D02*
X2354580Y1633220D01*
X1844360Y1758040D02*
Y1841180D01*
X1841500Y1844040D02*
X1844360Y1841180D01*
Y1758040D02*
X1845240Y1757160D01*
X4679260Y821000D02*
Y890960D01*
Y821000D02*
X4679840Y820420D01*
X4678680Y891540D02*
X4679260Y890960D01*
X2934390Y1585650D02*
Y1652850D01*
X2933700Y1653540D02*
X2934390Y1652850D01*
Y1585650D02*
X2935080Y1584960D01*
X2999740D01*
X2192020Y2082480D02*
X2199320Y2075180D01*
X2190340Y2084160D02*
X2192020Y2082480D01*
Y1998980D02*
Y2082480D01*
X1884680Y2252980D02*
X1979160D01*
X1980340Y2254160D01*
X2199320Y2075180D02*
X2278380D01*
X1980340Y2254160D02*
X1981520Y2252980D01*
X2072640D01*
X1640840Y2202400D02*
X1643380Y2199860D01*
X1640840Y2202400D02*
Y2268220D01*
X231140Y937260D02*
X232300Y938420D01*
Y1014840D02*
X233460Y1016000D01*
X232300Y938420D02*
Y1014840D01*
X233460Y1356360D02*
X233570Y1356250D01*
Y1257410D02*
X233680Y1257300D01*
X233570Y1257410D02*
Y1356250D01*
X233460Y1356360D02*
Y1694180D01*
X228081Y2037379D02*
Y2107901D01*
X225241Y2110740D02*
X228081Y2107901D01*
Y2037379D02*
X230920Y2034540D01*
X228081Y2387301D02*
X230920Y2390140D01*
X228081Y2321859D02*
Y2387301D01*
X225241Y2319020D02*
X228081Y2321859D01*
X226060Y2651760D02*
X228490Y2654190D01*
Y2725530D02*
X230920Y2727960D01*
X228490Y2654190D02*
Y2725530D01*
X1038860Y2630280D02*
Y2692400D01*
X1361060Y2650980D02*
X1361440Y2650600D01*
X1363980Y2648060D01*
X1361440Y2650600D02*
Y2710180D01*
X1292860Y2653900D02*
X1295780Y2650980D01*
X1361060D01*
X2090420Y2648060D02*
X2092380Y2646100D01*
X2022420D02*
X2092380D01*
X2021840Y2646680D02*
X2022420Y2646100D01*
X2092380D02*
X2092960Y2645520D01*
X2090420Y2648060D02*
Y2710180D01*
X2371670Y2893750D02*
X2436550D01*
X2369820Y2895600D02*
X2371670Y2893750D01*
X2436550D02*
X2438400Y2891900D01*
X2593340D02*
Y2954020D01*
X2438400Y2891900D02*
Y2956560D01*
X2440250Y2893750D02*
X2515290D01*
X2517140Y2895600D01*
X2438400Y2891900D02*
X2440250Y2893750D01*
X2591490D02*
X2593340Y2891900D01*
X2518990Y2893750D02*
X2591490D01*
X2517140Y2895600D02*
X2518990Y2893750D01*
X2438400Y2397760D02*
Y2461040D01*
X2437240Y2459880D02*
X2438400Y2461040D01*
X2363360Y2459880D02*
X2437240D01*
X2362200Y2458720D02*
X2363360Y2459880D01*
X2593340Y2400300D02*
Y2461040D01*
X3022020Y2149420D02*
X3022600Y2148840D01*
X2956560Y2150000D02*
X2957140Y2149420D01*
X3022020D01*
X2954020Y2152540D02*
Y2209800D01*
Y2152540D02*
X2956560Y2150000D01*
X3043610Y2294310D02*
X3108270D01*
X3108960Y2295000D01*
X3042920Y2293620D02*
X3043610Y2294310D01*
X3108960Y2232660D02*
Y2295000D01*
X3261360Y2232660D02*
Y2295000D01*
X3261940Y2295580D02*
X3329360D01*
X3329940Y2296160D01*
X3261360Y2295000D02*
X3261940Y2295580D01*
X3481760Y2149420D02*
X3482340Y2148840D01*
X3413760Y2150000D02*
X3414340Y2149420D01*
X3481760D01*
X3413760Y2150000D02*
Y2212340D01*
X3938850Y2150690D02*
X3939540Y2151380D01*
X3870960Y2150000D02*
X3871650Y2150690D01*
X3938850D01*
X3870960Y2150000D02*
Y2212340D01*
X3715440Y2454220D02*
X3716020Y2454800D01*
X3648020Y2454220D02*
X3715440D01*
X3647440Y2453640D02*
X3648020Y2454220D01*
X3778940D02*
X3779520Y2453640D01*
X3716020Y2454800D02*
X3716600Y2454220D01*
X3778940D01*
X3869000D02*
X3870960Y2452260D01*
X3868420Y2454800D02*
X3869000Y2454220D01*
X3870960Y2395220D02*
Y2452260D01*
X3933880Y2454220D02*
X3934460Y2453640D01*
X3869000Y2454220D02*
X3933880D01*
X3716020Y2883120D02*
Y2936640D01*
X3929490Y2885550D02*
X3931920Y2887980D01*
X3870850Y2885550D02*
X3929490D01*
X3868420Y2883120D02*
X3870850Y2885550D01*
X3865880Y2885660D02*
X3868420Y2883120D01*
X3865880Y2885660D02*
Y2936640D01*
X3717180Y2884280D02*
X3770740D01*
X3771900Y2885440D01*
X3716020Y2883120D02*
X3717180Y2884280D01*
X916040Y1261180D02*
X916740Y1260480D01*
Y1938660D02*
X1035680D01*
X916040Y1939360D02*
X916740Y1938660D01*
X916040Y2632780D02*
X916740Y2632080D01*
X1028060D01*
X2291080Y2697480D02*
Y3302000D01*
X2288540Y2694940D02*
X2291080Y2697480D01*
X3572620Y786240D02*
Y863600D01*
X3286760Y783010D02*
X3571240D01*
X3286760D02*
Y861060D01*
X3284220Y863600D02*
X3286760Y861060D01*
X2468190Y378460D02*
X2872740Y783010D01*
X3286760D01*
X3572620D02*
X3782890D01*
X3858480Y858600D01*
X688340Y378460D02*
X2468190D01*
X3858480Y858600D02*
Y863600D01*
X4259580D02*
X4267200Y871220D01*
X3858480Y863600D02*
X4259580D01*
X375920Y1610360D02*
X377190Y1611630D01*
Y1692910D01*
X383640Y1699360D02*
X526040D01*
X377190Y1692910D02*
X383640Y1699360D01*
X378460Y1010920D02*
X388720Y1021180D01*
X375920Y2390140D02*
X378560Y2392780D01*
X374650Y2388870D02*
X375920Y2390140D01*
X1565141Y1937519D02*
Y2503060D01*
Y1937519D02*
X1623060Y1879600D01*
X1718526D01*
X1794360Y1803766D01*
X1490980Y2198700D02*
X1561160D01*
X1794360Y1758040D02*
Y1803766D01*
X2120900Y1469452D02*
Y1610360D01*
X2191820Y1681280D02*
X2255320D01*
X2191820D02*
X2192020Y1681480D01*
X2255320Y1681280D02*
X2255520Y1681480D01*
X2120900Y1610360D02*
X2191820Y1681280D01*
X2192940Y1682400D02*
Y1754860D01*
X2195240Y1757160D01*
X2120900Y1469452D02*
X2169160Y1421192D01*
X374650Y2305050D02*
Y2388870D01*
X373380Y2303780D02*
X374650Y2305050D01*
X388720Y1021180D02*
X526040D01*
X378460Y934720D02*
Y1010920D01*
X311200Y1356360D02*
X378460D01*
X383640Y1351180D01*
X308660Y2034540D02*
X375920D01*
X381100Y2029360D01*
X308660Y2727960D02*
X375920D01*
X381100Y2722780D01*
X2430100Y2135460D02*
Y2291760D01*
X2359660Y2065020D02*
X2364660D01*
X2389460Y2089820D01*
Y2094820D01*
X2430100Y2135460D01*
X1844263Y2356447D02*
X2365413D01*
X2430100Y2291760D01*
X1783080Y2295264D02*
X1844263Y2356447D01*
X1783080Y2207560D02*
Y2295264D01*
X3413747Y2670837D02*
Y2820087D01*
X3412858Y2669948D02*
X3413747Y2670837D01*
X3363760Y2719046D02*
Y2820087D01*
Y2719046D02*
X3412858Y2669948D01*
X3313748Y2733248D02*
X3377048Y2669948D01*
X3412858D01*
X3313748Y2733248D02*
Y2820087D01*
X378560Y2392780D02*
X526040D01*
X381100Y2722780D02*
X526040D01*
X383640Y1351180D02*
X526040D01*
X381100Y2029360D02*
X526040D01*
D34*
X1785620Y3622040D02*
X4852838D01*
X5005177Y3469701D01*
X4964558Y2632600D02*
X5005177Y2673219D01*
Y3469701D01*
X3398520Y1023167D02*
Y1145540D01*
X3348173Y972820D02*
X3398520Y1023167D01*
X3218180Y972820D02*
X3348173D01*
X3914140Y2057400D02*
X4046220D01*
X3663760D02*
X3914140D01*
X3910440Y2053700D02*
X3914140Y2057400D01*
X3910440Y1638300D02*
Y2053700D01*
X4598560Y1844120D02*
Y1849120D01*
X4625900Y1816780D02*
X4630900D01*
X4823460Y1234440D02*
Y1624220D01*
X4630900Y1816780D02*
X4823460Y1624220D01*
X4598560Y1844120D02*
X4625900Y1816780D01*
X3830320Y1201420D02*
X3900643D01*
X4823460Y820420D02*
Y1234440D01*
X3900643Y1201420D02*
X3933663Y1234440D01*
X4820920D01*
X4716220Y1870000D02*
X4759960Y1826260D01*
X4609800Y2014220D02*
X4619800D01*
X4716220Y1917800D01*
Y1870000D02*
Y1917800D01*
X3776980Y1457960D02*
X3792780Y1473760D01*
X3765440Y1638300D02*
X3792780Y1610960D01*
Y1473760D02*
Y1610960D01*
X3166593Y888433D02*
Y921233D01*
X3141760Y863600D02*
X3166593Y888433D01*
Y921233D02*
X3218180Y972820D01*
X2857500Y1468361D02*
X2887059Y1497920D01*
X2857500Y1357660D02*
X2915920Y1299240D01*
X2857500Y1357660D02*
Y1468361D01*
X2887059Y1497920D02*
X3156690D01*
X3199190Y1455420D01*
X3535680D01*
X3686140Y880780D02*
Y1304960D01*
X3535680Y1455420D02*
X3686140Y1304960D01*
Y880780D02*
X3698240Y868680D01*
X3434080Y863600D02*
Y1236980D01*
Y863600D02*
X3436620Y861060D01*
X3271520Y1328420D02*
X3342640D01*
X3434080Y1236980D01*
X3271520Y1201420D02*
X3342640D01*
X3398520Y1145540D01*
X2915920Y1292860D02*
Y1299240D01*
X3031680Y1328420D02*
X3271520D01*
X2943860Y1416240D02*
X3031680Y1328420D01*
X2943860Y1416240D02*
Y1427480D01*
X3154680Y1120140D02*
X3192780Y1082040D01*
X3261360D01*
X2935080Y1120140D02*
X3154680D01*
X3463760Y2423960D02*
X3527801Y2359920D01*
X3648640D01*
X3463760Y2423960D02*
Y2513800D01*
X3648640Y2359920D02*
X3713560Y2295000D01*
X3718560D01*
X3463760Y2820087D02*
X3463903Y2820230D01*
Y2895971D01*
X3464046Y2896114D01*
X3566160Y2150000D02*
X3571160D01*
X3663760Y2057400D01*
X4889500Y2632600D02*
X4964558D01*
X4175760Y2236120D02*
X4366420Y2426780D01*
X4376420D01*
D35*
X627564Y2108091D02*
X671660Y2063995D01*
X627564Y2108091D02*
Y2181046D01*
X671660Y2033740D02*
Y2063995D01*
X693850Y2132447D02*
X694173Y2132123D01*
Y2084587D02*
Y2132123D01*
Y2084587D02*
X721660Y2057100D01*
X772714Y2076247D02*
X774377Y2074584D01*
Y2031023D02*
Y2074584D01*
Y2031023D02*
X776040Y2029360D01*
X1496060Y1183640D02*
X1496800Y1182900D01*
X1569500D02*
X1570240Y1182160D01*
X1496800Y1182900D02*
X1569500D01*
X2076183Y1137920D02*
X2082834Y1131269D01*
Y1108561D02*
X2095240Y1096154D01*
X2082834Y1108561D02*
Y1131269D01*
X2095240Y1057160D02*
Y1096154D01*
X311820Y2633380D02*
X485440D01*
X233680Y2555240D02*
X311820Y2633380D01*
X485440D02*
X486040Y2632780D01*
X1549227Y1838960D02*
X1668780D01*
X1419860Y1968327D02*
X1549227Y1838960D01*
X1419860Y1968327D02*
Y2163855D01*
X1242060Y2341655D02*
X1419860Y2163855D01*
X1242060Y2341655D02*
Y3053080D01*
X1435500Y3246520D01*
X1692416Y1776236D02*
Y1815324D01*
X1668780Y1838960D02*
X1692416Y1815324D01*
X1435500Y3246520D02*
X2044700D01*
X2760200Y1240200D02*
X2790080Y1270080D01*
X2755200Y1240200D02*
X2760200D01*
X2790080Y1270080D02*
Y1275080D01*
X2715260Y1047279D02*
Y1200260D01*
X2755200Y1240200D01*
X2792997Y1005070D02*
Y1117223D01*
X2790080Y1120140D02*
X2792997Y1117223D01*
X1643380Y1986280D02*
Y2122120D01*
X1488440Y2056240D02*
Y2120960D01*
Y2056240D02*
X1490980Y2053700D01*
X1181100Y2316405D02*
Y3172460D01*
X1211580Y2329030D02*
Y3159835D01*
X1437565Y3385820D02*
X2603500D01*
X1211580Y3159835D02*
X1437565Y3385820D01*
X1424940Y3416300D02*
X2506980D01*
X1181100Y3172460D02*
X1424940Y3416300D01*
X2603500Y3385820D02*
X2692400Y3474720D01*
X2537460Y3446780D02*
X2547620D01*
X2506980Y3416300D02*
X2537460Y3446780D01*
X1211580Y2329030D02*
X1389380Y2151230D01*
Y1955702D02*
Y2151230D01*
Y1955702D02*
X1595022Y1750060D01*
X1328420Y1775460D02*
X1471720Y1632160D01*
X1328420Y1775460D02*
Y2125980D01*
X1176020Y1708746D02*
Y2062855D01*
X1358900Y1943077D02*
X1570240Y1731737D01*
X1297940Y1759246D02*
Y2113355D01*
X1107515Y2303780D02*
X1297940Y2113355D01*
X1181100Y2316405D02*
X1358900Y2138605D01*
X1236980Y1733996D02*
Y2088105D01*
X1057015Y2181860D02*
X1176020Y2062855D01*
X1044390Y2151380D02*
X1145540Y2050230D01*
X1236980Y1733996D02*
X1488816Y1482160D01*
X1145540Y1696121D02*
X1509501Y1332160D01*
X1082265Y2242820D02*
X1236980Y2088105D01*
X1145540Y1696121D02*
Y2050230D01*
X1115060Y1683496D02*
Y2037605D01*
X1031765Y2120900D02*
X1115060Y2037605D01*
X1358900Y1943077D02*
Y2138605D01*
X1120140Y2334260D02*
X1328420Y2125980D01*
X1206500Y1721371D02*
X1495711Y1432160D01*
X1297940Y1759246D02*
X1475026Y1582160D01*
X1267460Y1746621D02*
X1481921Y1532160D01*
X1176020Y1708746D02*
X1502606Y1382160D01*
X1206500Y1721371D02*
Y2075480D01*
X1069640Y2212340D02*
X1206500Y2075480D01*
X1094890Y2273300D02*
X1267460Y2100730D01*
X1115060Y1683496D02*
X1496876Y1301680D01*
X1267460Y1746621D02*
Y2100730D01*
X2270240Y1132160D02*
X2273300Y1129100D01*
Y1092200D02*
Y1129100D01*
X463660Y1934980D02*
X481660D01*
X463660Y1923406D02*
Y1934980D01*
X449580Y1909326D02*
X463660Y1923406D01*
X449580Y1899920D02*
Y1909326D01*
X481660Y1934980D02*
X486040Y1939360D01*
X545131Y2775206D02*
Y2787349D01*
Y2775206D02*
X560900Y2759437D01*
X538480Y2794000D02*
X545131Y2787349D01*
X571660Y2727160D02*
Y2745160D01*
X560900Y2755920D02*
Y2759437D01*
Y2755920D02*
X571660Y2745160D01*
Y2727160D02*
X576040Y2722780D01*
X2795160Y1579880D02*
X2857340D01*
X1570240Y1682160D02*
Y1731737D01*
X1595022Y1750060D02*
X1643380D01*
X1892416Y1059984D02*
Y1115698D01*
X1948064Y1059984D02*
Y1115698D01*
X1945240Y1057160D02*
X1948064Y1059984D01*
X1892416D02*
X1895240Y1057160D01*
X2790080Y1584960D02*
X2795160Y1579880D01*
X2268370Y1484030D02*
X2270240Y1482160D01*
X2181190Y1484030D02*
X2268370D01*
X2179320Y1485900D02*
X2181190Y1484030D01*
X1643380Y1986280D02*
X1699260Y1930400D01*
X1831340D01*
X1894840Y1866900D01*
Y1778000D02*
Y1866900D01*
X2108200Y1897380D02*
X2108200D01*
X2136140Y1925320D02*
X2509370D01*
X2108200Y1897380D02*
X2136140Y1925320D01*
X2045240Y1834420D02*
X2108200Y1897380D01*
X2509370Y1925320D02*
X2652494Y1782197D01*
X2190788Y1864360D02*
X2484120D01*
X2148064Y1821636D02*
X2190788Y1864360D01*
X1945640Y1826260D02*
X2062480Y1943100D01*
X1945640Y1765300D02*
Y1826260D01*
X2062480Y1943100D02*
Y2002020D01*
X1985340Y2084160D02*
X2037720Y2031780D01*
X1980340Y2084160D02*
X1985340D01*
X2037720Y2026780D02*
Y2031780D01*
Y2026780D02*
X2062480Y2002020D01*
X2174240Y2242820D02*
X2177160Y2239900D01*
X2329780D01*
X2100580Y2169400D02*
X2153680Y2222500D01*
X2181860D01*
X1995240Y1830140D02*
X2100580Y1935480D01*
Y2169400D01*
X1995240Y1757160D02*
Y1830140D01*
X2045240Y1757160D02*
Y1834420D01*
Y1754600D02*
Y1757160D01*
Y1754600D02*
X2047240Y1752600D01*
X2159000Y1894840D02*
X2496745D01*
X2095240Y1757160D02*
Y1831080D01*
X2159000Y1894840D01*
X2146300Y1752600D02*
X2148064Y1754364D01*
Y1821636D01*
X2329780Y2239900D02*
X2359660Y2210020D01*
X1968500Y2054860D02*
X1988820Y2075180D01*
X1795780Y2054860D02*
X1968500D01*
X3513747Y2440013D02*
X3560664Y2393096D01*
X3658725Y2392940D02*
X3768020D01*
X3658569Y2393096D02*
X3658725Y2392940D01*
X3560664Y2393096D02*
X3658569D01*
X3768020Y2392940D02*
X3880040Y2280920D01*
X3463760Y2514600D02*
Y2520113D01*
X3185160Y2331129D02*
X3217658Y2363627D01*
X3113960Y2150000D02*
X3185160Y2221200D01*
Y2331129D01*
X3217658Y2363627D02*
X3317556D01*
X3312160Y2423160D02*
Y2506980D01*
X3059320Y2397760D02*
X3286760D01*
X3312160Y2423160D01*
X2991440Y2329880D02*
X3059320Y2397760D01*
X3360420Y2406491D02*
Y2504440D01*
X3317556Y2363627D02*
X3360420Y2406491D01*
X3513747Y2440013D02*
Y2520113D01*
X3441700Y2291080D02*
X3562240D01*
X3566160Y2295000D01*
X3413747Y2275853D02*
Y2520113D01*
Y2275853D02*
X3413760Y2275840D01*
X3108960Y2150000D02*
X3113960D01*
X3268980Y2006600D02*
Y2142380D01*
X3261360Y2150000D02*
X3268980Y2142380D01*
X3106420Y2009140D02*
X3108960Y2011680D01*
Y2150000D01*
X2804160Y2295000D02*
X2961560D01*
X2991440Y2324880D01*
Y2329880D01*
X2514600Y2237740D02*
Y2606003D01*
Y2237740D02*
X2602340Y2150000D01*
X2804160D01*
X2628220Y2573700D02*
Y2576160D01*
X2606040Y2595880D02*
X2608500D01*
X2628220Y2576160D01*
X4185920Y2749280D02*
X4210800Y2724400D01*
X4185920Y2749280D02*
Y2776780D01*
X4210800Y2724400D02*
X4214880D01*
X4262120Y2677160D02*
X4618369D01*
X4214880Y2724400D02*
X4262120Y2677160D01*
X4699600Y2662480D02*
X4729480Y2632600D01*
X4633049Y2662480D02*
X4699600D01*
X4618369Y2677160D02*
X4633049Y2662480D01*
X4889500Y2632600D02*
X4889500Y2632600D01*
X4729480Y2632600D02*
X4889500D01*
X571660Y2033740D02*
X576040Y2029360D01*
X535282Y2091635D02*
X571660Y2055257D01*
Y2033740D02*
Y2055257D01*
X556398Y2156135D02*
X560639Y2151894D01*
Y2123173D02*
X621660Y2062152D01*
X560639Y2123173D02*
Y2151894D01*
X671660Y2033740D02*
X676040Y2029360D01*
X621660Y2033740D02*
X626040Y2029360D01*
X621660Y2033740D02*
Y2062152D01*
X482600Y1257740D02*
X486040Y1261180D01*
X482600Y1216660D02*
Y1257740D01*
X826040Y1351180D02*
X830419Y1355559D01*
Y1387838D01*
X850842Y1408261D01*
Y1417667D01*
X675240Y1403460D02*
X675640Y1403060D01*
Y1351580D02*
Y1403060D01*
Y1351580D02*
X676040Y1351180D01*
X626040D02*
Y1460517D01*
X626580Y1461057D01*
X575240Y1351980D02*
X576040Y1351180D01*
X574440Y1406591D02*
X575240Y1405790D01*
Y1351980D02*
Y1405790D01*
X721660Y2033740D02*
X726040Y2029360D01*
X721660Y2033740D02*
Y2057100D01*
X875655Y2776865D02*
X875847Y2776673D01*
Y2722972D02*
Y2776673D01*
Y2722972D02*
X876040Y2722780D01*
X824751Y2832489D02*
X826040Y2831201D01*
Y2722780D02*
Y2831201D01*
X775656Y2775264D02*
X775848Y2775072D01*
Y2722972D02*
Y2775072D01*
Y2722972D02*
X776040Y2722780D01*
X726040Y2831979D02*
X726491Y2832431D01*
X726040Y2722780D02*
Y2831979D01*
X673900Y2778401D02*
X674970Y2777330D01*
Y2723850D02*
Y2777330D01*
Y2723850D02*
X676040Y2722780D01*
X625609Y2836307D02*
X626040Y2835876D01*
Y2722780D02*
Y2835876D01*
X826040Y2029360D02*
X830420Y2033740D01*
Y2055256D02*
X857383Y2082219D01*
X830420Y2033740D02*
Y2055256D01*
X967670Y2073040D02*
X977076D01*
X958491Y2082219D02*
X967670Y2073040D01*
X857383Y2082219D02*
X958491D01*
X880420Y2024380D02*
X919480D01*
X876040Y2028760D02*
X880420Y2024380D01*
X876040Y2028760D02*
Y2029360D01*
X876140Y1351280D02*
X916940D01*
X876040Y1351180D02*
X876140Y1351280D01*
X706638Y1464363D02*
Y1473769D01*
Y1464363D02*
X726040Y1444962D01*
Y1351180D02*
Y1444962D01*
X776040Y1351180D02*
X776310Y1351450D01*
Y1404350D01*
X776580Y1404620D01*
X916040Y1789360D02*
X1036360D01*
X1038860Y1791860D01*
X916040Y1111180D02*
X1038900D01*
X1041400Y1113680D01*
X1695240Y994193D02*
Y1057160D01*
X1681488Y980440D02*
X1695240Y994193D01*
X1496364Y980440D02*
X1681488D01*
X1745240Y995151D02*
Y1057160D01*
X1700049Y949960D02*
X1745240Y995151D01*
X1483739Y949960D02*
X1700049D01*
X1795240Y991679D02*
Y1057160D01*
X1471114Y919480D02*
X1723041D01*
X1795240Y991679D01*
X1458489Y889000D02*
X1743818D01*
X1845240Y990422D02*
Y1057160D01*
X1743818Y889000D02*
X1845240Y990422D01*
X1995240Y988551D02*
Y1057160D01*
X1445864Y858520D02*
X1865209D01*
X1995240Y988551D01*
X1433238Y828040D02*
X1884720D01*
X2045240Y988560D02*
Y1057160D01*
X1884720Y828040D02*
X2045240Y988560D01*
X876040Y2340939D02*
Y2392780D01*
Y2340939D02*
X913199Y2303780D01*
X1107515D01*
X916040Y2360560D02*
X942340Y2334260D01*
X1120140D01*
X2561054Y808229D02*
Y1484320D01*
X2270240Y1582160D02*
X2463214D01*
X2561054Y1484320D01*
X2436698Y1532160D02*
X2530574Y1438284D01*
X2270240Y1532160D02*
X2436698D01*
X2530574Y820854D02*
Y1438284D01*
X2652494Y770354D02*
Y1782197D01*
X2496745Y1894840D02*
X2622014Y1769572D01*
Y782979D02*
Y1769572D01*
X2270240Y1182160D02*
X2273064Y1179336D01*
X2322138D02*
X2347694Y1153781D01*
X2273064Y1179336D02*
X2322138D01*
X2347694Y896604D02*
Y1153781D01*
X2270240Y1232160D02*
X2335723D01*
X2378174Y883979D02*
Y1189709D01*
X2335723Y1232160D02*
X2378174Y1189709D01*
X2408654Y871354D02*
Y1210787D01*
X2270240Y1282160D02*
X2337281D01*
X2408654Y1210787D01*
X2439134Y858729D02*
Y1228982D01*
X2335956Y1332160D02*
X2439134Y1228982D01*
X2270240Y1332160D02*
X2335956D01*
X2338794Y1382160D02*
X2469614Y1251340D01*
X2270240Y1382160D02*
X2338794D01*
X2469614Y846104D02*
Y1251340D01*
X2500094Y833479D02*
Y1270176D01*
X2338109Y1432160D02*
X2500094Y1270176D01*
X2270240Y1432160D02*
X2338109D01*
X2591534Y795604D02*
Y1756946D01*
X2484120Y1864360D02*
X2591534Y1756946D01*
X2334260Y452120D02*
X2652494Y770354D01*
X2321635Y482600D02*
X2622014Y782979D01*
X2309010Y513080D02*
X2591534Y795604D01*
X281865Y513080D02*
X2309010D01*
X269240Y482600D02*
X2321635D01*
X2271135Y604520D02*
X2500094Y833479D01*
X2223174Y728980D02*
X2378174Y883979D01*
X833120Y604520D02*
X2271135D01*
X949960Y695960D02*
X2233259D01*
X909320Y665480D02*
X2245885D01*
X256615Y452120D02*
X2334260D01*
X985520Y728980D02*
X2223174D01*
X2258510Y635000D02*
X2469614Y846104D01*
X2233259Y695960D02*
X2408654Y871354D01*
X2296385Y543560D02*
X2561054Y808229D01*
X762000Y543560D02*
X2296385D01*
X795020Y574040D02*
X2283760D01*
X2213089Y762000D02*
X2347694Y896604D01*
X871220Y635000D02*
X2258510D01*
X2245885Y665480D02*
X2439134Y858729D01*
X1010920Y762000D02*
X2213089D01*
X2283760Y574040D02*
X2530574Y820854D01*
X576040Y2334800D02*
Y2392780D01*
X789940Y2120900D02*
X1031765D01*
X576040Y2334800D02*
X789940Y2120900D01*
X807731Y2151380D02*
X1044390D01*
X626040Y2333072D02*
Y2392780D01*
Y2333072D02*
X807731Y2151380D01*
X676040Y2333201D02*
Y2392780D01*
X827381Y2181860D02*
X1057015D01*
X676040Y2333201D02*
X827381Y2181860D01*
X726040Y2332240D02*
Y2392780D01*
X845940Y2212340D02*
X1069640D01*
X726040Y2332240D02*
X845940Y2212340D01*
X826040Y2333277D02*
Y2392780D01*
X886017Y2273300D02*
X1094890D01*
X826040Y2333277D02*
X886017Y2273300D01*
X776040Y2332058D02*
Y2392780D01*
X865278Y2242820D02*
X1082265D01*
X776040Y2332058D02*
X865278Y2242820D01*
X1264920Y996358D02*
Y1188795D01*
Y996358D02*
X1433238Y828040D01*
X1110176Y1343538D02*
Y1343539D01*
Y1343538D02*
X1264920Y1188795D01*
X1140656Y1356164D02*
X1295400Y1201420D01*
Y1008984D02*
X1445864Y858520D01*
X1295400Y1008984D02*
Y1201420D01*
X1140656Y1356164D02*
X1140656Y1356164D01*
X1003225Y1536700D02*
X1153123Y1386803D01*
X1153122Y1386802D02*
X1325880Y1214045D01*
Y1021609D02*
X1458489Y889000D01*
X1325880Y1021609D02*
Y1214045D01*
X1153122Y1386802D02*
X1153123Y1386803D01*
X1356360Y1034234D02*
X1471114Y919480D01*
X1356360Y1034234D02*
Y1226670D01*
X1032435Y1550595D02*
X1356360Y1226670D01*
X1386840Y1046859D02*
X1483739Y949960D01*
X1386840Y1046859D02*
Y1239295D01*
X1417320Y1059484D02*
Y1251921D01*
Y1059484D02*
X1496364Y980440D01*
X1041101Y1628140D02*
X1417320Y1251921D01*
X1447800Y1099820D02*
Y1264546D01*
Y1099820D02*
X1490460Y1057160D01*
X1053726Y1658620D02*
X1447800Y1264546D01*
X1490460Y1057160D02*
X1645240D01*
X1471720Y1632160D02*
X1570240D01*
X916040Y2360560D02*
Y2482780D01*
X1036360D01*
X1038860Y2485280D01*
X1475026Y1582160D02*
X1570240D01*
X1481921Y1532160D02*
X1570240D01*
X1488816Y1482160D02*
X1570240D01*
X1568131Y1284269D02*
X1570240Y1282160D01*
X1496876Y1301680D02*
X1514287Y1284269D01*
X1568131D01*
X1496876Y1301680D02*
X1496876D01*
X1484251Y1271200D02*
X1484251D01*
X1567416Y1234984D02*
X1570240Y1232160D01*
X1520467Y1234984D02*
X1567416D01*
X1484251Y1271200D02*
X1520467Y1234984D01*
X1038860Y1716591D02*
X1484251Y1271200D01*
X1509501Y1332160D02*
X1519440D01*
X1502606Y1382160D02*
X1570240D01*
X1495711Y1432160D02*
X1570240D01*
X1038860Y1716591D02*
Y1791860D01*
X576040Y1699360D02*
X580420Y1694980D01*
Y1667672D02*
X772352Y1475740D01*
X977975D01*
X580420Y1667672D02*
Y1694980D01*
X626040Y1699360D02*
X630420Y1694980D01*
Y1663476D02*
Y1694980D01*
Y1663476D02*
X787676Y1506220D01*
X990600D01*
X676040Y1699360D02*
X678976Y1696425D01*
X803534Y1536700D02*
X1003225D01*
X678976Y1661259D02*
Y1696425D01*
Y1661259D02*
X803534Y1536700D01*
X820197Y1567180D02*
X1015850D01*
X726040Y1699360D02*
X727547Y1697853D01*
Y1659830D02*
Y1697853D01*
Y1659830D02*
X820197Y1567180D01*
X977975Y1475740D02*
X1110176Y1343539D01*
X990600Y1506220D02*
X1140656Y1356164D01*
X836657Y1597660D02*
X1028475D01*
X776040Y1658277D02*
Y1699360D01*
Y1658277D02*
X836657Y1597660D01*
X876040Y1699360D02*
X880420Y1694980D01*
Y1667548D02*
Y1694980D01*
Y1667548D02*
X889347Y1658620D01*
X1053726D01*
X1028475Y1597660D02*
X1386840Y1239295D01*
X916040Y856880D02*
X1010920Y762000D01*
X916040Y856880D02*
Y1111180D01*
X576040Y729520D02*
X762000Y543560D01*
X576040Y729520D02*
Y1021180D01*
X626040Y743020D02*
Y1021180D01*
Y743020D02*
X795020Y574040D01*
X726040Y780180D02*
X871220Y635000D01*
X726040Y780180D02*
Y1021180D01*
X776040Y798760D02*
Y1021180D01*
Y798760D02*
X909320Y665480D01*
X826040Y819880D02*
Y1021180D01*
Y819880D02*
X949960Y695960D01*
X876040Y838460D02*
Y1021180D01*
Y838460D02*
X985520Y728980D01*
X676040Y761600D02*
Y1021180D01*
Y761600D02*
X833120Y604520D01*
X160020Y634925D02*
Y1066841D01*
X204358Y1111180D02*
X486040D01*
X160020Y1066841D02*
X204358Y1111180D01*
X196921Y2482780D02*
X486040D01*
X99060Y609675D02*
Y2384919D01*
X196921Y2482780D01*
X129540Y1717228D02*
X201672Y1789360D01*
X129540Y622300D02*
Y1717228D01*
X201672Y1789360D02*
X486040D01*
X129540Y622300D02*
X269240Y482600D01*
X99060Y609675D02*
X256615Y452120D01*
X160020Y634925D02*
X281865Y513080D01*
X861060Y1628140D02*
X1041101D01*
X830420Y1658780D02*
Y1694980D01*
X826040Y1699360D02*
X830420Y1694980D01*
Y1658780D02*
X861060Y1628140D01*
X1015850Y1567180D02*
X1032435Y1550595D01*
Y1550595D02*
Y1550595D01*
D36*
X1297940Y2499360D02*
X1299790Y2501210D01*
X1362130D02*
X1363980Y2503060D01*
X1299790Y2501210D02*
X1362130D01*
X1565141Y2503060D02*
X1581040D01*
X1363980D02*
X1565141D01*
X1581040D02*
X1582420Y2504440D01*
X3713480Y2156460D02*
X3718560Y2161540D01*
Y2214880D01*
D37*
X4732020Y2225040D02*
X4777740D01*
X4889800Y2014220D02*
Y2112980D01*
X4777740Y2225040D02*
X4889800Y2112980D01*
X3952240Y1328420D02*
X4046220Y1422400D01*
X3830320Y1328420D02*
X3952240D01*
X4046220Y1422400D02*
Y2057400D01*
Y2247900D01*
X4056380Y2258060D01*
D38*
X4282440Y868680D02*
D03*
D39*
Y1122680D02*
D03*
Y1376680D02*
D03*
Y1630680D02*
D03*
D40*
X627564Y2181046D02*
D03*
X693850Y2132447D02*
D03*
X772714Y2076247D02*
D03*
X2413000Y1460500D02*
D03*
X1496060Y1183640D02*
D03*
X1003300Y1035940D02*
D03*
X1043940Y2009140D02*
D03*
X389490Y2544296D02*
D03*
X1429207Y1765490D02*
D03*
X1401267Y2344610D02*
D03*
X3555187Y1018730D02*
D03*
X3534867Y1270190D02*
D03*
X3087827Y1247330D02*
D03*
X3080207Y1023810D02*
D03*
X2427427Y2133790D02*
D03*
X2394407Y2329370D02*
D03*
X2219147Y2359850D02*
D03*
X2031187Y2354770D02*
D03*
X1848307Y2352230D02*
D03*
X2128964Y1191765D02*
D03*
X2076183Y1137920D02*
D03*
X2354580Y1633220D02*
D03*
X1841500Y1844040D02*
D03*
X1924507Y1282890D02*
D03*
X1916887Y1529270D02*
D03*
X1792427Y1404810D02*
D03*
X2043887Y1407350D02*
D03*
Y1285430D02*
D03*
X1794967D02*
D03*
X2041347Y1529270D02*
D03*
X1794967D02*
D03*
X1916887Y1407350D02*
D03*
X1721307Y2489390D02*
D03*
X1728927Y2542730D02*
D03*
X1754327Y2819590D02*
D03*
X1764487Y2743390D02*
D03*
X1698447Y2768790D02*
D03*
X1779727Y2890710D02*
D03*
X1667967Y2895790D02*
D03*
X4678680Y891540D02*
D03*
X2933700Y1653540D02*
D03*
X2999740Y1584960D02*
D03*
X2192020Y1998980D02*
D03*
X1884680Y2252980D02*
D03*
X2278380Y2075180D02*
D03*
X2072640Y2252980D02*
D03*
X1640840Y2268220D02*
D03*
X231140Y937260D02*
D03*
X233680Y1257300D02*
D03*
X225241Y2110740D02*
D03*
Y2319020D02*
D03*
X226060Y2651760D02*
D03*
X233680Y2555240D02*
D03*
X1038860Y2692400D02*
D03*
X1361440Y2710180D02*
D03*
X1292860Y2653900D02*
D03*
X2021840Y2646680D02*
D03*
X2090420Y2710180D02*
D03*
X2369820Y2895600D02*
D03*
X2593340Y2954020D02*
D03*
X2438400Y2956560D02*
D03*
X2517140Y2895600D02*
D03*
X2438400Y2397760D02*
D03*
X2362200Y2458720D02*
D03*
X2593340Y2400300D02*
D03*
X3022600Y2148840D02*
D03*
X2954020Y2209800D02*
D03*
X3042920Y2293620D02*
D03*
X3108960Y2232660D02*
D03*
X3261360D02*
D03*
X3329940Y2296160D02*
D03*
X3482340Y2148840D02*
D03*
X3413760Y2212340D02*
D03*
X3939540Y2151380D02*
D03*
X3870960Y2212340D02*
D03*
X3647440Y2453640D02*
D03*
X3779520D02*
D03*
X3870960Y2395220D02*
D03*
X3934460Y2453640D02*
D03*
X3716020Y2936640D02*
D03*
X3931920Y2887980D02*
D03*
X3865880Y2936640D02*
D03*
X3771900Y2885440D02*
D03*
X2792997Y1005070D02*
D03*
X2715260Y1047279D02*
D03*
X1643380Y2122120D02*
D03*
X1488440Y2120960D02*
D03*
X1955800Y2600960D02*
D03*
X375920Y1610360D02*
D03*
X1297940Y2499360D02*
D03*
X2291080Y3302000D02*
D03*
X2545080Y3454400D02*
D03*
X2044700Y3246520D02*
D03*
X2692400Y3474720D02*
D03*
X688340Y378460D02*
D03*
X2273300Y1092200D02*
D03*
X373380Y2303780D02*
D03*
X378460Y934720D02*
D03*
X311200Y1356360D02*
D03*
X308660Y2034540D02*
D03*
Y2727960D02*
D03*
X449580Y1899920D02*
D03*
X538480Y2794000D02*
D03*
X2857340Y1579880D02*
D03*
X1879600Y1137920D02*
D03*
X1960880D02*
D03*
X2179320Y1485900D02*
D03*
X4823460Y754380D02*
D03*
X3464046Y2896114D02*
D03*
X3718560Y2214880D02*
D03*
X4732020Y2451100D02*
D03*
Y2395220D02*
D03*
Y2339340D02*
D03*
Y2225040D02*
D03*
Y2280920D02*
D03*
X4673600Y2451100D02*
D03*
Y2395220D02*
D03*
Y2339340D02*
D03*
Y2169160D02*
D03*
Y2225040D02*
D03*
Y2280920D02*
D03*
X3172460Y3058160D02*
D03*
X3228340D02*
D03*
X3284220D02*
D03*
X3454400D02*
D03*
X3398520D02*
D03*
X3342640D02*
D03*
X3172460Y2999740D02*
D03*
X3228340D02*
D03*
X3284220D02*
D03*
X3454400D02*
D03*
X3398520D02*
D03*
X3342640D02*
D03*
X508039Y2098285D02*
D03*
X556398Y2156135D02*
D03*
X482600Y1216660D02*
D03*
X850842Y1417667D02*
D03*
X675240Y1403460D02*
D03*
X626580Y1461057D02*
D03*
X574440Y1406591D02*
D03*
X977076Y2073040D02*
D03*
X875655Y2776865D02*
D03*
X824751Y2832489D02*
D03*
X775656Y2775264D02*
D03*
X726491Y2832431D02*
D03*
X673900Y2778401D02*
D03*
X625609Y2836307D02*
D03*
X919480Y2024380D02*
D03*
X916940Y1351280D02*
D03*
X706638Y1473769D02*
D03*
X776580Y1404620D02*
D03*
D41*
X1785620Y3622040D02*
D03*
%TF.MD5,511162eff08e929576806da751e08dd1*%
M02*
