%TF.GenerationSoftware,Altium Limited,Altium Designer,24.0.1 (36)*%
G04 Layer_Color=65535*
%FSLAX45Y45*%
%MOMM*%
%TF.SameCoordinates,14D861EB-6B2A-43A0-B606-02C4F9DF8899*%
%TF.FilePolarity,Positive*%
%TF.FileFunction,Legend,Top*%
%TF.Part,Single*%
G01*
G75*
%TA.AperFunction,NonConductor*%
%ADD10C,0.20320*%
%ADD32C,0.25400*%
%ADD44C,0.25000*%
%ADD45C,0.15000*%
%ADD46C,0.20000*%
%ADD47C,0.30000*%
%ADD48C,0.15001*%
%ADD49C,0.12700*%
%ADD50C,0.17780*%
%ADD51C,0.15240*%
G36*
X4599780Y2878484D02*
Y2880473D01*
X4598258Y2884148D01*
X4595444Y2886961D01*
X4591769Y2888484D01*
X4589780D01*
X4587791D01*
X4584115Y2886961D01*
X4581302Y2884148D01*
X4579780Y2880473D01*
Y2878484D01*
Y2876495D01*
X4581302Y2872819D01*
X4584115Y2870006D01*
X4587791Y2868484D01*
X4589780D01*
X4591769D01*
X4595444Y2870006D01*
X4598258Y2872819D01*
X4599780Y2876495D01*
Y2878484D01*
D01*
D02*
G37*
D10*
X2926072Y2773672D02*
G03*
X2926072Y2722872I0J-25400D01*
G01*
Y2621272D02*
G03*
X2926072Y2570472I0J-25400D01*
G01*
Y2722872D02*
G03*
X2926072Y2672072I0J-25400D01*
G01*
D02*
G03*
X2926072Y2621272I0J-25400D01*
G01*
X2875280Y2875280D02*
X2951480D01*
X2875280Y2468880D02*
X2951480D01*
X2926072Y2494280D02*
Y2570472D01*
Y2773672D02*
Y2849880D01*
X2684780Y2468880D02*
X2824480D01*
X2684780D02*
Y2875280D01*
X2824480D01*
X3002280D02*
X3141980D01*
Y2468880D02*
Y2875280D01*
X3002280Y2468880D02*
X3141980D01*
D32*
X3487420Y1518920D02*
G03*
X3614420Y1518920I63500J0D01*
G01*
X137160Y721360D02*
X4983480D01*
X137160Y3009900D02*
X4983480D01*
Y721360D02*
Y3009900D01*
X137160Y721360D02*
Y3009900D01*
Y165100D02*
X4983480D01*
X137160Y721360D02*
X4983480D01*
Y165100D02*
Y721360D01*
X137160Y165100D02*
Y721360D01*
Y3009900D02*
X4983480D01*
X137160Y3566160D02*
X4983480D01*
Y3009900D02*
Y3566160D01*
X137160Y3009900D02*
Y3566160D01*
X3423920Y1518920D02*
X3487420D01*
X3614420D02*
X3677920D01*
Y1010920D02*
Y1518920D01*
X3423920Y1010920D02*
X3677920D01*
X3423920D02*
Y1518920D01*
X4762500Y1988820D02*
X4765040Y2032000D01*
X4747260Y2016760D02*
X4765040Y2032000D01*
X4747260Y2016760D02*
X4752340Y2001520D01*
X139700Y523240D02*
X332740Y716280D01*
X137160Y419100D02*
X436880Y718820D01*
X137160Y614680D02*
X243840Y721360D01*
X137160Y325120D02*
X530860Y718820D01*
X137160Y226060D02*
X624840Y713740D01*
X177800Y165100D02*
X734060Y721360D01*
X137160Y276860D02*
Y325120D01*
Y193040D02*
Y226060D01*
Y165100D02*
X177800D01*
X274320D02*
X830580Y721360D01*
X469900Y165100D02*
X1026160Y721360D01*
X373380Y165100D02*
X929640Y721360D01*
X759460Y162560D02*
X1315720Y718820D01*
X855980Y162560D02*
X1412240Y718820D01*
X660400Y162560D02*
X1216660Y718820D01*
X563880Y162560D02*
X1120140Y718820D01*
X1338580Y162560D02*
X1894840Y718820D01*
X1435100Y162560D02*
X1991360Y718820D01*
X1630680Y162560D02*
X2186940Y718820D01*
X1534160Y162560D02*
X2090420Y718820D01*
X1148080Y165100D02*
X1704340Y721360D01*
X1244600Y165100D02*
X1800860Y721360D01*
X1049020Y165100D02*
X1605280Y721360D01*
X952500Y165100D02*
X1508760Y721360D01*
X2504440Y165100D02*
X3060700Y721360D01*
X2600960Y165100D02*
X3157220Y721360D01*
X2796540Y165100D02*
X3352800Y721360D01*
X2700020Y165100D02*
X3256280Y721360D01*
X3086100Y162560D02*
X3642360Y718820D01*
X3182620Y162560D02*
X3738880Y718820D01*
X2987040Y162560D02*
X3543300Y718820D01*
X2890520Y162560D02*
X3446780Y718820D01*
X2115820Y162560D02*
X2672080Y718820D01*
X2212340Y162560D02*
X2768600Y718820D01*
X2407920Y162560D02*
X2964180Y718820D01*
X2311400Y162560D02*
X2867660Y718820D01*
X1925320Y165100D02*
X2481580Y721360D01*
X2021840Y165100D02*
X2578100Y721360D01*
X1826260Y165100D02*
X2382520Y721360D01*
X1729740Y165100D02*
X2286000Y721360D01*
X4066540Y165100D02*
X4622800Y721360D01*
X4163060Y165100D02*
X4719320Y721360D01*
X4358640Y165100D02*
X4914900Y721360D01*
X4262120Y165100D02*
X4818380Y721360D01*
X4648200Y162560D02*
X4983480Y497840D01*
X4744720Y162560D02*
X4984750Y402590D01*
X4549140Y162560D02*
X4983480Y596900D01*
X4452620Y162560D02*
X4981741Y691681D01*
X3677920Y162560D02*
X4234180Y718820D01*
X3774440Y162560D02*
X4330700Y718820D01*
X3970020Y162560D02*
X4526280Y718820D01*
X3873500Y162560D02*
X4429760Y718820D01*
X3487420Y165100D02*
X4043680Y721360D01*
X3583940Y165100D02*
X4140200Y721360D01*
X3388360Y165100D02*
X3944620Y721360D01*
X3291840Y165100D02*
X3848100Y721360D01*
X4940300Y167640D02*
X4980940Y208280D01*
X4843780Y167640D02*
X4986020Y309880D01*
X4980940Y208280D02*
X4983480D01*
X4980940Y3053080D02*
X4983480D01*
X4843780Y3012440D02*
X4986020Y3154680D01*
X4940300Y3012440D02*
X4980940Y3053080D01*
X3291840Y3009900D02*
X3848100Y3566160D01*
X3388360Y3009900D02*
X3944620Y3566160D01*
X3583940Y3009900D02*
X4140200Y3566160D01*
X3487420Y3009900D02*
X4043680Y3566160D01*
X3873500Y3007360D02*
X4429760Y3563620D01*
X3970020Y3007360D02*
X4526280Y3563620D01*
X3774440Y3007360D02*
X4330700Y3563620D01*
X3677920Y3007360D02*
X4234180Y3563620D01*
X4452620Y3007360D02*
X4981741Y3536481D01*
X4549140Y3007360D02*
X4983480Y3441700D01*
X4744720Y3007360D02*
X4984750Y3247390D01*
X4648200Y3007360D02*
X4983480Y3342640D01*
X4262120Y3009900D02*
X4818380Y3566160D01*
X4358640Y3009900D02*
X4914900Y3566160D01*
X4163060Y3009900D02*
X4719320Y3566160D01*
X4066540Y3009900D02*
X4622800Y3566160D01*
X1729740Y3009900D02*
X2286000Y3566160D01*
X1826260Y3009900D02*
X2382520Y3566160D01*
X2021840Y3009900D02*
X2578100Y3566160D01*
X1925320Y3009900D02*
X2481580Y3566160D01*
X2311400Y3007360D02*
X2867660Y3563620D01*
X2407920Y3007360D02*
X2964180Y3563620D01*
X2212340Y3007360D02*
X2768600Y3563620D01*
X2115820Y3007360D02*
X2672080Y3563620D01*
X2890520Y3007360D02*
X3446780Y3563620D01*
X2987040Y3007360D02*
X3543300Y3563620D01*
X3182620Y3007360D02*
X3738880Y3563620D01*
X3086100Y3007360D02*
X3642360Y3563620D01*
X2700020Y3009900D02*
X3256280Y3566160D01*
X2796540Y3009900D02*
X3352800Y3566160D01*
X2600960Y3009900D02*
X3157220Y3566160D01*
X2504440Y3009900D02*
X3060700Y3566160D01*
X952500Y3009900D02*
X1508760Y3566160D01*
X1049020Y3009900D02*
X1605280Y3566160D01*
X1244600Y3009900D02*
X1800860Y3566160D01*
X1148080Y3009900D02*
X1704340Y3566160D01*
X1534160Y3007360D02*
X2090420Y3563620D01*
X1630680Y3007360D02*
X2186940Y3563620D01*
X1435100Y3007360D02*
X1991360Y3563620D01*
X1338580Y3007360D02*
X1894840Y3563620D01*
X563880Y3007360D02*
X1120140Y3563620D01*
X660400Y3007360D02*
X1216660Y3563620D01*
X855980Y3007360D02*
X1412240Y3563620D01*
X759460Y3007360D02*
X1315720Y3563620D01*
X373380Y3009900D02*
X929640Y3566160D01*
X469900Y3009900D02*
X1026160Y3566160D01*
X274320Y3009900D02*
X830580Y3566160D01*
X137160Y3009900D02*
X177800D01*
X137160Y3037840D02*
Y3070860D01*
Y3121660D02*
Y3169920D01*
X177800Y3009900D02*
X734060Y3566160D01*
X137160Y3070860D02*
X624840Y3558540D01*
X137160Y3169920D02*
X530860Y3563620D01*
X137160Y3459480D02*
X243840Y3566160D01*
X137160Y3263900D02*
X436880Y3563620D01*
X139700Y3368040D02*
X332740Y3561080D01*
X4511040Y1117551D02*
Y1015983D01*
X4561823Y965200D01*
X4612607Y1015983D01*
Y1117551D01*
X4764958Y1092159D02*
X4739566Y1117551D01*
X4688783D01*
X4663391Y1092159D01*
Y990592D01*
X4688783Y965200D01*
X4739566D01*
X4764958Y990592D01*
X4917309Y1092159D02*
X4891917Y1117551D01*
X4841133D01*
X4815741Y1092159D01*
Y990592D01*
X4841133Y965200D01*
X4891917D01*
X4917309Y990592D01*
X4615147Y1300439D02*
X4589755Y1325831D01*
X4538972D01*
X4513580Y1300439D01*
Y1198872D01*
X4538972Y1173480D01*
X4589755D01*
X4615147Y1198872D01*
Y1249655D01*
X4564363D01*
X4665931Y1173480D02*
Y1325831D01*
X4767498Y1173480D01*
Y1325831D01*
X4818281D02*
Y1173480D01*
X4894457D01*
X4919849Y1198872D01*
Y1300439D01*
X4894457Y1325831D01*
X4818281D01*
X4615147Y1490939D02*
X4589755Y1516331D01*
X4538972D01*
X4513580Y1490939D01*
Y1389372D01*
X4538972Y1363980D01*
X4589755D01*
X4615147Y1389372D01*
X4665931Y1516331D02*
Y1363980D01*
X4767498D01*
X4818281Y1516331D02*
Y1363980D01*
Y1414763D01*
X4919849Y1516331D01*
X4843673Y1440155D01*
X4919849Y1363980D01*
X4511040Y1706831D02*
Y1554480D01*
X4587215D01*
X4612607Y1579872D01*
Y1681439D01*
X4587215Y1706831D01*
X4511040D01*
X4663391D02*
X4714174D01*
X4688783D01*
Y1554480D01*
X4663391D01*
X4714174D01*
X4866525Y1706831D02*
X4815741D01*
X4790350Y1681439D01*
Y1579872D01*
X4815741Y1554480D01*
X4866525D01*
X4891917Y1579872D01*
Y1681439D01*
X4866525Y1706831D01*
D44*
X1509702Y2452396D02*
G03*
X1509702Y2452396I-12500J0D01*
G01*
X3375660Y1572260D02*
G03*
X3375660Y1572260I-12500J0D01*
G01*
D45*
X1587500Y2628900D02*
G03*
X1587500Y2628900I-25400J0D01*
G01*
X1894840Y2334260D02*
X2275840D01*
Y2004060D02*
Y2334260D01*
X1894840Y2004060D02*
X2275840D01*
X1894840D02*
Y2334260D01*
D46*
X511040Y2307780D02*
G03*
X511040Y2307780I-10000J0D01*
G01*
Y1614360D02*
G03*
X511040Y1614360I-10000J0D01*
G01*
Y936180D02*
G03*
X511040Y936180I-10000J0D01*
G01*
X1473200Y2717800D02*
Y2844800D01*
X1600200D01*
X1981200Y2717800D02*
Y2844800D01*
X1854200D02*
X1981200D01*
X1882140Y1996440D02*
Y2108200D01*
Y1993900D02*
X1996440D01*
D47*
X2270240Y1817160D02*
G03*
X2270240Y1817160I-15000J0D01*
G01*
D48*
X3573640Y2860600D02*
G03*
X3573640Y2860600I-7493J0D01*
G01*
X3563376Y2669864D02*
Y2670039D01*
X3263377Y2819952D02*
X3278464D01*
X3263377Y2734865D02*
Y2819952D01*
Y2669864D02*
Y2670039D01*
Y2519951D02*
Y2605038D01*
X3563376Y2519953D02*
Y2605035D01*
Y2734865D02*
Y2819952D01*
X3548289D02*
X3563376D01*
X3263377Y2519951D02*
X3283958D01*
X3542789D02*
X3563376D01*
D49*
X476040Y2382780D02*
X481040D01*
X921040D02*
X926040D01*
X476040Y2732780D02*
X481040D01*
X921040D02*
X926040D01*
X476040Y2382780D02*
Y2438780D01*
X926040Y2382780D02*
Y2438780D01*
X476040Y2676780D02*
Y2732780D01*
X926040Y2676780D02*
Y2732780D01*
X476040Y1689360D02*
X481040D01*
X921040D02*
X926040D01*
X476040Y2039360D02*
X481040D01*
X921040D02*
X926040D01*
X476040Y1689360D02*
Y1745360D01*
X926040Y1689360D02*
Y1745360D01*
X476040Y1983360D02*
Y2039360D01*
X926040Y1983360D02*
Y2039360D01*
X476040Y1011180D02*
X481040D01*
X921040D02*
X926040D01*
X476040Y1361180D02*
X481040D01*
X921040D02*
X926040D01*
X476040Y1011180D02*
Y1067180D01*
X926040Y1011180D02*
Y1067180D01*
X476040Y1305180D02*
Y1361180D01*
X926040Y1305180D02*
Y1361180D01*
D50*
X2230240Y1047160D02*
X2280240D01*
Y1097160D01*
X1560240Y1047160D02*
Y1097160D01*
Y1047160D02*
X1610240D01*
X1560240Y1767160D02*
X1610240D01*
X1560240Y1717160D02*
Y1767160D01*
X2230240D02*
X2280240D01*
Y1717160D02*
Y1767160D01*
X4538980Y1983740D02*
Y2047240D01*
X4582160Y2090420D01*
X4663440D01*
X4584700Y1938020D02*
X4663440D01*
X4538980Y1983740D02*
X4584700Y1938020D01*
X4828540D02*
X4960620D01*
X4828540Y2090420D02*
X4960620D01*
Y1938020D02*
Y2090420D01*
D51*
X970280Y2692400D02*
X1107440D01*
Y2423160D02*
Y2692400D01*
X970280Y2423160D02*
X1107440D01*
X970280D02*
Y2692400D01*
Y1998980D02*
X1107440D01*
Y1729740D02*
Y1998980D01*
X970280Y1729740D02*
X1107440D01*
X970280D02*
Y1998980D01*
X1422400Y1991580D02*
X1559560D01*
X1422400D02*
Y2260820D01*
X1559560D01*
Y1991580D02*
Y2260820D01*
X972820Y1320800D02*
X1109980D01*
Y1051560D02*
Y1320800D01*
X972820Y1051560D02*
X1109980D01*
X972820D02*
Y1320800D01*
X2727960Y1516380D02*
Y1653540D01*
X2997200D01*
Y1516380D02*
Y1653540D01*
X2727960Y1516380D02*
X2997200D01*
X3079640Y795020D02*
Y932180D01*
X3348880D01*
Y795020D02*
Y932180D01*
X3079640Y795020D02*
X3348880D01*
X2727960Y1051560D02*
Y1188720D01*
X2997200D01*
Y1051560D02*
Y1188720D01*
X2727960Y1051560D02*
X2997200D01*
X2727960Y1361440D02*
Y1498600D01*
X2997200D01*
Y1361440D02*
Y1498600D01*
X2727960Y1361440D02*
X2997200D01*
X2727960Y1206500D02*
Y1343660D01*
X2997200D01*
Y1206500D02*
Y1343660D01*
X2727960Y1206500D02*
X2997200D01*
X4536440Y1780540D02*
Y1917700D01*
X4805680D01*
Y1780540D02*
Y1917700D01*
X4536440Y1780540D02*
X4805680D01*
X3365500Y795020D02*
Y932180D01*
X3634740D01*
Y795020D02*
Y932180D01*
X3365500Y795020D02*
X3634740D01*
X3651360D02*
Y932180D01*
X3920600D01*
Y795020D02*
Y932180D01*
X3651360Y795020D02*
X3920600D01*
X3972560Y1569720D02*
Y1706880D01*
X3703320Y1569720D02*
X3972560D01*
X3703320D02*
Y1706880D01*
X3972560D01*
X4820920Y2839720D02*
X4958080D01*
Y2570480D02*
Y2839720D01*
X4820920Y2570480D02*
X4958080D01*
X4820920D02*
Y2839720D01*
X2887980Y2357120D02*
X3025140D01*
Y2087880D02*
Y2357120D01*
X2887980Y2087880D02*
X3025140D01*
X2887980D02*
Y2357120D01*
X3802380D02*
X3939540D01*
Y2087880D02*
Y2357120D01*
X3802380Y2087880D02*
X3939540D01*
X3802380D02*
Y2357120D01*
X3345180D02*
X3482340D01*
Y2087880D02*
Y2357120D01*
X3345180Y2087880D02*
X3482340D01*
X3345180D02*
Y2357120D01*
X2735580Y2087880D02*
X2872740D01*
X2735580D02*
Y2357120D01*
X2872740D01*
Y2087880D02*
Y2357120D01*
X3050540Y1935480D02*
Y2072640D01*
X3319780D01*
Y1935480D02*
Y2072640D01*
X3050540Y1935480D02*
X3319780D01*
X3497580Y2087880D02*
X3634740D01*
X3497580D02*
Y2357120D01*
X3634740D01*
Y2087880D02*
Y2357120D01*
X4732020Y2011680D02*
X4772660Y1971040D01*
X4732020Y1963420D02*
Y2065020D01*
Y2016760D02*
X4772660Y2059940D01*
Y1971040D02*
Y2059940D01*
X1295400Y2710180D02*
X1432560D01*
X1295400Y2440940D02*
X1432560D01*
X1295400Y2608580D02*
Y2710180D01*
X1432560Y2440940D02*
Y2542540D01*
Y2608580D02*
Y2710180D01*
X1295400Y2440940D02*
Y2542540D01*
X1363980Y2585720D02*
Y2598420D01*
Y2552700D02*
Y2565400D01*
X1338580D02*
X1389380D01*
X1338580Y2585720D02*
X1389380D01*
X2024380Y2707640D02*
X2161540D01*
X2024380Y2438400D02*
X2161540D01*
X2024380Y2606040D02*
Y2707640D01*
X2161540Y2438400D02*
Y2540000D01*
Y2606040D02*
Y2707640D01*
X2024380Y2438400D02*
Y2540000D01*
X2092960Y2583180D02*
Y2595880D01*
Y2550160D02*
Y2562860D01*
X2067560D02*
X2118360D01*
X2067560Y2583180D02*
X2118360D01*
X2291080Y2272140D02*
X2428240D01*
X2291080Y2002900D02*
X2428240D01*
X2291080Y2170540D02*
Y2272140D01*
X2428240Y2002900D02*
Y2104500D01*
Y2170540D02*
Y2272140D01*
X2291080Y2002900D02*
Y2104500D01*
X2359660Y2147680D02*
Y2160380D01*
Y2114660D02*
Y2127360D01*
X2334260D02*
X2385060D01*
X2334260Y2147680D02*
X2385060D01*
X1727200Y1992740D02*
X1864360D01*
X1727200Y2261980D02*
X1864360D01*
Y1992740D02*
Y2094340D01*
X1727200Y2160380D02*
Y2261980D01*
Y1992740D02*
Y2094340D01*
X1864360Y2160380D02*
Y2261980D01*
X1795780Y2104500D02*
Y2117200D01*
Y2137520D02*
Y2150220D01*
X1770380Y2137520D02*
X1821180D01*
X1770380Y2117200D02*
X1821180D01*
X168800Y2659380D02*
Y2796540D01*
X438040Y2659380D02*
Y2796540D01*
X168800Y2659380D02*
X270400D01*
X336440Y2796540D02*
X438040D01*
X168800D02*
X270400D01*
X336440Y2659380D02*
X438040D01*
X280560Y2727960D02*
X293260D01*
X313580D02*
X326280D01*
X313580Y2702560D02*
Y2753360D01*
X293260Y2702560D02*
Y2753360D01*
X438040Y2321560D02*
Y2458720D01*
X168800Y2321560D02*
Y2458720D01*
X336440D02*
X438040D01*
X168800Y2321560D02*
X270400D01*
X336440D02*
X438040D01*
X168800Y2458720D02*
X270400D01*
X313580Y2390140D02*
X326280D01*
X280560D02*
X293260D01*
Y2364740D02*
Y2415540D01*
X313580Y2364740D02*
Y2415540D01*
X171340Y1287780D02*
Y1424940D01*
X440580Y1287780D02*
Y1424940D01*
X171340Y1287780D02*
X272940D01*
X338980Y1424940D02*
X440580D01*
X171340D02*
X272940D01*
X338980Y1287780D02*
X440580D01*
X283100Y1356360D02*
X295800D01*
X316120D02*
X328820D01*
X316120Y1330960D02*
Y1381760D01*
X295800Y1330960D02*
Y1381760D01*
X440580Y1625600D02*
Y1762760D01*
X171340Y1625600D02*
Y1762760D01*
X338980D02*
X440580D01*
X171340Y1625600D02*
X272940D01*
X338980D02*
X440580D01*
X171340Y1762760D02*
X272940D01*
X316120Y1694180D02*
X328820D01*
X283100D02*
X295800D01*
Y1668780D02*
Y1719580D01*
X316120Y1668780D02*
Y1719580D01*
X1574800Y2261980D02*
X1711960D01*
X1574800Y1992740D02*
X1711960D01*
X1574800Y2160380D02*
Y2261980D01*
X1711960Y1992740D02*
Y2094340D01*
Y2160380D02*
Y2261980D01*
X1574800Y1992740D02*
Y2094340D01*
X1643380Y2137520D02*
Y2150220D01*
Y2104500D02*
Y2117200D01*
X1617980D02*
X1668780D01*
X1617980Y2137520D02*
X1668780D01*
X4617720Y751840D02*
Y889000D01*
X4886960Y751840D02*
Y889000D01*
X4617720Y751840D02*
X4719320D01*
X4785360Y889000D02*
X4886960D01*
X4617720D02*
X4719320D01*
X4785360Y751840D02*
X4886960D01*
X4729480Y820420D02*
X4742180D01*
X4762500D02*
X4775200D01*
X4762500Y795020D02*
Y845820D01*
X4742180Y795020D02*
Y845820D01*
X168800Y1965960D02*
Y2103120D01*
X438040Y1965960D02*
Y2103120D01*
X168800Y1965960D02*
X270400D01*
X336440Y2103120D02*
X438040D01*
X168800D02*
X270400D01*
X336440Y1965960D02*
X438040D01*
X280560Y2034540D02*
X293260D01*
X313580D02*
X326280D01*
X313580Y2009140D02*
Y2059940D01*
X293260Y2009140D02*
Y2059940D01*
X440580Y947420D02*
Y1084580D01*
X171340Y947420D02*
Y1084580D01*
X338980D02*
X440580D01*
X171340Y947420D02*
X272940D01*
X338980D02*
X440580D01*
X171340Y1084580D02*
X272940D01*
X316120Y1016000D02*
X328820D01*
X283100D02*
X295800D01*
Y990600D02*
Y1041400D01*
X316120Y990600D02*
Y1041400D01*
X4660900Y2839720D02*
X4798060D01*
X4660900Y2570480D02*
X4798060D01*
X4660900Y2738120D02*
Y2839720D01*
X4798060Y2570480D02*
Y2672080D01*
Y2738120D02*
Y2839720D01*
X4660900Y2570480D02*
Y2672080D01*
X4729480Y2715260D02*
Y2727960D01*
Y2682240D02*
Y2694940D01*
X4704080D02*
X4754880D01*
X4704080Y2715260D02*
X4754880D01*
X3192780Y2357120D02*
X3329940D01*
X3192780Y2087880D02*
X3329940D01*
X3192780Y2255520D02*
Y2357120D01*
X3329940Y2087880D02*
Y2189480D01*
Y2255520D02*
Y2357120D01*
X3192780Y2087880D02*
Y2189480D01*
X3261360Y2232660D02*
Y2245360D01*
Y2199640D02*
Y2212340D01*
X3235960D02*
X3286760D01*
X3235960Y2232660D02*
X3286760D01*
X3040380Y2357120D02*
X3177540D01*
X3040380Y2087880D02*
X3177540D01*
X3040380Y2255520D02*
Y2357120D01*
X3177540Y2087880D02*
Y2189480D01*
Y2255520D02*
Y2357120D01*
X3040380Y2087880D02*
Y2189480D01*
X3108960Y2232660D02*
Y2245360D01*
Y2199640D02*
Y2212340D01*
X3083560D02*
X3134360D01*
X3083560Y2232660D02*
X3134360D01*
X2369820Y2398920D02*
X2506980D01*
X2369820Y2668160D02*
X2506980D01*
Y2398920D02*
Y2500520D01*
X2369820Y2566560D02*
Y2668160D01*
Y2398920D02*
Y2500520D01*
X2506980Y2566560D02*
Y2668160D01*
X2438400Y2510680D02*
Y2523380D01*
Y2543700D02*
Y2556400D01*
X2413000Y2543700D02*
X2463800D01*
X2413000Y2523380D02*
X2463800D01*
X2524760Y2398920D02*
X2661920D01*
X2524760Y2668160D02*
X2661920D01*
Y2398920D02*
Y2500520D01*
X2524760Y2566560D02*
Y2668160D01*
Y2398920D02*
Y2500520D01*
X2661920Y2566560D02*
Y2668160D01*
X2593340Y2510680D02*
Y2523380D01*
Y2543700D02*
Y2556400D01*
X2567940Y2543700D02*
X2618740D01*
X2567940Y2523380D02*
X2618740D01*
X2369820Y2954020D02*
X2506980D01*
X2369820Y2684780D02*
X2506980D01*
X2369820Y2852420D02*
Y2954020D01*
X2506980Y2684780D02*
Y2786380D01*
Y2852420D02*
Y2954020D01*
X2369820Y2684780D02*
Y2786380D01*
X2438400Y2829560D02*
Y2842260D01*
Y2796540D02*
Y2809240D01*
X2413000D02*
X2463800D01*
X2413000Y2829560D02*
X2463800D01*
X2524760Y2954020D02*
X2661920D01*
X2524760Y2684780D02*
X2661920D01*
X2524760Y2852420D02*
Y2954020D01*
X2661920Y2684780D02*
Y2786380D01*
Y2852420D02*
Y2954020D01*
X2524760Y2684780D02*
Y2786380D01*
X2593340Y2829560D02*
Y2842260D01*
Y2796540D02*
Y2809240D01*
X2567940D02*
X2618740D01*
X2567940Y2829560D02*
X2618740D01*
X3647440Y2392680D02*
X3784600D01*
X3647440Y2661920D02*
X3784600D01*
Y2392680D02*
Y2494280D01*
X3647440Y2560320D02*
Y2661920D01*
Y2392680D02*
Y2494280D01*
X3784600Y2560320D02*
Y2661920D01*
X3716020Y2504440D02*
Y2517140D01*
Y2537460D02*
Y2550160D01*
X3690620Y2537460D02*
X3741420D01*
X3690620Y2517140D02*
X3741420D01*
X3799840Y2392680D02*
X3937000D01*
X3799840Y2661920D02*
X3937000D01*
Y2392680D02*
Y2494280D01*
X3799840Y2560320D02*
Y2661920D01*
Y2392680D02*
Y2494280D01*
X3937000Y2560320D02*
Y2661920D01*
X3868420Y2504440D02*
Y2517140D01*
Y2537460D02*
Y2550160D01*
X3843020Y2537460D02*
X3893820D01*
X3843020Y2517140D02*
X3893820D01*
X3647440Y2945240D02*
X3784600D01*
X3647440Y2676000D02*
X3784600D01*
X3647440Y2843640D02*
Y2945240D01*
X3784600Y2676000D02*
Y2777600D01*
Y2843640D02*
Y2945240D01*
X3647440Y2676000D02*
Y2777600D01*
X3716020Y2820780D02*
Y2833480D01*
Y2787760D02*
Y2800460D01*
X3690620D02*
X3741420D01*
X3690620Y2820780D02*
X3741420D01*
X3799840Y2945240D02*
X3937000D01*
X3799840Y2676000D02*
X3937000D01*
X3799840Y2843640D02*
Y2945240D01*
X3937000Y2676000D02*
Y2777600D01*
Y2843640D02*
Y2945240D01*
X3799840Y2676000D02*
Y2777600D01*
X3868420Y2820780D02*
Y2833480D01*
Y2787760D02*
Y2800460D01*
X3843020D02*
X3893820D01*
X3843020Y2820780D02*
X3893820D01*
X3649980Y2087880D02*
X3787140D01*
X3649980Y2357120D02*
X3787140D01*
Y2087880D02*
Y2189480D01*
X3649980Y2255520D02*
Y2357120D01*
Y2087880D02*
Y2189480D01*
X3787140Y2255520D02*
Y2357120D01*
X3718560Y2199640D02*
Y2212340D01*
Y2232660D02*
Y2245360D01*
X3693160Y2232660D02*
X3743960D01*
X3693160Y2212340D02*
X3743960D01*
%TF.MD5,05dc9592f2bc3f5b2bb43f57142e1b66*%
M02*
