%TF.GenerationSoftware,Altium Limited,Altium Designer,24.0.1 (36)*%
G04 Layer_Physical_Order=2*
G04 Layer_Color=12517376*
%FSLAX45Y45*%
%MOMM*%
%TF.SameCoordinates,14D861EB-6B2A-43A0-B606-02C4F9DF8899*%
%TF.FilePolarity,Positive*%
%TF.FileFunction,Copper,L2,Bot,Signal*%
%TF.Part,Single*%
G01*
G75*
%TA.AperFunction,NonConductor*%
%ADD10C,0.20320*%
%ADD32C,0.25400*%
%TA.AperFunction,Conductor*%
%ADD33C,0.25400*%
%ADD34C,0.20320*%
%ADD35C,0.15240*%
%ADD36C,0.38100*%
%TA.AperFunction,ComponentPad*%
%ADD38R,1.70000X1.70000*%
%ADD39C,1.70000*%
%TA.AperFunction,ViaPad*%
%ADD40C,0.50000*%
%ADD41C,0.60000*%
%TA.AperFunction,SMDPad,CuDef*%
%ADD42R,1.27000X2.20000*%
%TA.AperFunction,Conductor*%
%ADD43C,0.76200*%
G36*
X2974339Y3614419D02*
X2936240Y3576320D01*
Y3012440D01*
X2974340Y2974340D01*
X3644900D01*
X3683000Y3012440D01*
Y3563620D01*
X3632200Y3614420D01*
X2974339Y3614419D01*
D02*
G37*
G36*
X4269740Y3586480D02*
X4229100Y3545840D01*
Y3086100D01*
X4452620Y2862580D01*
Y2466340D01*
Y2174240D01*
X4511040Y2115820D01*
X4988560D01*
X5036820Y2164080D01*
Y3525520D01*
X4975860Y3586480D01*
X4269740D01*
D02*
G37*
D10*
X4392840Y1630680D02*
G03*
X4184600Y1579538I-110400J0D01*
G01*
X4231298Y1532840D02*
G03*
X4392840Y1630680I51142J97840D01*
G01*
X4218686Y1286549D02*
G03*
X4392840Y1376680I63754J90131D01*
G01*
D02*
G03*
X4206240Y1456566I-110400J0D01*
G01*
X4149871Y1544809D02*
G03*
X4140200Y1521460I23349J-23349D01*
G01*
X4149871Y1544809D02*
G03*
X4140200Y1521460I23349J-23349D01*
G01*
X3995020Y1076560D02*
G03*
X4018369Y1086231I0J33020D01*
G01*
X3995020Y1076560D02*
G03*
X4018369Y1086231I0J33020D01*
G01*
X3694804Y2170430D02*
G03*
X3768960Y2214880I23756J44450D01*
G01*
D02*
G03*
X3694804Y2259330I-50400J0D01*
G01*
X2713800Y3520351D02*
G03*
X2713800Y3429089I-21400J-45631D01*
G01*
X2578100Y3416323D02*
G03*
X2595480Y3454400I-33020J38077D01*
G01*
D02*
G03*
X2512060Y3416323I-50400J0D01*
G01*
X2250670Y3332120D02*
G03*
X2341480Y3302000I40410J-30120D01*
G01*
D02*
G03*
X2331490Y3332120I-50400J0D01*
G01*
X2095100Y3246520D02*
G03*
X1994430Y3242900I-50400J0D01*
G01*
X3508496Y2872358D02*
G03*
X3514446Y2896114I-44450J23756D01*
G01*
D02*
G03*
X3419596Y2872358I-50400J0D01*
G01*
X3547429Y2183449D02*
G03*
X3578860Y2170430I31431J31431D01*
G01*
X3547429Y2183449D02*
G03*
X3578860Y2170430I31431J31431D01*
G01*
X3419596Y2329694D02*
G03*
X3432615Y2298263I44450J0D01*
G01*
X3419596Y2329694D02*
G03*
X3432615Y2298263I44450J0D01*
G01*
X2819264Y1546860D02*
G03*
X2907740Y1579880I38077J33020D01*
G01*
D02*
G03*
X2819264Y1612900I-50400J0D01*
G01*
X2765660Y1047411D02*
G03*
X2756282Y1076560I-50400J-132D01*
G01*
X2816671Y960576D02*
G03*
X2843397Y1005070I-23674J44494D01*
G01*
D02*
G03*
X2765660Y1047411I-50400J0D01*
G01*
X2273300Y1612900D02*
G03*
X2249951Y1603229I0J-33020D01*
G01*
X2273300Y1612900D02*
G03*
X2249951Y1603229I0J-33020D01*
G01*
X1922807Y2562860D02*
G03*
X2006200Y2600960I32993J38100D01*
G01*
D02*
G03*
X1922807Y2639060I-50400J0D01*
G01*
X2182896Y1536173D02*
G03*
X2229720Y1485900I-3576J-50273D01*
G01*
X2112293Y1173080D02*
G03*
X2032216Y1113281I-36110J-35160D01*
G01*
X2011280Y1137920D02*
G03*
X1920240Y1167728I-50400J0D01*
G01*
X4873721Y758119D02*
G03*
X4773199Y758119I-50261J-3739D01*
G01*
X4038600Y774700D02*
G03*
X4028929Y798049I-33020J0D01*
G01*
X4038600Y774700D02*
G03*
X4028929Y798049I-33020J0D01*
G01*
X4021309Y945369D02*
G03*
X3997960Y955040I-23349J-23349D01*
G01*
X4021309Y945369D02*
G03*
X3997960Y955040I-23349J-23349D01*
G01*
X4172731Y700551D02*
G03*
X4196080Y690880I23349J23349D01*
G01*
X4172731Y700551D02*
G03*
X4196080Y690880I23349J23349D01*
G01*
X3538772Y540468D02*
G03*
X3548443Y517119I33020J0D01*
G01*
X3538772Y540468D02*
G03*
X3548443Y517119I33020J0D01*
G01*
X4494149Y442449D02*
G03*
X4470800Y452120I-23349J-23349D01*
G01*
X4494149Y442449D02*
G03*
X4470800Y452120I-23349J-23349D01*
G01*
X3639331Y426231D02*
G03*
X3662680Y416560I23349J23349D01*
G01*
X3639331Y426231D02*
G03*
X3662680Y416560I23349J23349D01*
G01*
X3090149Y679211D02*
G03*
X3080477Y702560I-33020J0D01*
G01*
X3090149Y679211D02*
G03*
X3080477Y702560I-33020J0D01*
G01*
X3024109Y562371D02*
G03*
X3033780Y539023I33020J0D01*
G01*
X3024109Y562371D02*
G03*
X3033780Y539023I33020J0D01*
G01*
X2573020Y675640D02*
G03*
X2563349Y698989I-33020J0D01*
G01*
X2573020Y675640D02*
G03*
X2563349Y698989I-33020J0D01*
G01*
X2506980Y548640D02*
G03*
X2516651Y525292I33020J0D01*
G01*
X2506980Y548640D02*
G03*
X2516651Y525292I33020J0D01*
G01*
X3466272Y453925D02*
G03*
X3442923Y463597I-23349J-23349D01*
G01*
X3466272Y453925D02*
G03*
X3442923Y463597I-23349J-23349D01*
G01*
X3165575Y407228D02*
G03*
X3188923Y397557I23349J23349D01*
G01*
X3165575Y407228D02*
G03*
X3188923Y397557I23349J23349D01*
G01*
X2957049Y447529D02*
G03*
X2933700Y457200I-23349J-23349D01*
G01*
X2957049Y447529D02*
G03*
X2933700Y457200I-23349J-23349D01*
G01*
X2641112Y400831D02*
G03*
X2664460Y391160I23349J23349D01*
G01*
X2641112Y400831D02*
G03*
X2664460Y391160I23349J23349D01*
G01*
X2451989Y452609D02*
G03*
X2428640Y462280I-23349J-23349D01*
G01*
X2451989Y452609D02*
G03*
X2428640Y462280I-23349J-23349D01*
G01*
X1841020Y3622040D02*
G03*
X1831123Y3653641I-55400J0D01*
G01*
X1740117D02*
G03*
X1733624Y3602919I45503J-31601D01*
G01*
X1837616D02*
G03*
X1841020Y3622040I-51996J19121D01*
G01*
X1420748Y3312649D02*
G03*
X1397400Y3322320I-23349J-23349D01*
G01*
X1420748Y3312649D02*
G03*
X1397400Y3322320I-23349J-23349D01*
G01*
X965200Y3360420D02*
G03*
X941851Y3350749I0J-33020D01*
G01*
X965200Y3360420D02*
G03*
X941851Y3350749I0J-33020D01*
G01*
X1693780Y2122120D02*
G03*
X1601467Y2150111I-50400J0D01*
G01*
X1610329Y2084071D02*
G03*
X1693780Y2122120I33051J38049D01*
G01*
X1529554Y2150111D02*
G03*
X1522781Y2084071I-41114J-29151D01*
G01*
X1348340Y2499360D02*
G03*
X1274184Y2543810I-50400J0D01*
G01*
Y2454910D02*
G03*
X1348340Y2499360I23756J44450D01*
G01*
X1010096Y2034963D02*
G03*
X1027476Y2073040I-33020J38077D01*
G01*
X926055Y2776865D02*
G03*
X908675Y2814942I-50400J0D01*
G01*
X825756Y2769775D02*
G03*
X926055Y2776865I49899J7090D01*
G01*
X725713Y2782037D02*
G03*
X825756Y2769775I49943J-6772D01*
G01*
X1027476Y2073040D02*
G03*
X926691Y2074262I-50400J0D01*
G01*
D02*
G03*
X886460Y1986303I-7211J-49882D01*
G01*
X744250Y2132447D02*
G03*
X677958Y2180276I-50400J0D01*
G01*
X805734Y2038171D02*
G03*
X823114Y2076247I-33020J38077D01*
G01*
X741400Y2115739D02*
G03*
X744250Y2132447I-47550J16708D01*
G01*
X823114Y2076247D02*
G03*
X741400Y2115739I-50400J0D01*
G01*
X580879Y3303759D02*
G03*
X557530Y3313430I-23349J-23349D01*
G01*
X580879Y3303759D02*
G03*
X557530Y3313430I-23349J-23349D01*
G01*
X592589Y2874384D02*
G03*
X575948Y2827710I33020J-38077D01*
G01*
D02*
G03*
X534904Y2844273I-37468J-33710D01*
G01*
X379961Y3257061D02*
G03*
X403310Y3247390I23349J23349D01*
G01*
X379961Y3257061D02*
G03*
X403310Y3247390I23349J23349D01*
G01*
X513969Y2865209D02*
G03*
X490620Y2874880I-23349J-23349D01*
G01*
X513969Y2865209D02*
G03*
X490620Y2874880I-23349J-23349D01*
G01*
X256140D02*
G03*
X232791Y2865209I0J-33020D01*
G01*
X256140Y2874880D02*
G03*
X232791Y2865209I0J-33020D01*
G01*
X588141Y2802597D02*
G03*
X624066Y2785931I37468J33710D01*
G01*
X588880Y2794000D02*
G03*
X588141Y2802597I-50400J0D01*
G01*
X624066Y2785931D02*
G03*
X724300Y2778401I49834J-7530D01*
G01*
X488207Y2797576D02*
G03*
X588880Y2794000I50273J-3576D01*
G01*
X346760Y2694967D02*
G03*
X359060Y2727960I-38100J32993D01*
G01*
X508000Y2543810D02*
G03*
X476569Y2530791I0J-44450D01*
G01*
X508000Y2543810D02*
G03*
X476569Y2530791I0J-44450D01*
G01*
X677964Y2181046D02*
G03*
X580930Y2200162I-50400J0D01*
G01*
D02*
G03*
X506555Y2148663I-24532J-44027D01*
G01*
X506555D02*
G03*
X475019Y2060209I1484J-50378D01*
G01*
X423780Y2303780D02*
G03*
X417830Y2327536I-50400J0D01*
G01*
Y2280024D02*
G03*
X423780Y2303780I-44450J23756D01*
G01*
X359060Y2727960D02*
G03*
X270560Y2694967I-50400J0D01*
G01*
Y2589591D02*
G03*
X237256Y2504967I-36880J-34351D01*
G01*
X90951Y2723369D02*
G03*
X81280Y2700020I23349J-23349D01*
G01*
X90951Y2723369D02*
G03*
X81280Y2700020I23349J-23349D01*
G01*
X237452Y2077713D02*
G03*
X227781Y2054364I23349J-23349D01*
G01*
X237452Y2077713D02*
G03*
X227781Y2054364I23349J-23349D01*
G01*
X1236980Y1521310D02*
G03*
X1227309Y1544659I-33020J0D01*
G01*
X1236980Y1521310D02*
G03*
X1227309Y1544659I-33020J0D01*
G01*
X1920240Y1167728D02*
G03*
X1883176Y1087647I-40640J-29808D01*
G01*
X1800339Y1133329D02*
G03*
X1776990Y1143000I-23349J-23349D01*
G01*
X1800339Y1133329D02*
G03*
X1776990Y1143000I-23349J-23349D01*
G01*
X949960Y1313203D02*
G03*
X957580Y1321472I-33020J38077D01*
G01*
Y1173106D02*
G03*
X967251Y1149757I33020J0D01*
G01*
X957580Y1173106D02*
G03*
X967251Y1149757I33020J0D01*
G01*
X1028700Y674112D02*
G03*
X1019029Y697461I-33020J0D01*
G01*
X1028700Y674112D02*
G03*
X1019029Y697461I-33020J0D01*
G01*
X1599712Y416071D02*
G03*
X1623060Y406400I23349J23349D01*
G01*
X1599712Y416071D02*
G03*
X1623060Y406400I23349J23349D01*
G01*
X1475740Y553720D02*
G03*
X1485411Y530372I33020J0D01*
G01*
X1475740Y553720D02*
G03*
X1485411Y530372I33020J0D01*
G01*
X1432343Y453314D02*
G03*
X1408995Y462986I-23349J-23349D01*
G01*
X1432343Y453314D02*
G03*
X1408995Y462986I-23349J-23349D01*
G01*
X1078306Y406617D02*
G03*
X1093001Y398100I23349J23349D01*
G01*
X1078306Y406617D02*
G03*
X1093001Y398100I23349J23349D01*
G01*
X962660Y535940D02*
G03*
X972331Y512591I33020J0D01*
G01*
X962660Y535940D02*
G03*
X972331Y512591I33020J0D01*
G01*
X1093001Y398100D02*
G03*
X1101654Y396946I8654J31866D01*
G01*
X1093001Y398100D02*
G03*
X1101654Y396946I8654J31866D01*
G01*
X886460Y1744530D02*
G03*
X896131Y1721182I33020J0D01*
G01*
X886460Y1744530D02*
G03*
X896131Y1721182I33020J0D01*
G01*
X474314Y1943833D02*
G03*
X417830Y1939062I-24734J-43913D01*
G01*
X227781Y1339076D02*
G03*
X237452Y1315727I33020J0D01*
G01*
X227781Y1339076D02*
G03*
X237452Y1315727I33020J0D01*
G01*
X515620Y1178583D02*
G03*
X521427Y1184525I-33020J38077D01*
G01*
Y888273D02*
G03*
X531098Y864925I33020J0D01*
G01*
X521427Y888273D02*
G03*
X531098Y864925I33020J0D01*
G01*
X668020Y706120D02*
G03*
X658349Y729469I-33020J0D01*
G01*
X668020Y706120D02*
G03*
X658349Y729469I-33020J0D01*
G01*
X925420Y455178D02*
G03*
X902071Y464849I-23349J-23349D01*
G01*
X925420Y455178D02*
G03*
X902071Y464849I-23349J-23349D01*
G01*
X738740Y378460D02*
G03*
X734449Y398809I-50400J0D01*
G01*
X655347Y340360D02*
G03*
X738740Y378460I32993J38100D01*
G01*
X605600Y351439D02*
G03*
X632460Y340360I26860J27021D01*
G01*
X605600Y351439D02*
G03*
X632460Y340360I26860J27021D01*
G01*
X210332Y410991D02*
G03*
X233681Y401320I23349J23349D01*
G01*
X210332Y410991D02*
G03*
X233681Y401320I23349J23349D01*
G01*
X81280Y553721D02*
G03*
X90951Y530372I33020J0D01*
G01*
X81280Y553721D02*
G03*
X90951Y530372I33020J0D01*
G01*
X4788904Y3653641D02*
X4821162Y3649394D01*
X4772635Y3653641D02*
X4788904D01*
X4751883D02*
X4793146Y3612378D01*
X4690009D02*
X4731272Y3653641D01*
X4618167Y3612378D02*
X4659430Y3653641D01*
X4608198D02*
X4649461Y3612378D01*
X4680040Y3653641D02*
X4721303Y3612378D01*
X4852590Y3640973D02*
X4882648Y3628522D01*
X4830464Y3646901D02*
X4864988Y3612378D01*
X4882648Y3628522D02*
X4910611Y3612378D01*
X4833694D02*
X4859448Y3638132D01*
X4269740Y3612378D02*
X4910611D01*
X4821162Y3649394D02*
X4852590Y3640973D01*
X4761852Y3612378D02*
X4801461Y3651987D01*
X4330799Y3612378D02*
X4372062Y3653641D01*
X4320830D02*
X4362093Y3612378D01*
X4402641D02*
X4443904Y3653641D01*
X4392672D02*
X4433935Y3612378D01*
X4249498Y3602919D02*
X4300220Y3653641D01*
X4248988D02*
X4290251Y3612378D01*
X4177146Y3653641D02*
X4237800Y3592986D01*
X4474483Y3612378D02*
X4515746Y3653641D01*
X4464514D02*
X4505777Y3612378D01*
X4546325D02*
X4587588Y3653641D01*
X4536356D02*
X4577619Y3612378D01*
X4259829Y3610406D02*
X4269740Y3612378D01*
X4251428Y3604792D02*
X4259829Y3610406D01*
X4237800Y3602919D02*
X4249555D01*
X4237800Y3591221D02*
X4249498Y3602919D01*
X4237800Y3591165D02*
Y3602919D01*
Y3591165D02*
X4249555Y3602919D01*
X4210788Y3564152D02*
X4237800Y3591165D01*
X4205174Y3555751D02*
X4210788Y3564152D01*
X4105303Y3653641D02*
X4204845Y3554099D01*
X4203202Y3545840D02*
X4205174Y3555751D01*
Y3076189D02*
X4210788Y3067788D01*
X4203202Y3086100D02*
X4205174Y3076189D01*
X4153980Y3030227D02*
X4426722Y2757485D01*
X4210788Y3067788D02*
X4426722Y2851853D01*
X4153980Y3004506D02*
X4214025Y3064551D01*
X4153980Y3076348D02*
X4203202Y3125571D01*
X4153980Y3102069D02*
X4426722Y2829327D01*
X4097385Y3235280D02*
X4203202Y3341097D01*
X4033461Y3653641D02*
X4203202Y3483900D01*
Y3086100D02*
Y3545840D01*
X4153980Y3220033D02*
X4203202Y3269255D01*
X4025543Y3235280D02*
X4203202Y3412939D01*
X3991420Y3235280D02*
X4153980D01*
X3991420Y2979720D02*
Y3235280D01*
X4153980Y3173911D02*
X4203202Y3124689D01*
X4153980Y3148191D02*
X4203202Y3197413D01*
X4153980Y2979720D02*
Y3235280D01*
X3899980Y3540770D02*
X4012851Y3653641D01*
X3882668Y3595299D02*
X3941009Y3653641D01*
X3899980Y3397085D02*
X4156536Y3653641D01*
X3899980Y3468928D02*
X4084693Y3653641D01*
X3810826Y3595299D02*
X3869167Y3653641D01*
X3746093D02*
X3804434Y3595299D01*
X3817935Y3653641D02*
X3876276Y3595299D01*
X3961619Y3653641D02*
X4203202Y3412057D01*
X3889777Y3653641D02*
X4203202Y3340215D01*
X3737420Y3595299D02*
X3899980D01*
X3738984D02*
X3797325Y3653641D01*
X3701312Y3581932D02*
X3706926Y3573531D01*
X3737420Y3339740D02*
Y3595299D01*
X3708633Y3564949D02*
X3737420Y3593736D01*
X3674251Y3653641D02*
X3737420Y3590471D01*
X3677543Y3605701D02*
X3725483Y3653641D01*
X3650512Y3632732D02*
X3701312Y3581932D01*
X3708898Y3421529D02*
X3737420Y3450052D01*
X3708898Y3475310D02*
X3737420Y3446787D01*
X3708898Y3349687D02*
X3737420Y3378210D01*
X3708898Y3403467D02*
X3737420Y3374945D01*
X3708898Y3547152D02*
X3737420Y3518629D01*
X3706926Y3573531D02*
X3708898Y3563620D01*
Y3493371D02*
X3737420Y3521894D01*
X3899980Y3571595D02*
X4203202Y3268373D01*
X3899980Y3427911D02*
X4092612Y3235280D01*
X3899980Y3499753D02*
X4203202Y3196531D01*
X3899980Y3356069D02*
X4020769Y3235280D01*
X3708898Y3062318D02*
X4237800Y3591221D01*
X3708898Y3134161D02*
X4228378Y3653641D01*
X3508496Y2790075D02*
X4203202Y3484781D01*
X3708898Y3187941D02*
X4426722Y2470116D01*
X3708898Y3259783D02*
X4426722Y2541958D01*
X3708898Y3044257D02*
X4426722Y2326432D01*
X3708898Y3116099D02*
X4426722Y2398274D01*
X3538959Y2317643D02*
X4249946Y3028629D01*
X2637600Y3037922D02*
X4142348Y1533175D01*
X2129600Y3186712D02*
X4055975Y1260337D01*
X3899980Y3339740D02*
Y3595299D01*
X3737420Y3339740D02*
X3899980D01*
X3772625D02*
X3991420Y3120945D01*
X3844467Y3339740D02*
X3991420Y3192787D01*
X3708898Y3206003D02*
X3842635Y3339740D01*
X3708898Y3277845D02*
X3770793Y3339740D01*
X3708898Y3012440D02*
Y3563620D01*
Y3331625D02*
X3991420Y3049103D01*
X3706926Y3002529D02*
X3708898Y3012440D01*
X3508496Y2574548D02*
X3991420Y3057473D01*
X3508496Y2646390D02*
X3991420Y3129315D01*
X2129600Y3114870D02*
X4020054Y1224416D01*
X3508496Y2718233D02*
X3991420Y3201157D01*
X2129600Y3043027D02*
X3984133Y1188495D01*
X5006872Y2097508D02*
X5020841Y2111476D01*
X4998471Y2091894D02*
X5006872Y2097508D01*
X5010865Y2101500D02*
X5020841Y2091524D01*
X4988560Y2089922D02*
X4998471Y2091894D01*
X4511040Y2089922D02*
X4988560D01*
X4389115Y1659115D02*
X4819923Y2089922D01*
X4378996Y1577153D02*
X4891765Y2089922D01*
X4878758D02*
X5020841Y1947840D01*
X4950600Y2089922D02*
X5020841Y2019682D01*
X4735074Y2089922D02*
X5020841Y1804155D01*
X4806916Y2089922D02*
X5020841Y1875998D01*
X4591390Y2089922D02*
X5020841Y1660471D01*
X4663232Y2089922D02*
X5020841Y1732313D01*
X4519548Y2089922D02*
X5020841Y1588629D01*
X4426722Y2174240D02*
Y2466340D01*
Y2851853D01*
X4428694Y2164329D02*
X4434308Y2155928D01*
X4426722Y2174240D02*
X4428694Y2164329D01*
X4132645Y2979720D02*
X4426722Y2685643D01*
X3991420Y2979720D02*
X4153980D01*
X4060803D02*
X4426722Y2613800D01*
X4492727Y2097508D02*
X4501129Y2091894D01*
X4434308Y2155928D02*
X4492727Y2097508D01*
X4363638Y1705480D02*
X4748081Y2089922D01*
X4501129Y2091894D02*
X4511040Y2089922D01*
X4320594Y1734277D02*
X4676239Y2089922D01*
X4250976Y1736501D02*
X4604397Y2089922D01*
X4392833Y1375464D02*
X5020841Y2003472D01*
X4377813Y1432286D02*
X5020841Y2075314D01*
X4355660Y979080D02*
X5020841Y1644261D01*
X4392202Y1642531D02*
X5020841Y1013892D01*
X4211976Y979080D02*
X5020841Y1787946D01*
X4342802Y1469117D02*
X4963607Y2089922D01*
X4283818Y979080D02*
X5020841Y1716104D01*
X4288743Y1486900D02*
X4335967Y1534124D01*
X4172040Y979080D02*
X4392840D01*
X4124225Y1192087D02*
X4337232Y979080D01*
X3972409Y955040D02*
X4283656Y1266287D01*
X4206240Y1507783D02*
X4231298Y1532840D01*
X4149871Y1544809D02*
X4184600Y1579538D01*
X4222911Y1524454D02*
X4262163Y1485202D01*
X4206240Y1476239D02*
X4254005Y1524005D01*
X4140200Y1344562D02*
Y1521460D01*
X4206240Y1469283D02*
X4213009Y1462514D01*
X4206240Y1456566D02*
Y1507783D01*
X4088304Y1156166D02*
X4265390Y979080D01*
X4052383Y1120245D02*
X4193548Y979080D01*
X4018369Y1086231D02*
X4218686Y1286549D01*
X3697521Y2260679D02*
X4357709Y2920866D01*
X3624330Y2259330D02*
X4321788Y2956787D01*
X3657356Y2952114D02*
X4426722Y2182748D01*
X3694249Y2987064D02*
X4426722Y2254590D01*
X3589186Y2948442D02*
X5020841Y1516787D01*
X3574880Y2281722D02*
X4285867Y2992709D01*
X3517343Y2948442D02*
X5020841Y1444945D01*
X3756613Y2247928D02*
X4393630Y2884945D01*
X3765739Y2197152D02*
X4233334Y1729557D01*
X3512318Y2881625D02*
X5020841Y1373103D01*
X3615712Y1173080D02*
X4532555Y2089922D01*
X3508496Y2813606D02*
X5020841Y1301261D01*
X3508496Y2526237D02*
X4294291Y1740442D01*
X3508496Y2741764D02*
X5020841Y1229418D01*
X3701312Y2994127D02*
X3706926Y3002529D01*
X3663212Y2956028D02*
X3701312Y2994127D01*
X3508496Y2359022D02*
X4129194Y2979720D01*
X3508496Y2430864D02*
X4057352Y2979720D01*
X2631580Y2972100D02*
X4140200Y1463480D01*
X3508496Y2502706D02*
X3991420Y2985631D01*
X2487896Y2972100D02*
X4127817Y1332179D01*
X3726015Y2165034D02*
X4194124Y1696925D01*
X3648777Y2170430D02*
X4173120Y1646087D01*
X3576891Y2170474D02*
X4176214Y1571151D01*
X3508496Y2454395D02*
X3700832Y2262059D01*
X2559738Y2972100D02*
X4140200Y1391638D01*
X3040975Y1173080D02*
X4426722Y2558827D01*
X2969133Y1173080D02*
X4426722Y2630669D01*
X3508496Y2598079D02*
X5020841Y1085734D01*
X3508496Y2669922D02*
X5020841Y1157577D01*
X2825449Y1173080D02*
X4426722Y2774354D01*
X2753607Y1173080D02*
X4426722Y2846196D01*
X2897291Y1173080D02*
X4426722Y2702511D01*
X3400186Y1173080D02*
X4426722Y2199617D01*
X3328344Y1173080D02*
X4426722Y2271459D01*
X3543870Y1173080D02*
X4480513Y2109722D01*
X3472028Y1173080D02*
X4444592Y2145644D01*
X3184659Y1173080D02*
X4426722Y2415143D01*
X3112817Y1173080D02*
X4426722Y2486985D01*
X3256501Y1173080D02*
X4426722Y2343301D01*
X3759396Y1173080D02*
X4178843Y1592526D01*
X3687554Y1173080D02*
X4176619Y1662144D01*
X3903081Y1173080D02*
X4140200Y1410199D01*
X3831238Y1173080D02*
X4140200Y1482041D01*
X2056848Y2972100D02*
X3855869Y1173080D01*
X1985006Y2972100D02*
X3784026Y1173080D01*
X2128685Y2972100D02*
X3927706Y1173080D01*
X3968717D02*
X4140200Y1344562D01*
X3685041Y955040D02*
X3806561Y1076560D01*
X3808704D02*
X3930224Y955040D01*
X3756883D02*
X3878403Y1076560D01*
X2756282D02*
X3995020D01*
X2112293Y1173080D02*
X3968717D01*
X3665020Y1076560D02*
X3786540Y955040D01*
X3496633Y3640318D02*
X3509956Y3653641D01*
X3458724D02*
X3472047Y3640318D01*
X3530566Y3653641D02*
X3543890Y3640318D01*
X3424791Y3640317D02*
X3438114Y3653641D01*
X3352949Y3640317D02*
X3366272Y3653641D01*
X3315040D02*
X3328363Y3640317D01*
X3386882Y3653641D02*
X3400206Y3640317D01*
X3638971Y3638971D02*
X3653641Y3653641D01*
X3638971Y3638971D02*
X3653641Y3653641D01*
X3642111Y3638346D02*
X3650512Y3632732D01*
X3632200Y3640318D02*
X3642111Y3638346D01*
X3602409Y3653641D02*
X3615732Y3640318D01*
X3568475D02*
X3581799Y3653641D01*
X2974339Y3640317D02*
X3632200Y3640318D01*
X3027671Y3653641D02*
X3040995Y3640317D01*
X2993738D02*
X3007062Y3653641D01*
X3099513D02*
X3112837Y3640317D01*
X3065580D02*
X3078904Y3653641D01*
X2955829D02*
X2970014Y3639457D01*
X2883987Y3653641D02*
X2930462Y3607167D01*
X2740814Y3602919D02*
X2791535Y3653641D01*
X3209265Y3640317D02*
X3222588Y3653641D01*
X3171356D02*
X3184679Y3640317D01*
X3281107D02*
X3294430Y3653641D01*
X3243198D02*
X3256521Y3640317D01*
X3137422Y3640317D02*
X3150746Y3653641D01*
X2964429Y3638346D02*
X2974339Y3640317D01*
X2956027Y3632732D02*
X2964429Y3638346D01*
X2917928Y3594632D02*
X2956027Y3632732D01*
X2912314Y3586231D02*
X2917928Y3594632D01*
X2910342Y3576320D02*
X2912314Y3586231D01*
X2910342Y3012440D02*
Y3576320D01*
X2884498Y3602919D02*
X2935220Y3653641D01*
X2891600Y3538179D02*
X2910342Y3556922D01*
X2891600Y3502344D02*
X2910342Y3483601D01*
X2891600Y3430501D02*
X2910342Y3411759D01*
X2891600Y3466337D02*
X2910342Y3485079D01*
X2891600Y3358659D02*
X2910342Y3339917D01*
X2891600Y3394495D02*
X2910342Y3413237D01*
X2774455Y3332120D02*
X2910342Y3196233D01*
X2846298Y3332120D02*
X2910342Y3268075D01*
X2637600Y2996811D02*
X2910342Y3269553D01*
X2812145Y3653641D02*
X2862867Y3602919D01*
X2740303Y3653641D02*
X2791024Y3602919D01*
X2891600Y3332120D02*
Y3602919D01*
X2812656D02*
X2863378Y3653641D01*
X2713800Y3602919D02*
X2891600D01*
X2668461Y3653641D02*
X2719182Y3602919D01*
X2713800Y3520351D02*
Y3602919D01*
X2891600Y3574186D02*
X2910342Y3555443D01*
X2680933Y3425642D02*
X2713800Y3392775D01*
Y3332120D02*
X2891600D01*
X2713800D02*
Y3429089D01*
X2637600Y3212337D02*
X2757383Y3332120D01*
X2637600Y3140495D02*
X2829225Y3332120D01*
X2596619Y3653641D02*
X2713800Y3536459D01*
X2524777Y3653641D02*
X2662861Y3515556D01*
X2383600Y3389390D02*
X2647851Y3653641D01*
X2452934D02*
X2643322Y3463253D01*
X2381092Y3653641D02*
X2531733Y3503000D01*
X2383600Y3533074D02*
X2504167Y3653641D01*
X2383600Y3461232D02*
X2576009Y3653641D01*
X2566209Y3500157D02*
X2719693Y3653641D01*
X2595385Y3457491D02*
X2713800Y3575906D01*
X2578100Y3368363D02*
X2653012Y3443276D01*
X2383600Y3579291D02*
X2496202Y3466690D01*
X2383600Y3507449D02*
X2512060Y3378989D01*
X2237408Y3653641D02*
X2288130Y3602919D01*
X2165566Y3653641D02*
X2216287Y3602919D01*
X2021882Y3653641D02*
X2205800Y3469722D01*
X2093724Y3653641D02*
X2205800Y3541564D01*
X1950040Y3653641D02*
X2205800Y3397880D01*
X1875600Y3599811D02*
X1929430Y3653641D01*
X1875600Y3384285D02*
X2144956Y3653641D01*
X2309761Y3602919D02*
X2360483Y3653641D01*
X2309250D02*
X2359972Y3602919D01*
X2381603D02*
X2432325Y3653641D01*
X2383600Y3332120D02*
Y3602919D01*
X2205800D02*
X2383600D01*
X2237919D02*
X2288641Y3653641D01*
X2205800Y3332120D02*
X2250670D01*
X2578100Y3296521D02*
X2708560Y3426981D01*
X2578100Y3242900D02*
Y3416323D01*
Y3384791D02*
X2910342Y3052549D01*
X2593680Y3441053D02*
X2910342Y3124391D01*
X2512060Y3242900D02*
Y3416323D01*
X2383600Y3435607D02*
X2512060Y3307147D01*
X2129600Y3063548D02*
X2499323Y3433271D01*
X2596321Y3242900D02*
X2713800Y3360379D01*
X2578100Y3242900D02*
X2637600D01*
X2578100Y3312949D02*
X3419596Y2471453D01*
X2637600Y3068653D02*
X2910342Y3341395D01*
X2383600Y3363764D02*
X2504465Y3242900D01*
X2278692Y3253146D02*
X2459800Y3072038D01*
X2129600Y2991706D02*
X2512060Y3374165D01*
X2331490Y3332120D02*
X2383600D01*
X2205800D02*
Y3602919D01*
X1878197Y3653641D02*
X2242226Y3289612D01*
X2069231Y3290547D02*
X2205800Y3427116D01*
X2095061Y3244535D02*
X2205800Y3355274D01*
X2343403Y3332120D02*
X2459800Y3215722D01*
X2129600Y3207232D02*
X2245176Y3322808D01*
X2331622Y3272058D02*
X2459800Y3143880D01*
X2129600Y3135390D02*
X2258099Y3263889D01*
X1951800Y3242900D02*
X1994430D01*
X1951800Y2972100D02*
Y3242900D01*
X3654811Y2950414D02*
X3663212Y2956028D01*
X3644900Y2948442D02*
X3654811Y2950414D01*
X3508496Y2861917D02*
X3595022Y2948442D01*
X2974340D02*
X3644900D01*
X3502924Y2928187D02*
X3523179Y2948442D01*
X3597272Y2259330D02*
X3694804D01*
X3508496Y2348106D02*
X3597272Y2259330D01*
X3508496Y2382553D02*
X3631719Y2259330D01*
X3508496Y2348106D02*
Y2872358D01*
X3432615Y2298263D02*
X3547429Y2183449D01*
X2964429Y2950414D02*
X2974340Y2948442D01*
X2956027Y2956028D02*
X2964429Y2950414D01*
X3301817Y2948442D02*
X3419596Y2830664D01*
X3373659Y2948442D02*
X3414884Y2907217D01*
X2912314Y3002529D02*
X2917928Y2994128D01*
X2910342Y3012440D02*
X2912314Y3002529D01*
X2917928Y2994128D02*
X2956027Y2956028D01*
X3419596Y2329694D02*
Y2872358D01*
X3229975Y2948442D02*
X3419596Y2758822D01*
X3086291Y2948442D02*
X3419596Y2615137D01*
X3158133Y2948442D02*
X3419596Y2686979D01*
X3014449Y2948442D02*
X3419596Y2543295D01*
X3578860Y2170430D02*
X3694804D01*
X2899952Y1606794D02*
X3512018Y2218860D01*
X2900447Y1553765D02*
X3281132Y1173080D01*
X2852673Y1529697D02*
X3209289Y1173080D01*
X2851223Y1629907D02*
X3476097Y2254781D01*
X2690532Y1612900D02*
X3419596Y2341964D01*
X2762374Y1612900D02*
X3440176Y2290702D01*
X3397672Y955040D02*
X3519192Y1076560D01*
X3377652D02*
X3499172Y955040D01*
X3521336Y1076560D02*
X3642856Y955040D01*
X3469514D02*
X3591034Y1076560D01*
X3305809D02*
X3427329Y955040D01*
X3253988D02*
X3375508Y1076560D01*
X3325830Y955040D02*
X3447350Y1076560D01*
X2832466Y1036413D02*
X2872613Y1076560D01*
X2777112Y1052901D02*
X2800771Y1076560D01*
X2763667Y1546860D02*
X3137447Y1173080D01*
X2691825Y1546860D02*
X3065605Y1173080D01*
X2874757Y1076560D02*
X2996277Y955040D01*
X2833096Y974537D02*
X2852592Y955040D01*
X2966619D02*
X3088139Y1076560D01*
X2894777Y955040D02*
X3016297Y1076560D01*
X2822935Y955040D02*
X2944455Y1076560D01*
X2637600Y2972100D02*
Y3242900D01*
X2459800Y2972100D02*
X2637600D01*
Y3109764D02*
X3419640Y2327725D01*
X2637600Y3181607D02*
X3419596Y2399611D01*
X2331321Y1612900D02*
X3419596Y2701175D01*
X2459800Y3242900D02*
X2512060D01*
X2182761Y1536182D02*
X3419596Y2773017D01*
X2475005Y1612900D02*
X3419596Y2557490D01*
X2403163Y1612900D02*
X3419596Y2629333D01*
X2618690Y1612900D02*
X3419596Y2413806D01*
X2546848Y1612900D02*
X3419596Y2485648D01*
X1891352Y2562860D02*
X2831225Y1622986D01*
X2273300Y1612900D02*
X2819264D01*
X2286977Y1546860D02*
X2819264D01*
X2129600Y2972100D02*
Y3242900D01*
X2094970D02*
X2129600D01*
X1996509Y2571246D02*
X2459800Y3034537D01*
Y2972100D02*
Y3242900D01*
X1920639Y2639060D02*
X2459800Y3178221D01*
X1951800Y2972100D02*
X2129600D01*
X1990721Y2637301D02*
X2459800Y3106379D01*
X2229593Y1489476D02*
X2286977Y1546860D01*
X2182896Y1536173D02*
X2249951Y1603229D01*
X2538080Y1173080D02*
X3547943Y2182943D01*
X2332615Y1546860D02*
X2706395Y1173080D01*
X2681765D02*
X3679115Y2170430D01*
X2609922Y1173080D02*
X3607272Y2170430D01*
X2005472Y2592424D02*
X3424816Y1173080D01*
X1972608Y2553445D02*
X3352974Y1173080D01*
X2322554D02*
X2696334Y1546860D01*
X2476299D02*
X2850079Y1173080D01*
X2466238D02*
X2830426Y1537268D01*
X2619983Y1546860D02*
X2993763Y1173080D01*
X2548141Y1546860D02*
X2921921Y1173080D01*
X2394396D02*
X2768176Y1546860D01*
X2273875Y1533758D02*
X2634553Y1173080D01*
X2404457Y1546860D02*
X2778237Y1173080D01*
X2178870D02*
X2552650Y1546860D01*
X2214317Y1449632D02*
X2490868Y1173080D01*
X2250712D02*
X2624492Y1546860D01*
X2237954Y1497836D02*
X2562710Y1173080D01*
X2109598Y1175650D02*
X2480808Y1546860D01*
X1976199Y1185935D02*
X2337123Y1546860D01*
X2010235Y1148130D02*
X2408965Y1546860D01*
X2011153Y1134344D02*
X2032216Y1113281D01*
X2009362Y1151691D02*
X2025857Y1135197D01*
X1901658Y1183237D02*
X2158447Y1440026D01*
X1883176Y1087647D02*
X1888784Y1082039D01*
X4392840Y872576D02*
X5020841Y1500577D01*
X4392840Y944418D02*
X5020841Y1572419D01*
X4415600Y751652D02*
X5020841Y1356893D01*
X4392840Y800734D02*
X5020841Y1428735D01*
X4348685Y1542364D02*
X5020841Y870208D01*
X4381317Y1581574D02*
X5020841Y942050D01*
X4297847Y1521360D02*
X5020841Y798366D01*
X4923600Y756757D02*
X5020841Y853998D01*
X4869618Y774617D02*
X5020841Y925840D01*
X4923600Y684915D02*
X5020841Y782156D01*
X4917403Y758119D02*
X4923600Y751922D01*
X4390962Y1356403D02*
X5020841Y726524D01*
X4827755Y804597D02*
X5020841Y997682D01*
X4415600Y679810D02*
X5020841Y1285051D01*
X4368274Y1307249D02*
X4917403Y758119D01*
X4392840Y758280D02*
Y979080D01*
Y779788D02*
X4414508Y758119D01*
X4327698Y1275983D02*
X4803167Y800514D01*
X4264009Y1267829D02*
X4773237Y758601D01*
X4196067Y1263929D02*
X4745800Y714196D01*
Y758119D02*
X4773199D01*
X4237800D02*
X4415600D01*
X4873721D02*
X4923600D01*
X4237800Y678600D02*
Y690880D01*
X4208397Y758280D02*
X4392840D01*
X4209757Y756920D02*
X4237800D01*
X4196080Y690880D02*
X4237800D01*
X4923600Y613073D02*
X5020841Y710314D01*
X4923600Y751922D02*
X5020841Y654682D01*
Y300635D02*
X5020841Y2111476D01*
X4415600Y757027D02*
X4990702Y181926D01*
X4415600Y607968D02*
X5020841Y1213209D01*
X4415600Y536126D02*
X5020841Y1141366D01*
X4403437Y452120D02*
X5020841Y1069524D01*
X4923600Y541231D02*
X5020841Y638471D01*
X4923600Y680080D02*
X5020841Y582840D01*
X4923600Y536396D02*
X5020841Y439155D01*
X4923600Y608238D02*
X5020841Y510997D01*
X4669600Y143547D02*
X5020841Y494787D01*
X4669600Y215389D02*
X5020841Y566629D01*
X4415600Y685185D02*
X4961604Y139181D01*
X4745800Y487320D02*
Y758119D01*
X4415600Y487320D02*
Y758119D01*
X4923600Y487320D02*
Y758119D01*
X4475009Y451851D02*
X4745800Y722641D01*
X4392840Y923472D02*
X4745800Y570512D01*
X4237800Y678600D02*
Y690880D01*
X4392840Y851630D02*
X4745800Y498670D01*
X4757150Y487320D01*
X4515799Y420798D02*
X4745800Y650799D01*
X4636785Y398100D02*
X4745800Y507115D01*
X4564943Y398100D02*
X4745800Y578957D01*
X4415600Y613348D02*
X4630849Y398100D01*
X4237800Y487320D02*
Y678600D01*
X4415600Y541506D02*
X4559007Y398100D01*
X4063865Y902812D02*
X5020841Y1859788D01*
X4027944Y938733D02*
X5020841Y1931630D01*
X4172040Y794637D02*
Y979080D01*
X4021309Y945369D02*
X4172040Y794637D01*
X3900567Y955040D02*
X4226834Y1281307D01*
X4016383Y1084402D02*
X4172040Y928746D01*
X3952389Y1076560D02*
X4172040Y856909D01*
X4135708Y830970D02*
X4172040Y867302D01*
X4099786Y866891D02*
X4172040Y939144D01*
X4038600Y733862D02*
X4089010Y784272D01*
X4029915Y797019D02*
X4053089Y820193D01*
X3984283Y889000D02*
X4172731Y700551D01*
X3736862Y1076560D02*
X3858382Y955040D01*
X3613199D02*
X3734718Y1076560D01*
X3880546D02*
X4002361Y954745D01*
X3828725Y955040D02*
X3950245Y1076560D01*
X3541356Y955040D02*
X3662876Y1076560D01*
X3449494D02*
X3571014Y955040D01*
X3593178Y1076560D02*
X3714698Y955040D01*
X3994015Y832962D02*
X4017168Y856115D01*
X3958094Y868883D02*
X3978211Y889000D01*
X2822207Y955040D02*
X3997960D01*
X3937977Y889000D02*
X3984283D01*
X3937977D02*
X4028929Y798049D01*
X4160146Y1228008D02*
X4745800Y642354D01*
X4038600Y702980D02*
X4237800Y503780D01*
X4038600Y590178D02*
X4160852Y712430D01*
X4038600Y662020D02*
X4124931Y748351D01*
X4038600Y774822D02*
X4237800Y575622D01*
X4100322Y508216D02*
X4237800Y645694D01*
X4194338Y690926D02*
X4237800Y647464D01*
X4187910Y452120D02*
X4237800Y502010D01*
X4136243Y472294D02*
X4237800Y573852D01*
X4038600Y631138D02*
X4217618Y452120D01*
X4064401Y544137D02*
X4211144Y690880D01*
X4038600Y569937D02*
X4156417Y452120D01*
X4038600Y569937D02*
Y774700D01*
X3412783Y797560D02*
X3538772Y671571D01*
X3399600Y525915D02*
X3538772Y665087D01*
Y540468D02*
Y671571D01*
X3369283Y797560D02*
X3538772Y628071D01*
X3399600Y597758D02*
X3506093Y704250D01*
X3399600Y695401D02*
X3538772Y556229D01*
X3548443Y517119D02*
X3639331Y426231D01*
X3468783Y451414D02*
X3542533Y525164D01*
X3399600Y623559D02*
X3625059Y398100D01*
X3409124Y463597D02*
X3538772Y593245D01*
X3399600Y551716D02*
X3553217Y398100D01*
X4900834Y487320D02*
X5020841Y367313D01*
X4745800Y487320D02*
X4923600D01*
X4828992D02*
X5020841Y295471D01*
X4757150Y487320D02*
X5011473Y232997D01*
X4669600Y287231D02*
X4869689Y487320D01*
X4669600Y359073D02*
X4797847Y487320D01*
X4669600Y127300D02*
Y398100D01*
X5016594Y252108D02*
X5020841Y284366D01*
Y300635D01*
X5008172Y220679D02*
X5016594Y252108D01*
X4995721Y190620D02*
X5008172Y220679D01*
X4979453Y162443D02*
X4995721Y190620D01*
X4959647Y136631D02*
X4979453Y162443D01*
X4491800Y127300D02*
X4669600D01*
X4331595Y452120D02*
X4366794Y487320D01*
X4326102D02*
X4361302Y452120D01*
X4397944Y487320D02*
X4433144Y452120D01*
X4237800Y487320D02*
X4415600D01*
X4254260D02*
X4289460Y452120D01*
X4259752D02*
X4294952Y487320D01*
X4494149Y442449D02*
X4538498Y398100D01*
X4669600D01*
X4457123Y386080D02*
X4491800Y351402D01*
X4355500Y386080D02*
X4491800Y249780D01*
X4427342Y386080D02*
X4491800Y321622D01*
X4283658Y386080D02*
X4491800Y177938D01*
X4902337Y88915D02*
X4984355Y170933D01*
X4669600Y215664D02*
X4827019Y58245D01*
X4722167Y52429D02*
X5020841Y351103D01*
X4794783Y53203D02*
X5020067Y278487D01*
X4669600Y359348D02*
X4924579Y104369D01*
X4669600Y287506D02*
X4880464Y76643D01*
X4650325Y52429D02*
X5020841Y422945D01*
X4936640Y113623D02*
X4959647Y136631D01*
X4910827Y93816D02*
X4936640Y113623D01*
X4882649Y77548D02*
X4910827Y93816D01*
X4852590Y65097D02*
X4882649Y77548D01*
X4821163Y56676D02*
X4852590Y65097D01*
X4669600Y143822D02*
X4760993Y52429D01*
X4788903D02*
X4821163Y56676D01*
X4211816Y386080D02*
X4545467Y52429D01*
X4491800Y127300D02*
Y351402D01*
X4291114Y52429D02*
X4491800Y253115D01*
X4219272Y52429D02*
X4491800Y324957D01*
X4161600Y364453D02*
X4473625Y52429D01*
X4161600Y292611D02*
X4401783Y52429D01*
X4161600Y220769D02*
X4329941Y52429D01*
X4542438Y127300D02*
X4617309Y52429D01*
X4506640D02*
X4581512Y127300D01*
X4614280D02*
X4689151Y52429D01*
X4578483D02*
X4653354Y127300D01*
X4362956Y52429D02*
X4491800Y181273D01*
X4161600Y148927D02*
X4258098Y52429D01*
X4434798D02*
X4509670Y127300D01*
X4156417Y452120D02*
X4470800D01*
X3918643Y416560D02*
X3983800Y351402D01*
X3822125Y416560D02*
X3983800Y254885D01*
X3893967Y416560D02*
X3983800Y326727D01*
X3662680Y416560D02*
X3918643D01*
X3653600Y205178D02*
X3864982Y416560D01*
X3750283D02*
X3983800Y183043D01*
X4161600Y386080D02*
X4457123D01*
X4161600Y282126D02*
X4265555Y386080D01*
X4161600Y138441D02*
X4409239Y386080D01*
X4161600Y210284D02*
X4337397Y386080D01*
X4161600Y353968D02*
X4193712Y386080D01*
X3653600Y133336D02*
X3927733Y407469D01*
X4161600Y127300D02*
Y386080D01*
X3653600Y348863D02*
X3721298Y416560D01*
X3630995Y398100D02*
X3651431Y418535D01*
X3504704Y415493D02*
X3577387Y488176D01*
X3466272Y453925D02*
X3522098Y398100D01*
X3559153D02*
X3613308Y452255D01*
X3653600Y277021D02*
X3793140Y416560D01*
X3522098Y398100D02*
X3653600D01*
Y127300D02*
Y398100D01*
X3647564Y127300D02*
X3653600Y133336D01*
X3338234Y397557D02*
X3475800Y259990D01*
X3410076Y397557D02*
X3475800Y331832D01*
X3266391Y397557D02*
X3475800Y188148D01*
X3788219Y52429D02*
X3983800Y248010D01*
Y127300D02*
Y351402D01*
X4147430Y52429D02*
X4469102Y374101D01*
X3860061Y52429D02*
X3983800Y176168D01*
X3678441Y416560D02*
X4042572Y52429D01*
X3653600Y369559D02*
X3970730Y52429D01*
X3716377D02*
X3983800Y319852D01*
X4150459Y127300D02*
X4161600Y138441D01*
X4039543Y127300D02*
X4114414Y52429D01*
X4111385Y127300D02*
X4186256Y52429D01*
X4075588D02*
X4150459Y127300D01*
X3983800D02*
X4161600D01*
X3931903Y52429D02*
X4006775Y127300D01*
X4003746Y52429D02*
X4078617Y127300D01*
X3644535Y52429D02*
X3963654Y371548D01*
X3653600Y297716D02*
X3898888Y52429D01*
X3653600Y225874D02*
X3827046Y52429D01*
X3653600Y154032D02*
X3755204Y52429D01*
X3194549Y397557D02*
X3539677Y52429D01*
X3213482D02*
X3475800Y314747D01*
X3357167Y52429D02*
X3475800Y171063D01*
X3572693Y52429D02*
X3647564Y127300D01*
X3536648D02*
X3611519Y52429D01*
X3608490Y127300D02*
X3683361Y52429D01*
X3475800Y127300D02*
X3653600D01*
X3429009Y52429D02*
X3503880Y127300D01*
X3500851Y52429D02*
X3575722Y127300D01*
X3233967Y1076560D02*
X3355487Y955040D01*
X3234624Y791992D02*
X3240192Y797560D01*
X3272594Y758119D02*
X3312034Y797560D01*
X3229057D02*
X3268497Y758119D01*
X3162125Y1076560D02*
X3283645Y955040D01*
X3110304D02*
X3231824Y1076560D01*
X3182146Y955040D02*
X3303666Y1076560D01*
X3344436Y758119D02*
X3383876Y797560D01*
X3297441D02*
X3336882Y758119D01*
X3399600Y669600D02*
X3470172Y740171D01*
X3399600Y741442D02*
X3434250Y776092D01*
X3229057Y797560D02*
X3412783D01*
X3268497Y758119D02*
X3399600D01*
X3112395Y767080D02*
X3221800Y657674D01*
X3090283Y1076560D02*
X3211803Y955040D01*
X3038462D02*
X3159981Y1076560D01*
X3076914Y706124D02*
X3137870Y767080D01*
X3040993Y742045D02*
X3066028Y767080D01*
X3018441Y1076560D02*
X3139961Y955040D01*
X2946599Y1076560D02*
X3068119Y955040D01*
X3015957Y767080D02*
X3080477Y702560D01*
X3166142Y767080D02*
X3221800Y711422D01*
X3015957Y767080D02*
X3166142D01*
X2953043Y736600D02*
X3024109Y665534D01*
X2891600Y736600D02*
X2953043D01*
X2891600Y664494D02*
X2958374Y731268D01*
X3090149Y645642D02*
X3221800Y513990D01*
X3090336Y575861D02*
X3221800Y707326D01*
X3399600Y487320D02*
Y758119D01*
X3221800Y487320D02*
Y711422D01*
X3040552Y767080D02*
X3221800Y585832D01*
X3090149Y647517D02*
X3187927Y745295D01*
X3090149Y576049D02*
Y679211D01*
X3162178Y504019D02*
X3221800Y563642D01*
X3126257Y539940D02*
X3221800Y635484D01*
X3337282Y463597D02*
X3361005Y487320D01*
X3198099Y468098D02*
X3221800Y491800D01*
X3090149Y576049D02*
X3202601Y463597D01*
X3033780Y539023D02*
X3165575Y407228D01*
X2891600Y628664D02*
X3122164Y398100D01*
X3024109Y562371D02*
Y665534D01*
X2927348Y736600D02*
X3024109Y639839D01*
X2899832Y457200D02*
X3024109Y581477D01*
X2891600Y520810D02*
X3024109Y653319D01*
X2891600Y700506D02*
X3024109Y567997D01*
X2891600Y592652D02*
X2994295Y695347D01*
X2891600Y487320D02*
Y736600D01*
X2995447Y409130D02*
X3079560Y493243D01*
X2959526Y445052D02*
X3043638Y529164D01*
X2889260Y487320D02*
X2919380Y457200D01*
X2827990D02*
X2858110Y487320D01*
X2891600Y556822D02*
X3050322Y398100D01*
X2802915Y1076560D02*
X2924435Y955040D01*
X2816671Y960576D02*
X2822207Y955040D01*
X2672183Y753039D02*
X2713800Y711422D01*
X2565049Y697154D02*
X2620935Y753039D01*
X2509298D02*
X2672183D01*
X2529195Y733142D02*
X2549092Y753039D01*
X2509298D02*
X2563349Y698989D01*
X2623540Y753039D02*
X2713800Y662779D01*
X2573020Y633283D02*
X2682480Y742742D01*
X2573458Y561879D02*
X2713800Y702221D01*
X2573020Y562318D02*
Y675640D01*
X2551698Y753039D02*
X2713800Y590937D01*
X2446383Y722559D02*
X2506980Y661963D01*
X2383600Y659389D02*
X2446577Y722366D01*
X2383600Y705611D02*
X2506980Y582231D01*
X2438494Y722559D02*
X2506980Y654073D01*
X2383600Y722559D02*
X2446383D01*
X1963420Y670262D02*
X1984038Y690880D01*
X1963420Y541998D02*
Y690880D01*
X2110963D02*
X2205800Y596042D01*
X2182805Y690880D02*
X2205800Y667885D01*
X2506980Y548640D02*
Y661963D01*
X2383600Y587547D02*
X2482498Y686445D01*
X1963420Y690880D02*
X2205800D01*
X1963420Y598420D02*
X2055880Y690880D01*
X1971130Y534287D02*
X2127722Y690880D01*
X2573020Y659875D02*
X2713800Y519095D01*
X2609380Y525958D02*
X2713800Y630379D01*
Y487320D02*
Y711422D01*
X2573020Y588033D02*
X2703853Y457200D01*
X2402017Y462280D02*
X2506980Y567243D01*
X2383600Y515705D02*
X2506980Y639085D01*
X2383600Y633769D02*
X2619269Y398100D01*
X2645301Y490037D02*
X2713800Y558537D01*
X2573020Y562318D02*
X2678138Y457200D01*
X2516651Y525292D02*
X2641112Y400831D01*
X2458088Y446509D02*
X2526761Y515182D01*
X2383600Y561927D02*
X2547427Y398100D01*
X2205800Y487320D02*
Y690880D01*
X2039121D02*
X2205800Y524200D01*
X2383600Y487320D02*
Y722559D01*
X2042972Y462445D02*
X2205800Y625274D01*
X2007051Y498367D02*
X2199565Y690880D01*
X1963420Y622896D02*
X2124036Y462280D01*
X1967279Y690880D02*
X2195879Y462280D01*
X2205800Y487320D02*
X2383600D01*
X2314523D02*
X2339563Y462280D01*
X2383600Y490085D02*
X2411405Y462280D01*
X2330175D02*
X2355215Y487320D01*
X1963420Y551054D02*
X2052194Y462280D01*
X1963420Y541998D02*
X2043138Y462280D01*
X2114649D02*
X2205800Y553431D01*
X3320313Y487320D02*
X3344036Y463597D01*
X3265439D02*
X3289163Y487320D01*
X3392155D02*
X3415878Y463597D01*
X3202601D02*
X3442923D01*
X3221800Y487320D02*
X3399600D01*
X3248471D02*
X3272194Y463597D01*
X3429246Y397557D02*
X3475800Y351002D01*
X3188923Y397557D02*
X3429246D01*
X3128100Y398100D02*
X3151402Y421401D01*
X3145600Y343758D02*
X3199399Y397557D01*
X2756148Y457200D02*
X2786268Y487320D01*
X2745576D02*
X2775695Y457200D01*
X3056258Y398100D02*
X3115480Y457322D01*
X2817418Y487320D02*
X2847538Y457200D01*
X2678138D02*
X2933700D01*
X2713800Y487320D02*
X2891600D01*
X2684306Y457200D02*
X2714426Y487320D01*
X3006478Y398100D02*
X3145600D01*
X2957049Y447529D02*
X3006478Y398100D01*
X2664460Y391160D02*
X2920023D01*
X3145600Y128231D02*
X3414926Y397557D01*
X3145600Y200073D02*
X3343084Y397557D01*
X3475800Y127300D02*
Y351002D01*
X3145600Y374664D02*
X3467835Y52429D01*
X3145600Y271915D02*
X3271242Y397557D01*
X3145600Y127300D02*
Y398100D01*
X3141640Y52429D02*
X3458007Y368796D01*
X3145600Y302822D02*
X3395993Y52429D01*
X3145600Y230979D02*
X3324151Y52429D01*
X3285324D02*
X3475800Y242905D01*
X3145600Y159137D02*
X3252309Y52429D01*
X2967800Y127300D02*
X3145600D01*
X3069798Y52429D02*
X3144669Y127300D01*
X3105595D02*
X3180467Y52429D01*
X2913578Y391160D02*
X2967800Y336937D01*
X2920023Y391160D02*
X2967800Y343383D01*
X2769893Y391160D02*
X2967800Y193253D01*
X2841735Y391160D02*
X2967800Y265095D01*
X2638745Y52429D02*
X2948750Y362433D01*
X2637600Y266810D02*
X2761950Y391160D01*
X2698051D02*
X3036782Y52429D01*
X2926114D02*
X3000985Y127300D01*
X2967800D02*
Y343383D01*
X3033753Y127300D02*
X3108624Y52429D01*
X2997956D02*
X3072827Y127300D01*
X2782430Y52429D02*
X2967800Y237800D01*
X2710587Y52429D02*
X2967800Y309642D01*
X2854272Y52429D02*
X2967800Y165958D01*
X2506498Y398100D02*
X2637600D01*
X2494009Y410588D02*
X2562682Y479261D01*
X2625206Y398100D02*
X2634524Y407419D01*
X2553363Y398100D02*
X2598603Y443339D01*
X2451989Y452609D02*
X2506498Y398100D01*
X2637600Y338652D02*
X2690108Y391160D01*
X2414963Y396240D02*
X2459800Y351402D01*
X2637600Y194968D02*
X2833792Y391160D01*
X2459800Y127300D02*
X2637600D01*
X2333761Y396240D02*
X2459800Y270200D01*
X2405603Y396240D02*
X2459800Y342042D01*
X2261919Y396240D02*
X2459800Y198358D01*
X2242681Y487320D02*
X2267721Y462280D01*
X2186491D02*
X2211531Y487320D01*
X2258333Y462280D02*
X2283373Y487320D01*
X2129600Y333547D02*
X2192293Y396240D01*
X2043138Y462280D02*
X2428640D01*
X1898943Y406400D02*
X1951800Y353542D01*
X1892548Y406400D02*
X1951800Y347148D01*
X2129600Y396240D02*
X2414963D01*
X2129600Y261705D02*
X2264135Y396240D01*
X2129600Y189863D02*
X2335977Y396240D01*
X1951800Y127300D02*
X2129600D01*
X1951800Y318580D02*
Y353542D01*
Y318580D02*
Y353542D01*
Y127300D02*
Y318580D01*
X2566903Y52429D02*
X2905634Y391160D01*
X2637600Y127300D02*
Y398100D01*
Y379769D02*
X2964940Y52429D01*
X2637600Y307927D02*
X2893098Y52429D01*
X2190076Y396240D02*
X2533887Y52429D01*
X2129600Y384874D02*
X2462045Y52429D01*
X2207693D02*
X2459800Y304537D01*
X2602700Y127300D02*
X2677572Y52429D01*
X2530858Y127300D02*
X2605730Y52429D01*
X2637600Y236085D02*
X2821256Y52429D01*
X2637600Y164242D02*
X2749414Y52429D01*
X2423219D02*
X2498090Y127300D01*
X2279535Y52429D02*
X2459800Y232694D01*
X2495061Y52429D02*
X2569932Y127300D01*
X2459800D02*
Y351402D01*
X2129600Y241190D02*
X2318361Y52429D01*
X2135850D02*
X2447312Y363891D01*
X2129600Y169348D02*
X2246519Y52429D01*
X2064008D02*
X2407819Y396240D01*
X2129600Y127300D02*
Y396240D01*
Y313032D02*
X2390203Y52429D01*
X2099806Y127300D02*
X2174677Y52429D01*
X2027963Y127300D02*
X2102835Y52429D01*
X2351377D02*
X2459800Y160852D01*
X1956121Y127300D02*
X2030993Y52429D01*
X1920324D02*
X1995195Y127300D01*
X1992166Y52429D02*
X2067038Y127300D01*
X1839377Y3635430D02*
X1857588Y3653641D01*
X1875600Y3456127D02*
X2073114Y3653641D01*
X1875600Y3527969D02*
X2001272Y3653641D01*
X1662671D02*
X1713393Y3602919D01*
X1382583Y3322320D02*
X1713904Y3653641D01*
X1837616Y3602919D02*
X1875600D01*
Y3332120D02*
Y3602919D01*
X1840940Y3619057D02*
X1857077Y3602919D01*
X1831123Y3653641D02*
X4772635Y3653641D01*
X1697800Y3602919D02*
X1733624D01*
X1697800Y3332120D02*
X1875600D01*
X1590829Y3653641D02*
X1697800Y3546670D01*
X1367600Y3522864D02*
X1498377Y3653641D01*
X1367600Y3379180D02*
X1642061Y3653641D01*
X1367600Y3451022D02*
X1570219Y3653641D01*
X1303971Y3602919D02*
X1354693Y3653641D01*
X1303466D02*
X1354187Y3602919D01*
X1367600Y3594706D02*
X1426535Y3653641D01*
X1447145D02*
X1697800Y3402985D01*
X1518987Y3653641D02*
X1697800Y3474827D01*
Y3332120D02*
Y3602919D01*
X1367600Y3332120D02*
Y3602919D01*
X1354187D02*
X1367600Y3589506D01*
X1238898Y3322320D02*
X1248698Y3332120D01*
X1337618D02*
X1347418Y3322320D01*
X1621600Y3058443D02*
X2216798Y3653641D01*
X1875600Y3440712D02*
X2023889Y3292423D01*
X1875600Y3584396D02*
X2459800Y3000196D01*
X1621600Y2986601D02*
X2205800Y3570801D01*
X1367600Y3589506D02*
X1951800Y3005306D01*
X1375308Y3653641D02*
X1951800Y3077148D01*
X1345902Y2639060D02*
X2205800Y3498958D01*
X1875600Y3368870D02*
X1994423Y3250046D01*
X1840508Y3332120D02*
X1951800Y3220827D01*
X1848797Y2639060D02*
X2512060Y3302323D01*
X1768666Y3332120D02*
X1951800Y3148985D01*
X1621600Y3202127D02*
X1751593Y3332120D01*
X1590531Y3242900D02*
X1697800Y3350169D01*
X1621600Y3130285D02*
X1823435Y3332120D01*
X1468672Y3264725D02*
X1697800Y3493853D01*
X1432751Y3300646D02*
X1697800Y3565695D01*
X1518689Y3242900D02*
X1697800Y3422011D01*
X1367600Y3373980D02*
X1498680Y3242900D01*
X1310741Y3322320D02*
X1320540Y3332120D01*
X1265776D02*
X1275576Y3322320D01*
X1367600Y3445822D02*
X1570522Y3242900D01*
X1621600Y2972100D02*
Y3242900D01*
X1420748Y3312649D02*
X1490497Y3242900D01*
X1341616Y3256280D02*
X1443800Y3154096D01*
X1383722Y3256280D02*
X1443800Y3196202D01*
X1269774Y3256280D02*
X1443800Y3082253D01*
X1231623Y3653641D02*
X1282345Y3602919D01*
X1159781Y3653641D02*
X1210503Y3602919D01*
X1232129D02*
X1282851Y3653641D01*
X1087939D02*
X1189800Y3551780D01*
X300636Y3653641D02*
X1740117D01*
X1016097D02*
X1189800Y3479938D01*
X944255Y3653641D02*
X1189800Y3408096D01*
Y3602919D02*
X1367600D01*
X1189800Y3380258D02*
Y3602919D01*
X1169963Y3360420D02*
X1189800Y3380258D01*
X1133314Y3360420D02*
X1189800Y3416906D01*
X989630Y3360420D02*
X1189800Y3560590D01*
X965200Y3360420D02*
X1169963D01*
X1061472D02*
X1189800Y3488748D01*
X859600Y3589601D02*
X923640Y3653641D01*
X801077Y3602919D02*
X851798Y3653641D01*
X859600Y3445917D02*
X1067325Y3653641D01*
X859600Y3517759D02*
X995482Y3653641D01*
X729235Y3602919D02*
X779956Y3653641D01*
X728729D02*
X779450Y3602919D01*
X800571Y3653641D02*
X851292Y3602919D01*
X859600Y3594611D02*
X1093792Y3360420D01*
X859600Y3522769D02*
X1021949Y3360420D01*
X872413Y3653641D02*
X1165634Y3360420D01*
X859600Y3450927D02*
X952604Y3357923D01*
X851292Y3602919D02*
X859600Y3594611D01*
X681800Y3602919D02*
X859600D01*
Y3374075D02*
X1139167Y3653641D01*
X1235057Y3332120D02*
X1367600D01*
X1225257Y3322320D02*
X1235057Y3332120D01*
X1225257Y3322320D02*
X1397400D01*
X1113600Y3125180D02*
X1244701Y3256280D01*
X759511Y3202143D02*
X1211009Y3653641D01*
X1087636Y3242900D02*
X1101016Y3256280D01*
X1113600Y3197022D02*
X1172858Y3256280D01*
X1197932D02*
X1443800Y3010411D01*
X1113600Y2981495D02*
X1386054Y3253949D01*
X1126089Y3256280D02*
X1743309Y2639060D01*
X1113600Y2972100D02*
Y3242900D01*
X1014349Y3256280D02*
X1383722D01*
X1000969Y3242900D02*
X1113600D01*
Y3053338D02*
X1316543Y3256280D01*
X859600Y3379085D02*
X914894Y3323791D01*
X859600Y3332120D02*
Y3602919D01*
X759511Y3168409D02*
X941851Y3350749D01*
X759511Y3273986D02*
X817646Y3332120D01*
X759511Y3168409D02*
Y3332120D01*
X1000969Y3242900D02*
X1014349Y3256280D01*
X834723Y3332120D02*
X878973Y3287870D01*
X1054247Y3256280D02*
X1067628Y3242900D01*
X1015794D02*
X1029174Y3256280D01*
X759511Y3332120D02*
X859600D01*
X762881D02*
X843052Y3251949D01*
X759511Y3263648D02*
X807131Y3216028D01*
X1607100Y2972100D02*
X1621600Y2986601D01*
X1490497Y3242900D02*
X1621600D01*
X1561428Y2639060D02*
X1951800Y3029432D01*
X1621600Y2976296D02*
X1947264Y2650632D01*
X1417744Y2639060D02*
X1951800Y3173116D01*
X1113600Y3196927D02*
X1671467Y2639060D01*
X1489586D02*
X1951800Y3101274D01*
X1633270Y2639060D02*
X1966311Y2972100D01*
X1553953D02*
X1886994Y2639060D01*
X1776955D02*
X2109995Y2972100D01*
X1705112Y2639060D02*
X2038153Y2972100D01*
X1443800D02*
X1621600D01*
X1274060Y2639060D02*
X1607100Y2972100D01*
X1482111D02*
X1815152Y2639060D01*
X1113600Y3125085D02*
X1599625Y2639060D01*
X1443800Y2972100D02*
Y3196202D01*
X1113600Y3053243D02*
X1527783Y2639060D01*
X1113600Y2981401D02*
X1455941Y2639060D01*
X986691D02*
X1443800Y3096169D01*
X1104205Y2972100D02*
X1113600Y2981495D01*
X1058533Y2639060D02*
X1443800Y3024327D01*
X1130375Y2639060D02*
X1463416Y2972100D01*
X1051059D02*
X1384099Y2639060D01*
X1202218D02*
X1535258Y2972100D01*
X1035125Y2543810D02*
X1054175Y2562860D01*
X979216Y2972100D02*
X1312257Y2639060D01*
X963283Y2543810D02*
X982333Y2562860D01*
X1029246D02*
X1048296Y2543810D01*
X1664832Y2167727D02*
X2469205Y2972100D01*
X1516349Y2162928D02*
X1916281Y2562860D01*
X1693711Y2124763D02*
X2541047Y2972100D01*
X1575374Y2150111D02*
X1985514Y2560251D01*
X1338368Y2469265D02*
X1635701Y2171931D01*
X1010096Y2015886D02*
X1557070Y2562860D01*
X1010096Y1944044D02*
X1628912Y2562860D01*
X1529554Y2150111D02*
X1601467D01*
X1522781Y2084071D02*
X1610329D01*
X1285191Y2450599D02*
X1585680Y2150111D01*
X1209038Y2454910D02*
X1492775Y2171173D01*
X1244772Y2562860D02*
X1263822Y2543810D01*
X1178810D02*
X1197860Y2562860D01*
X1322214Y2543530D02*
X1341544Y2562860D01*
X1250652Y2543810D02*
X1269702Y2562860D01*
X1106968Y2543810D02*
X1126018Y2562860D01*
X1101088D02*
X1120138Y2543810D01*
X1172930Y2562860D02*
X1191980Y2543810D01*
X1348316Y2497790D02*
X1413386Y2562860D01*
X1137196Y2454910D02*
X1445220Y2146886D01*
X1020681Y2098313D02*
X1485228Y2562860D01*
X973863Y2123337D02*
X1299510Y2448984D01*
X935800Y2972100D02*
X1113600D01*
X923818Y2791713D02*
X1104205Y2972100D01*
X914849Y2639060D02*
X1443800Y3168011D01*
X908675Y2970800D02*
X1240415Y2639060D01*
X908675Y2848412D02*
X1032363Y2972100D01*
X908675Y2920254D02*
X960521Y2972100D01*
X843007Y2639060D02*
X1421975Y3218028D01*
X908675Y2898958D02*
X1168572Y2639060D01*
X864359Y2727747D02*
X953046Y2639060D01*
X908675Y2827116D02*
X1096730Y2639060D01*
X916546Y2747402D02*
X1024888Y2639060D01*
X346760Y2562860D02*
X1922807D01*
X346760Y2639060D02*
X1922807D01*
X508000Y2543810D02*
X1274184D01*
X908675Y2992096D02*
X935800Y3019222D01*
X908675Y3042642D02*
X935800Y3015516D01*
Y2972100D02*
Y3070963D01*
X908675Y3043837D02*
X935800Y3070963D01*
X759511Y3191805D02*
X771210Y3180107D01*
X908675Y2814942D02*
Y3043837D01*
X792501Y2727763D02*
X881204Y2639060D01*
X771165D02*
X860807Y2728702D01*
X699323Y2639060D02*
X786254Y2725991D01*
X588528Y2788052D02*
X737520Y2639060D01*
X707546Y2740876D02*
X809362Y2639060D01*
X891441Y2543810D02*
X910491Y2562860D01*
X885562D02*
X904612Y2543810D01*
X730354Y2167197D02*
X1018068Y2454910D01*
X957404Y2562860D02*
X976454Y2543810D01*
X634301Y2454910D02*
X966825Y2122386D01*
X677682Y2186367D02*
X946225Y2454910D01*
X562459D02*
X929049Y2088320D01*
X813160Y2106319D02*
X1161752Y2454910D01*
X805734Y2027051D02*
X1233594Y2454910D01*
X526412D02*
X1274184D01*
X760023Y2125023D02*
X1089910Y2454910D01*
X508515Y2437013D02*
X884685Y2060842D01*
X747757Y2543810D02*
X766807Y2562860D01*
X741878D02*
X760928Y2543810D01*
X819599D02*
X838649Y2562860D01*
X813720D02*
X832770Y2543810D01*
X647015Y2227541D02*
X874383Y2454910D01*
X554114Y2206483D02*
X802541Y2454910D01*
X818502Y2055183D02*
X878152Y1995533D01*
X805734Y1955208D02*
X869384Y2018858D01*
X744165Y2129520D02*
X751651Y2122034D01*
X656886Y3653641D02*
X707608Y3602919D01*
X585044Y3653641D02*
X681800Y3556885D01*
Y3332120D02*
Y3602919D01*
X513202Y3653641D02*
X681800Y3485043D01*
X369518Y3653641D02*
X681800Y3341359D01*
X441360Y3653641D02*
X681800Y3413201D01*
X392445Y3337972D02*
X708114Y3653641D01*
X681800Y3332120D02*
X693471D01*
X681800Y3341359D02*
X691039Y3332120D01*
X613239Y3271398D02*
X681800Y3339959D01*
X577045Y3307046D02*
X681800Y3411801D01*
X511587Y3313430D02*
X681800Y3483643D01*
X439745Y3313430D02*
X681800Y3555485D01*
X351600Y3599716D02*
X693471Y3257845D01*
X356524Y3373893D02*
X636272Y3653641D01*
X351600Y3378817D02*
Y3602919D01*
Y3527874D02*
X567626Y3311849D01*
X351600Y3456032D02*
X494202Y3313430D01*
X351600Y3512654D02*
X492588Y3653641D01*
X351600Y3584496D02*
X420745Y3653641D01*
X351600Y3440812D02*
X564430Y3653641D01*
X416987Y3313430D02*
X557530D01*
X403310Y3247390D02*
X543853D01*
X351600Y3384190D02*
X422360Y3313430D01*
X351600Y3378817D02*
X416987Y3313430D01*
X304903Y3332120D02*
X379961Y3257061D01*
X685081Y3199556D02*
X693471Y3207946D01*
X649160Y3235477D02*
X693471Y3279788D01*
Y3191166D02*
Y3332120D01*
X580879Y3303759D02*
X693471Y3191166D01*
X553211Y2972100D02*
X592589Y2932723D01*
X427800Y2972100D02*
X553211D01*
X476322D02*
X583868Y2864554D01*
X592589Y2874384D02*
Y2932723D01*
X548164Y2972100D02*
X592589Y2927675D01*
X545025Y2843973D02*
X592589Y2891537D01*
X502049Y2872839D02*
X577261Y2948051D01*
X424056Y2808840D02*
X593835Y2639060D01*
X427800Y3242900D02*
X548343D01*
X416558Y3247390D02*
X427800Y3236148D01*
Y3229643D02*
X441057Y3242900D01*
X427800Y2972100D02*
Y3242900D01*
X360406Y2874880D02*
X457626Y2972100D01*
X432248Y2874880D02*
X529468Y2972100D01*
X513969Y2865209D02*
X534904Y2844273D01*
X359026Y2729816D02*
X438050Y2808840D01*
X330669Y2773301D02*
X366208Y2808840D01*
X352213D02*
X521993Y2639060D01*
X284366Y3653641D02*
X300636Y3653641D01*
X252108Y3649394D02*
X284366Y3653641D01*
X298182Y3602919D02*
X348903Y3653641D01*
X297676D02*
X348397Y3602919D01*
X226340D02*
X275953Y3652533D01*
X220679Y3640972D02*
X252108Y3649394D01*
X234736Y3644739D02*
X276555Y3602919D01*
X173800D02*
X351600D01*
X190621Y3628522D02*
X220679Y3640972D01*
X173800Y3332120D02*
X304903D01*
X183324Y3624309D02*
X204713Y3602919D01*
X162443Y3612253D02*
X190621Y3628522D01*
X58710Y3461554D02*
X173800Y3346464D01*
Y3332120D02*
Y3602919D01*
X136630Y3592446D02*
X162443Y3612253D01*
X113622Y3569438D02*
X136630Y3592446D01*
X105324Y3558624D02*
X173800Y3490148D01*
X140429Y3595361D02*
X173800Y3561990D01*
X91920Y3540342D02*
X165728Y3614149D01*
X93816Y3543627D02*
X113622Y3569438D01*
X53537Y3430116D02*
X173800Y3550380D01*
X77548Y3515449D02*
X93816Y3543627D01*
X65097Y3485390D02*
X77548Y3515449D01*
X77287Y3514819D02*
X173800Y3418306D01*
X56676Y3453961D02*
X65097Y3485390D01*
X52429Y3421703D02*
X56676Y3453961D01*
X52429Y3405435D02*
Y3421703D01*
Y3357167D02*
X173800Y3478538D01*
X188144Y3332120D02*
X427800Y3092464D01*
X259986Y3332120D02*
X427800Y3164306D01*
X52429Y3252309D02*
X429858Y2874880D01*
X52429Y2926114D02*
X381732Y3255416D01*
X52429Y3395993D02*
X427800Y3020622D01*
X52429Y2997956D02*
X345748Y3291275D01*
X52429Y3324151D02*
X504991Y2871589D01*
X256140Y2874880D02*
X490620D01*
X288564D02*
X427800Y3014117D01*
X269817Y2808840D02*
X476943D01*
X52429Y2710587D02*
X427800Y3085959D01*
X52429Y2854272D02*
X427800Y3229643D01*
X52429Y3180467D02*
X358016Y2874880D01*
X52429Y2782430D02*
X427800Y3157801D01*
X52429Y3069798D02*
X309827Y3327196D01*
X173800Y3346464D02*
X188144Y3332120D01*
X52429Y3108624D02*
X286173Y2874880D01*
X52429Y3036782D02*
X228397Y2860814D01*
X52429Y3213482D02*
X173800Y3334854D01*
X52429Y3285324D02*
X173800Y3406696D01*
X52429Y3141640D02*
X242909Y3332120D01*
X147320Y2661794D02*
X294366Y2808840D01*
X90951Y2723369D02*
X232791Y2865209D01*
X52429Y2964940D02*
X192476Y2824893D01*
X52429Y2893098D02*
X156555Y2788972D01*
X52429Y2821256D02*
X120634Y2753051D01*
X627481Y2639060D02*
X734538Y2746118D01*
X483796Y2639060D02*
X623501Y2778765D01*
X557437Y2747301D02*
X665678Y2639060D01*
X604073Y2543810D02*
X623123Y2562860D01*
X598193D02*
X617243Y2543810D01*
X675915D02*
X694965Y2562860D01*
X670035D02*
X689085Y2543810D01*
X555638Y2639060D02*
X650395Y2733817D01*
X526351Y2562860D02*
X545401Y2543810D01*
X532231D02*
X551281Y2562860D01*
X476943Y2808840D02*
X488207Y2797576D01*
X346760Y2639060D02*
Y2694967D01*
X411954Y2639060D02*
X520003Y2747109D01*
X359010Y2730201D02*
X450151Y2639060D01*
X280371Y2808840D02*
X310901Y2778310D01*
X346760Y2645708D02*
X488507Y2787455D01*
X454509Y2562860D02*
X481975Y2535394D01*
X382667Y2562860D02*
X445653Y2499875D01*
X346760Y2502024D02*
X407596Y2562860D01*
X346760Y2670609D02*
X378309Y2639060D01*
X346760Y2526925D02*
X409731Y2463953D01*
X472593Y2401091D02*
X645562Y2228123D01*
X421760Y2289656D02*
X587015Y2454910D01*
X417830Y2142041D02*
X730699Y2454910D01*
X436672Y2365171D02*
X588703Y2213140D01*
X417830Y2346328D02*
X526412Y2454910D01*
X346760Y2430182D02*
X479438Y2562860D01*
X417830Y2213883D02*
X658857Y2454910D01*
X674641Y2199044D02*
X690923Y2182761D01*
X494450Y2146819D02*
X506050Y2158419D01*
X423718Y2306283D02*
X530580Y2199420D01*
X417830Y2240329D02*
X506169Y2151990D01*
X417830Y2327536D02*
Y2346328D01*
Y2168486D02*
X463830Y2122486D01*
X346760Y2455083D02*
X373811Y2428032D01*
X346760Y2400982D02*
Y2562860D01*
Y2400982D02*
X476569Y2530791D01*
X440878Y1949563D02*
X475019Y1983704D01*
X417830Y2024802D02*
X475019Y1967613D01*
Y1945642D02*
Y2060209D01*
X417830Y1952960D02*
X426214Y1944576D01*
X417830Y2096644D02*
X475019Y2039455D01*
X417830Y2070199D02*
X459506Y2111875D01*
X417830Y1998357D02*
X475019Y2055546D01*
X239173Y2778196D02*
X264721Y2752648D01*
X270560Y2600960D02*
Y2694967D01*
X203252Y2742275D02*
X270560Y2674967D01*
X167331Y2706354D02*
X270560Y2603125D01*
X147320Y2686343D02*
X269817Y2808840D01*
X147320Y2589952D02*
X263319Y2705951D01*
X270560Y2589591D02*
Y2600960D01*
X234837Y2605627D02*
X270560Y2641350D01*
X224275Y2505725D02*
X240080Y2489921D01*
X147320Y2510839D02*
X240080Y2418078D01*
X147320Y2446268D02*
X211189Y2510137D01*
X147320Y2374426D02*
X240080Y2467186D01*
X147320Y2654523D02*
X205094Y2596749D01*
X52429Y2605730D02*
X81280Y2576879D01*
X52429Y2749414D02*
X85562Y2716281D01*
X52429Y2677572D02*
X81280Y2648721D01*
X52429Y2638745D02*
X81280Y2667596D01*
X147320Y2582681D02*
X184165Y2545835D01*
X147320Y2518110D02*
X183293Y2554083D01*
X52429Y2423219D02*
X81280Y2452070D01*
X52429Y2462045D02*
X81280Y2433194D01*
X52429Y2533887D02*
X81280Y2505036D01*
X52429Y2566903D02*
X81280Y2595754D01*
X52429Y2495061D02*
X81280Y2523912D01*
X147320Y2295312D02*
X240080Y2202552D01*
X147320Y2230742D02*
X240080Y2323502D01*
Y2080340D02*
Y2502143D01*
X147320Y2158899D02*
X240080Y2251659D01*
X147320Y2302584D02*
X240080Y2395344D01*
X147320Y2438996D02*
X240080Y2346236D01*
X147320Y2367154D02*
X240080Y2274394D01*
X147320Y2015215D02*
X240080Y2107975D01*
X147320Y1943373D02*
X227781Y2023834D01*
X147320Y2087057D02*
X240080Y2179817D01*
X147320Y2223470D02*
X240080Y2130710D01*
X147320Y2151628D02*
X230797Y2068151D01*
X52429Y2246519D02*
X81280Y2217668D01*
X52429Y2279535D02*
X81280Y2308386D01*
X52429Y2174677D02*
X81280Y2145826D01*
X52429Y2207693D02*
X81280Y2236544D01*
X52429Y2351377D02*
X81280Y2380228D01*
X52429Y2390203D02*
X81280Y2361352D01*
X52429Y2318361D02*
X81280Y2289510D01*
X147320Y2079786D02*
X227781Y1999325D01*
X52429Y2030993D02*
X81280Y2002142D01*
X52429Y1992166D02*
X81280Y2021017D01*
X52429Y2102835D02*
X81280Y2073984D01*
X52429Y2135850D02*
X81280Y2164702D01*
X52429Y2064008D02*
X81280Y2092859D01*
X1875600Y3512554D02*
X4091896Y1296258D01*
X1367600Y3517664D02*
X3712184Y1173080D01*
X1621600Y3191822D02*
X3640342Y1173080D01*
X1621600Y3048138D02*
X3496658Y1173080D01*
X1236980Y1452506D02*
X2910342Y3125869D01*
X1236851Y1524220D02*
X2910342Y3197711D01*
X1236980Y1380664D02*
X2910342Y3054027D01*
X1819509Y2562860D02*
X2769469Y1612900D01*
X1747667Y2562860D02*
X2697627Y1612900D01*
X1327911Y1184227D02*
X3092127Y2948442D01*
X1291990Y1220148D02*
X3020285Y2948442D01*
X1256069Y1256069D02*
X2956028Y2956028D01*
X1236980Y1308822D02*
X2920106Y2991949D01*
X1256069Y1256069D02*
X2956028Y2956028D01*
X1532141Y2562860D02*
X2482101Y1612900D01*
X1460299Y2562860D02*
X2410259Y1612900D01*
X1675825Y2562860D02*
X2625785Y1612900D01*
X1603983Y2562860D02*
X2553943Y1612900D01*
X1388457Y2562860D02*
X2338417Y1612900D01*
X1316615Y2562860D02*
X2267152Y1612323D01*
X1206378Y1565589D02*
X2612890Y2972100D01*
X1693191Y2114441D02*
X2227178Y1580455D01*
X1660920Y2074871D02*
X2191256Y1544534D01*
X1514366Y2077740D02*
X2419026Y1173080D01*
X1579878Y2084071D02*
X2143052Y1520897D01*
X1236980Y1275158D02*
Y1521310D01*
X1621600Y3119980D02*
X3568500Y1173080D01*
X1574053Y1143000D02*
X3379495Y2948442D01*
X1717737Y1143000D02*
X3419596Y2844859D01*
X1645895Y1143000D02*
X3416946Y2914051D01*
X1430368Y1143000D02*
X3235811Y2948442D01*
X1363832Y1148306D02*
X3163969Y2948442D01*
X1502211Y1143000D02*
X3307653Y2948442D01*
X1826044Y1107623D02*
X1834283Y1115862D01*
X1851629Y1082039D02*
X1888784D01*
X1872302D02*
X1877815Y1087552D01*
X1787770Y1141191D02*
X2129038Y1482459D01*
X1800339Y1133329D02*
X1851629Y1082039D01*
X1236980Y1277494D02*
X1371474Y1143000D01*
X1236980Y1275158D02*
X1369138Y1143000D01*
X1776990D01*
X1236980Y1493021D02*
X1587001Y1143000D01*
X1236980Y1421179D02*
X1515159Y1143000D01*
X1236980Y1349336D02*
X1443316Y1143000D01*
X1411263Y741680D02*
X1475740Y677203D01*
X1367600Y741680D02*
X1411263D01*
X1367600Y715821D02*
X1475740Y607682D01*
X1367600Y649179D02*
X1435682Y717261D01*
X1367600Y721021D02*
X1388259Y741680D01*
X1189800Y678600D02*
Y711683D01*
X1367600Y487320D02*
Y741680D01*
X1010096Y1800360D02*
X1772597Y2562860D01*
X1010096Y1872202D02*
X1700755Y2562860D01*
X921670Y2454910D02*
X2203500Y1173080D01*
X1026773Y1745194D02*
X1844439Y2562860D01*
X777985Y2454910D02*
X2051202Y1181693D01*
X706143Y2454910D02*
X1974651Y1186402D01*
X849828Y2454910D02*
X2131658Y1173080D01*
X1065354Y2454910D02*
X2347184Y1173080D01*
X1170457Y1601510D02*
X1640737Y2071789D01*
X1026423Y2062789D02*
X1920771Y1168440D01*
X1010096Y1791746D02*
X1658843Y1143000D01*
X993512Y2454910D02*
X2275342Y1173080D01*
X1010096Y2007273D02*
X1843887Y1173483D01*
X1010096Y1863589D02*
X1730685Y1143000D01*
X1098615Y1673352D02*
X1496466Y2071203D01*
X1062694Y1709273D02*
X1446472Y2093051D01*
X1134536Y1637431D02*
X1581176Y2084071D01*
X1010096Y1761871D02*
X1227309Y1544659D01*
X1010096Y1761871D02*
Y2034963D01*
X957580Y1173106D02*
Y1321472D01*
X949960Y1165486D02*
X957580Y1173106D01*
X949960Y1205304D02*
X957580Y1197684D01*
X949960Y1277146D02*
X957580Y1269526D01*
X949960Y1309171D02*
X957580Y1316791D01*
X949960Y1237328D02*
X957580Y1244948D01*
X1010096Y1935431D02*
X1863488Y1082039D01*
X1019442Y962660D02*
X1154348D01*
X1106344D02*
X1130346Y986662D01*
X1034502Y962660D02*
X1094425Y1022583D01*
X967251Y1149757D02*
X1154348Y962660D01*
X949960Y1133462D02*
X1120762Y962660D01*
X941789Y774700D02*
X1126783D01*
X1189800Y678600D02*
Y711683D01*
X1126783Y774700D02*
X1189800Y711683D01*
X1093195Y774700D02*
X1189800Y678095D01*
X1028700Y597647D02*
X1166268Y735215D01*
X1021353Y774700D02*
X1189800Y606253D01*
X1028700Y669489D02*
X1130347Y771136D01*
X949511Y774700D02*
X1189800Y534411D01*
X991051Y991051D02*
X1058504Y1058504D01*
X955130Y1026972D02*
X1022583Y1094425D01*
X991051Y991051D02*
X1058504Y1058504D01*
X949960Y1032142D02*
X1019442Y962660D01*
X949960Y1093644D02*
X986662Y1130346D01*
X949960Y1032142D02*
Y1313203D01*
Y1061619D02*
X1048919Y962660D01*
X1001929Y714560D02*
X1062068Y774700D01*
X966008Y750481D02*
X990226Y774700D01*
X941789D02*
X1019029Y697461D01*
X883955Y739140D02*
X962660Y660435D01*
X859600Y720926D02*
X962660Y617867D01*
X1485411Y530372D02*
X1599712Y416071D01*
X1445724Y439934D02*
X1510786Y504996D01*
X1547574Y398100D02*
X1582628Y433154D01*
X1481645Y404013D02*
X1546707Y469076D01*
X1367600Y643979D02*
X1613480Y398100D01*
X1367600Y572137D02*
X1541638Y398100D01*
X1432343Y453314D02*
X1487558Y398100D01*
X1623060Y406400D02*
X1898943D01*
X1619416Y398100D02*
X1627716Y406400D01*
X1621600Y328442D02*
X1699558Y406400D01*
X1613480Y398100D02*
X1621600Y389979D01*
X1487558Y398100D02*
X1621600D01*
X1475740Y553720D02*
Y677203D01*
X1396933Y462986D02*
X1477383Y543435D01*
X1367600Y505495D02*
X1475740Y613635D01*
X1367600Y577337D02*
X1471603Y681340D01*
X1367600Y500295D02*
X1404910Y462986D01*
X1325091D02*
X1349425Y487320D01*
X1395317Y396946D02*
X1443800Y348463D01*
X1253249Y462986D02*
X1277583Y487320D01*
X1236891D02*
X1261225Y462986D01*
X1308733Y487320D02*
X1333067Y462986D01*
X1748864Y406400D02*
X1951800Y203463D01*
X1820706Y406400D02*
X1951800Y275306D01*
X1621600Y389979D02*
X1959151Y52429D01*
X1677022Y406400D02*
X1951800Y131621D01*
X1621600Y184758D02*
X1843242Y406400D01*
X1621600Y256600D02*
X1771400Y406400D01*
X1561113Y52429D02*
X1907013Y398329D01*
X1704798Y52429D02*
X1951800Y299431D01*
X1632956Y52429D02*
X1942935Y362408D01*
X1848482Y52429D02*
X1951800Y155747D01*
X1776640Y52429D02*
X1951800Y227589D01*
X1621600Y318137D02*
X1887308Y52429D01*
X1621600Y246295D02*
X1815466Y52429D01*
X1621600Y174453D02*
X1743624Y52429D01*
X1443800Y127300D02*
Y348463D01*
X1327265Y396946D02*
X1443800Y280411D01*
X1621600Y127300D02*
Y398100D01*
X1345587Y52429D02*
X1443800Y150642D01*
X1201903Y52429D02*
X1443800Y294326D01*
X1255423Y396946D02*
X1443800Y208569D01*
X1273745Y52429D02*
X1443800Y222484D01*
X1489271Y52429D02*
X1564143Y127300D01*
X1453226D02*
X1528098Y52429D01*
X1596911Y127300D02*
X1671782Y52429D01*
X1525069Y127300D02*
X1599940Y52429D01*
X1443800Y127300D02*
X1621600D01*
X1443800Y136726D02*
X1453226Y127300D01*
X1417429Y52429D02*
X1492301Y127300D01*
X1076527Y501790D02*
X1189800Y615063D01*
X1040606Y537711D02*
X1189800Y686905D01*
X1112448Y465869D02*
X1189800Y543221D01*
Y487320D02*
Y678600D01*
X1028700Y623669D02*
X1189383Y462986D01*
X1028700Y551827D02*
X1117541Y462986D01*
X1028700Y549617D02*
X1115332Y462986D01*
X1408995D01*
X1189800Y487320D02*
X1367600D01*
X1113600Y396946D02*
X1395317D01*
X1181407Y462986D02*
X1205741Y487320D01*
X982498Y398100D02*
X1093001D01*
X1028700Y549617D02*
Y674112D01*
X962660Y535940D02*
Y660435D01*
X859600Y577242D02*
X1038743Y398100D01*
X859600Y649084D02*
X962660Y546025D01*
X859600Y572232D02*
X955232Y667863D01*
X859600Y500390D02*
X962660Y603449D01*
X972331Y512591D02*
X1078306Y406617D01*
X1044679Y398100D02*
X1065751Y419172D01*
X977667Y402930D02*
X1029830Y455093D01*
X941746Y438851D02*
X993909Y491014D01*
X895902Y464849D02*
X962913Y531860D01*
X925420Y455178D02*
X982498Y398100D01*
X1113600Y179653D02*
X1330893Y396946D01*
X1113600Y251495D02*
X1259051Y396946D01*
X1113600Y395084D02*
X1456256Y52429D01*
X1183581Y396946D02*
X1443800Y136726D01*
X1113600Y323337D02*
X1187209Y396946D01*
X1113600Y127300D02*
Y396946D01*
X1058219Y52429D02*
X1399026Y393236D01*
X1113600Y323242D02*
X1384414Y52429D01*
X1113600Y251400D02*
X1312571Y52429D01*
X1130061D02*
X1434947Y357316D01*
X1113600Y179558D02*
X1240729Y52429D01*
X284367D02*
X4788903D01*
X935800Y127300D02*
X1113600D01*
X1094016D02*
X1168887Y52429D01*
X1101654Y396946D02*
X1113600D01*
X935800Y127300D02*
Y351402D01*
X750665Y398809D02*
X935800Y213674D01*
X822507Y398809D02*
X935800Y285516D01*
X728980Y348652D02*
X935800Y141832D01*
X986376Y52429D02*
X1061248Y127300D01*
X950332D02*
X1025203Y52429D01*
X1022174Y127300D02*
X1097045Y52429D01*
X676261Y329529D02*
X953361Y52429D01*
X935800Y141832D02*
X950332Y127300D01*
X914534Y52429D02*
X989406Y127300D01*
X805734Y1852424D02*
X886460Y1771699D01*
X805734Y1811524D02*
X886460Y1892250D01*
X809865Y1743812D02*
X886460Y1820408D01*
Y1744530D02*
Y1986303D01*
X805734Y1883366D02*
X886460Y1964092D01*
X805734Y1996108D02*
X886460Y1915383D01*
X805734Y1924266D02*
X886460Y1843541D01*
X896131Y1721182D02*
X910264Y1707049D01*
X846628D02*
X910264D01*
X845786Y1707891D02*
X886460Y1748565D01*
X805734Y1780582D02*
X879267Y1707049D01*
X805734Y1747943D02*
X846628Y1707049D01*
X417830Y1939062D02*
Y2280024D01*
X805734Y1747943D02*
Y2038171D01*
X227781Y1339076D02*
Y2054364D01*
X147320Y1936102D02*
X227781Y1855640D01*
X147320Y1361365D02*
X281940Y1226745D01*
X237452Y1315727D02*
X281940Y1271240D01*
X515620Y1162199D02*
X521427Y1168006D01*
X147320Y1289522D02*
X281940Y1154902D01*
X147320Y1224952D02*
X237774Y1315406D01*
X147320Y1153110D02*
X273695Y1279485D01*
X515620Y1018515D02*
X521427Y1024322D01*
X515620Y1064907D02*
X521427Y1059100D01*
Y888273D02*
Y1184525D01*
X515620Y993065D02*
X521427Y987258D01*
X515620Y1090357D02*
X521427Y1096164D01*
X515620Y1136749D02*
X521427Y1130942D01*
X515620Y872197D02*
Y1178583D01*
X531098Y864925D02*
X681800Y714223D01*
X515620Y872197D02*
X658349Y729469D01*
X515620Y921222D02*
X521427Y915415D01*
X515620Y946673D02*
X521427Y952480D01*
X515620Y874831D02*
X522157Y881368D01*
X147320Y1073996D02*
X281940Y939376D01*
X147320Y1009425D02*
X281940Y1144045D01*
Y758119D02*
Y1271240D01*
X147320Y937583D02*
X281940Y1072203D01*
X147320Y1081268D02*
X281940Y1215888D01*
X147320Y1217680D02*
X281940Y1083060D01*
X147320Y1145838D02*
X281940Y1011218D01*
X183382Y758119D02*
X281940Y856677D01*
X147320Y793899D02*
X281940Y928519D01*
X255225Y758119D02*
X281940Y784835D01*
X173800Y540918D02*
Y758119D01*
X147320Y865741D02*
X281940Y1000361D01*
X147320Y1002154D02*
X281940Y867534D01*
X147320Y930312D02*
X281940Y795692D01*
X147320Y1727847D02*
X227781Y1808308D01*
X147320Y1864259D02*
X227781Y1783798D01*
X147320Y1656005D02*
X227781Y1736466D01*
X147320Y1792417D02*
X227781Y1711956D01*
X147320Y1871531D02*
X227781Y1951992D01*
X147320Y2007944D02*
X227781Y1927483D01*
X147320Y1799689D02*
X227781Y1880150D01*
X147320Y1512320D02*
X227781Y1592781D01*
X147320Y1648733D02*
X227781Y1568272D01*
X147320Y1440478D02*
X227781Y1520939D01*
X147320Y1576891D02*
X227781Y1496430D01*
X147320Y1584162D02*
X227781Y1664624D01*
X147320Y1720575D02*
X227781Y1640114D01*
X52429Y1456256D02*
X81280Y1427405D01*
X52429Y1815466D02*
X81280Y1786615D01*
X52429Y1848482D02*
X81280Y1877333D01*
X52429Y1743624D02*
X81280Y1714773D01*
X52429Y1776640D02*
X81280Y1805491D01*
X52429Y1920324D02*
X81280Y1949175D01*
X52429Y1959151D02*
X81280Y1930299D01*
X52429Y1887308D02*
X81280Y1858457D01*
X52429Y1561113D02*
X81280Y1589965D01*
X52429Y1599940D02*
X81280Y1571089D01*
X52429Y1489271D02*
X81280Y1518122D01*
X52429Y1528098D02*
X81280Y1499247D01*
X52429Y1671782D02*
X81280Y1642931D01*
X52429Y1704798D02*
X81280Y1733649D01*
X52429Y1632956D02*
X81280Y1661807D01*
X147320Y1368636D02*
X227781Y1449097D01*
X147320Y1505049D02*
X227781Y1424588D01*
X147320Y1296794D02*
X227781Y1377255D01*
X147320Y1433207D02*
X227781Y1352746D01*
X147320Y567398D02*
Y2686343D01*
X52429Y953361D02*
X81280Y924510D01*
Y553721D02*
Y2700020D01*
X52429Y770850D02*
X81280Y799701D01*
X52429Y809677D02*
X81280Y780825D01*
X147320Y858470D02*
X247670Y758119D01*
X147320Y786628D02*
X175828Y758119D01*
X52429Y881519D02*
X81280Y852668D01*
X52429Y914534D02*
X81280Y943385D01*
X52429Y842692D02*
X81280Y871543D01*
X52429Y1312571D02*
X81280Y1283720D01*
X52429Y1345587D02*
X81280Y1374438D01*
X52429Y1240729D02*
X81280Y1211878D01*
X52429Y1273745D02*
X81280Y1302596D01*
X52429Y1384414D02*
X81280Y1355562D01*
X52429Y1417429D02*
X81280Y1446280D01*
X52429Y300635D02*
Y3405435D01*
Y1058219D02*
X81280Y1087070D01*
X52429Y1097045D02*
X81280Y1068194D01*
X52429Y986376D02*
X81280Y1015228D01*
X52429Y1025203D02*
X81280Y996352D01*
X52429Y1168887D02*
X81280Y1140036D01*
X52429Y1201903D02*
X81280Y1230754D01*
X52429Y1130061D02*
X81280Y1158912D01*
X859600Y739140D02*
X883955D01*
X859600Y715916D02*
X882824Y739140D01*
X859600Y644074D02*
X919310Y703784D01*
X859600Y487320D02*
Y739140D01*
X846530Y487320D02*
X859600Y500390D01*
X681800Y495226D02*
X689707Y487320D01*
X696276Y480750D02*
X702846Y487320D01*
X752218Y464849D02*
X774688Y487320D01*
X733996D02*
X756467Y464849D01*
X824060D02*
X846530Y487320D01*
X805838D02*
X828309Y464849D01*
X689707Y487320D02*
X859600D01*
X689707D02*
X712177Y464849D01*
X902071D01*
X681800Y678600D02*
Y714223D01*
X668020Y696980D02*
X681800Y683200D01*
X668020Y668020D02*
X681800Y681800D01*
Y678600D02*
Y714223D01*
X668020Y509007D02*
Y706120D01*
Y524336D02*
X681800Y538116D01*
X668020Y553296D02*
X681800Y539516D01*
Y495226D02*
Y678600D01*
X668020Y509007D02*
X681800Y495226D01*
X668020Y625138D02*
X681800Y611358D01*
X668020Y668020D02*
X681800Y681800D01*
X668020Y596178D02*
X681800Y609958D01*
X859600Y505400D02*
X900151Y464849D01*
X888393Y398809D02*
X935800Y351402D01*
X734449Y398809D02*
X888393D01*
X738729Y379518D02*
X758020Y398809D01*
X605600Y174548D02*
X829862Y398809D01*
X699008Y52429D02*
X935800Y289221D01*
X627166Y52429D02*
X930970Y356233D01*
X842692Y52429D02*
X935800Y145537D01*
X770850Y52429D02*
X935800Y217379D01*
X555324Y52429D02*
X895049Y392154D01*
X605600Y328347D02*
X881519Y52429D01*
X605600Y256505D02*
X809677Y52429D01*
X632460Y340360D02*
X655347D01*
X605600Y318232D02*
X627991Y340623D01*
X605600Y127300D02*
Y351439D01*
Y246390D02*
X687282Y328071D01*
X519279Y127300D02*
X594150Y52429D01*
X605600Y184663D02*
X737834Y52429D01*
X591121Y127300D02*
X665992Y52429D01*
X427800Y127300D02*
X605600D01*
X447437D02*
X522308Y52429D01*
X483482D02*
X558353Y127300D01*
X173800Y758119D02*
X281940D01*
X173800Y748537D02*
X183382Y758119D01*
X147320Y567398D02*
X173800Y540918D01*
X147320Y571101D02*
X173800Y544621D01*
X147320Y642943D02*
X173800Y616463D01*
X147320Y650215D02*
X173800Y676695D01*
X147320Y578373D02*
X173800Y604853D01*
X233681Y401320D02*
X377883D01*
X317101D02*
X427800Y290621D01*
X377883Y401320D02*
X427800Y351402D01*
X90951Y530372D02*
X210332Y410991D01*
X54338Y269865D02*
X202899Y418425D01*
X147320Y714785D02*
X173800Y688305D01*
X147320Y722057D02*
X173800Y748537D01*
X52429Y594150D02*
X81280Y565299D01*
X52429Y627166D02*
X81280Y656017D01*
X52429Y699008D02*
X81280Y727859D01*
X52429Y737834D02*
X81280Y708983D01*
X52429Y665992D02*
X81280Y637141D01*
X52429Y339797D02*
X166978Y454346D01*
X52429Y284367D02*
Y300635D01*
Y483482D02*
X95135Y526188D01*
X52429Y555324D02*
X81280Y584175D01*
X52429Y411640D02*
X131056Y490267D01*
X245259Y401320D02*
X427800Y218779D01*
X92639Y164482D02*
X329478Y401320D01*
X125127Y125127D02*
X389601Y389601D01*
X125127Y125127D02*
X389601Y389601D01*
X52429Y450466D02*
X450466Y52429D01*
X52429Y522308D02*
X427800Y146937D01*
X52429Y378624D02*
X378624Y52429D01*
X269865Y54338D02*
X427800Y212274D01*
Y127300D02*
Y351402D01*
X411640Y52429D02*
X486511Y127300D01*
X339797Y52429D02*
X427800Y140432D01*
X212266Y68582D02*
X427800Y284116D01*
X164482Y92639D02*
X425522Y353680D01*
X52429Y306782D02*
X306782Y52429D01*
X68582Y212266D02*
X257636Y401320D01*
X65097Y220679D02*
X77548Y190621D01*
X93817Y162442D02*
X113623Y136630D01*
X77548Y190621D02*
X93817Y162442D01*
X56676Y252107D02*
X65097Y220679D01*
X52429Y284367D02*
X56676Y252107D01*
X64514Y222854D02*
X222854Y64514D01*
X220679Y65097D02*
X252108Y56676D01*
X190621Y77548D02*
X220679Y65097D01*
X252108Y56676D02*
X284367Y52429D01*
X136630Y113623D02*
X162443Y93816D01*
X113623Y136630D02*
X136630Y113623D01*
X162443Y93816D02*
X190621Y77548D01*
D32*
X4072700Y3107500D02*
X4143820Y3036380D01*
X4072700Y3107500D02*
X4143820Y3178620D01*
X4001580D02*
X4072700Y3107500D01*
X4001580Y3036380D02*
X4072700Y3107500D01*
X3818700Y3467520D02*
X3889820Y3538640D01*
X3818700Y3467520D02*
X3889820Y3396400D01*
X3747580Y3538640D02*
X3818700Y3467520D01*
X3747580Y3396400D02*
X3818700Y3467520D01*
D33*
X632460Y378460D02*
X688340D01*
X546100Y464820D02*
X632460Y378460D01*
X546100Y464820D02*
Y640080D01*
X378460Y807720D02*
X546100Y640080D01*
X378460Y807720D02*
Y927100D01*
X308660Y2600960D02*
X1955800D01*
X308660Y2034540D02*
Y2600960D01*
Y2727960D01*
X2291080Y3302000D02*
Y3463899D01*
X2294700Y3467520D01*
X309930Y1357630D02*
Y2034540D01*
Y1357630D02*
X311200Y1356360D01*
D34*
X1785620Y3468600D02*
Y3622040D01*
Y3468600D02*
X1786700Y3467520D01*
D35*
X233681Y434340D02*
X391560D01*
X513080Y312820D01*
Y276860D02*
Y312820D01*
X604258Y1742702D02*
Y1945518D01*
X627564Y1968824D01*
Y2181046D01*
X668020Y1928715D02*
X693850Y1954545D01*
X668020Y1760220D02*
Y1928715D01*
X693850Y1954545D02*
Y2132447D01*
X772714Y1734266D02*
Y2076247D01*
Y1734266D02*
X832951Y1674029D01*
X114300Y2700020D02*
X256140Y2841860D01*
X114300Y553721D02*
Y2700020D01*
Y553721D02*
X233681Y434340D01*
X875655Y3057515D02*
X925640Y3107500D01*
X875655Y2776865D02*
Y3057515D01*
X925640Y3107500D02*
X1024700D01*
X2078323Y1140060D02*
X3982395D01*
X2076183Y1137920D02*
X2078323Y1140060D01*
X233680Y2555240D02*
X273100Y2515820D01*
X260801Y1339076D02*
Y2054364D01*
X314960Y674980D02*
Y1284917D01*
X260801Y1339076D02*
X314960Y1284917D01*
X273100Y2066663D02*
Y2515820D01*
X260801Y2054364D02*
X273100Y2066663D01*
X262700Y622720D02*
X314960Y674980D01*
X3982395Y1140060D02*
X4173220Y1330885D01*
X2306827Y1109580D02*
X3995020D01*
X4262120Y1376680D01*
X4173220Y1330885D02*
Y1521460D01*
X4282440Y1630680D01*
X4262120Y1376680D02*
X4282440D01*
X2296098Y1098851D02*
X2306827Y1109580D01*
X2273300Y1092200D02*
X2279951Y1098851D01*
X2296098D01*
X4196080Y723900D02*
X4270820D01*
Y678600D02*
Y723900D01*
X3997960Y922020D02*
X4196080Y723900D01*
X4270820Y678600D02*
X4326700Y622720D01*
X2808530Y922020D02*
X3997960D01*
X4142740Y419100D02*
X4470800D01*
X4005580Y556260D02*
Y774700D01*
Y556260D02*
X4142740Y419100D01*
X3888740Y891540D02*
X4005580Y774700D01*
X2795905Y891540D02*
X3888740D01*
X2706332Y1047279D02*
X2715260D01*
X2688952Y1029899D02*
X2706332Y1047279D01*
X2068901Y1029899D02*
X2688952D01*
X2787347Y999419D02*
X2792997Y1005070D01*
X2052910Y999419D02*
X2787347D01*
X1492309Y2117091D02*
X1638351D01*
X1488440Y2120960D02*
X1492309Y2117091D01*
X1638351D02*
X1643380Y2122120D01*
X2545080Y3111120D02*
Y3454400D01*
Y3111120D02*
X2548700Y3107500D01*
X2040700D02*
X2044700Y3111500D01*
Y3246520D01*
X2795500Y3474720D02*
X2802700Y3467520D01*
X2692400Y3474720D02*
X2795500D01*
X449580Y1663700D02*
X591651Y1521629D01*
X883751D01*
X449580Y1663700D02*
Y1899920D01*
X505417Y1673903D02*
Y1932747D01*
X627211Y1552109D02*
X896376D01*
X505417Y1673903D02*
X627211Y1552109D01*
X556398Y1704202D02*
X678011Y1582589D01*
X909001D01*
X556398Y1704202D02*
Y2156135D01*
X784691Y1643549D02*
X934251D01*
X668020Y1760220D02*
X784691Y1643549D01*
X733891Y1613069D02*
X921626D01*
X604258Y1742702D02*
X733891Y1613069D01*
X256140Y2841860D02*
X490620D01*
X538480Y2794000D01*
X2179320Y1485900D02*
X2273300Y1579880D01*
X2857340D01*
X1960880Y1137920D02*
X2068901Y1029899D01*
X2748986Y938459D02*
X2795905Y891540D01*
X2758030Y800100D02*
X3179819D01*
X3254820Y725099D01*
X3426460Y830580D02*
X3571792Y685248D01*
X2723735Y877499D02*
X2770655Y830580D01*
X3426460D01*
X2783280Y861060D02*
X3627120D01*
X3762820Y725360D01*
X2460061Y755579D02*
X2540000Y675640D01*
Y548640D02*
Y675640D01*
X1951909Y755579D02*
X2460061D01*
X1964535Y786059D02*
X2685860D01*
X2802700Y669219D01*
X1977160Y816539D02*
X2698485D01*
X2745405Y769620D01*
X1764365Y1079500D02*
X1825326Y1018539D01*
X1938021Y1079499D02*
X1972830D01*
X1776990Y1109980D02*
X1837951Y1049019D01*
X1947580Y1018539D02*
X2027660Y938459D01*
X1837951Y1049019D02*
X1960205D01*
X1879600Y1137920D02*
X1938021Y1079499D01*
X2040285Y968939D02*
X2761611D01*
X2808530Y922020D01*
X1825326Y1018539D02*
X1947580D01*
X1960205Y1049019D02*
X2040285Y968939D01*
X2027660Y938459D02*
X2748986D01*
X1972830Y1079499D02*
X2052910Y999419D01*
X1726490Y988060D02*
X1787451Y927099D01*
X1909705D02*
X1989785Y847019D01*
X2711110D01*
X1800076Y957579D02*
X1922330D01*
X1787451Y927099D02*
X1909705D01*
X2002410Y877499D02*
X2723735D01*
X2015035Y907979D02*
X2736361D01*
X2711110Y847019D02*
X2758030Y800100D01*
X1812701Y988059D02*
X1934955D01*
X1922330Y957579D02*
X2002410Y877499D01*
X1751740Y1049020D02*
X1812701Y988059D01*
X1934955D02*
X2015035Y907979D01*
X2736361D02*
X2783280Y861060D01*
X1739115Y1018540D02*
X1800076Y957579D01*
X1897080Y896619D02*
X1977160Y816539D01*
X1774826Y896619D02*
X1897080D01*
X1713865Y957580D02*
X1774826Y896619D01*
X1884455Y866139D02*
X1964535Y786059D01*
X1762201Y866139D02*
X1884455D01*
X1701240Y927100D02*
X1762201Y866139D01*
X1688615Y896620D02*
X1749576Y835659D01*
X1871830D01*
X1951909Y755579D01*
X1736950Y805180D02*
X1859205D01*
X1940485Y723900D01*
X2238820D01*
X1846580Y774700D02*
X1930400Y690880D01*
X1724325Y774700D02*
X1846580D01*
X1930400Y528320D02*
Y690880D01*
X1675990Y866140D02*
X1736950Y805180D01*
X2247900Y673100D02*
Y714820D01*
X2238820Y723900D02*
X2247900Y714820D01*
X2029460Y429260D02*
X2428640D01*
X1930400Y528320D02*
X2029460Y429260D01*
X262700Y3421020D02*
X403310Y3280410D01*
X557530D01*
X673900Y3164040D01*
X262700Y3421020D02*
Y3467520D01*
X775656Y2775264D02*
Y3137856D01*
X965200Y3327400D02*
X1183640D01*
X775656Y3137856D02*
X965200Y3327400D01*
X1221380Y3365140D02*
X1222820D01*
X1183640Y3327400D02*
X1221380Y3365140D01*
X1278700Y3421020D02*
Y3467520D01*
X1222820Y3365140D02*
X1278700Y3421020D01*
X1476820Y3209880D02*
X1476820D01*
X1000672Y3289300D02*
X1397400D01*
X1476820Y3209880D01*
X1476820D02*
X1532700Y3154000D01*
X625609Y2836307D02*
Y2946400D01*
X516700Y3055309D02*
Y3107500D01*
Y3055309D02*
X625609Y2946400D01*
X824751Y2832489D02*
Y3113380D01*
X1000672Y3289300D01*
X726491Y3376811D02*
X770700Y3421020D01*
X726491Y2832431D02*
Y3376811D01*
X673900Y2778401D02*
Y3164040D01*
X1532700Y3107500D02*
Y3154000D01*
X770700Y3421020D02*
Y3467520D01*
X3662680Y449580D02*
X3932320D01*
X4072700Y309200D01*
X3571792Y540468D02*
Y685248D01*
Y540468D02*
X3662680Y449580D01*
X4072700Y262700D02*
Y309200D01*
X4470800Y419100D02*
X4580700Y309200D01*
Y262700D02*
Y309200D01*
X3762820Y678600D02*
X3818700Y622720D01*
X3762820Y678600D02*
Y725360D01*
X1203960Y1261481D02*
X1355461Y1109980D01*
X1776990D01*
X990600Y1173106D02*
X1267086Y896620D01*
X990600Y1173106D02*
Y1414780D01*
X1021080Y1185731D02*
X1279711Y927100D01*
X1021080Y1185731D02*
Y1427405D01*
X1051560Y1198356D02*
X1292336Y957580D01*
X1051560Y1198356D02*
Y1440030D01*
X1082040Y1210981D02*
Y1452655D01*
Y1210981D02*
X1304961Y988060D01*
X1112520Y1223606D02*
X1317586Y1018540D01*
X1112520Y1223606D02*
Y1465280D01*
X1143000Y1236231D02*
X1330211Y1049020D01*
X1143000Y1236231D02*
Y1477905D01*
X1173480Y1248856D02*
X1342836Y1079500D01*
X1173480Y1248856D02*
Y1490530D01*
X1203960Y1261481D02*
Y1521310D01*
X1342836Y1079500D02*
X1764365D01*
X1330211Y1049020D02*
X1751740D01*
X1317586Y1018540D02*
X1739115D01*
X1304961Y988060D02*
X1726490D01*
X1292336Y957580D02*
X1713865D01*
X1279711Y927100D02*
X1701240D01*
X1267086Y896620D02*
X1688615D01*
X919480Y1744530D02*
Y2024380D01*
Y1744530D02*
X1173480Y1490530D01*
X977076Y1748194D02*
X1203960Y1521310D01*
X977076Y1748194D02*
Y2073040D01*
X946876Y1674029D02*
X1143000Y1477905D01*
X934251Y1643549D02*
X1112520Y1465280D01*
X832951Y1674029D02*
X946876D01*
X921626Y1613069D02*
X1082040Y1452655D01*
X505417Y1932747D02*
X508039Y1935369D01*
Y2098285D01*
X2745405Y769620D02*
X2966720D01*
X3057129Y679211D01*
X3254820Y725099D02*
X3254820D01*
X3310700Y669219D01*
X3188923Y430577D02*
X3442923D01*
X3508420Y365080D01*
X3057129Y562371D02*
X3188923Y430577D01*
X3508820Y365080D02*
X3564700Y309200D01*
Y262700D02*
Y309200D01*
X3508420Y365080D02*
X3508820D01*
X3057129Y562371D02*
Y679211D01*
X909001Y1582589D02*
X1051560Y1440030D01*
X896376Y1552109D02*
X1021080Y1427405D01*
X2802700Y622720D02*
Y669219D01*
X883751Y1521629D02*
X990600Y1414780D01*
X1254461Y866140D02*
X1675990D01*
X1663365Y835660D02*
X1724325Y774700D01*
X1190961Y929640D02*
X1254461Y866140D01*
X1178335Y899160D02*
X1241835Y835660D01*
X1663365D01*
X1650740Y805180D02*
X1786700Y669219D01*
X1229210Y805180D02*
X1650740D01*
X1165710Y868680D02*
X1229210Y805180D01*
X1005765Y929640D02*
X1190961D01*
X916940Y1018465D02*
X1005765Y929640D01*
X944880Y899160D02*
X1178335D01*
X850842Y993198D02*
X944880Y899160D01*
X881380Y868680D02*
X1165710D01*
X776580Y973480D02*
X881380Y868680D01*
X721360Y955040D02*
X838200Y838200D01*
X1153085D01*
X1216585Y774700D02*
X1424940D01*
X1153085Y838200D02*
X1216585Y774700D01*
X627380Y906780D02*
X762000Y772160D01*
X627380Y906780D02*
Y1460256D01*
X762000Y772160D02*
X897632D01*
X995680Y674112D01*
X698500Y431829D02*
X902071D01*
X482600Y858520D02*
Y1216660D01*
X635000Y495329D02*
X698500Y431829D01*
X482600Y858520D02*
X635000Y706120D01*
Y495329D02*
Y706120D01*
X673100Y924560D02*
Y1401321D01*
X789940Y807720D02*
X1140460D01*
X673100Y924560D02*
X789940Y807720D01*
X776580Y973480D02*
Y1404620D01*
X850842Y993198D02*
Y1417667D01*
X2540000Y548640D02*
X2664460Y424180D01*
X2933700D01*
X2992800Y365080D01*
X3000820D01*
X3056700Y309200D01*
Y262700D02*
Y309200D01*
X2428640Y429260D02*
X2548700Y309200D01*
X1424940Y774700D02*
X1508760Y690880D01*
Y553720D02*
Y690880D01*
Y553720D02*
X1623060Y439420D01*
X1912620D01*
X1984820Y367220D01*
Y318580D02*
X2040700Y262700D01*
X1984820Y318580D02*
Y367220D01*
X1222820Y678600D02*
X1278700Y622720D01*
X1222820Y678600D02*
Y725360D01*
X1140460Y807720D02*
X1222820Y725360D01*
X554447Y888273D02*
Y1380283D01*
Y888273D02*
X714820Y727900D01*
Y678600D02*
Y727900D01*
Y678600D02*
X770700Y622720D01*
X554447Y1380283D02*
X574440Y1400276D01*
Y1406591D01*
X902071Y431829D02*
X1024700Y309200D01*
Y262700D02*
Y309200D01*
X995680Y535940D02*
Y674112D01*
X1532700Y262700D02*
Y309200D01*
X1473880Y365080D02*
X1476820D01*
X1101654Y429966D02*
X1408995D01*
X1476820Y365080D02*
X1532700Y309200D01*
X1408995Y429966D02*
X1473880Y365080D01*
X995680Y535940D02*
X1101654Y429966D01*
X916940Y1018465D02*
Y1351280D01*
X721360Y955040D02*
Y1192519D01*
X724440Y1265264D02*
Y1447462D01*
X721360Y1192519D02*
X724440Y1265264D01*
X706638Y1465263D02*
X724440Y1447462D01*
X706638Y1465263D02*
Y1473769D01*
X673100Y1401321D02*
X675240Y1403460D01*
X626580Y1461057D02*
X627380Y1460256D01*
X3310700Y622720D02*
Y669219D01*
X2548700Y262700D02*
Y309200D01*
X1786700Y622720D02*
Y669219D01*
D36*
X375920Y945674D02*
Y1610360D01*
X373643Y1612637D02*
X375920Y1610360D01*
X373643Y1612637D02*
Y1621051D01*
X373380Y1621314D02*
Y2303780D01*
Y1621314D02*
X373643Y1621051D01*
X373380Y2303780D02*
Y2364740D01*
X508000Y2499360D01*
X1297940D01*
X3464046Y2329694D02*
X3578860Y2214880D01*
X3464046Y2329694D02*
Y2893574D01*
X3578860Y2214880D02*
X3718560D01*
X3462020Y2895600D02*
X3464046Y2893574D01*
D38*
X4282440Y868680D02*
D03*
D39*
Y1122680D02*
D03*
Y1376680D02*
D03*
Y1630680D02*
D03*
D40*
X627564Y2181046D02*
D03*
X693850Y2132447D02*
D03*
X772714Y2076247D02*
D03*
X2413000Y1460500D02*
D03*
X1496060Y1183640D02*
D03*
X1003300Y1035940D02*
D03*
X1043940Y2009140D02*
D03*
X389490Y2544296D02*
D03*
X1429207Y1765490D02*
D03*
X1401267Y2344610D02*
D03*
X3555187Y1018730D02*
D03*
X3534867Y1270190D02*
D03*
X3087827Y1247330D02*
D03*
X3080207Y1023810D02*
D03*
X2427427Y2133790D02*
D03*
X2394407Y2329370D02*
D03*
X2219147Y2359850D02*
D03*
X2031187Y2354770D02*
D03*
X1848307Y2352230D02*
D03*
X2128964Y1191765D02*
D03*
X2076183Y1137920D02*
D03*
X2354580Y1633220D02*
D03*
X1841500Y1844040D02*
D03*
X1924507Y1282890D02*
D03*
X1916887Y1529270D02*
D03*
X1792427Y1404810D02*
D03*
X2043887Y1407350D02*
D03*
Y1285430D02*
D03*
X1794967D02*
D03*
X2041347Y1529270D02*
D03*
X1794967D02*
D03*
X1916887Y1407350D02*
D03*
X1721307Y2489390D02*
D03*
X1728927Y2542730D02*
D03*
X1754327Y2819590D02*
D03*
X1764487Y2743390D02*
D03*
X1698447Y2768790D02*
D03*
X1779727Y2890710D02*
D03*
X1667967Y2895790D02*
D03*
X4678680Y891540D02*
D03*
X2933700Y1653540D02*
D03*
X2999740Y1584960D02*
D03*
X2192020Y1998980D02*
D03*
X1884680Y2252980D02*
D03*
X2278380Y2075180D02*
D03*
X2072640Y2252980D02*
D03*
X1640840Y2268220D02*
D03*
X231140Y937260D02*
D03*
X233680Y1257300D02*
D03*
X225241Y2110740D02*
D03*
Y2319020D02*
D03*
X226060Y2651760D02*
D03*
X233680Y2555240D02*
D03*
X1038860Y2692400D02*
D03*
X1361440Y2710180D02*
D03*
X1292860Y2653900D02*
D03*
X2021840Y2646680D02*
D03*
X2090420Y2710180D02*
D03*
X2369820Y2895600D02*
D03*
X2593340Y2954020D02*
D03*
X2438400Y2956560D02*
D03*
X2517140Y2895600D02*
D03*
X2438400Y2397760D02*
D03*
X2362200Y2458720D02*
D03*
X2593340Y2400300D02*
D03*
X3022600Y2148840D02*
D03*
X2954020Y2209800D02*
D03*
X3042920Y2293620D02*
D03*
X3108960Y2232660D02*
D03*
X3261360D02*
D03*
X3329940Y2296160D02*
D03*
X3482340Y2148840D02*
D03*
X3413760Y2212340D02*
D03*
X3939540Y2151380D02*
D03*
X3870960Y2212340D02*
D03*
X3647440Y2453640D02*
D03*
X3779520D02*
D03*
X3870960Y2395220D02*
D03*
X3934460Y2453640D02*
D03*
X3716020Y2936640D02*
D03*
X3931920Y2887980D02*
D03*
X3865880Y2936640D02*
D03*
X3771900Y2885440D02*
D03*
X2792997Y1005070D02*
D03*
X2715260Y1047279D02*
D03*
X1643380Y2122120D02*
D03*
X1488440Y2120960D02*
D03*
X1955800Y2600960D02*
D03*
X375920Y1610360D02*
D03*
X1297940Y2499360D02*
D03*
X2291080Y3302000D02*
D03*
X2545080Y3454400D02*
D03*
X2044700Y3246520D02*
D03*
X2692400Y3474720D02*
D03*
X688340Y378460D02*
D03*
X2273300Y1092200D02*
D03*
X373380Y2303780D02*
D03*
X378460Y934720D02*
D03*
X311200Y1356360D02*
D03*
X308660Y2034540D02*
D03*
Y2727960D02*
D03*
X449580Y1899920D02*
D03*
X538480Y2794000D02*
D03*
X2857340Y1579880D02*
D03*
X1879600Y1137920D02*
D03*
X1960880D02*
D03*
X2179320Y1485900D02*
D03*
X4823460Y754380D02*
D03*
X3464046Y2896114D02*
D03*
X3718560Y2214880D02*
D03*
X4732020Y2451100D02*
D03*
Y2395220D02*
D03*
Y2339340D02*
D03*
Y2225040D02*
D03*
Y2280920D02*
D03*
X4673600Y2451100D02*
D03*
Y2395220D02*
D03*
Y2339340D02*
D03*
Y2169160D02*
D03*
Y2225040D02*
D03*
Y2280920D02*
D03*
X3172460Y3058160D02*
D03*
X3228340D02*
D03*
X3284220D02*
D03*
X3454400D02*
D03*
X3398520D02*
D03*
X3342640D02*
D03*
X3172460Y2999740D02*
D03*
X3228340D02*
D03*
X3284220D02*
D03*
X3454400D02*
D03*
X3398520D02*
D03*
X3342640D02*
D03*
X508039Y2098285D02*
D03*
X556398Y2156135D02*
D03*
X482600Y1216660D02*
D03*
X850842Y1417667D02*
D03*
X675240Y1403460D02*
D03*
X626580Y1461057D02*
D03*
X574440Y1406591D02*
D03*
X977076Y2073040D02*
D03*
X875655Y2776865D02*
D03*
X824751Y2832489D02*
D03*
X775656Y2775264D02*
D03*
X726491Y2832431D02*
D03*
X673900Y2778401D02*
D03*
X625609Y2836307D02*
D03*
X919480Y2024380D02*
D03*
X916940Y1351280D02*
D03*
X706638Y1473769D02*
D03*
X776580Y1404620D02*
D03*
D41*
X1785620Y3622040D02*
D03*
D42*
X3056700Y262700D02*
D03*
X1024700D02*
D03*
X4834700Y622720D02*
D03*
X4326700D02*
D03*
X4580700Y262700D02*
D03*
X4072700D02*
D03*
X3818700Y622720D02*
D03*
X3564700Y262700D02*
D03*
X3310700Y622720D02*
D03*
X2802700D02*
D03*
X2548700Y262700D02*
D03*
X2294700Y622720D02*
D03*
X2040700Y262700D02*
D03*
X1786700Y622720D02*
D03*
X1532700Y262700D02*
D03*
X1278700Y622720D02*
D03*
X770700D02*
D03*
X262700D02*
D03*
X516700Y262700D02*
D03*
X3056700Y3107500D02*
D03*
X1024700D02*
D03*
X4834700Y3467520D02*
D03*
X4326700D02*
D03*
X4580700Y3107500D02*
D03*
X4072700D02*
D03*
X3818700Y3467520D02*
D03*
X3564700Y3107500D02*
D03*
X3310700Y3467520D02*
D03*
X2802700D02*
D03*
X2548700Y3107500D02*
D03*
X2294700Y3467520D02*
D03*
X2040700Y3107500D02*
D03*
X1786700Y3467520D02*
D03*
X1532700Y3107500D02*
D03*
X1278700Y3467520D02*
D03*
X770700D02*
D03*
X262700D02*
D03*
X516700Y3107500D02*
D03*
D43*
X3310700Y3467520D02*
X3327400Y3450820D01*
%TF.MD5,63abe2ebebb2c6bf68ef47e79b70c420*%
M02*
