%TF.GenerationSoftware,Altium Limited,Altium Designer,24.0.1 (36)*%
G04 Layer_Color=16711935*
%FSLAX45Y45*%
%MOMM*%
%TF.SameCoordinates,14D861EB-6B2A-43A0-B606-02C4F9DF8899*%
%TF.FilePolarity,Negative*%
%TF.FileFunction,Soldermask,Bot*%
%TF.Part,Single*%
G01*
G75*
%TA.AperFunction,ComponentPad*%
%ADD73R,1.90320X1.90320*%
%ADD74C,1.90320*%
%TA.AperFunction,SMDPad,CuDef*%
%ADD75R,1.47320X2.40320*%
D73*
X4282440Y868680D02*
D03*
D74*
Y1122680D02*
D03*
Y1376680D02*
D03*
Y1630680D02*
D03*
D75*
X3056700Y262700D02*
D03*
X1024700D02*
D03*
X4834700Y622720D02*
D03*
X4326700D02*
D03*
X4580700Y262700D02*
D03*
X4072700D02*
D03*
X3818700Y622720D02*
D03*
X3564700Y262700D02*
D03*
X3310700Y622720D02*
D03*
X2802700D02*
D03*
X2548700Y262700D02*
D03*
X2294700Y622720D02*
D03*
X2040700Y262700D02*
D03*
X1786700Y622720D02*
D03*
X1532700Y262700D02*
D03*
X1278700Y622720D02*
D03*
X770700D02*
D03*
X262700D02*
D03*
X516700Y262700D02*
D03*
X3056700Y3107500D02*
D03*
X1024700D02*
D03*
X4834700Y3467520D02*
D03*
X4326700D02*
D03*
X4580700Y3107500D02*
D03*
X4072700D02*
D03*
X3818700Y3467520D02*
D03*
X3564700Y3107500D02*
D03*
X3310700Y3467520D02*
D03*
X2802700D02*
D03*
X2548700Y3107500D02*
D03*
X2294700Y3467520D02*
D03*
X2040700Y3107500D02*
D03*
X1786700Y3467520D02*
D03*
X1532700Y3107500D02*
D03*
X1278700Y3467520D02*
D03*
X770700D02*
D03*
X262700D02*
D03*
X516700Y3107500D02*
D03*
%TF.MD5,17f63d09c8b77bc74c44050134ae4838*%
M02*
