G04*
G04 #@! TF.GenerationSoftware,Altium Limited,Altium Designer,24.0.1 (36)*
G04*
G04 Layer_Physical_Order=1*
G04 Layer_Color=191*
%FSLAX44Y44*%
%MOMM*%
G71*
G04*
G04 #@! TF.SameCoordinates,5B0ED70E-373C-42BA-93D7-FD99D67A1B07*
G04*
G04*
G04 #@! TF.FilePolarity,Positive*
G04*
G01*
G75*
%ADD11C,0.2540*%
%ADD12C,0.5080*%
%ADD14C,0.2032*%
%ADD20R,0.8500X0.7500*%
%ADD21R,0.7500X0.8500*%
%ADD22O,0.6096X2.0320*%
%ADD23O,0.3000X1.8000*%
%ADD24O,1.8000X0.3000*%
%ADD25R,1.0000X0.8000*%
G04:AMPARAMS|DCode=26|XSize=1mm|YSize=0.8mm|CornerRadius=0mm|HoleSize=0mm|Usage=FLASHONLY|Rotation=0.000|XOffset=0mm|YOffset=0mm|HoleType=Round|Shape=Octagon|*
%AMOCTAGOND26*
4,1,8,0.5000,-0.2000,0.5000,0.2000,0.3000,0.4000,-0.3000,0.4000,-0.5000,0.2000,-0.5000,-0.2000,-0.3000,-0.4000,0.3000,-0.4000,0.5000,-0.2000,0.0*
%
%ADD26OCTAGOND26*%

G04:AMPARAMS|DCode=27|XSize=1.3mm|YSize=1.2mm|CornerRadius=0mm|HoleSize=0mm|Usage=FLASHONLY|Rotation=225.000|XOffset=0mm|YOffset=0mm|HoleType=Round|Shape=Rectangle|*
%AMROTATEDRECTD27*
4,1,4,0.0354,0.8839,0.8839,0.0354,-0.0354,-0.8839,-0.8839,-0.0354,0.0354,0.8839,0.0*
%
%ADD27ROTATEDRECTD27*%

%ADD28P,0.7071X4X90.0*%
%ADD29R,0.3000X0.8000*%
%ADD30R,2.4000X1.5200*%
%ADD31R,1.1000X3.7000*%
G04:AMPARAMS|DCode=32|XSize=1.8mm|YSize=3mm|CornerRadius=0mm|HoleSize=0mm|Usage=FLASHONLY|Rotation=90.000|XOffset=0mm|YOffset=0mm|HoleType=Round|Shape=Octagon|*
%AMOCTAGOND32*
4,1,8,-1.5000,-0.4500,-1.5000,0.4500,-1.0500,0.9000,1.0500,0.9000,1.5000,0.4500,1.5000,-0.4500,1.0500,-0.9000,-1.0500,-0.9000,-1.5000,-0.4500,0.0*
%
%ADD32OCTAGOND32*%

%ADD33R,1.2000X0.6000*%
%ADD34R,2.1000X0.6000*%
%ADD55C,0.7620*%
%ADD56C,0.6350*%
%ADD57C,1.2700*%
%ADD58R,1.7000X1.7000*%
%ADD59C,1.7000*%
%ADD60C,1.0000*%
%ADD61R,1.0000X1.0000*%
%ADD62C,0.6000*%
G36*
X565150Y841756D02*
Y829818D01*
Y822960D01*
X566928Y821182D01*
X575818D01*
X576834Y820166D01*
Y811530D01*
X575818Y810514D01*
X556260D01*
X549148Y817626D01*
X521462D01*
X518287Y820801D01*
Y840359D01*
X521462Y843534D01*
X549148Y843534D01*
X563372Y843534D01*
X565150Y841756D01*
D02*
G37*
G36*
X597470Y835088D02*
X602518D01*
Y832088D01*
X597470D01*
Y830088D01*
X602518D01*
Y827088D01*
X597470D01*
Y823488D01*
X576518D01*
X576518Y823488D01*
X573470D01*
Y827088D01*
X568318D01*
Y830088D01*
X573470D01*
Y832088D01*
X568318D01*
Y835088D01*
X573470D01*
Y838687D01*
X597470D01*
Y835088D01*
D02*
G37*
G36*
X714756Y840486D02*
Y815848D01*
X712470Y813562D01*
X708914D01*
X703834Y808482D01*
X685800D01*
X683768Y810514D01*
Y820166D01*
X688594Y824992D01*
X694690D01*
X698246Y828548D01*
Y841756D01*
X699262Y842772D01*
X712470D01*
X714756Y840486D01*
D02*
G37*
G36*
X609092Y796798D02*
Y792988D01*
X612648Y789432D01*
X695452D01*
X698500Y786384D01*
Y760476D01*
X695706Y757682D01*
X685292D01*
X672338Y770636D01*
X612394D01*
X609600Y767842D01*
Y758444D01*
X608076Y756920D01*
X595630D01*
X593598Y758952D01*
Y797052D01*
X595884Y799338D01*
X606552D01*
X609092Y796798D01*
D02*
G37*
G36*
X581914Y820420D02*
Y811530D01*
X583946Y809498D01*
X583946Y759206D01*
X581660Y756920D01*
X565404Y756920D01*
X563626Y758698D01*
Y794258D01*
X578612Y809244D01*
Y820674D01*
X578866Y820928D01*
X581406D01*
X581914Y820420D01*
D02*
G37*
D11*
X986282Y822336D02*
X993902D01*
X1001522D02*
Y828802D01*
X1187820Y885998D02*
Y886460D01*
X1043686Y942166D02*
X1044460Y941392D01*
X1043686Y942166D02*
Y943102D01*
X1044460Y924180D02*
Y941392D01*
X1047106Y773802D02*
X1072855D01*
X1081101Y765556D02*
X1098166D01*
X1072855Y773802D02*
X1081101Y765556D01*
X1035812Y762508D02*
X1047106Y773802D01*
X1098166Y765556D02*
X1105670Y773060D01*
X1106170D01*
X1199840Y873700D02*
X1202320Y871220D01*
X1199840Y873700D02*
Y876899D01*
X1187820Y885998D02*
X1190300Y883518D01*
X1193221D01*
X1199840Y876899D01*
X1172009Y878264D02*
X1192727D01*
X1195776Y875215D01*
Y863024D02*
Y875215D01*
Y863024D02*
X1202320Y856480D01*
Y855980D02*
Y856480D01*
X1168311Y881962D02*
X1172009Y878264D01*
X1150112Y882142D02*
X1150292Y881962D01*
X1168311D01*
X1144777Y886180D02*
X1148815Y882142D01*
X1132714Y886180D02*
X1144777D01*
X1148815Y882142D02*
X1150112D01*
X1114221Y937514D02*
X1121410D01*
X1109460Y924180D02*
X1109548Y924268D01*
Y932841D01*
X1114221Y937514D01*
X1007110Y836422D02*
X1007264Y836268D01*
X1021372D02*
X1021460Y836180D01*
X1007264Y836268D02*
X1021372D01*
X1122803Y828894D02*
X1125089Y831180D01*
X1114460Y828894D02*
X1122803D01*
X1106932Y836422D02*
X1114460Y828894D01*
Y813180D02*
Y828894D01*
X1109460Y797766D02*
Y813180D01*
X1108666Y796036D02*
Y796972D01*
X1109460Y797766D01*
X1121156Y750570D02*
Y758306D01*
X1121410Y758560D01*
X1105916Y758306D02*
X1106170Y758560D01*
X1105916Y750570D02*
Y758306D01*
X1090930Y750316D02*
Y758560D01*
X1001707Y807651D02*
X1002030Y807328D01*
Y799846D02*
Y807328D01*
X1009465Y807651D02*
X1009650Y807466D01*
X1001522Y807836D02*
X1001707Y807651D01*
X1009465D01*
X986213Y807905D02*
X986282Y807836D01*
X977461Y807905D02*
X986213D01*
X977392Y807974D02*
X977461Y807905D01*
X986028Y799592D02*
Y807582D01*
X986282Y807836D01*
X876046Y897128D02*
X876173Y897001D01*
Y890397D02*
X876300Y890270D01*
X876173Y890397D02*
Y897001D01*
Y890143D02*
X876300Y890270D01*
X876046Y877570D02*
X876173Y877697D01*
Y890143D01*
X907738Y903790D02*
X908050Y903478D01*
X907426Y912876D02*
X907738Y912564D01*
Y903790D02*
Y912564D01*
X907484Y921962D02*
X907542Y922020D01*
X907426Y912876D02*
X907484Y912934D01*
Y921962D01*
X617913Y763201D02*
X624909D01*
X617728Y763386D02*
X617913Y763201D01*
X624909D02*
X625094Y763016D01*
X633153Y763201D02*
X633222Y763132D01*
X633153Y763201D02*
X639895D01*
X632968Y763386D02*
X633153Y763201D01*
X639895D02*
X640080Y763016D01*
X655516Y763074D02*
X655828Y762762D01*
X648208Y763386D02*
X648520Y763074D01*
X655516D01*
X663956Y755650D02*
Y762878D01*
X663448Y763386D02*
X663956Y762878D01*
X648208Y755650D02*
Y763386D01*
X633222Y755650D02*
Y763132D01*
X617220Y756158D02*
Y762878D01*
X617728Y763386D01*
X704734Y763778D02*
X711962D01*
X704665Y763709D02*
X704734Y763778D01*
X704665Y756735D02*
Y763709D01*
X704596Y756666D02*
X704665Y756735D01*
X704792Y771594D02*
X704850Y771652D01*
X704734Y763778D02*
X704792Y763836D01*
Y771594D01*
X689668Y834702D02*
X689726Y834644D01*
X689218Y835152D02*
X689668Y834702D01*
X682244Y835152D02*
X689218D01*
X689610Y842264D02*
X689668Y842206D01*
Y834702D02*
Y842206D01*
X542290Y801878D02*
Y809360D01*
X534162Y808990D02*
X534347Y809175D01*
X542105D02*
X542290Y809360D01*
X534347Y809175D02*
X542105D01*
X517652Y809498D02*
X517721Y809429D01*
X525711D01*
X525780Y809360D01*
X525382Y803004D02*
Y808962D01*
X525780Y809360D01*
X623570Y886090D02*
Y893572D01*
X608330Y886090D02*
Y893318D01*
X608468Y902208D02*
X615442D01*
X607960Y901700D02*
X608468Y902208D01*
X578104Y886344D02*
Y893064D01*
X577850Y886090D02*
X578104Y886344D01*
X532130Y886090D02*
Y893064D01*
X542290Y852700D02*
X552634D01*
X552656Y852678D01*
X526034Y852954D02*
Y859282D01*
X525780Y852700D02*
X526034Y852954D01*
X993648Y828802D02*
X993902Y828548D01*
Y822336D02*
Y828548D01*
Y822336D02*
X1001522D01*
X1004002Y824816D01*
X1039460Y913066D02*
Y936260D01*
Y913066D02*
X1044666Y907860D01*
X1104460D01*
Y924180D01*
Y891540D02*
Y907860D01*
Y837760D02*
Y891540D01*
X1104820Y891180D02*
X1132714D01*
X1104460Y891540D02*
X1104820Y891180D01*
X1103122Y836422D02*
X1106932D01*
X1082040D02*
X1103122D01*
X1104460Y837760D01*
X1076798Y831180D02*
X1082040Y836422D01*
X1125089Y831180D02*
X1132714D01*
X1021460D02*
X1076798D01*
X1007596Y824816D02*
X1013960Y831180D01*
X1021460D01*
X1004002Y824816D02*
X1007596D01*
X1113790Y773060D02*
X1121410D01*
X1106170D02*
X1113790D01*
X1114460Y773730D01*
Y813180D01*
X1187820Y887222D02*
Y901700D01*
X1145524Y891180D02*
X1149482Y887222D01*
X1187058D01*
X1132714Y891180D02*
X1145524D01*
X1105730Y944810D02*
Y945310D01*
X1104460Y924180D02*
Y943540D01*
X1108210Y947790D02*
X1108710D01*
X1105730Y945310D02*
X1108210Y947790D01*
X1104460Y943540D02*
X1105730Y944810D01*
X1108710Y947790D02*
X1123950D01*
X1027930D02*
X1039460Y936260D01*
X1027430Y947790D02*
X1027930D01*
X638810Y780796D02*
X641096Y778510D01*
X638810Y780796D02*
Y871590D01*
X592836Y830834D02*
X595381Y828289D01*
Y816074D02*
Y828289D01*
X590380Y816074D02*
Y828972D01*
X589280Y830072D02*
X590380Y828972D01*
X585381Y827443D02*
X585724Y827786D01*
X585381Y816074D02*
Y827443D01*
D12*
X1229868Y806196D02*
Y824992D01*
X1209414Y845446D02*
X1229868Y824992D01*
X1186314Y845446D02*
X1209414D01*
X1204468Y780796D02*
X1229868Y806196D01*
X1165098Y802894D02*
X1187196Y780796D01*
X1204468D01*
X1171956Y825759D02*
X1178705Y819010D01*
X1165098Y818901D02*
X1171956Y825759D01*
X1165098Y802894D02*
Y818901D01*
X1171956Y825759D02*
Y826008D01*
X1178705Y817396D02*
Y819010D01*
D14*
X967740Y782066D02*
X985012Y764794D01*
Y762508D02*
Y764794D01*
X1010412Y762508D02*
X1010920Y763016D01*
Y787146D01*
X1030470Y806696D02*
X1039013D01*
X1039460Y807143D02*
Y813180D01*
X1039013Y806696D02*
X1039460Y807143D01*
X1010920Y787146D02*
X1030470Y806696D01*
X967740Y782066D02*
Y824738D01*
X984964Y841962D02*
X1009405D01*
X967740Y824738D02*
X984964Y841962D01*
X1010187Y841180D02*
X1021460D01*
X1009405Y841962D02*
X1010187Y841180D01*
X947166Y828040D02*
X980306Y861180D01*
X1021460D01*
X917586Y828040D02*
X947166D01*
X688340Y876554D02*
X716534Y848360D01*
X959612D01*
X982926Y856180D02*
X1021460D01*
X917586Y797560D02*
X932180D01*
X977432Y866180D02*
X1021460D01*
X985774Y851154D02*
X1021434D01*
X955040Y851916D02*
X974304Y871180D01*
X1021460D01*
X939546Y812800D02*
X982926Y856180D01*
X959612Y848360D02*
X977432Y866180D01*
X932180Y797560D02*
X985774Y851154D01*
X718007Y851916D02*
X955040D01*
X917586Y812800D02*
X939546D01*
X866140Y1023620D02*
X892302Y997458D01*
Y954024D02*
Y997458D01*
Y954024D02*
X965686Y880640D01*
X902462Y959612D02*
Y1014730D01*
X975894Y886180D02*
X1021460D01*
X902462Y959612D02*
X975894Y886180D01*
X965686Y880640D02*
X1004570D01*
X929778Y949658D02*
Y963422D01*
X988256Y891180D02*
X1021460D01*
X929778Y949658D02*
X988256Y891180D01*
X929778Y963422D02*
X929778Y963422D01*
X941070Y1042924D02*
X976376Y1007618D01*
Y919734D02*
X999930Y896180D01*
X976376Y919734D02*
Y1007618D01*
X999930Y896180D02*
X1021460D01*
X1113028Y861060D02*
X1113088Y861120D01*
X1132654D02*
X1132714Y861180D01*
X1113088Y861120D02*
X1132654D01*
X866140Y1042670D02*
Y1076960D01*
X874522Y1042670D02*
X902462Y1014730D01*
X866140Y1042670D02*
X874522D01*
X834136Y997966D02*
X834390Y998220D01*
X866140D01*
X834136Y997966D02*
Y1013206D01*
X812749Y962152D02*
X845566D01*
X796036Y978865D02*
X812749Y962152D01*
X845566D02*
X863346Y944372D01*
X844093Y958596D02*
X849346Y953343D01*
Y944626D02*
Y953343D01*
X792480Y977392D02*
X811276Y958596D01*
X844093D01*
X929640Y966100D02*
Y998220D01*
Y1043294D02*
Y1076960D01*
X930010Y1042924D02*
X941070D01*
X929778Y963422D02*
Y965962D01*
X929640Y966100D02*
X929778Y965962D01*
X929640Y1043294D02*
X930010Y1042924D01*
X796036Y978865D02*
Y1044194D01*
X805434Y1053592D01*
X792480Y977392D02*
Y1091438D01*
X849346Y926506D02*
Y944626D01*
X863346Y911976D02*
Y944372D01*
X792480Y1091438D02*
X805434Y1104392D01*
X1146759Y861180D02*
X1147641Y860298D01*
X1187320Y859852D02*
X1187820D01*
X1132714Y861180D02*
X1146759D01*
X1186874Y860298D02*
X1187320Y859852D01*
X1147641Y860298D02*
X1186874D01*
X691896Y878027D02*
Y978866D01*
Y878027D02*
X718007Y851916D01*
X691896Y978866D02*
X702310Y989280D01*
X688340Y876554D02*
Y977850D01*
X676910Y989280D02*
X688340Y977850D01*
X863346Y877570D02*
Y911976D01*
X877316D01*
X878216Y912876D02*
X892926D01*
X877316Y911976D02*
X878216Y912876D01*
X626110Y989280D02*
X651510D01*
X901434Y795908D02*
X903086Y797560D01*
X865056Y783280D02*
X893262D01*
X901434Y791452D01*
Y795908D01*
X858266Y789570D02*
X858766D01*
X857766D02*
X858266D01*
X858766D02*
X865056Y783280D01*
X837946Y794150D02*
X842526Y789570D01*
X843026D01*
X837946Y794150D02*
Y821690D01*
X850646Y796690D02*
Y821690D01*
Y796690D02*
X857766Y789570D01*
X900352Y816034D02*
X903086Y813300D01*
X899852Y816034D02*
X900352D01*
X876046Y821690D02*
X894196D01*
X903086Y812800D02*
Y813300D01*
X894196Y821690D02*
X899852Y816034D01*
X903086Y828040D02*
Y828540D01*
X897236Y834390D02*
X903086Y828540D01*
X843534Y834390D02*
X897236D01*
X837946Y828802D02*
X843534Y834390D01*
X837946Y821690D02*
Y828802D01*
X1090930Y797602D02*
X1094460Y801132D01*
X1090930Y773060D02*
Y797602D01*
X1094460Y801132D02*
Y813180D01*
X1021434Y851154D02*
X1021460Y851180D01*
X843026Y739140D02*
Y775070D01*
X842518Y738632D02*
X843026Y739140D01*
X858266Y775070D02*
X873506D01*
X843026D02*
X858266D01*
X547116Y886344D02*
Y892810D01*
X502666Y902970D02*
X556006D01*
X562610Y896366D01*
Y886090D02*
Y896366D01*
X1187820Y860298D02*
Y871220D01*
Y855980D02*
Y859852D01*
Y871220D02*
X1187820Y871220D01*
X1190726Y805375D02*
X1197897Y812546D01*
X1159263Y851180D02*
X1197897Y812546D01*
X1204602Y796932D02*
Y805841D01*
X1197897Y812546D02*
X1204602Y805841D01*
X1132714Y851180D02*
X1159263D01*
X1193554Y832245D02*
X1193554D01*
X1179950Y839082D02*
X1186717D01*
X1193554Y832245D01*
X1169619Y856180D02*
X1179950Y845849D01*
Y839082D02*
Y845849D01*
X1132714Y856180D02*
X1169619D01*
X1160018Y1033729D02*
X1172515Y1046226D01*
X1193546D01*
X1160018Y947928D02*
Y1033729D01*
X1193546Y1046226D02*
X1202690Y1055370D01*
X1163574Y946455D02*
Y1032256D01*
X1173988Y1042670D02*
X1209154D01*
X1163574Y1032256D02*
X1173988Y1042670D01*
X1139190Y906627D02*
Y922071D01*
X1163574Y946455D01*
X1114460Y924180D02*
X1136270D01*
X1160018Y947928D01*
X1215390Y1048906D02*
Y1074166D01*
X1209154Y1042670D02*
X1215390Y1048906D01*
X1211650Y1077906D02*
X1215390Y1074166D01*
X1202690Y1080770D02*
X1205554Y1077906D01*
X1211650D01*
X1049460Y924180D02*
Y988820D01*
X1034796Y1003484D02*
X1049460Y988820D01*
X1034796Y1003484D02*
Y1003484D01*
X1009580Y1028700D02*
X1034796Y1003484D01*
X1054460Y924180D02*
Y996320D01*
X1022080Y1028700D02*
X1054460Y996320D01*
X1059460Y924180D02*
Y1003820D01*
X1034580Y1028700D02*
X1059460Y1003820D01*
X1047042Y1028662D02*
X1064260Y1011444D01*
Y928116D02*
Y1011444D01*
X1059580Y1028700D02*
X1069460Y1018820D01*
Y924180D02*
Y1018820D01*
X1072080Y1026544D02*
X1074460Y1024164D01*
Y924180D02*
Y1024164D01*
X1072080Y1026544D02*
Y1028700D01*
X1094460Y924180D02*
Y1001080D01*
X1122080Y1028700D01*
X1089460Y924180D02*
Y1008580D01*
X1109580Y1028700D01*
X1084460Y924180D02*
Y1016080D01*
X1097080Y1028700D01*
X1079460Y1023580D02*
X1084580Y1028700D01*
X1079460Y924180D02*
Y1023580D01*
X997080Y918588D02*
X1009488Y906180D01*
X1021460D01*
X997080Y918588D02*
Y1028700D01*
X1005090Y901180D02*
X1021460D01*
X984250Y922020D02*
X1005090Y901180D01*
X984250Y922020D02*
Y1028370D01*
X984580Y1028700D01*
X580136Y803910D02*
X580258Y804032D01*
Y815952D02*
X580380Y816074D01*
X580258Y804032D02*
Y815952D01*
X547116Y886344D02*
X547370Y886090D01*
X543160Y861060D02*
X568452D01*
X532630Y871590D02*
X543160Y861060D01*
X568452D02*
X575381Y854131D01*
Y846071D02*
Y854131D01*
X547870Y871590D02*
X554844Y864616D01*
X574040D02*
X580380Y858276D01*
X554844Y864616D02*
X574040D01*
X532130Y871590D02*
X532630D01*
X547370Y871590D02*
X547870D01*
X580380Y846071D02*
Y858276D01*
X585381Y846071D02*
Y864059D01*
X578350Y871590D02*
X581084Y868856D01*
Y868356D02*
Y868856D01*
Y868356D02*
X585381Y864059D01*
X577850Y871590D02*
X578350D01*
X562610Y871590D02*
X562610Y871590D01*
X577850D01*
X593090Y886090D02*
X593460Y886460D01*
Y901700D01*
X590380Y868880D02*
X593090Y871590D01*
X590380Y846071D02*
Y868880D01*
X593090Y871590D02*
X593090Y871590D01*
X608330D01*
X623062Y873252D02*
X625732D01*
X595122Y845312D02*
Y848312D01*
X623070Y871590D02*
X623570D01*
X600535Y849055D02*
X623070Y871590D01*
X595865Y849055D02*
X600535D01*
X595122Y848312D02*
X595865Y849055D01*
X625732Y873252D02*
X626804Y874324D01*
X638310Y886090D02*
X638810D01*
X626804Y874584D02*
X638310Y886090D01*
X626804Y874324D02*
Y874584D01*
X527050Y838200D02*
X542290D01*
X837946Y885782D02*
X839463Y887298D01*
Y887722D02*
X846142Y894402D01*
Y909242D01*
X839463Y887298D02*
Y887722D01*
X837946Y877570D02*
Y885782D01*
X857504Y891540D02*
Y918848D01*
X850646Y877570D02*
Y884682D01*
X857504Y891540D01*
X849876Y926476D02*
X857504Y918848D01*
X849376Y926476D02*
X849876D01*
X849346Y926506D02*
X849376Y926476D01*
X877316Y926476D02*
X877346Y926506D01*
Y944626D01*
X846142Y909242D02*
X848876Y911976D01*
X849376D01*
X873006Y789570D02*
X873506D01*
X863346Y799230D02*
Y821690D01*
Y799230D02*
X873006Y789570D01*
X1089460Y813180D02*
X1089466Y813186D01*
Y830066D02*
X1089472Y830072D01*
X1089466Y813186D02*
Y830066D01*
X1099454Y813174D02*
X1099460Y813180D01*
X1099448Y796288D02*
X1099454Y796294D01*
Y813174D01*
X1104460Y813180D02*
X1104466Y813186D01*
Y830066D02*
X1104472Y830072D01*
X1104466Y813186D02*
Y830066D01*
X1132714Y876180D02*
X1132720Y876174D01*
X1149600D02*
X1149606Y876168D01*
X1132720Y876174D02*
X1149600D01*
X1132714Y866180D02*
X1132720Y866174D01*
X1149600D01*
X1132714Y841180D02*
X1132720Y841174D01*
X1149600D02*
X1149606Y841168D01*
X1132720Y841174D02*
X1149600D01*
X1132708Y836186D02*
X1132714Y836180D01*
X1115822Y836192D02*
X1115828Y836186D01*
X1132708D01*
Y846186D02*
X1132714Y846180D01*
X1115822Y846192D02*
X1115828Y846186D01*
X1132708D01*
Y871186D02*
X1132714Y871180D01*
X1115822Y871192D02*
X1115828Y871186D01*
X1132708D01*
Y881186D02*
X1132714Y881180D01*
X1115822Y881192D02*
X1115828Y881186D01*
X1132708D01*
X1132714Y896180D02*
X1132720Y896174D01*
X1149600D02*
X1149606Y896168D01*
X1132720Y896174D02*
X1149600D01*
X1115828Y901186D02*
X1132708D01*
X1115822Y901192D02*
X1115828Y901186D01*
X1132708D02*
X1132714Y901180D01*
Y906180D02*
X1138743D01*
X1139190Y906627D01*
D20*
X764540Y1115430D02*
D03*
Y1129930D02*
D03*
X779780Y1115430D02*
D03*
Y1129930D02*
D03*
X877316Y911976D02*
D03*
Y926476D02*
D03*
X849376Y926476D02*
D03*
Y911976D02*
D03*
X858266Y789570D02*
D03*
Y775070D02*
D03*
X1123950Y947790D02*
D03*
Y962290D02*
D03*
X617728Y763386D02*
D03*
Y777886D02*
D03*
X632968Y763386D02*
D03*
Y777886D02*
D03*
X547370Y886090D02*
D03*
Y871590D02*
D03*
X562610Y886090D02*
D03*
Y871590D02*
D03*
X663448Y763386D02*
D03*
Y777886D02*
D03*
X648208Y763386D02*
D03*
Y777886D02*
D03*
X525780Y809360D02*
D03*
Y823860D02*
D03*
X542290Y809360D02*
D03*
Y823860D02*
D03*
Y852700D02*
D03*
Y838200D02*
D03*
X525780Y852700D02*
D03*
Y838200D02*
D03*
X638810Y871590D02*
D03*
Y886090D02*
D03*
X593090Y871590D02*
D03*
Y886090D02*
D03*
X532130Y871590D02*
D03*
Y886090D02*
D03*
X577850Y871590D02*
D03*
Y886090D02*
D03*
X623570Y871590D02*
D03*
Y886090D02*
D03*
X608330Y886090D02*
D03*
Y871590D02*
D03*
X1090930Y773060D02*
D03*
Y758560D02*
D03*
X843026Y789570D02*
D03*
Y775070D02*
D03*
X1121410Y773060D02*
D03*
Y758560D02*
D03*
X1106170Y773060D02*
D03*
Y758560D02*
D03*
X986282Y807836D02*
D03*
Y822336D02*
D03*
X1001522Y807836D02*
D03*
Y822336D02*
D03*
X873506Y789570D02*
D03*
Y775070D02*
D03*
X1027430Y962290D02*
D03*
Y947790D02*
D03*
X1012190Y962290D02*
D03*
Y947790D02*
D03*
X1108710D02*
D03*
Y962290D02*
D03*
D21*
X834136Y997966D02*
D03*
X819636D02*
D03*
X834136Y1013206D02*
D03*
X819636D02*
D03*
X866140Y1058164D02*
D03*
X851640D02*
D03*
X866140Y1042670D02*
D03*
X851640D02*
D03*
X930010Y1042924D02*
D03*
X915510D02*
D03*
X929894Y1058418D02*
D03*
X915394D02*
D03*
X929778Y979170D02*
D03*
X915278D02*
D03*
X929778Y963422D02*
D03*
X915278D02*
D03*
X907426Y912876D02*
D03*
X892926D02*
D03*
X917586Y812800D02*
D03*
X903086D02*
D03*
X1187820Y871220D02*
D03*
X1202320D02*
D03*
X689726Y834644D02*
D03*
X704226D02*
D03*
X704734Y763778D02*
D03*
X690234D02*
D03*
X607960Y901700D02*
D03*
X593460D02*
D03*
X1202320Y855980D02*
D03*
X1187820D02*
D03*
X917586Y828040D02*
D03*
X903086D02*
D03*
X917586Y797560D02*
D03*
X903086D02*
D03*
X1202320Y886460D02*
D03*
X1187820D02*
D03*
X1202320Y901700D02*
D03*
X1187820D02*
D03*
D22*
X876046Y877570D02*
D03*
X863346D02*
D03*
X850646D02*
D03*
X837946D02*
D03*
X876046Y821690D02*
D03*
X850646D02*
D03*
X837946D02*
D03*
X863346D02*
D03*
D23*
X1114460Y813180D02*
D03*
X1109460D02*
D03*
X1104460D02*
D03*
X1099460D02*
D03*
X1094460D02*
D03*
X1089460D02*
D03*
X1084460Y813180D02*
D03*
X1079460D02*
D03*
X1074460Y813180D02*
D03*
X1069460D02*
D03*
X1064460D02*
D03*
X1059460D02*
D03*
X1054460D02*
D03*
X1049460Y813180D02*
D03*
X1044460D02*
D03*
X1039460Y813180D02*
D03*
X1039460Y924180D02*
D03*
X1044460D02*
D03*
X1049460D02*
D03*
X1054460D02*
D03*
X1059460D02*
D03*
X1064460D02*
D03*
X1069460D02*
D03*
X1074460D02*
D03*
X1079460D02*
D03*
X1084460D02*
D03*
X1089460D02*
D03*
X1094460Y924180D02*
D03*
X1099460D02*
D03*
X1104460Y924180D02*
D03*
X1109460D02*
D03*
X1114460D02*
D03*
D24*
X1021460Y831180D02*
D03*
X1021460Y836180D02*
D03*
Y841180D02*
D03*
X1021460Y846180D02*
D03*
Y851180D02*
D03*
Y856180D02*
D03*
Y861180D02*
D03*
Y866180D02*
D03*
X1021460Y871180D02*
D03*
Y876180D02*
D03*
Y881180D02*
D03*
X1021460Y886180D02*
D03*
Y891180D02*
D03*
Y896180D02*
D03*
Y901180D02*
D03*
Y906180D02*
D03*
X1132714D02*
D03*
Y901180D02*
D03*
Y896180D02*
D03*
Y891180D02*
D03*
Y886180D02*
D03*
Y881180D02*
D03*
Y876180D02*
D03*
Y871180D02*
D03*
Y866180D02*
D03*
Y861180D02*
D03*
Y856180D02*
D03*
Y851180D02*
D03*
Y846180D02*
D03*
Y841180D02*
D03*
Y836180D02*
D03*
Y831180D02*
D03*
D25*
X849346Y944626D02*
D03*
D26*
X877346D02*
D03*
D27*
X1190726Y805375D02*
D03*
X1205575Y820224D02*
D03*
X1193554Y832245D02*
D03*
X1178705Y817396D02*
D03*
D28*
X1186314Y845446D02*
D03*
X1179950Y839082D02*
D03*
X1198238Y790568D02*
D03*
X1204602Y796932D02*
D03*
D29*
X575381Y816074D02*
D03*
X580380D02*
D03*
X585381D02*
D03*
X590380D02*
D03*
X595381D02*
D03*
Y846071D02*
D03*
X590380D02*
D03*
X585381D02*
D03*
X575381D02*
D03*
X580380D02*
D03*
D30*
X585470Y831088D02*
D03*
D31*
X600470Y777748D02*
D03*
X570470D02*
D03*
D32*
X720090Y799592D02*
D03*
D33*
X690898Y784592D02*
D03*
Y814592D02*
D03*
D34*
X695198Y799592D02*
D03*
D55*
X993648Y828802D02*
X1001522D01*
X986282D02*
X993648D01*
X986282Y822336D02*
Y828802D01*
X842518Y738632D02*
X1236726D01*
X702056D02*
X842518D01*
X1234186Y1029970D02*
X1253998Y1010158D01*
Y755904D02*
Y1010158D01*
X1202690Y1029970D02*
X1234186D01*
X1236726Y738632D02*
X1253998Y755904D01*
X690294Y750394D02*
X702056Y738632D01*
X690234Y763778D02*
X690294Y763718D01*
Y750394D02*
Y763718D01*
D56*
X1194562Y786892D02*
X1198238Y790568D01*
X1206304Y820224D02*
X1212850Y826770D01*
X1205575Y820224D02*
X1206304D01*
X1202320Y855980D02*
X1210310D01*
X1202182Y901838D02*
Y909066D01*
Y901838D02*
X1202320Y901700D01*
Y886460D02*
Y901700D01*
X1108710Y962290D02*
Y969518D01*
X1124137Y962290D02*
X1124712Y962865D01*
Y969264D01*
X1123950Y962290D02*
X1124137D01*
X1012190D02*
Y969010D01*
X1027684Y962544D02*
Y967994D01*
X1027430Y962290D02*
X1027684Y962544D01*
X915510Y1042924D02*
Y1066960D01*
X915416Y1067054D02*
X915510Y1066960D01*
X851640Y1042670D02*
Y1065762D01*
X851916Y1066038D01*
X819636Y1013206D02*
Y1022074D01*
Y997966D02*
Y1013206D01*
Y1022074D02*
X819912Y1022350D01*
X915278Y963422D02*
Y987436D01*
X915162Y987552D02*
X915278Y987436D01*
X764540Y1115430D02*
X779780D01*
X709002Y1120140D02*
X759330D01*
X763965Y1116005D02*
X764540Y1115430D01*
X763465Y1116005D02*
X763965D01*
X759330Y1120140D02*
X763465Y1116005D01*
X702310Y1116330D02*
X705192D01*
X709002Y1120140D01*
X723900Y1130438D02*
X779272D01*
X691018D02*
X723900D01*
X779272D02*
X779780Y1129930D01*
X1012190Y947790D02*
X1027430D01*
X723900Y1130438D02*
X739394D01*
X676910Y1116330D02*
X691018Y1130438D01*
D57*
X787400Y1145540D02*
X805673Y1127267D01*
X805434Y1104392D02*
Y1106303D01*
X805673Y1106542D01*
X526034Y1145540D02*
X787400D01*
X805673Y1106542D02*
Y1127267D01*
X630174Y1027430D02*
X744220D01*
X638048Y1052830D02*
X744220D01*
X649986Y1078230D02*
X744220D01*
X709092Y1099956D02*
X712766Y1103630D01*
X744220D01*
X661099Y1099956D02*
X709092D01*
X513999Y831850D02*
X527050D01*
X502666Y902970D02*
Y1122172D01*
Y843183D02*
Y902970D01*
X511175Y1130681D02*
X526034Y1145540D01*
X652333Y1108723D02*
Y1115507D01*
Y1108723D02*
X661099Y1099956D01*
X651510Y1116330D02*
X652333Y1115507D01*
X626110Y1102106D02*
X649986Y1078230D01*
X626110Y1102106D02*
Y1116330D01*
X600710Y1090168D02*
Y1116330D01*
Y1090168D02*
X638048Y1052830D01*
X575310Y1082294D02*
X630174Y1027430D01*
X575310Y1082294D02*
Y1116330D01*
X502666Y1122172D02*
X511175Y1130681D01*
Y1129665D02*
X524510Y1116330D01*
X511175Y1129665D02*
Y1130681D01*
X502666Y843183D02*
X513999Y831850D01*
D58*
X1061212Y762508D02*
D03*
X866140Y1102360D02*
D03*
Y1023620D02*
D03*
X929640Y1102360D02*
D03*
Y1023620D02*
D03*
X524510Y989280D02*
D03*
X1202690Y1106170D02*
D03*
X744220Y1103630D02*
D03*
X524510Y1116330D02*
D03*
X805434Y1104392D02*
D03*
D59*
X1035812Y762508D02*
D03*
X1010412D02*
D03*
X985012D02*
D03*
X866140Y1076960D02*
D03*
Y998220D02*
D03*
X929640Y1076960D02*
D03*
Y998220D02*
D03*
X702310Y989280D02*
D03*
X676910D02*
D03*
X651510D02*
D03*
X626110D02*
D03*
X600710D02*
D03*
X575310D02*
D03*
X549910D02*
D03*
X1202690Y1029970D02*
D03*
Y1055370D02*
D03*
Y1080770D02*
D03*
X744220Y1027430D02*
D03*
Y1052830D02*
D03*
Y1078230D02*
D03*
X702310Y1116330D02*
D03*
X676910D02*
D03*
X651510D02*
D03*
X626110D02*
D03*
X600710D02*
D03*
X575310D02*
D03*
X549910D02*
D03*
X805434Y1078992D02*
D03*
Y1053592D02*
D03*
D60*
X1109180Y1116330D02*
D03*
X996680D02*
D03*
X1009180D02*
D03*
X1021680D02*
D03*
X1034180D02*
D03*
X1046680D02*
D03*
X1059180D02*
D03*
X1071680D02*
D03*
X1084180D02*
D03*
X1096680D02*
D03*
X1121680D02*
D03*
X1109580Y1028700D02*
D03*
X997080D02*
D03*
X1009580D02*
D03*
X1022080D02*
D03*
X1034580D02*
D03*
X1047080D02*
D03*
X1059580D02*
D03*
X1072080D02*
D03*
X1084580D02*
D03*
X1097080D02*
D03*
X1122080D02*
D03*
D61*
X984180Y1116330D02*
D03*
X984580Y1028700D02*
D03*
D62*
X709930Y823722D02*
D03*
X701548Y823468D02*
D03*
X701802Y817118D02*
D03*
X1001522Y828802D02*
D03*
X986282D02*
D03*
X710438Y817118D02*
D03*
X1043686Y943102D02*
D03*
X1121410Y937514D02*
D03*
X1007110Y836422D02*
D03*
X1219641Y835219D02*
D03*
X1209414Y845446D02*
D03*
X1229868Y824992D02*
D03*
X1217168Y793496D02*
D03*
X1229868Y806196D02*
D03*
X1165098Y802894D02*
D03*
X1187196Y780796D02*
D03*
X1204468D02*
D03*
X1194562Y786892D02*
D03*
X1212850Y826770D02*
D03*
X1210310Y855980D02*
D03*
X1202182Y909066D02*
D03*
X1108710Y969518D02*
D03*
X1124712Y969264D02*
D03*
X1012190Y969010D02*
D03*
X1027684Y967994D02*
D03*
X1004570Y880640D02*
D03*
X585492Y831066D02*
D03*
X594636Y826240D02*
D03*
X576348Y826494D02*
D03*
X594382Y835638D02*
D03*
X576856Y835384D02*
D03*
X915416Y1067054D02*
D03*
X851916Y1066038D02*
D03*
X819912Y1022350D02*
D03*
X915162Y987552D02*
D03*
X1113028Y861060D02*
D03*
X1108666Y796036D02*
D03*
X1171956Y826008D02*
D03*
X1121156Y750570D02*
D03*
X1105916D02*
D03*
X1090930Y750316D02*
D03*
X1002030Y799846D02*
D03*
X1009650Y807466D02*
D03*
X977392Y807974D02*
D03*
X986028Y799592D02*
D03*
X876046Y897128D02*
D03*
X876300Y890270D02*
D03*
X908050Y903478D02*
D03*
X907542Y922020D02*
D03*
X625094Y763016D02*
D03*
X640080D02*
D03*
X655828Y762762D02*
D03*
X663956Y755650D02*
D03*
X648208D02*
D03*
X633222D02*
D03*
X617220Y756158D02*
D03*
X730647Y794257D02*
D03*
X721757Y794511D02*
D03*
X712359Y794257D02*
D03*
X730139Y804925D02*
D03*
X721503D02*
D03*
X712359Y805179D02*
D03*
X711962Y763778D02*
D03*
X704596Y756666D02*
D03*
X704850Y771652D02*
D03*
X682244Y835152D02*
D03*
X689610Y842264D02*
D03*
X542290Y801878D02*
D03*
X534162Y808990D02*
D03*
X517652Y809498D02*
D03*
X525382Y803004D02*
D03*
X623570Y893572D02*
D03*
X608330Y893318D02*
D03*
X615442Y902208D02*
D03*
X578104Y893064D02*
D03*
X532130D02*
D03*
X552656Y852678D02*
D03*
X526034Y859282D02*
D03*
X993648Y828802D02*
D03*
X547116Y892810D02*
D03*
X580136Y803910D02*
D03*
X1149600Y866174D02*
D03*
X1089472Y830072D02*
D03*
X1099448Y796288D02*
D03*
X1104472Y830072D02*
D03*
X1149606Y876168D02*
D03*
Y841168D02*
D03*
X1115822Y836192D02*
D03*
Y846192D02*
D03*
Y871192D02*
D03*
Y881192D02*
D03*
X1149606Y896168D02*
D03*
X1115822Y901192D02*
D03*
M02*
