G04*
G04 #@! TF.GenerationSoftware,Altium Limited,Altium Designer,24.0.1 (36)*
G04*
G04 Layer_Color=8388736*
%FSLAX44Y44*%
%MOMM*%
G71*
G04*
G04 #@! TF.SameCoordinates,5B0ED70E-373C-42BA-93D7-FD99D67A1B07*
G04*
G04*
G04 #@! TF.FilePolarity,Negative*
G04*
G01*
G75*
%ADD35R,1.0532X0.9532*%
%ADD36R,0.9532X1.0532*%
%ADD37O,0.8128X2.2352*%
%ADD38O,0.5032X2.0032*%
%ADD39O,2.0032X0.5032*%
%ADD40R,1.2032X1.0032*%
G04:AMPARAMS|DCode=41|XSize=1.2032mm|YSize=1.0032mm|CornerRadius=0mm|HoleSize=0mm|Usage=FLASHONLY|Rotation=0.000|XOffset=0mm|YOffset=0mm|HoleType=Round|Shape=Octagon|*
%AMOCTAGOND41*
4,1,8,0.6016,-0.2508,0.6016,0.2508,0.3508,0.5016,-0.3508,0.5016,-0.6016,0.2508,-0.6016,-0.2508,-0.3508,-0.5016,0.3508,-0.5016,0.6016,-0.2508,0.0*
%
%ADD41OCTAGOND41*%

G04:AMPARAMS|DCode=42|XSize=1.5032mm|YSize=1.4032mm|CornerRadius=0mm|HoleSize=0mm|Usage=FLASHONLY|Rotation=225.000|XOffset=0mm|YOffset=0mm|HoleType=Round|Shape=Rectangle|*
%AMROTATEDRECTD42*
4,1,4,0.0354,1.0276,1.0276,0.0354,-0.0354,-1.0276,-1.0276,-0.0354,0.0354,1.0276,0.0*
%
%ADD42ROTATEDRECTD42*%

%ADD43P,0.9945X4X90.0*%
%ADD44R,0.5032X1.0032*%
%ADD45R,2.6032X1.7232*%
%ADD46R,1.3032X3.9032*%
G04:AMPARAMS|DCode=47|XSize=2.0032mm|YSize=3.2032mm|CornerRadius=0mm|HoleSize=0mm|Usage=FLASHONLY|Rotation=90.000|XOffset=0mm|YOffset=0mm|HoleType=Round|Shape=Octagon|*
%AMOCTAGOND47*
4,1,8,-1.6016,-0.5008,-1.6016,0.5008,-1.1008,1.0016,1.1008,1.0016,1.6016,0.5008,1.6016,-0.5008,1.1008,-1.0016,-1.1008,-1.0016,-1.6016,-0.5008,0.0*
%
%ADD47OCTAGOND47*%

%ADD48R,1.4032X0.8032*%
%ADD49R,2.3032X0.8032*%
%ADD50R,1.9032X1.9032*%
%ADD51C,1.9032*%
%ADD52C,1.2032*%
%ADD53R,1.2032X1.2032*%
%ADD54C,0.8032*%
G36*
X597570Y839188D02*
X597665Y839159D01*
X597754Y839112D01*
X597831Y839048D01*
X597894Y838971D01*
X597942Y838883D01*
X597971Y838787D01*
X597980Y838687D01*
Y835599D01*
X602518D01*
X602618Y835589D01*
X602714Y835560D01*
X602802Y835512D01*
X602879Y835449D01*
X602943Y835372D01*
X602990Y835283D01*
X603019Y835188D01*
X603029Y835088D01*
Y832088D01*
X603019Y831988D01*
X602990Y831893D01*
X602943Y831804D01*
X602879Y831727D01*
X602802Y831664D01*
X602714Y831616D01*
X602618Y831587D01*
X602518Y831578D01*
X597980D01*
Y830599D01*
X602518D01*
X602618Y830589D01*
X602714Y830560D01*
X602802Y830512D01*
X602879Y830449D01*
X602943Y830372D01*
X602990Y830283D01*
X603019Y830188D01*
X603029Y830088D01*
Y827088D01*
X603019Y826988D01*
X602990Y826893D01*
X602943Y826804D01*
X602879Y826727D01*
X602802Y826664D01*
X602714Y826616D01*
X602618Y826587D01*
X602518Y826578D01*
X597980D01*
Y823488D01*
X597971Y823388D01*
X597942Y823292D01*
X597894Y823204D01*
X597831Y823127D01*
X597754Y823063D01*
X597665Y823016D01*
X597570Y822987D01*
X597470Y822977D01*
X576518D01*
X576516Y822977D01*
X573470D01*
X573370Y822987D01*
X573275Y823016D01*
X573186Y823063D01*
X573109Y823127D01*
X573046Y823204D01*
X572998Y823292D01*
X572969Y823388D01*
X572960Y823488D01*
Y826578D01*
X568318D01*
X568218Y826587D01*
X568123Y826616D01*
X568035Y826664D01*
X567957Y826727D01*
X567894Y826804D01*
X567846Y826893D01*
X567817Y826988D01*
X567808Y827088D01*
Y830088D01*
X567817Y830188D01*
X567846Y830283D01*
X567894Y830372D01*
X567957Y830449D01*
X568035Y830512D01*
X568123Y830560D01*
X568218Y830589D01*
X568318Y830599D01*
X572960D01*
Y831578D01*
X568318D01*
X568218Y831587D01*
X568123Y831616D01*
X568035Y831664D01*
X567957Y831727D01*
X567894Y831804D01*
X567846Y831893D01*
X567817Y831988D01*
X567808Y832088D01*
Y835088D01*
X567817Y835188D01*
X567846Y835283D01*
X567894Y835372D01*
X567957Y835449D01*
X568035Y835512D01*
X568123Y835560D01*
X568218Y835589D01*
X568318Y835599D01*
X572960D01*
Y838687D01*
X572969Y838787D01*
X572998Y838883D01*
X573046Y838971D01*
X573109Y839048D01*
X573186Y839112D01*
X573275Y839159D01*
X573370Y839188D01*
X573470Y839198D01*
X597470D01*
X597570Y839188D01*
D02*
G37*
D35*
X764540Y1115430D02*
D03*
Y1129930D02*
D03*
X779780Y1115430D02*
D03*
Y1129930D02*
D03*
X877316Y911976D02*
D03*
Y926476D02*
D03*
X849376Y926476D02*
D03*
Y911976D02*
D03*
X858266Y789570D02*
D03*
Y775070D02*
D03*
X1123950Y947790D02*
D03*
Y962290D02*
D03*
X617728Y763386D02*
D03*
Y777886D02*
D03*
X632968Y763386D02*
D03*
Y777886D02*
D03*
X547370Y886090D02*
D03*
Y871590D02*
D03*
X562610Y886090D02*
D03*
Y871590D02*
D03*
X663448Y763386D02*
D03*
Y777886D02*
D03*
X648208Y763386D02*
D03*
Y777886D02*
D03*
X525780Y809360D02*
D03*
Y823860D02*
D03*
X542290Y809360D02*
D03*
Y823860D02*
D03*
Y852700D02*
D03*
Y838200D02*
D03*
X525780Y852700D02*
D03*
Y838200D02*
D03*
X638810Y871590D02*
D03*
Y886090D02*
D03*
X593090Y871590D02*
D03*
Y886090D02*
D03*
X532130Y871590D02*
D03*
Y886090D02*
D03*
X577850Y871590D02*
D03*
Y886090D02*
D03*
X623570Y871590D02*
D03*
Y886090D02*
D03*
X608330Y886090D02*
D03*
Y871590D02*
D03*
X1090930Y773060D02*
D03*
Y758560D02*
D03*
X843026Y789570D02*
D03*
Y775070D02*
D03*
X1121410Y773060D02*
D03*
Y758560D02*
D03*
X1106170Y773060D02*
D03*
Y758560D02*
D03*
X986282Y807836D02*
D03*
Y822336D02*
D03*
X1001522Y807836D02*
D03*
Y822336D02*
D03*
X873506Y789570D02*
D03*
Y775070D02*
D03*
X1027430Y962290D02*
D03*
Y947790D02*
D03*
X1012190Y962290D02*
D03*
Y947790D02*
D03*
X1108710D02*
D03*
Y962290D02*
D03*
D36*
X834136Y997966D02*
D03*
X819636D02*
D03*
X834136Y1013206D02*
D03*
X819636D02*
D03*
X866140Y1058164D02*
D03*
X851640D02*
D03*
X866140Y1042670D02*
D03*
X851640D02*
D03*
X930010Y1042924D02*
D03*
X915510D02*
D03*
X929894Y1058418D02*
D03*
X915394D02*
D03*
X929778Y979170D02*
D03*
X915278D02*
D03*
X929778Y963422D02*
D03*
X915278D02*
D03*
X907426Y912876D02*
D03*
X892926D02*
D03*
X917586Y812800D02*
D03*
X903086D02*
D03*
X1187820Y871220D02*
D03*
X1202320D02*
D03*
X689726Y834644D02*
D03*
X704226D02*
D03*
X704734Y763778D02*
D03*
X690234D02*
D03*
X607960Y901700D02*
D03*
X593460D02*
D03*
X1202320Y855980D02*
D03*
X1187820D02*
D03*
X917586Y828040D02*
D03*
X903086D02*
D03*
X917586Y797560D02*
D03*
X903086D02*
D03*
X1202320Y886460D02*
D03*
X1187820D02*
D03*
X1202320Y901700D02*
D03*
X1187820D02*
D03*
D37*
X876046Y877570D02*
D03*
X863346D02*
D03*
X850646D02*
D03*
X837946D02*
D03*
X876046Y821690D02*
D03*
X850646D02*
D03*
X837946D02*
D03*
X863346D02*
D03*
D38*
X1114460Y813180D02*
D03*
X1109460D02*
D03*
X1104460D02*
D03*
X1099460D02*
D03*
X1094460D02*
D03*
X1089460D02*
D03*
X1084460Y813180D02*
D03*
X1079460D02*
D03*
X1074460Y813180D02*
D03*
X1069460D02*
D03*
X1064460D02*
D03*
X1059460D02*
D03*
X1054460D02*
D03*
X1049460Y813180D02*
D03*
X1044460D02*
D03*
X1039460Y813180D02*
D03*
X1039460Y924180D02*
D03*
X1044460D02*
D03*
X1049460D02*
D03*
X1054460D02*
D03*
X1059460D02*
D03*
X1064460D02*
D03*
X1069460D02*
D03*
X1074460D02*
D03*
X1079460D02*
D03*
X1084460D02*
D03*
X1089460D02*
D03*
X1094460Y924180D02*
D03*
X1099460D02*
D03*
X1104460Y924180D02*
D03*
X1109460D02*
D03*
X1114460D02*
D03*
D39*
X1021460Y831180D02*
D03*
X1021460Y836180D02*
D03*
Y841180D02*
D03*
X1021460Y846180D02*
D03*
Y851180D02*
D03*
Y856180D02*
D03*
Y861180D02*
D03*
Y866180D02*
D03*
X1021460Y871180D02*
D03*
Y876180D02*
D03*
Y881180D02*
D03*
X1021460Y886180D02*
D03*
Y891180D02*
D03*
Y896180D02*
D03*
Y901180D02*
D03*
Y906180D02*
D03*
X1132714D02*
D03*
Y901180D02*
D03*
Y896180D02*
D03*
Y891180D02*
D03*
Y886180D02*
D03*
Y881180D02*
D03*
Y876180D02*
D03*
Y871180D02*
D03*
Y866180D02*
D03*
Y861180D02*
D03*
Y856180D02*
D03*
Y851180D02*
D03*
Y846180D02*
D03*
Y841180D02*
D03*
Y836180D02*
D03*
Y831180D02*
D03*
D40*
X849346Y944626D02*
D03*
D41*
X877346D02*
D03*
D42*
X1190726Y805375D02*
D03*
X1205575Y820224D02*
D03*
X1193554Y832245D02*
D03*
X1178705Y817396D02*
D03*
D43*
X1186314Y845446D02*
D03*
X1179950Y839082D02*
D03*
X1198238Y790568D02*
D03*
X1204602Y796932D02*
D03*
D44*
X575381Y816074D02*
D03*
X580380D02*
D03*
X585381D02*
D03*
X590380D02*
D03*
X595381D02*
D03*
Y846071D02*
D03*
X590380D02*
D03*
X585381D02*
D03*
X575381D02*
D03*
X580380D02*
D03*
D45*
X585470Y831088D02*
D03*
D46*
X600470Y777748D02*
D03*
X570470D02*
D03*
D47*
X720090Y799592D02*
D03*
D48*
X690898Y784592D02*
D03*
Y814592D02*
D03*
D49*
X695198Y799592D02*
D03*
D50*
X1061212Y762508D02*
D03*
X866140Y1102360D02*
D03*
Y1023620D02*
D03*
X929640Y1102360D02*
D03*
Y1023620D02*
D03*
X524510Y989280D02*
D03*
X1202690Y1106170D02*
D03*
X744220Y1103630D02*
D03*
X524510Y1116330D02*
D03*
X805434Y1104392D02*
D03*
D51*
X1035812Y762508D02*
D03*
X1010412D02*
D03*
X985012D02*
D03*
X866140Y1076960D02*
D03*
Y998220D02*
D03*
X929640Y1076960D02*
D03*
Y998220D02*
D03*
X702310Y989280D02*
D03*
X676910D02*
D03*
X651510D02*
D03*
X626110D02*
D03*
X600710D02*
D03*
X575310D02*
D03*
X549910D02*
D03*
X1202690Y1029970D02*
D03*
Y1055370D02*
D03*
Y1080770D02*
D03*
X744220Y1027430D02*
D03*
Y1052830D02*
D03*
Y1078230D02*
D03*
X702310Y1116330D02*
D03*
X676910D02*
D03*
X651510D02*
D03*
X626110D02*
D03*
X600710D02*
D03*
X575310D02*
D03*
X549910D02*
D03*
X805434Y1078992D02*
D03*
Y1053592D02*
D03*
D52*
X1109180Y1116330D02*
D03*
X996680D02*
D03*
X1009180D02*
D03*
X1021680D02*
D03*
X1034180D02*
D03*
X1046680D02*
D03*
X1059180D02*
D03*
X1071680D02*
D03*
X1084180D02*
D03*
X1096680D02*
D03*
X1121680D02*
D03*
X1109580Y1028700D02*
D03*
X997080D02*
D03*
X1009580D02*
D03*
X1022080D02*
D03*
X1034580D02*
D03*
X1047080D02*
D03*
X1059580D02*
D03*
X1072080D02*
D03*
X1084580D02*
D03*
X1097080D02*
D03*
X1122080D02*
D03*
D53*
X984180Y1116330D02*
D03*
X984580Y1028700D02*
D03*
D54*
X709930Y823722D02*
D03*
X701548Y823468D02*
D03*
X701802Y817118D02*
D03*
X1001522Y828802D02*
D03*
X986282D02*
D03*
X710438Y817118D02*
D03*
X1043686Y943102D02*
D03*
X1121410Y937514D02*
D03*
X1007110Y836422D02*
D03*
X1219641Y835219D02*
D03*
X1209414Y845446D02*
D03*
X1229868Y824992D02*
D03*
X1217168Y793496D02*
D03*
X1229868Y806196D02*
D03*
X1165098Y802894D02*
D03*
X1187196Y780796D02*
D03*
X1204468D02*
D03*
X1194562Y786892D02*
D03*
X1212850Y826770D02*
D03*
X1210310Y855980D02*
D03*
X1202182Y909066D02*
D03*
X1108710Y969518D02*
D03*
X1124712Y969264D02*
D03*
X1012190Y969010D02*
D03*
X1027684Y967994D02*
D03*
X1004570Y880640D02*
D03*
X585492Y831066D02*
D03*
X594636Y826240D02*
D03*
X576348Y826494D02*
D03*
X594382Y835638D02*
D03*
X576856Y835384D02*
D03*
X915416Y1067054D02*
D03*
X851916Y1066038D02*
D03*
X819912Y1022350D02*
D03*
X915162Y987552D02*
D03*
X1113028Y861060D02*
D03*
X1108666Y796036D02*
D03*
X1171956Y826008D02*
D03*
X1121156Y750570D02*
D03*
X1105916D02*
D03*
X1090930Y750316D02*
D03*
X1002030Y799846D02*
D03*
X1009650Y807466D02*
D03*
X977392Y807974D02*
D03*
X986028Y799592D02*
D03*
X876046Y897128D02*
D03*
X876300Y890270D02*
D03*
X908050Y903478D02*
D03*
X907542Y922020D02*
D03*
X625094Y763016D02*
D03*
X640080D02*
D03*
X655828Y762762D02*
D03*
X663956Y755650D02*
D03*
X648208D02*
D03*
X633222D02*
D03*
X617220Y756158D02*
D03*
X730647Y794257D02*
D03*
X721757Y794511D02*
D03*
X712359Y794257D02*
D03*
X730139Y804925D02*
D03*
X721503D02*
D03*
X712359Y805179D02*
D03*
X711962Y763778D02*
D03*
X704596Y756666D02*
D03*
X704850Y771652D02*
D03*
X682244Y835152D02*
D03*
X689610Y842264D02*
D03*
X542290Y801878D02*
D03*
X534162Y808990D02*
D03*
X517652Y809498D02*
D03*
X525382Y803004D02*
D03*
X623570Y893572D02*
D03*
X608330Y893318D02*
D03*
X615442Y902208D02*
D03*
X578104Y893064D02*
D03*
X532130D02*
D03*
X552656Y852678D02*
D03*
X526034Y859282D02*
D03*
X993648Y828802D02*
D03*
X547116Y892810D02*
D03*
X580136Y803910D02*
D03*
X1149600Y866174D02*
D03*
X1089472Y830072D02*
D03*
X1099448Y796288D02*
D03*
X1104472Y830072D02*
D03*
X1149606Y876168D02*
D03*
Y841168D02*
D03*
X1115822Y836192D02*
D03*
Y846192D02*
D03*
Y871192D02*
D03*
Y881192D02*
D03*
X1149606Y896168D02*
D03*
X1115822Y901192D02*
D03*
M02*
