M48
;Layer_Color=9474304
;FILE_FORMAT=4:4
METRIC,LZ
;TYPE=PLATED
T01F00S00C0.4000
T02F00S00C0.5000
T03F00S00C0.9000
%
T01
X01194562Y00786892
X01204468Y00780796
X01217168Y00793496
X01187196Y00780796
X01121156Y0075057
X01105916
X0109093Y00750316
X00711962Y00763778
X00704596Y00756666
X0070485Y00771652
X00663956Y0075565
X00655828Y00762762
X00648208Y0075565
X00633222
X0064008Y00763016
X00625094
X0061722Y00756158
X00580136Y0080391
X00576348Y00826494
X00576856Y00835384
X00585492Y00831066
X00594382Y00835638
X00594636Y0082624
X00552656Y00852678
X00526034Y00859282
X0053213Y00893064
X00547116Y0089281
X00578104Y00893064
X0060833Y00893318
X0062357Y00893572
X00615442Y00902208
X00682244Y00835152
X0068961Y00842264
X00701548Y00823468
X00701802Y00817118
X00710438
X0070993Y00823722
X00712359Y00805179
X00721503Y00804925
X00730139
X00730647Y00794257
X00721757Y00794511
X00712359Y00794257
X0054229Y00801878
X00534162Y0080899
X00525382Y00803004
X00517652Y00809498
X008763Y0089027
X00876046Y00897128
X0090805Y00903478
X00907542Y0092202
X00915162Y00987552
X00915416Y01067054
X00851916Y01066038
X00819912Y0102235
X0101219Y0096901
X01027684Y00967994
X01043686Y00943102
X0112141Y00937514
X01124712Y00969264
X0110871Y00969518
X01115822Y00901192
Y00881192
Y00871192
X01113028Y0086106
X01115822Y00846192
Y00836192
X01104472Y00830072
X01089472
X01099448Y00796288
X01108666Y00796036
X01165098Y00802894
X01171956Y00826008
X01149606Y00841168
X011496Y00866174
X01149606Y00876168
Y00896168
X0100457Y0088064
X0100711Y00836422
X01001522Y00828802
X00993648
X00986282
X00986028Y00799592
X0100203Y00799846
X0100965Y00807466
X00977392Y00807974
X01229868Y00806196
Y00824992
X0121285Y0082677
X01219641Y00835219
X01209414Y00845446
X0121031Y0085598
X01202182Y00909066
T02
X0098458Y010287
X0099708
X0100958
X0102208
X0103458
X0104708
X0105958
X0107208
X0108458
X0109708
X0110958
X0112208
X0112168Y0111633
X0110918
X0109668
X0108418
X0107168
X0105918
X0104668
X0103418
X0102168
X0100918
X0099668
X0098418
T03
X00985012Y00762508
X01010412
X01035812
X01061212
X0074422Y0102743
Y0105283
Y0107823
Y0110363
X0070231Y0111633
X0067691
X0065151
X0062611
X0060071
X0057531
X0054991
X0052451
Y0098928
X0054991
X0057531
X0060071
X0062611
X0065151
X0067691
X0070231
X00805434Y01053592
Y01078992
Y01104392
X0086614Y0110236
Y0107696
Y0102362
Y0099822
X0092964
Y0102362
Y0107696
Y0110236
X0120269Y0110617
Y0108077
Y0105537
Y0102997
M30
