G04*
G04 #@! TF.GenerationSoftware,Altium Limited,Altium Designer,24.0.1 (36)*
G04*
G04 Layer_Physical_Order=2*
G04 Layer_Color=12517376*
%FSLAX44Y44*%
%MOMM*%
G71*
G04*
G04 #@! TF.SameCoordinates,5B0ED70E-373C-42BA-93D7-FD99D67A1B07*
G04*
G04*
G04 #@! TF.FilePolarity,Positive*
G04*
G01*
G75*
%ADD14C,0.2032*%
%ADD55C,0.7620*%
%ADD56C,0.6350*%
%ADD58R,1.7000X1.7000*%
%ADD59C,1.7000*%
%ADD60C,1.0000*%
%ADD61R,1.0000X1.0000*%
%ADD62C,0.6000*%
G36*
X1230690Y1160461D02*
X1232656D01*
X1236555Y1159947D01*
X1240354Y1158930D01*
X1243987Y1157425D01*
X1247393Y1155458D01*
X1250513Y1153064D01*
X1253294Y1150284D01*
X1255687Y1147164D01*
X1257654Y1143758D01*
X1259159Y1140125D01*
X1260177Y1136326D01*
X1260690Y1132427D01*
X1260690Y1130461D01*
X1260690D01*
X1260690Y1130461D01*
X1260690Y762809D01*
Y760843D01*
X1260177Y756944D01*
X1259159Y753146D01*
X1257654Y749512D01*
X1255688Y746107D01*
X1253294Y742987D01*
X1250513Y740206D01*
X1247393Y737812D01*
X1243987Y735845D01*
X1240354Y734341D01*
X1236555Y733323D01*
X1232656Y732810D01*
X1230690Y732810D01*
X1230690Y732810D01*
X1230690Y732810D01*
X517110Y732810D01*
X515144D01*
X511245Y733323D01*
X507446Y734341D01*
X503813Y735846D01*
X500407Y737812D01*
X497287Y740206D01*
X494506Y742987D01*
X492112Y746107D01*
X490146Y749512D01*
X488641Y753146D01*
X487623Y756944D01*
X487110Y760843D01*
Y762810D01*
X487110D01*
X487110Y1130461D01*
Y1132427D01*
X487623Y1136326D01*
X488641Y1140125D01*
X490146Y1143758D01*
X492112Y1147164D01*
X494506Y1150284D01*
X497287Y1153064D01*
X500407Y1155458D01*
X503813Y1157425D01*
X507446Y1158930D01*
X511245Y1159947D01*
X515144Y1160461D01*
X517110Y1160461D01*
X517110Y1160461D01*
X1230690Y1160461D01*
D02*
G37*
%LPC*%
G36*
X1122539Y1122854D02*
X1120821D01*
X1119162Y1122409D01*
X1117674Y1121551D01*
X1116460Y1120336D01*
X1116163Y1119823D01*
X1114697D01*
X1114400Y1120336D01*
X1113186Y1121551D01*
X1111698Y1122409D01*
X1110039Y1122854D01*
X1108321D01*
X1106662Y1122409D01*
X1105174Y1121551D01*
X1103960Y1120336D01*
X1103663Y1119823D01*
X1102197D01*
X1101900Y1120336D01*
X1100686Y1121551D01*
X1099198Y1122409D01*
X1097539Y1122854D01*
X1095821D01*
X1094162Y1122409D01*
X1092674Y1121551D01*
X1091460Y1120336D01*
X1091163Y1119823D01*
X1089697D01*
X1089400Y1120336D01*
X1088186Y1121551D01*
X1086698Y1122409D01*
X1085039Y1122854D01*
X1083321D01*
X1081662Y1122409D01*
X1080174Y1121551D01*
X1078960Y1120336D01*
X1078663Y1119823D01*
X1077197D01*
X1076900Y1120336D01*
X1075686Y1121551D01*
X1074198Y1122409D01*
X1072539Y1122854D01*
X1070821D01*
X1069162Y1122409D01*
X1067674Y1121551D01*
X1066460Y1120336D01*
X1066163Y1119823D01*
X1064697D01*
X1064400Y1120336D01*
X1063186Y1121551D01*
X1061698Y1122409D01*
X1060039Y1122854D01*
X1058321D01*
X1056662Y1122409D01*
X1055174Y1121551D01*
X1053960Y1120336D01*
X1053663Y1119823D01*
X1052197D01*
X1051900Y1120336D01*
X1050686Y1121551D01*
X1049198Y1122409D01*
X1047539Y1122854D01*
X1045821D01*
X1044162Y1122409D01*
X1042674Y1121551D01*
X1041460Y1120336D01*
X1041163Y1119823D01*
X1039697D01*
X1039400Y1120336D01*
X1038186Y1121551D01*
X1036698Y1122409D01*
X1035039Y1122854D01*
X1033321D01*
X1031662Y1122409D01*
X1030174Y1121551D01*
X1028960Y1120336D01*
X1028663Y1119823D01*
X1027197D01*
X1026900Y1120336D01*
X1025686Y1121551D01*
X1024198Y1122409D01*
X1022539Y1122854D01*
X1020821D01*
X1019162Y1122409D01*
X1017674Y1121551D01*
X1016460Y1120336D01*
X1016163Y1119823D01*
X1014697D01*
X1014400Y1120336D01*
X1013186Y1121551D01*
X1011698Y1122409D01*
X1010039Y1122854D01*
X1008321D01*
X1006662Y1122409D01*
X1005174Y1121551D01*
X1003960Y1120336D01*
X1003663Y1119823D01*
X1002197D01*
X1001900Y1120336D01*
X1000686Y1121551D01*
X999198Y1122409D01*
X997539Y1122854D01*
X995821D01*
X994162Y1122409D01*
X992674Y1121551D01*
X991974Y1120850D01*
X990704Y1121376D01*
Y1122854D01*
X977656D01*
Y1109806D01*
X987914D01*
X988164Y1109756D01*
X988928D01*
X1049464Y1049221D01*
X1050304Y1048659D01*
X1051295Y1048462D01*
X1122115D01*
X1145779Y1024799D01*
Y912713D01*
X1136847Y903782D01*
X1119630D01*
X1118385Y905027D01*
X1116722Y905716D01*
X1114922D01*
X1113259Y905027D01*
X1111987Y903755D01*
X1111298Y902092D01*
Y900292D01*
X1111987Y898629D01*
X1113259Y897357D01*
X1114922Y896668D01*
X1116722D01*
X1118385Y897357D01*
X1119630Y898602D01*
X1137920D01*
X1138911Y898799D01*
X1139751Y899361D01*
X1148161Y907771D01*
X1149334Y907285D01*
Y900692D01*
X1148706D01*
X1147043Y900003D01*
X1145771Y898731D01*
X1145082Y897068D01*
Y895268D01*
X1145771Y893605D01*
X1147043Y892333D01*
X1148190Y891858D01*
X1148597Y890562D01*
X1148014Y889812D01*
X1121852D01*
X1120861Y889615D01*
X1120021Y889053D01*
X1116684Y885716D01*
X1114922D01*
X1113259Y885027D01*
X1111987Y883755D01*
X1111298Y882092D01*
Y880292D01*
X1111987Y878629D01*
X1113259Y877357D01*
X1114412Y876879D01*
Y875505D01*
X1113259Y875027D01*
X1111987Y873755D01*
X1111298Y872092D01*
Y870292D01*
X1111987Y868629D01*
X1113259Y867357D01*
X1114922Y866668D01*
X1116722D01*
X1118385Y867357D01*
X1119657Y868629D01*
X1120346Y870292D01*
Y872054D01*
X1129369Y881076D01*
X1146457D01*
X1146642Y880738D01*
X1146846Y879806D01*
X1145771Y878731D01*
X1145082Y877068D01*
Y875268D01*
X1145771Y873605D01*
X1147043Y872333D01*
X1148186Y871860D01*
Y870485D01*
X1147037Y870009D01*
X1145765Y868737D01*
X1145076Y867074D01*
Y865274D01*
X1145765Y863611D01*
X1147037Y862339D01*
X1148700Y861650D01*
X1150500D01*
X1152163Y862339D01*
X1153408Y863584D01*
X1156120D01*
X1156606Y862411D01*
X1149971Y855776D01*
X1122816D01*
X1121825Y855579D01*
X1120985Y855017D01*
X1116684Y850716D01*
X1114922D01*
X1113259Y850027D01*
X1111987Y848755D01*
X1111298Y847092D01*
Y845292D01*
X1111987Y843629D01*
X1113259Y842357D01*
X1114412Y841879D01*
Y840505D01*
X1113259Y840027D01*
X1111987Y838755D01*
X1111298Y837092D01*
Y835292D01*
X1111987Y833629D01*
X1113259Y832357D01*
X1114247Y831948D01*
X1113994Y830678D01*
X1108996D01*
Y830972D01*
X1108307Y832635D01*
X1107035Y833907D01*
X1105372Y834596D01*
X1103572D01*
X1101909Y833907D01*
X1100637Y832635D01*
X1099948Y830972D01*
Y829172D01*
X1100271Y828392D01*
X1099423Y827122D01*
X1096085D01*
X1093996Y829211D01*
Y830972D01*
X1093307Y832635D01*
X1092035Y833907D01*
X1090372Y834596D01*
X1088572D01*
X1086909Y833907D01*
X1085637Y832635D01*
X1084948Y830972D01*
Y829172D01*
X1085637Y827509D01*
X1086909Y826237D01*
X1088572Y825548D01*
X1090333D01*
X1093181Y822701D01*
X1094021Y822139D01*
X1095012Y821942D01*
X1102116D01*
X1102602Y820769D01*
X1097617Y815783D01*
X1097055Y814943D01*
X1096858Y813952D01*
Y800096D01*
X1095613Y798851D01*
X1094924Y797188D01*
Y795388D01*
X1095613Y793725D01*
X1096885Y792453D01*
X1098548Y791764D01*
X1100348D01*
X1102011Y792453D01*
X1103283Y793725D01*
X1103592Y794472D01*
X1104967D01*
X1105066Y794232D01*
X1106870Y796036D01*
X1105054Y797852D01*
X1103697D01*
X1103283Y798851D01*
X1102038Y800096D01*
Y812879D01*
X1107545Y818386D01*
X1149804D01*
X1150795Y818583D01*
X1151635Y819145D01*
X1154308Y821818D01*
X1154405Y821837D01*
X1155245Y822399D01*
X1189315Y856469D01*
X1189877Y857309D01*
X1190074Y858300D01*
Y1042074D01*
X1189877Y1043065D01*
X1189315Y1043905D01*
X1124270Y1108951D01*
Y1110292D01*
X1125686Y1111109D01*
X1126900Y1112324D01*
X1127759Y1113812D01*
X1128204Y1115471D01*
Y1117189D01*
X1127759Y1118848D01*
X1126900Y1120336D01*
X1125686Y1121551D01*
X1124198Y1122409D01*
X1122539Y1122854D01*
D02*
G37*
G36*
X703563Y1125846D02*
X701057D01*
X698637Y1125198D01*
X696482Y1123954D01*
X702310Y1118126D01*
X708138Y1123954D01*
X705983Y1125198D01*
X703563Y1125846D01*
D02*
G37*
G36*
X551163D02*
X548657D01*
X546237Y1125198D01*
X544082Y1123954D01*
X549910Y1118126D01*
X555737Y1123954D01*
X553583Y1125198D01*
X551163Y1125846D01*
D02*
G37*
G36*
X557534Y1122158D02*
X551706Y1116330D01*
X557534Y1110502D01*
X558778Y1112657D01*
X559426Y1115077D01*
Y1117583D01*
X558778Y1120003D01*
X557534Y1122158D01*
D02*
G37*
G36*
X709934D02*
X704106Y1116330D01*
X709934Y1110502D01*
X711178Y1112657D01*
X711826Y1115077D01*
Y1117583D01*
X711178Y1120003D01*
X709934Y1122158D01*
D02*
G37*
G36*
X694686Y1122158D02*
X693443Y1120003D01*
X692794Y1117583D01*
Y1115077D01*
X693443Y1112657D01*
X694686Y1110502D01*
X700514Y1116330D01*
X694686Y1122158D01*
D02*
G37*
G36*
X542286D02*
X541043Y1120003D01*
X540394Y1117583D01*
Y1115077D01*
X541043Y1112657D01*
X542286Y1110502D01*
X548114Y1116330D01*
X542286Y1122158D01*
D02*
G37*
G36*
X1210410Y1115686D02*
X1194970D01*
X1202690Y1107966D01*
X1210410Y1115686D01*
D02*
G37*
G36*
X702310Y1114534D02*
X696482Y1108706D01*
X698637Y1107462D01*
X701057Y1106814D01*
X703563D01*
X705983Y1107462D01*
X708138Y1108706D01*
X702310Y1114534D01*
D02*
G37*
G36*
X549910D02*
X544082Y1108706D01*
X546237Y1107462D01*
X548657Y1106814D01*
X551163D01*
X553583Y1107462D01*
X555738Y1108706D01*
X549910Y1114534D01*
D02*
G37*
G36*
X652830Y1126354D02*
X650190D01*
X647641Y1125671D01*
X645355Y1124351D01*
X643489Y1122485D01*
X642169Y1120199D01*
X641486Y1117650D01*
Y1115010D01*
X642169Y1112461D01*
X643489Y1110175D01*
X645355Y1108309D01*
X647641Y1106989D01*
X650190Y1106306D01*
X652830D01*
X655379Y1106989D01*
X657665Y1108309D01*
X659531Y1110175D01*
X660851Y1112461D01*
X661534Y1115010D01*
Y1117650D01*
X660851Y1120199D01*
X659531Y1122485D01*
X657665Y1124351D01*
X655379Y1125671D01*
X652830Y1126354D01*
D02*
G37*
G36*
X627430D02*
X624790D01*
X622241Y1125671D01*
X619955Y1124351D01*
X618089Y1122485D01*
X616769Y1120199D01*
X616086Y1117650D01*
Y1115010D01*
X616769Y1112461D01*
X618089Y1110175D01*
X619955Y1108309D01*
X622241Y1106989D01*
X624790Y1106306D01*
X627430D01*
X629979Y1106989D01*
X632265Y1108309D01*
X634131Y1110175D01*
X635451Y1112461D01*
X636134Y1115010D01*
Y1117650D01*
X635451Y1120199D01*
X634131Y1122485D01*
X632265Y1124351D01*
X629979Y1125671D01*
X627430Y1126354D01*
D02*
G37*
G36*
X602030D02*
X599390D01*
X596841Y1125671D01*
X594555Y1124351D01*
X592689Y1122485D01*
X591369Y1120199D01*
X590686Y1117650D01*
Y1115010D01*
X591369Y1112461D01*
X592689Y1110175D01*
X594555Y1108309D01*
X596841Y1106989D01*
X599390Y1106306D01*
X602030D01*
X604579Y1106989D01*
X606865Y1108309D01*
X608731Y1110175D01*
X610051Y1112461D01*
X610734Y1115010D01*
Y1117650D01*
X610051Y1120199D01*
X608731Y1122485D01*
X606865Y1124351D01*
X604579Y1125671D01*
X602030Y1126354D01*
D02*
G37*
G36*
X576630D02*
X573990D01*
X571441Y1125671D01*
X569155Y1124351D01*
X567289Y1122485D01*
X565969Y1120199D01*
X565286Y1117650D01*
Y1115010D01*
X565969Y1112461D01*
X567289Y1110175D01*
X569155Y1108309D01*
X571441Y1106989D01*
X573990Y1106306D01*
X576630D01*
X579179Y1106989D01*
X581465Y1108309D01*
X583331Y1110175D01*
X584651Y1112461D01*
X585334Y1115010D01*
Y1117650D01*
X584651Y1120199D01*
X583331Y1122485D01*
X581465Y1124351D01*
X579179Y1125671D01*
X576630Y1126354D01*
D02*
G37*
G36*
X534534D02*
X514486D01*
Y1106306D01*
X534534D01*
Y1126354D01*
D02*
G37*
G36*
X1193174Y1113890D02*
Y1098450D01*
X1200894Y1106170D01*
X1193174Y1113890D01*
D02*
G37*
G36*
X1212206Y1113890D02*
X1204486Y1106170D01*
X1212206Y1098450D01*
Y1113890D01*
D02*
G37*
G36*
X1202690Y1104374D02*
X1194970Y1096654D01*
X1210410D01*
X1202690Y1104374D01*
D02*
G37*
G36*
X815458Y1114416D02*
X795410D01*
Y1094368D01*
X815458D01*
Y1114416D01*
D02*
G37*
G36*
X754244Y1113654D02*
X734196D01*
Y1093606D01*
X754244D01*
Y1113654D01*
D02*
G37*
G36*
X806687Y1088508D02*
X804181D01*
X801761Y1087859D01*
X799606Y1086616D01*
X805434Y1080788D01*
X811262Y1086616D01*
X809107Y1087859D01*
X806687Y1088508D01*
D02*
G37*
G36*
X837189Y1137885D02*
X512064D01*
X510230Y1137520D01*
X508676Y1136482D01*
X498770Y1126576D01*
X497732Y1125022D01*
X497367Y1123188D01*
Y807720D01*
X497732Y805887D01*
X498770Y804332D01*
X522910Y780192D01*
X522417Y778889D01*
X521807Y778851D01*
X518909Y779427D01*
X518744Y779394D01*
X518587Y779459D01*
X515633D01*
X515476Y779394D01*
X515311Y779427D01*
X512413Y778851D01*
X512272Y778757D01*
X512103D01*
X509374Y777626D01*
X509254Y777507D01*
X509088Y777474D01*
X506632Y775832D01*
X506538Y775692D01*
X506382Y775627D01*
X504292Y773538D01*
X504228Y773382D01*
X504087Y773288D01*
X502446Y770831D01*
X502413Y770665D01*
X502293Y770546D01*
X501162Y767816D01*
Y767647D01*
X501069Y767507D01*
X500492Y764609D01*
X500525Y764443D01*
X500460Y764287D01*
Y761332D01*
X500525Y761176D01*
X500492Y761010D01*
X501069Y758112D01*
X501162Y757972D01*
Y757803D01*
X502293Y755073D01*
X502413Y754954D01*
X502446Y754788D01*
X504087Y752331D01*
X504228Y752237D01*
X504292Y752081D01*
X506382Y749992D01*
X506538Y749927D01*
X506632Y749787D01*
X509088Y748145D01*
X509254Y748112D01*
X509374Y747993D01*
X512103Y746862D01*
X512272D01*
X512413Y746768D01*
X515311Y746192D01*
X515476Y746225D01*
X515633Y746160D01*
X518587D01*
X518744Y746225D01*
X518909Y746192D01*
X521807Y746768D01*
X521948Y746862D01*
X522117D01*
X524846Y747993D01*
X524966Y748112D01*
X525132Y748145D01*
X527588Y749787D01*
X527682Y749927D01*
X527838Y749992D01*
X529928Y752081D01*
X529992Y752237D01*
X530133Y752331D01*
X531774Y754788D01*
X531807Y754954D01*
X531927Y755073D01*
X533058Y757803D01*
Y757972D01*
X533151Y758112D01*
X533728Y761010D01*
X533695Y761176D01*
X533760Y761332D01*
Y764287D01*
X533695Y764443D01*
X533728Y764609D01*
X533151Y767507D01*
X533190Y768117D01*
X534493Y768610D01*
X535346Y767756D01*
X536901Y766718D01*
X538734Y766353D01*
X621092D01*
X621603Y765083D01*
X621078Y763815D01*
Y762217D01*
X621494Y761212D01*
X624196Y763914D01*
X625094Y763016D01*
X625992Y763914D01*
X628694Y761212D01*
X629110Y762217D01*
Y763815D01*
X628585Y765083D01*
X629096Y766353D01*
X636078D01*
X636589Y765083D01*
X636064Y763815D01*
Y762217D01*
X636480Y761212D01*
X639182Y763914D01*
X640080Y763016D01*
X640978Y763914D01*
X643680Y761212D01*
X644096Y762217D01*
Y763815D01*
X643571Y765083D01*
X644082Y766353D01*
X651943D01*
X652469Y765083D01*
X652423Y765037D01*
X651812Y763561D01*
Y761963D01*
X652228Y760958D01*
X654930Y763660D01*
X655828Y762762D01*
X656726Y763660D01*
X659428Y760958D01*
X659844Y761963D01*
Y763561D01*
X659233Y765037D01*
X659186Y765083D01*
X659713Y766353D01*
X682498D01*
X684332Y766718D01*
X685886Y767756D01*
X705190Y787060D01*
X706228Y788615D01*
X706593Y790448D01*
Y811680D01*
X710438D01*
X712519Y812094D01*
X714284Y813272D01*
X714977Y813966D01*
X913130D01*
X915211Y814380D01*
X916976Y815558D01*
X924527Y823110D01*
X993648D01*
X995729Y823523D01*
X997494Y824702D01*
X997630Y824907D01*
X998894Y825032D01*
X998959Y824967D01*
X1000622Y824278D01*
X1002422D01*
X1004085Y824967D01*
X1005357Y826239D01*
X1006046Y827902D01*
Y829702D01*
X1005357Y831365D01*
X1005252Y831470D01*
X1005971Y832547D01*
X1006311Y832406D01*
X1007909D01*
X1008914Y832822D01*
X1006212Y835524D01*
X1003510Y838226D01*
X1003094Y837221D01*
Y835623D01*
X1003695Y834174D01*
X1003648Y834069D01*
X1002949Y833108D01*
X1002422Y833326D01*
X1000622D01*
X998959Y832637D01*
X998606Y832284D01*
X997494Y832394D01*
X995729Y833572D01*
X993648Y833987D01*
X922274D01*
X920193Y833572D01*
X918428Y832394D01*
X910877Y824843D01*
X717009D01*
X714284Y827568D01*
X712519Y828746D01*
X710438Y829161D01*
X703079D01*
X701802Y829415D01*
X699721Y829000D01*
X697956Y827822D01*
X696777Y826057D01*
X696364Y823976D01*
Y815594D01*
X696777Y813513D01*
X697011Y813163D01*
Y792432D01*
X680514Y775935D01*
X540718D01*
X506949Y809705D01*
Y1121204D01*
X514049Y1128303D01*
X672119D01*
Y1125139D01*
X670755Y1124351D01*
X668889Y1122485D01*
X667569Y1120199D01*
X666886Y1117650D01*
Y1115010D01*
X667569Y1112461D01*
X668889Y1110175D01*
X670755Y1108309D01*
X673041Y1106989D01*
X675590Y1106306D01*
X678230D01*
X680779Y1106989D01*
X683065Y1108309D01*
X684931Y1110175D01*
X686251Y1112461D01*
X686934Y1115010D01*
Y1117650D01*
X686251Y1120199D01*
X684931Y1122485D01*
X683065Y1124351D01*
X681701Y1125139D01*
Y1128303D01*
X833547D01*
X833801Y1127924D01*
X856116Y1105608D01*
Y1092336D01*
X876164D01*
Y1097569D01*
X919616D01*
Y1092336D01*
X932888D01*
X940851Y1084373D01*
Y1078757D01*
X939581Y1078590D01*
X938981Y1080829D01*
X937661Y1083115D01*
X935795Y1084981D01*
X933509Y1086301D01*
X930960Y1086984D01*
X928320D01*
X925771Y1086301D01*
X923485Y1084981D01*
X921619Y1083115D01*
X920299Y1080829D01*
X919616Y1078280D01*
Y1075640D01*
X920299Y1073091D01*
X921619Y1070805D01*
X923485Y1068939D01*
X925771Y1067619D01*
X928320Y1066936D01*
X930960D01*
X933509Y1067619D01*
X935795Y1068939D01*
X937661Y1070805D01*
X938981Y1073091D01*
X939581Y1075330D01*
X940851Y1075163D01*
Y1041607D01*
X932888Y1033644D01*
X919616D01*
Y1013596D01*
X939664D01*
Y1026868D01*
X949030Y1036234D01*
X950068Y1037789D01*
X950433Y1039622D01*
Y1086358D01*
X950068Y1088191D01*
X949030Y1089746D01*
X939664Y1099112D01*
Y1112384D01*
X919616D01*
Y1107151D01*
X876164D01*
Y1112384D01*
X862892D01*
X841930Y1133346D01*
X841615Y1134927D01*
X840576Y1136482D01*
X839022Y1137520D01*
X837189Y1137885D01*
D02*
G37*
G36*
X797810Y1084819D02*
X796566Y1082665D01*
X795918Y1080245D01*
Y1077739D01*
X796566Y1075319D01*
X797810Y1073165D01*
X803638Y1078992D01*
X797810Y1084819D01*
D02*
G37*
G36*
X813058D02*
X807230Y1078992D01*
X813058Y1073164D01*
X814302Y1075319D01*
X814950Y1077739D01*
Y1080245D01*
X814302Y1082665D01*
X813058Y1084819D01*
D02*
G37*
G36*
X1204010Y1090794D02*
X1201370D01*
X1198821Y1090111D01*
X1196535Y1088791D01*
X1194669Y1086925D01*
X1193349Y1084639D01*
X1192666Y1082090D01*
Y1079450D01*
X1193349Y1076901D01*
X1194669Y1074615D01*
X1196535Y1072749D01*
X1198821Y1071429D01*
X1201370Y1070746D01*
X1204010D01*
X1206559Y1071429D01*
X1208845Y1072749D01*
X1210711Y1074615D01*
X1212031Y1076901D01*
X1212714Y1079450D01*
Y1082090D01*
X1212031Y1084639D01*
X1210711Y1086925D01*
X1208845Y1088791D01*
X1206559Y1090111D01*
X1204010Y1090794D01*
D02*
G37*
G36*
X805434Y1077196D02*
X799606Y1071368D01*
X801761Y1070125D01*
X804181Y1069476D01*
X806687D01*
X809107Y1070125D01*
X811262Y1071368D01*
X805434Y1077196D01*
D02*
G37*
G36*
X916215Y1071070D02*
X914617D01*
X913612Y1070654D01*
X915416Y1068850D01*
X917220Y1070654D01*
X916215Y1071070D01*
D02*
G37*
G36*
X745540Y1088254D02*
X742900D01*
X740351Y1087571D01*
X738065Y1086251D01*
X736199Y1084385D01*
X734879Y1082099D01*
X734196Y1079550D01*
Y1076910D01*
X734879Y1074361D01*
X736199Y1072075D01*
X738065Y1070209D01*
X740351Y1068889D01*
X742900Y1068206D01*
X745540D01*
X748089Y1068889D01*
X750375Y1070209D01*
X752241Y1072075D01*
X753561Y1074361D01*
X754244Y1076910D01*
Y1079550D01*
X753561Y1082099D01*
X752241Y1084385D01*
X750375Y1086251D01*
X748089Y1087571D01*
X745540Y1088254D01*
D02*
G37*
G36*
X852715Y1070054D02*
X851117D01*
X850112Y1069638D01*
X851916Y1067834D01*
X853720Y1069638D01*
X852715Y1070054D01*
D02*
G37*
G36*
X867460Y1086984D02*
X864820D01*
X862271Y1086301D01*
X859985Y1084981D01*
X858119Y1083115D01*
X856799Y1080829D01*
X856116Y1078280D01*
Y1075640D01*
X856799Y1073091D01*
X858119Y1070805D01*
X859985Y1068939D01*
X862271Y1067619D01*
X864820Y1066936D01*
X867460D01*
X870009Y1067619D01*
X872295Y1068939D01*
X874161Y1070805D01*
X875481Y1073091D01*
X876164Y1075640D01*
Y1078280D01*
X875481Y1080829D01*
X874161Y1083115D01*
X872295Y1084981D01*
X870009Y1086301D01*
X867460Y1086984D01*
D02*
G37*
G36*
X919016Y1068858D02*
X917212Y1067054D01*
X919016Y1065250D01*
X919432Y1066255D01*
Y1067853D01*
X919016Y1068858D01*
D02*
G37*
G36*
X911816Y1068858D02*
X911400Y1067853D01*
Y1066255D01*
X911816Y1065250D01*
X913620Y1067054D01*
X911816Y1068858D01*
D02*
G37*
G36*
X855516Y1067842D02*
X853712Y1066038D01*
X855516Y1064234D01*
X855932Y1065239D01*
Y1066837D01*
X855516Y1067842D01*
D02*
G37*
G36*
X848316Y1067842D02*
X847900Y1066837D01*
Y1065239D01*
X848316Y1064234D01*
X850120Y1066038D01*
X848316Y1067842D01*
D02*
G37*
G36*
X915416Y1065258D02*
X913612Y1063454D01*
X914617Y1063038D01*
X916215D01*
X917220Y1063454D01*
X915416Y1065258D01*
D02*
G37*
G36*
X558245Y1062876D02*
X555291D01*
X555135Y1062811D01*
X554969Y1062844D01*
X552071Y1062267D01*
X551930Y1062173D01*
X551761D01*
X549032Y1061043D01*
X548912Y1060923D01*
X548746Y1060890D01*
X546290Y1059249D01*
X546196Y1059108D01*
X546040Y1059044D01*
X543950Y1056954D01*
X543886Y1056798D01*
X543745Y1056704D01*
X542104Y1054248D01*
X542071Y1054082D01*
X541951Y1053962D01*
X540820Y1051233D01*
Y1051064D01*
X540727Y1050923D01*
X540150Y1048025D01*
X540183Y1047859D01*
X540118Y1047703D01*
Y1044749D01*
X540183Y1044593D01*
X540150Y1044427D01*
X540727Y1041529D01*
X540820Y1041388D01*
Y1041219D01*
X541951Y1038490D01*
X542071Y1038370D01*
X542104Y1038204D01*
X543745Y1035748D01*
X543886Y1035654D01*
X543950Y1035498D01*
X546040Y1033408D01*
X546196Y1033344D01*
X546290Y1033203D01*
X548746Y1031562D01*
X548912Y1031529D01*
X549032Y1031409D01*
X551761Y1030278D01*
X551930D01*
X552071Y1030185D01*
X554969Y1029608D01*
X555135Y1029641D01*
X555291Y1029576D01*
X558245D01*
X558401Y1029641D01*
X558567Y1029608D01*
X561465Y1030185D01*
X561606Y1030278D01*
X561775D01*
X564504Y1031409D01*
X564624Y1031529D01*
X564790Y1031562D01*
X567246Y1033203D01*
X567340Y1033344D01*
X567496Y1033408D01*
X569586Y1035498D01*
X569650Y1035654D01*
X569791Y1035748D01*
X571432Y1038204D01*
X571465Y1038370D01*
X571585Y1038490D01*
X572715Y1041219D01*
Y1041388D01*
X572809Y1041529D01*
X573386Y1044427D01*
X573353Y1044593D01*
X573418Y1044749D01*
Y1047703D01*
X573353Y1047859D01*
X573386Y1048025D01*
X572809Y1050923D01*
X572715Y1051064D01*
Y1051233D01*
X571585Y1053962D01*
X571465Y1054082D01*
X571432Y1054248D01*
X569791Y1056704D01*
X569650Y1056798D01*
X569586Y1056954D01*
X567496Y1059044D01*
X567340Y1059108D01*
X567246Y1059249D01*
X564790Y1060890D01*
X564624Y1060923D01*
X564504Y1061043D01*
X561775Y1062173D01*
X561606D01*
X561465Y1062267D01*
X558567Y1062844D01*
X558401Y1062811D01*
X558245Y1062876D01*
D02*
G37*
G36*
X851916Y1064242D02*
X850112Y1062438D01*
X851117Y1062022D01*
X852715D01*
X853720Y1062438D01*
X851916Y1064242D01*
D02*
G37*
G36*
X1204010Y1065394D02*
X1201370D01*
X1198821Y1064711D01*
X1196535Y1063391D01*
X1194669Y1061525D01*
X1193349Y1059239D01*
X1192666Y1056690D01*
Y1054050D01*
X1193349Y1051501D01*
X1194669Y1049215D01*
X1196535Y1047349D01*
X1198821Y1046029D01*
X1201370Y1045346D01*
X1204010D01*
X1206559Y1046029D01*
X1208845Y1047349D01*
X1210711Y1049215D01*
X1212031Y1051501D01*
X1212714Y1054050D01*
Y1056690D01*
X1212031Y1059239D01*
X1210711Y1061525D01*
X1208845Y1063391D01*
X1206559Y1064711D01*
X1204010Y1065394D01*
D02*
G37*
G36*
X806754Y1063616D02*
X804114D01*
X801565Y1062933D01*
X799279Y1061613D01*
X797413Y1059747D01*
X796093Y1057461D01*
X795410Y1054912D01*
Y1052272D01*
X796093Y1049723D01*
X797413Y1047437D01*
X799279Y1045571D01*
X801565Y1044251D01*
X804114Y1043568D01*
X806754D01*
X809303Y1044251D01*
X811589Y1045571D01*
X813455Y1047437D01*
X814775Y1049723D01*
X815458Y1052272D01*
Y1054912D01*
X814775Y1057461D01*
X813455Y1059747D01*
X811589Y1061613D01*
X809303Y1062933D01*
X806754Y1063616D01*
D02*
G37*
G36*
X745540Y1062854D02*
X742900D01*
X740351Y1062171D01*
X738065Y1060851D01*
X736199Y1058985D01*
X734879Y1056699D01*
X734196Y1054150D01*
Y1051510D01*
X734879Y1048961D01*
X736199Y1046675D01*
X738065Y1044809D01*
X740351Y1043489D01*
X742900Y1042806D01*
X745540D01*
X748089Y1043489D01*
X750375Y1044809D01*
X752241Y1046675D01*
X753561Y1048961D01*
X754244Y1051510D01*
Y1054150D01*
X753561Y1056699D01*
X752241Y1058985D01*
X750375Y1060851D01*
X748089Y1062171D01*
X745540Y1062854D01*
D02*
G37*
G36*
X1122939Y1035224D02*
X1121221D01*
X1119562Y1034779D01*
X1118074Y1033921D01*
X1116860Y1032706D01*
X1116563Y1032193D01*
X1115097D01*
X1114800Y1032706D01*
X1113586Y1033921D01*
X1112098Y1034779D01*
X1110439Y1035224D01*
X1108721D01*
X1107062Y1034779D01*
X1105574Y1033921D01*
X1104360Y1032706D01*
X1104063Y1032193D01*
X1102597D01*
X1102300Y1032706D01*
X1101086Y1033921D01*
X1099598Y1034779D01*
X1097939Y1035224D01*
X1096221D01*
X1094562Y1034779D01*
X1093074Y1033921D01*
X1091860Y1032706D01*
X1091563Y1032193D01*
X1090097D01*
X1089800Y1032706D01*
X1088586Y1033921D01*
X1087098Y1034779D01*
X1085439Y1035224D01*
X1083721D01*
X1082062Y1034779D01*
X1080574Y1033921D01*
X1079360Y1032706D01*
X1079063Y1032193D01*
X1077597D01*
X1077300Y1032706D01*
X1076086Y1033921D01*
X1074598Y1034779D01*
X1072939Y1035224D01*
X1071221D01*
X1069562Y1034779D01*
X1068074Y1033921D01*
X1066860Y1032706D01*
X1066563Y1032193D01*
X1065097D01*
X1064800Y1032706D01*
X1063586Y1033921D01*
X1062098Y1034779D01*
X1060439Y1035224D01*
X1058721D01*
X1057062Y1034779D01*
X1055574Y1033921D01*
X1054360Y1032706D01*
X1054063Y1032193D01*
X1052597D01*
X1052300Y1032706D01*
X1051086Y1033921D01*
X1049598Y1034779D01*
X1047939Y1035224D01*
X1046221D01*
X1044562Y1034779D01*
X1043074Y1033921D01*
X1041860Y1032706D01*
X1041563Y1032193D01*
X1040097D01*
X1039800Y1032706D01*
X1038586Y1033921D01*
X1037098Y1034779D01*
X1035439Y1035224D01*
X1033721D01*
X1032062Y1034779D01*
X1030574Y1033921D01*
X1029360Y1032706D01*
X1029063Y1032193D01*
X1027597D01*
X1027300Y1032706D01*
X1026086Y1033921D01*
X1024598Y1034779D01*
X1022939Y1035224D01*
X1021221D01*
X1019562Y1034779D01*
X1018074Y1033921D01*
X1016860Y1032706D01*
X1016563Y1032193D01*
X1015097D01*
X1014800Y1032706D01*
X1013586Y1033921D01*
X1012098Y1034779D01*
X1010439Y1035224D01*
X1008721D01*
X1007062Y1034779D01*
X1005574Y1033921D01*
X1004360Y1032706D01*
X1004063Y1032193D01*
X1002597D01*
X1002300Y1032706D01*
X1001086Y1033921D01*
X999598Y1034779D01*
X997939Y1035224D01*
X996221D01*
X994562Y1034779D01*
X993074Y1033921D01*
X992374Y1033220D01*
X991104Y1033746D01*
Y1035224D01*
X978056D01*
Y1022176D01*
X991104D01*
Y1023654D01*
X992374Y1024180D01*
X993074Y1023480D01*
X994562Y1022621D01*
X996221Y1022176D01*
X997939D01*
X999598Y1022621D01*
X1001086Y1023480D01*
X1002300Y1024694D01*
X1002597Y1025207D01*
X1004063D01*
X1004360Y1024694D01*
X1005574Y1023480D01*
X1007062Y1022621D01*
X1008721Y1022176D01*
X1010439D01*
X1012098Y1022621D01*
X1013586Y1023480D01*
X1014800Y1024694D01*
X1015097Y1025207D01*
X1016563D01*
X1016860Y1024694D01*
X1018074Y1023480D01*
X1019562Y1022621D01*
X1021221Y1022176D01*
X1022939D01*
X1024598Y1022621D01*
X1026086Y1023480D01*
X1027300Y1024694D01*
X1027597Y1025207D01*
X1029063D01*
X1029360Y1024694D01*
X1030574Y1023480D01*
X1032062Y1022621D01*
X1033721Y1022176D01*
X1035439D01*
X1037098Y1022621D01*
X1038586Y1023480D01*
X1039800Y1024694D01*
X1040097Y1025207D01*
X1041563D01*
X1041860Y1024694D01*
X1043074Y1023480D01*
X1044562Y1022621D01*
X1046221Y1022176D01*
X1047939D01*
X1049598Y1022621D01*
X1051086Y1023480D01*
X1052300Y1024694D01*
X1052597Y1025207D01*
X1054063D01*
X1054360Y1024694D01*
X1055574Y1023480D01*
X1057062Y1022621D01*
X1058721Y1022176D01*
X1060439D01*
X1062098Y1022621D01*
X1063586Y1023480D01*
X1064800Y1024694D01*
X1065097Y1025207D01*
X1066563D01*
X1066860Y1024694D01*
X1068074Y1023480D01*
X1069562Y1022621D01*
X1071221Y1022176D01*
X1072939D01*
X1074598Y1022621D01*
X1076086Y1023480D01*
X1077300Y1024694D01*
X1077597Y1025207D01*
X1079063D01*
X1079360Y1024694D01*
X1080574Y1023480D01*
X1082062Y1022621D01*
X1083721Y1022176D01*
X1085439D01*
X1087098Y1022621D01*
X1088586Y1023480D01*
X1089800Y1024694D01*
X1090097Y1025207D01*
X1091563D01*
X1091860Y1024694D01*
X1093074Y1023480D01*
X1094562Y1022621D01*
X1096221Y1022176D01*
X1097939D01*
X1099598Y1022621D01*
X1101086Y1023480D01*
X1102300Y1024694D01*
X1102597Y1025207D01*
X1104063D01*
X1104360Y1024694D01*
X1105574Y1023480D01*
X1107062Y1022621D01*
X1108721Y1022176D01*
X1110439D01*
X1112098Y1022621D01*
X1113586Y1023480D01*
X1114800Y1024694D01*
X1115097Y1025207D01*
X1116563D01*
X1116860Y1024694D01*
X1118074Y1023480D01*
X1119562Y1022621D01*
X1121221Y1022176D01*
X1122939D01*
X1124598Y1022621D01*
X1126086Y1023480D01*
X1127300Y1024694D01*
X1128159Y1026182D01*
X1128604Y1027841D01*
Y1029559D01*
X1128159Y1031218D01*
X1127300Y1032706D01*
X1126086Y1033921D01*
X1124598Y1034779D01*
X1122939Y1035224D01*
D02*
G37*
G36*
X820711Y1026366D02*
X819113D01*
X818108Y1025950D01*
X819912Y1024146D01*
X821716Y1025950D01*
X820711Y1026366D01*
D02*
G37*
G36*
X823512Y1024154D02*
X821708Y1022350D01*
X823512Y1020546D01*
X823928Y1021551D01*
Y1023149D01*
X823512Y1024154D01*
D02*
G37*
G36*
X816312Y1024154D02*
X815896Y1023149D01*
Y1021551D01*
X816312Y1020546D01*
X818116Y1022350D01*
X816312Y1024154D01*
D02*
G37*
G36*
X1204010Y1039994D02*
X1201370D01*
X1198821Y1039311D01*
X1196535Y1037991D01*
X1194669Y1036125D01*
X1193349Y1033839D01*
X1192666Y1031290D01*
Y1028650D01*
X1193349Y1026101D01*
X1194669Y1023815D01*
X1196535Y1021949D01*
X1198821Y1020629D01*
X1201370Y1019946D01*
X1204010D01*
X1206559Y1020629D01*
X1208845Y1021949D01*
X1210711Y1023815D01*
X1212031Y1026101D01*
X1212714Y1028650D01*
Y1031290D01*
X1212031Y1033839D01*
X1210711Y1036125D01*
X1208845Y1037991D01*
X1206559Y1039311D01*
X1204010Y1039994D01*
D02*
G37*
G36*
X819912Y1020554D02*
X818108Y1018750D01*
X819113Y1018334D01*
X820711D01*
X821716Y1018750D01*
X819912Y1020554D01*
D02*
G37*
G36*
X745540Y1037454D02*
X742900D01*
X740351Y1036771D01*
X738065Y1035451D01*
X736199Y1033585D01*
X734879Y1031299D01*
X734196Y1028750D01*
Y1026110D01*
X734879Y1023561D01*
X736199Y1021275D01*
X738065Y1019409D01*
X740351Y1018089D01*
X742900Y1017406D01*
X745540D01*
X748089Y1018089D01*
X750375Y1019409D01*
X752241Y1021275D01*
X753561Y1023561D01*
X754244Y1026110D01*
Y1028750D01*
X753561Y1031299D01*
X752241Y1033585D01*
X750375Y1035451D01*
X748089Y1036771D01*
X745540Y1037454D01*
D02*
G37*
G36*
X876164Y1033644D02*
X856116D01*
Y1013596D01*
X876164D01*
Y1033644D01*
D02*
G37*
G36*
X915961Y991568D02*
X914363D01*
X913358Y991152D01*
X915162Y989348D01*
X916966Y991152D01*
X915961Y991568D01*
D02*
G37*
G36*
X930960Y1008244D02*
X928320D01*
X925771Y1007561D01*
X923485Y1006241D01*
X921619Y1004375D01*
X920299Y1002089D01*
X919616Y999540D01*
Y996900D01*
X920299Y994351D01*
X921619Y992065D01*
X923485Y990199D01*
X925771Y988879D01*
X928320Y988196D01*
X930960D01*
X933509Y988879D01*
X935795Y990199D01*
X937661Y992065D01*
X938981Y994351D01*
X939664Y996900D01*
Y999540D01*
X938981Y1002089D01*
X937661Y1004375D01*
X935795Y1006241D01*
X933509Y1007561D01*
X930960Y1008244D01*
D02*
G37*
G36*
X867460D02*
X864820D01*
X862271Y1007561D01*
X859985Y1006241D01*
X858119Y1004375D01*
X856799Y1002089D01*
X856116Y999540D01*
Y996900D01*
X856799Y994351D01*
X858119Y992065D01*
X859985Y990199D01*
X862271Y988879D01*
X864820Y988196D01*
X867460D01*
X870009Y988879D01*
X872295Y990199D01*
X874161Y992065D01*
X875481Y994351D01*
X876164Y996900D01*
Y999540D01*
X875481Y1002089D01*
X874161Y1004375D01*
X872295Y1006241D01*
X870009Y1007561D01*
X867460Y1008244D01*
D02*
G37*
G36*
X918762Y989356D02*
X916958Y987552D01*
X918762Y985748D01*
X919178Y986753D01*
Y988351D01*
X918762Y989356D01*
D02*
G37*
G36*
X911562Y989356D02*
X911146Y988351D01*
Y986753D01*
X911562Y985748D01*
X913366Y987552D01*
X911562Y989356D01*
D02*
G37*
G36*
X1220169Y985660D02*
X1217215D01*
X1217058Y985595D01*
X1216893Y985628D01*
X1213995Y985051D01*
X1213854Y984958D01*
X1213685D01*
X1210956Y983827D01*
X1210836Y983707D01*
X1210670Y983674D01*
X1208214Y982033D01*
X1208120Y981892D01*
X1207964Y981828D01*
X1205874Y979738D01*
X1205810Y979582D01*
X1205669Y979488D01*
X1204028Y977032D01*
X1203995Y976866D01*
X1203875Y976746D01*
X1202744Y974017D01*
Y973848D01*
X1202651Y973707D01*
X1202074Y970809D01*
X1202107Y970643D01*
X1202042Y970487D01*
Y967533D01*
X1202107Y967376D01*
X1202074Y967211D01*
X1202651Y964313D01*
X1202744Y964172D01*
Y964003D01*
X1203875Y961274D01*
X1203995Y961154D01*
X1204028Y960988D01*
X1205669Y958532D01*
X1205810Y958438D01*
X1205874Y958282D01*
X1207964Y956192D01*
X1208120Y956128D01*
X1208214Y955987D01*
X1210670Y954346D01*
X1210836Y954313D01*
X1210956Y954193D01*
X1213685Y953062D01*
X1213854D01*
X1213995Y952969D01*
X1216893Y952392D01*
X1217058Y952425D01*
X1217215Y952360D01*
X1220169D01*
X1220325Y952425D01*
X1220491Y952392D01*
X1223389Y952969D01*
X1223530Y953062D01*
X1223699D01*
X1226428Y954193D01*
X1226548Y954313D01*
X1226714Y954346D01*
X1229170Y955987D01*
X1229264Y956128D01*
X1229420Y956192D01*
X1231510Y958282D01*
X1231574Y958438D01*
X1231715Y958532D01*
X1233356Y960988D01*
X1233389Y961154D01*
X1233509Y961274D01*
X1234640Y964003D01*
Y964172D01*
X1234733Y964313D01*
X1235310Y967211D01*
X1235277Y967376D01*
X1235342Y967533D01*
Y970487D01*
X1235277Y970643D01*
X1235310Y970809D01*
X1234733Y973707D01*
X1234640Y973848D01*
Y974017D01*
X1233509Y976746D01*
X1233389Y976866D01*
X1233356Y977032D01*
X1231715Y979488D01*
X1231574Y979582D01*
X1231510Y979738D01*
X1229420Y981828D01*
X1229264Y981892D01*
X1229170Y982033D01*
X1226714Y983674D01*
X1226548Y983707D01*
X1226428Y983827D01*
X1223699Y984958D01*
X1223530D01*
X1223389Y985051D01*
X1220491Y985628D01*
X1220325Y985595D01*
X1220169Y985660D01*
D02*
G37*
G36*
X915162Y985756D02*
X913358Y983952D01*
X914363Y983536D01*
X915961D01*
X916966Y983952D01*
X915162Y985756D01*
D02*
G37*
G36*
X703630Y999304D02*
X700990D01*
X698441Y998621D01*
X696155Y997301D01*
X694289Y995435D01*
X692969Y993149D01*
X692286Y990600D01*
Y987960D01*
X692969Y985411D01*
X694289Y983125D01*
X696155Y981259D01*
X698441Y979939D01*
X700990Y979256D01*
X703630D01*
X706179Y979939D01*
X708465Y981259D01*
X710331Y983125D01*
X711651Y985411D01*
X712334Y987960D01*
Y990600D01*
X711651Y993149D01*
X710331Y995435D01*
X708465Y997301D01*
X706179Y998621D01*
X703630Y999304D01*
D02*
G37*
G36*
X678230D02*
X675590D01*
X673041Y998621D01*
X670755Y997301D01*
X668889Y995435D01*
X667569Y993149D01*
X666886Y990600D01*
Y987960D01*
X667569Y985411D01*
X668889Y983125D01*
X670755Y981259D01*
X673041Y979939D01*
X675590Y979256D01*
X678230D01*
X680779Y979939D01*
X683065Y981259D01*
X684931Y983125D01*
X686251Y985411D01*
X686934Y987960D01*
Y990600D01*
X686251Y993149D01*
X684931Y995435D01*
X683065Y997301D01*
X680779Y998621D01*
X678230Y999304D01*
D02*
G37*
G36*
X652830D02*
X650190D01*
X647641Y998621D01*
X645355Y997301D01*
X643489Y995435D01*
X642169Y993149D01*
X641486Y990600D01*
Y987960D01*
X642169Y985411D01*
X643489Y983125D01*
X645355Y981259D01*
X647641Y979939D01*
X650190Y979256D01*
X652830D01*
X655379Y979939D01*
X657665Y981259D01*
X659531Y983125D01*
X660851Y985411D01*
X661534Y987960D01*
Y990600D01*
X660851Y993149D01*
X659531Y995435D01*
X657665Y997301D01*
X655379Y998621D01*
X652830Y999304D01*
D02*
G37*
G36*
X627430D02*
X624790D01*
X622241Y998621D01*
X619955Y997301D01*
X618089Y995435D01*
X616769Y993149D01*
X616086Y990600D01*
Y987960D01*
X616769Y985411D01*
X618089Y983125D01*
X619955Y981259D01*
X622241Y979939D01*
X624790Y979256D01*
X627430D01*
X629979Y979939D01*
X632265Y981259D01*
X634131Y983125D01*
X635451Y985411D01*
X636134Y987960D01*
Y990600D01*
X635451Y993149D01*
X634131Y995435D01*
X632265Y997301D01*
X629979Y998621D01*
X627430Y999304D01*
D02*
G37*
G36*
X602030D02*
X599390D01*
X596841Y998621D01*
X594555Y997301D01*
X592689Y995435D01*
X591369Y993149D01*
X590686Y990600D01*
Y987960D01*
X591369Y985411D01*
X592689Y983125D01*
X594555Y981259D01*
X596841Y979939D01*
X599390Y979256D01*
X602030D01*
X604579Y979939D01*
X606865Y981259D01*
X608731Y983125D01*
X610051Y985411D01*
X610734Y987960D01*
Y990600D01*
X610051Y993149D01*
X608731Y995435D01*
X606865Y997301D01*
X604579Y998621D01*
X602030Y999304D01*
D02*
G37*
G36*
X576630D02*
X573990D01*
X571441Y998621D01*
X569155Y997301D01*
X567289Y995435D01*
X565969Y993149D01*
X565286Y990600D01*
Y987960D01*
X565969Y985411D01*
X567289Y983125D01*
X569155Y981259D01*
X571441Y979939D01*
X573990Y979256D01*
X576630D01*
X579179Y979939D01*
X581465Y981259D01*
X583331Y983125D01*
X584651Y985411D01*
X585334Y987960D01*
Y990600D01*
X584651Y993149D01*
X583331Y995435D01*
X581465Y997301D01*
X579179Y998621D01*
X576630Y999304D01*
D02*
G37*
G36*
X551230D02*
X548590D01*
X546041Y998621D01*
X543755Y997301D01*
X541889Y995435D01*
X540569Y993149D01*
X539886Y990600D01*
Y987960D01*
X540569Y985411D01*
X541889Y983125D01*
X543755Y981259D01*
X546041Y979939D01*
X548590Y979256D01*
X551230D01*
X553779Y979939D01*
X556065Y981259D01*
X557931Y983125D01*
X559251Y985411D01*
X559934Y987960D01*
Y990600D01*
X559251Y993149D01*
X557931Y995435D01*
X556065Y997301D01*
X553779Y998621D01*
X551230Y999304D01*
D02*
G37*
G36*
X534534D02*
X514486D01*
Y979256D01*
X534534D01*
Y999304D01*
D02*
G37*
G36*
X1109509Y973534D02*
X1107911D01*
X1106906Y973118D01*
X1108710Y971314D01*
X1110514Y973118D01*
X1109509Y973534D01*
D02*
G37*
G36*
X1125511Y973280D02*
X1123913D01*
X1122908Y972864D01*
X1124712Y971060D01*
X1126516Y972864D01*
X1125511Y973280D01*
D02*
G37*
G36*
X1012989Y973026D02*
X1011391D01*
X1010386Y972610D01*
X1012190Y970806D01*
X1013994Y972610D01*
X1012989Y973026D01*
D02*
G37*
G36*
X1028483Y972010D02*
X1026885D01*
X1025880Y971594D01*
X1027684Y969790D01*
X1029488Y971594D01*
X1028483Y972010D01*
D02*
G37*
G36*
X1112310Y971322D02*
X1110506Y969518D01*
X1112310Y967714D01*
X1112726Y968719D01*
Y970317D01*
X1112310Y971322D01*
D02*
G37*
G36*
X1105110Y971322D02*
X1104694Y970317D01*
Y968719D01*
X1105110Y967714D01*
X1106914Y969518D01*
X1105110Y971322D01*
D02*
G37*
G36*
X1128312Y971068D02*
X1126508Y969264D01*
X1128312Y967460D01*
X1128728Y968465D01*
Y970063D01*
X1128312Y971068D01*
D02*
G37*
G36*
X1121112Y971068D02*
X1120696Y970063D01*
Y968465D01*
X1121112Y967460D01*
X1122916Y969264D01*
X1121112Y971068D01*
D02*
G37*
G36*
X1015790Y970814D02*
X1013986Y969010D01*
X1015790Y967206D01*
X1016206Y968211D01*
Y969809D01*
X1015790Y970814D01*
D02*
G37*
G36*
X1008590Y970814D02*
X1008174Y969809D01*
Y968211D01*
X1008590Y967206D01*
X1010394Y969010D01*
X1008590Y970814D01*
D02*
G37*
G36*
X1031284Y969798D02*
X1029480Y967994D01*
X1031284Y966190D01*
X1031700Y967195D01*
Y968793D01*
X1031284Y969798D01*
D02*
G37*
G36*
X1024084Y969798D02*
X1023668Y968793D01*
Y967195D01*
X1024084Y966190D01*
X1025888Y967994D01*
X1024084Y969798D01*
D02*
G37*
G36*
X1108710Y967722D02*
X1106906Y965918D01*
X1107911Y965502D01*
X1109509D01*
X1110514Y965918D01*
X1108710Y967722D01*
D02*
G37*
G36*
X1124712Y967468D02*
X1122908Y965664D01*
X1123913Y965248D01*
X1125511D01*
X1126516Y965664D01*
X1124712Y967468D01*
D02*
G37*
G36*
X1012190Y967214D02*
X1010386Y965410D01*
X1011391Y964994D01*
X1012989D01*
X1013994Y965410D01*
X1012190Y967214D01*
D02*
G37*
G36*
X1027684Y966198D02*
X1025880Y964394D01*
X1026885Y963978D01*
X1028483D01*
X1029488Y964394D01*
X1027684Y966198D01*
D02*
G37*
G36*
X1044485Y947118D02*
X1042887D01*
X1041882Y946702D01*
X1043686Y944898D01*
X1045490Y946702D01*
X1044485Y947118D01*
D02*
G37*
G36*
X1047286Y944906D02*
X1045482Y943102D01*
X1047286Y941298D01*
X1047702Y942303D01*
Y943901D01*
X1047286Y944906D01*
D02*
G37*
G36*
X1040086Y944906D02*
X1039670Y943901D01*
Y942303D01*
X1040086Y941298D01*
X1041890Y943102D01*
X1040086Y944906D01*
D02*
G37*
G36*
X1122209Y941530D02*
X1120611D01*
X1119606Y941114D01*
X1121410Y939310D01*
X1123214Y941114D01*
X1122209Y941530D01*
D02*
G37*
G36*
X1043686Y941306D02*
X1041882Y939502D01*
X1042887Y939086D01*
X1044485D01*
X1045490Y939502D01*
X1043686Y941306D01*
D02*
G37*
G36*
X1125010Y939318D02*
X1123206Y937514D01*
X1125010Y935710D01*
X1125426Y936715D01*
Y938313D01*
X1125010Y939318D01*
D02*
G37*
G36*
X1117810Y939318D02*
X1117394Y938313D01*
Y936715D01*
X1117810Y935710D01*
X1119614Y937514D01*
X1117810Y939318D01*
D02*
G37*
G36*
X1121410Y935718D02*
X1119606Y933914D01*
X1120611Y933498D01*
X1122209D01*
X1123214Y933914D01*
X1121410Y935718D01*
D02*
G37*
G36*
X908341Y926036D02*
X906743D01*
X905738Y925620D01*
X907542Y923816D01*
X909346Y925620D01*
X908341Y926036D01*
D02*
G37*
G36*
X911142Y923824D02*
X909338Y922020D01*
X911142Y920216D01*
X911558Y921221D01*
Y922819D01*
X911142Y923824D01*
D02*
G37*
G36*
X903942Y923824D02*
X903526Y922819D01*
Y921221D01*
X903942Y920216D01*
X905746Y922020D01*
X903942Y923824D01*
D02*
G37*
G36*
X907542Y920224D02*
X905738Y918420D01*
X906743Y918004D01*
X908341D01*
X909346Y918420D01*
X907542Y920224D01*
D02*
G37*
G36*
X1202981Y913082D02*
X1201383D01*
X1200378Y912666D01*
X1202182Y910862D01*
X1203986Y912666D01*
X1202981Y913082D01*
D02*
G37*
G36*
X1205782Y910870D02*
X1203978Y909066D01*
X1205782Y907262D01*
X1206198Y908267D01*
Y909865D01*
X1205782Y910870D01*
D02*
G37*
G36*
X1198582Y910870D02*
X1198166Y909865D01*
Y908267D01*
X1198582Y907262D01*
X1200386Y909066D01*
X1198582Y910870D01*
D02*
G37*
G36*
X908849Y907494D02*
X907251D01*
X906246Y907078D01*
X908050Y905274D01*
X909854Y907078D01*
X908849Y907494D01*
D02*
G37*
G36*
X1202182Y907270D02*
X1200378Y905466D01*
X1201383Y905050D01*
X1202981D01*
X1203986Y905466D01*
X1202182Y907270D01*
D02*
G37*
G36*
X616241Y906224D02*
X614643D01*
X613638Y905808D01*
X615442Y904004D01*
X617246Y905808D01*
X616241Y906224D01*
D02*
G37*
G36*
X911650Y905282D02*
X909846Y903478D01*
X911650Y901674D01*
X912066Y902679D01*
Y904277D01*
X911650Y905282D01*
D02*
G37*
G36*
X904450Y905282D02*
X904034Y904277D01*
Y902679D01*
X904450Y901674D01*
X906254Y903478D01*
X904450Y905282D01*
D02*
G37*
G36*
X619042Y904012D02*
X617238Y902208D01*
X619042Y900404D01*
X619458Y901409D01*
Y903007D01*
X619042Y904012D01*
D02*
G37*
G36*
X611842Y904012D02*
X611426Y903007D01*
Y901409D01*
X611842Y900404D01*
X613646Y902208D01*
X611842Y904012D01*
D02*
G37*
G36*
X908050Y901682D02*
X906246Y899878D01*
X907251Y899462D01*
X908849D01*
X909854Y899878D01*
X908050Y901682D01*
D02*
G37*
G36*
X876845Y901144D02*
X875247D01*
X874242Y900728D01*
X876046Y898924D01*
X877850Y900728D01*
X876845Y901144D01*
D02*
G37*
G36*
X615442Y900412D02*
X613638Y898608D01*
X614643Y898192D01*
X616241D01*
X617246Y898608D01*
X615442Y900412D01*
D02*
G37*
G36*
X624369Y897588D02*
X622771D01*
X621766Y897172D01*
X623570Y895368D01*
X625374Y897172D01*
X624369Y897588D01*
D02*
G37*
G36*
X609129Y897334D02*
X607531D01*
X606526Y896918D01*
X608330Y895114D01*
X610134Y896918D01*
X609129Y897334D01*
D02*
G37*
G36*
X532929Y897080D02*
X531331D01*
X530326Y896664D01*
X532130Y894860D01*
X533934Y896664D01*
X532929Y897080D01*
D02*
G37*
G36*
X578903D02*
X577305D01*
X576300Y896664D01*
X578104Y894860D01*
X579908Y896664D01*
X578903Y897080D01*
D02*
G37*
G36*
X627170Y895376D02*
X625366Y893572D01*
X627170Y891768D01*
X627586Y892773D01*
Y894371D01*
X627170Y895376D01*
D02*
G37*
G36*
X619970Y895376D02*
X619554Y894371D01*
Y892773D01*
X619970Y891768D01*
X621774Y893572D01*
X619970Y895376D01*
D02*
G37*
G36*
X611930Y895122D02*
X610126Y893318D01*
X611930Y891514D01*
X612346Y892519D01*
Y894117D01*
X611930Y895122D01*
D02*
G37*
G36*
X604730Y895122D02*
X604314Y894117D01*
Y892519D01*
X604730Y891514D01*
X606534Y893318D01*
X604730Y895122D01*
D02*
G37*
G36*
X581704Y894868D02*
X579900Y893064D01*
X581704Y891260D01*
X582120Y892265D01*
Y893863D01*
X581704Y894868D01*
D02*
G37*
G36*
X535730D02*
X533926Y893064D01*
X535730Y891260D01*
X536146Y892265D01*
Y893863D01*
X535730Y894868D01*
D02*
G37*
G36*
X574504Y894868D02*
X574088Y893863D01*
Y892265D01*
X574504Y891260D01*
X576308Y893064D01*
X574504Y894868D01*
D02*
G37*
G36*
X528530D02*
X528114Y893863D01*
Y892265D01*
X528530Y891260D01*
X530334Y893064D01*
X528530Y894868D01*
D02*
G37*
G36*
X623570Y891776D02*
X621766Y889972D01*
X622771Y889556D01*
X624369D01*
X625374Y889972D01*
X623570Y891776D01*
D02*
G37*
G36*
X608330Y891522D02*
X606526Y889718D01*
X607531Y889302D01*
X609129D01*
X610134Y889718D01*
X608330Y891522D01*
D02*
G37*
G36*
X578104Y891268D02*
X576300Y889464D01*
X577305Y889048D01*
X578903D01*
X579908Y889464D01*
X578104Y891268D01*
D02*
G37*
G36*
X532130D02*
X530326Y889464D01*
X531331Y889048D01*
X532929D01*
X533934Y889464D01*
X532130Y891268D01*
D02*
G37*
G36*
X872446Y898932D02*
X872030Y897927D01*
Y896329D01*
X872641Y894853D01*
X873771Y893723D01*
X873821Y893471D01*
X872895Y892545D01*
X872284Y891069D01*
Y889471D01*
X872700Y888466D01*
X875402Y891168D01*
X876300Y890270D01*
X877198Y891168D01*
X879900Y888466D01*
X880316Y889471D01*
Y891069D01*
X879705Y892545D01*
X878575Y893675D01*
X878525Y893927D01*
X879451Y894853D01*
X880062Y896329D01*
Y897927D01*
X879646Y898932D01*
X876944Y896230D01*
X876046Y897128D01*
X875148Y896230D01*
X872446Y898932D01*
D02*
G37*
G36*
X876300Y888474D02*
X874496Y886670D01*
X875501Y886254D01*
X877099D01*
X878104Y886670D01*
X876300Y888474D01*
D02*
G37*
G36*
X526833Y863298D02*
X525235D01*
X524230Y862882D01*
X526034Y861078D01*
X527838Y862882D01*
X526833Y863298D01*
D02*
G37*
G36*
X1211109Y859996D02*
X1209511D01*
X1208506Y859580D01*
X1210310Y857776D01*
X1212114Y859580D01*
X1211109Y859996D01*
D02*
G37*
G36*
X529634Y861086D02*
X527830Y859282D01*
X529634Y857478D01*
X530050Y858483D01*
Y860081D01*
X529634Y861086D01*
D02*
G37*
G36*
X522434Y861086D02*
X522018Y860081D01*
Y858483D01*
X522434Y857478D01*
X524238Y859282D01*
X522434Y861086D01*
D02*
G37*
G36*
X1005470Y885164D02*
X1003670D01*
X1002007Y884475D01*
X1000735Y883203D01*
X1000046Y881540D01*
Y879740D01*
X1000735Y878077D01*
X1002007Y876805D01*
X1003670Y876116D01*
X1005432D01*
X1010571Y870977D01*
Y868891D01*
X1010768Y867900D01*
X1011329Y867060D01*
X1019161Y859229D01*
X1020001Y858667D01*
X1020992Y858470D01*
X1109220D01*
X1110465Y857225D01*
X1112128Y856536D01*
X1113928D01*
X1115591Y857225D01*
X1116863Y858497D01*
X1117552Y860160D01*
Y861960D01*
X1116863Y863623D01*
X1115591Y864895D01*
X1113928Y865584D01*
X1112128D01*
X1110465Y864895D01*
X1109220Y863650D01*
X1022065D01*
X1015750Y869964D01*
Y872049D01*
X1015553Y873040D01*
X1014992Y873881D01*
X1009094Y879779D01*
Y881540D01*
X1008405Y883203D01*
X1007133Y884475D01*
X1005470Y885164D01*
D02*
G37*
G36*
X526034Y857486D02*
X524230Y855682D01*
X525235Y855266D01*
X526833D01*
X527838Y855682D01*
X526034Y857486D01*
D02*
G37*
G36*
X1213910Y857784D02*
X1212106Y855980D01*
X1213910Y854176D01*
X1214326Y855181D01*
Y856779D01*
X1213910Y857784D01*
D02*
G37*
G36*
X1206710Y857784D02*
X1206294Y856779D01*
Y855181D01*
X1206710Y854176D01*
X1208514Y855980D01*
X1206710Y857784D01*
D02*
G37*
G36*
X1210310Y854184D02*
X1208506Y852380D01*
X1209511Y851964D01*
X1211109D01*
X1212114Y852380D01*
X1210310Y854184D01*
D02*
G37*
G36*
X556256Y854482D02*
X554452Y852678D01*
X556256Y850874D01*
X556672Y851879D01*
Y853477D01*
X556256Y854482D01*
D02*
G37*
G36*
X548016Y897334D02*
X546216D01*
X544553Y896645D01*
X543281Y895373D01*
X542592Y893710D01*
Y891910D01*
X543281Y890247D01*
X544526Y889002D01*
Y836930D01*
X544723Y835939D01*
X545285Y835099D01*
X575612Y804771D01*
Y803010D01*
X576301Y801347D01*
X577573Y800075D01*
X579236Y799386D01*
X581036D01*
X582699Y800075D01*
X583971Y801347D01*
X584660Y803010D01*
Y804810D01*
X583971Y806473D01*
X582699Y807745D01*
X581036Y808434D01*
X579274D01*
X549706Y838003D01*
Y848289D01*
X550976Y849027D01*
X551857Y848662D01*
X553455D01*
X554460Y849078D01*
X551758Y851780D01*
X552656Y852678D01*
X551758Y853576D01*
X554460Y856278D01*
X553455Y856694D01*
X551857D01*
X550976Y856329D01*
X549706Y857067D01*
Y889002D01*
X550951Y890247D01*
X551640Y891910D01*
Y893710D01*
X550951Y895373D01*
X549679Y896645D01*
X548016Y897334D01*
D02*
G37*
G36*
X1210213Y849462D02*
X1208615D01*
X1207610Y849046D01*
X1209414Y847242D01*
X1211218Y849046D01*
X1210213Y849462D01*
D02*
G37*
G36*
X690409Y846280D02*
X688811D01*
X687806Y845864D01*
X689610Y844060D01*
X691414Y845864D01*
X690409Y846280D01*
D02*
G37*
G36*
X1213014Y847250D02*
X1211210Y845446D01*
X1213014Y843642D01*
X1213430Y844647D01*
Y846245D01*
X1213014Y847250D01*
D02*
G37*
G36*
X1205814Y847250D02*
X1205398Y846245D01*
Y844647D01*
X1205814Y843642D01*
X1207618Y845446D01*
X1205814Y847250D01*
D02*
G37*
G36*
X1209414Y843650D02*
X1207610Y841846D01*
X1208615Y841430D01*
X1210213D01*
X1211218Y841846D01*
X1209414Y843650D01*
D02*
G37*
G36*
X693210Y844068D02*
X691406Y842264D01*
X693210Y840460D01*
X693626Y841465D01*
Y843063D01*
X693210Y844068D01*
D02*
G37*
G36*
X686010Y844068D02*
X685594Y843063D01*
Y841465D01*
X686010Y840460D01*
X687814Y842264D01*
X686010Y844068D01*
D02*
G37*
G36*
X689610Y840468D02*
X687806Y838664D01*
X688811Y838248D01*
X690409D01*
X691414Y838664D01*
X689610Y840468D01*
D02*
G37*
G36*
X1007909Y840438D02*
X1006311D01*
X1005306Y840022D01*
X1007110Y838218D01*
X1008914Y840022D01*
X1007909Y840438D01*
D02*
G37*
G36*
X595181Y839654D02*
X593583D01*
X592578Y839238D01*
X594382Y837434D01*
X596186Y839238D01*
X595181Y839654D01*
D02*
G37*
G36*
X577655Y839400D02*
X576057D01*
X575052Y838984D01*
X576856Y837180D01*
X578660Y838984D01*
X577655Y839400D01*
D02*
G37*
G36*
X1220440Y839235D02*
X1218842D01*
X1217837Y838819D01*
X1219641Y837015D01*
X1221445Y838819D01*
X1220440Y839235D01*
D02*
G37*
G36*
X683043Y839168D02*
X681445D01*
X680440Y838752D01*
X682244Y836948D01*
X684048Y838752D01*
X683043Y839168D01*
D02*
G37*
G36*
X1010710Y838226D02*
X1008906Y836422D01*
X1010710Y834618D01*
X1011126Y835623D01*
Y837221D01*
X1010710Y838226D01*
D02*
G37*
G36*
X597982Y837442D02*
X596178Y835638D01*
X597982Y833834D01*
X598398Y834839D01*
Y836437D01*
X597982Y837442D01*
D02*
G37*
G36*
X590782Y837442D02*
X590366Y836437D01*
Y834839D01*
X590782Y833834D01*
X592586Y835638D01*
X590782Y837442D01*
D02*
G37*
G36*
X580456Y837188D02*
X578652Y835384D01*
X580456Y833580D01*
X580872Y834585D01*
Y836183D01*
X580456Y837188D01*
D02*
G37*
G36*
X573256Y837188D02*
X572840Y836183D01*
Y834585D01*
X573256Y833580D01*
X575060Y835384D01*
X573256Y837188D01*
D02*
G37*
G36*
X1223241Y837023D02*
X1221437Y835219D01*
X1223241Y833415D01*
X1223657Y834420D01*
Y836018D01*
X1223241Y837023D01*
D02*
G37*
G36*
X1216041Y837023D02*
X1215625Y836018D01*
Y834420D01*
X1216041Y833415D01*
X1217845Y835219D01*
X1216041Y837023D01*
D02*
G37*
G36*
X685844Y836956D02*
X684040Y835152D01*
X685844Y833348D01*
X686260Y834353D01*
Y835951D01*
X685844Y836956D01*
D02*
G37*
G36*
X678644Y836956D02*
X678228Y835951D01*
Y834353D01*
X678644Y833348D01*
X680448Y835152D01*
X678644Y836956D01*
D02*
G37*
G36*
X586291Y835082D02*
X584693D01*
X583688Y834666D01*
X585492Y832862D01*
X587296Y834666D01*
X586291Y835082D01*
D02*
G37*
G36*
X594382Y833842D02*
X592578Y832038D01*
X593583Y831622D01*
X595181D01*
X596186Y832038D01*
X594382Y833842D01*
D02*
G37*
G36*
X1219641Y833423D02*
X1217837Y831619D01*
X1218842Y831203D01*
X1220440D01*
X1221445Y831619D01*
X1219641Y833423D01*
D02*
G37*
G36*
X682244Y833356D02*
X680440Y831552D01*
X681445Y831136D01*
X683043D01*
X684048Y831552D01*
X682244Y833356D01*
D02*
G37*
G36*
X589092Y832870D02*
X587288Y831066D01*
X589092Y829262D01*
X589508Y830267D01*
Y831865D01*
X589092Y832870D01*
D02*
G37*
G36*
X581892Y832870D02*
X581476Y831865D01*
Y830267D01*
X581892Y829262D01*
X583696Y831066D01*
X581892Y832870D01*
D02*
G37*
G36*
X1213649Y830786D02*
X1212051D01*
X1211046Y830370D01*
X1212850Y828566D01*
X1214654Y830370D01*
X1213649Y830786D01*
D02*
G37*
G36*
X576856Y833588D02*
X575052Y831784D01*
X575296Y831683D01*
X575179Y830357D01*
X574544Y830094D01*
X576348Y828290D01*
X578152Y830094D01*
X577908Y830195D01*
X578024Y831521D01*
X578660Y831784D01*
X576856Y833588D01*
D02*
G37*
G36*
X595435Y830256D02*
X593837D01*
X592832Y829840D01*
X594636Y828036D01*
X596440Y829840D01*
X595435Y830256D01*
D02*
G37*
G36*
X1172755Y830024D02*
X1171157D01*
X1170152Y829608D01*
X1171956Y827804D01*
X1173760Y829608D01*
X1172755Y830024D01*
D02*
G37*
G36*
X585492Y829270D02*
X583688Y827466D01*
X584693Y827050D01*
X586291D01*
X587296Y827466D01*
X585492Y829270D01*
D02*
G37*
G36*
X1230667Y829008D02*
X1229069D01*
X1228064Y828592D01*
X1229868Y826788D01*
X1231672Y828592D01*
X1230667Y829008D01*
D02*
G37*
G36*
X1216450Y828574D02*
X1214646Y826770D01*
X1216450Y824966D01*
X1216866Y825971D01*
Y827569D01*
X1216450Y828574D01*
D02*
G37*
G36*
X1209250Y828574D02*
X1208834Y827569D01*
Y825971D01*
X1209250Y824966D01*
X1211054Y826770D01*
X1209250Y828574D01*
D02*
G37*
G36*
X579948Y828298D02*
X578144Y826494D01*
X579948Y824690D01*
X580364Y825695D01*
Y827293D01*
X579948Y828298D01*
D02*
G37*
G36*
X572748Y828298D02*
X572332Y827293D01*
Y825695D01*
X572748Y824690D01*
X574552Y826494D01*
X572748Y828298D01*
D02*
G37*
G36*
X598236Y828044D02*
X596432Y826240D01*
X598236Y824436D01*
X598652Y825441D01*
Y827039D01*
X598236Y828044D01*
D02*
G37*
G36*
X591036Y828044D02*
X590620Y827039D01*
Y825441D01*
X591036Y824436D01*
X592840Y826240D01*
X591036Y828044D01*
D02*
G37*
G36*
X1175556Y827812D02*
X1173752Y826008D01*
X1175556Y824204D01*
X1175972Y825209D01*
Y826807D01*
X1175556Y827812D01*
D02*
G37*
G36*
X1168356Y827812D02*
X1167940Y826807D01*
Y825209D01*
X1168356Y824204D01*
X1170160Y826008D01*
X1168356Y827812D01*
D02*
G37*
G36*
X1233468Y826796D02*
X1231664Y824992D01*
X1233468Y823188D01*
X1233884Y824193D01*
Y825791D01*
X1233468Y826796D01*
D02*
G37*
G36*
X1226268Y826796D02*
X1225852Y825791D01*
Y824193D01*
X1226268Y823188D01*
X1228072Y824992D01*
X1226268Y826796D01*
D02*
G37*
G36*
X1212850Y824974D02*
X1211046Y823170D01*
X1212051Y822754D01*
X1213649D01*
X1214654Y823170D01*
X1212850Y824974D01*
D02*
G37*
G36*
X576348Y824698D02*
X574544Y822894D01*
X575549Y822478D01*
X577147D01*
X578152Y822894D01*
X576348Y824698D01*
D02*
G37*
G36*
X594636Y824444D02*
X592832Y822640D01*
X593837Y822224D01*
X595435D01*
X596440Y822640D01*
X594636Y824444D01*
D02*
G37*
G36*
X1171956Y824212D02*
X1170152Y822408D01*
X1171157Y821992D01*
X1172755D01*
X1173760Y822408D01*
X1171956Y824212D01*
D02*
G37*
G36*
X1229868Y823196D02*
X1228064Y821392D01*
X1229069Y820976D01*
X1230667D01*
X1231672Y821392D01*
X1229868Y823196D01*
D02*
G37*
G36*
X518451Y813514D02*
X516853D01*
X515848Y813098D01*
X517652Y811294D01*
X519456Y813098D01*
X518451Y813514D01*
D02*
G37*
G36*
X534961Y813006D02*
X533363D01*
X532358Y812590D01*
X534162Y810786D01*
X535966Y812590D01*
X534961Y813006D01*
D02*
G37*
G36*
X978191Y811990D02*
X976593D01*
X975588Y811574D01*
X977392Y809770D01*
X979196Y811574D01*
X978191Y811990D01*
D02*
G37*
G36*
X1010449Y811482D02*
X1008851D01*
X1007846Y811066D01*
X1009650Y809262D01*
X1011454Y811066D01*
X1010449Y811482D01*
D02*
G37*
G36*
X1230667Y810212D02*
X1229069D01*
X1228064Y809796D01*
X1229868Y807992D01*
X1231672Y809796D01*
X1230667Y810212D01*
D02*
G37*
G36*
X521252Y811302D02*
X519448Y809498D01*
X521252Y807694D01*
X521668Y808699D01*
Y810297D01*
X521252Y811302D01*
D02*
G37*
G36*
X514052Y811302D02*
X513636Y810297D01*
Y808699D01*
X514052Y807694D01*
X515856Y809498D01*
X514052Y811302D01*
D02*
G37*
G36*
X537762Y810794D02*
X535958Y808990D01*
X537762Y807186D01*
X538178Y808191D01*
Y809789D01*
X537762Y810794D01*
D02*
G37*
G36*
X530562Y810794D02*
X530146Y809789D01*
Y808191D01*
X530562Y807186D01*
X532366Y808990D01*
X530562Y810794D01*
D02*
G37*
G36*
X713158Y809195D02*
X711560D01*
X710555Y808779D01*
X712359Y806975D01*
X714163Y808779D01*
X713158Y809195D01*
D02*
G37*
G36*
X730938Y808941D02*
X729340D01*
X728335Y808525D01*
X730139Y806721D01*
X731943Y808525D01*
X730938Y808941D01*
D02*
G37*
G36*
X722302D02*
X720704D01*
X719699Y808525D01*
X721503Y806721D01*
X723307Y808525D01*
X722302Y808941D01*
D02*
G37*
G36*
X726539Y806729D02*
X726508Y806655D01*
X725134D01*
X725103Y806729D01*
X723299Y804925D01*
X725103Y803122D01*
X725134Y803196D01*
X726508D01*
X726539Y803122D01*
X728343Y804925D01*
X726539Y806729D01*
D02*
G37*
G36*
X980992Y809778D02*
X979188Y807974D01*
X980992Y806170D01*
X981408Y807175D01*
Y808773D01*
X980992Y809778D01*
D02*
G37*
G36*
X973792Y809778D02*
X973376Y808773D01*
Y807175D01*
X973792Y806170D01*
X975596Y807974D01*
X973792Y809778D01*
D02*
G37*
G36*
X1013250Y809270D02*
X1011446Y807466D01*
X1013250Y805662D01*
X1013666Y806667D01*
Y808265D01*
X1013250Y809270D01*
D02*
G37*
G36*
X1006050Y809270D02*
X1005634Y808265D01*
Y806667D01*
X1006050Y805662D01*
X1007854Y807466D01*
X1006050Y809270D01*
D02*
G37*
G36*
X517652Y807702D02*
X515848Y805898D01*
X516853Y805482D01*
X518451D01*
X519456Y805898D01*
X517652Y807702D01*
D02*
G37*
G36*
X534162Y807194D02*
X532358Y805390D01*
X533363Y804974D01*
X534961D01*
X535966Y805390D01*
X534162Y807194D01*
D02*
G37*
G36*
X526181Y807020D02*
X524583D01*
X523578Y806604D01*
X525382Y804800D01*
X527186Y806604D01*
X526181Y807020D01*
D02*
G37*
G36*
X1165897Y806910D02*
X1164299D01*
X1163294Y806494D01*
X1165098Y804690D01*
X1166902Y806494D01*
X1165897Y806910D01*
D02*
G37*
G36*
X1233468Y808000D02*
X1231664Y806196D01*
X1233468Y804392D01*
X1233884Y805397D01*
Y806995D01*
X1233468Y808000D01*
D02*
G37*
G36*
X1226268Y808000D02*
X1225852Y806995D01*
Y805397D01*
X1226268Y804392D01*
X1228072Y806196D01*
X1226268Y808000D01*
D02*
G37*
G36*
X977392Y806178D02*
X975588Y804374D01*
X976593Y803958D01*
X978191D01*
X979196Y804374D01*
X977392Y806178D01*
D02*
G37*
G36*
X543089Y805894D02*
X541491D01*
X540486Y805478D01*
X542290Y803674D01*
X544094Y805478D01*
X543089Y805894D01*
D02*
G37*
G36*
X1009650Y805670D02*
X1007846Y803866D01*
X1008851Y803450D01*
X1010449D01*
X1011454Y803866D01*
X1009650Y805670D01*
D02*
G37*
G36*
X708759Y806983D02*
X708343Y805978D01*
Y804381D01*
X708759Y803376D01*
X710563Y805179D01*
X708759Y806983D01*
D02*
G37*
G36*
X733739Y806729D02*
X731935Y804925D01*
X733739Y803122D01*
X734155Y804127D01*
Y805724D01*
X733739Y806729D01*
D02*
G37*
G36*
X715959Y806983D02*
X714155Y805179D01*
X715959Y803376D01*
X716243Y804063D01*
X716960Y804100D01*
X717548Y803979D01*
X717903Y803122D01*
X719707Y804925D01*
X717903Y806729D01*
X717618Y806042D01*
X716902Y806005D01*
X716313Y806126D01*
X715959Y806983D01*
D02*
G37*
G36*
X1229868Y804400D02*
X1228064Y802596D01*
X1229069Y802180D01*
X1230667D01*
X1231672Y802596D01*
X1229868Y804400D01*
D02*
G37*
G36*
X1002829Y803862D02*
X1001231D01*
X1000226Y803446D01*
X1002030Y801642D01*
X1003834Y803446D01*
X1002829Y803862D01*
D02*
G37*
G36*
X986827Y803608D02*
X985229D01*
X984224Y803192D01*
X986028Y801388D01*
X987832Y803192D01*
X986827Y803608D01*
D02*
G37*
G36*
X528982Y804808D02*
X527178Y803004D01*
X528982Y801200D01*
X529398Y802205D01*
Y803803D01*
X528982Y804808D01*
D02*
G37*
G36*
X521782Y804808D02*
X521366Y803803D01*
Y802205D01*
X521782Y801200D01*
X523586Y803004D01*
X521782Y804808D01*
D02*
G37*
G36*
X712359Y803383D02*
X710555Y801580D01*
X711560Y801163D01*
X713158D01*
X714163Y801580D01*
X712359Y803383D01*
D02*
G37*
G36*
X1168698Y804698D02*
X1166894Y802894D01*
X1168698Y801090D01*
X1169114Y802095D01*
Y803693D01*
X1168698Y804698D01*
D02*
G37*
G36*
X1161498Y804698D02*
X1161082Y803693D01*
Y802095D01*
X1161498Y801090D01*
X1163302Y802894D01*
X1161498Y804698D01*
D02*
G37*
G36*
X730139Y803129D02*
X728335Y801326D01*
X729340Y800909D01*
X730938D01*
X731943Y801326D01*
X730139Y803129D01*
D02*
G37*
G36*
X721503D02*
X719699Y801326D01*
X720704Y800909D01*
X722302D01*
X723307Y801326D01*
X721503Y803129D01*
D02*
G37*
G36*
X545890Y803682D02*
X544086Y801878D01*
X545890Y800074D01*
X546306Y801079D01*
Y802677D01*
X545890Y803682D01*
D02*
G37*
G36*
X538690Y803682D02*
X538274Y802677D01*
Y801079D01*
X538690Y800074D01*
X540494Y801878D01*
X538690Y803682D01*
D02*
G37*
G36*
X525382Y801208D02*
X523578Y799404D01*
X524583Y798988D01*
X526181D01*
X527186Y799404D01*
X525382Y801208D01*
D02*
G37*
G36*
X1165098Y801098D02*
X1163294Y799294D01*
X1164299Y798878D01*
X1165897D01*
X1166902Y799294D01*
X1165098Y801098D01*
D02*
G37*
G36*
X1005630Y801650D02*
X1003826Y799846D01*
X1005630Y798042D01*
X1006046Y799047D01*
Y800645D01*
X1005630Y801650D01*
D02*
G37*
G36*
X998430Y801650D02*
X998014Y800645D01*
Y799047D01*
X998430Y798042D01*
X1000234Y799846D01*
X998430Y801650D01*
D02*
G37*
G36*
X542290Y800082D02*
X540486Y798278D01*
X541491Y797862D01*
X543089D01*
X544094Y798278D01*
X542290Y800082D01*
D02*
G37*
G36*
X1109465Y800052D02*
X1107867D01*
X1106862Y799636D01*
X1108666Y797832D01*
X1110470Y799636D01*
X1109465Y800052D01*
D02*
G37*
G36*
X989628Y801396D02*
X987824Y799592D01*
X989628Y797788D01*
X990044Y798793D01*
Y800391D01*
X989628Y801396D01*
D02*
G37*
G36*
X982428Y801396D02*
X982012Y800391D01*
Y798793D01*
X982428Y797788D01*
X984232Y799592D01*
X982428Y801396D01*
D02*
G37*
G36*
X722556Y798527D02*
X720958D01*
X719953Y798111D01*
X721757Y796308D01*
X723561Y798111D01*
X722556Y798527D01*
D02*
G37*
G36*
X731446Y798273D02*
X729848D01*
X728843Y797857D01*
X730647Y796053D01*
X732451Y797857D01*
X731446Y798273D01*
D02*
G37*
G36*
X713158D02*
X711560D01*
X710555Y797857D01*
X712359Y796053D01*
X714163Y797857D01*
X713158Y798273D01*
D02*
G37*
G36*
X1002030Y798050D02*
X1000226Y796246D01*
X1001231Y795830D01*
X1002829D01*
X1003834Y796246D01*
X1002030Y798050D01*
D02*
G37*
G36*
X986028Y797796D02*
X984224Y795992D01*
X985229Y795576D01*
X986827D01*
X987832Y795992D01*
X986028Y797796D01*
D02*
G37*
G36*
X1217967Y797512D02*
X1216369D01*
X1215364Y797096D01*
X1217168Y795292D01*
X1218972Y797096D01*
X1217967Y797512D01*
D02*
G37*
G36*
X1112266Y797840D02*
X1110462Y796036D01*
X1112266Y794232D01*
X1112682Y795237D01*
Y796835D01*
X1112266Y797840D01*
D02*
G37*
G36*
X718157Y796315D02*
X717741Y795310D01*
Y793713D01*
X718157Y792708D01*
X719961Y794511D01*
X718157Y796315D01*
D02*
G37*
G36*
X734247Y796061D02*
X732443Y794257D01*
X734247Y792454D01*
X734663Y793459D01*
Y795056D01*
X734247Y796061D01*
D02*
G37*
G36*
X715959D02*
X714155Y794257D01*
X715959Y792454D01*
X716375Y793459D01*
Y795056D01*
X715959Y796061D01*
D02*
G37*
G36*
X725357Y796315D02*
X723553Y794511D01*
X725357Y792708D01*
X725462Y792962D01*
X726837D01*
X727047Y792454D01*
X728851Y794257D01*
X727047Y796061D01*
X726942Y795807D01*
X725567D01*
X725357Y796315D01*
D02*
G37*
G36*
X708759Y796061D02*
X708343Y795056D01*
Y793459D01*
X708759Y792454D01*
X710563Y794257D01*
X708759Y796061D01*
D02*
G37*
G36*
X1108666Y794240D02*
X1106862Y792436D01*
X1107867Y792020D01*
X1109465D01*
X1110470Y792436D01*
X1108666Y794240D01*
D02*
G37*
G36*
X1220768Y795300D02*
X1218964Y793496D01*
X1220768Y791692D01*
X1221184Y792697D01*
Y794295D01*
X1220768Y795300D01*
D02*
G37*
G36*
X1213568Y795300D02*
X1213152Y794295D01*
Y792697D01*
X1213568Y791692D01*
X1215372Y793496D01*
X1213568Y795300D01*
D02*
G37*
G36*
X721757Y792715D02*
X719953Y790912D01*
X720958Y790495D01*
X722556D01*
X723561Y790912D01*
X721757Y792715D01*
D02*
G37*
G36*
X730647Y792461D02*
X728843Y790658D01*
X729848Y790241D01*
X731446D01*
X732451Y790658D01*
X730647Y792461D01*
D02*
G37*
G36*
X712359D02*
X710555Y790658D01*
X711560Y790241D01*
X713158D01*
X714163Y790658D01*
X712359Y792461D01*
D02*
G37*
G36*
X1217168Y791700D02*
X1215364Y789896D01*
X1216369Y789480D01*
X1217967D01*
X1218972Y789896D01*
X1217168Y791700D01*
D02*
G37*
G36*
X1195361Y790908D02*
X1193763D01*
X1192758Y790492D01*
X1194562Y788688D01*
X1196366Y790492D01*
X1195361Y790908D01*
D02*
G37*
G36*
X1198162Y788696D02*
X1196358Y786892D01*
X1198162Y785088D01*
X1198578Y786093D01*
Y787691D01*
X1198162Y788696D01*
D02*
G37*
G36*
X1190962Y788696D02*
X1190546Y787691D01*
Y786093D01*
X1190962Y785088D01*
X1192766Y786892D01*
X1190962Y788696D01*
D02*
G37*
G36*
X1194562Y785096D02*
X1192758Y783292D01*
X1193763Y782876D01*
X1195361D01*
X1196366Y783292D01*
X1194562Y785096D01*
D02*
G37*
G36*
X1205267Y784812D02*
X1203669D01*
X1202664Y784396D01*
X1204468Y782592D01*
X1206272Y784396D01*
X1205267Y784812D01*
D02*
G37*
G36*
X1187995D02*
X1186397D01*
X1185392Y784396D01*
X1187196Y782592D01*
X1189000Y784396D01*
X1187995Y784812D01*
D02*
G37*
G36*
X1232167Y779459D02*
X1229213D01*
X1229056Y779394D01*
X1228891Y779427D01*
X1225993Y778851D01*
X1225852Y778757D01*
X1225683D01*
X1222953Y777626D01*
X1222834Y777507D01*
X1222668Y777474D01*
X1220212Y775832D01*
X1220118Y775692D01*
X1219962Y775627D01*
X1217872Y773538D01*
X1217808Y773382D01*
X1217667Y773288D01*
X1216026Y770831D01*
X1215993Y770665D01*
X1215873Y770546D01*
X1214742Y767816D01*
Y767647D01*
X1214649Y767507D01*
X1214072Y764609D01*
X1214105Y764443D01*
X1214040Y764287D01*
Y761332D01*
X1214105Y761176D01*
X1214072Y761010D01*
X1214649Y758112D01*
X1214742Y757972D01*
Y757803D01*
X1215873Y755073D01*
X1215993Y754954D01*
X1216026Y754788D01*
X1217667Y752331D01*
X1217808Y752237D01*
X1217872Y752081D01*
X1219962Y749992D01*
X1220118Y749927D01*
X1220212Y749787D01*
X1222668Y748145D01*
X1222834Y748112D01*
X1222953Y747993D01*
X1225683Y746862D01*
X1225852D01*
X1225993Y746768D01*
X1228891Y746192D01*
X1229056Y746225D01*
X1229213Y746160D01*
X1232167D01*
X1232323Y746225D01*
X1232489Y746192D01*
X1235387Y746768D01*
X1235528Y746862D01*
X1235697D01*
X1238426Y747993D01*
X1238546Y748112D01*
X1238712Y748145D01*
X1241168Y749787D01*
X1241262Y749927D01*
X1241418Y749992D01*
X1243508Y752081D01*
X1243572Y752237D01*
X1243713Y752331D01*
X1245354Y754788D01*
X1245387Y754954D01*
X1245507Y755073D01*
X1246637Y757803D01*
Y757972D01*
X1246731Y758112D01*
X1247308Y761010D01*
X1247275Y761176D01*
X1247339Y761332D01*
Y764287D01*
X1247275Y764443D01*
X1247308Y764609D01*
X1246731Y767507D01*
X1246637Y767647D01*
Y767816D01*
X1245507Y770546D01*
X1245387Y770665D01*
X1245354Y770831D01*
X1243713Y773288D01*
X1243572Y773382D01*
X1243508Y773538D01*
X1241418Y775627D01*
X1241262Y775692D01*
X1241168Y775832D01*
X1238712Y777474D01*
X1238546Y777507D01*
X1238426Y777626D01*
X1235697Y778757D01*
X1235528D01*
X1235387Y778851D01*
X1232489Y779427D01*
X1232323Y779394D01*
X1232167Y779459D01*
D02*
G37*
G36*
X1208068Y782600D02*
X1206264Y780796D01*
X1208068Y778992D01*
X1208484Y779997D01*
Y781595D01*
X1208068Y782600D01*
D02*
G37*
G36*
X1190796D02*
X1188992Y780796D01*
X1190796Y778992D01*
X1191212Y779997D01*
Y781595D01*
X1190796Y782600D01*
D02*
G37*
G36*
X1200868Y782600D02*
X1200452Y781595D01*
Y779997D01*
X1200868Y778992D01*
X1202672Y780796D01*
X1200868Y782600D01*
D02*
G37*
G36*
X1183596D02*
X1183180Y781595D01*
Y779997D01*
X1183596Y778992D01*
X1185400Y780796D01*
X1183596Y782600D01*
D02*
G37*
G36*
X1204468Y779000D02*
X1202664Y777196D01*
X1203669Y776780D01*
X1205267D01*
X1206272Y777196D01*
X1204468Y779000D01*
D02*
G37*
G36*
X1187196D02*
X1185392Y777196D01*
X1186397Y776780D01*
X1187995D01*
X1189000Y777196D01*
X1187196Y779000D01*
D02*
G37*
G36*
X705649Y775668D02*
X704051D01*
X703046Y775252D01*
X704850Y773448D01*
X706654Y775252D01*
X705649Y775668D01*
D02*
G37*
G36*
X708450Y773456D02*
X706646Y771652D01*
X708450Y769848D01*
X708866Y770853D01*
Y772451D01*
X708450Y773456D01*
D02*
G37*
G36*
X701250Y773456D02*
X700834Y772451D01*
Y770853D01*
X701250Y769848D01*
X703054Y771652D01*
X701250Y773456D01*
D02*
G37*
G36*
X704850Y769856D02*
X703046Y768052D01*
X704051Y767636D01*
X705649D01*
X706654Y768052D01*
X704850Y769856D01*
D02*
G37*
G36*
X712761Y767794D02*
X711163D01*
X710158Y767378D01*
X711962Y765574D01*
X713766Y767378D01*
X712761Y767794D01*
D02*
G37*
G36*
X1068932Y772024D02*
X1053492D01*
X1061212Y764304D01*
X1068932Y772024D01*
D02*
G37*
G36*
X715562Y765582D02*
X713758Y763778D01*
X715562Y761974D01*
X715978Y762979D01*
Y764577D01*
X715562Y765582D01*
D02*
G37*
G36*
X708362Y765582D02*
X707946Y764577D01*
Y762979D01*
X708362Y761974D01*
X710166Y763778D01*
X708362Y765582D01*
D02*
G37*
G36*
X711962Y761982D02*
X710158Y760178D01*
X711163Y759762D01*
X712761D01*
X713766Y760178D01*
X711962Y761982D01*
D02*
G37*
G36*
X640080Y761220D02*
X638276Y759416D01*
X639281Y759000D01*
X640879D01*
X641884Y759416D01*
X640080Y761220D01*
D02*
G37*
G36*
X625094D02*
X623290Y759416D01*
X624295Y759000D01*
X625893D01*
X626898Y759416D01*
X625094Y761220D01*
D02*
G37*
G36*
X655828Y760966D02*
X654024Y759162D01*
X655029Y758746D01*
X656627D01*
X657632Y759162D01*
X655828Y760966D01*
D02*
G37*
G36*
X705395Y760682D02*
X703797D01*
X702792Y760266D01*
X704596Y758462D01*
X706400Y760266D01*
X705395Y760682D01*
D02*
G37*
G36*
X618019Y760174D02*
X616421D01*
X615416Y759758D01*
X617220Y757954D01*
X619024Y759758D01*
X618019Y760174D01*
D02*
G37*
G36*
X664755Y759666D02*
X663157D01*
X662152Y759250D01*
X663956Y757446D01*
X665760Y759250D01*
X664755Y759666D01*
D02*
G37*
G36*
X649007D02*
X647409D01*
X646404Y759250D01*
X648208Y757446D01*
X650012Y759250D01*
X649007Y759666D01*
D02*
G37*
G36*
X634021D02*
X632423D01*
X631418Y759250D01*
X633222Y757446D01*
X635026Y759250D01*
X634021Y759666D01*
D02*
G37*
G36*
X708196Y758470D02*
X706392Y756666D01*
X708196Y754862D01*
X708612Y755867D01*
Y757465D01*
X708196Y758470D01*
D02*
G37*
G36*
X700996Y758470D02*
X700580Y757465D01*
Y755867D01*
X700996Y754862D01*
X702800Y756666D01*
X700996Y758470D01*
D02*
G37*
G36*
X1051696Y770228D02*
Y754788D01*
X1059416Y762508D01*
X1051696Y770228D01*
D02*
G37*
G36*
X1070728Y770228D02*
X1063008Y762508D01*
X1070728Y754788D01*
Y770228D01*
D02*
G37*
G36*
X620820Y757962D02*
X619016Y756158D01*
X620820Y754354D01*
X621236Y755359D01*
Y756957D01*
X620820Y757962D01*
D02*
G37*
G36*
X613620Y757962D02*
X613204Y756957D01*
Y755359D01*
X613620Y754354D01*
X615424Y756158D01*
X613620Y757962D01*
D02*
G37*
G36*
X667556Y757454D02*
X665752Y755650D01*
X667556Y753846D01*
X667972Y754851D01*
Y756449D01*
X667556Y757454D01*
D02*
G37*
G36*
X651808D02*
X650004Y755650D01*
X651808Y753846D01*
X652224Y754851D01*
Y756449D01*
X651808Y757454D01*
D02*
G37*
G36*
X636822D02*
X635018Y755650D01*
X636822Y753846D01*
X637238Y754851D01*
Y756449D01*
X636822Y757454D01*
D02*
G37*
G36*
X660356Y757454D02*
X659940Y756449D01*
Y754851D01*
X660356Y753846D01*
X662160Y755650D01*
X660356Y757454D01*
D02*
G37*
G36*
X644608D02*
X644192Y756449D01*
Y754851D01*
X644608Y753846D01*
X646412Y755650D01*
X644608Y757454D01*
D02*
G37*
G36*
X629622D02*
X629206Y756449D01*
Y754851D01*
X629622Y753846D01*
X631426Y755650D01*
X629622Y757454D01*
D02*
G37*
G36*
X1061212Y760712D02*
X1053492Y752992D01*
X1068932D01*
X1061212Y760712D01*
D02*
G37*
G36*
X704596Y754870D02*
X702792Y753066D01*
X703797Y752650D01*
X705395D01*
X706400Y753066D01*
X704596Y754870D01*
D02*
G37*
G36*
X1037132Y772532D02*
X1034492D01*
X1031943Y771849D01*
X1029657Y770529D01*
X1027791Y768663D01*
X1026471Y766377D01*
X1025788Y763828D01*
Y761188D01*
X1026471Y758639D01*
X1027791Y756353D01*
X1029657Y754487D01*
X1031943Y753167D01*
X1034492Y752484D01*
X1037132D01*
X1039681Y753167D01*
X1041967Y754487D01*
X1043833Y756353D01*
X1045153Y758639D01*
X1045836Y761188D01*
Y763828D01*
X1045153Y766377D01*
X1043833Y768663D01*
X1041967Y770529D01*
X1039681Y771849D01*
X1037132Y772532D01*
D02*
G37*
G36*
X1011732D02*
X1009092D01*
X1006543Y771849D01*
X1004257Y770529D01*
X1002391Y768663D01*
X1001071Y766377D01*
X1000388Y763828D01*
Y761188D01*
X1001071Y758639D01*
X1002391Y756353D01*
X1004257Y754487D01*
X1006543Y753167D01*
X1009092Y752484D01*
X1011732D01*
X1014281Y753167D01*
X1016567Y754487D01*
X1018433Y756353D01*
X1019753Y758639D01*
X1020436Y761188D01*
Y763828D01*
X1019753Y766377D01*
X1018433Y768663D01*
X1016567Y770529D01*
X1014281Y771849D01*
X1011732Y772532D01*
D02*
G37*
G36*
X986332D02*
X983692D01*
X981143Y771849D01*
X978857Y770529D01*
X976991Y768663D01*
X975671Y766377D01*
X974988Y763828D01*
Y761188D01*
X975671Y758639D01*
X976991Y756353D01*
X978857Y754487D01*
X981143Y753167D01*
X983692Y752484D01*
X986332D01*
X988881Y753167D01*
X991167Y754487D01*
X993033Y756353D01*
X994353Y758639D01*
X995036Y761188D01*
Y763828D01*
X994353Y766377D01*
X993033Y768663D01*
X991167Y770529D01*
X988881Y771849D01*
X986332Y772532D01*
D02*
G37*
G36*
X1121955Y754586D02*
X1120357D01*
X1119352Y754170D01*
X1121156Y752366D01*
X1122960Y754170D01*
X1121955Y754586D01*
D02*
G37*
G36*
X1106715D02*
X1105117D01*
X1104112Y754170D01*
X1105916Y752366D01*
X1107720Y754170D01*
X1106715Y754586D01*
D02*
G37*
G36*
X617220Y754362D02*
X615416Y752558D01*
X616421Y752142D01*
X618019D01*
X619024Y752558D01*
X617220Y754362D01*
D02*
G37*
G36*
X1091729Y754332D02*
X1090131D01*
X1089126Y753916D01*
X1090930Y752112D01*
X1092734Y753916D01*
X1091729Y754332D01*
D02*
G37*
G36*
X663956Y753854D02*
X662152Y752050D01*
X663157Y751634D01*
X664755D01*
X665760Y752050D01*
X663956Y753854D01*
D02*
G37*
G36*
X648208D02*
X646404Y752050D01*
X647409Y751634D01*
X649007D01*
X650012Y752050D01*
X648208Y753854D01*
D02*
G37*
G36*
X633222D02*
X631418Y752050D01*
X632423Y751634D01*
X634021D01*
X635026Y752050D01*
X633222Y753854D01*
D02*
G37*
G36*
X1124756Y752374D02*
X1122952Y750570D01*
X1124756Y748766D01*
X1125172Y749771D01*
Y751369D01*
X1124756Y752374D01*
D02*
G37*
G36*
X1109516D02*
X1107712Y750570D01*
X1109516Y748766D01*
X1109932Y749771D01*
Y751369D01*
X1109516Y752374D01*
D02*
G37*
G36*
X1117556Y752374D02*
X1117140Y751369D01*
Y749771D01*
X1117556Y748766D01*
X1119360Y750570D01*
X1117556Y752374D01*
D02*
G37*
G36*
X1102316D02*
X1101900Y751369D01*
Y749771D01*
X1102316Y748766D01*
X1104120Y750570D01*
X1102316Y752374D01*
D02*
G37*
G36*
X1094530Y752120D02*
X1092726Y750316D01*
X1094530Y748512D01*
X1094946Y749517D01*
Y751115D01*
X1094530Y752120D01*
D02*
G37*
G36*
X1087330Y752120D02*
X1086914Y751115D01*
Y749517D01*
X1087330Y748512D01*
X1089134Y750316D01*
X1087330Y752120D01*
D02*
G37*
G36*
X1121156Y748774D02*
X1119352Y746970D01*
X1120357Y746554D01*
X1121955D01*
X1122960Y746970D01*
X1121156Y748774D01*
D02*
G37*
G36*
X1105916D02*
X1104112Y746970D01*
X1105117Y746554D01*
X1106715D01*
X1107720Y746970D01*
X1105916Y748774D01*
D02*
G37*
G36*
X1090930Y748520D02*
X1089126Y746716D01*
X1090131Y746300D01*
X1091729D01*
X1092734Y746716D01*
X1090930Y748520D01*
D02*
G37*
%LPD*%
D14*
X1086017Y1116330D02*
X1115227Y1087120D01*
X1122698D01*
X1130318Y1079500D02*
X1134971D01*
X1176816Y1037655D01*
X1122698Y1087120D02*
X1130318Y1079500D01*
X1013161Y868891D02*
X1020992Y861060D01*
X1013161Y868891D02*
Y872049D01*
X1004570Y880640D02*
X1013161Y872049D01*
X1098517Y1116330D02*
X1131791Y1083056D01*
X1096680Y1116330D02*
X1098517D01*
X1131791Y1083056D02*
X1136444D01*
X1109180Y1115349D02*
Y1116330D01*
Y1115349D02*
X1183928Y1040601D01*
Y860129D02*
Y1040601D01*
X1020992Y861060D02*
X1113028D01*
X1136444Y1083056D02*
X1180372Y1039128D01*
X1148368Y911640D02*
Y1025872D01*
X1115822Y901192D02*
X1137920D01*
X1148368Y911640D01*
X1123188Y1051052D02*
X1148368Y1025872D01*
X1124661Y1054608D02*
X1151924Y1027345D01*
X1149606Y897024D02*
X1151924Y899342D01*
Y1027345D01*
X1149606Y896168D02*
Y897024D01*
X1121680Y1107878D02*
X1187484Y1042074D01*
X1121680Y1107878D02*
X1121680Y1116330D01*
X1187484Y858300D02*
Y1042074D01*
X1180372Y861602D02*
Y1039128D01*
X1176816Y868409D02*
Y1037655D01*
X1173260Y870373D02*
Y1036182D01*
X1133498Y1075944D02*
X1173260Y1036182D01*
X1126134Y1058164D02*
X1155480Y1028818D01*
Y893272D02*
Y1028818D01*
X1066546Y1058164D02*
X1126134D01*
X1159036Y891800D02*
Y1030290D01*
X1127607Y1061720D02*
X1156718Y1032609D01*
Y1032609D02*
X1159036Y1030290D01*
X1169704Y871846D02*
Y1034709D01*
X1130553Y1068832D02*
X1166148Y1033236D01*
X1129080Y1065276D02*
X1162592Y1031764D01*
Y889154D02*
Y1031764D01*
X1166148Y873319D02*
Y1033236D01*
X1156718Y1032609D02*
Y1032609D01*
X1132026Y1072388D02*
X1169704Y1034709D01*
X1149430Y887222D02*
X1155480Y893272D01*
X1150903Y883666D02*
X1159036Y891800D01*
X1149606Y876168D02*
X1162592Y889154D01*
X1159003Y866174D02*
X1166148Y873319D01*
X1106472Y820976D02*
X1149804D01*
X1099448Y813952D02*
X1106472Y820976D01*
X1099448Y796288D02*
Y813952D01*
X1153414Y824230D02*
X1187484Y858300D01*
X1153058Y824230D02*
X1153414D01*
X1149804Y820976D02*
X1153058Y824230D01*
X1146858Y828088D02*
X1180372Y861602D01*
X1148331Y824532D02*
X1183928Y860129D01*
X1095012Y824532D02*
X1148331D01*
X1107530Y828088D02*
X1146858D01*
X1161521Y853083D02*
Y853113D01*
X1176816Y868409D01*
X1105546Y830072D02*
X1107530Y828088D01*
X1104472Y830072D02*
X1105546D01*
X1089472D02*
X1095012Y824532D01*
X1149606Y841168D02*
X1161521Y853083D01*
X1115822Y836192D02*
X1129260Y849630D01*
X1152517D01*
X1173260Y870373D01*
X1151044Y853186D02*
X1169704Y871846D01*
X1122816Y853186D02*
X1151044D01*
X1115822Y871192D02*
X1128296Y883666D01*
X1150903D01*
X1149600Y866174D02*
X1159003D01*
X1121852Y887222D02*
X1149430D01*
X1051295Y1051052D02*
X1123188D01*
X1058402Y1054608D02*
X1124661D01*
X1085234Y1065276D02*
X1129080D01*
X1034180Y1116330D02*
X1085234Y1065276D01*
X1076290Y1061720D02*
X1127607D01*
X1112066Y1075944D02*
X1133498D01*
X1021680Y1116330D02*
X1076290Y1061720D01*
X1103122Y1072388D02*
X1132026D01*
X1009180Y1115530D02*
X1066546Y1058164D01*
X1094178Y1068832D02*
X1130553D01*
X1059180Y1116330D02*
X1103122Y1072388D01*
X1071680Y1116330D02*
X1112066Y1075944D01*
X996680Y1116330D02*
X1058402Y1054608D01*
X1046680Y1116330D02*
X1094178Y1068832D01*
X990001Y1112346D02*
X1051295Y1051052D01*
X547116Y836930D02*
Y892810D01*
X1115822Y846192D02*
X1122816Y853186D01*
X1115822Y881192D02*
X1121852Y887222D01*
X547116Y836930D02*
X580136Y803910D01*
X988164Y1112346D02*
X990001D01*
X984180Y1116330D02*
X988164Y1112346D01*
X1009180Y1115530D02*
Y1116330D01*
X1084180D02*
X1086017D01*
D55*
X710438Y823722D02*
X714756Y819404D01*
X701802Y817118D02*
Y823976D01*
Y815594D02*
Y817118D01*
X709930Y823722D02*
X710438D01*
X702056D02*
X709930D01*
X701802Y823976D02*
X702056Y823722D01*
X701802Y817118D02*
X710438D01*
X922274Y828548D02*
X993648D01*
X710438Y817118D02*
X712724Y819404D01*
X714756D01*
X913130D01*
X922274Y828548D01*
D56*
X676910Y1133094D02*
X676910Y1133094D01*
X701802Y790448D02*
Y815594D01*
X682498Y771144D02*
X701802Y790448D01*
X512064Y1133094D02*
X837189D01*
X676910Y1116330D02*
Y1133094D01*
X945642Y1039622D02*
Y1086358D01*
X929640Y1102360D02*
X945642Y1086358D01*
X929640Y1023620D02*
X945642Y1039622D01*
X866140Y1102360D02*
X929640D01*
X837189Y1131311D02*
X866140Y1102360D01*
X837189Y1131311D02*
Y1133094D01*
X538734Y771144D02*
X682498D01*
X502158Y807720D02*
Y1123188D01*
Y807720D02*
X538734Y771144D01*
X502158Y1123188D02*
X512064Y1133094D01*
D58*
X1061212Y762508D02*
D03*
X866140Y1102360D02*
D03*
Y1023620D02*
D03*
X929640Y1102360D02*
D03*
Y1023620D02*
D03*
X524510Y989280D02*
D03*
X1202690Y1106170D02*
D03*
X744220Y1103630D02*
D03*
X524510Y1116330D02*
D03*
X805434Y1104392D02*
D03*
D59*
X1035812Y762508D02*
D03*
X1010412D02*
D03*
X985012D02*
D03*
X866140Y1076960D02*
D03*
Y998220D02*
D03*
X929640Y1076960D02*
D03*
Y998220D02*
D03*
X702310Y989280D02*
D03*
X676910D02*
D03*
X651510D02*
D03*
X626110D02*
D03*
X600710D02*
D03*
X575310D02*
D03*
X549910D02*
D03*
X1202690Y1029970D02*
D03*
Y1055370D02*
D03*
Y1080770D02*
D03*
X744220Y1027430D02*
D03*
Y1052830D02*
D03*
Y1078230D02*
D03*
X702310Y1116330D02*
D03*
X676910D02*
D03*
X651510D02*
D03*
X626110D02*
D03*
X600710D02*
D03*
X575310D02*
D03*
X549910D02*
D03*
X805434Y1078992D02*
D03*
Y1053592D02*
D03*
D60*
X1109180Y1116330D02*
D03*
X996680D02*
D03*
X1009180D02*
D03*
X1021680D02*
D03*
X1034180D02*
D03*
X1046680D02*
D03*
X1059180D02*
D03*
X1071680D02*
D03*
X1084180D02*
D03*
X1096680D02*
D03*
X1121680D02*
D03*
X1109580Y1028700D02*
D03*
X997080D02*
D03*
X1009580D02*
D03*
X1022080D02*
D03*
X1034580D02*
D03*
X1047080D02*
D03*
X1059580D02*
D03*
X1072080D02*
D03*
X1084580D02*
D03*
X1097080D02*
D03*
X1122080D02*
D03*
D61*
X984180Y1116330D02*
D03*
X984580Y1028700D02*
D03*
D62*
X709930Y823722D02*
D03*
X701548Y823468D02*
D03*
X701802Y817118D02*
D03*
X1001522Y828802D02*
D03*
X986282D02*
D03*
X710438Y817118D02*
D03*
X1043686Y943102D02*
D03*
X1121410Y937514D02*
D03*
X1007110Y836422D02*
D03*
X1219641Y835219D02*
D03*
X1209414Y845446D02*
D03*
X1229868Y824992D02*
D03*
X1217168Y793496D02*
D03*
X1229868Y806196D02*
D03*
X1165098Y802894D02*
D03*
X1187196Y780796D02*
D03*
X1204468D02*
D03*
X1194562Y786892D02*
D03*
X1212850Y826770D02*
D03*
X1210310Y855980D02*
D03*
X1202182Y909066D02*
D03*
X1108710Y969518D02*
D03*
X1124712Y969264D02*
D03*
X1012190Y969010D02*
D03*
X1027684Y967994D02*
D03*
X1004570Y880640D02*
D03*
X585492Y831066D02*
D03*
X594636Y826240D02*
D03*
X576348Y826494D02*
D03*
X594382Y835638D02*
D03*
X576856Y835384D02*
D03*
X915416Y1067054D02*
D03*
X851916Y1066038D02*
D03*
X819912Y1022350D02*
D03*
X915162Y987552D02*
D03*
X1113028Y861060D02*
D03*
X1108666Y796036D02*
D03*
X1171956Y826008D02*
D03*
X1121156Y750570D02*
D03*
X1105916D02*
D03*
X1090930Y750316D02*
D03*
X1002030Y799846D02*
D03*
X1009650Y807466D02*
D03*
X977392Y807974D02*
D03*
X986028Y799592D02*
D03*
X876046Y897128D02*
D03*
X876300Y890270D02*
D03*
X908050Y903478D02*
D03*
X907542Y922020D02*
D03*
X625094Y763016D02*
D03*
X640080D02*
D03*
X655828Y762762D02*
D03*
X663956Y755650D02*
D03*
X648208D02*
D03*
X633222D02*
D03*
X617220Y756158D02*
D03*
X730647Y794257D02*
D03*
X721757Y794511D02*
D03*
X712359Y794257D02*
D03*
X730139Y804925D02*
D03*
X721503D02*
D03*
X712359Y805179D02*
D03*
X711962Y763778D02*
D03*
X704596Y756666D02*
D03*
X704850Y771652D02*
D03*
X682244Y835152D02*
D03*
X689610Y842264D02*
D03*
X542290Y801878D02*
D03*
X534162Y808990D02*
D03*
X517652Y809498D02*
D03*
X525382Y803004D02*
D03*
X623570Y893572D02*
D03*
X608330Y893318D02*
D03*
X615442Y902208D02*
D03*
X578104Y893064D02*
D03*
X532130D02*
D03*
X552656Y852678D02*
D03*
X526034Y859282D02*
D03*
X993648Y828802D02*
D03*
X547116Y892810D02*
D03*
X580136Y803910D02*
D03*
X1149600Y866174D02*
D03*
X1089472Y830072D02*
D03*
X1099448Y796288D02*
D03*
X1104472Y830072D02*
D03*
X1149606Y876168D02*
D03*
Y841168D02*
D03*
X1115822Y836192D02*
D03*
Y846192D02*
D03*
Y871192D02*
D03*
Y881192D02*
D03*
X1149606Y896168D02*
D03*
X1115822Y901192D02*
D03*
M02*
