%TF.GenerationSoftware,Altium Limited,Altium Designer,24.0.1 (36)*%
G04 Layer_Color=32896*
%FSLAX45Y45*%
%MOMM*%
%TF.SameCoordinates,F9B4E8D2-4818-4376-8810-5F0BD37032C3*%
%TF.FilePolarity,Positive*%
%TF.FileFunction,Legend,Bot*%
%TF.Part,Single*%
G01*
G75*
%TA.AperFunction,NonConductor*%
%ADD24C,0.20000*%
D24*
X16509058Y15604120D02*
Y15856920D01*
Y15604120D02*
X17279057D01*
X16509058Y15781920D02*
X17279057D01*
X16394058Y15856920D02*
X16509058D01*
X16394058D02*
Y16035921D01*
X16732059Y16073920D02*
X16808258Y15946919D01*
X16509058Y16416920D02*
X17279057D01*
X16732059Y16073920D02*
Y16416920D01*
X16859058Y15946919D02*
X16979858D01*
X17056058Y16073920D01*
X17279057Y15856920D02*
X17394058D01*
X17279057Y15604120D02*
Y15856920D01*
X17394058D02*
Y16035921D01*
X16808258Y15946919D02*
X16859058D01*
X17056058Y16073920D02*
Y16416920D01*
X15913660Y15604120D02*
Y15856920D01*
X15143658Y15604120D02*
Y15856920D01*
X15493658Y15946919D02*
X15614458D01*
X15690659Y16073920D01*
Y16416920D01*
X15366660Y16073920D02*
Y16416920D01*
Y16073920D02*
X15442859Y15946919D01*
X15493658D01*
X15143658Y15781920D02*
X15913660D01*
X16028659Y15856920D02*
Y16035921D01*
X15913660Y15856920D02*
X16028659D01*
X15028659D02*
Y16035921D01*
Y15856920D02*
X15143658D01*
Y15604120D02*
X15913660D01*
X15143658Y16416920D02*
X15913660D01*
%TF.MD5,5e706591541c0e65b9c3c655e1eb4140*%
M02*
