%TF.GenerationSoftware,Altium Limited,Altium Designer,24.0.1 (36)*%
G04 Layer_Color=65535*
%FSLAX45Y45*%
%MOMM*%
%TF.SameCoordinates,F9B4E8D2-4818-4376-8810-5F0BD37032C3*%
%TF.FilePolarity,Positive*%
%TF.FileFunction,Legend,Top*%
%TF.Part,Single*%
G01*
G75*
%TA.AperFunction,NonConductor*%
%ADD10C,0.20320*%
%ADD18C,0.25400*%
%ADD24C,0.20000*%
D10*
X18613120Y15571120D02*
Y15685420D01*
Y15113921D02*
Y15228220D01*
X18270219Y15113921D02*
X18613120D01*
X17597119D02*
X17940019D01*
X17597119D02*
Y15126620D01*
Y15228220D01*
Y15571120D02*
Y15685420D01*
Y16041020D02*
Y16422020D01*
X18613120D01*
Y16041020D02*
Y16422020D01*
X17597119Y16320419D02*
X18613120D01*
D18*
X14877034Y14437691D02*
X15211806D01*
X14663420Y14691586D02*
X14957806D01*
X14409419Y14691794D02*
X14449806D01*
X14409419Y14616103D02*
Y14691794D01*
Y14437794D02*
Y14616103D01*
X18941034Y14437794D02*
X19235420D01*
X19195033Y14691794D02*
X19235420D01*
Y14616103D02*
Y14691794D01*
Y14437794D02*
Y14616103D01*
X15385034Y14437691D02*
X15719806D01*
X15171420Y14691586D02*
X15465807D01*
X18433034Y14437691D02*
X18767805D01*
X17925034D02*
X18259805D01*
X17417033D02*
X17751807D01*
X16909035D02*
X17243806D01*
X16401035D02*
X16735806D01*
X15893034D02*
X16227806D01*
X18687035Y14691690D02*
X19021806D01*
X18179034D02*
X18513806D01*
X17671034D02*
X18005806D01*
X17163034D02*
X17497806D01*
X16655034D02*
X16989806D01*
X16147034D02*
X16481805D01*
X15425420Y14691794D02*
X15465807D01*
X15639034Y14691690D02*
X15973807D01*
X14409419Y14437794D02*
X14703806D01*
X14877034Y11592890D02*
X15211806D01*
X14663420Y11846786D02*
X14957806D01*
X14409419Y11846994D02*
X14449806D01*
X14409419Y11771302D02*
Y11846994D01*
Y11592994D02*
Y11771302D01*
X18941034Y11592994D02*
X19235420D01*
X19195033Y11846994D02*
X19235420D01*
Y11771302D02*
Y11846994D01*
Y11592994D02*
Y11771302D01*
X15385034Y11592890D02*
X15719806D01*
X15171420Y11846786D02*
X15465807D01*
X18433034Y11592890D02*
X18767805D01*
X17925034D02*
X18259805D01*
X17417033D02*
X17751807D01*
X16909035D02*
X17243806D01*
X16401035D02*
X16735806D01*
X15893034D02*
X16227806D01*
X18687035Y11846890D02*
X19021806D01*
X18179034D02*
X18513806D01*
X17671034D02*
X18005806D01*
X17163034D02*
X17497806D01*
X16655034D02*
X16989806D01*
X16147034D02*
X16481805D01*
X15425420Y11846994D02*
X15465807D01*
X15639034Y11846890D02*
X15973807D01*
X14409419Y11592994D02*
X14703806D01*
X14523688Y15082471D02*
X14472903D01*
X14498296D01*
Y14955511D01*
X14472903Y14930119D01*
X14447511D01*
X14422121Y14955511D01*
X14574471Y14930119D02*
Y15082471D01*
X14650645D01*
X14676038Y15057079D01*
Y15006294D01*
X14650645Y14980904D01*
X14574471D01*
X14726820Y14930119D02*
X14777605D01*
X14752213D01*
Y15082471D01*
X14726820Y15057079D01*
X14929956Y14930119D02*
Y15082471D01*
X14853780Y15006294D01*
X14955348D01*
X14523688Y12237671D02*
X14472903D01*
X14498296D01*
Y12110712D01*
X14472903Y12085320D01*
X14447511D01*
X14422121Y12110712D01*
X14574471Y12085320D02*
Y12237671D01*
X14650645D01*
X14676038Y12212279D01*
Y12161495D01*
X14650645Y12136103D01*
X14574471D01*
X14726820Y12085320D02*
X14777605D01*
X14752213D01*
Y12237671D01*
X14726820Y12212279D01*
X14853780D02*
X14879172Y12237671D01*
X14929956D01*
X14955348Y12212279D01*
Y12186887D01*
X14929956Y12161495D01*
X14904564D01*
X14929956D01*
X14955348Y12136103D01*
Y12110712D01*
X14929956Y12085320D01*
X14879172D01*
X14853780Y12110712D01*
D24*
X13949435Y16073920D02*
Y16416920D01*
X13822437Y15946919D02*
Y16416920D01*
Y15946919D02*
X13873236D01*
X14299435Y15856920D02*
Y16035921D01*
X14172437Y15604120D02*
Y15856920D01*
X14299435D01*
X13873236Y15946919D02*
X13949435Y16073920D01*
X13252435Y15946919D02*
Y16416920D01*
X12902435D02*
X14172437D01*
X13201636Y15946919D02*
X13252435D01*
X13125436Y16073920D02*
X13201636Y15946919D01*
X13125436Y16073920D02*
Y16416920D01*
X12775436Y15856920D02*
X12902435D01*
Y15781920D02*
X14172437D01*
X12902435Y15604120D02*
X14172437D01*
X12902435D02*
Y15856920D01*
X12775436D02*
Y16035921D01*
X15542218Y16073920D02*
Y16416920D01*
X15415218Y15946919D02*
Y16416920D01*
Y15946919D02*
X15466019D01*
X15892218Y15856920D02*
Y16035921D01*
X15765218Y15604120D02*
Y15856920D01*
X15892218D01*
X15466019Y15946919D02*
X15542218Y16073920D01*
X14845218Y15946919D02*
Y16416920D01*
X14495218D02*
X15765218D01*
X14794418Y15946919D02*
X14845218D01*
X14718217Y16073920D02*
X14794418Y15946919D01*
X14718217Y16073920D02*
Y16416920D01*
X14368217Y15856920D02*
X14495218D01*
Y15781920D02*
X15765218D01*
X14495218Y15604120D02*
X15765218D01*
X14495218D02*
Y15856920D01*
X14368217D02*
Y16035921D01*
X16087801Y16416920D02*
X17357800D01*
X16087801Y15604120D02*
X17357800D01*
Y15856920D02*
X17484801D01*
Y16035921D01*
X15960800Y15856920D02*
X16087801D01*
X15960800D02*
Y16035921D01*
X16087801Y15781920D02*
X17357800D01*
X17007800Y15946919D02*
Y16416920D01*
Y15946919D02*
X17058600D01*
X17134801Y16073920D01*
Y16416920D01*
X16310800Y16073920D02*
Y16416920D01*
Y16073920D02*
X16387000Y15946919D01*
X16437801D01*
Y16416920D01*
X17357800Y15604120D02*
Y15856920D01*
X16087801Y15604120D02*
Y15856920D01*
X11309653Y16416920D02*
X12579653D01*
X11309653Y15604120D02*
X12579653D01*
Y15856920D02*
X12706653D01*
Y16035921D01*
X11182653Y15856920D02*
X11309653D01*
X11182653D02*
Y16035921D01*
X11309653Y15781920D02*
X12579653D01*
X12229653Y15946919D02*
Y16416920D01*
Y15946919D02*
X12280453D01*
X12356653Y16073920D01*
Y16416920D01*
X11532653Y16073920D02*
Y16416920D01*
Y16073920D02*
X11608853Y15946919D01*
X11659653D01*
Y16416920D01*
X12579653Y15604120D02*
Y15856920D01*
X11309653Y15604120D02*
Y15856920D01*
X9716870Y16416920D02*
X10986870D01*
X9716870Y15604120D02*
X10986870D01*
Y15856920D02*
X11113870D01*
Y16035921D01*
X9589870Y15856920D02*
X9716870D01*
X9589870D02*
Y16035921D01*
X9716870Y15781920D02*
X10986870D01*
X10636870Y15946919D02*
Y16416920D01*
Y15946919D02*
X10687670D01*
X10763870Y16073920D01*
Y16416920D01*
X9939870Y16073920D02*
Y16416920D01*
Y16073920D02*
X10016070Y15946919D01*
X10066870D01*
Y16416920D01*
X10986870Y15604120D02*
Y15856920D01*
X9716870Y15604120D02*
Y15856920D01*
X3345740Y16416920D02*
X4615740D01*
X3345740Y15604120D02*
X4615740D01*
Y15856920D02*
X4742740D01*
Y16035921D01*
X3218740Y15856920D02*
X3345740D01*
X3218740D02*
Y16035921D01*
X3345740Y15781920D02*
X4615740D01*
X4265740Y15946919D02*
Y16416920D01*
Y15946919D02*
X4316539D01*
X4392739Y16073920D01*
Y16416920D01*
X3568740Y16073920D02*
Y16416920D01*
Y16073920D02*
X3644940Y15946919D01*
X3695740D01*
Y16416920D01*
X4615740Y15604120D02*
Y15856920D01*
X3345740Y15604120D02*
Y15856920D01*
X4938522Y16416920D02*
X6208522D01*
X4938522Y15604120D02*
X6208522D01*
Y15856920D02*
X6335522D01*
Y16035921D01*
X4811522Y15856920D02*
X4938522D01*
X4811522D02*
Y16035921D01*
X4938522Y15781920D02*
X6208522D01*
X5858522Y15946919D02*
Y16416920D01*
Y15946919D02*
X5909322D01*
X5985522Y16073920D01*
Y16416920D01*
X5161522Y16073920D02*
Y16416920D01*
Y16073920D02*
X5237722Y15946919D01*
X5288522D01*
Y16416920D01*
X6208522Y15604120D02*
Y15856920D01*
X4938522Y15604120D02*
Y15856920D01*
X6531305Y16416920D02*
X7801305D01*
X6531305Y15604120D02*
X7801305D01*
Y15856920D02*
X7928305D01*
Y16035921D01*
X6404305Y15856920D02*
X6531305D01*
X6404305D02*
Y16035921D01*
X6531305Y15781920D02*
X7801305D01*
X7451305Y15946919D02*
Y16416920D01*
Y15946919D02*
X7502105D01*
X7578305Y16073920D01*
Y16416920D01*
X6754305Y16073920D02*
Y16416920D01*
Y16073920D02*
X6830505Y15946919D01*
X6881305D01*
Y16416920D01*
X7801305Y15604120D02*
Y15856920D01*
X6531305Y15604120D02*
Y15856920D01*
X8124088Y16416920D02*
X9394088D01*
X8124088Y15604120D02*
X9394088D01*
Y15856920D02*
X9521088D01*
Y16035921D01*
X7997088Y15856920D02*
X8124088D01*
X7997088D02*
Y16035921D01*
X8124088Y15781920D02*
X9394088D01*
X9044088Y15946919D02*
Y16416920D01*
Y15946919D02*
X9094888D01*
X9171088Y16073920D01*
Y16416920D01*
X8347088Y16073920D02*
Y16416920D01*
Y16073920D02*
X8423288Y15946919D01*
X8474088D01*
Y16416920D01*
X9394088Y15604120D02*
Y15856920D01*
X8124088Y15604120D02*
Y15856920D01*
%TF.MD5,91a4b4ad92640145eaea7ff8fd4b1057*%
M02*
