M48
;Layer_Color=9474304
;FILE_FORMAT=4:4
METRIC,LZ
;TYPE=PLATED
T01F00S00C0.4000
T02F00S00C1.5000
;TYPE=NON_PLATED
T04F00S00C1.4000
T05F00S00C1.6000
%
T01
X01453388Y0117602
X01479296Y01167958
X01504188Y0117602
X01530096Y01167958
X01554988Y0117602
X01580896Y01167958
X01605788Y0117602
X01631696Y01167958
X01656588Y0117602
X01682496Y01167958
X01707388Y0117602
X01733296Y01167958
X01758188Y0117602
X01784096Y01167958
X01808988Y0117602
X01834896Y01167958
X01859788Y0117602
X01885696Y01167958
X01897634Y01430528
Y01439672
Y01448562
Y01457706
X01907286Y01457452
Y01448562
Y01439418
Y01430528
X01916938
Y01439418
Y01448562
Y01457452
X01631696Y01452438
X01606296Y0148844
X01555496
X01504696
X01453388Y014605
X01478788Y01424498
X01529588
X01580388
T02
X0042962Y00139367
X00449873Y00166138
X00427515Y00190892
X00450124Y00215413
X00427515Y00242172
X00450124Y00266921
X00694402Y00160555
X00904037Y00123883
X00926733Y00244904
X00832237Y00324736
X01270762Y0025146
X01249072Y00131707
X01343592Y00051508
X01481417Y00215772
X0172386Y00211732
X01746474Y00187156
X0172386Y00162662
X01746474Y00135924
X017242Y00111119
X01746474Y00238695
X0172386Y00499503
X01746327Y00524211
X0172386Y00550576
X01746327Y00575547
X0172386Y00600097
X01746327Y00626883
X01481417Y00604367
X01269933Y00641181
X01249072Y00520188
X01343927Y00440196
X00904037Y00512004
X00926733Y00633123
X00832237Y00713192
X00694402Y00549052
X00450124Y00554475
X0042962Y00527789
X00427515Y00579282
X00450407Y0060424
X00427515Y00630463
X00450124Y0065508
X00429326Y0091607
X00450124Y00942726
X00427515Y00967517
X00450124Y00992316
X00427515Y01018558
X00449873Y01043438
X00694402Y00940895
X00904037Y00904297
X00926733Y01025466
X00832237Y01105391
X01269933Y01033465
X01249468Y00912306
X01343927Y00832395
X01481417Y00996697
X0172386Y00988643
X01746327Y00963727
X0172386Y00939165
X01746327Y00912461
X0172386Y00888064
X01746327Y01015187
X0172386Y01281051
X01746327Y01305851
X0172386Y013326
X01746474Y01357
X0172386Y01381765
X01746474Y01408693
X01481417Y01386072
X01269933Y01423011
X01249468Y01301331
X01343927Y01221458
X00900844Y01292054
X00924617Y01416187
X00829237Y01493987
X00691403Y01329481
X00447873Y0133261
X00425515Y01357187
X00447873Y01381851
X00425515Y01408446
X00447873Y01432934
X0042762Y01305924
T04
X01810512Y01521162
T05
X01810512Y01613662
M30
