  0
SECTION
  2
HEADER
  9
$ACADVER
  1
AC1015
  9
$ACADMAINTVER
 70
     6
  9
$DWGCODEPAGE
  3
ANSI_936
  9
$INSBASE
 10
0.0
 20
0.0
 30
0.0
  9
$EXTMIN
 10
-119.6749916253
 20
-38.4199430238
 30
0.0
  9
$EXTMAX
 10
57.0826864281
 20
125.2997827426
 30
0.0
  9
$LIMMIN
 10
0.0
 20
0.0
  9
$LIMMAX
 10
420.0
 20
297.0
  9
$ORTHOMODE
 70
     0
  9
$REGENMODE
 70
     1
  9
$FILLMODE
 70
     1
  9
$QTEXTMODE
 70
     0
  9
$MIRRTEXT
 70
     1
  9
$LTSCALE
 40
1.0
  9
$ATTMODE
 70
     1
  9
$TEXTSIZE
 40
3.5
  9
$TRACEWID
 40
1.0
  9
$TEXTSTYLE
  7
Standard
  9
$CLAYER
  8
0
  9
$CELTYPE
  6
ByLayer
  9
$CECOLOR
 62
   256
  9
$CELTSCALE
 40
1.0
  9
$DISPSILH
 70
     0
  9
$DIMSCALE
 40
1.0
  9
$DIMASZ
 40
4.08
  9
$DIMEXO
 40
0.0
  9
$DIMDLI
 40
3.75
  9
$DIMRND
 40
0.0
  9
$DIMDLE
 40
0.0
  9
$DIMEXE
 40
2.0
  9
$DIMTP
 40
0.0
  9
$DIMTM
 40
0.0
  9
$DIMTXT
 40
3.5
  9
$DIMCEN
 40
2.5
  9
$DIMTSZ
 40
0.0
  9
$DIMTOL
 70
     0
  9
$DIMLIM
 70
     0
  9
$DIMTIH
 70
     1
  9
$DIMTOH
 70
     1
  9
$DIMSE1
 70
     0
  9
$DIMSE2
 70
     0
  9
$DIMTAD
 70
     1
  9
$DIMZIN
 70
     0
  9
$DIMBLK
  1

  9
$DIMASO
 70
     1
  9
$DIMSHO
 70
     1
  9
$DIMPOST
  1

  9
$DIMAPOST
  1

  9
$DIMALT
 70
     0
  9
$DIMALTD
 70
     3
  9
$DIMALTF
 40
0.0393700787
  9
$DIMLFAC
 40
1.0
  9
$DIMTOFL
 70
     1
  9
$DIMTVP
 40
0.0
  9
$DIMTIX
 70
     0
  9
$DIMSOXD
 70
     0
  9
$DIMSAH
 70
     0
  9
$DIMBLK1
  1

  9
$DIMBLK2
  1

  9
$DIMSTYLE
  2
ISO-25
  9
$DIMCLRD
 70
     0
  9
$DIMCLRE
 70
     0
  9
$DIMCLRT
 70
     0
  9
$DIMTFAC
 40
1.0
  9
$DIMGAP
 40
1.524
  9
$DIMJUST
 70
     0
  9
$DIMSD1
 70
     0
  9
$DIMSD2
 70
     0
  9
$DIMTOLJ
 70
     0
  9
$DIMTZIN
 70
     0
  9
$DIMALTZ
 70
     0
  9
$DIMALTTZ
 70
     0
  9
$DIMUPT
 70
     0
  9
$DIMDEC
 70
     2
  9
$DIMTDEC
 70
     2
  9
$DIMALTU
 70
     2
  9
$DIMALTTD
 70
     3
  9
$DIMTXSTY
  7
Standard
  9
$DIMAUNIT
 70
     0
  9
$DIMADEC
 70
     2
  9
$DIMALTRND
 40
0.0
  9
$DIMAZIN
 70
     0
  9
$DIMDSEP
 70
    44
  9
$DIMATFIT
 70
     3
  9
$DIMFRAC
 70
     0
  9
$DIMLDRBLK
  1

  9
$DIMLUNIT
 70
     2
  9
$DIMLWD
 70
    -2
  9
$DIMLWE
 70
    -2
  9
$DIMTMOVE
 70
     0
  9
$LUNITS
 70
     2
  9
$LUPREC
 70
     2
  9
$SKETCHINC
 40
1.0
  9
$FILLETRAD
 40
0.0
  9
$AUNITS
 70
     0
  9
$AUPREC
 70
     2
  9
$MENU
  1
.
  9
$ELEVATION
 40
0.0
  9
$PELEVATION
 40
0.0
  9
$THICKNESS
 40
0.0
  9
$LIMCHECK
 70
     0
  9
$CHAMFERA
 40
0.0
  9
$CHAMFERB
 40
0.0
  9
$CHAMFERC
 40
0.0
  9
$CHAMFERD
 40
0.0
  9
$SKPOLY
 70
     0
  9
$TDCREATE
 40
2460934.397896783
  9
$TDUCREATE
 40
2460934.064563449
  9
$TDUPDATE
 40
2460934.397966412
  9
$TDUUPDATE
 40
2460934.064633079
  9
$TDINDWG
 40
0.0000000116
  9
$TDUSRTIMER
 40
0.0000000116
  9
$USRTIMER
 70
     1
  9
$ANGBASE
 50
0.0
  9
$ANGDIR
 70
     0
  9
$PDMODE
 70
     0
  9
$PDSIZE
 40
-1.0
  9
$PLINEWID
 40
0.0
  9
$SPLFRAME
 70
     0
  9
$SPLINETYPE
 70
     6
  9
$SPLINESEGS
 70
     8
  9
$HANDSEED
  5
483
  9
$SURFTAB1
 70
     6
  9
$SURFTAB2
 70
     6
  9
$SURFTYPE
 70
     6
  9
$SURFU
 70
     6
  9
$SURFV
 70
     6
  9
$UCSBASE
  2

  9
$UCSNAME
  2

  9
$UCSORG
 10
0.0
 20
0.0
 30
0.0
  9
$UCSXDIR
 10
1.0
 20
0.0
 30
0.0
  9
$UCSYDIR
 10
0.0
 20
1.0
 30
0.0
  9
$UCSORTHOREF
  2

  9
$UCSORTHOVIEW
 70
     0
  9
$UCSORGTOP
 10
0.0
 20
0.0
 30
0.0
  9
$UCSORGBOTTOM
 10
0.0
 20
0.0
 30
0.0
  9
$UCSORGLEFT
 10
0.0
 20
0.0
 30
0.0
  9
$UCSORGRIGHT
 10
0.0
 20
0.0
 30
0.0
  9
$UCSORGFRONT
 10
0.0
 20
0.0
 30
0.0
  9
$UCSORGBACK
 10
0.0
 20
0.0
 30
0.0
  9
$PUCSBASE
  2

  9
$PUCSNAME
  2

  9
$PUCSORG
 10
0.0
 20
0.0
 30
0.0
  9
$PUCSXDIR
 10
1.0
 20
0.0
 30
0.0
  9
$PUCSYDIR
 10
0.0
 20
1.0
 30
0.0
  9
$PUCSORTHOREF
  2

  9
$PUCSORTHOVIEW
 70
     0
  9
$PUCSORGTOP
 10
0.0
 20
0.0
 30
0.0
  9
$PUCSORGBOTTOM
 10
0.0
 20
0.0
 30
0.0
  9
$PUCSORGLEFT
 10
0.0
 20
0.0
 30
0.0
  9
$PUCSORGRIGHT
 10
0.0
 20
0.0
 30
0.0
  9
$PUCSORGFRONT
 10
0.0
 20
0.0
 30
0.0
  9
$PUCSORGBACK
 10
0.0
 20
0.0
 30
0.0
  9
$USERI1
 70
     0
  9
$USERI2
 70
     0
  9
$USERI3
 70
     0
  9
$USERI4
 70
     0
  9
$USERI5
 70
     0
  9
$USERR1
 40
0.0
  9
$USERR2
 40
0.0
  9
$USERR3
 40
0.0
  9
$USERR4
 40
0.0
  9
$USERR5
 40
0.0
  9
$WORLDVIEW
 70
     1
  9
$SHADEDGE
 70
     3
  9
$SHADEDIF
 70
    70
  9
$TILEMODE
 70
     1
  9
$MAXACTVP
 70
    64
  9
$PINSBASE
 10
0.0
 20
0.0
 30
0.0
  9
$PLIMCHECK
 70
     0
  9
$PEXTMIN
 10
1.0000000000E+20
 20
1.0000000000E+20
 30
1.0000000000E+20
  9
$PEXTMAX
 10
-1.0000000000E+20
 20
-1.0000000000E+20
 30
-1.0000000000E+20
  9
$PLIMMIN
 10
0.0
 20
0.0
  9
$PLIMMAX
 10
420.0
 20
297.0
  9
$UNITMODE
 70
     0
  9
$VISRETAIN
 70
     1
  9
$PLINEGEN
 70
     0
  9
$PSLTSCALE
 70
     1
  9
$TREEDEPTH
 70
  3020
  9
$CMLSTYLE
  2
Standard
  9
$CMLJUST
 70
     0
  9
$CMLSCALE
 40
20.0
  9
$PROXYGRAPHICS
 70
     1
  9
$MEASUREMENT
 70
     1
  9
$CELWEIGHT
370
    -1
  9
$ENDCAPS
280
     0
  9
$JOINSTYLE
280
     0
  9
$LWDISPLAY
290
     1
  9
$INSUNITS
 70
     4
  9
$HYPERLINKBASE
  1

  9
$STYLESHEET
  1

  9
$XEDIT
290
     1
  9
$CEPSNTYPE
380
     0
  9
$PSTYLEMODE
290
     1
  9
$FINGERPRINTGUID
  2
{425de6f2-af5c-465c-95e9-a06a01c19242}
  9
$VERSIONGUID
  2
{FAEB1C32-E019-11D5-929B-00C0DF256EC4}
  9
$EXTNAMES
290
     1
  9
$PSVPSCALE
 40
0.0
  9
$OLESTARTUP
290
     0
  0
ENDSEC
  0
SECTION
  2
CLASSES
  0
CLASS
  1
ACDBDICTIONARYWDFLT
  2
AcDbDictionaryWithDefault
  3
ObjectDBX Classes
 90
        0
280
     0
281
     0
  0
CLASS
  1
VISUALSTYLE
  2
AcDbVisualStyle
  3
ObjectDBX Classes
 90
     4095
280
     0
281
     0
  0
CLASS
  1
MATERIAL
  2
AcDbMaterial
  3
ObjectDBX Classes
 90
     1153
280
     0
281
     0
  0
CLASS
  1
SCALE
  2
AcDbScale
  3
ObjectDBX Classes
 90
     1153
280
     0
281
     0
  0
CLASS
  1
TABLESTYLE
  2
AcDbTableStyle
  3
ObjectDBX Classes
 90
     4095
280
     0
281
     0
  0
CLASS
  1
MLEADERSTYLE
  2
AcDbMLeaderStyle
  3
ACDB_MLEADERSTYLE_CLASS
 90
     4095
280
     0
281
     0
  0
CLASS
  1
SUN
  2
AcDbSun
  3
SCENEOE
 90
     1153
280
     0
281
     0
  0
CLASS
  1
ACDBPLACEHOLDER
  2
AcDbPlaceHolder
  3
ObjectDBX Classes
 90
        0
280
     0
281
     0
  0
CLASS
  1
LAYOUT
  2
AcDbLayout
  3
ObjectDBX Classes
 90
        0
280
     0
281
     0
  0
ENDSEC
  0
SECTION
  2
TABLES
  0
TABLE
  2
VPORT
  5
8
330
0
100
AcDbSymbolTable
 70
     1
  0
VPORT
  5
29
330
8
100
AcDbSymbolTableRecord
100
AcDbViewportTableRecord
  2
*Active
 70
     0
 10
0.0
 20
0.0
 11
1.0
 21
1.0
 12
-31.2961525986
 22
43.4399198594
 13
0.0
 23
0.0
 14
10.0
 24
10.0
 15
10.0
 25
10.0
 16
0.0
 26
0.0
 36
1.0
 17
0.0
 27
0.0
 37
0.0
 40
166.9941202817
 41
1.0796358058
 42
50.0
 43
0.0
 44
0.0
 50
0.0
 51
0.0
 71
     0
 72
   100
 73
     1
 74
     3
 75
     0
 76
     0
 77
     0
 78
     0
281
     0
 65
     1
110
0.0
120
0.0
130
0.0
111
1.0
121
0.0
131
0.0
112
0.0
122
1.0
132
0.0
 79
     0
146
0.0
  0
ENDTAB
  0
TABLE
  2
LTYPE
  5
5
330
0
100
AcDbSymbolTable
 70
     6
  0
LTYPE
  5
14
330
5
100
AcDbSymbolTableRecord
100
AcDbLinetypeTableRecord
  2
ByBlock
 70
     0
  3

 72
    65
 73
     0
 40
0.0
  0
LTYPE
  5
15
330
5
100
AcDbSymbolTableRecord
100
AcDbLinetypeTableRecord
  2
ByLayer
 70
     0
  3

 72
    65
 73
     0
 40
0.0
  0
LTYPE
  5
16
330
5
100
AcDbSymbolTableRecord
100
AcDbLinetypeTableRecord
  2
Continuous
 70
     0
  3
Solid line
 72
    65
 73
     0
 40
0.0
  0
LTYPE
  5
5E
330
5
100
AcDbSymbolTableRecord
100
AcDbLinetypeTableRecord
  2
HIDDEN
 70
     0
  3
Hidden __ __ __ __ __ __ __ __ __ __ __ __ __ __
 72
    65
 73
     2
 40
1.905
 49
1.27
 74
     0
 49
-0.635
 74
     0
  0
LTYPE
  5
5F
330
5
100
AcDbSymbolTableRecord
100
AcDbLinetypeTableRecord
  2
PHANTOM
 70
     0
  3
Phantom ______  __  __  ______  __  __  ______
 72
    65
 73
     6
 40
12.7
 49
6.35
 74
     0
 49
-1.27
 74
     0
 49
1.27
 74
     0
 49
-1.27
 74
     0
 49
1.27
 74
     0
 49
-1.27
 74
     0
  0
LTYPE
  5
60
330
5
100
AcDbSymbolTableRecord
100
AcDbLinetypeTableRecord
  2
CENTER
 70
     0
  3
Center ____ _ ____ _ ____ _ ____ _ ____ _ ____
 72
    65
 73
     4
 40
10.16
 49
6.35
 74
     0
 49
-1.27
 74
     0
 49
1.27
 74
     0
 49
-1.27
 74
     0
  0
LTYPE
  5
61
330
5
100
AcDbSymbolTableRecord
100
AcDbLinetypeTableRecord
  2
CENTERX2
 70
     0
  3
Center (2x) ________  __  ________  __  _____
 72
    65
 73
     4
 40
20.32
 49
12.7
 74
     0
 49
-2.54
 74
     0
 49
2.54
 74
     0
 49
-2.54
 74
     0
  0
LTYPE
  5
62
330
5
100
AcDbSymbolTableRecord
100
AcDbLinetypeTableRecord
  2
DOT2
 70
     0
  3
Dot (.5x) ........................................
 72
    65
 73
     2
 40
0.635
 49
0.0
 74
     0
 49
-0.635
 74
     0
  0
ENDTAB
  0
TABLE
  2
LAYER
  5
2
330
0
100
AcDbSymbolTable
 70
     1
  0
LAYER
  5
10
330
2
100
AcDbSymbolTableRecord
100
AcDbLayerTableRecord
  2
0
 70
     0
 62
     7
  6
Continuous
370
    -3
390
F
  0
ENDTAB
  0
TABLE
  2
STYLE
  5
3
330
0
100
AcDbSymbolTable
 70
     1
  0
STYLE
  5
11
330
3
100
AcDbSymbolTableRecord
100
AcDbTextStyleTableRecord
  2
Standard
 70
     0
 40
0.0
 41
1.0
 50
0.0
 71
     0
 42
3.5
  3
txt
  4

  0
ENDTAB
  0
TABLE
  2
VIEW
  5
6
330
0
100
AcDbSymbolTable
 70
     0
  0
ENDTAB
  0
TABLE
  2
UCS
  5
7
330
0
100
AcDbSymbolTable
 70
     0
  0
ENDTAB
  0
TABLE
  2
APPID
  5
9
330
0
100
AcDbSymbolTable
 70
     1
  0
APPID
  5
12
330
9
100
AcDbSymbolTableRecord
100
AcDbRegAppTableRecord
  2
ACAD
 70
     0
  0
ENDTAB
  0
TABLE
  2
DIMSTYLE
  5
A
330
0
100
AcDbSymbolTable
 70
     1
100
AcDbDimStyleTable
  0
DIMSTYLE
105
27
330
A
100
AcDbSymbolTableRecord
100
AcDbDimStyleTableRecord
  2
ISO-25
 70
     0
 41
2.5
 42
0.625
 43
3.75
 44
1.25
 73
     0
 74
     0
 77
     1
 78
     8
140
2.5
141
2.5
143
0.0393700787
147
0.625
171
     3
172
     1
178
     0
271
     2
272
     2
274
     3
278
    44
283
     0
284
     8
340
11
  0
ENDTAB
  0
TABLE
  2
BLOCK_RECORD
  5
1
330
0
100
AcDbSymbolTable
 70
     1
  0
BLOCK_RECORD
  5
1F
330
1
100
AcDbSymbolTableRecord
100
AcDbBlockTableRecord
  2
*Model_Space
340
22
  0
BLOCK_RECORD
  5
1B
330
1
100
AcDbSymbolTableRecord
100
AcDbBlockTableRecord
  2
*Paper_Space
340
1E
  0
BLOCK_RECORD
  5
23
330
1
100
AcDbSymbolTableRecord
100
AcDbBlockTableRecord
  2
*Paper_Space0
340
26
  0
ENDTAB
  0
ENDSEC
  0
SECTION
  2
BLOCKS
  0
BLOCK
  5
20
330
1F
100
AcDbEntity
  8
0
100
AcDbBlockBegin
  2
*Model_Space
 70
     0
 10
0.0
 20
0.0
 30
0.0
  3
*Model_Space
  1

  0
ENDBLK
  5
21
330
1F
100
AcDbEntity
  8
0
100
AcDbBlockEnd
  0
BLOCK
  5
1C
330
1B
100
AcDbEntity
 67
     1
  8
0
100
AcDbBlockBegin
  2
*Paper_Space
 70
     0
 10
0.0
 20
0.0
 30
0.0
  3
*Paper_Space
  1

  0
ENDBLK
  5
1D
330
1B
100
AcDbEntity
 67
     1
  8
0
100
AcDbBlockEnd
  0
BLOCK
  5
24
330
23
100
AcDbEntity
  8
0
100
AcDbBlockBegin
  2
*Paper_Space0
 70
     0
 10
0.0
 20
0.0
 30
0.0
  3
*Paper_Space0
  1

  0
ENDBLK
  5
25
330
23
100
AcDbEntity
  8
0
100
AcDbBlockEnd
  0
ENDSEC
  0
SECTION
  2
ENTITIES
  0
CIRCLE
  5
63
330
1F
100
AcDbEntity
  8
0
  6
Continuous
 62
     7
370
    25
100
AcDbCircle
 10
-104.0477070405
 20
120.2997719615
 30
0.0
 40
2.499999999999964
  0
CIRCLE
  5
64
330
1F
100
AcDbEntity
  8
0
  6
Continuous
 62
     7
370
    25
100
AcDbCircle
 10
39.6007793613
 20
-33.4199322426
 30
0.0
 40
2.500000000000014
  0
CIRCLE
  5
6D
330
1F
100
AcDbEntity
  8
0
  6
Continuous
 62
     7
370
    25
100
AcDbCircle
 10
39.6007678243
 20
120.2997827426
 30
0.0
 40
2.499999999999993
  0
CIRCLE
  5
6E
330
1F
100
AcDbEntity
  8
0
  6
Continuous
 62
     7
370
    25
100
AcDbCircle
 10
-104.0476955035
 20
-33.4199430238
 30
0.0
 40
2.499999999999993
  0
SPLINE
  5
E4
330
1F
100
AcDbEntity
  8
0
  6
Continuous
 62
     7
370
    25
100
AcDbSpline
210
0.0
220
0.0
230
1.0
 70
    24
 71
     3
 72
    10
 73
     6
 74
     0
 42
0.00000001
 43
0.00000001
 40
0.0
 40
0.0
 40
0.0
 40
0.0
 40
0.2873534411939613
 40
0.555635842972952
 40
1.0
 40
1.0
 40
1.0
 40
1.0
 10
45.13183289010141
 20
15.028729713252
 30
0.0
 10
45.12752297431194
 20
15.028729713252
 30
0.0
 10
45.1191891827176
 20
15.028729713252
 30
0.0
 10
45.10512789018387
 20
15.028729713252
 30
0.0
 10
45.09873464216732
 20
15.028729713252
 30
0.0
 10
45.09474819161842
 20
15.028729713252
 30
0.0
  0
SPLINE
  5
E7
330
1F
100
AcDbEntity
  8
0
  6
Continuous
 62
     7
370
    25
100
AcDbSpline
210
0.0
220
0.0
230
1.0
 70
    24
 71
     3
 72
     9
 73
     5
 74
     0
 42
0.00000001
 43
0.00000001
 40
0.0
 40
0.0
 40
0.0
 40
0.0
 40
0.5275931961798933
 40
1.0
 40
1.0
 40
1.0
 40
1.0
 10
45.15981970694741
 20
15.028729713252
 30
0.0
 10
45.15535030099696
 20
15.028729713252
 30
0.0
 10
45.14687899017871
 20
15.028729713252
 30
0.0
 10
45.13666027885635
 20
15.028729713252
 30
0.0
 10
45.13183289010141
 20
15.028729713252
 30
0.0
  0
SPLINE
  5
EC
330
1F
100
AcDbEntity
  8
0
  6
Continuous
 62
     7
370
    25
100
AcDbSpline
210
0.0
220
0.0
230
1.0
 70
    24
 71
     3
 72
     9
 73
     5
 74
     0
 42
0.00000001
 43
0.00000001
 40
0.0
 40
0.0
 40
0.0
 40
0.0
 40
0.5773446562848972
 40
1.0
 40
1.0
 40
1.0
 40
1.0
 10
45.17021728596242
 20
15.028729713252
 30
0.0
 10
45.16975472126314
 20
15.028729713252
 30
0.0
 10
45.16895352791314
 20
15.028729713252
 30
0.0
 10
45.16253326526409
 20
15.028729713252
 30
0.0
 10
45.15981970694741
 20
15.028729713252
 30
0.0
  0
SPLINE
  5
F0
330
1F
100
AcDbEntity
  8
0
  6
Continuous
 62
     7
370
    25
100
AcDbSpline
210
0.0
220
0.0
230
1.0
 70
    24
 71
     3
 72
     9
 73
     5
 74
     0
 42
0.00000001
 43
0.00000001
 40
0.0
 40
0.0
 40
0.0
 40
0.0
 40
0.5275931961798933
 40
1.0
 40
1.0
 40
1.0
 40
1.0
 10
45.14420896548599
 20
-23.77955908531999
 30
0.0
 10
45.13973955953556
 20
-23.77955908531999
 30
0.0
 10
45.1312682487173
 20
-23.77955908531999
 30
0.0
 10
45.12104953739496
 20
-23.77955908531999
 30
0.0
 10
45.11622214864
 20
-23.77955908531999
 30
0.0
  0
SPLINE
  5
F2
330
1F
100
AcDbEntity
  8
0
  6
Continuous
 62
     7
370
    25
100
AcDbSpline
210
0.0
220
0.0
230
1.0
 70
    24
 71
     3
 72
    10
 73
     6
 74
     0
 42
0.00000001
 43
0.00000001
 40
0.0
 40
0.0
 40
0.0
 40
0.0
 40
0.2873534411939613
 40
0.555635842972952
 40
1.0
 40
1.0
 40
1.0
 40
1.0
 10
45.11622214864
 20
-23.77955908531999
 30
0.0
 10
45.11191223285052
 20
-23.77955908532001
 30
0.0
 10
45.1035784412562
 20
-23.77955908532001
 30
0.0
 10
45.08951714872245
 20
-23.77955908531999
 30
0.0
 10
45.0831239007059
 20
-23.77955908531999
 30
0.0
 10
45.07913745015701
 20
-23.77955908531999
 30
0.0
  0
SPLINE
  5
F7
330
1F
100
AcDbEntity
  8
0
  6
Continuous
 62
     7
370
    25
100
AcDbSpline
210
0.0
220
0.0
230
1.0
 70
    24
 71
     3
 72
     9
 73
     5
 74
     0
 42
0.00000001
 43
0.00000001
 40
0.0
 40
0.0
 40
0.0
 40
0.0
 40
0.5773446562850014
 40
1.0
 40
1.0
 40
1.0
 40
1.0
 10
45.15460654450101
 20
-23.77955908531999
 30
0.0
 10
45.15414397980172
 20
-23.77955908531999
 30
0.0
 10
45.1533427864517
 20
-23.77955908531999
 30
0.0
 10
45.14692252380267
 20
-23.77955908531999
 30
0.0
 10
45.144208965486
 20
-23.77955908532001
 30
0.0
  0
SPLINE
  5
FA
330
1F
100
AcDbEntity
  8
0
  6
Continuous
 62
     7
370
    25
100
AcDbSpline
210
0.0
220
0.0
230
1.0
 70
    24
 71
     3
 72
    10
 73
     6
 74
     0
 42
0.00000001
 43
0.00000001
 40
0.0
 40
0.0
 40
0.0
 40
0.0
 40
0.2873534411939613
 40
0.555635842972952
 40
1.0
 40
1.0
 40
1.0
 40
1.0
 10
45.14744363156282
 20
53.83701851182399
 30
0.0
 10
45.14313371577336
 20
53.83701851182399
 30
0.0
 10
45.13479992417903
 20
53.83701851182401
 30
0.0
 10
45.12073863164529
 20
53.83701851182398
 30
0.0
 10
45.11434538362874
 20
53.83701851182398
 30
0.0
 10
45.11035893307984
 20
53.83701851182399
 30
0.0
  0
SPLINE
  5
FD
330
1F
100
AcDbEntity
  8
0
  6
Continuous
 62
     7
370
    25
100
AcDbSpline
210
0.0
220
0.0
230
1.0
 70
    24
 71
     3
 72
     9
 73
     5
 74
     0
 42
0.00000001
 43
0.00000001
 40
0.0
 40
0.0
 40
0.0
 40
0.0
 40
0.5275931961798933
 40
1.0
 40
1.0
 40
1.0
 40
1.0
 10
45.17543044840883
 20
53.83701851182399
 30
0.0
 10
45.17096104245839
 20
53.83701851182399
 30
0.0
 10
45.16248973164014
 20
53.83701851182399
 30
0.0
 10
45.15227102031777
 20
53.83701851182399
 30
0.0
 10
45.14744363156282
 20
53.83701851182399
 30
0.0
  0
SPLINE
  5
102
330
1F
100
AcDbEntity
  8
0
  6
Continuous
 62
     7
370
    25
100
AcDbSpline
210
0.0
220
0.0
230
1.0
 70
    24
 71
     3
 72
     9
 73
     5
 74
     0
 42
0.00000001
 43
0.00000001
 40
0.0
 40
0.0
 40
0.0
 40
0.0
 40
0.5773446562848972
 40
1.0
 40
1.0
 40
1.0
 40
1.0
 10
45.18582802742384
 20
53.83701851182399
 30
0.0
 10
45.18536546272456
 20
53.83701851182398
 30
0.0
 10
45.18456426937456
 20
53.837018511824
 30
0.0
 10
45.17814400672551
 20
53.83701851182399
 30
0.0
 10
45.17543044840883
 20
53.837018511824
 30
0.0
  0
SPLINE
  5
106
330
1F
100
AcDbEntity
  8
0
  6
Continuous
 62
     7
370
    25
100
AcDbSpline
210
0.0
220
0.0
230
1.0
 70
    24
 71
     3
 72
    10
 73
     6
 74
     0
 42
0.00000001
 43
0.00000001
 40
0.0
 40
0.0
 40
0.0
 40
0.0
 40
0.2873534411939613
 40
0.555635842972952
 40
1.0
 40
1.0
 40
1.0
 40
1.0
 10
45.16305437302425
 20
92.64530731039598
 30
0.0
 10
45.15874445723477
 20
92.64530731039598
 30
0.0
 10
45.15041066564045
 20
92.645307310396
 30
0.0
 10
45.1363493731067
 20
92.64530731039598
 30
0.0
 10
45.12995612509016
 20
92.64530731039595
 30
0.0
 10
45.12596967454126
 20
92.64530731039598
 30
0.0
  0
SPLINE
  5
108
330
1F
100
AcDbEntity
  8
0
  6
Continuous
 62
     7
370
    25
100
AcDbSpline
210
0.0
220
0.0
230
1.0
 70
    24
 71
     3
 72
     9
 73
     5
 74
     0
 42
0.00000001
 43
0.00000001
 40
0.0
 40
0.0
 40
0.0
 40
0.0
 40
0.5275931961798933
 40
1.0
 40
1.0
 40
1.0
 40
1.0
 10
45.19104118987025
 20
92.64530731039598
 30
0.0
 10
45.18657178391981
 20
92.64530731039599
 30
0.0
 10
45.17810047310156
 20
92.64530731039598
 30
0.0
 10
45.1678817617792
 20
92.64530731039598
 30
0.0
 10
45.16305437302425
 20
92.64530731039598
 30
0.0
  0
SPLINE
  5
10D
330
1F
100
AcDbEntity
  8
0
  6
Continuous
 62
     7
370
    25
100
AcDbSpline
210
0.0
220
0.0
230
1.0
 70
    24
 71
     3
 72
     9
 73
     5
 74
     0
 42
0.00000001
 43
0.00000001
 40
0.0
 40
0.0
 40
0.0
 40
0.0
 40
0.5773446562848972
 40
1.0
 40
1.0
 40
1.0
 40
1.0
 10
45.20143876888526
 20
92.64530731039598
 30
0.0
 10
45.20097620418598
 20
92.64530731039596
 30
0.0
 10
45.20017501083596
 20
92.64530731039598
 30
0.0
 10
45.19375474818693
 20
92.64530731039598
 30
0.0
 10
45.19104118987025
 20
92.64530731039599
 30
0.0
  0
SPLINE
  5
118
330
1F
100
AcDbEntity
  8
0
  6
Continuous
 62
     7
370
    25
100
AcDbSpline
210
0.0
220
0.0
230
1.0
 70
    24
 71
     3
 72
     9
 73
     5
 74
     0
 42
0.00000001
 43
0.00000001
 40
0.0
 40
0.0
 40
0.0
 40
0.0
 40
0.6717796706967701
 40
1.0
 40
1.0
 40
1.0
 40
1.0
 10
44.65815089245883
 20
53.83701851182399
 30
0.0
 10
44.64400266458944
 20
53.83701851182399
 30
0.0
 10
44.62294184883906
 20
53.83701851182398
 30
0.0
 10
44.60625106655971
 20
53.837018511824
 30
0.0
 10
44.60077281250364
 20
53.83701851182399
 30
0.0
  0
SPLINE
  5
11E
330
1F
100
AcDbEntity
  8
0
  6
Continuous
 62
     7
370
    25
100
AcDbSpline
210
0.0
220
0.0
230
1.0
 70
    24
 71
     3
 72
     9
 73
     5
 74
     0
 42
0.00000001
 43
0.00000001
 40
0.0
 40
0.0
 40
0.0
 40
0.0
 40
0.9842252220108916
 40
1.0
 40
1.0
 40
1.0
 40
1.0
 10
44.64254015099742
 20
15.028729713252
 30
0.0
 10
44.6280861743632
 20
15.02872971325203
 30
0.0
 10
44.61340053502885
 20
15.02872971325206
 30
0.0
 10
44.60169764758962
 20
15.028729713252
 30
0.0
 10
44.60151303713841
 20
15.028729713252
 30
0.0
  0
SPLINE
  5
120
330
1F
100
AcDbEntity
  8
0
  6
Continuous
 62
     7
370
    25
100
AcDbSpline
210
0.0
220
0.0
230
1.0
 70
    24
 71
     3
 72
     9
 73
     5
 74
     0
 42
0.00000001
 43
0.00000001
 40
0.0
 40
0.0
 40
0.0
 40
0.0
 40
0.5772955839846404
 40
1.0
 40
1.0
 40
1.0
 40
1.0
 10
44.67376163392026
 20
92.64530731039598
 30
0.0
 10
44.65970586501749
 20
92.64530731039598
 30
0.0
 10
44.63535825299224
 20
92.64530731039596
 30
0.0
 10
44.61609590357342
 20
92.64530731039598
 30
0.0
 10
44.60795362341125
 20
92.64530731039598
 30
0.0
  0
SPLINE
  5
127
330
1F
100
AcDbEntity
  8
0
  6
Continuous
 62
     7
370
    25
100
AcDbSpline
210
0.0
220
0.0
230
1.0
 70
    24
 71
     3
 72
    11
 73
     7
 74
     0
 42
0.00000001
 43
0.00000001
 40
0.0
 40
0.0
 40
0.0
 40
0.0
 40
0.2422577680482321
 40
0.4951392778615199
 40
0.7266216394424373
 40
1.0
 40
1.0
 40
1.0
 40
1.0
 10
44.93332577742443
 20
15.028729713252
 30
0.0
 10
44.92829435715382
 20
15.028729713252
 30
0.0
 10
44.91801087349309
 20
15.028729713252
 30
0.0
 10
44.90579939247289
 20
15.02872971325199
 30
0.0
 10
44.89655470297355
 20
15.028729713252
 30
0.0
 10
44.89238848020004
 20
15.028729713252
 30
0.0
 10
44.89013250127041
 20
15.028729713252
 30
0.0
  0
SPLINE
  5
129
330
1F
100
AcDbEntity
  8
0
  6
Continuous
 62
     7
370
    25
100
AcDbSpline
210
0.0
220
0.0
230
1.0
 70
    24
 71
     3
 72
     9
 73
     5
 74
     0
 42
0.00000001
 43
0.00000001
 40
0.0
 40
0.0
 40
0.0
 40
0.0
 40
0.5223388361511048
 40
1.0
 40
1.0
 40
1.0
 40
1.0
 10
44.94701592312641
 20
15.028729713252
 30
0.0
 10
44.94466300722596
 20
15.028729713252
 30
0.0
 10
44.94015842947375
 20
15.028729713252
 30
0.0
 10
44.93553446545783
 20
15.028729713252
 30
0.0
 10
44.93332577742441
 20
15.028729713252
 30
0.0
  0
SPLINE
  5
12F
330
1F
100
AcDbEntity
  8
0
  6
Continuous
 62
     7
370
    25
100
AcDbSpline
210
0.0
220
0.0
230
1.0
 70
    24
 71
     3
 72
     9
 73
     5
 74
     0
 42
0.00000001
 43
0.00000001
 40
0.0
 40
0.0
 40
0.0
 40
0.0
 40
0.5223388361511048
 40
1.0
 40
1.0
 40
1.0
 40
1.0
 10
44.96262666458784
 20
53.83701851182399
 30
0.0
 10
44.96027374868738
 20
53.83701851182398
 30
0.0
 10
44.95576917093519
 20
53.837018511824
 30
0.0
 10
44.95114520691926
 20
53.83701851182398
 30
0.0
 10
44.94893651888583
 20
53.83701851182399
 30
0.0
  0
SPLINE
  5
131
330
1F
100
AcDbEntity
  8
0
  6
Continuous
 62
     7
370
    25
100
AcDbSpline
210
0.0
220
0.0
230
1.0
 70
    24
 71
     3
 72
    11
 73
     7
 74
     0
 42
0.00000001
 43
0.00000001
 40
0.0
 40
0.0
 40
0.0
 40
0.0
 40
0.2422577680482321
 40
0.4951392778615199
 40
0.7266216394424373
 40
1.0
 40
1.0
 40
1.0
 40
1.0
 10
44.94893651888584
 20
53.837018511824
 30
0.0
 10
44.94390509861523
 20
53.83701851182401
 30
0.0
 10
44.93362161495451
 20
53.83701851182398
 30
0.0
 10
44.9214101339343
 20
53.83701851182398
 30
0.0
 10
44.91216544443496
 20
53.83701851182401
 30
0.0
 10
44.90799922166146
 20
53.83701851182399
 30
0.0
 10
44.90574324273183
 20
53.83701851182399
 30
0.0
  0
SPLINE
  5
138
330
1F
100
AcDbEntity
  8
0
  6
Continuous
 62
     7
370
    25
100
AcDbSpline
210
0.0
220
0.0
230
1.0
 70
    24
 71
     3
 72
    11
 73
     7
 74
     0
 42
0.00000001
 43
0.00000001
 40
0.0
 40
0.0
 40
0.0
 40
0.0
 40
0.2422577680482321
 40
0.4951392778615199
 40
0.7266216394424373
 40
1.0
 40
1.0
 40
1.0
 40
1.0
 10
44.96454726034727
 20
92.64530731039599
 30
0.0
 10
44.95951584007666
 20
92.64530731039598
 30
0.0
 10
44.94923235641593
 20
92.64530731039596
 30
0.0
 10
44.93702087539572
 20
92.64530731039595
 30
0.0
 10
44.92777618589637
 20
92.64530731039599
 30
0.0
 10
44.92360996312288
 20
92.64530731039599
 30
0.0
 10
44.92135398419325
 20
92.64530731039598
 30
0.0
  0
SPLINE
  5
13B
330
1F
100
AcDbEntity
  8
0
  6
Continuous
 62
     7
370
    25
100
AcDbSpline
210
0.0
220
0.0
230
1.0
 70
    24
 71
     3
 72
     9
 73
     5
 74
     0
 42
0.00000001
 43
0.00000001
 40
0.0
 40
0.0
 40
0.0
 40
0.0
 40
0.5223388361511048
 40
1.0
 40
1.0
 40
1.0
 40
1.0
 10
44.97823740604925
 20
92.64530731039598
 30
0.0
 10
44.97588449014881
 20
92.64530731039598
 30
0.0
 10
44.97137991239659
 20
92.64530731039599
 30
0.0
 10
44.96675594838068
 20
92.64530731039598
 30
0.0
 10
44.96454726034725
 20
92.64530731039598
 30
0.0
  0
SPLINE
  5
142
330
1F
100
AcDbEntity
  8
0
  6
Continuous
 62
     7
370
    25
100
AcDbSpline
210
0.0
220
0.0
230
1.0
 70
    24
 71
     3
 72
     9
 73
     5
 74
     0
 42
0.00000001
 43
0.00000001
 40
0.0
 40
0.0
 40
0.0
 40
0.0
 40
0.5223388361511048
 40
1.0
 40
1.0
 40
1.0
 40
1.0
 10
44.931405181665
 20
-23.77955908531999
 30
0.0
 10
44.92905226576455
 20
-23.77955908531999
 30
0.0
 10
44.92454768801235
 20
-23.77955908531999
 30
0.0
 10
44.91992372399643
 20
-23.77955908531999
 30
0.0
 10
44.91771503596301
 20
-23.77955908531999
 30
0.0
  0
SPLINE
  5
144
330
1F
100
AcDbEntity
  8
0
  6
Continuous
 62
     7
370
    25
100
AcDbSpline
210
0.0
220
0.0
230
1.0
 70
    24
 71
     3
 72
    11
 73
     7
 74
     0
 42
0.00000001
 43
0.00000001
 40
0.0
 40
0.0
 40
0.0
 40
0.0
 40
0.2422577680481322
 40
0.4951392778614309
 40
0.7266216394424256
 40
1.0
 40
1.0
 40
1.0
 40
1.0
 10
44.91771503596301
 20
-23.77955908531999
 30
0.0
 10
44.91268361569241
 20
-23.77955908532001
 30
0.0
 10
44.9024001320317
 20
-23.77955908531999
 30
0.0
 10
44.89018865101149
 20
-23.77955908532001
 30
0.0
 10
44.88094396151214
 20
-23.77955908532001
 30
0.0
 10
44.87677773873863
 20
-23.77955908532001
 30
0.0
 10
44.87452175980899
 20
-23.77955908531999
 30
0.0
  0
SPLINE
  5
14A
330
1F
100
AcDbEntity
  8
0
  6
Continuous
 62
     7
370
    25
100
AcDbSpline
210
0.0
220
0.0
230
1.0
 70
    24
 71
     3
 72
     9
 73
     5
 74
     0
 42
0.00000001
 43
0.00000001
 40
0.0
 40
0.0
 40
0.0
 40
0.0
 40
0.593099862900448
 40
1.0
 40
1.0
 40
1.0
 40
1.0
 10
45.02696168473783
 20
53.83701851182399
 30
0.0
 10
45.0195175020013
 20
53.83701851182401
 30
0.0
 10
45.00696618779237
 20
53.83701851182399
 30
0.0
 10
44.9961128053753
 20
53.83701851182399
 30
0.0
 10
44.99169656258183
 20
53.83701851182399
 30
0.0
  0
SPLINE
  5
14D
330
1F
100
AcDbEntity
  8
0
  6
Continuous
 62
     7
370
    25
100
AcDbSpline
210
0.0
220
0.0
230
1.0
 70
    24
 71
     3
 72
     9
 73
     5
 74
     0
 42
0.00000001
 43
0.00000001
 40
0.0
 40
0.0
 40
0.0
 40
0.0
 40
0.5359109883243266
 40
1.0
 40
1.0
 40
1.0
 40
1.0
 10
45.05980070512383
 20
53.83701851182399
 30
0.0
 10
45.05414219758315
 20
53.83701851182399
 30
0.0
 10
45.04358352708758
 20
53.83701851182399
 30
0.0
 10
45.03223049990331
 20
53.837018511824
 30
0.0
 10
45.02696168473783
 20
53.837018511824
 30
0.0
  0
SPLINE
  5
14F
330
1F
100
AcDbEntity
  8
0
  6
Continuous
 62
     7
370
    25
100
AcDbSpline
210
0.0
220
0.0
230
1.0
 70
    24
 71
     3
 72
    10
 73
     6
 74
     0
 42
0.00000001
 43
0.00000001
 40
0.0
 40
0.0
 40
0.0
 40
0.0
 40
0.2877710486895589
 40
0.5584217249619935
 40
1.0
 40
1.0
 40
1.0
 40
1.0
 10
44.99169656258183
 20
53.83701851182399
 30
0.0
 10
44.98938954805512
 20
53.837018511824
 30
0.0
 10
44.98491277029245
 20
53.83701851182399
 30
0.0
 10
44.97924752356352
 20
53.83701851182399
 30
0.0
 10
44.97850814871629
 20
53.837018511824
 30
0.0
 10
44.97804974012584
 20
53.837018511824
 30
0.0
  0
SPLINE
  5
151
330
1F
100
AcDbEntity
  8
0
  6
Continuous
 62
     7
370
    25
100
AcDbSpline
210
0.0
220
0.0
230
1.0
 70
    24
 71
     3
 72
     9
 73
     5
 74
     0
 42
0.00000001
 43
0.00000001
 40
0.0
 40
0.0
 40
0.0
 40
0.0
 40
0.5930998629006237
 40
1.0
 40
1.0
 40
1.0
 40
1.0
 10
44.99574020181499
 20
-23.77955908531999
 30
0.0
 10
44.98829601907845
 20
-23.77955908531999
 30
0.0
 10
44.97574470486953
 20
-23.77955908532001
 30
0.0
 10
44.96489132245249
 20
-23.77955908531999
 30
0.0
 10
44.960475079659
 20
-23.77955908532001
 30
0.0
  0
SPLINE
  5
154
330
1F
100
AcDbEntity
  8
0
  6
Continuous
 62
     7
370
    25
100
AcDbSpline
210
0.0
220
0.0
230
1.0
 70
    24
 71
     3
 72
     9
 73
     5
 74
     0
 42
0.00000001
 43
0.00000001
 40
0.0
 40
0.0
 40
0.0
 40
0.0
 40
0.5359109883241268
 40
1.0
 40
1.0
 40
1.0
 40
1.0
 10
45.028579222201
 20
-23.77955908531999
 30
0.0
 10
45.02292071466032
 20
-23.77955908531999
 30
0.0
 10
45.01236204416475
 20
-23.77955908532001
 30
0.0
 10
45.00100901698048
 20
-23.77955908532001
 30
0.0
 10
44.99574020181499
 20
-23.77955908531999
 30
0.0
  0
SPLINE
  5
156
330
1F
100
AcDbEntity
  8
0
  6
Continuous
 62
     7
370
    25
100
AcDbSpline
210
0.0
220
0.0
230
1.0
 70
    24
 71
     3
 72
    10
 73
     6
 74
     0
 42
0.00000001
 43
0.00000001
 40
0.0
 40
0.0
 40
0.0
 40
0.0
 40
0.2877710486895589
 40
0.5584217249619935
 40
1.0
 40
1.0
 40
1.0
 40
1.0
 10
44.960475079659
 20
-23.77955908531999
 30
0.0
 10
44.9581680651323
 20
-23.77955908532001
 30
0.0
 10
44.95369128736962
 20
-23.77955908531999
 30
0.0
 10
44.94802604064067
 20
-23.77955908531999
 30
0.0
 10
44.94728666579345
 20
-23.77955908532001
 30
0.0
 10
44.946828257203
 20
-23.77955908532001
 30
0.0
  0
SPLINE
  5
158
330
1F
100
AcDbEntity
  8
0
  6
Continuous
 62
     7
370
    25
100
AcDbSpline
210
0.0
220
0.0
230
1.0
 70
    24
 71
     3
 72
     9
 73
     5
 74
     0
 42
0.00000001
 43
0.00000001
 40
0.0
 40
0.0
 40
0.0
 40
0.0
 40
0.5359109883243266
 40
1.0
 40
1.0
 40
1.0
 40
1.0
 10
45.04418996366241
 20
15.028729713252
 30
0.0
 10
45.03853145612173
 20
15.028729713252
 30
0.0
 10
45.02797278562616
 20
15.028729713252
 30
0.0
 10
45.01661975844188
 20
15.028729713252
 30
0.0
 10
45.0113509432764
 20
15.028729713252
 30
0.0
  0
SPLINE
  5
15B
330
1F
100
AcDbEntity
  8
0
  6
Continuous
 62
     7
370
    25
100
AcDbSpline
210
0.0
220
0.0
230
1.0
 70
    24
 71
     3
 72
     9
 73
     5
 74
     0
 42
0.00000001
 43
0.00000001
 40
0.0
 40
0.0
 40
0.0
 40
0.0
 40
0.593099862900448
 40
1.0
 40
1.0
 40
1.0
 40
1.0
 10
45.0113509432764
 20
15.028729713252
 30
0.0
 10
45.00390676053986
 20
15.028729713252
 30
0.0
 10
44.99135544633093
 20
15.028729713252
 30
0.0
 10
44.98050206391391
 20
15.028729713252
 30
0.0
 10
44.97608582112041
 20
15.028729713252
 30
0.0
  0
SPLINE
  5
15D
330
1F
100
AcDbEntity
  8
0
  6
Continuous
 62
     7
370
    25
100
AcDbSpline
210
0.0
220
0.0
230
1.0
 70
    24
 71
     3
 72
    10
 73
     6
 74
     0
 42
0.00000001
 43
0.00000001
 40
0.0
 40
0.0
 40
0.0
 40
0.0
 40
0.2877710486895589
 40
0.5584217249619935
 40
1.0
 40
1.0
 40
1.0
 40
1.0
 10
44.97608582112041
 20
15.028729713252
 30
0.0
 10
44.9737788065937
 20
15.028729713252
 30
0.0
 10
44.96930202883102
 20
15.028729713252
 30
0.0
 10
44.96363678210208
 20
15.028729713252
 30
0.0
 10
44.96289740725487
 20
15.028729713252
 30
0.0
 10
44.96243899866442
 20
15.028729713252
 30
0.0
  0
SPLINE
  5
160
330
1F
100
AcDbEntity
  8
0
  6
Continuous
 62
     7
370
    25
100
AcDbSpline
210
0.0
220
0.0
230
1.0
 70
    24
 71
     3
 72
     9
 73
     5
 74
     0
 42
0.00000001
 43
0.00000001
 40
0.0
 40
0.0
 40
0.0
 40
0.0
 40
0.5359109883243266
 40
1.0
 40
1.0
 40
1.0
 40
1.0
 10
45.07541144658525
 20
92.64530731039598
 30
0.0
 10
45.06975293904457
 20
92.64530731039596
 30
0.0
 10
45.05919426854901
 20
92.64530731039599
 30
0.0
 10
45.04784124136472
 20
92.64530731039598
 30
0.0
 10
45.04257242619924
 20
92.64530731039599
 30
0.0
  0
SPLINE
  5
162
330
1F
100
AcDbEntity
  8
0
  6
Continuous
 62
     7
370
    25
100
AcDbSpline
210
0.0
220
0.0
230
1.0
 70
    24
 71
     3
 72
     9
 73
     5
 74
     0
 42
0.00000001
 43
0.00000001
 40
0.0
 40
0.0
 40
0.0
 40
0.0
 40
0.593099862900448
 40
1.0
 40
1.0
 40
1.0
 40
1.0
 10
45.04257242619924
 20
92.64530731039598
 30
0.0
 10
45.03512824346272
 20
92.64530731039599
 30
0.0
 10
45.02257692925379
 20
92.64530731039596
 30
0.0
 10
45.01172354683673
 20
92.64530731039598
 30
0.0
 10
45.00730730404324
 20
92.64530731039598
 30
0.0
  0
SPLINE
  5
164
330
1F
100
AcDbEntity
  8
0
  6
Continuous
 62
     7
370
    25
100
AcDbSpline
210
0.0
220
0.0
230
1.0
 70
    24
 71
     3
 72
    10
 73
     6
 74
     0
 42
0.00000001
 43
0.00000001
 40
0.0
 40
0.0
 40
0.0
 40
0.0
 40
0.2877710486895589
 40
0.5584217249619935
 40
1.0
 40
1.0
 40
1.0
 40
1.0
 10
45.00730730404324
 20
92.64530731039598
 30
0.0
 10
45.00500028951654
 20
92.64530731039599
 30
0.0
 10
45.00052351175388
 20
92.64530731039598
 30
0.0
 10
44.99485826502493
 20
92.64530731039598
 30
0.0
 10
44.99411889017771
 20
92.64530731039602
 30
0.0
 10
44.99366048158726
 20
92.64530731039599
 30
0.0
  0
SPLINE
  5
16C
330
1F
100
AcDbEntity
  8
0
  6
Continuous
 62
     7
370
    25
100
AcDbSpline
210
0.0
220
0.0
230
1.0
 70
    24
 71
     3
 72
     9
 73
     5
 74
     0
 42
0.00000001
 43
0.00000001
 40
0.0
 40
0.0
 40
0.0
 40
0.0
 40
0.9027192555889421
 40
1.0
 40
1.0
 40
1.0
 40
1.0
 10
45.18538042202442
 20
15.028729713252
 30
0.0
 10
45.18522009629303
 20
15.028729713252
 30
0.0
 10
45.18504249320057
 20
15.02872971325201
 30
0.0
 10
45.17709303316838
 20
15.028729713252
 30
0.0
 10
45.17631970377879
 20
15.028729713252
 30
0.0
  0
SPLINE
  5
170
330
1F
100
AcDbEntity
  8
0
  6
Continuous
 62
     7
370
    25
100
AcDbSpline
210
0.0
220
0.0
230
1.0
 70
    24
 71
     3
 72
     9
 73
     5
 74
     0
 42
0.00000001
 43
0.00000001
 40
0.0
 40
0.0
 40
0.0
 40
0.0
 40
0.9027192555889421
 40
1.0
 40
1.0
 40
1.0
 40
1.0
 10
45.21660190494725
 20
92.64530731039598
 30
0.0
 10
45.21644157921587
 20
92.64530731039603
 30
0.0
 10
45.21626397612345
 20
92.64530731039608
 30
0.0
 10
45.20831451609123
 20
92.64530731039596
 30
0.0
 10
45.20754118670163
 20
92.64530731039598
 30
0.0
  0
SPLINE
  5
174
330
1F
100
AcDbEntity
  8
0
  6
Continuous
 62
     7
370
    25
100
AcDbSpline
210
0.0
220
0.0
230
1.0
 70
    24
 71
     3
 72
     9
 73
     5
 74
     0
 42
0.00000001
 43
0.00000001
 40
0.0
 40
0.0
 40
0.0
 40
0.0
 40
0.9027192555889421
 40
1.0
 40
1.0
 40
1.0
 40
1.0
 10
45.20099116348583
 20
53.83701851182399
 30
0.0
 10
45.20083083775445
 20
53.83701851182401
 30
0.0
 10
45.20065323466199
 20
53.83701851182403
 30
0.0
 10
45.19270377462981
 20
53.83701851182398
 30
0.0
 10
45.19193044524021
 20
53.83701851182399
 30
0.0
  0
SPLINE
  5
178
330
1F
100
AcDbEntity
  8
0
  6
Continuous
 62
     7
370
    25
100
AcDbSpline
210
0.0
220
0.0
230
1.0
 70
    24
 71
     3
 72
     9
 73
     5
 74
     0
 42
0.00000001
 43
0.00000001
 40
0.0
 40
0.0
 40
0.0
 40
0.0
 40
0.9027192555889421
 40
1.0
 40
1.0
 40
1.0
 40
1.0
 10
45.16976968056299
 20
-23.77955908531999
 30
0.0
 10
45.16960935483162
 20
-23.77955908532001
 30
0.0
 10
45.16943175173921
 20
-23.77955908532002
 30
0.0
 10
45.16148229170697
 20
-23.77955908531999
 30
0.0
 10
45.16070896231739
 20
-23.77955908531999
 30
0.0
  0
SPLINE
  5
17A
330
1F
100
AcDbEntity
  8
0
  6
Continuous
 62
     7
370
    25
100
AcDbSpline
210
0.0
220
0.0
230
1.0
 70
    24
 71
     3
 72
    11
 73
     7
 74
     0
 42
0.00000001
 43
0.00000001
 40
0.0
 40
0.0
 40
0.0
 40
0.0
 40
0.2833162653283557
 40
0.5580485543459021
 40
0.7754339450991328
 40
1.0
 40
1.0
 40
1.0
 40
1.0
 10
45.92778974424441
 20
15.028729713252
 30
0.0
 10
45.90987474339203
 20
15.028729713252
 30
0.0
 10
45.87458753418364
 20
15.028729713252
 30
0.0
 10
45.83544396427833
 20
15.02872971325199
 30
0.0
 10
45.81161485886737
 20
15.028729713252
 30
0.0
 10
45.80874769124421
 20
15.028729713252
 30
0.0
 10
45.80729081509141
 20
15.028729713252
 30
0.0
  0
SPLINE
  5
17D
330
1F
100
AcDbEntity
  8
0
  6
Continuous
 62
     7
370
    25
100
AcDbSpline
210
0.0
220
0.0
230
1.0
 70
    24
 71
     3
 72
    11
 73
     7
 74
     0
 42
0.00000001
 43
0.00000001
 40
0.0
 40
0.0
 40
0.0
 40
0.0
 40
0.2779094875898259
 40
0.5531747409083295
 40
0.7729185235977282
 40
1.0
 40
1.0
 40
1.0
 40
1.0
 10
46.04226373843241
 20
15.028729713252
 30
0.0
 10
46.0365544716714
 20
15.028729713252
 30
0.0
 10
46.02519026029203
 20
15.02872971325199
 30
0.0
 10
45.99484397495131
 20
15.028729713252
 30
0.0
 10
45.96159675113532
 20
15.028729713252
 30
0.0
 10
45.93918144673556
 20
15.028729713252
 30
0.0
 10
45.92778974424441
 20
15.028729713252
 30
0.0
  0
SPLINE
  5
180
330
1F
100
AcDbEntity
  8
0
  6
Continuous
 62
     7
370
    25
100
AcDbSpline
210
0.0
220
0.0
230
1.0
 70
    24
 71
     3
 72
    11
 73
     7
 74
     0
 42
0.00000001
 43
0.00000001
 40
0.0
 40
0.0
 40
0.0
 40
0.0
 40
0.2814469665518326
 40
0.5588395290562904
 40
0.7775188711708115
 40
1.0
 40
1.0
 40
1.0
 40
1.0
 10
45.68076693948041
 20
15.028729713252
 30
0.0
 10
45.68007332836874
 20
15.028729713252
 30
0.0
 10
45.67869609800898
 20
15.028729713252
 30
0.0
 10
45.66943493270287
 20
15.02872971325199
 30
0.0
 10
45.65814297310239
 20
15.028729713252
 30
0.0
 10
45.6499526726336
 20
15.028729713252
 30
0.0
 10
45.64582223164042
 20
15.028729713252
 30
0.0
  0
SPLINE
  5
183
330
1F
100
AcDbEntity
  8
0
  6
Continuous
 62
     7
370
    25
100
AcDbSpline
210
0.0
220
0.0
230
1.0
 70
    24
 71
     3
 72
     9
 73
     5
 74
     0
 42
0.00000001
 43
0.00000001
 40
0.0
 40
0.0
 40
0.0
 40
0.0
 40
0.557617151566188
 40
1.0
 40
1.0
 40
1.0
 40
1.0
 10
45.57472789101941
 20
15.028729713252
 30
0.0
 10
45.55149365306224
 20
15.028729713252
 30
0.0
 10
45.50982664570441
 20
15.028729713252
 30
0.0
 10
45.47879968093179
 20
15.028729713252
 30
0.0
 10
45.46507388387741
 20
15.028729713252
 30
0.0
  0
SPLINE
  5
186
330
1F
100
AcDbEntity
  8
0
  6
Continuous
 62
     7
370
    25
100
AcDbSpline
210
0.0
220
0.0
230
1.0
 70
    24
 71
     3
 72
     9
 73
     5
 74
     0
 42
0.00000001
 43
0.00000001
 40
0.0
 40
0.0
 40
0.0
 40
0.0
 40
0.5608705499691337
 40
0.9999999999999999
 40
0.9999999999999999
 40
0.9999999999999999
 40
0.9999999999999999
 10
46.13866288175441
 20
15.028729713252
 30
0.0
 10
46.12286585021677
 20
15.028729713252
 30
0.0
 10
46.09470064963972
 20
15.02872971325199
 30
0.0
 10
46.05826410030348
 20
15.02872971325199
 30
0.0
 10
46.04226373843241
 20
15.028729713252
 30
0.0
  0
SPLINE
  5
189
330
1F
100
AcDbEntity
  8
0
  6
Continuous
 62
     7
370
    25
100
AcDbSpline
210
0.0
220
0.0
230
1.0
 70
    24
 71
     3
 72
     9
 73
     5
 74
     0
 42
0.00000001
 43
0.00000001
 40
0.0
 40
0.0
 40
0.0
 40
0.0
 40
0.5601212740665387
 40
1.0
 40
1.0
 40
1.0
 40
1.0
 10
45.46507388387741
 20
15.028729713252
 30
0.0
 10
45.45090179265596
 20
15.028729713252
 30
0.0
 10
45.42559996628793
 20
15.028729713252
 30
0.0
 10
45.4220505733436
 20
15.028729713252
 30
0.0
 10
45.42048927089743
 20
15.028729713252
 30
0.0
  0
SPLINE
  5
18B
330
1F
100
AcDbEntity
  8
0
  6
Continuous
 62
     7
370
    25
100
AcDbSpline
210
0.0
220
0.0
230
1.0
 70
    24
 71
     3
 72
     9
 73
     5
 74
     0
 42
0.00000001
 43
0.00000001
 40
0.0
 40
0.0
 40
0.0
 40
0.0
 40
0.557939016497611
 40
0.9999999999999999
 40
0.9999999999999999
 40
0.9999999999999999
 40
0.9999999999999999
 10
46.18927242970042
 20
15.028729713252
 30
0.0
 10
46.18631207766466
 20
15.028729713252
 30
0.0
 10
46.18100620740245
 20
15.02872971325199
 30
0.0
 10
46.15164314569253
 20
15.02872971325199
 30
0.0
 10
46.13866288175441
 20
15.028729713252
 30
0.0
  0
SPLINE
  5
18D
330
1F
100
AcDbEntity
  8
0
  6
Continuous
 62
     7
370
    25
100
AcDbSpline
210
0.0
220
0.0
230
1.0
 70
    24
 71
     3
 72
    11
 73
     7
 74
     0
 42
0.00000001
 43
0.00000001
 40
0.0
 40
0.0
 40
0.0
 40
0.0
 40
0.2779094875898259
 40
0.5531747409083295
 40
0.7729185235977282
 40
1.0
 40
1.0
 40
1.0
 40
1.0
 10
46.05787447989383
 20
53.83701851182399
 30
0.0
 10
46.05216521313282
 20
53.83701851182399
 30
0.0
 10
46.04080100175345
 20
53.83701851182398
 30
0.0
 10
46.01045471641272
 20
53.83701851182399
 30
0.0
 10
45.97720749259673
 20
53.83701851182398
 30
0.0
 10
45.95479218819698
 20
53.83701851182399
 30
0.0
 10
45.94340048570583
 20
53.83701851182399
 30
0.0
  0
SPLINE
  5
18F
330
1F
100
AcDbEntity
  8
0
  6
Continuous
 62
     7
370
    25
100
AcDbSpline
210
0.0
220
0.0
230
1.0
 70
    24
 71
     3
 72
    11
 73
     7
 74
     0
 42
0.00000001
 43
0.00000001
 40
0.0
 40
0.0
 40
0.0
 40
0.0
 40
0.2833162653283557
 40
0.5580485543459021
 40
0.7754339450991328
 40
1.0
 40
1.0
 40
1.0
 40
1.0
 10
45.94340048570583
 20
53.83701851182399
 30
0.0
 10
45.92548548485345
 20
53.83701851182401
 30
0.0
 10
45.89019827564507
 20
53.83701851182401
 30
0.0
 10
45.85105470573975
 20
53.83701851182398
 30
0.0
 10
45.8272256003288
 20
53.837018511824
 30
0.0
 10
45.82435843270563
 20
53.837018511824
 30
0.0
 10
45.82290155655283
 20
53.837018511824
 30
0.0
  0
SPLINE
  5
195
330
1F
100
AcDbEntity
  8
0
  6
Continuous
 62
     7
370
    25
100
AcDbSpline
210
0.0
220
0.0
230
1.0
 70
    24
 71
     3
 72
     9
 73
     5
 74
     0
 42
0.00000001
 43
0.00000001
 40
0.0
 40
0.0
 40
0.0
 40
0.0
 40
0.557617151566188
 40
1.0
 40
1.0
 40
1.0
 40
1.0
 10
45.59033863248082
 20
53.83701851182399
 30
0.0
 10
45.56710439452366
 20
53.83701851182399
 30
0.0
 10
45.52543738716583
 20
53.83701851182399
 30
0.0
 10
45.49441042239322
 20
53.83701851182399
 30
0.0
 10
45.48068462533883
 20
53.83701851182399
 30
0.0
  0
SPLINE
  5
197
330
1F
100
AcDbEntity
  8
0
  6
Continuous
 62
     7
370
    25
100
AcDbSpline
210
0.0
220
0.0
230
1.0
 70
    24
 71
     3
 72
    11
 73
     7
 74
     0
 42
0.00000001
 43
0.00000001
 40
0.0
 40
0.0
 40
0.0
 40
0.0
 40
0.2814469665518326
 40
0.5588395290562904
 40
0.7775188711708115
 40
1.0
 40
1.0
 40
1.0
 40
1.0
 10
45.69637768094183
 20
53.83701851182399
 30
0.0
 10
45.69568406983016
 20
53.83701851182399
 30
0.0
 10
45.69430683947039
 20
53.83701851182399
 30
0.0
 10
45.68504567416427
 20
53.83701851182398
 30
0.0
 10
45.67375371456381
 20
53.83701851182398
 30
0.0
 10
45.66556341409501
 20
53.837018511824
 30
0.0
 10
45.66143297310184
 20
53.83701851182399
 30
0.0
  0
SPLINE
  5
199
330
1F
100
AcDbEntity
  8
0
  6
Continuous
 62
     7
370
    25
100
AcDbSpline
210
0.0
220
0.0
230
1.0
 70
    24
 71
     3
 72
     9
 73
     5
 74
     0
 42
0.00000001
 43
0.00000001
 40
0.0
 40
0.0
 40
0.0
 40
0.0
 40
0.5608705499691337
 40
0.9999999999999999
 40
0.9999999999999999
 40
0.9999999999999999
 40
0.9999999999999999
 10
46.15427362321584
 20
53.83701851182399
 30
0.0
 10
46.13847659167821
 20
53.837018511824
 30
0.0
 10
46.11031139110114
 20
53.83701851182398
 30
0.0
 10
46.0738748417649
 20
53.83701851182398
 30
0.0
 10
46.05787447989383
 20
53.83701851182399
 30
0.0
  0
SPLINE
  5
19C
330
1F
100
AcDbEntity
  8
0
  6
Continuous
 62
     7
370
    25
100
AcDbSpline
210
0.0
220
0.0
230
1.0
 70
    24
 71
     3
 72
     9
 73
     5
 74
     0
 42
0.00000001
 43
0.00000001
 40
0.0
 40
0.0
 40
0.0
 40
0.0
 40
0.5601212740665387
 40
1.0
 40
1.0
 40
1.0
 40
1.0
 10
45.48068462533883
 20
53.83701851182399
 30
0.0
 10
45.46651253411736
 20
53.83701851182401
 30
0.0
 10
45.44121070774934
 20
53.837018511824
 30
0.0
 10
45.43766131480503
 20
53.837018511824
 30
0.0
 10
45.43610001235884
 20
53.837018511824
 30
0.0
  0
SPLINE
  5
19E
330
1F
100
AcDbEntity
  8
0
  6
Continuous
 62
     7
370
    25
100
AcDbSpline
210
0.0
220
0.0
230
1.0
 70
    24
 71
     3
 72
     9
 73
     5
 74
     0
 42
0.00000001
 43
0.00000001
 40
0.0
 40
0.0
 40
0.0
 40
0.0
 40
0.557939016497611
 40
0.9999999999999999
 40
0.9999999999999999
 40
0.9999999999999999
 40
0.9999999999999999
 10
46.20488317116184
 20
53.83701851182399
 30
0.0
 10
46.20192281912608
 20
53.83701851182398
 30
0.0
 10
46.19661694886387
 20
53.83701851182398
 30
0.0
 10
46.16725388715395
 20
53.83701851182398
 30
0.0
 10
46.15427362321584
 20
53.83701851182399
 30
0.0
  0
SPLINE
  5
1A0
330
1F
100
AcDbEntity
  8
0
  6
Continuous
 62
     7
370
    25
100
AcDbSpline
210
0.0
220
0.0
230
1.0
 70
    24
 71
     3
 72
    11
 73
     7
 74
     0
 42
0.00000001
 43
0.00000001
 40
0.0
 40
0.0
 40
0.0
 40
0.0
 40
0.2779094875898259
 40
0.5531747409083295
 40
0.7729185235977282
 40
1.0
 40
1.0
 40
1.0
 40
1.0
 10
46.02665299697101
 20
-23.77955908531999
 30
0.0
 10
46.02094373020999
 20
-23.77955908531999
 30
0.0
 10
46.00957951883063
 20
-23.77955908531999
 30
0.0
 10
45.9792332334899
 20
-23.77955908531999
 30
0.0
 10
45.9459860096739
 20
-23.77955908531999
 30
0.0
 10
45.92357070527414
 20
-23.77955908531999
 30
0.0
 10
45.91217900278299
 20
-23.77955908531999
 30
0.0
  0
SPLINE
  5
1A3
330
1F
100
AcDbEntity
  8
0
  6
Continuous
 62
     7
370
    25
100
AcDbSpline
210
0.0
220
0.0
230
1.0
 70
    24
 71
     3
 72
    11
 73
     7
 74
     0
 42
0.00000001
 43
0.00000001
 40
0.0
 40
0.0
 40
0.0
 40
0.0
 40
0.2833162653283557
 40
0.5580485543459021
 40
0.7754339450991328
 40
1.0
 40
1.0
 40
1.0
 40
1.0
 10
45.91217900278299
 20
-23.77955908531999
 30
0.0
 10
45.89426400193062
 20
-23.77955908532001
 30
0.0
 10
45.85897679272225
 20
-23.77955908532001
 30
0.0
 10
45.81983322281691
 20
-23.77955908531999
 30
0.0
 10
45.79600411740596
 20
-23.77955908532001
 30
0.0
 10
45.79313694978282
 20
-23.77955908532001
 30
0.0
 10
45.79168007363
 20
-23.77955908532001
 30
0.0
  0
SPLINE
  5
1A6
330
1F
100
AcDbEntity
  8
0
  6
Continuous
 62
     7
370
    25
100
AcDbSpline
210
0.0
220
0.0
230
1.0
 70
    24
 71
     3
 72
    11
 73
     7
 74
     0
 42
0.00000001
 43
0.00000001
 40
0.0
 40
0.0
 40
0.0
 40
0.0
 40
0.2814469665518326
 40
0.5588395290562904
 40
0.7775188711708115
 40
1.0
 40
1.0
 40
1.0
 40
1.0
 10
45.66515619801901
 20
-23.77955908531999
 30
0.0
 10
45.66446258690732
 20
-23.77955908532001
 30
0.0
 10
45.66308535654756
 20
-23.77955908531999
 30
0.0
 10
45.65382419124145
 20
-23.77955908531999
 30
0.0
 10
45.64253223164098
 20
-23.77955908531999
 30
0.0
 10
45.63434193117217
 20
-23.77955908531999
 30
0.0
 10
45.63021149017901
 20
-23.77955908531999
 30
0.0
  0
SPLINE
  5
1A9
330
1F
100
AcDbEntity
  8
0
  6
Continuous
 62
     7
370
    25
100
AcDbSpline
210
0.0
220
0.0
230
1.0
 70
    24
 71
     3
 72
     9
 73
     5
 74
     0
 42
0.00000001
 43
0.00000001
 40
0.0
 40
0.0
 40
0.0
 40
0.0
 40
0.557617151566188
 40
1.0
 40
1.0
 40
1.0
 40
1.0
 10
45.55911714955798
 20
-23.77955908531999
 30
0.0
 10
45.53588291160082
 20
-23.77955908531999
 30
0.0
 10
45.49421590424299
 20
-23.77955908531999
 30
0.0
 10
45.46318893947038
 20
-23.77955908531999
 30
0.0
 10
45.44946314241599
 20
-23.77955908531999
 30
0.0
  0
SPLINE
  5
1AC
330
1F
100
AcDbEntity
  8
0
  6
Continuous
 62
     7
370
    25
100
AcDbSpline
210
0.0
220
0.0
230
1.0
 70
    24
 71
     3
 72
     9
 73
     5
 74
     0
 42
0.00000001
 43
0.00000001
 40
0.0
 40
0.0
 40
0.0
 40
0.0
 40
0.5608705499690808
 40
1.0
 40
1.0
 40
1.0
 40
1.0
 10
46.123052140293
 20
-23.77955908531999
 30
0.0
 10
46.10725510875537
 20
-23.77955908531999
 30
0.0
 10
46.07908990817833
 20
-23.77955908531999
 30
0.0
 10
46.04265335884207
 20
-23.77955908532001
 30
0.0
 10
46.02665299697101
 20
-23.77955908532001
 30
0.0
  0
SPLINE
  5
1AF
330
1F
100
AcDbEntity
  8
0
  6
Continuous
 62
     7
370
    25
100
AcDbSpline
210
0.0
220
0.0
230
1.0
 70
    24
 71
     3
 72
     9
 73
     5
 74
     0
 42
0.00000001
 43
0.00000001
 40
0.0
 40
0.0
 40
0.0
 40
0.0
 40
0.5601212740665387
 40
1.0
 40
1.0
 40
1.0
 40
1.0
 10
45.44946314241599
 20
-23.77955908531999
 30
0.0
 10
45.43529105119454
 20
-23.77955908532001
 30
0.0
 10
45.40998922482653
 20
-23.77955908532001
 30
0.0
 10
45.4064398318822
 20
-23.77955908532001
 30
0.0
 10
45.404878529436
 20
-23.77955908532001
 30
0.0
  0
SPLINE
  5
1B1
330
1F
100
AcDbEntity
  8
0
  6
Continuous
 62
     7
370
    25
100
AcDbSpline
210
0.0
220
0.0
230
1.0
 70
    24
 71
     3
 72
     9
 73
     5
 74
     0
 42
0.00000001
 43
0.00000001
 40
0.0
 40
0.0
 40
0.0
 40
0.0
 40
0.557939016497611
 40
0.9999999999999999
 40
0.9999999999999999
 40
0.9999999999999999
 40
0.9999999999999999
 10
46.173661688239
 20
-23.77955908531999
 30
0.0
 10
46.17070133620324
 20
-23.77955908531999
 30
0.0
 10
46.16539546594103
 20
-23.77955908531999
 30
0.0
 10
46.13603240423112
 20
-23.77955908531999
 30
0.0
 10
46.123052140293
 20
-23.77955908531999
 30
0.0
  0
SPLINE
  5
1B3
330
1F
100
AcDbEntity
  8
0
  6
Continuous
 62
     7
370
    25
100
AcDbSpline
210
0.0
220
0.0
230
1.0
 70
    24
 71
     3
 72
    11
 73
     7
 74
     0
 42
0.00000001
 43
0.00000001
 40
0.0
 40
0.0
 40
0.0
 40
0.0
 40
0.2833162653283557
 40
0.5580485543459021
 40
0.7754339450991328
 40
1.0
 40
1.0
 40
1.0
 40
1.0
 10
45.95901122716725
 20
92.64530731039598
 30
0.0
 10
45.94109622631487
 20
92.64530731039598
 30
0.0
 10
45.90580901710651
 20
92.64530731039596
 30
0.0
 10
45.86666544720116
 20
92.64530731039596
 30
0.0
 10
45.8428363417902
 20
92.64530731039598
 30
0.0
 10
45.83996917416705
 20
92.64530731039598
 30
0.0
 10
45.83851229801425
 20
92.64530731039599
 30
0.0
  0
SPLINE
  5
1B6
330
1F
100
AcDbEntity
  8
0
  6
Continuous
 62
     7
370
    25
100
AcDbSpline
210
0.0
220
0.0
230
1.0
 70
    24
 71
     3
 72
    11
 73
     7
 74
     0
 42
0.00000001
 43
0.00000001
 40
0.0
 40
0.0
 40
0.0
 40
0.0
 40
0.2779094875898259
 40
0.5531747409083295
 40
0.7729185235977282
 40
1.0
 40
1.0
 40
1.0
 40
1.0
 10
46.07348522135525
 20
92.64530731039598
 30
0.0
 10
46.06777595459424
 20
92.64530731039598
 30
0.0
 10
46.05641174321487
 20
92.64530731039596
 30
0.0
 10
46.02606545787415
 20
92.64530731039598
 30
0.0
 10
45.99281823405816
 20
92.64530731039595
 30
0.0
 10
45.9704029296584
 20
92.64530731039598
 30
0.0
 10
45.95901122716725
 20
92.64530731039598
 30
0.0
  0
SPLINE
  5
1B9
330
1F
100
AcDbEntity
  8
0
  6
Continuous
 62
     7
370
    25
100
AcDbSpline
210
0.0
220
0.0
230
1.0
 70
    24
 71
     3
 72
     9
 73
     5
 74
     0
 42
0.00000001
 43
0.00000001
 40
0.0
 40
0.0
 40
0.0
 40
0.0
 40
0.557617151566188
 40
1.0
 40
1.0
 40
1.0
 40
1.0
 10
45.60594937394225
 20
92.64530731039598
 30
0.0
 10
45.58271513598508
 20
92.64530731039598
 30
0.0
 10
45.54104812862725
 20
92.64530731039596
 30
0.0
 10
45.51002116385462
 20
92.64530731039599
 30
0.0
 10
45.49629536680025
 20
92.64530731039598
 30
0.0
  0
SPLINE
  5
1BC
330
1F
100
AcDbEntity
  8
0
  6
Continuous
 62
     7
370
    25
100
AcDbSpline
210
0.0
220
0.0
230
1.0
 70
    24
 71
     3
 72
    11
 73
     7
 74
     0
 42
0.00000001
 43
0.00000001
 40
0.0
 40
0.0
 40
0.0
 40
0.0
 40
0.2814469665518326
 40
0.5588395290562904
 40
0.7775188711708115
 40
1.0
 40
1.0
 40
1.0
 40
1.0
 10
45.71198842240324
 20
92.64530731039598
 30
0.0
 10
45.71129481129157
 20
92.64530731039599
 30
0.0
 10
45.70991758093182
 20
92.64530731039598
 30
0.0
 10
45.70065641562568
 20
92.64530731039598
 30
0.0
 10
45.68936445602523
 20
92.64530731039598
 30
0.0
 10
45.68117415555643
 20
92.64530731039599
 30
0.0
 10
45.67704371456325
 20
92.64530731039598
 30
0.0
  0
SPLINE
  5
1BF
330
1F
100
AcDbEntity
  8
0
  6
Continuous
 62
     7
370
    25
100
AcDbSpline
210
0.0
220
0.0
230
1.0
 70
    24
 71
     3
 72
     9
 73
     5
 74
     0
 42
0.00000001
 43
0.00000001
 40
0.0
 40
0.0
 40
0.0
 40
0.0
 40
0.5608705499691337
 40
0.9999999999999999
 40
0.9999999999999999
 40
0.9999999999999999
 40
0.9999999999999999
 10
46.16988436467725
 20
92.64530731039598
 30
0.0
 10
46.15408733313961
 20
92.64530731039598
 30
0.0
 10
46.12592213256256
 20
92.64530731039595
 30
0.0
 10
46.08948558322631
 20
92.64530731039596
 30
0.0
 10
46.07348522135525
 20
92.64530731039598
 30
0.0
  0
SPLINE
  5
1C2
330
1F
100
AcDbEntity
  8
0
  6
Continuous
 62
     7
370
    25
100
AcDbSpline
210
0.0
220
0.0
230
1.0
 70
    24
 71
     3
 72
     9
 73
     5
 74
     0
 42
0.00000001
 43
0.00000001
 40
0.0
 40
0.0
 40
0.0
 40
0.0
 40
0.5601212740665387
 40
1.0
 40
1.0
 40
1.0
 40
1.0
 10
45.49629536680025
 20
92.64530731039598
 30
0.0
 10
45.48212327557879
 20
92.64530731039599
 30
0.0
 10
45.45682144921077
 20
92.64530731039599
 30
0.0
 10
45.45327205626644
 20
92.64530731039598
 30
0.0
 10
45.45171075382027
 20
92.64530731039599
 30
0.0
  0
SPLINE
  5
1C4
330
1F
100
AcDbEntity
  8
0
  6
Continuous
 62
     7
370
    25
100
AcDbSpline
210
0.0
220
0.0
230
1.0
 70
    24
 71
     3
 72
     9
 73
     5
 74
     0
 42
0.00000001
 43
0.00000001
 40
0.0
 40
0.0
 40
0.0
 40
0.0
 40
0.557939016497611
 40
0.9999999999999999
 40
0.9999999999999999
 40
0.9999999999999999
 40
0.9999999999999999
 10
46.22049391262325
 20
92.64530731039598
 30
0.0
 10
46.2175335605875
 20
92.64530731039598
 30
0.0
 10
46.21222769032529
 20
92.64530731039595
 30
0.0
 10
46.18286462861537
 20
92.64530731039596
 30
0.0
 10
46.16988436467725
 20
92.64530731039598
 30
0.0
  0
LINE
  5
2A5
330
1F
100
AcDbEntity
  8
0
  6
Continuous
 62
     7
370
    25
100
AcDbLine
 10
44.6007793613
 20
-33.4199318673
 30
0.0
 11
44.6007678243
 21
120.2997831179
 31
0.0
  0
LINE
  5
2A6
330
1F
100
AcDbEntity
  8
0
  6
Continuous
 62
     7
370
    25
100
AcDbLine
 10
-104.0476951282
 20
-38.4199430238
 30
0.0
 11
39.6007797366
 21
-38.4199322426
 31
0.0
  0
LINE
  5
2A7
330
1F
100
AcDbEntity
  8
0
  6
Continuous
 62
     7
370
    25
100
AcDbLine
 10
-109.0477070405
 20
120.2997715862
 30
0.0
 11
-109.0476955035
 21
-33.419943399
 31
0.0
  0
LINE
  5
2A8
330
1F
100
AcDbEntity
  8
0
  6
Continuous
 62
     7
370
    25
100
AcDbLine
 10
39.6007674491
 20
125.2997827426
 30
0.0
 11
-104.0477074158
 21
125.2997719615
 31
0.0
  0
LINE
  5
2A9
330
1F
100
AcDbEntity
  8
0
  6
Continuous
 62
     7
370
    25
100
AcDbLine
 10
52.1126864281
 20
120.23700254
 30
0.0
 11
52.1126864281
 21
103.2270571501
 31
0.0
  0
LINE
  5
2AA
330
1F
100
AcDbEntity
  8
0
  6
Continuous
 62
     7
370
    25
100
AcDbLine
 10
57.0826864281
 20
120.23700254
 30
0.0
 11
52.1126864281
 21
120.23700254
 31
0.0
  0
LINE
  5
2AB
330
1F
100
AcDbEntity
  8
0
  6
Continuous
 62
     7
370
    25
100
AcDbLine
 10
52.1126864281
 20
-19.2029428499
 30
0.0
 11
52.1126864281
 21
-33.3571526543
 31
0.0
  0
LINE
  5
2AC
330
1F
100
AcDbEntity
  8
0
  6
Continuous
 62
     7
370
    25
100
AcDbLine
 10
52.1126864281
 20
-13.2029428499
 30
0.0
 11
47.0786864281
 21
-13.2029428499
 31
0.0
  0
LINE
  5
2AD
330
1F
100
AcDbEntity
  8
0
  6
Continuous
 62
     7
370
    25
100
AcDbLine
 10
52.1126864281
 20
19.6070571501
 30
0.0
 11
52.1126864281
 21
-13.2029428499
 31
0.0
  0
LINE
  5
2AE
330
1F
100
AcDbEntity
  8
0
  6
Continuous
 62
     7
370
    25
100
AcDbLine
 10
47.0786864281
 20
19.6070571501
 30
0.0
 11
52.1126864281
 21
19.6070571501
 31
0.0
  0
LINE
  5
2AF
330
1F
100
AcDbEntity
  8
0
  6
Continuous
 62
     7
370
    25
100
AcDbLine
 10
47.0786864281
 20
97.2270571501
 30
0.0
 11
52.1126864281
 21
97.2270571501
 31
0.0
  0
LINE
  5
2B0
330
1F
100
AcDbEntity
  8
0
  6
Continuous
 62
     7
370
    25
100
AcDbLine
 10
52.1126864281
 20
97.2270571501
 30
0.0
 11
52.1126864281
 21
64.4170571501
 31
0.0
  0
LINE
  5
2B1
330
1F
100
AcDbEntity
  8
0
  6
Continuous
 62
     7
370
    25
100
AcDbLine
 10
47.0786864281
 20
25.6070571501
 30
0.0
 11
47.0786864281
 21
19.6070571501
 31
0.0
  0
LINE
  5
2B2
330
1F
100
AcDbEntity
  8
0
  6
Continuous
 62
     7
370
    25
100
AcDbLine
 10
47.0786864281
 20
-13.2029428499
 30
0.0
 11
47.0786864281
 21
-19.2029428499
 31
0.0
  0
LINE
  5
2B3
330
1F
100
AcDbEntity
  8
0
  6
Continuous
 62
     7
370
    25
100
AcDbLine
 10
47.0786864281
 20
-19.2029428499
 30
0.0
 11
52.1126864281
 21
-19.2029428499
 31
0.0
  0
LINE
  5
2B4
330
1F
100
AcDbEntity
  8
0
  6
Continuous
 62
     7
370
    25
100
AcDbLine
 10
57.0826864281
 20
-33.3571526543
 30
0.0
 11
57.0826864281
 21
120.23700254
 31
0.0
  0
LINE
  5
2B5
330
1F
100
AcDbEntity
  8
0
  6
Continuous
 62
     7
370
    25
100
AcDbLine
 10
52.1126864281
 20
-33.3571526543
 30
0.0
 11
57.0826864281
 21
-33.3571526543
 31
0.0
  0
LINE
  5
2B6
330
1F
100
AcDbEntity
  8
0
  6
Continuous
 62
     7
370
    25
100
AcDbLine
 10
52.1126864281
 20
103.2270571501
 30
0.0
 11
47.0786864281
 21
103.2270571501
 31
0.0
  0
LINE
  5
2B7
330
1F
100
AcDbEntity
  8
0
  6
Continuous
 62
     7
370
    25
100
AcDbLine
 10
47.0786864281
 20
58.4170571501
 30
0.0
 11
52.1126864281
 21
58.4170571501
 31
0.0
  0
LINE
  5
2B8
330
1F
100
AcDbEntity
  8
0
  6
Continuous
 62
     7
370
    25
100
AcDbLine
 10
47.0786864281
 20
64.4170571501
 30
0.0
 11
47.0786864281
 21
58.4170571501
 31
0.0
  0
LINE
  5
2B9
330
1F
100
AcDbEntity
  8
0
  6
Continuous
 62
     7
370
    25
100
AcDbLine
 10
52.1126864281
 20
64.4170571501
 30
0.0
 11
47.0786864281
 21
64.4170571501
 31
0.0
  0
LINE
  5
2BA
330
1F
100
AcDbEntity
  8
0
  6
Continuous
 62
     7
370
    25
100
AcDbLine
 10
52.1126864281
 20
25.6070571501
 30
0.0
 11
47.0786864281
 21
25.6070571501
 31
0.0
  0
LINE
  5
2BB
330
1F
100
AcDbEntity
  8
0
  6
Continuous
 62
     7
370
    25
100
AcDbLine
 10
47.0786864281
 20
92.7022781305
 30
0.0
 11
47.0786864281
 21
107.7518361697
 31
0.0
  0
LINE
  5
2BC
330
1F
100
AcDbEntity
  8
0
  6
Continuous
 62
     7
370
    25
100
AcDbLine
 10
52.1126864281
 20
58.4170571501
 30
0.0
 11
52.1126864281
 21
25.6070571501
 31
0.0
  0
LINE
  5
2BD
330
1F
100
AcDbEntity
  8
0
  6
Continuous
 62
     7
370
    25
100
AcDbLine
 10
-114.7049916253
 20
25.6070571501
 30
0.0
 11
-114.7049916253
 21
58.4170571501
 31
0.0
  0
LINE
  5
2BE
330
1F
100
AcDbEntity
  8
0
  6
Continuous
 62
     7
370
    25
100
AcDbLine
 10
-109.6709916253
 20
25.6070571501
 30
0.0
 11
-114.7049916253
 21
25.6070571501
 31
0.0
  0
LINE
  5
2BF
330
1F
100
AcDbEntity
  8
0
  6
Continuous
 62
     7
370
    25
100
AcDbLine
 10
-109.6709916253
 20
19.6070571501
 30
0.0
 11
-109.6709916253
 21
25.6070571501
 31
0.0
  0
LINE
  5
2C0
330
1F
100
AcDbEntity
  8
0
  6
Continuous
 62
     7
370
    25
100
AcDbLine
 10
-114.7049916253
 20
19.6070571501
 30
0.0
 11
-109.6709916253
 21
19.6070571501
 31
0.0
  0
LINE
  5
2C1
330
1F
100
AcDbEntity
  8
0
  6
Continuous
 62
     7
370
    25
100
AcDbLine
 10
-114.7049916253
 20
-13.2029428499
 30
0.0
 11
-114.7049916253
 21
19.6070571501
 31
0.0
  0
LINE
  5
2C2
330
1F
100
AcDbEntity
  8
0
  6
Continuous
 62
     7
370
    25
100
AcDbLine
 10
-109.6709916253
 20
-13.2029428499
 30
0.0
 11
-114.7049916253
 21
-13.2029428499
 31
0.0
  0
LINE
  5
2C3
330
1F
100
AcDbEntity
  8
0
  6
Continuous
 62
     7
370
    25
100
AcDbLine
 10
-109.6709916253
 20
-19.2029428499
 30
0.0
 11
-109.6709916253
 21
-13.2029428499
 31
0.0
  0
LINE
  5
2C4
330
1F
100
AcDbEntity
  8
0
  6
Continuous
 62
     7
370
    25
100
AcDbLine
 10
-114.7049916253
 20
-19.2029428499
 30
0.0
 11
-109.6709916253
 21
-19.2029428499
 31
0.0
  0
LINE
  5
2C5
330
1F
100
AcDbEntity
  8
0
  6
Continuous
 62
     7
370
    25
100
AcDbLine
 10
-114.7049916253
 20
-33.3571526543
 30
0.0
 11
-114.7049916253
 21
-19.2029428499
 31
0.0
  0
LINE
  5
2C6
330
1F
100
AcDbEntity
  8
0
  6
Continuous
 62
     7
370
    25
100
AcDbLine
 10
-119.6749916253
 20
-33.3571526543
 30
0.0
 11
-114.7049916253
 21
-33.3571526543
 31
0.0
  0
LINE
  5
2C7
330
1F
100
AcDbEntity
  8
0
  6
Continuous
 62
     7
370
    25
100
AcDbLine
 10
-119.6749916253
 20
120.23700254
 30
0.0
 11
-119.6749916253
 21
-33.3571526543
 31
0.0
  0
LINE
  5
2C8
330
1F
100
AcDbEntity
  8
0
  6
Continuous
 62
     7
370
    25
100
AcDbLine
 10
-114.7049916253
 20
120.23700254
 30
0.0
 11
-119.6749916253
 21
120.23700254
 31
0.0
  0
LINE
  5
2C9
330
1F
100
AcDbEntity
  8
0
  6
Continuous
 62
     7
370
    25
100
AcDbLine
 10
-114.7049916253
 20
103.2270571501
 30
0.0
 11
-114.7049916253
 21
120.23700254
 31
0.0
  0
LINE
  5
2CA
330
1F
100
AcDbEntity
  8
0
  6
Continuous
 62
     7
370
    25
100
AcDbLine
 10
-109.6709916253
 20
103.2270571501
 30
0.0
 11
-114.7049916253
 21
103.2270571501
 31
0.0
  0
LINE
  5
2CB
330
1F
100
AcDbEntity
  8
0
  6
Continuous
 62
     7
370
    25
100
AcDbLine
 10
-109.6709916253
 20
97.2270571501
 30
0.0
 11
-109.6709916253
 21
103.2270571501
 31
0.0
  0
LINE
  5
2CC
330
1F
100
AcDbEntity
  8
0
  6
Continuous
 62
     7
370
    25
100
AcDbLine
 10
-114.7049916253
 20
97.2270571501
 30
0.0
 11
-109.6709916253
 21
97.2270571501
 31
0.0
  0
LINE
  5
2CD
330
1F
100
AcDbEntity
  8
0
  6
Continuous
 62
     7
370
    25
100
AcDbLine
 10
-114.7049916253
 20
64.4170571501
 30
0.0
 11
-114.7049916253
 21
97.2270571501
 31
0.0
  0
LINE
  5
2CE
330
1F
100
AcDbEntity
  8
0
  6
Continuous
 62
     7
370
    25
100
AcDbLine
 10
-109.6709916253
 20
64.4170571501
 30
0.0
 11
-114.7049916253
 21
64.4170571501
 31
0.0
  0
LINE
  5
2CF
330
1F
100
AcDbEntity
  8
0
  6
Continuous
 62
     7
370
    25
100
AcDbLine
 10
-109.6709916253
 20
58.4170571501
 30
0.0
 11
-109.6709916253
 21
64.4170571501
 31
0.0
  0
LINE
  5
2D0
330
1F
100
AcDbEntity
  8
0
  6
Continuous
 62
     7
370
    25
100
AcDbLine
 10
-114.7049916253
 20
58.4170571501
 30
0.0
 11
-109.6709916253
 21
58.4170571501
 31
0.0
  0
LINE
  5
2D1
330
1F
100
AcDbEntity
  8
0
  6
Continuous
 62
     7
370
    25
100
AcDbLine
 10
44.6007698956
 20
92.7022781305
 30
0.0
 11
47.0786864281
 21
92.7022781305
 31
0.0
  0
LINE
  5
2D2
330
1F
100
AcDbEntity
  8
0
  6
Continuous
 62
     7
370
    25
100
AcDbLine
 10
47.0786864281
 20
107.7518361697
 30
0.0
 11
44.6007687661
 21
107.7518361697
 31
0.0
  0
LINE
  5
2D3
330
1F
100
AcDbEntity
  8
0
  6
Continuous
 62
     7
370
    25
100
AcDbLine
 10
47.0474649452
 20
30.1352585725
 30
0.0
 11
44.6007745914
 21
30.1352585725
 31
0.0
  0
LINE
  5
2D4
330
1F
100
AcDbEntity
  8
0
  6
Continuous
 62
     7
370
    25
100
AcDbLine
 10
47.0474649452
 20
15.0857005334
 30
0.0
 11
47.0474649452
 21
30.1352585725
 31
0.0
  0
LINE
  5
2D5
330
1F
100
AcDbEntity
  8
0
  6
Continuous
 62
     7
370
    25
100
AcDbLine
 10
44.6007757209
 20
15.0857005334
 30
0.0
 11
47.0474649452
 21
15.0857005334
 31
0.0
  0
LINE
  5
2D6
330
1F
100
AcDbEntity
  8
0
  6
Continuous
 62
     7
370
    25
100
AcDbLine
 10
47.0630756866
 20
68.9435473711
 30
0.0
 11
44.6007716787
 21
68.9435473711
 31
0.0
  0
LINE
  5
2D7
330
1F
100
AcDbEntity
  8
0
  6
Continuous
 62
     7
370
    25
100
AcDbLine
 10
47.0630756866
 20
53.893989332
 30
0.0
 11
47.0630756866
 21
68.9435473711
 31
0.0
  0
LINE
  5
2D8
330
1F
100
AcDbEntity
  8
0
  6
Continuous
 62
     7
370
    25
100
AcDbLine
 10
44.6007728082
 20
53.893989332
 30
0.0
 11
47.0630756866
 21
53.893989332
 31
0.0
  0
LINE
  5
2D9
330
1F
100
AcDbEntity
  8
0
  6
Continuous
 62
     7
370
    25
100
AcDbLine
 10
-109.7010664457
 20
17.9363025146
 30
0.0
 11
-109.0476993579
 21
17.9363025146
 31
0.0
  0
LINE
  5
2DA
330
1F
100
AcDbEntity
  8
0
  6
Continuous
 62
     7
370
    25
100
AcDbLine
 10
-109.7010664457
 20
32.9858605537
 30
0.0
 11
-109.7010664457
 21
17.9363025146
 31
0.0
  0
LINE
  5
2DB
330
1F
100
AcDbEntity
  8
0
  6
Continuous
 62
     7
370
    25
100
AcDbLine
 10
-109.0477004874
 20
32.9858605537
 30
0.0
 11
-109.7010664457
 21
32.9858605537
 31
0.0
  0
LINE
  5
2DC
330
1F
100
AcDbEntity
  8
0
  6
Continuous
 62
     7
370
    25
100
AcDbLine
 10
-109.7166771871
 20
-20.871986284
 30
0.0
 11
-109.0476964452
 21
-20.871986284
 31
0.0
  0
LINE
  5
2DD
330
1F
100
AcDbEntity
  8
0
  6
Continuous
 62
     7
370
    25
100
AcDbLine
 10
-109.0476975747
 20
-5.8224282449
 30
0.0
 11
-109.7166771871
 21
-5.8224282449
 31
0.0
  0
LINE
  5
2DE
330
1F
100
AcDbEntity
  8
0
  6
Continuous
 62
     7
370
    25
100
AcDbLine
 10
-109.7166771871
 20
-5.8224282449
 30
0.0
 11
-109.7166771871
 21
-20.871986284
 31
0.0
  0
LINE
  5
2DF
330
1F
100
AcDbEntity
  8
0
  6
Continuous
 62
     7
370
    25
100
AcDbLine
 10
-109.6698449627
 20
95.5528801117
 30
0.0
 11
-109.0477051832
 21
95.5528801117
 31
0.0
  0
LINE
  5
2E0
330
1F
100
AcDbEntity
  8
0
  6
Continuous
 62
     7
370
    25
100
AcDbLine
 10
-109.6698449627
 20
110.6024381509
 30
0.0
 11
-109.6698449627
 21
95.5528801117
 31
0.0
  0
LINE
  5
2E1
330
1F
100
AcDbEntity
  8
0
  6
Continuous
 62
     7
370
    25
100
AcDbLine
 10
-109.0477063127
 20
110.6024381509
 30
0.0
 11
-109.6698449627
 21
110.6024381509
 31
0.0
  0
LINE
  5
2E2
330
1F
100
AcDbEntity
  8
0
  6
Continuous
 62
     7
370
    25
100
AcDbLine
 10
47.0318542037
 20
-23.7225882652
 30
0.0
 11
47.0318542037
 21
-8.6730302261
 31
0.0
  0
LINE
  5
2E3
330
1F
100
AcDbEntity
  8
0
  6
Continuous
 62
     7
370
    25
100
AcDbLine
 10
47.0318542037
 20
-8.6730302261
 30
0.0
 11
44.600777504
 21
-8.6730302261
 31
0.0
  0
LINE
  5
2E4
330
1F
100
AcDbEntity
  8
0
  6
Continuous
 62
     7
370
    25
100
AcDbLine
 10
44.6007786335
 20
-23.7225882652
 30
0.0
 11
47.0318542037
 21
-23.7225882652
 31
0.0
  0
LINE
  5
2E5
330
1F
100
AcDbEntity
  8
0
  6
Continuous
 62
     7
370
    25
100
AcDbLine
 10
-109.6854557042
 20
56.7445913132
 30
0.0
 11
-109.0477022705
 21
56.7445913132
 31
0.0
  0
LINE
  5
2E6
330
1F
100
AcDbEntity
  8
0
  6
Continuous
 62
     7
370
    25
100
AcDbLine
 10
-109.6854557042
 20
71.7941493523
 30
0.0
 11
-109.6854557042
 21
56.7445913132
 31
0.0
  0
LINE
  5
2E7
330
1F
100
AcDbEntity
  8
0
  6
Continuous
 62
     7
370
    25
100
AcDbLine
 10
-109.0477034
 20
71.7941493523
 30
0.0
 11
-109.6854557042
 21
71.7941493523
 31
0.0
  0
LINE
  5
2E8
330
1F
100
AcDbEntity
  8
0
  6
Continuous
 62
     7
370
    25
100
AcDbLine
 10
44.8123239516
 20
15.0287297133
 30
0.0
 11
44.642540151
 21
15.0287297133
 31
0.0
  0
LINE
  5
2E9
330
1F
100
AcDbEntity
  8
0
  6
Continuous
 62
     7
370
    25
100
AcDbLine
 10
44.713546951
 20
15.0287297133
 30
0.0
 11
44.713546951
 21
15.0387297131
 31
0.0
  0
LINE
  5
2EA
330
1F
100
AcDbEntity
  8
0
  6
Continuous
 62
     7
370
    25
100
AcDbLine
 10
44.6979362096
 20
-23.7795590853
 30
0.0
 11
44.6979362096
 21
-23.7695590855
 31
0.0
  0
LINE
  5
2EB
330
1F
100
AcDbEntity
  8
0
  6
Continuous
 62
     7
370
    25
100
AcDbLine
 10
44.7291576925
 20
53.8370185118
 30
0.0
 11
44.7291576925
 21
53.8470185117
 31
0.0
  0
LINE
  5
2EC
330
1F
100
AcDbEntity
  8
0
  6
Continuous
 62
     7
370
    25
100
AcDbLine
 10
44.8279346931
 20
53.8370185118
 30
0.0
 11
44.6581508925
 21
53.8370185118
 31
0.0
  0
LINE
  5
2ED
330
1F
100
AcDbEntity
  8
0
  6
Continuous
 62
     7
370
    25
100
AcDbLine
 10
44.7447684339
 20
92.6453073104
 30
0.0
 11
44.7447684339
 21
92.6553073103
 31
0.0
  0
LINE
  5
2EE
330
1F
100
AcDbEntity
  8
0
  6
Continuous
 62
     7
370
    25
100
AcDbLine
 10
44.8435454346
 20
92.6453073104
 30
0.0
 11
44.6737616339
 21
92.6453073104
 31
0.0
  0
LINE
  5
2EF
330
1F
100
AcDbEntity
  8
0
  6
Continuous
 62
     7
370
    25
100
AcDbLine
 10
45.2816879976
 20
15.0287297133
 30
0.0
 11
45.2816879976
 21
15.0387297131
 31
0.0
  0
LINE
  5
2F0
330
1F
100
AcDbEntity
  8
0
  6
Continuous
 62
     7
370
    25
100
AcDbLine
 10
45.2816879976
 20
15.0287297133
 30
0.0
 11
45.1905358883
 21
15.0287297133
 31
0.0
  0
LINE
  5
2F1
330
1F
100
AcDbEntity
  8
0
  6
Continuous
 62
     7
370
    25
100
AcDbLine
 10
45.1905358883
 20
15.0287297133
 30
0.0
 11
45.1905358883
 21
15.0387297131
 31
0.0
  0
LINE
  5
2F2
330
1F
100
AcDbEntity
  8
0
  6
Continuous
 62
     7
370
    25
100
AcDbLine
 10
45.3129094806
 20
92.6453073104
 30
0.0
 11
45.3129094806
 21
92.6553073103
 31
0.0
  0
LINE
  5
2F3
330
1F
100
AcDbEntity
  8
0
  6
Continuous
 62
     7
370
    25
100
AcDbLine
 10
45.3129094806
 20
92.6453073104
 30
0.0
 11
45.2217573712
 21
92.6453073104
 31
0.0
  0
LINE
  5
2F4
330
1F
100
AcDbEntity
  8
0
  6
Continuous
 62
     7
370
    25
100
AcDbLine
 10
45.2217573712
 20
92.6453073104
 30
0.0
 11
45.2217573712
 21
92.6553073103
 31
0.0
  0
LINE
  5
2F5
330
1F
100
AcDbEntity
  8
0
  6
Continuous
 62
     7
370
    25
100
AcDbLine
 10
45.2660772562
 20
-23.7795590853
 30
0.0
 11
45.1749251468
 21
-23.7795590853
 31
0.0
  0
LINE
  5
2F6
330
1F
100
AcDbEntity
  8
0
  6
Continuous
 62
     7
370
    25
100
AcDbLine
 10
45.1749251468
 20
-23.7795590853
 30
0.0
 11
45.1749251468
 21
-23.7695590855
 31
0.0
  0
LINE
  5
2F7
330
1F
100
AcDbEntity
  8
0
  6
Continuous
 62
     7
370
    25
100
AcDbLine
 10
45.2660772562
 20
-23.7795590853
 30
0.0
 11
45.2660772562
 21
-23.7695590855
 31
0.0
  0
LINE
  5
2F8
330
1F
100
AcDbEntity
  8
0
  6
Continuous
 62
     7
370
    25
100
AcDbLine
 10
45.2972987391
 20
53.8370185118
 30
0.0
 11
45.2972987391
 21
53.8470185117
 31
0.0
  0
LINE
  5
2F9
330
1F
100
AcDbEntity
  8
0
  6
Continuous
 62
     7
370
    25
100
AcDbLine
 10
45.2061466297
 20
53.8370185118
 30
0.0
 11
45.2061466297
 21
53.8470185117
 31
0.0
  0
LINE
  5
2FA
330
1F
100
AcDbEntity
  8
0
  6
Continuous
 62
     7
370
    25
100
AcDbLine
 10
45.2972987391
 20
53.8370185118
 30
0.0
 11
45.2061466297
 21
53.8370185118
 31
0.0
  0
LINE
  5
2FB
330
1F
100
AcDbEntity
  8
0
  6
Continuous
 62
     7
370
    25
100
AcDbLine
 10
44.8435454346
 20
92.6453073104
 30
0.0
 11
44.8435454346
 21
92.6553073103
 31
0.0
  0
LINE
  5
2FC
330
1F
100
AcDbEntity
  8
0
  6
Continuous
 62
     7
370
    25
100
AcDbLine
 10
44.7523933252
 20
92.6453073104
 30
0.0
 11
44.7523933252
 21
92.6553073103
 31
0.0
  0
LINE
  5
2FD
330
1F
100
AcDbEntity
  8
0
  6
Continuous
 62
     7
370
    25
100
AcDbLine
 10
44.8123239516
 20
15.0287297133
 30
0.0
 11
44.8123239516
 21
15.0387297131
 31
0.0
  0
LINE
  5
2FE
330
1F
100
AcDbEntity
  8
0
  6
Continuous
 62
     7
370
    25
100
AcDbLine
 10
44.7211718423
 20
15.0287297133
 30
0.0
 11
44.7211718423
 21
15.0387297131
 31
0.0
  0
LINE
  5
2FF
330
1F
100
AcDbEntity
  8
0
  6
Continuous
 62
     7
370
    25
100
AcDbLine
 10
44.8279346931
 20
53.8370185118
 30
0.0
 11
44.8279346931
 21
53.8470185117
 31
0.0
  0
LINE
  5
300
330
1F
100
AcDbEntity
  8
0
  6
Continuous
 62
     7
370
    25
100
AcDbLine
 10
44.7367825838
 20
53.8370185118
 30
0.0
 11
44.7367825838
 21
53.8470185117
 31
0.0
  0
LINE
  5
301
330
1F
100
AcDbEntity
  8
0
  6
Continuous
 62
     7
370
    25
100
AcDbLine
 10
44.7967132102
 20
-23.7795590853
 30
0.0
 11
44.7967132102
 21
-23.7695590855
 31
0.0
  0
LINE
  5
302
330
1F
100
AcDbEntity
  8
0
  6
Continuous
 62
     7
370
    25
100
AcDbLine
 10
44.7055611008
 20
-23.7795590853
 30
0.0
 11
44.7055611008
 21
-23.7695590855
 31
0.0
  0
LINE
  5
303
330
1F
100
AcDbEntity
  8
0
  6
Continuous
 62
     7
370
    25
100
AcDbLine
 10
45.1318328901
 20
15.0287297133
 30
0.0
 11
45.1318328901
 21
15.0387297131
 31
0.0
  0
LINE
  5
304
330
1F
100
AcDbEntity
  8
0
  6
Continuous
 62
     7
370
    25
100
AcDbLine
 10
45.0947481916
 20
15.0287297133
 30
0.0
 11
45.0947481916
 21
15.0387297131
 31
0.0
  0
LINE
  5
305
330
1F
100
AcDbEntity
  8
0
  6
Continuous
 62
     7
370
    25
100
AcDbLine
 10
45.1598197069
 20
15.0287297133
 30
0.0
 11
45.1598197069
 21
15.0387297131
 31
0.0
  0
LINE
  5
306
330
1F
100
AcDbEntity
  8
0
  6
Continuous
 62
     7
370
    25
100
AcDbLine
 10
45.0941849894
 20
15.0287297133
 30
0.0
 11
45.0941849894
 21
15.0387297131
 31
0.0
  0
LINE
  5
307
330
1F
100
AcDbEntity
  8
0
  6
Continuous
 62
     7
370
    25
100
AcDbLine
 10
45.0729565989
 20
15.0287297133
 30
0.0
 11
45.0729565989
 21
15.0387297131
 31
0.0
  0
LINE
  5
308
330
1F
100
AcDbEntity
  8
0
  6
Continuous
 62
     7
370
    25
100
AcDbLine
 10
45.0947481916
 20
15.0287297133
 30
0.0
 11
45.0729565989
 21
15.0287297133
 31
0.0
  0
LINE
  5
309
330
1F
100
AcDbEntity
  8
0
  6
Continuous
 62
     7
370
    25
100
AcDbLine
 10
45.170217286
 20
15.0287297133
 30
0.0
 11
45.170217286
 21
15.0387297131
 31
0.0
  0
LINE
  5
30A
330
1F
100
AcDbEntity
  8
0
  6
Continuous
 62
     7
370
    25
100
AcDbLine
 10
45.1442089655
 20
-23.7795590853
 30
0.0
 11
45.1442089655
 21
-23.7695590855
 31
0.0
  0
LINE
  5
30B
330
1F
100
AcDbEntity
  8
0
  6
Continuous
 62
     7
370
    25
100
AcDbLine
 10
45.1162221486
 20
-23.7795590853
 30
0.0
 11
45.1162221486
 21
-23.7695590855
 31
0.0
  0
LINE
  5
30C
330
1F
100
AcDbEntity
  8
0
  6
Continuous
 62
     7
370
    25
100
AcDbLine
 10
45.0791374502
 20
-23.7795590853
 30
0.0
 11
45.0791374502
 21
-23.7695590855
 31
0.0
  0
LINE
  5
30D
330
1F
100
AcDbEntity
  8
0
  6
Continuous
 62
     7
370
    25
100
AcDbLine
 10
45.078574248
 20
-23.7795590853
 30
0.0
 11
45.078574248
 21
-23.7695590855
 31
0.0
  0
LINE
  5
30E
330
1F
100
AcDbEntity
  8
0
  6
Continuous
 62
     7
370
    25
100
AcDbLine
 10
45.0573458575
 20
-23.7795590853
 30
0.0
 11
45.0573458575
 21
-23.7695590855
 31
0.0
  0
LINE
  5
30F
330
1F
100
AcDbEntity
  8
0
  6
Continuous
 62
     7
370
    25
100
AcDbLine
 10
45.0791374502
 20
-23.7795590853
 30
0.0
 11
45.0573458575
 21
-23.7795590853
 31
0.0
  0
LINE
  5
310
330
1F
100
AcDbEntity
  8
0
  6
Continuous
 62
     7
370
    25
100
AcDbLine
 10
45.1546065445
 20
-23.7795590853
 30
0.0
 11
45.1546065445
 21
-23.7695590855
 31
0.0
  0
LINE
  5
311
330
1F
100
AcDbEntity
  8
0
  6
Continuous
 62
     7
370
    25
100
AcDbLine
 10
45.1474436316
 20
53.8370185118
 30
0.0
 11
45.1474436316
 21
53.8470185117
 31
0.0
  0
LINE
  5
312
330
1F
100
AcDbEntity
  8
0
  6
Continuous
 62
     7
370
    25
100
AcDbLine
 10
45.1103589331
 20
53.8370185118
 30
0.0
 11
45.1103589331
 21
53.8470185117
 31
0.0
  0
LINE
  5
313
330
1F
100
AcDbEntity
  8
0
  6
Continuous
 62
     7
370
    25
100
AcDbLine
 10
45.1754304484
 20
53.8370185118
 30
0.0
 11
45.1754304484
 21
53.8470185117
 31
0.0
  0
LINE
  5
314
330
1F
100
AcDbEntity
  8
0
  6
Continuous
 62
     7
370
    25
100
AcDbLine
 10
45.1097957309
 20
53.8370185118
 30
0.0
 11
45.1097957309
 21
53.8470185117
 31
0.0
  0
LINE
  5
315
330
1F
100
AcDbEntity
  8
0
  6
Continuous
 62
     7
370
    25
100
AcDbLine
 10
45.0885673404
 20
53.8370185118
 30
0.0
 11
45.0885673404
 21
53.8470185117
 31
0.0
  0
LINE
  5
316
330
1F
100
AcDbEntity
  8
0
  6
Continuous
 62
     7
370
    25
100
AcDbLine
 10
45.1103589331
 20
53.8370185118
 30
0.0
 11
45.0885673404
 21
53.8370185118
 31
0.0
  0
LINE
  5
317
330
1F
100
AcDbEntity
  8
0
  6
Continuous
 62
     7
370
    25
100
AcDbLine
 10
45.1858280274
 20
53.8370185118
 30
0.0
 11
45.1858280274
 21
53.8470185117
 31
0.0
  0
LINE
  5
318
330
1F
100
AcDbEntity
  8
0
  6
Continuous
 62
     7
370
    25
100
AcDbLine
 10
45.163054373
 20
92.6453073104
 30
0.0
 11
45.163054373
 21
92.6553073103
 31
0.0
  0
LINE
  5
319
330
1F
100
AcDbEntity
  8
0
  6
Continuous
 62
     7
370
    25
100
AcDbLine
 10
45.1259696745
 20
92.6453073104
 30
0.0
 11
45.1259696745
 21
92.6553073103
 31
0.0
  0
LINE
  5
31A
330
1F
100
AcDbEntity
  8
0
  6
Continuous
 62
     7
370
    25
100
AcDbLine
 10
45.1910411899
 20
92.6453073104
 30
0.0
 11
45.1910411899
 21
92.6553073103
 31
0.0
  0
LINE
  5
31B
330
1F
100
AcDbEntity
  8
0
  6
Continuous
 62
     7
370
    25
100
AcDbLine
 10
45.1041780819
 20
92.6453073104
 30
0.0
 11
45.1041780819
 21
92.6553073103
 31
0.0
  0
LINE
  5
31C
330
1F
100
AcDbEntity
  8
0
  6
Continuous
 62
     7
370
    25
100
AcDbLine
 10
45.1254064723
 20
92.6453073104
 30
0.0
 11
45.1254064723
 21
92.6553073103
 31
0.0
  0
LINE
  5
31D
330
1F
100
AcDbEntity
  8
0
  6
Continuous
 62
     7
370
    25
100
AcDbLine
 10
45.1259696745
 20
92.6453073104
 30
0.0
 11
45.1041780819
 21
92.6453073104
 31
0.0
  0
LINE
  5
31E
330
1F
100
AcDbEntity
  8
0
  6
Continuous
 62
     7
370
    25
100
AcDbLine
 10
45.2014387689
 20
92.6453073104
 30
0.0
 11
45.2014387689
 21
92.6553073103
 31
0.0
  0
LINE
  5
31F
330
1F
100
AcDbEntity
  8
0
  6
Continuous
 62
     7
370
    25
100
AcDbLine
 10
44.8461405419
 20
53.8370185118
 30
0.0
 11
44.8326035182
 21
53.8370185118
 31
0.0
  0
LINE
  5
320
330
1F
100
AcDbEntity
  8
0
  6
Continuous
 62
     7
370
    25
100
AcDbLine
 10
44.814919059
 20
-23.7795590853
 30
0.0
 11
44.8013820352
 21
-23.7795590853
 31
0.0
  0
LINE
  5
321
330
1F
100
AcDbEntity
  8
0
  6
Continuous
 62
     7
370
    25
100
AcDbLine
 10
44.8305298004
 20
15.0287297133
 30
0.0
 11
44.8169927767
 21
15.0287297133
 31
0.0
  0
LINE
  5
322
330
1F
100
AcDbEntity
  8
0
  6
Continuous
 62
     7
370
    25
100
AcDbLine
 10
44.8617512833
 20
92.6453073104
 30
0.0
 11
44.8482142596
 21
92.6453073104
 31
0.0
  0
LINE
  5
323
330
1F
100
AcDbEntity
  8
0
  6
Continuous
 62
     7
370
    25
100
AcDbLine
 10
44.6269294095
 20
-23.7795590853
 30
0.0
 11
44.6269294095
 21
-23.7695590855
 31
0.0
  0
LINE
  5
324
330
1F
100
AcDbEntity
  8
0
  6
Continuous
 62
     7
370
    25
100
AcDbLine
 10
44.7967132102
 20
-23.7795590853
 30
0.0
 11
44.6007786378
 21
-23.7795590853
 31
0.0
  0
LINE
  5
325
330
1F
100
AcDbEntity
  8
0
  6
Continuous
 62
     7
370
    25
100
AcDbLine
 10
44.6735452221
 20
-23.7795590853
 30
0.0
 11
44.6735452221
 21
-23.7695590855
 31
0.0
  0
LINE
  5
326
330
1F
100
AcDbEntity
  8
0
  6
Continuous
 62
     7
370
    25
100
AcDbLine
 10
44.6581508925
 20
53.8370185118
 30
0.0
 11
44.6581508925
 21
53.8470185117
 31
0.0
  0
LINE
  5
327
330
1F
100
AcDbEntity
  8
0
  6
Continuous
 62
     7
370
    25
100
AcDbLine
 10
44.704766705
 20
53.8370185118
 30
0.0
 11
44.704766705
 21
53.8470185117
 31
0.0
  0
LINE
  5
328
330
1F
100
AcDbEntity
  8
0
  6
Continuous
 62
     7
370
    25
100
AcDbLine
 10
44.6891559636
 20
15.0287297133
 30
0.0
 11
44.6891559636
 21
15.0387297131
 31
0.0
  0
LINE
  5
329
330
1F
100
AcDbEntity
  8
0
  6
Continuous
 62
     7
370
    25
100
AcDbLine
 10
44.642540151
 20
15.0287297133
 30
0.0
 11
44.642540151
 21
15.0387297131
 31
0.0
  0
LINE
  5
32A
330
1F
100
AcDbEntity
  8
0
  6
Continuous
 62
     7
370
    25
100
AcDbLine
 10
44.6737616339
 20
92.6453073104
 30
0.0
 11
44.6737616339
 21
92.6553073103
 31
0.0
  0
LINE
  5
32B
330
1F
100
AcDbEntity
  8
0
  6
Continuous
 62
     7
370
    25
100
AcDbLine
 10
44.6079536234
 20
92.6453073104
 30
0.0
 11
44.6079536234
 21
92.6553073103
 31
0.0
  0
LINE
  5
32C
330
1F
100
AcDbEntity
  8
0
  6
Continuous
 62
     7
370
    25
100
AcDbLine
 10
44.7203774465
 20
92.6453073104
 30
0.0
 11
44.7203774465
 21
92.6553073103
 31
0.0
  0
LINE
  5
32D
330
1F
100
AcDbEntity
  8
0
  6
Continuous
 62
     7
370
    25
100
AcDbLine
 10
44.6079536234
 20
92.6453073104
 30
0.0
 11
44.6007698998
 21
92.6453073104
 31
0.0
  0
LINE
  5
32E
330
1F
100
AcDbEntity
  8
0
  6
Continuous
 62
     7
370
    25
100
AcDbLine
 10
44.9333257774
 20
15.0287297133
 30
0.0
 11
44.9333257774
 21
15.0387297131
 31
0.0
  0
LINE
  5
32F
330
1F
100
AcDbEntity
  8
0
  6
Continuous
 62
     7
370
    25
100
AcDbLine
 10
44.8901325013
 20
15.0287297133
 30
0.0
 11
44.8901325013
 21
15.0387297131
 31
0.0
  0
LINE
  5
330
330
1F
100
AcDbEntity
  8
0
  6
Continuous
 62
     7
370
    25
100
AcDbLine
 10
44.9470159231
 20
15.0287297133
 30
0.0
 11
44.9470159231
 21
15.0387297131
 31
0.0
  0
LINE
  5
331
330
1F
100
AcDbEntity
  8
0
  6
Continuous
 62
     7
370
    25
100
AcDbLine
 10
44.8351986255
 20
15.0287297133
 30
0.0
 11
44.8351986255
 21
15.0387297131
 31
0.0
  0
LINE
  5
332
330
1F
100
AcDbEntity
  8
0
  6
Continuous
 62
     7
370
    25
100
AcDbLine
 10
44.8901325013
 20
15.0287297133
 30
0.0
 11
44.8351986255
 21
15.0287297133
 31
0.0
  0
LINE
  5
333
330
1F
100
AcDbEntity
  8
0
  6
Continuous
 62
     7
370
    25
100
AcDbLine
 10
44.951391571
 20
15.0287297133
 30
0.0
 11
44.951391571
 21
15.0387297131
 31
0.0
  0
LINE
  5
334
330
1F
100
AcDbEntity
  8
0
  6
Continuous
 62
     7
370
    25
100
AcDbLine
 10
44.9604413509
 20
15.0287297133
 30
0.0
 11
44.9478194133
 21
15.0287297133
 31
0.0
  0
LINE
  5
335
330
1F
100
AcDbEntity
  8
0
  6
Continuous
 62
     7
370
    25
100
AcDbLine
 10
44.9626266646
 20
53.8370185118
 30
0.0
 11
44.9626266646
 21
53.8470185117
 31
0.0
  0
LINE
  5
336
330
1F
100
AcDbEntity
  8
0
  6
Continuous
 62
     7
370
    25
100
AcDbLine
 10
44.9489365189
 20
53.8370185118
 30
0.0
 11
44.9489365189
 21
53.8470185117
 31
0.0
  0
LINE
  5
337
330
1F
100
AcDbEntity
  8
0
  6
Continuous
 62
     7
370
    25
100
AcDbLine
 10
44.9057432427
 20
53.8370185118
 30
0.0
 11
44.9057432427
 21
53.8470185117
 31
0.0
  0
LINE
  5
338
330
1F
100
AcDbEntity
  8
0
  6
Continuous
 62
     7
370
    25
100
AcDbLine
 10
44.8508093669
 20
53.8370185118
 30
0.0
 11
44.8508093669
 21
53.8470185117
 31
0.0
  0
LINE
  5
339
330
1F
100
AcDbEntity
  8
0
  6
Continuous
 62
     7
370
    25
100
AcDbLine
 10
44.9057432427
 20
53.8370185118
 30
0.0
 11
44.8508093669
 21
53.8370185118
 31
0.0
  0
LINE
  5
33A
330
1F
100
AcDbEntity
  8
0
  6
Continuous
 62
     7
370
    25
100
AcDbLine
 10
44.9670023124
 20
53.8370185118
 30
0.0
 11
44.9670023124
 21
53.8470185117
 31
0.0
  0
LINE
  5
33B
330
1F
100
AcDbEntity
  8
0
  6
Continuous
 62
     7
370
    25
100
AcDbLine
 10
44.9760520923
 20
53.8370185118
 30
0.0
 11
44.9634301547
 21
53.8370185118
 31
0.0
  0
LINE
  5
33C
330
1F
100
AcDbEntity
  8
0
  6
Continuous
 62
     7
370
    25
100
AcDbLine
 10
44.9645472603
 20
92.6453073104
 30
0.0
 11
44.9645472603
 21
92.6553073103
 31
0.0
  0
LINE
  5
33D
330
1F
100
AcDbEntity
  8
0
  6
Continuous
 62
     7
370
    25
100
AcDbLine
 10
44.9213539842
 20
92.6453073104
 30
0.0
 11
44.9213539842
 21
92.6553073103
 31
0.0
  0
LINE
  5
33E
330
1F
100
AcDbEntity
  8
0
  6
Continuous
 62
     7
370
    25
100
AcDbLine
 10
44.978237406
 20
92.6453073104
 30
0.0
 11
44.978237406
 21
92.6553073103
 31
0.0
  0
LINE
  5
33F
330
1F
100
AcDbEntity
  8
0
  6
Continuous
 62
     7
370
    25
100
AcDbLine
 10
44.8664201084
 20
92.6453073104
 30
0.0
 11
44.8664201084
 21
92.6553073103
 31
0.0
  0
LINE
  5
340
330
1F
100
AcDbEntity
  8
0
  6
Continuous
 62
     7
370
    25
100
AcDbLine
 10
44.9213539842
 20
92.6453073104
 30
0.0
 11
44.8664201084
 21
92.6453073104
 31
0.0
  0
LINE
  5
341
330
1F
100
AcDbEntity
  8
0
  6
Continuous
 62
     7
370
    25
100
AcDbLine
 10
44.9826130539
 20
92.6453073104
 30
0.0
 11
44.9826130539
 21
92.6553073103
 31
0.0
  0
LINE
  5
342
330
1F
100
AcDbEntity
  8
0
  6
Continuous
 62
     7
370
    25
100
AcDbLine
 10
44.9916628338
 20
92.6453073104
 30
0.0
 11
44.9790408962
 21
92.6453073104
 31
0.0
  0
LINE
  5
343
330
1F
100
AcDbEntity
  8
0
  6
Continuous
 62
     7
370
    25
100
AcDbLine
 10
44.9314051817
 20
-23.7795590853
 30
0.0
 11
44.9314051817
 21
-23.7695590855
 31
0.0
  0
LINE
  5
344
330
1F
100
AcDbEntity
  8
0
  6
Continuous
 62
     7
370
    25
100
AcDbLine
 10
44.917715036
 20
-23.7795590853
 30
0.0
 11
44.917715036
 21
-23.7695590855
 31
0.0
  0
LINE
  5
345
330
1F
100
AcDbEntity
  8
0
  6
Continuous
 62
     7
370
    25
100
AcDbLine
 10
44.8745217598
 20
-23.7795590853
 30
0.0
 11
44.8745217598
 21
-23.7695590855
 31
0.0
  0
LINE
  5
346
330
1F
100
AcDbEntity
  8
0
  6
Continuous
 62
     7
370
    25
100
AcDbLine
 10
44.819587884
 20
-23.7795590853
 30
0.0
 11
44.819587884
 21
-23.7695590855
 31
0.0
  0
LINE
  5
347
330
1F
100
AcDbEntity
  8
0
  6
Continuous
 62
     7
370
    25
100
AcDbLine
 10
44.8745217598
 20
-23.7795590853
 30
0.0
 11
44.819587884
 21
-23.7795590853
 31
0.0
  0
LINE
  5
348
330
1F
100
AcDbEntity
  8
0
  6
Continuous
 62
     7
370
    25
100
AcDbLine
 10
44.9357808295
 20
-23.7795590853
 30
0.0
 11
44.9357808295
 21
-23.7695590855
 31
0.0
  0
LINE
  5
349
330
1F
100
AcDbEntity
  8
0
  6
Continuous
 62
     7
370
    25
100
AcDbLine
 10
44.9448306094
 20
-23.7795590853
 30
0.0
 11
44.9322086718
 21
-23.7795590853
 31
0.0
  0
LINE
  5
34A
330
1F
100
AcDbEntity
  8
0
  6
Continuous
 62
     7
370
    25
100
AcDbLine
 10
45.0269616847
 20
53.8370185118
 30
0.0
 11
45.0269616847
 21
53.8470185117
 31
0.0
  0
LINE
  5
34B
330
1F
100
AcDbEntity
  8
0
  6
Continuous
 62
     7
370
    25
100
AcDbLine
 10
44.9916965626
 20
53.8370185118
 30
0.0
 11
44.9916965626
 21
53.8470185117
 31
0.0
  0
LINE
  5
34C
330
1F
100
AcDbEntity
  8
0
  6
Continuous
 62
     7
370
    25
100
AcDbLine
 10
45.0598007051
 20
53.8370185118
 30
0.0
 11
45.0598007051
 21
53.8470185117
 31
0.0
  0
LINE
  5
34D
330
1F
100
AcDbEntity
  8
0
  6
Continuous
 62
     7
370
    25
100
AcDbLine
 10
44.9780497401
 20
53.8370185118
 30
0.0
 11
44.9780497401
 21
53.8470185117
 31
0.0
  0
LINE
  5
34E
330
1F
100
AcDbEntity
  8
0
  6
Continuous
 62
     7
370
    25
100
AcDbLine
 10
44.9957402018
 20
-23.7795590853
 30
0.0
 11
44.9957402018
 21
-23.7695590855
 31
0.0
  0
LINE
  5
34F
330
1F
100
AcDbEntity
  8
0
  6
Continuous
 62
     7
370
    25
100
AcDbLine
 10
44.9604750797
 20
-23.7795590853
 30
0.0
 11
44.9604750797
 21
-23.7695590855
 31
0.0
  0
LINE
  5
350
330
1F
100
AcDbEntity
  8
0
  6
Continuous
 62
     7
370
    25
100
AcDbLine
 10
45.0285792222
 20
-23.7795590853
 30
0.0
 11
45.0285792222
 21
-23.7695590855
 31
0.0
  0
LINE
  5
351
330
1F
100
AcDbEntity
  8
0
  6
Continuous
 62
     7
370
    25
100
AcDbLine
 10
44.9468282572
 20
-23.7795590853
 30
0.0
 11
44.9468282572
 21
-23.7695590855
 31
0.0
  0
LINE
  5
352
330
1F
100
AcDbEntity
  8
0
  6
Continuous
 62
     7
370
    25
100
AcDbLine
 10
45.0441899637
 20
15.0287297133
 30
0.0
 11
45.0441899637
 21
15.0387297131
 31
0.0
  0
LINE
  5
353
330
1F
100
AcDbEntity
  8
0
  6
Continuous
 62
     7
370
    25
100
AcDbLine
 10
45.0113509433
 20
15.0287297133
 30
0.0
 11
45.0113509433
 21
15.0387297131
 31
0.0
  0
LINE
  5
354
330
1F
100
AcDbEntity
  8
0
  6
Continuous
 62
     7
370
    25
100
AcDbLine
 10
44.9760858211
 20
15.0287297133
 30
0.0
 11
44.9760858211
 21
15.0387297131
 31
0.0
  0
LINE
  5
355
330
1F
100
AcDbEntity
  8
0
  6
Continuous
 62
     7
370
    25
100
AcDbLine
 10
44.9624389987
 20
15.0287297133
 30
0.0
 11
44.9624389987
 21
15.0387297131
 31
0.0
  0
LINE
  5
356
330
1F
100
AcDbEntity
  8
0
  6
Continuous
 62
     7
370
    25
100
AcDbLine
 10
45.0754114466
 20
92.6453073104
 30
0.0
 11
45.0754114466
 21
92.6553073103
 31
0.0
  0
LINE
  5
357
330
1F
100
AcDbEntity
  8
0
  6
Continuous
 62
     7
370
    25
100
AcDbLine
 10
45.0425724262
 20
92.6453073104
 30
0.0
 11
45.0425724262
 21
92.6553073103
 31
0.0
  0
LINE
  5
358
330
1F
100
AcDbEntity
  8
0
  6
Continuous
 62
     7
370
    25
100
AcDbLine
 10
45.007307304
 20
92.6453073104
 30
0.0
 11
45.007307304
 21
92.6553073103
 31
0.0
  0
LINE
  5
359
330
1F
100
AcDbEntity
  8
0
  6
Continuous
 62
     7
370
    25
100
AcDbLine
 10
44.9936604816
 20
92.6453073104
 30
0.0
 11
44.9936604816
 21
92.6553073103
 31
0.0
  0
LINE
  5
35A
330
1F
100
AcDbEntity
  8
0
  6
Continuous
 62
     7
370
    25
100
AcDbLine
 10
45.0584866348
 20
15.0287297133
 30
0.0
 11
45.0584866348
 21
15.0387297131
 31
0.0
  0
LINE
  5
35B
330
1F
100
AcDbEntity
  8
0
  6
Continuous
 62
     7
370
    25
100
AcDbLine
 10
45.0697973532
 20
15.0287297133
 30
0.0
 11
45.0584866348
 21
15.0287297133
 31
0.0
  0
LINE
  5
35C
330
1F
100
AcDbEntity
  8
0
  6
Continuous
 62
     7
370
    25
100
AcDbLine
 10
45.185380422
 20
15.0287297133
 30
0.0
 11
45.185380422
 21
15.0387297131
 31
0.0
  0
LINE
  5
35D
330
1F
100
AcDbEntity
  8
0
  6
Continuous
 62
     7
370
    25
100
AcDbLine
 10
45.0897081177
 20
92.6453073104
 30
0.0
 11
45.0897081177
 21
92.6553073103
 31
0.0
  0
LINE
  5
35E
330
1F
100
AcDbEntity
  8
0
  6
Continuous
 62
     7
370
    25
100
AcDbLine
 10
45.1010188361
 20
92.6453073104
 30
0.0
 11
45.0897081177
 21
92.6453073104
 31
0.0
  0
LINE
  5
35F
330
1F
100
AcDbEntity
  8
0
  6
Continuous
 62
     7
370
    25
100
AcDbLine
 10
45.2166019049
 20
92.6453073104
 30
0.0
 11
45.2166019049
 21
92.6553073103
 31
0.0
  0
LINE
  5
360
330
1F
100
AcDbEntity
  8
0
  6
Continuous
 62
     7
370
    25
100
AcDbLine
 10
45.0740973763
 20
53.8370185118
 30
0.0
 11
45.0740973763
 21
53.8470185117
 31
0.0
  0
LINE
  5
361
330
1F
100
AcDbEntity
  8
0
  6
Continuous
 62
     7
370
    25
100
AcDbLine
 10
45.0854080946
 20
53.8370185118
 30
0.0
 11
45.0740973763
 21
53.8370185118
 31
0.0
  0
LINE
  5
362
330
1F
100
AcDbEntity
  8
0
  6
Continuous
 62
     7
370
    25
100
AcDbLine
 10
45.2009911635
 20
53.8370185118
 30
0.0
 11
45.2009911635
 21
53.8470185117
 31
0.0
  0
LINE
  5
363
330
1F
100
AcDbEntity
  8
0
  6
Continuous
 62
     7
370
    25
100
AcDbLine
 10
45.0428758933
 20
-23.7795590853
 30
0.0
 11
45.0428758933
 21
-23.7695590855
 31
0.0
  0
LINE
  5
364
330
1F
100
AcDbEntity
  8
0
  6
Continuous
 62
     7
370
    25
100
AcDbLine
 10
45.0541866117
 20
-23.7795590853
 30
0.0
 11
45.0428758933
 21
-23.7795590853
 31
0.0
  0
LINE
  5
365
330
1F
100
AcDbEntity
  8
0
  6
Continuous
 62
     7
370
    25
100
AcDbLine
 10
45.1697696806
 20
-23.7795590853
 30
0.0
 11
45.1697696806
 21
-23.7695590855
 31
0.0
  0
LINE
  5
366
330
1F
100
AcDbEntity
  8
0
  6
Continuous
 62
     7
370
    25
100
AcDbLine
 10
45.9277897442
 20
15.0287297133
 30
0.0
 11
45.9277897442
 21
15.0387297131
 31
0.0
  0
LINE
  5
367
330
1F
100
AcDbEntity
  8
0
  6
Continuous
 62
     7
370
    25
100
AcDbLine
 10
45.8072908151
 20
15.0287297133
 30
0.0
 11
45.8072908151
 21
15.0387297131
 31
0.0
  0
LINE
  5
368
330
1F
100
AcDbEntity
  8
0
  6
Continuous
 62
     7
370
    25
100
AcDbLine
 10
46.0422637384
 20
15.0287297133
 30
0.0
 11
46.0422637384
 21
15.0387297131
 31
0.0
  0
LINE
  5
369
330
1F
100
AcDbEntity
  8
0
  6
Continuous
 62
     7
370
    25
100
AcDbLine
 10
45.6807669395
 20
15.0287297133
 30
0.0
 11
45.6807669395
 21
15.0387297131
 31
0.0
  0
LINE
  5
36A
330
1F
100
AcDbEntity
  8
0
  6
Continuous
 62
     7
370
    25
100
AcDbLine
 10
45.6458222316
 20
15.0287297133
 30
0.0
 11
45.6458222316
 21
15.0387297131
 31
0.0
  0
LINE
  5
36B
330
1F
100
AcDbEntity
  8
0
  6
Continuous
 62
     7
370
    25
100
AcDbLine
 10
45.574727891
 20
15.0287297133
 30
0.0
 11
45.574727891
 21
15.0387297131
 31
0.0
  0
LINE
  5
36C
330
1F
100
AcDbEntity
  8
0
  6
Continuous
 62
     7
370
    25
100
AcDbLine
 10
45.4650738839
 20
15.0287297133
 30
0.0
 11
45.4650738839
 21
15.0387297131
 31
0.0
  0
LINE
  5
36D
330
1F
100
AcDbEntity
  8
0
  6
Continuous
 62
     7
370
    25
100
AcDbLine
 10
45.6458222316
 20
15.0287297133
 30
0.0
 11
45.574727891
 21
15.0287297133
 31
0.0
  0
LINE
  5
36E
330
1F
100
AcDbEntity
  8
0
  6
Continuous
 62
     7
370
    25
100
AcDbLine
 10
46.1386628818
 20
15.0287297133
 30
0.0
 11
46.1386628818
 21
15.0387297131
 31
0.0
  0
LINE
  5
36F
330
1F
100
AcDbEntity
  8
0
  6
Continuous
 62
     7
370
    25
100
AcDbLine
 10
45.8072908151
 20
15.0287297133
 30
0.0
 11
45.6846772098
 21
15.0287297133
 31
0.0
  0
LINE
  5
370
330
1F
100
AcDbEntity
  8
0
  6
Continuous
 62
     7
370
    25
100
AcDbLine
 10
45.4204892709
 20
15.0287297133
 30
0.0
 11
45.4204892709
 21
15.0387297131
 31
0.0
  0
LINE
  5
371
330
1F
100
AcDbEntity
  8
0
  6
Continuous
 62
     7
370
    25
100
AcDbLine
 10
46.1892724297
 20
15.0287297133
 30
0.0
 11
46.1892724297
 21
15.0387297131
 31
0.0
  0
LINE
  5
372
330
1F
100
AcDbEntity
  8
0
  6
Continuous
 62
     7
370
    25
100
AcDbLine
 10
46.0578744799
 20
53.8370185118
 30
0.0
 11
46.0578744799
 21
53.8470185117
 31
0.0
  0
LINE
  5
373
330
1F
100
AcDbEntity
  8
0
  6
Continuous
 62
     7
370
    25
100
AcDbLine
 10
45.9434004857
 20
53.8370185118
 30
0.0
 11
45.9434004857
 21
53.8470185117
 31
0.0
  0
LINE
  5
374
330
1F
100
AcDbEntity
  8
0
  6
Continuous
 62
     7
370
    25
100
AcDbLine
 10
45.8229015566
 20
53.8370185118
 30
0.0
 11
45.8229015566
 21
53.8470185117
 31
0.0
  0
LINE
  5
375
330
1F
100
AcDbEntity
  8
0
  6
Continuous
 62
     7
370
    25
100
AcDbLine
 10
45.6614329731
 20
53.8370185118
 30
0.0
 11
45.6614329731
 21
53.8470185117
 31
0.0
  0
LINE
  5
376
330
1F
100
AcDbEntity
  8
0
  6
Continuous
 62
     7
370
    25
100
AcDbLine
 10
45.5903386325
 20
53.8370185118
 30
0.0
 11
45.5903386325
 21
53.8470185117
 31
0.0
  0
LINE
  5
377
330
1F
100
AcDbEntity
  8
0
  6
Continuous
 62
     7
370
    25
100
AcDbLine
 10
45.6614329731
 20
53.8370185118
 30
0.0
 11
45.5903386325
 21
53.8370185118
 31
0.0
  0
LINE
  5
378
330
1F
100
AcDbEntity
  8
0
  6
Continuous
 62
     7
370
    25
100
AcDbLine
 10
45.4806846253
 20
53.8370185118
 30
0.0
 11
45.4806846253
 21
53.8470185117
 31
0.0
  0
LINE
  5
379
330
1F
100
AcDbEntity
  8
0
  6
Continuous
 62
     7
370
    25
100
AcDbLine
 10
45.6963776809
 20
53.8370185118
 30
0.0
 11
45.6963776809
 21
53.8470185117
 31
0.0
  0
LINE
  5
37A
330
1F
100
AcDbEntity
  8
0
  6
Continuous
 62
     7
370
    25
100
AcDbLine
 10
46.1542736232
 20
53.8370185118
 30
0.0
 11
46.1542736232
 21
53.8470185117
 31
0.0
  0
LINE
  5
37B
330
1F
100
AcDbEntity
  8
0
  6
Continuous
 62
     7
370
    25
100
AcDbLine
 10
45.8229015566
 20
53.8370185118
 30
0.0
 11
45.7002879512
 21
53.8370185118
 31
0.0
  0
LINE
  5
37C
330
1F
100
AcDbEntity
  8
0
  6
Continuous
 62
     7
370
    25
100
AcDbLine
 10
45.4361000124
 20
53.8370185118
 30
0.0
 11
45.4361000124
 21
53.8470185117
 31
0.0
  0
LINE
  5
37D
330
1F
100
AcDbEntity
  8
0
  6
Continuous
 62
     7
370
    25
100
AcDbLine
 10
46.2048831712
 20
53.8370185118
 30
0.0
 11
46.2048831712
 21
53.8470185117
 31
0.0
  0
LINE
  5
37E
330
1F
100
AcDbEntity
  8
0
  6
Continuous
 62
     7
370
    25
100
AcDbLine
 10
46.026652997
 20
-23.7795590853
 30
0.0
 11
46.026652997
 21
-23.7695590855
 31
0.0
  0
LINE
  5
37F
330
1F
100
AcDbEntity
  8
0
  6
Continuous
 62
     7
370
    25
100
AcDbLine
 10
45.9121790028
 20
-23.7795590853
 30
0.0
 11
45.9121790028
 21
-23.7695590855
 31
0.0
  0
LINE
  5
380
330
1F
100
AcDbEntity
  8
0
  6
Continuous
 62
     7
370
    25
100
AcDbLine
 10
45.7916800736
 20
-23.7795590853
 30
0.0
 11
45.7916800736
 21
-23.7695590855
 31
0.0
  0
LINE
  5
381
330
1F
100
AcDbEntity
  8
0
  6
Continuous
 62
     7
370
    25
100
AcDbLine
 10
45.665156198
 20
-23.7795590853
 30
0.0
 11
45.665156198
 21
-23.7695590855
 31
0.0
  0
LINE
  5
382
330
1F
100
AcDbEntity
  8
0
  6
Continuous
 62
     7
370
    25
100
AcDbLine
 10
45.6302114902
 20
-23.7795590853
 30
0.0
 11
45.6302114902
 21
-23.7695590855
 31
0.0
  0
LINE
  5
383
330
1F
100
AcDbEntity
  8
0
  6
Continuous
 62
     7
370
    25
100
AcDbLine
 10
45.5591171496
 20
-23.7795590853
 30
0.0
 11
45.5591171496
 21
-23.7695590855
 31
0.0
  0
LINE
  5
384
330
1F
100
AcDbEntity
  8
0
  6
Continuous
 62
     7
370
    25
100
AcDbLine
 10
45.4494631424
 20
-23.7795590853
 30
0.0
 11
45.4494631424
 21
-23.7695590855
 31
0.0
  0
LINE
  5
385
330
1F
100
AcDbEntity
  8
0
  6
Continuous
 62
     7
370
    25
100
AcDbLine
 10
45.6302114902
 20
-23.7795590853
 30
0.0
 11
45.5591171496
 21
-23.7795590853
 31
0.0
  0
LINE
  5
386
330
1F
100
AcDbEntity
  8
0
  6
Continuous
 62
     7
370
    25
100
AcDbLine
 10
46.1230521403
 20
-23.7795590853
 30
0.0
 11
46.1230521403
 21
-23.7695590855
 31
0.0
  0
LINE
  5
387
330
1F
100
AcDbEntity
  8
0
  6
Continuous
 62
     7
370
    25
100
AcDbLine
 10
45.7916800736
 20
-23.7795590853
 30
0.0
 11
45.6690664683
 21
-23.7795590853
 31
0.0
  0
LINE
  5
388
330
1F
100
AcDbEntity
  8
0
  6
Continuous
 62
     7
370
    25
100
AcDbLine
 10
45.4048785294
 20
-23.7795590853
 30
0.0
 11
45.4048785294
 21
-23.7695590855
 31
0.0
  0
LINE
  5
389
330
1F
100
AcDbEntity
  8
0
  6
Continuous
 62
     7
370
    25
100
AcDbLine
 10
46.1736616882
 20
-23.7795590853
 30
0.0
 11
46.1736616882
 21
-23.7695590855
 31
0.0
  0
LINE
  5
38A
330
1F
100
AcDbEntity
  8
0
  6
Continuous
 62
     7
370
    25
100
AcDbLine
 10
45.9590112272
 20
92.6453073104
 30
0.0
 11
45.9590112272
 21
92.6553073103
 31
0.0
  0
LINE
  5
38B
330
1F
100
AcDbEntity
  8
0
  6
Continuous
 62
     7
370
    25
100
AcDbLine
 10
45.838512298
 20
92.6453073104
 30
0.0
 11
45.838512298
 21
92.6553073103
 31
0.0
  0
LINE
  5
38C
330
1F
100
AcDbEntity
  8
0
  6
Continuous
 62
     7
370
    25
100
AcDbLine
 10
46.0734852214
 20
92.6453073104
 30
0.0
 11
46.0734852214
 21
92.6553073103
 31
0.0
  0
LINE
  5
38D
330
1F
100
AcDbEntity
  8
0
  6
Continuous
 62
     7
370
    25
100
AcDbLine
 10
45.6059493739
 20
92.6453073104
 30
0.0
 11
45.6059493739
 21
92.6553073103
 31
0.0
  0
LINE
  5
38E
330
1F
100
AcDbEntity
  8
0
  6
Continuous
 62
     7
370
    25
100
AcDbLine
 10
45.4962953668
 20
92.6453073104
 30
0.0
 11
45.4962953668
 21
92.6553073103
 31
0.0
  0
LINE
  5
38F
330
1F
100
AcDbEntity
  8
0
  6
Continuous
 62
     7
370
    25
100
AcDbLine
 10
45.7119884224
 20
92.6453073104
 30
0.0
 11
45.7119884224
 21
92.6553073103
 31
0.0
  0
LINE
  5
390
330
1F
100
AcDbEntity
  8
0
  6
Continuous
 62
     7
370
    25
100
AcDbLine
 10
45.6770437146
 20
92.6453073104
 30
0.0
 11
45.6770437146
 21
92.6553073103
 31
0.0
  0
LINE
  5
391
330
1F
100
AcDbEntity
  8
0
  6
Continuous
 62
     7
370
    25
100
AcDbLine
 10
45.6770437146
 20
92.6453073104
 30
0.0
 11
45.6059493739
 21
92.6453073104
 31
0.0
  0
LINE
  5
392
330
1F
100
AcDbEntity
  8
0
  6
Continuous
 62
     7
370
    25
100
AcDbLine
 10
46.1698843647
 20
92.6453073104
 30
0.0
 11
46.1698843647
 21
92.6553073103
 31
0.0
  0
LINE
  5
393
330
1F
100
AcDbEntity
  8
0
  6
Continuous
 62
     7
370
    25
100
AcDbLine
 10
45.838512298
 20
92.6453073104
 30
0.0
 11
45.7158986927
 21
92.6453073104
 31
0.0
  0
LINE
  5
394
330
1F
100
AcDbEntity
  8
0
  6
Continuous
 62
     7
370
    25
100
AcDbLine
 10
45.4517107538
 20
92.6453073104
 30
0.0
 11
45.4517107538
 21
92.6553073103
 31
0.0
  0
LINE
  5
395
330
1F
100
AcDbEntity
  8
0
  6
Continuous
 62
     7
370
    25
100
AcDbLine
 10
46.2204939126
 20
92.6453073104
 30
0.0
 11
46.2204939126
 21
92.6553073103
 31
0.0
  0
LINE
  5
396
330
1F
100
AcDbEntity
  8
0
  6
Continuous
 62
     7
370
    25
100
AcDbLine
 10
-109.6709916253
 20
101.4394091032
 30
0.0
 11
-109.6698449627
 21
101.4394091032
 31
0.0
  0
LINE
  5
397
330
1F
100
AcDbEntity
  8
0
  6
Continuous
 62
     7
370
    25
100
AcDbLine
 10
-109.6709916253
 20
102.0794090941
 30
0.0
 11
-109.6698449627
 21
102.0794090941
 31
0.0
  0
LINE
  5
398
330
1F
100
AcDbEntity
  8
0
  6
Continuous
 62
     7
370
    25
100
AcDbLine
 10
-114.3025449014
 20
109.059408994
 30
0.0
 11
-109.6698449627
 21
109.059408994
 31
0.0
  0
LINE
  5
399
330
1F
100
AcDbEntity
  8
0
  6
Continuous
 62
     7
370
    25
100
AcDbLine
 10
-114.3025449014
 20
109.6994089848
 30
0.0
 11
-114.3025449014
 21
109.059408994
 31
0.0
  0
LINE
  5
39A
330
1F
100
AcDbEntity
  8
0
  6
Continuous
 62
     7
370
    25
100
AcDbLine
 10
-114.3025449014
 20
109.6994089848
 30
0.0
 11
-109.6698449627
 21
109.6994089848
 31
0.0
  0
LINE
  5
39B
330
1F
100
AcDbEntity
  8
0
  6
Continuous
 62
     7
370
    25
100
AcDbLine
 10
-114.3025449014
 20
107.1594090212
 30
0.0
 11
-114.3025449014
 21
106.5194090304
 31
0.0
  0
LINE
  5
39C
330
1F
100
AcDbEntity
  8
0
  6
Continuous
 62
     7
370
    25
100
AcDbLine
 10
-114.3025449014
 20
107.1594090212
 30
0.0
 11
-109.6698449627
 21
107.1594090212
 31
0.0
  0
LINE
  5
39D
330
1F
100
AcDbEntity
  8
0
  6
Continuous
 62
     7
370
    25
100
AcDbLine
 10
-114.3025449014
 20
106.5194090304
 30
0.0
 11
-109.6698449627
 21
106.5194090304
 31
0.0
  0
LINE
  5
39E
330
1F
100
AcDbEntity
  8
0
  6
Continuous
 62
     7
370
    25
100
AcDbLine
 10
-114.3025449014
 20
104.6194090576
 30
0.0
 11
-114.7049916253
 21
104.511573783
 31
0.0
  0
LINE
  5
39F
330
1F
100
AcDbEntity
  8
0
  6
Continuous
 62
     7
370
    25
100
AcDbLine
 10
-114.3025449014
 20
104.6194090576
 30
0.0
 11
-114.3025449014
 21
103.9794090668
 31
0.0
  0
LINE
  5
3A0
330
1F
100
AcDbEntity
  8
0
  6
Continuous
 62
     7
370
    25
100
AcDbLine
 10
-114.7049916253
 20
104.0872443415
 30
0.0
 11
-114.3025449014
 21
103.9794090668
 31
0.0
  0
LINE
  5
3A1
330
1F
100
AcDbEntity
  8
0
  6
Continuous
 62
     7
370
    25
100
AcDbLine
 10
-114.3025449014
 20
103.9794090668
 30
0.0
 11
-109.6698449627
 21
103.9794090668
 31
0.0
  0
LINE
  5
3A2
330
1F
100
AcDbEntity
  8
0
  6
Continuous
 62
     7
370
    25
100
AcDbLine
 10
-114.3025449014
 20
104.6194090576
 30
0.0
 11
-109.6698449627
 21
104.6194090576
 31
0.0
  0
LINE
  5
3A3
330
1F
100
AcDbEntity
  8
0
  6
Continuous
 62
     7
370
    25
100
AcDbLine
 10
-114.3025449014
 20
107.1594090212
 30
0.0
 11
-114.7049916253
 21
107.0515737465
 31
0.0
  0
LINE
  5
3A4
330
1F
100
AcDbEntity
  8
0
  6
Continuous
 62
     7
370
    25
100
AcDbLine
 10
-114.7049916253
 20
106.627244305
 30
0.0
 11
-114.3025449014
 21
106.5194090304
 31
0.0
  0
LINE
  5
3A5
330
1F
100
AcDbEntity
  8
0
  6
Continuous
 62
     7
370
    25
100
AcDbLine
 10
-114.3025449014
 20
96.3594091761
 30
0.0
 11
-109.6698449627
 21
96.3594091761
 31
0.0
  0
LINE
  5
3A6
330
1F
100
AcDbEntity
  8
0
  6
Continuous
 62
     7
370
    25
100
AcDbLine
 10
-114.3025449014
 20
96.9994091669
 30
0.0
 11
-114.3025449014
 21
96.3594091761
 31
0.0
  0
LINE
  5
3A7
330
1F
100
AcDbEntity
  8
0
  6
Continuous
 62
     7
370
    25
100
AcDbLine
 10
-114.3025449014
 20
96.9994091669
 30
0.0
 11
-109.6698449627
 21
96.9994091669
 31
0.0
  0
LINE
  5
3A8
330
1F
100
AcDbEntity
  8
0
  6
Continuous
 62
     7
370
    25
100
AcDbLine
 10
-109.6709916253
 20
98.8994091397
 30
0.0
 11
-109.6698449627
 21
98.8994091397
 31
0.0
  0
LINE
  5
3A9
330
1F
100
AcDbEntity
  8
0
  6
Continuous
 62
     7
370
    25
100
AcDbLine
 10
-109.6709916253
 20
99.5394091305
 30
0.0
 11
-109.6698449627
 21
99.5394091305
 31
0.0
  0
LINE
  5
3AA
330
1F
100
AcDbEntity
  8
0
  6
Continuous
 62
     7
370
    25
100
AcDbLine
 10
-114.7049916253
 20
109.1672442686
 30
0.0
 11
-114.3025449014
 21
109.059408994
 31
0.0
  0
LINE
  5
3AB
330
1F
100
AcDbEntity
  8
0
  6
Continuous
 62
     7
370
    25
100
AcDbLine
 10
-114.3025449014
 20
109.6994089848
 30
0.0
 11
-114.7049916253
 21
109.5915737101
 31
0.0
  0
LINE
  5
3AC
330
1F
100
AcDbEntity
  8
0
  6
Continuous
 62
     7
370
    25
100
AcDbLine
 10
-114.7049916253
 20
96.4672444507
 30
0.0
 11
-114.3025449014
 21
96.3594091761
 31
0.0
  0
LINE
  5
3AD
330
1F
100
AcDbEntity
  8
0
  6
Continuous
 62
     7
370
    25
100
AcDbLine
 10
-114.3025449014
 20
96.9994091669
 30
0.0
 11
-114.7049916253
 21
96.8915738922
 31
0.0
  0
LINE
  5
3AE
330
1F
100
AcDbEntity
  8
0
  6
Continuous
 62
     7
370
    25
100
AcDbLine
 10
-114.3493771258
 20
-9.2654573745
 30
0.0
 11
-114.3493771258
 21
-9.9054573653
 31
0.0
  0
LINE
  5
3AF
330
1F
100
AcDbEntity
  8
0
  6
Continuous
 62
     7
370
    25
100
AcDbLine
 10
-114.7049916253
 20
-9.8101707474
 30
0.0
 11
-114.3493771258
 21
-9.9054573653
 31
0.0
  0
LINE
  5
3B0
330
1F
100
AcDbEntity
  8
0
  6
Continuous
 62
     7
370
    25
100
AcDbLine
 10
-114.3493771258
 20
-9.2654573745
 30
0.0
 11
-114.7049916253
 21
-9.3607439925
 31
0.0
  0
LINE
  5
3B1
330
1F
100
AcDbEntity
  8
0
  6
Continuous
 62
     7
370
    25
100
AcDbLine
 10
-114.3493771258
 20
-19.4254572288
 30
0.0
 11
-114.3493771258
 21
-20.0654572196
 31
0.0
  0
LINE
  5
3B2
330
1F
100
AcDbEntity
  8
0
  6
Continuous
 62
     7
370
    25
100
AcDbLine
 10
-114.3493771258
 20
-19.4254572288
 30
0.0
 11
-109.7166771871
 21
-19.4254572288
 31
0.0
  0
LINE
  5
3B3
330
1F
100
AcDbEntity
  8
0
  6
Continuous
 62
     7
370
    25
100
AcDbLine
 10
-114.3493771258
 20
-20.0654572196
 30
0.0
 11
-109.7166771871
 21
-20.0654572196
 31
0.0
  0
LINE
  5
3B4
330
1F
100
AcDbEntity
  8
0
  6
Continuous
 62
     7
370
    25
100
AcDbLine
 10
-114.3493771258
 20
-9.9054573653
 30
0.0
 11
-109.7166771871
 21
-9.9054573653
 31
0.0
  0
LINE
  5
3B5
330
1F
100
AcDbEntity
  8
0
  6
Continuous
 62
     7
370
    25
100
AcDbLine
 10
-114.3493771258
 20
-9.2654573745
 30
0.0
 11
-109.7166771871
 21
-9.2654573745
 31
0.0
  0
LINE
  5
3B6
330
1F
100
AcDbEntity
  8
0
  6
Continuous
 62
     7
370
    25
100
AcDbLine
 10
-114.3493771258
 20
-11.8054573381
 30
0.0
 11
-114.3493771258
 21
-12.4454573289
 31
0.0
  0
LINE
  5
3B7
330
1F
100
AcDbEntity
  8
0
  6
Continuous
 62
     7
370
    25
100
AcDbLine
 10
-114.7049916253
 20
-12.3501707109
 30
0.0
 11
-114.3493771258
 21
-12.4454573289
 31
0.0
  0
LINE
  5
3B8
330
1F
100
AcDbEntity
  8
0
  6
Continuous
 62
     7
370
    25
100
AcDbLine
 10
-114.3493771258
 20
-11.8054573381
 30
0.0
 11
-114.7049916253
 21
-11.900743956
 31
0.0
  0
LINE
  5
3B9
330
1F
100
AcDbEntity
  8
0
  6
Continuous
 62
     7
370
    25
100
AcDbLine
 10
-114.3493771258
 20
-7.3654574018
 30
0.0
 11
-109.7166771871
 21
-7.3654574018
 31
0.0
  0
LINE
  5
3BA
330
1F
100
AcDbEntity
  8
0
  6
Continuous
 62
     7
370
    25
100
AcDbLine
 10
-114.3493771258
 20
-6.7254574109
 30
0.0
 11
-114.3493771258
 21
-7.3654574018
 31
0.0
  0
LINE
  5
3BB
330
1F
100
AcDbEntity
  8
0
  6
Continuous
 62
     7
370
    25
100
AcDbLine
 10
-114.3493771258
 20
-6.7254574109
 30
0.0
 11
-109.7166771871
 21
-6.7254574109
 31
0.0
  0
LINE
  5
3BC
330
1F
100
AcDbEntity
  8
0
  6
Continuous
 62
     7
370
    25
100
AcDbLine
 10
-114.3493771258
 20
-12.4454573289
 30
0.0
 11
-109.7166771871
 21
-12.4454573289
 31
0.0
  0
LINE
  5
3BD
330
1F
100
AcDbEntity
  8
0
  6
Continuous
 62
     7
370
    25
100
AcDbLine
 10
-114.3493771258
 20
-11.8054573381
 30
0.0
 11
-109.7166771871
 21
-11.8054573381
 31
0.0
  0
LINE
  5
3BE
330
1F
100
AcDbEntity
  8
0
  6
Continuous
 62
     7
370
    25
100
AcDbLine
 10
-114.7049916253
 20
-19.9701706017
 30
0.0
 11
-114.3493771258
 21
-20.0654572196
 31
0.0
  0
LINE
  5
3BF
330
1F
100
AcDbEntity
  8
0
  6
Continuous
 62
     7
370
    25
100
AcDbLine
 10
-114.3493771258
 20
-19.4254572288
 30
0.0
 11
-114.7049916253
 21
-19.5207438468
 31
0.0
  0
LINE
  5
3C0
330
1F
100
AcDbEntity
  8
0
  6
Continuous
 62
     7
370
    25
100
AcDbLine
 10
-114.3493771258
 20
-6.7254574109
 30
0.0
 11
-114.7049916253
 21
-6.8207440289
 31
0.0
  0
LINE
  5
3C1
330
1F
100
AcDbEntity
  8
0
  6
Continuous
 62
     7
370
    25
100
AcDbLine
 10
-114.7049916253
 20
-7.2701707838
 30
0.0
 11
-114.3493771258
 21
-7.3654574018
 31
0.0
  0
LINE
  5
3C2
330
1F
100
AcDbEntity
  8
0
  6
Continuous
 62
     7
370
    25
100
AcDbLine
 10
45.4223296434
 20
27.4387295353
 30
0.0
 11
44.6134638486
 21
27.4387295353
 31
0.0
  0
LINE
  5
3C3
330
1F
100
AcDbEntity
  8
0
  6
Continuous
 62
     7
370
    25
100
AcDbLine
 10
45.5407290477
 20
17.5787296767
 30
0.0
 11
44.6007755338
 21
17.5787296767
 31
0.0
  0
LINE
  5
3C4
330
1F
100
AcDbEntity
  8
0
  6
Continuous
 62
     7
370
    25
100
AcDbLine
 10
44.6824500324
 20
17.8787296724
 30
0.0
 11
45.4033459996
 21
17.8787296724
 31
0.0
  0
LINE
  5
3C5
330
1F
100
AcDbEntity
  8
0
  6
Continuous
 62
     7
370
    25
100
AcDbLine
 10
44.622470449
 20
28.0387295267
 30
0.0
 11
45.4133230431
 21
28.0387295267
 31
0.0
  0
LINE
  5
3C6
330
1F
100
AcDbEntity
  8
0
  6
Continuous
 62
     7
370
    25
100
AcDbLine
 10
44.6007747712
 20
27.738729531
 30
0.0
 11
45.5178607046
 21
27.738729531
 31
0.0
  0
LINE
  5
3C7
330
1F
100
AcDbEntity
  8
0
  6
Continuous
 62
     7
370
    25
100
AcDbLine
 10
45.4738837796
 20
17.278729681
 30
0.0
 11
44.6119122525
 21
17.278729681
 31
0.0
  0
LINE
  5
3C8
330
1F
100
AcDbEntity
  8
0
  6
Continuous
 62
     7
370
    25
100
AcDbLine
 10
46.1801649627
 20
15.0857005334
 30
0.0
 11
46.1801649627
 21
15.0387297131
 31
0.0
  0
LINE
  5
3C9
330
1F
100
AcDbEntity
  8
0
  6
Continuous
 62
     7
370
    25
100
AcDbLine
 10
46.1801649627
 20
15.0387297131
 30
0.0
 11
44.6007757244
 21
15.0387297131
 31
0.0
  0
LINE
  5
3CA
330
1F
100
AcDbEntity
  8
0
  6
Continuous
 62
     7
370
    25
100
AcDbLine
 10
44.6007745806
 20
30.2787294946
 30
0.0
 11
46.1801649627
 21
30.2787294946
 31
0.0
  0
LINE
  5
3CB
330
1F
100
AcDbEntity
  8
0
  6
Continuous
 62
     7
370
    25
100
AcDbLine
 10
46.1801649627
 20
30.2287294953
 30
0.0
 11
46.1801649627
 21
30.2787294946
 31
0.0
  0
LINE
  5
3CC
330
1F
100
AcDbEntity
  8
0
  6
Continuous
 62
     7
370
    25
100
AcDbLine
 10
46.1801649627
 20
30.2287294953
 30
0.0
 11
46.2801649612
 21
30.2287294953
 31
0.0
  0
LINE
  5
3CD
330
1F
100
AcDbEntity
  8
0
  6
Continuous
 62
     7
370
    25
100
AcDbLine
 10
46.2801649612
 20
30.2287294953
 30
0.0
 11
46.2801649612
 21
30.1352585725
 31
0.0
  0
LINE
  5
3CE
330
1F
100
AcDbEntity
  8
0
  6
Continuous
 62
     7
370
    25
100
AcDbLine
 10
51.6801648838
 20
29.3287295082
 30
0.0
 11
47.0474649452
 21
29.3287295082
 31
0.0
  0
LINE
  5
3CF
330
1F
100
AcDbEntity
  8
0
  6
Continuous
 62
     7
370
    25
100
AcDbLine
 10
51.6801648838
 20
28.6887295174
 30
0.0
 11
51.6801648838
 21
29.3287295082
 31
0.0
  0
LINE
  5
3D0
330
1F
100
AcDbEntity
  8
0
  6
Continuous
 62
     7
370
    25
100
AcDbLine
 10
51.6801648838
 20
28.6887295174
 30
0.0
 11
47.0474649452
 21
28.6887295174
 31
0.0
  0
LINE
  5
3D1
330
1F
100
AcDbEntity
  8
0
  6
Continuous
 62
     7
370
    25
100
AcDbLine
 10
47.0786864281
 20
24.248729581
 30
0.0
 11
47.0474649452
 21
24.248729581
 31
0.0
  0
LINE
  5
3D2
330
1F
100
AcDbEntity
  8
0
  6
Continuous
 62
     7
370
    25
100
AcDbLine
 10
47.0786864281
 20
23.6087295902
 30
0.0
 11
47.0474649452
 21
23.6087295902
 31
0.0
  0
LINE
  5
3D3
330
1F
100
AcDbEntity
  8
0
  6
Continuous
 62
     7
370
    25
100
AcDbLine
 10
51.6801648838
 20
18.5287296631
 30
0.0
 11
51.6801648838
 21
19.1687296539
 31
0.0
  0
LINE
  5
3D4
330
1F
100
AcDbEntity
  8
0
  6
Continuous
 62
     7
370
    25
100
AcDbLine
 10
51.6801648838
 20
18.5287296631
 30
0.0
 11
47.0474649452
 21
18.5287296631
 31
0.0
  0
LINE
  5
3D5
330
1F
100
AcDbEntity
  8
0
  6
Continuous
 62
     7
370
    25
100
AcDbLine
 10
51.6801648838
 20
19.1687296539
 30
0.0
 11
47.0474649452
 21
19.1687296539
 31
0.0
  0
LINE
  5
3D6
330
1F
100
AcDbEntity
  8
0
  6
Continuous
 62
     7
370
    25
100
AcDbLine
 10
51.6801648838
 20
26.1487295538
 30
0.0
 11
51.6801648838
 21
26.7887295446
 31
0.0
  0
LINE
  5
3D7
330
1F
100
AcDbEntity
  8
0
  6
Continuous
 62
     7
370
    25
100
AcDbLine
 10
51.6801648838
 20
26.1487295538
 30
0.0
 11
47.0474649452
 21
26.1487295538
 31
0.0
  0
LINE
  5
3D8
330
1F
100
AcDbEntity
  8
0
  6
Continuous
 62
     7
370
    25
100
AcDbLine
 10
51.6801648838
 20
26.7887295446
 30
0.0
 11
47.0474649452
 21
26.7887295446
 31
0.0
  0
LINE
  5
3D9
330
1F
100
AcDbEntity
  8
0
  6
Continuous
 62
     7
370
    25
100
AcDbLine
 10
51.6801648838
 20
15.9887296995
 30
0.0
 11
51.6801648838
 21
16.6287296903
 31
0.0
  0
LINE
  5
3DA
330
1F
100
AcDbEntity
  8
0
  6
Continuous
 62
     7
370
    25
100
AcDbLine
 10
51.6801648838
 20
15.9887296995
 30
0.0
 11
47.0474649452
 21
15.9887296995
 31
0.0
  0
LINE
  5
3DB
330
1F
100
AcDbEntity
  8
0
  6
Continuous
 62
     7
370
    25
100
AcDbLine
 10
51.6801648838
 20
16.6287296903
 30
0.0
 11
47.0474649452
 21
16.6287296903
 31
0.0
  0
LINE
  5
3DC
330
1F
100
AcDbEntity
  8
0
  6
Continuous
 62
     7
370
    25
100
AcDbLine
 10
52.1126864281
 20
19.0528358554
 30
0.0
 11
51.6801648838
 21
19.1687296539
 31
0.0
  0
LINE
  5
3DD
330
1F
100
AcDbEntity
  8
0
  6
Continuous
 62
     7
370
    25
100
AcDbLine
 10
51.6801648838
 20
18.5287296631
 30
0.0
 11
52.1126864281
 21
18.6446234616
 31
0.0
  0
LINE
  5
3DE
330
1F
100
AcDbEntity
  8
0
  6
Continuous
 62
     7
370
    25
100
AcDbLine
 10
52.1126864281
 20
26.6728357461
 30
0.0
 11
51.6801648838
 21
26.7887295446
 31
0.0
  0
LINE
  5
3DF
330
1F
100
AcDbEntity
  8
0
  6
Continuous
 62
     7
370
    25
100
AcDbLine
 10
51.6801648838
 20
26.1487295538
 30
0.0
 11
52.1126864281
 21
26.2646233523
 31
0.0
  0
LINE
  5
3E0
330
1F
100
AcDbEntity
  8
0
  6
Continuous
 62
     7
370
    25
100
AcDbLine
 10
47.0786864281
 20
21.7087296175
 30
0.0
 11
47.0474649452
 21
21.7087296175
 31
0.0
  0
LINE
  5
3E1
330
1F
100
AcDbEntity
  8
0
  6
Continuous
 62
     7
370
    25
100
AcDbLine
 10
47.0786864281
 20
21.0687296266
 30
0.0
 11
47.0474649452
 21
21.0687296266
 31
0.0
  0
LINE
  5
3E2
330
1F
100
AcDbEntity
  8
0
  6
Continuous
 62
     7
370
    25
100
AcDbLine
 10
51.6801648838
 20
28.6887295174
 30
0.0
 11
52.1126864281
 21
28.8046233159
 31
0.0
  0
LINE
  5
3E3
330
1F
100
AcDbEntity
  8
0
  6
Continuous
 62
     7
370
    25
100
AcDbLine
 10
52.1126864281
 20
29.2128357097
 30
0.0
 11
51.6801648838
 21
29.3287295082
 31
0.0
  0
LINE
  5
3E4
330
1F
100
AcDbEntity
  8
0
  6
Continuous
 62
     7
370
    25
100
AcDbLine
 10
51.6801648838
 20
15.9887296995
 30
0.0
 11
52.1126864281
 21
16.104623498
 31
0.0
  0
LINE
  5
3E5
330
1F
100
AcDbEntity
  8
0
  6
Continuous
 62
     7
370
    25
100
AcDbLine
 10
52.1126864281
 20
16.5128358918
 30
0.0
 11
51.6801648838
 21
16.6287296903
 31
0.0
  0
LINE
  5
3E6
330
1F
100
AcDbEntity
  8
0
  6
Continuous
 62
     7
370
    25
100
AcDbLine
 10
-114.3181556428
 20
70.8911201862
 30
0.0
 11
-114.3181556428
 21
70.2511201954
 31
0.0
  0
LINE
  5
3E7
330
1F
100
AcDbEntity
  8
0
  6
Continuous
 62
     7
370
    25
100
AcDbLine
 10
-114.3181556428
 20
70.8911201862
 30
0.0
 11
-109.6854557042
 21
70.8911201862
 31
0.0
  0
LINE
  5
3E8
330
1F
100
AcDbEntity
  8
0
  6
Continuous
 62
     7
370
    25
100
AcDbLine
 10
-114.3181556428
 20
70.2511201954
 30
0.0
 11
-109.6854557042
 21
70.2511201954
 31
0.0
  0
LINE
  5
3E9
330
1F
100
AcDbEntity
  8
0
  6
Continuous
 62
     7
370
    25
100
AcDbLine
 10
-114.3181556428
 20
67.7111202318
 30
0.0
 11
-109.6854557042
 21
67.7111202318
 31
0.0
  0
LINE
  5
3EA
330
1F
100
AcDbEntity
  8
0
  6
Continuous
 62
     7
370
    25
100
AcDbLine
 10
-114.3181556428
 20
68.3511202226
 30
0.0
 11
-114.3181556428
 21
67.7111202318
 31
0.0
  0
LINE
  5
3EB
330
1F
100
AcDbEntity
  8
0
  6
Continuous
 62
     7
370
    25
100
AcDbLine
 10
-114.3181556428
 20
68.3511202226
 30
0.0
 11
-109.6854557042
 21
68.3511202226
 31
0.0
  0
LINE
  5
3EC
330
1F
100
AcDbEntity
  8
0
  6
Continuous
 62
     7
370
    25
100
AcDbLine
 10
-114.3181556428
 20
68.3511202226
 30
0.0
 11
-114.7049916253
 21
68.2474678335
 31
0.0
  0
LINE
  5
3ED
330
1F
100
AcDbEntity
  8
0
  6
Continuous
 62
     7
370
    25
100
AcDbLine
 10
-114.7049916253
 20
67.8147726209
 30
0.0
 11
-114.3181556428
 21
67.7111202318
 31
0.0
  0
LINE
  5
3EE
330
1F
100
AcDbEntity
  8
0
  6
Continuous
 62
     7
370
    25
100
AcDbLine
 10
-114.3181556428
 20
57.5511203775
 30
0.0
 11
-109.6854557042
 21
57.5511203775
 31
0.0
  0
LINE
  5
3EF
330
1F
100
AcDbEntity
  8
0
  6
Continuous
 62
     7
370
    25
100
AcDbLine
 10
-114.3181556428
 20
58.1911203683
 30
0.0
 11
-114.3181556428
 21
57.5511203775
 31
0.0
  0
LINE
  5
3F0
330
1F
100
AcDbEntity
  8
0
  6
Continuous
 62
     7
370
    25
100
AcDbLine
 10
-114.3181556428
 20
58.1911203683
 30
0.0
 11
-109.6854557042
 21
58.1911203683
 31
0.0
  0
LINE
  5
3F1
330
1F
100
AcDbEntity
  8
0
  6
Continuous
 62
     7
370
    25
100
AcDbLine
 10
-114.3181556428
 20
70.8911201862
 30
0.0
 11
-114.7049916253
 21
70.7874677971
 31
0.0
  0
LINE
  5
3F2
330
1F
100
AcDbEntity
  8
0
  6
Continuous
 62
     7
370
    25
100
AcDbLine
 10
-114.7049916253
 20
70.3547725845
 30
0.0
 11
-114.3181556428
 21
70.2511201954
 31
0.0
  0
LINE
  5
3F3
330
1F
100
AcDbEntity
  8
0
  6
Continuous
 62
     7
370
    25
100
AcDbLine
 10
-114.3181556428
 20
65.8111202591
 30
0.0
 11
-114.3181556428
 21
65.1711202682
 31
0.0
  0
LINE
  5
3F4
330
1F
100
AcDbEntity
  8
0
  6
Continuous
 62
     7
370
    25
100
AcDbLine
 10
-114.3181556428
 20
65.8111202591
 30
0.0
 11
-114.7049916253
 21
65.70746787
 31
0.0
  0
LINE
  5
3F5
330
1F
100
AcDbEntity
  8
0
  6
Continuous
 62
     7
370
    25
100
AcDbLine
 10
-114.7049916253
 20
65.2747726573
 30
0.0
 11
-114.3181556428
 21
65.1711202682
 31
0.0
  0
LINE
  5
3F6
330
1F
100
AcDbEntity
  8
0
  6
Continuous
 62
     7
370
    25
100
AcDbLine
 10
-114.3181556428
 20
65.8111202591
 30
0.0
 11
-109.6854557042
 21
65.8111202591
 31
0.0
  0
LINE
  5
3F7
330
1F
100
AcDbEntity
  8
0
  6
Continuous
 62
     7
370
    25
100
AcDbLine
 10
-114.3181556428
 20
65.1711202682
 30
0.0
 11
-109.6854557042
 21
65.1711202682
 31
0.0
  0
LINE
  5
3F8
330
1F
100
AcDbEntity
  8
0
  6
Continuous
 62
     7
370
    25
100
AcDbLine
 10
-114.7049916253
 20
57.6547727666
 30
0.0
 11
-114.3181556428
 21
57.5511203775
 31
0.0
  0
LINE
  5
3F9
330
1F
100
AcDbEntity
  8
0
  6
Continuous
 62
     7
370
    25
100
AcDbLine
 10
-114.3181556428
 20
58.1911203683
 30
0.0
 11
-114.7049916253
 21
58.0874679792
 31
0.0
  0
LINE
  5
3FA
330
1F
100
AcDbEntity
  8
0
  6
Continuous
 62
     7
370
    25
100
AcDbLine
 10
45.406718902
 20
-11.3695592633
 30
0.0
 11
44.6007777064
 21
-11.3695592633
 31
0.0
  0
LINE
  5
3FB
330
1F
100
AcDbEntity
  8
0
  6
Continuous
 62
     7
370
    25
100
AcDbLine
 10
45.5251183062
 20
-21.2295591219
 30
0.0
 11
44.6007784464
 21
-21.2295591219
 31
0.0
  0
LINE
  5
3FC
330
1F
100
AcDbEntity
  8
0
  6
Continuous
 62
     7
370
    25
100
AcDbLine
 10
44.666839291
 20
-20.9295591262
 30
0.0
 11
45.3877352582
 21
-20.9295591262
 31
0.0
  0
LINE
  5
3FD
330
1F
100
AcDbEntity
  8
0
  6
Continuous
 62
     7
370
    25
100
AcDbLine
 10
44.6068597075
 20
-10.7695592719
 30
0.0
 11
45.3977123016
 21
-10.7695592719
 31
0.0
  0
LINE
  5
3FE
330
1F
100
AcDbEntity
  8
0
  6
Continuous
 62
     7
370
    25
100
AcDbLine
 10
45.4582730381
 20
-21.5295591176
 30
0.0
 11
44.6007784689
 21
-21.5295591176
 31
0.0
  0
LINE
  5
3FF
330
1F
100
AcDbEntity
  8
0
  6
Continuous
 62
     7
370
    25
100
AcDbLine
 10
44.6007776839
 20
-11.0695592676
 30
0.0
 11
45.5022499631
 21
-11.0695592676
 31
0.0
  0
LINE
  5
400
330
1F
100
AcDbEntity
  8
0
  6
Continuous
 62
     7
370
    25
100
AcDbLine
 10
46.1645542212
 20
-23.7225882652
 30
0.0
 11
46.1645542212
 21
-23.7695590855
 31
0.0
  0
LINE
  5
401
330
1F
100
AcDbEntity
  8
0
  6
Continuous
 62
     7
370
    25
100
AcDbLine
 10
46.1645542212
 20
-23.7695590855
 30
0.0
 11
44.6007786371
 21
-23.7695590855
 31
0.0
  0
LINE
  5
402
330
1F
100
AcDbEntity
  8
0
  6
Continuous
 62
     7
370
    25
100
AcDbLine
 10
44.6007774933
 20
-8.529559304
 30
0.0
 11
46.1645542212
 21
-8.529559304
 31
0.0
  0
LINE
  5
403
330
1F
100
AcDbEntity
  8
0
  6
Continuous
 62
     7
370
    25
100
AcDbLine
 10
46.1645542212
 20
-8.5795593033
 30
0.0
 11
46.1645542212
 21
-8.529559304
 31
0.0
  0
LINE
  5
404
330
1F
100
AcDbEntity
  8
0
  6
Continuous
 62
     7
370
    25
100
AcDbLine
 10
46.1645542212
 20
-8.5795593033
 30
0.0
 11
46.2645542198
 21
-8.5795593033
 31
0.0
  0
LINE
  5
405
330
1F
100
AcDbEntity
  8
0
  6
Continuous
 62
     7
370
    25
100
AcDbLine
 10
46.2645542198
 20
-8.5795593033
 30
0.0
 11
46.2645542198
 21
-8.6730302261
 31
0.0
  0
LINE
  5
406
330
1F
100
AcDbEntity
  8
0
  6
Continuous
 62
     7
370
    25
100
AcDbLine
 10
51.6645541423
 20
-12.019559254
 30
0.0
 11
47.0318542037
 21
-12.019559254
 31
0.0
  0
LINE
  5
407
330
1F
100
AcDbEntity
  8
0
  6
Continuous
 62
     7
370
    25
100
AcDbLine
 10
51.6645541423
 20
-12.6595592448
 30
0.0
 11
51.6645541423
 21
-12.019559254
 31
0.0
  0
LINE
  5
408
330
1F
100
AcDbEntity
  8
0
  6
Continuous
 62
     7
370
    25
100
AcDbLine
 10
51.6645541423
 20
-12.6595592448
 30
0.0
 11
47.0318542037
 21
-12.6595592448
 31
0.0
  0
LINE
  5
409
330
1F
100
AcDbEntity
  8
0
  6
Continuous
 62
     7
370
    25
100
AcDbLine
 10
47.0786864281
 20
-15.1995592084
 30
0.0
 11
47.0318542037
 21
-15.1995592084
 31
0.0
  0
LINE
  5
40A
330
1F
100
AcDbEntity
  8
0
  6
Continuous
 62
     7
370
    25
100
AcDbLine
 10
47.0786864281
 20
-14.5595592175
 30
0.0
 11
47.0318542037
 21
-14.5595592175
 31
0.0
  0
LINE
  5
40B
330
1F
100
AcDbEntity
  8
0
  6
Continuous
 62
     7
370
    25
100
AcDbLine
 10
51.6645541423
 20
-20.2795591355
 30
0.0
 11
51.6645541423
 21
-19.6395591447
 31
0.0
  0
LINE
  5
40C
330
1F
100
AcDbEntity
  8
0
  6
Continuous
 62
     7
370
    25
100
AcDbLine
 10
51.6645541423
 20
-19.6395591447
 30
0.0
 11
47.0318542037
 21
-19.6395591447
 31
0.0
  0
LINE
  5
40D
330
1F
100
AcDbEntity
  8
0
  6
Continuous
 62
     7
370
    25
100
AcDbLine
 10
51.6645541423
 20
-20.2795591355
 30
0.0
 11
47.0318542037
 21
-20.2795591355
 31
0.0
  0
LINE
  5
40E
330
1F
100
AcDbEntity
  8
0
  6
Continuous
 62
     7
370
    25
100
AcDbLine
 10
51.6645541423
 20
-22.1795591083
 30
0.0
 11
47.0318542037
 21
-22.1795591083
 31
0.0
  0
LINE
  5
40F
330
1F
100
AcDbEntity
  8
0
  6
Continuous
 62
     7
370
    25
100
AcDbLine
 10
51.6645541423
 20
-22.8195590991
 30
0.0
 11
51.6645541423
 21
-22.1795591083
 31
0.0
  0
LINE
  5
410
330
1F
100
AcDbEntity
  8
0
  6
Continuous
 62
     7
370
    25
100
AcDbLine
 10
51.6645541423
 20
-22.8195590991
 30
0.0
 11
47.0318542037
 21
-22.8195590991
 31
0.0
  0
LINE
  5
411
330
1F
100
AcDbEntity
  8
0
  6
Continuous
 62
     7
370
    25
100
AcDbLine
 10
51.6645541423
 20
-10.1195592812
 30
0.0
 11
51.6645541423
 21
-9.4795592904
 31
0.0
  0
LINE
  5
412
330
1F
100
AcDbEntity
  8
0
  6
Continuous
 62
     7
370
    25
100
AcDbLine
 10
51.6645541423
 20
-10.1195592812
 30
0.0
 11
47.0318542037
 21
-10.1195592812
 31
0.0
  0
LINE
  5
413
330
1F
100
AcDbEntity
  8
0
  6
Continuous
 62
     7
370
    25
100
AcDbLine
 10
51.6645541423
 20
-9.4795592904
 30
0.0
 11
47.0318542037
 21
-9.4795592904
 31
0.0
  0
LINE
  5
414
330
1F
100
AcDbEntity
  8
0
  6
Continuous
 62
     7
370
    25
100
AcDbLine
 10
51.6645541423
 20
-10.1195592812
 30
0.0
 11
52.1126864281
 21
-9.9994825971
 31
0.0
  0
LINE
  5
415
330
1F
100
AcDbEntity
  8
0
  6
Continuous
 62
     7
370
    25
100
AcDbLine
 10
52.1126864281
 20
-9.5996359745
 30
0.0
 11
51.6645541423
 21
-9.4795592904
 31
0.0
  0
LINE
  5
416
330
1F
100
AcDbEntity
  8
0
  6
Continuous
 62
     7
370
    25
100
AcDbLine
 10
47.0786864281
 20
-17.0995591811
 30
0.0
 11
47.0318542037
 21
-17.0995591811
 31
0.0
  0
LINE
  5
417
330
1F
100
AcDbEntity
  8
0
  6
Continuous
 62
     7
370
    25
100
AcDbLine
 10
47.0786864281
 20
-17.7395591719
 30
0.0
 11
47.0318542037
 21
-17.7395591719
 31
0.0
  0
LINE
  5
418
330
1F
100
AcDbEntity
  8
0
  6
Continuous
 62
     7
370
    25
100
AcDbLine
 10
52.1126864281
 20
-19.7596358288
 30
0.0
 11
51.6645541423
 21
-19.6395591447
 31
0.0
  0
LINE
  5
419
330
1F
100
AcDbEntity
  8
0
  6
Continuous
 62
     7
370
    25
100
AcDbLine
 10
51.6645541423
 20
-20.2795591355
 30
0.0
 11
52.1126864281
 21
-20.1594824514
 31
0.0
  0
LINE
  5
41A
330
1F
100
AcDbEntity
  8
0
  6
Continuous
 62
     7
370
    25
100
AcDbLine
 10
52.1126864281
 20
-12.139635938
 30
0.0
 11
51.6645541423
 21
-12.019559254
 31
0.0
  0
LINE
  5
41B
330
1F
100
AcDbEntity
  8
0
  6
Continuous
 62
     7
370
    25
100
AcDbLine
 10
51.6645541423
 20
-12.6595592448
 30
0.0
 11
52.1126864281
 21
-12.5394825607
 31
0.0
  0
LINE
  5
41C
330
1F
100
AcDbEntity
  8
0
  6
Continuous
 62
     7
370
    25
100
AcDbLine
 10
51.6645541423
 20
-22.8195590991
 30
0.0
 11
52.1126864281
 21
-22.699482415
 31
0.0
  0
LINE
  5
41D
330
1F
100
AcDbEntity
  8
0
  6
Continuous
 62
     7
370
    25
100
AcDbLine
 10
52.1126864281
 20
-22.2996357923
 30
0.0
 11
51.6645541423
 21
-22.1795591083
 31
0.0
  0
LINE
  5
41E
330
1F
100
AcDbEntity
  8
0
  6
Continuous
 62
     7
370
    25
100
AcDbLine
 10
-114.3337663843
 20
31.4428313968
 30
0.0
 11
-109.7010664457
 21
31.4428313968
 31
0.0
  0
LINE
  5
41F
330
1F
100
AcDbEntity
  8
0
  6
Continuous
 62
     7
370
    25
100
AcDbLine
 10
-114.3337663843
 20
32.0828313876
 30
0.0
 11
-114.3337663843
 21
31.4428313968
 31
0.0
  0
LINE
  5
420
330
1F
100
AcDbEntity
  8
0
  6
Continuous
 62
     7
370
    25
100
AcDbLine
 10
-114.3337663843
 20
32.0828313876
 30
0.0
 11
-109.7010664457
 21
32.0828313876
 31
0.0
  0
LINE
  5
421
330
1F
100
AcDbEntity
  8
0
  6
Continuous
 62
     7
370
    25
100
AcDbLine
 10
-114.3337663843
 20
29.5428314241
 30
0.0
 11
-114.3337663843
 21
28.9028314332
 31
0.0
  0
LINE
  5
422
330
1F
100
AcDbEntity
  8
0
  6
Continuous
 62
     7
370
    25
100
AcDbLine
 10
-114.3337663843
 20
29.5428314241
 30
0.0
 11
-109.7010664457
 21
29.5428314241
 31
0.0
  0
LINE
  5
423
330
1F
100
AcDbEntity
  8
0
  6
Continuous
 62
     7
370
    25
100
AcDbLine
 10
-114.3337663843
 20
28.9028314332
 30
0.0
 11
-109.7010664457
 21
28.9028314332
 31
0.0
  0
LINE
  5
424
330
1F
100
AcDbEntity
  8
0
  6
Continuous
 62
     7
370
    25
100
AcDbLine
 10
-114.3337663843
 20
18.7428315789
 30
0.0
 11
-109.7010664457
 21
18.7428315789
 31
0.0
  0
LINE
  5
425
330
1F
100
AcDbEntity
  8
0
  6
Continuous
 62
     7
370
    25
100
AcDbLine
 10
-114.3337663843
 20
19.3828315698
 30
0.0
 11
-114.3337663843
 21
18.7428315789
 31
0.0
  0
LINE
  5
426
330
1F
100
AcDbEntity
  8
0
  6
Continuous
 62
     7
370
    25
100
AcDbLine
 10
-114.3337663843
 20
19.3828315698
 30
0.0
 11
-109.7010664457
 21
19.3828315698
 31
0.0
  0
LINE
  5
427
330
1F
100
AcDbEntity
  8
0
  6
Continuous
 62
     7
370
    25
100
AcDbLine
 10
-114.3337663843
 20
32.0828313876
 30
0.0
 11
-114.7049916253
 21
31.9833618841
 31
0.0
  0
LINE
  5
428
330
1F
100
AcDbEntity
  8
0
  6
Continuous
 62
     7
370
    25
100
AcDbLine
 10
-114.7049916253
 20
31.5423009003
 30
0.0
 11
-114.3337663843
 21
31.4428313968
 31
0.0
  0
LINE
  5
429
330
1F
100
AcDbEntity
  8
0
  6
Continuous
 62
     7
370
    25
100
AcDbLine
 10
-114.7049916253
 20
29.0023009368
 30
0.0
 11
-114.3337663843
 21
28.9028314332
 31
0.0
  0
LINE
  5
42A
330
1F
100
AcDbEntity
  8
0
  6
Continuous
 62
     7
370
    25
100
AcDbLine
 10
-114.3337663843
 20
29.5428314241
 30
0.0
 11
-114.7049916253
 21
29.4433619205
 31
0.0
  0
LINE
  5
42B
330
1F
100
AcDbEntity
  8
0
  6
Continuous
 62
     7
370
    25
100
AcDbLine
 10
-114.3337663843
 20
27.0028314605
 30
0.0
 11
-114.3337663843
 21
26.3628314697
 31
0.0
  0
LINE
  5
42C
330
1F
100
AcDbEntity
  8
0
  6
Continuous
 62
     7
370
    25
100
AcDbLine
 10
-114.3337663843
 20
27.0028314605
 30
0.0
 11
-109.7010664457
 21
27.0028314605
 31
0.0
  0
LINE
  5
42D
330
1F
100
AcDbEntity
  8
0
  6
Continuous
 62
     7
370
    25
100
AcDbLine
 10
-114.3337663843
 20
26.3628314697
 30
0.0
 11
-109.7010664457
 21
26.3628314697
 31
0.0
  0
LINE
  5
42E
330
1F
100
AcDbEntity
  8
0
  6
Continuous
 62
     7
370
    25
100
AcDbLine
 10
-114.3337663843
 20
27.0028314605
 30
0.0
 11
-114.7049916253
 21
26.903361957
 31
0.0
  0
LINE
  5
42F
330
1F
100
AcDbEntity
  8
0
  6
Continuous
 62
     7
370
    25
100
AcDbLine
 10
-114.7049916253
 20
26.4623009732
 30
0.0
 11
-114.3337663843
 21
26.3628314697
 31
0.0
  0
LINE
  5
430
330
1F
100
AcDbEntity
  8
0
  6
Continuous
 62
     7
370
    25
100
AcDbLine
 10
-114.7049916253
 20
18.8423010825
 30
0.0
 11
-114.3337663843
 21
18.7428315789
 31
0.0
  0
LINE
  5
431
330
1F
100
AcDbEntity
  8
0
  6
Continuous
 62
     7
370
    25
100
AcDbLine
 10
-114.3337663843
 20
19.3828315698
 30
0.0
 11
-114.7049916253
 21
19.2833620662
 31
0.0
  0
LINE
  5
432
330
1F
100
AcDbEntity
  8
0
  6
Continuous
 62
     7
370
    25
100
AcDbLine
 10
45.4535511264
 20
105.0553071324
 30
0.0
 11
44.6446853315
 21
105.0553071324
 31
0.0
  0
LINE
  5
433
330
1F
100
AcDbEntity
  8
0
  6
Continuous
 62
     7
370
    25
100
AcDbLine
 10
44.6536919319
 20
105.6553071238
 30
0.0
 11
45.444544526
 21
105.6553071238
 31
0.0
  0
LINE
  5
434
330
1F
100
AcDbEntity
  8
0
  6
Continuous
 62
     7
370
    25
100
AcDbLine
 10
44.6007689459
 20
105.3553071281
 30
0.0
 11
45.5490821875
 21
105.3553071281
 31
0.0
  0
LINE
  5
435
330
1F
100
AcDbEntity
  8
0
  6
Continuous
 62
     7
370
    25
100
AcDbLine
 10
44.7136715154
 20
95.4953072695
 30
0.0
 11
45.4345674825
 21
95.4953072695
 31
0.0
  0
LINE
  5
436
330
1F
100
AcDbEntity
  8
0
  6
Continuous
 62
     7
370
    25
100
AcDbLine
 10
45.5051052625
 20
94.8953072781
 30
0.0
 11
44.6431337354
 21
94.8953072781
 31
0.0
  0
LINE
  5
437
330
1F
100
AcDbEntity
  8
0
  6
Continuous
 62
     7
370
    25
100
AcDbLine
 10
45.5719505306
 20
95.1953072738
 30
0.0
 11
44.6007697085
 21
95.1953072738
 31
0.0
  0
LINE
  5
438
330
1F
100
AcDbEntity
  8
0
  6
Continuous
 62
     7
370
    25
100
AcDbLine
 10
46.2113864456
 20
92.7022781305
 30
0.0
 11
46.2113864456
 21
92.6553073103
 31
0.0
  0
LINE
  5
439
330
1F
100
AcDbEntity
  8
0
  6
Continuous
 62
     7
370
    25
100
AcDbLine
 10
46.2113864456
 20
92.6553073103
 30
0.0
 11
44.6007698991
 21
92.6553073103
 31
0.0
  0
LINE
  5
43A
330
1F
100
AcDbEntity
  8
0
  6
Continuous
 62
     7
370
    25
100
AcDbLine
 10
44.6007687553
 20
107.8953070917
 30
0.0
 11
46.2113864456
 21
107.8953070917
 31
0.0
  0
LINE
  5
43B
330
1F
100
AcDbEntity
  8
0
  6
Continuous
 62
     7
370
    25
100
AcDbLine
 10
46.2113864456
 20
107.8453070924
 30
0.0
 11
46.2113864456
 21
107.8953070917
 31
0.0
  0
LINE
  5
43C
330
1F
100
AcDbEntity
  8
0
  6
Continuous
 62
     7
370
    25
100
AcDbLine
 10
46.2113864456
 20
107.8453070924
 30
0.0
 11
46.3113864442
 21
107.8453070924
 31
0.0
  0
LINE
  5
43D
330
1F
100
AcDbEntity
  8
0
  6
Continuous
 62
     7
370
    25
100
AcDbLine
 10
46.3113864442
 20
107.8453070924
 30
0.0
 11
46.3113864442
 21
107.7518361697
 31
0.0
  0
LINE
  5
43E
330
1F
100
AcDbEntity
  8
0
  6
Continuous
 62
     7
370
    25
100
AcDbLine
 10
51.7113863667
 20
93.6053072966
 30
0.0
 11
51.7113863667
 21
94.2453072874
 31
0.0
  0
LINE
  5
43F
330
1F
100
AcDbEntity
  8
0
  6
Continuous
 62
     7
370
    25
100
AcDbLine
 10
51.7113863667
 20
93.6053072966
 30
0.0
 11
47.0786864281
 21
93.6053072966
 31
0.0
  0
LINE
  5
440
330
1F
100
AcDbEntity
  8
0
  6
Continuous
 62
     7
370
    25
100
AcDbLine
 10
51.7113863667
 20
94.2453072874
 30
0.0
 11
47.0786864281
 21
94.2453072874
 31
0.0
  0
LINE
  5
441
330
1F
100
AcDbEntity
  8
0
  6
Continuous
 62
     7
370
    25
100
AcDbLine
 10
51.7113863667
 20
106.9453071053
 30
0.0
 11
47.0786864281
 21
106.9453071053
 31
0.0
  0
LINE
  5
442
330
1F
100
AcDbEntity
  8
0
  6
Continuous
 62
     7
370
    25
100
AcDbLine
 10
51.7113863667
 20
106.3053071145
 30
0.0
 11
51.7113863667
 21
106.9453071053
 31
0.0
  0
LINE
  5
443
330
1F
100
AcDbEntity
  8
0
  6
Continuous
 62
     7
370
    25
100
AcDbLine
 10
51.7113863667
 20
106.3053071145
 30
0.0
 11
47.0786864281
 21
106.3053071145
 31
0.0
  0
LINE
  5
444
330
1F
100
AcDbEntity
  8
0
  6
Continuous
 62
     7
370
    25
100
AcDbLine
 10
51.7113863667
 20
103.7653071509
 30
0.0
 11
51.7113863667
 21
104.4053071417
 31
0.0
  0
LINE
  5
445
330
1F
100
AcDbEntity
  8
0
  6
Continuous
 62
     7
370
    25
100
AcDbLine
 10
51.7113863667
 20
104.4053071417
 30
0.0
 11
47.0786864281
 21
104.4053071417
 31
0.0
  0
LINE
  5
446
330
1F
100
AcDbEntity
  8
0
  6
Continuous
 62
     7
370
    25
100
AcDbLine
 10
51.7113863667
 20
103.7653071509
 30
0.0
 11
47.0786864281
 21
103.7653071509
 31
0.0
  0
LINE
  5
447
330
1F
100
AcDbEntity
  8
0
  6
Continuous
 62
     7
370
    25
100
AcDbLine
 10
51.7113863667
 20
96.1453072602
 30
0.0
 11
51.7113863667
 21
96.785307251
 31
0.0
  0
LINE
  5
448
330
1F
100
AcDbEntity
  8
0
  6
Continuous
 62
     7
370
    25
100
AcDbLine
 10
51.7113863667
 20
96.1453072602
 30
0.0
 11
47.0786864281
 21
96.1453072602
 31
0.0
  0
LINE
  5
449
330
1F
100
AcDbEntity
  8
0
  6
Continuous
 62
     7
370
    25
100
AcDbLine
 10
51.7113863667
 20
96.785307251
 30
0.0
 11
47.0786864281
 21
96.785307251
 31
0.0
  0
LINE
  5
44A
330
1F
100
AcDbEntity
  8
0
  6
Continuous
 62
     7
370
    25
100
AcDbLine
 10
52.1126864281
 20
106.837779078
 30
0.0
 11
51.7113863667
 21
106.9453071053
 31
0.0
  0
LINE
  5
44B
330
1F
100
AcDbEntity
  8
0
  6
Continuous
 62
     7
370
    25
100
AcDbLine
 10
51.7113863667
 20
106.3053071145
 30
0.0
 11
52.1126864281
 21
106.4128351419
 31
0.0
  0
LINE
  5
44C
330
1F
100
AcDbEntity
  8
0
  6
Continuous
 62
     7
370
    25
100
AcDbLine
 10
51.7113863667
 20
103.7653071509
 30
0.0
 11
52.1126864281
 21
103.8728351783
 31
0.0
  0
LINE
  5
44D
330
1F
100
AcDbEntity
  8
0
  6
Continuous
 62
     7
370
    25
100
AcDbLine
 10
52.1126864281
 20
104.2977791144
 30
0.0
 11
51.7113863667
 21
104.4053071417
 31
0.0
  0
LINE
  5
44E
330
1F
100
AcDbEntity
  8
0
  6
Continuous
 62
     7
370
    25
100
AcDbLine
 10
51.7113863667
 20
96.1453072602
 30
0.0
 11
52.1126864281
 21
96.2528352876
 31
0.0
  0
LINE
  5
44F
330
1F
100
AcDbEntity
  8
0
  6
Continuous
 62
     7
370
    25
100
AcDbLine
 10
52.1126864281
 20
96.6777792237
 30
0.0
 11
51.7113863667
 21
96.785307251
 31
0.0
  0
LINE
  5
450
330
1F
100
AcDbEntity
  8
0
  6
Continuous
 62
     7
370
    25
100
AcDbLine
 10
51.7113863667
 20
93.6053072966
 30
0.0
 11
52.1126864281
 21
93.712835324
 31
0.0
  0
LINE
  5
451
330
1F
100
AcDbEntity
  8
0
  6
Continuous
 62
     7
370
    25
100
AcDbLine
 10
52.1126864281
 20
94.1377792601
 30
0.0
 11
51.7113863667
 21
94.2453072874
 31
0.0
  0
LINE
  5
452
330
1F
100
AcDbEntity
  8
0
  6
Continuous
 62
     7
370
    25
100
AcDbLine
 10
45.4379403849
 20
66.2470183339
 30
0.0
 11
44.6290745901
 21
66.2470183339
 31
0.0
  0
LINE
  5
453
330
1F
100
AcDbEntity
  8
0
  6
Continuous
 62
     7
370
    25
100
AcDbLine
 10
45.5563397891
 20
56.3870184753
 30
0.0
 11
44.6007726211
 21
56.3870184753
 31
0.0
  0
LINE
  5
454
330
1F
100
AcDbEntity
  8
0
  6
Continuous
 62
     7
370
    25
100
AcDbLine
 10
44.6980607739
 20
56.687018471
 30
0.0
 11
45.4189567411
 21
56.687018471
 31
0.0
  0
LINE
  5
455
330
1F
100
AcDbEntity
  8
0
  6
Continuous
 62
     7
370
    25
100
AcDbLine
 10
45.4894945211
 20
56.0870184796
 30
0.0
 11
44.6275229939
 21
56.0870184796
 31
0.0
  0
LINE
  5
456
330
1F
100
AcDbEntity
  8
0
  6
Continuous
 62
     7
370
    25
100
AcDbLine
 10
44.6380811905
 20
66.8470183252
 30
0.0
 11
45.4289337845
 21
66.8470183252
 31
0.0
  0
LINE
  5
457
330
1F
100
AcDbEntity
  8
0
  6
Continuous
 62
     7
370
    25
100
AcDbLine
 10
44.6007718586
 20
66.5470183296
 30
0.0
 11
45.5334714461
 21
66.5470183296
 31
0.0
  0
LINE
  5
458
330
1F
100
AcDbEntity
  8
0
  6
Continuous
 62
     7
370
    25
100
AcDbLine
 10
44.600771668
 20
69.0870182931
 30
0.0
 11
46.1957757041
 21
69.0870182931
 31
0.0
  0
LINE
  5
459
330
1F
100
AcDbEntity
  8
0
  6
Continuous
 62
     7
370
    25
100
AcDbLine
 10
46.1957757041
 20
69.0370182938
 30
0.0
 11
46.1957757041
 21
69.0870182931
 31
0.0
  0
LINE
  5
45A
330
1F
100
AcDbEntity
  8
0
  6
Continuous
 62
     7
370
    25
100
AcDbLine
 10
46.1957757041
 20
69.0370182938
 30
0.0
 11
46.2957757027
 21
69.0370182938
 31
0.0
  0
LINE
  5
45B
330
1F
100
AcDbEntity
  8
0
  6
Continuous
 62
     7
370
    25
100
AcDbLine
 10
46.2957757027
 20
69.0370182938
 30
0.0
 11
46.2957757027
 21
68.9435473711
 31
0.0
  0
LINE
  5
45C
330
1F
100
AcDbEntity
  8
0
  6
Continuous
 62
     7
370
    25
100
AcDbLine
 10
46.1957757041
 20
53.893989332
 30
0.0
 11
46.1957757041
 21
53.8470185117
 31
0.0
  0
LINE
  5
45D
330
1F
100
AcDbEntity
  8
0
  6
Continuous
 62
     7
370
    25
100
AcDbLine
 10
46.1957757041
 20
53.8470185117
 30
0.0
 11
44.6007728118
 21
53.8470185117
 31
0.0
  0
LINE
  5
45E
330
1F
100
AcDbEntity
  8
0
  6
Continuous
 62
     7
370
    25
100
AcDbLine
 10
47.0786864281
 20
63.0570183796
 30
0.0
 11
47.0630756866
 21
63.0570183796
 31
0.0
  0
LINE
  5
45F
330
1F
100
AcDbEntity
  8
0
  6
Continuous
 62
     7
370
    25
100
AcDbLine
 10
47.0786864281
 20
62.4170183888
 30
0.0
 11
47.0630756866
 21
62.4170183888
 31
0.0
  0
LINE
  5
460
330
1F
100
AcDbEntity
  8
0
  6
Continuous
 62
     7
370
    25
100
AcDbLine
 10
51.6957756253
 20
57.3370184616
 30
0.0
 11
51.6957756253
 21
57.9770184525
 31
0.0
  0
LINE
  5
461
330
1F
100
AcDbEntity
  8
0
  6
Continuous
 62
     7
370
    25
100
AcDbLine
 10
51.6957756253
 20
57.9770184525
 30
0.0
 11
47.0630756866
 21
57.9770184525
 31
0.0
  0
LINE
  5
462
330
1F
100
AcDbEntity
  8
0
  6
Continuous
 62
     7
370
    25
100
AcDbLine
 10
51.6957756253
 20
57.3370184616
 30
0.0
 11
47.0630756866
 21
57.3370184616
 31
0.0
  0
LINE
  5
463
330
1F
100
AcDbEntity
  8
0
  6
Continuous
 62
     7
370
    25
100
AcDbLine
 10
51.6957756253
 20
64.9570183524
 30
0.0
 11
51.6957756253
 21
65.5970183432
 31
0.0
  0
LINE
  5
464
330
1F
100
AcDbEntity
  8
0
  6
Continuous
 62
     7
370
    25
100
AcDbLine
 10
51.6957756253
 20
64.9570183524
 30
0.0
 11
47.0630756866
 21
64.9570183524
 31
0.0
  0
LINE
  5
465
330
1F
100
AcDbEntity
  8
0
  6
Continuous
 62
     7
370
    25
100
AcDbLine
 10
51.6957756253
 20
65.5970183432
 30
0.0
 11
47.0630756866
 21
65.5970183432
 31
0.0
  0
LINE
  5
466
330
1F
100
AcDbEntity
  8
0
  6
Continuous
 62
     7
370
    25
100
AcDbLine
 10
51.6957756253
 20
54.7970184981
 30
0.0
 11
51.6957756253
 21
55.4370184889
 31
0.0
  0
LINE
  5
467
330
1F
100
AcDbEntity
  8
0
  6
Continuous
 62
     7
370
    25
100
AcDbLine
 10
51.6957756253
 20
54.7970184981
 30
0.0
 11
47.0630756866
 21
54.7970184981
 31
0.0
  0
LINE
  5
468
330
1F
100
AcDbEntity
  8
0
  6
Continuous
 62
     7
370
    25
100
AcDbLine
 10
51.6957756253
 20
55.4370184889
 30
0.0
 11
47.0630756866
 21
55.4370184889
 31
0.0
  0
LINE
  5
469
330
1F
100
AcDbEntity
  8
0
  6
Continuous
 62
     7
370
    25
100
AcDbLine
 10
51.6957756253
 20
67.4970183159
 30
0.0
 11
51.6957756253
 21
68.1370183067
 31
0.0
  0
LINE
  5
46A
330
1F
100
AcDbEntity
  8
0
  6
Continuous
 62
     7
370
    25
100
AcDbLine
 10
51.6957756253
 20
67.4970183159
 30
0.0
 11
47.0630756866
 21
67.4970183159
 31
0.0
  0
LINE
  5
46B
330
1F
100
AcDbEntity
  8
0
  6
Continuous
 62
     7
370
    25
100
AcDbLine
 10
51.6957756253
 20
68.1370183067
 30
0.0
 11
47.0630756866
 21
68.1370183067
 31
0.0
  0
LINE
  5
46C
330
1F
100
AcDbEntity
  8
0
  6
Continuous
 62
     7
370
    25
100
AcDbLine
 10
47.0786864281
 20
60.517018416
 30
0.0
 11
47.0630756866
 21
60.517018416
 31
0.0
  0
LINE
  5
46D
330
1F
100
AcDbEntity
  8
0
  6
Continuous
 62
     7
370
    25
100
AcDbLine
 10
47.0786864281
 20
59.8770184252
 30
0.0
 11
47.0630756866
 21
59.8770184252
 31
0.0
  0
LINE
  5
46E
330
1F
100
AcDbEntity
  8
0
  6
Continuous
 62
     7
370
    25
100
AcDbLine
 10
51.6957756253
 20
67.4970183159
 30
0.0
 11
52.1126864281
 21
67.6087292289
 31
0.0
  0
LINE
  5
46F
330
1F
100
AcDbEntity
  8
0
  6
Continuous
 62
     7
370
    25
100
AcDbLine
 10
52.1126864281
 20
68.0253073938
 30
0.0
 11
51.6957756253
 21
68.1370183067
 31
0.0
  0
LINE
  5
470
330
1F
100
AcDbEntity
  8
0
  6
Continuous
 62
     7
370
    25
100
AcDbLine
 10
51.6957756253
 20
57.3370184616
 30
0.0
 11
52.1126864281
 21
57.4487293746
 31
0.0
  0
LINE
  5
471
330
1F
100
AcDbEntity
  8
0
  6
Continuous
 62
     7
370
    25
100
AcDbLine
 10
52.1126864281
 20
57.8653075395
 30
0.0
 11
51.6957756253
 21
57.9770184525
 31
0.0
  0
LINE
  5
472
330
1F
100
AcDbEntity
  8
0
  6
Continuous
 62
     7
370
    25
100
AcDbLine
 10
52.1126864281
 20
65.4853074302
 30
0.0
 11
51.6957756253
 21
65.5970183432
 31
0.0
  0
LINE
  5
473
330
1F
100
AcDbEntity
  8
0
  6
Continuous
 62
     7
370
    25
100
AcDbLine
 10
51.6957756253
 20
64.9570183524
 30
0.0
 11
52.1126864281
 21
65.0687292653
 31
0.0
  0
LINE
  5
474
330
1F
100
AcDbEntity
  8
0
  6
Continuous
 62
     7
370
    25
100
AcDbLine
 10
52.1126864281
 20
55.3253075759
 30
0.0
 11
51.6957756253
 21
55.4370184889
 31
0.0
  0
LINE
  5
475
330
1F
100
AcDbEntity
  8
0
  6
Continuous
 62
     7
370
    25
100
AcDbLine
 10
51.6957756253
 20
54.7970184981
 30
0.0
 11
52.1126864281
 21
54.908729411
 31
0.0
  0
ARC
  5
476
330
1F
100
AcDbEntity
  8
0
  6
Continuous
 62
     7
370
    25
100
AcDbCircle
 10
39.6007793613
 20
-33.4199322426
 30
0.0
 40
5.000000000000007
100
AcDbArc
 50
270.0000043002
 51
0.0000043002
  0
ARC
  5
477
330
1F
100
AcDbEntity
  8
0
  6
Continuous
 62
     7
370
    25
100
AcDbCircle
 10
-104.0476955035
 20
-33.4199430238
 30
0.0
 40
5.000000000000028
100
AcDbArc
 50
180.0000043002
 51
270.0000043002
  0
ARC
  5
478
330
1F
100
AcDbEntity
  8
0
  6
Continuous
 62
     7
370
    25
100
AcDbCircle
 10
-104.0477070405
 20
120.2997719615
 30
0.0
 40
4.999999999999986
100
AcDbArc
 50
90.0000043002
 51
180.0000043002
  0
ARC
  5
479
330
1F
100
AcDbEntity
  8
0
  6
Continuous
 62
     7
370
    25
100
AcDbCircle
 10
39.6007678243
 20
120.2997827426
 30
0.0
 40
5.000000000000071
100
AcDbArc
 50
0.0000043002
 51
90.0000043002
  0
ARC
  5
47A
330
1F
100
AcDbEntity
  8
0
  6
Continuous
 62
     7
370
    25
100
AcDbCircle
 10
45.049118229
 20
105.3493037846
 30
0.0
 40
0.5000000000000036
100
AcDbArc
 50
206.2725587786
 51
153.7274498218
  0
ARC
  5
47B
330
1F
100
AcDbEntity
  8
0
  6
Continuous
 62
     7
370
    25
100
AcDbCircle
 10
45.074119499
 20
95.1487856236
 30
0.0
 40
0.5000000000000078
100
AcDbArc
 50
198.7910569177
 51
161.2089516827
  0
ARC
  5
47C
330
1F
100
AcDbEntity
  8
0
  6
Continuous
 62
     7
370
    25
100
AcDbCircle
 10
45.042898016
 20
17.5322080264
 30
0.0
 40
0.5000000000000112
100
AcDbArc
 50
207.841256041
 51
152.1587525594
  0
ARC
  5
47D
330
1F
100
AcDbEntity
  8
0
  6
Continuous
 62
     7
370
    25
100
AcDbCircle
 10
45.017896746
 20
27.7327261875
 30
0.0
 40
0.5000000000000085
100
AcDbArc
 50
213.4628094526
 51
146.5371991478
  0
ARC
  5
47E
330
1F
100
AcDbEntity
  8
0
  6
Continuous
 62
     7
370
    25
100
AcDbCircle
 10
45.0585087575
 20
56.340496825
 30
0.0
 40
0.5000000000000092
100
AcDbArc
 50
203.7271199921
 51
156.2728886083
  0
ARC
  5
47F
330
1F
100
AcDbEntity
  8
0
  6
Continuous
 62
     7
370
    25
100
AcDbCircle
 10
45.0335074875
 20
66.541014986
 30
0.0
 40
0.5000000000000213
100
AcDbArc
 50
210.0634440356
 51
149.9365645647
  0
ARC
  5
480
330
1F
100
AcDbEntity
  8
0
  6
Continuous
 62
     7
370
    25
100
AcDbCircle
 10
45.0022860046
 20
-11.0755626111
 30
0.0
 40
0.5000000000000079
100
AcDbArc
 50
216.0147359306
 51
143.4191479092
  0
ARC
  5
481
330
1F
100
AcDbEntity
  8
0
  6
Continuous
 62
     7
370
    25
100
AcDbCircle
 10
45.0272872746
 20
-21.2760807722
 30
0.0
 40
0.500000000000015
100
AcDbArc
 50
210.4613282174
 51
148.5414227108
  0
ENDSEC
  0
SECTION
  2
OBJECTS
  0
DICTIONARY
  5
C
330
0
100
AcDbDictionary
281
     1
  3
ACAD_GROUP
350
D
  3
ACAD_LAYOUT
350
1A
  3
ACAD_MLINESTYLE
350
17
  3
ACAD_PLOTSETTINGS
350
19
  3
ACAD_PLOTSTYLENAME
350
E
  3
ACAD_SCALELIST
350
47
  3
DWGPROPS
350
482
  0
DICTIONARY
  5
D
102
{ACAD_REACTORS
330
C
102
}
330
C
100
AcDbDictionary
281
     1
  0
DICTIONARY
  5
1A
102
{ACAD_REACTORS
330
C
102
}
330
C
100
AcDbDictionary
281
     1
  3
Layout1
350
1E
  3
Layout2
350
26
  3
Model
350
22
  0
DICTIONARY
  5
17
102
{ACAD_REACTORS
330
C
102
}
330
C
100
AcDbDictionary
281
     1
  3
Standard
350
18
  0
DICTIONARY
  5
19
102
{ACAD_REACTORS
330
C
102
}
330
C
100
AcDbDictionary
281
     1
  0
ACDBDICTIONARYWDFLT
  5
E
102
{ACAD_REACTORS
330
C
102
}
330
C
100
AcDbDictionary
281
     1
  3
Normal
350
F
100
AcDbDictionaryWithDefault
340
F
  0
DICTIONARY
  5
47
102
{ACAD_REACTORS
330
C
102
}
330
C
100
AcDbDictionary
281
     1
  3
A0
350
48
  3
A1
350
49
  3
A2
350
4A
  3
A3
350
4B
  3
A4
350
4C
  3
A5
350
4D
  3
A6
350
4E
  3
A7
350
4F
  3
A8
350
50
  3
A9
350
51
  3
B0
350
52
  3
B1
350
53
  3
B2
350
54
  3
B3
350
55
  3
B4
350
56
  3
B5
350
57
  3
B6
350
58
  0
XRECORD
  5
482
102
{ACAD_REACTORS
330
C
102
}
330
C
100
AcDbXrecord
280
     1
  1
DWGPROPS COOKIE
  2

  3

  4

  6

  7

  8
misaka10039
  9

300
=
301
=
302
=
303
=
304
=
305
=
306
=
307
=
308
=
309
=
 40
0.0
 41
2460934.064563449
 42
2460934.064633079
  1

 90
        0
  0
LAYOUT
  5
1E
102
{ACAD_REACTORS
330
1A
102
}
330
1A
100
AcDbPlotSettings
  1

  2
none_device
  4

  6

 40
0.0
 41
0.0
 42
0.0
 43
0.0
 44
0.0
 45
0.0
 46
0.0
 47
0.0
 48
0.0
 49
0.0
140
0.0
141
0.0
142
1.0
143
1.0
 70
   688
 72
     1
 73
     0
 74
     5
  7

 75
    16
147
1.0
148
0.0
149
0.0
100
AcDbLayout
  1
Layout1
 70
     1
 71
     1
 10
0.0
 20
0.0
 11
420.0
 21
297.0
 12
0.0
 22
0.0
 32
0.0
 14
1.0000000000E+20
 24
1.0000000000E+20
 34
1.0000000000E+20
 15
-1.0000000000E+20
 25
-1.0000000000E+20
 35
-1.0000000000E+20
146
0.0
 13
0.0
 23
0.0
 33
0.0
 16
1.0
 26
0.0
 36
0.0
 17
0.0
 27
1.0
 37
0.0
 76
     0
330
1B
  0
LAYOUT
  5
26
102
{ACAD_REACTORS
330
1A
102
}
330
1A
100
AcDbPlotSettings
  1

  2
none_device
  4

  6

 40
0.0
 41
0.0
 42
0.0
 43
0.0
 44
0.0
 45
0.0
 46
0.0
 47
0.0
 48
0.0
 49
0.0
140
0.0
141
0.0
142
1.0
143
1.0
 70
   688
 72
     1
 73
     0
 74
     5
  7

 75
    16
147
1.0
148
0.0
149
0.0
100
AcDbLayout
  1
Layout2
 70
     1
 71
     2
 10
0.0
 20
0.0
 11
0.0
 21
0.0
 12
0.0
 22
0.0
 32
0.0
 14
0.0
 24
0.0
 34
0.0
 15
0.0
 25
0.0
 35
0.0
146
0.0
 13
0.0
 23
0.0
 33
0.0
 16
1.0
 26
0.0
 36
0.0
 17
0.0
 27
1.0
 37
0.0
 76
     0
330
23
  0
LAYOUT
  5
22
102
{ACAD_REACTORS
330
1A
102
}
330
1A
100
AcDbPlotSettings
  1

  2
none_device
  4
ANSI_A_(11.00_x_8.50_Inches)
  6

 40
6.35
 41
19.05
 42
6.35000508
 43
19.05000254
 44
279.4
 45
215.9
 46
174.2080609662
 47
32.187883759
 48
0.0
 49
0.0
140
0.0
141
0.0
142
0.0513988156
143
1.0
 70
  1696
 72
     0
 73
     0
 74
     0
  7

 75
     0
147
0.0179189148
148
-1300.4909072572
149
0.0
100
AcDbLayout
  1
Model
 70
     1
 71
     0
 10
0.0
 20
0.0
 11
420.0
 21
297.0
 12
0.0
 22
0.0
 32
0.0
 14
-119.6749916253
 24
-38.4199430238
 34
0.0
 15
57.0826864281
 25
125.2997827426
 35
0.0
146
0.0
 13
0.0
 23
0.0
 33
0.0
 16
1.0
 26
0.0
 36
0.0
 17
0.0
 27
1.0
 37
0.0
 76
     0
330
1F
331
29
  0
MLINESTYLE
  5
18
102
{ACAD_REACTORS
330
17
102
}
330
17
100
AcDbMlineStyle
  2
Standard
 70
     0
  3

 62
   256
 51
90.0
 52
90.0
 71
     2
 49
0.5
 62
   256
  6
BYLAYER
 49
-0.5
 62
   256
  6
BYLAYER
  0
ACDBPLACEHOLDER
  5
F
102
{ACAD_REACTORS
330
E
102
}
330
E
  0
SCALE
  5
48
102
{ACAD_REACTORS
330
47
102
}
330
47
100
AcDbScale
 70
     0
300
1:1
140
1.0
141
1.0
290
     1
  0
SCALE
  5
49
102
{ACAD_REACTORS
330
47
102
}
330
47
100
AcDbScale
 70
     0
300
1:2
140
1.0
141
2.0
290
     0
  0
SCALE
  5
4A
102
{ACAD_REACTORS
330
47
102
}
330
47
100
AcDbScale
 70
     0
300
1:4
140
1.0
141
4.0
290
     0
  0
SCALE
  5
4B
102
{ACAD_REACTORS
330
47
102
}
330
47
100
AcDbScale
 70
     0
300
1:5
140
1.0
141
5.0
290
     0
  0
SCALE
  5
4C
102
{ACAD_REACTORS
330
47
102
}
330
47
100
AcDbScale
 70
     0
300
1:8
140
1.0
141
8.0
290
     0
  0
SCALE
  5
4D
102
{ACAD_REACTORS
330
47
102
}
330
47
100
AcDbScale
 70
     0
300
1:10
140
1.0
141
10.0
290
     0
  0
SCALE
  5
4E
102
{ACAD_REACTORS
330
47
102
}
330
47
100
AcDbScale
 70
     0
300
1:16
140
1.0
141
16.0
290
     0
  0
SCALE
  5
4F
102
{ACAD_REACTORS
330
47
102
}
330
47
100
AcDbScale
 70
     0
300
1:20
140
1.0
141
20.0
290
     0
  0
SCALE
  5
50
102
{ACAD_REACTORS
330
47
102
}
330
47
100
AcDbScale
 70
     0
300
1:30
140
1.0
141
30.0
290
     0
  0
SCALE
  5
51
102
{ACAD_REACTORS
330
47
102
}
330
47
100
AcDbScale
 70
     0
300
1:40
140
1.0
141
40.0
290
     0
  0
SCALE
  5
52
102
{ACAD_REACTORS
330
47
102
}
330
47
100
AcDbScale
 70
     0
300
1:50
140
1.0
141
50.0
290
     0
  0
SCALE
  5
53
102
{ACAD_REACTORS
330
47
102
}
330
47
100
AcDbScale
 70
     0
300
1:100
140
1.0
141
100.0
290
     0
  0
SCALE
  5
54
102
{ACAD_REACTORS
330
47
102
}
330
47
100
AcDbScale
 70
     0
300
2:1
140
2.0
141
1.0
290
     0
  0
SCALE
  5
55
102
{ACAD_REACTORS
330
47
102
}
330
47
100
AcDbScale
 70
     0
300
4:1
140
4.0
141
1.0
290
     0
  0
SCALE
  5
56
102
{ACAD_REACTORS
330
47
102
}
330
47
100
AcDbScale
 70
     0
300
8:1
140
8.0
141
1.0
290
     0
  0
SCALE
  5
57
102
{ACAD_REACTORS
330
47
102
}
330
47
100
AcDbScale
 70
     0
300
10:1
140
10.0
141
1.0
290
     0
  0
SCALE
  5
58
102
{ACAD_REACTORS
330
47
102
}
330
47
100
AcDbScale
 70
     0
300
100:1
140
100.0
141
1.0
290
     0
  0
ENDSEC
  0
EOF
