G04*
G04 #@! TF.GenerationSoftware,Altium Limited,Altium Designer,24.0.1 (36)*
G04*
G04 Layer_Physical_Order=1*
G04 Layer_Color=191*
%FSLAX44Y44*%
%MOMM*%
G71*
G04*
G04 #@! TF.SameCoordinates,3FE1674D-11C2-4531-B8C6-FC8791136C40*
G04*
G04*
G04 #@! TF.FilePolarity,Positive*
G04*
G01*
G75*
%ADD10C,0.2540*%
%ADD12C,0.5080*%
%ADD15C,0.2032*%
%ADD19R,0.7500X0.8500*%
%ADD20R,0.4500X1.0000*%
%ADD21O,1.8000X0.3000*%
%ADD22O,0.3000X1.8000*%
%ADD23R,1.2500X0.5000*%
%ADD24R,2.5000X2.0000*%
%ADD25R,0.8000X0.3000*%
%ADD26R,1.5200X2.4000*%
%ADD27R,1.1000X3.7000*%
%ADD28R,0.8500X0.7500*%
%ADD45C,1.2700*%
%ADD46R,1.8000X1.8000*%
%ADD47C,1.8000*%
%ADD48C,1.7000*%
%ADD49R,1.7000X1.7000*%
%ADD50R,1.7000X1.7000*%
%ADD51C,0.7000*%
G36*
X591566Y561086D02*
X651256D01*
X652526Y559816D01*
Y548894D01*
X650494Y546862D01*
X621030Y546862D01*
X616483Y542315D01*
Y525297D01*
X614680Y523494D01*
X578358D01*
X558800Y543052D01*
X545084D01*
X540258Y547878D01*
Y567436D01*
X544322Y571500D01*
X581152D01*
X591566Y561086D01*
D02*
G37*
G36*
X629871Y526768D02*
X633471D01*
Y502768D01*
X629871D01*
Y497720D01*
X626871D01*
Y502768D01*
X624871D01*
Y497720D01*
X621871D01*
Y502768D01*
X618271D01*
Y523720D01*
X618271Y523720D01*
Y526768D01*
X621871D01*
Y531920D01*
X624871D01*
Y526768D01*
X626871D01*
Y531920D01*
X629871D01*
Y526768D01*
D02*
G37*
G36*
X1125728Y463804D02*
Y447294D01*
X1123696Y445262D01*
X1104392D01*
X1102360Y447294D01*
Y463296D01*
X1104392Y465328D01*
X1124204D01*
X1125728Y463804D01*
D02*
G37*
G36*
X615188Y521208D02*
Y518160D01*
X614934Y517906D01*
X605536D01*
X602996Y515366D01*
Y497586D01*
X619506Y481076D01*
Y446278D01*
X616966Y443738D01*
X592328D01*
X589788Y446278D01*
Y517652D01*
X593598Y521462D01*
X614934D01*
X615188Y521208D01*
D02*
G37*
G36*
X652018Y482346D02*
Y444246D01*
X647954Y440182D01*
X642874D01*
X639318Y436626D01*
Y395224D01*
X638048Y393954D01*
X614426D01*
X612394Y395986D01*
Y435610D01*
X631444Y454660D01*
X631444Y482600D01*
X633222Y484378D01*
X649986D01*
X652018Y482346D01*
D02*
G37*
D10*
X697992Y368554D02*
Y440382D01*
X709440Y451830D02*
X753440D01*
X697992Y440382D02*
X709440Y451830D01*
X696468Y367030D02*
X697992Y368554D01*
X757468Y447802D02*
X790056D01*
X753440Y451830D02*
X757468Y447802D01*
X789608Y380424D02*
X792088Y377944D01*
X785544Y383988D02*
Y403468D01*
Y383988D02*
X789108Y380424D01*
X789608D01*
X792088Y377444D02*
Y377944D01*
X788314Y405936D02*
Y408686D01*
X787334Y404956D02*
X788314Y405936D01*
X787032Y404956D02*
X787334D01*
X785544Y403468D02*
X787032Y404956D01*
X728218Y390036D02*
Y413258D01*
X746326Y431366D02*
X797814D01*
X728218Y413258D02*
X746326Y431366D01*
X792088Y393438D02*
X803606Y404956D01*
X806334D01*
X792088Y392938D02*
Y393438D01*
X806334Y404956D02*
X807314Y405936D01*
Y408686D01*
X806588Y367908D02*
X807466Y367030D01*
X806588Y367908D02*
Y377444D01*
Y378322D02*
Y392938D01*
X862372Y448910D02*
X862584Y448698D01*
X855852Y448910D02*
X862372D01*
X862584Y436782D02*
Y448698D01*
X873852Y530444D02*
Y541910D01*
X871220Y527812D02*
X873852Y530444D01*
X844550Y430784D02*
X845888Y429446D01*
X862584D01*
X873252Y444754D02*
X873852Y444154D01*
Y430656D02*
Y444154D01*
X951900Y523910D02*
X966852D01*
X951484Y523494D02*
X951900Y523910D01*
X943864Y444500D02*
X961644D01*
X933940Y430744D02*
Y444482D01*
X934212Y444754D01*
X829310Y430784D02*
X844550D01*
X966586Y429768D02*
Y439558D01*
X961644Y444500D02*
X966586Y439558D01*
X933852Y430656D02*
X933940Y430744D01*
X996558Y456184D02*
Y456430D01*
X994078Y458910D02*
X996558Y456430D01*
X966852Y458910D02*
X994078D01*
X977192Y523910D02*
X987306Y534024D01*
X966852Y523910D02*
X977192D01*
X987306Y534024D02*
X987806D01*
X598678Y516890D02*
X599976D01*
X602944Y519858D01*
X610857D01*
X678180Y551434D02*
X689356D01*
X677926Y551688D02*
X678180Y551434D01*
D12*
X696468Y367030D02*
X752602D01*
X663426D02*
X696468D01*
X807466D02*
X862584D01*
X799592D02*
X807466D01*
X752602D02*
X799592D01*
X520192Y666750D02*
Y674624D01*
Y410464D02*
Y666750D01*
Y410464D02*
X563626Y367030D01*
X625602D01*
X520192Y732726D02*
X536766Y749300D01*
X520192Y674624D02*
Y732726D01*
X536766Y749300D02*
X617220D01*
X862584Y436782D02*
X870556Y444754D01*
X862584Y388112D02*
Y429446D01*
Y367030D02*
Y388112D01*
X951484Y459740D02*
Y523494D01*
Y452374D02*
Y459740D01*
X861060Y537972D02*
Y557392D01*
X845312D02*
X860552D01*
X861060Y537972D02*
X871220Y527812D01*
X947166D01*
X862584Y367030D02*
X1087628D01*
X625602D02*
X663426D01*
X625602D02*
Y400050D01*
X1109218Y430550D02*
Y440550D01*
Y388620D02*
Y430550D01*
X1087628Y367030D02*
X1109218Y388620D01*
X520192Y674624D02*
X603504D01*
X862584Y429446D02*
Y436782D01*
X873252Y444754D02*
X934212D01*
X870556D02*
X873252D01*
X934212D02*
X943864D01*
X951484Y452374D01*
X947166Y527812D02*
X951484Y523494D01*
X987806Y534024D02*
X1003046D01*
X603504Y674624D02*
X617220Y660908D01*
Y637540D02*
Y660908D01*
X731774Y678942D02*
X752263Y658453D01*
X658622Y698500D02*
X678180Y678942D01*
X731774D01*
X658622Y698500D02*
Y749300D01*
X752602D01*
X617220D02*
X658622D01*
X752263Y637540D02*
Y658453D01*
X787908Y710692D02*
Y749300D01*
Y710692D02*
X818388Y680212D01*
X861568D01*
X887307Y654473D01*
X787908Y749300D02*
X889000D01*
X752602D02*
X787908D01*
X887307Y637540D02*
Y654473D01*
X1022350Y637540D02*
Y727710D01*
X889000Y749300D02*
X1000760D01*
X887307Y727710D02*
Y747607D01*
X889000Y749300D01*
X752263Y727710D02*
Y748961D01*
X752602Y749300D01*
X617220Y727710D02*
Y749300D01*
X1000760D02*
X1022350Y727710D01*
D15*
X992023Y448463D02*
X1031549D01*
X990136Y446576D02*
X992023Y448463D01*
X977371Y446576D02*
X990136D01*
X975520Y448426D02*
X977371Y446576D01*
X966852Y448910D02*
X974614D01*
X975098Y448426D02*
X975520D01*
X974614Y448910D02*
X975098Y448426D01*
X806357Y524095D02*
X855667D01*
X789802Y463550D02*
X790056Y463296D01*
X782828Y463550D02*
X789802D01*
X788314Y411436D02*
X795724Y418846D01*
X796290Y419354D02*
X804164D01*
X795782Y418846D02*
X796290Y419354D01*
X795724Y418846D02*
X795782D01*
X788314Y408686D02*
Y411436D01*
X804164Y419354D02*
X815594Y430784D01*
Y458470D01*
X820166Y386334D02*
X826770Y379730D01*
X820166Y386334D02*
Y448818D01*
X830258Y458910D02*
X855852D01*
X820166Y448818D02*
X830258Y458910D01*
X821034Y463910D02*
X855852D01*
X815594Y458470D02*
X821034Y463910D01*
X804556Y447802D02*
Y463296D01*
X809670Y468910D02*
X855852D01*
X804556Y463796D02*
X809670Y468910D01*
X804556Y463296D02*
Y463796D01*
X799592Y367030D02*
X800492Y367930D01*
X494284Y666750D02*
X520192D01*
X494284Y421132D02*
X542544Y372872D01*
X494284Y421132D02*
Y615950D01*
X752464Y367168D02*
X752602Y367030D01*
X829680Y396248D02*
X837816Y388112D01*
X829680Y396248D02*
Y396748D01*
X837816Y388112D02*
X862584D01*
X844180Y396748D02*
X844688Y396240D01*
X855020D01*
X908304Y405130D02*
Y405486D01*
X903852Y409938D02*
Y430656D01*
Y409938D02*
X908304Y405486D01*
X1031549Y448463D02*
X1044702Y461616D01*
X966852Y453910D02*
X980342D01*
X981636Y452616D01*
X982980D01*
X951484Y459740D02*
X952314Y458910D01*
X966852D01*
X984665Y519095D02*
X985520Y519950D01*
X966852Y518910D02*
X967037Y519095D01*
X984665D01*
X1003046Y548524D02*
Y555752D01*
X987806Y548524D02*
X988060Y548778D01*
Y554990D01*
X726863Y618674D02*
Y637540D01*
Y618674D02*
X755650Y589887D01*
X676063Y637540D02*
X688509Y625094D01*
X710386D01*
X748538Y586942D01*
X701463Y637540D02*
X702969D01*
X752094Y588414D01*
X789178Y541274D02*
Y695503D01*
X806411Y518910D02*
X855852D01*
X785622Y539699D02*
Y694030D01*
X789178Y541274D02*
X806357Y524095D01*
X785622Y539699D02*
X806411Y518910D01*
X642366Y630348D02*
Y695554D01*
X755650Y539595D02*
X781150Y514095D01*
X752094Y538122D02*
X781121Y509095D01*
X781005Y489095D02*
X855667D01*
X734314Y530758D02*
X780977Y484095D01*
X667918Y615442D02*
X715009D01*
X663499Y604774D02*
X710590D01*
X643556Y629158D02*
X644144D01*
X744982Y535177D02*
Y585469D01*
X713536Y611886D02*
X741426Y583996D01*
Y533704D02*
X781034Y494095D01*
X780948Y479095D02*
X855667D01*
X737870Y532231D02*
X781005Y489095D01*
X748538Y536650D02*
X781092Y504095D01*
X603758Y625602D02*
X642671D01*
X752094Y538122D02*
Y588414D01*
X641198Y622046D02*
X662026Y601218D01*
X649478Y633882D02*
Y698500D01*
X748538Y536650D02*
Y586942D01*
X781092Y504095D02*
X855667D01*
X645922Y632409D02*
X666445Y611886D01*
X664972Y608330D02*
X712063D01*
X662026Y601218D02*
X709117D01*
X666445Y611886D02*
X713536D01*
X649478Y633882D02*
X667918Y615442D01*
X781034Y494095D02*
X855667D01*
X734314Y530758D02*
Y581050D01*
X710590Y604774D02*
X734314Y581050D01*
X644144Y629158D02*
X664972Y608330D01*
X642671Y625602D02*
X663499Y604774D01*
X712063Y608330D02*
X737870Y582523D01*
X755650Y539595D02*
Y589887D01*
X730758Y529285D02*
Y579577D01*
X737870Y532231D02*
Y582523D01*
X781063Y499095D02*
X855667D01*
X730758Y529285D02*
X780948Y479095D01*
X781121Y509095D02*
X851786D01*
X642366Y630348D02*
X643556Y629158D01*
X709117Y601218D02*
X730758Y579577D01*
X645922Y632409D02*
Y697027D01*
X781150Y514095D02*
X855667D01*
X741426Y533704D02*
Y583996D01*
X715009Y615442D02*
X744982Y585469D01*
Y535177D02*
X781063Y499095D01*
X780977Y484095D02*
X855667D01*
X581914Y622046D02*
X641198D01*
X660553Y597662D02*
X707644D01*
X780919Y474095D02*
X855667D01*
X727202Y527812D02*
X780919Y474095D01*
X727202Y527812D02*
Y578104D01*
X707644Y597662D02*
X727202Y578104D01*
X837946Y572008D02*
X845196D01*
X845312Y571892D01*
X860552D02*
X860944Y571500D01*
X868172D01*
X621871Y526768D02*
Y532980D01*
X631671Y526768D02*
Y532980D01*
X621871Y496556D02*
Y502768D01*
X631671Y496556D02*
Y502768D01*
X602234Y567574D02*
Y573786D01*
X617474Y567574D02*
Y573786D01*
X632968Y567574D02*
Y573786D01*
X648208Y567574D02*
Y573786D01*
X677926Y566928D02*
Y573140D01*
X677926Y521208D02*
X684138D01*
X693166Y491098D02*
X699378D01*
X677926Y490728D02*
X684138D01*
X677926Y475488D02*
X684138D01*
X646706Y431038D02*
X652918D01*
X646706Y415798D02*
X652918D01*
X646568Y400050D02*
X652780D01*
X596900D02*
X603112D01*
X596784Y415798D02*
X602996D01*
X596784Y431038D02*
X602996D01*
X878667Y542095D02*
Y552370D01*
X877709Y553327D02*
X878667Y552370D01*
X877709Y553327D02*
Y554672D01*
X878667Y542095D02*
X878852Y541910D01*
X868166Y453904D02*
X868172Y453898D01*
X855852Y453910D02*
X855858Y453904D01*
X868166D01*
X829310Y410072D02*
Y416284D01*
X844550Y410072D02*
Y416284D01*
X826770Y379730D02*
X850646D01*
X1044702Y461616D02*
Y495605D01*
X1083310Y493827D02*
Y499110D01*
X1103266Y519066D01*
X1107734D02*
X1109218Y520550D01*
X1103266Y519066D02*
X1107734D01*
X1103578Y509066D02*
X1107734D01*
X1076706Y482194D02*
X1103578Y509066D01*
X1076706Y448360D02*
Y482194D01*
X1073150Y449833D02*
Y483667D01*
X1083310Y493827D01*
X1079754Y495300D02*
Y504698D01*
X1069594Y451306D02*
Y485140D01*
X1079754Y495300D01*
X1066038Y486768D02*
X1076198Y496928D01*
Y511556D01*
X1066038Y452778D02*
Y486768D01*
X1062482Y488241D02*
X1072642Y498400D01*
Y517906D01*
X1062482Y454251D02*
Y488241D01*
X1058926Y455724D02*
Y489713D01*
X1069086Y499873D01*
Y524256D01*
X1055370Y457197D02*
Y491186D01*
X1065530Y501346D01*
Y530606D01*
X1051814Y492659D02*
X1061974Y502819D01*
X1051814Y458670D02*
Y492659D01*
X1061974Y502819D02*
Y536956D01*
X1044702Y495605D02*
X1054862Y505765D01*
X1048258Y494132D02*
X1058418Y504292D01*
Y543306D01*
X1048258Y460143D02*
Y494132D01*
X1054862Y505765D02*
Y550164D01*
X1016061Y407831D02*
X1062482Y454251D01*
X926685Y411387D02*
X1014588D01*
X947564Y418499D02*
X1011643D01*
X1017534Y404275D02*
X1066038Y452778D01*
X1019007Y400719D02*
X1069594Y451306D01*
X904587Y393607D02*
X1021953D01*
X1010170Y422055D02*
X1048258Y460143D01*
X1024899Y386495D02*
X1083818Y445414D01*
Y468900D01*
X1023426Y390051D02*
X1080262Y446887D01*
X1026372Y382939D02*
X1087374Y443941D01*
X1020480Y397163D02*
X1073150Y449833D01*
X906111Y397163D02*
X1020480D01*
X923383Y404275D02*
X1017534D01*
X950215Y422055D02*
X1010170D01*
X899253Y382939D02*
X1026372D01*
X902809Y390051D02*
X1023426D01*
X1013116Y414943D02*
X1055370Y457197D01*
X901285Y386495D02*
X1024899D01*
X1087374Y443941D02*
Y462456D01*
X1027845Y379383D02*
X1090930Y442468D01*
X872329Y379383D02*
X1027845D01*
X1021953Y393607D02*
X1076706Y448360D01*
X945989Y414943D02*
X1013116D01*
X1014588Y411387D02*
X1058926Y455724D01*
X924907Y407831D02*
X1016061D01*
X1090930Y442468D02*
Y456012D01*
X921351Y400719D02*
X1019007D01*
X1080262Y446887D02*
Y475344D01*
X1011643Y418499D02*
X1051814Y458670D01*
X1080262Y475344D02*
X1105468Y500550D01*
X1083818Y468900D02*
X1105468Y490550D01*
X1090930Y456012D02*
X1105468Y470550D01*
X1087374Y462456D02*
X1105468Y480550D01*
Y490550D02*
X1109218D01*
X1105468Y470550D02*
X1109218D01*
X872236Y379476D02*
X872329Y379383D01*
X663426Y367030D02*
Y460248D01*
X928852Y430656D02*
X929037Y430471D01*
Y420219D02*
Y430471D01*
Y420219D02*
X930077Y419179D01*
Y417835D02*
Y419179D01*
X924037Y414035D02*
X926685Y411387D01*
X914037Y413621D02*
Y430471D01*
X909037Y413033D02*
X921351Y400719D01*
X924037Y414035D02*
Y430471D01*
X919037Y413701D02*
X924907Y407831D01*
X909037Y413033D02*
Y430471D01*
X914037Y413621D02*
X923383Y404275D01*
X919037Y413701D02*
Y430471D01*
X889037Y403823D02*
X902809Y390051D01*
X889037Y403823D02*
Y430471D01*
X894037Y404157D02*
Y430471D01*
X884037Y403743D02*
Y430471D01*
Y403743D02*
X901285Y386495D01*
X899037Y404237D02*
Y430471D01*
X894037Y404157D02*
X904587Y393607D01*
X899037Y404237D02*
X906111Y397163D01*
X879018Y403174D02*
Y430490D01*
Y403174D02*
X899253Y382939D01*
X878852Y430656D02*
X879018Y430490D01*
X981086Y429768D02*
X987298D01*
X1011058Y456184D02*
X1017270D01*
X551180Y557530D02*
X552958Y559308D01*
Y578358D01*
X557784Y583184D01*
X687832D01*
X697992Y543560D02*
Y573024D01*
X687832Y583184D02*
X697992Y573024D01*
X690880Y536448D02*
X697992Y543560D01*
X677926Y536448D02*
X690880D01*
X652272Y529590D02*
Y544132D01*
X656590Y548450D02*
Y559592D01*
X652272Y544132D02*
X656590Y548450D01*
X640855Y524857D02*
X647539D01*
X652272Y529590D01*
X660692Y546340D02*
Y548954D01*
X657098Y542746D02*
X660692Y546340D01*
X657098Y525526D02*
Y542746D01*
X660692Y548954D02*
X663426Y551688D01*
X656590Y559592D02*
X663426Y566428D01*
Y566928D01*
X640855Y519858D02*
X651430D01*
X657098Y525526D01*
X663426Y521208D02*
Y536448D01*
X657075Y514857D02*
X660192Y517974D01*
X640855Y514857D02*
X657075D01*
X663426Y520708D02*
Y521208D01*
X660692Y517974D02*
X663426Y520708D01*
X660192Y517974D02*
X660692D01*
X677926Y505968D02*
X692796D01*
X693166Y505598D01*
X663426Y490728D02*
Y505968D01*
X660036Y509858D02*
X663426Y506468D01*
Y505968D02*
Y506468D01*
X640855Y509858D02*
X660036D01*
X643839Y495075D02*
X660192Y478722D01*
X643839Y495075D02*
Y504373D01*
X660192Y478722D02*
X660692D01*
X663426Y475988D01*
Y474988D02*
Y475988D01*
X643355Y504857D02*
X643839Y504373D01*
X640855Y504857D02*
X643355D01*
X674932Y463482D02*
X675192D01*
X677926Y460748D01*
Y460248D02*
Y460748D01*
X663426Y474988D02*
X674932Y463482D01*
X610857Y504857D02*
X623475D01*
X623824Y505206D01*
X622982Y509858D02*
X623062Y509778D01*
X610857Y509858D02*
X622982D01*
X610857Y514857D02*
X625095D01*
X625348Y514604D01*
X855667Y514095D02*
X855852Y513910D01*
X851786Y509095D02*
X851971Y508910D01*
X855667Y504095D02*
X855852Y503910D01*
X855667Y499095D02*
X855852Y498910D01*
X855667Y494095D02*
X855852Y493910D01*
X855667Y489095D02*
X855852Y488910D01*
X855667Y484095D02*
X855852Y483910D01*
X855667Y479095D02*
X855852Y478910D01*
X855667Y474095D02*
X855852Y473910D01*
X639725Y618490D02*
X660553Y597662D01*
X566420Y637540D02*
X581914Y622046D01*
X560070Y618490D02*
X639725D01*
X541020Y637540D02*
X560070Y618490D01*
X591820Y637540D02*
X603758Y625602D01*
X582168Y711962D02*
X630987D01*
X560324Y708406D02*
X629514D01*
X632460Y715518D02*
X649478Y698500D01*
X629514Y708406D02*
X642366Y695554D01*
X604012Y715518D02*
X632460D01*
X630987Y711962D02*
X645922Y697027D01*
X541020Y727710D02*
X560324Y708406D01*
X566420Y727710D02*
X582168Y711962D01*
X591820Y727710D02*
X604012Y715518D01*
X811107Y727710D02*
X826347Y712470D01*
X867089D01*
X676063Y727710D02*
X697145Y706628D01*
X773024D01*
X785622Y694030D01*
X718363Y710184D02*
X774497D01*
X701463Y727084D02*
X718363Y710184D01*
X774497D02*
X789178Y695503D01*
X775970Y713740D02*
X792734Y696976D01*
X740833Y713740D02*
X775970D01*
X792734Y633222D02*
Y696976D01*
X726863Y727710D02*
X740833Y713740D01*
X792734Y633222D02*
X806704Y619252D01*
X865108D01*
X883852Y600508D01*
Y541910D02*
Y600508D01*
X939037Y421895D02*
X945989Y414943D01*
X1079754Y504698D02*
X1103984Y528928D01*
X1069086Y524256D02*
X1103896Y559066D01*
X1065530Y530606D02*
X1103984Y569060D01*
X1061974Y536956D02*
X1103984Y578966D01*
X1076198Y511556D02*
X1103708Y539066D01*
X1072642Y517906D02*
X1103802Y549066D01*
X948852Y423418D02*
X950215Y422055D01*
X944037Y422026D02*
X947564Y418499D01*
X948852Y423418D02*
Y430656D01*
X908852Y541910D02*
Y675736D01*
X868562Y716026D02*
X908852Y675736D01*
X825839Y622808D02*
X866581D01*
X811107Y637540D02*
X825839Y622808D01*
X866581D02*
X888852Y600537D01*
Y541910D02*
Y600537D01*
X868054Y626364D02*
X893852Y600566D01*
X847683Y626364D02*
X868054D01*
X836507Y637540D02*
X847683Y626364D01*
X893852Y541910D02*
Y600566D01*
X861907Y637540D02*
X898852Y600595D01*
Y541910D02*
Y600595D01*
X928852Y541910D02*
Y700354D01*
X941476Y712978D02*
X982218D01*
X928852Y700354D02*
X941476Y712978D01*
X923852Y541910D02*
Y700383D01*
X940003Y716534D02*
X960374D01*
X923852Y700383D02*
X940003Y716534D01*
X982218Y712978D02*
X996950Y727710D01*
X960374Y716534D02*
X971550Y727710D01*
X918852Y700412D02*
X946150Y727710D01*
X918852Y541910D02*
Y700412D01*
X867089Y712470D02*
X903852Y675707D01*
X836507Y727710D02*
X848191Y716026D01*
X868562D01*
X903852Y541910D02*
Y675707D01*
X913852Y541910D02*
Y675765D01*
X861907Y727710D02*
X913852Y675765D01*
X943852Y604813D02*
X960577Y621538D01*
X943852Y541910D02*
Y604813D01*
X962050Y617982D02*
X1027756D01*
X948852Y541910D02*
Y604784D01*
X962050Y617982D01*
X960577Y621538D02*
X980948D01*
X938852Y541910D02*
Y604842D01*
X971550Y637540D01*
X1027756Y617982D02*
X1056032Y646258D01*
X980948Y621538D02*
X996950Y637540D01*
X933852Y541910D02*
Y625242D01*
X946150Y637540D01*
X1056032Y646258D02*
Y670968D01*
X966852Y513910D02*
X1007689D01*
X1015746Y521967D01*
X939037Y421895D02*
Y430471D01*
X938852Y430656D02*
X939037Y430471D01*
X943852Y430656D02*
X944037Y430471D01*
Y422026D02*
Y430471D01*
X1017234Y602431D02*
Y602431D01*
X1060350Y645547D01*
X1015746Y521967D02*
Y600943D01*
X1017234Y602431D01*
X1019302Y520494D02*
Y599471D01*
X966852Y508910D02*
X1007718D01*
X1019302Y520494D01*
X966852Y503910D02*
X1007747D01*
X1022858Y519021D02*
Y597998D01*
X1007747Y503910D02*
X1022858Y519021D01*
X1026414Y517548D02*
Y596525D01*
X1007776Y498910D02*
X1026414Y517548D01*
X966852Y498910D02*
X1007776D01*
X1007804Y493910D02*
X1029970Y516076D01*
X966852Y493910D02*
X1007804D01*
X1029970Y516076D02*
Y595052D01*
X966852Y488910D02*
X1007833D01*
X1033526Y514603D02*
Y588518D01*
X1007833Y488910D02*
X1033526Y514603D01*
X966852Y483910D02*
X1007862D01*
X1037082Y513130D01*
Y582164D01*
X985061Y478856D02*
X1007837D01*
X1040638Y511657D02*
Y575818D01*
X1007837Y478856D02*
X1040638Y511657D01*
X1044194Y510184D02*
Y568960D01*
X966852Y473910D02*
X1007920D01*
X1044194Y510184D01*
X966852Y468910D02*
X1007949D01*
X1047750Y508711D01*
Y562356D01*
X1051306Y507238D02*
Y556514D01*
X1007978Y463910D02*
X1051306Y507238D01*
X966852Y463910D02*
X1007978D01*
X985007Y478910D02*
X985061Y478856D01*
X966852Y478910D02*
X985007D01*
X883852Y430656D02*
X884037Y430471D01*
X888852Y430656D02*
X889037Y430471D01*
X893852Y430656D02*
X894037Y430471D01*
X908852Y430656D02*
X909037Y430471D01*
X913852Y430656D02*
X914037Y430471D01*
X918852Y430656D02*
X919037Y430471D01*
X923852Y430656D02*
X924037Y430471D01*
X898852Y430656D02*
X899037Y430471D01*
X701463Y727084D02*
Y727710D01*
X885444Y637540D02*
X887307D01*
X884682Y636778D02*
X885444Y637540D01*
X1019302Y599471D02*
X1064260Y644429D01*
X1026414Y596525D02*
X1071372Y641483D01*
X1033526Y588518D02*
X1103984Y658976D01*
X1022858Y597998D02*
X1067816Y642956D01*
X1029970Y595052D02*
X1074928Y640010D01*
X903852Y430656D02*
X904037Y430471D01*
X1105468Y720550D02*
X1109218D01*
X1103984Y719066D02*
X1105468Y720550D01*
X1103984Y718920D02*
Y719066D01*
X1056032Y670968D02*
X1103984Y718920D01*
X1105468Y710550D02*
X1109218D01*
X1103984Y709066D02*
X1105468Y710550D01*
X1103984Y709014D02*
Y709066D01*
X1060350Y665380D02*
X1103984Y709014D01*
X1060350Y645547D02*
Y665380D01*
X1107734Y699066D02*
X1109218Y700550D01*
X1103688Y699066D02*
X1107734D01*
X1064260Y659638D02*
X1103688Y699066D01*
X1064260Y644429D02*
Y659638D01*
X1105468Y690550D02*
X1109218D01*
X1103984Y688694D02*
Y689066D01*
X1067816Y652526D02*
X1103984Y688694D01*
X1067816Y642956D02*
Y652526D01*
X1103984Y689066D02*
X1105468Y690550D01*
Y680550D02*
X1109218D01*
X1103984Y679066D02*
X1105468Y680550D01*
X1071372Y646176D02*
X1103984Y678788D01*
X1071372Y641483D02*
Y646176D01*
X1103984Y678788D02*
Y679066D01*
X1074928Y640010D02*
Y640010D01*
X1105468Y670550D01*
X1109218D01*
X1105468Y660550D02*
X1109218D01*
X1103984Y659066D02*
X1105468Y660550D01*
X1103984Y658976D02*
Y659066D01*
X1037082Y582164D02*
X1105468Y650550D01*
X1107734Y639066D02*
X1109218Y640550D01*
X1103886Y639066D02*
X1107734D01*
X1040638Y575818D02*
X1103886Y639066D01*
X1105468Y630550D02*
X1109218D01*
X1103984Y629066D02*
X1105468Y630550D01*
X1103984Y628750D02*
Y629066D01*
X1044194Y568960D02*
X1103984Y628750D01*
Y619066D02*
X1105468Y620550D01*
X1109218D01*
X1103984Y618590D02*
Y619066D01*
X1047750Y562356D02*
X1103984Y618590D01*
X1107734Y609066D02*
X1109218Y610550D01*
X1051306Y556514D02*
X1103858Y609066D01*
X1107734D01*
X1054862Y550164D02*
X1103764Y599066D01*
X1107734D01*
X1103984Y589066D02*
X1105468Y590550D01*
X1109218D01*
X1103984Y588872D02*
Y589066D01*
X1058418Y543306D02*
X1103984Y588872D01*
X1105468Y580550D02*
X1109218D01*
X1103984Y579066D02*
X1105468Y580550D01*
X1103984Y578966D02*
Y579066D01*
Y569066D02*
X1105468Y570550D01*
X1109218D01*
X1103984Y569060D02*
Y569066D01*
X1107734Y559066D02*
X1109218Y560550D01*
X1103896Y559066D02*
X1107734D01*
Y549066D02*
X1109218Y550550D01*
X1103802Y549066D02*
X1107734D01*
Y539066D02*
X1109218Y540550D01*
X1103708Y539066D02*
X1107734D01*
X1103984Y529066D02*
X1105468Y530550D01*
X1109218D01*
X1103984Y528928D02*
Y529066D01*
X1107734Y509066D02*
X1109218Y510550D01*
X1105468Y480550D02*
X1109218D01*
X1105468Y500550D02*
X1109218D01*
X1107734Y599066D02*
X1109218Y600550D01*
X1105468Y650550D02*
X1109218D01*
D19*
X792088Y392938D02*
D03*
X806588D02*
D03*
X792088Y377444D02*
D03*
X806588D02*
D03*
X804556Y447802D02*
D03*
X790056D02*
D03*
X804556Y463296D02*
D03*
X790056D02*
D03*
X844180Y396748D02*
D03*
X829680D02*
D03*
X646568Y400050D02*
D03*
X632068D02*
D03*
X981086Y429768D02*
D03*
X966586D02*
D03*
X663426Y460248D02*
D03*
X677926D02*
D03*
X677926Y551688D02*
D03*
X663426D02*
D03*
X677926Y536448D02*
D03*
X663426D02*
D03*
X646706Y415798D02*
D03*
X632206D02*
D03*
X646706Y431038D02*
D03*
X632206D02*
D03*
X602996Y415798D02*
D03*
X617496D02*
D03*
X602996Y431038D02*
D03*
X617496D02*
D03*
X663426Y505968D02*
D03*
X677926D02*
D03*
X663426Y566928D02*
D03*
X677926D02*
D03*
X663426Y521208D02*
D03*
X677926D02*
D03*
X663426Y475488D02*
D03*
X677926D02*
D03*
Y490728D02*
D03*
X663426D02*
D03*
X617612Y400050D02*
D03*
X603112D02*
D03*
X996558Y456184D02*
D03*
X1011058D02*
D03*
D20*
X797814Y431366D02*
D03*
X807314Y408686D02*
D03*
X788314D02*
D03*
D21*
X855852Y448910D02*
D03*
Y453910D02*
D03*
Y458910D02*
D03*
Y463910D02*
D03*
Y468910D02*
D03*
Y473910D02*
D03*
X855852Y478910D02*
D03*
Y483910D02*
D03*
X855852Y488910D02*
D03*
Y493910D02*
D03*
Y498910D02*
D03*
Y503910D02*
D03*
Y508910D02*
D03*
X855852Y513910D02*
D03*
Y518910D02*
D03*
X855852Y523910D02*
D03*
X966852Y523910D02*
D03*
Y518910D02*
D03*
Y513910D02*
D03*
Y508910D02*
D03*
Y503910D02*
D03*
Y498910D02*
D03*
Y493910D02*
D03*
Y488910D02*
D03*
Y483910D02*
D03*
Y478910D02*
D03*
Y473910D02*
D03*
X966852Y468910D02*
D03*
Y463910D02*
D03*
X966852Y458910D02*
D03*
Y453910D02*
D03*
Y448910D02*
D03*
D22*
X873852Y541910D02*
D03*
X878852Y541910D02*
D03*
X883852D02*
D03*
X888852Y541910D02*
D03*
X893852D02*
D03*
X898852D02*
D03*
X903852D02*
D03*
X908852D02*
D03*
X913852Y541910D02*
D03*
X918852D02*
D03*
X923852D02*
D03*
X928852Y541910D02*
D03*
X933852D02*
D03*
X938852D02*
D03*
X943852D02*
D03*
X948852D02*
D03*
Y430656D02*
D03*
X943852D02*
D03*
X938852D02*
D03*
X933852D02*
D03*
X928852D02*
D03*
X923852D02*
D03*
X918852D02*
D03*
X913852D02*
D03*
X908852D02*
D03*
X903852D02*
D03*
X898852D02*
D03*
X893852D02*
D03*
X888852D02*
D03*
X883852D02*
D03*
X878852D02*
D03*
X873852D02*
D03*
D23*
X1109218Y700550D02*
D03*
Y690550D02*
D03*
Y660550D02*
D03*
Y640550D02*
D03*
Y610550D02*
D03*
Y600550D02*
D03*
Y590550D02*
D03*
Y580550D02*
D03*
Y540550D02*
D03*
Y530550D02*
D03*
Y550550D02*
D03*
Y560550D02*
D03*
Y520550D02*
D03*
Y510550D02*
D03*
Y500550D02*
D03*
Y490550D02*
D03*
Y480550D02*
D03*
Y470550D02*
D03*
Y460550D02*
D03*
Y450550D02*
D03*
Y440550D02*
D03*
Y430550D02*
D03*
Y570550D02*
D03*
Y620550D02*
D03*
Y630550D02*
D03*
Y650550D02*
D03*
Y670550D02*
D03*
Y680550D02*
D03*
Y710550D02*
D03*
Y720550D02*
D03*
D24*
X1134968Y742450D02*
D03*
Y408650D02*
D03*
D25*
X610857Y524857D02*
D03*
Y519858D02*
D03*
Y514857D02*
D03*
Y509858D02*
D03*
Y504857D02*
D03*
X640855D02*
D03*
Y509858D02*
D03*
Y514857D02*
D03*
Y524857D02*
D03*
Y519858D02*
D03*
D26*
X625871Y514768D02*
D03*
D27*
X640856Y464058D02*
D03*
X610856D02*
D03*
D28*
X602234Y567574D02*
D03*
Y553074D02*
D03*
X617474Y567574D02*
D03*
Y553074D02*
D03*
X648208Y567574D02*
D03*
Y553074D02*
D03*
X632968Y567574D02*
D03*
Y553074D02*
D03*
X693166Y491098D02*
D03*
Y505598D02*
D03*
X829310Y430784D02*
D03*
Y416284D02*
D03*
X844550Y430784D02*
D03*
Y416284D02*
D03*
X845312Y571892D02*
D03*
Y557392D02*
D03*
X860552Y571892D02*
D03*
Y557392D02*
D03*
X987806Y548524D02*
D03*
Y534024D02*
D03*
X1003046Y548524D02*
D03*
Y534024D02*
D03*
D45*
X551180Y439420D02*
Y532130D01*
D46*
X728218Y390036D02*
D03*
D47*
Y440036D02*
D03*
D48*
X494284Y615950D02*
D03*
Y641350D02*
D03*
Y666750D02*
D03*
Y692150D02*
D03*
X617220Y637540D02*
D03*
X591820D02*
D03*
X566420D02*
D03*
X1022350D02*
D03*
X996950D02*
D03*
X971550D02*
D03*
X551180Y532130D02*
D03*
X617220Y727710D02*
D03*
X591820D02*
D03*
X566420D02*
D03*
X1022350D02*
D03*
X996950D02*
D03*
X971550D02*
D03*
X887307Y637540D02*
D03*
X861907D02*
D03*
X836507D02*
D03*
X887307Y727710D02*
D03*
X861907D02*
D03*
X836507D02*
D03*
X752263Y637540D02*
D03*
X726863D02*
D03*
X701463D02*
D03*
X752263Y727710D02*
D03*
X726863D02*
D03*
X701463D02*
D03*
X551180Y414020D02*
D03*
D49*
X494284Y717550D02*
D03*
X541020Y637540D02*
D03*
X946150D02*
D03*
X541020Y727710D02*
D03*
X946150D02*
D03*
X811107Y637540D02*
D03*
Y727710D02*
D03*
X676063Y637540D02*
D03*
Y727710D02*
D03*
D50*
X551180Y557530D02*
D03*
Y439420D02*
D03*
D51*
X782828Y463550D02*
D03*
X542544Y372872D02*
D03*
X855020Y396240D02*
D03*
X908304Y405130D02*
D03*
X982980Y452616D02*
D03*
X985520Y519950D02*
D03*
X1003046Y555752D02*
D03*
X988060Y554990D02*
D03*
X837946Y572008D02*
D03*
X868172Y571500D02*
D03*
X629666Y506476D02*
D03*
X622046Y506730D02*
D03*
X621792Y523240D02*
D03*
X629666Y522986D02*
D03*
X625871Y514768D02*
D03*
X621871Y532980D02*
D03*
X631671D02*
D03*
X621871Y496556D02*
D03*
X631671D02*
D03*
X602234Y573786D02*
D03*
X617474D02*
D03*
X632968D02*
D03*
X648208D02*
D03*
X677926Y573140D02*
D03*
X684138Y521208D02*
D03*
X699378Y491098D02*
D03*
X684138Y490728D02*
D03*
Y475488D02*
D03*
X652918Y431038D02*
D03*
Y415798D02*
D03*
X652780Y400050D02*
D03*
X596900D02*
D03*
X596784Y415798D02*
D03*
Y431038D02*
D03*
X877709Y554672D02*
D03*
X868172Y453898D02*
D03*
X829310Y410072D02*
D03*
X844550D02*
D03*
X850646Y379730D02*
D03*
X872236Y379476D02*
D03*
X930077Y417835D02*
D03*
X987298Y429768D02*
D03*
X1017270Y456184D02*
D03*
X1119886Y450596D02*
D03*
Y460502D02*
D03*
X598678Y516890D02*
D03*
X689356Y551434D02*
D03*
M02*
