G04*
G04 #@! TF.GenerationSoftware,Altium Limited,Altium Designer,24.0.1 (36)*
G04*
G04 Layer_Color=8388736*
%FSLAX44Y44*%
%MOMM*%
G71*
G04*
G04 #@! TF.SameCoordinates,3FE1674D-11C2-4531-B8C6-FC8791136C40*
G04*
G04*
G04 #@! TF.FilePolarity,Negative*
G04*
G01*
G75*
%ADD29R,0.9532X1.0532*%
%ADD30R,0.6532X1.2032*%
%ADD31O,2.0032X0.5032*%
%ADD32O,0.5032X2.0032*%
%ADD33R,1.4532X0.7032*%
%ADD34R,2.7032X2.2032*%
%ADD35R,1.0032X0.5032*%
%ADD36R,1.7232X2.6032*%
%ADD37R,1.3032X3.9032*%
%ADD38R,1.0532X0.9532*%
%ADD39R,2.0032X2.0032*%
%ADD40C,2.0032*%
%ADD41C,1.9032*%
%ADD42R,1.9032X1.9032*%
%ADD43R,1.9032X1.9032*%
%ADD44C,0.9032*%
G36*
X629971Y532420D02*
X630067Y532391D01*
X630155Y532344D01*
X630232Y532281D01*
X630296Y532203D01*
X630343Y532115D01*
X630372Y532019D01*
X630382Y531920D01*
Y527278D01*
X633471D01*
X633570Y527268D01*
X633666Y527239D01*
X633754Y527192D01*
X633832Y527129D01*
X633895Y527051D01*
X633942Y526963D01*
X633971Y526867D01*
X633981Y526768D01*
Y502768D01*
X633971Y502668D01*
X633942Y502573D01*
X633895Y502484D01*
X633832Y502407D01*
X633754Y502343D01*
X633666Y502296D01*
X633570Y502267D01*
X633471Y502257D01*
X630382D01*
Y497720D01*
X630372Y497620D01*
X630343Y497524D01*
X630296Y497436D01*
X630232Y497359D01*
X630155Y497295D01*
X630067Y497248D01*
X629971Y497219D01*
X629871Y497209D01*
X626871D01*
X626772Y497219D01*
X626676Y497248D01*
X626588Y497295D01*
X626510Y497359D01*
X626447Y497436D01*
X626400Y497524D01*
X626371Y497620D01*
X626361Y497720D01*
Y502257D01*
X625382D01*
Y497720D01*
X625372Y497620D01*
X625343Y497524D01*
X625296Y497436D01*
X625232Y497359D01*
X625155Y497295D01*
X625067Y497248D01*
X624971Y497219D01*
X624871Y497209D01*
X621871D01*
X621772Y497219D01*
X621676Y497248D01*
X621588Y497295D01*
X621510Y497359D01*
X621447Y497436D01*
X621400Y497524D01*
X621371Y497620D01*
X621361Y497720D01*
Y502257D01*
X618271D01*
X618171Y502267D01*
X618075Y502296D01*
X617987Y502343D01*
X617910Y502407D01*
X617846Y502484D01*
X617799Y502573D01*
X617770Y502668D01*
X617760Y502768D01*
Y523720D01*
X617761Y523722D01*
Y526768D01*
X617770Y526867D01*
X617799Y526963D01*
X617847Y527051D01*
X617910Y527129D01*
X617988Y527192D01*
X618076Y527239D01*
X618172Y527268D01*
X618271Y527278D01*
X621361D01*
Y531920D01*
X621371Y532019D01*
X621400Y532115D01*
X621447Y532203D01*
X621510Y532281D01*
X621588Y532344D01*
X621676Y532391D01*
X621772Y532420D01*
X621871Y532430D01*
X624871D01*
X624971Y532420D01*
X625067Y532391D01*
X625155Y532344D01*
X625232Y532281D01*
X625296Y532203D01*
X625343Y532115D01*
X625372Y532019D01*
X625382Y531920D01*
Y527278D01*
X626361D01*
Y531920D01*
X626371Y532019D01*
X626400Y532115D01*
X626447Y532203D01*
X626510Y532281D01*
X626588Y532344D01*
X626676Y532391D01*
X626772Y532420D01*
X626871Y532430D01*
X629871D01*
X629971Y532420D01*
D02*
G37*
D29*
X792088Y392938D02*
D03*
X806588D02*
D03*
X792088Y377444D02*
D03*
X806588D02*
D03*
X804556Y447802D02*
D03*
X790056D02*
D03*
X804556Y463296D02*
D03*
X790056D02*
D03*
X844180Y396748D02*
D03*
X829680D02*
D03*
X646568Y400050D02*
D03*
X632068D02*
D03*
X981086Y429768D02*
D03*
X966586D02*
D03*
X663426Y460248D02*
D03*
X677926D02*
D03*
X677926Y551688D02*
D03*
X663426D02*
D03*
X677926Y536448D02*
D03*
X663426D02*
D03*
X646706Y415798D02*
D03*
X632206D02*
D03*
X646706Y431038D02*
D03*
X632206D02*
D03*
X602996Y415798D02*
D03*
X617496D02*
D03*
X602996Y431038D02*
D03*
X617496D02*
D03*
X663426Y505968D02*
D03*
X677926D02*
D03*
X663426Y566928D02*
D03*
X677926D02*
D03*
X663426Y521208D02*
D03*
X677926D02*
D03*
X663426Y475488D02*
D03*
X677926D02*
D03*
Y490728D02*
D03*
X663426D02*
D03*
X617612Y400050D02*
D03*
X603112D02*
D03*
X996558Y456184D02*
D03*
X1011058D02*
D03*
D30*
X797814Y431366D02*
D03*
X807314Y408686D02*
D03*
X788314D02*
D03*
D31*
X855852Y448910D02*
D03*
Y453910D02*
D03*
Y458910D02*
D03*
Y463910D02*
D03*
Y468910D02*
D03*
Y473910D02*
D03*
X855852Y478910D02*
D03*
Y483910D02*
D03*
X855852Y488910D02*
D03*
Y493910D02*
D03*
Y498910D02*
D03*
Y503910D02*
D03*
Y508910D02*
D03*
X855852Y513910D02*
D03*
Y518910D02*
D03*
X855852Y523910D02*
D03*
X966852Y523910D02*
D03*
Y518910D02*
D03*
Y513910D02*
D03*
Y508910D02*
D03*
Y503910D02*
D03*
Y498910D02*
D03*
Y493910D02*
D03*
Y488910D02*
D03*
Y483910D02*
D03*
Y478910D02*
D03*
Y473910D02*
D03*
X966852Y468910D02*
D03*
Y463910D02*
D03*
X966852Y458910D02*
D03*
Y453910D02*
D03*
Y448910D02*
D03*
D32*
X873852Y541910D02*
D03*
X878852Y541910D02*
D03*
X883852D02*
D03*
X888852Y541910D02*
D03*
X893852D02*
D03*
X898852D02*
D03*
X903852D02*
D03*
X908852D02*
D03*
X913852Y541910D02*
D03*
X918852D02*
D03*
X923852D02*
D03*
X928852Y541910D02*
D03*
X933852D02*
D03*
X938852D02*
D03*
X943852D02*
D03*
X948852D02*
D03*
Y430656D02*
D03*
X943852D02*
D03*
X938852D02*
D03*
X933852D02*
D03*
X928852D02*
D03*
X923852D02*
D03*
X918852D02*
D03*
X913852D02*
D03*
X908852D02*
D03*
X903852D02*
D03*
X898852D02*
D03*
X893852D02*
D03*
X888852D02*
D03*
X883852D02*
D03*
X878852D02*
D03*
X873852D02*
D03*
D33*
X1109218Y700550D02*
D03*
Y690550D02*
D03*
Y660550D02*
D03*
Y640550D02*
D03*
Y610550D02*
D03*
Y600550D02*
D03*
Y590550D02*
D03*
Y580550D02*
D03*
Y540550D02*
D03*
Y530550D02*
D03*
Y550550D02*
D03*
Y560550D02*
D03*
Y520550D02*
D03*
Y510550D02*
D03*
Y500550D02*
D03*
Y490550D02*
D03*
Y480550D02*
D03*
Y470550D02*
D03*
Y460550D02*
D03*
Y450550D02*
D03*
Y440550D02*
D03*
Y430550D02*
D03*
Y570550D02*
D03*
Y620550D02*
D03*
Y630550D02*
D03*
Y650550D02*
D03*
Y670550D02*
D03*
Y680550D02*
D03*
Y710550D02*
D03*
Y720550D02*
D03*
D34*
X1134968Y742450D02*
D03*
Y408650D02*
D03*
D35*
X610857Y524857D02*
D03*
Y519858D02*
D03*
Y514857D02*
D03*
Y509858D02*
D03*
Y504857D02*
D03*
X640855D02*
D03*
Y509858D02*
D03*
Y514857D02*
D03*
Y524857D02*
D03*
Y519858D02*
D03*
D36*
X625871Y514768D02*
D03*
D37*
X640856Y464058D02*
D03*
X610856D02*
D03*
D38*
X602234Y567574D02*
D03*
Y553074D02*
D03*
X617474Y567574D02*
D03*
Y553074D02*
D03*
X648208Y567574D02*
D03*
Y553074D02*
D03*
X632968Y567574D02*
D03*
Y553074D02*
D03*
X693166Y491098D02*
D03*
Y505598D02*
D03*
X829310Y430784D02*
D03*
Y416284D02*
D03*
X844550Y430784D02*
D03*
Y416284D02*
D03*
X845312Y571892D02*
D03*
Y557392D02*
D03*
X860552Y571892D02*
D03*
Y557392D02*
D03*
X987806Y548524D02*
D03*
Y534024D02*
D03*
X1003046Y548524D02*
D03*
Y534024D02*
D03*
D39*
X728218Y390036D02*
D03*
D40*
Y440036D02*
D03*
D41*
X494284Y615950D02*
D03*
Y641350D02*
D03*
Y666750D02*
D03*
Y692150D02*
D03*
X617220Y637540D02*
D03*
X591820D02*
D03*
X566420D02*
D03*
X1022350D02*
D03*
X996950D02*
D03*
X971550D02*
D03*
X551180Y532130D02*
D03*
X617220Y727710D02*
D03*
X591820D02*
D03*
X566420D02*
D03*
X1022350D02*
D03*
X996950D02*
D03*
X971550D02*
D03*
X887307Y637540D02*
D03*
X861907D02*
D03*
X836507D02*
D03*
X887307Y727710D02*
D03*
X861907D02*
D03*
X836507D02*
D03*
X752263Y637540D02*
D03*
X726863D02*
D03*
X701463D02*
D03*
X752263Y727710D02*
D03*
X726863D02*
D03*
X701463D02*
D03*
X551180Y414020D02*
D03*
D42*
X494284Y717550D02*
D03*
X541020Y637540D02*
D03*
X946150D02*
D03*
X541020Y727710D02*
D03*
X946150D02*
D03*
X811107Y637540D02*
D03*
Y727710D02*
D03*
X676063Y637540D02*
D03*
Y727710D02*
D03*
D43*
X551180Y557530D02*
D03*
Y439420D02*
D03*
D44*
X782828Y463550D02*
D03*
X542544Y372872D02*
D03*
X855020Y396240D02*
D03*
X908304Y405130D02*
D03*
X982980Y452616D02*
D03*
X985520Y519950D02*
D03*
X1003046Y555752D02*
D03*
X988060Y554990D02*
D03*
X837946Y572008D02*
D03*
X868172Y571500D02*
D03*
X629666Y506476D02*
D03*
X622046Y506730D02*
D03*
X621792Y523240D02*
D03*
X629666Y522986D02*
D03*
X625871Y514768D02*
D03*
X621871Y532980D02*
D03*
X631671D02*
D03*
X621871Y496556D02*
D03*
X631671D02*
D03*
X602234Y573786D02*
D03*
X617474D02*
D03*
X632968D02*
D03*
X648208D02*
D03*
X677926Y573140D02*
D03*
X684138Y521208D02*
D03*
X699378Y491098D02*
D03*
X684138Y490728D02*
D03*
Y475488D02*
D03*
X652918Y431038D02*
D03*
Y415798D02*
D03*
X652780Y400050D02*
D03*
X596900D02*
D03*
X596784Y415798D02*
D03*
Y431038D02*
D03*
X877709Y554672D02*
D03*
X868172Y453898D02*
D03*
X829310Y410072D02*
D03*
X844550D02*
D03*
X850646Y379730D02*
D03*
X872236Y379476D02*
D03*
X930077Y417835D02*
D03*
X987298Y429768D02*
D03*
X1017270Y456184D02*
D03*
X1119886Y450596D02*
D03*
Y460502D02*
D03*
X598678Y516890D02*
D03*
X689356Y551434D02*
D03*
M02*
