G04*
G04 #@! TF.GenerationSoftware,Altium Limited,Altium Designer,24.0.1 (36)*
G04*
G04 Layer_Color=32896*
%FSLAX44Y44*%
%MOMM*%
G71*
G04*
G04 #@! TF.SameCoordinates,3FE1674D-11C2-4531-B8C6-FC8791136C40*
G04*
G04*
G04 #@! TF.FilePolarity,Positive*
G04*
G01*
G75*
%ADD10C,0.2540*%
%ADD12C,0.5080*%
%ADD18C,0.3810*%
G36*
X1018952Y386978D02*
Y390885D01*
X1019253D01*
Y394190D01*
X1019553D01*
Y397496D01*
X1019854D01*
Y400502D01*
X1020154D01*
Y403507D01*
X1020455D01*
Y406512D01*
X1020755D01*
Y409518D01*
X1021056D01*
Y412222D01*
X1021356D01*
Y414927D01*
X1021657D01*
Y417632D01*
X1021957D01*
Y420337D01*
X1022258D01*
Y422741D01*
X1022559D01*
Y425145D01*
X1022859D01*
Y426948D01*
X1023160D01*
Y429052D01*
X1023460D01*
Y430855D01*
X1023761D01*
Y432358D01*
X1024061D01*
Y433560D01*
X1024362D01*
Y434762D01*
X1024662D01*
Y435664D01*
X1024963D01*
Y436565D01*
X1025263D01*
Y437467D01*
X1025564D01*
Y438068D01*
X1025864D01*
Y438969D01*
X1026165D01*
Y439871D01*
X1026465D01*
Y440472D01*
X1026766D01*
Y441374D01*
X1027066D01*
Y441975D01*
X1027367D01*
Y442576D01*
X1027668D01*
Y443177D01*
X1027968D01*
Y443778D01*
X1028269D01*
Y444379D01*
X1028569D01*
Y444980D01*
X1028870D01*
Y445581D01*
X1029170D01*
Y446182D01*
X1029471D01*
Y446783D01*
X1029771D01*
Y447084D01*
X1030072D01*
Y447685D01*
X1030372D01*
Y447985D01*
X1030673D01*
Y448587D01*
X1030973D01*
Y449188D01*
X1031274D01*
Y449488D01*
X1031574D01*
Y450089D01*
X1031875D01*
Y450390D01*
X1032176D01*
Y450991D01*
X1032476D01*
Y451291D01*
X1032777D01*
Y451892D01*
X1033077D01*
Y452193D01*
X1033378D01*
Y452493D01*
X1033678D01*
Y453094D01*
X1033979D01*
Y453395D01*
X1034279D01*
Y453695D01*
X1034580D01*
Y453996D01*
X1034880D01*
Y454597D01*
X1035181D01*
Y454898D01*
X1035481D01*
Y455198D01*
X1035782D01*
Y455499D01*
X1036082D01*
Y455799D01*
X1036383D01*
Y456400D01*
X1036684D01*
Y456701D01*
X1036984D01*
Y457001D01*
X1037284D01*
Y457302D01*
X1037585D01*
Y457602D01*
X1037886D01*
Y457903D01*
X1038186D01*
Y458203D01*
X1038487D01*
Y458504D01*
X1038787D01*
Y458805D01*
X1039088D01*
Y459105D01*
X1039388D01*
Y459406D01*
X1039689D01*
Y459706D01*
X1039989D01*
Y460007D01*
X1040290D01*
Y460307D01*
X1040590D01*
Y460608D01*
X1040891D01*
Y460908D01*
X1041191D01*
Y461209D01*
X1041492D01*
Y461509D01*
X1041793D01*
Y461810D01*
X1042093D01*
X1042393D01*
Y462110D01*
X1042694D01*
Y462411D01*
X1042995D01*
Y462711D01*
X1043295D01*
Y463012D01*
X1043596D01*
Y463312D01*
X1043896D01*
X1044197D01*
Y463613D01*
X1044497D01*
Y463913D01*
X1044798D01*
Y464214D01*
X1045098D01*
X1045399D01*
Y464515D01*
X1045699D01*
Y464815D01*
X1046000D01*
Y465116D01*
X1046300D01*
X1046601D01*
Y465416D01*
X1046901D01*
Y465717D01*
X1047202D01*
X1047503D01*
Y466017D01*
X1047803D01*
X1048104D01*
Y466318D01*
X1048404D01*
Y466618D01*
X1048705D01*
X1049005D01*
Y466919D01*
X1049306D01*
Y467219D01*
X1049606D01*
X1049907D01*
Y467520D01*
X1050207D01*
Y467820D01*
X1050508D01*
X1050808D01*
Y468121D01*
X1051109D01*
X1051410D01*
Y468421D01*
X1051710D01*
X1052010D01*
Y468722D01*
X1052311D01*
Y469022D01*
X1052612D01*
X1052912D01*
Y469323D01*
X1053213D01*
X1053513D01*
Y469624D01*
X1053814D01*
X1054114D01*
Y469924D01*
X1054415D01*
X1054715D01*
Y470225D01*
X1055016D01*
X1055316D01*
Y470525D01*
X1055617D01*
X1055917D01*
X1056218D01*
Y470826D01*
X1056518D01*
X1056819D01*
Y471126D01*
X1057120D01*
X1057420D01*
X1057721D01*
Y471427D01*
X1058021D01*
X1058322D01*
Y471727D01*
X1058622D01*
X1058923D01*
X1059223D01*
Y472028D01*
X1059524D01*
X1059824D01*
Y472328D01*
X1060125D01*
X1060425D01*
X1060726D01*
Y472629D01*
X1061026D01*
X1061327D01*
X1061628D01*
Y472929D01*
X1061928D01*
X1062228D01*
X1062529D01*
Y473230D01*
X1062830D01*
X1063130D01*
X1063431D01*
Y473531D01*
X1063731D01*
X1064032D01*
X1064332D01*
X1064633D01*
Y473831D01*
X1064933D01*
X1065234D01*
X1065534D01*
X1065835D01*
Y474132D01*
X1066135D01*
X1066436D01*
X1066737D01*
X1067037D01*
X1067338D01*
Y474432D01*
X1067638D01*
X1067939D01*
X1068239D01*
X1068540D01*
Y474733D01*
X1068840D01*
X1069141D01*
X1069441D01*
X1069742D01*
X1070042D01*
X1070343D01*
Y475033D01*
X1070643D01*
X1070944D01*
X1071245D01*
X1071545D01*
X1071845D01*
X1072146D01*
X1072447D01*
X1072747D01*
Y475334D01*
X1073048D01*
X1073348D01*
X1073649D01*
X1073949D01*
X1074250D01*
X1074550D01*
X1074851D01*
X1075151D01*
X1075452D01*
X1075752D01*
X1076053D01*
X1076354D01*
X1076654D01*
X1076954D01*
X1077255D01*
Y475634D01*
X1077556D01*
X1077856D01*
X1078157D01*
X1078457D01*
X1078758D01*
X1079058D01*
X1079359D01*
X1079659D01*
X1079960D01*
X1080260D01*
X1080561D01*
Y475334D01*
X1080861D01*
X1081162D01*
X1081462D01*
X1081763D01*
X1082064D01*
X1082364D01*
X1082665D01*
X1082965D01*
X1083266D01*
X1083566D01*
X1083867D01*
X1084167D01*
X1084468D01*
X1084768D01*
X1085069D01*
Y475033D01*
X1085369D01*
X1085670D01*
X1085970D01*
X1086271D01*
X1086572D01*
X1086872D01*
X1087173D01*
Y474733D01*
X1087473D01*
X1087774D01*
X1088074D01*
X1088375D01*
X1088675D01*
X1088976D01*
Y474432D01*
X1089276D01*
X1089577D01*
X1089877D01*
X1090178D01*
X1090478D01*
X1090779D01*
Y474132D01*
X1091079D01*
X1091380D01*
X1091681D01*
X1091981D01*
Y473831D01*
X1092282D01*
X1092582D01*
X1092883D01*
X1093183D01*
Y473531D01*
X1093484D01*
X1093784D01*
X1094085D01*
Y473230D01*
X1094385D01*
X1094686D01*
X1094986D01*
X1095287D01*
Y472929D01*
X1095587D01*
X1095888D01*
X1096189D01*
Y472629D01*
X1096489D01*
X1096789D01*
X1097090D01*
Y472328D01*
X1097391D01*
X1097691D01*
X1097992D01*
Y472028D01*
X1098292D01*
X1098593D01*
X1098893D01*
Y471727D01*
X1099194D01*
X1099494D01*
Y471427D01*
X1099795D01*
X1100095D01*
X1100396D01*
Y471126D01*
X1100696D01*
X1100997D01*
Y470826D01*
X1101298D01*
X1101598D01*
X1101898D01*
Y470525D01*
X1102199D01*
Y470225D01*
X1102500D01*
X1102800D01*
X1103101D01*
Y469924D01*
X1103401D01*
X1103702D01*
Y469624D01*
X1104002D01*
X1104303D01*
Y469323D01*
X1104603D01*
X1104904D01*
X1105204D01*
Y469022D01*
X1104904D01*
Y468722D01*
X1105204D01*
Y469022D01*
X1105505D01*
Y468722D01*
X1105805D01*
Y468421D01*
X1106106D01*
X1106406D01*
X1106707D01*
Y468121D01*
X1107008D01*
Y467820D01*
X1107308D01*
X1107609D01*
X1107909D01*
Y467520D01*
X1108210D01*
Y467219D01*
X1108510D01*
X1108811D01*
Y466919D01*
X1109111D01*
Y466618D01*
X1108811D01*
Y466318D01*
X1109111D01*
Y466618D01*
X1109412D01*
X1109712D01*
Y466318D01*
X1110013D01*
Y466017D01*
X1110313D01*
X1110614D01*
Y465717D01*
X1110914D01*
Y465416D01*
X1111215D01*
X1111516D01*
Y465116D01*
X1111816D01*
Y464815D01*
X1111516D01*
Y464515D01*
X1111816D01*
Y464815D01*
X1112117D01*
X1112417D01*
Y464515D01*
X1112718D01*
Y464214D01*
X1113018D01*
X1113319D01*
Y463913D01*
X1113619D01*
Y463613D01*
X1113920D01*
Y463312D01*
X1114220D01*
Y463012D01*
X1114521D01*
X1114821D01*
Y462711D01*
X1115122D01*
Y462411D01*
X1115422D01*
X1115723D01*
Y462110D01*
X1116023D01*
Y461810D01*
X1116324D01*
Y461509D01*
X1116023D01*
Y461209D01*
X1115723D01*
X1115422D01*
Y461509D01*
X1115723D01*
Y461810D01*
X1115422D01*
Y461509D01*
X1115122D01*
X1114821D01*
Y460908D01*
X1115122D01*
X1115422D01*
X1115723D01*
X1116023D01*
Y461209D01*
X1116324D01*
Y461509D01*
X1116625D01*
Y461209D01*
X1116925D01*
Y460608D01*
X1117226D01*
X1117526D01*
X1117827D01*
Y460307D01*
X1117526D01*
Y460007D01*
X1117827D01*
Y460307D01*
X1118127D01*
Y460007D01*
X1118428D01*
Y459706D01*
X1118728D01*
Y459105D01*
X1119029D01*
Y458805D01*
X1119329D01*
X1119630D01*
Y458203D01*
X1119930D01*
X1120231D01*
Y457903D01*
X1120531D01*
Y457602D01*
X1120231D01*
Y457001D01*
X1119930D01*
X1119630D01*
Y456701D01*
X1119930D01*
X1120231D01*
Y457001D01*
X1120531D01*
Y457602D01*
X1120832D01*
Y457001D01*
X1120531D01*
Y456701D01*
X1120231D01*
Y456400D01*
X1120531D01*
Y456701D01*
X1120832D01*
Y457001D01*
X1121133D01*
X1121433D01*
Y456400D01*
X1121733D01*
X1122034D01*
Y455799D01*
X1122335D01*
Y455499D01*
X1122635D01*
Y455198D01*
X1122936D01*
Y454898D01*
X1123236D01*
Y454597D01*
X1123537D01*
Y453996D01*
X1123837D01*
Y453395D01*
X1124138D01*
Y453094D01*
X1124438D01*
Y452794D01*
X1124138D01*
X1123837D01*
Y453094D01*
X1123537D01*
Y452794D01*
X1123236D01*
Y452493D01*
X1122936D01*
Y451892D01*
X1122635D01*
Y451592D01*
X1122936D01*
Y451892D01*
X1123236D01*
Y452193D01*
X1123537D01*
Y452493D01*
X1123837D01*
X1124138D01*
Y452193D01*
X1124438D01*
Y452794D01*
X1124739D01*
Y452493D01*
X1125039D01*
Y452193D01*
X1125340D01*
Y451892D01*
X1125039D01*
X1124739D01*
Y452193D01*
X1124438D01*
Y451592D01*
X1124138D01*
Y451892D01*
X1123837D01*
Y451592D01*
X1123537D01*
X1123236D01*
X1122936D01*
Y446783D01*
X1122635D01*
Y391486D01*
X1122936D01*
Y389081D01*
X1122635D01*
X1122335D01*
X1122034D01*
Y388480D01*
X1122335D01*
X1122635D01*
Y388180D01*
X1122936D01*
Y387579D01*
X1122635D01*
Y387278D01*
X1122335D01*
X1122034D01*
Y386677D01*
X1122335D01*
X1122635D01*
Y383973D01*
X1122335D01*
Y383672D01*
X1122034D01*
Y383071D01*
X1122335D01*
Y383672D01*
X1122635D01*
Y383973D01*
X1122936D01*
Y384273D01*
X1123236D01*
Y383973D01*
X1122936D01*
Y383672D01*
X1122635D01*
Y383071D01*
X1122335D01*
Y382770D01*
X1122034D01*
Y382169D01*
X1122335D01*
Y382770D01*
X1122635D01*
Y383071D01*
X1122936D01*
Y382770D01*
X1122635D01*
Y382169D01*
X1122335D01*
Y381869D01*
X1122034D01*
X1121733D01*
X1121433D01*
Y381568D01*
X1121133D01*
Y380967D01*
X1120832D01*
Y380667D01*
X1120531D01*
Y380366D01*
X1120832D01*
Y380667D01*
X1121133D01*
Y380967D01*
X1121433D01*
X1121733D01*
Y381268D01*
X1122034D01*
Y381568D01*
X1122335D01*
Y381869D01*
X1122635D01*
Y382169D01*
X1122936D01*
Y381869D01*
X1122635D01*
Y381568D01*
X1122335D01*
Y381268D01*
X1122034D01*
Y380667D01*
X1121733D01*
X1121433D01*
Y380066D01*
X1121133D01*
X1120832D01*
Y379464D01*
X1120531D01*
Y379164D01*
X1120231D01*
Y378863D01*
X1119930D01*
Y378563D01*
X1119630D01*
Y378262D01*
X1119329D01*
X1119029D01*
Y377661D01*
X1118728D01*
Y377361D01*
X1118428D01*
Y377060D01*
X1118127D01*
Y376760D01*
X1117827D01*
Y376459D01*
X1117526D01*
Y376159D01*
X1117226D01*
X1116925D01*
Y375858D01*
X1116625D01*
Y375558D01*
X1116324D01*
Y375257D01*
X1116023D01*
Y374957D01*
X1115723D01*
Y374656D01*
X1115422D01*
X1115122D01*
Y374356D01*
X1114821D01*
Y374055D01*
X1114521D01*
Y373754D01*
X1114220D01*
Y373454D01*
X1113920D01*
X1113619D01*
Y373153D01*
X1113319D01*
Y372853D01*
X1113018D01*
Y372552D01*
X1112718D01*
X1112417D01*
Y372252D01*
X1112117D01*
Y371951D01*
X1111816D01*
X1111516D01*
Y371651D01*
X1111215D01*
Y371350D01*
X1110914D01*
X1110614D01*
Y371050D01*
X1110313D01*
X1110013D01*
Y370749D01*
X1109712D01*
Y370449D01*
X1109412D01*
Y370148D01*
X1109111D01*
X1108811D01*
Y369847D01*
X1108510D01*
X1108210D01*
Y369547D01*
X1107909D01*
Y369246D01*
X1107609D01*
X1107308D01*
Y368946D01*
X1107008D01*
X1106707D01*
Y368645D01*
X1106406D01*
Y368345D01*
X1106106D01*
X1105805D01*
Y368044D01*
X1105505D01*
X1105204D01*
Y367744D01*
X1104904D01*
X1104603D01*
Y367443D01*
X1104303D01*
X1104002D01*
Y367143D01*
X1103702D01*
X1103401D01*
Y366842D01*
X1103101D01*
X1102800D01*
Y366542D01*
X1102500D01*
X1102199D01*
Y366241D01*
X1101898D01*
X1101598D01*
Y365941D01*
X1101298D01*
X1100997D01*
X1100696D01*
Y365640D01*
X1100396D01*
X1100095D01*
X1099795D01*
Y365340D01*
X1099494D01*
X1099194D01*
Y365039D01*
X1098893D01*
X1098593D01*
X1098292D01*
Y364739D01*
X1097992D01*
X1097691D01*
X1097391D01*
Y364438D01*
X1097090D01*
X1096789D01*
Y364137D01*
X1096489D01*
X1096189D01*
X1095888D01*
X1095587D01*
Y363837D01*
X1095287D01*
X1094986D01*
X1094686D01*
X1094385D01*
Y363536D01*
X1094085D01*
X1093784D01*
X1093484D01*
X1093183D01*
Y363236D01*
X1092883D01*
X1092582D01*
X1092282D01*
X1091981D01*
X1091681D01*
Y362935D01*
X1091380D01*
X1091079D01*
X1090779D01*
X1090478D01*
X1090178D01*
X1089877D01*
Y362635D01*
X1089577D01*
X1089276D01*
X1088976D01*
X1088675D01*
X1088375D01*
X1088074D01*
X1087774D01*
Y362334D01*
X1087473D01*
X1087173D01*
X1086872D01*
X1086572D01*
X1086271D01*
X1085970D01*
X1085670D01*
X1085369D01*
X1085069D01*
X1084768D01*
Y362034D01*
X1084468D01*
X1084167D01*
X1083867D01*
X1083566D01*
X1083266D01*
X1082965D01*
X1082665D01*
X1082364D01*
X1082064D01*
X1081763D01*
X1081462D01*
X1081162D01*
X1080861D01*
X1080561D01*
X1080260D01*
X1079960D01*
X1079659D01*
Y361733D01*
X1079359D01*
X1079058D01*
X1078758D01*
X1078457D01*
X1078157D01*
X1077856D01*
X1077556D01*
X1077255D01*
X1076954D01*
X1076654D01*
X1076354D01*
X1076053D01*
X1075752D01*
X1075452D01*
X1075151D01*
X1074851D01*
X1074550D01*
X1074250D01*
X1073949D01*
X1073649D01*
X1073348D01*
X1073048D01*
X1072747D01*
X1072447D01*
X1072146D01*
X1071845D01*
X1071545D01*
X1071245D01*
X1070944D01*
X1070643D01*
X1070343D01*
X1070042D01*
X1069742D01*
X1069441D01*
X1069141D01*
X1068840D01*
X1068540D01*
X1068239D01*
X1067939D01*
X1067638D01*
X1067338D01*
X1067037D01*
X1066737D01*
X1066436D01*
X1066135D01*
X1065835D01*
X1065534D01*
X1065234D01*
X1064933D01*
X1064633D01*
X1064332D01*
X1064032D01*
X1063731D01*
X1063431D01*
X1063130D01*
X1062830D01*
X1062529D01*
X1062228D01*
X1061928D01*
X1061628D01*
X1061327D01*
X1061026D01*
X1060726D01*
X1060425D01*
X1060125D01*
X1059824D01*
X1059524D01*
X1059223D01*
X1058923D01*
X1058622D01*
X1058322D01*
Y361433D01*
X1058021D01*
X1057721D01*
X1057420D01*
X1057120D01*
X1056819D01*
X1056518D01*
X1056218D01*
X1055917D01*
X1055617D01*
X1055316D01*
X1055016D01*
X1054715D01*
X1054415D01*
X1054114D01*
X1053814D01*
X1053513D01*
X1053213D01*
X1052912D01*
X1052612D01*
X1052311D01*
X1052010D01*
X1051710D01*
X1051410D01*
X1051109D01*
X1050808D01*
X1050508D01*
X1050207D01*
X1049907D01*
X1049606D01*
X1049306D01*
X1049005D01*
X1048705D01*
X1048404D01*
X1048104D01*
X1047803D01*
X1047503D01*
X1047202D01*
X1046901D01*
X1046601D01*
X1046300D01*
X1046000D01*
X1045699D01*
X1045399D01*
X1045098D01*
X1044798D01*
X1044497D01*
X1044197D01*
X1043896D01*
X1043596D01*
X1043295D01*
X1042995D01*
X1042694D01*
X1042393D01*
Y361132D01*
X1042093D01*
X1041793D01*
X1041492D01*
X1041191D01*
X1040891D01*
X1040590D01*
X1040290D01*
X1039989D01*
X1039689D01*
X1039388D01*
X1039088D01*
X1038787D01*
X1038487D01*
X1038186D01*
X1037886D01*
X1037585D01*
X1037284D01*
X1036984D01*
X1036684D01*
X1036383D01*
X1036082D01*
X1035782D01*
X1035481D01*
X1035181D01*
X1034880D01*
X1034580D01*
X1034279D01*
X1033979D01*
X1033678D01*
X1033378D01*
X1033077D01*
X1032777D01*
X1032476D01*
X1032176D01*
X1031875D01*
X1031574D01*
X1031274D01*
X1030973D01*
X1030673D01*
X1030372D01*
X1030072D01*
Y361433D01*
X1029771D01*
X1029471D01*
X1029170D01*
X1028870D01*
X1028569D01*
X1028269D01*
X1027968D01*
X1027668D01*
X1027367D01*
X1027066D01*
X1026766D01*
X1026465D01*
X1026165D01*
X1025864D01*
X1025564D01*
X1025263D01*
X1024963D01*
X1024662D01*
X1024362D01*
X1024061D01*
X1023761D01*
X1023460D01*
X1023160D01*
X1022859D01*
X1022559D01*
Y361733D01*
X1022859D01*
Y362334D01*
X1023160D01*
Y362635D01*
X1023460D01*
Y362935D01*
X1023761D01*
Y363236D01*
X1024061D01*
Y363536D01*
X1024362D01*
Y363837D01*
X1024662D01*
Y364137D01*
X1024963D01*
Y364438D01*
X1025263D01*
Y364739D01*
X1025564D01*
Y365039D01*
X1025864D01*
Y365640D01*
X1026165D01*
Y365941D01*
X1026465D01*
Y366241D01*
X1026766D01*
Y366542D01*
X1027066D01*
Y366842D01*
X1027367D01*
Y367143D01*
X1027668D01*
Y367443D01*
X1027968D01*
Y367744D01*
X1028269D01*
Y368044D01*
X1028569D01*
Y368345D01*
X1028870D01*
Y368645D01*
X1029170D01*
Y368946D01*
X1029471D01*
Y369246D01*
X1029771D01*
Y369547D01*
X1030072D01*
Y369847D01*
X1030372D01*
Y370148D01*
X1030673D01*
Y370449D01*
X1030973D01*
Y370749D01*
X1031274D01*
Y371050D01*
X1031574D01*
Y371350D01*
X1031875D01*
Y371651D01*
X1032176D01*
Y371951D01*
X1032476D01*
Y372252D01*
X1032777D01*
Y372552D01*
X1033077D01*
Y372853D01*
X1033378D01*
Y373454D01*
X1033678D01*
Y373754D01*
X1033979D01*
Y374055D01*
X1034279D01*
Y374356D01*
X1034580D01*
Y374656D01*
X1034880D01*
X1035181D01*
Y374957D01*
X1035481D01*
Y375257D01*
X1035782D01*
Y375858D01*
X1036082D01*
Y376159D01*
X1036383D01*
Y376459D01*
X1036684D01*
Y376760D01*
X1036984D01*
Y377060D01*
X1037284D01*
Y377361D01*
X1037585D01*
Y377661D01*
X1037886D01*
Y377962D01*
X1038186D01*
Y378262D01*
X1038487D01*
Y378563D01*
X1038787D01*
Y378863D01*
X1039088D01*
Y379164D01*
X1039388D01*
Y379464D01*
X1039689D01*
Y379765D01*
X1039989D01*
Y380066D01*
X1040290D01*
Y380366D01*
X1040590D01*
Y380667D01*
X1040891D01*
Y380967D01*
X1041191D01*
Y381268D01*
X1041492D01*
Y381568D01*
X1041793D01*
Y381869D01*
X1042093D01*
Y382169D01*
X1042393D01*
Y382470D01*
X1042694D01*
Y382770D01*
X1042995D01*
Y383071D01*
X1043295D01*
Y383371D01*
X1043596D01*
Y383672D01*
X1043896D01*
Y383973D01*
X1044197D01*
Y384273D01*
X1044497D01*
Y384574D01*
X1044798D01*
Y384874D01*
X1045098D01*
Y385175D01*
X1045399D01*
Y385475D01*
X1045699D01*
Y385776D01*
X1046000D01*
Y386076D01*
X1046300D01*
Y386377D01*
X1046601D01*
Y386677D01*
X1046901D01*
Y386978D01*
X1047202D01*
Y387278D01*
X1047503D01*
Y387579D01*
X1047803D01*
Y387879D01*
X1048104D01*
Y388180D01*
X1048404D01*
Y388480D01*
X1048705D01*
Y388781D01*
X1049005D01*
Y389081D01*
X1049306D01*
Y389382D01*
X1049606D01*
Y389683D01*
X1049907D01*
Y389983D01*
X1050207D01*
Y390284D01*
X1050508D01*
Y390584D01*
X1050808D01*
Y390885D01*
X1051109D01*
Y391185D01*
X1051410D01*
Y391486D01*
X1051710D01*
Y391786D01*
X1052010D01*
Y392087D01*
X1052311D01*
Y392387D01*
X1052612D01*
Y392688D01*
X1052912D01*
Y392988D01*
X1053213D01*
Y393289D01*
X1053513D01*
Y393589D01*
X1053814D01*
Y393890D01*
X1054114D01*
Y394190D01*
X1054415D01*
Y394491D01*
X1054715D01*
Y394791D01*
X1055016D01*
Y395092D01*
X1055316D01*
Y395393D01*
X1055617D01*
Y395693D01*
X1055917D01*
Y395994D01*
X1056218D01*
Y396294D01*
X1056518D01*
Y396595D01*
X1056819D01*
Y396895D01*
X1057120D01*
Y397196D01*
X1057420D01*
Y397496D01*
X1057721D01*
Y397797D01*
X1058021D01*
Y398097D01*
X1058322D01*
Y398398D01*
X1058622D01*
Y398698D01*
X1058923D01*
Y398999D01*
X1059223D01*
Y399300D01*
X1059524D01*
Y399600D01*
X1059824D01*
Y399901D01*
X1060125D01*
Y400201D01*
X1060425D01*
Y400502D01*
X1060726D01*
Y400802D01*
X1061026D01*
Y401103D01*
X1061327D01*
Y401403D01*
X1061628D01*
Y401704D01*
X1061928D01*
Y402004D01*
X1062228D01*
Y402305D01*
X1062529D01*
Y402605D01*
X1062830D01*
Y402906D01*
X1063130D01*
Y403206D01*
X1063431D01*
Y403507D01*
X1063731D01*
Y403807D01*
X1064032D01*
Y404108D01*
X1064332D01*
Y404408D01*
X1064633D01*
Y404709D01*
X1064933D01*
Y405010D01*
X1065234D01*
Y405310D01*
X1065534D01*
Y405611D01*
X1065835D01*
Y405911D01*
X1066135D01*
Y406212D01*
X1066436D01*
Y406512D01*
X1066737D01*
Y407113D01*
X1067037D01*
Y407414D01*
X1067338D01*
Y407714D01*
X1067638D01*
Y408315D01*
X1067939D01*
X1068239D01*
Y408917D01*
X1068540D01*
Y409518D01*
X1068840D01*
Y409818D01*
X1069141D01*
Y410119D01*
X1069441D01*
Y410419D01*
X1069742D01*
Y410720D01*
X1070042D01*
Y411321D01*
X1070343D01*
Y411621D01*
X1070643D01*
Y412222D01*
X1070944D01*
Y412523D01*
X1071245D01*
Y412823D01*
X1071545D01*
Y414326D01*
X1071245D01*
Y415528D01*
X1070944D01*
Y417031D01*
X1070643D01*
Y418233D01*
X1070343D01*
Y419435D01*
X1070042D01*
Y420938D01*
X1069742D01*
Y422440D01*
X1069441D01*
Y424244D01*
X1069742D01*
Y425145D01*
X1070042D01*
Y425746D01*
X1070343D01*
Y426047D01*
X1070643D01*
Y426347D01*
X1070944D01*
X1071245D01*
Y426648D01*
X1071545D01*
Y426948D01*
X1071845D01*
X1072146D01*
Y427249D01*
X1072447D01*
X1072747D01*
X1073048D01*
Y427549D01*
X1073348D01*
X1073649D01*
X1073949D01*
Y427850D01*
X1074250D01*
X1074550D01*
X1074851D01*
Y428150D01*
X1075151D01*
X1075452D01*
X1075752D01*
Y428451D01*
X1076053D01*
X1076354D01*
X1076654D01*
Y428751D01*
X1076954D01*
X1077255D01*
Y429052D01*
X1077556D01*
X1077856D01*
X1078157D01*
Y429352D01*
X1078457D01*
X1078758D01*
X1079058D01*
X1079359D01*
Y429653D01*
X1079659D01*
X1079960D01*
Y429954D01*
X1080260D01*
X1080561D01*
X1080861D01*
Y430254D01*
X1081162D01*
X1081462D01*
X1081763D01*
Y430555D01*
X1082064D01*
X1082364D01*
X1082665D01*
Y430855D01*
X1082965D01*
X1083266D01*
X1083566D01*
Y431156D01*
X1083867D01*
X1084167D01*
X1084468D01*
Y431456D01*
X1084768D01*
X1085069D01*
X1085369D01*
Y431757D01*
X1085670D01*
X1085970D01*
Y432057D01*
X1086271D01*
X1086572D01*
X1086872D01*
X1087173D01*
Y432358D01*
X1087473D01*
X1087774D01*
Y432658D01*
X1088074D01*
X1088375D01*
X1088675D01*
X1088976D01*
Y432959D01*
X1089276D01*
X1089577D01*
Y433259D01*
X1089877D01*
X1090178D01*
X1090478D01*
X1090779D01*
X1091079D01*
X1091380D01*
Y433560D01*
X1091681D01*
Y433259D01*
X1091981D01*
X1092282D01*
X1092582D01*
Y432959D01*
X1092883D01*
X1093183D01*
Y432658D01*
X1093484D01*
Y432358D01*
X1093784D01*
Y431757D01*
X1094085D01*
Y430855D01*
X1094385D01*
Y429954D01*
X1094085D01*
Y429052D01*
X1093784D01*
Y428451D01*
X1093484D01*
Y428150D01*
X1093183D01*
Y427850D01*
X1092883D01*
X1092582D01*
Y427549D01*
X1092282D01*
X1091981D01*
Y427249D01*
X1091681D01*
X1091380D01*
X1091079D01*
Y426948D01*
X1090779D01*
X1090478D01*
X1090178D01*
Y426648D01*
X1089877D01*
X1089577D01*
X1089276D01*
Y426347D01*
X1088976D01*
X1088675D01*
X1088375D01*
Y426047D01*
X1088074D01*
X1087774D01*
X1087473D01*
Y425746D01*
X1087173D01*
X1086872D01*
X1086572D01*
Y425446D01*
X1086271D01*
X1085970D01*
Y425145D01*
X1085670D01*
X1085369D01*
X1085069D01*
X1084768D01*
Y424845D01*
X1084468D01*
X1084167D01*
X1083867D01*
Y424544D01*
X1083566D01*
X1083266D01*
X1082965D01*
Y424244D01*
X1082665D01*
X1082364D01*
X1082064D01*
Y423943D01*
X1081763D01*
X1081462D01*
X1081162D01*
Y423642D01*
X1080861D01*
X1080561D01*
X1080260D01*
Y423342D01*
X1079960D01*
X1079659D01*
X1079359D01*
Y423041D01*
X1079058D01*
X1078758D01*
Y422741D01*
X1078457D01*
X1078157D01*
X1077856D01*
X1077556D01*
Y422440D01*
X1077255D01*
X1076954D01*
Y422140D01*
X1076654D01*
X1076354D01*
Y420637D01*
X1076654D01*
Y419134D01*
X1076954D01*
Y417632D01*
X1077255D01*
Y415829D01*
X1077556D01*
Y414326D01*
X1077856D01*
Y412823D01*
X1078157D01*
Y411922D01*
X1078457D01*
Y411621D01*
X1078758D01*
Y411321D01*
X1079058D01*
Y411020D01*
X1079359D01*
Y410720D01*
X1079659D01*
X1079960D01*
Y410419D01*
X1080260D01*
Y410119D01*
X1080561D01*
Y409818D01*
X1080861D01*
X1081162D01*
Y409518D01*
X1081462D01*
Y409217D01*
X1081763D01*
Y408917D01*
X1082064D01*
X1082364D01*
Y408616D01*
X1082665D01*
Y408315D01*
X1082965D01*
Y408015D01*
X1083266D01*
Y407714D01*
X1083566D01*
X1083867D01*
Y407414D01*
X1084167D01*
Y407113D01*
X1084468D01*
Y406813D01*
X1084768D01*
X1085069D01*
Y406512D01*
X1085369D01*
X1085670D01*
X1085970D01*
X1086271D01*
X1086572D01*
Y406212D01*
X1086872D01*
X1087173D01*
X1087473D01*
X1087774D01*
X1088074D01*
X1088375D01*
X1088675D01*
X1088976D01*
X1089276D01*
X1089577D01*
X1089877D01*
X1090178D01*
X1090478D01*
X1090779D01*
X1091079D01*
X1091380D01*
X1091681D01*
X1091981D01*
X1092282D01*
X1092582D01*
X1092883D01*
X1093183D01*
X1093484D01*
X1093784D01*
X1094085D01*
X1094385D01*
X1094686D01*
X1094986D01*
Y407113D01*
X1095287D01*
Y408917D01*
X1095587D01*
Y410720D01*
X1095888D01*
Y412523D01*
X1096189D01*
Y414627D01*
X1096489D01*
Y416730D01*
X1096789D01*
Y418233D01*
X1097090D01*
Y420337D01*
X1097391D01*
Y421839D01*
X1097691D01*
Y423342D01*
X1097992D01*
Y424244D01*
X1098292D01*
Y424544D01*
X1098593D01*
X1098893D01*
Y425145D01*
X1099194D01*
X1099494D01*
Y425446D01*
X1099795D01*
X1100095D01*
X1100396D01*
X1100696D01*
X1100997D01*
X1101298D01*
X1101598D01*
Y425145D01*
X1101898D01*
X1102199D01*
Y424845D01*
X1102500D01*
Y424544D01*
X1102800D01*
X1103101D01*
Y423943D01*
X1103401D01*
Y423342D01*
X1103101D01*
Y423041D01*
X1103401D01*
Y423342D01*
X1103702D01*
Y420938D01*
X1103401D01*
Y419134D01*
X1103101D01*
Y417632D01*
X1102800D01*
Y416129D01*
X1102500D01*
Y414025D01*
X1102199D01*
Y411922D01*
X1101898D01*
Y410119D01*
X1101598D01*
Y408315D01*
X1101298D01*
Y406212D01*
X1100997D01*
X1100696D01*
Y405911D01*
X1100997D01*
Y404408D01*
X1100696D01*
Y402605D01*
X1100396D01*
Y401704D01*
X1100095D01*
Y401103D01*
X1099795D01*
Y400802D01*
X1099494D01*
Y400502D01*
X1099194D01*
X1098893D01*
Y400201D01*
X1098593D01*
X1098292D01*
Y399901D01*
X1097992D01*
X1097691D01*
X1097391D01*
X1097090D01*
X1096789D01*
X1096489D01*
X1096189D01*
X1095888D01*
X1095587D01*
X1095287D01*
X1094986D01*
X1094686D01*
X1094385D01*
X1094085D01*
X1093784D01*
X1093484D01*
X1093183D01*
X1092883D01*
X1092582D01*
X1092282D01*
X1091981D01*
X1091681D01*
X1091380D01*
X1091079D01*
X1090779D01*
X1090478D01*
X1090178D01*
X1089877D01*
X1089577D01*
X1089276D01*
Y400201D01*
X1088976D01*
X1088675D01*
X1088375D01*
X1088074D01*
X1087774D01*
X1087473D01*
Y399901D01*
X1087173D01*
Y399600D01*
X1086872D01*
Y399300D01*
X1086572D01*
X1086271D01*
Y398999D01*
X1085970D01*
Y398698D01*
X1085670D01*
Y398398D01*
X1085369D01*
Y398097D01*
X1085069D01*
Y397797D01*
X1084768D01*
Y397496D01*
X1084468D01*
X1084167D01*
Y396895D01*
X1083867D01*
Y396595D01*
X1083566D01*
Y396294D01*
X1083266D01*
X1082965D01*
Y395693D01*
X1082665D01*
Y395393D01*
X1082364D01*
Y395092D01*
X1082064D01*
Y394791D01*
X1081763D01*
Y394491D01*
X1081462D01*
Y394190D01*
X1081162D01*
Y393890D01*
X1080861D01*
Y393589D01*
X1080561D01*
Y393289D01*
X1080260D01*
Y392988D01*
X1079960D01*
Y392688D01*
X1079659D01*
Y392387D01*
X1079359D01*
Y392087D01*
X1079058D01*
Y391786D01*
X1078758D01*
Y391486D01*
X1078457D01*
Y391185D01*
X1078157D01*
Y390885D01*
X1077856D01*
Y390584D01*
X1077556D01*
Y390284D01*
X1077255D01*
Y389983D01*
X1076954D01*
Y389683D01*
X1076654D01*
Y389382D01*
X1076354D01*
Y389081D01*
X1076053D01*
Y388781D01*
X1075752D01*
Y388480D01*
X1075452D01*
Y388180D01*
X1075151D01*
Y387879D01*
X1074851D01*
Y387579D01*
X1074550D01*
Y387278D01*
X1074250D01*
Y386978D01*
X1073949D01*
Y386677D01*
X1073649D01*
Y386377D01*
X1073348D01*
Y386076D01*
X1073048D01*
Y385776D01*
X1072747D01*
Y385475D01*
X1072447D01*
Y385175D01*
X1072146D01*
Y384874D01*
X1071845D01*
Y384273D01*
X1072146D01*
Y383973D01*
X1072447D01*
X1072747D01*
X1073048D01*
Y383672D01*
X1073348D01*
X1073649D01*
X1073949D01*
Y383371D01*
X1074250D01*
X1074550D01*
X1074851D01*
X1075151D01*
X1075452D01*
X1075752D01*
X1076053D01*
X1076354D01*
Y383071D01*
X1076654D01*
X1076954D01*
X1077255D01*
X1077556D01*
X1077856D01*
X1078157D01*
X1078457D01*
X1078758D01*
X1079058D01*
X1079359D01*
X1079659D01*
X1079960D01*
X1080260D01*
X1080561D01*
X1080861D01*
X1081162D01*
X1081462D01*
Y383371D01*
X1081763D01*
X1082064D01*
X1082364D01*
X1082665D01*
X1082965D01*
X1083266D01*
X1083566D01*
X1083867D01*
X1084167D01*
Y383672D01*
X1084468D01*
X1084768D01*
X1085069D01*
X1085369D01*
X1085670D01*
Y383973D01*
X1085970D01*
X1086271D01*
X1086572D01*
X1086872D01*
Y384273D01*
X1087173D01*
X1087473D01*
X1087774D01*
X1088074D01*
Y384574D01*
X1088375D01*
X1088675D01*
X1088976D01*
X1089276D01*
Y384874D01*
X1089577D01*
X1089877D01*
X1090178D01*
Y385175D01*
X1090478D01*
X1090779D01*
X1091079D01*
Y385475D01*
X1091380D01*
X1091681D01*
X1091981D01*
Y385776D01*
X1092282D01*
X1092582D01*
Y386076D01*
X1092883D01*
X1093183D01*
Y386377D01*
X1093484D01*
X1093784D01*
X1094085D01*
Y386677D01*
X1094385D01*
X1094686D01*
Y386978D01*
X1094986D01*
X1095287D01*
Y387278D01*
X1095587D01*
X1095888D01*
Y387579D01*
X1096189D01*
X1096489D01*
Y387879D01*
X1096789D01*
X1097090D01*
Y388180D01*
X1097391D01*
Y387879D01*
X1097691D01*
Y388480D01*
X1097992D01*
X1098292D01*
Y388781D01*
X1098593D01*
Y389081D01*
X1098893D01*
Y389382D01*
X1099194D01*
X1099494D01*
Y389683D01*
X1099795D01*
Y389983D01*
X1100095D01*
X1100396D01*
Y390284D01*
X1100696D01*
Y390584D01*
X1100997D01*
Y390885D01*
X1101298D01*
Y391185D01*
X1101598D01*
X1101898D01*
Y391486D01*
X1102199D01*
Y391786D01*
X1102500D01*
Y392087D01*
X1102800D01*
X1103101D01*
Y392387D01*
X1103401D01*
Y392688D01*
X1103702D01*
Y392988D01*
X1104002D01*
Y393289D01*
X1104303D01*
Y393589D01*
X1104603D01*
Y393890D01*
X1104904D01*
Y394190D01*
X1105204D01*
Y394491D01*
X1105505D01*
Y395092D01*
X1105805D01*
X1106106D01*
Y395693D01*
X1106406D01*
Y395994D01*
X1106707D01*
Y396294D01*
X1107008D01*
Y396595D01*
X1107308D01*
Y397196D01*
X1107609D01*
Y397496D01*
X1107909D01*
Y397797D01*
X1108210D01*
Y398097D01*
X1108510D01*
Y398698D01*
X1108811D01*
Y399300D01*
X1109111D01*
Y399901D01*
X1109412D01*
Y400201D01*
X1109712D01*
Y400502D01*
X1110013D01*
Y401103D01*
X1110313D01*
X1110614D01*
Y401403D01*
X1110914D01*
Y401704D01*
X1110614D01*
Y401403D01*
X1110313D01*
Y401704D01*
X1110614D01*
Y402305D01*
X1110914D01*
Y402004D01*
X1111215D01*
Y401403D01*
X1110914D01*
Y401103D01*
X1111215D01*
Y401403D01*
X1111516D01*
Y402305D01*
X1111215D01*
Y402605D01*
X1110914D01*
Y402906D01*
X1111215D01*
Y403507D01*
X1111516D01*
Y404108D01*
X1111816D01*
Y404709D01*
X1112117D01*
Y405310D01*
X1112417D01*
Y406212D01*
X1112718D01*
Y407113D01*
X1113018D01*
Y408315D01*
X1113319D01*
Y407714D01*
X1113619D01*
Y408616D01*
X1113920D01*
Y407714D01*
X1113619D01*
Y406512D01*
X1113319D01*
Y407113D01*
X1113018D01*
Y406212D01*
X1113319D01*
X1113619D01*
Y405911D01*
X1113319D01*
X1113018D01*
Y405310D01*
X1113319D01*
X1113619D01*
Y405010D01*
X1113920D01*
Y405611D01*
X1114220D01*
Y405911D01*
X1114521D01*
Y407414D01*
X1114220D01*
Y405911D01*
X1113920D01*
Y407414D01*
X1114220D01*
Y408917D01*
X1114521D01*
Y409518D01*
X1114220D01*
Y408917D01*
X1113920D01*
Y409518D01*
X1113619D01*
Y410119D01*
X1113920D01*
Y411621D01*
X1114220D01*
Y413424D01*
X1114521D01*
Y416129D01*
X1114821D01*
Y421238D01*
X1114521D01*
Y423943D01*
X1114821D01*
Y424544D01*
X1114521D01*
Y423943D01*
X1114220D01*
Y425746D01*
X1113920D01*
Y426948D01*
X1113619D01*
Y427850D01*
X1113920D01*
Y428150D01*
X1113619D01*
X1113319D01*
Y428751D01*
X1113619D01*
Y429653D01*
X1113319D01*
Y429052D01*
X1113018D01*
Y429954D01*
X1112718D01*
Y430855D01*
X1112417D01*
Y431456D01*
X1112117D01*
Y432057D01*
X1111816D01*
Y432959D01*
X1111516D01*
Y433560D01*
X1111215D01*
Y433861D01*
X1110914D01*
Y434462D01*
X1111215D01*
Y434762D01*
X1111516D01*
Y435063D01*
X1111215D01*
Y434762D01*
X1110914D01*
X1110614D01*
Y435664D01*
X1110313D01*
Y435964D01*
X1110013D01*
Y436265D01*
X1109712D01*
Y436866D01*
X1110013D01*
Y436565D01*
X1110313D01*
Y437166D01*
X1110013D01*
X1109712D01*
Y436866D01*
X1109412D01*
Y437166D01*
X1109111D01*
Y437467D01*
X1109412D01*
Y437767D01*
X1109111D01*
Y437467D01*
X1108811D01*
Y438068D01*
X1108510D01*
Y438368D01*
X1108210D01*
Y438669D01*
X1107909D01*
Y439270D01*
X1107609D01*
Y439571D01*
X1107308D01*
Y439871D01*
X1107609D01*
Y440172D01*
X1107308D01*
Y439871D01*
X1107008D01*
Y440172D01*
X1106707D01*
Y440472D01*
X1106406D01*
Y441073D01*
X1106106D01*
Y441674D01*
X1106406D01*
Y441975D01*
X1106106D01*
Y441674D01*
X1105805D01*
X1105505D01*
Y441975D01*
X1105204D01*
Y442275D01*
X1104904D01*
Y442576D01*
X1104603D01*
Y442876D01*
X1104303D01*
Y443177D01*
X1104002D01*
Y443477D01*
X1103702D01*
Y443778D01*
X1103401D01*
X1103101D01*
Y444078D01*
X1103401D01*
Y444379D01*
X1103101D01*
X1102800D01*
X1102500D01*
Y444680D01*
X1102199D01*
Y444980D01*
X1101898D01*
Y445281D01*
X1101598D01*
Y445581D01*
X1101298D01*
Y445882D01*
X1100997D01*
X1100696D01*
Y446182D01*
X1100396D01*
Y446483D01*
X1100095D01*
Y446783D01*
X1099795D01*
X1099494D01*
Y447084D01*
X1099194D01*
Y447384D01*
X1099494D01*
Y447685D01*
X1099194D01*
Y447384D01*
X1098893D01*
X1098593D01*
Y447985D01*
X1098292D01*
X1097992D01*
X1097691D01*
Y448286D01*
X1097391D01*
X1097090D01*
Y448587D01*
X1096789D01*
Y448887D01*
X1096489D01*
X1096189D01*
Y449188D01*
X1095888D01*
X1095587D01*
Y449488D01*
X1095287D01*
Y449789D01*
X1094986D01*
X1094686D01*
X1094385D01*
Y450089D01*
X1094085D01*
X1093784D01*
Y450390D01*
X1093484D01*
X1093183D01*
Y450690D01*
X1092883D01*
X1092582D01*
Y450991D01*
X1092282D01*
X1091981D01*
X1091681D01*
Y451291D01*
X1091380D01*
X1091079D01*
X1090779D01*
Y451592D01*
X1090478D01*
X1090178D01*
Y451892D01*
X1089877D01*
X1089577D01*
X1089276D01*
X1088976D01*
Y452193D01*
X1088675D01*
X1088375D01*
X1088074D01*
Y452493D01*
X1087774D01*
X1087473D01*
X1087173D01*
X1086872D01*
Y452794D01*
X1086572D01*
X1086271D01*
X1085970D01*
X1085670D01*
X1085369D01*
Y453094D01*
X1085069D01*
X1084768D01*
X1084468D01*
X1084167D01*
X1083867D01*
X1083566D01*
Y453395D01*
X1083266D01*
X1082965D01*
X1082665D01*
X1082364D01*
X1082064D01*
X1081763D01*
X1081462D01*
X1081162D01*
Y453695D01*
X1080861D01*
X1080561D01*
X1080260D01*
X1079960D01*
X1079659D01*
X1079359D01*
X1079058D01*
X1078758D01*
X1078457D01*
X1078157D01*
X1077856D01*
X1077556D01*
X1077255D01*
X1076954D01*
X1076654D01*
X1076354D01*
Y453395D01*
X1076053D01*
X1075752D01*
X1075452D01*
X1075151D01*
X1074851D01*
X1074550D01*
X1074250D01*
X1073949D01*
X1073649D01*
X1073348D01*
Y453094D01*
X1073048D01*
X1072747D01*
X1072447D01*
X1072146D01*
X1071845D01*
Y452794D01*
X1071545D01*
X1071245D01*
X1070944D01*
X1070643D01*
X1070343D01*
Y452493D01*
X1070042D01*
X1069742D01*
X1069441D01*
X1069141D01*
Y452193D01*
X1068840D01*
X1068540D01*
X1068239D01*
X1067939D01*
Y451892D01*
X1067638D01*
X1067338D01*
X1067037D01*
Y451592D01*
X1066737D01*
X1066436D01*
Y451291D01*
X1066135D01*
X1065835D01*
X1065534D01*
Y450991D01*
X1065234D01*
X1064933D01*
Y450690D01*
X1064633D01*
X1064332D01*
X1064032D01*
Y450390D01*
X1063731D01*
X1063431D01*
Y450089D01*
X1063130D01*
X1062830D01*
Y449789D01*
X1062529D01*
X1062228D01*
Y449488D01*
X1061928D01*
Y449188D01*
X1061628D01*
X1061327D01*
X1061026D01*
Y448887D01*
X1060726D01*
Y448587D01*
X1060425D01*
X1060125D01*
Y448286D01*
X1059824D01*
X1059524D01*
Y447985D01*
X1059223D01*
X1058923D01*
Y447685D01*
X1058622D01*
Y447384D01*
X1058322D01*
Y447084D01*
X1058021D01*
X1057721D01*
Y446783D01*
X1057420D01*
Y446483D01*
X1057120D01*
Y446182D01*
X1056819D01*
Y445882D01*
X1056518D01*
Y445581D01*
X1056218D01*
X1055917D01*
Y445281D01*
X1055617D01*
Y444980D01*
X1055316D01*
Y444680D01*
X1055016D01*
Y444379D01*
X1054715D01*
Y444078D01*
X1054415D01*
Y443778D01*
X1054114D01*
Y443477D01*
X1053814D01*
Y443177D01*
X1053513D01*
Y442876D01*
X1053213D01*
Y442576D01*
X1052912D01*
Y442275D01*
X1052612D01*
Y441975D01*
X1052311D01*
Y441674D01*
X1052010D01*
Y441374D01*
X1051710D01*
Y440773D01*
X1051410D01*
Y440472D01*
X1051109D01*
Y440172D01*
X1050808D01*
Y439571D01*
X1050508D01*
Y439270D01*
X1050207D01*
Y438969D01*
X1049907D01*
Y438368D01*
X1049606D01*
Y437767D01*
X1049306D01*
Y437467D01*
X1049005D01*
Y436866D01*
X1048705D01*
Y436565D01*
X1048404D01*
Y435964D01*
X1048104D01*
Y435363D01*
X1047803D01*
Y434762D01*
X1047503D01*
Y434161D01*
X1047202D01*
Y433259D01*
X1046901D01*
Y432658D01*
X1046601D01*
Y432057D01*
X1046300D01*
Y431156D01*
X1046000D01*
Y430254D01*
X1045699D01*
Y429352D01*
X1045399D01*
Y428150D01*
X1045098D01*
Y426948D01*
X1044798D01*
Y425746D01*
X1044497D01*
Y423642D01*
X1044197D01*
Y420337D01*
X1043896D01*
Y417932D01*
X1044197D01*
Y414927D01*
X1044497D01*
Y413124D01*
X1044798D01*
Y411321D01*
X1045098D01*
Y408917D01*
X1045399D01*
Y407714D01*
X1045098D01*
Y407414D01*
X1044798D01*
X1044497D01*
Y407113D01*
X1044197D01*
Y406813D01*
X1043896D01*
Y406512D01*
X1043596D01*
X1043295D01*
Y406212D01*
X1042995D01*
Y405911D01*
X1042694D01*
Y405611D01*
X1042393D01*
Y405310D01*
X1042093D01*
X1041793D01*
Y405010D01*
X1041492D01*
Y404709D01*
X1041191D01*
Y404408D01*
X1040891D01*
Y404108D01*
X1040590D01*
Y403807D01*
X1040290D01*
Y403507D01*
X1039989D01*
X1039689D01*
Y403206D01*
X1039388D01*
Y402906D01*
X1039088D01*
Y402605D01*
X1038787D01*
Y402305D01*
X1038487D01*
Y402004D01*
X1038186D01*
X1037886D01*
Y401704D01*
X1037585D01*
Y401403D01*
X1037284D01*
Y401103D01*
X1036984D01*
Y400802D01*
X1036684D01*
Y400502D01*
X1036383D01*
Y400201D01*
X1036082D01*
X1035782D01*
Y399901D01*
X1035481D01*
Y399600D01*
X1035181D01*
Y399300D01*
X1034880D01*
Y398999D01*
X1034580D01*
Y398698D01*
X1034279D01*
Y398398D01*
X1033979D01*
X1033678D01*
Y398097D01*
X1033378D01*
Y397797D01*
X1033077D01*
Y397496D01*
X1032777D01*
Y397196D01*
X1032476D01*
Y396895D01*
X1032176D01*
Y396595D01*
X1031875D01*
X1031574D01*
Y396294D01*
X1031274D01*
Y395994D01*
X1030973D01*
Y395693D01*
X1030673D01*
Y395393D01*
X1030372D01*
Y395092D01*
X1030072D01*
Y394791D01*
X1029771D01*
Y394491D01*
X1029471D01*
X1029170D01*
Y394190D01*
X1028870D01*
Y393890D01*
X1028569D01*
Y393589D01*
X1028269D01*
Y393289D01*
X1027968D01*
Y392988D01*
X1027668D01*
Y392688D01*
X1027367D01*
X1027066D01*
Y392387D01*
X1026766D01*
Y392087D01*
X1026465D01*
Y391786D01*
X1026165D01*
Y391486D01*
X1025864D01*
Y391185D01*
X1025564D01*
Y390885D01*
X1025263D01*
X1024963D01*
Y390584D01*
X1024662D01*
Y390284D01*
X1024362D01*
Y389983D01*
X1024061D01*
X1023761D01*
Y389683D01*
X1023460D01*
Y389382D01*
X1023160D01*
Y389081D01*
X1022859D01*
X1022559D01*
Y388781D01*
X1022258D01*
Y388480D01*
X1021957D01*
Y388180D01*
X1021657D01*
Y387879D01*
X1021356D01*
X1021056D01*
Y387579D01*
X1020755D01*
Y387278D01*
X1020455D01*
X1020154D01*
Y386978D01*
X1019854D01*
Y386677D01*
X1019553D01*
X1019253D01*
X1018952D01*
Y386377D01*
X1018652D01*
Y386978D01*
X1018952D01*
D02*
G37*
%LPC*%
G36*
X1044497Y382470D02*
Y382169D01*
X1044798D01*
Y382470D01*
X1044497D01*
D02*
G37*
G36*
X1087173Y400802D02*
Y400502D01*
X1087473D01*
Y400802D01*
X1087173D01*
D02*
G37*
G36*
X1093183Y451291D02*
Y450991D01*
X1093484D01*
Y451291D01*
X1093183D01*
D02*
G37*
G36*
Y385175D02*
Y384874D01*
X1093484D01*
Y385175D01*
X1093183D01*
D02*
G37*
G36*
X1095888Y387278D02*
Y386978D01*
X1096189D01*
X1096489D01*
Y387278D01*
X1096189D01*
X1095888D01*
D02*
G37*
G36*
X1097992Y401103D02*
Y400802D01*
X1098292D01*
Y401103D01*
X1097992D01*
D02*
G37*
G36*
Y367143D02*
Y366842D01*
X1098292D01*
Y367143D01*
X1097992D01*
D02*
G37*
G36*
X1099494Y449188D02*
Y448887D01*
X1099795D01*
Y449188D01*
X1099494D01*
D02*
G37*
G36*
X1099795Y424544D02*
Y424244D01*
X1100095D01*
Y424544D01*
X1099795D01*
D02*
G37*
G36*
X1100095Y448887D02*
Y448587D01*
X1100396D01*
Y448887D01*
X1100095D01*
D02*
G37*
G36*
X1100396Y424244D02*
Y423943D01*
X1100696D01*
Y424244D01*
X1100396D01*
D02*
G37*
G36*
X1101298Y389683D02*
Y389382D01*
X1101598D01*
Y389683D01*
X1101298D01*
D02*
G37*
G36*
X1101598Y446483D02*
Y446182D01*
X1101898D01*
Y446483D01*
X1101598D01*
D02*
G37*
G36*
Y367143D02*
Y366842D01*
X1101898D01*
Y367143D01*
X1101598D01*
D02*
G37*
G36*
X1101898Y446182D02*
Y445882D01*
X1102199D01*
Y446182D01*
X1101898D01*
D02*
G37*
G36*
Y390284D02*
Y389983D01*
X1102199D01*
Y390284D01*
X1101898D01*
D02*
G37*
G36*
Y391185D02*
Y390885D01*
X1102199D01*
X1102500D01*
Y391185D01*
X1102199D01*
X1101898D01*
D02*
G37*
G36*
X1102500Y446483D02*
Y446182D01*
X1102800D01*
Y446483D01*
X1102500D01*
D02*
G37*
G36*
Y445581D02*
Y445281D01*
X1102800D01*
Y445581D01*
X1102500D01*
D02*
G37*
G36*
Y390885D02*
Y390584D01*
X1102800D01*
Y390885D01*
X1102500D01*
D02*
G37*
G36*
X1102800Y369547D02*
Y369246D01*
X1103101D01*
Y369547D01*
X1102800D01*
D02*
G37*
G36*
Y368044D02*
Y367744D01*
X1103101D01*
Y368044D01*
X1102800D01*
D02*
G37*
G36*
X1103702Y368946D02*
Y368645D01*
X1104002D01*
Y368946D01*
X1103702D01*
D02*
G37*
G36*
X1104904Y392387D02*
Y391786D01*
X1105204D01*
Y392387D01*
X1104904D01*
D02*
G37*
G36*
X1104603Y368645D02*
Y368345D01*
X1104904D01*
X1105204D01*
Y368645D01*
X1104904D01*
X1104603D01*
D02*
G37*
G36*
X1105204Y394190D02*
Y393890D01*
X1105505D01*
Y394190D01*
X1105805D01*
Y394491D01*
X1105505D01*
Y394190D01*
X1105204D01*
D02*
G37*
G36*
X1105505Y369246D02*
Y368946D01*
X1105805D01*
Y369246D01*
X1105505D01*
D02*
G37*
G36*
X1105805Y368946D02*
Y368645D01*
X1106106D01*
Y368946D01*
X1105805D01*
D02*
G37*
G36*
X1106106Y395092D02*
Y394791D01*
X1106406D01*
Y395092D01*
X1106106D01*
D02*
G37*
G36*
X1106406Y394491D02*
Y394190D01*
X1106707D01*
Y394491D01*
X1106406D01*
D02*
G37*
G36*
X1106707Y395994D02*
Y395693D01*
X1107008D01*
Y395994D01*
X1106707D01*
D02*
G37*
G36*
Y394190D02*
Y393890D01*
X1107008D01*
Y394190D01*
X1106707D01*
D02*
G37*
G36*
X1107008Y441975D02*
Y441674D01*
X1107308D01*
Y441975D01*
X1107008D01*
D02*
G37*
G36*
Y441073D02*
Y440773D01*
X1107308D01*
Y441073D01*
X1107008D01*
D02*
G37*
G36*
X1107308Y396595D02*
Y396294D01*
X1107609D01*
Y396595D01*
X1107308D01*
D02*
G37*
G36*
X1107609Y466618D02*
Y466318D01*
X1107909D01*
Y466618D01*
X1107609D01*
D02*
G37*
G36*
X1107909Y372252D02*
Y371951D01*
X1108210D01*
X1108510D01*
Y372252D01*
X1108210D01*
X1107909D01*
D02*
G37*
G36*
X1108210Y371350D02*
Y371050D01*
X1108510D01*
Y371350D01*
X1108210D01*
D02*
G37*
G36*
X1108510Y439270D02*
Y438969D01*
X1108811D01*
Y439270D01*
X1108510D01*
D02*
G37*
G36*
X1109111Y372252D02*
Y371951D01*
X1109412D01*
Y372252D01*
X1109111D01*
D02*
G37*
G36*
X1108811Y438969D02*
Y438669D01*
X1109111D01*
Y438969D01*
X1109412D01*
Y439270D01*
X1109712D01*
Y439571D01*
X1109412D01*
Y439270D01*
X1109111D01*
Y438969D01*
X1108811D01*
D02*
G37*
G36*
X1109412Y438669D02*
Y438368D01*
X1109712D01*
Y438669D01*
X1109412D01*
D02*
G37*
G36*
X1109111Y398698D02*
Y398398D01*
X1109412D01*
Y398698D01*
X1109712D01*
Y398999D01*
X1109412D01*
Y398698D01*
X1109111D01*
D02*
G37*
G36*
X1109712Y439270D02*
Y438969D01*
X1110013D01*
Y439270D01*
X1109712D01*
D02*
G37*
G36*
Y398398D02*
Y398097D01*
X1110013D01*
Y398398D01*
X1109712D01*
D02*
G37*
G36*
X1110013Y465116D02*
Y464815D01*
X1110313D01*
Y465116D01*
X1110013D01*
D02*
G37*
G36*
Y371951D02*
Y371651D01*
X1110313D01*
X1110614D01*
Y371951D01*
X1110313D01*
X1110013D01*
D02*
G37*
G36*
Y464214D02*
Y463913D01*
X1110313D01*
Y464214D01*
X1110614D01*
X1110914D01*
Y464515D01*
X1110614D01*
X1110313D01*
Y464214D01*
X1110013D01*
D02*
G37*
G36*
X1110914Y465116D02*
Y464815D01*
X1111215D01*
Y465116D01*
X1110914D01*
D02*
G37*
G36*
X1110614Y436265D02*
Y435964D01*
X1110914D01*
Y435664D01*
X1111215D01*
Y436265D01*
X1110914D01*
X1110614D01*
D02*
G37*
G36*
X1111215Y464214D02*
Y463913D01*
X1111516D01*
Y464214D01*
X1111215D01*
D02*
G37*
G36*
Y434462D02*
Y434161D01*
X1111516D01*
Y434462D01*
X1111215D01*
D02*
G37*
G36*
X1111516Y401403D02*
Y401103D01*
X1111816D01*
Y401403D01*
X1111516D01*
D02*
G37*
G36*
X1111816Y436265D02*
Y435664D01*
X1112117D01*
Y436265D01*
X1111816D01*
D02*
G37*
G36*
X1112117Y464214D02*
Y463913D01*
X1112417D01*
Y464214D01*
X1112117D01*
D02*
G37*
G36*
Y437166D02*
Y436866D01*
X1112417D01*
Y437166D01*
X1112117D01*
D02*
G37*
G36*
Y432658D02*
Y432358D01*
X1112417D01*
Y432658D01*
X1112117D01*
D02*
G37*
G36*
Y404709D02*
Y404408D01*
X1112417D01*
Y404709D01*
X1112117D01*
D02*
G37*
G36*
Y402004D02*
Y401403D01*
X1112417D01*
Y402004D01*
X1112117D01*
D02*
G37*
G36*
X1112417Y373454D02*
Y373153D01*
X1112718D01*
Y373454D01*
X1112417D01*
D02*
G37*
G36*
X1112718Y463913D02*
Y463613D01*
X1113018D01*
Y463913D01*
X1112718D01*
D02*
G37*
G36*
X1111816Y404108D02*
Y403507D01*
X1112117D01*
Y402906D01*
X1112417D01*
Y403507D01*
X1112718D01*
X1113018D01*
Y403807D01*
X1112718D01*
Y404408D01*
X1113018D01*
Y404709D01*
X1112718D01*
Y404408D01*
X1112417D01*
Y404108D01*
X1112117D01*
X1111816D01*
D02*
G37*
G36*
X1112417Y374055D02*
Y373754D01*
X1112718D01*
X1113018D01*
Y374055D01*
X1112718D01*
X1112417D01*
D02*
G37*
G36*
X1112718Y373153D02*
Y372853D01*
X1113018D01*
Y373153D01*
X1112718D01*
D02*
G37*
G36*
X1112417Y463312D02*
Y463012D01*
X1112718D01*
X1113018D01*
X1113319D01*
Y463312D01*
X1113018D01*
X1112718D01*
X1112417D01*
D02*
G37*
G36*
X1112718Y461509D02*
Y461209D01*
X1113018D01*
X1113319D01*
Y461509D01*
X1113018D01*
X1112718D01*
D02*
G37*
G36*
X1113018Y373754D02*
Y373454D01*
X1113319D01*
Y373754D01*
X1113018D01*
D02*
G37*
G36*
X1113319Y463012D02*
Y462711D01*
X1113619D01*
Y463012D01*
X1113319D01*
D02*
G37*
G36*
Y430254D02*
Y429954D01*
X1113619D01*
Y430254D01*
X1113319D01*
D02*
G37*
G36*
Y402004D02*
Y401103D01*
X1113619D01*
Y402004D01*
X1113319D01*
D02*
G37*
G36*
X1113619Y431757D02*
Y431156D01*
X1113920D01*
Y431757D01*
X1113619D01*
D02*
G37*
G36*
Y462711D02*
Y462411D01*
X1113920D01*
X1114220D01*
Y462711D01*
X1113920D01*
X1113619D01*
D02*
G37*
G36*
X1113920Y431156D02*
Y430254D01*
X1114220D01*
Y431156D01*
X1113920D01*
D02*
G37*
G36*
Y429352D02*
Y428451D01*
X1114220D01*
Y429352D01*
X1113920D01*
D02*
G37*
G36*
Y410119D02*
Y409818D01*
X1114220D01*
Y410119D01*
X1113920D01*
D02*
G37*
G36*
Y402004D02*
Y401103D01*
X1114220D01*
Y402004D01*
X1113920D01*
D02*
G37*
G36*
X1114220Y432358D02*
Y432057D01*
X1114521D01*
Y432358D01*
X1114220D01*
D02*
G37*
G36*
Y429954D02*
Y429653D01*
X1114521D01*
Y429954D01*
X1114220D01*
D02*
G37*
G36*
Y427850D02*
Y427249D01*
X1114521D01*
Y427850D01*
X1114220D01*
D02*
G37*
G36*
Y411321D02*
Y410419D01*
X1114521D01*
Y411321D01*
X1114220D01*
D02*
G37*
G36*
X1113920Y374356D02*
Y374055D01*
X1114220D01*
X1114521D01*
Y374356D01*
X1114220D01*
X1113920D01*
D02*
G37*
G36*
X1114521Y428751D02*
Y428451D01*
X1114821D01*
Y428751D01*
X1114521D01*
D02*
G37*
G36*
Y412523D02*
Y412222D01*
X1114821D01*
Y412523D01*
X1114521D01*
D02*
G37*
G36*
X1114220Y405010D02*
Y403507D01*
X1114521D01*
X1114821D01*
Y405010D01*
X1114521D01*
X1114220D01*
D02*
G37*
G36*
X1114521Y410419D02*
Y409818D01*
X1114821D01*
X1115122D01*
Y410720D01*
X1114821D01*
Y410419D01*
X1114521D01*
D02*
G37*
G36*
Y408616D02*
Y408015D01*
X1114821D01*
Y408315D01*
X1115122D01*
Y408616D01*
X1114821D01*
X1114521D01*
D02*
G37*
G36*
X1114821Y374957D02*
Y374656D01*
X1115122D01*
Y374957D01*
X1114821D01*
D02*
G37*
G36*
X1115122Y462110D02*
Y461810D01*
X1115422D01*
Y462110D01*
X1115122D01*
D02*
G37*
G36*
Y375558D02*
Y375257D01*
X1115422D01*
Y375558D01*
X1115122D01*
D02*
G37*
G36*
X1114821Y376760D02*
Y376459D01*
X1115122D01*
Y376760D01*
X1115422D01*
X1115723D01*
Y377060D01*
X1115422D01*
X1115122D01*
Y376760D01*
X1114821D01*
D02*
G37*
G36*
X1115422Y375257D02*
Y374957D01*
X1115723D01*
Y375257D01*
X1115422D01*
D02*
G37*
G36*
X1114821Y375858D02*
Y375558D01*
X1115122D01*
Y375858D01*
X1115422D01*
Y376159D01*
X1115723D01*
Y376459D01*
X1116023D01*
X1116324D01*
Y376760D01*
X1116023D01*
X1115723D01*
Y376459D01*
X1115422D01*
Y376159D01*
X1115122D01*
Y375858D01*
X1114821D01*
D02*
G37*
G36*
X1116023Y376159D02*
Y375558D01*
X1116324D01*
Y376159D01*
X1116625D01*
Y376459D01*
X1116925D01*
Y376760D01*
X1116625D01*
Y376459D01*
X1116324D01*
Y376159D01*
X1116023D01*
D02*
G37*
G36*
X1117226Y378863D02*
Y378262D01*
X1117526D01*
Y378863D01*
X1117226D01*
D02*
G37*
G36*
Y459406D02*
Y459105D01*
X1117526D01*
X1117827D01*
X1118127D01*
Y459406D01*
X1117827D01*
X1117526D01*
X1117226D01*
D02*
G37*
G36*
Y457001D02*
Y456400D01*
X1117526D01*
X1117827D01*
X1118127D01*
Y457001D01*
X1117827D01*
X1117526D01*
X1117226D01*
D02*
G37*
G36*
Y379765D02*
Y379164D01*
X1117526D01*
X1117827D01*
X1118127D01*
Y379464D01*
X1117827D01*
X1117526D01*
Y379765D01*
X1117226D01*
D02*
G37*
G36*
X1118127Y459105D02*
Y458805D01*
X1118428D01*
Y459105D01*
X1118127D01*
D02*
G37*
G36*
X1118728Y458203D02*
Y457903D01*
X1119029D01*
Y457602D01*
X1119329D01*
Y458504D01*
X1119029D01*
Y458203D01*
X1118728D01*
D02*
G37*
G36*
X1117226Y377661D02*
Y377361D01*
X1117526D01*
Y377060D01*
X1117827D01*
Y377661D01*
X1118127D01*
X1118428D01*
Y377962D01*
X1118728D01*
Y378262D01*
X1119029D01*
Y378563D01*
X1118728D01*
Y379164D01*
X1119029D01*
X1119329D01*
Y379464D01*
X1119029D01*
X1118728D01*
Y379164D01*
X1118428D01*
X1118127D01*
Y378863D01*
X1118428D01*
Y378262D01*
X1118127D01*
X1117827D01*
Y377661D01*
X1117526D01*
X1117226D01*
D02*
G37*
G36*
X1119329Y380967D02*
Y380366D01*
X1119630D01*
Y380967D01*
X1119329D01*
D02*
G37*
G36*
Y379164D02*
Y378563D01*
X1119630D01*
Y379164D01*
X1119329D01*
D02*
G37*
G36*
X1119630Y457903D02*
Y457602D01*
X1119930D01*
Y457903D01*
X1119630D01*
D02*
G37*
G36*
X1119930Y382770D02*
Y382470D01*
X1120231D01*
Y382169D01*
X1119930D01*
Y381869D01*
X1120231D01*
X1120531D01*
Y381568D01*
X1120231D01*
Y381268D01*
X1119930D01*
Y380667D01*
X1120231D01*
Y380967D01*
X1120531D01*
Y381568D01*
X1120832D01*
X1121133D01*
Y382169D01*
X1120832D01*
Y382770D01*
X1120531D01*
Y383071D01*
X1120231D01*
Y382770D01*
X1119930D01*
D02*
G37*
G36*
X1119630Y380366D02*
Y379765D01*
X1119930D01*
Y379464D01*
X1120231D01*
X1120531D01*
Y379765D01*
X1120231D01*
Y380066D01*
X1119930D01*
Y380366D01*
X1119630D01*
D02*
G37*
G36*
X1120832Y456100D02*
Y455799D01*
X1121133D01*
Y456100D01*
X1120832D01*
D02*
G37*
G36*
X1121133Y455799D02*
Y455499D01*
X1121433D01*
Y455799D01*
X1121133D01*
D02*
G37*
G36*
X1121433Y451892D02*
Y451592D01*
X1121733D01*
Y451892D01*
X1121433D01*
D02*
G37*
G36*
X1121733Y384574D02*
Y383672D01*
X1122034D01*
Y384574D01*
X1121733D01*
D02*
G37*
G36*
X1122034Y455198D02*
Y454296D01*
X1122335D01*
Y455198D01*
X1122034D01*
D02*
G37*
G36*
Y453996D02*
Y453695D01*
X1122335D01*
Y452794D01*
X1122034D01*
Y452493D01*
X1122335D01*
Y452794D01*
X1122635D01*
Y453094D01*
X1122936D01*
Y453395D01*
X1123236D01*
Y454296D01*
X1122936D01*
Y453695D01*
X1122635D01*
Y454296D01*
X1122936D01*
Y454597D01*
X1122635D01*
Y454296D01*
X1122335D01*
Y453996D01*
X1122034D01*
D02*
G37*
%LPD*%
D10*
X503682Y680466D02*
Y685038D01*
X508508D01*
X503682D02*
X507746Y680974D01*
X503682Y654558D02*
Y659384D01*
X508762D01*
X503682D02*
X508000Y655066D01*
X502666Y601726D02*
Y607568D01*
X509524D01*
X502666D02*
X509524D01*
X502666D02*
X510794Y599440D01*
X573278D01*
X472948Y641350D02*
X473329Y641731D01*
X472948Y590804D02*
Y641350D01*
Y590804D02*
X480822Y582930D01*
Y544068D02*
Y582930D01*
X507746Y721868D02*
Y728472D01*
Y721868D02*
X515620D01*
X507746D02*
X515620D01*
X507746D02*
X531114Y745236D01*
X575310D01*
X507746Y680974D02*
X558038D01*
X508000Y655066D02*
X555498D01*
X478282Y637794D02*
X482600Y642112D01*
X478282Y646430D02*
X482600Y642112D01*
X472948Y641350D02*
X473710Y642112D01*
X482600D01*
D12*
X1044051Y754978D02*
X1039819Y759210D01*
Y767674D01*
X1044051Y771906D01*
X1060978D01*
X1065210Y767674D01*
Y759210D01*
X1060978Y754978D01*
X1039819Y746514D02*
X1065210D01*
X1052515D01*
X1048283Y742282D01*
Y733818D01*
X1052515Y729586D01*
X1065210D01*
X1048283Y716890D02*
Y708427D01*
X1052515Y704195D01*
X1065210D01*
Y716890D01*
X1060978Y721122D01*
X1056747Y716890D01*
Y704195D01*
X1065210Y695731D02*
X1048283D01*
Y683035D01*
X1052515Y678803D01*
X1065210D01*
X1073674Y661875D02*
Y657643D01*
X1069443Y653411D01*
X1048283D01*
Y666107D01*
X1052515Y670339D01*
X1060978D01*
X1065210Y666107D01*
Y653411D01*
Y632251D02*
Y640715D01*
X1060978Y644947D01*
X1052515D01*
X1048283Y640715D01*
Y632251D01*
X1052515Y628019D01*
X1056747D01*
Y644947D01*
X1065210Y615323D02*
Y606859D01*
X1060978Y602627D01*
X1052515D01*
X1048283Y606859D01*
Y615323D01*
X1052515Y619555D01*
X1060978D01*
X1065210Y615323D01*
X1039819Y568772D02*
Y551844D01*
Y560308D01*
X1065210D01*
Y530684D02*
Y539148D01*
X1060978Y543380D01*
X1052515D01*
X1048283Y539148D01*
Y530684D01*
X1052515Y526452D01*
X1056747D01*
Y543380D01*
X1048283Y501060D02*
Y513756D01*
X1052515Y517988D01*
X1060978D01*
X1065210Y513756D01*
Y501060D01*
X1129038Y771906D02*
X1145966D01*
X1154430Y763442D01*
X1145966Y754978D01*
X1129038D01*
X1154430Y733818D02*
Y742282D01*
X1150198Y746514D01*
X1141734D01*
X1137502Y742282D01*
Y733818D01*
X1141734Y729586D01*
X1145966D01*
Y746514D01*
X1137502Y721122D02*
X1154430D01*
X1145966D01*
X1141734Y716890D01*
X1137502Y712658D01*
Y708427D01*
X1133270Y695731D02*
X1129038Y691499D01*
Y683035D01*
X1133270Y678803D01*
X1150198D01*
X1154430Y683035D01*
Y691499D01*
X1150198Y695731D01*
X1133270D01*
X1154430Y670339D02*
X1150198D01*
Y666107D01*
X1154430D01*
Y670339D01*
Y649179D02*
Y640715D01*
Y644947D01*
X1129038D01*
X1133270Y649179D01*
X1154430Y585700D02*
Y602627D01*
X1137502Y585700D01*
X1133270D01*
X1129038Y589931D01*
Y598395D01*
X1133270Y602627D01*
Y577236D02*
X1129038Y573004D01*
Y564540D01*
X1133270Y560308D01*
X1150198D01*
X1154430Y564540D01*
Y573004D01*
X1150198Y577236D01*
X1133270D01*
X1154430Y534916D02*
Y551844D01*
X1137502Y534916D01*
X1133270D01*
X1129038Y539148D01*
Y547612D01*
X1133270Y551844D01*
X1129038Y509524D02*
Y526452D01*
X1141734D01*
X1137502Y517988D01*
Y513756D01*
X1141734Y509524D01*
X1150198D01*
X1154430Y513756D01*
Y522220D01*
X1150198Y526452D01*
X1154430Y501060D02*
X1137502Y484132D01*
X1150198Y475668D02*
X1154430Y471436D01*
Y462972D01*
X1150198Y458741D01*
X1133270D01*
X1129038Y462972D01*
Y471436D01*
X1133270Y475668D01*
X1137502D01*
X1141734Y471436D01*
Y458741D01*
X1154430Y450277D02*
X1137502Y433349D01*
X1154430Y424885D02*
Y416421D01*
Y420653D01*
X1129038D01*
X1133270Y424885D01*
X1129038Y403725D02*
Y386797D01*
X1133270D01*
X1150198Y403725D01*
X1154430D01*
X1090776Y754978D02*
X1086544Y759210D01*
Y767674D01*
X1090776Y771906D01*
X1107704D01*
X1111936Y767674D01*
Y759210D01*
X1107704Y754978D01*
Y746514D02*
X1111936Y742282D01*
Y733818D01*
X1107704Y729586D01*
X1090776D01*
X1086544Y733818D01*
Y742282D01*
X1090776Y746514D01*
X1095008D01*
X1099240Y742282D01*
Y729586D01*
X1086544Y704195D02*
Y721122D01*
X1099240D01*
X1095008Y712658D01*
Y708427D01*
X1099240Y704195D01*
X1107704D01*
X1111936Y708427D01*
Y716890D01*
X1107704Y721122D01*
X1116168Y695731D02*
Y678803D01*
X1086544Y670339D02*
Y653411D01*
Y661875D01*
X1111936D01*
Y632251D02*
Y640715D01*
X1107704Y644947D01*
X1099240D01*
X1095008Y640715D01*
Y632251D01*
X1099240Y628019D01*
X1103472D01*
Y644947D01*
X1111936Y619555D02*
Y606859D01*
X1107704Y602627D01*
X1103472Y606859D01*
Y615323D01*
X1099240Y619555D01*
X1095008Y615323D01*
Y602627D01*
X1090776Y589931D02*
X1095008D01*
Y594163D01*
Y585700D01*
Y589931D01*
X1107704D01*
X1111936Y585700D01*
X1086544Y573004D02*
X1111936D01*
Y560308D01*
X1107704Y556076D01*
X1103472D01*
X1099240Y560308D01*
Y573004D01*
Y560308D01*
X1095008Y556076D01*
X1090776D01*
X1086544Y560308D01*
Y573004D01*
X1111936Y543380D02*
Y534916D01*
X1107704Y530684D01*
X1099240D01*
X1095008Y534916D01*
Y543380D01*
X1099240Y547612D01*
X1107704D01*
X1111936Y543380D01*
X1095008Y522220D02*
X1111936D01*
X1103472D01*
X1099240Y517988D01*
X1095008Y513756D01*
Y509524D01*
X1086544Y479900D02*
X1111936D01*
Y492596D01*
X1107704Y496828D01*
X1099240D01*
X1095008Y492596D01*
Y479900D01*
X1198036Y722376D02*
Y713912D01*
Y718144D01*
X1172644D01*
Y722376D01*
X1181108Y701216D02*
X1193804D01*
X1198036Y696984D01*
Y684288D01*
X1202268D01*
X1206500Y688520D01*
Y692752D01*
X1198036Y684288D02*
X1181108D01*
X1172644Y675824D02*
X1198036D01*
X1185340D01*
X1181108Y671592D01*
Y663129D01*
X1185340Y658896D01*
X1198036D01*
D18*
X488192Y574805D02*
X485653Y577345D01*
Y582423D01*
X488192Y584962D01*
X498349D01*
X500888Y582423D01*
Y577345D01*
X498349Y574805D01*
X493270D01*
Y579884D01*
X500888Y569727D02*
X485653D01*
X500888Y559570D01*
X485653D01*
Y554492D02*
X500888D01*
Y546874D01*
X498349Y544335D01*
X488192D01*
X485653Y546874D01*
Y554492D01*
X565915Y762250D02*
X568455Y764789D01*
X573533D01*
X576072Y762250D01*
Y752093D01*
X573533Y749554D01*
X568455D01*
X565915Y752093D01*
X560837Y764789D02*
Y749554D01*
X550680D01*
X545602Y764789D02*
Y749554D01*
Y754632D01*
X535445Y764789D01*
X543063Y757171D01*
X535445Y749554D01*
X556514Y701035D02*
Y685800D01*
X548896D01*
X546357Y688339D01*
Y698496D01*
X548896Y701035D01*
X556514D01*
X541279D02*
X536201D01*
X538740D01*
Y685800D01*
X541279D01*
X536201D01*
X520965Y701035D02*
X526044D01*
X528583Y698496D01*
Y688339D01*
X526044Y685800D01*
X520965D01*
X518426Y688339D01*
Y698496D01*
X520965Y701035D01*
X556260Y675381D02*
Y665224D01*
X551182Y660146D01*
X546103Y665224D01*
Y675381D01*
X530868Y672842D02*
X533407Y675381D01*
X538486D01*
X541025Y672842D01*
Y662685D01*
X538486Y660146D01*
X533407D01*
X530868Y662685D01*
X515633Y672842D02*
X518172Y675381D01*
X523251D01*
X525790Y672842D01*
Y662685D01*
X523251Y660146D01*
X518172D01*
X515633Y662685D01*
X571500Y603758D02*
Y618993D01*
X561343Y603758D01*
Y618993D01*
X556265Y603758D02*
Y618993D01*
X548647D01*
X546108Y616454D01*
Y611376D01*
X548647Y608836D01*
X556265D01*
X551187D02*
X546108Y603758D01*
X530873Y616454D02*
X533412Y618993D01*
X538491D01*
X541030Y616454D01*
Y613915D01*
X538491Y611376D01*
X533412D01*
X530873Y608836D01*
Y606297D01*
X533412Y603758D01*
X538491D01*
X541030Y606297D01*
X525795Y618993D02*
X515638D01*
X520716D01*
Y603758D01*
M02*
