G04*
G04 #@! TF.GenerationSoftware,Altium Limited,Altium Designer,24.0.1 (36)*
G04*
G04 Layer_Physical_Order=2*
G04 Layer_Color=12517376*
%FSLAX44Y44*%
%MOMM*%
G71*
G04*
G04 #@! TF.SameCoordinates,3FE1674D-11C2-4531-B8C6-FC8791136C40*
G04*
G04*
G04 #@! TF.FilePolarity,Positive*
G04*
G01*
G75*
%ADD10C,0.2540*%
%ADD15C,0.2032*%
%ADD46R,1.8000X1.8000*%
%ADD47C,1.8000*%
%ADD48C,1.7000*%
%ADD49R,1.7000X1.7000*%
%ADD50R,1.7000X1.7000*%
%ADD51C,0.7000*%
G36*
X1191833Y781197D02*
X1195632Y780179D01*
X1199265Y778674D01*
X1202671Y776708D01*
X1205791Y774314D01*
X1208572Y771533D01*
X1210966Y768413D01*
X1212932Y765007D01*
X1214437Y761374D01*
X1215455Y757575D01*
X1215968Y753676D01*
X1215968Y751710D01*
X1215968Y751710D01*
X1215968Y751710D01*
X1215968Y389020D01*
Y387053D01*
X1215455Y383154D01*
X1214437Y379356D01*
X1212932Y375723D01*
X1210966Y372317D01*
X1208572Y369197D01*
X1205791Y366416D01*
X1202671Y364022D01*
X1199265Y362056D01*
X1195632Y360551D01*
X1191833Y359533D01*
X1187934Y359020D01*
X1185968Y359020D01*
X499180Y359020D01*
X497214D01*
X493315Y359533D01*
X489516Y360551D01*
X485883Y362056D01*
X482477Y364022D01*
X479357Y366416D01*
X476577Y369197D01*
X474183Y372317D01*
X472216Y375723D01*
X470711Y379356D01*
X469693Y383154D01*
X469180Y387053D01*
Y389020D01*
X469180Y751710D01*
Y753676D01*
X469693Y757575D01*
X470711Y761374D01*
X472216Y765007D01*
X474183Y768413D01*
X476576Y771533D01*
X479357Y774314D01*
X482477Y776708D01*
X485883Y778674D01*
X489516Y780179D01*
X493315Y781197D01*
X497214Y781710D01*
X499180Y781710D01*
X499180Y781710D01*
X1185968Y781710D01*
X1187934D01*
X1191833Y781197D01*
D02*
G37*
%LPC*%
G36*
X1187445Y768360D02*
X1184491D01*
X1184334Y768295D01*
X1184169Y768328D01*
X1181271Y767751D01*
X1181130Y767658D01*
X1180961D01*
X1178232Y766527D01*
X1178112Y766407D01*
X1177946Y766374D01*
X1175490Y764733D01*
X1175396Y764592D01*
X1175240Y764528D01*
X1173150Y762438D01*
X1173086Y762282D01*
X1172945Y762188D01*
X1171304Y759732D01*
X1171271Y759566D01*
X1171151Y759446D01*
X1170021Y756717D01*
Y756548D01*
X1169927Y756407D01*
X1169350Y753509D01*
X1169383Y753344D01*
X1169318Y753187D01*
Y750233D01*
X1169383Y750077D01*
X1169350Y749911D01*
X1169927Y747013D01*
X1170021Y746872D01*
Y746703D01*
X1171151Y743974D01*
X1171271Y743854D01*
X1171304Y743688D01*
X1172945Y741232D01*
X1173086Y741138D01*
X1173150Y740982D01*
X1175240Y738892D01*
X1175396Y738828D01*
X1175490Y738687D01*
X1177946Y737046D01*
X1178112Y737013D01*
X1178232Y736893D01*
X1180961Y735762D01*
X1181130D01*
X1181271Y735669D01*
X1184169Y735092D01*
X1184334Y735125D01*
X1184491Y735061D01*
X1187445D01*
X1187601Y735125D01*
X1187767Y735092D01*
X1190665Y735669D01*
X1190806Y735762D01*
X1190975D01*
X1193704Y736893D01*
X1193824Y737013D01*
X1193990Y737046D01*
X1196446Y738687D01*
X1196540Y738828D01*
X1196696Y738892D01*
X1198786Y740982D01*
X1198850Y741138D01*
X1198991Y741232D01*
X1200632Y743688D01*
X1200665Y743854D01*
X1200785Y743974D01*
X1201916Y746703D01*
Y746872D01*
X1202010Y747013D01*
X1202586Y749911D01*
X1202553Y750077D01*
X1202618Y750233D01*
Y753187D01*
X1202553Y753344D01*
X1202586Y753509D01*
X1202010Y756407D01*
X1201916Y756548D01*
Y756717D01*
X1200785Y759446D01*
X1200665Y759566D01*
X1200632Y759732D01*
X1198991Y762188D01*
X1198850Y762282D01*
X1198786Y762438D01*
X1196696Y764528D01*
X1196540Y764592D01*
X1196446Y764733D01*
X1193990Y766374D01*
X1193824Y766407D01*
X1193704Y766527D01*
X1190975Y767658D01*
X1190806D01*
X1190665Y767751D01*
X1187767Y768328D01*
X1187601Y768295D01*
X1187445Y768360D01*
D02*
G37*
G36*
X500658Y768360D02*
X497703D01*
X497547Y768295D01*
X497381Y768328D01*
X494483Y767751D01*
X494342Y767658D01*
X494174D01*
X491444Y766527D01*
X491324Y766407D01*
X491158Y766374D01*
X488702Y764733D01*
X488608Y764592D01*
X488452Y764528D01*
X486362Y762438D01*
X486298Y762282D01*
X486157Y762188D01*
X484516Y759732D01*
X484483Y759566D01*
X484363Y759446D01*
X483233Y756717D01*
Y756548D01*
X483139Y756407D01*
X482562Y753509D01*
X482595Y753344D01*
X482531Y753187D01*
Y750233D01*
X482595Y750077D01*
X482562Y749911D01*
X483139Y747013D01*
X483233Y746872D01*
Y746703D01*
X484363Y743974D01*
X484483Y743854D01*
X484516Y743688D01*
X486157Y741232D01*
X486298Y741138D01*
X486362Y740982D01*
X488452Y738892D01*
X488608Y738828D01*
X488702Y738687D01*
X491158Y737046D01*
X491324Y737013D01*
X491444Y736893D01*
X494174Y735762D01*
X494342D01*
X494483Y735669D01*
X497381Y735092D01*
X497547Y735125D01*
X497703Y735061D01*
X500658D01*
X500814Y735125D01*
X500979Y735092D01*
X503877Y735669D01*
X504018Y735762D01*
X504187D01*
X506917Y736893D01*
X507036Y737013D01*
X507202Y737046D01*
X509659Y738687D01*
X509752Y738828D01*
X509908Y738892D01*
X511998Y740982D01*
X512062Y741138D01*
X512203Y741232D01*
X513844Y743688D01*
X513877Y743854D01*
X513997Y743974D01*
X515128Y746703D01*
Y746872D01*
X515222Y747013D01*
X515798Y749911D01*
X515765Y750077D01*
X515830Y750233D01*
Y753187D01*
X515765Y753344D01*
X515798Y753509D01*
X515222Y756407D01*
X515128Y756548D01*
Y756717D01*
X513997Y759446D01*
X513877Y759566D01*
X513844Y759732D01*
X512203Y762188D01*
X512062Y762282D01*
X511998Y762438D01*
X509908Y764528D01*
X509752Y764592D01*
X509659Y764733D01*
X507202Y766374D01*
X507036Y766407D01*
X506917Y766527D01*
X504187Y767658D01*
X504018D01*
X503877Y767751D01*
X500979Y768328D01*
X500814Y768295D01*
X500658Y768360D01*
D02*
G37*
G36*
X1023670Y737734D02*
X1021030D01*
X1018481Y737051D01*
X1016195Y735731D01*
X1014329Y733865D01*
X1013009Y731579D01*
X1012326Y729030D01*
Y726390D01*
X1013009Y723841D01*
X1014329Y721555D01*
X1016195Y719689D01*
X1018481Y718369D01*
X1021030Y717686D01*
X1023670D01*
X1026219Y718369D01*
X1028505Y719689D01*
X1030371Y721555D01*
X1031691Y723841D01*
X1032374Y726390D01*
Y729030D01*
X1031691Y731579D01*
X1030371Y733865D01*
X1028505Y735731D01*
X1026219Y737051D01*
X1023670Y737734D01*
D02*
G37*
G36*
X998270D02*
X995630D01*
X993081Y737051D01*
X990795Y735731D01*
X988929Y733865D01*
X987609Y731579D01*
X986926Y729030D01*
Y726390D01*
X987609Y723841D01*
X988929Y721555D01*
X990795Y719689D01*
X993081Y718369D01*
X995630Y717686D01*
X998270D01*
X1000819Y718369D01*
X1003105Y719689D01*
X1004971Y721555D01*
X1006291Y723841D01*
X1006974Y726390D01*
Y729030D01*
X1006291Y731579D01*
X1004971Y733865D01*
X1003105Y735731D01*
X1000819Y737051D01*
X998270Y737734D01*
D02*
G37*
G36*
X972870D02*
X970230D01*
X967681Y737051D01*
X965395Y735731D01*
X963529Y733865D01*
X962209Y731579D01*
X961526Y729030D01*
Y726390D01*
X962209Y723841D01*
X963529Y721555D01*
X965395Y719689D01*
X967681Y718369D01*
X970230Y717686D01*
X972870D01*
X975419Y718369D01*
X977705Y719689D01*
X979571Y721555D01*
X980891Y723841D01*
X981574Y726390D01*
Y729030D01*
X980891Y731579D01*
X979571Y733865D01*
X977705Y735731D01*
X975419Y737051D01*
X972870Y737734D01*
D02*
G37*
G36*
X956174D02*
X936126D01*
Y717686D01*
X956174D01*
Y737734D01*
D02*
G37*
G36*
X888626D02*
X885987D01*
X883438Y737051D01*
X881152Y735731D01*
X879286Y733865D01*
X877966Y731579D01*
X877283Y729030D01*
Y726390D01*
X877966Y723841D01*
X879286Y721555D01*
X881152Y719689D01*
X883438Y718369D01*
X885987Y717686D01*
X888626D01*
X891176Y718369D01*
X893462Y719689D01*
X895328Y721555D01*
X896647Y723841D01*
X897331Y726390D01*
Y729030D01*
X896647Y731579D01*
X895328Y733865D01*
X893462Y735731D01*
X891176Y737051D01*
X888626Y737734D01*
D02*
G37*
G36*
X863226D02*
X860587D01*
X858037Y737051D01*
X855752Y735731D01*
X853885Y733865D01*
X852566Y731579D01*
X851883Y729030D01*
Y726390D01*
X852566Y723841D01*
X853885Y721555D01*
X855752Y719689D01*
X858037Y718369D01*
X860587Y717686D01*
X863226D01*
X865776Y718369D01*
X868062Y719689D01*
X869928Y721555D01*
X871247Y723841D01*
X871931Y726390D01*
Y729030D01*
X871247Y731579D01*
X869928Y733865D01*
X868062Y735731D01*
X865776Y737051D01*
X863226Y737734D01*
D02*
G37*
G36*
X837826D02*
X835187D01*
X832637Y737051D01*
X830352Y735731D01*
X828485Y733865D01*
X827166Y731579D01*
X826483Y729030D01*
Y726390D01*
X827166Y723841D01*
X828485Y721555D01*
X830352Y719689D01*
X832637Y718369D01*
X835187Y717686D01*
X837826D01*
X840376Y718369D01*
X842662Y719689D01*
X844528Y721555D01*
X845847Y723841D01*
X846531Y726390D01*
Y729030D01*
X845847Y731579D01*
X844528Y733865D01*
X842662Y735731D01*
X840376Y737051D01*
X837826Y737734D01*
D02*
G37*
G36*
X821131D02*
X801083D01*
Y717686D01*
X821131D01*
Y737734D01*
D02*
G37*
G36*
X753583D02*
X750944D01*
X748394Y737051D01*
X746108Y735731D01*
X744242Y733865D01*
X742923Y731579D01*
X742239Y729030D01*
Y726390D01*
X742923Y723841D01*
X744242Y721555D01*
X746108Y719689D01*
X748394Y718369D01*
X750944Y717686D01*
X753583D01*
X756132Y718369D01*
X758418Y719689D01*
X760285Y721555D01*
X761604Y723841D01*
X762287Y726390D01*
Y729030D01*
X761604Y731579D01*
X760285Y733865D01*
X758418Y735731D01*
X756132Y737051D01*
X753583Y737734D01*
D02*
G37*
G36*
X728183D02*
X725544D01*
X722994Y737051D01*
X720708Y735731D01*
X718842Y733865D01*
X717523Y731579D01*
X716839Y729030D01*
Y726390D01*
X717523Y723841D01*
X718185Y722694D01*
X703439Y707948D01*
X687023D01*
X686537Y709121D01*
X696447Y719031D01*
X697594Y718369D01*
X700144Y717686D01*
X702783D01*
X705332Y718369D01*
X707618Y719689D01*
X709484Y721555D01*
X710804Y723841D01*
X711487Y726390D01*
Y729030D01*
X710804Y731579D01*
X709484Y733865D01*
X707618Y735731D01*
X705332Y737051D01*
X702783Y737734D01*
X700144D01*
X697594Y737051D01*
X695309Y735731D01*
X693442Y733865D01*
X692122Y731579D01*
X691439Y729030D01*
Y726390D01*
X692122Y723841D01*
X692785Y722694D01*
X687061Y716970D01*
X686087Y717793D01*
X686087Y718912D01*
Y737734D01*
X666039D01*
Y717686D01*
X684822D01*
X685981Y717686D01*
X686804Y716713D01*
X682357Y712266D01*
X504308D01*
Y727574D01*
X484260D01*
Y707526D01*
X501518D01*
X501641Y707502D01*
X501967Y707283D01*
X502958Y707086D01*
X503898D01*
X504384Y705913D01*
X499300Y700829D01*
X498153Y701491D01*
X495604Y702174D01*
X492964D01*
X490415Y701491D01*
X488129Y700171D01*
X486263Y698305D01*
X484943Y696019D01*
X484260Y693470D01*
Y690830D01*
X484943Y688281D01*
X486263Y685995D01*
X488129Y684129D01*
X490415Y682809D01*
X492964Y682126D01*
X495604D01*
X498153Y682809D01*
X500439Y684129D01*
X502305Y685995D01*
X503625Y688281D01*
X504308Y690830D01*
Y693470D01*
X503625Y696019D01*
X502963Y697166D01*
X508565Y702768D01*
X704511D01*
X705502Y702965D01*
X706343Y703527D01*
X721847Y719031D01*
X722994Y718369D01*
X725544Y717686D01*
X728183D01*
X730732Y718369D01*
X733018Y719689D01*
X734884Y721555D01*
X736204Y723841D01*
X736887Y726390D01*
Y729030D01*
X736204Y731579D01*
X734884Y733865D01*
X733018Y735731D01*
X730732Y737051D01*
X728183Y737734D01*
D02*
G37*
G36*
X618540D02*
X615900D01*
X613351Y737051D01*
X611065Y735731D01*
X609199Y733865D01*
X607879Y731579D01*
X607196Y729030D01*
Y726390D01*
X607879Y723841D01*
X609199Y721555D01*
X611065Y719689D01*
X613351Y718369D01*
X615900Y717686D01*
X618540D01*
X621089Y718369D01*
X623375Y719689D01*
X625241Y721555D01*
X626561Y723841D01*
X627244Y726390D01*
Y729030D01*
X626561Y731579D01*
X625241Y733865D01*
X623375Y735731D01*
X621089Y737051D01*
X618540Y737734D01*
D02*
G37*
G36*
X593140D02*
X590500D01*
X587951Y737051D01*
X585665Y735731D01*
X583799Y733865D01*
X582479Y731579D01*
X581796Y729030D01*
Y726390D01*
X582479Y723841D01*
X583799Y721555D01*
X585665Y719689D01*
X587951Y718369D01*
X590500Y717686D01*
X593140D01*
X595689Y718369D01*
X597975Y719689D01*
X599841Y721555D01*
X601161Y723841D01*
X601844Y726390D01*
Y729030D01*
X601161Y731579D01*
X599841Y733865D01*
X597975Y735731D01*
X595689Y737051D01*
X593140Y737734D01*
D02*
G37*
G36*
X567740D02*
X565100D01*
X562551Y737051D01*
X560265Y735731D01*
X558399Y733865D01*
X557079Y731579D01*
X556396Y729030D01*
Y726390D01*
X557079Y723841D01*
X558399Y721555D01*
X560265Y719689D01*
X562551Y718369D01*
X565100Y717686D01*
X567740D01*
X570289Y718369D01*
X572575Y719689D01*
X574441Y721555D01*
X575761Y723841D01*
X576444Y726390D01*
Y729030D01*
X575761Y731579D01*
X574441Y733865D01*
X572575Y735731D01*
X570289Y737051D01*
X567740Y737734D01*
D02*
G37*
G36*
X551044D02*
X530996D01*
Y717686D01*
X551044D01*
Y737734D01*
D02*
G37*
G36*
X495604Y676774D02*
X492964D01*
X490415Y676091D01*
X488129Y674771D01*
X486263Y672905D01*
X484943Y670619D01*
X484260Y668070D01*
Y665430D01*
X484943Y662881D01*
X486263Y660595D01*
X488129Y658729D01*
X490415Y657409D01*
X492964Y656726D01*
X495604D01*
X498153Y657409D01*
X500439Y658729D01*
X502305Y660595D01*
X503625Y662881D01*
X504308Y665430D01*
Y668070D01*
X503625Y670619D01*
X502305Y672905D01*
X500439Y674771D01*
X498153Y676091D01*
X495604Y676774D01*
D02*
G37*
G36*
X495737Y652390D02*
X495554D01*
Y642620D01*
X505324D01*
Y642803D01*
X504572Y645611D01*
X503118Y648129D01*
X501063Y650184D01*
X498545Y651638D01*
X495737Y652390D01*
D02*
G37*
G36*
X493014D02*
X492831D01*
X490023Y651638D01*
X487505Y650184D01*
X485450Y648129D01*
X483996Y645611D01*
X483244Y642803D01*
Y642620D01*
X493014D01*
Y652390D01*
D02*
G37*
G36*
X505324Y640080D02*
X495554D01*
Y630310D01*
X495737D01*
X498545Y631062D01*
X501063Y632516D01*
X503118Y634571D01*
X504572Y637089D01*
X505324Y639897D01*
Y640080D01*
D02*
G37*
G36*
X493014D02*
X483244D01*
Y639897D01*
X483996Y637089D01*
X485450Y634571D01*
X487505Y632516D01*
X490023Y631062D01*
X492831Y630310D01*
X493014D01*
Y640080D01*
D02*
G37*
G36*
X1023670Y647564D02*
X1021030D01*
X1018481Y646881D01*
X1016195Y645561D01*
X1014329Y643695D01*
X1013009Y641409D01*
X1012326Y638860D01*
Y636220D01*
X1013009Y633671D01*
X1014329Y631385D01*
X1016195Y629519D01*
X1018481Y628199D01*
X1021030Y627516D01*
X1023670D01*
X1026219Y628199D01*
X1028505Y629519D01*
X1030371Y631385D01*
X1031691Y633671D01*
X1032374Y636220D01*
Y638860D01*
X1031691Y641409D01*
X1030371Y643695D01*
X1028505Y645561D01*
X1026219Y646881D01*
X1023670Y647564D01*
D02*
G37*
G36*
X998270D02*
X995630D01*
X993081Y646881D01*
X990795Y645561D01*
X988929Y643695D01*
X987609Y641409D01*
X986926Y638860D01*
Y636220D01*
X987609Y633671D01*
X988929Y631385D01*
X990795Y629519D01*
X993081Y628199D01*
X995630Y627516D01*
X998270D01*
X1000819Y628199D01*
X1003105Y629519D01*
X1004971Y631385D01*
X1006291Y633671D01*
X1006974Y636220D01*
Y638860D01*
X1006291Y641409D01*
X1004971Y643695D01*
X1003105Y645561D01*
X1000819Y646881D01*
X998270Y647564D01*
D02*
G37*
G36*
X972870D02*
X970230D01*
X967681Y646881D01*
X965395Y645561D01*
X963529Y643695D01*
X962209Y641409D01*
X961526Y638860D01*
Y636220D01*
X962209Y633671D01*
X963529Y631385D01*
X965395Y629519D01*
X967681Y628199D01*
X970230Y627516D01*
X972870D01*
X975419Y628199D01*
X977705Y629519D01*
X979571Y631385D01*
X980891Y633671D01*
X981574Y636220D01*
Y638860D01*
X980891Y641409D01*
X979571Y643695D01*
X977705Y645561D01*
X975419Y646881D01*
X972870Y647564D01*
D02*
G37*
G36*
X956174D02*
X936126D01*
Y627516D01*
X956174D01*
Y647564D01*
D02*
G37*
G36*
X888626D02*
X885987D01*
X883438Y646881D01*
X881152Y645561D01*
X879286Y643695D01*
X877966Y641409D01*
X877283Y638860D01*
Y636220D01*
X877966Y633671D01*
X879286Y631385D01*
X881152Y629519D01*
X883438Y628199D01*
X885987Y627516D01*
X888626D01*
X891176Y628199D01*
X893462Y629519D01*
X895328Y631385D01*
X896647Y633671D01*
X897331Y636220D01*
Y638860D01*
X896647Y641409D01*
X895328Y643695D01*
X893462Y645561D01*
X891176Y646881D01*
X888626Y647564D01*
D02*
G37*
G36*
X863226D02*
X860587D01*
X858037Y646881D01*
X855752Y645561D01*
X853885Y643695D01*
X852566Y641409D01*
X851883Y638860D01*
Y636220D01*
X852566Y633671D01*
X853885Y631385D01*
X855752Y629519D01*
X858037Y628199D01*
X860587Y627516D01*
X863226D01*
X865776Y628199D01*
X868062Y629519D01*
X869928Y631385D01*
X871247Y633671D01*
X871931Y636220D01*
Y638860D01*
X871247Y641409D01*
X869928Y643695D01*
X868062Y645561D01*
X865776Y646881D01*
X863226Y647564D01*
D02*
G37*
G36*
X837826D02*
X835187D01*
X832637Y646881D01*
X830352Y645561D01*
X828485Y643695D01*
X827166Y641409D01*
X826483Y638860D01*
Y636220D01*
X827166Y633671D01*
X828485Y631385D01*
X830352Y629519D01*
X832637Y628199D01*
X835187Y627516D01*
X837826D01*
X840376Y628199D01*
X842662Y629519D01*
X844528Y631385D01*
X845847Y633671D01*
X846531Y636220D01*
Y638860D01*
X845847Y641409D01*
X844528Y643695D01*
X842662Y645561D01*
X840376Y646881D01*
X837826Y647564D01*
D02*
G37*
G36*
X821131D02*
X801083D01*
Y627516D01*
X821131D01*
Y647564D01*
D02*
G37*
G36*
X753583D02*
X750944D01*
X748394Y646881D01*
X746108Y645561D01*
X744242Y643695D01*
X742923Y641409D01*
X742239Y638860D01*
Y636220D01*
X742923Y633671D01*
X744242Y631385D01*
X746108Y629519D01*
X748394Y628199D01*
X750944Y627516D01*
X753583D01*
X756132Y628199D01*
X758418Y629519D01*
X760285Y631385D01*
X761604Y633671D01*
X762287Y636220D01*
Y638860D01*
X761604Y641409D01*
X760285Y643695D01*
X758418Y645561D01*
X756132Y646881D01*
X753583Y647564D01*
D02*
G37*
G36*
X728183D02*
X725544D01*
X722994Y646881D01*
X720708Y645561D01*
X718842Y643695D01*
X717523Y641409D01*
X716839Y638860D01*
Y636220D01*
X717523Y633671D01*
X718842Y631385D01*
X720708Y629519D01*
X722994Y628199D01*
X725544Y627516D01*
X728183D01*
X730732Y628199D01*
X733018Y629519D01*
X734884Y631385D01*
X736204Y633671D01*
X736887Y636220D01*
Y638860D01*
X736204Y641409D01*
X734884Y643695D01*
X733018Y645561D01*
X730732Y646881D01*
X728183Y647564D01*
D02*
G37*
G36*
X702783D02*
X700144D01*
X697594Y646881D01*
X695309Y645561D01*
X693442Y643695D01*
X692122Y641409D01*
X691439Y638860D01*
Y636220D01*
X692122Y633671D01*
X693442Y631385D01*
X695309Y629519D01*
X697594Y628199D01*
X700144Y627516D01*
X702783D01*
X705332Y628199D01*
X707618Y629519D01*
X709484Y631385D01*
X710804Y633671D01*
X711487Y636220D01*
Y638860D01*
X710804Y641409D01*
X709484Y643695D01*
X707618Y645561D01*
X705332Y646881D01*
X702783Y647564D01*
D02*
G37*
G36*
X686087D02*
X666039D01*
Y627516D01*
X686087D01*
Y647564D01*
D02*
G37*
G36*
X618540D02*
X615900D01*
X613351Y646881D01*
X611065Y645561D01*
X609199Y643695D01*
X607879Y641409D01*
X607196Y638860D01*
Y636220D01*
X607879Y633671D01*
X609199Y631385D01*
X611065Y629519D01*
X613351Y628199D01*
X615900Y627516D01*
X618540D01*
X621089Y628199D01*
X623375Y629519D01*
X625241Y631385D01*
X626561Y633671D01*
X627244Y636220D01*
Y638860D01*
X626561Y641409D01*
X625241Y643695D01*
X623375Y645561D01*
X621089Y646881D01*
X618540Y647564D01*
D02*
G37*
G36*
X593140D02*
X590500D01*
X587951Y646881D01*
X585665Y645561D01*
X583799Y643695D01*
X582479Y641409D01*
X581796Y638860D01*
Y636220D01*
X582479Y633671D01*
X583799Y631385D01*
X585665Y629519D01*
X587951Y628199D01*
X590500Y627516D01*
X593140D01*
X595689Y628199D01*
X597975Y629519D01*
X599841Y631385D01*
X601161Y633671D01*
X601844Y636220D01*
Y638860D01*
X601161Y641409D01*
X599841Y643695D01*
X597975Y645561D01*
X595689Y646881D01*
X593140Y647564D01*
D02*
G37*
G36*
X567740D02*
X565100D01*
X562551Y646881D01*
X560265Y645561D01*
X558399Y643695D01*
X557079Y641409D01*
X556396Y638860D01*
Y636220D01*
X557079Y633671D01*
X558399Y631385D01*
X560265Y629519D01*
X562551Y628199D01*
X565100Y627516D01*
X567740D01*
X570289Y628199D01*
X572575Y629519D01*
X574441Y631385D01*
X575761Y633671D01*
X576444Y636220D01*
Y638860D01*
X575761Y641409D01*
X574441Y643695D01*
X572575Y645561D01*
X570289Y646881D01*
X567740Y647564D01*
D02*
G37*
G36*
X551044D02*
X530996D01*
Y627516D01*
X551044D01*
Y647564D01*
D02*
G37*
G36*
X495604Y625974D02*
X492964D01*
X490415Y625291D01*
X488129Y623971D01*
X486263Y622105D01*
X484943Y619819D01*
X484260Y617270D01*
Y614630D01*
X484943Y612081D01*
X486263Y609795D01*
X488129Y607929D01*
X490415Y606609D01*
X492964Y605926D01*
X495604D01*
X498153Y606609D01*
X500439Y607929D01*
X502305Y609795D01*
X503625Y612081D01*
X504308Y614630D01*
Y617270D01*
X503625Y619819D01*
X502305Y622105D01*
X500439Y623971D01*
X498153Y625291D01*
X495604Y625974D01*
D02*
G37*
G36*
X649478Y579798D02*
Y575056D01*
X654220D01*
X653328Y577207D01*
X651629Y578907D01*
X649478Y579798D01*
D02*
G37*
G36*
X646938D02*
X644787Y578907D01*
X643087Y577207D01*
X642196Y575056D01*
X646938D01*
Y579798D01*
D02*
G37*
G36*
X634238D02*
Y575056D01*
X638980D01*
X638088Y577207D01*
X636389Y578907D01*
X634238Y579798D01*
D02*
G37*
G36*
X631698D02*
X629547Y578907D01*
X627848Y577207D01*
X626956Y575056D01*
X631698D01*
Y579798D01*
D02*
G37*
G36*
X618744D02*
Y575056D01*
X623486D01*
X622594Y577207D01*
X620895Y578907D01*
X618744Y579798D01*
D02*
G37*
G36*
X616204D02*
X614053Y578907D01*
X612354Y577207D01*
X611462Y575056D01*
X616204D01*
Y579798D01*
D02*
G37*
G36*
X603504D02*
Y575056D01*
X608246D01*
X607355Y577207D01*
X605655Y578907D01*
X603504Y579798D01*
D02*
G37*
G36*
X600964D02*
X598813Y578907D01*
X597113Y577207D01*
X596222Y575056D01*
X600964D01*
Y579798D01*
D02*
G37*
G36*
X679196Y579152D02*
Y574410D01*
X683938D01*
X683046Y576561D01*
X681347Y578260D01*
X679196Y579152D01*
D02*
G37*
G36*
X676656D02*
X674505Y578260D01*
X672806Y576561D01*
X671914Y574410D01*
X676656D01*
Y579152D01*
D02*
G37*
G36*
X839216Y578020D02*
Y573278D01*
X843958D01*
X843066Y575429D01*
X841367Y577128D01*
X839216Y578020D01*
D02*
G37*
G36*
X836676D02*
X834525Y577128D01*
X832825Y575429D01*
X831934Y573278D01*
X836676D01*
Y578020D01*
D02*
G37*
G36*
X869442Y577512D02*
Y572770D01*
X874184D01*
X873292Y574921D01*
X871593Y576620D01*
X869442Y577512D01*
D02*
G37*
G36*
X866902D02*
X864751Y576620D01*
X863052Y574921D01*
X862160Y572770D01*
X866902D01*
Y577512D01*
D02*
G37*
G36*
X654220Y572516D02*
X649478D01*
Y567774D01*
X651629Y568666D01*
X653328Y570365D01*
X654220Y572516D01*
D02*
G37*
G36*
X646938D02*
X642196D01*
X643087Y570365D01*
X644787Y568666D01*
X646938Y567774D01*
Y572516D01*
D02*
G37*
G36*
X638980D02*
X634238D01*
Y567774D01*
X636389Y568666D01*
X638088Y570365D01*
X638980Y572516D01*
D02*
G37*
G36*
X631698D02*
X626956D01*
X627848Y570365D01*
X629547Y568666D01*
X631698Y567774D01*
Y572516D01*
D02*
G37*
G36*
X623486D02*
X618744D01*
Y567774D01*
X620895Y568666D01*
X622594Y570365D01*
X623486Y572516D01*
D02*
G37*
G36*
X616204D02*
X611462D01*
X612354Y570365D01*
X614053Y568666D01*
X616204Y567774D01*
Y572516D01*
D02*
G37*
G36*
X608246D02*
X603504D01*
Y567774D01*
X605655Y568666D01*
X607355Y570365D01*
X608246Y572516D01*
D02*
G37*
G36*
X600964D02*
X596222D01*
X597113Y570365D01*
X598813Y568666D01*
X600964Y567774D01*
Y572516D01*
D02*
G37*
G36*
X683938Y571870D02*
X679196D01*
Y567128D01*
X681347Y568019D01*
X683046Y569719D01*
X683938Y571870D01*
D02*
G37*
G36*
X676656D02*
X671914D01*
X672806Y569719D01*
X674505Y568019D01*
X676656Y567128D01*
Y571870D01*
D02*
G37*
G36*
X843958Y570738D02*
X839216D01*
Y565996D01*
X841367Y566888D01*
X843066Y568587D01*
X843958Y570738D01*
D02*
G37*
G36*
X836676D02*
X831934D01*
X832825Y568587D01*
X834525Y566888D01*
X836676Y565996D01*
Y570738D01*
D02*
G37*
G36*
X874184Y570230D02*
X869442D01*
Y565488D01*
X871593Y566380D01*
X873292Y568079D01*
X874184Y570230D01*
D02*
G37*
G36*
X866902D02*
X862160D01*
X863052Y568079D01*
X864751Y566380D01*
X866902Y565488D01*
Y570230D01*
D02*
G37*
G36*
X1004316Y561764D02*
Y557022D01*
X1009058D01*
X1008167Y559173D01*
X1006467Y560872D01*
X1004316Y561764D01*
D02*
G37*
G36*
X1001776D02*
X999625Y560872D01*
X997925Y559173D01*
X997034Y557022D01*
X1001776D01*
Y561764D01*
D02*
G37*
G36*
X989330Y561002D02*
Y556260D01*
X994072D01*
X993180Y558411D01*
X991481Y560111D01*
X989330Y561002D01*
D02*
G37*
G36*
X986790D02*
X984639Y560111D01*
X982940Y558411D01*
X982048Y556260D01*
X986790D01*
Y561002D01*
D02*
G37*
G36*
X878979Y560683D02*
Y555942D01*
X883721D01*
X882830Y558093D01*
X881130Y559792D01*
X878979Y560683D01*
D02*
G37*
G36*
X876439D02*
X874288Y559792D01*
X872589Y558093D01*
X871697Y555942D01*
X876439D01*
Y560683D01*
D02*
G37*
G36*
X690355Y556458D02*
X688357D01*
X686510Y555693D01*
X685100Y554283D01*
X616966D01*
X616966Y554283D01*
X615876Y554066D01*
X614952Y553448D01*
X614952Y553448D01*
X596664Y535160D01*
X596046Y534236D01*
X595829Y533146D01*
X595829Y533146D01*
Y521146D01*
X594419Y519736D01*
X593654Y517889D01*
Y515891D01*
X594419Y514044D01*
X595832Y512631D01*
X597679Y511866D01*
X599677D01*
X601524Y512631D01*
X602937Y514044D01*
X603702Y515891D01*
Y517889D01*
X602937Y519736D01*
X601527Y521146D01*
Y531966D01*
X618146Y548585D01*
X685100D01*
X686510Y547175D01*
X688357Y546410D01*
X690355D01*
X692202Y547175D01*
X693615Y548588D01*
X694380Y550435D01*
Y552433D01*
X693615Y554280D01*
X692202Y555693D01*
X690355Y556458D01*
D02*
G37*
G36*
X1009058Y554482D02*
X1004316D01*
Y549740D01*
X1006467Y550631D01*
X1008167Y552331D01*
X1009058Y554482D01*
D02*
G37*
G36*
X1001776D02*
X997034D01*
X997925Y552331D01*
X999625Y550631D01*
X1001776Y549740D01*
Y554482D01*
D02*
G37*
G36*
X994072Y553720D02*
X989330D01*
Y548978D01*
X991481Y549869D01*
X993180Y551569D01*
X994072Y553720D01*
D02*
G37*
G36*
X986790D02*
X982048D01*
X982940Y551569D01*
X984639Y549869D01*
X986790Y548978D01*
Y553720D01*
D02*
G37*
G36*
X883721Y553402D02*
X878979D01*
Y548660D01*
X881130Y549551D01*
X882830Y551250D01*
X883721Y553402D01*
D02*
G37*
G36*
X876439D02*
X871697D01*
X872589Y551250D01*
X874288Y549551D01*
X876439Y548660D01*
Y553402D01*
D02*
G37*
G36*
X561204Y567554D02*
X541156D01*
Y547506D01*
X561204D01*
Y567554D01*
D02*
G37*
G36*
X630401Y538991D02*
X628250Y538100D01*
X626771Y536622D01*
X625293Y538100D01*
X623141Y538991D01*
Y532980D01*
X621871D01*
Y531710D01*
X615860D01*
X616751Y529558D01*
X618160Y528149D01*
X616671Y526661D01*
X615780Y524510D01*
X621792D01*
Y521970D01*
X615780D01*
X616671Y519819D01*
X618371Y518120D01*
X620378Y517288D01*
X619860Y516038D01*
X631883D01*
X631413Y517172D01*
X633087Y517865D01*
X634786Y519565D01*
X635678Y521716D01*
X629666D01*
Y524256D01*
X635678D01*
X634786Y526407D01*
X634658Y526536D01*
X634905Y527782D01*
X635092Y527859D01*
X636791Y529558D01*
X637682Y531710D01*
X631671D01*
Y532980D01*
X630401D01*
Y538991D01*
D02*
G37*
G36*
X632941D02*
Y534250D01*
X637682D01*
X636791Y536401D01*
X635092Y538100D01*
X632941Y538991D01*
D02*
G37*
G36*
X620601D02*
X618450Y538100D01*
X616751Y536401D01*
X615860Y534250D01*
X620601D01*
Y538991D01*
D02*
G37*
G36*
X685408Y527220D02*
Y522478D01*
X690150D01*
X689258Y524629D01*
X687559Y526329D01*
X685408Y527220D01*
D02*
G37*
G36*
X682868D02*
X680717Y526329D01*
X679017Y524629D01*
X678126Y522478D01*
X682868D01*
Y527220D01*
D02*
G37*
G36*
X552500Y542154D02*
X549860D01*
X547311Y541471D01*
X545025Y540151D01*
X543159Y538285D01*
X541839Y535999D01*
X541156Y533450D01*
Y530810D01*
X541839Y528261D01*
X543159Y525975D01*
X545025Y524109D01*
X547311Y522789D01*
X549860Y522106D01*
X552500D01*
X555049Y522789D01*
X557335Y524109D01*
X559201Y525975D01*
X560521Y528261D01*
X561204Y530810D01*
Y533450D01*
X560521Y535999D01*
X559201Y538285D01*
X557335Y540151D01*
X555049Y541471D01*
X552500Y542154D01*
D02*
G37*
G36*
X986790Y525962D02*
Y521220D01*
X991532D01*
X990640Y523371D01*
X988941Y525070D01*
X986790Y525962D01*
D02*
G37*
G36*
X984250D02*
X982099Y525070D01*
X980399Y523371D01*
X979508Y521220D01*
X984250D01*
Y525962D01*
D02*
G37*
G36*
X690150Y519938D02*
X685408D01*
Y515196D01*
X687559Y516087D01*
X689258Y517787D01*
X690150Y519938D01*
D02*
G37*
G36*
X682868D02*
X678126D01*
X679017Y517787D01*
X680717Y516087D01*
X682868Y515196D01*
Y519938D01*
D02*
G37*
G36*
X991532Y518680D02*
X986790D01*
Y513938D01*
X988941Y514830D01*
X990640Y516529D01*
X991532Y518680D01*
D02*
G37*
G36*
X984250D02*
X979508D01*
X980399Y516529D01*
X982099Y514830D01*
X984250Y513938D01*
Y518680D01*
D02*
G37*
G36*
X700648Y497110D02*
Y492368D01*
X705390D01*
X704499Y494519D01*
X702799Y496218D01*
X700648Y497110D01*
D02*
G37*
G36*
X698108D02*
X695957Y496218D01*
X694258Y494519D01*
X693366Y492368D01*
X698108D01*
Y497110D01*
D02*
G37*
G36*
X685408Y496740D02*
Y491998D01*
X690150D01*
X689258Y494149D01*
X687559Y495849D01*
X685408Y496740D01*
D02*
G37*
G36*
X682868D02*
X680717Y495849D01*
X679017Y494149D01*
X678126Y491998D01*
X682868D01*
Y496740D01*
D02*
G37*
G36*
X637682Y495286D02*
X632941D01*
Y490544D01*
X635092Y491435D01*
X636791Y493134D01*
X637682Y495286D01*
D02*
G37*
G36*
X631883Y513498D02*
X619860D01*
X620261Y512528D01*
X618625Y511851D01*
X616926Y510151D01*
X616034Y508000D01*
X622046D01*
Y505460D01*
X616034D01*
X616926Y503309D01*
X618468Y501766D01*
X618450Y501676D01*
X616751Y499977D01*
X615860Y497826D01*
X621871D01*
Y496556D01*
X623141D01*
Y490544D01*
X625293Y491435D01*
X626771Y492914D01*
X628250Y491435D01*
X630401Y490544D01*
Y496556D01*
X631671D01*
Y497826D01*
X637682D01*
X636791Y499977D01*
X635092Y501676D01*
X634957Y501732D01*
X634710Y502978D01*
X634786Y503055D01*
X635678Y505206D01*
X629666D01*
Y507746D01*
X635678D01*
X634786Y509897D01*
X633087Y511596D01*
X631387Y512301D01*
X631883Y513498D01*
D02*
G37*
G36*
X620601Y495286D02*
X615860D01*
X616751Y493134D01*
X618450Y491435D01*
X620601Y490544D01*
Y495286D01*
D02*
G37*
G36*
X705390Y489828D02*
X700648D01*
Y485086D01*
X702799Y485978D01*
X704499Y487677D01*
X705390Y489828D01*
D02*
G37*
G36*
X698108D02*
X693366D01*
X694258Y487677D01*
X695957Y485978D01*
X698108Y485086D01*
Y489828D01*
D02*
G37*
G36*
X690150Y489458D02*
X685408D01*
Y484716D01*
X687559Y485607D01*
X689258Y487307D01*
X690150Y489458D01*
D02*
G37*
G36*
X682868D02*
X678126D01*
X679017Y487307D01*
X680717Y485607D01*
X682868Y484716D01*
Y489458D01*
D02*
G37*
G36*
X685408Y481500D02*
Y476758D01*
X690150D01*
X689258Y478909D01*
X687559Y480608D01*
X685408Y481500D01*
D02*
G37*
G36*
X682868D02*
X680717Y480608D01*
X679017Y478909D01*
X678126Y476758D01*
X682868D01*
Y481500D01*
D02*
G37*
G36*
X690150Y474218D02*
X685408D01*
Y469476D01*
X687559Y470368D01*
X689258Y472067D01*
X690150Y474218D01*
D02*
G37*
G36*
X682868D02*
X678126D01*
X679017Y472067D01*
X680717Y470368D01*
X682868Y469476D01*
Y474218D01*
D02*
G37*
G36*
X784098Y469562D02*
Y464820D01*
X788840D01*
X787949Y466971D01*
X786249Y468671D01*
X784098Y469562D01*
D02*
G37*
G36*
X781558D02*
X779407Y468671D01*
X777708Y466971D01*
X776816Y464820D01*
X781558D01*
Y469562D01*
D02*
G37*
G36*
X1121156Y466514D02*
Y461772D01*
X1125898D01*
X1125006Y463923D01*
X1123307Y465622D01*
X1121156Y466514D01*
D02*
G37*
G36*
X1118616D02*
X1116465Y465622D01*
X1114765Y463923D01*
X1113874Y461772D01*
X1118616D01*
Y466514D01*
D02*
G37*
G36*
X788840Y462280D02*
X784098D01*
Y457538D01*
X786249Y458429D01*
X787949Y460129D01*
X788840Y462280D01*
D02*
G37*
G36*
X781558D02*
X776816D01*
X777708Y460129D01*
X779407Y458429D01*
X781558Y457538D01*
Y462280D01*
D02*
G37*
G36*
X1018540Y462196D02*
Y457454D01*
X1023282D01*
X1022391Y459605D01*
X1020691Y461305D01*
X1018540Y462196D01*
D02*
G37*
G36*
X1016000D02*
X1013849Y461305D01*
X1012150Y459605D01*
X1011258Y457454D01*
X1016000D01*
Y462196D01*
D02*
G37*
G36*
X869442Y459910D02*
Y455168D01*
X874184D01*
X873292Y457319D01*
X871593Y459019D01*
X869442Y459910D01*
D02*
G37*
G36*
X866902D02*
X864751Y459019D01*
X863052Y457319D01*
X862160Y455168D01*
X866902D01*
Y459910D01*
D02*
G37*
G36*
X984250Y458628D02*
Y453886D01*
X988992D01*
X988101Y456037D01*
X986401Y457736D01*
X984250Y458628D01*
D02*
G37*
G36*
X981710D02*
X979559Y457736D01*
X977859Y456037D01*
X976968Y453886D01*
X981710D01*
Y458628D01*
D02*
G37*
G36*
X1125898Y459232D02*
X1113874D01*
X1114765Y457081D01*
X1116297Y455549D01*
X1114765Y454017D01*
X1113874Y451866D01*
X1125898D01*
X1125006Y454017D01*
X1123475Y455549D01*
X1125006Y457081D01*
X1125898Y459232D01*
D02*
G37*
G36*
X1023282Y454914D02*
X1018540D01*
Y450172D01*
X1020691Y451063D01*
X1022391Y452763D01*
X1023282Y454914D01*
D02*
G37*
G36*
X1016000D02*
X1011258D01*
X1012150Y452763D01*
X1013849Y451063D01*
X1016000Y450172D01*
Y454914D01*
D02*
G37*
G36*
X874184Y452628D02*
X869442D01*
Y447886D01*
X871593Y448778D01*
X873292Y450477D01*
X874184Y452628D01*
D02*
G37*
G36*
X866902D02*
X862160D01*
X863052Y450477D01*
X864751Y448778D01*
X866902Y447886D01*
Y452628D01*
D02*
G37*
G36*
X988992Y451346D02*
X984250D01*
Y446604D01*
X986401Y447495D01*
X988101Y449195D01*
X988992Y451346D01*
D02*
G37*
G36*
X981710D02*
X976968D01*
X977859Y449195D01*
X979559Y447495D01*
X981710Y446604D01*
Y451346D01*
D02*
G37*
G36*
X1125898Y449326D02*
X1121156D01*
Y444584D01*
X1123307Y445476D01*
X1125006Y447175D01*
X1125898Y449326D01*
D02*
G37*
G36*
X1118616D02*
X1113874D01*
X1114765Y447175D01*
X1116465Y445476D01*
X1118616Y444584D01*
Y449326D01*
D02*
G37*
G36*
X729737Y451576D02*
X729488D01*
Y441306D01*
X739758D01*
Y441555D01*
X738971Y444490D01*
X737452Y447122D01*
X735304Y449270D01*
X732672Y450789D01*
X729737Y451576D01*
D02*
G37*
G36*
X726948D02*
X726699D01*
X723764Y450789D01*
X721132Y449270D01*
X718984Y447122D01*
X717465Y444490D01*
X716678Y441555D01*
Y441306D01*
X726948D01*
Y451576D01*
D02*
G37*
G36*
X654188Y437050D02*
Y432308D01*
X658930D01*
X658038Y434459D01*
X656339Y436158D01*
X654188Y437050D01*
D02*
G37*
G36*
X651648D02*
X649497Y436158D01*
X647797Y434459D01*
X646906Y432308D01*
X651648D01*
Y437050D01*
D02*
G37*
G36*
X598054D02*
Y432308D01*
X602796D01*
X601904Y434459D01*
X600205Y436158D01*
X598054Y437050D01*
D02*
G37*
G36*
X595514D02*
X593363Y436158D01*
X591664Y434459D01*
X590772Y432308D01*
X595514D01*
Y437050D01*
D02*
G37*
G36*
X988568Y435780D02*
Y431038D01*
X993310D01*
X992419Y433189D01*
X990719Y434888D01*
X988568Y435780D01*
D02*
G37*
G36*
X986028D02*
X983877Y434888D01*
X982178Y433189D01*
X981286Y431038D01*
X986028D01*
Y435780D01*
D02*
G37*
G36*
X561204Y449444D02*
X541156D01*
Y429396D01*
X561204D01*
Y449444D01*
D02*
G37*
G36*
X739758Y438766D02*
X729488D01*
Y428496D01*
X729737D01*
X732672Y429282D01*
X735304Y430802D01*
X737452Y432950D01*
X738971Y435582D01*
X739758Y438517D01*
Y438766D01*
D02*
G37*
G36*
X726948D02*
X716678D01*
Y438517D01*
X717465Y435582D01*
X718984Y432950D01*
X721132Y430802D01*
X723764Y429282D01*
X726699Y428496D01*
X726948D01*
Y438766D01*
D02*
G37*
G36*
X658930Y429768D02*
X654188D01*
Y425026D01*
X656339Y425918D01*
X658038Y427617D01*
X658930Y429768D01*
D02*
G37*
G36*
X651648D02*
X646906D01*
X647797Y427617D01*
X649497Y425918D01*
X651648Y425026D01*
Y429768D01*
D02*
G37*
G36*
X602796D02*
X598054D01*
Y425026D01*
X600205Y425918D01*
X601904Y427617D01*
X602796Y429768D01*
D02*
G37*
G36*
X595514D02*
X590772D01*
X591664Y427617D01*
X593363Y425918D01*
X595514Y425026D01*
Y429768D01*
D02*
G37*
G36*
X993310Y428498D02*
X988568D01*
Y423756D01*
X990719Y424647D01*
X992419Y426347D01*
X993310Y428498D01*
D02*
G37*
G36*
X986028D02*
X981286D01*
X982178Y426347D01*
X983877Y424647D01*
X986028Y423756D01*
Y428498D01*
D02*
G37*
G36*
X931347Y423847D02*
Y419105D01*
X936089D01*
X935198Y421256D01*
X933499Y422955D01*
X931347Y423847D01*
D02*
G37*
G36*
X928807D02*
X926656Y422955D01*
X924957Y421256D01*
X924066Y419105D01*
X928807D01*
Y423847D01*
D02*
G37*
G36*
X654188Y421810D02*
Y417068D01*
X658930D01*
X658038Y419219D01*
X656339Y420919D01*
X654188Y421810D01*
D02*
G37*
G36*
X651648D02*
X649497Y420919D01*
X647797Y419219D01*
X646906Y417068D01*
X651648D01*
Y421810D01*
D02*
G37*
G36*
X598054D02*
Y417068D01*
X602796D01*
X601904Y419219D01*
X600205Y420919D01*
X598054Y421810D01*
D02*
G37*
G36*
X595514D02*
X593363Y420919D01*
X591664Y419219D01*
X590772Y417068D01*
X595514D01*
Y421810D01*
D02*
G37*
G36*
X552633Y425060D02*
X552450D01*
Y415290D01*
X562220D01*
Y415473D01*
X561468Y418281D01*
X560014Y420799D01*
X557959Y422854D01*
X555441Y424308D01*
X552633Y425060D01*
D02*
G37*
G36*
X549910D02*
X549727D01*
X546919Y424308D01*
X544401Y422854D01*
X542346Y420799D01*
X540892Y418281D01*
X540140Y415473D01*
Y415290D01*
X549910D01*
Y425060D01*
D02*
G37*
G36*
X936089Y416565D02*
X931347D01*
Y411823D01*
X933499Y412715D01*
X935198Y414413D01*
X936089Y416565D01*
D02*
G37*
G36*
X928807D02*
X924066D01*
X924957Y414413D01*
X926656Y412715D01*
X928807Y411823D01*
Y416565D01*
D02*
G37*
G36*
X845820Y416084D02*
Y411342D01*
X850562D01*
X849670Y413493D01*
X847971Y415192D01*
X845820Y416084D01*
D02*
G37*
G36*
X843280D02*
X841129Y415192D01*
X839429Y413493D01*
X838538Y411342D01*
X843280D01*
Y416084D01*
D02*
G37*
G36*
X830580D02*
Y411342D01*
X835322D01*
X834430Y413493D01*
X832731Y415192D01*
X830580Y416084D01*
D02*
G37*
G36*
X828040D02*
X825889Y415192D01*
X824190Y413493D01*
X823298Y411342D01*
X828040D01*
Y416084D01*
D02*
G37*
G36*
X658930Y414528D02*
X654188D01*
Y409786D01*
X656339Y410677D01*
X658038Y412377D01*
X658930Y414528D01*
D02*
G37*
G36*
X651648D02*
X646906D01*
X647797Y412377D01*
X649497Y410677D01*
X651648Y409786D01*
Y414528D01*
D02*
G37*
G36*
X602796D02*
X598054D01*
Y409786D01*
X600205Y410677D01*
X601904Y412377D01*
X602796Y414528D01*
D02*
G37*
G36*
X595514D02*
X590772D01*
X591664Y412377D01*
X593363Y410677D01*
X595514Y409786D01*
Y414528D01*
D02*
G37*
G36*
X1187445Y405669D02*
X1184491D01*
X1184334Y405605D01*
X1184169Y405638D01*
X1181271Y405061D01*
X1181130Y404967D01*
X1180961D01*
X1178232Y403837D01*
X1178112Y403717D01*
X1177946Y403684D01*
X1175490Y402043D01*
X1175396Y401902D01*
X1175240Y401837D01*
X1173150Y399748D01*
X1173086Y399592D01*
X1172945Y399498D01*
X1171304Y397041D01*
X1171271Y396875D01*
X1171151Y396756D01*
X1170021Y394026D01*
Y393857D01*
X1169927Y393717D01*
X1169350Y390819D01*
X1169383Y390653D01*
X1169318Y390497D01*
Y387542D01*
X1169383Y387386D01*
X1169350Y387220D01*
X1169927Y384323D01*
X1170021Y384182D01*
Y384013D01*
X1171151Y381283D01*
X1171271Y381164D01*
X1171304Y380998D01*
X1172945Y378541D01*
X1173086Y378447D01*
X1173150Y378291D01*
X1175240Y376202D01*
X1175396Y376137D01*
X1175490Y375997D01*
X1177946Y374355D01*
X1178112Y374322D01*
X1178232Y374203D01*
X1180961Y373072D01*
X1181130D01*
X1181271Y372978D01*
X1184169Y372402D01*
X1184334Y372435D01*
X1184491Y372370D01*
X1187445D01*
X1187601Y372435D01*
X1187767Y372402D01*
X1190665Y372978D01*
X1190806Y373072D01*
X1190975D01*
X1193704Y374203D01*
X1193824Y374322D01*
X1193990Y374355D01*
X1196446Y375997D01*
X1196540Y376137D01*
X1196696Y376202D01*
X1198786Y378291D01*
X1198850Y378447D01*
X1198991Y378541D01*
X1200632Y380998D01*
X1200665Y381164D01*
X1200785Y381283D01*
X1201916Y384013D01*
Y384182D01*
X1202010Y384323D01*
X1202586Y387220D01*
X1202553Y387386D01*
X1202618Y387542D01*
Y390497D01*
X1202553Y390653D01*
X1202586Y390819D01*
X1202010Y393717D01*
X1201916Y393857D01*
Y394026D01*
X1200785Y396756D01*
X1200665Y396875D01*
X1200632Y397041D01*
X1198991Y399498D01*
X1198850Y399592D01*
X1198786Y399748D01*
X1196696Y401837D01*
X1196540Y401902D01*
X1196446Y402043D01*
X1193990Y403684D01*
X1193824Y403717D01*
X1193704Y403837D01*
X1190975Y404967D01*
X1190806D01*
X1190665Y405061D01*
X1187767Y405638D01*
X1187601Y405605D01*
X1187445Y405669D01*
D02*
G37*
G36*
X500658Y405669D02*
X497703D01*
X497547Y405605D01*
X497381Y405638D01*
X494483Y405061D01*
X494342Y404967D01*
X494174D01*
X491444Y403836D01*
X491324Y403717D01*
X491158Y403684D01*
X488702Y402042D01*
X488608Y401902D01*
X488452Y401837D01*
X486362Y399748D01*
X486298Y399592D01*
X486157Y399498D01*
X484516Y397041D01*
X484483Y396875D01*
X484363Y396756D01*
X483233Y394026D01*
Y393857D01*
X483139Y393717D01*
X482562Y390819D01*
X482595Y390653D01*
X482531Y390497D01*
Y387542D01*
X482595Y387386D01*
X482562Y387220D01*
X483139Y384322D01*
X483233Y384182D01*
Y384013D01*
X484363Y381283D01*
X484483Y381164D01*
X484516Y380998D01*
X486157Y378541D01*
X486298Y378447D01*
X486362Y378291D01*
X488452Y376202D01*
X488608Y376137D01*
X488702Y375997D01*
X491158Y374355D01*
X491324Y374322D01*
X491444Y374203D01*
X494174Y373072D01*
X494342D01*
X494483Y372978D01*
X497381Y372402D01*
X497547Y372435D01*
X497703Y372370D01*
X500658D01*
X500814Y372435D01*
X500979Y372402D01*
X503877Y372978D01*
X504018Y373072D01*
X504187D01*
X506917Y374203D01*
X507036Y374322D01*
X507202Y374355D01*
X509659Y375997D01*
X509752Y376137D01*
X509908Y376202D01*
X511998Y378291D01*
X512062Y378447D01*
X512203Y378541D01*
X513844Y380998D01*
X513877Y381164D01*
X513997Y381283D01*
X515128Y384013D01*
Y384182D01*
X515222Y384322D01*
X515798Y387220D01*
X515765Y387386D01*
X515830Y387542D01*
Y390497D01*
X515765Y390653D01*
X515798Y390819D01*
X515222Y393717D01*
X515128Y393857D01*
Y394026D01*
X513997Y396756D01*
X513877Y396875D01*
X513844Y397041D01*
X512203Y399498D01*
X512062Y399592D01*
X511998Y399748D01*
X509908Y401837D01*
X509752Y401902D01*
X509659Y402042D01*
X507202Y403684D01*
X507036Y403717D01*
X506917Y403836D01*
X504187Y404967D01*
X504018D01*
X503877Y405061D01*
X500979Y405638D01*
X500814Y405605D01*
X500658Y405669D01*
D02*
G37*
G36*
X850562Y408802D02*
X845820D01*
Y404060D01*
X847971Y404952D01*
X849670Y406651D01*
X850562Y408802D01*
D02*
G37*
G36*
X843280D02*
X838538D01*
X839429Y406651D01*
X841129Y404952D01*
X843280Y404060D01*
Y408802D01*
D02*
G37*
G36*
X835322D02*
X830580D01*
Y404060D01*
X832731Y404952D01*
X834430Y406651D01*
X835322Y408802D01*
D02*
G37*
G36*
X828040D02*
X823298D01*
X824190Y406651D01*
X825889Y404952D01*
X828040Y404060D01*
Y408802D01*
D02*
G37*
G36*
X562220Y412750D02*
X552450D01*
Y402980D01*
X552633D01*
X555441Y403732D01*
X557959Y405186D01*
X560014Y407241D01*
X561468Y409759D01*
X562220Y412567D01*
Y412750D01*
D02*
G37*
G36*
X549910D02*
X540140D01*
Y412567D01*
X540892Y409759D01*
X542346Y407241D01*
X544401Y405186D01*
X546919Y403732D01*
X549727Y402980D01*
X549910D01*
Y412750D01*
D02*
G37*
G36*
X654050Y406062D02*
Y401320D01*
X658792D01*
X657900Y403471D01*
X656201Y405171D01*
X654050Y406062D01*
D02*
G37*
G36*
X651510D02*
X649359Y405171D01*
X647660Y403471D01*
X646768Y401320D01*
X651510D01*
Y406062D01*
D02*
G37*
G36*
X598170D02*
Y401320D01*
X602912D01*
X602020Y403471D01*
X600321Y405171D01*
X598170Y406062D01*
D02*
G37*
G36*
X595630D02*
X593479Y405171D01*
X591780Y403471D01*
X590888Y401320D01*
X595630D01*
Y406062D01*
D02*
G37*
G36*
X909303Y410154D02*
X907305D01*
X905458Y409389D01*
X904045Y407976D01*
X903280Y406129D01*
Y404131D01*
X903386Y403875D01*
X898341Y398830D01*
X859385D01*
X859279Y399086D01*
X857866Y400499D01*
X856019Y401264D01*
X854021D01*
X852174Y400499D01*
X850761Y399086D01*
X849996Y397239D01*
Y395241D01*
X850102Y394985D01*
X834083Y378965D01*
X833521Y378125D01*
X833324Y377134D01*
Y373938D01*
X551709D01*
X550943Y374703D01*
X550103Y375265D01*
X549112Y375462D01*
X546909D01*
X546803Y375718D01*
X545390Y377131D01*
X543543Y377896D01*
X541545D01*
X539698Y377131D01*
X538285Y375718D01*
X537520Y373871D01*
Y371873D01*
X538285Y370026D01*
X539698Y368613D01*
X541545Y367848D01*
X543543D01*
X545390Y368613D01*
X546803Y370026D01*
X546839Y370113D01*
X548083Y370239D01*
X548805Y369517D01*
X549645Y368955D01*
X550636Y368758D01*
X834724D01*
X835715Y368955D01*
X836555Y369517D01*
X837745Y370707D01*
X838307Y371547D01*
X838504Y372538D01*
Y376061D01*
X845008Y382565D01*
X846085Y381846D01*
X845622Y380729D01*
Y378731D01*
X846387Y376884D01*
X847800Y375471D01*
X849647Y374706D01*
X851645D01*
X853492Y375471D01*
X854905Y376884D01*
X854959Y377013D01*
X867818D01*
X867977Y376630D01*
X869390Y375217D01*
X871237Y374452D01*
X873235D01*
X875082Y375217D01*
X876495Y376630D01*
X877260Y378477D01*
Y380475D01*
X876495Y382322D01*
X875082Y383735D01*
X873235Y384500D01*
X871237D01*
X869390Y383735D01*
X867977Y382322D01*
X867923Y382193D01*
X855064D01*
X854905Y382576D01*
X853492Y383989D01*
X851645Y384754D01*
X849647D01*
X848530Y384291D01*
X847811Y385368D01*
X853764Y391322D01*
X854021Y391216D01*
X856019D01*
X857866Y391981D01*
X859279Y393394D01*
X859385Y393650D01*
X899414D01*
X900405Y393847D01*
X901245Y394409D01*
X907049Y400212D01*
X907305Y400106D01*
X909303D01*
X911150Y400871D01*
X912563Y402284D01*
X913328Y404131D01*
Y406129D01*
X912563Y407976D01*
X911150Y409389D01*
X909303Y410154D01*
D02*
G37*
G36*
X658792Y398780D02*
X654050D01*
Y394038D01*
X656201Y394930D01*
X657900Y396629D01*
X658792Y398780D01*
D02*
G37*
G36*
X651510D02*
X646768D01*
X647660Y396629D01*
X649359Y394930D01*
X651510Y394038D01*
Y398780D01*
D02*
G37*
G36*
X602912D02*
X598170D01*
Y394038D01*
X600321Y394930D01*
X602020Y396629D01*
X602912Y398780D01*
D02*
G37*
G36*
X595630D02*
X590888D01*
X591780Y396629D01*
X593479Y394930D01*
X595630Y394038D01*
Y398780D01*
D02*
G37*
G36*
X738742Y400560D02*
X717694D01*
Y379512D01*
X738742D01*
Y400560D01*
D02*
G37*
%LPD*%
D10*
X598678Y516890D02*
Y533146D01*
X616966Y551434D02*
X689356D01*
X598678Y533146D02*
X616966Y551434D01*
D15*
X494284Y717550D02*
X501768Y710066D01*
X502958Y709676D02*
X683429D01*
X502568Y710066D02*
X502958Y709676D01*
X501768Y710066D02*
X502568D01*
X507492Y705358D02*
X704511D01*
X494284Y692150D02*
X507492Y705358D01*
X542544Y372872D02*
X549112D01*
X550636Y371348D01*
X834724D01*
X835914Y372538D01*
Y377134D01*
X855020Y396240D01*
X704511Y705358D02*
X726863Y727710D01*
X683429Y709676D02*
X701463Y727710D01*
X855020Y396240D02*
X899414D01*
X908304Y405130D01*
X850646Y379730D02*
X850773Y379603D01*
X872109D01*
X872236Y379476D01*
D46*
X728218Y390036D02*
D03*
D47*
Y440036D02*
D03*
D48*
X494284Y615950D02*
D03*
Y641350D02*
D03*
Y666750D02*
D03*
Y692150D02*
D03*
X617220Y637540D02*
D03*
X591820D02*
D03*
X566420D02*
D03*
X1022350D02*
D03*
X996950D02*
D03*
X971550D02*
D03*
X551180Y532130D02*
D03*
X617220Y727710D02*
D03*
X591820D02*
D03*
X566420D02*
D03*
X1022350D02*
D03*
X996950D02*
D03*
X971550D02*
D03*
X887307Y637540D02*
D03*
X861907D02*
D03*
X836507D02*
D03*
X887307Y727710D02*
D03*
X861907D02*
D03*
X836507D02*
D03*
X752263Y637540D02*
D03*
X726863D02*
D03*
X701463D02*
D03*
X752263Y727710D02*
D03*
X726863D02*
D03*
X701463D02*
D03*
X551180Y414020D02*
D03*
D49*
X494284Y717550D02*
D03*
X541020Y637540D02*
D03*
X946150D02*
D03*
X541020Y727710D02*
D03*
X946150D02*
D03*
X811107Y637540D02*
D03*
Y727710D02*
D03*
X676063Y637540D02*
D03*
Y727710D02*
D03*
D50*
X551180Y557530D02*
D03*
Y439420D02*
D03*
D51*
X782828Y463550D02*
D03*
X542544Y372872D02*
D03*
X855020Y396240D02*
D03*
X908304Y405130D02*
D03*
X982980Y452616D02*
D03*
X985520Y519950D02*
D03*
X1003046Y555752D02*
D03*
X988060Y554990D02*
D03*
X837946Y572008D02*
D03*
X868172Y571500D02*
D03*
X629666Y506476D02*
D03*
X622046Y506730D02*
D03*
X621792Y523240D02*
D03*
X629666Y522986D02*
D03*
X625871Y514768D02*
D03*
X621871Y532980D02*
D03*
X631671D02*
D03*
X621871Y496556D02*
D03*
X631671D02*
D03*
X602234Y573786D02*
D03*
X617474D02*
D03*
X632968D02*
D03*
X648208D02*
D03*
X677926Y573140D02*
D03*
X684138Y521208D02*
D03*
X699378Y491098D02*
D03*
X684138Y490728D02*
D03*
Y475488D02*
D03*
X652918Y431038D02*
D03*
Y415798D02*
D03*
X652780Y400050D02*
D03*
X596900D02*
D03*
X596784Y415798D02*
D03*
Y431038D02*
D03*
X877709Y554672D02*
D03*
X868172Y453898D02*
D03*
X829310Y410072D02*
D03*
X844550D02*
D03*
X850646Y379730D02*
D03*
X872236Y379476D02*
D03*
X930077Y417835D02*
D03*
X987298Y429768D02*
D03*
X1017270Y456184D02*
D03*
X1119886Y450596D02*
D03*
Y460502D02*
D03*
X598678Y516890D02*
D03*
X689356Y551434D02*
D03*
M02*
