M48
;Layer_Color=9474304
;FILE_FORMAT=4:4
METRIC,LZ
;TYPE=PLATED
T01F00S00C0.5000
T02F00S00C0.9000
%
T01
X00542544Y00372872
X00850646Y0037973
X0085502Y0039624
X00872236Y00379476
X0084455Y00410072
X0082931
X00868172Y00453898
X00908304Y0040513
X00930077Y00417835
X00987298Y00429768
X0098298Y00452616
X0101727Y00456184
X0098552Y0051995
X0098806Y0055499
X01003046Y00555752
X00877709Y00554672
X00868172Y005715
X00837946Y00572008
X01119886Y00460502
Y00450596
X00782828Y0046355
X00684138Y00475488
Y00490728
X00699378Y00491098
X00684138Y00521208
X00689356Y00551434
X00677926Y0057314
X00648208Y00573786
X00632968
X00617474
X00602234
X00621871Y0053298
X00631671
X00629666Y00522986
X00621792Y0052324
X00625871Y00514768
X00622046Y0050673
X00629666Y00506476
X00631671Y00496556
X00621871
X00598678Y0051689
X00596784Y00431038
Y00415798
X005969Y0040005
X0065278
X00652918Y00415798
Y00431038
T02
X00728218Y00390036
X00811107Y0063754
X00836507
X00861907
X00887307
X0094615
X0097155
X0099695
X0102235
Y0072771
X0099695
X0097155
X0094615
X00887307
X00861907
X00836507
X00811107
X00752263
X00726863
X00701463
X00676063
X0061722
X0059182
X0056642
X0054102
X00494284Y0071755
Y0069215
Y0066675
Y0064135
Y0061595
X0054102Y0063754
X0056642
X0059182
X0061722
X00676063
X00701463
X00726863
X00752263
X00728218Y00440036
X0055118Y0043942
Y0041402
Y0053213
Y0055753
M30
