G04*
G04 #@! TF.GenerationSoftware,Altium Limited,Altium Designer,24.0.1 (36)*
G04*
G04 Layer_Color=8421504*
%FSLAX44Y44*%
%MOMM*%
G71*
G04*
G04 #@! TF.SameCoordinates,3FE1674D-11C2-4531-B8C6-FC8791136C40*
G04*
G04*
G04 #@! TF.FilePolarity,Positive*
G04*
G01*
G75*
%ADD19R,0.7500X0.8500*%
%ADD20R,0.4500X1.0000*%
%ADD21O,1.8000X0.3000*%
%ADD22O,0.3000X1.8000*%
%ADD23R,1.2500X0.5000*%
%ADD24R,2.5000X2.0000*%
%ADD25R,0.8000X0.3000*%
%ADD26R,1.5200X2.4000*%
%ADD27R,1.1000X3.7000*%
%ADD28R,0.8500X0.7500*%
D19*
X792088Y392938D02*
D03*
X806588D02*
D03*
X792088Y377444D02*
D03*
X806588D02*
D03*
X804556Y447802D02*
D03*
X790056D02*
D03*
X804556Y463296D02*
D03*
X790056D02*
D03*
X844180Y396748D02*
D03*
X829680D02*
D03*
X646568Y400050D02*
D03*
X632068D02*
D03*
X981086Y429768D02*
D03*
X966586D02*
D03*
X663426Y460248D02*
D03*
X677926D02*
D03*
X677926Y551688D02*
D03*
X663426D02*
D03*
X677926Y536448D02*
D03*
X663426D02*
D03*
X646706Y415798D02*
D03*
X632206D02*
D03*
X646706Y431038D02*
D03*
X632206D02*
D03*
X602996Y415798D02*
D03*
X617496D02*
D03*
X602996Y431038D02*
D03*
X617496D02*
D03*
X663426Y505968D02*
D03*
X677926D02*
D03*
X663426Y566928D02*
D03*
X677926D02*
D03*
X663426Y521208D02*
D03*
X677926D02*
D03*
X663426Y475488D02*
D03*
X677926D02*
D03*
Y490728D02*
D03*
X663426D02*
D03*
X617612Y400050D02*
D03*
X603112D02*
D03*
X996558Y456184D02*
D03*
X1011058D02*
D03*
D20*
X797814Y431366D02*
D03*
X807314Y408686D02*
D03*
X788314D02*
D03*
D21*
X855852Y448910D02*
D03*
Y453910D02*
D03*
Y458910D02*
D03*
Y463910D02*
D03*
Y468910D02*
D03*
Y473910D02*
D03*
X855852Y478910D02*
D03*
Y483910D02*
D03*
X855852Y488910D02*
D03*
Y493910D02*
D03*
Y498910D02*
D03*
Y503910D02*
D03*
Y508910D02*
D03*
X855852Y513910D02*
D03*
Y518910D02*
D03*
X855852Y523910D02*
D03*
X966852Y523910D02*
D03*
Y518910D02*
D03*
Y513910D02*
D03*
Y508910D02*
D03*
Y503910D02*
D03*
Y498910D02*
D03*
Y493910D02*
D03*
Y488910D02*
D03*
Y483910D02*
D03*
Y478910D02*
D03*
Y473910D02*
D03*
X966852Y468910D02*
D03*
Y463910D02*
D03*
X966852Y458910D02*
D03*
Y453910D02*
D03*
Y448910D02*
D03*
D22*
X873852Y541910D02*
D03*
X878852Y541910D02*
D03*
X883852D02*
D03*
X888852Y541910D02*
D03*
X893852D02*
D03*
X898852D02*
D03*
X903852D02*
D03*
X908852D02*
D03*
X913852Y541910D02*
D03*
X918852D02*
D03*
X923852D02*
D03*
X928852Y541910D02*
D03*
X933852D02*
D03*
X938852D02*
D03*
X943852D02*
D03*
X948852D02*
D03*
Y430656D02*
D03*
X943852D02*
D03*
X938852D02*
D03*
X933852D02*
D03*
X928852D02*
D03*
X923852D02*
D03*
X918852D02*
D03*
X913852D02*
D03*
X908852D02*
D03*
X903852D02*
D03*
X898852D02*
D03*
X893852D02*
D03*
X888852D02*
D03*
X883852D02*
D03*
X878852D02*
D03*
X873852D02*
D03*
D23*
X1109218Y700550D02*
D03*
Y690550D02*
D03*
Y660550D02*
D03*
Y640550D02*
D03*
Y610550D02*
D03*
Y600550D02*
D03*
Y590550D02*
D03*
Y580550D02*
D03*
Y540550D02*
D03*
Y530550D02*
D03*
Y550550D02*
D03*
Y560550D02*
D03*
Y520550D02*
D03*
Y510550D02*
D03*
Y500550D02*
D03*
Y490550D02*
D03*
Y480550D02*
D03*
Y470550D02*
D03*
Y460550D02*
D03*
Y450550D02*
D03*
Y440550D02*
D03*
Y430550D02*
D03*
Y570550D02*
D03*
Y620550D02*
D03*
Y630550D02*
D03*
Y650550D02*
D03*
Y670550D02*
D03*
Y680550D02*
D03*
Y710550D02*
D03*
Y720550D02*
D03*
D24*
X1134968Y742450D02*
D03*
Y408650D02*
D03*
D25*
X610857Y524857D02*
D03*
Y519858D02*
D03*
Y514857D02*
D03*
Y509858D02*
D03*
Y504857D02*
D03*
X640855D02*
D03*
Y509858D02*
D03*
Y514857D02*
D03*
Y524857D02*
D03*
Y519858D02*
D03*
D26*
X625871Y514768D02*
D03*
D27*
X640856Y464058D02*
D03*
X610856D02*
D03*
D28*
X602234Y567574D02*
D03*
Y553074D02*
D03*
X617474Y567574D02*
D03*
Y553074D02*
D03*
X648208Y567574D02*
D03*
Y553074D02*
D03*
X632968Y567574D02*
D03*
Y553074D02*
D03*
X693166Y491098D02*
D03*
Y505598D02*
D03*
X829310Y430784D02*
D03*
Y416284D02*
D03*
X844550Y430784D02*
D03*
Y416284D02*
D03*
X845312Y571892D02*
D03*
Y557392D02*
D03*
X860552Y571892D02*
D03*
Y557392D02*
D03*
X987806Y548524D02*
D03*
Y534024D02*
D03*
X1003046Y548524D02*
D03*
Y534024D02*
D03*
M02*
