ISO-10303-21;
HEADER;
FILE_DESCRIPTION (( 'STEP AP214' ),
    '1' );
FILE_NAME ('util1.STEP',
    '2025-11-04T07:18:31',
    ( '' ),
    ( '' ),
    'SwSTEP 2.0',
    'SolidWorks 2025',
    '' );
FILE_SCHEMA (( 'AUTOMOTIVE_DESIGN' ));
ENDSEC;

DATA;
#1 = ADVANCED_FACE ( 'NONE', ( #241 ), #91, .F. ) ;
#2 = CARTESIAN_POINT ( 'NONE',  ( -185.5008620689600036, 157.3968620689599902, 30.92596337482259372 ) ) ;
#3 = CARTESIAN_POINT ( 'NONE',  ( -185.5008620689600036, 157.3968620689599902, -1.591439540000000097 ) ) ;
#4 = VERTEX_POINT ( 'NONE', #287 ) ;
#5 = DIRECTION ( 'NONE',  ( 0.000000000000000000, 0.000000000000000000, -1.000000000000000000 ) ) ;
#6 = AXIS2_PLACEMENT_3D ( 'NONE', #564, #156, #388 ) ;
#7 = DIRECTION ( 'NONE',  ( -1.000000000000000000, 0.000000000000000000, 0.000000000000000000 ) ) ;
#8 = FILL_AREA_STYLE_COLOUR ( '', #349 ) ;
#9 = VERTEX_POINT ( 'NONE', #455 ) ;
#10 = CARTESIAN_POINT ( 'NONE',  ( -180.5000000000000000, 152.3959999999999866, 6.000000000000000000 ) ) ;
#11 = CARTESIAN_POINT ( 'NONE',  ( -196.9999999829333888, 157.3957228722787818, -1.591439540000000097 ) ) ;
#12 = FACE_OUTER_BOUND ( 'NONE', #104, .T. ) ;
#13 = LINE ( 'NONE', #20, #370 ) ;
#14 = VECTOR ( 'NONE', #583, 1000.000000000000000 ) ;
#15 = CYLINDRICAL_SURFACE ( 'NONE', #162, 6.999137984129600198 ) ;
#16 = ORIENTED_EDGE ( 'NONE', *, *, #130, .F. ) ;
#17 = CARTESIAN_POINT ( 'NONE',  ( -180.5000000000000000, 164.3959999999999866, -1.591439540000000097 ) ) ;
#18 = EDGE_CURVE ( 'NONE', #285, #113, #498, .T. ) ;
#19 = DIRECTION ( 'NONE',  ( 3.413514373950748567E-09, 1.000000000000000000, -0.000000000000000000 ) ) ;
#20 = CARTESIAN_POINT ( 'NONE',  ( -196.9999999829333888, 157.3957228722787818, -1.591439540000000097 ) ) ;
#21 = CARTESIAN_POINT ( 'NONE',  ( -180.5000000000000000, 168.8959999999999866, -1.591439540000000097 ) ) ;
#22 = CIRCLE ( 'NONE', #484, 11.49913797040236219 ) ;
#23 = CARTESIAN_POINT ( 'NONE',  ( -180.5000000000000000, 164.3959999999999866, 7.591439539999744746 ) ) ;
#24 = ORIENTED_EDGE ( 'NONE', *, *, #326, .F. ) ;
#25 = EDGE_LOOP ( 'NONE', ( #595, #30, #377, #405 ) ) ;
#26 = DIRECTION ( 'NONE',  ( 0.000000000000000000, 0.000000000000000000, 1.000000000000000000 ) ) ;
#27 = DIRECTION ( 'NONE',  ( -1.000000000000000000, -0.000000000000000000, -0.000000000000000000 ) ) ;
#28 = VERTEX_POINT ( 'NONE', #316 ) ;
#29 = DIRECTION ( 'NONE',  ( 0.000000000000000000, 0.000000000000000000, -1.000000000000000000 ) ) ;
#30 = ORIENTED_EDGE ( 'NONE', *, *, #312, .F. ) ;
#31 = ORIENTED_EDGE ( 'NONE', *, *, #426, .T. ) ;
#32 = CIRCLE ( 'NONE', #128, 11.49913797040236219 ) ;
#33 = AXIS2_PLACEMENT_3D ( 'NONE', #404, #182, #238 ) ;
#34 = PLANE ( 'NONE',  #170 ) ;
#35 = ORIENTED_EDGE ( 'NONE', *, *, #269, .F. ) ;
#36 = EDGE_CURVE ( 'NONE', #532, #218, #142, .T. ) ;
#37 = DIRECTION ( 'NONE',  ( 1.000000000000000000, 0.000000000000000000, 0.000000000000000000 ) ) ;
#38 = ORIENTED_EDGE ( 'NONE', *, *, #288, .F. ) ;
#39 = FACE_OUTER_BOUND ( 'NONE', #179, .T. ) ;
#40 = EDGE_CURVE ( 'NONE', #248, #542, #506, .T. ) ;
#41 = ORIENTED_EDGE ( 'NONE', *, *, #159, .F. ) ;
#42 = ADVANCED_BREP_SHAPE_REPRESENTATION ( 'util1', ( #93, #181 ), #322 ) ;
#43 = DIRECTION ( 'NONE',  ( -1.000000000000000000, 0.000000000000000000, 0.000000000000000000 ) ) ;
#44 = VECTOR ( 'NONE', #126, 1000.000000000000000 ) ;
#45 = EDGE_CURVE ( 'NONE', #225, #456, #282, .T. ) ;
#46 = CARTESIAN_POINT ( 'NONE',  ( -192.5000000000000000, 157.3960000000000150, 30.92596337482259372 ) ) ;
#47 = ORIENTED_EDGE ( 'NONE', *, *, #256, .F. ) ;
#48 = LINE ( 'NONE', #463, #308 ) ;
#49 = CARTESIAN_POINT ( 'NONE',  ( -192.5000000000000000, 152.3959999999999866, 30.92596337482259372 ) ) ;
#50 = ORIENTED_EDGE ( 'NONE', *, *, #82, .F. ) ;
#51 = ORIENTED_EDGE ( 'NONE', *, *, #45, .T. ) ;
#52 = FACE_OUTER_BOUND ( 'NONE', #283, .T. ) ;
#53 = ORIENTED_EDGE ( 'NONE', *, *, #306, .T. ) ;
#54 = EDGE_CURVE ( 'NONE', #510, #9, #273, .T. ) ;
#55 = CARTESIAN_POINT ( 'NONE',  ( -185.5008620689600036, 157.3968620689599902, 30.92596337482259372 ) ) ;
#56 =( GEOMETRIC_REPRESENTATION_CONTEXT ( 3 ) GLOBAL_UNCERTAINTY_ASSIGNED_CONTEXT ( ( #183 ) ) GLOBAL_UNIT_ASSIGNED_CONTEXT ( ( #155, #572, #329 ) ) REPRESENTATION_CONTEXT ( 'NONE', 'WORKASPACE' ) );
#57 = CARTESIAN_POINT ( 'NONE',  ( -185.5008620689600036, 157.3968620689599902, 30.92596337482259372 ) ) ;
#58 = VECTOR ( 'NONE', #27, 1000.000000000000000 ) ;
#59 = CARTESIAN_POINT ( 'NONE',  ( -108.7500000000000000, 82.20116774635297929, 7.591439539999744746 ) ) ;
#60 = ORIENTED_EDGE ( 'NONE', *, *, #164, .T. ) ;
#61 = DIRECTION ( 'NONE',  ( 0.000000000000000000, 0.000000000000000000, -1.000000000000000000 ) ) ;
#62 = DIRECTION ( 'NONE',  ( -1.000000000000000000, 0.000000000000000000, 0.000000000000000000 ) ) ;
#63 = ORIENTED_EDGE ( 'NONE', *, *, #36, .F. ) ;
#64 = ORIENTED_EDGE ( 'NONE', *, *, #154, .T. ) ;
#65 = DIRECTION ( 'NONE',  ( 0.000000000000000000, 0.000000000000000000, 1.000000000000000000 ) ) ;
#66 = LINE ( 'NONE', #435, #358 ) ;
#67 = EDGE_CURVE ( 'NONE', #4, #592, #92, .T. ) ;
#68 = CIRCLE ( 'NONE', #372, 6.999137984129600198 ) ;
#69 = CARTESIAN_POINT ( 'NONE',  ( -180.5000000000000000, 164.3959999999999866, 30.92596337482259372 ) ) ;
#70 = CARTESIAN_POINT ( 'NONE',  ( -192.5000000000000000, 157.3960000000000150, 7.591439539999744746 ) ) ;
#71 = ORIENTED_EDGE ( 'NONE', *, *, #134, .T. ) ;
#72 = ADVANCED_FACE ( 'NONE', ( #415 ), #466, .T. ) ;
#73 = PLANE ( 'NONE',  #214 ) ;
#74 = EDGE_CURVE ( 'NONE', #315, #592, #278, .T. ) ;
#75 = LINE ( 'NONE', #166, #44 ) ;
#76 = VECTOR ( 'NONE', #430, 1000.000000000000000 ) ;
#77 = CARTESIAN_POINT ( 'NONE',  ( -192.5000000000000000, 157.3959999999999866, 0.000000000000000000 ) ) ;
#78 = VERTEX_POINT ( 'NONE', #236 ) ;
#79 = DIRECTION ( 'NONE',  ( 0.000000000000000000, 0.000000000000000000, -1.000000000000000000 ) ) ;
#80 = CARTESIAN_POINT ( 'NONE',  ( -192.5000000530895932, 157.3968620689599902, 30.92596337482259372 ) ) ;
#81 = VERTEX_POINT ( 'NONE', #413 ) ;
#82 = EDGE_CURVE ( 'NONE', #248, #335, #594, .T. ) ;
#83 = VECTOR ( 'NONE', #19, 1000.000000000000000 ) ;
#84 = CARTESIAN_POINT ( 'NONE',  ( -192.5000000000000000, 152.3959999999999866, 30.92596337482259372 ) ) ;
#85 = EDGE_CURVE ( 'NONE', #431, #78, #543, .T. ) ;
#86 = ORIENTED_EDGE ( 'NONE', *, *, #495, .T. ) ;
#87 = DIRECTION ( 'NONE',  ( 1.000000000000000000, 0.000000000000000000, 0.000000000000000000 ) ) ;
#88 = DIRECTION ( 'NONE',  ( 1.000000000000000000, -0.000000000000000000, -0.000000000000000000 ) ) ;
#89 = VERTEX_POINT ( 'NONE', #334 ) ;
#90 = CARTESIAN_POINT ( 'NONE',  ( -192.5000000530895932, 157.3968620689599902, 0.000000000000000000 ) ) ;
#91 = PLANE ( 'NONE',  #161 ) ;
#92 = CIRCLE ( 'NONE', #127, 6.999137984129600198 ) ;
#93 = MANIFOLD_SOLID_BREP ( '\X2\51f853f0\X0\-\X2\62c94f38\X0\2', #418 ) ;
#94 = CARTESIAN_POINT ( 'NONE',  ( -185.5008620689600036, 157.3968620689599902, 7.591439539999744746 ) ) ;
#95 = AXIS2_PLACEMENT_3D ( 'NONE', #124, #219, #163 ) ;
#96 = DIRECTION ( 'NONE',  ( -1.000000000000000000, 0.000000000000000000, 0.000000000000000000 ) ) ;
#97 = ORIENTED_EDGE ( 'NONE', *, *, #159, .T. ) ;
#98 = DIRECTION ( 'NONE',  ( 0.000000000000000000, 0.000000000000000000, -1.000000000000000000 ) ) ;
#99 = CARTESIAN_POINT ( 'NONE',  ( -180.5000000000000000, 164.3959999999999866, 7.591439539999744746 ) ) ;
#100 = ORIENTED_EDGE ( 'NONE', *, *, #147, .F. ) ;
#101 = CARTESIAN_POINT ( 'NONE',  ( -197.0000000000000000, 152.3959999999999866, -1.591439540000000097 ) ) ;
#102 = ORIENTED_EDGE ( 'NONE', *, *, #469, .T. ) ;
#103 = DIRECTION ( 'NONE',  ( -1.000000000000000000, 0.000000000000000000, 0.000000000000000000 ) ) ;
#104 = EDGE_LOOP ( 'NONE', ( #301, #35, #109, #122, #379, #440 ) ) ;
#105 = CARTESIAN_POINT ( 'NONE',  ( -180.5000000000000000, 168.8959999999999866, 7.591439539999744746 ) ) ;
#106 = VECTOR ( 'NONE', #208, 1000.000000000000000 ) ;
#107 = ADVANCED_FACE ( 'NONE', ( #474 ), #251, .T. ) ;
#108 = PLANE ( 'NONE',  #574 ) ;
#109 = ORIENTED_EDGE ( 'NONE', *, *, #221, .F. ) ;
#110 = CARTESIAN_POINT ( 'NONE',  ( -180.5000000000000000, 168.8959999999999866, -1.591439540000000097 ) ) ;
#111 = LINE ( 'NONE', #197, #83 ) ;
#112 = EDGE_CURVE ( 'NONE', #315, #225, #114, .T. ) ;
#113 = VERTEX_POINT ( 'NONE', #246 ) ;
#114 = LINE ( 'NONE', #295, #135 ) ;
#115 = FACE_OUTER_BOUND ( 'NONE', #448, .T. ) ;
#116 = ORIENTED_EDGE ( 'NONE', *, *, #171, .T. ) ;
#117 = VECTOR ( 'NONE', #96, 1000.000000000000000 ) ;
#118 = CIRCLE ( 'NONE', #259, 6.999137984129600198 ) ;
#119 = VERTEX_POINT ( 'NONE', #339 ) ;
#120 = PRODUCT_DEFINITION_FORMATION_WITH_SPECIFIED_SOURCE ( 'ไป', '', #487, .NOT_KNOWN. ) ;
#121 = DIRECTION ( 'NONE',  ( 0.000000000000000000, -1.000000000000000000, 0.000000000000000000 ) ) ;
#122 = ORIENTED_EDGE ( 'NONE', *, *, #217, .F. ) ;
#123 = PRODUCT_CONTEXT ( 'NONE', #386, 'mechanical' ) ;
#124 = CARTESIAN_POINT ( 'NONE',  ( -180.5000000000000000, 164.3959999999999866, 6.000000000000000000 ) ) ;
#125 = ORIENTED_EDGE ( 'NONE', *, *, #525, .F. ) ;
#126 = DIRECTION ( 'NONE',  ( -0.000000000000000000, -1.000000000000000000, -0.000000000000000000 ) ) ;
#127 = AXIS2_PLACEMENT_3D ( 'NONE', #3, #590, #103 ) ;
#128 = AXIS2_PLACEMENT_3D ( 'NONE', #94, #317, #365 ) ;
#129 = DIRECTION ( 'NONE',  ( -1.000000000000000000, 0.000000000000000000, 0.000000000000000000 ) ) ;
#130 = EDGE_CURVE ( 'NONE', #28, #4, #432, .T. ) ;
#131 = LINE ( 'NONE', #344, #350 ) ;
#132 = DIRECTION ( 'NONE',  ( -0.000000000000000000, 1.000000000000000000, -0.000000000000000000 ) ) ;
#133 = ORIENTED_EDGE ( 'NONE', *, *, #40, .T. ) ;
#134 = EDGE_CURVE ( 'NONE', #538, #173, #518, .T. ) ;
#135 = VECTOR ( 'NONE', #199, 1000.000000000000000 ) ;
#136 = LINE ( 'NONE', #373, #206 ) ;
#137 = DIRECTION ( 'NONE',  ( 0.000000000000000000, 1.000000000000000000, -0.000000000000000000 ) ) ;
#138 = DIRECTION ( 'NONE',  ( 0.000000000000000000, 0.000000000000000000, 1.000000000000000000 ) ) ;
#139 = CARTESIAN_POINT ( 'NONE',  ( -180.5000000000000000, 152.3959999999999866, 6.000000000000000000 ) ) ;
#140 = VERTEX_POINT ( 'NONE', #11 ) ;
#141 = DIRECTION ( 'NONE',  ( 0.000000000000000000, 0.000000000000000000, 1.000000000000000000 ) ) ;
#142 = LINE ( 'NONE', #375, #409 ) ;
#143 = DIRECTION ( 'NONE',  ( 0.000000000000000000, 0.000000000000000000, -1.000000000000000000 ) ) ;
#144 = AXIS2_PLACEMENT_3D ( 'NONE', #59, #390, #247 ) ;
#145 = CARTESIAN_POINT ( 'NONE',  ( -185.5008620689600036, 157.3968620689599618, 6.000000000000000000 ) ) ;
#146 = CARTESIAN_POINT ( 'NONE',  ( -192.5000000000000000, 157.3960000000000150, -1.591439540000000097 ) ) ;
#147 = EDGE_CURVE ( 'NONE', #140, #173, #213, .T. ) ;
#148 = CARTESIAN_POINT ( 'NONE',  ( -180.5000000000000000, 164.3959999999999866, 30.92596337482259372 ) ) ;
#149 = PLANE ( 'NONE',  #253 ) ;
#150 = EDGE_CURVE ( 'NONE', #579, #431, #66, .T. ) ;
#151 = DIRECTION ( 'NONE',  ( -0.000000000000000000, -1.000000000000000000, 0.000000000000000000 ) ) ;
#152 = LINE ( 'NONE', #110, #360 ) ;
#153 = VECTOR ( 'NONE', #320, 1000.000000000000000 ) ;
#154 = EDGE_CURVE ( 'NONE', #9, #28, #516, .T. ) ;
#155 =( LENGTH_UNIT ( ) NAMED_UNIT ( * ) SI_UNIT ( .MILLI., .METRE. ) );
#156 = DIRECTION ( 'NONE',  ( 0.000000000000000000, 0.000000000000000000, 1.000000000000000000 ) ) ;
#157 = ORIENTED_EDGE ( 'NONE', *, *, #513, .T. ) ;
#158 = SURFACE_STYLE_USAGE ( .BOTH. , #293 ) ;
#159 = EDGE_CURVE ( 'NONE', #557, #218, #152, .T. ) ;
#160 = CARTESIAN_POINT ( 'NONE',  ( -192.5000000000000000, 157.3960000000000150, 30.92596337482259372 ) ) ;
#161 = AXIS2_PLACEMENT_3D ( 'NONE', #139, #137, #586 ) ;
#162 = AXIS2_PLACEMENT_3D ( 'NONE', #55, #286, #7 ) ;
#163 = DIRECTION ( 'NONE',  ( 0.000000000000000000, 0.000000000000000000, 1.000000000000000000 ) ) ;
#164 = EDGE_CURVE ( 'NONE', #175, #78, #423, .T. ) ;
#165 = SHAPE_DEFINITION_REPRESENTATION ( #304, #42 ) ;
#166 = CARTESIAN_POINT ( 'NONE',  ( -180.5000000000000000, 164.3959999999999866, -1.591439540000000097 ) ) ;
#167 = ORIENTED_EDGE ( 'NONE', *, *, #421, .F. ) ;
#168 = ORIENTED_EDGE ( 'NONE', *, *, #359, .F. ) ;
#169 = FACE_OUTER_BOUND ( 'NONE', #351, .T. ) ;
#170 = AXIS2_PLACEMENT_3D ( 'NONE', #224, #403, #584 ) ;
#171 = EDGE_CURVE ( 'NONE', #567, #140, #13, .T. ) ;
#172 = LINE ( 'NONE', #352, #477 ) ;
#173 = VERTEX_POINT ( 'NONE', #389 ) ;
#174 = LINE ( 'NONE', #439, #14 ) ;
#175 = VERTEX_POINT ( 'NONE', #70 ) ;
#176 = DIRECTION ( 'NONE',  ( -1.000000000000000000, 0.000000000000000000, 0.000000000000000000 ) ) ;
#177 = EDGE_CURVE ( 'NONE', #175, #346, #391, .T. ) ;
#178 = ORIENTED_EDGE ( 'NONE', *, *, #74, .F. ) ;
#179 = EDGE_LOOP ( 'NONE', ( #275, #561, #462, #38 ) ) ;
#180 = VECTOR ( 'NONE', #121, 1000.000000000000000 ) ;
#181 = AXIS2_PLACEMENT_3D ( 'NONE', #265, #26, #444 ) ;
#182 = DIRECTION ( 'NONE',  ( 1.000000000000000000, 0.000000000000000000, 0.000000000000000000 ) ) ;
#183 = UNCERTAINTY_MEASURE_WITH_UNIT (LENGTH_MEASURE( 1.000000000000000082E-05 ), #155, 'distance_accuracy_value', 'NONE');
#184 = CARTESIAN_POINT ( 'NONE',  ( -185.5008620689600036, 157.3968620689599618, 6.000000000000000000 ) ) ;
#185 = CARTESIAN_POINT ( 'NONE',  ( -192.5000000000000000, 152.3959999999999866, 7.591439539999744746 ) ) ;
#186 = EDGE_LOOP ( 'NONE', ( #167, #417, #53, #230 ) ) ;
#187 = ORIENTED_EDGE ( 'NONE', *, *, #343, .F. ) ;
#188 = DIRECTION ( 'NONE',  ( -1.000000000000000000, -0.000000000000000000, -0.000000000000000000 ) ) ;
#189 = DIRECTION ( 'NONE',  ( 1.000000000000000000, 0.000000000000000000, -0.000000000000000000 ) ) ;
#190 = EDGE_LOOP ( 'NONE', ( #195, #198, #50, #133 ) ) ;
#191 = VECTOR ( 'NONE', #232, 1000.000000000000000 ) ;
#192 = EDGE_CURVE ( 'NONE', #245, #557, #307, .T. ) ;
#193 = AXIS2_PLACEMENT_3D ( 'NONE', #244, #65, #200 ) ;
#194 = CARTESIAN_POINT ( 'NONE',  ( -180.5000000000000000, 152.3959999999999866, 0.000000000000000000 ) ) ;
#195 = ORIENTED_EDGE ( 'NONE', *, *, #359, .T. ) ;
#196 = ORIENTED_EDGE ( 'NONE', *, *, #306, .F. ) ;
#197 = CARTESIAN_POINT ( 'NONE',  ( -196.9999999829333888, 157.3957228722787818, 7.591439539999744746 ) ) ;
#198 = ORIENTED_EDGE ( 'NONE', *, *, #426, .F. ) ;
#199 = DIRECTION ( 'NONE',  ( -0.000000000000000000, -1.000000000000000000, -0.000000000000000000 ) ) ;
#200 = DIRECTION ( 'NONE',  ( 1.000000000000000000, 0.000000000000000000, 0.000000000000000000 ) ) ;
#201 = DIRECTION ( 'NONE',  ( -0.000000000000000000, -0.000000000000000000, 1.000000000000000000 ) ) ;
#202 = EDGE_LOOP ( 'NONE', ( #355, #64, #270, #402, #425, #102, #116, #336, #381, #97 ) ) ;
#203 = PLANE ( 'NONE',  #393 ) ;
#204 = UNCERTAINTY_MEASURE_WITH_UNIT (LENGTH_MEASURE( 1.000000000000000082E-05 ), #294, 'distance_accuracy_value', 'NONE');
#205 = DIRECTION ( 'NONE',  ( 3.413514373950748981E-09, 1.000000000000000000, -0.000000000000000000 ) ) ;
#206 = VECTOR ( 'NONE', #188, 1000.000000000000000 ) ;
#207 = ORIENTED_EDGE ( 'NONE', *, *, #387, .T. ) ;
#208 = DIRECTION ( 'NONE',  ( -1.000000000000000000, 0.000000000000000000, 0.000000000000000000 ) ) ;
#209 = CARTESIAN_POINT ( 'NONE',  ( -185.5008620689600036, 157.3968620689599618, 0.000000000000000000 ) ) ;
#210 = CARTESIAN_POINT ( 'NONE',  ( -197.0000000393623623, 157.3968620689599902, 30.92596337482259372 ) ) ;
#211 = PRODUCT_RELATED_PRODUCT_CATEGORY ( 'part', '', ( #487 ) ) ;
#212 = LINE ( 'NONE', #398, #58 ) ;
#213 = CIRCLE ( 'NONE', #290, 11.49913797040236219 ) ;
#214 = AXIS2_PLACEMENT_3D ( 'NONE', #534, #536, #445 ) ;
#215 = ORIENTED_EDGE ( 'NONE', *, *, #192, .F. ) ;
#216 = PLANE ( 'NONE',  #95 ) ;
#217 = EDGE_CURVE ( 'NONE', #225, #408, #174, .T. ) ;
#218 = VERTEX_POINT ( 'NONE', #21 ) ;
#219 = DIRECTION ( 'NONE',  ( -1.000000000000000000, 0.000000000000000000, 0.000000000000000000 ) ) ;
#220 = ORIENTED_EDGE ( 'NONE', *, *, #353, .T. ) ;
#221 = EDGE_CURVE ( 'NONE', #408, #510, #131, .T. ) ;
#222 = DIRECTION ( 'NONE',  ( -1.000000000000000000, 0.000000000000000000, 0.000000000000000000 ) ) ;
#223 = VECTOR ( 'NONE', #258, 1000.000000000000000 ) ;
#224 = CARTESIAN_POINT ( 'NONE',  ( -196.9999999829333888, 157.3957228722787818, 30.92596337482259372 ) ) ;
#225 = VERTEX_POINT ( 'NONE', #400 ) ;
#226 = ORIENTED_EDGE ( 'NONE', *, *, #559, .F. ) ;
#227 = DIRECTION ( 'NONE',  ( 0.000000000000000000, 0.000000000000000000, -1.000000000000000000 ) ) ;
#228 = PRODUCT_DEFINITION_CONTEXT ( 'detailed design', #340, 'design' ) ;
#229 = ORIENTED_EDGE ( 'NONE', *, *, #298, .F. ) ;
#230 = ORIENTED_EDGE ( 'NONE', *, *, #171, .F. ) ;
#231 = CARTESIAN_POINT ( 'NONE',  ( -185.5000000000000000, 164.3959999999999866, 30.92596337482259372 ) ) ;
#232 = DIRECTION ( 'NONE',  ( 0.000000000000000000, 0.000000000000000000, -1.000000000000000000 ) ) ;
#233 = ORIENTED_EDGE ( 'NONE', *, *, #150, .F. ) ;
#234 = AXIS2_PLACEMENT_3D ( 'NONE', #548, #499, #502 ) ;
#235 = DIRECTION ( 'NONE',  ( 0.000000000000000000, 0.000000000000000000, -1.000000000000000000 ) ) ;
#236 = CARTESIAN_POINT ( 'NONE',  ( -192.5000000000000000, 157.3959999999999866, 6.000000000000000000 ) ) ;
#237 = EDGE_LOOP ( 'NONE', ( #376, #514, #519, #527 ) ) ;
#238 = DIRECTION ( 'NONE',  ( 0.000000000000000000, 0.000000000000000000, -1.000000000000000000 ) ) ;
#239 = ADVANCED_FACE ( 'NONE', ( #169 ), #539, .F. ) ;
#240 = CYLINDRICAL_SURFACE ( 'NONE', #468, 6.999137984129600198 ) ;
#241 = FACE_OUTER_BOUND ( 'NONE', #397, .T. ) ;
#242 = STYLED_ITEM ( 'NONE', ( #437 ), #93 ) ;
#243 = AXIS2_PLACEMENT_3D ( 'NONE', #323, #504, #412 ) ;
#244 = CARTESIAN_POINT ( 'NONE',  ( -185.5008620689600036, 157.3968620689599618, 0.000000000000000000 ) ) ;
#245 = VERTEX_POINT ( 'NONE', #266 ) ;
#246 = CARTESIAN_POINT ( 'NONE',  ( -180.5000000000000000, 152.3959999999999866, 6.000000000000000000 ) ) ;
#247 = DIRECTION ( 'NONE',  ( 0.000000000000000000, -1.000000000000000000, 0.000000000000000000 ) ) ;
#248 = VERTEX_POINT ( 'NONE', #23 ) ;
#249 = CARTESIAN_POINT ( 'NONE',  ( -185.5008620689600036, 157.3968620689599902, -1.591439540000000097 ) ) ;
#250 = FACE_OUTER_BOUND ( 'NONE', #578, .T. ) ;
#251 = CYLINDRICAL_SURFACE ( 'NONE', #483, 11.49913797040236219 ) ;
#252 = CARTESIAN_POINT ( 'NONE',  ( -180.5000000000000000, 164.3959999999999866, 0.000000000000000000 ) ) ;
#253 = AXIS2_PLACEMENT_3D ( 'NONE', #69, #328, #291 ) ;
#254 = DIRECTION ( 'NONE',  ( 0.000000000000000000, 0.000000000000000000, -1.000000000000000000 ) ) ;
#255 = CARTESIAN_POINT ( 'NONE',  ( -185.5008620689600036, 157.3968620689599902, -1.591439540000000097 ) ) ;
#256 = EDGE_CURVE ( 'NONE', #113, #335, #172, .T. ) ;
#257 = DIRECTION ( 'NONE',  ( 0.000000000000000000, 0.000000000000000000, -1.000000000000000000 ) ) ;
#258 = DIRECTION ( 'NONE',  ( 0.000000000000000000, -1.000000000000000000, 0.000000000000000000 ) ) ;
#259 = AXIS2_PLACEMENT_3D ( 'NONE', #314, #141, #497 ) ;
#260 = ORIENTED_EDGE ( 'NONE', *, *, #531, .F. ) ;
#261 = ADVANCED_FACE ( 'NONE', ( #529 ), #73, .T. ) ;
#262 = LINE ( 'NONE', #80, #556 ) ;
#263 = ORIENTED_EDGE ( 'NONE', *, *, #256, .T. ) ;
#264 = ORIENTED_EDGE ( 'NONE', *, *, #312, .T. ) ;
#265 = CARTESIAN_POINT ( 'NONE',  ( 0.000000000000000000, 0.000000000000000000, 0.000000000000000000 ) ) ;
#266 = CARTESIAN_POINT ( 'NONE',  ( -185.4997228722787952, 168.8959999829333753, 7.591439539999744746 ) ) ;
#267 = DIRECTION ( 'NONE',  ( 0.000000000000000000, 0.000000000000000000, -1.000000000000000000 ) ) ;
#268 = CIRCLE ( 'NONE', #6, 6.999137984129600198 ) ;
#269 = EDGE_CURVE ( 'NONE', #510, #89, #212, .T. ) ;
#270 = ORIENTED_EDGE ( 'NONE', *, *, #130, .T. ) ;
#271 = CARTESIAN_POINT ( 'NONE',  ( -185.5008620689600036, 157.3968620689599902, 7.591439539999744746 ) ) ;
#272 = FACE_OUTER_BOUND ( 'NONE', #25, .T. ) ;
#273 = LINE ( 'NONE', #148, #521 ) ;
#274 = ORIENTED_EDGE ( 'NONE', *, *, #177, .F. ) ;
#275 = ORIENTED_EDGE ( 'NONE', *, *, #134, .F. ) ;
#276 = LINE ( 'NONE', #453, #494 ) ;
#277 = ADVANCED_FACE ( 'NONE', ( #394 ), #216, .F. ) ;
#278 = LINE ( 'NONE', #46, #297 ) ;
#279 = VECTOR ( 'NONE', #79, 1000.000000000000000 ) ;
#280 = FACE_OUTER_BOUND ( 'NONE', #551, .T. ) ;
#281 = ADVANCED_FACE ( 'NONE', ( #310 ), #526, .F. ) ;
#282 = LINE ( 'NONE', #49, #191 ) ;
#283 = EDGE_LOOP ( 'NONE', ( #220, #475, #260, #168 ) ) ;
#284 = LINE ( 'NONE', #454, #153 ) ;
#285 = VERTEX_POINT ( 'NONE', #482 ) ;
#286 = DIRECTION ( 'NONE',  ( 0.000000000000000000, 0.000000000000000000, -1.000000000000000000 ) ) ;
#287 = CARTESIAN_POINT ( 'NONE',  ( -192.5000000530895932, 157.3968620689599902, -1.591439540000000097 ) ) ;
#288 = EDGE_CURVE ( 'NONE', #173, #557, #331, .T. ) ;
#289 = ORIENTED_EDGE ( 'NONE', *, *, #387, .F. ) ;
#290 = AXIS2_PLACEMENT_3D ( 'NONE', #255, #427, #565 ) ;
#291 = DIRECTION ( 'NONE',  ( 0.000000000000000000, 0.000000000000000000, -1.000000000000000000 ) ) ;
#292 = DIRECTION ( 'NONE',  ( -3.413514373950767593E-09, 1.000000000000000000, 0.000000000000000000 ) ) ;
#293 = SURFACE_SIDE_STYLE ('',( #511 ) ) ;
#294 =( LENGTH_UNIT ( ) NAMED_UNIT ( * ) SI_UNIT ( .MILLI., .METRE. ) );
#295 = CARTESIAN_POINT ( 'NONE',  ( -192.5000000000000000, 152.3959999999999866, 0.000000000000000000 ) ) ;
#296 = DIRECTION ( 'NONE',  ( 1.000000000000000000, 0.000000000000000000, -0.000000000000000000 ) ) ;
#297 = VECTOR ( 'NONE', #368, 1000.000000000000000 ) ;
#298 = EDGE_CURVE ( 'NONE', #218, #9, #75, .T. ) ;
#299 = ORIENTED_EDGE ( 'NONE', *, *, #302, .F. ) ;
#300 = DIRECTION ( 'NONE',  ( 0.000000000000000000, 0.000000000000000000, -1.000000000000000000 ) ) ;
#301 = ORIENTED_EDGE ( 'NONE', *, *, #464, .F. ) ;
#302 = EDGE_CURVE ( 'NONE', #592, #456, #490, .T. ) ;
#303 = CARTESIAN_POINT ( 'NONE',  ( -185.5008620689600036, 157.3968620689599902, 30.92596337482259372 ) ) ;
#304 = PRODUCT_DEFINITION_SHAPE ( 'NONE', 'NONE',  #552 ) ;
#305 = ORIENTED_EDGE ( 'NONE', *, *, #54, .T. ) ;
#306 = EDGE_CURVE ( 'NONE', #546, #140, #345, .T. ) ;
#307 = LINE ( 'NONE', #442, #566 ) ;
#308 = VECTOR ( 'NONE', #43, 1000.000000000000000 ) ;
#309 = CARTESIAN_POINT ( 'NONE',  ( -185.5008620689600036, 157.3968620689599902, -1.591439540000000097 ) ) ;
#310 = FACE_OUTER_BOUND ( 'NONE', #501, .T. ) ;
#311 = CARTESIAN_POINT ( 'NONE',  ( -180.5000000000000000, 164.3959999999999866, 6.000000000000000000 ) ) ;
#312 = EDGE_CURVE ( 'NONE', #78, #285, #354, .T. ) ;
#313 = CIRCLE ( 'NONE', #193, 6.999137984129600198 ) ;
#314 = CARTESIAN_POINT ( 'NONE',  ( -185.5008620689600036, 157.3968620689599618, 0.000000000000000000 ) ) ;
#315 = VERTEX_POINT ( 'NONE', #77 ) ;
#316 = CARTESIAN_POINT ( 'NONE',  ( -185.5000000000000000, 164.3959999999999866, -1.591439540000000097 ) ) ;
#317 = DIRECTION ( 'NONE',  ( -0.000000000000000000, -0.000000000000000000, -1.000000000000000000 ) ) ;
#318 = DIRECTION ( 'NONE',  ( 0.000000000000000000, 0.000000000000000000, 1.000000000000000000 ) ) ;
#319 = ORIENTED_EDGE ( 'NONE', *, *, #571, .F. ) ;
#320 = DIRECTION ( 'NONE',  ( -1.000000000000000000, -0.000000000000000000, -0.000000000000000000 ) ) ;
#321 = VECTOR ( 'NONE', #515, 1000.000000000000000 ) ;
#322 =( GEOMETRIC_REPRESENTATION_CONTEXT ( 3 ) GLOBAL_UNCERTAINTY_ASSIGNED_CONTEXT ( ( #204 ) ) GLOBAL_UNIT_ASSIGNED_CONTEXT ( ( #294, #568, #520 ) ) REPRESENTATION_CONTEXT ( 'NONE', 'WORKASPACE' ) );
#323 = CARTESIAN_POINT ( 'NONE',  ( -185.5008620689600036, 157.3968620689599902, 7.591439539999744746 ) ) ;
#324 = CARTESIAN_POINT ( 'NONE',  ( -180.5000000000000000, 152.3959999999999866, 6.000000000000000000 ) ) ;
#325 = CARTESIAN_POINT ( 'NONE',  ( -185.5008620689600036, 157.3968620689599902, 30.92596337482259372 ) ) ;
#326 = EDGE_CURVE ( 'NONE', #496, #4, #262, .T. ) ;
#327 = ORIENTED_EDGE ( 'NONE', *, *, #528, .F. ) ;
#328 = DIRECTION ( 'NONE',  ( 0.000000000000000000, -1.000000000000000000, -0.000000000000000000 ) ) ;
#329 =( NAMED_UNIT ( * ) SI_UNIT ( $, .STERADIAN. ) SOLID_ANGLE_UNIT ( ) );
#330 = ADVANCED_FACE ( 'NONE', ( #450 ), #34, .T. ) ;
#331 = CIRCLE ( 'NONE', #410, 11.49913797040236219 ) ;
#332 = CARTESIAN_POINT ( 'NONE',  ( -185.4997228722787952, 168.8959999829333753, -1.591439540000000097 ) ) ;
#333 = ORIENTED_EDGE ( 'NONE', *, *, #36, .T. ) ;
#334 = CARTESIAN_POINT ( 'NONE',  ( -185.5000000000000000, 164.3959999999999866, 0.000000000000000000 ) ) ;
#335 = VERTEX_POINT ( 'NONE', #311 ) ;
#336 = ORIENTED_EDGE ( 'NONE', *, *, #147, .T. ) ;
#337 = ADVANCED_FACE ( 'NONE', ( #272 ), #585, .T. ) ;
#338 = ORIENTED_EDGE ( 'NONE', *, *, #384, .T. ) ;
#339 = CARTESIAN_POINT ( 'NONE',  ( -185.5000000000000000, 164.3959999999999866, 6.000000000000000000 ) ) ;
#340 = APPLICATION_CONTEXT ( 'automotive_design' ) ;
#341 = VECTOR ( 'NONE', #554, 1000.000000000000000 ) ;
#342 = DIRECTION ( 'NONE',  ( 1.000000000000000000, 0.000000000000000000, 0.000000000000000000 ) ) ;
#343 = EDGE_CURVE ( 'NONE', #346, #285, #493, .T. ) ;
#344 = CARTESIAN_POINT ( 'NONE',  ( -180.5000000000000000, 164.3959999999999866, 0.000000000000000000 ) ) ;
#345 = LINE ( 'NONE', #396, #279 ) ;
#346 = VERTEX_POINT ( 'NONE', #185 ) ;
#347 = ORIENTED_EDGE ( 'NONE', *, *, #384, .F. ) ;
#348 = CARTESIAN_POINT ( 'NONE',  ( -185.5008620689600036, 157.3968620689599902, 30.92596337482259372 ) ) ;
#349 = COLOUR_RGB ( '',1.000000000000000000, 1.000000000000000000, 1.000000000000000000 ) ;
#350 = VECTOR ( 'NONE', #132, 1000.000000000000000 ) ;
#351 = EDGE_LOOP ( 'NONE', ( #443, #361, #16, #535 ) ) ;
#352 = CARTESIAN_POINT ( 'NONE',  ( -180.5000000000000000, 164.3959999999999866, 6.000000000000000000 ) ) ;
#353 = EDGE_CURVE ( 'NONE', #542, #579, #68, .T. ) ;
#354 = LINE ( 'NONE', #577, #433 ) ;
#355 = ORIENTED_EDGE ( 'NONE', *, *, #298, .T. ) ;
#356 = DIRECTION ( 'NONE',  ( 0.000000000000000000, 0.000000000000000000, -1.000000000000000000 ) ) ;
#357 = ORIENTED_EDGE ( 'NONE', *, *, #18, .F. ) ;
#358 = VECTOR ( 'NONE', #383, 1000.000000000000000 ) ;
#359 = EDGE_CURVE ( 'NONE', #542, #119, #276, .T. ) ;
#360 = VECTOR ( 'NONE', #479, 1000.000000000000000 ) ;
#361 = ORIENTED_EDGE ( 'NONE', *, *, #326, .T. ) ;
#362 = CARTESIAN_POINT ( 'NONE',  ( -192.5000000530895932, 157.3968620689599902, 6.000000000000000000 ) ) ;
#363 = ORIENTED_EDGE ( 'NONE', *, *, #85, .F. ) ;
#364 = ORIENTED_EDGE ( 'NONE', *, *, #353, .F. ) ;
#365 = DIRECTION ( 'NONE',  ( 1.000000000000000000, 0.000000000000000000, 0.000000000000000000 ) ) ;
#366 = CARTESIAN_POINT ( 'NONE',  ( -180.5000000000000000, 164.3959999999999866, 30.92596337482259372 ) ) ;
#367 = DIRECTION ( 'NONE',  ( 0.000000000000000000, -1.000000000000000000, -0.000000000000000000 ) ) ;
#368 = DIRECTION ( 'NONE',  ( 0.000000000000000000, 0.000000000000000000, -1.000000000000000000 ) ) ;
#369 = ORIENTED_EDGE ( 'NONE', *, *, #67, .F. ) ;
#370 = VECTOR ( 'NONE', #205, 1000.000000000000000 ) ;
#371 = ORIENTED_EDGE ( 'NONE', *, *, #112, .T. ) ;
#372 = AXIS2_PLACEMENT_3D ( 'NONE', #271, #138, #37 ) ;
#373 = CARTESIAN_POINT ( 'NONE',  ( -185.5000000000000000, 164.3959999999999866, 6.000000000000000000 ) ) ;
#374 = EDGE_CURVE ( 'NONE', #89, #28, #414, .T. ) ;
#375 = CARTESIAN_POINT ( 'NONE',  ( -180.5000000000000000, 168.8959999999999866, 30.92596337482259372 ) ) ;
#376 = ORIENTED_EDGE ( 'NONE', *, *, #269, .T. ) ;
#377 = ORIENTED_EDGE ( 'NONE', *, *, #164, .F. ) ;
#378 = CARTESIAN_POINT ( 'NONE',  ( -185.5000000000000000, 164.3959999999999866, 7.591439539999744746 ) ) ;
#379 = ORIENTED_EDGE ( 'NONE', *, *, #112, .F. ) ;
#380 = DIRECTION ( 'NONE',  ( -1.000000000000000000, 0.000000000000000000, 0.000000000000000000 ) ) ;
#381 = ORIENTED_EDGE ( 'NONE', *, *, #288, .T. ) ;
#382 = CARTESIAN_POINT ( 'NONE',  ( -180.5000000000000000, 164.3959999999999866, 7.591439539999744746 ) ) ;
#383 = DIRECTION ( 'NONE',  ( 0.000000000000000000, 0.000000000000000000, -1.000000000000000000 ) ) ;
#384 = EDGE_CURVE ( 'NONE', #579, #175, #512, .T. ) ;
#385 = DIRECTION ( 'NONE',  ( 0.000000000000000000, 0.000000000000000000, 1.000000000000000000 ) ) ;
#386 = APPLICATION_CONTEXT ( 'automotive_design' ) ;
#387 = EDGE_CURVE ( 'NONE', #546, #538, #32, .T. ) ;
#388 = DIRECTION ( 'NONE',  ( 1.000000000000000000, 0.000000000000000000, 0.000000000000000000 ) ) ;
#389 = CARTESIAN_POINT ( 'NONE',  ( -197.0000000393623623, 157.3968620689599902, -1.591439540000000097 ) ) ;
#390 = DIRECTION ( 'NONE',  ( 0.000000000000000000, 0.000000000000000000, 1.000000000000000000 ) ) ;
#391 = LINE ( 'NONE', #524, #180 ) ;
#392 = PRESENTATION_LAYER_ASSIGNMENT (  '', '', ( #242 ) ) ;
#393 = AXIS2_PLACEMENT_3D ( 'NONE', #209, #385, #296 ) ;
#394 = FACE_OUTER_BOUND ( 'NONE', #420, .T. ) ;
#395 = ORIENTED_EDGE ( 'NONE', *, *, #421, .T. ) ;
#396 = CARTESIAN_POINT ( 'NONE',  ( -196.9999999829333888, 157.3957228722787818, 30.92596337482259372 ) ) ;
#397 = EDGE_LOOP ( 'NONE', ( #569, #319, #357, #187, #86, #395, #486, #530 ) ) ;
#398 = CARTESIAN_POINT ( 'NONE',  ( -185.5000000000000000, 164.3959999999999866, 0.000000000000000000 ) ) ;
#399 = ORIENTED_EDGE ( 'NONE', *, *, #447, .F. ) ;
#400 = CARTESIAN_POINT ( 'NONE',  ( -192.5000000000000000, 152.3959999999999866, 0.000000000000000000 ) ) ;
#401 = ADVANCED_FACE ( 'NONE', ( #461 ), #593, .T. ) ;
#402 = ORIENTED_EDGE ( 'NONE', *, *, #67, .T. ) ;
#403 = DIRECTION ( 'NONE',  ( -1.000000000000000000, 3.413514373950748567E-09, 0.000000000000000000 ) ) ;
#404 = CARTESIAN_POINT ( 'NONE',  ( -192.5000000000000000, 157.3960000000000150, 30.92596337482259372 ) ) ;
#405 = ORIENTED_EDGE ( 'NONE', *, *, #177, .T. ) ;
#406 = PLANE ( 'NONE',  #234 ) ;
#407 = ADVANCED_FACE ( 'NONE', ( #39 ), #550, .T. ) ;
#408 = VERTEX_POINT ( 'NONE', #194 ) ;
#409 = VECTOR ( 'NONE', #560, 1000.000000000000000 ) ;
#410 = AXIS2_PLACEMENT_3D ( 'NONE', #309, #29, #222 ) ;
#411 = ORIENTED_EDGE ( 'NONE', *, *, #40, .F. ) ;
#412 = DIRECTION ( 'NONE',  ( 1.000000000000000000, 0.000000000000000000, 0.000000000000000000 ) ) ;
#413 = CARTESIAN_POINT ( 'NONE',  ( -197.0000000000000000, 152.3959999999999866, 7.591439539999744746 ) ) ;
#414 = LINE ( 'NONE', #231, #582 ) ;
#415 = FACE_OUTER_BOUND ( 'NONE', #428, .T. ) ;
#416 = LINE ( 'NONE', #544, #545 ) ;
#417 = ORIENTED_EDGE ( 'NONE', *, *, #559, .T. ) ;
#418 = CLOSED_SHELL ( 'NONE', ( #107, #505, #239, #1, #277, #72, #591, #563, #281, #489, #540, #261, #401, #547, #337, #330, #407, #576 ) ) ;
#419 = VECTOR ( 'NONE', #235, 1000.000000000000000 ) ;
#420 = EDGE_LOOP ( 'NONE', ( #587, #305, #229, #63, #541, #481, #47, #500 ) ) ;
#421 = EDGE_CURVE ( 'NONE', #81, #567, #416, .T. ) ;
#422 = FACE_OUTER_BOUND ( 'NONE', #522, .T. ) ;
#423 = LINE ( 'NONE', #160, #76 ) ;
#424 = LINE ( 'NONE', #10, #321 ) ;
#425 = ORIENTED_EDGE ( 'NONE', *, *, #302, .T. ) ;
#426 = EDGE_CURVE ( 'NONE', #335, #119, #136, .T. ) ;
#427 = DIRECTION ( 'NONE',  ( 0.000000000000000000, 0.000000000000000000, -1.000000000000000000 ) ) ;
#428 = EDGE_LOOP ( 'NONE', ( #452, #503, #264, #537, #263, #31 ) ) ;
#429 = PLANE ( 'NONE',  #144 ) ;
#430 = DIRECTION ( 'NONE',  ( 0.000000000000000000, 0.000000000000000000, -1.000000000000000000 ) ) ;
#431 = VERTEX_POINT ( 'NONE', #362 ) ;
#432 = CIRCLE ( 'NONE', #581, 6.999137984129600198 ) ;
#433 = VECTOR ( 'NONE', #491, 1000.000000000000000 ) ;
#434 = LINE ( 'NONE', #382, #533 ) ;
#435 = CARTESIAN_POINT ( 'NONE',  ( -192.5000000530895932, 157.3968620689599902, 30.92596337482259372 ) ) ;
#436 = CARTESIAN_POINT ( 'NONE',  ( -192.5000000530895932, 157.3968620689599902, 7.591439539999744746 ) ) ;
#437 = PRESENTATION_STYLE_ASSIGNMENT (( #158 ) ) ;
#438 = APPLICATION_PROTOCOL_DEFINITION ( 'draft international standard', 'automotive_design', 1998, #386 ) ;
#439 = CARTESIAN_POINT ( 'NONE',  ( -180.5000000000000000, 152.3959999999999866, 0.000000000000000000 ) ) ;
#440 = ORIENTED_EDGE ( 'NONE', *, *, #513, .F. ) ;
#441 = AXIS2_PLACEMENT_3D ( 'NONE', #2, #5, #176 ) ;
#442 = CARTESIAN_POINT ( 'NONE',  ( -185.4997228722787952, 168.8959999829333753, 30.92596337482259372 ) ) ;
#443 = ORIENTED_EDGE ( 'NONE', *, *, #464, .T. ) ;
#444 = DIRECTION ( 'NONE',  ( 1.000000000000000000, 0.000000000000000000, 0.000000000000000000 ) ) ;
#445 = DIRECTION ( 'NONE',  ( -1.000000000000000000, 0.000000000000000000, -0.000000000000000000 ) ) ;
#446 = DIRECTION ( 'NONE',  ( 0.000000000000000000, 0.000000000000000000, -1.000000000000000000 ) ) ;
#447 = EDGE_CURVE ( 'NONE', #538, #245, #22, .T. ) ;
#448 = EDGE_LOOP ( 'NONE', ( #327, #125, #399, #289, #226, #472, #274, #347, #364, #411 ) ) ;
#449 = VECTOR ( 'NONE', #88, 1000.000000000000000 ) ;
#450 = FACE_OUTER_BOUND ( 'NONE', #186, .T. ) ;
#451 = AXIS2_PLACEMENT_3D ( 'NONE', #303, #446, #129 ) ;
#452 = ORIENTED_EDGE ( 'NONE', *, *, #531, .T. ) ;
#453 = CARTESIAN_POINT ( 'NONE',  ( -185.5000000000000000, 164.3959999999999866, 30.92596337482259372 ) ) ;
#454 = CARTESIAN_POINT ( 'NONE',  ( -197.0000000000000000, 152.3959999999999866, -1.591439540000000097 ) ) ;
#455 = CARTESIAN_POINT ( 'NONE',  ( -180.5000000000000000, 164.3959999999999866, -1.591439540000000097 ) ) ;
#456 = VERTEX_POINT ( 'NONE', #553 ) ;
#457 = CARTESIAN_POINT ( 'NONE',  ( -185.5008620689600036, 157.3968620689599902, 7.591439539999744746 ) ) ;
#458 = ORIENTED_EDGE ( 'NONE', *, *, #74, .T. ) ;
#459 = AXIS2_PLACEMENT_3D ( 'NONE', #588, #367, #227 ) ;
#460 = ORIENTED_EDGE ( 'NONE', *, *, #525, .T. ) ;
#461 = FACE_OUTER_BOUND ( 'NONE', #190, .T. ) ;
#462 = ORIENTED_EDGE ( 'NONE', *, *, #192, .T. ) ;
#463 = CARTESIAN_POINT ( 'NONE',  ( -197.0000000000000000, 152.3959999999999866, 7.591439539999744746 ) ) ;
#464 = EDGE_CURVE ( 'NONE', #89, #496, #118, .T. ) ;
#465 = CARTESIAN_POINT ( 'NONE',  ( -197.0000000393623623, 157.3968620689599902, 7.591439539999744746 ) ) ;
#466 = PLANE ( 'NONE',  #555 ) ;
#467 = VECTOR ( 'NONE', #300, 1000.000000000000000 ) ;
#468 = AXIS2_PLACEMENT_3D ( 'NONE', #325, #254, #62 ) ;
#469 = EDGE_CURVE ( 'NONE', #456, #567, #284, .T. ) ;
#470 = LINE ( 'NONE', #509, #523 ) ;
#471 = FILL_AREA_STYLE ('',( #8 ) ) ;
#472 = ORIENTED_EDGE ( 'NONE', *, *, #495, .F. ) ;
#473 = DIRECTION ( 'NONE',  ( -1.000000000000000000, -3.413514373950767593E-09, 0.000000000000000000 ) ) ;
#474 = FACE_OUTER_BOUND ( 'NONE', #508, .T. ) ;
#475 = ORIENTED_EDGE ( 'NONE', *, *, #150, .T. ) ;
#476 = DIRECTION ( 'NONE',  ( -1.000000000000000000, 0.000000000000000000, 0.000000000000000000 ) ) ;
#477 = VECTOR ( 'NONE', #575, 1000.000000000000000 ) ;
#478 = CARTESIAN_POINT ( 'NONE',  ( -196.9999999829333888, 157.3957228722787818, 7.591439539999744746 ) ) ;
#479 = DIRECTION ( 'NONE',  ( 1.000000000000000000, 3.413514373950767593E-09, -0.000000000000000000 ) ) ;
#480 = DIRECTION ( 'NONE',  ( -1.000000000000000000, 0.000000000000000000, 0.000000000000000000 ) ) ;
#481 = ORIENTED_EDGE ( 'NONE', *, *, #82, .T. ) ;
#482 = CARTESIAN_POINT ( 'NONE',  ( -192.5000000000000000, 152.3959999999999866, 6.000000000000000000 ) ) ;
#483 = AXIS2_PLACEMENT_3D ( 'NONE', #57, #61, #476 ) ;
#484 = AXIS2_PLACEMENT_3D ( 'NONE', #457, #558, #87 ) ;
#485 = DIRECTION ( 'NONE',  ( 0.000000000000000000, 0.000000000000000000, -1.000000000000000000 ) ) ;
#486 = ORIENTED_EDGE ( 'NONE', *, *, #469, .F. ) ;
#487 = PRODUCT ( 'util1', 'util1', '', ( #123 ) ) ;
#488 = APPLICATION_PROTOCOL_DEFINITION ( 'draft international standard', 'automotive_design', 1998, #340 ) ;
#489 = ADVANCED_FACE ( 'NONE', ( #280 ), #406, .T. ) ;
#490 = LINE ( 'NONE', #580, #223 ) ;
#491 = DIRECTION ( 'NONE',  ( -0.000000000000000000, -1.000000000000000000, -0.000000000000000000 ) ) ;
#492 = AXIS2_PLACEMENT_3D ( 'NONE', #145, #570, #342 ) ;
#493 = LINE ( 'NONE', #84, #419 ) ;
#494 = VECTOR ( 'NONE', #143, 1000.000000000000000 ) ;
#495 = EDGE_CURVE ( 'NONE', #346, #81, #48, .T. ) ;
#496 = VERTEX_POINT ( 'NONE', #90 ) ;
#497 = DIRECTION ( 'NONE',  ( 1.000000000000000000, 0.000000000000000000, 0.000000000000000000 ) ) ;
#498 = LINE ( 'NONE', #324, #449 ) ;
#499 = DIRECTION ( 'NONE',  ( 1.000000000000000000, 0.000000000000000000, 0.000000000000000000 ) ) ;
#500 = ORIENTED_EDGE ( 'NONE', *, *, #571, .T. ) ;
#501 = EDGE_LOOP ( 'NONE', ( #24, #157, #458, #369 ) ) ;
#502 = DIRECTION ( 'NONE',  ( 0.000000000000000000, 0.000000000000000000, -1.000000000000000000 ) ) ;
#503 = ORIENTED_EDGE ( 'NONE', *, *, #85, .T. ) ;
#504 = DIRECTION ( 'NONE',  ( 0.000000000000000000, 0.000000000000000000, 1.000000000000000000 ) ) ;
#505 = ADVANCED_FACE ( 'NONE', ( #52 ), #240, .F. ) ;
#506 = LINE ( 'NONE', #99, #117 ) ;
#507 = DIRECTION ( 'NONE',  ( 1.000000000000000000, 3.413514373950767593E-09, -0.000000000000000000 ) ) ;
#508 = EDGE_LOOP ( 'NONE', ( #207, #71, #100, #196 ) ) ;
#509 = CARTESIAN_POINT ( 'NONE',  ( -180.5000000000000000, 168.8959999999999866, 7.591439539999744746 ) ) ;
#510 = VERTEX_POINT ( 'NONE', #252 ) ;
#511 = SURFACE_STYLE_FILL_AREA ( #471 ) ;
#512 = CIRCLE ( 'NONE', #243, 6.999137984129600198 ) ;
#513 = EDGE_CURVE ( 'NONE', #496, #315, #313, .T. ) ;
#514 = ORIENTED_EDGE ( 'NONE', *, *, #374, .T. ) ;
#515 = DIRECTION ( 'NONE',  ( -0.000000000000000000, -0.000000000000000000, -1.000000000000000000 ) ) ;
#516 = LINE ( 'NONE', #17, #106 ) ;
#517 = CARTESIAN_POINT ( 'NONE',  ( -180.5000000000000000, 168.8959999999999866, 30.92596337482259372 ) ) ;
#518 = LINE ( 'NONE', #210, #467 ) ;
#519 = ORIENTED_EDGE ( 'NONE', *, *, #154, .F. ) ;
#520 =( NAMED_UNIT ( * ) SI_UNIT ( $, .STERADIAN. ) SOLID_ANGLE_UNIT ( ) );
#521 = VECTOR ( 'NONE', #549, 1000.000000000000000 ) ;
#522 = EDGE_LOOP ( 'NONE', ( #233, #338, #60, #363 ) ) ;
#523 = VECTOR ( 'NONE', #507, 1000.000000000000000 ) ;
#524 = CARTESIAN_POINT ( 'NONE',  ( -192.5000000000000000, 157.3960000000000150, 7.591439539999744746 ) ) ;
#525 = EDGE_CURVE ( 'NONE', #245, #532, #470, .T. ) ;
#526 = CYLINDRICAL_SURFACE ( 'NONE', #451, 6.999137984129600198 ) ;
#527 = ORIENTED_EDGE ( 'NONE', *, *, #54, .F. ) ;
#528 = EDGE_CURVE ( 'NONE', #532, #248, #434, .T. ) ;
#529 = FACE_OUTER_BOUND ( 'NONE', #202, .T. ) ;
#530 = ORIENTED_EDGE ( 'NONE', *, *, #45, .F. ) ;
#531 = EDGE_CURVE ( 'NONE', #119, #431, #268, .T. ) ;
#532 = VERTEX_POINT ( 'NONE', #105 ) ;
#533 = VECTOR ( 'NONE', #151, 1000.000000000000000 ) ;
#534 = CARTESIAN_POINT ( 'NONE',  ( -185.5008620689600036, 157.3968620689599902, -1.591439540000000097 ) ) ;
#535 = ORIENTED_EDGE ( 'NONE', *, *, #374, .F. ) ;
#536 = DIRECTION ( 'NONE',  ( 0.000000000000000000, 0.000000000000000000, -1.000000000000000000 ) ) ;
#537 = ORIENTED_EDGE ( 'NONE', *, *, #18, .T. ) ;
#538 = VERTEX_POINT ( 'NONE', #465 ) ;
#539 = CYLINDRICAL_SURFACE ( 'NONE', #589, 6.999137984129600198 ) ;
#540 = ADVANCED_FACE ( 'NONE', ( #115 ), #429, .T. ) ;
#541 = ORIENTED_EDGE ( 'NONE', *, *, #528, .T. ) ;
#542 = VERTEX_POINT ( 'NONE', #378 ) ;
#543 = CIRCLE ( 'NONE', #492, 6.999137984129600198 ) ;
#544 = CARTESIAN_POINT ( 'NONE',  ( -197.0000000000000000, 152.3959999999999866, 30.92596337482259372 ) ) ;
#545 = VECTOR ( 'NONE', #98, 1000.000000000000000 ) ;
#546 = VERTEX_POINT ( 'NONE', #478 ) ;
#547 = ADVANCED_FACE ( 'NONE', ( #422 ), #15, .F. ) ;
#548 = CARTESIAN_POINT ( 'NONE',  ( -192.5000000000000000, 157.3960000000000150, 30.92596337482259372 ) ) ;
#549 = DIRECTION ( 'NONE',  ( 0.000000000000000000, 0.000000000000000000, -1.000000000000000000 ) ) ;
#550 = CYLINDRICAL_SURFACE ( 'NONE', #441, 11.49913797040236219 ) ;
#551 = EDGE_LOOP ( 'NONE', ( #371, #51, #299, #178 ) ) ;
#552 = PRODUCT_DEFINITION ( 'ๆ', '', #120, #228 ) ;
#553 = CARTESIAN_POINT ( 'NONE',  ( -192.5000000000000000, 152.3959999999999866, -1.591439540000000097 ) ) ;
#554 = DIRECTION ( 'NONE',  ( 0.000000000000000000, 0.000000000000000000, -1.000000000000000000 ) ) ;
#555 = AXIS2_PLACEMENT_3D ( 'NONE', #184, #318, #189 ) ;
#556 = VECTOR ( 'NONE', #267, 1000.000000000000000 ) ;
#557 = VERTEX_POINT ( 'NONE', #332 ) ;
#558 = DIRECTION ( 'NONE',  ( -0.000000000000000000, -0.000000000000000000, -1.000000000000000000 ) ) ;
#559 = EDGE_CURVE ( 'NONE', #81, #546, #111, .T. ) ;
#560 = DIRECTION ( 'NONE',  ( 0.000000000000000000, 0.000000000000000000, -1.000000000000000000 ) ) ;
#561 = ORIENTED_EDGE ( 'NONE', *, *, #447, .T. ) ;
#562 = FACE_OUTER_BOUND ( 'NONE', #237, .T. ) ;
#563 = ADVANCED_FACE ( 'NONE', ( #562 ), #149, .T. ) ;
#564 = CARTESIAN_POINT ( 'NONE',  ( -185.5008620689600036, 157.3968620689599618, 6.000000000000000000 ) ) ;
#565 = DIRECTION ( 'NONE',  ( -1.000000000000000000, 0.000000000000000000, 0.000000000000000000 ) ) ;
#566 = VECTOR ( 'NONE', #257, 1000.000000000000000 ) ;
#567 = VERTEX_POINT ( 'NONE', #101 ) ;
#568 =( NAMED_UNIT ( * ) PLANE_ANGLE_UNIT ( ) SI_UNIT ( $, .RADIAN. ) );
#569 = ORIENTED_EDGE ( 'NONE', *, *, #217, .T. ) ;
#570 = DIRECTION ( 'NONE',  ( 0.000000000000000000, 0.000000000000000000, 1.000000000000000000 ) ) ;
#571 = EDGE_CURVE ( 'NONE', #113, #408, #424, .T. ) ;
#572 =( NAMED_UNIT ( * ) PLANE_ANGLE_UNIT ( ) SI_UNIT ( $, .RADIAN. ) );
#573 = MECHANICAL_DESIGN_GEOMETRIC_PRESENTATION_REPRESENTATION (  '', ( #242 ), #56 ) ;
#574 = AXIS2_PLACEMENT_3D ( 'NONE', #517, #292, #473 ) ;
#575 = DIRECTION ( 'NONE',  ( -0.000000000000000000, 1.000000000000000000, -0.000000000000000000 ) ) ;
#576 = ADVANCED_FACE ( 'NONE', ( #250 ), #108, .T. ) ;
#577 = CARTESIAN_POINT ( 'NONE',  ( -192.5000000000000000, 152.3959999999999866, 6.000000000000000000 ) ) ;
#578 = EDGE_LOOP ( 'NONE', ( #215, #460, #333, #41 ) ) ;
#579 = VERTEX_POINT ( 'NONE', #436 ) ;
#580 = CARTESIAN_POINT ( 'NONE',  ( -192.5000000000000000, 157.3960000000000150, -1.591439540000000097 ) ) ;
#581 = AXIS2_PLACEMENT_3D ( 'NONE', #249, #201, #380 ) ;
#582 = VECTOR ( 'NONE', #356, 1000.000000000000000 ) ;
#583 = DIRECTION ( 'NONE',  ( 1.000000000000000000, -0.000000000000000000, -0.000000000000000000 ) ) ;
#584 = DIRECTION ( 'NONE',  ( -3.413514373950748567E-09, -1.000000000000000000, 0.000000000000000000 ) ) ;
#585 = PLANE ( 'NONE',  #33 ) ;
#586 = DIRECTION ( 'NONE',  ( 0.000000000000000000, 0.000000000000000000, 1.000000000000000000 ) ) ;
#587 = ORIENTED_EDGE ( 'NONE', *, *, #221, .T. ) ;
#588 = CARTESIAN_POINT ( 'NONE',  ( -180.5000000000000000, 164.3959999999999866, 30.92596337482259372 ) ) ;
#589 = AXIS2_PLACEMENT_3D ( 'NONE', #348, #485, #480 ) ;
#590 = DIRECTION ( 'NONE',  ( -0.000000000000000000, -0.000000000000000000, 1.000000000000000000 ) ) ;
#591 = ADVANCED_FACE ( 'NONE', ( #12 ), #203, .F. ) ;
#592 = VERTEX_POINT ( 'NONE', #146 ) ;
#593 = PLANE ( 'NONE',  #459 ) ;
#594 = LINE ( 'NONE', #366, #341 ) ;
#595 = ORIENTED_EDGE ( 'NONE', *, *, #343, .T. ) ;
ENDSEC;
END-ISO-10303-21;
