ISO-10303-21;
HEADER;
FILE_DESCRIPTION (( 'STEP AP214' ),
    '1' );
FILE_NAME ('Í·×¶.STEP',
    '2025-10-30T09:20:18',
    ( '' ),
    ( '' ),
    'SwSTEP 2.0',
    'SolidWorks 2025',
    '' );
FILE_SCHEMA (( 'AUTOMOTIVE_DESIGN' ));
ENDSEC;

DATA;
#1 = ORIENTED_EDGE ( 'NONE', *, *, #170, .T. ) ;
#2 = ORIENTED_EDGE ( 'NONE', *, *, #205, .F. ) ;
#3 = DIRECTION ( 'NONE',  ( -1.000000000000000000, 0.000000000000000000, 0.000000000000000000 ) ) ;
#4 = APPLICATION_CONTEXT ( 'automotive_design' ) ;
#5 = DIRECTION ( 'NONE',  ( 0.000000000000000000, -1.000000000000000000, 0.000000000000000000 ) ) ;
#6 = AXIS2_PLACEMENT_3D ( 'NONE', #245, #47, #223 ) ;
#7 = FACE_OUTER_BOUND ( 'NONE', #49, .T. ) ;
#8 = CARTESIAN_POINT ( 'NONE',  ( 0.000000000000000000, 9.750000000000000000, 1.518047860998355203 ) ) ;
#9 = DIRECTION ( 'NONE',  ( 0.000000000000000000, 1.000000000000000000, 0.000000000000000000 ) ) ;
#10 = CIRCLE ( 'NONE', #88, 0.2500000000000000000 ) ;
#11 = PRODUCT_DEFINITION_FORMATION_WITH_SPECIFIED_SOURCE ( 'ä»', '', #110, .NOT_KNOWN. ) ;
#12 = CYLINDRICAL_SURFACE ( 'NONE', #186, 2.399999999999999911 ) ;
#13 = EDGE_CURVE ( 'NONE', #26, #101, #10, .T. ) ;
#14 = FACE_OUTER_BOUND ( 'NONE', #158, .T. ) ;
#15 = CARTESIAN_POINT ( 'NONE',  ( 4.592425496802573972E-16, 0.000000000000000000, 2.499999999999999556 ) ) ;
#16 = ORIENTED_EDGE ( 'NONE', *, *, #162, .T. ) ;
#17 = DIRECTION ( 'NONE',  ( -0.000000000000000000, -1.000000000000000000, -0.000000000000000000 ) ) ;
#18 = CIRCLE ( 'NONE', #41, 2.399999999999999911 ) ;
#19 = DIRECTION ( 'NONE',  ( 0.000000000000000000, 0.000000000000000000, 1.000000000000000000 ) ) ;
#20 = VERTEX_POINT ( 'NONE', #69 ) ;
#21 = ORIENTED_EDGE ( 'NONE', *, *, #180, .T. ) ;
#22 =( NAMED_UNIT ( * ) PLANE_ANGLE_UNIT ( ) SI_UNIT ( $, .RADIAN. ) );
#23 = SURFACE_STYLE_USAGE ( .BOTH. , #204 ) ;
#24 = CARTESIAN_POINT ( 'NONE',  ( 0.000000000000000000, 0.000000000000000000, 0.000000000000000000 ) ) ;
#25 = ORIENTED_EDGE ( 'NONE', *, *, #210, .F. ) ;
#26 = VERTEX_POINT ( 'NONE', #208 ) ;
#27 = CARTESIAN_POINT ( 'NONE',  ( 2.011724571794977944E-16, 10.00000000000000000, -1.518047860998355203 ) ) ;
#28 = DIRECTION ( 'NONE',  ( 0.000000000000000000, 0.000000000000000000, 1.000000000000000000 ) ) ;
#29 = EDGE_CURVE ( 'NONE', #119, #97, #68, .T. ) ;
#30 = AXIS2_PLACEMENT_3D ( 'NONE', #244, #168, #215 ) ;
#31 = AXIS2_PLACEMENT_3D ( 'NONE', #38, #194, #28 ) ;
#32 = CARTESIAN_POINT ( 'NONE',  ( 0.000000000000000000, -1.300000000000000044, 2.399999999999999911 ) ) ;
#33 = DIRECTION ( 'NONE',  ( 0.000000000000000000, 0.000000000000000000, -1.000000000000000000 ) ) ;
#34 = EDGE_CURVE ( 'NONE', #26, #154, #105, .T. ) ;
#35 = AXIS2_PLACEMENT_3D ( 'NONE', #231, #176, #212 ) ;
#36 = CIRCLE ( 'NONE', #239, 2.399999999999999911 ) ;
#37 = PRODUCT_DEFINITION ( 'æœ', '', #11, #46 ) ;
#38 = CARTESIAN_POINT ( 'NONE',  ( 0.000000000000000000, 0.000000000000000000, 0.000000000000000000 ) ) ;
#39 = ORIENTED_EDGE ( 'NONE', *, *, #167, .T. ) ;
#40 = CARTESIAN_POINT ( 'NONE',  ( 0.000000000000000000, 9.768697487060405749, 0.000000000000000000 ) ) ;
#41 = AXIS2_PLACEMENT_3D ( 'NONE', #95, #192, #33 ) ;
#42 = VERTEX_POINT ( 'NONE', #188 ) ;
#43 = CARTESIAN_POINT ( 'NONE',  ( 0.000000000000000000, -1.300000000000000044, 0.000000000000000000 ) ) ;
#44 = EDGE_LOOP ( 'NONE', ( #182, #25, #52, #39 ) ) ;
#45 = ADVANCED_FACE ( 'NONE', ( #84 ), #125, .T. ) ;
#46 = PRODUCT_DEFINITION_CONTEXT ( 'detailed design', #4, 'design' ) ;
#47 = DIRECTION ( 'NONE',  ( 0.000000000000000000, 1.000000000000000000, 0.000000000000000000 ) ) ;
#48 = DIRECTION ( 'NONE',  ( -0.000000000000000000, -1.000000000000000000, -0.000000000000000000 ) ) ;
#49 = EDGE_LOOP ( 'NONE', ( #220, #21, #226, #183 ) ) ;
#50 = VECTOR ( 'NONE', #145, 999.9999999999998863 ) ;
#51 = CIRCLE ( 'NONE', #172, 1.767347688470469302 ) ;
#52 = ORIENTED_EDGE ( 'NONE', *, *, #227, .T. ) ;
#53 = SURFACE_STYLE_FILL_AREA ( #71 ) ;
#54 = PRODUCT_DEFINITION_SHAPE ( 'NONE', 'NONE',  #37 ) ;
#55 = DIRECTION ( 'NONE',  ( -0.000000000000000000, -1.000000000000000000, -0.000000000000000000 ) ) ;
#56 = CLOSED_SHELL ( 'NONE', ( #195, #141, #151, #81, #123, #138, #45, #201, #241 ) ) ;
#57 = PRESENTATION_LAYER_ASSIGNMENT (  '', '', ( #228 ) ) ;
#58 = CIRCLE ( 'NONE', #193, 1.767347688470469302 ) ;
#59 = FACE_OUTER_BOUND ( 'NONE', #82, .T. ) ;
#60 = ORIENTED_EDGE ( 'NONE', *, *, #227, .F. ) ;
#61 = DIRECTION ( 'NONE',  ( 0.000000000000000000, 0.000000000000000000, -1.000000000000000000 ) ) ;
#62 = ORIENTED_EDGE ( 'NONE', *, *, #190, .T. ) ;
#63 = ORIENTED_EDGE ( 'NONE', *, *, #224, .F. ) ;
#64 = AXIS2_PLACEMENT_3D ( 'NONE', #43, #181, #206 ) ;
#65 = EDGE_LOOP ( 'NONE', ( #133, #63, #152, #102 ) ) ;
#66 = PLANE ( 'NONE',  #232 ) ;
#67 = ORIENTED_EDGE ( 'NONE', *, *, #167, .F. ) ;
#68 = LINE ( 'NONE', #247, #131 ) ;
#69 = CARTESIAN_POINT ( 'NONE',  ( 0.000000000000000000, 0.000000000000000000, 2.399999999999999911 ) ) ;
#70 = CIRCLE ( 'NONE', #216, 2.399999999999999911 ) ;
#71 = FILL_AREA_STYLE ('',( #165 ) ) ;
#72 = PRESENTATION_STYLE_ASSIGNMENT (( #23 ) ) ;
#73 =( NAMED_UNIT ( * ) PLANE_ANGLE_UNIT ( ) SI_UNIT ( $, .RADIAN. ) );
#74 = APPLICATION_CONTEXT ( 'automotive_design' ) ;
#75 = CIRCLE ( 'NONE', #191, 2.399999999999999911 ) ;
#76 = CARTESIAN_POINT ( 'NONE',  ( 0.000000000000000000, -1.300000000000000044, 2.399999999999999911 ) ) ;
#77 = ORIENTED_EDGE ( 'NONE', *, *, #34, .F. ) ;
#78 = CYLINDRICAL_SURFACE ( 'NONE', #89, 2.399999999999999911 ) ;
#79 = PLANE ( 'NONE',  #64 ) ;
#80 = EDGE_LOOP ( 'NONE', ( #67, #202 ) ) ;
#81 = ADVANCED_FACE ( 'NONE', ( #209 ), #66, .T. ) ;
#82 = EDGE_LOOP ( 'NONE', ( #116, #240, #160, #60 ) ) ;
#83 = EDGE_LOOP ( 'NONE', ( #98, #218, #221, #136 ) ) ;
#84 = FACE_OUTER_BOUND ( 'NONE', #65, .T. ) ;
#85 = ADVANCED_BREP_SHAPE_REPRESENTATION ( '\X2\59349525\X0\', ( #148, #111 ), #174 ) ;
#86 =( LENGTH_UNIT ( ) NAMED_UNIT ( * ) SI_UNIT ( .MILLI., .METRE. ) );
#87 = PLANE ( 'NONE',  #135 ) ;
#88 = AXIS2_PLACEMENT_3D ( 'NONE', #8, #3, #106 ) ;
#89 = AXIS2_PLACEMENT_3D ( 'NONE', #237, #217, #250 ) ;
#90 = DIRECTION ( 'NONE',  ( 1.000000000000000000, 0.000000000000000000, 0.000000000000000000 ) ) ;
#91 = CARTESIAN_POINT ( 'NONE',  ( 0.000000000000000000, 9.750000000000000000, 0.000000000000000000 ) ) ;
#92 = DIRECTION ( 'NONE',  ( 0.000000000000000000, 1.000000000000000000, 0.000000000000000000 ) ) ;
#93 = EDGE_CURVE ( 'NONE', #97, #20, #75, .T. ) ;
#94 = DIRECTION ( 'NONE',  ( 0.000000000000000000, 0.000000000000000000, 1.000000000000000000 ) ) ;
#95 = CARTESIAN_POINT ( 'NONE',  ( 0.000000000000000000, 0.000000000000000000, 0.000000000000000000 ) ) ;
#96 =( GEOMETRIC_REPRESENTATION_CONTEXT ( 3 ) GLOBAL_UNCERTAINTY_ASSIGNED_CONTEXT ( ( #256 ) ) GLOBAL_UNIT_ASSIGNED_CONTEXT ( ( #146, #73, #130 ) ) REPRESENTATION_CONTEXT ( 'NONE', 'WORKASPACE' ) );
#97 = VERTEX_POINT ( 'NONE', #140 ) ;
#98 = ORIENTED_EDGE ( 'NONE', *, *, #214, .T. ) ;
#99 = LINE ( 'NONE', #32, #115 ) ;
#100 = EDGE_CURVE ( 'NONE', #101, #126, #114, .T. ) ;
#101 = VERTEX_POINT ( 'NONE', #143 ) ;
#102 = ORIENTED_EDGE ( 'NONE', *, *, #197, .F. ) ;
#103 = ORIENTED_EDGE ( 'NONE', *, *, #100, .T. ) ;
#104 = CARTESIAN_POINT ( 'NONE',  ( 0.000000000000000000, 0.000000000000000000, 0.000000000000000000 ) ) ;
#105 = LINE ( 'NONE', #211, #149 ) ;
#106 = DIRECTION ( 'NONE',  ( 0.000000000000000000, 0.000000000000000000, 1.000000000000000000 ) ) ;
#107 = CARTESIAN_POINT ( 'NONE',  ( 0.000000000000000000, 9.750000000000000000, 0.000000000000000000 ) ) ;
#108 = FACE_OUTER_BOUND ( 'NONE', #83, .T. ) ;
#109 = CONICAL_SURFACE ( 'NONE', #30, 1.750000000000000000, 0.07485984771076681366 ) ;
#110 = PRODUCT ( '\X2\59349525\X0\', '\X2\59349525\X0\', '', ( #161 ) ) ;
#111 = AXIS2_PLACEMENT_3D ( 'NONE', #156, #137, #90 ) ;
#112 = DIRECTION ( 'NONE',  ( 0.000000000000000000, -1.000000000000000000, 0.000000000000000000 ) ) ;
#113 = DIRECTION ( 'NONE',  ( 0.000000000000000000, 1.000000000000000000, 0.000000000000000000 ) ) ;
#114 = CIRCLE ( 'NONE', #6, 1.518047860998355203 ) ;
#115 = VECTOR ( 'NONE', #255, 1000.000000000000000 ) ;
#116 = ORIENTED_EDGE ( 'NONE', *, *, #190, .F. ) ;
#117 = SHAPE_DEFINITION_REPRESENTATION ( #54, #85 ) ;
#118 = EDGE_LOOP ( 'NONE', ( #77, #124, #1, #16 ) ) ;
#119 = VERTEX_POINT ( 'NONE', #187 ) ;
#120 = DIRECTION ( 'NONE',  ( 0.000000000000000000, 1.000000000000000000, 0.000000000000000000 ) ) ;
#121 =( NAMED_UNIT ( * ) SI_UNIT ( $, .STERADIAN. ) SOLID_ANGLE_UNIT ( ) );
#122 = DIRECTION ( 'NONE',  ( 0.000000000000000000, 0.000000000000000000, -1.000000000000000000 ) ) ;
#123 = ADVANCED_FACE ( 'NONE', ( #142, #225 ), #87, .F. ) ;
#124 = ORIENTED_EDGE ( 'NONE', *, *, #224, .T. ) ;
#125 = TOROIDAL_SURFACE ( 'NONE', #242, 1.518047860998355203, 0.2500000000000000000 ) ;
#126 = VERTEX_POINT ( 'NONE', #27 ) ;
#127 = CARTESIAN_POINT ( 'NONE',  ( 0.000000000000000000, 10.00000000000000000, 0.000000000000000000 ) ) ;
#128 = CARTESIAN_POINT ( 'NONE',  ( 0.000000000000000000, -1.300000000000000044, 0.000000000000000000 ) ) ;
#129 = TOROIDAL_SURFACE ( 'NONE', #253, 1.518047860998355203, 0.2500000000000000000 ) ;
#130 =( NAMED_UNIT ( * ) SI_UNIT ( $, .STERADIAN. ) SOLID_ANGLE_UNIT ( ) );
#131 = VECTOR ( 'NONE', #139, 1000.000000000000000 ) ;
#132 = DIRECTION ( 'NONE',  ( 0.000000000000000000, 0.000000000000000000, 1.000000000000000000 ) ) ;
#133 = ORIENTED_EDGE ( 'NONE', *, *, #180, .F. ) ;
#134 = DIRECTION ( 'NONE',  ( 0.000000000000000000, 0.000000000000000000, 1.000000000000000000 ) ) ;
#135 = AXIS2_PLACEMENT_3D ( 'NONE', #104, #230, #229 ) ;
#136 = ORIENTED_EDGE ( 'NONE', *, *, #170, .F. ) ;
#137 = DIRECTION ( 'NONE',  ( 0.000000000000000000, 0.000000000000000000, 1.000000000000000000 ) ) ;
#138 = ADVANCED_FACE ( 'NONE', ( #163 ), #251, .T. ) ;
#139 = DIRECTION ( 'NONE',  ( -0.000000000000000000, 1.000000000000000000, -0.000000000000000000 ) ) ;
#140 = CARTESIAN_POINT ( 'NONE',  ( 2.939152317953647106E-16, 0.000000000000000000, -2.399999999999999911 ) ) ;
#141 = ADVANCED_FACE ( 'NONE', ( #7 ), #129, .T. ) ;
#142 = FACE_BOUND ( 'NONE', #80, .T. ) ;
#143 = CARTESIAN_POINT ( 'NONE',  ( 0.000000000000000000, 10.00000000000000000, 1.518047860998355203 ) ) ;
#144 = CARTESIAN_POINT ( 'NONE',  ( 0.000000000000000000, 10.00000000000000000, 0.000000000000000000 ) ) ;
#145 = DIRECTION ( 'NONE',  ( 0.000000000000000000, -0.9971993098884565088, -0.07478994824163419375 ) ) ;
#146 =( LENGTH_UNIT ( ) NAMED_UNIT ( * ) SI_UNIT ( .MILLI., .METRE. ) );
#147 = MECHANICAL_DESIGN_GEOMETRIC_PRESENTATION_REPRESENTATION (  '', ( #228 ), #96 ) ;
#148 = MANIFOLD_SOLID_BREP ( '\X2\51f853f0\X0\-\X2\62c94f38\X0\1', #56 ) ;
#149 = VECTOR ( 'NONE', #207, 999.9999999999998863 ) ;
#150 = CARTESIAN_POINT ( 'NONE',  ( 0.000000000000000000, -1.300000000000000044, 0.000000000000000000 ) ) ;
#151 = ADVANCED_FACE ( 'NONE', ( #108 ), #109, .T. ) ;
#152 = ORIENTED_EDGE ( 'NONE', *, *, #13, .T. ) ;
#153 = DIRECTION ( 'NONE',  ( 0.000000000000000000, 1.000000000000000000, 0.000000000000000000 ) ) ;
#154 = VERTEX_POINT ( 'NONE', #15 ) ;
#155 = ORIENTED_EDGE ( 'NONE', *, *, #197, .T. ) ;
#156 = CARTESIAN_POINT ( 'NONE',  ( 0.000000000000000000, 0.000000000000000000, 0.000000000000000000 ) ) ;
#157 = AXIS2_PLACEMENT_3D ( 'NONE', #198, #113, #213 ) ;
#158 = EDGE_LOOP ( 'NONE', ( #179, #62 ) ) ;
#159 = EDGE_LOOP ( 'NONE', ( #103, #155 ) ) ;
#160 = ORIENTED_EDGE ( 'NONE', *, *, #93, .T. ) ;
#161 = PRODUCT_CONTEXT ( 'NONE', #74, 'mechanical' ) ;
#162 = EDGE_CURVE ( 'NONE', #42, #154, #203, .T. ) ;
#163 = FACE_OUTER_BOUND ( 'NONE', #118, .T. ) ;
#164 = DIRECTION ( 'NONE',  ( 0.000000000000000000, 0.000000000000000000, -1.000000000000000000 ) ) ;
#165 = FILL_AREA_STYLE_COLOUR ( '', #166 ) ;
#166 = COLOUR_RGB ( '',0.1372549019607843257, 0.2941176470588235392, 0.7490196078431372584 ) ;
#167 = EDGE_CURVE ( 'NONE', #20, #97, #18, .T. ) ;
#168 = DIRECTION ( 'NONE',  ( -0.000000000000000000, -1.000000000000000000, -0.000000000000000000 ) ) ;
#169 = DIRECTION ( 'NONE',  ( 0.000000000000000000, -1.000000000000000000, 0.000000000000000000 ) ) ;
#170 = EDGE_CURVE ( 'NONE', #173, #42, #252, .T. ) ;
#171 = AXIS2_PLACEMENT_3D ( 'NONE', #243, #48, #122 ) ;
#172 = AXIS2_PLACEMENT_3D ( 'NONE', #249, #17, #219 ) ;
#173 = VERTEX_POINT ( 'NONE', #233 ) ;
#174 =( GEOMETRIC_REPRESENTATION_CONTEXT ( 3 ) GLOBAL_UNCERTAINTY_ASSIGNED_CONTEXT ( ( #175 ) ) GLOBAL_UNIT_ASSIGNED_CONTEXT ( ( #86, #22, #121 ) ) REPRESENTATION_CONTEXT ( 'NONE', 'WORKASPACE' ) );
#175 = UNCERTAINTY_MEASURE_WITH_UNIT (LENGTH_MEASURE( 1.000000000000000082E-05 ), #86, 'distance_accuracy_value', 'NONE');
#176 = DIRECTION ( 'NONE',  ( 1.000000000000000000, -0.000000000000000000, 1.224646799147353207E-16 ) ) ;
#177 = VERTEX_POINT ( 'NONE', #76 ) ;
#178 = APPLICATION_PROTOCOL_DEFINITION ( 'draft international standard', 'automotive_design', 1998, #74 ) ;
#179 = ORIENTED_EDGE ( 'NONE', *, *, #210, .T. ) ;
#180 = EDGE_CURVE ( 'NONE', #173, #126, #185, .T. ) ;
#181 = DIRECTION ( 'NONE',  ( 0.000000000000000000, -1.000000000000000000, 0.000000000000000000 ) ) ;
#182 = ORIENTED_EDGE ( 'NONE', *, *, #29, .F. ) ;
#183 = ORIENTED_EDGE ( 'NONE', *, *, #13, .F. ) ;
#184 = DIRECTION ( 'NONE',  ( 0.000000000000000000, 0.000000000000000000, 1.000000000000000000 ) ) ;
#185 = CIRCLE ( 'NONE', #35, 0.2500000000000000000 ) ;
#186 = AXIS2_PLACEMENT_3D ( 'NONE', #238, #254, #132 ) ;
#187 = CARTESIAN_POINT ( 'NONE',  ( 2.939152317953647106E-16, -1.300000000000000044, -2.399999999999999911 ) ) ;
#188 = CARTESIAN_POINT ( 'NONE',  ( -1.530808498934191324E-16, 0.000000000000000000, -2.499999999999999556 ) ) ;
#189 = DIRECTION ( 'NONE',  ( 0.000000000000000000, -0.000000000000000000, 1.000000000000000000 ) ) ;
#190 = EDGE_CURVE ( 'NONE', #119, #177, #70, .T. ) ;
#191 = AXIS2_PLACEMENT_3D ( 'NONE', #24, #5, #164 ) ;
#192 = DIRECTION ( 'NONE',  ( 0.000000000000000000, -1.000000000000000000, 0.000000000000000000 ) ) ;
#193 = AXIS2_PLACEMENT_3D ( 'NONE', #40, #55, #19 ) ;
#194 = DIRECTION ( 'NONE',  ( 0.000000000000000000, 1.000000000000000000, 0.000000000000000000 ) ) ;
#195 = ADVANCED_FACE ( 'NONE', ( #59 ), #12, .T. ) ;
#196 = CARTESIAN_POINT ( 'NONE',  ( 0.000000000000000000, 10.00000000000000000, -1.750000000000000000 ) ) ;
#197 = EDGE_CURVE ( 'NONE', #126, #101, #246, .T. ) ;
#198 = CARTESIAN_POINT ( 'NONE',  ( 0.000000000000000000, 0.000000000000000000, 0.000000000000000000 ) ) ;
#199 = AXIS2_PLACEMENT_3D ( 'NONE', #127, #153, #134 ) ;
#200 = FACE_OUTER_BOUND ( 'NONE', #44, .T. ) ;
#201 = ADVANCED_FACE ( 'NONE', ( #200 ), #78, .T. ) ;
#202 = ORIENTED_EDGE ( 'NONE', *, *, #93, .F. ) ;
#203 = CIRCLE ( 'NONE', #157, 2.499999999999999556 ) ;
#204 = SURFACE_SIDE_STYLE ('',( #53 ) ) ;
#205 = EDGE_CURVE ( 'NONE', #154, #42, #234, .T. ) ;
#206 = DIRECTION ( 'NONE',  ( 0.000000000000000000, -0.000000000000000000, -1.000000000000000000 ) ) ;
#207 = DIRECTION ( 'NONE',  ( 9.159127072251351194E-18, -0.9971993098884565088, 0.07478994824163419375 ) ) ;
#208 = CARTESIAN_POINT ( 'NONE',  ( 2.612996843767108259E-16, 9.768697487060405749, 1.767347688470469302 ) ) ;
#209 = FACE_OUTER_BOUND ( 'NONE', #159, .T. ) ;
#210 = EDGE_CURVE ( 'NONE', #177, #119, #36, .T. ) ;
#211 = CARTESIAN_POINT ( 'NONE',  ( 2.143131898507868297E-16, 10.00000000000000000, 1.750000000000000000 ) ) ;
#212 = DIRECTION ( 'NONE',  ( 1.224646799147353454E-16, 0.000000000000000000, -1.000000000000000000 ) ) ;
#213 = DIRECTION ( 'NONE',  ( 0.000000000000000000, 0.000000000000000000, 1.000000000000000000 ) ) ;
#214 = EDGE_CURVE ( 'NONE', #173, #26, #51, .T. ) ;
#215 = DIRECTION ( 'NONE',  ( 0.000000000000000000, 0.000000000000000000, -1.000000000000000000 ) ) ;
#216 = AXIS2_PLACEMENT_3D ( 'NONE', #150, #169, #235 ) ;
#217 = DIRECTION ( 'NONE',  ( -0.000000000000000000, 1.000000000000000000, -0.000000000000000000 ) ) ;
#218 = ORIENTED_EDGE ( 'NONE', *, *, #34, .T. ) ;
#219 = DIRECTION ( 'NONE',  ( 0.000000000000000000, 0.000000000000000000, 1.000000000000000000 ) ) ;
#220 = ORIENTED_EDGE ( 'NONE', *, *, #214, .F. ) ;
#221 = ORIENTED_EDGE ( 'NONE', *, *, #205, .T. ) ;
#222 = ORIENTED_EDGE ( 'NONE', *, *, #162, .F. ) ;
#223 = DIRECTION ( 'NONE',  ( 0.000000000000000000, 0.000000000000000000, 1.000000000000000000 ) ) ;
#224 = EDGE_CURVE ( 'NONE', #26, #173, #58, .T. ) ;
#225 = FACE_OUTER_BOUND ( 'NONE', #236, .T. ) ;
#226 = ORIENTED_EDGE ( 'NONE', *, *, #100, .F. ) ;
#227 = EDGE_CURVE ( 'NONE', #177, #20, #99, .T. ) ;
#228 = STYLED_ITEM ( 'NONE', ( #72 ), #148 ) ;
#229 = DIRECTION ( 'NONE',  ( 0.000000000000000000, -0.000000000000000000, 1.000000000000000000 ) ) ;
#230 = DIRECTION ( 'NONE',  ( 0.000000000000000000, 1.000000000000000000, 0.000000000000000000 ) ) ;
#231 = CARTESIAN_POINT ( 'NONE',  ( 1.859072453924121772E-16, 9.750000000000000000, -1.518047860998355203 ) ) ;
#232 = AXIS2_PLACEMENT_3D ( 'NONE', #144, #92, #189 ) ;
#233 = CARTESIAN_POINT ( 'NONE',  ( 0.000000000000000000, 9.768697487060405749, -1.767347688470469302 ) ) ;
#234 = CIRCLE ( 'NONE', #31, 2.499999999999999556 ) ;
#235 = DIRECTION ( 'NONE',  ( 0.000000000000000000, 0.000000000000000000, -1.000000000000000000 ) ) ;
#236 = EDGE_LOOP ( 'NONE', ( #222, #2 ) ) ;
#237 = CARTESIAN_POINT ( 'NONE',  ( 0.000000000000000000, -1.300000000000000044, 0.000000000000000000 ) ) ;
#238 = CARTESIAN_POINT ( 'NONE',  ( 0.000000000000000000, -1.300000000000000044, 0.000000000000000000 ) ) ;
#239 = AXIS2_PLACEMENT_3D ( 'NONE', #128, #112, #61 ) ;
#240 = ORIENTED_EDGE ( 'NONE', *, *, #29, .T. ) ;
#241 = ADVANCED_FACE ( 'NONE', ( #14 ), #79, .T. ) ;
#242 = AXIS2_PLACEMENT_3D ( 'NONE', #91, #120, #184 ) ;
#243 = CARTESIAN_POINT ( 'NONE',  ( 0.000000000000000000, 10.00000000000000000, 0.000000000000000000 ) ) ;
#244 = CARTESIAN_POINT ( 'NONE',  ( 0.000000000000000000, 10.00000000000000000, 0.000000000000000000 ) ) ;
#245 = CARTESIAN_POINT ( 'NONE',  ( 0.000000000000000000, 10.00000000000000000, 0.000000000000000000 ) ) ;
#246 = CIRCLE ( 'NONE', #199, 1.518047860998355203 ) ;
#247 = CARTESIAN_POINT ( 'NONE',  ( 2.939152317953647106E-16, -1.300000000000000044, -2.399999999999999911 ) ) ;
#248 = PRODUCT_RELATED_PRODUCT_CATEGORY ( 'part', '', ( #110 ) ) ;
#249 = CARTESIAN_POINT ( 'NONE',  ( 0.000000000000000000, 9.768697487060405749, 0.000000000000000000 ) ) ;
#250 = DIRECTION ( 'NONE',  ( 0.000000000000000000, 0.000000000000000000, 1.000000000000000000 ) ) ;
#251 = CONICAL_SURFACE ( 'NONE', #171, 1.750000000000000000, 0.07485984771076681366 ) ;
#252 = LINE ( 'NONE', #196, #50 ) ;
#253 = AXIS2_PLACEMENT_3D ( 'NONE', #107, #9, #94 ) ;
#254 = DIRECTION ( 'NONE',  ( -0.000000000000000000, 1.000000000000000000, -0.000000000000000000 ) ) ;
#255 = DIRECTION ( 'NONE',  ( -0.000000000000000000, 1.000000000000000000, -0.000000000000000000 ) ) ;
#256 = UNCERTAINTY_MEASURE_WITH_UNIT (LENGTH_MEASURE( 1.000000000000000082E-05 ), #146, 'distance_accuracy_value', 'NONE');
#257 = APPLICATION_PROTOCOL_DEFINITION ( 'draft international standard', 'automotive_design', 1998, #4 ) ;
ENDSEC;
END-ISO-10303-21;
