ISO-10303-21;
HEADER;
FILE_DESCRIPTION (( 'STEP AP214' ),
    '1' );
FILE_NAME ('推拉杆连接.STEP',
    '2025-10-30T01:18:06',
    ( '' ),
    ( '' ),
    'SwSTEP 2.0',
    'SolidWorks 2025',
    '' );
FILE_SCHEMA (( 'AUTOMOTIVE_DESIGN' ));
ENDSEC;

DATA;
#1 = ORIENTED_EDGE ( 'NONE', *, *, #221, .T. ) ;
#2 = DIRECTION ( 'NONE',  ( 1.000000000000000000, 0.000000000000000000, 0.000000000000000000 ) ) ;
#3 = CYLINDRICAL_SURFACE ( 'NONE', #1112, 1.600000000000004086 ) ;
#4 = CARTESIAN_POINT ( 'NONE',  ( 0.000000000000000000, -41.24999999999994316, 10.00000000000000000 ) ) ;
#5 = CIRCLE ( 'NONE', #1250, 3.000000000000002665 ) ;
#6 = AXIS2_PLACEMENT_3D ( 'NONE', #394, #1199, #209 ) ;
#7 = CARTESIAN_POINT ( 'NONE',  ( -38.25000000000001421, -81.24999999999994316, -6.899999999999993250 ) ) ;
#8 =( GEOMETRIC_REPRESENTATION_CONTEXT ( 3 ) GLOBAL_UNCERTAINTY_ASSIGNED_CONTEXT ( ( #456 ) ) GLOBAL_UNIT_ASSIGNED_CONTEXT ( ( #1273, #60, #1152 ) ) REPRESENTATION_CONTEXT ( 'NONE', 'WORKASPACE' ) );
#9 = ORIENTED_EDGE ( 'NONE', *, *, #617, .T. ) ;
#10 = AXIS2_PLACEMENT_3D ( 'NONE', #205, #112, #506 ) ;
#11 = EDGE_LOOP ( 'NONE', ( #251, #845 ) ) ;
#12 = CIRCLE ( 'NONE', #803, 3.000000000000000000 ) ;
#13 = DIRECTION ( 'NONE',  ( 0.000000000000000000, -1.000000000000000000, 0.000000000000000000 ) ) ;
#14 = CARTESIAN_POINT ( 'NONE',  ( -1.599999999999991651, -51.24999999999995026, 0.000000000000000000 ) ) ;
#15 = EDGE_CURVE ( 'NONE', #368, #1156, #1086, .T. ) ;
#16 = DIRECTION ( 'NONE',  ( -0.000000000000000000, -0.000000000000000000, -1.000000000000000000 ) ) ;
#17 = FACE_BOUND ( 'NONE', #34, .T. ) ;
#18 = ORIENTED_EDGE ( 'NONE', *, *, #25, .F. ) ;
#19 = DIRECTION ( 'NONE',  ( -0.000000000000000000, -0.000000000000000000, 1.000000000000000000 ) ) ;
#20 = VERTEX_POINT ( 'NONE', #595 ) ;
#21 = CARTESIAN_POINT ( 'NONE',  ( -73.00000000000004263, 0.000000000000000000, 10.00000000000000000 ) ) ;
#22 = CYLINDRICAL_SURFACE ( 'NONE', #1008, 3.000000000000000000 ) ;
#23 = DIRECTION ( 'NONE',  ( -0.000000000000000000, -0.000000000000000000, 1.000000000000000000 ) ) ;
#24 = EDGE_LOOP ( 'NONE', ( #451, #18, #152, #900 ) ) ;
#25 = EDGE_CURVE ( 'NONE', #228, #1009, #1281, .T. ) ;
#26 = DIRECTION ( 'NONE',  ( 1.000000000000000000, 0.000000000000000000, 0.000000000000000000 ) ) ;
#27 = FACE_OUTER_BOUND ( 'NONE', #1265, .T. ) ;
#28 = AXIS2_PLACEMENT_3D ( 'NONE', #403, #281, #675 ) ;
#29 = VERTEX_POINT ( 'NONE', #487 ) ;
#30 = MECHANICAL_DESIGN_GEOMETRIC_PRESENTATION_REPRESENTATION (  '', ( #48 ), #8 ) ;
#31 = EDGE_CURVE ( 'NONE', #120, #742, #1266, .T. ) ;
#32 = DIRECTION ( 'NONE',  ( 1.000000000000000000, 0.000000000000000000, 0.000000000000000000 ) ) ;
#33 = CARTESIAN_POINT ( 'NONE',  ( -55.00000000000003553, 5.264621357160437221, -1.000000000000004441 ) ) ;
#34 = EDGE_LOOP ( 'NONE', ( #1144, #1038 ) ) ;
#35 = EDGE_CURVE ( 'NONE', #263, #873, #337, .T. ) ;
#36 = APPLICATION_PROTOCOL_DEFINITION ( 'draft international standard', 'automotive_design', 1998, #902 ) ;
#37 = CARTESIAN_POINT ( 'NONE',  ( 0.000000000000000000, -51.24999999999995026, 7.000000000000000000 ) ) ;
#38 = EDGE_CURVE ( 'NONE', #258, #368, #194, .T. ) ;
#39 = DIRECTION ( 'NONE',  ( 1.000000000000000000, 0.000000000000000000, 0.000000000000000000 ) ) ;
#40 = ORIENTED_EDGE ( 'NONE', *, *, #1142, .T. ) ;
#41 = DIRECTION ( 'NONE',  ( 1.000000000000000000, 0.000000000000000000, 0.000000000000000000 ) ) ;
#42 = CARTESIAN_POINT ( 'NONE',  ( 0.000000000000000000, -111.2499999999999432, 7.000000000000000000 ) ) ;
#43 = EDGE_CURVE ( 'NONE', #858, #696, #307, .T. ) ;
#44 = ORIENTED_EDGE ( 'NONE', *, *, #1245, .T. ) ;
#45 = VERTEX_POINT ( 'NONE', #885 ) ;
#46 = AXIS2_PLACEMENT_3D ( 'NONE', #305, #1109, #619 ) ;
#47 = AXIS2_PLACEMENT_3D ( 'NONE', #823, #828, #938 ) ;
#48 = STYLED_ITEM ( 'NONE', ( #1053 ), #868 ) ;
#49 = DIRECTION ( 'NONE',  ( -0.000000000000000000, -0.000000000000000000, 1.000000000000000000 ) ) ;
#50 = CARTESIAN_POINT ( 'NONE',  ( 1.599999999999991651, -51.24999999999995026, -6.899999999999991473 ) ) ;
#51 = CARTESIAN_POINT ( 'NONE',  ( -9.000000000000005329, 5.264621357160437221, -0.9999999999999922284 ) ) ;
#52 = ADVANCED_FACE ( 'NONE', ( #1275 ), #1176, .F. ) ;
#53 = EDGE_LOOP ( 'NONE', ( #277, #1267 ) ) ;
#54 = ORIENTED_EDGE ( 'NONE', *, *, #869, .F. ) ;
#55 = CARTESIAN_POINT ( 'NONE',  ( -32.00000000000001421, -81.24999999999994316, -6.899999999999993250 ) ) ;
#56 = ORIENTED_EDGE ( 'NONE', *, *, #592, .T. ) ;
#57 = ORIENTED_EDGE ( 'NONE', *, *, #38, .F. ) ;
#58 = ORIENTED_EDGE ( 'NONE', *, *, #1004, .T. ) ;
#59 = CARTESIAN_POINT ( 'NONE',  ( -13.00000000000001066, 5.264621357160437221, -3.899999999999992806 ) ) ;
#60 =( NAMED_UNIT ( * ) PLANE_ANGLE_UNIT ( ) SI_UNIT ( $, .RADIAN. ) );
#61 = ORIENTED_EDGE ( 'NONE', *, *, #715, .F. ) ;
#62 = ORIENTED_EDGE ( 'NONE', *, *, #592, .F. ) ;
#63 = VERTEX_POINT ( 'NONE', #418 ) ;
#64 =( GEOMETRIC_REPRESENTATION_CONTEXT ( 3 ) GLOBAL_UNCERTAINTY_ASSIGNED_CONTEXT ( ( #1258 ) ) GLOBAL_UNIT_ASSIGNED_CONTEXT ( ( #124, #929, #133 ) ) REPRESENTATION_CONTEXT ( 'NONE', 'WORKASPACE' ) );
#65 = VECTOR ( 'NONE', #652, 1000.000000000000000 ) ;
#66 = VECTOR ( 'NONE', #1175, 1000.000000000000000 ) ;
#67 = DIRECTION ( 'NONE',  ( 0.000000000000000000, 0.000000000000000000, -1.000000000000000000 ) ) ;
#68 = CARTESIAN_POINT ( 'NONE',  ( -54.00000000000003553, -41.24999999999994316, -1.000000000000004441 ) ) ;
#69 = ORIENTED_EDGE ( 'NONE', *, *, #248, .T. ) ;
#70 = CARTESIAN_POINT ( 'NONE',  ( 8.999999999999998224, -118.2499999999999432, 0.000000000000000000 ) ) ;
#71 = ADVANCED_FACE ( 'NONE', ( #1024 ), #920, .F. ) ;
#72 = CARTESIAN_POINT ( 'NONE',  ( 1.600000000000004752, -111.2499999999999432, 7.000000000000000888 ) ) ;
#74 = EDGE_CURVE ( 'NONE', #263, #1073, #831, .T. ) ;
#73 = CARTESIAN_POINT ( 'NONE',  ( -3.000000000000000000, -111.2499999999999432, 7.000000000000000000 ) ) ;
#75 = EDGE_LOOP ( 'NONE', ( #857, #749 ) ) ;
#76 = EDGE_LOOP ( 'NONE', ( #1069, #151, #1090, #916 ) ) ;
#77 = DIRECTION ( 'NONE',  ( -0.000000000000000000, -0.000000000000000000, 1.000000000000000000 ) ) ;
#78 = DIRECTION ( 'NONE',  ( -0.000000000000000000, 0.000000000000000000, 1.000000000000000000 ) ) ;
#79 = PRODUCT ( '\X2\63a862c967468fde63a5\X0\', '\X2\63a862c967468fde63a5\X0\', '', ( #424 ) ) ;
#80 = EDGE_LOOP ( 'NONE', ( #461, #69 ) ) ;
#81 = ADVANCED_FACE ( 'NONE', ( #1118 ), #616, .F. ) ;
#82 = VERTEX_POINT ( 'NONE', #601 ) ;
#83 = FACE_OUTER_BOUND ( 'NONE', #546, .T. ) ;
#84 = CIRCLE ( 'NONE', #821, 1.000000000000000888 ) ;
#85 = CIRCLE ( 'NONE', #6, 1.600000000000004752 ) ;
#86 = CARTESIAN_POINT ( 'NONE',  ( -70.00000000000002842, -118.2499999999999432, 10.00000000000000000 ) ) ;
#87 = DIRECTION ( 'NONE',  ( 1.000000000000000000, 0.000000000000000000, 0.000000000000000000 ) ) ;
#88 = CIRCLE ( 'NONE', #1232, 3.000000000000000000 ) ;
#89 = CARTESIAN_POINT ( 'NONE',  ( 0.000000000000000000, -51.24999999999995026, 7.000000000000000000 ) ) ;
#90 = AXIS2_PLACEMENT_3D ( 'NONE', #531, #355, #255 ) ;
#91 = ORIENTED_EDGE ( 'NONE', *, *, #872, .F. ) ;
#92 = EDGE_CURVE ( 'NONE', #145, #29, #914, .T. ) ;
#93 = ORIENTED_EDGE ( 'NONE', *, *, #1245, .F. ) ;
#94 = DIRECTION ( 'NONE',  ( -0.000000000000000000, -0.000000000000000000, 1.000000000000000000 ) ) ;
#95 = ADVANCED_FACE ( 'NONE', ( #1015, #222, #924 ), #122, .F. ) ;
#96 = FACE_OUTER_BOUND ( 'NONE', #76, .T. ) ;
#97 = CARTESIAN_POINT ( 'NONE',  ( -10.00000000000000888, -41.24999999999994316, -6.899999999999993250 ) ) ;
#98 = ORIENTED_EDGE ( 'NONE', *, *, #1021, .F. ) ;
#99 = ORIENTED_EDGE ( 'NONE', *, *, #516, .F. ) ;
#100 = CARTESIAN_POINT ( 'NONE',  ( 5.999999999999997335, -121.2499999999999432, 0.000000000000000000 ) ) ;
#101 = EDGE_CURVE ( 'NONE', #201, #602, #1006, .T. ) ;
#102 = DIRECTION ( 'NONE',  ( 1.000000000000000000, 0.000000000000000000, 0.000000000000000000 ) ) ;
#103 = FACE_OUTER_BOUND ( 'NONE', #673, .T. ) ;
#104 = CARTESIAN_POINT ( 'NONE',  ( -64.00000000000001421, -51.24999999999995026, 0.000000000000000000 ) ) ;
#105 = EDGE_LOOP ( 'NONE', ( #1119, #719 ) ) ;
#106 = DIRECTION ( 'NONE',  ( -0.000000000000000000, -0.000000000000000000, 1.000000000000000000 ) ) ;
#107 = CARTESIAN_POINT ( 'NONE',  ( -10.00000000000000888, 5.264621357160437221, -6.899999999999993250 ) ) ;
#108 = AXIS2_PLACEMENT_3D ( 'NONE', #817, #923, #125 ) ;
#109 = AXIS2_PLACEMENT_3D ( 'NONE', #110, #16, #405 ) ;
#110 = CARTESIAN_POINT ( 'NONE',  ( 0.000000000000000000, -111.2499999999999432, 7.000000000000000888 ) ) ;
#111 = AXIS2_PLACEMENT_3D ( 'NONE', #1138, #973, #1225 ) ;
#112 = DIRECTION ( 'NONE',  ( -0.000000000000000000, 0.000000000000000000, 1.000000000000000000 ) ) ;
#113 = AXIS2_PLACEMENT_3D ( 'NONE', #588, #227, #620 ) ;
#114 = EDGE_LOOP ( 'NONE', ( #128, #259, #271, #217 ) ) ;
#115 = CARTESIAN_POINT ( 'NONE',  ( -64.00000000000001421, -51.24999999999995026, 7.000000000000000888 ) ) ;
#116 = DIRECTION ( 'NONE',  ( 0.000000000000000000, -0.000000000000000000, -1.000000000000000000 ) ) ;
#117 = CYLINDRICAL_SURFACE ( 'NONE', #519, 3.000000000000000000 ) ;
#118 = DIRECTION ( 'NONE',  ( -0.000000000000000000, -0.000000000000000000, -1.000000000000000000 ) ) ;
#119 = EDGE_CURVE ( 'NONE', #986, #759, #522, .T. ) ;
#120 = VERTEX_POINT ( 'NONE', #231 ) ;
#121 = DIRECTION ( 'NONE',  ( 0.000000000000000000, 0.000000000000000000, 1.000000000000000000 ) ) ;
#122 = PLANE ( 'NONE',  #1030 ) ;
#123 = VERTEX_POINT ( 'NONE', #1227 ) ;
#124 =( LENGTH_UNIT ( ) NAMED_UNIT ( * ) SI_UNIT ( .MILLI., .METRE. ) );
#125 = DIRECTION ( 'NONE',  ( 1.000000000000000000, 0.000000000000000000, 0.000000000000000000 ) ) ;
#126 = DIRECTION ( 'NONE',  ( 1.000000000000000000, 0.000000000000000000, 0.000000000000000000 ) ) ;
#127 = AXIS2_PLACEMENT_3D ( 'NONE', #142, #1131, #328 ) ;
#128 = ORIENTED_EDGE ( 'NONE', *, *, #362, .F. ) ;
#129 = ADVANCED_FACE ( 'NONE', ( #27 ), #1122, .F. ) ;
#130 = AXIS2_PLACEMENT_3D ( 'NONE', #143, #876, #1236 ) ;
#131 = CIRCLE ( 'NONE', #867, 3.000000000000000000 ) ;
#132 = EDGE_CURVE ( 'NONE', #123, #120, #1213, .T. ) ;
#133 =( NAMED_UNIT ( * ) SI_UNIT ( $, .STERADIAN. ) SOLID_ANGLE_UNIT ( ) );
#134 = FACE_BOUND ( 'NONE', #53, .T. ) ;
#135 = FACE_BOUND ( 'NONE', #156, .T. ) ;
#136 = ORIENTED_EDGE ( 'NONE', *, *, #530, .F. ) ;
#137 = DIRECTION ( 'NONE',  ( 0.000000000000000000, 0.000000000000000000, 1.000000000000000000 ) ) ;
#138 = DIRECTION ( 'NONE',  ( -0.000000000000000000, 0.000000000000000000, 1.000000000000000000 ) ) ;
#139 = ADVANCED_FACE ( 'NONE', ( #932, #313, #17, #422, #135, #1223 ), #330, .T. ) ;
#140 = CYLINDRICAL_SURFACE ( 'NONE', #90, 1.600000000000004086 ) ;
#141 = ORIENTED_EDGE ( 'NONE', *, *, #35, .F. ) ;
#142 = CARTESIAN_POINT ( 'NONE',  ( -13.00000000000001066, -41.24999999999994316, -3.899999999999992806 ) ) ;
#143 = CARTESIAN_POINT ( 'NONE',  ( 0.000000000000000000, -51.24999999999995026, 7.000000000000000888 ) ) ;
#144 = FACE_OUTER_BOUND ( 'NONE', #808, .T. ) ;
#145 = VERTEX_POINT ( 'NONE', #708 ) ;
#146 = VECTOR ( 'NONE', #699, 1000.000000000000000 ) ;
#147 = ORIENTED_EDGE ( 'NONE', *, *, #844, .T. ) ;
#148 = AXIS2_PLACEMENT_3D ( 'NONE', #1205, #1000, #1106 ) ;
#149 = AXIS2_PLACEMENT_3D ( 'NONE', #55, #870, #544 ) ;
#150 = CARTESIAN_POINT ( 'NONE',  ( -65.60000000000002274, -51.24999999999995026, 0.000000000000000000 ) ) ;
#151 = ORIENTED_EDGE ( 'NONE', *, *, #669, .F. ) ;
#152 = ORIENTED_EDGE ( 'NONE', *, *, #728, .F. ) ;
#153 = EDGE_CURVE ( 'NONE', #472, #680, #835, .T. ) ;
#154 = DIRECTION ( 'NONE',  ( -0.000000000000000000, -0.000000000000000000, 1.000000000000000000 ) ) ;
#155 = LINE ( 'NONE', #73, #776 ) ;
#156 = EDGE_LOOP ( 'NONE', ( #269, #1249 ) ) ;
#157 = ORIENTED_EDGE ( 'NONE', *, *, #400, .F. ) ;
#158 = ORIENTED_EDGE ( 'NONE', *, *, #208, .F. ) ;
#159 = EDGE_CURVE ( 'NONE', #196, #820, #1234, .T. ) ;
#160 = DIRECTION ( 'NONE',  ( -0.000000000000000000, 0.000000000000000000, 1.000000000000000000 ) ) ;
#161 = FACE_OUTER_BOUND ( 'NONE', #762, .T. ) ;
#162 = ORIENTED_EDGE ( 'NONE', *, *, #1040, .F. ) ;
#163 = ORIENTED_EDGE ( 'NONE', *, *, #357, .T. ) ;
#164 = DIRECTION ( 'NONE',  ( -0.000000000000000000, -0.000000000000000000, -1.000000000000000000 ) ) ;
#165 = AXIS2_PLACEMENT_3D ( 'NONE', #811, #904, #193 ) ;
#166 = VECTOR ( 'NONE', #848, 1000.000000000000000 ) ;
#167 = EDGE_CURVE ( 'NONE', #856, #63, #372, .T. ) ;
#168 = AXIS2_PLACEMENT_3D ( 'NONE', #1036, #160, #1047 ) ;
#169 = VECTOR ( 'NONE', #1264, 1000.000000000000000 ) ;
#170 = CARTESIAN_POINT ( 'NONE',  ( -73.00000000000004263, 0.000000000000000000, 0.000000000000000000 ) ) ;
#171 = CARTESIAN_POINT ( 'NONE',  ( -64.00000000000001421, -111.2499999999999432, 7.000000000000000000 ) ) ;
#172 = VERTEX_POINT ( 'NONE', #1208 ) ;
#173 = ORIENTED_EDGE ( 'NONE', *, *, #1187, .F. ) ;
#174 = FACE_OUTER_BOUND ( 'NONE', #1228, .T. ) ;
#175 = EDGE_CURVE ( 'NONE', #258, #949, #450, .T. ) ;
#176 = CARTESIAN_POINT ( 'NONE',  ( -64.00000000000001421, -111.2499999999999432, 7.000000000000000000 ) ) ;
#177 = FACE_OUTER_BOUND ( 'NONE', #541, .T. ) ;
#178 = CARTESIAN_POINT ( 'NONE',  ( -54.00000000000003553, -41.24999999999994316, -6.899999999999993250 ) ) ;
#179 = ORIENTED_EDGE ( 'NONE', *, *, #915, .F. ) ;
#180 = CARTESIAN_POINT ( 'NONE',  ( -70.00000000000002842, -118.2499999999999432, 0.000000000000000000 ) ) ;
#181 = FACE_OUTER_BOUND ( 'NONE', #24, .T. ) ;
#182 = EDGE_CURVE ( 'NONE', #602, #389, #131, .T. ) ;
#183 = CARTESIAN_POINT ( 'NONE',  ( 0.000000000000000000, -41.24999999999994316, 10.00000000000000000 ) ) ;
#184 = ORIENTED_EDGE ( 'NONE', *, *, #119, .F. ) ;
#185 = ORIENTED_EDGE ( 'NONE', *, *, #516, .T. ) ;
#186 = ADVANCED_FACE ( 'NONE', ( #747 ), #1057, .F. ) ;
#187 = ORIENTED_EDGE ( 'NONE', *, *, #1052, .F. ) ;
#188 = FACE_OUTER_BOUND ( 'NONE', #377, .T. ) ;
#189 = AXIS2_PLACEMENT_3D ( 'NONE', #600, #898, #794 ) ;
#190 = FACE_BOUND ( 'NONE', #577, .T. ) ;
#191 = DIRECTION ( 'NONE',  ( 1.000000000000000000, 0.000000000000000000, 0.000000000000000000 ) ) ;
#192 = AXIS2_PLACEMENT_3D ( 'NONE', #180, #534, #945 ) ;
#193 = DIRECTION ( 'NONE',  ( 1.000000000000000000, 0.000000000000000000, 0.000000000000000000 ) ) ;
#194 = CIRCLE ( 'NONE', #216, 1.000000000000000888 ) ;
#195 = ORIENTED_EDGE ( 'NONE', *, *, #1004, .F. ) ;
#196 = VERTEX_POINT ( 'NONE', #940 ) ;
#197 = CARTESIAN_POINT ( 'NONE',  ( -1.599999999999991651, -51.24999999999995026, -6.899999999999991473 ) ) ;
#198 = DIRECTION ( 'NONE',  ( -0.000000000000000000, 1.000000000000000000, -0.000000000000000000 ) ) ;
#199 = DIRECTION ( 'NONE',  ( -0.000000000000000000, -0.000000000000000000, 1.000000000000000000 ) ) ;
#200 = ORIENTED_EDGE ( 'NONE', *, *, #449, .T. ) ;
#201 = VERTEX_POINT ( 'NONE', #947 ) ;
#202 = CARTESIAN_POINT ( 'NONE',  ( -3.000000000000000000, -51.24999999999995026, 7.000000000000000000 ) ) ;
#203 = FACE_OUTER_BOUND ( 'NONE', #1259, .T. ) ;
#204 = DIRECTION ( 'NONE',  ( 0.000000000000000000, -1.000000000000000000, 0.000000000000000000 ) ) ;
#205 = CARTESIAN_POINT ( 'NONE',  ( -64.00000000000001421, -111.2499999999999432, 0.000000000000000000 ) ) ;
#206 = ORIENTED_EDGE ( 'NONE', *, *, #744, .T. ) ;
#207 = FACE_OUTER_BOUND ( 'NONE', #783, .T. ) ;
#208 = EDGE_CURVE ( 'NONE', #696, #790, #734, .T. ) ;
#209 = DIRECTION ( 'NONE',  ( 1.000000000000000000, 0.000000000000000000, 0.000000000000000000 ) ) ;
#210 = CARTESIAN_POINT ( 'NONE',  ( -67.00000000000001421, -111.2499999999999432, 7.000000000000000000 ) ) ;
#211 = EDGE_CURVE ( 'NONE', #921, #407, #1157, .T. ) ;
#212 = AXIS2_PLACEMENT_3D ( 'NONE', #1002, #1093, #491 ) ;
#213 = DIRECTION ( 'NONE',  ( -0.000000000000000000, -0.000000000000000000, 1.000000000000000000 ) ) ;
#214 = CIRCLE ( 'NONE', #583, 1.600000000000004086 ) ;
#215 = CARTESIAN_POINT ( 'NONE',  ( -51.00000000000002842, 5.264621357160437221, -6.899999999999993250 ) ) ;
#216 = AXIS2_PLACEMENT_3D ( 'NONE', #905, #292, #685 ) ;
#217 = ORIENTED_EDGE ( 'NONE', *, *, #325, .T. ) ;
#218 = DIRECTION ( 'NONE',  ( 1.000000000000000000, 0.000000000000000000, 0.000000000000000000 ) ) ;
#219 = DIRECTION ( 'NONE',  ( 1.000000000000000000, 0.000000000000000000, -0.000000000000000000 ) ) ;
#221 = EDGE_CURVE ( 'NONE', #641, #172, #860, .T. ) ;
#220 = CARTESIAN_POINT ( 'NONE',  ( -64.00000000000001421, -51.24999999999995026, 7.000000000000000888 ) ) ;
#222 = FACE_BOUND ( 'NONE', #865, .T. ) ;
#223 = ORIENTED_EDGE ( 'NONE', *, *, #567, .T. ) ;
#224 = FACE_BOUND ( 'NONE', #11, .T. ) ;
#225 = CARTESIAN_POINT ( 'NONE',  ( 5.999999999999997335, -44.24999999999995026, 0.000000000000000000 ) ) ;
#226 = EDGE_CURVE ( 'NONE', #515, #850, #954, .T. ) ;
#227 = DIRECTION ( 'NONE',  ( -0.000000000000000000, -0.000000000000000000, 1.000000000000000000 ) ) ;
#228 = VERTEX_POINT ( 'NONE', #854 ) ;
#229 = EDGE_CURVE ( 'NONE', #820, #196, #1274, .T. ) ;
#230 = DIRECTION ( 'NONE',  ( -0.000000000000000000, 0.000000000000000000, 1.000000000000000000 ) ) ;
#231 = CARTESIAN_POINT ( 'NONE',  ( -51.00000000000002842, -41.24999999999994316, -6.899999999999993250 ) ) ;
#232 = CIRCLE ( 'NONE', #109, 1.600000000000004752 ) ;
#233 = ORIENTED_EDGE ( 'NONE', *, *, #395, .T. ) ;
#234 = AXIS2_PLACEMENT_3D ( 'NONE', #51, #345, #249 ) ;
#235 = EDGE_CURVE ( 'NONE', #1080, #472, #716, .T. ) ;
#236 = CIRCLE ( 'NONE', #1133, 1.599999999999991651 ) ;
#237 = SHAPE_DEFINITION_REPRESENTATION ( #978, #322 ) ;
#238 = LINE ( 'NONE', #746, #1114 ) ;
#239 = CARTESIAN_POINT ( 'NONE',  ( -10.00000000000000533, 5.264621357160437221, -0.9999999999999920064 ) ) ;
#240 = ORIENTED_EDGE ( 'NONE', *, *, #1097, .T. ) ;
#241 = EDGE_CURVE ( 'NONE', #532, #1193, #842, .T. ) ;
#242 = FACE_BOUND ( 'NONE', #341, .T. ) ;
#243 = DIRECTION ( 'NONE',  ( 1.000000000000000000, 0.000000000000000000, 0.000000000000000000 ) ) ;
#244 = DIRECTION ( 'NONE',  ( -0.000000000000000000, 0.000000000000000000, 1.000000000000000000 ) ) ;
#245 = EDGE_LOOP ( 'NONE', ( #91, #1074, #596, #442 ) ) ;
#246 = ORIENTED_EDGE ( 'NONE', *, *, #1284, .F. ) ;
#247 = DIRECTION ( 'NONE',  ( 1.000000000000000000, 0.000000000000000000, 0.000000000000000000 ) ) ;
#248 = EDGE_CURVE ( 'NONE', #250, #1020, #1046, .T. ) ;
#249 = DIRECTION ( 'NONE',  ( 0.000000000000000000, 0.000000000000000000, -1.000000000000000000 ) ) ;
#250 = VERTEX_POINT ( 'NONE', #751 ) ;
#251 = ORIENTED_EDGE ( 'NONE', *, *, #159, .T. ) ;
#252 = VECTOR ( 'NONE', #1003, 1000.000000000000000 ) ;
#253 = AXIS2_PLACEMENT_3D ( 'NONE', #257, #348, #1163 ) ;
#254 = VECTOR ( 'NONE', #388, 1000.000000000000000 ) ;
#255 = DIRECTION ( 'NONE',  ( 1.000000000000000000, 0.000000000000000000, 0.000000000000000000 ) ) ;
#256 = ADVANCED_FACE ( 'NONE', ( #843 ), #140, .F. ) ;
#257 = CARTESIAN_POINT ( 'NONE',  ( -64.00000000000001421, -111.2499999999999432, 7.000000000000000888 ) ) ;
#258 = VERTEX_POINT ( 'NONE', #1143 ) ;
#259 = ORIENTED_EDGE ( 'NONE', *, *, #738, .F. ) ;
#260 = DIRECTION ( 'NONE',  ( 0.000000000000000000, -1.000000000000000000, 0.000000000000000000 ) ) ;
#261 = EDGE_CURVE ( 'NONE', #527, #1020, #1237, .T. ) ;
#262 = DIRECTION ( 'NONE',  ( -0.000000000000000000, -0.000000000000000000, 1.000000000000000000 ) ) ;
#263 = VERTEX_POINT ( 'NONE', #150 ) ;
#264 = EDGE_LOOP ( 'NONE', ( #866, #777, #879, #1113 ) ) ;
#265 = ORIENTED_EDGE ( 'NONE', *, *, #1194, .F. ) ;
#266 = ADVANCED_FACE ( 'NONE', ( #340 ), #961, .T. ) ;
#267 = DIRECTION ( 'NONE',  ( 1.000000000000000000, 0.000000000000000000, 0.000000000000000000 ) ) ;
#268 = DIRECTION ( 'NONE',  ( -0.000000000000000000, 0.000000000000000000, 1.000000000000000000 ) ) ;
#269 = ORIENTED_EDGE ( 'NONE', *, *, #414, .F. ) ;
#270 = ORIENTED_EDGE ( 'NONE', *, *, #738, .T. ) ;
#271 = ORIENTED_EDGE ( 'NONE', *, *, #92, .T. ) ;
#272 = CARTESIAN_POINT ( 'NONE',  ( -55.00000000000003553, -41.24999999999994316, -3.469446951953614189E-15 ) ) ;
#273 = ADVANCED_FACE ( 'NONE', ( #459 ), #1134, .F. ) ;
#274 = VECTOR ( 'NONE', #23, 1000.000000000000000 ) ;
#275 = CARTESIAN_POINT ( 'NONE',  ( -64.00000000000001421, -111.2499999999999432, 10.00000000000000000 ) ) ;
#276 = DIRECTION ( 'NONE',  ( -0.000000000000000000, -0.000000000000000000, 1.000000000000000000 ) ) ;
#277 = ORIENTED_EDGE ( 'NONE', *, *, #697, .T. ) ;
#278 = ORIENTED_EDGE ( 'NONE', *, *, #509, .T. ) ;
#279 = CARTESIAN_POINT ( 'NONE',  ( -62.40000000000001279, -51.24999999999995026, -6.899999999999991473 ) ) ;
#280 = ADVANCED_FACE ( 'NONE', ( #144 ), #535, .F. ) ;
#281 = DIRECTION ( 'NONE',  ( -0.000000000000000000, 1.000000000000000000, -0.000000000000000000 ) ) ;
#282 = LINE ( 'NONE', #676, #797 ) ;
#283 = CYLINDRICAL_SURFACE ( 'NONE', #477, 3.000000000000000000 ) ;
#284 = ORIENTED_EDGE ( 'NONE', *, *, #1226, .F. ) ;
#285 = ORIENTED_EDGE ( 'NONE', *, *, #1268, .T. ) ;
#286 = ORIENTED_EDGE ( 'NONE', *, *, #408, .T. ) ;
#287 = CARTESIAN_POINT ( 'NONE',  ( -65.60000000000002274, -111.2499999999999432, 0.000000000000000000 ) ) ;
#288 = CARTESIAN_POINT ( 'NONE',  ( -10.00000000000000711, -121.2499999999999432, -3.899999999999994582 ) ) ;
#289 = CARTESIAN_POINT ( 'NONE',  ( -64.00000000000001421, -51.24999999999995026, 7.000000000000000000 ) ) ;
#291 = ADVANCED_FACE ( 'NONE', ( #1162 ), #364, .F. ) ;
#290 = CARTESIAN_POINT ( 'NONE',  ( -73.00000000000004263, -118.2499999999999432, 10.00000000000000000 ) ) ;
#292 = DIRECTION ( 'NONE',  ( 0.000000000000000000, 1.000000000000000000, 0.000000000000000000 ) ) ;
#293 = ORIENTED_EDGE ( 'NONE', *, *, #357, .F. ) ;
#294 = CARTESIAN_POINT ( 'NONE',  ( -54.00000000000003553, 5.264621357160437221, -1.000000000000004441 ) ) ;
#295 = AXIS2_PLACEMENT_3D ( 'NONE', #740, #566, #1075 ) ;
#296 = CIRCLE ( 'NONE', #1190, 1.600000000000004086 ) ;
#297 = CARTESIAN_POINT ( 'NONE',  ( -70.00000000000002842, -121.2499999999999432, 10.00000000000000000 ) ) ;
#298 = DIRECTION ( 'NONE',  ( 1.000000000000000000, 0.000000000000000000, 0.000000000000000000 ) ) ;
#299 = AXIS2_PLACEMENT_3D ( 'NONE', #901, #1099, #2 ) ;
#300 = DIRECTION ( 'NONE',  ( 0.000000000000000000, 0.000000000000000000, -1.000000000000000000 ) ) ;
#301 = AXIS2_PLACEMENT_3D ( 'NONE', #1241, #441, #645 ) ;
#302 = ORIENTED_EDGE ( 'NONE', *, *, #153, .F. ) ;
#303 = ORIENTED_EDGE ( 'NONE', *, *, #598, .T. ) ;
#304 = CARTESIAN_POINT ( 'NONE',  ( -54.00000000000003553, -121.2499999999999432, -6.899999999999993250 ) ) ;
#305 = CARTESIAN_POINT ( 'NONE',  ( -51.00000000000002842, -41.24999999999994316, -3.899999999999992806 ) ) ;
#306 = DIRECTION ( 'NONE',  ( -0.000000000000000000, -0.000000000000000000, -1.000000000000000000 ) ) ;
#307 = LINE ( 'NONE', #702, #437 ) ;
#308 = ORIENTED_EDGE ( 'NONE', *, *, #221, .F. ) ;
#309 = DIRECTION ( 'NONE',  ( -0.000000000000000000, -1.000000000000000000, -0.000000000000000000 ) ) ;
#310 = EDGE_CURVE ( 'NONE', #742, #1123, #891, .T. ) ;
#311 = LINE ( 'NONE', #1206, #252 ) ;
#312 = FACE_OUTER_BOUND ( 'NONE', #314, .T. ) ;
#313 = FACE_BOUND ( 'NONE', #75, .T. ) ;
#314 = EDGE_LOOP ( 'NONE', ( #1159, #1135, #992, #621 ) ) ;
#315 = EDGE_CURVE ( 'NONE', #467, #850, #609, .T. ) ;
#316 = DIRECTION ( 'NONE',  ( 1.000000000000000000, 0.000000000000000000, 0.000000000000000000 ) ) ;
#317 = AXIS2_PLACEMENT_3D ( 'NONE', #533, #49, #528 ) ;
#318 = LINE ( 'NONE', #97, #454 ) ;
#319 = DIRECTION ( 'NONE',  ( -0.000000000000000000, 0.000000000000000000, 1.000000000000000000 ) ) ;
#320 = VECTOR ( 'NONE', #154, 1000.000000000000000 ) ;
#321 = ORIENTED_EDGE ( 'NONE', *, *, #1194, .T. ) ;
#322 = ADVANCED_BREP_SHAPE_REPRESENTATION ( '\X2\63a862c967468fde63a5\X0\', ( #868, #607 ), #64 ) ;
#323 = LINE ( 'NONE', #729, #417 ) ;
#324 = CARTESIAN_POINT ( 'NONE',  ( -70.00000000000002842, -121.2499999999999432, 10.00000000000000000 ) ) ;
#325 = EDGE_CURVE ( 'NONE', #29, #1105, #561, .T. ) ;
#326 = DIRECTION ( 'NONE',  ( -0.000000000000000000, -0.000000000000000000, 1.000000000000000000 ) ) ;
#327 = ORIENTED_EDGE ( 'NONE', *, *, #1136, .T. ) ;
#328 = DIRECTION ( 'NONE',  ( 0.000000000000000000, 0.000000000000000000, 1.000000000000000000 ) ) ;
#329 = FACE_OUTER_BOUND ( 'NONE', #756, .T. ) ;
#330 = PLANE ( 'NONE',  #1032 ) ;
#331 = ORIENTED_EDGE ( 'NONE', *, *, #74, .T. ) ;
#332 = LINE ( 'NONE', #425, #166 ) ;
#333 = DIRECTION ( 'NONE',  ( 0.000000000000000000, -1.000000000000000000, 0.000000000000000000 ) ) ;
#334 = AXIS2_PLACEMENT_3D ( 'NONE', #1101, #574, #980 ) ;
#335 = AXIS2_PLACEMENT_3D ( 'NONE', #344, #1035, #1039 ) ;
#336 = EDGE_LOOP ( 'NONE', ( #618, #993 ) ) ;
#337 = CIRCLE ( 'NONE', #1067, 1.600000000000004086 ) ;
#338 = FACE_OUTER_BOUND ( 'NONE', #245, .T. ) ;
#339 = CARTESIAN_POINT ( 'NONE',  ( 5.999999999999997335, -118.2499999999999432, 10.00000000000000000 ) ) ;
#340 = FACE_OUTER_BOUND ( 'NONE', #1055, .T. ) ;
#341 = EDGE_LOOP ( 'NONE', ( #722, #999 ) ) ;
#342 = ORIENTED_EDGE ( 'NONE', *, *, #175, .T. ) ;
#343 = ADVANCED_FACE ( 'NONE', ( #1076, #903 ), #780, .T. ) ;
#344 = CARTESIAN_POINT ( 'NONE',  ( -32.00000000000001421, -81.24999999999994316, -6.899999999999993250 ) ) ;
#345 = DIRECTION ( 'NONE',  ( 0.000000000000000000, -1.000000000000000000, 0.000000000000000000 ) ) ;
#346 = EDGE_LOOP ( 'NONE', ( #61, #799, #851, #709 ) ) ;
#347 = CARTESIAN_POINT ( 'NONE',  ( 0.000000000000000000, -51.24999999999995026, 0.000000000000000000 ) ) ;
#348 = DIRECTION ( 'NONE',  ( -0.000000000000000000, -0.000000000000000000, -1.000000000000000000 ) ) ;
#349 = ORIENTED_EDGE ( 'NONE', *, *, #859, .T. ) ;
#350 = ORIENTED_EDGE ( 'NONE', *, *, #953, .F. ) ;
#351 = CIRCLE ( 'NONE', #689, 3.000000000000000000 ) ;
#352 = AXIS2_PLACEMENT_3D ( 'NONE', #989, #137, #1120 ) ;
#353 = AXIS2_PLACEMENT_3D ( 'NONE', #429, #363, #243 ) ;
#354 = EDGE_CURVE ( 'NONE', #1105, #29, #12, .T. ) ;
#355 = DIRECTION ( 'NONE',  ( -0.000000000000000000, -0.000000000000000000, 1.000000000000000000 ) ) ;
#357 = EDGE_CURVE ( 'NONE', #1183, #949, #683, .T. ) ;
#356 = SURFACE_STYLE_FILL_AREA ( #871 ) ;
#358 = VERTEX_POINT ( 'NONE', #480 ) ;
#359 = ORIENTED_EDGE ( 'NONE', *, *, #725, .T. ) ;
#360 = CARTESIAN_POINT ( 'NONE',  ( -3.000000000000000000, -51.24999999999995026, 7.000000000000000000 ) ) ;
#361 = CARTESIAN_POINT ( 'NONE',  ( 5.999999999999997335, -44.24999999999995026, 10.00000000000000000 ) ) ;
#362 = EDGE_CURVE ( 'NONE', #757, #1105, #1094, .T. ) ;
#363 = DIRECTION ( 'NONE',  ( -0.000000000000000000, -0.000000000000000000, 1.000000000000000000 ) ) ;
#364 = CYLINDRICAL_SURFACE ( 'NONE', #1130, 3.000000000000002665 ) ;
#365 = CYLINDRICAL_SURFACE ( 'NONE', #1027, 3.000000000000002665 ) ;
#366 = ORIENTED_EDGE ( 'NONE', *, *, #226, .F. ) ;
#367 = DIRECTION ( 'NONE',  ( 1.000000000000000000, 0.000000000000000000, 0.000000000000000000 ) ) ;
#368 = VERTEX_POINT ( 'NONE', #1064 ) ;
#369 = CARTESIAN_POINT ( 'NONE',  ( -64.00000000000001421, -111.2499999999999432, 7.000000000000000888 ) ) ;
#370 = AXIS2_PLACEMENT_3D ( 'NONE', #107, #912, #410 ) ;
#371 = AXIS2_PLACEMENT_3D ( 'NONE', #384, #908, #979 ) ;
#372 = CIRCLE ( 'NONE', #825, 1.599999999999991651 ) ;
#373 = DIRECTION ( 'NONE',  ( -0.000000000000000000, 0.000000000000000000, 1.000000000000000000 ) ) ;
#374 = CARTESIAN_POINT ( 'NONE',  ( -1.599999999999991651, -51.24999999999995026, 7.000000000000000888 ) ) ;
#375 = ORIENTED_EDGE ( 'NONE', *, *, #1052, .T. ) ;
#376 = ORIENTED_EDGE ( 'NONE', *, *, #490, .F. ) ;
#377 = EDGE_LOOP ( 'NONE', ( #427, #157, #56, #654 ) ) ;
#378 = FACE_OUTER_BOUND ( 'NONE', #983, .T. ) ;
#379 = ADVANCED_FACE ( 'NONE', ( #897 ), #492, .T. ) ;
#380 = CARTESIAN_POINT ( 'NONE',  ( 0.000000000000000000, -51.24999999999995026, 10.00000000000000000 ) ) ;
#381 = CARTESIAN_POINT ( 'NONE',  ( -70.00000000000002842, -44.24999999999995026, 0.000000000000000000 ) ) ;
#382 = ORIENTED_EDGE ( 'NONE', *, *, #767, .T. ) ;
#383 = ORIENTED_EDGE ( 'NONE', *, *, #159, .F. ) ;
#384 = CARTESIAN_POINT ( 'NONE',  ( -70.00000000000002842, -44.24999999999995026, 10.00000000000000000 ) ) ;
#385 = CARTESIAN_POINT ( 'NONE',  ( -61.00000000000001421, -111.2499999999999432, 7.000000000000000000 ) ) ;
#386 = DIRECTION ( 'NONE',  ( 0.000000000000000000, -1.000000000000000000, 0.000000000000000000 ) ) ;
#387 = CYLINDRICAL_SURFACE ( 'NONE', #1147, 3.000000000000000000 ) ;
#388 = DIRECTION ( 'NONE',  ( 1.000000000000000000, 0.000000000000000000, 0.000000000000000000 ) ) ;
#389 = VERTEX_POINT ( 'NONE', #793 ) ;
#390 = LINE ( 'NONE', #688, #606 ) ;
#391 = AXIS2_PLACEMENT_3D ( 'NONE', #720, #121, #416 ) ;
#392 = AXIS2_PLACEMENT_3D ( 'NONE', #806, #481, #1201 ) ;
#393 = AXIS2_PLACEMENT_3D ( 'NONE', #988, #94, #484 ) ;
#394 = CARTESIAN_POINT ( 'NONE',  ( 0.000000000000000000, -111.2499999999999432, 0.000000000000000000 ) ) ;
#395 = EDGE_CURVE ( 'NONE', #680, #228, #883, .T. ) ;
#396 = FACE_BOUND ( 'NONE', #925, .T. ) ;
#397 = PLANE ( 'NONE',  #392 ) ;
#398 = AXIS2_PLACEMENT_3D ( 'NONE', #183, #974, #575 ) ;
#399 = CARTESIAN_POINT ( 'NONE',  ( 0.000000000000000000, -41.24999999999994316, 0.000000000000000000 ) ) ;
#400 = EDGE_CURVE ( 'NONE', #1193, #532, #236, .T. ) ;
#401 = ORIENTED_EDGE ( 'NONE', *, *, #449, .F. ) ;
#402 = CYLINDRICAL_SURFACE ( 'NONE', #371, 3.000000000000002665 ) ;
#403 = CARTESIAN_POINT ( 'NONE',  ( -55.00000000000003553, -121.2499999999999432, -1.000000000000004441 ) ) ;
#404 = CARTESIAN_POINT ( 'NONE',  ( -25.75000000000001421, -81.24999999999994316, 10.00000000000000000 ) ) ;
#405 = DIRECTION ( 'NONE',  ( 1.000000000000000000, 0.000000000000000000, 0.000000000000000000 ) ) ;
#406 = CARTESIAN_POINT ( 'NONE',  ( 0.000000000000000000, -51.24999999999995026, 7.000000000000000888 ) ) ;
#407 = VERTEX_POINT ( 'NONE', #72 ) ;
#408 = EDGE_CURVE ( 'NONE', #602, #1220, #470, .T. ) ;
#409 = DIRECTION ( 'NONE',  ( 1.000000000000000000, 0.000000000000000000, 0.000000000000000000 ) ) ;
#410 = DIRECTION ( 'NONE',  ( -5.880418562633244003E-16, 0.000000000000000000, -1.000000000000000000 ) ) ;
#411 = CARTESIAN_POINT ( 'NONE',  ( 0.000000000000000000, -111.2499999999999432, 7.000000000000000000 ) ) ;
#412 = DIRECTION ( 'NONE',  ( -0.000000000000000000, -0.000000000000000000, 1.000000000000000000 ) ) ;
#413 = ORIENTED_EDGE ( 'NONE', *, *, #490, .T. ) ;
#414 = EDGE_CURVE ( 'NONE', #527, #468, #498, .T. ) ;
#415 = EDGE_CURVE ( 'NONE', #552, #847, #282, .T. ) ;
#416 = DIRECTION ( 'NONE',  ( 1.000000000000000000, 0.000000000000000000, 0.000000000000000000 ) ) ;
#417 = VECTOR ( 'NONE', #1124, 1000.000000000000000 ) ;
#418 = CARTESIAN_POINT ( 'NONE',  ( 1.599999999999991651, -51.24999999999995026, 7.000000000000000888 ) ) ;
#419 = AXIS2_PLACEMENT_3D ( 'NONE', #33, #333, #726 ) ;
#420 = ORIENTED_EDGE ( 'NONE', *, *, #1229, .T. ) ;
#421 = CARTESIAN_POINT ( 'NONE',  ( -73.00000000000004263, -44.24999999999995026, 10.00000000000000000 ) ) ;
#422 = FACE_BOUND ( 'NONE', #1060, .T. ) ;
#423 = ORIENTED_EDGE ( 'NONE', *, *, #15, .F. ) ;
#424 = PRODUCT_CONTEXT ( 'NONE', #902, 'mechanical' ) ;
#425 = CARTESIAN_POINT ( 'NONE',  ( -54.00000000000003553, 5.264621357160437221, -3.899999999999992806 ) ) ;
#426 = DIRECTION ( 'NONE',  ( 1.000000000000000000, 0.000000000000000000, 0.000000000000000000 ) ) ;
#427 = ORIENTED_EDGE ( 'NONE', *, *, #787, .F. ) ;
#428 = CARTESIAN_POINT ( 'NONE',  ( -3.000000000000000000, -111.2499999999999432, 10.00000000000000000 ) ) ;
#429 = CARTESIAN_POINT ( 'NONE',  ( -64.00000000000001421, -111.2499999999999432, 7.000000000000000000 ) ) ;
#430 = EDGE_CURVE ( 'NONE', #483, #1177, #786, .T. ) ;
#431 = DIRECTION ( 'NONE',  ( -0.000000000000000000, -0.000000000000000000, 1.000000000000000000 ) ) ;
#432 = VECTOR ( 'NONE', #460, 1000.000000000000000 ) ;
#433 = CIRCLE ( 'NONE', #861, 3.000000000000002665 ) ;
#434 = EDGE_LOOP ( 'NONE', ( #349, #303, #284, #1016 ) ) ;
#435 = ORIENTED_EDGE ( 'NONE', *, *, #464, .F. ) ;
#436 = EDGE_CURVE ( 'NONE', #949, #552, #84, .T. ) ;
#437 = VECTOR ( 'NONE', #367, 1000.000000000000000 ) ;
#438 = ORIENTED_EDGE ( 'NONE', *, *, #408, .F. ) ;
#439 = CARTESIAN_POINT ( 'NONE',  ( -67.00000000000001421, -51.24999999999995026, 7.000000000000000000 ) ) ;
#440 = DIRECTION ( 'NONE',  ( -0.000000000000000000, -0.000000000000000000, 1.000000000000000000 ) ) ;
#441 = DIRECTION ( 'NONE',  ( -0.000000000000000000, -0.000000000000000000, 1.000000000000000000 ) ) ;
#442 = ORIENTED_EDGE ( 'NONE', *, *, #1107, .F. ) ;
#443 = ORIENTED_EDGE ( 'NONE', *, *, #261, .F. ) ;
#444 = DIRECTION ( 'NONE',  ( -0.000000000000000000, 0.000000000000000000, 1.000000000000000000 ) ) ;
#445 = DIRECTION ( 'NONE',  ( -0.000000000000000000, 0.000000000000000000, -1.000000000000000000 ) ) ;
#446 = ORIENTED_EDGE ( 'NONE', *, *, #101, .T. ) ;
#447 = ADVANCED_FACE ( 'NONE', ( #96 ), #1181, .F. ) ;
#448 = EDGE_LOOP ( 'NONE', ( #286, #1165, #376, #446 ) ) ;
#449 = EDGE_CURVE ( 'NONE', #759, #986, #452, .T. ) ;
#450 = LINE ( 'NONE', #239, #691 ) ;
#451 = ORIENTED_EDGE ( 'NONE', *, *, #509, .F. ) ;
#452 = CIRCLE ( 'NONE', #108, 3.000000000000000000 ) ;
#453 = ORIENTED_EDGE ( 'NONE', *, *, #1088, .F. ) ;
#454 = VECTOR ( 'NONE', #707, 1000.000000000000000 ) ;
#455 = AXIS2_PLACEMENT_3D ( 'NONE', #704, #475, #800 ) ;
#456 = UNCERTAINTY_MEASURE_WITH_UNIT (LENGTH_MEASURE( 1.000000000000000082E-05 ), #1273, 'distance_accuracy_value', 'NONE');
#457 = VECTOR ( 'NONE', #849, 1000.000000000000000 ) ;
#458 = EDGE_CURVE ( 'NONE', #1080, #389, #918, .T. ) ;
#459 = FACE_OUTER_BOUND ( 'NONE', #957, .T. ) ;
#460 = DIRECTION ( 'NONE',  ( -0.000000000000000000, -0.000000000000000000, 1.000000000000000000 ) ) ;
#461 = ORIENTED_EDGE ( 'NONE', *, *, #643, .T. ) ;
#462 = ORIENTED_EDGE ( 'NONE', *, *, #354, .F. ) ;
#463 = DIRECTION ( 'NONE',  ( -0.000000000000000000, 1.000000000000000000, -0.000000000000000000 ) ) ;
#464 = EDGE_CURVE ( 'NONE', #1156, #201, #476, .T. ) ;
#465 = DIRECTION ( 'NONE',  ( -0.000000000000000000, -0.000000000000000000, 1.000000000000000000 ) ) ;
#466 = CARTESIAN_POINT ( 'NONE',  ( 8.999999999999998224, -118.2499999999999432, 0.000000000000000000 ) ) ;
#467 = VERTEX_POINT ( 'NONE', #625 ) ;
#468 = VERTEX_POINT ( 'NONE', #404 ) ;
#469 = DIRECTION ( 'NONE',  ( 0.000000000000000000, 0.000000000000000000, 1.000000000000000000 ) ) ;
#470 = LINE ( 'NONE', #1286, #966 ) ;
#471 = CARTESIAN_POINT ( 'NONE',  ( -70.00000000000002842, -41.24999999999994316, 0.000000000000000000 ) ) ;
#472 = VERTEX_POINT ( 'NONE', #421 ) ;
#473 = ORIENTED_EDGE ( 'NONE', *, *, #787, .T. ) ;
#474 = EDGE_CURVE ( 'NONE', #407, #657, #884, .T. ) ;
#475 = DIRECTION ( 'NONE',  ( 0.000000000000000000, 1.000000000000000000, 0.000000000000000000 ) ) ;
#476 = CIRCLE ( 'NONE', #1007, 3.000000000000000000 ) ;
#477 = AXIS2_PLACEMENT_3D ( 'NONE', #361, #550, #556 ) ;
#478 = VECTOR ( 'NONE', #772, 1000.000000000000000 ) ;
#479 = CARTESIAN_POINT ( 'NONE',  ( -61.00000000000001421, -51.24999999999995026, 7.000000000000000000 ) ) ;
#480 = CARTESIAN_POINT ( 'NONE',  ( -54.00000000000003553, -41.24999999999994316, -3.899999999999992806 ) ) ;
#481 = DIRECTION ( 'NONE',  ( 1.000000000000000000, 0.000000000000000000, -0.000000000000000000 ) ) ;
#482 = ORIENTED_EDGE ( 'NONE', *, *, #31, .T. ) ;
#483 = VERTEX_POINT ( 'NONE', #324 ) ;
#484 = DIRECTION ( 'NONE',  ( 1.000000000000000000, 0.000000000000000000, 0.000000000000000000 ) ) ;
#485 = CARTESIAN_POINT ( 'NONE',  ( 0.000000000000000000, -51.24999999999995026, 0.000000000000000000 ) ) ;
#486 = DIRECTION ( 'NONE',  ( -0.000000000000000000, -0.000000000000000000, 1.000000000000000000 ) ) ;
#487 = CARTESIAN_POINT ( 'NONE',  ( 3.000000000000000000, -51.24999999999995026, 10.00000000000000000 ) ) ;
#488 = ORIENTED_EDGE ( 'NONE', *, *, #119, .T. ) ;
#489 = CARTESIAN_POINT ( 'NONE',  ( -67.00000000000001421, -111.2499999999999432, 10.00000000000000000 ) ) ;
#490 = EDGE_CURVE ( 'NONE', #201, #952, #311, .T. ) ;
#491 = DIRECTION ( 'NONE',  ( 1.000000000000000000, 0.000000000000000000, 0.000000000000000000 ) ) ;
#492 = PLANE ( 'NONE',  #398 ) ;
#493 = EDGE_CURVE ( 'NONE', #120, #358, #982, .T. ) ;
#494 = CYLINDRICAL_SURFACE ( 'NONE', #1231, 3.000000000000000000 ) ;
#495 = DIRECTION ( 'NONE',  ( -0.000000000000000000, 0.000000000000000000, 1.000000000000000000 ) ) ;
#496 = ORIENTED_EDGE ( 'NONE', *, *, #617, .F. ) ;
#497 = FACE_BOUND ( 'NONE', #80, .T. ) ;
#498 = CIRCLE ( 'NONE', #1026, 6.249999999999998224 ) ;
#499 = VECTOR ( 'NONE', #486, 1000.000000000000000 ) ;
#500 = CIRCLE ( 'NONE', #130, 1.599999999999991651 ) ;
#501 = CARTESIAN_POINT ( 'NONE',  ( 0.000000000000000000, -111.2499999999999432, 10.00000000000000000 ) ) ;
#502 = LINE ( 'NONE', #1200, #959 ) ;
#503 = VECTOR ( 'NONE', #412, 1000.000000000000000 ) ;
#505 = ADVANCED_FACE ( 'NONE', ( #329 ), #1125, .T. ) ;
#504 = CARTESIAN_POINT ( 'NONE',  ( -54.00000000000003553, -121.2499999999999432, -1.000000000000004441 ) ) ;
#506 = DIRECTION ( 'NONE',  ( 1.000000000000000000, 0.000000000000000000, 0.000000000000000000 ) ) ;
#507 = ORIENTED_EDGE ( 'NONE', *, *, #647, .T. ) ;
#508 = LINE ( 'NONE', #21, #730 ) ;
#509 = EDGE_CURVE ( 'NONE', #1009, #483, #5, .T. ) ;
#510 = DIRECTION ( 'NONE',  ( 1.000000000000000000, 0.000000000000000000, 0.000000000000000000 ) ) ;
#511 = CARTESIAN_POINT ( 'NONE',  ( 8.999999999999998224, -44.24999999999995026, 10.00000000000000000 ) ) ;
#512 = ORIENTED_EDGE ( 'NONE', *, *, #43, .F. ) ;
#513 = DIRECTION ( 'NONE',  ( 1.000000000000000000, 0.000000000000000000, 0.000000000000000000 ) ) ;
#514 = CARTESIAN_POINT ( 'NONE',  ( 0.000000000000000000, -111.2499999999999432, 7.000000000000000000 ) ) ;
#515 = VERTEX_POINT ( 'NONE', #210 ) ;
#516 = EDGE_CURVE ( 'NONE', #1160, #467, #502, .T. ) ;
#517 = CARTESIAN_POINT ( 'NONE',  ( 0.000000000000000000, 0.000000000000000000, 0.000000000000000000 ) ) ;
#518 = CARTESIAN_POINT ( 'NONE',  ( 0.000000000000000000, -111.2499999999999432, -6.899999999999991473 ) ) ;
#519 = AXIS2_PLACEMENT_3D ( 'NONE', #89, #1110, #684 ) ;
#520 = CIRCLE ( 'NONE', #335, 6.249999999999998224 ) ;
#521 = DIRECTION ( 'NONE',  ( -0.000000000000000000, 1.000000000000000000, -0.000000000000000000 ) ) ;
#522 = CIRCLE ( 'NONE', #584, 3.000000000000000000 ) ;
#523 = EDGE_LOOP ( 'NONE', ( #233, #1248, #971, #1196 ) ) ;
#524 = DIRECTION ( 'NONE',  ( 0.000000000000000000, 0.000000000000000000, 1.000000000000000000 ) ) ;
#525 = PLANE ( 'NONE',  #1089 ) ;
#526 = CARTESIAN_POINT ( 'NONE',  ( 0.000000000000000000, 0.000000000000000000, 10.00000000000000000 ) ) ;
#527 = VERTEX_POINT ( 'NONE', #829 ) ;
#528 = DIRECTION ( 'NONE',  ( 1.000000000000000000, 0.000000000000000000, 0.000000000000000000 ) ) ;
#529 = LINE ( 'NONE', #70, #755 ) ;
#530 = EDGE_CURVE ( 'NONE', #1257, #658, #536, .T. ) ;
#531 = CARTESIAN_POINT ( 'NONE',  ( -64.00000000000001421, -51.24999999999995026, -6.899999999999991473 ) ) ;
#532 = VERTEX_POINT ( 'NONE', #14 ) ;
#533 = CARTESIAN_POINT ( 'NONE',  ( 0.000000000000000000, -111.2499999999999432, -6.899999999999991473 ) ) ;
#534 = DIRECTION ( 'NONE',  ( 0.000000000000000000, -0.000000000000000000, -1.000000000000000000 ) ) ;
#535 = CYLINDRICAL_SURFACE ( 'NONE', #234, 1.000000000000000888 ) ;
#536 = CIRCLE ( 'NONE', #391, 3.000000000000000000 ) ;
#537 = CIRCLE ( 'NONE', #127, 3.000000000000000000 ) ;
#538 = EDGE_CURVE ( 'NONE', #873, #263, #1146, .T. ) ;
#539 = AXIS2_PLACEMENT_3D ( 'NONE', #597, #309, #603 ) ;
#540 = ORIENTED_EDGE ( 'NONE', *, *, #767, .F. ) ;
#541 = EDGE_LOOP ( 'NONE', ( #173, #285, #1127, #636 ) ) ;
#542 = VECTOR ( 'NONE', #735, 1000.000000000000000 ) ;
#543 = ORIENTED_EDGE ( 'NONE', *, *, #1136, .F. ) ;
#544 = DIRECTION ( 'NONE',  ( 1.000000000000000000, 0.000000000000000000, 0.000000000000000000 ) ) ;
#545 = ORIENTED_EDGE ( 'NONE', *, *, #950, .T. ) ;
#546 = EDGE_LOOP ( 'NONE', ( #937, #1238, #1, #321, #964, #942, #1171, #666, #163, #782, #837, #545 ) ) ;
#547 = ORIENTED_EDGE ( 'NONE', *, *, #132, .T. ) ;
#548 = ADVANCED_FACE ( 'NONE', ( #700 ), #1031, .F. ) ;
#549 = CARTESIAN_POINT ( 'NONE',  ( -38.25000000000001421, -81.24999999999994316, 10.00000000000000000 ) ) ;
#550 = DIRECTION ( 'NONE',  ( -0.000000000000000000, 0.000000000000000000, -1.000000000000000000 ) ) ;
#551 = ORIENTED_EDGE ( 'NONE', *, *, #1021, .T. ) ;
#552 = VERTEX_POINT ( 'NONE', #608 ) ;
#553 = ORIENTED_EDGE ( 'NONE', *, *, #686, .T. ) ;
#554 = EDGE_CURVE ( 'NONE', #952, #847, #351, .T. ) ;
#555 = CARTESIAN_POINT ( 'NONE',  ( -70.00000000000002842, -44.24999999999995026, 10.00000000000000000 ) ) ;
#556 = DIRECTION ( 'NONE',  ( -1.000000000000000000, 0.000000000000000000, 0.000000000000000000 ) ) ;
#557 = ORIENTED_EDGE ( 'NONE', *, *, #464, .T. ) ;
#558 = CIRCLE ( 'NONE', #539, 3.000000000000000000 ) ;
#559 = VECTOR ( 'NONE', #721, 1000.000000000000000 ) ;
#560 = CARTESIAN_POINT ( 'NONE',  ( -10.00000000000000711, 5.264621357160437221, -3.899999999999994582 ) ) ;
#561 = CIRCLE ( 'NONE', #736, 3.000000000000000000 ) ;
#562 = DIRECTION ( 'NONE',  ( 1.000000000000000000, 0.000000000000000000, 0.000000000000000000 ) ) ;
#563 = DIRECTION ( 'NONE',  ( 0.000000000000000000, 0.000000000000000000, 1.000000000000000000 ) ) ;
#564 = ORIENTED_EDGE ( 'NONE', *, *, #647, .F. ) ;
#565 = ORIENTED_EDGE ( 'NONE', *, *, #1284, .T. ) ;
#566 = DIRECTION ( 'NONE',  ( -0.000000000000000000, 0.000000000000000000, 1.000000000000000000 ) ) ;
#567 = EDGE_CURVE ( 'NONE', #472, #1009, #508, .T. ) ;
#568 = DIRECTION ( 'NONE',  ( 1.000000000000000000, 0.000000000000000000, 0.000000000000000000 ) ) ;
#570 = ADVANCED_FACE ( 'NONE', ( #203, #134 ), #525, .T. ) ;
#569 = CARTESIAN_POINT ( 'NONE',  ( -1.600000000000004752, -111.2499999999999432, -6.899999999999991473 ) ) ;
#571 = DIRECTION ( 'NONE',  ( 1.000000000000000000, -0.000000000000000000, 0.000000000000000000 ) ) ;
#572 = ORIENTED_EDGE ( 'NONE', *, *, #950, .F. ) ;
#573 = LINE ( 'NONE', #197, #985 ) ;
#574 = DIRECTION ( 'NONE',  ( -0.000000000000000000, -1.000000000000000000, -0.000000000000000000 ) ) ;
#575 = DIRECTION ( 'NONE',  ( 0.000000000000000000, -0.000000000000000000, 1.000000000000000000 ) ) ;
#576 = DIRECTION ( 'NONE',  ( 1.000000000000000000, 0.000000000000000000, -0.000000000000000000 ) ) ;
#577 = EDGE_LOOP ( 'NONE', ( #807, #1081 ) ) ;
#578 = VERTEX_POINT ( 'NONE', #1221 ) ;
#579 = ORIENTED_EDGE ( 'NONE', *, *, #235, .F. ) ;
#580 = CYLINDRICAL_SURFACE ( 'NONE', #393, 1.599999999999991651 ) ;
#581 = AXIS2_PLACEMENT_3D ( 'NONE', #706, #230, #1121 ) ;
#582 = AXIS2_PLACEMENT_3D ( 'NONE', #86, #816, #1179 ) ;
#583 = AXIS2_PLACEMENT_3D ( 'NONE', #369, #164, #41 ) ;
#584 = AXIS2_PLACEMENT_3D ( 'NONE', #514, #718, #426 ) ;
#585 = PLANE ( 'NONE',  #352 ) ;
#586 = DIRECTION ( 'NONE',  ( 1.000000000000000000, 0.000000000000000000, 0.000000000000000000 ) ) ;
#587 = CARTESIAN_POINT ( 'NONE',  ( -62.40000000000001279, -111.2499999999999432, -6.899999999999991473 ) ) ;
#588 = CARTESIAN_POINT ( 'NONE',  ( -64.00000000000001421, -51.24999999999995026, -6.899999999999991473 ) ) ;
#589 = ADVANCED_FACE ( 'NONE', ( #724, #396 ), #1018, .T. ) ;
#590 = ORIENTED_EDGE ( 'NONE', *, *, #915, .T. ) ;
#591 = LINE ( 'NONE', #294, #1272 ) ;
#592 = EDGE_CURVE ( 'NONE', #1193, #63, #1061, .T. ) ;
#593 = CARTESIAN_POINT ( 'NONE',  ( 0.000000000000000000, -121.2499999999999432, 10.00000000000000000 ) ) ;
#594 = CARTESIAN_POINT ( 'NONE',  ( -65.60000000000002274, -111.2499999999999432, -6.899999999999991473 ) ) ;
#595 = CARTESIAN_POINT ( 'NONE',  ( -65.60000000000002274, -111.2499999999999432, 7.000000000000000888 ) ) ;
#596 = ORIENTED_EDGE ( 'NONE', *, *, #211, .T. ) ;
#597 = CARTESIAN_POINT ( 'NONE',  ( -13.00000000000001066, -121.2499999999999432, -3.899999999999992806 ) ) ;
#598 = EDGE_CURVE ( 'NONE', #358, #1043, #332, .T. ) ;
#599 = CARTESIAN_POINT ( 'NONE',  ( 0.000000000000000000, -111.2499999999999432, 7.000000000000000888 ) ) ;
#600 = CARTESIAN_POINT ( 'NONE',  ( -64.00000000000001421, -51.24999999999995026, 10.00000000000000000 ) ) ;
#601 = CARTESIAN_POINT ( 'NONE',  ( -10.00000000000000711, -41.24999999999994316, -3.899999999999994582 ) ) ;
#602 = VERTEX_POINT ( 'NONE', #1173 ) ;
#603 = DIRECTION ( 'NONE',  ( 1.156482317317871331E-15, 0.000000000000000000, 1.000000000000000000 ) ) ;
#604 = CIRCLE ( 'NONE', #798, 3.000000000000002665 ) ;
#605 = EDGE_CURVE ( 'NONE', #20, #846, #214, .T. ) ;
#606 = VECTOR ( 'NONE', #13, 1000.000000000000000 ) ;
#607 = AXIS2_PLACEMENT_3D ( 'NONE', #922, #524, #934 ) ;
#608 = CARTESIAN_POINT ( 'NONE',  ( -9.000000000000005329, -121.2499999999999432, 0.000000000000000000 ) ) ;
#609 = CIRCLE ( 'NONE', #1150, 3.000000000000002665 ) ;
#610 = CARTESIAN_POINT ( 'NONE',  ( -70.00000000000002842, -41.24999999999994316, 10.00000000000000000 ) ) ;
#611 = DIRECTION ( 'NONE',  ( -0.000000000000000000, 0.000000000000000000, -1.000000000000000000 ) ) ;
#612 = ORIENTED_EDGE ( 'NONE', *, *, #436, .F. ) ;
#613 = EDGE_LOOP ( 'NONE', ( #98, #383, #1034, #1243 ) ) ;
#614 = DIRECTION ( 'NONE',  ( 0.000000000000000000, -0.000000000000000000, -1.000000000000000000 ) ) ;
#615 = DIRECTION ( 'NONE',  ( -0.000000000000000000, -0.000000000000000000, 1.000000000000000000 ) ) ;
#616 = CYLINDRICAL_SURFACE ( 'NONE', #1091, 6.249999999999998224 ) ;
#617 = EDGE_CURVE ( 'NONE', #1183, #82, #834, .T. ) ;
#618 = ORIENTED_EDGE ( 'NONE', *, *, #669, .T. ) ;
#619 = DIRECTION ( 'NONE',  ( 0.000000000000000000, 0.000000000000000000, 1.000000000000000000 ) ) ;
#620 = DIRECTION ( 'NONE',  ( 1.000000000000000000, 0.000000000000000000, 0.000000000000000000 ) ) ;
#621 = ORIENTED_EDGE ( 'NONE', *, *, #92, .F. ) ;
#622 = PRODUCT_DEFINITION ( '鏈', '', #1233, #764 ) ;
#623 = DIRECTION ( 'NONE',  ( -0.000000000000000000, 0.000000000000000000, 1.000000000000000000 ) ) ;
#624 = AXIS2_PLACEMENT_3D ( 'NONE', #171, #563, #878 ) ;
#625 = CARTESIAN_POINT ( 'NONE',  ( -61.00000000000001421, -111.2499999999999432, 10.00000000000000000 ) ) ;
#626 = CIRCLE ( 'NONE', #664, 3.000000000000002665 ) ;
#627 = AXIS2_PLACEMENT_3D ( 'NONE', #347, #244, #760 ) ;
#628 = CARTESIAN_POINT ( 'NONE',  ( 0.000000000000000000, 0.000000000000000000, 0.000000000000000000 ) ) ;
#629 = VECTOR ( 'NONE', #660, 1000.000000000000000 ) ;
#630 = ORIENTED_EDGE ( 'NONE', *, *, #458, .T. ) ;
#631 = EDGE_CURVE ( 'NONE', #515, #1160, #433, .T. ) ;
#632 = ADVANCED_FACE ( 'NONE', ( #174 ), #732, .F. ) ;
#633 = PLANE ( 'NONE',  #1063 ) ;
#634 = DIRECTION ( 'NONE',  ( 0.000000000000000000, 0.000000000000000000, 1.000000000000000000 ) ) ;
#635 = DIRECTION ( 'NONE',  ( 0.000000000000000000, 1.000000000000000000, 0.000000000000000000 ) ) ;
#636 = ORIENTED_EDGE ( 'NONE', *, *, #1218, .F. ) ;
#637 = DIRECTION ( 'NONE',  ( 1.000000000000000000, 0.000000000000000000, 0.000000000000000000 ) ) ;
#638 = EDGE_CURVE ( 'NONE', #1220, #952, #529, .T. ) ;
#639 = CARTESIAN_POINT ( 'NONE',  ( -67.00000000000001421, -111.2499999999999432, 7.000000000000000000 ) ) ;
#640 = ORIENTED_EDGE ( 'NONE', *, *, #859, .F. ) ;
#641 = VERTEX_POINT ( 'NONE', #1240 ) ;
#642 = ORIENTED_EDGE ( 'NONE', *, *, #953, .T. ) ;
#643 = EDGE_CURVE ( 'NONE', #1020, #250, #520, .T. ) ;
#644 = CARTESIAN_POINT ( 'NONE',  ( -13.00000000000001066, -41.24999999999994316, -6.899999999999993250 ) ) ;
#645 = DIRECTION ( 'NONE',  ( 1.000000000000000000, 0.000000000000000000, 0.000000000000000000 ) ) ;
#646 = VECTOR ( 'NONE', #586, 1000.000000000000000 ) ;
#647 = EDGE_CURVE ( 'NONE', #1177, #1220, #1169, .T. ) ;
#648 = COLOUR_RGB ( '',0.4980392156862745168, 0.4980392156862745168, 0.4980392156862745168 ) ;
#649 = ORIENTED_EDGE ( 'NONE', *, *, #493, .T. ) ;
#650 = VECTOR ( 'NONE', #1096, 1000.000000000000000 ) ;
#651 = ORIENTED_EDGE ( 'NONE', *, *, #132, .F. ) ;
#652 = DIRECTION ( 'NONE',  ( -0.000000000000000000, -0.000000000000000000, -1.000000000000000000 ) ) ;
#653 = VERTEX_POINT ( 'NONE', #1070 ) ;
#654 = ORIENTED_EDGE ( 'NONE', *, *, #167, .F. ) ;
#655 = CARTESIAN_POINT ( 'NONE',  ( 5.999999999999997335, -44.24999999999995026, 10.00000000000000000 ) ) ;
#656 = CARTESIAN_POINT ( 'NONE',  ( -10.00000000000000533, -121.2499999999999432, -0.9999999999999920064 ) ) ;
#657 = VERTEX_POINT ( 'NONE', #939 ) ;
#658 = VERTEX_POINT ( 'NONE', #935 ) ;
#659 = ORIENTED_EDGE ( 'NONE', *, *, #598, .F. ) ;
#660 = DIRECTION ( 'NONE',  ( -0.000000000000000000, -0.000000000000000000, 1.000000000000000000 ) ) ;
#661 = CARTESIAN_POINT ( 'NONE',  ( 5.999999999999997335, -121.2499999999999432, 10.00000000000000000 ) ) ;
#662 = ORIENTED_EDGE ( 'NONE', *, *, #1142, .F. ) ;
#663 = CIRCLE ( 'NONE', #165, 3.000000000000002665 ) ;
#664 = AXIS2_PLACEMENT_3D ( 'NONE', #681, #1185, #1082 ) ;
#665 = EDGE_CURVE ( 'NONE', #468, #527, #1252, .T. ) ;
#666 = ORIENTED_EDGE ( 'NONE', *, *, #770, .T. ) ;
#667 = AXIS2_PLACEMENT_3D ( 'NONE', #42, #431, #741 ) ;
#668 = CARTESIAN_POINT ( 'NONE',  ( -64.00000000000001421, -111.2499999999999432, 7.000000000000000000 ) ) ;
#669 = EDGE_CURVE ( 'NONE', #45, #881, #690, .T. ) ;
#670 = DIRECTION ( 'NONE',  ( 0.000000000000000000, 0.000000000000000000, 1.000000000000000000 ) ) ;
#671 = DIRECTION ( 'NONE',  ( 1.000000000000000000, 0.000000000000000000, 0.000000000000000000 ) ) ;
#672 = ORIENTED_EDGE ( 'NONE', *, *, #1001, .T. ) ;
#673 = EDGE_LOOP ( 'NONE', ( #401, #765, #763, #195 ) ) ;
#674 = LINE ( 'NONE', #279, #822 ) ;
#675 = DIRECTION ( 'NONE',  ( 0.000000000000000000, 0.000000000000000000, -1.000000000000000000 ) ) ;
#676 = CARTESIAN_POINT ( 'NONE',  ( 0.000000000000000000, -121.2499999999999432, 0.000000000000000000 ) ) ;
#677 = FILL_AREA_STYLE_COLOUR ( '', #648 ) ;
#678 = ORIENTED_EDGE ( 'NONE', *, *, #638, .F. ) ;
#679 = ORIENTED_EDGE ( 'NONE', *, *, #241, .F. ) ;
#680 = VERTEX_POINT ( 'NONE', #779 ) ;
#681 = CARTESIAN_POINT ( 'NONE',  ( -64.00000000000001421, -51.24999999999995026, 10.00000000000000000 ) ) ;
#682 = CYLINDRICAL_SURFACE ( 'NONE', #582, 3.000000000000002665 ) ;
#683 = LINE ( 'NONE', #766, #169 ) ;
#684 = DIRECTION ( 'NONE',  ( 1.000000000000000000, 0.000000000000000000, 0.000000000000000000 ) ) ;
#685 = DIRECTION ( 'NONE',  ( 0.000000000000000000, 0.000000000000000000, 1.000000000000000000 ) ) ;
#686 = EDGE_CURVE ( 'NONE', #873, #578, #674, .T. ) ;
#687 = ORIENTED_EDGE ( 'NONE', *, *, #430, .T. ) ;
#688 = CARTESIAN_POINT ( 'NONE',  ( -9.000000000000007105, 5.264621357160437221, 8.673617379884035472E-15 ) ) ;
#689 = AXIS2_PLACEMENT_3D ( 'NONE', #1102, #116, #930 ) ;
#690 = CIRCLE ( 'NONE', #1065, 3.000000000000002665 ) ;
#691 = VECTOR ( 'NONE', #260, 1000.000000000000000 ) ;
#692 = CARTESIAN_POINT ( 'NONE',  ( -1.600000000000004752, -111.2499999999999432, 0.000000000000000000 ) ) ;
#693 = DIRECTION ( 'NONE',  ( 1.000000000000000000, 0.000000000000000000, -0.000000000000000000 ) ) ;
#694 = LINE ( 'NONE', #610, #753 ) ;
#695 = ORIENTED_EDGE ( 'NONE', *, *, #686, .F. ) ;
#696 = VERTEX_POINT ( 'NONE', #272 ) ;
#697 = EDGE_CURVE ( 'NONE', #63, #856, #500, .T. ) ;
#698 = DIRECTION ( 'NONE',  ( -0.000000000000000000, -0.000000000000000000, 1.000000000000000000 ) ) ;
#699 = DIRECTION ( 'NONE',  ( -0.000000000000000000, 0.000000000000000000, -1.000000000000000000 ) ) ;
#700 = FACE_OUTER_BOUND ( 'NONE', #346, .T. ) ;
#701 = CARTESIAN_POINT ( 'NONE',  ( 3.000000000000000000, -111.2499999999999432, 7.000000000000000000 ) ) ;
#702 = CARTESIAN_POINT ( 'NONE',  ( 0.000000000000000000, -41.24999999999994316, 0.000000000000000000 ) ) ;
#703 = ORIENTED_EDGE ( 'NONE', *, *, #31, .F. ) ;
#704 = CARTESIAN_POINT ( 'NONE',  ( 0.000000000000000000, -121.2499999999999432, 10.00000000000000000 ) ) ;
#705 = FACE_OUTER_BOUND ( 'NONE', #613, .T. ) ;
#706 = CARTESIAN_POINT ( 'NONE',  ( -64.00000000000001421, -51.24999999999995026, 0.000000000000000000 ) ) ;
#707 = DIRECTION ( 'NONE',  ( 5.880418562633244003E-16, -0.000000000000000000, 1.000000000000000000 ) ) ;
#708 = CARTESIAN_POINT ( 'NONE',  ( 3.000000000000000000, -51.24999999999995026, 7.000000000000000000 ) ) ;
#709 = ORIENTED_EDGE ( 'NONE', *, *, #211, .F. ) ;
#710 = VECTOR ( 'NONE', #739, 1000.000000000000000 ) ;
#711 = VECTOR ( 'NONE', #955, 1000.000000000000000 ) ;
#712 = LINE ( 'NONE', #1137, #1029 ) ;
#713 = ORIENTED_EDGE ( 'NONE', *, *, #1204, .F. ) ;
#714 = CARTESIAN_POINT ( 'NONE',  ( 0.000000000000000000, -51.24999999999995026, 7.000000000000000000 ) ) ;
#715 = EDGE_CURVE ( 'NONE', #1145, #921, #1192, .T. ) ;
#716 = CIRCLE ( 'NONE', #758, 3.000000000000002665 ) ;
#717 = CARTESIAN_POINT ( 'NONE',  ( -70.00000000000002842, -41.24999999999994316, 10.00000000000000000 ) ) ;
#718 = DIRECTION ( 'NONE',  ( 0.000000000000000000, 0.000000000000000000, 1.000000000000000000 ) ) ;
#719 = ORIENTED_EDGE ( 'NONE', *, *, #715, .T. ) ;
#720 = CARTESIAN_POINT ( 'NONE',  ( 0.000000000000000000, -111.2499999999999432, 10.00000000000000000 ) ) ;
#721 = DIRECTION ( 'NONE',  ( 0.000000000000000000, -0.000000000000000000, 1.000000000000000000 ) ) ;
#722 = ORIENTED_EDGE ( 'NONE', *, *, #538, .T. ) ;
#723 = FACE_OUTER_BOUND ( 'NONE', #1098, .T. ) ;
#724 = FACE_OUTER_BOUND ( 'NONE', #336, .T. ) ;
#725 = EDGE_CURVE ( 'NONE', #696, #172, #238, .T. ) ;
#726 = DIRECTION ( 'NONE',  ( 0.000000000000000000, 0.000000000000000000, -1.000000000000000000 ) ) ;
#727 = ORIENTED_EDGE ( 'NONE', *, *, #1040, .T. ) ;
#728 = EDGE_CURVE ( 'NONE', #641, #228, #864, .T. ) ;
#729 = CARTESIAN_POINT ( 'NONE',  ( -54.00000000000003553, -121.2499999999999432, -1.000000000000004441 ) ) ;
#730 = VECTOR ( 'NONE', #1217, 1000.000000000000000 ) ;
#731 = VECTOR ( 'NONE', #1278, 1000.000000000000000 ) ;
#732 = CYLINDRICAL_SURFACE ( 'NONE', #353, 3.000000000000002665 ) ;
#733 = VECTOR ( 'NONE', #463, 1000.000000000000000 ) ;
#734 = CIRCLE ( 'NONE', #1012, 1.000000000000000888 ) ;
#735 = DIRECTION ( 'NONE',  ( 1.000000000000000000, 0.000000000000000000, 0.000000000000000000 ) ) ;
#736 = AXIS2_PLACEMENT_3D ( 'NONE', #380, #1188, #87 ) ;
#737 = EDGE_LOOP ( 'NONE', ( #590, #1068 ) ) ;
#738 = EDGE_CURVE ( 'NONE', #145, #757, #88, .T. ) ;
#739 = DIRECTION ( 'NONE',  ( -0.000000000000000000, -0.000000000000000000, 1.000000000000000000 ) ) ;
#740 = CARTESIAN_POINT ( 'NONE',  ( 0.000000000000000000, -111.2499999999999432, 0.000000000000000000 ) ) ;
#741 = DIRECTION ( 'NONE',  ( 1.000000000000000000, 0.000000000000000000, 0.000000000000000000 ) ) ;
#742 = VERTEX_POINT ( 'NONE', #644 ) ;
#743 = ORIENTED_EDGE ( 'NONE', *, *, #770, .F. ) ;
#744 = EDGE_CURVE ( 'NONE', #757, #145, #928, .T. ) ;
#745 = ORIENTED_EDGE ( 'NONE', *, *, #229, .F. ) ;
#746 = CARTESIAN_POINT ( 'NONE',  ( -55.00000000000003553, 5.264621357160437221, -3.469446951953614189E-15 ) ) ;
#747 = FACE_OUTER_BOUND ( 'NONE', #114, .T. ) ;
#748 = ORIENTED_EDGE ( 'NONE', *, *, #15, .T. ) ;
#749 = ORIENTED_EDGE ( 'NONE', *, *, #1062, .F. ) ;
#750 = ADVANCED_FACE ( 'NONE', ( #497, #207 ), #1178, .T. ) ;
#751 = CARTESIAN_POINT ( 'NONE',  ( -25.75000000000001421, -81.24999999999994316, -6.899999999999993250 ) ) ;
#752 = AXIS2_PLACEMENT_3D ( 'NONE', #518, #824, #316 ) ;
#753 = VECTOR ( 'NONE', #199, 1000.000000000000000 ) ;
#754 = DIRECTION ( 'NONE',  ( 1.000000000000000000, 0.000000000000000000, 0.000000000000000000 ) ) ;
#755 = VECTOR ( 'NONE', #1132, 1000.000000000000000 ) ;
#756 = EDGE_LOOP ( 'NONE', ( #293, #9, #727, #342 ) ) ;
#757 = VERTEX_POINT ( 'NONE', #202 ) ;
#758 = AXIS2_PLACEMENT_3D ( 'NONE', #555, #1246, #1139 ) ;
#759 = VERTEX_POINT ( 'NONE', #1010 ) ;
#760 = DIRECTION ( 'NONE',  ( 1.000000000000000000, 0.000000000000000000, 0.000000000000000000 ) ) ;
#761 = CARTESIAN_POINT ( 'NONE',  ( 1.600000000000004752, -111.2499999999999432, 0.000000000000000000 ) ) ;
#762 = EDGE_LOOP ( 'NONE', ( #1049, #1054, #435, #246 ) ) ;
#763 = ORIENTED_EDGE ( 'NONE', *, *, #530, .T. ) ;
#764 = PRODUCT_DEFINITION_CONTEXT ( 'detailed design', #941, 'design' ) ;
#765 = ORIENTED_EDGE ( 'NONE', *, *, #869, .T. ) ;
#766 = CARTESIAN_POINT ( 'NONE',  ( -10.00000000000000888, -121.2499999999999432, -6.899999999999993250 ) ) ;
#767 = EDGE_CURVE ( 'NONE', #368, #552, #390, .T. ) ;
#768 = SURFACE_SIDE_STYLE ('',( #356 ) ) ;
#769 = EDGE_LOOP ( 'NONE', ( #488, #200 ) ) ;
#770 = EDGE_CURVE ( 'NONE', #1123, #1183, #558, .T. ) ;
#771 = DIRECTION ( 'NONE',  ( -0.000000000000000000, 0.000000000000000000, 1.000000000000000000 ) ) ;
#772 = DIRECTION ( 'NONE',  ( 0.000000000000000000, -1.000000000000000000, 0.000000000000000000 ) ) ;
#773 = FACE_OUTER_BOUND ( 'NONE', #448, .T. ) ;
#774 = ORIENTED_EDGE ( 'NONE', *, *, #631, .T. ) ;
#775 = EDGE_LOOP ( 'NONE', ( #642, #774 ) ) ;
#776 = VECTOR ( 'NONE', #262, 1000.000000000000000 ) ;
#777 = ORIENTED_EDGE ( 'NONE', *, *, #665, .T. ) ;
#778 = AXIS2_PLACEMENT_3D ( 'NONE', #1033, #326, #126 ) ;
#779 = CARTESIAN_POINT ( 'NONE',  ( -73.00000000000004263, -44.24999999999995026, 0.000000000000000000 ) ) ;
#780 = PLANE ( 'NONE',  #1197 ) ;
#781 = CARTESIAN_POINT ( 'NONE',  ( -62.40000000000001279, -51.24999999999995026, 0.000000000000000000 ) ) ;
#782 = ORIENTED_EDGE ( 'NONE', *, *, #436, .T. ) ;
#783 = EDGE_LOOP ( 'NONE', ( #482, #1239, #1037, #547 ) ) ;
#784 = CARTESIAN_POINT ( 'NONE',  ( -61.00000000000001421, -51.24999999999995026, 10.00000000000000000 ) ) ;
#785 = CARTESIAN_POINT ( 'NONE',  ( 8.999999999999998224, -118.2499999999999432, 10.00000000000000000 ) ) ;
#786 = LINE ( 'NONE', #593, #646 ) ;
#787 = EDGE_CURVE ( 'NONE', #532, #856, #573, .T. ) ;
#788 = DIRECTION ( 'NONE',  ( -0.000000000000000000, -0.000000000000000000, 1.000000000000000000 ) ) ;
#789 = DIRECTION ( 'NONE',  ( 1.000000000000000000, 0.000000000000000000, 0.000000000000000000 ) ) ;
#790 = VERTEX_POINT ( 'NONE', #895 ) ;
#791 = DIRECTION ( 'NONE',  ( 1.000000000000000000, 0.000000000000000000, 0.000000000000000000 ) ) ;
#792 = LINE ( 'NONE', #297, #146 ) ;
#793 = CARTESIAN_POINT ( 'NONE',  ( 5.999999999999997335, -41.24999999999994316, 10.00000000000000000 ) ) ;
#795 = ADVANCED_FACE ( 'NONE', ( #1283 ), #402, .T. ) ;
#794 = DIRECTION ( 'NONE',  ( 1.000000000000000000, 0.000000000000000000, 0.000000000000000000 ) ) ;
#796 = CARTESIAN_POINT ( 'NONE',  ( -73.00000000000004263, -118.2499999999999432, 10.00000000000000000 ) ) ;
#797 = VECTOR ( 'NONE', #191, 1000.000000000000000 ) ;
#798 = AXIS2_PLACEMENT_3D ( 'NONE', #381, #892, #919 ) ;
#799 = ORIENTED_EDGE ( 'NONE', *, *, #872, .T. ) ;
#800 = DIRECTION ( 'NONE',  ( 0.000000000000000000, -0.000000000000000000, 1.000000000000000000 ) ) ;
#801 = VECTOR ( 'NONE', #754, 1000.000000000000000 ) ;
#802 = AXIS2_PLACEMENT_3D ( 'NONE', #59, #1254, #67 ) ;
#803 = AXIS2_PLACEMENT_3D ( 'NONE', #969, #670, #267 ) ;
#804 = LINE ( 'NONE', #479, #731 ) ;
#805 = DIRECTION ( 'NONE',  ( 1.000000000000000000, 0.000000000000000000, 0.000000000000000000 ) ) ;
#806 = CARTESIAN_POINT ( 'NONE',  ( -73.00000000000004263, 0.000000000000000000, 10.00000000000000000 ) ) ;
#807 = ORIENTED_EDGE ( 'NONE', *, *, #474, .T. ) ;
#808 = EDGE_LOOP ( 'NONE', ( #827, #1184, #382, #612 ) ) ;
#809 = PLANE ( 'NONE',  #455 ) ;
#810 = DIRECTION ( 'NONE',  ( -0.000000000000000000, -0.000000000000000000, -1.000000000000000000 ) ) ;
#811 = CARTESIAN_POINT ( 'NONE',  ( -64.00000000000001421, -111.2499999999999432, 10.00000000000000000 ) ) ;
#812 = DIRECTION ( 'NONE',  ( 1.000000000000000000, 0.000000000000000000, 0.000000000000000000 ) ) ;
#813 = ADVANCED_FACE ( 'NONE', ( #83 ), #809, .F. ) ;
#814 = VERTEX_POINT ( 'NONE', #784 ) ;
#815 = ADVANCED_FACE ( 'NONE', ( #378 ), #889, .F. ) ;
#816 = DIRECTION ( 'NONE',  ( -0.000000000000000000, 0.000000000000000000, -1.000000000000000000 ) ) ;
#817 = CARTESIAN_POINT ( 'NONE',  ( 0.000000000000000000, -111.2499999999999432, 7.000000000000000000 ) ) ;
#818 = CARTESIAN_POINT ( 'NONE',  ( -54.00000000000003553, -121.2499999999999432, -3.899999999999992806 ) ) ;
#819 = DIRECTION ( 'NONE',  ( 1.000000000000000000, 0.000000000000000000, 0.000000000000000000 ) ) ;
#820 = VERTEX_POINT ( 'NONE', #287 ) ;
#821 = AXIS2_PLACEMENT_3D ( 'NONE', #981, #198, #1084 ) ;
#822 = VECTOR ( 'NONE', #440, 1000.000000000000000 ) ;
#823 = CARTESIAN_POINT ( 'NONE',  ( -32.00000000000001421, -81.24999999999994316, 10.00000000000000000 ) ) ;
#824 = DIRECTION ( 'NONE',  ( -0.000000000000000000, -0.000000000000000000, 1.000000000000000000 ) ) ;
#825 = AXIS2_PLACEMENT_3D ( 'NONE', #406, #118, #812 ) ;
#826 = CARTESIAN_POINT ( 'NONE',  ( 3.000000000000000000, -51.24999999999995026, 7.000000000000000000 ) ) ;
#827 = ORIENTED_EDGE ( 'NONE', *, *, #175, .F. ) ;
#828 = DIRECTION ( 'NONE',  ( -0.000000000000000000, -0.000000000000000000, -1.000000000000000000 ) ) ;
#829 = CARTESIAN_POINT ( 'NONE',  ( -38.25000000000001421, -81.24999999999994316, 10.00000000000000000 ) ) ;
#830 = EDGE_CURVE ( 'NONE', #814, #653, #626, .T. ) ;
#831 = LINE ( 'NONE', #1019, #274 ) ;
#832 = EDGE_LOOP ( 'NONE', ( #223, #278, #687, #507, #438, #875, #874, #907 ) ) ;
#833 = APPLICATION_PROTOCOL_DEFINITION ( 'draft international standard', 'automotive_design', 1998, #941 ) ;
#834 = LINE ( 'NONE', #560, #733 ) ;
#835 = LINE ( 'NONE', #1104, #946 ) ;
#836 = ADVANCED_FACE ( 'NONE', ( #188 ), #580, .F. ) ;
#837 = ORIENTED_EDGE ( 'NONE', *, *, #415, .T. ) ;
#838 = CYLINDRICAL_SURFACE ( 'NONE', #317, 1.600000000000004752 ) ;
#839 = AXIS2_PLACEMENT_3D ( 'NONE', #855, #970, #268 ) ;
#840 = CARTESIAN_POINT ( 'NONE',  ( -64.00000000000001421, -51.24999999999995026, 7.000000000000000000 ) ) ;
#841 = AXIS2_PLACEMENT_3D ( 'NONE', #1263, #771, #637 ) ;
#842 = CIRCLE ( 'NONE', #627, 1.599999999999991651 ) ;
#843 = FACE_OUTER_BOUND ( 'NONE', #1050, .T. ) ;
#844 = EDGE_CURVE ( 'NONE', #790, #965, #591, .T. ) ;
#845 = ORIENTED_EDGE ( 'NONE', *, *, #229, .T. ) ;
#846 = VERTEX_POINT ( 'NONE', #994 ) ;
#847 = VERTEX_POINT ( 'NONE', #100 ) ;
#848 = DIRECTION ( 'NONE',  ( 0.000000000000000000, -1.000000000000000000, 0.000000000000000000 ) ) ;
#849 = DIRECTION ( 'NONE',  ( -0.000000000000000000, -0.000000000000000000, 1.000000000000000000 ) ) ;
#850 = VERTEX_POINT ( 'NONE', #489 ) ;
#851 = ORIENTED_EDGE ( 'NONE', *, *, #474, .F. ) ;
#852 = EDGE_LOOP ( 'NONE', ( #662, #136 ) ) ;
#853 = EDGE_CURVE ( 'NONE', #123, #1123, #1198, .T. ) ;
#854 = CARTESIAN_POINT ( 'NONE',  ( -73.00000000000004263, -118.2499999999999432, 0.000000000000000000 ) ) ;
#855 = CARTESIAN_POINT ( 'NONE',  ( -54.00000000000003553, 5.264621357160437221, -1.000000000000004441 ) ) ;
#856 = VERTEX_POINT ( 'NONE', #374 ) ;
#857 = ORIENTED_EDGE ( 'NONE', *, *, #830, .F. ) ;
#858 = VERTEX_POINT ( 'NONE', #471 ) ;
#859 = EDGE_CURVE ( 'NONE', #790, #358, #863, .T. ) ;
#860 = LINE ( 'NONE', #1151, #542 ) ;
#861 = AXIS2_PLACEMENT_3D ( 'NONE', #668, #469, #882 ) ;
#862 = VECTOR ( 'NONE', #788, 1000.000000000000000 ) ;
#863 = LINE ( 'NONE', #68, #711 ) ;
#864 = CIRCLE ( 'NONE', #192, 3.000000000000002665 ) ;
#865 = EDGE_LOOP ( 'NONE', ( #1214, #1209 ) ) ;
#866 = ORIENTED_EDGE ( 'NONE', *, *, #1229, .F. ) ;
#867 = AXIS2_PLACEMENT_3D ( 'NONE', #655, #444, #1041 ) ;
#868 = MANIFOLD_SOLID_BREP ( '\X2\52079664\X0\-\X2\62c94f38\X0\3', #931 ) ;
#869 = EDGE_CURVE ( 'NONE', #759, #1257, #155, .T. ) ;
#870 = DIRECTION ( 'NONE',  ( 0.000000000000000000, 0.000000000000000000, 1.000000000000000000 ) ) ;
#872 = EDGE_CURVE ( 'NONE', #1145, #657, #1170, .T. ) ;
#871 = FILL_AREA_STYLE ('',( #677 ) ) ;
#873 = VERTEX_POINT ( 'NONE', #781 ) ;
#874 = ORIENTED_EDGE ( 'NONE', *, *, #458, .F. ) ;
#875 = ORIENTED_EDGE ( 'NONE', *, *, #182, .T. ) ;
#876 = DIRECTION ( 'NONE',  ( -0.000000000000000000, -0.000000000000000000, -1.000000000000000000 ) ) ;
#877 = DIRECTION ( 'NONE',  ( 0.000000000000000000, 0.000000000000000000, 1.000000000000000000 ) ) ;
#878 = DIRECTION ( 'NONE',  ( 1.000000000000000000, 0.000000000000000000, 0.000000000000000000 ) ) ;
#879 = ORIENTED_EDGE ( 'NONE', *, *, #261, .T. ) ;
#880 = ADVANCED_FACE ( 'NONE', ( #161 ), #283, .T. ) ;
#881 = VERTEX_POINT ( 'NONE', #1058 ) ;
#882 = DIRECTION ( 'NONE',  ( 1.000000000000000000, 0.000000000000000000, 0.000000000000000000 ) ) ;
#883 = LINE ( 'NONE', #170, #66 ) ;
#884 = CIRCLE ( 'NONE', #1128, 1.600000000000004752 ) ;
#885 = CARTESIAN_POINT ( 'NONE',  ( -61.00000000000001421, -51.24999999999995026, 7.000000000000000000 ) ) ;
#886 = AXIS2_PLACEMENT_3D ( 'NONE', #115, #910, #917 ) ;
#887 = AXIS2_PLACEMENT_3D ( 'NONE', #1277, #698, #791 ) ;
#888 = ORIENTED_EDGE ( 'NONE', *, *, #493, .F. ) ;
#889 = CYLINDRICAL_SURFACE ( 'NONE', #887, 1.600000000000004086 ) ;
#890 = CARTESIAN_POINT ( 'NONE',  ( 1.599999999999991651, -51.24999999999995026, 0.000000000000000000 ) ) ;
#891 = LINE ( 'NONE', #990, #478 ) ;
#892 = DIRECTION ( 'NONE',  ( 0.000000000000000000, -0.000000000000000000, -1.000000000000000000 ) ) ;
#893 = EDGE_LOOP ( 'NONE', ( #579, #1256, #187, #302 ) ) ;
#894 = ORIENTED_EDGE ( 'NONE', *, *, #697, .F. ) ;
#895 = CARTESIAN_POINT ( 'NONE',  ( -54.00000000000003553, -41.24999999999994316, -1.000000000000004441 ) ) ;
#896 = DIRECTION ( 'NONE',  ( 0.000000000000000000, 0.000000000000000000, 1.000000000000000000 ) ) ;
#897 = FACE_OUTER_BOUND ( 'NONE', #1289, .T. ) ;
#898 = DIRECTION ( 'NONE',  ( 0.000000000000000000, 0.000000000000000000, 1.000000000000000000 ) ) ;
#899 = ORIENTED_EDGE ( 'NONE', *, *, #43, .T. ) ;
#900 = ORIENTED_EDGE ( 'NONE', *, *, #1180, .F. ) ;
#901 = CARTESIAN_POINT ( 'NONE',  ( 0.000000000000000000, -51.24999999999995026, 7.000000000000000000 ) ) ;
#902 = APPLICATION_CONTEXT ( 'automotive_design' ) ;
#903 = FACE_BOUND ( 'NONE', #737, .T. ) ;
#904 = DIRECTION ( 'NONE',  ( 0.000000000000000000, 0.000000000000000000, 1.000000000000000000 ) ) ;
#905 = CARTESIAN_POINT ( 'NONE',  ( -9.000000000000005329, -41.24999999999994316, -0.9999999999999922284 ) ) ;
#906 = CIRCLE ( 'NONE', #212, 3.000000000000002665 ) ;
#907 = ORIENTED_EDGE ( 'NONE', *, *, #235, .T. ) ;
#908 = DIRECTION ( 'NONE',  ( 0.000000000000000000, -0.000000000000000000, 1.000000000000000000 ) ) ;
#909 = VECTOR ( 'NONE', #571, 1000.000000000000000 ) ;
#910 = DIRECTION ( 'NONE',  ( -0.000000000000000000, -0.000000000000000000, -1.000000000000000000 ) ) ;
#911 = ADVANCED_FACE ( 'NONE', ( #773 ), #1066, .T. ) ;
#912 = DIRECTION ( 'NONE',  ( 1.000000000000000000, 0.000000000000000000, -5.880418562633244003E-16 ) ) ;
#913 = CARTESIAN_POINT ( 'NONE',  ( -65.60000000000002274, -51.24999999999995026, 7.000000000000000888 ) ) ;
#914 = LINE ( 'NONE', #826, #503 ) ;
#915 = EDGE_CURVE ( 'NONE', #846, #20, #1215, .T. ) ;
#916 = ORIENTED_EDGE ( 'NONE', *, *, #830, .T. ) ;
#917 = DIRECTION ( 'NONE',  ( 1.000000000000000000, 0.000000000000000000, 0.000000000000000000 ) ) ;
#918 = LINE ( 'NONE', #4, #1189 ) ;
#919 = DIRECTION ( 'NONE',  ( 1.000000000000000000, 0.000000000000000000, 0.000000000000000000 ) ) ;
#920 = CYLINDRICAL_SURFACE ( 'NONE', #419, 1.000000000000000888 ) ;
#921 = VERTEX_POINT ( 'NONE', #761 ) ;
#922 = CARTESIAN_POINT ( 'NONE',  ( 0.000000000000000000, 0.000000000000000000, 0.000000000000000000 ) ) ;
#923 = DIRECTION ( 'NONE',  ( 0.000000000000000000, 0.000000000000000000, 1.000000000000000000 ) ) ;
#924 = FACE_OUTER_BOUND ( 'NONE', #1164, .T. ) ;
#925 = EDGE_LOOP ( 'NONE', ( #327, #240 ) ) ;
#926 = VECTOR ( 'NONE', #615, 1000.000000000000000 ) ;
#927 = ADVANCED_FACE ( 'NONE', ( #1255 ), #1158, .T. ) ;
#928 = CIRCLE ( 'NONE', #299, 3.000000000000000000 ) ;
#929 =( NAMED_UNIT ( * ) PLANE_ANGLE_UNIT ( ) SI_UNIT ( $, .RADIAN. ) );
#930 = DIRECTION ( 'NONE',  ( 1.000000000000000000, 0.000000000000000000, 0.000000000000000000 ) ) ;
#931 = CLOSED_SHELL ( 'NONE', ( #1048, #987, #632, #958, #1244, #256, #815, #548, #129, #836, #1253, #1148, #52, #1287, #813, #911, #379, #81, #1078, #139, #95, #750, #927, #71, #280, #505, #266, #1100, #1153, #1056, #880, #795, #589, #447, #343, #291, #1222, #273, #570, #186 ) ) ;
#932 = FACE_BOUND ( 'NONE', #852, .T. ) ;
#933 = ORIENTED_EDGE ( 'NONE', *, *, #728, .T. ) ;
#934 = DIRECTION ( 'NONE',  ( 1.000000000000000000, 0.000000000000000000, 0.000000000000000000 ) ) ;
#935 = CARTESIAN_POINT ( 'NONE',  ( 3.000000000000000000, -111.2499999999999432, 10.00000000000000000 ) ) ;
#936 = DIRECTION ( 'NONE',  ( -0.000000000000000000, 0.000000000000000000, 1.000000000000000000 ) ) ;
#937 = ORIENTED_EDGE ( 'NONE', *, *, #430, .F. ) ;
#938 = DIRECTION ( 'NONE',  ( -1.000000000000000000, 0.000000000000000000, 0.000000000000000000 ) ) ;
#939 = CARTESIAN_POINT ( 'NONE',  ( -1.600000000000004752, -111.2499999999999432, 7.000000000000000888 ) ) ;
#940 = CARTESIAN_POINT ( 'NONE',  ( -62.40000000000001279, -111.2499999999999432, 0.000000000000000000 ) ) ;
#941 = APPLICATION_CONTEXT ( 'automotive_design' ) ;
#942 = ORIENTED_EDGE ( 'NONE', *, *, #1204, .T. ) ;
#943 = ORIENTED_EDGE ( 'NONE', *, *, #538, .F. ) ;
#944 = CARTESIAN_POINT ( 'NONE',  ( -25.75000000000001421, -81.24999999999994316, 10.00000000000000000 ) ) ;
#945 = DIRECTION ( 'NONE',  ( 1.000000000000000000, 0.000000000000000000, 0.000000000000000000 ) ) ;
#946 = VECTOR ( 'NONE', #611, 1000.000000000000000 ) ;
#947 = CARTESIAN_POINT ( 'NONE',  ( 8.999999999999998224, -44.24999999999995026, 0.000000000000000000 ) ) ;
#948 = ORIENTED_EDGE ( 'NONE', *, *, #208, .T. ) ;
#949 = VERTEX_POINT ( 'NONE', #656 ) ;
#950 = EDGE_CURVE ( 'NONE', #847, #1177, #963, .T. ) ;
#951 = CARTESIAN_POINT ( 'NONE',  ( 1.600000000000004752, -111.2499999999999432, -6.899999999999991473 ) ) ;
#952 = VERTEX_POINT ( 'NONE', #466 ) ;
#953 = EDGE_CURVE ( 'NONE', #1160, #515, #1167, .T. ) ;
#954 = LINE ( 'NONE', #639, #457 ) ;
#955 = DIRECTION ( 'NONE',  ( 0.000000000000000000, 0.000000000000000000, -1.000000000000000000 ) ) ;
#956 = EDGE_LOOP ( 'NONE', ( #564, #572, #1059, #678 ) ) ;
#957 = EDGE_LOOP ( 'NONE', ( #54, #184, #58, #40 ) ) ;
#958 = ADVANCED_FACE ( 'NONE', ( #177 ), #365, .F. ) ;
#959 = VECTOR ( 'NONE', #1023, 1000.000000000000000 ) ;
#960 = CIRCLE ( 'NONE', #1270, 3.000000000000000000 ) ;
#961 = CYLINDRICAL_SURFACE ( 'NONE', #802, 3.000000000000000000 ) ;
#962 = PRESENTATION_LAYER_ASSIGNMENT (  '', '', ( #48 ) ) ;
#963 = LINE ( 'NONE', #661, #432 ) ;
#964 = ORIENTED_EDGE ( 'NONE', *, *, #1226, .T. ) ;
#965 = VERTEX_POINT ( 'NONE', #504 ) ;
#966 = VECTOR ( 'NONE', #386, 1000.000000000000000 ) ;
#967 = DIRECTION ( 'NONE',  ( 0.000000000000000000, 0.000000000000000000, 1.000000000000000000 ) ) ;
#968 = PRODUCT_RELATED_PRODUCT_CATEGORY ( 'part', '', ( #79 ) ) ;
#969 = CARTESIAN_POINT ( 'NONE',  ( 0.000000000000000000, -51.24999999999995026, 10.00000000000000000 ) ) ;
#970 = DIRECTION ( 'NONE',  ( -1.000000000000000000, 0.000000000000000000, -0.000000000000000000 ) ) ;
#971 = ORIENTED_EDGE ( 'NONE', *, *, #567, .F. ) ;
#972 = EDGE_LOOP ( 'NONE', ( #1224, #943, #553, #1282 ) ) ;
#973 = DIRECTION ( 'NONE',  ( 0.000000000000000000, 0.000000000000000000, 1.000000000000000000 ) ) ;
#974 = DIRECTION ( 'NONE',  ( 0.000000000000000000, 1.000000000000000000, 0.000000000000000000 ) ) ;
#975 = CARTESIAN_POINT ( 'NONE',  ( -64.00000000000001421, -51.24999999999995026, 7.000000000000000000 ) ) ;
#976 = ORIENTED_EDGE ( 'NONE', *, *, #1071, .T. ) ;
#977 = ORIENTED_EDGE ( 'NONE', *, *, #226, .T. ) ;
#978 = PRODUCT_DEFINITION_SHAPE ( 'NONE', 'NONE',  #622 ) ;
#979 = DIRECTION ( 'NONE',  ( 1.000000000000000000, 0.000000000000000000, 0.000000000000000000 ) ) ;
#980 = DIRECTION ( 'NONE',  ( 0.000000000000000000, 0.000000000000000000, 1.000000000000000000 ) ) ;
#981 = CARTESIAN_POINT ( 'NONE',  ( -9.000000000000005329, -121.2499999999999432, -0.9999999999999922284 ) ) ;
#982 = CIRCLE ( 'NONE', #46, 3.000000000000000000 ) ;
#983 = EDGE_LOOP ( 'NONE', ( #745, #551, #179, #453 ) ) ;
#984 = VECTOR ( 'NONE', #1115, 1000.000000000000000 ) ;
#985 = VECTOR ( 'NONE', #106, 1000.000000000000000 ) ;
#986 = VERTEX_POINT ( 'NONE', #701 ) ;
#987 = ADVANCED_FACE ( 'NONE', ( #103 ), #494, .F. ) ;
#988 = CARTESIAN_POINT ( 'NONE',  ( 0.000000000000000000, -51.24999999999995026, -6.899999999999991473 ) ) ;
#989 = CARTESIAN_POINT ( 'NONE',  ( 0.000000000000000000, -111.2499999999999432, 7.000000000000000000 ) ) ;
#990 = CARTESIAN_POINT ( 'NONE',  ( -13.00000000000001066, 5.264621357160437221, -6.899999999999993250 ) ) ;
#991 = DIRECTION ( 'NONE',  ( 1.000000000000000000, 0.000000000000000000, 0.000000000000000000 ) ) ;
#992 = ORIENTED_EDGE ( 'NONE', *, *, #354, .T. ) ;
#993 = ORIENTED_EDGE ( 'NONE', *, *, #1187, .T. ) ;
#994 = CARTESIAN_POINT ( 'NONE',  ( -62.40000000000001279, -111.2499999999999432, 7.000000000000000888 ) ) ;
#995 = CARTESIAN_POINT ( 'NONE',  ( 5.999999999999997335, -121.2499999999999432, 10.00000000000000000 ) ) ;
#996 = DIRECTION ( 'NONE',  ( -0.000000000000000000, -0.000000000000000000, 1.000000000000000000 ) ) ;
#997 = DIRECTION ( 'NONE',  ( 0.000000000000000000, -0.000000000000000000, 1.000000000000000000 ) ) ;
#998 = EDGE_LOOP ( 'NONE', ( #366, #350, #185, #1042 ) ) ;
#999 = ORIENTED_EDGE ( 'NONE', *, *, #35, .T. ) ;
#1000 = DIRECTION ( 'NONE',  ( 0.000000000000000000, 0.000000000000000000, -1.000000000000000000 ) ) ;
#1001 = EDGE_CURVE ( 'NONE', #858, #1080, #694, .T. ) ;
#1002 = CARTESIAN_POINT ( 'NONE',  ( -64.00000000000001421, -51.24999999999995026, 7.000000000000000000 ) ) ;
#1003 = DIRECTION ( 'NONE',  ( 0.000000000000000000, -1.000000000000000000, 0.000000000000000000 ) ) ;
#1004 = EDGE_CURVE ( 'NONE', #986, #658, #1014, .T. ) ;
#1005 = CARTESIAN_POINT ( 'NONE',  ( -3.000000000000000000, -51.24999999999995026, 10.00000000000000000 ) ) ;
#1006 = LINE ( 'NONE', #511, #559 ) ;
#1007 = AXIS2_PLACEMENT_3D ( 'NONE', #225, #614, #26 ) ;
#1008 = AXIS2_PLACEMENT_3D ( 'NONE', #1280, #997, #1085 ) ;
#1009 = VERTEX_POINT ( 'NONE', #290 ) ;
#1010 = CARTESIAN_POINT ( 'NONE',  ( -3.000000000000000000, -111.2499999999999432, 7.000000000000000000 ) ) ;
#1011 = VECTOR ( 'NONE', #77, 1000.000000000000000 ) ;
#1012 = AXIS2_PLACEMENT_3D ( 'NONE', #1260, #635, #1051 ) ;
#1013 = CARTESIAN_POINT ( 'NONE',  ( -70.00000000000002842, -118.2499999999999432, 10.00000000000000000 ) ) ;
#1014 = LINE ( 'NONE', #1182, #862 ) ;
#1015 = FACE_BOUND ( 'NONE', #105, .T. ) ;
#1016 = ORIENTED_EDGE ( 'NONE', *, *, #844, .F. ) ;
#1017 = DIRECTION ( 'NONE',  ( -0.000000000000000000, 0.000000000000000000, -1.000000000000000000 ) ) ;
#1018 = PLANE ( 'NONE',  #111 ) ;
#1019 = CARTESIAN_POINT ( 'NONE',  ( -65.60000000000002274, -51.24999999999995026, -6.899999999999991473 ) ) ;
#1020 = VERTEX_POINT ( 'NONE', #7 ) ;
#1021 = EDGE_CURVE ( 'NONE', #820, #20, #1095, .T. ) ;
#1022 = CYLINDRICAL_SURFACE ( 'NONE', #47, 6.249999999999998224 ) ;
#1023 = DIRECTION ( 'NONE',  ( -0.000000000000000000, -0.000000000000000000, 1.000000000000000000 ) ) ;
#1024 = FACE_OUTER_BOUND ( 'NONE', #1262, .T. ) ;
#1025 = EDGE_LOOP ( 'NONE', ( #888, #651, #713, #659 ) ) ;
#1026 = AXIS2_PLACEMENT_3D ( 'NONE', #1279, #373, #298 ) ;
#1027 = AXIS2_PLACEMENT_3D ( 'NONE', #975, #276, #671 ) ;
#1028 = AXIS2_PLACEMENT_3D ( 'NONE', #339, #138, #1269 ) ;
#1029 = VECTOR ( 'NONE', #1017, 1000.000000000000000 ) ;
#1030 = AXIS2_PLACEMENT_3D ( 'NONE', #628, #319, #819 ) ;
#1031 = CYLINDRICAL_SURFACE ( 'NONE', #752, 1.600000000000004752 ) ;
#1032 = AXIS2_PLACEMENT_3D ( 'NONE', #526, #936, #39 ) ;
#1033 = CARTESIAN_POINT ( 'NONE',  ( 0.000000000000000000, -51.24999999999995026, -6.899999999999991473 ) ) ;
#1034 = ORIENTED_EDGE ( 'NONE', *, *, #1088, .T. ) ;
#1035 = DIRECTION ( 'NONE',  ( 0.000000000000000000, 0.000000000000000000, 1.000000000000000000 ) ) ;
#1036 = CARTESIAN_POINT ( 'NONE',  ( -64.00000000000001421, -111.2499999999999432, 0.000000000000000000 ) ) ;
#1037 = ORIENTED_EDGE ( 'NONE', *, *, #853, .F. ) ;
#1038 = ORIENTED_EDGE ( 'NONE', *, *, #1071, .F. ) ;
#1039 = DIRECTION ( 'NONE',  ( 1.000000000000000000, 0.000000000000000000, 0.000000000000000000 ) ) ;
#1040 = EDGE_CURVE ( 'NONE', #82, #258, #318, .T. ) ;
#1041 = DIRECTION ( 'NONE',  ( 1.000000000000000000, 0.000000000000000000, 0.000000000000000000 ) ) ;
#1042 = ORIENTED_EDGE ( 'NONE', *, *, #315, .T. ) ;
#1043 = VERTEX_POINT ( 'NONE', #818 ) ;
#1044 = CIRCLE ( 'NONE', #334, 3.000000000000000000 ) ;
#1045 = AXIS2_PLACEMENT_3D ( 'NONE', #1077, #576, #445 ) ;
#1046 = CIRCLE ( 'NONE', #149, 6.249999999999998224 ) ;
#1047 = DIRECTION ( 'NONE',  ( 1.000000000000000000, 0.000000000000000000, 0.000000000000000000 ) ) ;
#1048 = ADVANCED_FACE ( 'NONE', ( #312 ), #117, .F. ) ;
#1049 = ORIENTED_EDGE ( 'NONE', *, *, #182, .F. ) ;
#1050 = EDGE_LOOP ( 'NONE', ( #141, #331, #543, #695 ) ) ;
#1051 = DIRECTION ( 'NONE',  ( 0.000000000000000000, 0.000000000000000000, 1.000000000000000000 ) ) ;
#1052 = EDGE_CURVE ( 'NONE', #680, #858, #604, .T. ) ;
#1053 = PRESENTATION_STYLE_ASSIGNMENT (( #1247 ) ) ;
#1054 = ORIENTED_EDGE ( 'NONE', *, *, #101, .F. ) ;
#1055 = EDGE_LOOP ( 'NONE', ( #93, #496, #743, #1172 ) ) ;
#1056 = ADVANCED_FACE ( 'NONE', ( #1103 ), #22, .T. ) ;
#1057 = CYLINDRICAL_SURFACE ( 'NONE', #301, 3.000000000000000000 ) ;
#1058 = CARTESIAN_POINT ( 'NONE',  ( -67.00000000000001421, -51.24999999999995026, 7.000000000000000000 ) ) ;
#1059 = ORIENTED_EDGE ( 'NONE', *, *, #554, .F. ) ;
#1060 = EDGE_LOOP ( 'NONE', ( #1140, #462 ) ) ;
#1061 = LINE ( 'NONE', #50, #1011 ) ;
#1062 = EDGE_CURVE ( 'NONE', #653, #814, #1251, .T. ) ;
#1063 = AXIS2_PLACEMENT_3D ( 'NONE', #517, #623, #218 ) ;
#1064 = CARTESIAN_POINT ( 'NONE',  ( -9.000000000000005329, -41.24999999999994316, 0.000000000000000000 ) ) ;
#1065 = AXIS2_PLACEMENT_3D ( 'NONE', #840, #967, #1166 ) ;
#1066 = PLANE ( 'NONE',  #1045 ) ;
#1067 = AXIS2_PLACEMENT_3D ( 'NONE', #104, #495, #789 ) ;
#1068 = ORIENTED_EDGE ( 'NONE', *, *, #605, .T. ) ;
#1069 = ORIENTED_EDGE ( 'NONE', *, *, #1268, .F. ) ;
#1070 = CARTESIAN_POINT ( 'NONE',  ( -67.00000000000001421, -51.24999999999995026, 10.00000000000000000 ) ) ;
#1071 = EDGE_CURVE ( 'NONE', #850, #467, #663, .T. ) ;
#1072 = CARTESIAN_POINT ( 'NONE',  ( -64.00000000000001421, -111.2499999999999432, 7.000000000000000000 ) ) ;
#1073 = VERTEX_POINT ( 'NONE', #913 ) ;
#1074 = ORIENTED_EDGE ( 'NONE', *, *, #1174, .F. ) ;
#1075 = DIRECTION ( 'NONE',  ( 1.000000000000000000, 0.000000000000000000, 0.000000000000000000 ) ) ;
#1076 = FACE_OUTER_BOUND ( 'NONE', #775, .T. ) ;
#1078 = ADVANCED_FACE ( 'NONE', ( #1212 ), #397, .F. ) ;
#1077 = CARTESIAN_POINT ( 'NONE',  ( 8.999999999999998224, 0.000000000000000000, 10.00000000000000000 ) ) ;
#1079 = ORIENTED_EDGE ( 'NONE', *, *, #554, .T. ) ;
#1080 = VERTEX_POINT ( 'NONE', #717 ) ;
#1081 = ORIENTED_EDGE ( 'NONE', *, *, #1107, .T. ) ;
#1082 = DIRECTION ( 'NONE',  ( 1.000000000000000000, 0.000000000000000000, 0.000000000000000000 ) ) ;
#1083 = FACE_OUTER_BOUND ( 'NONE', #769, .T. ) ;
#1084 = DIRECTION ( 'NONE',  ( 0.000000000000000000, 0.000000000000000000, -1.000000000000000000 ) ) ;
#1085 = DIRECTION ( 'NONE',  ( 1.000000000000000000, 0.000000000000000000, 0.000000000000000000 ) ) ;
#1086 = LINE ( 'NONE', #399, #254 ) ;
#1087 = CIRCLE ( 'NONE', #28, 1.000000000000000888 ) ;
#1088 = EDGE_CURVE ( 'NONE', #196, #846, #1117, .T. ) ;
#1089 = AXIS2_PLACEMENT_3D ( 'NONE', #714, #1116, #219 ) ;
#1090 = ORIENTED_EDGE ( 'NONE', *, *, #1218, .T. ) ;
#1091 = AXIS2_PLACEMENT_3D ( 'NONE', #1126, #1111, #1219 ) ;
#1092 = DIRECTION ( 'NONE',  ( 0.000000000000000000, -1.000000000000000000, 0.000000000000000000 ) ) ;
#1093 = DIRECTION ( 'NONE',  ( 0.000000000000000000, 0.000000000000000000, 1.000000000000000000 ) ) ;
#1094 = LINE ( 'NONE', #360, #629 ) ;
#1095 = LINE ( 'NONE', #594, #499 ) ;
#1096 = DIRECTION ( 'NONE',  ( 0.000000000000000000, -0.000000000000000000, 1.000000000000000000 ) ) ;
#1097 = EDGE_CURVE ( 'NONE', #1073, #578, #296, .T. ) ;
#1098 = EDGE_LOOP ( 'NONE', ( #1276, #420, #1154, #443 ) ) ;
#1099 = DIRECTION ( 'NONE',  ( 0.000000000000000000, 0.000000000000000000, 1.000000000000000000 ) ) ;
#1100 = ADVANCED_FACE ( 'NONE', ( #1288 ), #387, .T. ) ;
#1101 = CARTESIAN_POINT ( 'NONE',  ( -51.00000000000002842, -121.2499999999999432, -3.899999999999992806 ) ) ;
#1102 = CARTESIAN_POINT ( 'NONE',  ( 5.999999999999997335, -118.2499999999999432, 0.000000000000000000 ) ) ;
#1103 = FACE_OUTER_BOUND ( 'NONE', #956, .T. ) ;
#1104 = CARTESIAN_POINT ( 'NONE',  ( -73.00000000000004263, -44.24999999999995026, 0.000000000000000000 ) ) ;
#1105 = VERTEX_POINT ( 'NONE', #1005 ) ;
#1106 = DIRECTION ( 'NONE',  ( -1.000000000000000000, 0.000000000000000000, -0.000000000000000000 ) ) ;
#1107 = EDGE_CURVE ( 'NONE', #657, #407, #232, .T. ) ;
#1108 = CARTESIAN_POINT ( 'NONE',  ( -64.00000000000001421, -111.2499999999999432, -6.899999999999991473 ) ) ;
#1109 = DIRECTION ( 'NONE',  ( 0.000000000000000000, 1.000000000000000000, 0.000000000000000000 ) ) ;
#1110 = DIRECTION ( 'NONE',  ( -0.000000000000000000, -0.000000000000000000, 1.000000000000000000 ) ) ;
#1111 = DIRECTION ( 'NONE',  ( -0.000000000000000000, -0.000000000000000000, -1.000000000000000000 ) ) ;
#1112 = AXIS2_PLACEMENT_3D ( 'NONE', #1108, #19, #409 ) ;
#1113 = ORIENTED_EDGE ( 'NONE', *, *, #248, .F. ) ;
#1114 = VECTOR ( 'NONE', #1141, 1000.000000000000000 ) ;
#1115 = DIRECTION ( 'NONE',  ( -0.000000000000000000, -0.000000000000000000, -1.000000000000000000 ) ) ;
#1116 = DIRECTION ( 'NONE',  ( 0.000000000000000000, 0.000000000000000000, 1.000000000000000000 ) ) ;
#1117 = LINE ( 'NONE', #587, #926 ) ;
#1118 = FACE_OUTER_BOUND ( 'NONE', #264, .T. ) ;
#1119 = ORIENTED_EDGE ( 'NONE', *, *, #1174, .T. ) ;
#1120 = DIRECTION ( 'NONE',  ( 1.000000000000000000, 0.000000000000000000, -0.000000000000000000 ) ) ;
#1121 = DIRECTION ( 'NONE',  ( 1.000000000000000000, 0.000000000000000000, 0.000000000000000000 ) ) ;
#1122 = CYLINDRICAL_SURFACE ( 'NONE', #778, 1.599999999999991651 ) ;
#1123 = VERTEX_POINT ( 'NONE', #1207 ) ;
#1124 = DIRECTION ( 'NONE',  ( 0.000000000000000000, 0.000000000000000000, -1.000000000000000000 ) ) ;
#1125 = PLANE ( 'NONE',  #370 ) ;
#1126 = CARTESIAN_POINT ( 'NONE',  ( -32.00000000000001421, -81.24999999999994316, 10.00000000000000000 ) ) ;
#1127 = ORIENTED_EDGE ( 'NONE', *, *, #1062, .T. ) ;
#1128 = AXIS2_PLACEMENT_3D ( 'NONE', #599, #810, #805 ) ;
#1129 = CIRCLE ( 'NONE', #886, 1.600000000000004086 ) ;
#1130 = AXIS2_PLACEMENT_3D ( 'NONE', #176, #465, #1271 ) ;
#1131 = DIRECTION ( 'NONE',  ( 0.000000000000000000, 1.000000000000000000, 0.000000000000000000 ) ) ;
#1132 = DIRECTION ( 'NONE',  ( -0.000000000000000000, 0.000000000000000000, -1.000000000000000000 ) ) ;
#1133 = AXIS2_PLACEMENT_3D ( 'NONE', #485, #78, #562 ) ;
#1134 = CYLINDRICAL_SURFACE ( 'NONE', #667, 3.000000000000000000 ) ;
#1135 = ORIENTED_EDGE ( 'NONE', *, *, #362, .T. ) ;
#1136 = EDGE_CURVE ( 'NONE', #578, #1073, #1129, .T. ) ;
#1137 = CARTESIAN_POINT ( 'NONE',  ( 5.999999999999997335, -41.24999999999994316, 10.00000000000000000 ) ) ;
#1138 = CARTESIAN_POINT ( 'NONE',  ( -64.00000000000001421, -51.24999999999995026, 7.000000000000000000 ) ) ;
#1139 = DIRECTION ( 'NONE',  ( 1.000000000000000000, 0.000000000000000000, 0.000000000000000000 ) ) ;
#1140 = ORIENTED_EDGE ( 'NONE', *, *, #325, .F. ) ;
#1141 = DIRECTION ( 'NONE',  ( 0.000000000000000000, -1.000000000000000000, 0.000000000000000000 ) ) ;
#1142 = EDGE_CURVE ( 'NONE', #658, #1257, #960, .T. ) ;
#1143 = CARTESIAN_POINT ( 'NONE',  ( -10.00000000000000533, -41.24999999999994316, -0.9999999999999920064 ) ) ;
#1144 = ORIENTED_EDGE ( 'NONE', *, *, #315, .F. ) ;
#1145 = VERTEX_POINT ( 'NONE', #692 ) ;
#1146 = CIRCLE ( 'NONE', #581, 1.600000000000004086 ) ;
#1147 = AXIS2_PLACEMENT_3D ( 'NONE', #1191, #204, #300 ) ;
#1148 = ADVANCED_FACE ( 'NONE', ( #705 ), #3, .F. ) ;
#1149 = VECTOR ( 'NONE', #1261, 1000.000000000000000 ) ;
#1150 = AXIS2_PLACEMENT_3D ( 'NONE', #275, #1168, #568 ) ;
#1151 = CARTESIAN_POINT ( 'NONE',  ( 0.000000000000000000, -121.2499999999999432, 0.000000000000000000 ) ) ;
#1153 = ADVANCED_FACE ( 'NONE', ( #181 ), #682, .T. ) ;
#1152 =( NAMED_UNIT ( * ) SI_UNIT ( $, .STERADIAN. ) SOLID_ANGLE_UNIT ( ) );
#1154 = ORIENTED_EDGE ( 'NONE', *, *, #643, .F. ) ;
#1155 = ORIENTED_EDGE ( 'NONE', *, *, #725, .F. ) ;
#1156 = VERTEX_POINT ( 'NONE', #1186 ) ;
#1157 = LINE ( 'NONE', #951, #320 ) ;
#1158 = PLANE ( 'NONE',  #839 ) ;
#1159 = ORIENTED_EDGE ( 'NONE', *, *, #744, .F. ) ;
#1160 = VERTEX_POINT ( 'NONE', #385 ) ;
#1161 = ORIENTED_EDGE ( 'NONE', *, *, #395, .F. ) ;
#1162 = FACE_OUTER_BOUND ( 'NONE', #998, .T. ) ;
#1163 = DIRECTION ( 'NONE',  ( 1.000000000000000000, 0.000000000000000000, 0.000000000000000000 ) ) ;
#1164 = EDGE_LOOP ( 'NONE', ( #413, #1079, #1202, #540, #748, #557 ) ) ;
#1165 = ORIENTED_EDGE ( 'NONE', *, *, #638, .T. ) ;
#1166 = DIRECTION ( 'NONE',  ( 1.000000000000000000, 0.000000000000000000, 0.000000000000000000 ) ) ;
#1167 = CIRCLE ( 'NONE', #624, 3.000000000000002665 ) ;
#1168 = DIRECTION ( 'NONE',  ( 0.000000000000000000, 0.000000000000000000, 1.000000000000000000 ) ) ;
#1169 = CIRCLE ( 'NONE', #1028, 3.000000000000000000 ) ;
#1170 = LINE ( 'NONE', #569, #1149 ) ;
#1171 = ORIENTED_EDGE ( 'NONE', *, *, #853, .T. ) ;
#1172 = ORIENTED_EDGE ( 'NONE', *, *, #310, .F. ) ;
#1173 = CARTESIAN_POINT ( 'NONE',  ( 8.999999999999998224, -44.24999999999995026, 10.00000000000000000 ) ) ;
#1174 = EDGE_CURVE ( 'NONE', #921, #1145, #85, .T. ) ;
#1175 = DIRECTION ( 'NONE',  ( 0.000000000000000000, -1.000000000000000000, 0.000000000000000000 ) ) ;
#1176 = CYLINDRICAL_SURFACE ( 'NONE', #113, 1.600000000000004086 ) ;
#1177 = VERTEX_POINT ( 'NONE', #995 ) ;
#1178 = PLANE ( 'NONE',  #148 ) ;
#1179 = DIRECTION ( 'NONE',  ( -1.000000000000000000, 0.000000000000000000, 0.000000000000000000 ) ) ;
#1180 = EDGE_CURVE ( 'NONE', #483, #641, #792, .T. ) ;
#1181 = CYLINDRICAL_SURFACE ( 'NONE', #1230, 3.000000000000002665 ) ;
#1182 = CARTESIAN_POINT ( 'NONE',  ( 3.000000000000000000, -111.2499999999999432, 7.000000000000000000 ) ) ;
#1183 = VERTEX_POINT ( 'NONE', #288 ) ;
#1184 = ORIENTED_EDGE ( 'NONE', *, *, #38, .T. ) ;
#1185 = DIRECTION ( 'NONE',  ( 0.000000000000000000, 0.000000000000000000, 1.000000000000000000 ) ) ;
#1186 = CARTESIAN_POINT ( 'NONE',  ( 5.999999999999997335, -41.24999999999994316, 0.000000000000000000 ) ) ;
#1187 = EDGE_CURVE ( 'NONE', #881, #45, #906, .T. ) ;
#1188 = DIRECTION ( 'NONE',  ( 0.000000000000000000, 0.000000000000000000, 1.000000000000000000 ) ) ;
#1189 = VECTOR ( 'NONE', #32, 1000.000000000000000 ) ;
#1190 = AXIS2_PLACEMENT_3D ( 'NONE', #220, #306, #991 ) ;
#1191 = CARTESIAN_POINT ( 'NONE',  ( -51.00000000000002842, 5.264621357160437221, -3.899999999999992806 ) ) ;
#1192 = CIRCLE ( 'NONE', #295, 1.600000000000004752 ) ;
#1193 = VERTEX_POINT ( 'NONE', #890 ) ;
#1194 = EDGE_CURVE ( 'NONE', #172, #965, #1087, .T. ) ;
#1195 = VECTOR ( 'NONE', #521, 1000.000000000000000 ) ;
#1196 = ORIENTED_EDGE ( 'NONE', *, *, #153, .T. ) ;
#1197 = AXIS2_PLACEMENT_3D ( 'NONE', #1072, #877, #693 ) ;
#1198 = LINE ( 'NONE', #304, #801 ) ;
#1199 = DIRECTION ( 'NONE',  ( -0.000000000000000000, 0.000000000000000000, 1.000000000000000000 ) ) ;
#1200 = CARTESIAN_POINT ( 'NONE',  ( -61.00000000000001421, -111.2499999999999432, 7.000000000000000000 ) ) ;
#1201 = DIRECTION ( 'NONE',  ( -0.000000000000000000, 0.000000000000000000, -1.000000000000000000 ) ) ;
#1202 = ORIENTED_EDGE ( 'NONE', *, *, #415, .F. ) ;
#1203 = EDGE_LOOP ( 'NONE', ( #308, #933, #1161, #375, #899, #359 ) ) ;
#1204 = EDGE_CURVE ( 'NONE', #1043, #123, #1044, .T. ) ;
#1205 = CARTESIAN_POINT ( 'NONE',  ( -54.00000000000003553, 5.264621357160437221, -6.899999999999993250 ) ) ;
#1206 = CARTESIAN_POINT ( 'NONE',  ( 8.999999999999998224, 0.000000000000000000, 0.000000000000000000 ) ) ;
#1207 = CARTESIAN_POINT ( 'NONE',  ( -13.00000000000001066, -121.2499999999999432, -6.899999999999993250 ) ) ;
#1208 = CARTESIAN_POINT ( 'NONE',  ( -55.00000000000003553, -121.2499999999999432, 0.000000000000000000 ) ) ;
#1209 = ORIENTED_EDGE ( 'NONE', *, *, #241, .T. ) ;
#1210 = FACE_OUTER_BOUND ( 'NONE', #1203, .T. ) ;
#1211 = DIRECTION ( 'NONE',  ( -0.000000000000000000, 0.000000000000000000, 1.000000000000000000 ) ) ;
#1212 = FACE_OUTER_BOUND ( 'NONE', #523, .T. ) ;
#1213 = LINE ( 'NONE', #215, #1195 ) ;
#1214 = ORIENTED_EDGE ( 'NONE', *, *, #400, .T. ) ;
#1215 = CIRCLE ( 'NONE', #253, 1.600000000000004086 ) ;
#1216 = LINE ( 'NONE', #944, #984 ) ;
#1217 = DIRECTION ( 'NONE',  ( 0.000000000000000000, -1.000000000000000000, 0.000000000000000000 ) ) ;
#1218 = EDGE_CURVE ( 'NONE', #45, #814, #804, .T. ) ;
#1219 = DIRECTION ( 'NONE',  ( -1.000000000000000000, 0.000000000000000000, 0.000000000000000000 ) ) ;
#1220 = VERTEX_POINT ( 'NONE', #785 ) ;
#1221 = CARTESIAN_POINT ( 'NONE',  ( -62.40000000000001279, -51.24999999999995026, 7.000000000000000888 ) ) ;
#1222 = ADVANCED_FACE ( 'NONE', ( #1083, #190 ), #585, .T. ) ;
#1223 = FACE_OUTER_BOUND ( 'NONE', #832, .T. ) ;
#1224 = ORIENTED_EDGE ( 'NONE', *, *, #74, .F. ) ;
#1225 = DIRECTION ( 'NONE',  ( 1.000000000000000000, 0.000000000000000000, -0.000000000000000000 ) ) ;
#1226 = EDGE_CURVE ( 'NONE', #965, #1043, #323, .T. ) ;
#1227 = CARTESIAN_POINT ( 'NONE',  ( -51.00000000000002842, -121.2499999999999432, -6.899999999999993250 ) ) ;
#1228 = EDGE_LOOP ( 'NONE', ( #1242, #977, #976, #99 ) ) ;
#1229 = EDGE_CURVE ( 'NONE', #468, #250, #1216, .T. ) ;
#1230 = AXIS2_PLACEMENT_3D ( 'NONE', #289, #996, #102 ) ;
#1231 = AXIS2_PLACEMENT_3D ( 'NONE', #411, #213, #510 ) ;
#1232 = AXIS2_PLACEMENT_3D ( 'NONE', #37, #634, #247 ) ;
#1233 = PRODUCT_DEFINITION_FORMATION_WITH_SPECIFIED_SOURCE ( '浠', '', #79, .NOT_KNOWN. ) ;
#1234 = CIRCLE ( 'NONE', #10, 1.600000000000004086 ) ;
#1235 = LINE ( 'NONE', #439, #710 ) ;
#1236 = DIRECTION ( 'NONE',  ( 1.000000000000000000, 0.000000000000000000, 0.000000000000000000 ) ) ;
#1237 = LINE ( 'NONE', #549, #65 ) ;
#1238 = ORIENTED_EDGE ( 'NONE', *, *, #1180, .T. ) ;
#1239 = ORIENTED_EDGE ( 'NONE', *, *, #310, .T. ) ;
#1240 = CARTESIAN_POINT ( 'NONE',  ( -70.00000000000002842, -121.2499999999999432, 0.000000000000000000 ) ) ;
#1241 = CARTESIAN_POINT ( 'NONE',  ( 0.000000000000000000, -51.24999999999995026, 7.000000000000000000 ) ) ;
#1242 = ORIENTED_EDGE ( 'NONE', *, *, #631, .F. ) ;
#1243 = ORIENTED_EDGE ( 'NONE', *, *, #605, .F. ) ;
#1244 = ADVANCED_FACE ( 'NONE', ( #723 ), #1022, .F. ) ;
#1245 = EDGE_CURVE ( 'NONE', #82, #742, #537, .T. ) ;
#1246 = DIRECTION ( 'NONE',  ( -0.000000000000000000, 0.000000000000000000, 1.000000000000000000 ) ) ;
#1247 = SURFACE_STYLE_USAGE ( .BOTH. , #768 ) ;
#1248 = ORIENTED_EDGE ( 'NONE', *, *, #25, .T. ) ;
#1249 = ORIENTED_EDGE ( 'NONE', *, *, #665, .F. ) ;
#1250 = AXIS2_PLACEMENT_3D ( 'NONE', #1013, #1211, #513 ) ;
#1251 = CIRCLE ( 'NONE', #189, 3.000000000000002665 ) ;
#1252 = CIRCLE ( 'NONE', #841, 6.249999999999998224 ) ;
#1253 = ADVANCED_FACE ( 'NONE', ( #338 ), #838, .F. ) ;
#1254 = DIRECTION ( 'NONE',  ( 0.000000000000000000, -1.000000000000000000, 0.000000000000000000 ) ) ;
#1255 = FACE_OUTER_BOUND ( 'NONE', #434, .T. ) ;
#1256 = ORIENTED_EDGE ( 'NONE', *, *, #1001, .F. ) ;
#1257 = VERTEX_POINT ( 'NONE', #428 ) ;
#1258 = UNCERTAINTY_MEASURE_WITH_UNIT (LENGTH_MEASURE( 1.000000000000000082E-05 ), #124, 'distance_accuracy_value', 'NONE');
#1259 = EDGE_LOOP ( 'NONE', ( #270, #206 ) ) ;
#1260 = CARTESIAN_POINT ( 'NONE',  ( -55.00000000000003553, -41.24999999999994316, -1.000000000000004441 ) ) ;
#1261 = DIRECTION ( 'NONE',  ( -0.000000000000000000, -0.000000000000000000, 1.000000000000000000 ) ) ;
#1262 = EDGE_LOOP ( 'NONE', ( #1155, #948, #147, #265 ) ) ;
#1263 = CARTESIAN_POINT ( 'NONE',  ( -32.00000000000001421, -81.24999999999994316, 10.00000000000000000 ) ) ;
#1264 = DIRECTION ( 'NONE',  ( 5.880418562633244003E-16, 0.000000000000000000, 1.000000000000000000 ) ) ;
#1265 = EDGE_LOOP ( 'NONE', ( #679, #473, #894, #62 ) ) ;
#1266 = LINE ( 'NONE', #178, #909 ) ;
#1267 = ORIENTED_EDGE ( 'NONE', *, *, #167, .T. ) ;
#1268 = EDGE_CURVE ( 'NONE', #881, #653, #1235, .T. ) ;
#1269 = DIRECTION ( 'NONE',  ( 1.000000000000000000, 0.000000000000000000, 0.000000000000000000 ) ) ;
#1270 = AXIS2_PLACEMENT_3D ( 'NONE', #501, #896, #1285 ) ;
#1271 = DIRECTION ( 'NONE',  ( 1.000000000000000000, 0.000000000000000000, 0.000000000000000000 ) ) ;
#1272 = VECTOR ( 'NONE', #1092, 1000.000000000000000 ) ;
#1273 =( LENGTH_UNIT ( ) NAMED_UNIT ( * ) SI_UNIT ( .MILLI., .METRE. ) );
#1274 = CIRCLE ( 'NONE', #168, 1.600000000000004086 ) ;
#1275 = FACE_OUTER_BOUND ( 'NONE', #972, .T. ) ;
#1276 = ORIENTED_EDGE ( 'NONE', *, *, #414, .T. ) ;
#1277 = CARTESIAN_POINT ( 'NONE',  ( -64.00000000000001421, -111.2499999999999432, -6.899999999999991473 ) ) ;
#1278 = DIRECTION ( 'NONE',  ( -0.000000000000000000, -0.000000000000000000, 1.000000000000000000 ) ) ;
#1279 = CARTESIAN_POINT ( 'NONE',  ( -32.00000000000001421, -81.24999999999994316, 10.00000000000000000 ) ) ;
#1280 = CARTESIAN_POINT ( 'NONE',  ( 5.999999999999997335, -118.2499999999999432, 10.00000000000000000 ) ) ;
#1281 = LINE ( 'NONE', #796, #650 ) ;
#1282 = ORIENTED_EDGE ( 'NONE', *, *, #1097, .F. ) ;
#1283 = FACE_OUTER_BOUND ( 'NONE', #893, .T. ) ;
#1284 = EDGE_CURVE ( 'NONE', #389, #1156, #712, .T. ) ;
#1285 = DIRECTION ( 'NONE',  ( 1.000000000000000000, 0.000000000000000000, 0.000000000000000000 ) ) ;
#1286 = CARTESIAN_POINT ( 'NONE',  ( 8.999999999999998224, 0.000000000000000000, 10.00000000000000000 ) ) ;
#1287 = ADVANCED_FACE ( 'NONE', ( #242, #224, #1210 ), #633, .F. ) ;
#1288 = FACE_OUTER_BOUND ( 'NONE', #1025, .T. ) ;
#1289 = EDGE_LOOP ( 'NONE', ( #630, #565, #423, #57, #162, #44, #703, #649, #640, #158, #512, #672 ) ) ;
ENDSEC;
END-ISO-10303-21;
