ISO-10303-21;
HEADER;
FILE_DESCRIPTION (( 'STEP AP214' ),
    '1' );
FILE_NAME ('≤‚ ‘ÃΩ’ÎH5.STEP',
    '2025-10-15T09:50:31',
    ( '' ),
    ( '' ),
    'SwSTEP 2.0',
    'SolidWorks 2025',
    '' );
FILE_SCHEMA (( 'AUTOMOTIVE_DESIGN' ));
ENDSEC;

DATA;
#1 = EDGE_CURVE ( 'NONE', #414, #565, #571, .T. ) ;
#2 =( NAMED_UNIT ( * ) PLANE_ANGLE_UNIT ( ) SI_UNIT ( $, .RADIAN. ) );
#3 = SURFACE_STYLE_USAGE ( .BOTH. , #356 ) ;
#4 = ORIENTED_EDGE ( 'NONE', *, *, #564, .F. ) ;
#5 = DIRECTION ( 'NONE',  ( -1.000000000000000000, -1.294323098652657553E-16, 0.000000000000000000 ) ) ;
#6 = SURFACE_SIDE_STYLE ('',( #549 ) ) ;
#7 = ORIENTED_EDGE ( 'NONE', *, *, #36, .T. ) ;
#8 = AXIS2_PLACEMENT_3D ( 'NONE', #507, #543, #216 ) ;
#9 = STYLED_ITEM ( 'NONE', ( #353 ), #437 ) ;
#10 = CARTESIAN_POINT ( 'NONE',  ( 7.347880794884117764E-17, 19.00000000000000000, 0.5999999999999999778 ) ) ;
#11 = VERTEX_POINT ( 'NONE', #579 ) ;
#12 = SURFACE_STYLE_USAGE ( .BOTH. , #301 ) ;
#13 = APPLICATION_CONTEXT ( 'automotive_design' ) ;
#14 = ORIENTED_EDGE ( 'NONE', *, *, #161, .F. ) ;
#15 = CARTESIAN_POINT ( 'NONE',  ( 0.000000000000000000, 33.00000000000000000, 0.000000000000000000 ) ) ;
#16 = ORIENTED_EDGE ( 'NONE', *, *, #420, .T. ) ;
#17 = MECHANICAL_DESIGN_GEOMETRIC_PRESENTATION_REPRESENTATION (  '', ( #115 ), #219 ) ;
#18 = PRODUCT_DEFINITION_FORMATION_WITH_SPECIFIED_SOURCE ( '‰ª', '', #360, .NOT_KNOWN. ) ;
#19 = ORIENTED_EDGE ( 'NONE', *, *, #322, .T. ) ;
#20 =( LENGTH_UNIT ( ) NAMED_UNIT ( * ) SI_UNIT ( .MILLI., .METRE. ) );
#21 = FILL_AREA_STYLE ('',( #476 ) ) ;
#22 = ORIENTED_EDGE ( 'NONE', *, *, #307, .T. ) ;
#23 = PRESENTATION_STYLE_ASSIGNMENT (( #515 ) ) ;
#24 = EDGE_CURVE ( 'NONE', #308, #31, #131, .T. ) ;
#25 = CYLINDRICAL_SURFACE ( 'NONE', #328, 1.199999999999999734 ) ;
#26 = ORIENTED_EDGE ( 'NONE', *, *, #326, .T. ) ;
#27 =( NAMED_UNIT ( * ) SI_UNIT ( $, .STERADIAN. ) SOLID_ANGLE_UNIT ( ) );
#28 = EDGE_CURVE ( 'NONE', #480, #508, #318, .T. ) ;
#29 = DIRECTION ( 'NONE',  ( -0.000000000000000000, -1.000000000000000000, -0.000000000000000000 ) ) ;
#30 = AXIS2_PLACEMENT_3D ( 'NONE', #435, #336, #244 ) ;
#31 = VERTEX_POINT ( 'NONE', #576 ) ;
#32 = AXIS2_PLACEMENT_3D ( 'NONE', #490, #580, #215 ) ;
#33 = CARTESIAN_POINT ( 'NONE',  ( -1.200000000000003508, 30.00000000000000355, 0.000000000000000000 ) ) ;
#34 = DIRECTION ( 'NONE',  ( -0.000000000000000000, -1.000000000000000000, -0.000000000000000000 ) ) ;
#35 = CARTESIAN_POINT ( 'NONE',  ( -4.651510561181919946E-15, 33.00000000000000000, 0.000000000000000000 ) ) ;
#36 = EDGE_CURVE ( 'NONE', #11, #281, #339, .T. ) ;
#37 = DIRECTION ( 'NONE',  ( -0.000000000000000000, -1.000000000000000000, -0.000000000000000000 ) ) ;
#38 = CARTESIAN_POINT ( 'NONE',  ( 0.000000000000000000, 24.00000000000000000, -0.5999999999999999778 ) ) ;
#39 = MECHANICAL_DESIGN_GEOMETRIC_PRESENTATION_REPRESENTATION (  '', ( #63 ), #193 ) ;
#40 = AXIS2_PLACEMENT_3D ( 'NONE', #188, #569, #145 ) ;
#41 = ORIENTED_EDGE ( 'NONE', *, *, #119, .F. ) ;
#42 =( LENGTH_UNIT ( ) NAMED_UNIT ( * ) SI_UNIT ( .MILLI., .METRE. ) );
#43 = SURFACE_STYLE_FILL_AREA ( #498 ) ;
#44 = UNCERTAINTY_MEASURE_WITH_UNIT (LENGTH_MEASURE( 1.000000000000000082E-05 ), #42, 'distance_accuracy_value', 'NONE');
#45 = CYLINDRICAL_SURFACE ( 'NONE', #496, 0.5999999999999999778 ) ;
#46 = EDGE_CURVE ( 'NONE', #201, #214, #94, .T. ) ;
#47 = LINE ( 'NONE', #218, #173 ) ;
#48 = VECTOR ( 'NONE', #34, 1000.000000000000000 ) ;
#49 = CIRCLE ( 'NONE', #475, 0.1500000000000046851 ) ;
#50 =( NAMED_UNIT ( * ) SI_UNIT ( $, .STERADIAN. ) SOLID_ANGLE_UNIT ( ) );
#51 = FACE_OUTER_BOUND ( 'NONE', #264, .T. ) ;
#52 = DIRECTION ( 'NONE',  ( -1.000000000000000000, 0.000000000000000000, 0.000000000000000000 ) ) ;
#53 = SURFACE_STYLE_USAGE ( .BOTH. , #452 ) ;
#54 = AXIS2_PLACEMENT_3D ( 'NONE', #373, #469, #239 ) ;
#55 = AXIS2_PLACEMENT_3D ( 'NONE', #165, #384, #575 ) ;
#56 = DIRECTION ( 'NONE',  ( 0.000000000000000000, 1.000000000000000000, 0.000000000000000000 ) ) ;
#57 = CYLINDRICAL_SURFACE ( 'NONE', #259, 0.4500000000000000111 ) ;
#58 = EDGE_LOOP ( 'NONE', ( #242, #464 ) ) ;
#59 = DIRECTION ( 'NONE',  ( -0.000000000000000000, -1.000000000000000000, -0.000000000000000000 ) ) ;
#60 = EDGE_CURVE ( 'NONE', #70, #454, #124, .T. ) ;
#61 = ORIENTED_EDGE ( 'NONE', *, *, #494, .T. ) ;
#62 = PRESENTATION_STYLE_ASSIGNMENT (( #271 ) ) ;
#63 = STYLED_ITEM ( 'NONE', ( #337 ), #116 ) ;
#64 = AXIS2_PLACEMENT_3D ( 'NONE', #456, #450, #504 ) ;
#65 = DIRECTION ( 'NONE',  ( -1.000000000000000000, -1.294323098652657553E-16, 0.000000000000000000 ) ) ;
#66 = AXIS2_PLACEMENT_3D ( 'NONE', #446, #329, #525 ) ;
#67 =( GEOMETRIC_REPRESENTATION_CONTEXT ( 3 ) GLOBAL_UNCERTAINTY_ASSIGNED_CONTEXT ( ( #178 ) ) GLOBAL_UNIT_ASSIGNED_CONTEXT ( ( #20, #158, #462 ) ) REPRESENTATION_CONTEXT ( 'NONE', 'WORKASPACE' ) );
#68 = EDGE_LOOP ( 'NONE', ( #144, #132 ) ) ;
#69 = DIRECTION ( 'NONE',  ( 0.000000000000000000, 1.000000000000000000, 0.000000000000000000 ) ) ;
#70 = VERTEX_POINT ( 'NONE', #296 ) ;
#71 = DIRECTION ( 'NONE',  ( 0.000000000000000000, 0.000000000000000000, -1.000000000000000000 ) ) ;
#72 = DIRECTION ( 'NONE',  ( 0.000000000000000000, 0.000000000000000000, 1.000000000000000000 ) ) ;
#73 = EDGE_LOOP ( 'NONE', ( #297, #157, #198, #148 ) ) ;
#74 =( NAMED_UNIT ( * ) PLANE_ANGLE_UNIT ( ) SI_UNIT ( $, .RADIAN. ) );
#75 = CARTESIAN_POINT ( 'NONE',  ( -4.651510561181919946E-15, 33.00000000000000000, 0.000000000000000000 ) ) ;
#76 = AXIS2_PLACEMENT_3D ( 'NONE', #175, #100, #89 ) ;
#77 = PRESENTATION_LAYER_ASSIGNMENT (  '', '', ( #105 ) ) ;
#78 = CARTESIAN_POINT ( 'NONE',  ( 0.000000000000000000, 0.000000000000000000, 0.000000000000000000 ) ) ;
#79 = DIRECTION ( 'NONE',  ( -1.000000000000000000, 0.000000000000000000, 0.000000000000000000 ) ) ;
#80 = DIRECTION ( 'NONE',  ( 0.000000000000000000, 1.000000000000000000, 0.000000000000000000 ) ) ;
#81 = DIRECTION ( 'NONE',  ( -1.000000000000000000, 0.000000000000000000, 0.000000000000000000 ) ) ;
#82 = CARTESIAN_POINT ( 'NONE',  ( 0.000000000000000000, 19.00000000000000000, -0.6500000000000000222 ) ) ;
#83 = FILL_AREA_STYLE_COLOUR ( '', #483 ) ;
#84 = CIRCLE ( 'NONE', #313, 0.4500000000000000111 ) ;
#85 = AXIS2_PLACEMENT_3D ( 'NONE', #517, #197, #200 ) ;
#86 = PRESENTATION_LAYER_ASSIGNMENT (  '', '', ( #276 ) ) ;
#87 = SURFACE_SIDE_STYLE ('',( #43 ) ) ;
#88 = PRESENTATION_STYLE_ASSIGNMENT (( #53 ) ) ;
#89 = DIRECTION ( 'NONE',  ( 0.000000000000000000, 0.000000000000000000, -1.000000000000000000 ) ) ;
#90 = ORIENTED_EDGE ( 'NONE', *, *, #307, .F. ) ;
#91 = SURFACE_STYLE_FILL_AREA ( #409 ) ;
#92 = DIRECTION ( 'NONE',  ( -1.294323098652657553E-16, 1.000000000000000000, -0.000000000000000000 ) ) ;
#93 = EDGE_LOOP ( 'NONE', ( #196, #128, #26, #314 ) ) ;
#94 = CIRCLE ( 'NONE', #534, 0.5999999999999999778 ) ;
#95 = CYLINDRICAL_SURFACE ( 'NONE', #275, 0.4500000000000000111 ) ;
#96 =( GEOMETRIC_REPRESENTATION_CONTEXT ( 3 ) GLOBAL_UNCERTAINTY_ASSIGNED_CONTEXT ( ( #141 ) ) GLOBAL_UNIT_ASSIGNED_CONTEXT ( ( #241, #509, #27 ) ) REPRESENTATION_CONTEXT ( 'NONE', 'WORKASPACE' ) );
#97 = MECHANICAL_DESIGN_GEOMETRIC_PRESENTATION_REPRESENTATION (  '', ( #276 ), #67 ) ;
#98 = EDGE_CURVE ( 'NONE', #425, #364, #274, .T. ) ;
#99 = FACE_OUTER_BOUND ( 'NONE', #418, .T. ) ;
#100 = DIRECTION ( 'NONE',  ( -0.000000000000000000, -1.000000000000000000, -0.000000000000000000 ) ) ;
#101 = ORIENTED_EDGE ( 'NONE', *, *, #376, .T. ) ;
#102 = CARTESIAN_POINT ( 'NONE',  ( 0.000000000000000000, 19.00000000000000000, -0.5999999999999999778 ) ) ;
#103 = UNCERTAINTY_MEASURE_WITH_UNIT (LENGTH_MEASURE( 1.000000000000000082E-05 ), #349, 'distance_accuracy_value', 'NONE');
#104 = CIRCLE ( 'NONE', #284, 0.6500000000000000222 ) ;
#105 = STYLED_ITEM ( 'NONE', ( #62 ), #451 ) ;
#106 = AXIS2_PLACEMENT_3D ( 'NONE', #563, #59, #71 ) ;
#107 = EDGE_LOOP ( 'NONE', ( #544, #370, #176, #278 ) ) ;
#108 = CARTESIAN_POINT ( 'NONE',  ( 5.510910596163088939E-17, 30.00000000000000355, 0.4500000000000000111 ) ) ;
#109 = LINE ( 'NONE', #427, #379 ) ;
#110 = ORIENTED_EDGE ( 'NONE', *, *, #387, .F. ) ;
#111 = FACE_OUTER_BOUND ( 'NONE', #154, .T. ) ;
#112 = DIRECTION ( 'NONE',  ( -1.000000000000000000, 0.000000000000000000, 0.000000000000000000 ) ) ;
#113 = ORIENTED_EDGE ( 'NONE', *, *, #528, .F. ) ;
#114 = CARTESIAN_POINT ( 'NONE',  ( 0.000000000000000000, 24.00000000000000000, -0.4500000000000000111 ) ) ;
#115 = STYLED_ITEM ( 'NONE', ( #447 ), #180 ) ;
#116 = MANIFOLD_SOLID_BREP ( '\X2\52079664\X0\-\X2\65cb8f6c\X0\5', #461 ) ;
#117 = CARTESIAN_POINT ( 'NONE',  ( 7.960204194457795477E-17, 19.00000000000000000, 0.6500000000000000222 ) ) ;
#118 = ORIENTED_EDGE ( 'NONE', *, *, #516, .F. ) ;
#119 = EDGE_CURVE ( 'NONE', #281, #554, #345, .T. ) ;
#120 = CARTESIAN_POINT ( 'NONE',  ( 0.000000000000000000, 19.00000000000000000, 0.000000000000000000 ) ) ;
#121 = EDGE_LOOP ( 'NONE', ( #351, #7 ) ) ;
#122 = CARTESIAN_POINT ( 'NONE',  ( 0.000000000000000000, 30.00000000000000355, 0.000000000000000000 ) ) ;
#123 = DIRECTION ( 'NONE',  ( -1.000000000000000000, 0.000000000000000000, 0.000000000000000000 ) ) ;
#124 = CIRCLE ( 'NONE', #346, 0.4500000000000000111 ) ;
#125 = COLOUR_RGB ( '',0.6470588235294117974, 0.6196078431372549211, 0.5882352941176470784 ) ;
#126 = PRODUCT_CONTEXT ( 'NONE', #227, 'mechanical' ) ;
#127 = CARTESIAN_POINT ( 'NONE',  ( -1.199999999999999734, -1.761578251097735291E-16, 0.000000000000000000 ) ) ;
#128 = ORIENTED_EDGE ( 'NONE', *, *, #204, .F. ) ;
#129 = DIRECTION ( 'NONE',  ( -1.000000000000000000, 0.000000000000000000, 0.000000000000000000 ) ) ;
#130 = LINE ( 'NONE', #248, #184 ) ;
#131 = LINE ( 'NONE', #482, #431 ) ;
#132 = ORIENTED_EDGE ( 'NONE', *, *, #28, .F. ) ;
#133 = AXIS2_PLACEMENT_3D ( 'NONE', #382, #163, #123 ) ;
#134 =( NAMED_UNIT ( * ) PLANE_ANGLE_UNIT ( ) SI_UNIT ( $, .RADIAN. ) );
#135 = CARTESIAN_POINT ( 'NONE',  ( -3.882969295957973153E-15, 30.00000000000000355, 0.000000000000000000 ) ) ;
#136 = FACE_OUTER_BOUND ( 'NONE', #205, .T. ) ;
#137 = PRESENTATION_LAYER_ASSIGNMENT (  '', '', ( #115 ) ) ;
#138 = CIRCLE ( 'NONE', #40, 0.5999999999999999778 ) ;
#139 = CYLINDRICAL_SURFACE ( 'NONE', #76, 0.6500000000000000222 ) ;
#140 = EDGE_LOOP ( 'NONE', ( #550, #101, #567, #273 ) ) ;
#141 = UNCERTAINTY_MEASURE_WITH_UNIT (LENGTH_MEASURE( 1.000000000000000082E-05 ), #241, 'distance_accuracy_value', 'NONE');
#142 = FILL_AREA_STYLE ('',( #311 ) ) ;
#143 = PRESENTATION_STYLE_ASSIGNMENT (( #369 ) ) ;
#144 = ORIENTED_EDGE ( 'NONE', *, *, #372, .F. ) ;
#145 = DIRECTION ( 'NONE',  ( 0.000000000000000000, 0.000000000000000000, 1.000000000000000000 ) ) ;
#146 = COLOUR_RGB ( '',0.6470588235294117974, 0.5176470588235293491, 0.000000000000000000 ) ;
#147 =( NAMED_UNIT ( * ) SI_UNIT ( $, .STERADIAN. ) SOLID_ANGLE_UNIT ( ) );
#148 = ORIENTED_EDGE ( 'NONE', *, *, #236, .T. ) ;
#149 = LINE ( 'NONE', #325, #568 ) ;
#150 = ADVANCED_FACE ( 'NONE', ( #288 ), #266, .T. ) ;
#151 = ORIENTED_EDGE ( 'NONE', *, *, #532, .F. ) ;
#152 = CARTESIAN_POINT ( 'NONE',  ( 0.000000000000000000, 30.00000000000000355, -0.4500000000000000111 ) ) ;
#153 = DIRECTION ( 'NONE',  ( 0.000000000000000000, 0.000000000000000000, 1.000000000000000000 ) ) ;
#154 = EDGE_LOOP ( 'NONE', ( #408, #22 ) ) ;
#155 = STYLED_ITEM ( 'NONE', ( #143 ), #257 ) ;
#156 = VECTOR ( 'NONE', #191, 1000.000000000000000 ) ;
#157 = ORIENTED_EDGE ( 'NONE', *, *, #28, .T. ) ;
#158 =( NAMED_UNIT ( * ) PLANE_ANGLE_UNIT ( ) SI_UNIT ( $, .RADIAN. ) );
#159 = FACE_OUTER_BOUND ( 'NONE', #229, .T. ) ;
#160 = DIRECTION ( 'NONE',  ( -1.409548654903612038E-16, 1.000000000000000000, -0.000000000000000000 ) ) ;
#161 = EDGE_CURVE ( 'NONE', #364, #201, #249, .T. ) ;
#162 = ADVANCED_BREP_SHAPE_REPRESENTATION ( '\X2\6d4b8bd563a29488\X0\H5', ( #116, #55 ), #392 ) ;
#163 = DIRECTION ( 'NONE',  ( -1.409548654903612038E-16, 1.000000000000000000, -0.000000000000000000 ) ) ;
#164 = CARTESIAN_POINT ( 'NONE',  ( 0.000000000000000000, 24.00000000000000000, 0.000000000000000000 ) ) ;
#165 = CARTESIAN_POINT ( 'NONE',  ( 0.000000000000000000, 0.000000000000000000, 0.000000000000000000 ) ) ;
#166 = CIRCLE ( 'NONE', #182, 1.199999999999999734 ) ;
#167 = MECHANICAL_DESIGN_GEOMETRIC_PRESENTATION_REPRESENTATION (  '', ( #304 ), #460 ) ;
#168 = DIRECTION ( 'NONE',  ( -0.7071067811865460184, -0.7071067811865489050, 8.659560562354914369E-17 ) ) ;
#169 = FACE_OUTER_BOUND ( 'NONE', #559, .T. ) ;
#170 = DIRECTION ( 'NONE',  ( 0.000000000000000000, 1.000000000000000000, 0.000000000000000000 ) ) ;
#171 = DIRECTION ( 'NONE',  ( 0.000000000000000000, 1.000000000000000000, 0.000000000000000000 ) ) ;
#172 = FACE_OUTER_BOUND ( 'NONE', #93, .T. ) ;
#173 = VECTOR ( 'NONE', #350, 1000.000000000000000 ) ;
#174 = AXIS2_PLACEMENT_3D ( 'NONE', #283, #439, #79 ) ;
#175 = CARTESIAN_POINT ( 'NONE',  ( 0.000000000000000000, 19.00000000000000000, 0.000000000000000000 ) ) ;
#176 = ORIENTED_EDGE ( 'NONE', *, *, #161, .T. ) ;
#177 = ORIENTED_EDGE ( 'NONE', *, *, #352, .F. ) ;
#178 = UNCERTAINTY_MEASURE_WITH_UNIT (LENGTH_MEASURE( 1.000000000000000082E-05 ), #20, 'distance_accuracy_value', 'NONE');
#179 = SURFACE_STYLE_FILL_AREA ( #142 ) ;
#180 = ADVANCED_FACE ( 'NONE', ( #393, #169 ), #344, .T. ) ;
#181 = FACE_OUTER_BOUND ( 'NONE', #121, .T. ) ;
#182 = AXIS2_PLACEMENT_3D ( 'NONE', #135, #92, #52 ) ;
#183 = ORIENTED_EDGE ( 'NONE', *, *, #299, .F. ) ;
#184 = VECTOR ( 'NONE', #391, 999.9999999999998863 ) ;
#185 = PRODUCT_DEFINITION_SHAPE ( 'NONE', 'NONE',  #572 ) ;
#186 = CARTESIAN_POINT ( 'NONE',  ( 0.000000000000000000, -2.083905327145464119E-17, 0.000000000000000000 ) ) ;
#187 = CARTESIAN_POINT ( 'NONE',  ( 0.1500000000000000222, 33.00000000000000000, 0.000000000000000000 ) ) ;
#188 = CARTESIAN_POINT ( 'NONE',  ( 0.000000000000000000, 24.00000000000000000, 0.000000000000000000 ) ) ;
#189 = DIRECTION ( 'NONE',  ( 0.000000000000000000, 0.000000000000000000, -1.000000000000000000 ) ) ;
#190 = VERTEX_POINT ( 'NONE', #300 ) ;
#191 = DIRECTION ( 'NONE',  ( -0.000000000000000000, -1.000000000000000000, -0.000000000000000000 ) ) ;
#192 = ADVANCED_FACE ( 'NONE', ( #181 ), #401, .T. ) ;
#193 =( GEOMETRIC_REPRESENTATION_CONTEXT ( 3 ) GLOBAL_UNCERTAINTY_ASSIGNED_CONTEXT ( ( #298 ) ) GLOBAL_UNIT_ASSIGNED_CONTEXT ( ( #253, #530, #536 ) ) REPRESENTATION_CONTEXT ( 'NONE', 'WORKASPACE' ) );
#194 = CIRCLE ( 'NONE', #174, 1.199999999999999512 ) ;
#195 = DIRECTION ( 'NONE',  ( -1.294323098652657553E-16, 1.000000000000000000, -0.000000000000000000 ) ) ;
#196 = ORIENTED_EDGE ( 'NONE', *, *, #24, .F. ) ;
#197 = DIRECTION ( 'NONE',  ( 0.000000000000000000, 1.000000000000000000, 0.000000000000000000 ) ) ;
#198 = ORIENTED_EDGE ( 'NONE', *, *, #484, .T. ) ;
#199 = DIRECTION ( 'NONE',  ( 1.000000000000000000, 1.110223024625160731E-16, 0.000000000000000000 ) ) ;
#200 = DIRECTION ( 'NONE',  ( 0.000000000000000000, -0.000000000000000000, 1.000000000000000000 ) ) ;
#201 = VERTEX_POINT ( 'NONE', #102 ) ;
#202 = VECTOR ( 'NONE', #433, 1000.000000000000227 ) ;
#203 = LINE ( 'NONE', #82, #48 ) ;
#204 = EDGE_CURVE ( 'NONE', #234, #308, #104, .T. ) ;
#205 = EDGE_LOOP ( 'NONE', ( #501, #467, #477, #527 ) ) ;
#206 = CARTESIAN_POINT ( 'NONE',  ( -0.4500000000000092260, 32.55000000000000426, 1.010333609296570568E-16 ) ) ;
#207 = DIRECTION ( 'NONE',  ( 1.000000000000000000, 0.000000000000000000, 0.000000000000000000 ) ) ;
#208 = ADVANCED_FACE ( 'NONE', ( #172 ), #139, .T. ) ;
#209 = EDGE_CURVE ( 'NONE', #562, #190, #47, .T. ) ;
#210 = AXIS2_PLACEMENT_3D ( 'NONE', #538, #160, #81 ) ;
#211 = DIRECTION ( 'NONE',  ( -0.000000000000000000, -1.000000000000000000, -0.000000000000000000 ) ) ;
#212 = AXIS2_PLACEMENT_3D ( 'NONE', #426, #560, #415 ) ;
#213 = EDGE_CURVE ( 'NONE', #518, #562, #166, .T. ) ;
#214 = VERTEX_POINT ( 'NONE', #10 ) ;
#215 = DIRECTION ( 'NONE',  ( 0.000000000000000000, 0.000000000000000000, 1.000000000000000000 ) ) ;
#216 = DIRECTION ( 'NONE',  ( 0.000000000000000000, -0.000000000000000000, 1.000000000000000000 ) ) ;
#217 = DIRECTION ( 'NONE',  ( 0.000000000000000000, 0.000000000000000000, -1.000000000000000000 ) ) ;
#218 = CARTESIAN_POINT ( 'NONE',  ( 1.199999999999999734, 1.344797185668642344E-16, 1.469576158976823553E-16 ) ) ;
#219 =( GEOMETRIC_REPRESENTATION_CONTEXT ( 3 ) GLOBAL_UNCERTAINTY_ASSIGNED_CONTEXT ( ( #255 ) ) GLOBAL_UNIT_ASSIGNED_CONTEXT ( ( #309, #134, #542 ) ) REPRESENTATION_CONTEXT ( 'NONE', 'WORKASPACE' ) );
#220 = ADVANCED_FACE ( 'NONE', ( #258 ), #25, .T. ) ;
#221 = AXIS2_PLACEMENT_3D ( 'NONE', #492, #80, #72 ) ;
#222 = VERTEX_POINT ( 'NONE', #465 ) ;
#223 = PRODUCT_DEFINITION_CONTEXT ( 'detailed design', #13, 'design' ) ;
#224 = DIRECTION ( 'NONE',  ( 0.000000000000000000, 1.000000000000000000, 0.000000000000000000 ) ) ;
#225 = ORIENTED_EDGE ( 'NONE', *, *, #36, .F. ) ;
#226 = SURFACE_STYLE_FILL_AREA ( #584 ) ;
#227 = APPLICATION_CONTEXT ( 'automotive_design' ) ;
#228 = MECHANICAL_DESIGN_GEOMETRIC_PRESENTATION_REPRESENTATION (  '', ( #155 ), #430 ) ;
#229 = EDGE_LOOP ( 'NONE', ( #118, #151, #422, #332 ) ) ;
#230 = VECTOR ( 'NONE', #37, 1000.000000000000000 ) ;
#231 = DIRECTION ( 'NONE',  ( -0.000000000000000000, -1.000000000000000000, -0.000000000000000000 ) ) ;
#232 = FACE_OUTER_BOUND ( 'NONE', #140, .T. ) ;
#233 = CARTESIAN_POINT ( 'NONE',  ( 0.000000000000000000, 19.00000000000000000, -0.6500000000000000222 ) ) ;
#234 = VERTEX_POINT ( 'NONE', #233 ) ;
#235 = ORIENTED_EDGE ( 'NONE', *, *, #24, .T. ) ;
#236 = EDGE_CURVE ( 'NONE', #454, #70, #84, .T. ) ;
#237 = FILL_AREA_STYLE ('',( #243 ) ) ;
#238 = CONICAL_SURFACE ( 'NONE', #66, 999.9999999999961346, 0.7853981633974463916 ) ;
#239 = DIRECTION ( 'NONE',  ( 0.000000000000000000, 0.000000000000000000, 1.000000000000000000 ) ) ;
#240 = EDGE_LOOP ( 'NONE', ( #225, #269, #16, #41 ) ) ;
#241 =( LENGTH_UNIT ( ) NAMED_UNIT ( * ) SI_UNIT ( .MILLI., .METRE. ) );
#242 = ORIENTED_EDGE ( 'NONE', *, *, #413, .F. ) ;
#243 = FILL_AREA_STYLE_COLOUR ( '', #317 ) ;
#244 = DIRECTION ( 'NONE',  ( 0.000000000000000000, 0.000000000000000000, -1.000000000000000000 ) ) ;
#245 = ORIENTED_EDGE ( 'NONE', *, *, #236, .F. ) ;
#246 = DIRECTION ( 'NONE',  ( 1.409548654903612038E-16, -1.000000000000000000, 0.000000000000000000 ) ) ;
#247 = CARTESIAN_POINT ( 'NONE',  ( 0.1500000000000000222, 33.00000000000000000, 0.000000000000000000 ) ) ;
#248 = CARTESIAN_POINT ( 'NONE',  ( 0.000000000000000000, 33.00000000000000000, 0.000000000000000000 ) ) ;
#249 = LINE ( 'NONE', #38, #577 ) ;
#250 = CARTESIAN_POINT ( 'NONE',  ( -4.588080871711257857E-15, 32.55000000000000426, 0.000000000000000000 ) ) ;
#251 = DIRECTION ( 'NONE',  ( 1.000000000000000000, 0.000000000000000000, 0.000000000000000000 ) ) ;
#252 = PRODUCT_RELATED_PRODUCT_CATEGORY ( 'part', '', ( #360 ) ) ;
#253 =( LENGTH_UNIT ( ) NAMED_UNIT ( * ) SI_UNIT ( .MILLI., .METRE. ) );
#254 = EDGE_LOOP ( 'NONE', ( #381, #457, #523, #177 ) ) ;
#255 = UNCERTAINTY_MEASURE_WITH_UNIT (LENGTH_MEASURE( 1.000000000000000082E-05 ), #309, 'distance_accuracy_value', 'NONE');
#256 = FILL_AREA_STYLE_COLOUR ( '', #417 ) ;
#257 = ADVANCED_FACE ( 'NONE', ( #232 ), #57, .T. ) ;
#258 = FACE_OUTER_BOUND ( 'NONE', #254, .T. ) ;
#259 = AXIS2_PLACEMENT_3D ( 'NONE', #15, #416, #189 ) ;
#260 = EDGE_LOOP ( 'NONE', ( #511, #358, #61, #110 ) ) ;
#261 = AXIS2_PLACEMENT_3D ( 'NONE', #250, #333, #129 ) ;
#262 = FACE_OUTER_BOUND ( 'NONE', #73, .T. ) ;
#263 = CARTESIAN_POINT ( 'NONE',  ( 0.000000000000000000, 24.00000000000000000, 0.000000000000000000 ) ) ;
#264 = EDGE_LOOP ( 'NONE', ( #324, #4, #327, #472 ) ) ;
#265 = CARTESIAN_POINT ( 'NONE',  ( 7.347880794884117764E-17, 24.00000000000000000, 0.5999999999999999778 ) ) ;
#266 = CONICAL_SURFACE ( 'NONE', #355, 0.1500000000000046851, 0.5880026035475683921 ) ;
#267 = CIRCLE ( 'NONE', #471, 0.4500000000000000111 ) ;
#268 = SURFACE_STYLE_USAGE ( .BOTH. , #277 ) ;
#269 = ORIENTED_EDGE ( 'NONE', *, *, #516, .T. ) ;
#270 = EDGE_LOOP ( 'NONE', ( #367, #305 ) ) ;
#271 = SURFACE_STYLE_USAGE ( .BOTH. , #551 ) ;
#272 = DIRECTION ( 'NONE',  ( -1.294323098652657553E-16, 1.000000000000000000, -0.000000000000000000 ) ) ;
#273 = ORIENTED_EDGE ( 'NONE', *, *, #484, .F. ) ;
#274 = CIRCLE ( 'NONE', #302, 0.5999999999999999778 ) ;
#275 = AXIS2_PLACEMENT_3D ( 'NONE', #541, #231, #217 ) ;
#276 = STYLED_ITEM ( 'NONE', ( #23 ), #473 ) ;
#277 = SURFACE_SIDE_STYLE ('',( #561 ) ) ;
#278 = ORIENTED_EDGE ( 'NONE', *, *, #46, .T. ) ;
#279 = DIRECTION ( 'NONE',  ( 0.000000000000000000, -0.000000000000000000, 1.000000000000000000 ) ) ;
#280 =( NAMED_UNIT ( * ) SI_UNIT ( $, .STERADIAN. ) SOLID_ANGLE_UNIT ( ) );
#281 = VERTEX_POINT ( 'NONE', #187 ) ;
#282 = ADVANCED_FACE ( 'NONE', ( #323 ), #520, .F. ) ;
#283 = CARTESIAN_POINT ( 'NONE',  ( -4.115947453715451068E-15, 31.80000000000000071, 0.000000000000000000 ) ) ;
#284 = AXIS2_PLACEMENT_3D ( 'NONE', #303, #224, #398 ) ;
#285 = COLOUR_RGB ( '',0.6470588235294117974, 0.6196078431372549211, 0.5882352941176470784 ) ;
#286 = DIRECTION ( 'NONE',  ( 1.294323098652657553E-16, -1.000000000000000000, 0.000000000000000000 ) ) ;
#287 = CONICAL_SURFACE ( 'NONE', #524, 999.9999999999961346, 0.7853981633974463916 ) ;
#288 = FACE_OUTER_BOUND ( 'NONE', #240, .T. ) ;
#289 = CARTESIAN_POINT ( 'NONE',  ( -4.651510561181919946E-15, 33.00000000000000000, 0.000000000000000000 ) ) ;
#290 = DIRECTION ( 'NONE',  ( 0.000000000000000000, 0.000000000000000000, 1.000000000000000000 ) ) ;
#291 =( NAMED_UNIT ( * ) SI_UNIT ( $, .STERADIAN. ) SOLID_ANGLE_UNIT ( ) );
#292 = CARTESIAN_POINT ( 'NONE',  ( 0.000000000000000000, 24.00000000000000000, 0.000000000000000000 ) ) ;
#293 = DIRECTION ( 'NONE',  ( 1.294323098652657553E-16, -1.000000000000000000, 0.000000000000000000 ) ) ;
#294 = STYLED_ITEM ( 'NONE', ( #312 ), #220 ) ;
#295 = AXIS2_PLACEMENT_3D ( 'NONE', #557, #272, #112 ) ;
#296 = CARTESIAN_POINT ( 'NONE',  ( 5.510910596163088939E-17, 24.00000000000000000, 0.4500000000000000111 ) ) ;
#297 = ORIENTED_EDGE ( 'NONE', *, *, #376, .F. ) ;
#298 = UNCERTAINTY_MEASURE_WITH_UNIT (LENGTH_MEASURE( 1.000000000000000082E-05 ), #253, 'distance_accuracy_value', 'NONE');
#299 = EDGE_CURVE ( 'NONE', #562, #518, #578, .T. ) ;
#300 = CARTESIAN_POINT ( 'NONE',  ( 1.199999999999995071, 31.80000000000000071, 0.000000000000000000 ) ) ;
#301 = SURFACE_SIDE_STYLE ('',( #179 ) ) ;
#302 = AXIS2_PLACEMENT_3D ( 'NONE', #342, #574, #493 ) ;
#303 = CARTESIAN_POINT ( 'NONE',  ( 0.000000000000000000, 19.00000000000000000, 0.000000000000000000 ) ) ;
#304 = STYLED_ITEM ( 'NONE', ( #88 ), #424 ) ;
#305 = ORIENTED_EDGE ( 'NONE', *, *, #98, .T. ) ;
#306 =( NAMED_UNIT ( * ) SI_UNIT ( $, .STERADIAN. ) SOLID_ANGLE_UNIT ( ) );
#307 = EDGE_CURVE ( 'NONE', #308, #234, #357, .T. ) ;
#308 = VERTEX_POINT ( 'NONE', #117 ) ;
#309 =( LENGTH_UNIT ( ) NAMED_UNIT ( * ) SI_UNIT ( .MILLI., .METRE. ) );
#310 = UNCERTAINTY_MEASURE_WITH_UNIT (LENGTH_MEASURE( 1.000000000000000082E-05 ), #458, 'distance_accuracy_value', 'NONE');
#311 = FILL_AREA_STYLE_COLOUR ( '', #558 ) ;
#312 = PRESENTATION_STYLE_ASSIGNMENT (( #268 ) ) ;
#313 = AXIS2_PLACEMENT_3D ( 'NONE', #319, #56, #153 ) ;
#314 = ORIENTED_EDGE ( 'NONE', *, *, #413, .T. ) ;
#315 = AXIS2_PLACEMENT_3D ( 'NONE', #75, #246, #432 ) ;
#316 = CARTESIAN_POINT ( 'NONE',  ( 1.251610436397119852E-13, -967.0000000000000000, 0.000000000000000000 ) ) ;
#317 = COLOUR_RGB ( '',0.6470588235294117974, 0.6196078431372549211, 0.5882352941176470784 ) ;
#318 = CIRCLE ( 'NONE', #400, 0.4500000000000000111 ) ;
#319 = CARTESIAN_POINT ( 'NONE',  ( 0.000000000000000000, 24.00000000000000000, 0.000000000000000000 ) ) ;
#320 = EDGE_LOOP ( 'NONE', ( #245, #374 ) ) ;
#321 = LINE ( 'NONE', #375, #156 ) ;
#322 = EDGE_CURVE ( 'NONE', #425, #214, #109, .T. ) ;
#323 = FACE_OUTER_BOUND ( 'NONE', #58, .T. ) ;
#324 = ORIENTED_EDGE ( 'NONE', *, *, #1, .F. ) ;
#325 = CARTESIAN_POINT ( 'NONE',  ( -0.1500000000000093481, 33.00000000000000000, 1.836970198721087065E-17 ) ) ;
#326 = EDGE_CURVE ( 'NONE', #234, #222, #203, .T. ) ;
#327 = ORIENTED_EDGE ( 'NONE', *, *, #387, .T. ) ;
#328 = AXIS2_PLACEMENT_3D ( 'NONE', #331, #195, #65 ) ;
#329 = DIRECTION ( 'NONE',  ( 1.294323098652657553E-16, -1.000000000000000000, 0.000000000000000000 ) ) ;
#330 = CIRCLE ( 'NONE', #497, 0.6500000000000000222 ) ;
#331 = CARTESIAN_POINT ( 'NONE',  ( 0.000000000000000000, -2.083905327145464119E-17, 0.000000000000000000 ) ) ;
#332 = ORIENTED_EDGE ( 'NONE', *, *, #564, .T. ) ;
#333 = DIRECTION ( 'NONE',  ( -1.409548654903612038E-16, 1.000000000000000000, -0.000000000000000000 ) ) ;
#334 = LINE ( 'NONE', #481, #230 ) ;
#335 = DIRECTION ( 'NONE',  ( 0.000000000000000000, 0.000000000000000000, 1.000000000000000000 ) ) ;
#336 = DIRECTION ( 'NONE',  ( -0.000000000000000000, -1.000000000000000000, -0.000000000000000000 ) ) ;
#337 = PRESENTATION_STYLE_ASSIGNMENT (( #488 ) ) ;
#338 = CARTESIAN_POINT ( 'NONE',  ( 1.199999999999995737, 30.00000000000000355, 1.469576158976823553E-16 ) ) ;
#339 = CIRCLE ( 'NONE', #210, 0.1500000000000046851 ) ;
#340 = AXIS2_PLACEMENT_3D ( 'NONE', #186, #359, #5 ) ;
#341 = FACE_OUTER_BOUND ( 'NONE', #107, .T. ) ;
#342 = CARTESIAN_POINT ( 'NONE',  ( 0.000000000000000000, 24.00000000000000000, 0.000000000000000000 ) ) ;
#343 = CYLINDRICAL_SURFACE ( 'NONE', #30, 0.5999999999999999778 ) ;
#344 = PLANE ( 'NONE',  #64 ) ;
#345 = LINE ( 'NONE', #247, #202 ) ;
#346 = AXIS2_PLACEMENT_3D ( 'NONE', #164, #443, #290 ) ;
#347 = VECTOR ( 'NONE', #168, 1000.000000000000114 ) ;
#348 = ADVANCED_FACE ( 'NONE', ( #341 ), #343, .T. ) ;
#349 =( LENGTH_UNIT ( ) NAMED_UNIT ( * ) SI_UNIT ( .MILLI., .METRE. ) );
#350 = DIRECTION ( 'NONE',  ( -1.294323098652657553E-16, 1.000000000000000000, -0.000000000000000000 ) ) ;
#351 = ORIENTED_EDGE ( 'NONE', *, *, #532, .T. ) ;
#352 = EDGE_CURVE ( 'NONE', #518, #565, #485, .T. ) ;
#353 = PRESENTATION_STYLE_ASSIGNMENT (( #12 ) ) ;
#354 = EDGE_CURVE ( 'NONE', #190, #565, #194, .T. ) ;
#355 = AXIS2_PLACEMENT_3D ( 'NONE', #35, #486, #207 ) ;
#356 = SURFACE_SIDE_STYLE ('',( #500 ) ) ;
#357 = CIRCLE ( 'NONE', #54, 0.6500000000000000222 ) ;
#358 = ORIENTED_EDGE ( 'NONE', *, *, #1, .T. ) ;
#359 = DIRECTION ( 'NONE',  ( -1.294323098652657553E-16, 1.000000000000000000, -0.000000000000000000 ) ) ;
#360 = PRODUCT ( '\X2\6d4b8bd563a29488\X0\H5', '\X2\6d4b8bd563a29488\X0\H5', '', ( #126 ) ) ;
#361 = FILL_AREA_STYLE ('',( #256 ) ) ;
#362 = DIRECTION ( 'NONE',  ( -0.000000000000000000, -1.000000000000000000, -0.000000000000000000 ) ) ;
#363 = SURFACE_STYLE_FILL_AREA ( #365 ) ;
#364 = VERTEX_POINT ( 'NONE', #570 ) ;
#365 = FILL_AREA_STYLE ('',( #412 ) ) ;
#366 = MECHANICAL_DESIGN_GEOMETRIC_PRESENTATION_REPRESENTATION (  '', ( #294 ), #510 ) ;
#367 = ORIENTED_EDGE ( 'NONE', *, *, #466, .T. ) ;
#368 = CIRCLE ( 'NONE', #133, 0.4500000000000046185 ) ;
#369 = SURFACE_STYLE_USAGE ( .BOTH. , #526 ) ;
#370 = ORIENTED_EDGE ( 'NONE', *, *, #466, .F. ) ;
#371 = SURFACE_STYLE_FILL_AREA ( #237 ) ;
#372 = EDGE_CURVE ( 'NONE', #508, #480, #267, .T. ) ;
#373 = CARTESIAN_POINT ( 'NONE',  ( 0.000000000000000000, 19.00000000000000000, 0.000000000000000000 ) ) ;
#374 = ORIENTED_EDGE ( 'NONE', *, *, #60, .F. ) ;
#375 = CARTESIAN_POINT ( 'NONE',  ( 0.000000000000000000, 33.00000000000000000, -0.4500000000000000111 ) ) ;
#376 = EDGE_CURVE ( 'NONE', #480, #70, #334, .T. ) ;
#377 = ORIENTED_EDGE ( 'NONE', *, *, #548, .T. ) ;
#378 = FACE_OUTER_BOUND ( 'NONE', #383, .T. ) ;
#379 = VECTOR ( 'NONE', #29, 1000.000000000000000 ) ;
#380 = DIRECTION ( 'NONE',  ( -1.294323098652657553E-16, 1.000000000000000000, -0.000000000000000000 ) ) ;
#381 = ORIENTED_EDGE ( 'NONE', *, *, #213, .T. ) ;
#382 = CARTESIAN_POINT ( 'NONE',  ( -4.588080871711257857E-15, 32.55000000000000426, 0.000000000000000000 ) ) ;
#383 = EDGE_LOOP ( 'NONE', ( #90, #235, #377, #428 ) ) ;
#384 = DIRECTION ( 'NONE',  ( 0.000000000000000000, 0.000000000000000000, 1.000000000000000000 ) ) ;
#385 = FACE_BOUND ( 'NONE', #320, .T. ) ;
#386 = CARTESIAN_POINT ( 'NONE',  ( 0.000000000000000000, 19.00000000000000000, 0.000000000000000000 ) ) ;
#387 = EDGE_CURVE ( 'NONE', #554, #190, #130, .T. ) ;
#388 =( GEOMETRIC_REPRESENTATION_CONTEXT ( 3 ) GLOBAL_UNCERTAINTY_ASSIGNED_CONTEXT ( ( #491 ) ) GLOBAL_UNIT_ASSIGNED_CONTEXT ( ( #503, #453, #50 ) ) REPRESENTATION_CONTEXT ( 'NONE', 'WORKASPACE' ) );
#389 = AXIS2_PLACEMENT_3D ( 'NONE', #120, #69, #279 ) ;
#390 = PRESENTATION_LAYER_ASSIGNMENT (  '', '', ( #304 ) ) ;
#391 = DIRECTION ( 'NONE',  ( 0.7071067811865462405, -0.7071067811865489050, 0.000000000000000000 ) ) ;
#392 =( GEOMETRIC_REPRESENTATION_CONTEXT ( 3 ) GLOBAL_UNCERTAINTY_ASSIGNED_CONTEXT ( ( #44 ) ) GLOBAL_UNIT_ASSIGNED_CONTEXT ( ( #42, #74, #291 ) ) REPRESENTATION_CONTEXT ( 'NONE', 'WORKASPACE' ) );
#393 = FACE_BOUND ( 'NONE', #68, .T. ) ;
#394 = APPLICATION_PROTOCOL_DEFINITION ( 'draft international standard', 'automotive_design', 1998, #227 ) ;
#395 = ADVANCED_FACE ( 'NONE', ( #385, #529 ), #533, .T. ) ;
#396 = CARTESIAN_POINT ( 'NONE',  ( 0.000000000000000000, 30.00000000000000355, 0.000000000000000000 ) ) ;
#397 = ADVANCED_FACE ( 'NONE', ( #159 ), #449, .T. ) ;
#398 = DIRECTION ( 'NONE',  ( 0.000000000000000000, 0.000000000000000000, 1.000000000000000000 ) ) ;
#399 = MECHANICAL_DESIGN_GEOMETRIC_PRESENTATION_REPRESENTATION (  '', ( #105 ), #96 ) ;
#400 = AXIS2_PLACEMENT_3D ( 'NONE', #396, #293, #251 ) ;
#401 = PLANE ( 'NONE',  #8 ) ;
#402 = ORIENTED_EDGE ( 'NONE', *, *, #213, .F. ) ;
#403 = UNCERTAINTY_MEASURE_WITH_UNIT (LENGTH_MEASURE( 1.000000000000000082E-05 ), #553, 'distance_accuracy_value', 'NONE');
#404 =( NAMED_UNIT ( * ) SI_UNIT ( $, .STERADIAN. ) SOLID_ANGLE_UNIT ( ) );
#405 = ORIENTED_EDGE ( 'NONE', *, *, #528, .T. ) ;
#406 = COLOUR_RGB ( '',0.6470588235294117974, 0.6196078431372549211, 0.5882352941176470784 ) ;
#407 =( GEOMETRIC_REPRESENTATION_CONTEXT ( 3 ) GLOBAL_UNCERTAINTY_ASSIGNED_CONTEXT ( ( #103 ) ) GLOBAL_UNIT_ASSIGNED_CONTEXT ( ( #349, #545, #306 ) ) REPRESENTATION_CONTEXT ( 'NONE', 'WORKASPACE' ) );
#408 = ORIENTED_EDGE ( 'NONE', *, *, #204, .T. ) ;
#409 = FILL_AREA_STYLE ('',( #552 ) ) ;
#410 =( NAMED_UNIT ( * ) PLANE_ANGLE_UNIT ( ) SI_UNIT ( $, .RADIAN. ) );
#411 = FACE_OUTER_BOUND ( 'NONE', #260, .T. ) ;
#412 = FILL_AREA_STYLE_COLOUR ( '', #406 ) ;
#413 = EDGE_CURVE ( 'NONE', #222, #31, #441, .T. ) ;
#414 = VERTEX_POINT ( 'NONE', #206 ) ;
#415 = DIRECTION ( 'NONE',  ( -1.000000000000000000, 0.000000000000000000, 0.000000000000000000 ) ) ;
#416 = DIRECTION ( 'NONE',  ( -0.000000000000000000, -1.000000000000000000, -0.000000000000000000 ) ) ;
#417 = COLOUR_RGB ( '',0.6470588235294117974, 0.6196078431372549211, 0.5882352941176470784 ) ;
#418 = EDGE_LOOP ( 'NONE', ( #505, #19, #405, #14 ) ) ;
#419 = VECTOR ( 'NONE', #380, 1000.000000000000000 ) ;
#420 = EDGE_CURVE ( 'NONE', #414, #554, #368, .T. ) ;
#421 = CIRCLE ( 'NONE', #32, 0.5999999999999999778 ) ;
#422 = ORIENTED_EDGE ( 'NONE', *, *, #119, .T. ) ;
#423 = SURFACE_SIDE_STYLE ('',( #371 ) ) ;
#424 = ADVANCED_FACE ( 'NONE', ( #262 ), #95, .T. ) ;
#425 = VERTEX_POINT ( 'NONE', #265 ) ;
#426 = CARTESIAN_POINT ( 'NONE',  ( -4.115947453715451068E-15, 31.80000000000000071, 0.000000000000000000 ) ) ;
#427 = CARTESIAN_POINT ( 'NONE',  ( 7.347880794884117764E-17, 24.00000000000000000, 0.5999999999999999778 ) ) ;
#428 = ORIENTED_EDGE ( 'NONE', *, *, #326, .F. ) ;
#429 = PRESENTATION_LAYER_ASSIGNMENT (  '', '', ( #521 ) ) ;
#430 =( GEOMETRIC_REPRESENTATION_CONTEXT ( 3 ) GLOBAL_UNCERTAINTY_ASSIGNED_CONTEXT ( ( #403 ) ) GLOBAL_UNIT_ASSIGNED_CONTEXT ( ( #553, #410, #147 ) ) REPRESENTATION_CONTEXT ( 'NONE', 'WORKASPACE' ) );
#431 = VECTOR ( 'NONE', #445, 1000.000000000000000 ) ;
#432 = DIRECTION ( 'NONE',  ( 1.000000000000000000, 0.000000000000000000, 0.000000000000000000 ) ) ;
#433 = DIRECTION ( 'NONE',  ( 0.5547001962252299245, -0.8320502943378430549, 0.000000000000000000 ) ) ;
#434 = DIRECTION ( 'NONE',  ( -1.000000000000000000, 0.000000000000000000, 0.000000000000000000 ) ) ;
#435 = CARTESIAN_POINT ( 'NONE',  ( 0.000000000000000000, 24.00000000000000000, 0.000000000000000000 ) ) ;
#436 = ORIENTED_EDGE ( 'NONE', *, *, #46, .F. ) ;
#437 = ADVANCED_FACE ( 'NONE', ( #136 ), #506, .T. ) ;
#438 = APPLICATION_PROTOCOL_DEFINITION ( 'draft international standard', 'automotive_design', 1998, #13 ) ;
#439 = DIRECTION ( 'NONE',  ( -1.294323098652657553E-16, 1.000000000000000000, -0.000000000000000000 ) ) ;
#440 = ADVANCED_FACE ( 'NONE', ( #99 ), #45, .T. ) ;
#441 = CIRCLE ( 'NONE', #221, 0.6500000000000000222 ) ;
#442 = CIRCLE ( 'NONE', #212, 1.199999999999999512 ) ;
#443 = DIRECTION ( 'NONE',  ( 0.000000000000000000, 1.000000000000000000, 0.000000000000000000 ) ) ;
#444 = CARTESIAN_POINT ( 'NONE',  ( 0.4500000000000000111, 32.55000000000000426, 0.000000000000000000 ) ) ;
#445 = DIRECTION ( 'NONE',  ( -0.000000000000000000, -1.000000000000000000, -0.000000000000000000 ) ) ;
#446 = CARTESIAN_POINT ( 'NONE',  ( 1.251610436397119852E-13, -967.0000000000000000, 0.000000000000000000 ) ) ;
#447 = PRESENTATION_STYLE_ASSIGNMENT (( #459 ) ) ;
#448 = PRESENTATION_LAYER_ASSIGNMENT (  '', '', ( #63 ) ) ;
#449 = CONICAL_SURFACE ( 'NONE', #315, 0.1500000000000046851, 0.5880026035475683921 ) ;
#450 = DIRECTION ( 'NONE',  ( 1.294323098652657553E-16, -1.000000000000000000, 0.000000000000000000 ) ) ;
#451 = ADVANCED_FACE ( 'NONE', ( #51 ), #238, .T. ) ;
#452 = SURFACE_SIDE_STYLE ('',( #91 ) ) ;
#453 =( NAMED_UNIT ( * ) PLANE_ANGLE_UNIT ( ) SI_UNIT ( $, .RADIAN. ) );
#454 = VERTEX_POINT ( 'NONE', #114 ) ;
#455 = DIRECTION ( 'NONE',  ( 0.000000000000000000, 0.000000000000000000, -1.000000000000000000 ) ) ;
#456 = CARTESIAN_POINT ( 'NONE',  ( -1.200000000000003508, 30.00000000000000355, 0.000000000000000000 ) ) ;
#457 = ORIENTED_EDGE ( 'NONE', *, *, #209, .T. ) ;
#458 =( LENGTH_UNIT ( ) NAMED_UNIT ( * ) SI_UNIT ( .MILLI., .METRE. ) );
#459 = SURFACE_STYLE_USAGE ( .BOTH. , #6 ) ;
#460 =( GEOMETRIC_REPRESENTATION_CONTEXT ( 3 ) GLOBAL_UNCERTAINTY_ASSIGNED_CONTEXT ( ( #310 ) ) GLOBAL_UNIT_ASSIGNED_CONTEXT ( ( #458, #2, #404 ) ) REPRESENTATION_CONTEXT ( 'NONE', 'WORKASPACE' ) );
#461 = CLOSED_SHELL ( 'NONE', ( #150, #220, #473, #440, #489, #257, #424, #208, #463, #282, #348, #395, #451, #180, #437, #397, #192 ) ) ;
#462 =( NAMED_UNIT ( * ) SI_UNIT ( $, .STERADIAN. ) SOLID_ANGLE_UNIT ( ) );
#463 = ADVANCED_FACE ( 'NONE', ( #468, #111 ), #555, .T. ) ;
#464 = ORIENTED_EDGE ( 'NONE', *, *, #548, .F. ) ;
#465 = CARTESIAN_POINT ( 'NONE',  ( 0.000000000000000000, 0.000000000000000000, -0.6500000000000000222 ) ) ;
#466 = EDGE_CURVE ( 'NONE', #364, #425, #138, .T. ) ;
#467 = ORIENTED_EDGE ( 'NONE', *, *, #299, .T. ) ;
#468 = FACE_BOUND ( 'NONE', #514, .T. ) ;
#469 = DIRECTION ( 'NONE',  ( 0.000000000000000000, 1.000000000000000000, 0.000000000000000000 ) ) ;
#470 = COLOUR_RGB ( '',0.6470588235294117974, 0.6196078431372549211, 0.5882352941176470784 ) ;
#471 = AXIS2_PLACEMENT_3D ( 'NONE', #122, #286, #537 ) ;
#472 = ORIENTED_EDGE ( 'NONE', *, *, #354, .T. ) ;
#473 = ADVANCED_FACE ( 'NONE', ( #411 ), #287, .T. ) ;
#474 = CIRCLE ( 'NONE', #261, 0.4500000000000046185 ) ;
#475 = AXIS2_PLACEMENT_3D ( 'NONE', #289, #535, #434 ) ;
#476 = FILL_AREA_STYLE_COLOUR ( '', #470 ) ;
#477 = ORIENTED_EDGE ( 'NONE', *, *, #352, .T. ) ;
#478 = CYLINDRICAL_SURFACE ( 'NONE', #106, 0.6500000000000000222 ) ;
#479 = DIRECTION ( 'NONE',  ( 0.000000000000000000, 1.000000000000000000, 0.000000000000000000 ) ) ;
#480 = VERTEX_POINT ( 'NONE', #108 ) ;
#481 = CARTESIAN_POINT ( 'NONE',  ( 5.510910596163088939E-17, 33.00000000000000000, 0.4500000000000000111 ) ) ;
#482 = CARTESIAN_POINT ( 'NONE',  ( 7.960204194457795477E-17, 19.00000000000000000, 0.6500000000000000222 ) ) ;
#483 = COLOUR_RGB ( '',0.6470588235294117974, 0.6196078431372549211, 0.5882352941176470784 ) ;
#484 = EDGE_CURVE ( 'NONE', #508, #454, #321, .T. ) ;
#485 = LINE ( 'NONE', #127, #419 ) ;
#486 = DIRECTION ( 'NONE',  ( 1.409548654903612038E-16, -1.000000000000000000, 0.000000000000000000 ) ) ;
#487 = DIRECTION ( 'NONE',  ( 0.000000000000000000, -0.000000000000000000, 1.000000000000000000 ) ) ;
#488 = SURFACE_STYLE_USAGE ( .BOTH. , #87 ) ;
#489 = ADVANCED_FACE ( 'NONE', ( #378 ), #478, .T. ) ;
#490 = CARTESIAN_POINT ( 'NONE',  ( 0.000000000000000000, 19.00000000000000000, 0.000000000000000000 ) ) ;
#491 = UNCERTAINTY_MEASURE_WITH_UNIT (LENGTH_MEASURE( 1.000000000000000082E-05 ), #503, 'distance_accuracy_value', 'NONE');
#492 = CARTESIAN_POINT ( 'NONE',  ( 0.000000000000000000, 0.000000000000000000, 0.000000000000000000 ) ) ;
#493 = DIRECTION ( 'NONE',  ( 0.000000000000000000, 0.000000000000000000, 1.000000000000000000 ) ) ;
#494 = EDGE_CURVE ( 'NONE', #565, #190, #442, .T. ) ;
#495 = PRESENTATION_LAYER_ASSIGNMENT (  '', '', ( #155 ) ) ;
#496 = AXIS2_PLACEMENT_3D ( 'NONE', #263, #362, #455 ) ;
#497 = AXIS2_PLACEMENT_3D ( 'NONE', #78, #170, #531 ) ;
#498 = FILL_AREA_STYLE ('',( #539 ) ) ;
#499 = UNCERTAINTY_MEASURE_WITH_UNIT (LENGTH_MEASURE( 1.000000000000000082E-05 ), #513, 'distance_accuracy_value', 'NONE');
#500 = SURFACE_STYLE_FILL_AREA ( #361 ) ;
#501 = ORIENTED_EDGE ( 'NONE', *, *, #209, .F. ) ;
#502 = FILL_AREA_STYLE_COLOUR ( '', #125 ) ;
#503 =( LENGTH_UNIT ( ) NAMED_UNIT ( * ) SI_UNIT ( .MILLI., .METRE. ) );
#504 = DIRECTION ( 'NONE',  ( 1.000000000000000000, 1.294323098652657553E-16, 0.000000000000000000 ) ) ;
#505 = ORIENTED_EDGE ( 'NONE', *, *, #98, .F. ) ;
#506 = CYLINDRICAL_SURFACE ( 'NONE', #340, 1.199999999999999734 ) ;
#507 = CARTESIAN_POINT ( 'NONE',  ( 0.000000000000000000, 33.00000000000000000, 0.000000000000000000 ) ) ;
#508 = VERTEX_POINT ( 'NONE', #152 ) ;
#509 =( NAMED_UNIT ( * ) PLANE_ANGLE_UNIT ( ) SI_UNIT ( $, .RADIAN. ) );
#510 =( GEOMETRIC_REPRESENTATION_CONTEXT ( 3 ) GLOBAL_UNCERTAINTY_ASSIGNED_CONTEXT ( ( #499 ) ) GLOBAL_UNIT_ASSIGNED_CONTEXT ( ( #513, #566, #280 ) ) REPRESENTATION_CONTEXT ( 'NONE', 'WORKASPACE' ) );
#511 = ORIENTED_EDGE ( 'NONE', *, *, #420, .F. ) ;
#512 = DIRECTION ( 'NONE',  ( 1.294323098652657553E-16, -1.000000000000000000, 0.000000000000000000 ) ) ;
#513 =( LENGTH_UNIT ( ) NAMED_UNIT ( * ) SI_UNIT ( .MILLI., .METRE. ) );
#514 = EDGE_LOOP ( 'NONE', ( #436, #113 ) ) ;
#515 = SURFACE_STYLE_USAGE ( .BOTH. , #423 ) ;
#516 = EDGE_CURVE ( 'NONE', #11, #414, #149, .T. ) ;
#517 = CARTESIAN_POINT ( 'NONE',  ( 0.000000000000000000, 0.000000000000000000, 0.000000000000000000 ) ) ;
#518 = VERTEX_POINT ( 'NONE', #33 ) ;
#519 = DIRECTION ( 'NONE',  ( -0.5547001962252297025, -0.8320502943378432770, 6.793118197936364582E-17 ) ) ;
#520 = PLANE ( 'NONE',  #85 ) ;
#521 = STYLED_ITEM ( 'NONE', ( #583 ), #192 ) ;
#522 = AXIS2_PLACEMENT_3D ( 'NONE', #292, #479, #487 ) ;
#523 = ORIENTED_EDGE ( 'NONE', *, *, #494, .F. ) ;
#524 = AXIS2_PLACEMENT_3D ( 'NONE', #316, #512, #199 ) ;
#525 = DIRECTION ( 'NONE',  ( 1.000000000000000000, 1.110223024625160731E-16, 0.000000000000000000 ) ) ;
#526 = SURFACE_SIDE_STYLE ('',( #363 ) ) ;
#527 = ORIENTED_EDGE ( 'NONE', *, *, #354, .F. ) ;
#528 = EDGE_CURVE ( 'NONE', #214, #201, #421, .T. ) ;
#529 = FACE_OUTER_BOUND ( 'NONE', #270, .T. ) ;
#530 =( NAMED_UNIT ( * ) PLANE_ANGLE_UNIT ( ) SI_UNIT ( $, .RADIAN. ) );
#531 = DIRECTION ( 'NONE',  ( 0.000000000000000000, 0.000000000000000000, 1.000000000000000000 ) ) ;
#532 = EDGE_CURVE ( 'NONE', #281, #11, #49, .T. ) ;
#533 = PLANE ( 'NONE',  #522 ) ;
#534 = AXIS2_PLACEMENT_3D ( 'NONE', #386, #171, #335 ) ;
#535 = DIRECTION ( 'NONE',  ( -1.409548654903612038E-16, 1.000000000000000000, -0.000000000000000000 ) ) ;
#536 =( NAMED_UNIT ( * ) SI_UNIT ( $, .STERADIAN. ) SOLID_ANGLE_UNIT ( ) );
#537 = DIRECTION ( 'NONE',  ( 1.000000000000000000, 0.000000000000000000, 0.000000000000000000 ) ) ;
#538 = CARTESIAN_POINT ( 'NONE',  ( -4.651510561181919946E-15, 33.00000000000000000, 0.000000000000000000 ) ) ;
#539 = FILL_AREA_STYLE_COLOUR ( '', #146 ) ;
#540 = FILL_AREA_STYLE ('',( #83 ) ) ;
#541 = CARTESIAN_POINT ( 'NONE',  ( 0.000000000000000000, 33.00000000000000000, 0.000000000000000000 ) ) ;
#542 =( NAMED_UNIT ( * ) SI_UNIT ( $, .STERADIAN. ) SOLID_ANGLE_UNIT ( ) );
#543 = DIRECTION ( 'NONE',  ( 0.000000000000000000, 1.000000000000000000, 0.000000000000000000 ) ) ;
#544 = ORIENTED_EDGE ( 'NONE', *, *, #322, .F. ) ;
#545 =( NAMED_UNIT ( * ) PLANE_ANGLE_UNIT ( ) SI_UNIT ( $, .RADIAN. ) );
#546 = PRESENTATION_LAYER_ASSIGNMENT (  '', '', ( #294 ) ) ;
#547 = PRESENTATION_LAYER_ASSIGNMENT (  '', '', ( #9 ) ) ;
#548 = EDGE_CURVE ( 'NONE', #31, #222, #330, .T. ) ;
#549 = SURFACE_STYLE_FILL_AREA ( #540 ) ;
#550 = ORIENTED_EDGE ( 'NONE', *, *, #372, .T. ) ;
#551 = SURFACE_SIDE_STYLE ('',( #226 ) ) ;
#552 = FILL_AREA_STYLE_COLOUR ( '', #285 ) ;
#553 =( LENGTH_UNIT ( ) NAMED_UNIT ( * ) SI_UNIT ( .MILLI., .METRE. ) );
#554 = VERTEX_POINT ( 'NONE', #444 ) ;
#555 = PLANE ( 'NONE',  #389 ) ;
#556 = MECHANICAL_DESIGN_GEOMETRIC_PRESENTATION_REPRESENTATION (  '', ( #521 ), #388 ) ;
#557 = CARTESIAN_POINT ( 'NONE',  ( -3.882969295957973153E-15, 30.00000000000000355, 0.000000000000000000 ) ) ;
#558 = COLOUR_RGB ( '',0.6470588235294117974, 0.6196078431372549211, 0.5882352941176470784 ) ;
#559 = EDGE_LOOP ( 'NONE', ( #402, #183 ) ) ;
#560 = DIRECTION ( 'NONE',  ( -1.294323098652657553E-16, 1.000000000000000000, -0.000000000000000000 ) ) ;
#561 = SURFACE_STYLE_FILL_AREA ( #21 ) ;
#562 = VERTEX_POINT ( 'NONE', #338 ) ;
#563 = CARTESIAN_POINT ( 'NONE',  ( 0.000000000000000000, 19.00000000000000000, 0.000000000000000000 ) ) ;
#564 = EDGE_CURVE ( 'NONE', #554, #414, #474, .T. ) ;
#565 = VERTEX_POINT ( 'NONE', #573 ) ;
#566 =( NAMED_UNIT ( * ) PLANE_ANGLE_UNIT ( ) SI_UNIT ( $, .RADIAN. ) );
#567 = ORIENTED_EDGE ( 'NONE', *, *, #60, .T. ) ;
#568 = VECTOR ( 'NONE', #519, 1000.000000000000000 ) ;
#569 = DIRECTION ( 'NONE',  ( 0.000000000000000000, 1.000000000000000000, 0.000000000000000000 ) ) ;
#570 = CARTESIAN_POINT ( 'NONE',  ( 0.000000000000000000, 24.00000000000000000, -0.5999999999999999778 ) ) ;
#571 = LINE ( 'NONE', #581, #347 ) ;
#572 = PRODUCT_DEFINITION ( 'Êú', '', #18, #223 ) ;
#573 = CARTESIAN_POINT ( 'NONE',  ( -1.200000000000003064, 31.80000000000000071, 1.469576158976823060E-16 ) ) ;
#574 = DIRECTION ( 'NONE',  ( 0.000000000000000000, 1.000000000000000000, 0.000000000000000000 ) ) ;
#575 = DIRECTION ( 'NONE',  ( 1.000000000000000000, 0.000000000000000000, 0.000000000000000000 ) ) ;
#576 = CARTESIAN_POINT ( 'NONE',  ( 7.960204194457795477E-17, 0.000000000000000000, 0.6500000000000000222 ) ) ;
#577 = VECTOR ( 'NONE', #211, 1000.000000000000000 ) ;
#578 = CIRCLE ( 'NONE', #295, 1.199999999999999734 ) ;
#579 = CARTESIAN_POINT ( 'NONE',  ( -0.1500000000000093481, 33.00000000000000000, 3.673940397442115581E-17 ) ) ;
#580 = DIRECTION ( 'NONE',  ( 0.000000000000000000, 1.000000000000000000, 0.000000000000000000 ) ) ;
#581 = CARTESIAN_POINT ( 'NONE',  ( -8.542532451107540936E-15, 33.00000000000000000, 5.230792511430621281E-31 ) ) ;
#582 = SHAPE_DEFINITION_REPRESENTATION ( #185, #162 ) ;
#583 = PRESENTATION_STYLE_ASSIGNMENT (( #3 ) ) ;
#584 = FILL_AREA_STYLE ('',( #502 ) ) ;
#585 = MECHANICAL_DESIGN_GEOMETRIC_PRESENTATION_REPRESENTATION (  '', ( #9 ), #407 ) ;
ENDSEC;
END-ISO-10303-21;
