ISO-10303-21;
HEADER;
FILE_DESCRIPTION (( 'STEP AP214' ),
    '1' );
FILE_NAME ('≤‚ ‘ÃΩ’ÎH2.STEP',
    '2025-10-15T09:49:41',
    ( '' ),
    ( '' ),
    'SwSTEP 2.0',
    'SolidWorks 2025',
    '' );
FILE_SCHEMA (( 'AUTOMOTIVE_DESIGN' ));
ENDSEC;

DATA;
#1 = SHAPE_DEFINITION_REPRESENTATION ( #235, #497 ) ;
#2 = CIRCLE ( 'NONE', #301, 0.6500000000000000222 ) ;
#3 = DIRECTION ( 'NONE',  ( 0.000000000000000000, 0.000000000000000000, 1.000000000000000000 ) ) ;
#4 = SURFACE_SIDE_STYLE ('',( #277 ) ) ;
#5 = AXIS2_PLACEMENT_3D ( 'NONE', #182, #577, #230 ) ;
#6 = CARTESIAN_POINT ( 'NONE',  ( 0.000000000000000000, 33.00000000000000000, -0.4500000000000000111 ) ) ;
#7 = CARTESIAN_POINT ( 'NONE',  ( 0.000000000000000000, 0.000000000000000000, 0.000000000000000000 ) ) ;
#8 = DIRECTION ( 'NONE',  ( -1.294323098652657553E-16, 1.000000000000000000, -0.000000000000000000 ) ) ;
#9 = UNCERTAINTY_MEASURE_WITH_UNIT (LENGTH_MEASURE( 1.000000000000000082E-05 ), #402, 'distance_accuracy_value', 'NONE');
#10 = DIRECTION ( 'NONE',  ( -1.000000000000000000, 0.000000000000000000, 0.000000000000000000 ) ) ;
#11 = CIRCLE ( 'NONE', #282, 0.7499999999999997780 ) ;
#12 = MECHANICAL_DESIGN_GEOMETRIC_PRESENTATION_REPRESENTATION (  '', ( #110 ), #283 ) ;
#13 = CONICAL_SURFACE ( 'NONE', #518, 0.1500000000000046851, 0.5880026035475683921 ) ;
#14 = EDGE_CURVE ( 'NONE', #250, #132, #287, .T. ) ;
#15 = FILL_AREA_STYLE ('',( #107 ) ) ;
#16 = ORIENTED_EDGE ( 'NONE', *, *, #547, .F. ) ;
#17 = FILL_AREA_STYLE_COLOUR ( '', #413 ) ;
#18 = VERTEX_POINT ( 'NONE', #326 ) ;
#19 =( GEOMETRIC_REPRESENTATION_CONTEXT ( 3 ) GLOBAL_UNCERTAINTY_ASSIGNED_CONTEXT ( ( #553 ) ) GLOBAL_UNIT_ASSIGNED_CONTEXT ( ( #191, #542, #232 ) ) REPRESENTATION_CONTEXT ( 'NONE', 'WORKASPACE' ) );
#20 = CIRCLE ( 'NONE', #274, 0.5999999999999999778 ) ;
#21 = EDGE_CURVE ( 'NONE', #514, #531, #116, .T. ) ;
#22 = PRESENTATION_STYLE_ASSIGNMENT (( #463 ) ) ;
#23 = VECTOR ( 'NONE', #546, 1000.000000000000000 ) ;
#24 = PRESENTATION_STYLE_ASSIGNMENT (( #249 ) ) ;
#25 = FACE_OUTER_BOUND ( 'NONE', #187, .T. ) ;
#26 = EDGE_LOOP ( 'NONE', ( #316, #272, #405, #381 ) ) ;
#27 = PRODUCT_DEFINITION_CONTEXT ( 'detailed design', #295, 'design' ) ;
#28 = DIRECTION ( 'NONE',  ( 0.000000000000000000, 0.000000000000000000, 1.000000000000000000 ) ) ;
#29 = ORIENTED_EDGE ( 'NONE', *, *, #73, .T. ) ;
#30 = AXIS2_PLACEMENT_3D ( 'NONE', #490, #36, #352 ) ;
#31 = VECTOR ( 'NONE', #134, 1000.000000000000000 ) ;
#32 = CARTESIAN_POINT ( 'NONE',  ( -3.882969295957973153E-15, 30.00000000000000355, 0.000000000000000000 ) ) ;
#33 = DIRECTION ( 'NONE',  ( 0.000000000000000000, 1.000000000000000000, 0.000000000000000000 ) ) ;
#34 = DIRECTION ( 'NONE',  ( -1.294323098652657553E-16, 1.000000000000000000, -0.000000000000000000 ) ) ;
#35 = ORIENTED_EDGE ( 'NONE', *, *, #329, .F. ) ;
#36 = DIRECTION ( 'NONE',  ( -1.294323098652657553E-16, 1.000000000000000000, -0.000000000000000000 ) ) ;
#37 = EDGE_CURVE ( 'NONE', #132, #250, #533, .T. ) ;
#38 = PRESENTATION_LAYER_ASSIGNMENT (  '', '', ( #566 ) ) ;
#39 =( LENGTH_UNIT ( ) NAMED_UNIT ( * ) SI_UNIT ( .MILLI., .METRE. ) );
#40 = CARTESIAN_POINT ( 'NONE',  ( -4.588080871711257857E-15, 32.55000000000000426, 0.000000000000000000 ) ) ;
#41 = PLANE ( 'NONE',  #150 ) ;
#42 = EDGE_LOOP ( 'NONE', ( #35, #123, #259, #305 ) ) ;
#43 =( NAMED_UNIT ( * ) SI_UNIT ( $, .STERADIAN. ) SOLID_ANGLE_UNIT ( ) );
#44 = PRESENTATION_STYLE_ASSIGNMENT (( #492 ) ) ;
#45 = SURFACE_SIDE_STYLE ('',( #435 ) ) ;
#46 = VERTEX_POINT ( 'NONE', #411 ) ;
#47 = DIRECTION ( 'NONE',  ( -1.294323098652657553E-16, 1.000000000000000000, -0.000000000000000000 ) ) ;
#48 = COLOUR_RGB ( '',0.6470588235294117974, 0.6196078431372549211, 0.5882352941176470784 ) ;
#49 = EDGE_CURVE ( 'NONE', #308, #430, #548, .T. ) ;
#50 = DIRECTION ( 'NONE',  ( -1.000000000000000000, -1.294323098652657553E-16, 0.000000000000000000 ) ) ;
#51 = ORIENTED_EDGE ( 'NONE', *, *, #92, .T. ) ;
#52 = CIRCLE ( 'NONE', #327, 0.1500000000000046851 ) ;
#53 = CARTESIAN_POINT ( 'NONE',  ( 0.000000000000000000, 19.00000000000000000, -0.6500000000000000222 ) ) ;
#54 = CARTESIAN_POINT ( 'NONE',  ( 0.000000000000000000, 0.000000000000000000, 0.000000000000000000 ) ) ;
#55 = DIRECTION ( 'NONE',  ( 0.000000000000000000, -0.000000000000000000, 1.000000000000000000 ) ) ;
#56 = DIRECTION ( 'NONE',  ( -0.000000000000000000, -1.000000000000000000, -0.000000000000000000 ) ) ;
#57 = LINE ( 'NONE', #199, #279 ) ;
#58 = STYLED_ITEM ( 'NONE', ( #22 ), #188 ) ;
#59 = FILL_AREA_STYLE ('',( #285 ) ) ;
#60 = DIRECTION ( 'NONE',  ( -1.409548654903612038E-16, 1.000000000000000000, -0.000000000000000000 ) ) ;
#61 = LINE ( 'NONE', #186, #261 ) ;
#62 = ORIENTED_EDGE ( 'NONE', *, *, #540, .T. ) ;
#63 = EDGE_CURVE ( 'NONE', #308, #174, #52, .T. ) ;
#64 = DIRECTION ( 'NONE',  ( -1.000000000000000000, 0.000000000000000000, 0.000000000000000000 ) ) ;
#65 =( LENGTH_UNIT ( ) NAMED_UNIT ( * ) SI_UNIT ( .MILLI., .METRE. ) );
#66 = AXIS2_PLACEMENT_3D ( 'NONE', #584, #197, #367 ) ;
#67 = CARTESIAN_POINT ( 'NONE',  ( 0.000000000000000000, 30.00000000000000355, -0.4500000000000000111 ) ) ;
#68 = PLANE ( 'NONE',  #500 ) ;
#69 = CONICAL_SURFACE ( 'NONE', #315, 999.9999999999929514, 0.7853981633974447263 ) ;
#70 = EDGE_LOOP ( 'NONE', ( #163, #337 ) ) ;
#71 = FACE_OUTER_BOUND ( 'NONE', #393, .T. ) ;
#72 = EDGE_LOOP ( 'NONE', ( #102, #177 ) ) ;
#73 = EDGE_CURVE ( 'NONE', #406, #484, #517, .T. ) ;
#74 = FACE_OUTER_BOUND ( 'NONE', #319, .T. ) ;
#75 = AXIS2_PLACEMENT_3D ( 'NONE', #7, #195, #55 ) ;
#76 = LINE ( 'NONE', #535, #201 ) ;
#77 = CARTESIAN_POINT ( 'NONE',  ( 0.1500000000000000222, 33.00000000000000000, 0.000000000000000000 ) ) ;
#78 = ORIENTED_EDGE ( 'NONE', *, *, #225, .T. ) ;
#79 = CARTESIAN_POINT ( 'NONE',  ( 0.000000000000000000, 24.00000000000000000, 0.000000000000000000 ) ) ;
#80 = EDGE_CURVE ( 'NONE', #174, #308, #379, .T. ) ;
#81 = ORIENTED_EDGE ( 'NONE', *, *, #540, .F. ) ;
#82 = STYLED_ITEM ( 'NONE', ( #217 ), #491 ) ;
#83 = PRODUCT_DEFINITION_FORMATION_WITH_SPECIFIED_SOURCE ( '‰ª', '', #444, .NOT_KNOWN. ) ;
#84 = PRESENTATION_STYLE_ASSIGNMENT (( #441 ) ) ;
#85 = LINE ( 'NONE', #264, #382 ) ;
#86 = ORIENTED_EDGE ( 'NONE', *, *, #530, .T. ) ;
#87 = COLOUR_RGB ( '',0.6470588235294117974, 0.6196078431372549211, 0.5882352941176470784 ) ;
#88 = LINE ( 'NONE', #178, #408 ) ;
#89 =( NAMED_UNIT ( * ) PLANE_ANGLE_UNIT ( ) SI_UNIT ( $, .RADIAN. ) );
#90 = CARTESIAN_POINT ( 'NONE',  ( 0.000000000000000000, 0.000000000000000000, 0.000000000000000000 ) ) ;
#91 = EDGE_LOOP ( 'NONE', ( #436, #397 ) ) ;
#92 = EDGE_CURVE ( 'NONE', #494, #132, #57, .T. ) ;
#93 = ORIENTED_EDGE ( 'NONE', *, *, #37, .F. ) ;
#94 =( NAMED_UNIT ( * ) SI_UNIT ( $, .STERADIAN. ) SOLID_ANGLE_UNIT ( ) );
#95 = DIRECTION ( 'NONE',  ( 0.000000000000000000, 1.000000000000000000, 0.000000000000000000 ) ) ;
#96 = CONICAL_SURFACE ( 'NONE', #412, 0.1500000000000046851, 0.5880026035475683921 ) ;
#97 = CARTESIAN_POINT ( 'NONE',  ( 0.7499999999999954481, 32.25000000000000000, 0.000000000000000000 ) ) ;
#98 = CARTESIAN_POINT ( 'NONE',  ( 0.000000000000000000, 24.00000000000000000, 0.000000000000000000 ) ) ;
#99 = CARTESIAN_POINT ( 'NONE',  ( 1.251610436397119852E-13, -967.0000000000000000, 0.000000000000000000 ) ) ;
#100 = CONICAL_SURFACE ( 'NONE', #189, 999.9999999999929514, 0.7853981633974447263 ) ;
#101 = AXIS2_PLACEMENT_3D ( 'NONE', #32, #390, #125 ) ;
#102 = ORIENTED_EDGE ( 'NONE', *, *, #389, .F. ) ;
#103 = VECTOR ( 'NONE', #323, 1000.000000000000227 ) ;
#104 = CYLINDRICAL_SURFACE ( 'NONE', #510, 0.6500000000000000222 ) ;
#105 = CARTESIAN_POINT ( 'NONE',  ( 0.000000000000000000, 24.00000000000000000, 0.000000000000000000 ) ) ;
#106 = EDGE_CURVE ( 'NONE', #406, #185, #320, .T. ) ;
#107 = FILL_AREA_STYLE_COLOUR ( '', #464 ) ;
#108 = FILL_AREA_STYLE ('',( #160 ) ) ;
#109 = AXIS2_PLACEMENT_3D ( 'NONE', #442, #529, #28 ) ;
#110 = STYLED_ITEM ( 'NONE', ( #44 ), #562 ) ;
#111 = ORIENTED_EDGE ( 'NONE', *, *, #113, .F. ) ;
#112 = SURFACE_STYLE_USAGE ( .BOTH. , #157 ) ;
#113 = EDGE_CURVE ( 'NONE', #311, #476, #580, .T. ) ;
#114 = FACE_OUTER_BOUND ( 'NONE', #42, .T. ) ;
#115 = PRESENTATION_LAYER_ASSIGNMENT (  '', '', ( #291 ) ) ;
#116 = CIRCLE ( 'NONE', #255, 0.4500000000000000111 ) ;
#117 =( GEOMETRIC_REPRESENTATION_CONTEXT ( 3 ) GLOBAL_UNCERTAINTY_ASSIGNED_CONTEXT ( ( #124 ) ) GLOBAL_UNIT_ASSIGNED_CONTEXT ( ( #181, #226, #528 ) ) REPRESENTATION_CONTEXT ( 'NONE', 'WORKASPACE' ) );
#118 = ORIENTED_EDGE ( 'NONE', *, *, #152, .F. ) ;
#119 = SURFACE_SIDE_STYLE ('',( #375 ) ) ;
#120 = ADVANCED_FACE ( 'NONE', ( #281 ), #539, .T. ) ;
#121 = FACE_OUTER_BOUND ( 'NONE', #183, .T. ) ;
#122 = DIRECTION ( 'NONE',  ( 0.000000000000000000, 1.000000000000000000, 0.000000000000000000 ) ) ;
#123 = ORIENTED_EDGE ( 'NONE', *, *, #113, .T. ) ;
#124 = UNCERTAINTY_MEASURE_WITH_UNIT (LENGTH_MEASURE( 1.000000000000000082E-05 ), #181, 'distance_accuracy_value', 'NONE');
#125 = DIRECTION ( 'NONE',  ( -1.000000000000000000, 0.000000000000000000, 0.000000000000000000 ) ) ;
#126 = ADVANCED_FACE ( 'NONE', ( #151 ), #407, .T. ) ;
#127 = ORIENTED_EDGE ( 'NONE', *, *, #370, .T. ) ;
#128 = AXIS2_PLACEMENT_3D ( 'NONE', #342, #445, #519 ) ;
#129 = CARTESIAN_POINT ( 'NONE',  ( 7.347880794884117764E-17, 19.00000000000000000, 0.5999999999999999778 ) ) ;
#130 = CARTESIAN_POINT ( 'NONE',  ( -4.651510561181919946E-15, 33.00000000000000000, 0.000000000000000000 ) ) ;
#131 = SURFACE_STYLE_USAGE ( .BOTH. , #45 ) ;
#132 = VERTEX_POINT ( 'NONE', #97 ) ;
#133 = STYLED_ITEM ( 'NONE', ( #24 ), #196 ) ;
#134 = DIRECTION ( 'NONE',  ( -0.000000000000000000, -1.000000000000000000, -0.000000000000000000 ) ) ;
#135 = CARTESIAN_POINT ( 'NONE',  ( 0.000000000000000000, 19.00000000000000000, 0.000000000000000000 ) ) ;
#136 =( NAMED_UNIT ( * ) PLANE_ANGLE_UNIT ( ) SI_UNIT ( $, .RADIAN. ) );
#137 = ORIENTED_EDGE ( 'NONE', *, *, #530, .F. ) ;
#138 = ADVANCED_FACE ( 'NONE', ( #455 ), #96, .T. ) ;
#139 = CYLINDRICAL_SURFACE ( 'NONE', #273, 0.7499999999999997780 ) ;
#140 = DIRECTION ( 'NONE',  ( -0.000000000000000000, -1.000000000000000000, -0.000000000000000000 ) ) ;
#141 = FILL_AREA_STYLE ('',( #363 ) ) ;
#142 = CARTESIAN_POINT ( 'NONE',  ( 0.4500000000000000666, 32.55000000000000426, 0.000000000000000000 ) ) ;
#143 = DIRECTION ( 'NONE',  ( 1.409548654903612038E-16, -1.000000000000000000, 0.000000000000000000 ) ) ;
#144 = AXIS2_PLACEMENT_3D ( 'NONE', #154, #339, #508 ) ;
#145 = STYLED_ITEM ( 'NONE', ( #173 ), #292 ) ;
#146 = EDGE_CURVE ( 'NONE', #476, #514, #454, .T. ) ;
#147 = FACE_OUTER_BOUND ( 'NONE', #269, .T. ) ;
#148 = CARTESIAN_POINT ( 'NONE',  ( 0.000000000000000000, 24.00000000000000000, 0.000000000000000000 ) ) ;
#149 = DIRECTION ( 'NONE',  ( -1.294323098652657553E-16, 1.000000000000000000, -0.000000000000000000 ) ) ;
#150 = AXIS2_PLACEMENT_3D ( 'NONE', #564, #344, #521 ) ;
#151 = FACE_OUTER_BOUND ( 'NONE', #296, .T. ) ;
#152 = EDGE_CURVE ( 'NONE', #46, #18, #403, .T. ) ;
#153 = AXIS2_PLACEMENT_3D ( 'NONE', #373, #425, #558 ) ;
#154 = CARTESIAN_POINT ( 'NONE',  ( 0.000000000000000000, 33.00000000000000000, 0.000000000000000000 ) ) ;
#155 = SURFACE_STYLE_FILL_AREA ( #556 ) ;
#156 = ORIENTED_EDGE ( 'NONE', *, *, #551, .F. ) ;
#157 = SURFACE_SIDE_STYLE ('',( #331 ) ) ;
#158 = VECTOR ( 'NONE', #567, 1000.000000000000000 ) ;
#159 = AXIS2_PLACEMENT_3D ( 'NONE', #205, #335, #421 ) ;
#160 = FILL_AREA_STYLE_COLOUR ( '', #246 ) ;
#161 = AXIS2_PLACEMENT_3D ( 'NONE', #40, #223, #251 ) ;
#162 = SURFACE_STYLE_FILL_AREA ( #559 ) ;
#163 = ORIENTED_EDGE ( 'NONE', *, *, #267, .F. ) ;
#164 = EDGE_CURVE ( 'NONE', #476, #311, #170, .T. ) ;
#165 = SURFACE_STYLE_FILL_AREA ( #306 ) ;
#166 = ORIENTED_EDGE ( 'NONE', *, *, #267, .T. ) ;
#167 = ADVANCED_FACE ( 'NONE', ( #71 ), #253, .T. ) ;
#168 = CARTESIAN_POINT ( 'NONE',  ( -0.7499999999999997780, -1.179132856704039269E-16, 0.000000000000000000 ) ) ;
#169 = CARTESIAN_POINT ( 'NONE',  ( -0.7500000000000036637, 30.00000000000000355, 0.000000000000000000 ) ) ;
#170 = CIRCLE ( 'NONE', #153, 0.4500000000000000111 ) ;
#171 = ORIENTED_EDGE ( 'NONE', *, *, #37, .T. ) ;
#172 =( NAMED_UNIT ( * ) PLANE_ANGLE_UNIT ( ) SI_UNIT ( $, .RADIAN. ) );
#173 = PRESENTATION_STYLE_ASSIGNMENT (( #384 ) ) ;
#174 = VERTEX_POINT ( 'NONE', #294 ) ;
#175 = DIRECTION ( 'NONE',  ( -0.5547001962252297025, -0.8320502943378432770, 6.793118197936364582E-17 ) ) ;
#176 = CARTESIAN_POINT ( 'NONE',  ( 0.000000000000000000, 0.000000000000000000, 0.000000000000000000 ) ) ;
#177 = ORIENTED_EDGE ( 'NONE', *, *, #370, .F. ) ;
#178 = CARTESIAN_POINT ( 'NONE',  ( 7.347880794884117764E-17, 24.00000000000000000, 0.5999999999999999778 ) ) ;
#179 = AXIS2_PLACEMENT_3D ( 'NONE', #417, #293, #64 ) ;
#180 = SURFACE_STYLE_FILL_AREA ( #538 ) ;
#181 =( LENGTH_UNIT ( ) NAMED_UNIT ( * ) SI_UNIT ( .MILLI., .METRE. ) );
#182 = CARTESIAN_POINT ( 'NONE',  ( 0.000000000000000000, 33.00000000000000000, 0.000000000000000000 ) ) ;
#183 = EDGE_LOOP ( 'NONE', ( #388, #451 ) ) ;
#184 = CARTESIAN_POINT ( 'NONE',  ( 5.510910596163088939E-17, 24.00000000000000000, 0.4500000000000000111 ) ) ;
#185 = VERTEX_POINT ( 'NONE', #426 ) ;
#186 = CARTESIAN_POINT ( 'NONE',  ( -8.542532451107540936E-15, 33.00000000000000000, 5.230792511430621281E-31 ) ) ;
#187 = EDGE_LOOP ( 'NONE', ( #364, #433 ) ) ;
#188 = ADVANCED_FACE ( 'NONE', ( #114 ), #297, .T. ) ;
#189 = AXIS2_PLACEMENT_3D ( 'NONE', #99, #457, #241 ) ;
#190 = DIRECTION ( 'NONE',  ( 1.000000000000000000, 0.000000000000000000, 0.000000000000000000 ) ) ;
#191 =( LENGTH_UNIT ( ) NAMED_UNIT ( * ) SI_UNIT ( .MILLI., .METRE. ) );
#192 = DIRECTION ( 'NONE',  ( -1.409548654903612038E-16, 1.000000000000000000, -0.000000000000000000 ) ) ;
#193 =( GEOMETRIC_REPRESENTATION_CONTEXT ( 3 ) GLOBAL_UNCERTAINTY_ASSIGNED_CONTEXT ( ( #470 ) ) GLOBAL_UNIT_ASSIGNED_CONTEXT ( ( #258, #136, #215 ) ) REPRESENTATION_CONTEXT ( 'NONE', 'WORKASPACE' ) );
#194 = DIRECTION ( 'NONE',  ( 0.000000000000000000, 1.000000000000000000, 0.000000000000000000 ) ) ;
#195 = DIRECTION ( 'NONE',  ( 0.000000000000000000, 1.000000000000000000, 0.000000000000000000 ) ) ;
#196 = ADVANCED_FACE ( 'NONE', ( #256, #383 ), #68, .T. ) ;
#197 = DIRECTION ( 'NONE',  ( 1.294323098652657553E-16, -1.000000000000000000, 0.000000000000000000 ) ) ;
#198 =( GEOMETRIC_REPRESENTATION_CONTEXT ( 3 ) GLOBAL_UNCERTAINTY_ASSIGNED_CONTEXT ( ( #515 ) ) GLOBAL_UNIT_ASSIGNED_CONTEXT ( ( #39, #222, #353 ) ) REPRESENTATION_CONTEXT ( 'NONE', 'WORKASPACE' ) );
#199 = CARTESIAN_POINT ( 'NONE',  ( 0.7499999999999997780, 7.623517912749464448E-17, 9.184850993605147205E-17 ) ) ;
#200 = CLOSED_SHELL ( 'NONE', ( #240, #491, #204, #126, #418, #167, #188, #234, #347, #410, #120, #254, #404, #196, #300, #138, #292 ) ) ;
#201 = VECTOR ( 'NONE', #175, 1000.000000000000000 ) ;
#202 =( LENGTH_UNIT ( ) NAMED_UNIT ( * ) SI_UNIT ( .MILLI., .METRE. ) );
#203 = ORIENTED_EDGE ( 'NONE', *, *, #582, .T. ) ;
#204 = ADVANCED_FACE ( 'NONE', ( #434 ), #69, .T. ) ;
#205 = CARTESIAN_POINT ( 'NONE',  ( 0.000000000000000000, 33.00000000000000000, 0.000000000000000000 ) ) ;
#206 =( GEOMETRIC_REPRESENTATION_CONTEXT ( 3 ) GLOBAL_UNCERTAINTY_ASSIGNED_CONTEXT ( ( #394 ) ) GLOBAL_UNIT_ASSIGNED_CONTEXT ( ( #395, #172, #43 ) ) REPRESENTATION_CONTEXT ( 'NONE', 'WORKASPACE' ) );
#207 = SURFACE_SIDE_STYLE ('',( #162 ) ) ;
#208 = PRESENTATION_LAYER_ASSIGNMENT (  '', '', ( #110 ) ) ;
#209 = ORIENTED_EDGE ( 'NONE', *, *, #225, .F. ) ;
#210 = MECHANICAL_DESIGN_GEOMETRIC_PRESENTATION_REPRESENTATION (  '', ( #133 ), #341 ) ;
#211 = ORIENTED_EDGE ( 'NONE', *, *, #561, .F. ) ;
#212 = PLANE ( 'NONE',  #5 ) ;
#213 = VERTEX_POINT ( 'NONE', #572 ) ;
#214 = DIRECTION ( 'NONE',  ( 1.294323098652657553E-16, -1.000000000000000000, 0.000000000000000000 ) ) ;
#215 =( NAMED_UNIT ( * ) SI_UNIT ( $, .STERADIAN. ) SOLID_ANGLE_UNIT ( ) );
#216 = EDGE_LOOP ( 'NONE', ( #211, #239, #127, #357 ) ) ;
#217 = PRESENTATION_STYLE_ASSIGNMENT (( #478 ) ) ;
#218 = DIRECTION ( 'NONE',  ( 0.000000000000000000, 1.000000000000000000, 0.000000000000000000 ) ) ;
#219 = CARTESIAN_POINT ( 'NONE',  ( 5.510910596163088939E-17, 30.00000000000000355, 0.4500000000000000111 ) ) ;
#220 = PRESENTATION_LAYER_ASSIGNMENT (  '', '', ( #58 ) ) ;
#221 = EDGE_LOOP ( 'NONE', ( #423, #203, #537, #93 ) ) ;
#222 =( NAMED_UNIT ( * ) PLANE_ANGLE_UNIT ( ) SI_UNIT ( $, .RADIAN. ) );
#223 = DIRECTION ( 'NONE',  ( -1.409548654903612038E-16, 1.000000000000000000, -0.000000000000000000 ) ) ;
#224 = ORIENTED_EDGE ( 'NONE', *, *, #582, .F. ) ;
#225 = EDGE_CURVE ( 'NONE', #174, #360, #76, .T. ) ;
#226 =( NAMED_UNIT ( * ) PLANE_ANGLE_UNIT ( ) SI_UNIT ( $, .RADIAN. ) );
#227 = ORIENTED_EDGE ( 'NONE', *, *, #329, .T. ) ;
#228 = CIRCLE ( 'NONE', #179, 0.4500000000000046185 ) ;
#229 = CARTESIAN_POINT ( 'NONE',  ( 7.960204194457795477E-17, 19.00000000000000000, 0.6500000000000000222 ) ) ;
#230 = DIRECTION ( 'NONE',  ( 0.000000000000000000, -0.000000000000000000, 1.000000000000000000 ) ) ;
#231 = ORIENTED_EDGE ( 'NONE', *, *, #468, .T. ) ;
#232 =( NAMED_UNIT ( * ) SI_UNIT ( $, .STERADIAN. ) SOLID_ANGLE_UNIT ( ) );
#233 = DIRECTION ( 'NONE',  ( 0.000000000000000000, 0.000000000000000000, 1.000000000000000000 ) ) ;
#234 = ADVANCED_FACE ( 'NONE', ( #349 ), #309, .T. ) ;
#235 = PRODUCT_DEFINITION_SHAPE ( 'NONE', 'NONE',  #585 ) ;
#236 = DIRECTION ( 'NONE',  ( 0.000000000000000000, 0.000000000000000000, -1.000000000000000000 ) ) ;
#237 = CARTESIAN_POINT ( 'NONE',  ( 0.000000000000000000, 24.00000000000000000, 0.000000000000000000 ) ) ;
#238 = CIRCLE ( 'NONE', #479, 0.4500000000000000111 ) ;
#239 = ORIENTED_EDGE ( 'NONE', *, *, #547, .T. ) ;
#240 = ADVANCED_FACE ( 'NONE', ( #271 ), #13, .T. ) ;
#241 = DIRECTION ( 'NONE',  ( 1.000000000000000000, 1.110223024625164429E-16, 0.000000000000000000 ) ) ;
#242 = DIRECTION ( 'NONE',  ( 0.000000000000000000, 1.000000000000000000, 0.000000000000000000 ) ) ;
#243 = DIRECTION ( 'NONE',  ( -0.7071067811865449082, -0.7071067811865501263, 8.659560562354902043E-17 ) ) ;
#244 = CARTESIAN_POINT ( 'NONE',  ( -4.174191993154820942E-15, 32.25000000000000000, 0.000000000000000000 ) ) ;
#245 = ORIENTED_EDGE ( 'NONE', *, *, #571, .T. ) ;
#246 = COLOUR_RGB ( '',0.6470588235294117974, 0.6196078431372549211, 0.5882352941176470784 ) ;
#247 = AXIS2_PLACEMENT_3D ( 'NONE', #135, #257, #359 ) ;
#248 = CARTESIAN_POINT ( 'NONE',  ( 7.960204194457795477E-17, 19.00000000000000000, 0.6500000000000000222 ) ) ;
#249 = SURFACE_STYLE_USAGE ( .BOTH. , #432 ) ;
#250 = VERTEX_POINT ( 'NONE', #343 ) ;
#251 = DIRECTION ( 'NONE',  ( -1.000000000000000000, 0.000000000000000000, 0.000000000000000000 ) ) ;
#252 = ORIENTED_EDGE ( 'NONE', *, *, #511, .F. ) ;
#253 = CYLINDRICAL_SURFACE ( 'NONE', #144, 0.4500000000000000111 ) ;
#254 = ADVANCED_FACE ( 'NONE', ( #520, #121 ), #474, .T. ) ;
#255 = AXIS2_PLACEMENT_3D ( 'NONE', #105, #95, #233 ) ;
#256 = FACE_BOUND ( 'NONE', #427, .T. ) ;
#257 = DIRECTION ( 'NONE',  ( -0.000000000000000000, -1.000000000000000000, -0.000000000000000000 ) ) ;
#258 =( LENGTH_UNIT ( ) NAMED_UNIT ( * ) SI_UNIT ( .MILLI., .METRE. ) );
#259 = ORIENTED_EDGE ( 'NONE', *, *, #146, .T. ) ;
#260 = CARTESIAN_POINT ( 'NONE',  ( 1.251610436397119852E-13, -967.0000000000000000, 0.000000000000000000 ) ) ;
#261 = VECTOR ( 'NONE', #243, 1000.000000000000000 ) ;
#262 = EDGE_LOOP ( 'NONE', ( #209, #506, #509, #266 ) ) ;
#263 = DIRECTION ( 'NONE',  ( 0.000000000000000000, -0.000000000000000000, 1.000000000000000000 ) ) ;
#264 = CARTESIAN_POINT ( 'NONE',  ( 5.510910596163088939E-17, 33.00000000000000000, 0.4500000000000000111 ) ) ;
#265 = AXIS2_PLACEMENT_3D ( 'NONE', #482, #218, #391 ) ;
#266 = ORIENTED_EDGE ( 'NONE', *, *, #276, .T. ) ;
#267 = EDGE_CURVE ( 'NONE', #213, #570, #424, .T. ) ;
#268 = DIRECTION ( 'NONE',  ( 0.000000000000000000, 1.000000000000000000, 0.000000000000000000 ) ) ;
#269 = EDGE_LOOP ( 'NONE', ( #321, #461, #489, #171 ) ) ;
#270 = CARTESIAN_POINT ( 'NONE',  ( 7.960204194457795477E-17, 0.000000000000000000, 0.6500000000000000222 ) ) ;
#271 = FACE_OUTER_BOUND ( 'NONE', #351, .T. ) ;
#272 = ORIENTED_EDGE ( 'NONE', *, *, #428, .T. ) ;
#273 = AXIS2_PLACEMENT_3D ( 'NONE', #392, #34, #50 ) ;
#274 = AXIS2_PLACEMENT_3D ( 'NONE', #534, #495, #437 ) ;
#275 = LINE ( 'NONE', #312, #481 ) ;
#276 = EDGE_CURVE ( 'NONE', #430, #360, #487, .T. ) ;
#277 = SURFACE_STYLE_FILL_AREA ( #59 ) ;
#278 = CARTESIAN_POINT ( 'NONE',  ( -4.651510561181919946E-15, 33.00000000000000000, 0.000000000000000000 ) ) ;
#279 = VECTOR ( 'NONE', #8, 1000.000000000000000 ) ;
#280 = DIRECTION ( 'NONE',  ( 1.000000000000000000, 0.000000000000000000, 0.000000000000000000 ) ) ;
#281 = FACE_OUTER_BOUND ( 'NONE', #522, .T. ) ;
#282 = AXIS2_PLACEMENT_3D ( 'NONE', #448, #47, #579 ) ;
#283 =( GEOMETRIC_REPRESENTATION_CONTEXT ( 3 ) GLOBAL_UNCERTAINTY_ASSIGNED_CONTEXT ( ( #9 ) ) GLOBAL_UNIT_ASSIGNED_CONTEXT ( ( #402, #473, #94 ) ) REPRESENTATION_CONTEXT ( 'NONE', 'WORKASPACE' ) );
#284 = PRODUCT_CONTEXT ( 'NONE', #372, 'mechanical' ) ;
#285 = FILL_AREA_STYLE_COLOUR ( '', #557 ) ;
#286 = CARTESIAN_POINT ( 'NONE',  ( 0.000000000000000000, 19.00000000000000000, 0.000000000000000000 ) ) ;
#287 = CIRCLE ( 'NONE', #552, 0.7499999999999996669 ) ;
#288 = CARTESIAN_POINT ( 'NONE',  ( 0.000000000000000000, 19.00000000000000000, 0.000000000000000000 ) ) ;
#289 = DIRECTION ( 'NONE',  ( 0.000000000000000000, 0.000000000000000000, -1.000000000000000000 ) ) ;
#290 = SURFACE_STYLE_FILL_AREA ( #15 ) ;
#291 = STYLED_ITEM ( 'NONE', ( #371 ), #404 ) ;
#292 = ADVANCED_FACE ( 'NONE', ( #25 ), #212, .T. ) ;
#293 = DIRECTION ( 'NONE',  ( -1.409548654903612038E-16, 1.000000000000000000, -0.000000000000000000 ) ) ;
#294 = CARTESIAN_POINT ( 'NONE',  ( -0.1500000000000093481, 33.00000000000000000, 3.673940397442115581E-17 ) ) ;
#295 = APPLICATION_CONTEXT ( 'automotive_design' ) ;
#296 = EDGE_LOOP ( 'NONE', ( #472, #419, #245, #81 ) ) ;
#297 = CYLINDRICAL_SURFACE ( 'NONE', #159, 0.4500000000000000111 ) ;
#298 =( NAMED_UNIT ( * ) PLANE_ANGLE_UNIT ( ) SI_UNIT ( $, .RADIAN. ) );
#299 = VERTEX_POINT ( 'NONE', #398 ) ;
#300 = ADVANCED_FACE ( 'NONE', ( #318 ), #139, .T. ) ;
#301 = AXIS2_PLACEMENT_3D ( 'NONE', #90, #268, #446 ) ;
#302 = PRODUCT_RELATED_PRODUCT_CATEGORY ( 'part', '', ( #444 ) ) ;
#303 = AXIS2_PLACEMENT_3D ( 'NONE', #286, #242, #365 ) ;
#304 = DIRECTION ( 'NONE',  ( 1.000000000000000000, 1.294323098652657553E-16, 0.000000000000000000 ) ) ;
#305 = ORIENTED_EDGE ( 'NONE', *, *, #21, .T. ) ;
#306 = FILL_AREA_STYLE ('',( #438 ) ) ;
#307 = DIRECTION ( 'NONE',  ( -0.000000000000000000, -1.000000000000000000, -0.000000000000000000 ) ) ;
#308 = VERTEX_POINT ( 'NONE', #77 ) ;
#309 = CYLINDRICAL_SURFACE ( 'NONE', #247, 0.6500000000000000222 ) ;
#310 = STYLED_ITEM ( 'NONE', ( #356 ), #300 ) ;
#311 = VERTEX_POINT ( 'NONE', #219 ) ;
#312 = CARTESIAN_POINT ( 'NONE',  ( 0.000000000000000000, 33.00000000000000000, 0.000000000000000000 ) ) ;
#313 = DIRECTION ( 'NONE',  ( 0.000000000000000000, 1.000000000000000000, 0.000000000000000000 ) ) ;
#314 = MECHANICAL_DESIGN_GEOMETRIC_PRESENTATION_REPRESENTATION (  '', ( #498 ), #459 ) ;
#315 = AXIS2_PLACEMENT_3D ( 'NONE', #260, #214, #576 ) ;
#316 = ORIENTED_EDGE ( 'NONE', *, *, #468, .F. ) ;
#317 = DIRECTION ( 'NONE',  ( 1.409548654903612038E-16, -1.000000000000000000, 0.000000000000000000 ) ) ;
#318 = FACE_OUTER_BOUND ( 'NONE', #221, .T. ) ;
#319 = EDGE_LOOP ( 'NONE', ( #86, #51, #415, #156 ) ) ;
#320 = LINE ( 'NONE', #53, #23 ) ;
#321 = ORIENTED_EDGE ( 'NONE', *, *, #428, .F. ) ;
#322 = DIRECTION ( 'NONE',  ( -1.294323098652657553E-16, 1.000000000000000000, -0.000000000000000000 ) ) ;
#323 = DIRECTION ( 'NONE',  ( 0.5547001962252299245, -0.8320502943378430549, 0.000000000000000000 ) ) ;
#324 = UNCERTAINTY_MEASURE_WITH_UNIT (LENGTH_MEASURE( 1.000000000000000082E-05 ), #467, 'distance_accuracy_value', 'NONE');
#325 =( GEOMETRIC_REPRESENTATION_CONTEXT ( 3 ) GLOBAL_UNCERTAINTY_ASSIGNED_CONTEXT ( ( #477 ) ) GLOBAL_UNIT_ASSIGNED_CONTEXT ( ( #449, #493, #536 ) ) REPRESENTATION_CONTEXT ( 'NONE', 'WORKASPACE' ) );
#326 = CARTESIAN_POINT ( 'NONE',  ( 7.347880794884117764E-17, 24.00000000000000000, 0.5999999999999999778 ) ) ;
#327 = AXIS2_PLACEMENT_3D ( 'NONE', #278, #60, #10 ) ;
#328 = APPLICATION_PROTOCOL_DEFINITION ( 'draft international standard', 'automotive_design', 1998, #295 ) ;
#329 = EDGE_CURVE ( 'NONE', #311, #531, #85, .T. ) ;
#330 = DIRECTION ( 'NONE',  ( -0.000000000000000000, -1.000000000000000000, -0.000000000000000000 ) ) ;
#331 = SURFACE_STYLE_FILL_AREA ( #108 ) ;
#332 = CIRCLE ( 'NONE', #128, 0.6500000000000000222 ) ;
#333 =( NAMED_UNIT ( * ) SI_UNIT ( $, .STERADIAN. ) SOLID_ANGLE_UNIT ( ) );
#334 = COLOUR_RGB ( '',0.6470588235294117974, 0.6196078431372549211, 0.5882352941176470784 ) ;
#335 = DIRECTION ( 'NONE',  ( -0.000000000000000000, -1.000000000000000000, -0.000000000000000000 ) ) ;
#336 = EDGE_CURVE ( 'NONE', #18, #46, #399, .T. ) ;
#337 = ORIENTED_EDGE ( 'NONE', *, *, #571, .F. ) ;
#338 = CARTESIAN_POINT ( 'NONE',  ( 0.000000000000000000, 24.00000000000000000, -0.5999999999999999778 ) ) ;
#339 = DIRECTION ( 'NONE',  ( -0.000000000000000000, -1.000000000000000000, -0.000000000000000000 ) ) ;
#340 = AXIS2_PLACEMENT_3D ( 'NONE', #148, #140, #496 ) ;
#341 =( GEOMETRIC_REPRESENTATION_CONTEXT ( 3 ) GLOBAL_UNCERTAINTY_ASSIGNED_CONTEXT ( ( #324 ) ) GLOBAL_UNIT_ASSIGNED_CONTEXT ( ( #467, #89, #568 ) ) REPRESENTATION_CONTEXT ( 'NONE', 'WORKASPACE' ) );
#342 = CARTESIAN_POINT ( 'NONE',  ( 0.000000000000000000, 19.00000000000000000, 0.000000000000000000 ) ) ;
#343 = CARTESIAN_POINT ( 'NONE',  ( -0.7500000000000036637, 32.25000000000000000, 9.184850993605143507E-17 ) ) ;
#344 = DIRECTION ( 'NONE',  ( 0.000000000000000000, 1.000000000000000000, 0.000000000000000000 ) ) ;
#345 = ORIENTED_EDGE ( 'NONE', *, *, #106, .T. ) ;
#346 = UNCERTAINTY_MEASURE_WITH_UNIT (LENGTH_MEASURE( 1.000000000000000082E-05 ), #65, 'distance_accuracy_value', 'NONE');
#347 = ADVANCED_FACE ( 'NONE', ( #350, #475 ), #41, .T. ) ;
#348 = LINE ( 'NONE', #168, #158 ) ;
#349 = FACE_OUTER_BOUND ( 'NONE', #400, .T. ) ;
#350 = FACE_BOUND ( 'NONE', #70, .T. ) ;
#351 = EDGE_LOOP ( 'NONE', ( #447, #78, #231, #465 ) ) ;
#352 = DIRECTION ( 'NONE',  ( -1.000000000000000000, -1.294323098652657553E-16, 0.000000000000000000 ) ) ;
#353 =( NAMED_UNIT ( * ) SI_UNIT ( $, .STERADIAN. ) SOLID_ANGLE_UNIT ( ) );
#354 = EDGE_CURVE ( 'NONE', #531, #514, #238, .T. ) ;
#355 = SURFACE_SIDE_STYLE ('',( #165 ) ) ;
#356 = PRESENTATION_STYLE_ASSIGNMENT (( #131 ) ) ;
#357 = ORIENTED_EDGE ( 'NONE', *, *, #106, .F. ) ;
#358 = DIRECTION ( 'NONE',  ( -0.000000000000000000, -1.000000000000000000, -0.000000000000000000 ) ) ;
#359 = DIRECTION ( 'NONE',  ( 0.000000000000000000, 0.000000000000000000, -1.000000000000000000 ) ) ;
#360 = VERTEX_POINT ( 'NONE', #573 ) ;
#361 = LINE ( 'NONE', #338, #516 ) ;
#362 = LINE ( 'NONE', #229, #31 ) ;
#363 = FILL_AREA_STYLE_COLOUR ( '', #48 ) ;
#364 = ORIENTED_EDGE ( 'NONE', *, *, #63, .T. ) ;
#365 = DIRECTION ( 'NONE',  ( 0.000000000000000000, 0.000000000000000000, 1.000000000000000000 ) ) ;
#366 = MECHANICAL_DESIGN_GEOMETRIC_PRESENTATION_REPRESENTATION (  '', ( #310 ), #325 ) ;
#367 = DIRECTION ( 'NONE',  ( 1.000000000000000000, 0.000000000000000000, 0.000000000000000000 ) ) ;
#368 = AXIS2_PLACEMENT_3D ( 'NONE', #453, #192, #503 ) ;
#369 = AXIS2_PLACEMENT_3D ( 'NONE', #79, #33, #263 ) ;
#370 = EDGE_CURVE ( 'NONE', #525, #185, #469, .T. ) ;
#371 = PRESENTATION_STYLE_ASSIGNMENT (( #583 ) ) ;
#372 = APPLICATION_CONTEXT ( 'automotive_design' ) ;
#373 = CARTESIAN_POINT ( 'NONE',  ( 0.000000000000000000, 30.00000000000000355, 0.000000000000000000 ) ) ;
#374 = CARTESIAN_POINT ( 'NONE',  ( -4.174191993154820942E-15, 32.25000000000000000, 0.000000000000000000 ) ) ;
#375 = SURFACE_STYLE_FILL_AREA ( #141 ) ;
#376 = AXIS2_PLACEMENT_3D ( 'NONE', #176, #313, #488 ) ;
#377 = APPLICATION_PROTOCOL_DEFINITION ( 'draft international standard', 'automotive_design', 1998, #372 ) ;
#378 = VECTOR ( 'NONE', #56, 1000.000000000000000 ) ;
#379 = CIRCLE ( 'NONE', #368, 0.1500000000000046851 ) ;
#380 =( NAMED_UNIT ( * ) SI_UNIT ( $, .STERADIAN. ) SOLID_ANGLE_UNIT ( ) );
#381 = ORIENTED_EDGE ( 'NONE', *, *, #575, .F. ) ;
#382 = VECTOR ( 'NONE', #307, 1000.000000000000000 ) ;
#383 = FACE_OUTER_BOUND ( 'NONE', #578, .T. ) ;
#384 = SURFACE_STYLE_USAGE ( .BOTH. , #207 ) ;
#385 = ORIENTED_EDGE ( 'NONE', *, *, #164, .T. ) ;
#386 =( NAMED_UNIT ( * ) PLANE_ANGLE_UNIT ( ) SI_UNIT ( $, .RADIAN. ) );
#387 = SURFACE_SIDE_STYLE ('',( #180 ) ) ;
#388 = ORIENTED_EDGE ( 'NONE', *, *, #152, .T. ) ;
#389 = EDGE_CURVE ( 'NONE', #185, #525, #2, .T. ) ;
#390 = DIRECTION ( 'NONE',  ( -1.294323098652657553E-16, 1.000000000000000000, -0.000000000000000000 ) ) ;
#391 = DIRECTION ( 'NONE',  ( 0.000000000000000000, 0.000000000000000000, 1.000000000000000000 ) ) ;
#392 = CARTESIAN_POINT ( 'NONE',  ( 0.000000000000000000, -2.083905327145464119E-17, 0.000000000000000000 ) ) ;
#393 = EDGE_LOOP ( 'NONE', ( #385, #227, #565, #439 ) ) ;
#394 = UNCERTAINTY_MEASURE_WITH_UNIT (LENGTH_MEASURE( 1.000000000000000082E-05 ), #395, 'distance_accuracy_value', 'NONE');
#395 =( LENGTH_UNIT ( ) NAMED_UNIT ( * ) SI_UNIT ( .MILLI., .METRE. ) );
#396 = CARTESIAN_POINT ( 'NONE',  ( 0.000000000000000000, 24.00000000000000000, 0.000000000000000000 ) ) ;
#397 = ORIENTED_EDGE ( 'NONE', *, *, #354, .F. ) ;
#398 = CARTESIAN_POINT ( 'NONE',  ( -0.7500000000000036637, 30.00000000000000355, 0.000000000000000000 ) ) ;
#399 = CIRCLE ( 'NONE', #109, 0.5999999999999999778 ) ;
#400 = EDGE_LOOP ( 'NONE', ( #16, #443, #345, #555 ) ) ;
#401 = COLOUR_RGB ( '',0.6470588235294117974, 0.5176470588235293491, 0.000000000000000000 ) ;
#402 =( LENGTH_UNIT ( ) NAMED_UNIT ( * ) SI_UNIT ( .MILLI., .METRE. ) );
#403 = CIRCLE ( 'NONE', #422, 0.5999999999999999778 ) ;
#404 = ADVANCED_FACE ( 'NONE', ( #147 ), #100, .T. ) ;
#405 = ORIENTED_EDGE ( 'NONE', *, *, #14, .T. ) ;
#406 = VERTEX_POINT ( 'NONE', #414 ) ;
#407 = CYLINDRICAL_SURFACE ( 'NONE', #340, 0.5999999999999999778 ) ;
#408 = VECTOR ( 'NONE', #358, 1000.000000000000000 ) ;
#409 = CIRCLE ( 'NONE', #101, 0.7499999999999997780 ) ;
#410 = ADVANCED_FACE ( 'NONE', ( #505 ), #499, .F. ) ;
#411 = CARTESIAN_POINT ( 'NONE',  ( 0.000000000000000000, 24.00000000000000000, -0.5999999999999999778 ) ) ;
#412 = AXIS2_PLACEMENT_3D ( 'NONE', #543, #143, #280 ) ;
#413 = COLOUR_RGB ( '',0.6470588235294117974, 0.6196078431372549211, 0.5882352941176470784 ) ;
#414 = CARTESIAN_POINT ( 'NONE',  ( 0.000000000000000000, 19.00000000000000000, -0.6500000000000000222 ) ) ;
#415 = ORIENTED_EDGE ( 'NONE', *, *, #14, .F. ) ;
#416 = DIRECTION ( 'NONE',  ( 0.000000000000000000, 0.000000000000000000, 1.000000000000000000 ) ) ;
#417 = CARTESIAN_POINT ( 'NONE',  ( -4.588080871711257857E-15, 32.55000000000000426, 0.000000000000000000 ) ) ;
#418 = ADVANCED_FACE ( 'NONE', ( #549 ), #104, .T. ) ;
#419 = ORIENTED_EDGE ( 'NONE', *, *, #511, .T. ) ;
#420 = AXIS2_PLACEMENT_3D ( 'NONE', #54, #416, #190 ) ;
#421 = DIRECTION ( 'NONE',  ( 0.000000000000000000, 0.000000000000000000, -1.000000000000000000 ) ) ;
#422 = AXIS2_PLACEMENT_3D ( 'NONE', #237, #194, #3 ) ;
#423 = ORIENTED_EDGE ( 'NONE', *, *, #92, .F. ) ;
#424 = CIRCLE ( 'NONE', #265, 0.5999999999999999778 ) ;
#425 = DIRECTION ( 'NONE',  ( 1.294323098652657553E-16, -1.000000000000000000, 0.000000000000000000 ) ) ;
#426 = CARTESIAN_POINT ( 'NONE',  ( 0.000000000000000000, 0.000000000000000000, -0.6500000000000000222 ) ) ;
#427 = EDGE_LOOP ( 'NONE', ( #574, #111 ) ) ;
#428 = EDGE_CURVE ( 'NONE', #360, #250, #61, .T. ) ;
#429 = SURFACE_SIDE_STYLE ('',( #290 ) ) ;
#430 = VERTEX_POINT ( 'NONE', #142 ) ;
#431 = AXIS2_PLACEMENT_3D ( 'NONE', #98, #550, #289 ) ;
#432 = SURFACE_SIDE_STYLE ('',( #155 ) ) ;
#433 = ORIENTED_EDGE ( 'NONE', *, *, #80, .T. ) ;
#434 = FACE_OUTER_BOUND ( 'NONE', #26, .T. ) ;
#435 = SURFACE_STYLE_FILL_AREA ( #569 ) ;
#436 = ORIENTED_EDGE ( 'NONE', *, *, #21, .F. ) ;
#437 = DIRECTION ( 'NONE',  ( 0.000000000000000000, 0.000000000000000000, 1.000000000000000000 ) ) ;
#438 = FILL_AREA_STYLE_COLOUR ( '', #334 ) ;
#439 = ORIENTED_EDGE ( 'NONE', *, *, #146, .F. ) ;
#440 = FILL_AREA_STYLE_COLOUR ( '', #401 ) ;
#441 = SURFACE_STYLE_USAGE ( .BOTH. , #355 ) ;
#442 = CARTESIAN_POINT ( 'NONE',  ( 0.000000000000000000, 24.00000000000000000, 0.000000000000000000 ) ) ;
#443 = ORIENTED_EDGE ( 'NONE', *, *, #73, .F. ) ;
#444 = PRODUCT ( '\X2\6d4b8bd563a29488\X0\H2', '\X2\6d4b8bd563a29488\X0\H2', '', ( #284 ) ) ;
#445 = DIRECTION ( 'NONE',  ( 0.000000000000000000, 1.000000000000000000, 0.000000000000000000 ) ) ;
#446 = DIRECTION ( 'NONE',  ( 0.000000000000000000, 0.000000000000000000, 1.000000000000000000 ) ) ;
#447 = ORIENTED_EDGE ( 'NONE', *, *, #80, .F. ) ;
#448 = CARTESIAN_POINT ( 'NONE',  ( -3.882969295957973153E-15, 30.00000000000000355, 0.000000000000000000 ) ) ;
#449 =( LENGTH_UNIT ( ) NAMED_UNIT ( * ) SI_UNIT ( .MILLI., .METRE. ) );
#450 = MECHANICAL_DESIGN_GEOMETRIC_PRESENTATION_REPRESENTATION (  '', ( #291 ), #19 ) ;
#451 = ORIENTED_EDGE ( 'NONE', *, *, #336, .T. ) ;
#452 = MECHANICAL_DESIGN_GEOMETRIC_PRESENTATION_REPRESENTATION (  '', ( #566 ), #117 ) ;
#453 = CARTESIAN_POINT ( 'NONE',  ( -4.651510561181919946E-15, 33.00000000000000000, 0.000000000000000000 ) ) ;
#454 = LINE ( 'NONE', #6, #378 ) ;
#455 = FACE_OUTER_BOUND ( 'NONE', #262, .T. ) ;
#456 = MECHANICAL_DESIGN_GEOMETRIC_PRESENTATION_REPRESENTATION (  '', ( #82 ), #206 ) ;
#457 = DIRECTION ( 'NONE',  ( 1.294323098652657553E-16, -1.000000000000000000, 0.000000000000000000 ) ) ;
#458 = DIRECTION ( 'NONE',  ( -1.000000000000000000, 0.000000000000000000, 0.000000000000000000 ) ) ;
#459 =( GEOMETRIC_REPRESENTATION_CONTEXT ( 3 ) GLOBAL_UNCERTAINTY_ASSIGNED_CONTEXT ( ( #346 ) ) GLOBAL_UNIT_ASSIGNED_CONTEXT ( ( #65, #298, #380 ) ) REPRESENTATION_CONTEXT ( 'NONE', 'WORKASPACE' ) );
#460 = DIRECTION ( 'NONE',  ( -0.000000000000000000, -1.000000000000000000, -0.000000000000000000 ) ) ;
#461 = ORIENTED_EDGE ( 'NONE', *, *, #276, .F. ) ;
#462 = ORIENTED_EDGE ( 'NONE', *, *, #561, .T. ) ;
#463 = SURFACE_STYLE_USAGE ( .BOTH. , #429 ) ;
#464 = COLOUR_RGB ( '',0.6470588235294117974, 0.6196078431372549211, 0.5882352941176470784 ) ;
#465 = ORIENTED_EDGE ( 'NONE', *, *, #49, .F. ) ;
#466 = PRESENTATION_LAYER_ASSIGNMENT (  '', '', ( #145 ) ) ;
#467 =( LENGTH_UNIT ( ) NAMED_UNIT ( * ) SI_UNIT ( .MILLI., .METRE. ) );
#468 = EDGE_CURVE ( 'NONE', #360, #430, #228, .T. ) ;
#469 = CIRCLE ( 'NONE', #376, 0.6500000000000000222 ) ;
#470 = UNCERTAINTY_MEASURE_WITH_UNIT (LENGTH_MEASURE( 1.000000000000000082E-05 ), #258, 'distance_accuracy_value', 'NONE');
#471 = PRESENTATION_LAYER_ASSIGNMENT (  '', '', ( #498 ) ) ;
#472 = ORIENTED_EDGE ( 'NONE', *, *, #336, .F. ) ;
#473 =( NAMED_UNIT ( * ) PLANE_ANGLE_UNIT ( ) SI_UNIT ( $, .RADIAN. ) );
#474 = PLANE ( 'NONE',  #369 ) ;
#475 = FACE_OUTER_BOUND ( 'NONE', #581, .T. ) ;
#476 = VERTEX_POINT ( 'NONE', #67 ) ;
#477 = UNCERTAINTY_MEASURE_WITH_UNIT (LENGTH_MEASURE( 1.000000000000000082E-05 ), #449, 'distance_accuracy_value', 'NONE');
#478 = SURFACE_STYLE_USAGE ( .BOTH. , #119 ) ;
#479 = AXIS2_PLACEMENT_3D ( 'NONE', #396, #122, #524 ) ;
#480 = DIRECTION ( 'NONE',  ( 0.7071067811865451302, -0.7071067811865499042, 0.000000000000000000 ) ) ;
#481 = VECTOR ( 'NONE', #480, 1000.000000000000114 ) ;
#482 = CARTESIAN_POINT ( 'NONE',  ( 0.000000000000000000, 19.00000000000000000, 0.000000000000000000 ) ) ;
#483 = FILL_AREA_STYLE_COLOUR ( '', #513 ) ;
#484 = VERTEX_POINT ( 'NONE', #248 ) ;
#485 = CARTESIAN_POINT ( 'NONE',  ( 0.7499999999999958922, 30.00000000000000355, 9.184850993605149670E-17 ) ) ;
#486 = PRESENTATION_LAYER_ASSIGNMENT (  '', '', ( #133 ) ) ;
#487 = CIRCLE ( 'NONE', #161, 0.4500000000000046185 ) ;
#488 = DIRECTION ( 'NONE',  ( 0.000000000000000000, 0.000000000000000000, 1.000000000000000000 ) ) ;
#489 = ORIENTED_EDGE ( 'NONE', *, *, #575, .T. ) ;
#490 = CARTESIAN_POINT ( 'NONE',  ( 0.000000000000000000, -2.083905327145464119E-17, 0.000000000000000000 ) ) ;
#491 = ADVANCED_FACE ( 'NONE', ( #74 ), #541, .T. ) ;
#492 = SURFACE_STYLE_USAGE ( .BOTH. , #387 ) ;
#493 =( NAMED_UNIT ( * ) PLANE_ANGLE_UNIT ( ) SI_UNIT ( $, .RADIAN. ) );
#494 = VERTEX_POINT ( 'NONE', #485 ) ;
#495 = DIRECTION ( 'NONE',  ( 0.000000000000000000, 1.000000000000000000, 0.000000000000000000 ) ) ;
#496 = DIRECTION ( 'NONE',  ( 0.000000000000000000, 0.000000000000000000, -1.000000000000000000 ) ) ;
#497 = ADVANCED_BREP_SHAPE_REPRESENTATION ( '\X2\6d4b8bd563a29488\X0\H2', ( #562, #420 ), #198 ) ;
#498 = STYLED_ITEM ( 'NONE', ( #560 ), #167 ) ;
#499 = PLANE ( 'NONE',  #75 ) ;
#500 = AXIS2_PLACEMENT_3D ( 'NONE', #169, #523, #304 ) ;
#501 = DIRECTION ( 'NONE',  ( -1.000000000000000000, 0.000000000000000000, 0.000000000000000000 ) ) ;
#502 = CARTESIAN_POINT ( 'NONE',  ( 0.1500000000000000222, 33.00000000000000000, 0.000000000000000000 ) ) ;
#503 = DIRECTION ( 'NONE',  ( -1.000000000000000000, 0.000000000000000000, 0.000000000000000000 ) ) ;
#504 = PRESENTATION_LAYER_ASSIGNMENT (  '', '', ( #310 ) ) ;
#505 = FACE_OUTER_BOUND ( 'NONE', #72, .T. ) ;
#506 = ORIENTED_EDGE ( 'NONE', *, *, #63, .F. ) ;
#507 = AXIS2_PLACEMENT_3D ( 'NONE', #244, #149, #501 ) ;
#508 = DIRECTION ( 'NONE',  ( 0.000000000000000000, 0.000000000000000000, -1.000000000000000000 ) ) ;
#509 = ORIENTED_EDGE ( 'NONE', *, *, #49, .T. ) ;
#510 = AXIS2_PLACEMENT_3D ( 'NONE', #288, #460, #236 ) ;
#511 = EDGE_CURVE ( 'NONE', #18, #570, #88, .T. ) ;
#512 =( GEOMETRIC_REPRESENTATION_CONTEXT ( 3 ) GLOBAL_UNCERTAINTY_ASSIGNED_CONTEXT ( ( #526 ) ) GLOBAL_UNIT_ASSIGNED_CONTEXT ( ( #202, #386, #333 ) ) REPRESENTATION_CONTEXT ( 'NONE', 'WORKASPACE' ) );
#513 = COLOUR_RGB ( '',0.6470588235294117974, 0.6196078431372549211, 0.5882352941176470784 ) ;
#514 = VERTEX_POINT ( 'NONE', #532 ) ;
#515 = UNCERTAINTY_MEASURE_WITH_UNIT (LENGTH_MEASURE( 1.000000000000000082E-05 ), #39, 'distance_accuracy_value', 'NONE');
#516 = VECTOR ( 'NONE', #330, 1000.000000000000000 ) ;
#517 = CIRCLE ( 'NONE', #303, 0.6500000000000000222 ) ;
#518 = AXIS2_PLACEMENT_3D ( 'NONE', #130, #317, #563 ) ;
#519 = DIRECTION ( 'NONE',  ( 0.000000000000000000, 0.000000000000000000, 1.000000000000000000 ) ) ;
#520 = FACE_BOUND ( 'NONE', #91, .T. ) ;
#521 = DIRECTION ( 'NONE',  ( 0.000000000000000000, -0.000000000000000000, 1.000000000000000000 ) ) ;
#522 = EDGE_LOOP ( 'NONE', ( #252, #118, #62, #166 ) ) ;
#523 = DIRECTION ( 'NONE',  ( 1.294323098652657553E-16, -1.000000000000000000, 0.000000000000000000 ) ) ;
#524 = DIRECTION ( 'NONE',  ( 0.000000000000000000, 0.000000000000000000, 1.000000000000000000 ) ) ;
#525 = VERTEX_POINT ( 'NONE', #270 ) ;
#526 = UNCERTAINTY_MEASURE_WITH_UNIT (LENGTH_MEASURE( 1.000000000000000082E-05 ), #202, 'distance_accuracy_value', 'NONE');
#527 = PRESENTATION_LAYER_ASSIGNMENT (  '', '', ( #82 ) ) ;
#528 =( NAMED_UNIT ( * ) SI_UNIT ( $, .STERADIAN. ) SOLID_ANGLE_UNIT ( ) );
#529 = DIRECTION ( 'NONE',  ( 0.000000000000000000, 1.000000000000000000, 0.000000000000000000 ) ) ;
#530 = EDGE_CURVE ( 'NONE', #299, #494, #11, .T. ) ;
#531 = VERTEX_POINT ( 'NONE', #184 ) ;
#532 = CARTESIAN_POINT ( 'NONE',  ( 0.000000000000000000, 24.00000000000000000, -0.4500000000000000111 ) ) ;
#533 = CIRCLE ( 'NONE', #507, 0.7499999999999996669 ) ;
#534 = CARTESIAN_POINT ( 'NONE',  ( 0.000000000000000000, 19.00000000000000000, 0.000000000000000000 ) ) ;
#535 = CARTESIAN_POINT ( 'NONE',  ( -0.1500000000000093481, 33.00000000000000000, 1.836970198721087065E-17 ) ) ;
#536 =( NAMED_UNIT ( * ) SI_UNIT ( $, .STERADIAN. ) SOLID_ANGLE_UNIT ( ) );
#537 = ORIENTED_EDGE ( 'NONE', *, *, #551, .T. ) ;
#538 = FILL_AREA_STYLE ('',( #440 ) ) ;
#539 = CYLINDRICAL_SURFACE ( 'NONE', #431, 0.5999999999999999778 ) ;
#540 = EDGE_CURVE ( 'NONE', #46, #213, #361, .T. ) ;
#541 = CYLINDRICAL_SURFACE ( 'NONE', #30, 0.7499999999999997780 ) ;
#542 =( NAMED_UNIT ( * ) PLANE_ANGLE_UNIT ( ) SI_UNIT ( $, .RADIAN. ) );
#543 = CARTESIAN_POINT ( 'NONE',  ( -4.651510561181919946E-15, 33.00000000000000000, 0.000000000000000000 ) ) ;
#544 = MECHANICAL_DESIGN_GEOMETRIC_PRESENTATION_REPRESENTATION (  '', ( #58 ), #512 ) ;
#545 = MECHANICAL_DESIGN_GEOMETRIC_PRESENTATION_REPRESENTATION (  '', ( #145 ), #193 ) ;
#546 = DIRECTION ( 'NONE',  ( -0.000000000000000000, -1.000000000000000000, -0.000000000000000000 ) ) ;
#547 = EDGE_CURVE ( 'NONE', #484, #525, #362, .T. ) ;
#548 = LINE ( 'NONE', #502, #103 ) ;
#549 = FACE_OUTER_BOUND ( 'NONE', #216, .T. ) ;
#550 = DIRECTION ( 'NONE',  ( -0.000000000000000000, -1.000000000000000000, -0.000000000000000000 ) ) ;
#551 = EDGE_CURVE ( 'NONE', #299, #250, #348, .T. ) ;
#552 = AXIS2_PLACEMENT_3D ( 'NONE', #374, #322, #458 ) ;
#553 = UNCERTAINTY_MEASURE_WITH_UNIT (LENGTH_MEASURE( 1.000000000000000082E-05 ), #191, 'distance_accuracy_value', 'NONE');
#554 = FILL_AREA_STYLE_COLOUR ( '', #87 ) ;
#555 = ORIENTED_EDGE ( 'NONE', *, *, #389, .T. ) ;
#556 = FILL_AREA_STYLE ('',( #554 ) ) ;
#557 = COLOUR_RGB ( '',0.6470588235294117974, 0.6196078431372549211, 0.5882352941176470784 ) ;
#558 = DIRECTION ( 'NONE',  ( 1.000000000000000000, 0.000000000000000000, 0.000000000000000000 ) ) ;
#559 = FILL_AREA_STYLE ('',( #17 ) ) ;
#560 = PRESENTATION_STYLE_ASSIGNMENT (( #112 ) ) ;
#561 = EDGE_CURVE ( 'NONE', #484, #406, #332, .T. ) ;
#562 = MANIFOLD_SOLID_BREP ( '\X2\52079664\X0\-\X2\65cb8f6c\X0\5', #200 ) ;
#563 = DIRECTION ( 'NONE',  ( 1.000000000000000000, 0.000000000000000000, 0.000000000000000000 ) ) ;
#564 = CARTESIAN_POINT ( 'NONE',  ( 0.000000000000000000, 19.00000000000000000, 0.000000000000000000 ) ) ;
#565 = ORIENTED_EDGE ( 'NONE', *, *, #354, .T. ) ;
#566 = STYLED_ITEM ( 'NONE', ( #84 ), #204 ) ;
#567 = DIRECTION ( 'NONE',  ( -1.294323098652657553E-16, 1.000000000000000000, -0.000000000000000000 ) ) ;
#568 =( NAMED_UNIT ( * ) SI_UNIT ( $, .STERADIAN. ) SOLID_ANGLE_UNIT ( ) );
#569 = FILL_AREA_STYLE ('',( #483 ) ) ;
#570 = VERTEX_POINT ( 'NONE', #129 ) ;
#571 = EDGE_CURVE ( 'NONE', #570, #213, #20, .T. ) ;
#572 = CARTESIAN_POINT ( 'NONE',  ( 0.000000000000000000, 19.00000000000000000, -0.5999999999999999778 ) ) ;
#573 = CARTESIAN_POINT ( 'NONE',  ( -0.4500000000000092260, 32.55000000000000426, 7.347880794884157207E-17 ) ) ;
#574 = ORIENTED_EDGE ( 'NONE', *, *, #164, .F. ) ;
#575 = EDGE_CURVE ( 'NONE', #430, #132, #275, .T. ) ;
#576 = DIRECTION ( 'NONE',  ( 1.000000000000000000, 1.110223024625164429E-16, 0.000000000000000000 ) ) ;
#577 = DIRECTION ( 'NONE',  ( 0.000000000000000000, 1.000000000000000000, 0.000000000000000000 ) ) ;
#578 = EDGE_LOOP ( 'NONE', ( #137, #224 ) ) ;
#579 = DIRECTION ( 'NONE',  ( -1.000000000000000000, 0.000000000000000000, 0.000000000000000000 ) ) ;
#580 = CIRCLE ( 'NONE', #66, 0.4500000000000000111 ) ;
#581 = EDGE_LOOP ( 'NONE', ( #29, #462 ) ) ;
#582 = EDGE_CURVE ( 'NONE', #494, #299, #409, .T. ) ;
#583 = SURFACE_STYLE_USAGE ( .BOTH. , #4 ) ;
#584 = CARTESIAN_POINT ( 'NONE',  ( 0.000000000000000000, 30.00000000000000355, 0.000000000000000000 ) ) ;
#585 = PRODUCT_DEFINITION ( 'Êú', '', #83, #27 ) ;
ENDSEC;
END-ISO-10303-21;
